# SSTK version 0.8.0
# 34
mtllib original-34.mtl
o TB2L1/TB2L/mesh27/mesh27-geometry#mesh27-geometry
v 0.121567 -0.237976 -0.377354
v 0.121567 -0.162096 0.419384
v 0.121567 -0.237976 0.419384
v 0.121567 -0.162096 -0.377354
v 0.102597 -0.237976 0.419384
v 0.102597 -0.162096 -0.377354
v 0.102597 -0.162096 0.419384
v 0.102597 -0.237976 -0.377354
vt -1.644492 0.006719
vt -1.602825 0.444219
vt -1.644492 0.444219
vt -1.602825 0.006719
vt -1.602825 -0.707502
vt -1.644492 -0.698897
vt -1.644492 -0.707502
vt -2.005905 -0.001886
vt -2.005905 0.006719
vt -1.602825 -0.001886
vt -1.241412 -0.698897
vt -1.241412 -0.707502
vt -1.602825 -0.698897
vt -1.644492 -0.001886
vt -1.644492 -0.439386
vt -1.602825 -0.439386
vn 1 0 0
vn 0 0 1
vn 0 -1 0
vn 0 0 -1
vn 0 1 0
vn -1 0 0
usemtl material_0_0
f 1/1/1 2/2/1 3/3/1
f 2/2/1 1/1/1 4/4/1
f 2/5/2 5/6/2 3/7/2
f 5/8/3 1/1/3 3/9/3
f 1/1/4 6/10/4 4/4/4
f 6/11/5 2/5/5 4/12/5
f 5/6/2 2/5/2 7/13/2
f 1/1/3 5/8/3 8/14/3
f 6/10/4 1/1/4 8/14/4
f 2/5/5 6/11/5 7/13/5
f 6/10/6 5/15/6 7/16/6
f 5/15/6 6/10/6 8/14/6
usemtl material_1_0
f 3//6 2//6 1//6
f 4//6 1//6 2//6
f 3//4 5//4 2//4
f 3//5 1//5 5//5
f 4//2 6//2 1//2
f 4//3 2//3 6//3
f 7//4 2//4 5//4
f 8//5 5//5 1//5
f 8//2 1//2 6//2
f 7//3 6//3 2//3
f 7//1 5//1 6//1
f 8//1 6//1 5//1
