# SSTK version 0.8.0
# 59
mtllib original-59.mtl
o #ID282
v -0.368655 0.532002 0.551020
v -0.366478 0.531530 0.548470
v -0.368655 0.531530 0.548470
v -0.366478 0.532002 0.551020
v -0.366478 0.532002 0.551020
v -0.368655 0.532002 0.551020
v -0.366478 0.531530 0.548470
v -0.368655 0.531530 0.548470
v -0.368655 0.531530 0.548470
v -0.366478 0.531530 0.548470
v -0.368655 0.532002 0.551020
v -0.366478 0.532002 0.551020
v -0.368655 0.539190 0.547053
v -0.368655 0.532002 0.551020
v -0.368655 0.531530 0.548470
v -0.368655 0.539661 0.549602
v -0.368655 0.539661 0.549602
v -0.368655 0.539190 0.547053
v -0.368655 0.532002 0.551020
v -0.368655 0.531530 0.548470
v -0.368655 0.539190 0.547053
v -0.368655 0.539661 0.549602
v -0.365578 0.532048 0.551011
v -0.365578 0.531576 0.548462
v -0.365578 0.532048 0.551011
v -0.365578 0.531576 0.548462
v -0.365578 0.531576 0.548462
v -0.365578 0.532048 0.551011
v -0.366513 0.539661 0.549602
v -0.368655 0.539190 0.547053
v -0.366513 0.539190 0.547053
v -0.368655 0.539661 0.549602
v -0.368655 0.539661 0.549602
v -0.366513 0.539661 0.549602
v -0.368655 0.539190 0.547053
v -0.366513 0.539190 0.547053
v -0.366513 0.539190 0.547053
v -0.366513 0.539661 0.549602
v -0.365578 0.532048 0.551011
v -0.364896 0.531715 0.548436
v -0.365578 0.531576 0.548462
v -0.364896 0.532186 0.550985
v -0.364896 0.532186 0.550985
v -0.365578 0.532048 0.551011
v -0.364896 0.531715 0.548436
v -0.365578 0.531576 0.548462
v -0.364896 0.531715 0.548436
v -0.364896 0.532186 0.550985
v -0.365475 0.539139 0.547063
v -0.365475 0.539610 0.549612
v -0.365475 0.539610 0.549612
v -0.365475 0.539139 0.547063
v -0.365475 0.539139 0.547063
v -0.365475 0.539610 0.549612
v -0.364896 0.531715 0.548436
v -0.364380 0.532408 0.550944
v -0.364380 0.531937 0.548395
v -0.364896 0.532186 0.550985
v -0.364896 0.532186 0.550985
v -0.364896 0.531715 0.548436
v -0.364380 0.532408 0.550944
v -0.364380 0.531937 0.548395
v -0.364380 0.531937 0.548395
v -0.364380 0.532408 0.550944
v -0.364767 0.539456 0.549640
v -0.365475 0.539139 0.547063
v -0.364767 0.538985 0.547091
v -0.365475 0.539610 0.549612
v -0.365475 0.539610 0.549612
v -0.364767 0.539456 0.549640
v -0.365475 0.539139 0.547063
v -0.364767 0.538985 0.547091
v -0.364767 0.538985 0.547091
v -0.364767 0.539456 0.549640
v -0.364380 0.532408 0.550944
v -0.363981 0.532234 0.548340
v -0.364380 0.531937 0.548395
v -0.363981 0.532706 0.550889
v -0.363981 0.532706 0.550889
v -0.364380 0.532408 0.550944
v -0.363981 0.532234 0.548340
v -0.364380 0.531937 0.548395
v -0.363981 0.532234 0.548340
v -0.363981 0.532706 0.550889
v -0.364072 0.539030 0.549719
v -0.364767 0.538985 0.547091
v -0.364072 0.538558 0.547170
v -0.364767 0.539456 0.549640
v -0.364767 0.539456 0.549640
v -0.364072 0.539030 0.549719
v -0.364767 0.538985 0.547091
v -0.364072 0.538558 0.547170
v -0.364072 0.538558 0.547170
v -0.364072 0.539030 0.549719
v -0.363981 0.532706 0.550889
v -0.363554 0.532787 0.548238
v -0.363981 0.532234 0.548340
v -0.363554 0.533259 0.550787
v -0.363554 0.533259 0.550787
v -0.363981 0.532706 0.550889
v -0.363554 0.532787 0.548238
v -0.363981 0.532234 0.548340
v -0.363554 0.532787 0.548238
v -0.363554 0.533259 0.550787
v -0.364072 0.539030 0.549719
v -0.363491 0.537853 0.547300
v -0.363491 0.538324 0.549850
v -0.364072 0.538558 0.547170
v -0.364072 0.538558 0.547170
v -0.364072 0.539030 0.549719
v -0.363491 0.537853 0.547300
v -0.363491 0.538324 0.549850
v -0.363491 0.537853 0.547300
v -0.363491 0.538324 0.549850
v -0.363233 0.533975 0.550655
v -0.363554 0.532787 0.548238
v -0.363554 0.533259 0.550787
v -0.363233 0.533503 0.548105
v -0.363233 0.533503 0.548105
v -0.363233 0.533975 0.550655
v -0.363554 0.532787 0.548238
v -0.363554 0.533259 0.550787
v -0.363233 0.533503 0.548105
v -0.363233 0.533975 0.550655
v -0.363491 0.538324 0.549850
v -0.363261 0.537385 0.547387
v -0.363261 0.537857 0.549936
v -0.363491 0.537853 0.547300
v -0.363491 0.537853 0.547300
v -0.363491 0.538324 0.549850
v -0.363261 0.537385 0.547387
v -0.363261 0.537857 0.549936
v -0.363261 0.537385 0.547387
v -0.363261 0.537857 0.549936
v -0.363233 0.533975 0.550655
v -0.363032 0.534384 0.547942
v -0.363233 0.533503 0.548105
v -0.363032 0.534856 0.550491
v -0.363032 0.534856 0.550491
v -0.363233 0.533975 0.550655
v -0.363032 0.534384 0.547942
v -0.363233 0.533503 0.548105
v -0.363032 0.534384 0.547942
v -0.363032 0.534856 0.550491
v -0.363097 0.537298 0.550040
v -0.363261 0.537385 0.547387
v -0.363097 0.536826 0.547490
v -0.363261 0.537857 0.549936
v -0.363261 0.537857 0.549936
v -0.363097 0.537298 0.550040
v -0.363261 0.537385 0.547387
v -0.363097 0.536826 0.547490
v -0.363097 0.536826 0.547490
v -0.363097 0.537298 0.550040
v -0.362966 0.535907 0.550297
v -0.363032 0.534384 0.547942
v -0.363032 0.534856 0.550491
v -0.362966 0.535435 0.547748
v -0.362966 0.535435 0.547748
v -0.362966 0.535907 0.550297
v -0.363032 0.534384 0.547942
v -0.363032 0.534856 0.550491
v -0.362966 0.535435 0.547748
v -0.362966 0.535907 0.550297
v -0.363097 0.537298 0.550040
v -0.362966 0.535435 0.547748
v -0.362966 0.535907 0.550297
v -0.363097 0.536826 0.547490
v -0.363097 0.536826 0.547490
v -0.363097 0.537298 0.550040
v -0.362966 0.535435 0.547748
v -0.362966 0.535907 0.550297
vn 0 0.9833110600940422 -0.18193229261659644
vn -0.02606037029837426 0.9829770990200681 -0.181870503111425
vn 1 0 0
vn -0.0521030528174196 0.9819754419286834 -0.18168517643460122
vn -0.025101870978343228 -0.9830012171980209 0.18187496545867884
vn 0 -0.9833110600940422 0.18193229261659644
vn -0.2021105126813649 0.9630181960954518 -0.17817770526285787
vn -0.050187931619572496 -0.982071883332065 0.18170302003092842
vn -0.40154792205316053 0.9005536475657555 -0.16662050939425713
vn -0.21591431218262092 -0.9601170290102696 0.1776409310919048
vn -0.6041585015636316 0.7835653514813198 -0.14497532530173302
vn -0.5297126151479123 -0.8340220116823625 0.15431082069143637
vn -0.7965890452030526 0.5944323916288449 -0.10998192962892062
vn -0.7767184218245755 -0.6193364968458148 0.11458968920934769
vn -0.9150246220516632 0.3966657084812904 -0.07339112176719116
vn -0.9005127690884135 -0.42757272290683845 0.07910954009946983
vn -0.9758069824981107 0.21498502106966713 -0.03977654614979231
vn -0.9607577222380941 -0.27275956856125655 0.05046599764342847
vn -0.9980430875055729 0.06148639799017636 -0.01137621837592213
vn -0.9957208829986743 -0.0908694512858854 0.016812673295540995
vn 0.02606037029837426 -0.9829770990200681 0.181870503111425
vn -1 0 0
vn 0.0521030528174196 -0.9819754419286834 0.18168517643460122
vn 0.025101870978343228 0.9830012171980209 -0.18187496545867884
vn 0.2021105126813649 -0.9630181960954518 0.17817770526285787
vn 0.050187931619572496 0.982071883332065 -0.18170302003092842
vn 0.40154792205316053 -0.9005536475657555 0.16662050939425713
vn 0.21591431218262092 0.9601170290102696 -0.1776409310919048
vn 0.6041585015636316 -0.7835653514813198 0.14497532530173302
vn 0.5297126151479123 0.8340220116823625 -0.15431082069143637
vn 0.7965890452030526 -0.5944323916288449 0.10998192962892062
vn 0.7767184218245755 0.6193364968458148 -0.11458968920934769
vn 0.9150246220516632 -0.3966657084812904 0.07339112176719116
vn 0.9005127690884135 0.42757272290683845 -0.07910954009946983
vn 0.9758069824981107 -0.21498502106966713 0.03977654614979231
vn 0.9607577222380941 0.27275956856125655 -0.05046599764342847
vn 0.9980430875055729 -0.06148639799017636 0.01137621837592213
vn 0.9957208829986743 0.0908694512858854 -0.016812673295540995
usemtl material_0_0
f 1//1 2//2 3//1
f 2//2 1//1 4//2
f 13//3 14//3 15//3
f 14//3 13//3 16//3
f 2//2 23//4 24//4
f 23//4 2//2 4//2
f 29//5 30//6 31//5
f 30//6 29//5 32//6
f 39//7 40//7 41//7
f 40//7 39//7 42//7
f 49//8 29//5 31//5
f 29//5 49//8 50//8
f 55//9 56//9 57//9
f 56//9 55//9 58//9
f 65//10 66//10 67//10
f 66//10 65//10 68//10
f 75//11 76//11 77//11
f 76//11 75//11 78//11
f 85//12 86//12 87//12
f 86//12 85//12 88//12
f 95//13 96//13 97//13
f 96//13 95//13 98//13
f 105//14 106//14 107//14
f 106//14 105//14 108//14
f 115//15 116//15 117//15
f 116//15 115//15 118//15
f 125//16 126//16 127//16
f 126//16 125//16 128//16
f 135//17 136//17 137//17
f 136//17 135//17 138//17
f 145//18 146//18 147//18
f 146//18 145//18 148//18
f 155//19 156//19 157//19
f 156//19 155//19 158//19
f 165//20 166//20 167//20
f 166//20 165//20 168//20
usemtl material_1_0
f 5//21 6//6 7//21
f 8//6 7//21 6//6
f 17//22 18//22 19//22
f 20//22 19//22 18//22
f 5//21 7//21 25//23
f 26//23 25//23 7//21
f 33//1 34//24 35//1
f 36//24 35//1 34//24
f 43//25 44//25 45//25
f 46//25 45//25 44//25
f 51//26 52//26 34//24
f 36//24 34//24 52//26
f 59//27 60//27 61//27
f 62//27 61//27 60//27
f 69//28 70//28 71//28
f 72//28 71//28 70//28
f 79//29 80//29 81//29
f 82//29 81//29 80//29
f 89//30 90//30 91//30
f 92//30 91//30 90//30
f 99//31 100//31 101//31
f 102//31 101//31 100//31
f 109//32 110//32 111//32
f 112//32 111//32 110//32
f 119//33 120//33 121//33
f 122//33 121//33 120//33
f 129//34 130//34 131//34
f 132//34 131//34 130//34
f 139//35 140//35 141//35
f 142//35 141//35 140//35
f 149//36 150//36 151//36
f 152//36 151//36 150//36
f 159//37 160//37 161//37
f 162//37 161//37 160//37
f 169//38 170//38 171//38
f 172//38 171//38 170//38
usemtl material_2_0
