# SSTK version 0.8.0
# 7
mtllib original-7.mtl
o #ID361
v -0.449871 0.670620 0.540911
v -0.449847 0.670270 0.540911
v -0.449847 0.670514 0.540911
v -0.449905 0.670550 0.540911
v -0.450091 0.670270 0.540911
v -0.449949 0.670484 0.540911
v -0.450002 0.670425 0.540911
v -0.450061 0.670372 0.540911
v -0.450127 0.670329 0.540911
v -0.450197 0.670294 0.540911
v -0.450197 0.670294 0.540911
v -0.450127 0.670329 0.540911
v -0.450091 0.670270 0.540911
v -0.450061 0.670372 0.540911
v -0.450002 0.670425 0.540911
v -0.449949 0.670484 0.540911
v -0.449905 0.670550 0.540911
v -0.449847 0.670270 0.540911
v -0.449871 0.670620 0.540911
v -0.449847 0.670514 0.540911
v -0.449847 0.670514 0.540911
v -0.449847 0.670270 0.540911
v -0.449871 0.670620 0.540911
v -0.449905 0.670550 0.540911
v -0.449949 0.670484 0.540911
v -0.450002 0.670425 0.540911
v -0.450061 0.670372 0.540911
v -0.450127 0.670329 0.540911
v -0.450197 0.670294 0.540911
v -0.450091 0.670270 0.540911
v -0.449847 0.670514 0.566837
v -0.449847 0.670270 0.540911
v -0.449847 0.670270 0.566837
v -0.449847 0.670514 0.540911
v -0.449847 0.670514 0.540911
v -0.449847 0.670514 0.566837
v -0.449847 0.670270 0.540911
v -0.449847 0.670270 0.566837
v -0.449847 0.670270 0.566837
v -0.449847 0.670514 0.566837
v -0.449871 0.670620 0.566837
v -0.449847 0.670514 0.540911
v -0.449847 0.670514 0.566837
v -0.449871 0.670620 0.540911
v -0.449871 0.670620 0.540911
v -0.449871 0.670620 0.566837
v -0.449847 0.670514 0.540911
v -0.449847 0.670514 0.566837
v -0.449871 0.670620 0.566837
v -0.449871 0.670620 0.540911
v -0.449905 0.670550 0.566837
v -0.449905 0.670550 0.540911
v -0.449871 0.670620 0.566837
v -0.449871 0.670620 0.566837
v -0.449871 0.670620 0.540911
v -0.449905 0.670550 0.566837
v -0.449905 0.670550 0.540911
v -0.449905 0.670550 0.566837
v -0.449905 0.670550 0.540911
v -0.449949 0.670484 0.566837
v -0.449949 0.670484 0.540911
v -0.449905 0.670550 0.566837
v -0.449905 0.670550 0.566837
v -0.449905 0.670550 0.540911
v -0.449949 0.670484 0.566837
v -0.449949 0.670484 0.540911
v -0.449949 0.670484 0.566837
v -0.449949 0.670484 0.540911
v -0.450002 0.670425 0.566837
v -0.450002 0.670425 0.540911
v -0.449949 0.670484 0.566837
v -0.449949 0.670484 0.566837
v -0.449949 0.670484 0.540911
v -0.450002 0.670425 0.566837
v -0.450002 0.670425 0.540911
v -0.450002 0.670425 0.566837
v -0.450061 0.670372 0.540911
v -0.450002 0.670425 0.566837
v -0.450061 0.670372 0.566837
v -0.450002 0.670425 0.540911
v -0.450002 0.670425 0.540911
v -0.450061 0.670372 0.540911
v -0.450002 0.670425 0.566837
v -0.450061 0.670372 0.566837
v -0.450061 0.670372 0.566837
v -0.450127 0.670329 0.540911
v -0.450061 0.670372 0.566837
v -0.450127 0.670329 0.566837
v -0.450061 0.670372 0.540911
v -0.450061 0.670372 0.540911
v -0.450127 0.670329 0.540911
v -0.450061 0.670372 0.566837
v -0.450127 0.670329 0.566837
v -0.450127 0.670329 0.566837
v -0.450197 0.670294 0.540911
v -0.450127 0.670329 0.566837
v -0.450197 0.670294 0.566837
v -0.450127 0.670329 0.540911
v -0.450127 0.670329 0.540911
v -0.450197 0.670294 0.540911
v -0.450127 0.670329 0.566837
v -0.450197 0.670294 0.566837
v -0.450197 0.670294 0.566837
v -0.450091 0.670270 0.540911
v -0.450197 0.670294 0.566837
v -0.450091 0.670270 0.566837
v -0.450197 0.670294 0.540911
v -0.450197 0.670294 0.540911
v -0.450091 0.670270 0.540911
v -0.450197 0.670294 0.566837
v -0.450091 0.670270 0.566837
v -0.450091 0.670270 0.566837
v -0.449847 0.670270 0.540911
v -0.450091 0.670270 0.566837
v -0.449847 0.670270 0.566837
v -0.450091 0.670270 0.540911
v -0.450091 0.670270 0.540911
v -0.449847 0.670270 0.540911
v -0.450091 0.670270 0.566837
v -0.449847 0.670270 0.566837
vn 0 0 1
vn -1 0 0
vn -0.975818362105285 -0.2185829915115966 0
vn 0.8968727295281989 -0.44228871456169694 0
vn 0.8314696237583303 -0.5555702158748078 0
vn 0.7518398117130329 -0.6593458102720537 0
vn 0.6593458102720542 -0.7518398117130327 0
vn 0.5555702158748083 -0.8314696237583301 0
vn 0.4422887145616974 -0.8968727295281986 0
vn 0.2185829915115961 0.975818362105285 0
vn 0 1 0
vn 0 0 -1
vn 1 0 0
vn 0.975818362105285 0.2185829915115966 0
vn -0.8968727295281989 0.44228871456169694 0
vn -0.8314696237583303 0.5555702158748078 0
vn -0.7518398117130329 0.6593458102720537 0
vn -0.6593458102720542 0.7518398117130327 0
vn -0.5555702158748083 0.8314696237583301 0
vn -0.4422887145616974 0.8968727295281986 0
vn -0.2185829915115961 -0.975818362105285 0
vn 0 -1 0
usemtl material_0_0
f 1//1 2//1 3//1
f 2//1 1//1 4//1
f 2//1 4//1 5//1
f 5//1 4//1 6//1
f 5//1 6//1 7//1
f 5//1 7//1 8//1
f 5//1 8//1 9//1
f 5//1 9//1 10//1
f 31//2 32//2 33//2
f 32//2 31//2 34//2
f 41//3 42//3 43//3
f 42//3 41//3 44//3
f 50//4 51//4 52//4
f 51//4 50//4 53//4
f 59//5 60//5 61//5
f 60//5 59//5 62//5
f 68//6 69//6 70//6
f 69//6 68//6 71//6
f 77//7 78//7 79//7
f 78//7 77//7 80//7
f 86//8 87//8 88//8
f 87//8 86//8 89//8
f 95//9 96//9 97//9
f 96//9 95//9 98//9
f 104//10 105//10 106//10
f 105//10 104//10 107//10
f 113//11 114//11 115//11
f 114//11 113//11 116//11
usemtl material_1_0
f 11//12 12//12 13//12
f 12//12 14//12 13//12
f 14//12 15//12 13//12
f 15//12 16//12 13//12
f 16//12 17//12 13//12
f 13//12 17//12 18//12
f 17//12 19//12 18//12
f 20//12 18//12 19//12
f 35//13 36//13 37//13
f 38//13 37//13 36//13
f 45//14 46//14 47//14
f 48//14 47//14 46//14
f 54//15 55//15 56//15
f 57//15 56//15 55//15
f 63//16 64//16 65//16
f 66//16 65//16 64//16
f 72//17 73//17 74//17
f 75//17 74//17 73//17
f 81//18 82//18 83//18
f 84//18 83//18 82//18
f 90//19 91//19 92//19
f 93//19 92//19 91//19
f 99//20 100//20 101//20
f 102//20 101//20 100//20
f 108//21 109//21 110//21
f 111//21 110//21 109//21
f 117//22 118//22 119//22
f 120//22 119//22 118//22
usemtl material_2_0
