# SSTK version 0.8.0
# 1
mtllib original-1.mtl
o #ID306
v -0.461149 -0.750918 -0.516864
v 0.420330 -0.750918 0.442393
v -0.461149 -0.750918 0.442393
v 0.420330 -0.750918 -0.516864
v 0.420330 -0.750918 -0.516864
v -0.461149 -0.750918 -0.516864
v 0.420330 -0.750918 0.442393
v -0.461149 -0.750918 0.442393
v -0.461149 -0.750918 -0.516864
v 0.420330 -0.750918 -0.516864
v 0.420330 -0.750918 0.442393
v -0.461149 -0.750918 0.442393
vn 0 -1 0
vn 0 1 0
usemtl material_0_0
f 1//1 2//1 3//1
f 2//1 1//1 4//1
usemtl material_1_0
f 5//2 6//2 7//2
f 8//2 7//2 6//2
usemtl material_2_0
