# SSTK version 0.8.0
# 23
mtllib original-23.mtl
o #ID145
v 0.683907 0.034098 0.391106
v 0.670358 0.034098 0.391106
v 0.677133 0.033206 0.391106
v 0.690220 0.036713 0.391106
v 0.664046 0.036713 0.391106
v 0.695641 0.040873 0.391106
v 0.658625 0.040873 0.391106
v 0.699800 0.046293 0.391106
v 0.654465 0.046293 0.391106
v 0.702415 0.052606 0.391106
v 0.651851 0.052606 0.391106
v 0.702865 0.056020 0.391106
v 0.651402 0.056020 0.391106
v 0.650959 0.059380 0.391106
v 0.703307 0.059380 0.391106
v 0.702865 0.062740 0.391106
v 0.651402 0.062740 0.391106
v 0.702415 0.066155 0.391106
v 0.651851 0.066155 0.391106
v 0.699800 0.072467 0.391106
v 0.654465 0.072467 0.391106
v 0.695641 0.077888 0.391106
v 0.658625 0.077888 0.391106
v 0.690220 0.082047 0.391106
v 0.664046 0.082047 0.391106
v 0.683907 0.084662 0.391106
v 0.670358 0.084662 0.391106
v 0.677133 0.085554 0.391106
vn 0 0 1
vn 0 0 -1
usemtl material_0_2
f 1//1 2//1 3//1
f 3//2 2//2 1//2
f 2//1 1//1 4//1
f 4//2 1//2 2//2
f 2//1 4//1 5//1
f 5//2 4//2 2//2
f 5//1 4//1 6//1
f 6//2 4//2 5//2
f 5//1 6//1 7//1
f 7//2 6//2 5//2
f 7//1 6//1 8//1
f 8//2 6//2 7//2
f 7//1 8//1 9//1
f 9//2 8//2 7//2
f 9//1 8//1 10//1
f 10//2 8//2 9//2
f 9//1 10//1 11//1
f 11//2 10//2 9//2
f 11//1 10//1 12//1
f 12//2 10//2 11//2
f 11//1 12//1 13//1
f 13//2 12//2 11//2
f 13//1 12//1 14//1
f 14//2 12//2 13//2
f 14//1 12//1 15//1
f 15//2 12//2 14//2
f 14//1 15//1 16//1
f 16//2 15//2 14//2
f 14//1 16//1 17//1
f 17//2 16//2 14//2
f 17//1 16//1 18//1
f 18//2 16//2 17//2
f 17//1 18//1 19//1
f 19//2 18//2 17//2
f 19//1 18//1 20//1
f 20//2 18//2 19//2
f 19//1 20//1 21//1
f 21//2 20//2 19//2
f 21//1 20//1 22//1
f 22//2 20//2 21//2
f 21//1 22//1 23//1
f 23//2 22//2 21//2
f 23//1 22//1 24//1
f 24//2 22//2 23//2
f 23//1 24//1 25//1
f 25//2 24//2 23//2
f 25//1 24//1 26//1
f 26//2 24//2 25//2
f 25//1 26//1 27//1
f 27//2 26//2 25//2
f 27//1 26//1 28//1
f 28//2 26//2 27//2
