# SSTK version 0.8.0
# 1
mtllib original-1.mtl
o stapler_base1/stapler_base/mesh5/mesh5-geometry#mesh5-geometry
v -0.198623 -0.190736 -0.920253
v -0.216621 -0.280723 -0.920253
v -0.216621 -0.190736 -0.920253
v 0.215314 -0.280723 -0.920253
v -0.216621 -0.190736 0.951466
v -0.198623 -0.172739 -0.902256
v 0.215314 -0.190736 -0.920253
v 0.215314 -0.280723 0.951466
v -0.216621 -0.280723 0.951466
v -0.198623 -0.172739 0.933468
v 0.197317 -0.172739 -0.902256
v 0.215314 -0.190736 0.951466
v 0.197317 -0.172739 0.933468
v -0.126634 -0.172739 0.609517
v 0.125328 -0.172739 0.825485
v -0.126634 -0.172739 0.825485
v 0.125328 -0.172739 0.609517
v -0.126634 -0.16374 0.825485
v 0.125328 -0.16374 0.609517
v -0.126634 -0.16374 0.609517
v 0.125328 -0.16374 0.825485
v -0.117636 -0.16374 0.825485
v -0.117636 -0.154742 0.816486
v -0.117636 -0.154742 0.618516
v 0.116329 -0.154742 0.618516
v 0.116329 -0.154742 0.816486
v -0.09064 -0.154742 0.645512
v 0.089333 -0.154742 0.645512
v -0.09064 -0.154742 0.663509
v 0.089333 -0.154742 0.663509
v 0.089333 -0.154742 0.78949
v -0.09064 -0.154742 0.760643
v -0.09064 -0.190736 0.663509
v -0.036648 -0.154742 0.645512
v 0.089333 -0.190736 0.645512
v 0.089333 -0.154742 0.760643
v -0.09064 -0.154742 0.78949
v -0.036648 -0.154742 0.663509
v -0.09064 -0.190736 0.645512
v -0.036648 -0.190736 0.645512
v 0.035342 -0.154742 0.645512
v 0.089333 -0.190736 0.663509
v 0.089333 -0.190736 0.760643
v -0.09064 -0.190736 0.78949
v 0.035342 -0.154742 0.663509
v -0.036648 -0.190736 0.663509
v 0.035342 -0.190736 0.663509
v 0.035342 -0.190736 0.645512
v 0.089333 -0.190736 0.78949
v -0.09064 -0.190736 0.760643
vt 1.515625 0.101562
vt 1.328125 0.09375
vt 1.515625 0.09375
vt -0.078125 0.09375
vt -0.296875 0.101562
vt -0.296875 0.09375
vt -1.328125 0.101562
vt -1.515625 0.09375
vt -1.328125 0.09375
vt 0.296875 0.09375
vt 0.078125 0.101562
vt 0.078125 0.09375
vt 1.328125 0.101562
vt -0.078125 0.101562
vt -1.515625 0.101562
vt 0.085938 0.101562
vt 1.507812 0.138107
vt 1.328125 0.127058
vt 1.515625 0.127058
vt -0.085938 1.02199
vt -0.296875 1.010942
vt -0.078125 1.010942
vt -1.335938 -0.127058
vt -1.515625 -0.138107
vt -1.328125 -0.138107
vt 0.296875 0.101562
vt 0.085938 -0.988845
vt 0.078125 -0.999893
vt 0.085938 -0.999893
vt 1.335938 0.138107
vt -0.289062 1.02199
vt -1.507812 -0.127058
vt 0.296875 -0.999893
vt 1.359375 0.109375
vt 1.335938 0.085938
vt 1.507812 0.085938
vt 1.335938 0.289062
vt 1.359375 0.265625
vt 1.507812 0.289062
vt 0.289062 -0.988845
vt 1.375 0.109375
vt 1.375 0.265625
vt 1.484375 0.265625
vt 1.45933 0.109375
vt -1.375 0.078125
vt -1.359375 0.109375
vt -1.375 0.109375
vt 1.359375 0.15625
vt 1.359375 0.078125
vt 1.45933 0.265625
vt 1.484375 0.109375
vt 1.375 0.15625
vt -1.359375 0.078125
vt -0.15625 0.109375
vt -0.109375 0.078125
vt -0.109375 0.109375
vt 0.109375 0.109375
vt 0.15625 0.078125
vt 0.15625 0.109375
vt 1.359375 0.21875
vt 1.375 0.078125
vt 0.21875 0.109375
vt 0.265625 0.078125
vt 0.265625 0.109375
vt 1.45933 0.078125
vt -0.265625 0.109375
vt -1.484375 0.078125
vt -1.45933 0.109375
vt -1.484375 0.109375
vt 1.375 0.21875
vt 0.109375 0.078125
vt -0.15625 0.078125
vt -0.21875 0.078125
vt -0.265625 0.078125
vt 0.21875 0.078125
vt 1.484375 0.078125
vt -1.45933 0.078125
vt -0.21875 0.109375
vn 0.0 0.0 -1.0
vn 0.0 0.0 1.0
vn 1.0 0.0 0.0
vn 0.0 0.7071067811865476 -0.7071067811865476
vn 0.0 -0.7071067811865476 0.7071067811865476
vn 0.0 1.0 0.0
vn 0.7071067811865478 -0.7071067811865476 0.0
vn -1.0 0.0 0.0
vn 0.0 -0.7071067811865476 -0.7071067811865476
vn 0.0 -1.0 0.0
vn -0.7071067811865476 -0.7071067811865478 0.0
vn -0.7071067811865478 0.7071067811865476 0.0
vn 0.0 0.7071067811865476 0.7071067811865476
vn 0.7071067811865476 0.7071067811865478 0.0
usemtl material_0_0
f 1//1 2//1 3//1
f 2//1 1//1 4//1
f 3//2 2//2 1//2
f 4//2 1//2 2//2
f 3//3 5//3 2//3
f 6//4 1//4 3//4
f 3//5 1//5 6//5
f 4//1 1//1 7//1
f 7//2 1//2 4//2
f 4//6 2//6 8//6
f 9//3 2//3 5//3
f 5//7 3//7 10//7
f 1//4 6//4 11//4
f 11//5 6//5 1//5
f 6//7 10//7 3//7
f 1//4 11//4 7//4
f 7//5 11//5 1//5
f 4//8 8//8 7//8
f 9//6 8//6 2//6
f 9//1 5//1 8//1
f 5//9 10//9 12//9
f 6//10 11//10 10//10
f 7//11 12//11 11//11
f 12//8 7//8 8//8
f 12//1 8//1 5//1
f 13//9 12//9 10//9
f 14//10 10//10 11//10
f 13//11 11//11 12//11
f 10//10 15//10 13//10
f 16//10 10//10 14//10
f 14//10 11//10 17//10
f 13//10 17//10 11//10
f 15//10 17//10 13//10
f 15//10 10//10 16//10
f 16//3 14//3 18//3
f 17//2 19//2 14//2
f 17//8 15//8 19//8
f 16//1 18//1 15//1
f 20//3 18//3 14//3
f 20//2 14//2 19//2
f 21//8 19//8 15//8
f 22//1 15//1 18//1
f 18//7 20//7 23//7
f 18//6 19//6 20//6
f 20//10 19//10 18//10
f 20//5 19//5 24//5
f 19//11 21//11 25//11
f 19//6 18//6 21//6
f 21//10 18//10 19//10
f 21//1 15//1 22//1
f 22//9 18//9 23//9
f 21//6 18//6 22//6
f 22//10 18//10 21//10
f 24//7 23//7 20//7
f 25//5 24//5 19//5
f 26//11 25//11 21//11
f 22//9 23//9 21//9
f 23//10 24//10 27//10
f 25//10 27//10 24//10
f 26//10 28//10 25//10
f 26//9 21//9 23//9
f 29//10 23//10 27//10
f 27//10 25//10 28//10
f 30//10 28//10 26//10
f 23//10 31//10 26//10
f 32//10 23//10 29//10
f 29//8 27//8 33//8
f 34//10 27//10 28//10
f 28//3 30//3 35//3
f 36//10 30//10 26//10
f 31//10 36//10 26//10
f 31//10 23//10 37//10
f 37//10 23//10 32//10
f 38//10 32//10 29//10
f 39//8 33//8 27//8
f 29//2 33//2 38//2
f 34//1 40//1 27//1
f 41//10 34//10 28//10
f 42//3 35//3 30//3
f 28//1 35//1 41//1
f 32//10 30//10 36//10
f 36//3 31//3 43//3
f 37//2 44//2 31//2
f 37//8 32//8 44//8
f 45//10 32//10 38//10
f 33//6 40//6 39//6
f 39//10 40//10 33//10
f 39//1 27//1 40//1
f 46//2 38//2 33//2
f 34//3 38//3 40//3
f 34//10 41//10 38//10
f 35//6 47//6 42//6
f 42//10 47//10 35//10
f 42//2 30//2 47//2
f 48//1 41//1 35//1
f 30//10 32//10 45//10
f 36//1 43//1 32//1
f 49//3 43//3 31//3
f 49//2 31//2 44//2
f 50//8 44//8 32//8
f 45//10 38//10 41//10
f 40//6 33//6 46//6
f 46//10 33//10 40//10
f 46//3 40//3 38//3
f 47//6 35//6 48//6
f 48//10 35//10 47//10
f 45//2 47//2 30//2
f 48//8 47//8 41//8
f 50//1 32//1 43//1
f 43//6 44//6 49//6
f 49//10 44//10 43//10
f 44//6 43//6 50//6
f 50//10 43//10 44//10
f 45//8 41//8 47//8
usemtl material_1_0
f 2//8 5//8 3//8
f 8//10 2//10 4//10
f 5//8 2//8 9//8
f 10//12 3//12 5//12
f 3//12 10//12 6//12
f 7//3 8//3 4//3
f 2//10 8//10 9//10
f 8//2 5//2 9//2
f 12//13 10//13 5//13
f 10//6 11//6 6//6
f 11//14 12//14 7//14
f 8//3 7//3 12//3
f 5//2 8//2 12//2
f 10//13 12//13 13//13
f 11//6 10//6 14//6
f 12//14 11//14 13//14
f 13//6 15//6 10//6
f 14//6 10//6 16//6
f 17//6 11//6 14//6
f 11//6 17//6 13//6
f 13//6 17//6 15//6
f 16//6 10//6 15//6
usemtl material_2_0
f 18/1/8 14/2/8 16/3/8
f 14/4/1 19/5/1 17/6/1
f 19/7/3 15/8/3 17/9/3
f 15/10/2 18/11/2 16/12/2
f 14/2/8 18/1/8 20/13/8
f 19/5/1 14/4/1 20/14/1
f 15/8/3 19/7/3 21/15/3
f 18/11/2 15/10/2 22/16/2
f 23/17/12 20/18/12 18/19/12
f 24/20/4 19/21/4 20/22/4
f 25/23/14 21/24/14 19/25/14
f 22/16/2 15/10/2 21/26/2
f 23/27/13 18/28/13 22/29/13
f 20/18/12 23/17/12 24/30/12
f 19/21/4 24/20/4 25/31/4
f 21/24/14 25/23/14 26/32/14
f 21/33/13 23/27/13 22/29/13
f 27/34/6 24/35/6 23/36/6
f 24/35/6 27/34/6 25/37/6
f 25/37/6 28/38/6 26/39/6
f 23/27/13 21/33/13 26/40/13
f 27/34/6 23/36/6 29/41/6
f 28/38/6 25/37/6 27/34/6
f 26/39/6 28/38/6 30/42/6
f 26/39/6 31/43/6 23/36/6
f 29/41/6 23/36/6 32/44/6
f 33/45/3 27/46/3 29/47/3
f 28/38/6 27/34/6 34/48/6
f 35/49/8 30/41/8 28/34/8
f 26/39/6 30/42/6 36/50/6
f 26/39/6 36/50/6 31/43/6
f 37/51/6 23/36/6 31/43/6
f 32/44/6 23/36/6 37/51/6
f 29/41/6 32/44/6 38/52/6
f 27/46/3 33/45/3 39/53/3
f 38/54/1 33/55/1 29/56/1
f 27/57/2 40/58/2 34/59/2
f 28/38/6 34/48/6 41/60/6
f 30/41/8 35/49/8 42/61/8
f 41/62/2 35/63/2 28/64/2
f 36/50/6 30/42/6 32/44/6
f 43/65/8 31/51/8 36/44/8
f 31/66/1 44/55/1 37/56/1
f 44/67/3 32/68/3 37/69/3
f 38/52/6 32/44/6 45/70/6
f 40/58/2 27/57/2 39/71/2
f 33/55/1 38/54/1 46/72/1
f 40/49/8 38/41/8 34/34/8
f 38/52/6 41/60/6 34/48/6
f 47/73/1 30/66/1 42/74/1
f 35/63/2 41/62/2 48/75/2
f 45/70/6 32/44/6 30/42/6
f 32/57/2 43/63/2 36/64/2
f 31/51/8 43/65/8 49/76/8
f 44/55/1 31/66/1 49/74/1
f 32/68/3 44/67/3 50/77/3
f 41/60/6 38/52/6 45/70/6
f 38/41/8 40/49/8 46/61/8
f 30/66/1 47/73/1 45/78/1
f 41/46/3 47/45/3 48/53/3
f 43/63/2 32/57/2 50/71/2
f 47/45/3 41/46/3 45/47/3
