# SSTK version 0.8.0
# 141
mtllib original-141.mtl
o Component_52_1/Component_52/mesh105/mesh105-geometry#mesh105-geometry
v -0.383194 -0.323486 0.176121
v -0.371288 -0.331689 0.175270
v -0.372373 -0.334307 0.176121
v -0.380576 -0.322401 0.175270
v 0.356880 -0.334307 0.176121
v -0.372373 -0.334307 0.178874
v -0.383194 -0.237790 0.176121
v -0.370618 -0.330071 0.177498
v 0.356880 -0.331689 0.175270
v -0.383194 -0.323486 0.178874
v -0.380576 -0.236487 0.175270
v -0.378957 -0.321731 0.177498
v 0.356880 -0.330071 0.177498
v 0.356880 -0.334307 0.178874
v -0.371288 -0.331689 0.179725
v -0.407761 -0.219195 0.176121
v -0.378957 -0.235683 0.177498
v -0.383194 -0.237790 0.178874
v -0.380576 -0.322401 0.179725
v 0.356880 -0.331689 0.179725
v -0.405143 -0.217893 0.175270
v -0.407761 -0.219195 0.178874
v -0.403524 -0.217089 0.177498
v -0.380576 -0.236487 0.179725
v -0.407761 -0.184667 0.176121
v -0.405143 -0.184314 0.175270
v -0.403524 -0.185237 0.177498
v -0.407761 -0.185807 0.178874
v -0.405143 -0.217893 0.179725
v -0.405143 -0.168884 0.190701
v -0.405143 -0.186160 0.179725
v -0.407761 -0.169734 0.191054
v -0.403524 -0.171111 0.191624
v -0.407761 -0.172487 0.192194
v -0.405143 -0.168884 0.214465
v -0.405143 -0.173338 0.192546
v -0.407761 -0.172487 0.214465
v -0.407761 -0.169734 0.214465
v -0.403524 -0.171111 0.214465
v -0.405143 -0.173338 0.214465
vn -0.7262199196986 -0.30080996673809013 -0.6181569316476102
vn 0.11002601791878373 0.26562604325972833 -0.9577771559831214
vn -0.30080996673809024 -0.7262199196985999 -0.6181569316476102
vn 0.26562604325972805 0.11002601791878391 -0.9577771559831213
vn 0.30080996673809024 0.7262199196985999 0.6181569316476102
vn -0.11002601791878373 -0.26562604325972833 0.9577771559831214
vn 0.7262199196986 0.30080996673809013 0.6181569316476102
vn -0.26562604325972805 -0.11002601791878391 0.9577771559831213
vn 0.5257310166020599 -0.6881910217323844 -0.5000000157895008
vn -0.5257310166020599 0.6881910217323844 0.5000000157895008
vn -0.30080996673809024 -0.7262199196986001 0.61815693164761
vn 0.30080996673809024 0.7262199196986001 -0.61815693164761
vn -0.6953059879388749 -0.34575099400243026 -0.6300839890702483
vn 0.6953059879388749 0.34575099400243026 0.6300839890702483
vn 0.38268289803626016 0.9238797538373538 0
vn -0.38268289803626016 -0.9238797538373538 0
vn 0.5257309672453846 0.26286598362266134 -0.8090169495958186
vn -0.5257309672453846 -0.26286598362266134 0.8090169495958186
vn -0.7262199196986 -0.30080996673809035 0.61815693164761
vn 0.7262199196986 0.30080996673809035 -0.61815693164761
vn 0.25013296056228956 0.12438198038906804 -0.9601888486099166
vn -0.25013296056228956 -0.12438198038906804 0.9601888486099166
vn 0.9238797538373538 0.38268289803626016 0
vn -0.9238797538373538 -0.38268289803626016 0
vn 0.5257309452814002 0.8506509114634071 0
vn -0.5257309452814002 -0.8506509114634071 0
vn 0.5257310166020599 -0.6881910217323847 0.5000000157895005
vn -0.5257310166020599 0.6881910217323847 -0.5000000157895005
vn 0.1100260179187837 0.26562604325972783 0.9577771559831214
vn -0.1100260179187837 -0.26562604325972783 -0.9577771559831214
vn 0.8954052428657218 0.445252120768198 0
vn -0.8954052428657218 -0.445252120768198 0
vn -0.6953059879388749 -0.3457509940024306 0.6300839890702481
vn 0.6953059879388749 0.3457509940024306 -0.6300839890702481
vn 0.26562604325972805 0.1100260179187835 0.9577771559831213
vn -0.26562604325972805 -0.1100260179187835 -0.9577771559831213
vn 0.5257309672453845 0.26286598362266095 0.8090169495958186
vn -0.5257309672453845 -0.26286598362266095 -0.8090169495958186
vn 0.25013296056228956 0.12438198038906763 0.9601888486099166
vn -0.25013296056228956 -0.12438198038906763 -0.9601888486099166
vn -0.6773500737061909 0.2815250306342888 -0.6796620739577722
vn 0.6773500737061909 -0.2815250306342888 0.6796620739577722
vn 0.33177101358502803 0.3610080147821957 -0.871551035687401
vn -0.33177101358502803 -0.3610080147821957 0.871551035687401
vn 1 0 0
vn -1 0 0
vn -0.6773500737061909 -0.2815250306342888 0.6796620739577722
vn 0.6773500737061909 0.2815250306342888 -0.6796620739577722
vn 0.33177101358502803 0.8715510356874012 -0.36100801478219535
vn -0.33177101358502803 -0.8715510356874012 0.36100801478219535
vn 0.33177101358502803 -0.3610080147821957 0.871551035687401
vn -0.33177101358502803 0.3610080147821957 -0.871551035687401
vn -0.6773500737061909 0.6796620739577725 -0.28152503063428846
vn 0.6773500737061909 -0.6796620739577725 0.28152503063428846
vn -0.6773500737061909 -0.6796620739577725 0.28152503063428846
vn 0.6773500737061909 0.6796620739577725 -0.28152503063428846
vn 0.2628659836226611 0.8090169495958184 0.5257309672453847
vn -0.2628659836226611 -0.8090169495958184 -0.5257309672453847
vn 0.33177101358502803 -0.8715510356874012 0.36100801478219535
vn -0.33177101358502803 0.8715510356874012 -0.36100801478219535
vn -0.6881910217323846 -0.5000000157895008 0.5257310166020598
vn 0.6881910217323846 0.5000000157895008 -0.5257310166020598
vn -0.6881910217323846 0.5000000157895006 0.52573101660206
vn 0.6881910217323846 -0.5000000157895006 -0.52573101660206
vn 0.8506509114634071 0 0.5257309452814002
vn -0.8506509114634071 0 -0.5257309452814002
vn 0.26286598362266117 -0.8090169495958188 0.5257309672453844
vn -0.26286598362266117 0.8090169495958188 -0.5257309672453844
usemtl material_0_0
f 1//1 2//2 3//3
f 2//2 1//1 4//4
f 3//5 2//6 1//7
f 4//8 1//7 2//6
f 2//2 5//9 3//3
f 3//5 5//10 2//6
f 6//11 1//1 3//3
f 3//5 1//7 6//12
f 7//13 4//4 1//1
f 1//7 4//8 7//14
f 4//4 8//15 2//2
f 2//6 8//16 4//8
f 5//9 2//2 9//17
f 9//18 2//6 5//10
f 5//9 6//11 3//3
f 3//5 6//12 5//10
f 1//1 6//11 10//19
f 10//20 6//12 1//7
f 4//4 7//13 11//21
f 11//22 7//14 4//8
f 10//19 7//13 1//1
f 1//7 7//14 10//20
f 8//15 4//4 12//23
f 12//24 4//8 8//16
f 8//15 9//17 2//2
f 2//6 9//18 8//16
f 13//25 5//9 9//17
f 9//18 5//10 13//26
f 6//11 5//9 14//27
f 14//28 5//10 6//12
f 15//29 10//19 6//11
f 6//12 10//20 15//30
f 16//13 11//21 7//13
f 7//14 11//22 16//14
f 17//31 4//4 11//21
f 11//22 4//8 17//32
f 7//13 10//19 18//33
f 18//34 10//20 7//14
f 4//4 17//31 12//23
f 12//24 17//32 4//8
f 19//35 8//15 12//23
f 12//24 8//16 19//36
f 9//17 8//15 13//25
f 13//26 8//16 9//18
f 13//25 14//27 5//9
f 5//10 14//28 13//26
f 20//37 6//11 14//27
f 14//28 6//12 20//38
f 10//19 15//29 19//35
f 19//36 15//30 10//20
f 6//11 20//37 15//29
f 15//30 20//38 6//12
f 11//21 16//13 21//21
f 21//22 16//14 11//22
f 7//13 22//33 16//13
f 16//14 22//34 7//14
f 11//21 23//31 17//31
f 17//32 23//32 11//22
f 19//35 18//33 10//19
f 10//20 18//34 19//36
f 22//33 7//13 18//33
f 18//34 7//14 22//34
f 24//39 12//23 17//31
f 17//32 12//24 24//40
f 8//15 19//35 15//29
f 15//30 19//36 8//16
f 12//23 24//39 19//35
f 19//36 24//40 12//24
f 8//15 20//37 13//25
f 13//26 20//38 8//16
f 14//27 13//25 20//37
f 20//38 13//26 14//28
f 20//37 8//15 15//29
f 15//30 8//16 20//38
f 25//41 21//21 16//13
f 16//14 21//22 25//42
f 23//31 11//21 21//21
f 21//22 11//22 23//32
f 22//33 25//41 16//13
f 16//14 25//42 22//34
f 23//31 24//39 17//31
f 17//32 24//40 23//32
f 18//33 19//35 24//39
f 24//40 19//36 18//34
f 24//39 22//33 18//33
f 18//34 22//34 24//40
f 21//21 25//41 26//43
f 26//44 25//42 21//22
f 21//21 27//45 23//31
f 23//32 27//46 21//22
f 28//47 25//41 22//33
f 22//34 25//42 28//48
f 24//39 23//31 29//39
f 29//40 23//32 24//40
f 22//33 24//39 29//39
f 29//40 24//40 22//34
f 25//41 30//49 26//43
f 26//44 30//50 25//42
f 27//45 21//21 26//43
f 26//44 21//22 27//46
f 31//51 23//31 27//45
f 27//46 23//32 31//52
f 28//47 32//53 25//41
f 25//42 32//54 28//48
f 29//39 28//47 22//33
f 22//34 28//48 29//40
f 23//31 31//51 29//39
f 29//40 31//52 23//32
f 30//49 25//41 32//53
f 32//54 25//42 30//50
f 30//49 27//45 26//43
f 26//44 27//46 30//50
f 33//45 31//51 27//45
f 27//46 31//52 33//46
f 34//55 32//53 28//47
f 28//48 32//54 34//56
f 28//47 29//39 31//51
f 31//52 29//40 28//48
f 32//53 35//57 30//49
f 30//50 35//58 32//54
f 27//45 30//49 33//45
f 33//46 30//50 27//46
f 31//51 33//45 36//59
f 36//60 33//46 31//52
f 37//61 32//53 34//55
f 34//56 32//54 37//62
f 28//47 36//59 34//55
f 34//56 36//60 28//48
f 36//59 28//47 31//51
f 31//52 28//48 36//60
f 35//57 32//53 38//63
f 38//64 32//54 35//58
f 35//57 33//45 30//49
f 30//50 33//46 35//58
f 39//65 36//59 33//45
f 33//46 36//60 39//66
f 32//53 37//61 38//63
f 38//64 37//62 32//54
f 36//59 37//61 34//55
f 34//56 37//62 36//60
f 38//63 39//65 35//57
f 35//58 39//66 38//64
f 33//45 35//57 39//65
f 39//66 35//58 33//46
f 36//59 39//65 40//67
f 40//68 39//66 36//60
f 37//61 39//65 38//63
f 38//64 39//66 37//62
f 37//61 36//59 40//67
f 40//68 36//60 37//62
f 39//65 37//61 40//67
f 40//68 37//62 39//66
