# SSTK version 0.8.0
# 45
mtllib original-45.mtl
o Component_34_1/Component_34/mesh21/mesh21-geometry#mesh21-geometry
v -0.335408 0.159630 -0.376623
v -0.336944 0.161745 0.284811
v -0.335408 0.159630 0.286926
v -0.336944 0.161745 -0.375747
v -0.335408 0.409303 0.286926
v -0.336944 0.157515 -0.377499
v -0.336944 0.226048 -0.440049
v -0.339431 0.160937 -0.376082
v -0.336944 0.409303 0.284811
v -0.336944 0.409303 0.289041
v -0.336944 0.157515 0.289041
v -0.335408 0.225172 -0.442165
v -0.339431 0.225713 -0.440857
v -0.339431 0.160937 0.285619
v -0.339431 0.409303 0.285619
v -0.339431 0.158323 0.288234
v -0.336944 0.224296 -0.444280
v -0.336944 0.409303 -0.440049
v -0.339431 0.409303 -0.440857
v -0.339431 0.158323 -0.377165
v -0.335408 0.409303 -0.442165
v -0.339431 0.409303 -0.443472
v -0.339431 0.224630 -0.443472
v -0.339431 0.409303 0.288234
v -0.336944 0.409303 -0.444280
vn 1 0 0
vn 0.41753513005699405 0.642520200137042 -0.6425202001370418
vn 0.33177101358502803 0.871551035687401 0.3610080147821957
vn -1 0 0
vn -0.41753513005699405 -0.642520200137042 0.6425202001370418
vn -0.33177101358502803 -0.871551035687401 -0.3610080147821957
vn 0.8506509114634071 0.5257309452814002 0
vn -0.8506509114634071 -0.5257309452814002 0
vn 0.33177101358502803 -0.871551035687401 -0.3610080147821957
vn -0.33177101358502803 0.871551035687401 0.3610080147821957
vn 0.33177101358502803 0.36100801478219535 0.8715510356874012
vn -0.33177101358502803 -0.36100801478219535 -0.8715510356874012
vn -0.6773500737061909 0.6796620739577722 0.2815250306342888
vn 0.6773500737061909 -0.6796620739577722 -0.2815250306342888
vn 0.2628659836226611 0.5257309672453847 -0.8090169495958184
vn -0.2628659836226611 -0.5257309672453847 0.8090169495958184
vn 0.26286598362266117 0.5257309672453844 0.8090169495958188
vn -0.26286598362266117 -0.5257309672453844 -0.8090169495958188
vn 0.41753513005699405 -0.642520200137042 0.6425202001370418
vn -0.41753513005699405 0.642520200137042 -0.6425202001370418
vn -0.6773500737061909 0.28152503063428846 0.6796620739577725
vn 0.6773500737061909 -0.28152503063428846 -0.6796620739577725
vn -0.769007132926355 0.4520110781321558 -0.4520110781321556
vn 0.769007132926355 -0.4520110781321558 0.4520110781321556
vn -0.6881910217323846 0.52573101660206 -0.5000000157895006
vn 0.6881910217323846 -0.52573101660206 0.5000000157895006
vn -0.769007132926355 -0.4520110781321558 0.4520110781321556
vn 0.769007132926355 0.4520110781321558 -0.4520110781321556
vn 0.33177101358502803 -0.36100801478219535 -0.8715510356874012
vn -0.33177101358502803 0.36100801478219535 0.8715510356874012
vn -0.6881910217323846 0.5257310166020598 0.5000000157895008
vn 0.6881910217323846 -0.5257310166020598 -0.5000000157895008
vn -0.6773500737061909 -0.6796620739577722 -0.2815250306342888
vn 0.6773500737061909 0.6796620739577722 0.2815250306342888
vn -0.6773500737061909 -0.28152503063428846 -0.6796620739577725
vn 0.6773500737061909 0.28152503063428846 0.6796620739577725
usemtl material_0_0
f 1//1 2//2 3//1
f 2//2 1//1 4//3
f 3//4 2//5 1//4
f 4//6 1//4 2//5
f 2//2 5//7 3//1
f 3//4 5//8 2//5
f 3//1 6//9 1//1
f 1//4 6//10 3//4
f 1//1 7//11 4//3
f 4//6 7//12 1//4
f 8//13 2//2 4//3
f 4//6 2//5 8//14
f 5//7 2//2 9//15
f 9//16 2//5 5//8
f 10//17 3//1 5//7
f 5//8 3//4 10//18
f 6//9 3//1 11//19
f 11//20 3//4 6//10
f 6//9 12//1 1//1
f 1//4 12//4 6//10
f 7//11 1//1 12//1
f 12//4 1//4 7//12
f 13//21 4//3 7//11
f 7//12 4//6 13//22
f 2//2 8//13 14//23
f 14//24 8//14 2//5
f 4//3 13//21 8//13
f 8//14 13//22 4//6
f 2//2 15//25 9//15
f 9//16 15//26 2//5
f 9//15 10//17 5//7
f 5//8 10//18 9//16
f 3//1 10//17 11//19
f 11//20 10//18 3//4
f 16//27 6//9 11//19
f 11//20 6//10 16//28
f 12//1 6//9 17//29
f 17//30 6//10 12//4
f 12//1 18//17 7//11
f 7//12 18//18 12//4
f 7//11 19//31 13//21
f 13//22 19//32 7//12
f 20//33 14//23 8//13
f 8//14 14//24 20//34
f 15//25 2//2 14//23
f 14//24 2//5 15//26
f 20//33 8//13 13//21
f 13//22 8//14 20//34
f 15//25 10//17 9//15
f 9//16 10//18 15//26
f 10//17 16//27 11//19
f 11//20 16//28 10//18
f 6//9 16//27 20//33
f 20//34 16//28 6//10
f 20//33 17//29 6//9
f 6//10 17//30 20//34
f 17//29 21//7 12//1
f 12//4 21//8 17//30
f 18//17 12//1 21//7
f 21//8 12//4 18//18
f 19//31 7//11 18//17
f 18//18 7//12 19//32
f 22//25 13//21 19//31
f 19//32 13//22 22//26
f 16//27 14//23 20//33
f 20//34 14//24 16//28
f 16//27 15//25 14//23
f 14//24 15//26 16//28
f 20//33 13//21 23//35
f 23//36 13//22 20//34
f 10//17 15//25 24//31
f 24//32 15//26 10//18
f 16//27 10//17 24//31
f 24//32 10//18 16//28
f 17//29 20//33 23//35
f 23//36 20//34 17//30
f 21//7 17//29 25//15
f 25//16 17//30 21//8
f 25//15 18//17 21//7
f 21//8 18//18 25//16
f 18//17 22//25 19//31
f 19//32 22//26 18//18
f 23//35 13//21 22//25
f 22//26 13//22 23//36
f 15//25 16//27 24//31
f 24//32 16//28 15//26
f 23//35 25//15 17//29
f 17//30 25//16 23//36
f 22//25 18//17 25//15
f 25//16 18//18 22//26
f 25//15 23//35 22//25
f 22//26 23//36 25//16
