# SSTK version 0.8.0
# 100
mtllib original-100.mtl
o Group10/mesh74/mesh74-geometry#mesh74-geometry
v 0.404403 -0.254280 0.286458
v 0.401816 -0.256160 0.222621
v 0.401816 -0.256160 0.285387
v 0.404403 -0.254280 0.222621
v 0.402805 -0.259200 0.222621
v 0.399593 -0.254280 0.291268
v 0.406990 -0.256159 0.287530
v 0.406990 -0.256159 0.222621
v 0.402805 -0.259200 0.285797
v 0.406002 -0.259199 0.222621
v 0.398521 -0.256160 0.288682
v 0.400664 -0.256159 0.293855
v 0.365325 -0.254280 0.291268
v 0.366824 -0.256159 0.293855
v 0.406002 -0.259199 0.287121
v 0.400255 -0.259199 0.292868
v 0.398931 -0.259200 0.289671
v 0.363826 -0.256160 0.288682
v 0.366252 -0.259199 0.292868
v 0.339740 -0.254280 0.335894
v 0.341239 -0.256159 0.338481
v 0.340667 -0.259199 0.337493
v 0.364399 -0.259200 0.289671
v 0.338242 -0.256160 0.333308
v -0.351456 -0.256160 0.333308
v -0.352954 -0.254280 0.335894
v -0.353881 -0.259199 0.337493
v 0.338815 -0.259200 0.334296
v -0.354453 -0.256159 0.338481
v -0.352029 -0.259200 0.334296
v -0.377040 -0.256160 0.288682
v -0.378539 -0.254280 0.291268
v -0.380037 -0.256159 0.293855
v -0.377613 -0.259200 0.289671
v -0.379465 -0.259199 0.292868
v -0.411070 -0.256160 0.288682
v -0.412141 -0.254280 0.291268
v -0.412804 -0.259199 0.292868
v -0.411480 -0.259200 0.289671
v -0.413213 -0.256159 0.293855
v -0.414365 -0.256160 0.285387
v -0.415354 -0.259200 0.285797
v -0.416951 -0.254280 0.286458
v -0.419538 -0.256159 0.287530
v -0.418551 -0.259199 0.287121
v -0.416951 -0.254280 0.222621
v -0.415354 -0.259200 0.222621
v -0.419538 -0.256159 0.222621
v -0.414365 -0.256160 0.222621
v -0.418551 -0.259199 0.222621
vn -0.00016799999721758406 0.9999999834380005 -0.00006999999884043798
vn -0.8090689297898105 0.2627059772026391 -0.5257309543775953
vn -0.8716151596019023 0.33157306071451453 -0.36103506610931746
vn -0.00016799998014357953 0.8506508994590244 -0.5257309378622868
vn 0.8716151596019023 -0.33157306071451453 0.36103506610931746
vn 0.8090689297898105 -0.2627059772026391 0.5257309543775953
vn 0.00016799999721758406 -0.9999999834380005 0.00006999999884043798
vn 0.00016799998014357953 -0.8506508994590244 0.5257309378622868
vn -0.49986394327619277 -0.6882899218938964 -0.525730940340845
vn 0.49986394327619277 0.6882899218938964 0.525730940340845
vn -0.00006999999884066002 0.9999999834380005 -0.00016799999721736202
vn 0.00006999999884066002 -0.9999999834380005 0.00016799999721736202
vn 0.8714865588300853 0.33196883194845656 0.3609818172613039
vn -0.8714865588300853 -0.33196883194845656 -0.3609818172613039
vn 0.8089651592808064 0.2630250517881913 -0.5257311035135728
vn -0.8089651592808064 -0.2630250517881913 0.5257311035135728
vn -0.5147541500917796 -0.8304012421280142 -0.2132180621700252
vn 0.5147541500917796 0.8304012421280142 0.2132180621700252
vn 0.5001360741899408 -0.6880921020712459 -0.5257310779866912
vn -0.5001360741899408 0.6880921020712459 0.5257310779866912
vn -0.36103506610931757 0.33157306071451476 -0.8716151596019024
vn 0.36103506610931757 -0.33157306071451476 0.8716151596019024
vn 0.36098181726130385 0.33196883194845644 0.8714865588300854
vn -0.36098181726130385 -0.33196883194845644 -0.8714865588300854
vn -0.00008599999874010004 0.9999999853500003 -0.000147999997831578
vn 0.00008599999874010004 -0.9999999853500003 0.000147999997831578
vn 0.46927502439549745 0.3517520182860049 0.8099700421066989
vn -0.46927502439549745 -0.3517520182860049 -0.8099700421066989
vn 0.5150482954129877 -0.8301874761653711 0.2133401223641422
vn -0.5150482954129877 0.8301874761653711 -0.2133401223641422
vn 0.2133401223641424 -0.8301874761653713 0.5150482954129875
vn -0.2133401223641424 0.8301874761653713 -0.5150482954129875
vn -0.213218062170025 -0.8304012421280141 -0.5147541500917798
vn 0.213218062170025 0.8304012421280141 0.5147541500917798
vn -0.46935304169122455 0.3513390312083937 -0.8101040719591176
vn 0.46935304169122455 -0.3513390312083937 0.8101040719591176
vn 0.2668879953187846 -0.8465059851522853 0.46064999192019906
vn -0.2668879953187846 0.8465059851522853 -0.46064999192019906
vn -0.26672995848335185 -0.8467048682099741 -0.4603759283422623
vn 0.26672995848335185 0.8467048682099741 0.4603759283422623
vn 0.46935304169122455 0.3513390312083937 -0.8101040719591176
vn -0.46935304169122455 -0.3513390312083937 0.8101040719591176
vn 0.00008599999874010004 0.9999999853500003 -0.000147999997831578
vn -0.00008599999874010004 -0.9999999853500003 0.000147999997831578
vn -0.2668879953187846 -0.8465059851522853 0.46064999192019906
vn 0.2668879953187846 0.8465059851522853 -0.46064999192019906
vn -0.46927502439549745 0.3517520182860049 0.8099700421066989
vn 0.46927502439549745 -0.3517520182860049 -0.8099700421066989
vn 0.26672995848335185 -0.8467048682099741 -0.4603759283422623
vn -0.26672995848335185 0.8467048682099741 0.4603759283422623
vn 0.36103506610931757 0.33157306071451476 -0.8716151596019024
vn -0.36103506610931757 -0.33157306071451476 0.8716151596019024
vn 0.00006999999884066002 0.9999999834380005 -0.00016799999721736202
vn -0.00006999999884066002 -0.9999999834380005 0.00016799999721736202
vn -0.2133401223641424 -0.8301874761653713 0.5150482954129875
vn 0.2133401223641424 0.8301874761653713 -0.5150482954129875
vn 0.213218062170025 -0.8304012421280141 -0.5147541500917798
vn -0.213218062170025 0.8304012421280141 0.5147541500917798
vn -0.36098181726130385 0.33196883194845644 0.8714865588300854
vn 0.36098181726130385 -0.33196883194845644 -0.8714865588300854
vn 0.8716151596019023 0.33157306071451453 -0.36103506610931746
vn -0.8716151596019023 -0.33157306071451453 0.36103506610931746
vn 0.5147541500917796 -0.8304012421280142 -0.2132180621700252
vn -0.5147541500917796 0.8304012421280142 0.2132180621700252
vn 0.00016799999721758406 0.9999999834380005 -0.00006999999884043798
vn -0.00016799999721758406 -0.9999999834380005 0.00006999999884043798
vn -0.8714865588300853 0.33196883194845656 0.3609818172613039
vn 0.8714865588300853 -0.33196883194845656 -0.3609818172613039
vn -0.5150482954129877 -0.8301874761653711 0.2133401223641422
vn 0.5150482954129877 0.8301874761653711 -0.2133401223641422
vn 0.00016799998014357953 0.8506508994590244 -0.5257309378622868
vn -0.00016799998014357953 -0.8506508994590244 0.5257309378622868
vn 0.49986394327619277 -0.6882899218938964 -0.525730940340845
vn -0.49986394327619277 0.6882899218938964 0.525730940340845
vn -0.8089651592808064 0.2630250517881913 -0.5257311035135728
vn 0.8089651592808064 -0.2630250517881913 0.5257311035135728
vn 0.8090689297898105 0.2627059772026391 -0.5257309543775953
vn -0.8090689297898105 -0.2627059772026391 0.5257309543775953
vn -0.5001360741899408 -0.6880921020712459 -0.5257310779866912
vn 0.5001360741899408 0.6880921020712459 0.5257310779866912
usemtl material_0_0
f 1//1 2//2 3//3
f 2//2 1//1 4//4
f 3//5 2//6 1//7
f 4//8 1//7 2//6
f 5//9 3//3 2//2
f 2//6 3//5 5//10
f 3//3 6//11 1//1
f 1//7 6//12 3//5
f 7//13 4//4 1//1
f 1//7 4//8 7//14
f 8//15 2//2 4//4
f 4//8 2//6 8//16
f 3//3 5//9 9//17
f 9//18 5//10 3//5
f 2//2 10//19 5//9
f 5//10 10//20 2//6
f 6//11 3//3 11//21
f 11//22 3//5 6//12
f 12//23 1//1 6//11
f 6//12 1//7 12//24
f 4//4 7//13 8//15
f 8//16 7//14 4//8
f 1//1 12//23 7//13
f 7//14 12//24 1//7
f 10//19 2//2 8//15
f 8//16 2//6 10//20
f 10//19 9//17 5//9
f 5//10 9//18 10//20
f 9//17 11//21 3//3
f 3//5 11//22 9//18
f 11//21 13//25 6//11
f 6//12 13//26 11//22
f 6//11 14//27 12//23
f 12//24 14//28 6//12
f 15//29 8//15 7//13
f 7//14 8//16 15//30
f 16//31 7//13 12//23
f 12//24 7//14 16//32
f 8//15 15//29 10//19
f 10//20 15//30 8//16
f 9//17 10//19 15//29
f 15//30 10//20 9//18
f 11//21 9//17 17//33
f 17//34 9//18 11//22
f 13//25 11//21 18//35
f 18//36 11//22 13//26
f 14//27 6//11 13//25
f 13//26 6//12 14//28
f 19//37 12//23 14//27
f 14//28 12//24 19//38
f 7//13 16//31 15//29
f 15//30 16//32 7//14
f 12//23 19//37 16//31
f 16//32 19//38 12//24
f 16//31 9//17 15//29
f 15//30 9//18 16//32
f 9//17 16//31 17//33
f 17//34 16//32 9//18
f 17//33 18//35 11//21
f 11//22 18//36 17//34
f 18//35 20//25 13//25
f 13//26 20//26 18//36
f 13//25 21//27 14//27
f 14//28 21//28 13//26
f 14//27 22//37 19//37
f 19//38 22//38 14//28
f 19//37 17//33 16//31
f 16//32 17//34 19//38
f 18//35 17//33 23//39
f 23//40 17//34 18//36
f 20//25 18//35 24//35
f 24//36 18//36 20//26
f 21//27 13//25 20//25
f 20//26 13//26 21//28
f 22//37 14//27 21//27
f 21//28 14//28 22//38
f 22//37 23//39 19//37
f 19//38 23//40 22//38
f 17//33 19//37 23//39
f 23//40 19//38 17//34
f 23//39 24//35 18//35
f 18//36 24//36 23//40
f 25//41 20//25 24//35
f 24//36 20//26 25//42
f 26//43 21//27 20//25
f 20//26 21//28 26//44
f 21//27 27//45 22//37
f 22//38 27//46 21//28
f 23//39 22//37 28//39
f 28//40 22//38 23//40
f 24//35 23//39 28//39
f 28//40 23//40 24//36
f 20//25 25//41 26//43
f 26//44 25//42 20//26
f 28//39 25//41 24//35
f 24//36 25//42 28//40
f 21//27 26//43 29//47
f 29//48 26//44 21//28
f 27//45 21//27 29//47
f 29//48 21//28 27//46
f 30//49 22//37 27//45
f 27//46 22//38 30//50
f 22//37 30//49 28//39
f 28//40 30//50 22//38
f 31//41 26//43 25//41
f 25//42 26//44 31//42
f 25//41 28//39 30//49
f 30//50 28//40 25//42
f 32//43 29//47 26//43
f 26//44 29//48 32//44
f 33//47 27//45 29//47
f 29//48 27//46 33//48
f 27//45 34//49 30//49
f 30//50 34//50 27//46
f 26//43 31//41 32//43
f 32//44 31//42 26//44
f 25//41 34//49 31//41
f 31//42 34//50 25//42
f 34//49 25//41 30//49
f 30//50 25//42 34//50
f 29//47 32//43 33//47
f 33//48 32//44 29//48
f 27//45 33//47 35//45
f 35//46 33//48 27//46
f 34//49 27//45 35//45
f 35//46 27//46 34//50
f 36//51 32//43 31//41
f 31//42 32//44 36//52
f 34//49 36//51 31//41
f 31//42 36//52 34//50
f 37//53 33//47 32//43
f 32//44 33//48 37//54
f 33//47 38//55 35//45
f 35//46 38//56 33//48
f 35//45 39//57 34//49
f 34//50 39//58 35//46
f 32//43 36//51 37//53
f 37//54 36//52 32//44
f 36//51 34//49 39//57
f 39//58 34//50 36//52
f 33//47 37//53 40//59
f 40//60 37//54 33//48
f 38//55 33//47 40//59
f 40//60 33//48 38//56
f 39//57 35//45 38//55
f 38//56 35//46 39//58
f 41//61 37//53 36//51
f 36//52 37//54 41//62
f 42//63 36//51 39//57
f 39//58 36//52 42//64
f 43//65 40//59 37//53
f 37//54 40//60 43//66
f 44//67 38//55 40//59
f 40//60 38//56 44//68
f 38//55 42//63 39//57
f 39//58 42//64 38//56
f 37//53 41//61 43//65
f 43//66 41//62 37//54
f 36//51 42//63 41//61
f 41//62 42//64 36//52
f 40//59 43//65 44//67
f 44//68 43//66 40//60
f 38//55 44//67 45//69
f 45//70 44//68 38//56
f 42//63 38//55 45//69
f 45//70 38//56 42//64
f 41//61 46//71 43//65
f 43//66 46//72 41//62
f 47//73 41//61 42//63
f 42//64 41//62 47//74
f 43//65 48//75 44//67
f 44//68 48//76 43//66
f 48//75 45//69 44//67
f 44//68 45//70 48//76
f 45//69 47//73 42//63
f 42//64 47//74 45//70
f 46//71 41//61 49//77
f 49//78 41//62 46//72
f 48//75 43//65 46//71
f 46//72 43//66 48//76
f 41//61 47//73 49//77
f 49//78 47//74 41//62
f 45//69 48//75 50//79
f 50//80 48//76 45//70
f 47//73 45//69 50//79
f 50//80 45//70 47//74
f 49//77 48//75 46//71
f 46//72 48//76 49//78
f 50//79 49//77 47//73
f 47//74 49//78 50//80
f 49//77 50//79 48//75
f 48//76 50//80 49//78
