# SSTK version 0.8.0
# 2
mtllib original-2.mtl
o Group3/mesh1/mesh1-geometry#mesh1-geometry
v -0.693268 0.363502 0.424426
v -0.694899 0.359559 0.489806
v -0.694899 0.359559 0.424426
v -0.693268 0.363502 0.489806
v -0.695458 0.355329 0.489806
v -0.693268 -0.318465 0.424426
v -0.690669 0.366885 0.424426
v -0.693268 -0.318465 0.489806
v -0.695458 0.355329 0.424426
v -0.694899 -0.314522 0.489806
v -0.694899 -0.314522 0.424426
v -0.690669 -0.321852 0.424426
v -0.690669 0.366885 0.489806
v -0.690669 -0.321852 0.489806
v -0.695458 -0.310292 0.489806
v -0.687285 0.369484 0.489806
v -0.687285 -0.324447 0.424426
v -0.695458 -0.310292 0.424426
v -0.687285 0.369484 0.424426
v -0.687285 -0.324447 0.489806
v -0.683343 0.371115 0.489806
v -0.683343 -0.326082 0.489806
v -0.683343 -0.326082 0.424426
v -0.683343 0.371115 0.424426
v -0.679113 0.371674 0.489806
v -0.679113 -0.326637 0.489806
v -0.679113 -0.326637 0.424426
v -0.679113 0.371674 0.424426
v 0.386918 0.371648 0.489806
v -0.630974 -0.262153 0.489806
v 0.386918 -0.326637 0.489806
v -0.630974 -0.262153 0.424426
v 0.386918 0.371648 0.424426
v -0.630974 0.307190 0.489806
v 0.386918 -0.326637 0.424426
v -0.630974 0.307190 0.424426
v 0.391148 0.371092 0.489806
v 0.338778 0.307190 0.489806
v 0.338778 -0.262153 0.489806
v 0.391148 -0.326082 0.424426
v 0.338778 -0.262153 0.424426
v 0.338778 0.307190 0.424426
v 0.391148 0.371092 0.424426
v 0.391148 -0.326082 0.489806
v 0.395090 0.369461 0.489806
v 0.395090 -0.324447 0.489806
v 0.395090 -0.324447 0.424426
v 0.395090 0.369461 0.424426
v 0.398473 0.366862 0.489806
v 0.398473 -0.321852 0.489806
v 0.398473 -0.321852 0.424426
v 0.398473 0.366862 0.424426
v 0.401072 0.363476 0.424426
v 0.401072 -0.318465 0.489806
v 0.401072 -0.318465 0.424426
v 0.401072 0.363476 0.489806
v 0.402707 0.359536 0.424426
v 0.402707 -0.314522 0.424426
v 0.402707 -0.314522 0.489806
v 0.402707 0.359536 0.489806
v 0.403262 0.355303 0.424426
v 0.403262 -0.310292 0.424426
v 0.403262 -0.310292 0.489806
v 0.403262 0.355303 0.489806
vn 0.8660253028382762 -0.5000001748438417 0
vn 0.965925849201117 -0.2588189595935754 0
vn -0.965925849201117 0.2588189595935754 0
vn -0.8660253028382762 0.5000001748438417 0
vn 0.9914448886106773 -0.1305259853353411 0
vn -0.9914448886106773 0.1305259853353411 0
vn 0 0 1
vn 0 0 -1
vn 0.7071067811865476 -0.7071067811865476 0
vn -0.7071067811865476 0.7071067811865476 0
vn 1 0 0
vn -1 0 0
vn 0.965925849201117 0.2588189595935754 0
vn 0.8660253028382762 0.5000001748438417 0
vn -0.8660253028382762 -0.5000001748438417 0
vn -0.965925849201117 -0.2588189595935754 0
vn 0.7071067811865476 0.7071067811865476 0
vn -0.7071067811865476 -0.7071067811865476 0
vn 0.5000001748438417 -0.8660253028382762 0
vn -0.5000001748438417 0.8660253028382762 0
vn 0.9914448886106773 0.1305259853353411 0
vn -0.9914448886106773 -0.1305259853353411 0
vn 0.5000001748438417 0.8660253028382762 0
vn -0.5000001748438417 -0.8660253028382762 0
vn 0.2588189595935754 -0.965925849201117 0
vn -0.2588189595935754 0.965925849201117 0
vn 0.2588189595935754 0.965925849201117 0
vn -0.2588189595935754 -0.965925849201117 0
vn 0.1305259853353411 -0.9914448886106773 0
vn -0.1305259853353411 0.9914448886106773 0
vn 0.1305259853353411 0.9914448886106773 0
vn -0.1305259853353411 -0.9914448886106773 0
vn -0.000021999999994676 -1 0
vn 0.000021999999994676 1 0
vn 0 1 0
vn 0 -1 0
usemtl material_0_0
f 1//1 2//2 3//2
f 2//2 1//1 4//1
f 3//3 2//3 1//4
f 4//4 1//4 2//3
f 5//5 3//2 2//2
f 2//3 3//3 5//6
f 3//7 6//7 1//7
f 1//8 6//8 3//8
f 7//9 4//1 1//1
f 1//4 4//4 7//10
f 8//8 2//8 4//8
f 3//2 5//5 9//5
f 9//6 5//6 3//3
f 10//8 5//8 2//8
f 3//7 11//7 6//7
f 6//8 11//8 3//8
f 1//7 6//7 12//7
f 12//8 6//8 1//8
f 4//1 7//9 13//9
f 13//10 7//10 4//4
f 1//7 12//7 7//7
f 7//8 12//8 1//8
f 10//8 2//8 8//8
f 8//8 4//8 14//8
f 15//11 9//11 5//11
f 5//12 9//12 15//12
f 9//7 11//7 3//7
f 3//8 11//8 9//8
f 5//8 10//8 15//8
f 11//13 8//14 6//14
f 6//15 8//15 11//16
f 6//14 14//17 12//17
f 12//18 14//18 6//15
f 7//9 16//19 13//9
f 13//10 16//20 7//10
f 7//7 12//7 17//7
f 17//8 12//8 7//8
f 8//14 11//13 10//13
f 10//16 11//16 8//15
f 14//8 4//8 13//8
f 14//17 6//14 8//14
f 8//15 6//15 14//18
f 9//11 15//11 18//11
f 18//12 15//12 9//12
f 11//7 9//7 18//7
f 18//8 9//8 11//8
f 10//13 18//21 15//21
f 15//22 18//22 10//16
f 14//17 17//23 12//17
f 12//18 17//24 14//18
f 16//19 7//9 19//19
f 19//20 7//10 16//20
f 20//8 13//8 16//8
f 14//8 13//8 20//8
f 7//7 17//7 19//7
f 19//8 17//8 7//8
f 18//21 10//13 11//13
f 11//16 10//16 18//22
f 17//23 14//17 20//23
f 20//24 14//18 17//24
f 19//19 21//25 16//19
f 16//20 21//26 19//20
f 20//8 16//8 22//8
f 19//7 17//7 23//7
f 23//8 17//8 19//8
f 20//23 23//27 17//23
f 17//24 23//28 20//24
f 21//25 19//19 24//25
f 24//26 19//20 21//26
f 22//8 16//8 21//8
f 23//27 20//23 22//27
f 22//28 20//24 23//28
f 19//7 23//7 24//7
f 24//8 23//8 19//8
f 24//25 25//29 21//25
f 21//26 25//30 24//26
f 22//8 21//8 26//8
f 22//27 27//31 23//27
f 23//28 27//32 22//28
f 24//7 23//7 27//7
f 27//8 23//8 24//8
f 25//29 24//25 28//29
f 28//30 24//26 25//30
f 26//8 21//8 25//8
f 27//31 22//27 26//31
f 26//32 22//28 27//32
f 24//7 27//7 28//7
f 28//8 27//8 24//8
f 28//33 29//33 25//33
f 25//34 29//34 28//34
f 26//8 25//8 30//8
f 31//35 27//35 26//35
f 26//36 27//36 31//36
f 28//7 27//7 32//7
f 32//8 27//8 28//8
f 29//33 28//33 33//33
f 33//34 28//34 29//34
f 29//8 34//8 25//8
f 30//8 25//8 34//8
f 26//8 30//8 31//8
f 27//35 31//35 35//35
f 35//36 31//36 27//36
f 32//7 27//7 35//7
f 35//8 27//8 32//8
f 36//7 28//7 32//7
f 32//8 28//8 36//8
f 28//7 36//7 33//7
f 33//8 36//8 28//8
f 33//32 37//28 29//32
f 29//31 37//27 33//31
f 34//8 29//8 38//8
f 34//10 32//18 30//18
f 31//8 30//8 39//8
f 31//30 40//26 35//30
f 35//29 40//25 31//29
f 32//7 35//7 41//7
f 41//8 35//8 32//8
f 32//18 34//10 36//10
f 33//7 36//7 42//7
f 42//8 36//8 33//8
f 37//28 33//32 43//28
f 43//27 33//31 37//27
f 44//8 29//8 37//8
f 38//8 29//8 39//8
f 42//17 34//10 38//17
f 32//18 39//9 30//18
f 39//8 29//8 31//8
f 40//26 31//30 44//26
f 44//25 31//29 40//25
f 33//7 35//7 40//7
f 40//8 35//8 33//8
f 41//7 35//7 42//7
f 42//8 35//8 41//8
f 39//9 32//18 41//9
f 34//10 42//17 36//10
f 33//7 42//7 35//7
f 35//8 42//8 33//8
f 33//7 40//7 43//7
f 43//8 40//8 33//8
f 43//28 45//24 37//28
f 37//27 45//23 43//27
f 31//8 29//8 44//8
f 44//8 37//8 46//8
f 39//9 42//17 38//17
f 44//26 47//20 40//26
f 40//25 47//19 44//25
f 42//17 39//9 41//9
f 43//7 40//7 47//7
f 47//8 40//8 43//8
f 45//24 43//28 48//24
f 48//23 43//27 45//23
f 46//8 37//8 45//8
f 47//20 44//26 46//20
f 46//19 44//25 47//19
f 43//7 47//7 48//7
f 48//8 47//8 43//8
f 48//24 49//18 45//24
f 45//23 49//17 48//23
f 46//8 45//8 50//8
f 46//20 51//10 47//20
f 47//19 51//9 46//19
f 48//7 47//7 51//7
f 51//8 47//8 48//8
f 49//18 48//24 52//18
f 52//17 48//23 49//17
f 50//8 45//8 49//8
f 51//10 46//20 50//10
f 50//9 46//19 51//9
f 48//7 51//7 52//7
f 52//8 51//8 48//8
f 53//15 49//18 52//18
f 52//17 49//17 53//14
f 50//8 49//8 54//8
f 54//4 51//10 50//10
f 50//9 51//9 54//1
f 52//7 51//7 55//7
f 55//8 51//8 52//8
f 49//18 53//15 56//15
f 56//14 53//14 49//17
f 52//7 55//7 53//7
f 53//8 55//8 52//8
f 54//8 49//8 56//8
f 51//10 54//4 55//4
f 55//1 54//1 51//9
f 57//16 56//15 53//15
f 53//14 56//14 57//13
f 53//7 55//7 58//7
f 58//8 55//8 53//8
f 54//8 56//8 59//8
f 56//15 57//16 60//16
f 60//13 57//13 56//14
f 53//7 58//7 57//7
f 57//8 58//8 53//8
f 55//4 59//3 58//3
f 58//2 59//2 55//1
f 59//8 56//8 60//8
f 59//3 55//4 54//4
f 54//1 55//1 59//2
f 61//22 60//16 57//16
f 57//13 60//13 61//21
f 57//7 58//7 62//7
f 62//8 58//8 57//8
f 63//6 58//3 59//3
f 59//2 58//2 63//5
f 59//8 60//8 63//8
f 60//16 61//22 64//22
f 64//21 61//21 60//13
f 57//7 62//7 61//7
f 61//8 62//8 57//8
f 58//3 63//6 62//6
f 62//5 63//5 58//2
f 63//8 60//8 64//8
f 62//12 64//12 61//12
f 61//11 64//11 62//11
f 64//12 62//12 63//12
f 63//11 62//11 64//11
usemtl material_1_0
f 4//7 2//7 8//7
f 2//7 5//7 10//7
f 8//7 2//7 10//7
f 14//7 4//7 8//7
f 15//7 10//7 5//7
f 13//7 4//7 14//7
f 16//7 13//7 20//7
f 20//7 13//7 14//7
f 22//7 16//7 20//7
f 21//7 16//7 22//7
f 26//7 21//7 22//7
f 25//7 21//7 26//7
f 30//7 25//7 26//7
f 25//7 34//7 29//7
f 34//7 25//7 30//7
f 31//7 30//7 26//7
f 38//7 29//7 34//7
f 30//17 32//17 34//9
f 39//7 30//7 31//7
f 36//9 34//9 32//17
f 37//7 29//7 44//7
f 39//7 29//7 38//7
f 38//18 34//9 42//18
f 30//17 39//10 32//17
f 31//7 29//7 39//7
f 41//10 32//17 39//10
f 36//9 42//18 34//9
f 44//7 29//7 31//7
f 46//7 37//7 44//7
f 38//18 42//18 39//10
f 41//10 39//10 42//18
f 45//7 37//7 46//7
f 50//7 45//7 46//7
f 49//7 45//7 50//7
f 54//7 49//7 50//7
f 56//7 49//7 54//7
f 59//7 56//7 54//7
f 60//7 56//7 59//7
f 63//7 60//7 59//7
f 64//7 60//7 63//7
