# SSTK version 0.8.0
# 43
mtllib original-43.mtl
o Group19/mesh104/mesh104-geometry#mesh104-geometry
v -0.129612 -0.311669 -0.007999
v -0.164966 -0.311669 -0.043353
v -0.164966 -0.311669 -0.007999
v -0.129612 -0.311669 -0.043353
v -0.164966 -0.246289 -0.043353
v -0.129612 -0.246289 -0.007999
v -0.164966 -0.246289 -0.007999
v -0.129612 -0.246289 -0.043353
vn 0 1 0
vn 0 -1 0
vn -1 0 0
vn 1 0 0
vn 0 0 1
vn 0 0 -1
usemtl material_0_0
f 1//1 2//1 3//1
f 2//1 1//1 4//1
f 3//2 2//2 1//2
f 4//2 1//2 2//2
f 3//3 5//3 2//3
f 2//4 5//4 3//4
f 6//5 3//5 1//5
f 1//6 3//6 6//6
f 4//4 6//4 1//4
f 1//3 6//3 4//3
f 5//6 4//6 2//6
f 2//5 4//5 5//5
f 5//3 3//3 7//3
f 7//4 3//4 5//4
f 3//5 6//5 7//5
f 7//6 6//6 3//6
f 6//4 4//4 8//4
f 8//3 4//3 6//3
f 4//6 5//6 8//6
f 8//5 5//5 4//5
f 6//1 5//1 7//1
f 7//2 5//2 6//2
f 5//1 6//1 8//1
f 8//2 6//2 5//2
