mtllib new-2.mtl
v 0.444507 -0.831968 0.321277
v 0.468526 -0.831968 0.321277
v -0.444166 -0.831968 0.321277
v 0.468526 -0.775125 0.321277
v 0.468526 -0.831968 0.369313
v -0.444166 -0.831968 0.369313
v 0.468526 -0.776653 0.369313
v -0.043015 -0.776675 0.368593
v -0.056251 -0.776675 0.368593
v -0.043015 -0.776653 0.369313
v -0.444166 -0.776653 0.369313
v -0.056251 -0.776653 0.369313
vn 1.000000 0.000000 0.000000
vn -1.000000 0.000000 0.000000
vn 0.000000 0.000000 -1.000000
vn 0.000000 0.000000 1.000000
vn 0.000000 -0.999551 0.029973
vn 0.000000 0.999551 -0.029973
vt 1.000000 0.000000
vt 0.439525 1.000000
vt 0.000000 0.000000
vt 0.425023 1.000000
vt 0.000000 1.000000
usemtl material-1
f 1//3 4//3 2//3
f 4//1 5//1 2//1
f 5//1 4//1 7//1
f 11//2 3//2 6//2
usemtl material-2
f 2//4 4//4 1//4
f 2//2 5//2 4//2
f 7//2 4//2 5//2
f 6//3 10//3 5//3
f 6//1 3//1 11//1
f 12//3 10//3 6//3
f 11//3 12//3 6//3
f 10//5 9//5 8//5
f 8//6 9//6 10//6
f 9//5 10//5 12//5
f 12//6 10//6 9//6
usemtl material-3
f 5/1/4 10/2/4 6/3/4
f 6/3/4 10/2/4 12/4/4
f 6/3/4 12/4/4 11/5/4