# SSTK version 0.8.0
# 316
mtllib original-316.mtl
o #ID1900
v -0.200825 0.337877 0.509277
v -0.200059 0.337472 0.509354
v -0.200290 0.337014 0.509441
v -0.200748 0.337838 0.509287
v -0.200329 0.337062 0.509432
v -0.200951 0.337944 0.509267
v -0.200893 0.337915 0.509272
vn -0.031059608360086928 -0.20554690233608408 -0.9781542678271963
vn 0.0003901421538892331 -0.18685088432425107 -0.9823882098317066
vn -0.003580440978010201 -0.18922528630250168 -0.9819271721803705
vn 0.031059608360086928 0.20554690233608408 0.9781542678271963
vn -0.0003901421538892331 0.18685088432425107 0.9823882098317066
vn 0.003580440978010201 0.18922528630250168 0.9819271721803705
vn -0.03759028389689247 -0.20939736042833765 -0.9771078323308006
vn 0.03759028389689247 0.20939736042833765 0.9771078323308006
usemtl material_0_2
f 1//1 2//2 3//3
f 3//6 2//5 1//4
f 2//2 1//1 4//2
f 4//5 1//4 2//5
f 5//7 1//1 3//3
f 3//6 1//4 5//8
f 1//1 5//7 6//7
f 6//8 5//8 1//4
f 1//1 6//7 7//7
f 7//8 6//8 1//4
