# SSTK version 0.8.0
# 265
mtllib original-265.mtl
o #ID1594
v -0.202964 0.366154 0.503874
v -0.203668 0.366501 0.503806
v -0.202748 0.366139 0.503879
v -0.203167 0.366197 0.503864
v -0.202512 0.366154 0.503874
v -0.202295 0.366197 0.503864
v -0.202097 0.366265 0.503855
v -0.201919 0.366361 0.503835
v -0.201760 0.366481 0.503811
v -0.201615 0.366631 0.503782
vn 0.010694499353360198 -0.17047134756180585 -0.9853045962259807
vn 0.002510387937234221 -0.18772884160211686 -0.9822176846214549
vn -0.005201448007509451 -0.20945784140759835 -0.9778038441382273
vn -0.010694499353360198 0.17047134756180585 0.9853045962259807
vn -0.002510387937234221 0.18772884160211686 0.9822176846214549
vn 0.005201448007509451 0.20945784140759835 0.9778038441382273
vn -0.0037749731758056726 -0.20350138322071493 -0.9790673810340008
vn 0.0037749731758056726 0.20350138322071493 0.9790673810340008
vn 0.005007440005555223 -0.16565888138165952 -0.9861704013830308
vn -0.005007440005555223 0.16565888138165952 0.9861704013830308
vn 0.0014672678566796762 -0.1911923784611324 -0.9815514869549187
vn -0.0014672678566796762 0.1911923784611324 0.9815514869549187
vn 0.0005118749869131361 -0.19730809704962274 -0.9803413960568299
vn -0.0005118749869131361 0.19730809704962274 0.9803413960568299
vn 0.0005614279766268151 -0.1923057652575547 -0.9813348956637247
vn -0.0005614279766268151 0.1923057652575547 0.9813348956637247
vn 0.0005756978549830013 -0.19086403189868606 -0.9816163150128248
vn -0.0005756978549830013 0.19086403189868606 0.9816163150128248
usemtl material_0_2
f 1//1 2//2 3//3
f 3//6 2//5 1//4
f 2//2 1//1 4//1
f 4//4 1//4 2//5
f 2//2 5//7 3//3
f 3//6 5//8 2//5
f 2//2 6//9 5//7
f 5//8 6//10 2//5
f 2//2 7//11 6//9
f 6//10 7//12 2//5
f 2//2 8//13 7//11
f 7//12 8//14 2//5
f 8//13 2//2 9//15
f 9//16 2//5 8//14
f 10//17 9//15 2//2
f 2//5 9//16 10//18
