# SSTK version 0.8.0
# 361
mtllib original-361.mtl
o #ID2170
v -0.167055 0.369252 0.503280
v -0.166612 0.369083 0.503314
v -0.166699 0.368972 0.503338
v -0.166516 0.369170 0.503299
v -0.166771 0.368842 0.503362
v -0.166410 0.369242 0.503285
v -0.166829 0.368698 0.503386
v -0.166289 0.369295 0.503275
v -0.166877 0.368544 0.503420
v -0.166906 0.368370 0.503449
v -0.166930 0.368182 0.503488
vn 0.006112659624701032 -0.19123334252261306 -0.9815255697636925
vn 0.003323943275105393 -0.18824719769481435 -0.9821160542222864
vn 0.0037895898009421905 -0.19828976686424216 -0.9801361167542317
vn -0.006112659624701032 0.19123334252261306 0.9815255697636925
vn -0.003323943275105393 0.18824719769481435 0.9821160542222864
vn -0.0037895898009421905 0.19828976686424216 0.9801361167542317
vn 0.005444948308933511 -0.19435422509751868 -0.9809163000606403
vn -0.005444948308933511 0.19435422509751868 0.9809163000606403
vn 0.0242230054394614 -0.18031137327337637 -0.9833112704915717
vn -0.0242230054394614 0.18031137327337637 0.9833112704915717
vn 0.004460300389665227 -0.1918654279971138 -0.9814111081804191
vn -0.004460300389665227 0.1918654279971138 0.9814111081804191
vn -0.02163983644094177 -0.19662402062082598 -0.9802401297609226
vn 0.02163983644094177 0.19662402062082598 0.9802401297609226
vn 0.004496902995902621 -0.18963014724845284 -0.9818452959188507
vn -0.004496902995902621 0.18963014724845284 0.9818452959188507
vn 0.05288983085746987 -0.180769719477479 -0.9821023237483464
vn -0.05288983085746987 0.180769719477479 0.9821023237483464
vn -0.03312848181152342 -0.1935729453660316 -0.9805263986834738
vn 0.03312848181152342 0.1935729453660316 0.9805263986834738
vn -0.045068088365501205 -0.19543342258988136 -0.979680889241943
vn 0.045068088365501205 0.19543342258988136 0.979680889241943
usemtl material_0_2
f 1//1 2//2 3//3
f 3//6 2//5 1//4
f 1//1 4//7 2//2
f 2//5 4//8 1//4
f 1//1 3//3 5//9
f 5//10 3//6 1//4
f 1//1 6//11 4//7
f 4//8 6//12 1//4
f 1//1 5//9 7//13
f 7//14 5//10 1//4
f 8//15 6//11 1//1
f 1//4 6//12 8//16
f 1//1 7//13 9//17
f 9//18 7//14 1//4
f 1//1 9//17 10//19
f 10//20 9//18 1//4
f 1//1 10//19 11//21
f 11//22 10//20 1//4
