# SSTK version 0.8.0
# 434
mtllib original-434.mtl
o #ID2608
v -0.092847 0.336653 0.509514
v -0.092857 0.336528 0.509538
v -0.093170 0.335988 0.509639
v -0.092852 0.336773 0.509489
v -0.092862 0.336884 0.509470
v -0.092886 0.336985 0.509451
v -0.092915 0.337082 0.509432
v -0.092949 0.337173 0.509412
v -0.092997 0.337255 0.509398
v -0.093050 0.337327 0.509383
v -0.093117 0.337404 0.509369
v -0.093194 0.337472 0.509354
v -0.093286 0.337539 0.509345
v -0.093392 0.337597 0.509330
v -0.093507 0.337660 0.509321
vn 0.020729964927461493 -0.1951629525635562 -0.9805517276007326
vn 0.00852030576398121 -0.18947885331200526 -0.9818478336978983
vn 0.003134061250896135 -0.18819847597351277 -0.9821260159986206
vn -0.020729964927461493 0.1951629525635562 0.9805517276007326
vn -0.00852030576398121 0.18947885331200526 0.9818478336978983
vn -0.003134061250896135 0.18819847597351277 0.9821260159986206
vn -0.025849513245309683 -0.1770700779277846 -0.9838587246996536
vn 0.025849513245309683 0.1770700779277846 0.9838587246996536
vn -0.001086790907265112 -0.18492250847471717 -0.982752504318835
vn 0.001086790907265112 0.18492250847471717 0.982752504318835
vn 0.01641592614527692 -0.1900060500676536 -0.9816456684091674
vn -0.01641592614527692 0.1900060500676536 0.9816456684091674
vn 0.03339260051996422 -0.19386921294879367 -0.9804589040348042
vn -0.03339260051996422 0.19386921294879367 0.9804589040348042
vn -0.009795848148546536 -0.1863103128687885 -0.9824421146702664
vn 0.009795848148546536 0.1863103128687885 0.9824421146702664
vn 0.0041330385869076 -0.18767342103232446 -0.9822227878796455
vn -0.0041330385869076 0.18767342103232446 0.9822227878796455
vn 0.001226655431829821 -0.1877217251923315 -0.9822214868385166
vn -0.001226655431829821 0.1877217251923315 0.9822214868385166
vn 0.01420493561166357 -0.18802505620011079 -0.9820615042069482
vn -0.01420493561166357 0.18802505620011079 0.9820615042069482
vn -0.02097612374286125 -0.18882446178402448 -0.9817868021442829
vn 0.02097612374286125 0.18882446178402448 0.9817868021442829
vn 0.014123607795316545 -0.18547863012784954 -0.9825467935262628
vn -0.014123607795316545 0.18547863012784954 0.9825467935262628
vn -0.005393049590372625 -0.18930356325597877 -0.9819038017823871
vn 0.005393049590372625 0.18930356325597877 0.9819038017823871
vn -0.02193473148837352 -0.19145732098304596 -0.9812558085415484
vn 0.02193473148837352 0.19145732098304596 0.9812558085415484
usemtl material_0_2
f 1//1 2//2 3//3
f 3//6 2//5 1//4
f 4//7 1//1 3//3
f 3//6 1//4 4//8
f 5//9 4//7 3//3
f 3//6 4//8 5//10
f 6//11 5//9 3//3
f 3//6 5//10 6//12
f 7//13 6//11 3//3
f 3//6 6//12 7//14
f 8//15 7//13 3//3
f 3//6 7//14 8//16
f 9//17 8//15 3//3
f 3//6 8//16 9//18
f 10//19 9//17 3//3
f 3//6 9//18 10//20
f 11//21 10//19 3//3
f 3//6 10//20 11//22
f 12//23 11//21 3//3
f 3//6 11//22 12//24
f 13//25 12//23 3//3
f 3//6 12//24 13//26
f 14//27 13//25 3//3
f 3//6 13//26 14//28
f 15//29 14//27 3//3
f 3//6 14//28 15//30
