# SSTK version 0.8.0
# 58
mtllib original-58.mtl
o #ID352
v -0.317948 0.335506 0.509731
v -0.317784 0.335463 0.509741
v -0.317162 0.335082 0.509813
v -0.317606 0.335448 0.509741
v -0.317418 0.335463 0.509741
v -0.317244 0.335501 0.509731
v -0.317090 0.335574 0.509716
v -0.316955 0.335670 0.509702
v -0.316840 0.335795 0.509678
v -0.316570 0.335429 0.509745
vn 0.014584865459604296 -0.16408782114297324 -0.9863379079463978
vn 0.009991606272208475 -0.1713632822407636 -0.9851572429332149
vn 0.00046707033966139177 -0.18955180694226684 -0.9818706097700548
vn -0.014584865459604296 0.16408782114297324 0.9863379079463978
vn -0.009991606272208475 0.1713632822407636 0.9851572429332149
vn -0.00046707033966139177 0.18955180694226684 0.9818706097700548
vn -0.01007411278985125 -0.20596520561808535 -0.978507458492881
vn 0.01007411278985125 0.20596520561808535 0.978507458492881
vn 0.004498438789629416 -0.18422571479793448 -0.9828736694283992
vn -0.004498438789629416 0.18422571479793448 0.9828736694283992
vn -0.006379178152055828 -0.19351496319805347 -0.9810765847295309
vn 0.006379178152055828 0.19351496319805347 0.9810765847295309
vn 0.025363365811858253 -0.19659033069850218 -0.9801576105660494
vn -0.025363365811858253 0.19659033069850218 0.9801576105660494
vn 0.0010379573205410862 -0.18608084927545324 -0.9825338875466468
vn -0.0010379573205410862 0.18608084927545324 0.9825338875466468
vn -0.004794206442081158 -0.18430685402284633 -0.9828570593655988
vn 0.004794206442081158 0.18430685402284633 0.9828570593655988
vn -0.004125137103140555 -0.18459988537870015 -0.9828051004965588
vn 0.004125137103140555 0.18459988537870015 0.9828051004965588
usemtl material_0_2
f 1//1 2//2 3//3
f 3//6 2//5 1//4
f 2//2 4//7 3//3
f 3//6 4//8 2//5
f 5//9 3//3 4//7
f 4//8 3//6 5//10
f 6//11 3//3 5//9
f 5//10 3//6 6//12
f 7//13 3//3 6//11
f 6//12 3//6 7//14
f 8//15 3//3 7//13
f 7//14 3//6 8//16
f 9//17 3//3 8//15
f 8//16 3//6 9//18
f 9//17 10//19 3//3
f 3//6 10//20 9//18
