# SSTK version 0.8.0
# 637
mtllib original-637.mtl
o #ID3826
v -0.018307 0.365330 0.504526
v -0.019194 0.364660 0.504656
v -0.020085 0.365320 0.504526
v -0.019198 0.365995 0.504396
vn 0.001039108646093058 -0.1917155452046181 -0.9814499834327358
vn 0.001042920969815972 -0.19241891893149718 -0.9813123213091154
vn 0.001039116427959036 -0.1917169809588911 -0.9814497029644754
vn -0.001039108646093058 0.1917155452046181 0.9814499834327358
vn -0.001042920969815972 0.19241891893149718 0.9813123213091154
vn -0.001039116427959036 0.1917169809588911 0.9814497029644754
vn 0.001035323065187987 -0.19101710552763107 -0.9815861620367294
vn -0.001035323065187987 0.19101710552763107 0.9815861620367294
usemtl material_0_2
f 1//1 2//2 3//3
f 3//6 2//5 1//4
f 4//7 1//1 3//3
f 3//6 1//4 4//8
