# SSTK version 0.8.0
# 369
mtllib original-369.mtl
o #ID2218
v -0.174774 0.360989 0.504864
v -0.174649 0.360936 0.504873
v -0.174841 0.360517 0.504951
v -0.174894 0.361056 0.504849
v -0.174509 0.360902 0.504878
v -0.175005 0.361153 0.504830
v -0.174360 0.360893 0.504878
v -0.175106 0.361264 0.504811
v -0.173324 0.360878 0.504883
v -0.175198 0.361394 0.504782
v -0.173468 0.360748 0.504907
v -0.173632 0.360647 0.504927
v -0.173805 0.360565 0.504941
v -0.173993 0.360507 0.504951
vn 0.008871178505777165 -0.1822583347195454 -0.9832106598370345
vn -0.00496604129605871 -0.1791011625950384 -0.983818129529514
vn 0.001827602448813818 -0.18183219609752518 -0.9833278763116808
vn -0.008871178505777165 0.1822583347195454 0.9832106598370345
vn 0.00496604129605871 0.1791011625950384 0.983818129529514
vn -0.001827602448813818 0.18183219609752518 0.9833278763116808
vn 0.013170287349562172 -0.18336202593279882 -0.9829572274402124
vn -0.013170287349562172 0.18336202593279882 0.9829572274402124
vn -0.01039168156087555 -0.17597017385495609 -0.9843406477778888
vn 0.01039168156087555 0.17597017385495609 0.9843406477778888
vn -0.017748575880105276 -0.19089827587034516 -0.9814493549460194
vn 0.017748575880105276 0.19089827587034516 0.9814493549460194
vn -0.00118089006579232 -0.18775147833203104 -0.9822158560534386
vn 0.00118089006579232 0.18775147833203104 0.9822158560534386
vn 0.08516316979993001 -0.15426742151780098 -0.9843519681332877
vn -0.08516316979993001 0.15426742151780098 0.9843519681332877
vn 0.0003462602750247663 -0.18540851997699775 -0.9826614680670862
vn -0.0003462602750247663 0.18540851997699775 0.9826614680670862
vn 0.10023026744093629 -0.14881246765781936 -0.9837727089924323
vn -0.10023026744093629 0.14881246765781936 0.9837727089924323
vn -0.0002606465781020696 -0.18318908830477013 -0.9830776622370323
vn 0.0002606465781020696 0.18318908830477013 0.9830776622370323
vn 0.0004829756866352363 -0.186779969759276 -0.9824016539232872
vn -0.0004829756866352363 0.186779969759276 0.9824016539232872
vn -0.001220223212812705 -0.17082531586740454 -0.9853005747050553
vn 0.001220223212812705 0.17082531586740454 0.9853005747050553
vn -0.001803335604018173 -0.158693533155863 -0.9873262432019158
vn 0.001803335604018173 0.158693533155863 0.9873262432019158
usemtl material_0_2
f 1//1 2//2 3//3
f 3//6 2//5 1//4
f 4//7 1//1 3//3
f 3//6 1//4 4//8
f 2//2 5//9 3//3
f 3//6 5//10 2//5
f 6//11 4//7 3//3
f 3//6 4//8 6//12
f 5//9 7//13 3//3
f 3//6 7//14 5//10
f 8//15 6//11 3//3
f 3//6 6//12 8//16
f 7//13 9//17 3//3
f 3//6 9//18 7//14
f 10//19 8//15 3//3
f 3//6 8//16 10//20
f 9//17 11//21 3//3
f 3//6 11//22 9//18
f 11//21 12//23 3//3
f 3//6 12//24 11//22
f 12//23 13//25 3//3
f 3//6 13//26 12//24
f 13//25 14//27 3//3
f 3//6 14//28 13//26
