# SSTK version 0.8.0
# 410
mtllib original-410.mtl
o #ID2464
v -0.103524 0.336571 0.509528
v -0.102903 0.336513 0.509538
v -0.102802 0.336402 0.509562
v -0.102989 0.336643 0.509514
v -0.102691 0.336306 0.509576
v -0.103062 0.336788 0.509485
v -0.103120 0.336942 0.509456
v -0.103158 0.337111 0.509427
v -0.103182 0.337289 0.509393
v -0.103192 0.337482 0.509354
v -0.103182 0.337684 0.509316
v -0.103158 0.337872 0.509277
vn -0.000565790786966635 -0.18691781918387051 -0.9823753909541563
vn -0.004103278940208452 -0.20794726350420356 -0.9781314322232223
vn 0.01182045575613489 -0.1476983871034062 -0.9889618108262673
vn 0.000565790786966635 0.18691781918387051 0.9823753909541563
vn 0.004103278940208452 0.20794726350420356 0.9781314322232223
vn -0.01182045575613489 0.1476983871034062 0.9889618108262673
vn -0.001015751976960749 -0.18825270815825149 -0.9821200976046696
vn 0.001015751976960749 0.18825270815825149 0.9821200976046696
vn 0.01566910880826682 -0.1316476075373731 -0.9911727329072569
vn -0.01566910880826682 0.1316476075373731 0.9911727329072569
vn -0.0022616454803953585 -0.19147416585974386 -0.9814950477552274
vn 0.0022616454803953585 0.19147416585974386 0.9814950477552274
vn -0.01286839934541952 -0.17802217757827277 -0.9839423299099275
vn 0.01286839934541952 0.17802217757827277 0.9839423299099275
vn -0.002942370110138531 -0.18269790240711728 -0.983164695722021
vn 0.002942370110138531 0.18269790240711728 0.983164695722021
vn 0.01911442374516622 -0.1937605419250918 -0.9808626260581983
vn -0.01911442374516622 0.1937605419250918 0.9808626260581983
vn 0.002411454245880397 -0.18831198172426258 -0.9821062989450281
vn -0.002411454245880397 0.18831198172426258 0.9821062989450281
vn 0.07567330494630577 -0.20929556801053018 -0.9749199537037146
vn -0.07567330494630577 0.20929556801053018 0.9749199537037146
vn 0.08195984720029094 -0.21105822370557462 -0.9740313186202755
vn -0.08195984720029094 0.21105822370557462 0.9740313186202755
usemtl material_0_2
f 1//1 2//2 3//3
f 3//6 2//5 1//4
f 4//7 2//2 1//1
f 1//4 2//5 4//8
f 1//1 3//3 5//9
f 5//10 3//6 1//4
f 6//11 4//7 1//1
f 1//4 4//8 6//12
f 7//13 6//11 1//1
f 1//4 6//12 7//14
f 8//15 7//13 1//1
f 1//4 7//14 8//16
f 9//17 8//15 1//1
f 1//4 8//16 9//18
f 10//19 9//17 1//1
f 1//4 9//18 10//20
f 11//21 10//19 1//1
f 1//4 10//20 11//22
f 12//23 11//21 1//1
f 1//4 11//22 12//24
