# SSTK version 0.8.0
# 464
mtllib original-464.mtl
o #ID2788
v 0.107960 0.339336 0.509002
v 0.108057 0.339235 0.509021
v 0.107387 0.339322 0.509002
v 0.107873 0.339457 0.508978
v 0.108167 0.339158 0.509036
v 0.107801 0.339597 0.508949
v 0.107739 0.339751 0.508920
v 0.107695 0.339910 0.508891
v 0.107662 0.340083 0.508857
v 0.107642 0.340271 0.508823
v 0.107633 0.340464 0.508785
v 0.107642 0.340666 0.508746
vn 0.004674657793447669 -0.1854280924731533 -0.9826467168297474
vn 0.004967851231180065 -0.17916493900209735 -0.9838065079508875
vn 0.001882802013434125 -0.18885556485248825 -0.9820030706066177
vn -0.004674657793447669 0.1854280924731533 0.9826467168297474
vn -0.004967851231180065 0.17916493900209735 0.9838065079508875
vn -0.001882802013434125 0.18885556485248825 0.9820030706066177
vn 0.005685157516337404 -0.19629971118921138 -0.9805274613038875
vn -0.005685157516337404 0.19629971118921138 0.9805274613038875
vn 0.005066019935435765 -0.17843598466961186 -0.9839384812156702
vn -0.005066019935435765 0.17843598466961186 0.9839384812156702
vn 0.001243257783125998 -0.19212381812284318 -0.9813699062127315
vn -0.001243257783125998 0.19212381812284318 0.9813699062127315
vn -0.006806613060221453 -0.18275978224903838 -0.9831340356283738
vn 0.006806613060221453 0.18275978224903838 0.9831340356283738
vn 0.004342168620653962 -0.18792515543286514 -0.9821737532265883
vn -0.004342168620653962 0.18792515543286514 0.9821737532265883
vn -0.01798326669101287 -0.180724822196293 -0.9833692799560285
vn 0.01798326669101287 0.180724822196293 0.9833692799560285
vn 0.03155601081684299 -0.1930758597111215 -0.9806762618612417
vn -0.03155601081684299 0.1930758597111215 0.9806762618612417
vn 0.005093726281106321 -0.18803594373701957 -0.9821489387132184
vn -0.005093726281106321 0.18803594373701957 0.9821489387132184
vn 0.002208349370540698 -0.18743880555885908 -0.9822737995914002
vn -0.002208349370540698 0.18743880555885908 0.9822737995914002
usemtl material_0_2
f 1//1 2//2 3//3
f 3//6 2//5 1//4
f 4//7 1//1 3//3
f 3//6 1//4 4//8
f 3//3 2//2 5//9
f 5//10 2//5 3//6
f 6//11 4//7 3//3
f 3//6 4//8 6//12
f 7//13 6//11 3//3
f 3//6 6//12 7//14
f 8//15 7//13 3//3
f 3//6 7//14 8//16
f 9//17 8//15 3//3
f 3//6 8//16 9//18
f 10//19 9//17 3//3
f 3//6 9//18 10//20
f 11//21 10//19 3//3
f 3//6 10//20 11//22
f 12//23 11//21 3//3
f 3//6 11//22 12//24
