# SSTK version 0.8.0
# 30
mtllib original-30.mtl
o #ID184
v -0.329352 0.341191 0.508644
v -0.328764 0.340772 0.508727
v -0.328986 0.340873 0.508707
v -0.328523 0.340714 0.508736
v -0.328254 0.340695 0.508741
v -0.327998 0.340710 0.508736
v -0.327762 0.340763 0.508727
v -0.327545 0.340845 0.508712
v -0.327348 0.340960 0.508688
v -0.328384 0.341143 0.508654
v -0.328543 0.341187 0.508644
v -0.328697 0.341259 0.508630
v -0.328832 0.341365 0.508611
v -0.328952 0.341500 0.508587
v -0.329058 0.341654 0.508558
v -0.329140 0.341832 0.508524
v -0.329198 0.342025 0.508485
v -0.329232 0.342237 0.508447
v -0.329246 0.342463 0.508403
vn -0.0009738490450243693 -0.18811952446079838 -0.9821456593269048
vn -0.009850587976710842 -0.2053780914637188 -0.9786331311902502
vn -0.007731964200468844 -0.20252713966436617 -0.9792461255624005
vn 0.0009738490450243693 0.18811952446079838 0.9821456593269048
vn 0.009850587976710842 0.2053780914637188 0.9786331311902502
vn 0.007731964200468844 0.20252713966436617 0.9792461255624005
vn 0.0037365527844407404 -0.1825967198184836 -0.9831807952176544
vn -0.0037365527844407404 0.1825967198184836 0.9831807952176544
vn -0.005816331142272287 -0.2036428616236358 -0.9790279644636204
vn 0.005816331142272287 0.2036428616236358 0.9790279644636204
vn -0.00010246694233041169 -0.18731773256924528 -0.9822993721700337
vn 0.00010246694233041169 0.18731773256924528 0.9822993721700337
vn 0.0021716446701929 -0.18016455896471115 -0.9836340862599656
vn -0.0021716446701929 0.18016455896471115 0.9836340862599656
vn -0.001177078236717148 -0.1972974924917293 -0.9803429573079517
vn 0.001177078236717148 0.1972974924917293 0.9803429573079517
vn -0.0017325072643726315 -0.1991666506948844 -0.9799641032556043
vn 0.0017325072643726315 0.1991666506948844 0.9799641032556043
vn 0.001038555838678588 -0.17790263215033617 -0.9840475470604823
vn -0.001038555838678588 0.17790263215033617 0.9840475470604823
vn -0.001310909768107544 -0.22023284104520327 -0.9754464502168934
vn 0.001310909768107544 0.22023284104520327 0.9754464502168934
vn -0.0015530586910854312 -0.1944094666555038 -0.980919235861661
vn 0.0015530586910854312 0.1944094666555038 0.980919235861661
vn -0.003166112405282581 -0.18170810476689925 -0.9833474159188391
vn 0.003166112405282581 0.18170810476689925 0.9833474159188391
vn -0.0016483198268046322 -0.1824748151263118 -0.9832091460550837
vn 0.0016483198268046322 0.1824748151263118 0.9832091460550837
vn 0.0005135489223242776 -0.18513910027653488 -0.9827121907335329
vn -0.0005135489223242776 0.18513910027653488 0.9827121907335329
vn 0.01455691717680403 -0.18963927806711908 -0.981745914367098
vn -0.01455691717680403 0.18963927806711908 0.981745914367098
vn -0.0182703139334625 -0.1843540847202388 -0.9826900666414287
vn 0.0182703139334625 0.1843540847202388 0.9826900666414287
vn 0.01002056545405497 -0.18711013053266728 -0.9822878332342456
vn -0.01002056545405497 0.18711013053266728 0.9822878332342456
vn 0.01312988698122604 -0.18744917297668098 -0.9821865472598464
vn -0.01312988698122604 0.18744917297668098 0.9821865472598464
usemtl material_0_2
f 1//1 2//2 3//3
f 3//6 2//5 1//4
f 1//1 4//7 2//2
f 2//5 4//8 1//4
f 1//1 5//9 4//7
f 4//8 5//10 1//4
f 1//1 6//11 5//9
f 5//10 6//12 1//4
f 1//1 7//13 6//11
f 6//12 7//14 1//4
f 1//1 8//15 7//13
f 7//14 8//16 1//4
f 1//1 9//17 8//15
f 8//16 9//18 1//4
f 1//1 10//19 9//17
f 9//18 10//20 1//4
f 1//1 11//21 10//19
f 10//20 11//22 1//4
f 12//23 11//21 1//1
f 1//4 11//22 12//24
f 13//25 12//23 1//1
f 1//4 12//24 13//26
f 14//27 13//25 1//1
f 1//4 13//26 14//28
f 1//1 15//29 14//27
f 14//28 15//30 1//4
f 15//29 1//1 16//31
f 16//32 1//4 15//30
f 17//33 16//31 1//1
f 1//4 16//32 17//34
f 18//35 17//33 1//1
f 1//4 17//34 18//36
f 19//37 18//35 1//1
f 1//4 18//36 19//38
