# SSTK version 0.8.0
# 5
mtllib original-5.mtl
o #ID30
v -0.308630 0.375279 0.502121
v -0.305483 0.373983 0.502368
v -0.304505 0.372557 0.502643
v -0.306934 0.374942 0.502184
v -0.306466 0.373015 0.502556
v -0.305792 0.372032 0.502744
v -0.305527 0.370755 0.502986
v -0.307468 0.373680 0.502426
v -0.305527 0.359529 0.505129
v -0.308769 0.373940 0.502377
v -0.305483 0.356306 0.505748
v -0.333115 0.373983 0.502368
v -0.331665 0.374942 0.502184
v -0.304163 0.370890 0.502961
v -0.305792 0.358252 0.505376
v -0.329969 0.375279 0.502121
v -0.329829 0.373940 0.502377
v -0.304505 0.357727 0.505477
v -0.304163 0.359399 0.505158
v -0.306466 0.357269 0.505564
v -0.331130 0.373680 0.502426
v -0.307468 0.356604 0.505690
v -0.332132 0.373015 0.502556
v -0.308769 0.356349 0.505738
v -0.332812 0.372032 0.502744
v -0.329829 0.356349 0.505738
v -0.333072 0.370755 0.502986
v -0.331665 0.355347 0.505931
v -0.333072 0.359529 0.505129
v -0.306934 0.355347 0.505931
v -0.331130 0.356604 0.505690
v -0.334435 0.359399 0.505158
v -0.308630 0.355010 0.505994
v -0.329969 0.355010 0.505994
v -0.332132 0.357269 0.505564
v -0.332812 0.358252 0.505376
v -0.334435 0.370890 0.502961
v -0.334093 0.357727 0.505477
v -0.333115 0.356306 0.505748
v -0.334093 0.372557 0.502643
vn -0.0001295039651821563 -0.18784909630303834 -0.9821978926096587
vn -0.001626414537134447 -0.19048712415927507 -0.9816883468317643
vn -0.0004186065105735987 -0.18804141798234858 -0.9821610101667532
vn 0.0001295039651821563 0.18784909630303834 0.9821978926096587
vn 0.001626414537134447 0.19048712415927507 0.9816883468317643
vn 0.0004186065105735987 0.18804141798234858 0.9821610101667532
vn 0.00007619196933738573 -0.18826938723852707 -0.9821174227268413
vn -0.0009415550372533803 -0.18739096962671087 -0.9822849576250636
vn -0.00007619196933738573 0.18826938723852707 0.9821174227268413
vn 0.0009415550372533803 0.18739096962671087 0.9822849576250636
vn 0.000726433568015634 -0.18726078850408784 -0.9823099660408106
vn -0.000726433568015634 0.18726078850408784 0.9823099660408106
vn 0.005597833955861462 -0.18287733465467002 -0.9831198018169537
vn -0.005597833955861462 0.18287733465467002 0.9831198018169537
vn 0.008438273423352564 -0.18819927581625737 -0.9820946126131989
vn -0.008438273423352564 0.18819927581625737 0.9820946126131989
vn -0.00047428996554992823 -0.1876695529344798 -0.9822321079818155
vn 0.00047428996554992823 0.1876695529344798 0.9822321079818155
vn 0.0003236144620587798 -0.18770533059605604 -0.9822253326704138
vn -0.0003236144620587798 0.18770533059605604 0.9822253326704138
vn 0.0003553843971597922 -0.18886537868596198 -0.9820029238427646
vn -0.0003553843971597922 0.18886537868596198 0.9820029238427646
vn 0.00005952543669078363 -0.18745441194264786 -0.9822733020396913
vn -0.00005952543669078363 0.18745441194264786 0.9822733020396913
vn 0.0005429511856373067 -0.1876849542421874 -0.9822291296612609
vn -0.0005429511856373067 0.1876849542421874 0.9822291296612609
vn -0.004112893755655632 -0.18824963977655415 -0.9821125990582508
vn 0.004112893755655632 0.18824963977655415 0.9821125990582508
vn 0 -0.18272796137794237 -0.9831635124081148
vn 0 0.18272796137794237 0.9831635124081148
vn 0.00002757917147155005 -0.21390355813901507 -0.9768547829922615
vn -0.00002757917147155005 0.21390355813901507 0.9768547829922615
vn 0.0015284869973500427 -0.18776666135708225 -0.9822124742693474
vn -0.0015284869973500427 0.18776666135708225 0.9822124742693474
vn 0.00005339878299664039 -0.18712951497211736 -0.9823352491766087
vn -0.00005339878299664039 0.18712951497211736 0.9823352491766087
vn 0.00020428144882229138 -0.18612383859293707 -0.9825262719014286
vn -0.00020428144882229138 0.18612383859293707 0.9825262719014286
vn 0.0004733368495171752 -0.18760030752209877 -0.9822453362423467
vn -0.0004733368495171752 0.18760030752209877 0.9822453362423467
vn 0.0004906770694541058 -0.19032699918999818 -0.9817206285982505
vn -0.0004906770694541058 0.19032699918999818 0.9817206285982505
vn 0.00002712265229403646 -0.21703905035307478 -0.9761629217944089
vn -0.00002712265229403646 0.21703905035307478 0.9761629217944089
vn 0.00876306858417148 -0.18814615740496138 -0.9821019458705581
vn -0.00876306858417148 0.18814615740496138 0.9821019458705581
vn -0.00006666191101920992 -0.1891556701177429 -0.9819471106014301
vn 0.00006666191101920992 0.1891556701177429 0.9819471106014301
vn 0.031052191301618307 -0.18751152154852538 -0.9817714554324364
vn -0.031052191301618307 0.18751152154852538 0.9817714554324364
vn -0.0003794652875125938 -0.18781307493609267 -0.9822047163851053
vn 0.0003794652875125938 0.18781307493609267 0.9822047163851053
vn -0.0028090532383687984 -0.18881823849975957 -0.9820080356238191
vn 0.0028090532383687984 0.18881823849975957 0.9820080356238191
vn 0 -0.1875434423407887 -0.9822563093383352
vn 0 0.1875434423407887 0.9822563093383352
vn -0.001043651447295974 -0.18812053777687396 -0.9821453935432352
vn 0.001043651447295974 0.18812053777687396 0.9821453935432352
vn -0.002340655065684186 -0.18818829191814998 -0.9821301788046188
vn 0.002340655065684186 0.18818829191814998 0.9821301788046188
vn 0 -0.18299946508237208 -0.9831130127200869
vn 0 0.18299946508237208 0.9831130127200869
vn 0.0006100139768565807 -0.18739657929169548 -0.9822841492932274
vn -0.0006100139768565807 0.18739657929169548 0.9822841492932274
vn -0.0009912236717564825 -0.18800893828677304 -0.982166817093671
vn 0.0009912236717564825 0.18800893828677304 0.982166817093671
vn -0.0019829658142351296 -0.1877334563647368 -0.9822180090020387
vn 0.0019829658142351296 0.1877334563647368 0.9822180090020387
vn -0.0008926286499829033 -0.1874712386704259 -0.9822696869421703
vn -0.00011637665848847859 -0.18760053070999722 -0.9822454007699911
vn 0.0008926286499829033 0.1874712386704259 0.9822696869421703
vn 0.00011637665848847859 0.18760053070999722 0.9822454007699911
vn -0.003585317526209696 -0.1870729341291343 -0.9823394845034747
vn 0.003585317526209696 0.1870729341291343 0.9823394845034747
usemtl material_0_2
f 1//1 2//2 3//3
f 3//6 2//5 1//4
f 2//2 1//1 4//2
f 4//5 1//4 2//5
f 5//7 3//3 6//8
f 6//10 3//6 5//9
f 3//3 5//7 1//1
f 1//4 5//9 3//6
f 3//3 7//11 6//8
f 6//10 7//12 3//6
f 1//1 5//7 8//13
f 8//14 5//9 1//4
f 3//3 9//15 7//11
f 7//12 9//16 3//6
f 1//1 8//13 10//17
f 10//18 8//14 1//4
f 3//3 11//19 9//15
f 9//16 11//20 3//6
f 12//21 1//1 10//17
f 10//18 1//4 12//22
f 1//1 12//21 13//23
f 13//24 12//22 1//4
f 3//3 14//25 11//19
f 11//20 14//26 3//6
f 9//15 11//19 15//27
f 15//28 11//20 9//16
f 1//1 13//23 16//29
f 16//30 13//24 1//4
f 12//21 10//17 17//31
f 17//32 10//18 12//22
f 14//25 18//33 11//19
f 11//20 18//34 14//26
f 18//33 14//25 19//33
f 19//34 14//26 18//34
f 15//27 11//19 20//35
f 20//36 11//20 15//28
f 12//21 17//31 21//37
f 21//38 17//32 12//22
f 20//35 11//19 22//39
f 22//40 11//20 20//36
f 12//21 21//37 23//41
f 23//42 21//38 12//22
f 22//39 11//19 24//43
f 24//44 11//20 22//40
f 12//21 23//41 25//45
f 25//46 23//42 12//22
f 24//43 11//19 26//47
f 26//48 11//20 24//44
f 12//21 25//45 27//49
f 27//50 25//46 12//22
f 26//47 11//19 28//51
f 28//52 11//20 26//48
f 12//21 27//49 29//53
f 29//54 27//50 12//22
f 11//19 30//55 28//51
f 28//52 30//56 11//20
f 31//57 26//47 28//51
f 28//52 26//48 31//58
f 12//21 29//53 32//59
f 32//60 29//54 12//22
f 28//51 33//61 34//61
f 34//62 33//62 28//52
f 33//61 28//51 30//55
f 30//56 28//52 33//62
f 35//63 31//57 28//51
f 28//52 31//58 35//64
f 29//53 36//65 32//59
f 32//60 36//66 29//54
f 12//21 32//59 37//67
f 37//68 32//60 12//22
f 36//65 35//63 28//51
f 28//52 35//64 36//66
f 38//69 36//65 39//70
f 39//72 36//66 38//71
f 36//65 38//69 32//59
f 32//60 38//71 36//66
f 12//21 37//67 40//73
f 40//74 37//68 12//22
f 36//65 28//51 39//70
f 39//72 28//52 36//66
