# SSTK version 0.8.0
# 84
mtllib original-84.mtl
o #ID508
v -0.315587 0.366718 0.503768
v -0.315678 0.366568 0.503797
v -0.317500 0.366327 0.503840
v -0.316584 0.366583 0.503792
v -0.315799 0.366438 0.503821
v -0.315943 0.366332 0.503840
v -0.316107 0.366250 0.503855
v -0.316290 0.366192 0.503869
v -0.316493 0.366154 0.503874
v -0.316719 0.366144 0.503874
v -0.316946 0.366154 0.503874
vn 0.001957004405941079 -0.1917053443308224 -0.9814505749597154
vn 0.0016589197467670378 -0.18966665740852287 -0.9818471403700026
vn 0.0006214291035791607 -0.1885747485776141 -0.9820586428644468
vn -0.001957004405941079 0.1917053443308224 0.9814505749597154
vn -0.0016589197467670378 0.18966665740852287 0.9818471403700026
vn -0.0006214291035791607 0.1885747485776141 0.9820586428644468
vn 0.0026087519512384915 -0.1947868123588407 -0.9808421341604052
vn -0.0026087519512384915 0.1947868123588407 0.9808421341604052
vn 0.0008115279006718568 -0.18300372897391662 -0.9831118840722595
vn -0.0008115279006718568 0.18300372897391662 0.9831118840722595
vn 0.0005529111217865022 -0.17859029233955367 -0.9839233719001516
vn -0.0005529111217865022 0.17859029233955367 0.9839233719001516
vn 0.00011422538519880349 -0.1828888119029224 -0.9831335969405678
vn -0.00011422538519880349 0.1828888119029224 0.9831335969405678
vn -0.001977984445758667 -0.2274436833650935 -0.9737892269248265
vn 0.001977984445758667 0.2274436833650935 0.9737892269248265
vn 0.006381010732516459 -0.15557632433339208 -0.9878032648300688
vn -0.006381010732516459 0.15557632433339208 0.9878032648300688
vn 0.005571309229485743 -0.15864306018461047 -0.9873202823647104
vn -0.005571309229485743 0.15864306018461047 0.9873202823647104
vn -0.009367285324489659 -0.2201312051260066 -0.975425295189448
vn 0.009367285324489659 0.2201312051260066 0.975425295189448
usemtl material_0_2
f 1//1 2//2 3//3
f 3//6 2//5 1//4
f 1//1 3//3 4//7
f 4//8 3//6 1//4
f 2//2 5//9 3//3
f 3//6 5//10 2//5
f 5//9 6//11 3//3
f 3//6 6//12 5//10
f 6//11 7//13 3//3
f 3//6 7//14 6//12
f 3//3 7//13 8//15
f 8//16 7//14 3//6
f 3//3 8//15 9//17
f 9//18 8//16 3//6
f 3//3 9//17 10//19
f 10//20 9//18 3//6
f 3//3 10//19 11//21
f 11//22 10//20 3//6
