# SSTK version 0.8.0
# 626
mtllib original-626.mtl
o #ID3760
v 0.452231 0.007795 0.319201
v 0.454640 -0.009256 0.324130
v 0.452231 -0.009400 0.322682
v 0.454640 0.008364 0.320562
v 0.452231 -0.064775 0.322682
v 0.454640 -0.064919 0.324130
v 0.449822 -0.009738 0.319302
v 0.452231 0.007795 0.319201
v 0.452231 -0.009400 0.322682
v 0.449822 0.006465 0.316019
v 0.452231 0.021719 0.309785
v 0.454640 0.022760 0.310828
v 0.449822 -0.064437 0.319302
v 0.452231 -0.064775 0.322682
v 0.452231 -0.081970 0.319201
v 0.454640 -0.082539 0.320562
v 0.447413 -0.063618 0.311094
v 0.452231 0.021719 0.309785
v 0.449822 0.019291 0.307352
v 0.454640 0.032473 0.296401
v 0.452231 0.031115 0.295831
v 0.452231 -0.081970 0.319201
v 0.449822 -0.080641 0.316019
v 0.452231 -0.095895 0.309785
v 0.454640 -0.096935 0.310828
v 0.447413 -0.010557 0.311094
v 0.447413 0.003242 0.308298
v 0.447413 0.013389 0.301437
v 0.452231 0.031115 0.295831
v 0.449822 0.027940 0.294498
v 0.454640 0.036034 0.278743
v 0.452231 0.034589 0.278598
v 0.447413 -0.077417 0.308298
v 0.452231 -0.095895 0.309785
v 0.449822 -0.093466 0.307352
v 0.452231 -0.105290 0.295831
v 0.454640 -0.106648 0.296401
v 0.447413 -0.087564 0.301437
v 0.447413 -0.094411 0.291268
v 0.447413 0.020235 0.291268
v 0.447413 -0.097200 0.277439
v 0.447413 0.023025 0.277439
v 0.447413 -0.097200 -0.564525
v 0.447413 0.023025 -0.564525
v 0.447413 -0.094411 -0.578354
v 0.447413 0.020235 -0.578354
v 0.447413 -0.087564 -0.588527
v 0.447413 0.013389 -0.588527
v 0.447413 -0.077417 -0.595389
v 0.447413 0.003242 -0.595389
v 0.447413 -0.063618 -0.598184
v 0.447413 -0.010557 -0.598184
v 0.452231 0.034589 0.278598
v 0.449822 0.031216 0.278260
v 0.454640 0.036034 -0.565834
v 0.452231 0.034589 -0.565689
v 0.452231 -0.105290 0.295831
v 0.449822 -0.102115 0.294498
v 0.452231 -0.108764 0.278598
v 0.454640 -0.110209 0.278743
v 0.449822 0.031216 -0.565351
v 0.449822 -0.105391 0.278260
v 0.449822 -0.105391 -0.565351
v 0.449822 -0.102115 -0.581589
v 0.449822 -0.093466 -0.594437
v 0.449822 -0.080641 -0.603109
v 0.449822 -0.064437 -0.606393
v 0.449822 -0.009738 -0.606393
v 0.449822 0.006465 -0.603109
v 0.449822 0.019291 -0.594437
v 0.449822 0.027940 -0.581589
v 0.452231 0.034589 -0.565689
v 0.454640 0.032473 -0.583491
v 0.452231 0.031115 -0.582917
v 0.452231 -0.108764 0.278598
v 0.452231 -0.108764 -0.565689
v 0.454640 -0.110209 -0.565834
v 0.452231 -0.108764 -0.565689
v 0.452231 -0.105290 -0.582917
v 0.452231 -0.095895 -0.596876
v 0.452231 -0.081970 -0.606286
v 0.452231 -0.064775 -0.609773
v 0.452231 -0.009400 -0.609773
v 0.452231 0.007795 -0.606286
v 0.452231 0.021719 -0.596876
v 0.452231 0.031115 -0.582917
v 0.454640 0.022760 -0.597919
v 0.452231 0.021719 -0.596876
v 0.452231 -0.105290 -0.582917
v 0.454640 -0.106648 -0.583491
v 0.452231 -0.095895 -0.596876
v 0.454640 -0.096935 -0.597919
v 0.454640 -0.082539 -0.607648
v 0.452231 -0.081970 -0.606286
v 0.454640 -0.064919 -0.611221
v 0.452231 -0.064775 -0.609773
v 0.454640 -0.009256 -0.611221
v 0.452231 -0.009400 -0.609773
v 0.452231 0.007795 -0.606286
v 0.454640 0.008364 -0.607648
vn 0.5224224947269075 -0.32992387607402485 -0.7862728362340936
vn 0.5171390294394964 -0.08534629930733731 -0.8516356224494829
vn 0.5171390039412707 -0.08537092200540398 -0.8516331700201546
vn -0.5224224947269075 0.32992387607402485 0.7862728362340936
vn -0.5171390294394964 0.08534629930733731 0.8516356224494829
vn -0.5171390039412707 0.08537092200540398 0.8516331700201546
vn 0.5224226804285111 -0.32975440306325876 -0.7863438030748914
vn -0.5224226804285111 0.32975440306325876 0.7863438030748914
vn 0.5171390039412707 0.08537092200540541 -0.8516331700201546
vn 0.5171390294394965 0.08534629930733657 -0.8516356224494829
vn -0.5171390039412707 -0.08537092200540541 0.8516331700201546
vn -0.5171390294394965 -0.08534629930733657 0.8516356224494829
vn 0.9248346812409031 -0.04303993596313172 -0.37792641649708275
vn 0.8196283068153819 -0.22152925418470107 -0.5283315514024504
vn 0.8157270408285531 -0.05767987139168696 -0.5755540177058365
vn -0.9248346812409031 0.04303993596313172 0.37792641649708275
vn -0.8196283068153819 0.22152925418470107 0.5283315514024504
vn -0.8157270408285531 0.05767987139168696 0.5755540177058365
vn 0.89512121632715 -0.16959943243099754 -0.41230333566451655
vn -0.89512121632715 0.16959943243099754 0.41230333566451655
vn 0.5216803504982285 -0.603948164527509 -0.6025746646415682
vn -0.5216803504982285 0.603948164527509 0.6025746646415682
vn 0.5216805581434302 -0.6037929245665428 -0.6027300386562298
vn -0.5216805581434302 0.6037929245665428 0.6027300386562298
vn 0.8960998424127276 0.04428086040892629 -0.4416381752400149
vn 0.8157270408285531 0.05767987139168739 -0.5755540177058368
vn -0.8960998424127276 -0.04428086040892629 0.4416381752400149
vn -0.8157270408285531 -0.05767987139168739 0.5755540177058368
vn 0.5224224947269064 0.3299238760740249 -0.7862728362340943
vn 0.5224226804285098 0.3297544030632588 -0.7863438030748922
vn -0.5224224947269064 -0.3299238760740249 0.7862728362340943
vn -0.5224226804285098 -0.3297544030632588 0.7863438030748922
vn 0.988626661655495 0.014681494723599536 -0.14967223381974576
vn -0.988626661655495 -0.014681494723599536 0.14967223381974576
vn 0.8191353099890938 -0.4059271440893997 -0.4052659591188174
vn -0.8191353099890938 0.4059271440893997 0.4052659591188174
vn 0.8944012738509522 -0.31661588904930554 -0.3159125514051503
vn -0.8944012738509522 0.31661588904930554 0.3159125514051503
vn 0.521840696705399 -0.787081976953998 -0.3289137406923129
vn 0.5218406514534342 -0.7871354613143846 -0.3287857965789372
vn -0.521840696705399 0.787081976953998 0.3289137406923129
vn -0.5218406514534342 0.7871354613143846 0.3287857965789372
vn 0.8196283068153818 0.22152925418470096 -0.5283315514024506
vn -0.8196283068153818 -0.22152925418470096 0.5283315514024506
vn 0.8944923892786028 0.17295189090713944 -0.41227540425582226
vn -0.8944923892786028 -0.17295189090713944 0.41227540425582226
vn 0.5216803504982227 0.6039481645275132 -0.602574664641569
vn 0.5216805581434244 0.6037929245665439 -0.6027300386562336
vn -0.5216803504982227 -0.6039481645275132 0.602574664641569
vn -0.5216805581434244 -0.6037929245665439 0.6027300386562336
vn 0.9741933991762614 -0.004557084359363898 -0.2256689034482669
vn -0.9741933991762614 0.004557084359363898 0.2256689034482669
vn 0.987627112344639 -0.06068856997173345 -0.14460146761556797
vn -0.987627112344639 0.06068856997173345 0.14460146761556797
vn 0.9876643460646056 -0.11086559822369019 -0.11058010057545693
vn -0.9876643460646056 0.11086559822369019 0.11058010057545693
vn 0.8192255697695849 -0.5291169127188585 -0.2211442029775203
vn -0.8192255697695849 0.5291169127188585 0.2211442029775203
vn 0.8942641212270169 -0.412970489048163 -0.17247335058319063
vn -0.8942641212270169 0.412970489048163 0.17247335058319063
vn 0.5163259486447624 -0.8521570330237543 -0.08506412771690733
vn 0.5163259646585614 -0.8521595770109505 -0.08503854142636702
vn -0.5163259486447624 0.8521570330237543 0.08506412771690733
vn -0.5163259646585614 0.8521595770109505 0.08503854142636702
vn 0.9876274800017335 0.06068958429721983 -0.14459853077834567
vn -0.9876274800017335 -0.06068958429721983 0.14459853077834567
vn 0.8191353099890938 0.4059271440893999 -0.40526595911881746
vn -0.8191353099890938 -0.4059271440893999 0.40526595911881746
vn 0.894401273850952 0.3166158890493053 -0.3159125514051505
vn -0.894401273850952 -0.3166158890493053 0.3159125514051505
vn 0.521840651453426 0.78713546131439 -0.3287857965789374
vn -0.521840651453426 -0.78713546131439 0.3287857965789374
vn 0.5218406967053907 0.787081976954002 -0.32891374069231616
vn -0.5218406967053907 -0.787081976954002 0.32891374069231616
vn 0.9876643460646056 0.11086559822369013 -0.11058010057545678
vn -0.9876643460646056 -0.11086559822369013 0.11058010057545678
vn 0.9876001978945012 0.14486880599384827 -0.0604886614884045
vn -0.9876001978945012 -0.14486880599384827 0.0604886614884045
vn 0.9876001978945012 -0.14486880599384824 -0.06048866148840477
vn -0.9876001978945012 0.14486880599384824 0.06048866148840477
vn 0.9885859188369194 0.1499127355130695 -0.01496839364634894
vn -0.9885859188369194 -0.1499127355130695 0.01496839364634894
vn 0.9885859188369196 -0.14991273551306883 -0.014968393646349054
vn -0.9885859188369196 0.14991273551306883 0.014968393646349054
vn 0.9885871749188855 0.1499051199572516 0.014961704331356731
vn -0.9885871749188855 -0.1499051199572516 -0.014961704331356731
vn 0.9885871749188856 -0.14990511995725078 0.014961704331356704
vn -0.9885871749188856 0.14990511995725078 -0.014961704331356704
vn 0.9876030824772368 0.1448548803325228 0.06047491318977301
vn -0.9876030824772368 -0.1448548803325228 -0.06047491318977301
vn 0.9876030824772368 -0.14485488033252272 0.060474913189773154
vn -0.9876030824772368 0.14485488033252272 -0.060474913189773154
vn 0.9876595831724205 0.1108884299091558 0.11059974629248864
vn -0.9876595831724205 -0.1108884299091558 -0.11059974629248864
vn 0.9876595831724205 -0.11088842990915591 0.11059974629248867
vn -0.9876595831724205 0.11088842990915591 -0.11059974629248867
vn 0.9876249847785591 0.0607101424946355 0.14460694326149057
vn -0.9876249847785591 -0.0607101424946355 -0.14460694326149057
vn 0.9876249847785592 -0.06071014249463526 0.14460694326149026
vn -0.9876249847785592 0.06071014249463526 -0.14460694326149026
vn 0.9886256312629639 0.015013540134812566 0.1496460985877225
vn -0.9886256312629639 -0.015013540134812566 -0.1496460985877225
vn 0.9886256312629639 -0.015013540134812703 0.1496460985877225
vn -0.9886256312629639 0.015013540134812703 -0.1496460985877225
vn 0.8151593202555851 -0.5763715233845839 -0.057542589720889034
vn -0.8151593202555851 0.5763715233845839 0.057542589720889034
vn 0.8957698879667798 -0.4423197374283466 -0.04415379591044386
vn -0.8957698879667798 0.4423197374283466 0.04415379591044386
vn 0.5163903400664712 -0.8521177484016197 0.08506679460863771
vn 0.5163903371425607 -0.8521200475666163 0.08504377837831645
vn -0.5163903400664712 0.8521177484016197 -0.08506679460863771
vn -0.5163903371425607 0.8521200475666163 -0.08504377837831645
vn 0.8192255697695854 0.5291169127188583 -0.22114420297751897
vn -0.8192255697695854 -0.5291169127188583 0.22114420297751897
vn 0.894264121227017 0.4129704890481629 -0.17247335058319005
vn -0.894264121227017 -0.4129704890481629 0.17247335058319005
vn 0.5163259646585577 0.8521595770109527 -0.08503854142636696
vn -0.5163259646585577 -0.8521595770109527 0.08503854142636696
vn 0.5163259486447587 0.8521570330237566 -0.08506412771690756
vn -0.5163259486447587 -0.8521570330237566 0.08506412771690756
vn 0.895765354171533 -0.44232776604175605 0.044165344496082413
vn -0.895765354171533 0.44232776604175605 -0.044165344496082413
vn 0.8957698879667803 0.4423197374283458 -0.04415379591044317
vn -0.8957698879667803 -0.4423197374283458 0.04415379591044317
vn 0.8957653541715332 0.4423277660417553 0.04416534449608215
vn -0.8957653541715332 -0.4423277660417553 -0.04416534449608215
vn 0.8942545106784191 0.41296756883368213 0.17253016322631598
vn -0.8942545106784191 -0.41296756883368213 -0.17253016322631598
vn 0.8944012589824889 0.3166455867022571 0.3158828269351189
vn -0.8944012589824889 -0.3166455867022571 -0.3158828269351189
vn 0.894440854596171 0.1729963794896945 0.4123685370063157
vn -0.894440854596171 -0.1729963794896945 -0.4123685370063157
vn 0.8960648133977969 0.044316972152998395 0.4417056216186994
vn -0.8960648133977969 -0.044316972152998395 -0.4417056216186994
vn 0.8960648133977971 -0.04431697215299847 0.4417056216186994
vn -0.8960648133977971 0.04431697215299847 -0.4417056216186994
vn 0.894440854596171 -0.17299637948969498 0.4123685370063149
vn -0.894440854596171 0.17299637948969498 -0.4123685370063149
vn 0.8944012589824891 -0.3166455867022574 0.31588282693511793
vn -0.8944012589824891 0.3166455867022574 -0.31588282693511793
vn 0.8942545106784189 -0.4129675688336826 0.17253016322631612
vn -0.8942545106784189 0.4129675688336826 -0.17253016322631612
vn 0.8151400269945447 -0.5763975460724542 0.05755523671209916
vn -0.8151400269945447 0.5763975460724542 -0.05755523671209916
vn 0.5220882694253718 -0.7868850925255119 0.3289919301282887
vn 0.522087754442838 -0.7870738131140487 0.32854100105001616
vn -0.5220882694253718 0.7868850925255119 -0.3289919301282887
vn -0.522087754442838 0.7870738131140487 -0.32854100105001616
vn 0.8151593202555868 0.5763715233845819 -0.057542589720887855
vn -0.8151593202555868 -0.5763715233845819 0.057542589720887855
vn 0.516390337142557 0.8521200475666183 0.08504377837831714
vn -0.516390337142557 -0.8521200475666183 -0.08504377837831714
vn 0.5163903400664676 0.8521177484016219 0.08506679460863872
vn -0.5163903400664676 -0.8521177484016219 -0.08506679460863872
vn 0.8151400269945467 0.5763975460724519 0.05755523671209853
vn -0.8151400269945467 -0.5763975460724519 -0.05755523671209853
vn 0.8192034592842568 0.5291777140675723 0.2210806170403131
vn -0.8192034592842568 -0.5291777140675723 -0.2210806170403131
vn 0.8191332887036311 0.40588632674746367 0.40531092397938745
vn -0.8191332887036311 -0.40588632674746367 -0.40531092397938745
vn 0.8195321611674738 0.22162611634527227 0.5284400641188
vn -0.8195321611674738 -0.22162611634527227 -0.5284400641188
vn 0.8156404039227481 0.057742237740162 0.5756705355231366
vn -0.8156404039227481 -0.057742237740162 -0.5756705355231366
vn 0.8156404039227484 -0.05774223774016212 0.5756705355231363
vn -0.8156404039227484 0.05774223774016212 -0.5756705355231363
vn 0.8195321611674741 -0.22162611634527277 0.5284400641187992
vn -0.8195321611674741 0.22162611634527277 -0.5284400641187992
vn 0.8191332887036313 -0.40588632674746367 0.40531092397938706
vn -0.8191332887036313 0.40588632674746367 -0.40531092397938706
vn 0.8192034592842563 -0.5291777140675727 0.22108061704031387
vn -0.8192034592842563 0.5291777140675727 -0.22108061704031387
vn 0.5218872756418852 -0.6036437133193843 0.6027005383215414
vn 0.5218873074303325 -0.6037982194568899 0.6025457231810769
vn -0.5218872756418852 0.6036437133193843 -0.6027005383215414
vn -0.5218873074303325 0.6037982194568899 -0.6025457231810769
vn 0.5220877544428296 0.7870738131140539 0.32854100105001693
vn -0.5220877544428296 -0.7870738131140539 -0.32854100105001693
vn 0.5220882694253636 0.7868850925255159 0.3289919301282926
vn -0.5220882694253636 -0.7868850925255159 -0.3289919301282926
vn 0.5218873074303271 0.6037982194568935 0.602545723181078
vn -0.5218873074303271 -0.6037982194568935 -0.602545723181078
vn 0.5218872756418796 0.6036437133193848 0.6027005383215457
vn -0.5218872756418796 -0.6036437133193848 -0.6027005383215457
vn 0.5224110636358192 0.3297682756845368 0.7863457032011679
vn -0.5224110636358192 -0.3297682756845368 -0.7863457032011679
vn 0.5224108856601485 0.3299391989927639 0.7862741198283156
vn -0.5224108856601485 -0.3299391989927639 -0.7862741198283156
vn 0.5171371777554973 0.08545609902854825 0.8516257361786937
vn -0.5171371777554973 -0.08545609902854825 -0.8516257361786937
vn 0.5171371468229167 0.08548806665115415 0.8516225465757121
vn -0.5171371468229167 -0.08548806665115415 -0.8516225465757121
vn 0.5171371777554974 -0.08545609902854978 0.8516257361786936
vn -0.5171371777554974 0.08545609902854978 -0.8516257361786936
vn 0.5171371468229168 -0.08548806665115342 0.8516225465757122
vn -0.5171371468229168 0.08548806665115342 -0.8516225465757122
vn 0.5224108856601495 -0.32993919899276436 0.7862741198283146
vn -0.5224108856601495 0.32993919899276436 -0.7862741198283146
vn 0.5224110636358203 -0.3297682756845373 0.786345703201167
vn -0.5224110636358203 0.3297682756845373 -0.786345703201167
usemtl material_0_2
f 1//1 2//2 3//3
f 3//6 2//5 1//4
f 2//2 1//1 4//7
f 4//8 1//4 2//5
f 5//9 2//2 6//10
f 6//12 2//5 5//11
f 2//2 5//9 3//3
f 3//6 5//11 2//5
f 7//13 8//14 9//15
f 9//18 8//17 7//16
f 8//14 7//13 10//19
f 10//20 7//16 8//17
f 11//21 4//7 1//1
f 1//4 4//8 11//22
f 4//7 11//21 12//23
f 12//24 11//22 4//8
f 13//25 9//15 14//26
f 14//28 9//18 13//27
f 9//15 13//25 7//13
f 7//16 13//27 9//18
f 15//29 6//10 16//30
f 16//32 6//12 15//31
f 6//10 15//29 5//9
f 5//11 15//31 6//12
f 17//33 10//19 7//13
f 7//16 10//20 17//34
f 10//19 18//35 8//14
f 8//17 18//36 10//20
f 18//35 10//19 19//37
f 19//38 10//20 18//36
f 20//39 11//21 21//40
f 21//42 11//22 20//41
f 11//21 20//39 12//23
f 12//24 20//41 11//22
f 17//33 7//13 13//25
f 13//27 7//16 17//34
f 22//43 13//25 14//26
f 14//28 13//27 22//44
f 13//25 22//43 23//45
f 23//46 22//44 13//27
f 24//47 16//30 25//48
f 25//50 16//32 24//49
f 16//30 24//47 15//29
f 15//31 24//49 16//32
f 26//51 10//19 17//33
f 17//34 10//20 26//52
f 27//53 19//37 10//19
f 10//20 19//38 27//54
f 19//37 27//53 28//55
f 28//56 27//54 19//38
f 19//37 29//57 18//35
f 18//36 29//58 19//38
f 29//57 19//37 30//59
f 30//60 19//38 29//58
f 31//61 21//40 32//62
f 32//64 21//42 31//63
f 21//40 31//61 20//39
f 20//41 31//63 21//42
f 23//45 17//33 13//25
f 13//27 17//34 23//46
f 17//33 23//45 33//65
f 33//66 23//46 17//34
f 34//67 23//45 22//43
f 22//44 23//46 34//68
f 23//45 34//67 35//69
f 35//70 34//68 23//46
f 25//48 36//71 24//47
f 24//49 36//72 25//50
f 36//71 25//48 37//73
f 37//74 25//50 36//72
f 27//53 10//19 26//51
f 26//52 10//20 27//54
f 33//65 26//51 17//33
f 17//34 26//52 33//66
f 26//51 33//65 27//53
f 27//54 33//66 26//52
f 27//53 33//65 38//75
f 38//76 33//66 27//54
f 27//53 38//75 28//55
f 28//56 38//76 27//54
f 28//55 38//75 39//77
f 39//78 38//76 28//56
f 28//55 39//77 40//79
f 40//80 39//78 28//56
f 40//79 39//77 41//81
f 41//82 39//78 40//80
f 40//79 41//81 42//83
f 42//84 41//82 40//80
f 42//83 41//81 43//85
f 43//86 41//82 42//84
f 42//83 43//85 44//87
f 44//88 43//86 42//84
f 44//87 43//85 45//89
f 45//90 43//86 44//88
f 44//87 45//89 46//91
f 46//92 45//90 44//88
f 46//91 45//89 47//93
f 47//94 45//90 46//92
f 46//91 47//93 48//95
f 48//96 47//94 46//92
f 48//95 47//93 49//97
f 49//98 47//94 48//96
f 48//95 49//97 50//99
f 50//100 49//98 48//96
f 50//99 49//97 51//101
f 51//102 49//98 50//100
f 50//99 51//101 52//103
f 52//104 51//102 50//100
f 28//55 30//59 19//37
f 19//38 30//60 28//56
f 30//59 28//55 40//79
f 40//80 28//56 30//60
f 30//59 53//105 29//57
f 29//58 53//106 30//60
f 53//105 30//59 54//107
f 54//108 30//60 53//106
f 55//109 32//62 56//110
f 56//112 32//64 55//111
f 32//62 55//109 31//61
f 31//63 55//111 32//64
f 35//69 33//65 23//45
f 23//46 33//66 35//70
f 33//65 35//69 38//75
f 38//76 35//70 33//66
f 57//113 35//69 34//67
f 34//68 35//70 57//114
f 35//69 57//113 58//115
f 58//116 57//114 35//70
f 37//73 59//117 36//71
f 36//72 59//118 37//74
f 59//117 37//73 60//119
f 60//120 37//74 59//118
f 42//83 61//121 54//107
f 54//108 61//122 42//84
f 61//121 42//83 44//87
f 44//88 42//84 61//122
f 40//79 54//107 30//59
f 30//60 54//108 40//80
f 54//107 40//79 42//83
f 42//84 40//80 54//108
f 58//115 38//75 35//69
f 35//70 38//76 58//116
f 38//75 58//115 39//77
f 39//78 58//116 38//76
f 62//123 39//77 58//115
f 58//116 39//78 62//124
f 39//77 62//123 41//81
f 41//82 62//124 39//78
f 63//125 41//81 62//123
f 62//124 41//82 63//126
f 41//81 63//125 43//85
f 43//86 63//126 41//82
f 63//125 45//89 43//85
f 43//86 45//90 63//126
f 45//89 63//125 64//127
f 64//128 63//126 45//90
f 64//127 47//93 45//89
f 45//90 47//94 64//128
f 47//93 64//127 65//129
f 65//130 64//128 47//94
f 65//129 49//97 47//93
f 47//94 49//98 65//130
f 49//97 65//129 66//131
f 66//132 65//130 49//98
f 66//131 51//101 49//97
f 49//98 51//102 66//132
f 51//101 66//131 67//133
f 67//134 66//132 51//102
f 67//133 52//103 51//101
f 51//102 52//104 67//134
f 52//103 67//133 68//135
f 68//136 67//134 52//104
f 52//103 69//137 50//99
f 50//100 69//138 52//104
f 69//137 52//103 68//135
f 68//136 52//104 69//138
f 50//99 70//139 48//95
f 48//96 70//140 50//100
f 70//139 50//99 69//137
f 69//138 50//100 70//140
f 48//95 71//141 46//91
f 46//92 71//142 48//96
f 71//141 48//95 70//139
f 70//140 48//96 71//142
f 46//91 61//121 44//87
f 44//88 61//122 46//92
f 61//121 46//91 71//141
f 71//142 46//92 61//122
f 54//107 72//143 53//105
f 53//106 72//144 54//108
f 72//143 54//107 61//121
f 61//122 54//108 72//144
f 73//145 56//110 74//146
f 74//148 56//112 73//147
f 56//110 73//145 55//109
f 55//111 73//147 56//112
f 75//149 58//115 57//113
f 57//114 58//116 75//150
f 58//115 75//149 62//123
f 62//124 75//150 58//116
f 60//119 76//151 59//117
f 59//118 76//152 60//120
f 76//151 60//119 77//153
f 77//154 60//120 76//152
f 78//155 62//123 75//149
f 75//150 62//124 78//156
f 62//123 78//155 63//125
f 63//126 78//156 62//124
f 78//155 64//127 63//125
f 63//126 64//128 78//156
f 64//127 78//155 79//157
f 79//158 78//156 64//128
f 79//157 65//129 64//127
f 64//128 65//130 79//158
f 65//129 79//157 80//159
f 80//160 79//158 65//130
f 80//159 66//131 65//129
f 65//130 66//132 80//160
f 66//131 80//159 81//161
f 81//162 80//160 66//132
f 81//161 67//133 66//131
f 66//132 67//134 81//162
f 67//133 81//161 82//163
f 82//164 81//162 67//134
f 82//163 68//135 67//133
f 67//134 68//136 82//164
f 68//135 82//163 83//165
f 83//166 82//164 68//136
f 68//135 84//167 69//137
f 69//138 84//168 68//136
f 84//167 68//135 83//165
f 83//166 68//136 84//168
f 69//137 85//169 70//139
f 70//140 85//170 69//138
f 85//169 69//137 84//167
f 84//168 69//138 85//170
f 70//139 86//171 71//141
f 71//142 86//172 70//140
f 86//171 70//139 85//169
f 85//170 70//140 86//172
f 71//141 72//143 61//121
f 61//122 72//144 71//142
f 72//143 71//141 86//171
f 86//172 71//142 72//144
f 87//173 74//146 88//174
f 88//176 74//148 87//175
f 74//146 87//173 73//145
f 73//147 87//175 74//148
f 77//153 89//177 76//151
f 76//152 89//178 77//154
f 89//177 77//153 90//179
f 90//180 77//154 89//178
f 90//179 91//181 89//177
f 89//178 91//182 90//180
f 91//181 90//179 92//183
f 92//184 90//180 91//182
f 93//185 91//181 92//183
f 92//184 91//182 93//186
f 91//181 93//185 94//187
f 94//188 93//186 91//182
f 95//189 94//187 93//185
f 93//186 94//188 95//190
f 94//187 95//189 96//191
f 96//192 95//190 94//188
f 97//193 96//191 95//189
f 95//190 96//192 97//194
f 96//191 97//193 98//195
f 98//196 97//194 96//192
f 97//193 99//197 98//195
f 98//196 99//198 97//194
f 99//197 97//193 100//199
f 100//200 97//194 99//198
f 100//199 88//174 99//197
f 99//198 88//176 100//200
f 88//174 100//199 87//173
f 87//175 100//200 88//176
