# SSTK version 0.8.0
# 9
mtllib original-9.mtl
o #ID54
v -0.217062 0.375279 0.502121
v -0.194027 0.374942 0.502184
v -0.218763 0.374942 0.502184
v -0.195728 0.375279 0.502121
v -0.192582 0.373983 0.502368
v -0.220213 0.373983 0.502368
v -0.195863 0.373940 0.502377
v -0.216927 0.373940 0.502377
v -0.218228 0.373680 0.502426
v -0.194567 0.373680 0.502426
v -0.219230 0.373015 0.502556
v -0.193560 0.373015 0.502556
v -0.219905 0.372032 0.502744
v -0.192885 0.372032 0.502744
v -0.220170 0.370755 0.502986
v -0.192625 0.370755 0.502986
v -0.220170 0.359529 0.505129
v -0.192625 0.359529 0.505129
v -0.221533 0.359399 0.505158
v -0.192582 0.356306 0.505748
v -0.219905 0.358252 0.505376
v -0.221533 0.370890 0.502961
v -0.192885 0.358252 0.505376
v -0.191603 0.372557 0.502643
v -0.221186 0.357727 0.505477
v -0.220213 0.356306 0.505748
v -0.221186 0.372557 0.502643
v -0.193560 0.357269 0.505564
v -0.191261 0.370890 0.502961
v -0.218763 0.355347 0.505931
v -0.194567 0.356604 0.505690
v -0.191603 0.357727 0.505477
v -0.191261 0.359399 0.505158
v -0.219230 0.357269 0.505564
v -0.195863 0.356349 0.505738
v -0.218228 0.356604 0.505690
v -0.216927 0.356349 0.505738
v -0.194027 0.355347 0.505931
v -0.195728 0.355010 0.505994
v -0.217062 0.355010 0.505994
vn 0 -0.18272796137794237 -0.9831635124081146
vn 0 -0.18765700651187361 -0.9822346195828177
vn 0 -0.18765722254871958 -0.9822345783087156
vn 0 0.18272796137794237 0.9831635124081146
vn 0 0.18765700651187361 0.9822346195828177
vn 0 0.18765722254871958 0.9822345783087156
vn -0.00032348399598775153 -0.1889942652001404 -0.9819781377808589
vn 0.0003410945376752778 -0.18893523688728914 -0.9819894907364641
vn 0.00032348399598775153 0.1889942652001404 0.9819781377808589
vn -0.0003410945376752778 0.18893523688728914 0.9819894907364641
vn -0.00002771370148560119 -0.2138967716302836 -0.9768562690171432
vn 0.00002757917147155204 -0.21390355813901477 -0.9768547829922615
vn 0.00002771370148560119 0.2138967716302836 0.9768562690171432
vn -0.00002757917147155204 0.21390355813901477 0.9768547829922615
vn 0.0002042814488223297 -0.18612383859293688 -0.9825262719014286
vn -0.0002042814488223297 0.18612383859293688 0.9825262719014286
vn -0.0002054311711274917 -0.18611658199669778 -0.9825276462796861
vn 0.0002054311711274917 0.18611658199669778 0.9825276462796861
vn 0.0004940662754487432 -0.1903236839978223 -0.9817212696117023
vn -0.0004940662754487432 0.1903236839978223 0.9817212696117023
vn -0.0004975951784026163 -0.19032261785218657 -0.9817214745195955
vn 0.0004975951784026163 0.19032261785218657 0.9817214745195955
vn 0.008618958557233956 -0.18814748996353436 -0.9821029658716087
vn -0.008618958557233956 0.18814748996353436 0.9821029658716087
vn -0.008771724055959489 -0.18814484461767159 -0.982102120097945
vn 0.008771724055959489 0.18814484461767159 0.982102120097945
vn 0.031018800280764737 -0.1875121491890751 -0.9817723911047999
vn -0.031018800280764737 0.1875121491890751 0.9817723911047999
vn -0.031052191301607225 -0.18751152154852546 -0.9817714554324367
vn 0.031052191301607225 0.18751152154852546 0.9817714554324367
vn -0.002808382167830242 -0.1888243106476488 -0.9820068699851542
vn 0.002808382167830242 0.1888243106476488 0.9820068699851542
vn 0.038199141651083235 -0.1876981098178658 -0.9814836958135987
vn -0.038199141651083235 0.1876981098178658 0.9814836958135987
vn -0.002340524561824147 -0.18819002156324677 -0.9821298476926562
vn 0.002340524561824147 0.18819002156324677 0.9821298476926562
vn 0.0003236618390933097 -0.18769371838801177 -0.9822275517010788
vn -0.0003236618390933097 0.18769371838801177 0.9822275517010788
vn -0.000989452052372251 -0.1880102856120642 -0.9821665609705444
vn 0.000989452052372251 0.1880102856120642 0.9821665609705444
vn -0.001984571544436455 -0.18773276491658794 -0.9822181379167043
vn 0.001984571544436455 0.18773276491658794 0.9822181379167043
vn -0.004186815901600167 -0.1882508816753751 -0.9821120486589349
vn 0.004186815901600167 0.1882508816753751 0.9821120486589349
vn 0.0023061054402924654 -0.1877860913137886 -0.9822072417706905
vn -0.0023061054402924654 0.1877860913137886 0.9822072417706905
vn -0.0008915030635068626 -0.18747077097849446 -0.9822697772256951
vn -0.0001165295439191776 -0.18760062922886228 -0.9822453819355937
vn 0.0008915030635068626 0.18747077097849446 0.9822697772256951
vn 0.0001165295439191776 0.18760062922886228 0.9822453819355937
vn -0.0036329303011180328 -0.18705324386768446 -0.9823430591071551
vn 0.0036329303011180328 0.18705324386768446 0.9823430591071551
vn 0.000051891907690329077 -0.1871312485334666 -0.9823349190217844
vn -0.000051891907690329077 0.1871312485334666 0.9823349190217844
vn 0.0005429511856404985 -0.18768495424218767 -0.9822291296612609
vn -0.0005429511856404985 0.18768495424218767 0.9822291296612609
vn -0.0003794807952523578 -0.18781417063155387 -0.9822045068641801
vn 0.0003794807952523578 0.18781417063155387 0.9822045068641801
vn 0.00047367079566972383 -0.18759816772774737 -0.9822457447610395
vn -0.00047367079566972383 0.18759816772774737 0.9822457447610395
vn 0.0015284869973500427 -0.18776666135708225 -0.9822124742693474
vn -0.0015284869973500427 0.18776666135708225 0.9822124742693474
vn 0.0006209583704734437 -0.1873940108679406 -0.9822846324266344
vn -0.0006209583704734437 0.1873940108679406 0.9822846324266344
vn 0.000027255137939886576 -0.21703237247227708 -0.9761644065198302
vn -0.000027255137939886576 0.21703237247227708 0.9761644065198302
vn -0.001043651447295902 -0.18812053777687407 -0.9821453935432352
vn 0.001043651447295902 0.18812053777687407 0.9821453935432352
vn -0.00006666191101920348 -0.18915567011774242 -0.9819471106014303
vn 0.00006666191101920348 0.18915567011774242 0.9819471106014303
vn 0 -0.18754415307221556 -0.9822561736372164
vn 0 0.18754415307221556 0.9822561736372164
vn 0 -0.18299946508237208 -0.9831130127200869
vn 0 0.18299946508237208 0.9831130127200869
usemtl material_0_2
f 1//1 2//2 3//3
f 3//6 2//5 1//4
f 2//2 1//1 4//1
f 4//4 1//4 2//5
f 3//3 5//7 6//8
f 6//10 5//9 3//6
f 5//7 3//3 2//2
f 2//5 3//6 5//9
f 6//8 7//11 8//12
f 8//14 7//13 6//10
f 7//11 6//8 5//7
f 5//9 6//10 7//13
f 6//8 8//12 9//15
f 9//16 8//14 6//10
f 5//7 10//17 7//11
f 7//13 10//18 5//9
f 6//8 9//15 11//19
f 11//20 9//16 6//10
f 5//7 12//21 10//17
f 10//18 12//22 5//9
f 6//8 11//19 13//23
f 13//24 11//20 6//10
f 5//7 14//25 12//21
f 12//22 14//26 5//9
f 6//8 13//23 15//27
f 15//28 13//24 6//10
f 5//7 16//29 14//25
f 14//26 16//30 5//9
f 6//8 15//27 17//31
f 17//32 15//28 6//10
f 5//7 18//33 16//29
f 16//30 18//34 5//9
f 6//8 17//31 19//35
f 19//36 17//32 6//10
f 5//7 20//37 18//33
f 18//34 20//38 5//9
f 17//31 21//39 19//35
f 19//36 21//40 17//32
f 6//8 19//35 22//41
f 22//42 19//36 6//10
f 18//33 20//37 23//43
f 23//44 20//38 18//34
f 5//7 24//45 20//37
f 20//38 24//46 5//9
f 25//47 21//39 26//48
f 26//50 21//40 25//49
f 21//39 25//47 19//35
f 19//36 25//49 21//40
f 6//8 22//41 27//51
f 27//52 22//42 6//10
f 23//43 20//37 28//53
f 28//54 20//38 23//44
f 24//45 29//55 20//37
f 20//38 29//56 24//46
f 21//39 30//57 26//48
f 26//50 30//58 21//40
f 28//53 20//37 31//59
f 31//60 20//38 28//54
f 29//55 32//61 20//37
f 20//38 32//62 29//56
f 32//61 29//55 33//61
f 33//62 29//56 32//62
f 21//39 34//63 30//57
f 30//58 34//64 21//40
f 31//59 20//37 35//65
f 35//66 20//38 31//60
f 34//63 36//67 30//57
f 30//58 36//68 34//64
f 35//65 20//37 37//69
f 37//70 20//38 35//66
f 36//67 37//69 30//57
f 30//58 37//70 36//68
f 37//69 20//37 30//57
f 30//58 20//38 37//70
f 20//37 38//71 30//57
f 30//58 38//72 20//38
f 30//57 39//73 40//73
f 40//74 39//74 30//58
f 39//73 30//57 38//71
f 38//72 30//58 39//74
