# SSTK version 0.8.0
# 42
mtllib original-42.mtl
o Component_2_1/Component_2/mesh18/mesh18-geometry#mesh18-geometry
v -0.807122 -0.053590 -0.242442
v -0.811504 -0.047017 -0.242442
v -0.807122 0.042811 -0.242442
v -0.824650 -0.053590 -0.242442
v -0.811504 0.036238 -0.242442
v -0.807122 -0.047017 -0.027592
v -0.807122 -0.053590 0.195620
v -0.820268 -0.047017 -0.242442
v -0.824650 0.042811 -0.242442
v -0.811504 0.036238 -0.264351
v -0.807122 0.036365 -0.027592
v -0.824650 -0.053590 0.195620
v -0.820268 0.036238 -0.242442
v -0.820268 -0.047017 -0.264351
v -0.824650 0.042811 0.195620
v -0.811504 -0.047017 -0.264351
v -0.807122 -0.047017 -0.018828
v -0.807122 0.036365 -0.018828
v -0.818077 0.036365 -0.027592
v -0.811504 -0.047017 0.195620
v -0.807122 0.042811 0.195620
v -0.820268 0.036238 -0.264351
v -0.818077 -0.047017 -0.018828
v -0.818077 -0.047017 -0.027592
v -0.811504 0.036238 0.195620
v -0.820268 -0.047017 0.195620
v -0.818077 0.036365 -0.018828
v -0.811504 -0.047017 0.217530
v -0.820268 0.036238 0.195620
v -0.811504 0.036238 0.217530
v -0.820268 -0.047017 0.217530
v -0.820268 0.036238 0.217530
vt 0 -0.025952
vt 0.020833 -0.006488
vt 0 0.259516
vt 0.083333 -0.025952
vt 0.020833 0.240052
vt 1.061247 -0.006488
vt 2.082735 -0.025952
vt 2.082735 0.259516
vt 0 0
vt -2.082735 0.051903
vt -2.082735 0
vt 0.0625 -0.006488
vt 0.083333 0.259516
vt 2.082735 -0.006488
vt 2.186901 0.240052
vt 2.082735 0.240052
vt 1.061247 0.240428
vt 0 0.051903
vt 0.0625 0.240052
vt -2.186901 0.038927
vt -2.082735 0.012976
vt -2.082735 0.038927
vt 2.082735 0
vt 2.082735 0.051903
vt 2.186901 -0.006488
vt 2.186901 0.012976
vt 2.082735 0.038927
vt 2.082735 0.012976
vt 1.019581 -0.006488
vt 1.019581 0.240428
vt -0.052083 0.240428
vt 0 -0.006488
vt 0 0.240428
vt -0.020833 -0.006488
vt -0.083333 -0.025952
vt -2.082735 -0.025952
vt -2.082735 0.240052
vt -2.186901 -0.006488
vt -2.082735 -0.006488
vt -2.186901 0.012976
vt -2.082735 0.259516
vt 2.186901 0.038927
vt 1.061247 0
vt 1.019581 0.032439
vt 1.019581 0
vt -1.019581 0
vt -1.061247 0.032439
vt -1.061247 0
vt -0.052083 -0.006488
vt -0.020833 0.240052
vt -0.0625 -0.006488
vt -0.083333 0.259516
vt -2.186901 0.240052
vt 1.061247 0.032439
vt 0.052083 -0.006488
vt -1.019581 0.032439
vt 0 0.240052
vt -0.104167 -0.006488
vt 0.104167 0.012976
vt 0 0.038927
vt 0 0.012976
vt -0.0625 0.240052
vt 0.052083 0.240428
vt -0.104167 0.240052
vt 0.104167 0.038927
vt 0.104167 0.240052
vt -0.104167 0.038927
vt -0.104167 0.012976
vt 0.104167 -0.006488
vn 0 0 -1
vn 1 0 0
vn 0 -1 0
vn 0 1 0
vn 0 0 1
vn -1 0 0
usemtl material_0_0
f 1/1/1 2/2/1 3/3/1
f 2/2/1 1/1/1 4/4/1
f 5/5/1 3/3/1 2/2/1
f 6/6/2 1/7/2 3/8/2
f 7/9/3 4/10/3 1/11/3
f 2/2/1 4/4/1 8/12/1
f 3/3/1 5/5/1 9/13/1
f 2/14/2 10/15/2 5/16/2
f 1/7/2 6/6/2 7/1/2
f 6/6/2 3/8/2 11/17/2
f 4/10/3 7/9/3 12/18/3
f 8/12/1 4/4/1 13/19/1
f 14/20/3 2/21/3 8/22/3
f 9/13/1 5/5/1 13/19/1
f 15/18/4 3/23/4 9/24/4
f 10/15/2 2/14/2 16/25/2
f 10/26/4 13/27/4 5/28/4
f 17/29/2 7/1/2 6/6/2
f 11/17/2 3/8/2 18/30/2
f 19/31/5 6/32/5 11/33/5
f 7/1/5 20/34/5 12/35/5
f 15/3/6 4/36/6 12/1/6
f 9/13/1 13/19/1 4/4/1
f 13/37/6 14/38/6 8/39/6
f 2/21/3 14/20/3 16/40/3
f 3/23/4 15/18/4 21/9/4
f 4/36/6 15/3/6 9/41/6
f 14/12/1 10/5/1 16/2/1
f 13/27/4 10/26/4 22/42/4
f 7/1/2 17/29/2 21/3/2
f 6/43/4 23/44/4 17/45/4
f 21/3/2 18/30/2 3/8/2
f 18/46/3 19/47/3 11/48/3
f 6/32/5 19/31/5 24/49/5
f 20/34/5 7/1/5 25/50/5
f 12/35/5 20/34/5 26/51/5
f 12/35/5 26/51/5 15/52/5
f 14/38/6 13/37/6 22/53/6
f 25/50/5 21/3/5 15/52/5
f 10/5/1 14/12/1 22/19/1
f 21/3/2 17/29/2 18/30/2
f 21/3/5 25/50/5 7/1/5
f 23/44/4 6/43/4 24/54/4
f 23/55/1 18/33/1 17/32/1
f 19/47/3 18/46/3 27/56/3
f 19/17/2 23/29/2 24/6/2
f 25/57/2 28/58/2 20/32/2
f 28/59/3 26/60/3 20/61/3
f 29/62/5 15/52/5 26/51/5
f 25/50/5 15/52/5 29/62/5
f 18/33/1 23/55/1 27/63/1
f 23/29/2 19/17/2 27/30/2
f 28/58/2 25/57/2 30/64/2
f 26/60/3 28/59/3 31/65/3
f 26/32/6 32/66/6 29/57/6
f 32/67/4 25/61/4 29/60/4
f 25/61/4 32/67/4 30/68/4
f 32/62/5 28/34/5 30/50/5
f 28/34/5 32/62/5 31/51/5
f 32/66/6 26/32/6 31/69/6
usemtl material_1_0
f 3//5 2//5 1//5
f 4//5 1//5 2//5
f 2//5 3//5 5//5
f 3//6 1//6 6//6
f 1//4 4//4 7//4
f 8//5 4//5 2//5
f 9//5 5//5 3//5
f 5//6 10//6 2//6
f 7//6 6//6 1//6
f 11//6 3//6 6//6
f 12//4 7//4 4//4
f 13//5 4//5 8//5
f 8//4 2//4 14//4
f 13//5 5//5 9//5
f 9//3 3//3 15//3
f 16//6 2//6 10//6
f 5//3 13//3 10//3
f 6//6 7//6 17//6
f 18//6 3//6 11//6
f 11//1 6//1 19//1
f 12//1 20//1 7//1
f 12//2 4//2 15//2
f 4//5 13//5 9//5
f 8//2 14//2 13//2
f 16//4 14//4 2//4
f 21//3 15//3 3//3
f 9//2 15//2 4//2
f 16//5 10//5 14//5
f 22//3 10//3 13//3
f 21//6 17//6 7//6
f 17//3 23//3 6//3
f 3//6 18//6 21//6
f 11//4 19//4 18//4
f 24//1 19//1 6//1
f 25//1 7//1 20//1
f 26//1 20//1 12//1
f 15//1 26//1 12//1
f 22//2 13//2 14//2
f 15//1 21//1 25//1
f 22//5 14//5 10//5
f 18//6 17//6 21//6
f 7//1 25//1 21//1
f 24//3 6//3 23//3
f 17//5 18//5 23//5
f 27//4 18//4 19//4
f 24//6 23//6 19//6
f 20//6 28//6 25//6
f 20//4 26//4 28//4
f 26//1 15//1 29//1
f 29//1 15//1 25//1
f 27//5 23//5 18//5
f 27//6 19//6 23//6
f 30//6 25//6 28//6
f 31//4 28//4 26//4
f 29//2 32//2 26//2
f 29//3 25//3 32//3
f 30//3 32//3 25//3
f 30//1 28//1 32//1
f 31//1 32//1 28//1
f 31//2 26//2 32//2
