# Blender v2.76 (sub 0) OBJ File: 'sektion_bottom_two_drawers.blend'
# www.blender.org
o Countertop_Left_Cube.068
v -0.365900 -1.200000 -0.037000
v -0.365900 -1.200000 -0.000000
v -0.365900 -0.000000 -0.037000
v -0.365900 -0.000000 -0.000000
v 0.284100 -1.200000 -0.037000
v 0.284100 -1.200000 -0.000000
v 0.284100 -0.000000 -0.037000
v 0.284100 -0.000000 -0.000000
vn -1.000000 0.000000 0.000000
vn 0.000000 1.000000 0.000000
vn 1.000000 0.000000 0.000000
vn 0.000000 -1.000000 0.000000
vn 0.000000 0.000000 -1.000000
vn 0.000000 0.000000 1.000000
s off
f 2//1 4//1 3//1 1//1
f 4//2 8//2 7//2 3//2
f 8//3 6//3 5//3 7//3
f 6//4 2//4 1//4 5//4
f 1//5 3//5 7//5 5//5
f 6//6 8//6 4//6 2//6
# o Sektion.001
# v -0.346900 -0.743000 -0.780000
# v -0.346900 -0.019000 -0.780000
# v -0.346900 -0.019000 -0.037000
# v -0.346900 -0.743000 -0.037000
# v 0.244100 0.000000 -0.799000
# v 0.244100 -0.762000 -0.799000
# v -0.365900 -0.762000 -0.799000
# v -0.365900 0.000000 -0.799000
# v 0.244100 -0.019000 -0.037000
# v 0.244100 0.000000 -0.037000
# v -0.365900 0.000000 -0.037000
# v -0.365900 -0.762000 -0.037000
# v 0.244100 -0.762000 -0.037000
# v 0.244100 -0.743000 -0.037000
# v 0.244100 -0.743000 -0.780000
# v 0.244100 -0.019000 -0.780000
# v -0.353204 -0.743018 -0.038000
# v -0.353204 -0.743018 -0.036000
# v -0.353204 -0.018958 -0.036000
# v -0.353204 -0.018958 -0.038000
# v -0.326216 -0.018958 -0.036000
# v -0.326216 -0.018958 -0.038000
# v -0.327671 -0.018887 -0.038000
# v -0.327671 -0.018887 -0.036000
# v -0.326216 -0.743018 -0.036000
# v -0.326216 -0.743018 -0.038000
# v -0.351666 -0.743113 -0.036000
# v -0.327754 -0.743113 -0.036000
# v -0.327754 -0.743113 -0.038000
# v -0.351666 -0.743113 -0.038000
# v -0.327754 -0.761979 -0.038000
# v -0.351666 -0.761979 -0.038000
# v -0.327754 -0.761979 -0.036000
# v -0.351666 -0.761979 -0.036000
# v -0.327671 0.000007 -0.038000
# v -0.327671 0.000007 -0.036000
# v -0.351749 -0.018887 -0.038000
# v -0.351749 -0.018887 -0.036000
# v -0.351749 0.000007 -0.038000
# v -0.351749 0.000007 -0.036000
# v 0.210606 -0.743018 -0.038000
# v 0.210606 -0.743018 -0.036000
# v 0.210606 -0.018958 -0.036000
# v 0.210606 -0.018958 -0.038000
# v 0.237594 -0.018958 -0.036000
# v 0.237594 -0.018958 -0.038000
# v 0.236139 -0.018887 -0.038000
# v 0.236139 -0.018887 -0.036000
# v 0.237594 -0.743018 -0.036000
# v 0.237594 -0.743018 -0.038000
# v 0.212144 -0.743113 -0.036000
# v 0.236056 -0.743113 -0.036000
# v 0.236056 -0.743113 -0.038000
# v 0.212144 -0.743113 -0.038000
# v 0.236056 -0.761979 -0.038000
# v 0.212144 -0.761979 -0.038000
# v 0.236056 -0.761979 -0.036000
# v 0.212144 -0.761979 -0.036000
# v 0.236139 0.000007 -0.038000
# v 0.236139 0.000007 -0.036000
# v 0.212061 -0.018887 -0.038000
# v 0.212061 -0.018887 -0.036000
# v 0.212061 0.000007 -0.038000
# v 0.212061 0.000007 -0.036000
# vn 1.000000 0.000000 0.000000
# vn 0.000000 0.000000 -1.000000
# vn 0.000000 0.000000 1.000000
# vn 0.000000 -1.000000 0.000000
# vn -1.000000 0.000000 0.000000
# vn 0.000000 1.000000 0.000000
# vn 0.048800 0.998800 0.000000
# vn 0.061700 -0.998100 0.000000
# vn -0.061700 -0.998100 0.000000
# vn -0.048800 0.998800 0.000000
# s off
# f 9//7 10//7 11//7
# f 9//7 11//7 12//7
# f 13//8 14//8 15//8
# f 13//8 15//8 16//8
# f 17//9 18//9 11//9
# f 11//9 18//9 19//9
# f 11//9 19//9 12//9
# f 12//9 19//9 20//9
# f 12//9 20//9 21//9
# f 12//9 21//9 22//9
# f 23//7 22//7 21//7
# f 23//7 21//7 14//7
# f 23//7 14//7 13//7
# f 23//7 13//7 24//7
# f 17//7 24//7 13//7
# f 17//7 13//7 18//7
# f 14//10 21//10 20//10
# f 14//10 20//10 15//10
# f 15//11 20//11 19//11
# f 15//11 19//11 16//11
# f 18//12 13//12 16//12
# f 18//12 16//12 19//12
# f 24//9 10//9 9//9
# f 24//9 9//9 23//9
# f 11//10 10//10 24//10
# f 11//10 24//10 17//10
# f 23//12 9//12 12//12
# f 23//12 12//12 22//12
# f 25//11 26//11 27//11
# f 25//11 27//11 28//11
# f 29//13 30//13 31//13
# f 29//13 31//13 32//13
# f 30//7 29//7 33//7
# f 30//7 33//7 34//7
# f 33//9 26//9 35//9
# f 33//9 35//9 36//9
# f 28//8 30//8 34//8
# f 28//8 34//8 25//8
# f 29//9 27//9 26//9
# f 29//9 26//9 33//9
# f 34//14 33//14 36//14
# f 34//14 36//14 37//14
# f 26//15 25//15 38//15
# f 26//15 38//15 35//15
# f 25//8 34//8 37//8
# f 25//8 37//8 38//8
# f 38//8 37//8 39//8
# f 38//8 39//8 40//8
# f 39//10 41//10 42//10
# f 39//10 42//10 40//10
# f 35//11 38//11 40//11
# f 35//11 40//11 42//11
# f 36//9 35//9 42//9
# f 36//9 42//9 41//9
# f 37//7 36//7 41//7
# f 37//7 41//7 39//7
# f 32//7 31//7 43//7
# f 32//7 43//7 44//7
# f 30//8 28//8 45//8
# f 30//8 45//8 31//8
# f 27//9 29//9 32//9
# f 27//9 32//9 46//9
# f 28//16 27//16 46//16
# f 28//16 46//16 45//16
# f 47//12 48//12 44//12
# f 47//12 44//12 43//12
# f 31//8 45//8 47//8
# f 31//8 47//8 43//8
# f 46//9 32//9 44//9
# f 46//9 44//9 48//9
# f 45//11 46//11 48//11
# f 45//11 48//11 47//11
# f 49//11 50//11 51//11
# f 49//11 51//11 52//11
# f 53//13 54//13 55//13
# f 53//13 55//13 56//13
# f 54//7 53//7 57//7
# f 54//7 57//7 58//7
# f 57//9 50//9 59//9
# f 57//9 59//9 60//9
# f 52//8 54//8 58//8
# f 52//8 58//8 49//8
# f 53//9 51//9 50//9
# f 53//9 50//9 57//9
# f 58//14 57//14 60//14
# f 58//14 60//14 61//14
# f 50//15 49//15 62//15
# f 50//15 62//15 59//15
# f 49//8 58//8 61//8
# f 49//8 61//8 62//8
# f 62//8 61//8 63//8
# f 62//8 63//8 64//8
# f 63//10 65//10 66//10
# f 63//10 66//10 64//10
# f 59//11 62//11 64//11
# f 59//11 64//11 66//11
# f 60//9 59//9 66//9
# f 60//9 66//9 65//9
# f 61//7 60//7 65//7
# f 61//7 65//7 63//7
# f 56//7 55//7 67//7
# f 56//7 67//7 68//7
# f 54//8 52//8 69//8
# f 54//8 69//8 55//8
# f 51//9 53//9 56//9
# f 51//9 56//9 70//9
# f 52//16 51//16 70//16
# f 52//16 70//16 69//16
# f 71//12 72//12 68//12
# f 71//12 68//12 67//12
# f 55//8 69//8 71//8
# f 55//8 71//8 67//8
# f 70//9 56//9 68//9
# f 70//9 68//9 72//9
# f 69//11 70//11 72//11
# f 69//11 72//11 71//11
