# SSTK version 0.8.0
# 23
mtllib original-23.mtl
o Group16/mesh26/mesh26-geometry#mesh26-geometry
v -0.694465 -0.326145 0.276024
v -0.694536 -0.325609 0.342345
v -0.694465 -0.326145 0.342345
v -0.694536 -0.325609 0.276024
v -0.698601 -0.326145 0.342345
v -0.694536 -0.326680 0.276024
v -0.698531 -0.325609 0.276024
v -0.694742 -0.325111 0.342345
v -0.698531 -0.326680 0.342345
v -0.698531 -0.325609 0.342345
v -0.694536 -0.326680 0.342345
v -0.698601 -0.326145 0.276024
v -0.698324 -0.325111 0.276024
v -0.694742 -0.325111 0.276024
v -0.694742 -0.327179 0.276024
v -0.698531 -0.326680 0.276024
v -0.695071 -0.324682 0.342345
v -0.698324 -0.325111 0.342345
v -0.698324 -0.327179 0.342345
v -0.694742 -0.327179 0.342345
v -0.697995 -0.324682 0.276024
v -0.695071 -0.324682 0.276024
v -0.695071 -0.327607 0.276024
v -0.698324 -0.327179 0.276024
v -0.695499 -0.324354 0.276024
v -0.697995 -0.324682 0.342345
v -0.697995 -0.327607 0.342345
v -0.695071 -0.327607 0.342345
v -0.697567 -0.324354 0.276024
v -0.695499 -0.324354 0.342345
v -0.695499 -0.327935 0.342345
v -0.697995 -0.327607 0.276024
v -0.697567 -0.324354 0.342345
v -0.695998 -0.324147 0.276024
v -0.697068 -0.324147 0.276024
v -0.697567 -0.327935 0.342345
v -0.695499 -0.327935 0.276024
v -0.697068 -0.324147 0.342345
v -0.695998 -0.324147 0.342345
v -0.697567 -0.327935 0.276024
v -0.695998 -0.328142 0.342345
v -0.697068 -0.328142 0.342345
v -0.696533 -0.324077 0.276024
v -0.696533 -0.324077 0.342345
v -0.697068 -0.328142 0.276024
v -0.695998 -0.328142 0.276024
v -0.696533 -0.328213 0.342345
v -0.696533 -0.328213 0.276024
vn 1 0 0
vn 0.9659258492011171 0.2588189595935754 0
vn -1 0 0
vn -0.9659258492011171 -0.2588189595935754 0
vn 0 0 1
vn 0 0 -1
vn 0.9659258492011171 -0.2588189595935754 0
vn -0.9659258492011171 0.2588189595935754 0
vn 0.8660253028382761 0.5000001748438417 0
vn -0.8660253028382761 -0.5000001748438417 0
vn 0.8660253028382761 -0.5000001748438417 0
vn -0.8660253028382761 0.5000001748438417 0
vn 0.7071067811865475 0.7071067811865475 0
vn -0.7071067811865475 -0.7071067811865475 0
vn 0.7071067811865475 -0.7071067811865475 0
vn -0.7071067811865475 0.7071067811865475 0
vn 0.5000001748438417 0.8660253028382761 0
vn -0.5000001748438417 -0.8660253028382761 0
vn 0.5000001748438417 -0.8660253028382761 0
vn -0.5000001748438417 0.8660253028382761 0
vn 0.2588189595935754 0.9659258492011171 0
vn -0.2588189595935754 -0.9659258492011171 0
vn -0.2588189595935754 0.9659258492011171 0
vn 0.2588189595935754 -0.9659258492011171 0
vn 0 1 0
vn 0 -1 0
usemtl material_0_0
f 1//1 2//2 3//1
f 2//2 1//1 4//2
f 3//3 2//4 1//3
f 4//4 1//3 2//4
f 5//5 3//5 2//5
f 2//6 3//6 5//6
f 3//1 6//7 1//1
f 1//3 6//8 3//3
f 1//6 7//6 4//6
f 4//5 7//5 1//5
f 4//2 8//9 2//2
f 2//4 8//10 4//4
f 9//5 3//5 5//5
f 5//6 3//6 9//6
f 5//5 2//5 10//5
f 10//6 2//6 5//6
f 6//7 3//1 11//7
f 11//8 3//3 6//8
f 6//6 12//6 1//6
f 1//5 12//5 6//5
f 1//6 12//6 7//6
f 7//5 12//5 1//5
f 4//6 7//6 13//6
f 13//5 7//5 4//5
f 8//9 4//2 14//9
f 14//10 4//4 8//10
f 10//5 2//5 8//5
f 8//6 2//6 10//6
f 9//5 11//5 3//5
f 3//6 11//6 9//6
f 12//3 9//4 5//3
f 5//1 9//2 12//1
f 7//8 5//3 10//8
f 10//7 5//1 7//7
f 11//7 15//11 6//7
f 6//8 15//12 11//8
f 6//6 16//6 12//6
f 12//5 16//5 6//5
f 5//3 7//8 12//3
f 12//1 7//7 5//1
f 10//8 13//12 7//8
f 7//7 13//11 10//7
f 4//6 13//6 14//6
f 14//5 13//5 4//5
f 14//9 17//13 8//9
f 8//10 17//14 14//10
f 10//5 8//5 18//5
f 18//6 8//6 10//6
f 19//5 11//5 9//5
f 9//6 11//6 19//6
f 9//4 12//3 16//4
f 16//2 12//1 9//2
f 15//11 11//7 20//11
f 20//12 11//8 15//12
f 15//6 16//6 6//6
f 6//5 16//5 15//5
f 13//12 10//8 18//12
f 18//11 10//7 13//11
f 14//6 13//6 21//6
f 21//5 13//5 14//5
f 17//13 14//9 22//13
f 22//14 14//10 17//14
f 18//5 8//5 17//5
f 17//6 8//6 18//6
f 19//5 20//5 11//5
f 11//6 20//6 19//6
f 16//4 19//10 9//4
f 9//2 19//9 16//2
f 20//11 23//15 15//11
f 15//12 23//16 20//12
f 15//6 24//6 16//6
f 16//5 24//5 15//5
f 18//12 21//16 13//12
f 13//11 21//15 18//11
f 14//6 21//6 22//6
f 22//5 21//5 14//5
f 25//17 17//13 22//13
f 22//14 17//14 25//18
f 18//5 17//5 26//5
f 26//6 17//6 18//6
f 27//5 20//5 19//5
f 19//6 20//6 27//6
f 19//10 16//4 24//10
f 24//9 16//2 19//9
f 23//15 20//11 28//15
f 28//16 20//12 23//16
f 23//6 24//6 15//6
f 15//5 24//5 23//5
f 21//16 18//12 26//16
f 26//15 18//11 21//15
f 22//6 21//6 29//6
f 29//5 21//5 22//5
f 17//13 25//17 30//17
f 30//18 25//18 17//14
f 22//6 29//6 25//6
f 25//5 29//5 22//5
f 26//5 17//5 30//5
f 30//6 17//6 26//6
f 27//5 28//5 20//5
f 20//6 28//6 27//6
f 24//10 27//14 19//10
f 19//9 27//13 24//9
f 31//19 23//15 28//15
f 28//16 23//16 31//20
f 23//6 32//6 24//6
f 24//5 32//5 23//5
f 33//20 21//16 26//16
f 26//15 21//15 33//19
f 21//16 33//20 29//20
f 29//19 33//19 21//15
f 34//21 30//17 25//17
f 25//18 30//18 34//22
f 25//6 29//6 35//6
f 35//5 29//5 25//5
f 26//5 30//5 33//5
f 33//6 30//6 26//6
f 36//5 28//5 27//5
f 27//6 28//6 36//6
f 27//14 24//10 32//14
f 32//13 24//9 27//13
f 23//15 31//19 37//19
f 37//20 31//20 23//16
f 36//5 31//5 28//5
f 28//6 31//6 36//6
f 37//6 32//6 23//6
f 23//5 32//5 37//5
f 38//23 29//20 33//20
f 33//19 29//19 38//24
f 30//17 34//21 39//21
f 39//22 34//22 30//18
f 25//6 35//6 34//6
f 34//5 35//5 25//5
f 29//20 38//23 35//23
f 35//24 38//24 29//19
f 33//5 30//5 39//5
f 39//6 30//6 33//6
f 27//14 40//18 36//18
f 36//17 40//17 27//13
f 40//18 27//14 32//14
f 32//13 27//13 40//17
f 41//24 37//19 31//19
f 31//20 37//20 41//23
f 42//5 31//5 36//5
f 36//6 31//6 42//6
f 37//6 40//6 32//6
f 32//5 40//5 37//5
f 33//5 39//5 38//5
f 38//6 39//6 33//6
f 43//25 39//21 34//21
f 34//22 39//22 43//26
f 34//6 35//6 43//6
f 43//5 35//5 34//5
f 44//25 35//23 38//23
f 38//24 35//24 44//26
f 45//22 36//18 40//18
f 40//17 36//17 45//21
f 37//19 41//24 46//24
f 46//23 41//23 37//20
f 42//5 41//5 31//5
f 31//6 41//6 42//6
f 36//18 45//22 42//22
f 42//21 45//21 36//17
f 46//6 40//6 37//6
f 37//5 40//5 46//5
f 38//5 39//5 44//5
f 44//6 39//6 38//6
f 39//21 43//25 44//25
f 44//26 43//26 39//22
f 35//23 44//25 43//25
f 43//26 44//26 35//24
f 46//6 45//6 40//6
f 40//5 45//5 46//5
f 47//26 46//24 41//24
f 41//23 46//23 47//25
f 41//5 42//5 47//5
f 47//6 42//6 41//6
f 48//26 42//22 45//22
f 45//21 42//21 48//25
f 45//6 46//6 48//6
f 48//5 46//5 45//5
f 46//24 47//26 48//26
f 48//25 47//25 46//23
f 42//22 48//26 47//26
f 47//25 48//25 42//21
