# SSTK version 0.8.0
# 86
mtllib original-86.mtl
o mesh82/mesh82-geometry#mesh82-geometry
v -0.172831 0.374021 0.384368
v -0.172981 0.374035 0.384368
v -0.173748 0.373717 0.384368
v -0.172497 0.374098 0.384368
vt -0.026629 0.012263
vt -0.026488 0.01225
vt -0.025768 0.012548
vt -0.026943 0.01219
vn 0.0000269999999240085 -0.00006999999980342908 0.9999999971855
vn -0.0000269999999240085 0.00006999999980342908 -0.9999999971855
usemtl material_0_0
f 1/1/1 2/2/1 3/3/1
f 2/2/1 1/1/1 4/4/1
f 3/3/2 2/2/2 1/1/2
f 4/4/2 1/1/2 2/2/2
