# SSTK version 0.8.0
# 7
mtllib original-7.mtl
o drawer_back1/drawer_back/mesh10/mesh10-geometry#mesh10-geometry
v -0.002446 -0.013928 -0.134615
v -0.497279 -0.013928 -0.119389
v -0.497279 -0.013928 -0.134615
v -0.002446 -0.013928 -0.119389
v -0.497279 0.069813 -0.134615
v -0.002446 0.069813 -0.119389
v -0.497279 0.069813 -0.119389
v -0.002446 0.069813 -0.134615
vt -2.708333 0.051903
vt 0 0
vt 0 0.051903
vt -2.708333 0
vt -0.083333 0.285467
vt -0.083333 0
vt 0 0.285467
vt 0.083333 0
vt 2.708333 0.285467
vt 2.708333 0
vt -2.708333 0.285467
vt 0.083333 0.285467
vt 2.708333 0.051903
vn 0 -1 0
vn -1 0 0
vn 0 0 -1
vn 1 0 0
vn 0 0 1
vn 0 1 0
usemtl material_0_0
f 1/1/1 2/2/1 3/3/1
f 2/2/1 1/1/1 4/4/1
f 2/2/2 5/5/2 3/6/2
f 5/7/3 1/4/3 3/2/3
f 1/8/4 6/7/4 4/2/4
f 6/9/5 2/2/5 4/10/5
f 5/5/2 2/2/2 7/7/2
f 1/4/3 5/7/3 8/11/3
f 6/7/4 1/8/4 8/12/4
f 2/2/5 6/9/5 7/7/5
f 6/10/6 5/3/6 7/2/6
f 5/3/6 6/10/6 8/13/6
usemtl material_1_0
f 3//6 2//6 1//6
f 4//6 1//6 2//6
f 3//4 5//4 2//4
f 3//5 1//5 5//5
f 4//2 6//2 1//2
f 4//3 2//3 6//3
f 7//4 2//4 5//4
f 8//5 5//5 1//5
f 8//2 1//2 6//2
f 7//3 6//3 2//3
f 7//1 5//1 6//1
f 8//1 6//1 5//1
