# SSTK version 0.8.0
# 28
mtllib original-28.mtl
o center_drawer_divider1/center_drawer_divider/mesh61/mesh61-geometry#mesh61-geometry
v 0.035618 0.073619 0.242219
v 0.008973 0.073619 0.234607
v 0.008973 0.073619 0.242219
v 0.035618 0.073619 0.234607
v 0.008973 -0.032960 0.242219
v 0.035618 -0.032960 0.234607
v 0.035618 0.088845 0.234607
v 0.008973 -0.032960 0.234607
v 0.035618 -0.032960 0.242219
v 0.035618 -0.048186 0.226994
v 0.008973 0.088845 0.234607
v 0.008973 0.088845 0.226994
v 0.035618 -0.048186 0.234607
v 0.035618 0.088845 0.226994
v 0.008973 -0.048186 0.234607
v 0.035618 -0.032960 0.226994
v 0.008973 -0.048186 0.226994
v 0.035618 0.073619 0.226994
v 0.008973 -0.032960 0.226994
v 0.008973 0.073619 0.226994
v 0.035618 -0.032960 0.219381
v 0.008973 0.073619 0.219381
v 0.008973 -0.032960 0.219381
v 0.035618 0.073619 0.219381
vt 0.0875 0
vt 0 0.025
vt 0 0
vt 0.0875 0.025
vt -0.025 0.4
vt 0 0.05
vt 0 0.4
vt 0.0875 0.4
vt 0.025 0.05
vt 0.025 0.4
vt 0.0875 0.45
vt -0.025 0.05
vt 0.0875 0.05
vt 0.05 0
vt 0 0.45
vt 0.025 0.45
vt -0.05 0.45
vt -0.0875 0.025
vt -0.0875 0
vt 0.025 0
vt -0.025 0.45
vt 0.05 0.45
vt -0.025 0
vt -0.0875 0.05
vt 0.05 0.05
vt -0.05 0
vt -0.0875 0.4
vt -0.0875 0.45
vt 0.05 0.4
vt -0.05 0.4
vt -0.0875 0.075
vt 0.075 0.05
vt -0.05 0.05
vt 0 0.075
vt 0.075 0.4
vt -0.075 0.4
vt 0.0875 0.075
vt -0.075 0.05
vn 0 1 0
vn 0 -1 0
vn -1 0 0
vn 1 0 0
vn 0 0 1
vn 0 0 -1
usemtl material_0_0
f 1/1/1 2/2/1 3/3/1
f 2/2/1 1/1/1 4/4/1
f 3/3/2 2/2/2 1/1/2
f 4/4/2 1/1/2 2/2/2
f 2/5/3 5/6/3 3/7/3
f 3/7/4 5/6/4 2/5/4
f 5/6/5 1/8/5 3/7/5
f 3/7/6 1/8/6 5/6/6
f 1/7/4 6/9/4 4/10/4
f 4/10/3 6/9/3 1/7/3
f 7/11/5 2/7/5 4/8/5
f 4/8/6 2/7/6 7/11/6
f 5/6/3 2/5/3 8/12/3
f 8/12/4 2/5/4 5/6/4
f 1/8/5 5/6/5 9/13/5
f 9/13/6 5/6/6 1/8/6
f 6/9/4 1/7/4 9/6/4
f 9/6/3 1/7/3 6/9/3
f 6/9/4 10/14/4 4/10/4
f 4/10/3 10/14/3 6/9/3
f 2/7/5 7/11/5 11/15/5
f 11/15/6 7/11/6 2/7/6
f 4/10/4 10/14/4 7/16/4
f 7/16/3 10/14/3 4/10/3
f 2/5/3 12/17/3 8/12/3
f 8/12/4 12/17/4 2/5/4
f 6/18/2 5/3/2 8/2/2
f 8/2/1 5/3/1 6/18/1
f 5/3/2 6/18/2 9/19/2
f 9/19/1 6/18/1 5/3/1
f 10/14/4 6/9/4 13/20/4
f 13/20/3 6/9/3 10/14/3
f 7/4/1 12/6/1 11/2/1
f 11/2/2 12/6/2 7/4/2
f 12/17/3 2/5/3 11/21/3
f 11/21/4 2/5/4 12/17/4
f 7/16/4 10/14/4 14/22/4
f 14/22/3 10/14/3 7/16/3
f 8/12/3 12/17/3 15/23/3
f 15/23/4 12/17/4 8/12/4
f 15/3/5 6/13/5 8/6/5
f 8/6/6 6/13/6 15/3/6
f 6/13/5 15/3/5 13/1/5
f 13/1/6 15/3/6 6/13/6
f 15/2/2 10/24/2 13/18/2
f 13/18/1 10/24/1 15/2/1
f 12/6/1 7/4/1 14/13/1
f 14/13/2 7/4/2 12/6/2
f 14/22/4 10/14/4 16/25/4
f 16/25/3 10/14/3 14/22/3
f 15/23/3 12/17/3 17/26/3
f 17/26/4 12/17/4 15/23/4
f 10/24/2 15/2/2 17/6/2
f 17/6/1 15/2/1 10/24/1
f 18/27/6 12/15/6 14/28/6
f 14/28/5 12/15/5 18/27/5
f 10/19/6 19/6/6 16/24/6
f 16/24/5 19/6/5 10/19/5
f 14/22/4 16/25/4 18/29/4
f 18/29/3 16/25/3 14/22/3
f 17/26/3 12/17/3 20/30/3
f 20/30/4 12/17/4 17/26/4
f 19/6/6 10/19/6 17/3/6
f 17/3/5 10/19/5 19/6/5
f 12/15/6 18/27/6 20/7/6
f 20/7/5 18/27/5 12/15/5
f 19/6/2 21/31/2 16/24/2
f 16/24/1 21/31/1 19/6/1
f 21/32/4 18/29/4 16/25/4
f 16/25/3 18/29/3 21/32/3
f 17/26/3 20/30/3 19/33/3
f 19/33/4 20/30/4 17/26/4
f 18/13/1 22/34/1 20/6/1
f 20/6/2 22/34/2 18/13/2
f 21/31/2 19/6/2 23/34/2
f 23/34/1 19/6/1 21/31/1
f 18/29/4 21/32/4 24/35/4
f 24/35/3 21/32/3 18/29/3
f 22/36/3 19/33/3 20/30/3
f 20/30/4 19/33/4 22/36/4
f 22/34/1 18/13/1 24/37/1
f 24/37/2 18/13/2 22/34/2
f 19/33/3 22/36/3 23/38/3
f 23/38/4 22/36/4 19/33/4
f 22/7/6 21/24/6 23/6/6
f 23/6/5 21/24/5 22/7/5
f 21/24/6 22/7/6 24/27/6
f 24/27/5 22/7/5 21/24/5
