# SSTK version 0.8.0
# 21
mtllib original-21.mtl
o side_apron1/side_apron/mesh26/mesh26-geometry#mesh26-geometry
v -0.542956 0.111683 0.211768
v -0.554375 0.111683 -0.206936
v -0.554375 0.111683 0.211768
v -0.542956 0.111683 0.192736
v -0.554375 -0.055799 0.192736
v -0.554375 -0.055799 0.211768
v -0.542956 -0.055799 0.192736
v -0.542956 0.111683 -0.187904
v -0.554375 -0.071024 0.192736
v -0.542956 -0.055799 0.211768
v -0.531537 0.111683 0.192736
v -0.542956 0.111683 -0.206936
v -0.554375 -0.055799 -0.187904
v -0.531537 -0.071024 0.192736
v -0.542956 -0.055799 -0.187904
v -0.542956 -0.055799 -0.206936
v -0.531537 0.111683 -0.187904
v -0.554375 -0.055799 -0.206936
v -0.554375 -0.071024 -0.187904
v -0.531537 -0.048186 -0.119389
v -0.531537 0.088845 -0.119389
v -0.531537 -0.071024 -0.187904
v -0.531537 0.088845 -0.180291
v -0.531537 -0.048186 -0.180291
v -0.531537 -0.040573 -0.119389
v -0.542956 0.088845 -0.119389
v -0.531537 -0.040573 -0.180291
v -0.542956 -0.048186 -0.180291
v -0.542956 -0.040573 -0.119389
v -0.531537 0.081232 -0.119389
v -0.531537 0.081232 -0.180291
v -0.542956 0.088845 -0.180291
v -0.542956 -0.048186 -0.119389
v -0.542956 0.081232 -0.180291
v -0.542956 0.081232 -0.119389
v -0.542956 -0.040573 -0.180291
vt 0.0375 0.0125
vt 0 1.3875
vt 0 0.0125
vt 0.0375 0.075
vt -0.075 0.05
vt -0.0125 0.6
vt -1.3875 0.6
vt 0 0.05
vt 0.0375 0.6
vt 0 0.6
vt 0.0125 0.6
vt 0.075 0.05
vt 0.075 0.6
vt 0.0375 1.325
vt -0.0125 0.05
vt -0.075 0
vt 0.0375 0.05
vt 0.0125 0.05
vt 0.0375 1.3875
vt 0.075 0.075
vt -0.0375 0.075
vt 0 0.075
vt -1.325 0.05
vt 0 0
vt -0.0375 0.0125
vt 0.075 0
vt 1.325 0.05
vt 1.3875 0.6
vt 1.325 0.6
vt -0.0375 0.05
vt -0.0375 0.6
vt 0.075 1.325
vt -1.3875 0.05
vt -1.325 0
vt 1.1 0.075
vt 1.3875 0.05
vt -0.075 0.6
vt 1.1 0.525
vt -0.0375 1.3875
vt 0 1.325
vt -0.075 0.075
vt 1.325 0
vt -0.0375 1.325
vt 1.3 0.525
vt -0.075 1.325
vt 1.3 0.075
vt 1.1 0.1
vt -0.0375 1.1
vt -0.075 1.3
vt -0.075 1.1
vt 1.3 0.1
vt 0.0375 1.3
vt 0.075 1.1
vt 0.075 1.3
vt -0.0375 0.1
vt -0.075 0.1
vt 1.1 0.5
vt 1.3 0.5
vt -0.0375 1.3
vt -0.075 0.5
vt -0.0375 0.525
vt -0.075 0.525
vt 0.075 0.1
vt 0.0375 1.1
vt 0.075 0.525
vt 0.0375 0.5
vt 0.075 0.5
vt 0.0375 0.525
vt -0.0375 0.5
vt 0.0375 0.1
vn 0 1 0
vn 0 -1 0
vn -1 0 0
vn 1 0 0
vn 0 0 1
vn 0 0 -1
usemtl material_0_0
f 1/1/1 2/2/1 3/3/1
f 2/2/1 1/1/1 4/4/1
f 3/3/2 2/2/2 1/1/2
f 4/4/2 1/1/2 2/2/2
f 5/5/3 3/6/3 2/7/3
f 2/7/4 3/6/4 5/5/4
f 6/8/5 1/9/5 3/10/5
f 3/10/6 1/9/6 6/8/6
f 1/11/4 7/12/4 4/13/4
f 4/13/3 7/12/3 1/11/3
f 8/14/1 2/2/1 4/4/1
f 4/4/2 2/2/2 8/14/2
f 3/6/3 5/5/3 6/15/3
f 6/15/4 5/5/4 3/6/4
f 5/5/3 2/7/3 9/16/3
f 9/16/4 2/7/4 5/5/4
f 1/9/5 6/8/5 10/17/5
f 10/17/6 6/8/6 1/9/6
f 7/12/4 1/11/4 10/18/4
f 10/18/3 1/11/3 7/12/3
f 7/17/5 11/13/5 4/9/5
f 4/9/6 11/13/6 7/17/6
f 2/2/1 8/14/1 12/19/1
f 12/19/2 8/14/2 2/2/2
f 11/20/1 8/14/1 4/4/1
f 4/4/2 8/14/2 11/20/2
f 7/21/2 6/3/2 5/22/2
f 5/22/1 6/3/1 7/21/1
f 9/16/3 2/7/3 13/23/3
f 13/23/4 2/7/4 9/16/4
f 5/8/5 9/24/5 7/17/5
f 7/17/6 9/24/6 5/8/6
f 6/3/2 7/21/2 10/25/2
f 10/25/1 7/21/1 6/3/1
f 7/17/5 14/26/5 11/13/5
f 11/13/6 14/26/6 7/17/6
f 15/27/4 12/28/4 8/29/4
f 8/29/3 12/28/3 15/27/3
f 16/30/6 2/10/6 12/31/6
f 12/31/5 2/10/5 16/30/5
f 8/14/1 11/20/1 17/32/1
f 17/32/2 11/20/2 8/14/2
f 13/23/3 2/7/3 18/33/3
f 18/33/4 2/7/4 13/23/4
f 19/34/3 9/16/3 13/23/3
f 13/23/4 9/16/4 19/34/4
f 14/26/5 7/17/5 9/24/5
f 9/24/6 7/17/6 14/26/6
f 14/26/4 20/35/4 11/13/4
f 11/13/3 20/35/3 14/26/3
f 12/28/4 15/27/4 16/36/4
f 16/36/3 15/27/3 12/28/3
f 17/37/6 15/30/6 8/31/6
f 8/31/5 15/30/5 17/37/5
f 2/10/6 16/30/6 18/8/6
f 18/8/5 16/30/5 2/10/5
f 11/13/4 21/38/4 17/29/4
f 17/29/3 21/38/3 11/13/3
f 16/39/2 13/40/2 18/2/2
f 18/2/1 13/40/1 16/39/1
f 19/40/2 14/41/2 9/22/2
f 9/22/1 14/41/1 19/40/1
f 13/8/6 22/16/6 19/24/6
f 19/24/5 22/16/5 13/8/5
f 20/35/4 14/26/4 22/42/4
f 22/42/3 14/26/3 20/35/3
f 21/38/4 11/13/4 20/35/4
f 20/35/3 11/13/3 21/38/3
f 13/40/2 16/39/2 15/43/2
f 15/43/1 16/39/1 13/40/1
f 22/16/6 15/30/6 17/37/6
f 17/37/5 15/30/5 22/16/5
f 17/29/4 21/38/4 23/44/4
f 23/44/3 21/38/3 17/29/3
f 14/41/2 19/40/2 22/45/2
f 22/45/1 19/40/1 14/41/1
f 22/16/6 13/8/6 15/30/6
f 15/30/5 13/8/5 22/16/5
f 20/35/4 22/42/4 24/46/4
f 24/46/3 22/42/3 20/35/3
f 21/38/4 20/35/4 25/47/4
f 25/47/3 20/35/3 21/38/3
f 17/29/4 23/44/4 22/42/4
f 22/42/3 23/44/3 17/29/3
f 26/48/2 23/49/2 21/50/2
f 21/50/1 23/49/1 26/48/1
f 24/46/4 22/42/4 27/51/4
f 27/51/3 22/42/3 24/46/3
f 28/52/1 20/53/1 24/54/1
f 24/54/2 20/53/2 28/52/2
f 20/41/6 29/55/6 25/56/6
f 25/56/5 29/55/5 20/41/5
f 21/38/4 25/47/4 30/57/4
f 30/57/3 25/47/3 21/38/3
f 31/58/4 22/42/4 23/44/4
f 23/44/3 22/42/3 31/58/3
f 23/49/2 26/48/2 32/59/2
f 32/59/1 26/48/1 23/49/1
f 30/60/6 26/61/6 21/62/6
f 21/62/5 26/61/5 30/60/5
f 27/51/4 22/42/4 31/58/4
f 31/58/3 22/42/3 27/51/3
f 27/63/5 28/4/5 24/20/5
f 24/20/6 28/4/6 27/63/6
f 20/53/1 28/52/1 33/64/1
f 33/64/2 28/52/2 20/53/2
f 29/55/6 20/41/6 33/21/6
f 33/21/5 20/41/5 29/55/5
f 29/48/2 27/49/2 25/50/2
f 25/50/1 27/49/1 29/48/1
f 27/51/4 30/57/4 25/47/4
f 25/47/3 30/57/3 27/51/3
f 23/65/5 34/66/5 31/67/5
f 31/67/6 34/66/6 23/65/6
f 26/38/4 34/58/4 32/44/4
f 32/44/3 34/58/3 26/38/3
f 34/66/5 23/65/5 32/68/5
f 32/68/6 23/65/6 34/66/6
f 26/61/6 30/60/6 35/69/6
f 35/69/5 30/60/5 26/61/5
f 30/57/4 27/51/4 31/58/4
f 31/58/3 27/51/3 30/57/3
f 28/4/5 27/63/5 36/70/5
f 36/70/6 27/63/6 28/4/6
f 28/46/4 29/47/4 33/35/4
f 33/35/3 29/47/3 28/46/3
f 27/49/2 29/48/2 36/59/2
f 36/59/1 29/48/1 27/49/1
f 34/52/1 30/53/1 31/54/1
f 31/54/2 30/53/2 34/52/2
f 34/58/4 26/38/4 35/57/4
f 35/57/3 26/38/3 34/58/3
f 30/53/1 34/52/1 35/64/1
f 35/64/2 34/52/2 30/53/2
f 29/47/4 28/46/4 36/51/4
f 36/51/3 28/46/3 29/47/3
