# SSTK version 0.8.0
# 30
mtllib original-30.mtl
o outter_drawer_rails1/outter_drawer_rails/mesh64/mesh64-geometry#mesh64-geometry
v -0.470634 -0.032960 0.219381
v -0.508698 -0.032960 -0.119389
v -0.508698 -0.032960 0.219381
v -0.470634 -0.032960 -0.119389
v -0.508698 -0.055799 0.219381
v -0.501085 -0.040573 0.219381
v -0.470634 -0.055799 -0.119389
v -0.470634 -0.040573 -0.119389
v -0.508698 -0.055799 -0.119389
v -0.501085 -0.048186 0.219381
v -0.470634 -0.040573 0.219381
v -0.470634 -0.048186 -0.119389
v -0.508698 -0.040573 -0.119389
v -0.470634 -0.055799 0.219381
v -0.470634 -0.048186 0.219381
v -0.501085 -0.048186 0.230800
v -0.470634 -0.040573 0.230800
v -0.508698 -0.048186 -0.119389
v -0.508698 -0.040573 -0.130808
v -0.470634 -0.048186 -0.130808
v -0.501085 -0.040573 0.230800
v -0.470634 -0.040573 -0.130808
v -0.470634 -0.048186 0.230800
v -0.508698 -0.048186 -0.130808
vt 7.3756 0.250084
vt 7.56145 -0.382353
vt 7.56145 0.250084
vt 7.3756 -0.382353
vt 7.67296 0.250084
vt 7.52428 0.264296
vt 7.26409 -0.382353
vt 7.56145 -0.368141
vt 7.3756 -0.368141
vt 7.67296 -0.382353
vt 7.56145 0.29272
vt 7.52428 0.278508
vt 7.3756 0.264296
vt 7.33843 0.250084
vt 7.30126 -0.382353
vt 7.33843 -0.382353
vt 7.59862 -0.382353
vt 8.434944 -1.050319
vt 8.620793 -0.417883
vt 8.434943 -0.417883
vt 7.3756 0.278508
vt 7.56145 0.271402
vt 7.52428 0.250084
vt 7.3756 0.271402
vt 7.30126 0.250084
vt 8.620794 -1.050319
vt 8.434944 -1.064532
vt 8.620794 -1.064532
vt 7.56145 -0.403671
vt 7.30126 -0.403671
vt 7.63579 -0.382353
vt 7.3756 0.29272
vt 8.620795 0.250084
vt 8.472115 0.271402
vt 8.472115 0.250084
vt 7.52428 0.271402
vt 7.33843 0.271402
vt 7.26409 0.250084
vt 8.620794 -1.08585
vt 7.3756 -0.403671
vt 7.59862 -0.403671
vt 7.33843 -0.403671
vt 8.620795 0.271402
vt 7.52428 0.285614
vt 7.30126 0.271402
vt 8.434944 -1.08585
vt 7.3756 -0.417883
vt 7.63579 -0.403671
vt 7.3756 0.285614
vt 7.56145 -0.417883
vn 0 1 0
vn -1 0 0
vn 0 0 1
vn 1 0 0
vn 0 0 -1
vn 0 -1 0
usemtl material_0_0
f 1/1/1 2/2/1 3/3/1
f 2/2/1 1/1/1 4/4/1
f 2/2/2 5/5/2 3/3/2
f 3/3/3 6/6/3 1/1/3
f 1/1/4 7/7/4 4/4/4
f 8/4/5 2/8/5 4/9/5
f 5/5/2 2/2/2 9/10/2
f 5/11/3 10/12/3 3/3/3
f 3/3/3 10/12/3 6/6/3
f 1/1/3 6/6/3 11/13/3
f 11/14/4 7/7/4 1/1/4
f 4/4/4 7/7/4 12/15/4
f 2/8/5 8/4/5 13/2/5
f 4/4/4 12/15/4 8/16/4
f 9/10/2 2/2/2 13/17/2
f 9/18/6 14/19/6 5/20/6
f 5/11/3 15/21/3 10/12/3
f 16/22/2 6/23/2 10/3/2
f 6/23/1 17/24/1 11/1/1
f 15/25/4 7/7/4 11/14/4
f 7/26/5 18/27/5 12/28/5
f 8/4/1 19/29/1 13/2/1
f 20/30/4 8/16/4 12/15/4
f 9/10/2 13/17/2 18/31/2
f 14/19/6 9/18/6 7/26/6
f 15/21/3 5/11/3 14/32/3
f 15/33/6 16/34/6 10/35/6
f 6/23/2 16/22/2 21/36/2
f 17/24/1 6/23/1 21/36/1
f 17/37/4 15/25/4 11/14/4
f 7/7/4 15/25/4 14/38/4
f 18/27/5 7/26/5 9/18/5
f 18/27/6 20/39/6 12/28/6
f 19/29/1 8/4/1 22/40/1
f 19/41/2 18/31/2 13/17/2
f 8/16/4 20/30/4 22/42/4
f 16/34/6 15/33/6 23/43/6
f 16/44/3 17/24/3 21/36/3
f 15/25/4 17/37/4 23/45/4
f 20/39/6 18/27/6 24/46/6
f 20/47/5 19/29/5 22/40/5
f 18/31/2 19/41/2 24/48/2
f 17/24/3 16/44/3 23/49/3
f 19/29/5 20/47/5 24/50/5
usemtl material_1_0
f 3//6 2//6 1//6
f 4//6 1//6 2//6
f 3//4 5//4 2//4
f 1//5 6//5 3//5
f 4//2 7//2 1//2
f 4//3 2//3 8//3
f 9//4 2//4 5//4
f 3//5 10//5 5//5
f 6//5 10//5 3//5
f 11//5 6//5 1//5
f 1//2 7//2 11//2
f 12//2 7//2 4//2
f 13//3 8//3 2//3
f 8//2 12//2 4//2
f 13//4 2//4 9//4
f 5//1 14//1 9//1
f 10//5 15//5 5//5
f 10//4 6//4 16//4
f 11//6 17//6 6//6
f 11//2 7//2 15//2
f 12//3 18//3 7//3
f 13//6 19//6 8//6
f 12//2 8//2 20//2
f 18//4 13//4 9//4
f 7//1 9//1 14//1
f 14//5 5//5 15//5
f 10//1 16//1 15//1
f 21//4 16//4 6//4
f 21//6 6//6 17//6
f 11//2 15//2 17//2
f 14//2 15//2 7//2
f 9//3 7//3 18//3
f 12//1 20//1 18//1
f 22//6 8//6 19//6
f 13//4 18//4 19//4
f 22//2 20//2 8//2
f 23//1 15//1 16//1
f 21//5 17//5 16//5
f 23//2 17//2 15//2
f 24//1 18//1 20//1
f 22//3 19//3 20//3
f 24//4 19//4 18//4
f 23//5 16//5 17//5
f 24//3 20//3 19//3
