# SSTK version 0.8.0
# 7
mtllib original-7.mtl
o mesh6/mesh6-geometry#mesh6-geometry
v 0.491983 0.704291 0.353861
v 0.491983 0.702177 0.353861
v 0.491891 0.703234 0.353861
v 0.492261 0.705249 0.353861
v 0.491891 0.703234 0.359089
v 0.491983 0.704291 0.359089
v 0.492261 0.705249 0.359089
v 0.492261 0.701222 0.353861
v 0.491983 0.702177 0.359089
v 0.492725 0.706108 0.359089
v 0.492725 0.706108 0.353861
v 0.492261 0.701222 0.359089
v 0.492725 0.700366 0.359089
v 0.492725 0.700366 0.353861
v 0.493374 0.706869 0.359089
v 0.493374 0.699611 0.359089
v 0.493374 0.706869 0.353861
v 0.493374 0.699611 0.353861
v 0.494168 0.707491 0.353861
v 0.493641 0.703039 0.359089
v 0.494155 0.698994 0.359089
v 0.493641 0.703039 0.353861
v 0.494168 0.707491 0.359089
v 0.493872 0.705112 0.353861
v 0.493872 0.705112 0.359089
v 0.494155 0.698994 0.353861
v 0.495067 0.707936 0.353861
v 0.494161 0.705934 0.353861
v 0.493878 0.701231 0.359089
v 0.495015 0.698553 0.359089
v 0.493878 0.701231 0.353861
v 0.494161 0.705934 0.359089
v 0.495067 0.707936 0.359089
v 0.494565 0.706614 0.353861
v 0.494590 0.699842 0.359089
v 0.495015 0.698553 0.353861
v 0.494590 0.699842 0.353861
v 0.494565 0.706614 0.359089
v 0.496071 0.708203 0.353861
v 0.495071 0.707146 0.353861
v 0.495954 0.698288 0.359089
v 0.495100 0.699326 0.359089
v 0.495071 0.707146 0.359089
v 0.496071 0.708203 0.359089
v 0.495100 0.699326 0.353861
v 0.495954 0.698288 0.353861
v 0.497179 0.708292 0.353861
v 0.495663 0.707526 0.353861
v 0.496973 0.698200 0.359089
v 0.495684 0.698957 0.359089
v 0.495663 0.707526 0.359089
v 0.497179 0.708292 0.359089
v 0.496341 0.707754 0.353861
v 0.495684 0.698957 0.353861
v 0.496973 0.698200 0.353861
v 0.496340 0.698736 0.359089
v 0.496341 0.707754 0.359089
v 0.498285 0.708198 0.353861
v 0.497106 0.707830 0.353861
v 0.496340 0.698736 0.353861
v 0.498100 0.698290 0.359089
v 0.497070 0.698662 0.359089
v 0.497106 0.707830 0.359089
v 0.498285 0.708198 0.359089
v 0.497873 0.707750 0.353861
v 0.497070 0.698662 0.353861
v 0.498100 0.698290 0.353861
v 0.497873 0.707750 0.359089
v 0.499280 0.707918 0.353861
v 0.498556 0.707510 0.353861
v 0.499122 0.698559 0.359089
v 0.497803 0.698740 0.359089
v 0.497803 0.698740 0.353861
v 0.498556 0.707510 0.359089
v 0.499280 0.707918 0.359089
v 0.499122 0.698559 0.353861
v 0.498471 0.698972 0.359089
v 0.500163 0.707450 0.353861
v 0.499156 0.707111 0.353861
v 0.499156 0.707111 0.359089
v 0.498471 0.698972 0.353861
v 0.500039 0.699007 0.359089
v 0.499074 0.699360 0.359089
v 0.500163 0.707450 0.359089
v 0.499672 0.706553 0.353861
v 0.499074 0.699360 0.353861
v 0.500039 0.699007 0.353861
v 0.499611 0.699902 0.359089
v 0.499672 0.706553 0.359089
v 0.500936 0.706796 0.353861
v 0.500383 0.705079 0.353861
v 0.499611 0.699902 0.353861
v 0.500851 0.699635 0.359089
v 0.500053 0.700574 0.359089
v 0.500383 0.705079 0.359089
v 0.500936 0.706796 0.359089
v 0.500053 0.700574 0.353861
v 0.500851 0.699635 0.353861
v 0.501564 0.706010 0.359089
v 0.500620 0.703209 0.353861
v 0.501516 0.700395 0.353861
v 0.500368 0.701349 0.359089
v 0.500620 0.703209 0.359089
v 0.501564 0.706010 0.353861
v 0.501516 0.700395 0.359089
v 0.500368 0.701349 0.353861
v 0.502012 0.705146 0.359089
v 0.501991 0.701240 0.359089
v 0.501991 0.701240 0.353861
v 0.502012 0.705146 0.353861
v 0.502281 0.704204 0.359089
v 0.502276 0.702170 0.359089
v 0.502276 0.702170 0.353861
v 0.502281 0.704204 0.353861
v 0.502371 0.703185 0.359089
v 0.502371 0.703185 0.353861
vn 0 0 -1
vn 0 0 1
vn -0.9828750962460828 -0.1842730180445676 0
vn -1 -0.00003099999998510451 0
vn 1 0.00003099999998510451 0
vn 0.9828750962460828 0.1842730180445676 0
vn -0.9829395475328803 0.18392891533376923 0
vn 0.9829395475328803 -0.18392891533376923 0
vn -0.9254577270062063 0.37885088824563434 0
vn 0.9254577270062063 -0.37885088824563434 0
vn -0.8250689934881431 0.565031995540485 0
vn 0.8250689934881431 -0.565031995540485 0
vn -0.9249848657657436 -0.3800039448536416 0
vn 0.9249848657657436 0.3800039448536416 0
vn -0.6922560073932942 0.7216520077072435 0
vn 0.6922560073932942 -0.7216520077072435 0
vn -0.8235629112223937 -0.5672249388548566 0
vn 0.8235629112223937 0.5672249388548566 0
vn -0.6923759419287012 -0.7215369394828955 0
vn 0.6923759419287012 0.7215369394828955 0
vn -0.5328731033363608 0.8461951640967207 0
vn 0.5328731033363608 -0.8461951640967207 0
vn -0.5404883287940139 -0.8413515118174176 0
vn 0.5404883287940139 0.8413515118174176 0
vn -0.35178286107868906 0.9360816303353526 0
vn 0.35178286107868906 -0.9360816303353526 0
vn 0.9999530992783484 0.009685000961555997 0
vn 0.9749363244822613 -0.2224840740480518 0
vn -0.9749363244822613 0.2224840740480518 0
vn -0.9999530992783484 -0.009685000961555997 0
vn -0.36531498708958593 -0.9308839671020958 0
vn 0.36531498708958593 0.9308839671020958 0
vn 0.9059119977805157 -0.4234659989625083 0
vn -0.9059119977805157 0.4234659989625083 0
vn 0.9548062023821764 0.2972290630011247 0
vn -0.9548062023821764 -0.2972290630011247 0
vn -0.1690469984893115 0.9856079911921143 0
vn 0.1690469984893115 -0.9856079911921143 0
vn 0.7971246732387353 -0.6038147524812884 0
vn -0.7971246732387353 0.6038147524812884 0
vn 0.8099537188845518 0.5864937964421144 0
vn -0.8099537188845518 -0.5864937964421144 0
vn -0.17942300350655352 -0.9837720192263486 0
vn 0.17942300350655352 0.9837720192263486 0
vn 0.6371756712375094 -0.7707186023335815 0
vn -0.6371756712375094 0.7707186023335815 0
vn 0.6263988013658396 0.7795027528158186 0
vn -0.6263988013658396 -0.7795027528158186 0
vn 0.002156999296114084 0.9999976736743125 0
vn -0.002156999296114084 -0.9999976736743125 0
vn -0.0034749998685390192 -0.999993962169729 0
vn 0.0034749998685390192 0.999993962169729 0
vn 0.432588279230417 -0.9015915819662841 0
vn -0.432588279230417 0.9015915819662841 0
vn 0.4296178943043446 0.9030107778390583 0
vn -0.4296178943043446 -0.9030107778390583 0
vn 0.17858605382834494 0.9839242965686027 0
vn -0.17858605382834494 -0.9839242965686027 0
vn 0.2099659359775115 -0.9777087018785745 0
vn -0.2099659359775115 0.9777087018785745 0
vn 0.16758493896649806 -0.9858576409561348 0
vn -0.16758493896649806 0.9858576409561348 0
vn 0.211182905253022 0.977446561469676 0
vn -0.211182905253022 -0.977446561469676 0
vn -0.0023550005345451468 -0.9999972269823963 0
vn 0.0023550005345451468 0.9999972269823963 0
vn -0.002304000796694813 0.9999973457866418 0
vn 0.002304000796694813 -0.9999973457866418 0
vn 0.3714729162579412 0.9284437906986187 0
vn -0.3714729162579412 -0.9284437906986187 0
vn -0.2185759846804469 -0.975819931606735 0
vn 0.2185759846804469 0.975819931606735 0
vn 0.3485370074248839 -0.937295019967196 0
vn -0.3485370074248839 0.937295019967196 0
vn -0.21837995950187702 0.9758638190280233 0
vn 0.21837995950187702 -0.9758638190280233 0
vn -0.445805041253686 -0.895130082833104 0
vn 0.445805041253686 0.895130082833104 0
vn 0.5600731205339093 0.828443178290104 0
vn -0.5600731205339093 -0.828443178290104 0
vn -0.6488356438097677 -0.7609285822742923 0
vn 0.6488356438097677 0.7609285822742923 0
vn 0.5280150196817603 -0.8492350316552365 0
vn -0.5280150196817603 0.8492350316552365 0
vn -0.4379038971582819 0.8990217888647577 0
vn 0.4379038971582819 -0.8990217888647577 0
vn -0.629515161354514 0.7769881991541443 0
vn 0.629515161354514 -0.7769881991541443 0
vn 0.7172711556919699 0.6967941512472001 0
vn -0.7172711556919699 -0.6967941512472001 0
vn -0.82664738810732 -0.5627202641946938 0
vn 0.82664738810732 0.5627202641946938 0
vn 0.6852257544709794 -0.7283307390256688 0
vn -0.6852257544709794 0.7283307390256688 0
vn -0.7769689302740345 0.6295389435045482 0
vn 0.7769689302740345 -0.6295389435045482 0
vn -0.9588586608819557 -0.28388389959922483 0
vn 0.9588586608819557 0.28388389959922483 0
vn -0.8851734257463909 0.465261223779071 0
vn 0.8851734257463909 -0.465261223779071 0
vn 0.8385868614683969 0.5447679100062554 0
vn -0.8385868614683969 -0.5447679100062554 0
vn 0.8165192651707982 -0.5773181874884417 0
vn -0.8165192651707982 0.5773181874884417 0
vn -0.9999906601207322 0.0043219985310285845 0
vn 0.9999906601207322 -0.0043219985310285845 0
vn -0.9662345412596195 0.2576641443367948 0
vn 0.9662345412596195 -0.2576641443367948 0
vn 0.9292274740952305 0.3695081885244192 0
vn -0.9292274740952305 -0.3695081885244192 0
vn 0.9192324729227078 -0.39371520255687775 0
vn -0.9192324729227078 0.39371520255687775 0
vn 0.9832961200678384 0.1820130222251565 0
vn -0.9832961200678384 -0.1820130222251565 0
vn 0.9809912350528855 -0.19405204649633132 0
vn -0.9809912350528855 0.19405204649633132 0
vn 0.9999961884307995 -0.0027610005202595186 0
vn -0.9999961884307995 0.0027610005202595186 0
usemtl material_0_0
f 1//1 2//1 3//1
f 2//1 1//1 4//1
f 3//2 2//2 1//2
f 4//2 1//2 2//2
f 2//3 5//4 3//4
f 3//5 5//5 2//6
f 3//4 6//7 1//7
f 1//8 6//8 3//5
f 1//7 7//9 4//9
f 4//10 7//10 1//8
f 2//1 4//1 8//1
f 8//2 4//2 2//2
f 5//4 2//3 9//3
f 9//6 2//6 5//5
f 6//7 3//4 5//4
f 5//5 3//5 6//8
f 7//9 1//7 6//7
f 6//8 1//8 7//10
f 10//11 4//9 7//9
f 7//10 4//10 10//12
f 8//1 4//1 11//1
f 11//2 4//2 8//2
f 8//13 9//3 2//3
f 2//6 9//6 8//14
f 9//2 6//2 5//2
f 5//1 6//1 9//1
f 6//2 12//2 7//2
f 7//1 12//1 6//1
f 4//9 10//11 11//11
f 11//12 10//12 4//10
f 7//2 13//2 10//2
f 10//1 13//1 7//1
f 8//1 11//1 14//1
f 14//2 11//2 8//2
f 9//3 8//13 12//13
f 12//14 8//14 9//6
f 6//2 9//2 12//2
f 12//1 9//1 6//1
f 7//2 12//2 13//2
f 13//1 12//1 7//1
f 15//15 11//11 10//11
f 10//12 11//12 15//16
f 10//2 13//2 16//2
f 16//1 13//1 10//1
f 14//1 11//1 17//1
f 17//2 11//2 14//2
f 14//17 12//13 8//13
f 8//14 12//14 14//18
f 12//13 14//17 13//17
f 13//18 14//18 12//14
f 11//11 15//15 17//15
f 17//16 15//16 11//12
f 10//2 16//2 15//2
f 15//1 16//1 10//1
f 13//17 18//19 16//19
f 16//20 18//20 13//18
f 14//1 17//1 18//1
f 18//2 17//2 14//2
f 18//19 13//17 14//17
f 14//18 13//18 18//20
f 15//15 19//21 17//15
f 17//16 19//22 15//16
f 15//2 16//2 20//2
f 20//1 16//1 15//1
f 18//19 21//23 16//19
f 16//20 21//24 18//20
f 18//1 17//1 22//1
f 22//2 17//2 18//2
f 19//21 15//15 23//21
f 23//22 15//16 19//22
f 24//1 17//1 19//1
f 19//2 17//2 24//2
f 20//2 16//2 21//2
f 21//1 16//1 20//1
f 25//2 15//2 20//2
f 20//1 15//1 25//1
f 21//23 18//19 26//23
f 26//24 18//20 21//24
f 22//1 17//1 24//1
f 24//2 17//2 22//2
f 22//1 26//1 18//1
f 18//2 26//2 22//2
f 15//2 25//2 23//2
f 23//1 25//1 15//1
f 23//21 27//25 19//21
f 19//22 27//26 23//22
f 24//1 19//1 28//1
f 28//2 19//2 24//2
f 20//2 21//2 29//2
f 29//1 21//1 20//1
f 20//27 24//28 25//28
f 25//29 24//29 20//30
f 26//23 30//31 21//23
f 21//24 30//32 26//24
f 24//28 20//27 22//27
f 22//30 20//30 24//29
f 26//1 22//1 31//1
f 31//2 22//2 26//2
f 23//2 25//2 32//2
f 32//1 25//1 23//1
f 27//25 23//21 33//25
f 33//26 23//22 27//26
f 34//1 19//1 27//1
f 27//2 19//2 34//2
f 28//1 19//1 34//1
f 34//2 19//2 28//2
f 28//33 25//28 24//28
f 24//29 25//29 28//34
f 29//2 21//2 35//2
f 35//1 21//1 29//1
f 29//35 22//27 20//27
f 20//30 22//30 29//36
f 30//31 26//23 36//31
f 36//32 26//24 30//32
f 35//2 21//2 30//2
f 30//1 21//1 35//1
f 22//27 29//35 31//35
f 31//36 29//36 22//30
f 26//1 31//1 37//1
f 37//2 31//2 26//2
f 25//28 28//33 32//33
f 32//34 28//34 25//29
f 23//2 32//2 38//2
f 38//1 32//1 23//1
f 23//2 38//2 33//2
f 33//1 38//1 23//1
f 33//25 39//37 27//25
f 27//26 39//38 33//26
f 34//1 27//1 40//1
f 40//2 27//2 34//2
f 34//39 32//33 28//33
f 28//34 32//34 34//40
f 35//41 31//35 29//35
f 29//36 31//36 35//42
f 26//1 37//1 36//1
f 36//2 37//2 26//2
f 36//31 41//43 30//31
f 30//32 41//44 36//32
f 35//2 30//2 42//2
f 42//1 30//1 35//1
f 31//35 35//41 37//41
f 37//42 35//42 31//36
f 32//33 34//39 38//39
f 38//40 34//40 32//34
f 33//2 38//2 43//2
f 43//1 38//1 33//1
f 39//37 33//25 44//37
f 44//38 33//26 39//38
f 40//1 27//1 39//1
f 39//2 27//2 40//2
f 40//45 38//39 34//39
f 34//40 38//40 40//46
f 36//1 37//1 45//1
f 45//2 37//2 36//2
f 41//43 36//31 46//43
f 46//44 36//32 41//44
f 42//2 30//2 41//2
f 41//1 30//1 42//1
f 42//47 37//41 35//41
f 35//42 37//42 42//48
f 38//39 40//45 43//45
f 43//46 40//46 38//40
f 33//2 43//2 44//2
f 44//1 43//1 33//1
f 44//37 47//49 39//37
f 39//38 47//50 44//38
f 40//1 39//1 48//1
f 48//2 39//2 40//2
f 37//41 42//47 45//47
f 45//48 42//48 37//42
f 36//1 45//1 46//1
f 46//2 45//2 36//2
f 46//43 49//51 41//43
f 41//44 49//52 46//44
f 42//2 41//2 50//2
f 50//1 41//1 42//1
f 40//45 51//53 43//45
f 43//46 51//54 40//46
f 44//2 43//2 51//2
f 51//1 43//1 44//1
f 47//49 44//37 52//49
f 52//50 44//38 47//50
f 53//1 39//1 47//1
f 47//2 39//2 53//2
f 48//1 39//1 53//1
f 53//2 39//2 48//2
f 51//53 40//45 48//53
f 48//54 40//46 51//54
f 42//47 54//55 45//47
f 45//48 54//56 42//48
f 46//1 45//1 54//1
f 54//2 45//2 46//2
f 49//51 46//43 55//51
f 55//52 46//44 49//52
f 56//2 41//2 49//2
f 49//1 41//1 56//1
f 50//2 41//2 56//2
f 56//1 41//1 50//1
f 54//55 42//47 50//55
f 50//56 42//48 54//56
f 44//2 51//2 57//2
f 57//1 51//1 44//1
f 44//2 57//2 52//2
f 52//1 57//1 44//1
f 52//49 58//57 47//49
f 47//50 58//58 52//50
f 53//1 47//1 59//1
f 59//2 47//2 53//2
f 57//59 48//53 53//59
f 53//60 48//54 57//60
f 48//53 57//59 51//53
f 51//54 57//60 48//54
f 46//1 54//1 60//1
f 60//2 54//2 46//2
f 46//1 60//1 55//1
f 55//2 60//2 46//2
f 55//51 61//61 49//51
f 49//52 61//62 55//52
f 56//2 49//2 62//2
f 62//1 49//1 56//1
f 60//63 50//55 56//63
f 56//64 50//56 60//64
f 50//55 60//63 54//55
f 54//56 60//64 50//56
f 52//2 57//2 63//2
f 63//1 57//1 52//1
f 58//57 52//49 64//57
f 64//58 52//50 58//58
f 65//1 47//1 58//1
f 58//2 47//2 65//2
f 59//1 47//1 65//1
f 65//2 47//2 59//2
f 63//65 53//59 59//65
f 59//66 53//60 63//66
f 53//59 63//65 57//59
f 57//60 63//66 53//60
f 55//1 60//1 66//1
f 66//2 60//2 55//2
f 61//61 55//51 67//61
f 67//62 55//52 61//62
f 62//2 49//2 61//2
f 61//1 49//1 62//1
f 66//67 56//63 62//67
f 62//68 56//64 66//68
f 56//63 66//67 60//63
f 60//64 66//68 56//64
f 52//2 63//2 68//2
f 68//1 63//1 52//1
f 52//2 68//2 64//2
f 64//1 68//1 52//1
f 64//57 69//69 58//57
f 58//58 69//70 64//58
f 65//1 58//1 70//1
f 70//2 58//2 65//2
f 68//71 59//65 65//71
f 65//72 59//66 68//72
f 59//65 68//71 63//65
f 63//66 68//72 59//66
f 55//1 66//1 67//1
f 67//2 66//2 55//2
f 67//61 71//73 61//61
f 61//62 71//74 67//62
f 62//2 61//2 72//2
f 72//1 61//1 62//1
f 62//67 73//75 66//67
f 66//68 73//76 62//68
f 64//2 68//2 74//2
f 74//1 68//1 64//1
f 69//69 64//57 75//69
f 75//70 64//58 69//70
f 70//1 58//1 69//1
f 69//2 58//2 70//2
f 74//77 65//71 70//77
f 70//78 65//72 74//78
f 65//71 74//77 68//71
f 68//72 74//78 65//72
f 67//1 66//1 73//1
f 73//2 66//2 67//2
f 71//73 67//61 76//73
f 76//74 67//62 71//74
f 77//2 61//2 71//2
f 71//1 61//1 77//1
f 72//2 61//2 77//2
f 77//1 61//1 72//1
f 73//75 62//67 72//75
f 72//76 62//68 73//76
f 64//2 74//2 75//2
f 75//1 74//1 64//1
f 75//69 78//79 69//69
f 69//70 78//80 75//70
f 70//1 69//1 79//1
f 79//2 69//2 70//2
f 70//77 80//81 74//77
f 74//78 80//82 70//78
f 67//1 73//1 81//1
f 81//2 73//2 67//2
f 67//1 81//1 76//1
f 76//2 81//2 67//2
f 76//73 82//83 71//73
f 71//74 82//84 76//74
f 77//2 71//2 83//2
f 83//1 71//1 77//1
f 81//85 72//75 77//85
f 77//86 72//76 81//86
f 72//75 81//85 73//75
f 73//76 81//86 72//76
f 75//2 74//2 80//2
f 80//1 74//1 75//1
f 78//79 75//69 84//79
f 84//80 75//70 78//80
f 85//1 69//1 78//1
f 78//2 69//2 85//2
f 79//1 69//1 85//1
f 85//2 69//2 79//2
f 80//81 70//77 79//81
f 79//82 70//78 80//82
f 76//1 81//1 86//1
f 86//2 81//2 76//2
f 82//83 76//73 87//83
f 87//84 76//74 82//84
f 88//2 71//2 82//2
f 82//1 71//1 88//1
f 83//2 71//2 88//2
f 88//1 71//1 83//1
f 86//87 77//85 83//87
f 83//88 77//86 86//88
f 77//85 86//87 81//85
f 81//86 86//88 77//86
f 75//2 80//2 89//2
f 89//1 80//1 75//1
f 75//2 89//2 84//2
f 84//1 89//1 75//1
f 84//79 90//89 78//79
f 78//80 90//90 84//80
f 85//1 78//1 91//1
f 91//2 78//2 85//2
f 85//91 80//81 79//81
f 79//82 80//82 85//92
f 76//1 86//1 92//1
f 92//2 86//2 76//2
f 76//1 92//1 87//1
f 87//2 92//2 76//2
f 87//83 93//93 82//83
f 82//84 93//94 87//84
f 88//2 82//2 94//2
f 94//1 82//1 88//1
f 88//95 86//87 83//87
f 83//88 86//88 88//96
f 80//81 85//91 89//91
f 89//92 85//92 80//82
f 84//2 89//2 95//2
f 95//1 89//1 84//1
f 90//89 84//79 96//89
f 96//90 84//80 90//90
f 91//1 78//1 90//1
f 90//2 78//2 91//2
f 91//97 89//91 85//91
f 85//92 89//92 91//98
f 86//87 88//95 92//95
f 92//96 88//96 86//88
f 87//1 92//1 97//1
f 97//2 92//2 87//2
f 93//93 87//83 98//93
f 98//94 87//84 93//94
f 94//2 82//2 93//2
f 93//1 82//1 94//1
f 94//99 92//95 88//95
f 88//96 92//96 94//100
f 89//91 91//97 95//97
f 95//98 91//98 89//92
f 84//2 95//2 96//2
f 96//1 95//1 84//1
f 99//101 90//89 96//89
f 96//90 90//90 99//102
f 91//1 90//1 100//1
f 100//2 90//2 91//2
f 92//95 94//99 97//99
f 97//100 94//100 92//96
f 87//1 97//1 98//1
f 98//2 97//2 87//2
f 101//103 93//93 98//93
f 98//94 93//94 101//104
f 94//2 93//2 102//2
f 102//1 93//1 94//1
f 100//105 95//97 91//97
f 91//98 95//98 100//106
f 96//2 95//2 103//2
f 103//1 95//1 96//1
f 90//89 99//101 104//101
f 104//102 99//102 90//90
f 96//2 105//2 99//2
f 99//1 105//1 96//1
f 100//1 90//1 98//1
f 98//2 90//2 100//2
f 102//107 97//99 94//99
f 94//100 97//100 102//108
f 98//1 97//1 106//1
f 106//2 97//2 98//2
f 93//93 101//103 105//103
f 105//104 101//104 93//94
f 98//1 90//1 101//1
f 101//2 90//2 98//2
f 102//2 93//2 103//2
f 103//1 93//1 102//1
f 95//97 100//105 103//105
f 103//106 100//106 95//98
f 96//2 103//2 93//2
f 93//1 103//1 96//1
f 107//109 104//101 99//101
f 99//102 104//102 107//110
f 101//1 90//1 104//1
f 104//2 90//2 101//2
f 96//2 93//2 105//2
f 105//1 93//1 96//1
f 99//2 105//2 108//2
f 108//1 105//1 99//1
f 98//1 106//1 100//1
f 100//2 106//2 98//2
f 97//99 102//107 106//107
f 106//108 102//108 97//100
f 109//111 105//103 101//103
f 101//104 105//104 109//112
f 103//105 106//107 102//107
f 102//108 106//108 103//106
f 106//107 103//105 100//105
f 100//106 103//106 106//108
f 104//101 107//109 110//109
f 110//110 107//110 104//102
f 99//2 108//2 107//2
f 107//1 108//1 99//1
f 101//1 104//1 109//1
f 109//2 104//2 101//2
f 105//103 109//111 108//111
f 108//112 109//112 105//104
f 111//113 110//109 107//109
f 107//110 110//110 111//114
f 109//1 104//1 110//1
f 110//2 104//2 109//2
f 107//2 108//2 112//2
f 112//1 108//1 107//1
f 113//115 108//111 109//111
f 109//112 108//112 113//116
f 110//109 111//113 114//113
f 114//114 111//114 110//110
f 107//2 112//2 111//2
f 111//1 112//1 107//1
f 109//1 110//1 113//1
f 113//2 110//2 109//2
f 108//111 113//115 112//115
f 112//116 113//116 108//112
f 115//117 114//113 111//113
f 111//114 114//114 115//118
f 113//1 110//1 114//1
f 114//2 110//2 113//2
f 111//2 112//2 115//2
f 115//1 112//1 111//1
f 116//117 112//115 113//115
f 113//116 112//116 116//118
f 114//113 115//117 116//117
f 116//118 115//118 114//114
f 113//1 114//1 116//1
f 116//2 114//2 113//2
f 112//115 116//117 115//117
f 115//118 116//118 112//116
