# Blender v2.93.4 OBJ File: 'handle_grasp.blend'
# www.blender.org
mtllib handle_grasp.mtl
o new-1
v -0.202119 -0.033321 0.349039
v -0.198901 -0.032750 0.333711
v -0.198288 -0.033321 0.333839
v -0.193929 -0.032060 0.332744
v -0.193929 -0.077866 0.332744
v -0.195885 -0.032750 0.333045
v -0.202732 -0.032750 0.348912
v -0.200927 -0.032060 0.334290
v -0.195885 -0.078841 0.333045
v -0.196638 -0.033321 0.333474
v -0.197787 -0.034984 0.334942
v -0.201140 -0.034984 0.348243
v -0.204279 -0.032060 0.347591
v -0.196638 -0.078841 0.333474
v -0.200808 -0.033321 0.350018
v -0.197787 -0.077866 0.334942
v -0.196808 -0.079530 0.334146
v -0.201140 -0.077866 0.348243
v -0.200639 -0.079530 0.349347
v -0.200808 -0.078841 0.350018
v -0.200336 -0.078841 0.350702
v -0.200026 -0.080101 0.349474
v -0.199455 -0.080101 0.350300
v -0.198718 -0.077866 0.351745
v -0.199596 -0.079530 0.350856
v -0.197068 0.237902 0.332092
v -0.197238 0.239566 0.332764
v -0.197068 0.224257 0.332092
v -0.197787 0.240826 0.334942
v -0.197378 0.240136 0.333320
v -0.196328 0.239566 0.332246
v -0.197238 0.222594 0.332764
v -0.197978 -0.013829 0.332610
v -0.201139 0.240826 0.348243
v -0.196638 0.240826 0.333474
v -0.193929 0.240826 0.332744
v -0.195715 0.240136 0.332373
v -0.196328 0.222594 0.332246
v -0.197378 0.222023 0.333320
v -0.197069 -0.015493 0.332092
v -0.198731 -0.013258 0.333040
v -0.201548 0.240136 0.349865
v -0.201139 0.286631 0.348243
v -0.179278 0.240826 0.335788
v -0.195715 0.222023 0.332373
v -0.197787 0.221334 0.334942
v -0.196329 -0.013829 0.332246
v -0.198901 -0.011880 0.333711
v -0.200927 -0.012569 0.334290
v -0.197069 -0.029137 0.332092
v -0.200808 0.240826 0.350018
v -0.201689 0.239566 0.350421
v -0.197787 0.286631 0.334942
v -0.200808 0.287606 0.350018
v -0.195885 0.240826 0.333045
v -0.179278 0.221334 0.335788
v -0.193929 0.286631 0.332744
v -0.195885 0.221334 0.333045
v -0.196638 0.221334 0.333474
v -0.195716 -0.013258 0.332373
v -0.197978 -0.030800 0.332610
v -0.200336 0.240826 0.350702
v -0.201118 0.239566 0.351247
v -0.196638 0.287606 0.333474
v -0.196807 0.288295 0.334146
v -0.200639 0.288295 0.349347
v -0.177660 0.221334 0.336831
v -0.195885 0.287606 0.333045
v -0.179278 0.286631 0.335788
v -0.193929 0.221334 0.332744
v -0.201139 0.221334 0.348243
v -0.196638 -0.011309 0.333474
v -0.204279 -0.012569 0.347591
v -0.193929 -0.012569 0.332744
v -0.196329 -0.030800 0.332246
v -0.201858 0.237902 0.351093
v -0.200336 0.287606 0.350702
v -0.200026 0.288866 0.349474
v -0.177660 -0.012569 0.336831
v -0.177660 0.240826 0.336831
v -0.195145 0.288295 0.333199
v -0.178400 0.288295 0.336677
v -0.195885 -0.011880 0.333045
v -0.179278 -0.012569 0.335788
v -0.197787 -0.009645 0.334942
v -0.202732 -0.011880 0.348912
v -0.198288 -0.011309 0.333839
v -0.198731 -0.031371 0.333040
v -0.195716 -0.031371 0.332373
v -0.201858 0.224257 0.351093
v -0.199596 0.288295 0.350856
v -0.200505 0.240136 0.351374
v -0.198718 0.286631 0.351745
v -0.196194 0.288866 0.334273
v -0.177188 -0.012569 0.337515
v -0.177188 0.221334 0.337515
v -0.195285 0.288866 0.333755
v -0.177660 0.287606 0.336831
v -0.201548 0.222023 0.349865
v -0.201140 -0.009645 0.348243
v -0.202901 -0.013258 0.349584
v -0.179278 -0.032060 0.335788
v -0.201118 0.222594 0.351247
v -0.198718 0.240826 0.351745
v -0.184067 0.240826 0.354789
v -0.194647 0.289555 0.335594
v -0.199455 0.288866 0.350299
v -0.177188 -0.032060 0.337515
v -0.177660 -0.032060 0.336831
v -0.177188 0.240826 0.337515
v -0.178541 0.288866 0.337234
v -0.177188 0.287606 0.337515
v -0.200808 0.221334 0.350018
v -0.202119 -0.011309 0.349039
v -0.202429 -0.013829 0.350268
v -0.201689 0.222594 0.350421
v -0.198718 0.221334 0.351745
v -0.184067 0.286631 0.354789
v -0.184067 0.221334 0.354789
v -0.198000 0.289555 0.348895
v -0.182851 0.288295 0.354334
v -0.176856 -0.012569 0.339290
v -0.176856 -0.032060 0.339290
v -0.176856 0.221334 0.339290
v -0.179996 0.289555 0.338638
v -0.177970 0.288866 0.338059
v -0.200808 -0.011309 0.350018
v -0.177660 -0.078841 0.336831
v -0.201118 -0.013829 0.351247
v -0.179278 -0.077866 0.335788
v -0.200505 0.222023 0.351374
v -0.182111 0.240826 0.354488
v -0.183349 0.289555 0.351939
v -0.182711 0.288866 0.353778
v -0.176856 -0.077866 0.339290
v -0.177188 -0.078841 0.337515
v -0.176856 0.240826 0.339290
v -0.177357 0.288295 0.338186
v -0.200336 -0.011880 0.350702
v -0.200336 0.221334 0.350702
v -0.201858 -0.015493 0.351093
v -0.198718 -0.012569 0.351745
v -0.182111 0.287606 0.354488
v -0.182111 0.221334 0.354488
v -0.180209 -0.012569 0.352591
v -0.180209 -0.077866 0.352591
v -0.180209 0.240826 0.352591
v -0.176856 0.286631 0.339290
v -0.181802 0.288866 0.353260
v -0.177357 -0.079530 0.338186
v -0.178400 -0.079530 0.336677
v -0.200505 -0.013258 0.351374
v -0.195145 -0.079530 0.333199
v -0.202901 -0.031371 0.349584
v -0.201858 -0.029137 0.351093
v -0.184067 -0.012569 0.354789
v -0.181358 0.287606 0.354059
v -0.181358 0.240826 0.354059
v -0.181188 0.288295 0.353387
v -0.180209 0.221334 0.352591
v -0.180209 -0.032060 0.352591
v -0.178541 -0.080101 0.337234
v -0.200505 -0.031371 0.351374
v -0.202429 -0.030800 0.350268
v -0.201118 -0.030800 0.351247
v -0.182111 -0.012569 0.354488
v -0.181358 0.221334 0.354059
v -0.181358 -0.012569 0.354059
v -0.181358 -0.032060 0.354059
v -0.181358 -0.078841 0.354059
v -0.181189 -0.079530 0.353387
v -0.180209 0.286631 0.352591
v -0.177970 -0.080101 0.338059
v -0.195285 -0.080101 0.333755
v -0.196194 -0.080101 0.334273
v -0.200336 -0.032750 0.350702
v -0.198718 -0.032060 0.351745
v -0.184067 -0.032060 0.354789
v -0.179996 -0.080790 0.338638
v -0.194647 -0.080790 0.335595
v -0.182111 -0.032060 0.354488
v -0.182111 -0.078841 0.354488
v -0.181802 -0.080101 0.353260
v -0.184067 -0.077866 0.354789
v -0.182851 -0.079530 0.354334
v -0.198000 -0.080790 0.348895
v -0.183349 -0.080790 0.351939
v -0.182711 -0.080101 0.353778
vn -0.3429 -0.9354 -0.0864
vn -0.3428 -0.9354 -0.0864
vn -0.3427 -0.9355 -0.0864
vn -0.6538 -0.7385 -0.1648
vn -0.1521 0.0000 -0.9884
vn -0.4950 0.0000 -0.8689
vn -0.8828 -0.4136 -0.2226
vn -0.4819 -0.5926 0.6454
vn -0.9697 0.0000 -0.2444
vn -0.6560 -0.6034 0.4535
vn -0.4142 -0.2492 0.8754
vn 0.4003 -0.5872 0.7035
vn 0.4008 -0.5872 0.7032
vn 0.4005 -0.5870 0.7036
vn 0.5616 -0.7011 0.4395
vn 0.4005 -0.5869 0.7036
vn -0.2034 0.0000 0.9791
vn -0.2039 0.0000 0.9790
vn -0.2033 0.0000 0.9791
vn 0.1966 -0.4100 0.8907
vn 0.9697 0.0000 0.2444
vn 0.4008 -0.5870 0.7034
vn 0.4006 0.5872 0.7033
vn 0.4008 0.5871 0.7033
vn 0.1967 -0.4098 0.8907
vn 0.3694 -0.3700 0.8524
vn 0.7875 0.0000 0.6163
vn 0.9629 -0.2678 -0.0325
vn -0.5418 0.0000 0.8405
vn 0.1518 -0.0000 0.9884
vn 0.1521 0.0000 0.9884
vn -0.2032 -0.0000 0.9791
vn 0.3428 -0.9354 0.0864
vn 0.1967 -0.4102 0.8905
vn 0.1968 -0.4104 0.8904
vn 0.1967 -0.4100 0.8906
vn 0.6563 -0.6033 -0.4530
vn 0.7850 -0.2989 -0.5427
vn 0.8368 -0.2627 0.4805
vn 0.8831 -0.4131 0.2226
vn 0.6559 -0.6034 -0.4536
vn 0.4951 0.0000 0.8688
vn 0.0268 -0.2454 0.9691
vn 0.4950 -0.0000 0.8689
vn -0.0168 -0.4399 0.8979
vn 0.1967 -0.4099 0.8907
vn 0.1963 -0.4102 0.8906
vn 0.6552 -0.6033 -0.4547
vn 0.6558 -0.6033 -0.4538
vn 0.5418 0.0000 -0.8405
vn 0.4006 -0.5875 0.7031
vn 0.6538 -0.7385 0.1648
vn 0.6559 -0.6035 -0.4534
vn 0.6563 -0.6031 -0.4534
vn 0.6560 -0.6034 -0.4534
vn 0.4002 -0.5871 0.7037
vn 0.4006 -0.5871 0.7034
vn -0.4141 -0.2492 0.8754
vn -0.4141 -0.2495 0.8754
vn 0.1759 -0.5801 0.7953
vn 0.6925 -0.3830 -0.6113
vn 0.1970 0.4097 0.8907
vn 0.1968 0.4099 0.8906
vn 0.1972 0.4098 0.8906
vn 0.2037 0.0000 -0.9790
vn 0.2033 -0.0000 -0.9791
vn 0.4142 -0.2492 -0.8754
vn 0.2880 -0.2485 -0.9248
vn 0.5032 -0.3714 -0.7803
vn 0.3286 -0.1467 -0.9330
vn 0.6552 -0.6042 -0.4535
vn -0.8226 -0.0000 0.5686
vn -0.8228 0.0000 0.5683
vn -0.8231 0.0000 0.5679
vn -0.1435 -0.7086 0.6908
vn -0.1432 -0.7096 0.6899
vn -0.1435 -0.7087 0.6907
vn -0.1434 -0.7090 0.6905
vn 0.8830 -0.4134 0.2225
vn 0.6535 -0.7387 0.1648
vn -0.0169 0.4397 0.8980
vn -0.2034 -0.0004 0.9791
vn 0.3443 0.1037 -0.9331
vn 0.7849 0.2990 -0.5426
vn 0.2684 -0.9452 -0.1857
vn -0.9830 -0.0000 0.1839
vn -0.8228 0.0000 0.5684
vn -0.0776 -0.9245 0.3733
vn -0.6563 -0.6031 0.4534
vn 0.5429 -0.4210 -0.7266
vn 0.1968 0.4098 0.8907
vn 0.1970 0.4094 0.8908
vn 0.1968 0.4097 0.8907
vn 0.6537 0.7386 0.1647
vn 0.3254 0.3767 -0.8673
vn 0.2036 0.0008 -0.9791
vn 0.3442 0.1037 -0.9332
vn 0.1877 -0.3844 -0.9039
vn 0.6561 0.6034 -0.4532
vn 0.6562 0.6034 -0.4532
vn 0.6559 0.6036 -0.4533
vn 0.4951 0.0000 0.8689
vn 0.1759 0.5804 0.7951
vn 0.8830 0.4133 0.2225
vn 0.3433 0.9352 0.0865
vn 0.5876 -0.1885 -0.7869
vn 0.2917 0.0000 -0.9565
vn 0.2034 0.0000 -0.9791
vn -0.0268 -0.2454 -0.9691
vn -0.4007 -0.5872 -0.7033
vn -0.4008 -0.5872 -0.7033
vn -0.6535 -0.7388 -0.1648
vn -0.6537 -0.7386 -0.1648
vn 0.6560 0.6033 -0.4536
vn -0.6561 0.6032 0.4534
vn -0.6561 0.6032 0.4535
vn -0.4141 0.2492 0.8754
vn 0.5427 -0.4210 -0.7268
vn 0.7875 0.0000 0.6164
vn 0.5427 0.4210 -0.7268
vn -0.1878 0.3844 0.9039
vn 0.0268 0.2454 0.9690
vn 0.6927 0.3828 -0.6113
vn -0.1677 -0.9409 -0.2943
vn -0.8829 0.4135 -0.2226
vn -0.6534 -0.7388 -0.1647
vn -0.8831 -0.4129 -0.2227
vn -0.8831 -0.4130 -0.2226
vn -0.8829 -0.4134 -0.2225
vn -0.6557 0.6036 0.4535
vn 0.3434 -0.4453 -0.8269
vn 0.4006 0.5874 0.7032
vn 0.9830 0.0000 -0.1838
vn 0.2034 -0.0001 -0.9791
vn 0.2034 -0.0004 -0.9791
vn -0.4007 -0.5873 -0.7032
vn -0.7875 0.0000 -0.6164
vn -0.8831 -0.4131 -0.2226
vn -0.6559 0.6031 0.4539
vn 0.4005 0.5872 0.7034
vn 0.8367 0.2623 0.4807
vn 0.5429 0.4209 -0.7267
vn 0.5428 0.4210 -0.7267
vn 0.5430 0.4209 -0.7267
vn 0.5876 0.1886 -0.7869
vn -0.8368 0.2631 -0.4802
vn -0.6538 0.7385 -0.1648
vn -0.2684 0.9452 0.1857
vn 0.8829 0.4135 0.2226
vn 0.8231 0.0000 -0.5680
vn 0.8230 0.0000 -0.5680
vn 0.9628 0.2681 -0.0328
vn 0.2034 0.0001 -0.9791
vn 0.2034 0.0002 -0.9791
vn -0.6535 0.7388 -0.1647
vn -0.3428 0.9354 -0.0864
vn 0.6532 0.7391 0.1647
vn 0.6539 0.7384 0.1648
vn 0.6568 0.6026 -0.4533
vn 0.6561 0.6032 -0.4535
vn -0.4005 0.5872 -0.7034
vn 0.0000 1.0000 0.0000
vn 0.3428 0.9354 0.0864
vn -0.0268 0.2454 -0.9691
vn 0.2684 0.9453 -0.1856
vn 0.6561 0.6034 -0.4533
vn 0.0775 0.9245 -0.3733
vn 0.1436 0.7084 -0.6911
vn -0.4738 0.2877 -0.8323
vn -0.4009 0.5872 -0.7032
vn 0.2033 -0.0001 -0.9791
vn -0.4738 -0.2879 -0.8323
vn 0.2037 -0.0009 -0.9790
vn -0.4006 -0.5872 -0.7034
vn -0.4005 -0.5870 -0.7036
vn -0.4007 -0.5871 -0.7034
vn -0.2120 0.1831 -0.9600
vn -0.6900 0.7123 0.1287
vn -0.6901 0.7122 0.1287
vn -0.7875 0.0000 -0.6163
vn -0.9831 0.0000 0.1833
vn -0.1115 0.6795 -0.7252
vn -0.5617 -0.7009 -0.4396
vn -0.1968 0.4099 -0.8906
vn -0.6559 0.6032 0.4537
vn -0.6560 0.6032 0.4536
vn -0.6561 0.6033 0.4534
vn -0.6559 0.6035 0.4535
vn -0.6559 0.6034 0.4535
vn -0.8829 0.4135 -0.2225
vn -0.4006 -0.5874 -0.7032
vn -0.1116 -0.6796 -0.7251
vn 0.2035 -0.0004 -0.9791
vn -0.2119 -0.1832 -0.9600
vn -0.8226 0.0000 0.5687
vn 0.1878 0.3839 -0.9041
vn 0.1877 0.3843 -0.9039
vn -0.1968 -0.4099 -0.8907
vn 0.2038 0.0000 -0.9790
vn -0.6562 0.6036 0.4528
vn -0.2037 -0.0000 0.9790
vn 0.8226 0.0000 -0.5686
vn 0.1877 0.3844 -0.9039
vn -0.1518 0.0000 -0.9884
vn -0.6536 0.7387 -0.1647
vn -0.3791 -0.0000 0.9254
vn -0.5031 0.3714 0.7803
vn -0.3285 0.1467 0.9330
vn -0.2880 0.2485 0.9248
vn -0.4009 0.5869 -0.7035
vn 0.8228 0.0000 -0.5684
vn 0.6561 0.6033 -0.4535
vn 0.6562 0.6036 -0.4529
vn -0.6899 -0.7124 0.1286
vn -0.8831 0.4131 -0.2226
vn -0.5428 0.4209 0.7267
vn -0.1969 -0.4098 -0.8907
vn -0.1969 -0.4099 -0.8906
vn -0.3694 -0.3699 -0.8525
vn -0.3694 -0.3700 -0.8524
vn -0.1878 0.3839 0.9041
vn -0.1877 0.3843 0.9039
vn -0.1677 0.9409 -0.2944
vn -0.1436 0.7083 0.6911
vn -0.1434 0.7090 0.6905
vn 0.9830 0.0000 -0.1839
vn 0.6560 0.6034 -0.4535
vn 0.6560 0.6033 -0.4535
vn -0.6558 -0.6035 0.4536
vn -0.4821 0.5927 0.6452
vn -0.5429 0.4210 0.7266
vn -0.5429 0.4209 0.7267
vn -0.3443 -0.1037 0.9331
vn -0.6560 -0.6034 0.4534
vn -0.1435 0.7087 0.6908
vn -0.0776 0.9245 0.3733
vn 0.9830 0.0000 -0.1835
vn 0.8231 0.0000 -0.5679
vn 0.8228 -0.0000 -0.5683
vn 0.2684 0.9452 -0.1857
vn 0.6562 0.6040 -0.4524
vn 0.6560 0.6035 -0.4534
vn 0.6560 0.6035 -0.4533
vn -0.5430 0.4208 0.7267
vn -0.5425 0.4217 0.7265
vn -0.8230 -0.0000 0.5680
vn -0.3255 -0.3766 0.8673
vn -0.5032 -0.3714 0.7803
vn -0.2035 0.0000 0.9791
vn -0.2917 -0.0000 0.9565
vn -0.5030 -0.3714 0.7804
vn 0.4007 0.5872 0.7033
vn 0.9628 -0.2681 -0.0328
vn 0.6560 -0.6033 -0.4536
vn 0.1878 -0.3839 -0.9041
vn -0.5427 -0.4210 0.7268
vn -0.5429 -0.4210 0.7267
vn -0.2036 0.0000 0.9790
vn 0.8829 -0.4135 0.2226
vn 0.1435 -0.7086 -0.6909
vn 0.1435 -0.7086 -0.6908
vn 0.8367 0.2624 0.4807
vn 0.0775 -0.9246 -0.3731
vn -0.4009 -0.5868 -0.7036
vn -0.3433 -0.4451 0.8270
vn 0.4013 -0.5872 0.7030
vn 0.0775 -0.9245 -0.3733
vn -0.1677 -0.9408 -0.2945
vn -0.1677 -0.9408 -0.2947
vn 0.4008 -0.5871 0.7034
vn 0.4008 -0.5872 0.7033
vn 0.4009 -0.5868 0.7035
vn 0.4007 -0.5872 0.7034
vn 0.4006 -0.5872 0.7033
vn 0.1677 -0.9409 0.2943
vn -0.1878 -0.3843 0.9039
vn -0.1878 -0.3844 0.9039
vn -0.1878 -0.3839 0.9041
vn -0.1436 -0.7083 0.6912
vn -0.0775 -0.9245 0.3731
usemtl material-0
s 1
f 7//1 8//2 2//3
f 1//4 7//4 2//4
f 5//5 9//5 6//5
f 9//6 14//6 10//6
f 3//7 11//7 12//7
f 15//8 1//8 12//8
f 11//9 16//9 12//9
f 12//9 16//9 18//9
f 19//10 22//10 23//10
f 21//10 19//10 23//10
f 24//11 21//11 25//11
usemtl material-1
f 27//12 31//13 37//14
f 30//15 35//15 29//15
f 35//16 27//12 37//14
f 36//17 28//17 44//17
f 28//17 38//18 45//19
f 48//20 41//20 33//20
f 43//21 29//21 53//21
f 55//22 35//16 37//14
f 44//17 28//17 56//17
f 57//17 36//17 44//17
f 38//23 58//23 45//24
f 28//17 45//19 56//17
f 33//25 47//25 60//25
f 48//26 49//26 41//26
f 53//27 35//27 64//27
f 54//28 43//28 66//28
f 44//29 56//29 67//29
f 68//30 36//31 57//31
f 47//32 50//17 74//19
f 49//33 48//33 73//33
f 72//34 48//35 60//36
f 63//37 42//37 62//37
f 63//38 76//38 52//38
f 53//39 64//39 65//39
f 66//40 43//40 65//40
f 54//41 66//41 78//41
f 68//42 64//42 55//42
f 56//29 79//29 67//29
f 80//29 44//29 67//29
f 81//43 68//43 57//43
f 69//29 44//29 80//29
f 58//31 74//31 70//31
f 70//17 84//17 56//17
f 71//21 85//21 46//21
f 59//44 72//44 83//44
f 85//27 72//27 46//27
f 74//19 50//17 84//17
f 83//45 60//45 74//45
f 87//46 48//35 72//34
f 83//47 72//47 60//47
f 92//48 63//48 62//49
f 62//50 77//50 93//50
f 65//51 64//51 68//51
f 66//52 94//52 78//52
f 91//53 54//54 78//55
f 56//29 84//29 79//29
f 97//56 68//56 81//57
f 69//29 80//29 98//29
f 82//58 69//59 98//58
f 70//17 74//17 84//17
f 100//21 85//21 71//21
f 85//60 87//60 72//60
f 101//61 73//61 86//61
f 88//62 3//63 75//62
f 75//64 6//64 89//64
f 50//17 89//17 102//17
f 90//65 76//66 103//66
f 77//67 91//67 93//67
f 92//68 62//69 104//70
f 94//33 106//33 78//33
f 107//71 91//53 78//55
f 67//72 95//72 96//72
f 79//73 108//73 95//73
f 79//29 84//29 109//29
f 80//74 96//74 110//74
f 97//75 81//76 111//77
f 81//78 82//78 111//78
f 114//79 87//79 85//79
f 84//29 102//29 109//29
f 86//52 87//80 114//80
f 89//81 6//81 4//81
f 89//17 4//82 102//17
f 103//66 76//66 117//83
f 103//84 116//84 90//84
f 78//85 120//85 107//85
f 95//86 122//86 96//86
f 109//87 108//87 79//87
f 96//86 124//86 110//86
f 97//88 111//88 125//88
f 82//89 112//89 126//89
f 102//29 128//29 109//29
f 101//90 114//90 129//90
f 3//91 10//92 6//93
f 3//94 2//94 1//94
f 6//31 5//31 4//31
f 131//95 103//96 117//97
f 118//98 91//98 121//98
f 106//88 97//88 125//88
f 95//86 123//86 122//86
f 110//86 124//86 137//86
f 110//86 137//86 112//86
f 131//99 113//100 116//101
f 102//29 130//29 128//29
f 6//102 10//102 9//102
f 3//103 11//103 10//103
f 1//104 12//104 3//104
f 4//17 5//17 130//17
f 8//105 13//105 7//105
f 141//106 115//106 129//106
f 142//107 117//83 119//108
f 118//109 121//109 143//109
f 132//5 105//5 143//5
f 121//110 134//110 143//111
f 122//9 145//9 124//9
f 122//9 123//9 145//9
f 135//9 146//9 123//9
f 137//9 124//9 147//9
f 125//2 126//2 133//2
f 137//86 148//86 112//86
f 126//112 138//113 149//113
f 140//114 113//100 131//99
f 128//115 150//115 136//116
f 130//117 151//117 128//117
f 152//118 129//118 139//118
f 11//27 14//119 10//27
f 1//120 7//120 15//120
f 5//121 153//121 130//121
f 9//122 153//122 5//122
f 7//123 13//123 154//123
f 156//108 142//107 119//108
f 156//5 119//5 144//5
f 144//6 132//6 158//6
f 133//124 149//124 134//124
f 124//9 145//9 160//9
f 123//9 161//9 145//9
f 135//125 150//125 146//125
f 137//9 147//9 148//9
f 149//126 138//126 159//126
f 138//127 148//128 159//129
f 162//130 150//115 128//115
f 152//131 139//131 142//131
f 9//132 14//132 153//132
f 16//119 14//119 11//27
f 18//133 12//133 15//133
f 141//108 152//134 156//108
f 152//135 142//107 156//108
f 158//6 132//6 157//6
f 166//5 156//5 144//5
f 134//136 149//136 159//136
f 161//137 169//137 145//137
f 148//9 147//9 172//9
f 148//138 172//138 159//138
f 162//139 173//139 150//139
f 14//140 175//140 153//140
f 17//141 14//141 16//141
f 15//142 163//143 176//144
f 20//133 18//133 15//133
f 164//145 155//145 165//145
f 178//108 141//108 156//108
f 178//5 156//5 166//5
f 145//137 169//137 168//137
f 171//146 170//146 146//146
f 150//147 173//147 171//147
f 147//137 158//137 172//137
f 173//148 162//148 179//148
f 18//149 19//149 16//149
f 20//150 15//151 176//151
f 20//152 19//152 18//152
f 163//153 165//108 177//154
f 181//5 178//5 166//5
f 169//6 181//6 168//6
f 170//6 182//6 169//6
f 173//147 183//155 171//147
f 173//156 179//156 183//156
f 175//157 17//157 22//158
f 21//150 20//150 176//151
f 21//159 19//160 20//159
f 24//108 177//108 178//108
f 183//161 185//161 170//161
f 179//162 180//162 186//162
f 186//163 175//163 22//163
f 185//164 184//164 182//164
f 179//162 186//162 187//162
f 186//165 22//165 23//165
f 25//166 23//166 21//166
f 187//167 23//167 188//167
f 23//168 25//168 188//168
usemtl material-2
f 31//134 28//108 26//65
f 31//169 26//169 27//169
f 35//170 27//170 30//170
f 36//171 28//108 31//134
f 38//172 32//172 28//172
f 43//9 29//9 34//9
f 36//171 31//134 37//173
f 38//174 39//175 32//176
f 47//177 40//177 33//177
f 51//178 34//179 42//178
f 53//180 35//180 29//180
f 54//181 43//181 34//181
f 36//182 37//182 55//182
f 58//175 39//175 38//174
f 46//183 39//183 59//183
f 47//65 50//65 40//65
f 60//184 33//184 48//184
f 54//181 34//181 51//181
f 51//185 42//186 62//187
f 42//188 52//189 63//189
f 65//190 53//190 43//190
f 55//6 35//6 64//6
f 69//108 44//108 57//108
f 36//5 55//5 68//5
f 58//191 59//191 39//191
f 70//192 58//192 45//192
f 56//153 70//153 45//153
f 59//137 72//137 46//137
f 74//193 47//193 60//193
f 75//194 61//194 50//194
f 54//72 51//72 77//72
f 77//72 51//195 62//195
f 82//196 69//196 57//197
f 58//6 83//6 59//6
f 86//156 48//156 73//156
f 75//198 88//198 61//198
f 89//199 75//199 50//199
f 91//200 54//200 77//200
f 92//201 63//201 76//201
f 66//147 94//147 65//147
f 67//202 95//202 79//202
f 80//151 96//151 67//151
f 82//196 57//197 81//203
f 74//204 83//5 58//5
f 102//108 50//108 84//108
f 86//205 87//205 48//205
f 93//206 62//207 104//208
f 105//17 92//209 76//17
f 97//170 68//170 65//170
f 97//210 65//210 94//210
f 98//150 110//211 80//211
f 82//212 112//213 98//212
f 113//214 99//214 71//214
f 85//215 114//215 100//215
f 71//181 100//181 113//181
f 114//216 86//216 101//216
f 6//217 3//217 75//217
f 3//218 2//218 88//218
f 88//219 2//220 8//220
f 118//221 91//222 93//221
f 105//17 104//208 92//209
f 118//17 93//206 104//208
f 105//17 76//17 119//17
f 106//223 97//223 94//223
f 78//156 120//156 106//156
f 121//224 107//225 91//225
f 95//226 123//226 108//226
f 126//227 82//228 111//227
f 112//211 110//150 98//211
f 116//229 99//229 113//229
f 127//230 100//230 114//230
f 113//86 100//86 127//86
f 102//108 130//108 4//108
f 129//231 101//232 115//232
f 119//17 76//17 117//233
f 116//234 131//234 103//234
f 118//17 104//208 105//17
f 132//31 105//31 119//31
f 133//162 106//162 120//162
f 121//224 134//235 107//225
f 134//236 120//236 107//236
f 124//226 122//226 96//226
f 123//226 135//237 108//226
f 108//238 136//211 109//239
f 125//240 126//240 111//240
f 126//241 138//242 112//243
f 139//244 127//244 114//245
f 113//246 127//72 140//246
f 109//239 136//211 128//151
f 139//231 114//231 129//231
f 117//233 131//247 140//248
f 143//31 118//31 105//31
f 132//31 119//31 144//31
f 133//162 125//162 106//162
f 134//236 133//236 120//236
f 108//226 135//226 136//226
f 138//152 148//152 112//152
f 140//246 127//72 139//74
f 152//249 129//249 141//249
f 117//233 139//29 142//250
f 117//233 140//251 139//29
f 157//42 143//42 132//42
f 159//252 134//252 143//252
f 161//21 146//21 123//21
f 135//253 150//253 136//253
f 147//21 160//21 124//21
f 149//163 126//163 133//163
f 128//254 162//254 151//254
f 151//255 153//255 130//255
f 163//256 7//257 15//256
f 164//257 154//257 7//257
f 165//19 141//17 155//258
f 159//24 143//24 157//24
f 158//44 144//44 167//44
f 160//119 168//119 145//119
f 161//27 170//119 146//119
f 146//259 171//259 150//259
f 147//27 167//119 160//119
f 162//260 174//260 151//261
f 151//261 174//260 153//260
f 163//256 164//257 7//257
f 177//19 141//17 165//19
f 159//262 157//262 172//262
f 157//119 158//119 172//119
f 167//44 144//44 166//102
f 158//27 167//119 147//27
f 167//119 168//119 160//119
f 169//27 170//119 161//27
f 162//263 180//263 174//263
f 153//264 174//264 175//264
f 175//174 17//174 14//174
f 16//138 17//138 19//138
f 163//256 165//256 164//257
f 177//265 163//265 176//265
f 178//17 141//17 177//19
f 167//44 166//102 168//42
f 171//266 170//266 183//266
f 179//267 180//267 162//267
f 180//268 175//269 174//269
f 22//4 19//4 17//4
f 177//29 176//29 21//29
f 181//31 178//31 184//31
f 168//102 166//102 181//102
f 169//44 181//44 182//44
f 170//270 182//271 185//270
f 183//33 187//33 179//33
f 186//2 175//2 180//2
f 177//29 21//29 24//29
f 178//17 24//17 184//17
f 181//31 184//31 182//31
f 183//272 185//273 188//274
f 188//275 187//275 183//275
f 185//276 184//277 24//278
f 185//279 25//279 188//279
f 187//280 23//280 186//280
f 185//276 24//278 25//278
