# SSTK version 0.8.0
# 5
mtllib original-5.mtl
o mesh8/mesh8-geometry#mesh8-geometry
v 0.102049 -0.240402 -0.260637
v 0.101612 -0.240584 0.184382
v 0.101612 -0.240584 -0.260637
v 0.102049 -0.240402 0.184382
v 0.102425 -0.240113 -0.260637
v 0.102714 -0.239737 0.184382
v 0.102425 -0.240113 0.184382
v 0.101141 -0.240646 0.184382
v 0.102714 -0.239737 -0.260637
v 0.102896 -0.239300 0.184382
v 0.102049 -0.237256 0.184382
v 0.102425 -0.237545 0.184382
v 0.102714 -0.237921 0.184382
v 0.101612 -0.237074 0.184382
v 0.101141 -0.240646 -0.260637
v 0.101141 -0.237013 0.184382
v 0.102714 -0.237921 -0.260637
v 0.102896 -0.239300 -0.260637
v 0.102896 -0.238360 0.184382
v 0.102957 -0.238829 0.184382
v 0.100671 -0.240584 -0.260637
v 0.100671 -0.240584 0.184382
v 0.101612 -0.237074 -0.260637
v 0.102049 -0.237256 -0.260637
v 0.102425 -0.237545 -0.260637
v 0.100671 -0.237074 0.184382
v 0.102896 -0.238360 -0.260637
v 0.102957 -0.238829 -0.260637
v 0.101141 -0.237013 -0.260637
v 0.100233 -0.240402 -0.260637
v 0.100233 -0.240402 0.184382
v 0.099857 -0.240113 -0.260637
v 0.100671 -0.237074 -0.260637
v 0.099857 -0.240113 0.184382
v 0.099857 -0.237545 0.184382
v 0.100233 -0.237256 0.184382
v 0.100233 -0.237256 -0.260637
v 0.099568 -0.239737 0.184382
v 0.099857 -0.237545 -0.260637
v 0.099568 -0.237921 -0.260637
v 0.099568 -0.239737 -0.260637
v 0.099568 -0.237921 0.184382
v 0.099386 -0.239300 0.184382
v 0.099386 -0.238360 0.184382
v 0.099325 -0.238829 0.184382
v 0.099386 -0.239300 -0.260637
v 0.099386 -0.238360 -0.260637
v 0.099325 -0.238829 -0.260637
vn 0.5000001748438417 -0.8660253028382762 0
vn 0.2588189595935754 -0.965925849201117 0
vn -0.2588189595935754 0.965925849201117 0
vn -0.5000001748438417 0.8660253028382762 0
vn 0.7071067811865476 -0.7071067811865476 0
vn 0.8660253028382762 -0.5000001748438417 0
vn -0.7071067811865476 0.7071067811865476 0
vn -0.8660253028382762 0.5000001748438417 0
vn 0 1 0
vn 0.965925849201117 -0.2588189595935754 0
vn -0.965925849201117 0.2588189595935754 0
vn 0 0 1
vn 0 0 -1
vn 0 -1 0
vn -0.2588189595935754 -0.965925849201117 0
vn 0.2588189595935754 0.965925849201117 0
vn 1 0 0
vn -1 0 0
vn 0.965925849201117 0.2588189595935754 0
vn -0.5000001748438417 -0.8660253028382762 0
vn 0.7071067811865476 0.7071067811865476 0
vn 0.5000001748438417 0.8660253028382762 0
vn -0.7071067811865476 -0.7071067811865476 0
vn -0.965925849201117 -0.2588189595935754 0
vn 0.8660253028382762 0.5000001748438417 0
vn -0.8660253028382762 -0.5000001748438417 0
usemtl material_0_0
f 1//1 2//2 3//2
f 2//2 1//1 4//1
f 3//3 2//3 1//4
f 4//4 1//4 2//3
f 5//5 6//6 7//5
f 7//7 6//8 5//7
f 5//5 4//1 1//1
f 4//1 5//5 7//5
f 1//4 4//4 5//7
f 7//7 5//7 4//4
f 2//3 3//3 8//9
f 6//6 5//5 9//6
f 9//8 5//7 6//8
f 9//6 10//10 6//6
f 6//8 10//11 9//8
f 11//12 4//12 7//12
f 12//12 7//12 6//12
f 13//12 6//12 10//12
f 4//13 2//13 14//13
f 7//13 4//13 11//13
f 6//13 7//13 12//13
f 10//13 6//13 13//13
f 3//2 8//14 15//14
f 8//14 3//2 2//2
f 15//9 8//9 3//3
f 16//12 8//12 2//12
f 14//12 2//12 4//12
f 2//13 8//13 16//13
f 5//13 17//13 9//13
f 10//10 9//6 18//10
f 18//11 9//8 10//11
f 14//12 4//12 11//12
f 11//12 7//12 12//12
f 11//13 4//13 14//13
f 12//13 7//13 11//13
f 12//12 6//12 13//12
f 13//12 10//12 19//12
f 13//13 6//13 12//13
f 14//13 2//13 16//13
f 19//12 10//12 20//12
f 19//13 10//13 13//13
f 8//14 21//15 15//14
f 21//15 8//14 22//15
f 15//9 21//16 8//9
f 22//16 8//9 21//16
f 15//13 23//13 3//13
f 3//13 24//13 1//13
f 1//13 25//13 5//13
f 3//12 23//12 15//12
f 1//12 24//12 3//12
f 5//12 25//12 1//12
f 26//12 8//12 16//12
f 16//12 2//12 14//12
f 16//13 8//13 26//13
f 5//13 25//13 17//13
f 9//13 17//13 27//13
f 9//13 27//13 18//13
f 17//12 25//12 5//12
f 9//12 17//12 5//12
f 27//12 17//12 9//12
f 18//13 27//13 28//13
f 18//12 27//12 9//12
f 18//10 20//17 10//10
f 20//17 18//10 28//17
f 10//11 20//18 18//11
f 28//18 18//11 20//18
f 28//17 19//19 20//17
f 19//19 28//17 27//19
f 14//15 23//15 11//20
f 12//21 24//22 11//22
f 11//20 24//20 12//23
f 20//18 19//24 28//18
f 20//13 10//13 19//13
f 14//16 29//9 16//9
f 16//14 29//14 14//15
f 11//22 23//16 14//16
f 22//15 30//20 21//15
f 21//16 30//22 22//16
f 31//20 32//23 30//20
f 30//22 32//21 31//22
f 30//13 33//13 21//13
f 21//13 29//13 15//13
f 15//12 29//12 21//12
f 8//13 22//13 26//13
f 31//22 22//16 30//22
f 15//13 29//13 23//13
f 3//13 23//13 24//13
f 1//13 24//13 25//13
f 23//12 29//12 15//12
f 24//12 23//12 3//12
f 25//12 24//12 1//12
f 26//12 22//12 8//12
f 31//13 34//13 35//13
f 36//13 31//13 35//13
f 22//13 31//13 36//13
f 26//13 22//13 36//13
f 29//9 26//3 16//9
f 16//14 26//2 29//14
f 36//12 22//12 26//12
f 33//3 36//4 26//3
f 26//2 36//1 33//2
f 37//4 35//7 36//4
f 27//24 28//18 19//24
f 28//12 27//12 18//12
f 27//19 13//25 19//19
f 13//25 27//19 17//25
f 19//24 13//26 27//24
f 17//26 27//24 13//26
f 17//25 12//21 13//25
f 13//26 12//23 17//26
f 12//21 17//25 25//21
f 25//23 17//26 12//23
f 23//15 14//15 29//14
f 23//16 11//22 24//22
f 24//20 11//20 23//15
f 24//22 12//21 25//21
f 25//23 12//23 24//20
f 29//9 14//16 23//16
f 30//20 22//15 31//20
f 32//23 31//20 34//23
f 34//21 31//22 32//21
f 38//26 32//23 34//23
f 32//13 39//13 37//13
f 32//13 37//13 30//13
f 30//13 37//13 33//13
f 39//12 40//12 41//12
f 32//12 39//12 41//12
f 37//12 39//12 32//12
f 30//12 37//12 32//12
f 33//12 37//12 30//12
f 21//13 33//13 29//13
f 21//12 33//12 30//12
f 29//12 33//12 21//12
f 36//12 31//12 22//12
f 35//12 34//12 31//12
f 34//13 38//13 42//13
f 34//21 32//21 38//25
f 38//25 41//25 43//19
f 44//12 38//12 42//12
f 42//12 38//12 34//12
f 42//12 34//12 35//12
f 45//13 44//13 43//13
f 38//13 43//13 44//13
f 42//13 38//13 44//13
f 35//13 34//13 42//13
f 45//18 46//24 43//24
f 35//12 31//12 36//12
f 26//3 29//9 33//3
f 33//2 29//14 26//2
f 36//4 33//3 37//4
f 37//1 33//2 36//1
f 35//7 40//8 42//8
f 40//8 35//7 39//7
f 39//5 35//5 40//6
f 35//7 37//4 39//7
f 36//1 35//5 37//1
f 39//5 37//1 35//5
f 41//13 39//13 32//13
f 41//12 40//12 46//12
f 41//13 40//13 39//13
f 40//12 47//12 46//12
f 41//26 43//24 46//24
f 46//19 43//19 41//25
f 46//13 40//13 41//13
f 32//23 38//26 41//26
f 41//25 38//25 32//21
f 43//24 41//26 38//26
f 44//11 48//18 45//18
f 45//17 48//17 44//10
f 44//12 43//12 38//12
f 42//6 40//6 35//5
f 42//8 47//11 44//11
f 44//10 47//10 42//6
f 43//12 44//12 45//12
f 43//19 46//19 45//17
f 46//24 45//18 48//18
f 48//17 45//17 46//19
f 47//11 42//8 40//8
f 40//6 42//6 47//10
f 46//13 47//13 40//13
f 48//12 46//12 47//12
f 48//18 44//11 47//11
f 47//10 44//10 48//17
f 47//13 46//13 48//13
