# SSTK version 0.8.0
# 76
mtllib original-76.mtl
o Drawer_Bottom1/Drawer_Bottom/mesh120/mesh120-geometry#mesh120-geometry
v 0.289487 -0.023979 0.196802
v -0.255030 -0.023979 -0.168981
v -0.255030 -0.023979 0.196802
v 0.289487 -0.023979 -0.168981
v -0.255030 -0.032292 0.196802
v 0.289487 -0.032292 -0.168981
v -0.255030 -0.032292 -0.168981
v 0.289487 -0.032292 0.196802
vt 0.153625 0.0895
vt 0.573154 0.904023
vt 0.153625 0.904023
vt 0.573153 0.0895
vt -0.424296 0.012435
vt -0.004767 0
vt -0.004767 0.012435
vt 0 -0.005803
vt 0.008899 -0.766012
vt 0.008899 -0.005803
vt 0.004767 0.012435
vt 0.424296 0
vt 0.424296 0.012435
vt -0.629293 0.012435
vt -0.424296 0
vt 0 -0.766012
vt 0.004767 0
vt -0.629293 0
vt -0.484687 0.787822
vt -0.854633 0.069565
vt -0.484687 0.069565
vt -0.854633 0.787822
vn 0 1 0
vn -1 0 0
vn 0 0 1
vn 1 0 0
vn 0 0 -1
vn 0 -1 0
usemtl material_0_0
f 1/1/1 2/2/1 3/3/1
f 2/2/1 1/1/1 4/4/1
f 2/5/2 5/6/2 3/7/2
f 5/8/3 1/9/3 3/10/3
f 1/11/4 6/12/4 4/13/4
f 4/14/5 7/6/5 2/7/5
f 5/6/2 2/5/2 7/15/2
f 1/9/3 5/8/3 8/16/3
f 6/12/4 1/11/4 8/17/4
f 7/6/5 4/14/5 6/18/5
f 6/19/6 5/20/6 7/21/6
f 5/20/6 6/19/6 8/22/6
usemtl material_1_0
f 3//6 2//6 1//6
f 4//6 1//6 2//6
f 3//4 5//4 2//4
f 3//5 1//5 5//5
f 4//2 6//2 1//2
f 2//3 7//3 4//3
f 7//4 2//4 5//4
f 8//5 5//5 1//5
f 8//2 1//2 6//2
f 6//3 4//3 7//3
f 7//1 5//1 6//1
f 8//1 6//1 5//1
