# SSTK version 0.8.0
# 523
mtllib original-523.mtl
o #ID3142
v 0.114036 0.363711 0.504342
v 0.115260 0.363456 0.504391
v 0.114320 0.363456 0.504391
v 0.115260 0.363711 0.504342
v 0.114036 0.361668 0.504734
v 0.114320 0.362656 0.504540
v 0.114320 0.362892 0.504497
v 0.114990 0.362656 0.504540
v 0.114990 0.362892 0.504497
v 0.114320 0.361919 0.504685
v 0.115260 0.361668 0.504734
v 0.115260 0.361919 0.504685
vn -0.001121743874103953 -0.18697127530298377 -0.9823647407670212
vn 0 -0.18576589078020694 -0.982594033068915
vn -0.001913408799595625 -0.18675049454495987 -0.9824055128377377
vn 0.001121743874103953 0.18697127530298377 0.9823647407670212
vn 0 0.18576589078020694 0.982594033068915
vn 0.001913408799595625 0.18675049454495987 0.9824055128377377
vn -0.001291868865066159 -0.1900636981565474 -0.9817709110163594
vn 0.001291868865066159 0.1900636981565474 0.9817709110163594
vn -0.01724663064275408 -0.18348385593327238 -0.9828714200460457
vn 0.01724663064275408 0.18348385593327238 0.9828714200460457
vn -0.01910214111082949 -0.1829624343035726 -0.9829343090149477
vn 0.01910214111082949 0.1829624343035726 0.9829343090149477
vn 0 -0.1810398246412903 -0.9834757657887919
vn 0 0.1810398246412903 0.9834757657887919
vn 0.0015151320211290059 -0.19105058443863945 -0.981579023085056
vn -0.0015151320211290059 0.19105058443863945 0.981579023085056
vn 0 -0.18939364329511574 -0.981901241408423
vn 0 0.18939364329511574 0.981901241408423
usemtl material_0_2
f 1//1 2//2 3//3
f 3//6 2//5 1//4
f 2//2 1//1 4//2
f 4//5 1//4 2//5
f 1//1 3//3 5//7
f 5//8 3//6 1//4
f 3//3 6//9 5//7
f 5//8 6//10 3//6
f 6//9 3//3 7//11
f 7//12 3//6 6//10
f 7//11 8//13 6//9
f 6//10 8//14 7//12
f 8//13 7//11 9//13
f 9//14 7//12 8//14
f 6//9 10//15 5//7
f 5//8 10//16 6//10
f 10//15 11//17 5//7
f 5//8 11//18 10//16
f 11//17 10//15 12//17
f 12//18 10//16 11//18
