# SSTK version 0.8.0
# 65
mtllib original-65.mtl
o #ID394
v -0.325445 0.366149 0.503874
v -0.325835 0.366766 0.503758
v -0.325262 0.366144 0.503874
v -0.325613 0.366178 0.503869
v -0.325777 0.366221 0.503860
v -0.325054 0.366154 0.503874
v -0.325927 0.366284 0.503850
v -0.326066 0.366361 0.503835
vn -0.004662875583953442 -0.18745506427412248 -0.9822621118974676
vn -0.0016831844778566307 -0.1844007893523537 -0.982849691344634
vn 0.004801911069037009 -0.17899820657072157 -0.9838376815789027
vn 0.004662875583953442 0.18745506427412248 0.9822621118974676
vn 0.0016831844778566307 0.1844007893523537 0.982849691344634
vn -0.004801911069037009 0.17899820657072157 0.9838376815789027
vn -0.0001122432969384622 -0.18579071616987428 -0.982589332929341
vn 0.0001122432969384622 0.18579071616987428 0.982589332929341
vn 0.0016776929790141544 -0.18296035142910957 -0.983118861151186
vn -0.0016776929790141544 0.18296035142910957 0.983118861151186
vn 0.00818458104304972 -0.17596849242601187 -0.9843617740985611
vn -0.00818458104304972 0.17596849242601187 0.9843617740985611
vn -0.008548201292981275 -0.18537061602761068 -0.9826314990718539
vn 0.008548201292981275 0.18537061602761068 0.9826314990718539
vn -0.00168030681822245 -0.18663670691046078 -0.9824275628272119
vn 0.00168030681822245 0.18663670691046078 0.9824275628272119
usemtl material_0_2
f 1//1 2//2 3//3
f 3//6 2//5 1//4
f 2//2 1//1 4//7
f 4//8 1//4 2//5
f 2//2 4//7 5//9
f 5//10 4//8 2//5
f 2//2 6//11 3//3
f 3//6 6//12 2//5
f 2//2 5//9 7//13
f 7//14 5//10 2//5
f 2//2 7//13 8//15
f 8//16 7//14 2//5
