# SSTK version 0.8.0
# 396
mtllib original-396.mtl
o #ID2380
v -0.100079 0.366486 0.503811
v -0.099959 0.366318 0.503845
v -0.099964 0.363995 0.504284
v -0.100224 0.366631 0.503782
v -0.099863 0.366130 0.503879
v -0.100383 0.366746 0.503763
v -0.099785 0.365923 0.503917
v -0.100224 0.365585 0.503980
v -0.099732 0.365691 0.503961
v -0.100195 0.365176 0.504062
v -0.100311 0.365923 0.503917
v -0.099699 0.365446 0.504009
v -0.100205 0.364959 0.504101
v -0.100450 0.366188 0.503869
v -0.099689 0.365176 0.504062
v -0.100224 0.364761 0.504140
v -0.100648 0.366376 0.503831
v -0.099699 0.364896 0.504115
v -0.100262 0.364578 0.504173
v -0.100903 0.366486 0.503811
v -0.099732 0.364641 0.504164
v -0.100311 0.364415 0.504207
v -0.101216 0.366525 0.503802
v -0.100378 0.364265 0.504236
v -0.100455 0.364135 0.504260
v -0.100552 0.364019 0.504280
v -0.100658 0.363928 0.504299
v -0.100778 0.363856 0.504313
vn 0.011621049457925078 -0.1860906569140197 -0.9824638510493937
vn 0.010417792377615013 -0.1859040427861523 -0.9825126749705275
vn -0.0020093376413656315 -0.1860415011018631 -0.9825398324902703
vn -0.011621049457925078 0.1860906569140197 0.9824638510493937
vn -0.010417792377615013 0.1859040427861523 0.9825126749705275
vn 0.0020093376413656315 0.1860415011018631 0.9825398324902703
vn -0.011250341243524812 -0.18822304646675 -0.9820618690289731
vn 0.011250341243524812 0.18822304646675 0.9820618690289731
vn -0.01637781493626532 -0.1858862312207072 -0.9824347694480663
vn 0.01637781493626532 0.1858862312207072 0.9824347694480663
vn -0.003633540067909437 -0.18628737309530347 -0.9824885811101451
vn 0.003633540067909437 0.18628737309530347 0.9824885811101451
vn -0.008597363888747897 -0.1862654772333366 -0.9824618350476529
vn 0.008597363888747897 0.1862654772333366 0.9824618350476529
vn 0.13862822439196934 -0.16400834600932782 -0.9766695847835205
vn -0.13862822439196934 0.16400834600932782 0.9766695847835205
vn -0.005184721564329355 -0.1866761223195752 -0.9824078297825335
vn 0.005184721564329355 0.1866761223195752 0.9824078297825335
vn -0.0851796890367758 -0.20033877391623595 -0.9760168012085332
vn 0.0851796890367758 0.20033877391623595 0.9760168012085332
vn -0.008937620185871069 -0.1851356304012376 -0.982672334657565
vn 0.008937620185871069 0.1851356304012376 0.982672334657565
vn 0.02072040406174024 -0.19008477316719874 -0.9815490022742077
vn -0.02072040406174024 0.19008477316719874 0.9815490022742077
vn 0.03408631055580949 -0.17865365279437062 -0.9833214102092568
vn -0.03408631055580949 0.17865365279437062 0.9833214102092568
vn -0.005729611163106014 -0.18623539214634924 -0.9824884479056307
vn 0.005729611163106014 0.18623539214634924 0.9824884479056307
vn 0.030734419471192636 -0.1917322092760722 -0.9809659297783412
vn -0.030734419471192636 0.1917322092760722 0.9809659297783412
vn -0.010623127358674092 -0.18923759244070124 -0.9818738629642652
vn 0.010623127358674092 0.18923759244070124 0.9818738629642652
vn 0.005161023416913106 -0.18294437332959348 -0.9831097192604354
vn -0.005161023416913106 0.18294437332959348 0.9831097192604354
vn 0.009207215343963808 -0.1869848664460091 -0.9823196459940002
vn -0.009207215343963808 0.1869848664460091 0.9823196459940002
vn 0.0013973301156495852 -0.18636125240848458 -0.9824802955119706
vn -0.0013973301156495852 0.18636125240848458 0.9824802955119706
vn 0.0039463311159738685 -0.19023986545021127 -0.9817297082518225
vn -0.0039463311159738685 0.19023986545021127 0.9817297082518225
vn 0.01115518761232371 -0.18753436009987545 -0.9821946984031548
vn -0.01115518761232371 0.18753436009987545 0.9821946984031548
vn -0.015474612058779714 -0.1934439138631887 -0.9809892907524126
vn 0.015474612058779714 0.1934439138631887 0.9809892907524126
vn 0.006225094103129119 -0.19463510182545918 -0.9808559656447018
vn -0.006225094103129119 0.19463510182545918 0.9808559656447018
vn -0.005458652159801366 -0.18407575141612642 -0.98289690245579
vn 0.005458652159801366 0.18407575141612642 0.98289690245579
vn -0.00042412811826995916 -0.17135541390597808 -0.9852091870463096
vn 0.00042412811826995916 0.17135541390597808 0.9852091870463096
vn 0.0001273523701174896 -0.19501428184084899 -0.9808003944021798
vn -0.0001273523701174896 0.19501428184084899 0.9808003944021798
vn -0.00145513471535157 -0.19586816876790059 -0.9806291567389119
vn 0.00145513471535157 0.19586816876790059 0.9806291567389119
vn -0.0017074787268325099 -0.19337874154923282 -0.9811226971348855
vn 0.0017074787268325099 0.19337874154923282 0.9811226971348855
usemtl material_0_2
f 1//1 2//2 3//3
f 3//6 2//5 1//4
f 4//7 1//1 3//3
f 3//6 1//4 4//8
f 2//2 5//9 3//3
f 3//6 5//10 2//5
f 6//11 4//7 3//3
f 3//6 4//8 6//12
f 5//9 7//13 3//3
f 3//6 7//14 5//10
f 6//11 3//3 8//15
f 8//16 3//6 6//12
f 7//13 9//17 3//3
f 3//6 9//18 7//14
f 8//15 3//3 10//19
f 10//20 3//6 8//16
f 6//11 8//15 11//21
f 11//22 8//16 6//12
f 9//17 12//23 3//3
f 3//6 12//24 9//18
f 10//19 3//3 13//25
f 13//26 3//6 10//20
f 6//11 11//21 14//27
f 14//28 11//22 6//12
f 12//23 15//29 3//3
f 3//6 15//30 12//24
f 13//25 3//3 16//31
f 16//32 3//6 13//26
f 6//11 14//27 17//33
f 17//34 14//28 6//12
f 15//29 18//35 3//3
f 3//6 18//36 15//30
f 16//31 3//3 19//37
f 19//38 3//6 16//32
f 6//11 17//33 20//39
f 20//40 17//34 6//12
f 18//35 21//41 3//3
f 3//6 21//42 18//36
f 19//37 3//3 22//43
f 22//44 3//6 19//38
f 6//11 20//39 23//45
f 23//46 20//40 6//12
f 22//43 3//3 24//47
f 24//48 3//6 22//44
f 24//47 3//3 25//49
f 25//50 3//6 24//48
f 25//49 3//3 26//51
f 26//52 3//6 25//50
f 26//51 3//3 27//53
f 27//54 3//6 26//52
f 3//3 28//55 27//53
f 27//54 28//56 3//6
