# SSTK version 0.8.0
# 540
mtllib original-540.mtl
o #ID3244
v 0.112653 0.337279 0.509393
v 0.112687 0.336836 0.509480
v 0.112537 0.336841 0.509475
v 0.112822 0.336826 0.509480
v 0.112937 0.336807 0.509485
v 0.113043 0.336783 0.509489
v 0.113140 0.336749 0.509494
vn 0.004649793733535915 -0.19174445406446777 -0.9814338713096031
vn 0.0041087036197910735 -0.1921198399704784 -0.9813628715435909
vn 0.0251864447899375 -0.19051573052062415 -0.9813609934285326
vn -0.004649793733535915 0.19174445406446777 0.9814338713096031
vn -0.0041087036197910735 0.1921198399704784 0.9813628715435909
vn -0.0251864447899375 0.19051573052062415 0.9813609934285326
vn 0.001923440903534514 -0.18778424921910658 -0.9822084178626789
vn -0.001923440903534514 0.18778424921910658 0.9822084178626789
vn 0.0035483833355890145 -0.1887559292364286 -0.982017621101473
vn -0.0035483833355890145 0.1887559292364286 0.982017621101473
vn -0.019583331192753458 -0.20576037891373083 -0.9784064388630489
vn 0.019583331192753458 0.20576037891373083 0.9784064388630489
vn -0.025061557553905503 -0.20987356860218312 -0.9774072864139888
vn 0.025061557553905503 0.20987356860218312 0.9774072864139888
usemtl material_0_2
f 1//1 2//2 3//3
f 3//6 2//5 1//4
f 1//1 4//7 2//2
f 2//5 4//8 1//4
f 1//1 5//9 4//7
f 4//8 5//10 1//4
f 1//1 6//11 5//9
f 5//10 6//12 1//4
f 1//1 7//13 6//11
f 6//12 7//14 1//4
