# SSTK version 0.8.0
# 581
mtllib original-581.mtl
o #ID3490
v 0.338173 0.366660 0.503778
v 0.339787 0.366226 0.503860
v 0.337686 0.366226 0.503860
v 0.339787 0.366660 0.503778
v 0.338173 0.367917 0.503536
v 0.338173 0.369295 0.503275
v 0.338173 0.368322 0.503459
v 0.337686 0.369724 0.503193
v 0.339787 0.369295 0.503275
v 0.339787 0.369724 0.503193
v 0.339324 0.367917 0.503536
v 0.339324 0.368322 0.503459
vn 0.0012030943821094119 -0.18722643190173366 -0.9823160467798809
vn 0 -0.18592300351250368 -0.9825643168591508
vn 0.0003313973475787419 -0.18698744386167457 -0.9823622478566015
vn -0.0012030943821094119 0.18722643190173366 0.9823160467798809
vn 0 0.18592300351250368 0.9825643168591508
vn -0.0003313973475787419 0.18698744386167457 0.9823622478566015
vn -0.004174707354181725 -0.18666645034638069 -0.9824144787886572
vn 0.004174707354181725 0.18666645034638069 0.9824144787886572
vn -0.0001936615943046112 -0.18707053637677348 -0.9823464648050061
vn 0.0001936615943046112 0.18707053637677348 0.9823464648050061
vn -0.004733423491269134 -0.18651081830371818 -0.9824415042931205
vn 0.004733423491269134 0.18651081830371818 0.9824415042931205
vn 0.00004053541662094068 -0.18710917225814028 -0.9823391247495712
vn -0.00004053541662094068 0.18710917225814028 0.9823391247495712
vn 0 -0.18767626876131438 -0.9822309393130675
vn 0 0.18767626876131438 0.9822309393130675
usemtl material_0_2
f 1//1 2//2 3//3
f 3//6 2//5 1//4
f 2//2 1//1 4//2
f 4//5 1//4 2//5
f 5//7 1//1 3//3
f 3//6 1//4 5//8
f 6//9 5//7 3//3
f 3//6 5//8 6//10
f 5//7 6//9 7//11
f 7//12 6//10 5//8
f 8//13 6//9 3//3
f 3//6 6//10 8//14
f 6//9 8//13 9//13
f 9//14 8//14 6//10
f 9//13 8//13 10//13
f 10//14 8//14 9//14
f 7//11 11//15 5//7
f 5//8 11//16 7//12
f 11//15 7//11 12//15
f 12//16 7//12 11//16
