# SSTK version 0.8.0
# 105
mtllib original-105.mtl
o #ID634
v -0.319008 0.332080 0.510388
v -0.318579 0.331512 0.510494
v -0.318844 0.331734 0.510450
v -0.318227 0.331435 0.510508
v -0.318627 0.331921 0.510417
v -0.318733 0.332186 0.510368
v -0.318767 0.332509 0.510306
v -0.318733 0.332837 0.510243
v -0.318574 0.333473 0.510122
v -0.319066 0.332509 0.510306
v -0.319008 0.332914 0.510228
v -0.318839 0.333251 0.510161
vn 0.002191355138638736 -0.18438659133407007 -0.9828513534094864
vn 0.002099982653527207 -0.18215386815826695 -0.9832677958663323
vn 0.02107591460188192 -0.16826181002270327 -0.9855170059981603
vn -0.002191355138638736 0.18438659133407007 0.9828513534094864
vn -0.002099982653527207 0.18215386815826695 0.9832677958663323
vn -0.02107591460188192 0.16826181002270327 0.9855170059981603
vn -0.0009258396846873906 -0.18490918465138598 -0.9827551761514349
vn 0.0009258396846873906 0.18490918465138598 0.9827551761514349
vn -0.0031276785056643048 -0.1864153792526164 -0.9824660421639358
vn 0.0031276785056643048 0.1864153792526164 0.9824660421639358
vn 0.002385004022709518 -0.18529509745479236 -0.9826800286029175
vn -0.002385004022709518 0.18529509745479236 0.9826800286029175
vn 0.0008233341496209084 -0.18849119957585916 -0.9820745337311887
vn -0.0008233341496209084 0.18849119957585916 0.9820745337311887
vn -0.01240724803629327 -0.18368759413658076 -0.9829063678481693
vn 0.01240724803629327 0.18368759413658076 0.9829063678481693
vn 0.0120716266071033 -0.1963430810644325 -0.9804609478960313
vn -0.0120716266071033 0.1963430810644325 0.9804609478960313
vn 0.001459156053676889 -0.18781596710528045 -0.9822031527967721
vn -0.001459156053676889 0.18781596710528045 0.9822031527967721
vn 0.0038575361533759204 -0.18961130699154577 -0.9818516546178365
vn -0.0038575361533759204 0.18961130699154577 0.9818516546178365
vn 0.036095428352840284 -0.21357841904698205 -0.9762588688300949
vn -0.036095428352840284 0.21357841904698205 0.9762588688300949
usemtl material_0_2
f 1//1 2//2 3//3
f 3//6 2//5 1//4
f 1//1 4//7 2//2
f 2//5 4//8 1//4
f 1//1 5//9 4//7
f 4//8 5//10 1//4
f 6//11 5//9 1//1
f 1//4 5//10 6//12
f 7//13 6//11 1//1
f 1//4 6//12 7//14
f 8//15 7//13 1//1
f 1//4 7//14 8//16
f 9//17 8//15 1//1
f 1//4 8//16 9//18
f 10//19 9//17 1//1
f 1//4 9//18 10//20
f 9//17 10//19 11//21
f 11//22 10//20 9//18
f 9//17 11//21 12//23
f 12//24 11//22 9//18
