# SSTK version 0.8.0
# 592
mtllib original-592.mtl
o #ID3556
v 0.336347 0.364044 0.504275
v 0.335055 0.360502 0.504956
v 0.335826 0.364044 0.504275
v 0.334944 0.361476 0.504767
v 0.334019 0.364044 0.504275
v 0.333485 0.364044 0.504275
v 0.334814 0.360502 0.504956
vn 0 -0.1887750426706964 -0.9820203578667178
vn 0.000016656012768930764 -0.18904842779514278 -0.9819677650874096
vn 0.0002032021722514993 -0.1888176967408003 -0.9820121364353784
vn 0 0.1887750426706964 0.9820203578667178
vn -0.000016656012768930764 0.18904842779514278 0.9819677650874096
vn -0.0002032021722514993 0.1888176967408003 0.9820121364353784
vn -0.0016164705792502065 -0.19002686384155335 -0.9817775603676273
vn 0.0016164705792502065 0.19002686384155335 0.9817775603676273
vn -0.00019684997519916594 -0.18883056868502934 -0.9820096626714911
vn 0.00019684997519916594 0.18883056868502934 0.9820096626714911
vn 0 -0.1887750426706968 -0.9820203578667178
vn 0 0.1887750426706968 0.9820203578667178
usemtl material_0_2
f 1//1 2//2 3//3
f 3//6 2//5 1//4
f 3//3 2//2 4//7
f 4//8 2//5 3//6
f 5//9 4//7 2//2
f 2//5 4//8 5//10
f 6//11 2//2 7//11
f 7//12 2//5 6//12
f 2//2 6//11 5//9
f 5//10 6//12 2//5
