# SSTK version 0.8.0
# 273
mtllib original-273.mtl
o #ID1642
v -0.214456 0.364039 0.504280
v -0.214350 0.363591 0.504362
v -0.214836 0.364019 0.504280
v -0.214350 0.360526 0.504951
v -0.214836 0.360526 0.504951
v -0.214350 0.362049 0.504661
v -0.214350 0.362454 0.504584
v -0.213945 0.364058 0.504275
v -0.214282 0.363595 0.504362
v -0.214219 0.363605 0.504362
vn 0.004003082679194028 -0.17941017354547814 -0.9837662145842602
vn 0.006010626770308201 -0.18794073216665577 -0.9821619792877799
vn 0.00587626289130355 -0.183653948316746 -0.9829733957753395
vn -0.004003082679194028 0.17941017354547814 0.9837662145842602
vn -0.006010626770308201 0.18794073216665577 0.9821619792877799
vn -0.00587626289130355 0.183653948316746 0.9829733957753395
vn 0.0029462758500723575 -0.18867047618110794 -0.9820360333899205
vn -0.0029462758500723575 0.18867047618110794 0.9820360333899205
vn 0.0018248750257879001 -0.1843710716254767 -0.9828550136102545
vn -0.0018248750257879001 0.1843710716254767 0.9828550136102545
vn 0.02238952425818357 -0.20150571832311948 -0.979231410181769
vn -0.02238952425818357 0.20150571832311948 0.979231410181769
usemtl material_0_2
f 1//1 2//2 3//3
f 3//6 2//5 1//4
f 3//3 4//7 5//7
f 5//8 4//8 3//6
f 4//7 3//3 6//7
f 6//8 3//6 4//8
f 6//7 3//3 7//7
f 7//8 3//6 6//8
f 7//7 3//3 2//2
f 2//5 3//6 7//8
f 8//9 2//2 1//1
f 1//4 2//5 8//10
f 8//9 9//11 2//2
f 2//5 9//12 8//10
f 9//11 8//9 10//11
f 10//12 8//10 9//12
