# SSTK version 0.8.0
# 299
mtllib original-299.mtl
o #ID1798
v -0.203629 0.339336 0.509002
v -0.202979 0.339216 0.509021
v -0.203841 0.339322 0.509002
v -0.204039 0.339279 0.509012
v -0.204222 0.339206 0.509026
v -0.204386 0.339110 0.509045
v -0.204540 0.338980 0.509069
v -0.204675 0.338826 0.509098
v -0.204795 0.338647 0.509132
v -0.203909 0.338864 0.509089
vn 0.007880141763499783 -0.1155754125311235 -0.9932674500777963
vn -0.001904711267700068 -0.17862835959855988 -0.9839147733529131
vn -0.002478012813634002 -0.1975068993567403 -0.9802983648660145
vn -0.007880141763499783 0.1155754125311235 0.9932674500777963
vn 0.001904711267700068 0.17862835959855988 0.9839147733529131
vn 0.002478012813634002 0.1975068993567403 0.9802983648660145
vn -0.002480044826164443 -0.19145958788783038 -0.9814973640226867
vn 0.002480044826164443 0.19145958788783038 0.9814973640226867
vn -0.002384732463384219 -0.19279950246442668 -0.9812352749980748
vn 0.002384732463384219 0.19279950246442668 0.9812352749980748
vn -0.003388463070802148 -0.1803585484418082 -0.9835950957187524
vn 0.003388463070802148 0.1803585484418082 0.9835950957187524
vn -0.003092082813761596 -0.18106463660738858 -0.9834663371941651
vn 0.003092082813761596 0.18106463660738858 0.9834663371941651
vn -0.0023800693608287894 -0.1842893433284813 -0.9828691536544398
vn 0.0023800693608287894 0.1842893433284813 0.9828691536544398
vn -0.002508532255316789 -0.18406939882146237 -0.982910048622675
vn 0.002508532255316789 0.18406939882146237 0.982910048622675
vn -0.005529677430729521 -0.17474693303332314 -0.9845978529648333
vn 0.005529677430729521 0.17474693303332314 0.9845978529648333
usemtl material_0_2
f 1//1 2//2 3//3
f 3//6 2//5 1//4
f 3//3 2//2 4//7
f 4//8 2//5 3//6
f 4//7 2//2 5//9
f 5//10 2//5 4//8
f 2//2 6//11 5//9
f 5//10 6//12 2//5
f 2//2 7//13 6//11
f 6//12 7//14 2//5
f 2//2 8//15 7//13
f 7//14 8//16 2//5
f 2//2 9//17 8//15
f 8//16 9//18 2//5
f 2//2 10//19 9//17
f 9//18 10//20 2//5
