# SSTK version 0.8.0
# 241
mtllib original-241.mtl
o #ID1450
v -0.205215 0.369739 0.503188
v -0.205070 0.369714 0.503193
v -0.205123 0.369271 0.503280
v -0.205383 0.369753 0.503188
v -0.204940 0.369676 0.503203
v -0.205571 0.369758 0.503184
v -0.204834 0.369628 0.503208
v -0.205711 0.369753 0.503188
v -0.204747 0.369570 0.503222
v -0.205846 0.369729 0.503188
v -0.205065 0.369247 0.503285
v -0.205012 0.369228 0.503285
v -0.205971 0.369695 0.503198
v -0.206087 0.369647 0.503208
vn -0.009753246323716946 -0.1945404941024058 -0.9808459972597843
vn 0.0074972340375613926 -0.19328025201633797 -0.9811149451834309
vn -0.007738488283714601 -0.18269646107672033 -0.9831389112984621
vn 0.009753246323716946 0.1945404941024058 0.9808459972597843
vn -0.0074972340375613926 0.19328025201633797 0.9811149451834309
vn 0.007738488283714601 0.18269646107672033 0.9831389112984621
vn 0.008406127444847348 -0.18274586047173647 -0.9831242482523894
vn -0.008406127444847348 0.18274586047173647 0.9831242482523894
vn -0.01023530237521477 -0.18308432326064966 -0.9830439304331611
vn 0.01023530237521477 0.18308432326064966 0.9830439304331611
vn -0.013670081144144199 -0.20669930856349414 -0.9783090128997514
vn 0.013670081144144199 0.20669930856349414 0.9783090128997514
vn -0.003971759964111426 -0.19607604548070698 -0.9805806491622375
vn 0.003971759964111426 0.19607604548070698 0.9805806491622375
vn 0.01452985930764026 -0.16998088666785827 -0.985340236342812
vn -0.01452985930764026 0.16998088666785827 0.985340236342812
vn 0.013581040262249244 -0.20690128785746623 -0.9782675566675597
vn -0.013581040262249244 0.20690128785746623 0.9782675566675597
vn -0.005067707870296322 -0.2042960585694198 -0.9788960306334588
vn 0.005067707870296322 0.2042960585694198 0.9788960306334588
vn -0.021442609071038808 -0.16437170978556226 -0.9861653794057046
vn 0.021442609071038808 0.16437170978556226 0.9861653794057046
vn -0.00509197351873087 -0.20001619785180186 -0.9797793590408982
vn 0.00509197351873087 0.20001619785180186 0.9797793590408982
vn -0.0016166394286735526 -0.19332777720328684 -0.9811328946878674
vn 0.0016166394286735526 0.19332777720328684 0.9811328946878674
usemtl material_0_2
f 1//1 2//2 3//3
f 3//6 2//5 1//4
f 4//7 1//1 3//3
f 3//6 1//4 4//8
f 2//2 5//9 3//3
f 3//6 5//10 2//5
f 6//11 4//7 3//3
f 3//6 4//8 6//12
f 5//9 7//13 3//3
f 3//6 7//14 5//10
f 6//11 3//3 8//15
f 8//16 3//6 6//12
f 7//13 9//17 3//3
f 3//6 9//18 7//14
f 8//15 3//3 10//19
f 10//20 3//6 8//16
f 11//21 9//17 12//21
f 12//22 9//18 11//22
f 9//17 11//21 3//3
f 3//6 11//22 9//18
f 10//19 3//3 13//23
f 13//24 3//6 10//20
f 13//23 3//3 14//25
f 14//26 3//6 13//24
