# SSTK version 0.8.0
# 269
mtllib original-269.mtl
o #ID1618
v -0.199866 0.368105 0.503502
v -0.199635 0.367705 0.503579
v -0.200151 0.367729 0.503575
v -0.198681 0.366202 0.503864
v -0.198127 0.366202 0.503864
v -0.199163 0.367811 0.503555
v -0.199067 0.367840 0.503551
v -0.198980 0.367874 0.503546
v -0.198898 0.367927 0.503536
v -0.198816 0.367985 0.503526
v -0.198739 0.368057 0.503512
v -0.199809 0.368105 0.503502
vn -0.001633038824281758 -0.1884268082600881 -0.9820858776670778
vn -0.04902852803528026 -0.216773593100803 -0.9749899552163915
vn 0.0003181611802254738 -0.1895649761282271 -0.9818681268882131
vn 0.001633038824281758 0.1884268082600881 0.9820858776670778
vn 0.04902852803528026 0.216773593100803 0.9749899552163915
vn -0.0003181611802254738 0.1895649761282271 0.9818681268882131
vn -0.00025975653964935324 -0.1870807910843523 -0.9823444966679423
vn 0.00025975653964935324 0.1870807910843523 0.9823444966679423
vn -0.001063913650270006 -0.18786285075165898 -0.9821946942410169
vn 0.001063913650270006 0.18786285075165898 0.9821946942410169
vn -0.001927535940985461 -0.18224347970281626 -0.9832515439657369
vn 0.001927535940985461 0.18224347970281626 0.9832515439657369
vn 0.005908561591149262 -0.16211496859900984 -0.9867541871489909
vn -0.005908561591149262 0.16211496859900984 0.9867541871489909
vn 0.0023267795278211598 -0.17606141668390693 -0.9843764339175763
vn -0.0023267795278211598 0.17606141668390693 0.9843764339175763
vn 0.0026835431036221283 -0.17231294127879362 -0.9850386027279653
vn -0.0026835431036221283 0.17231294127879362 0.9850386027279653
vn 0.0007663819425351407 -0.19006413352507828 -0.9817713775651027
vn -0.0007663819425351407 0.19006413352507828 0.9817713775651027
vn -0.00002671553859349129 -0.19671719784070277 -0.9804602711787876
vn 0.00002671553859349129 0.19671719784070277 0.9804602711787876
usemtl material_0_2
f 1//1 2//2 3//3
f 3//6 2//5 1//4
f 1//1 4//7 2//2
f 2//5 4//8 1//4
f 1//1 5//9 4//7
f 4//8 5//10 1//4
f 1//1 6//11 5//9
f 5//10 6//12 1//4
f 1//1 7//13 6//11
f 6//12 7//14 1//4
f 1//1 8//15 7//13
f 7//14 8//16 1//4
f 1//1 9//17 8//15
f 8//16 9//18 1//4
f 1//1 10//19 9//17
f 9//18 10//20 1//4
f 1//1 11//21 10//19
f 10//20 11//22 1//4
f 11//21 1//1 12//21
f 12//22 1//4 11//22
