# SSTK version 0.8.0
# 88
mtllib original-88.mtl
o #ID532
v -0.314069 0.369724 0.503193
v -0.313510 0.369686 0.503198
v -0.313077 0.369565 0.503222
v -0.313987 0.369295 0.503275
v -0.313640 0.369271 0.503280
v -0.313371 0.369194 0.503295
v -0.313178 0.369064 0.503319
v -0.313062 0.368886 0.503353
vn -0.0018757811273186487 -0.19049532249649742 -0.9816863111769044
vn -0.006894386414978431 -0.22066510495935215 -0.9753252682511814
vn -0.0026000873131877744 -0.19139876065620462 -0.9815089169056146
vn 0.0018757811273186487 0.19049532249649742 0.9816863111769044
vn 0.006894386414978431 0.22066510495935215 0.9753252682511814
vn 0.0026000873131877744 0.19139876065620462 0.9815089169056146
vn -0.001141838889534954 -0.1893711538266493 -0.9819049151024318
vn 0.001141838889534954 0.1893711538266493 0.9819049151024318
vn -0.00018320286547642117 -0.19314812233891085 -0.9811695925137831
vn 0.00018320286547642117 0.19314812233891085 0.9811695925137831
vn -0.002720353082210868 -0.18949927668308036 -0.9818770920108573
vn 0.002720353082210868 0.18949927668308036 0.9818770920108573
vn -0.003958512958989032 -0.18854946492153093 -0.9820557160634816
vn 0.003958512958989032 0.18854946492153093 0.9820557160634816
usemtl material_0_2
f 1//1 2//2 3//3
f 3//6 2//5 1//4
f 1//1 3//3 4//7
f 4//8 3//6 1//4
f 3//3 5//9 4//7
f 4//8 5//10 3//6
f 3//3 6//11 5//9
f 5//10 6//12 3//6
f 7//13 3//3 8//13
f 8//14 3//6 7//14
f 3//3 7//13 6//11
f 6//12 7//14 3//6
