# SSTK version 0.8.0
# 242
mtllib original-242.mtl
o #ID1456
v -0.206087 0.369647 0.503208
v -0.206568 0.368977 0.503333
v -0.206544 0.369098 0.503309
v -0.206573 0.368852 0.503357
v -0.206091 0.368862 0.503357
vn 0.006313662456068401 -0.1889467460745655 -0.9819670385579266
vn 0.010370580787644289 -0.19139598508937766 -0.9814581131896529
vn 0.023738451981689404 -0.20062383128592456 -0.9793807044340163
vn -0.006313662456068401 0.1889467460745655 0.9819670385579266
vn -0.010370580787644289 0.19139598508937766 0.9814581131896529
vn -0.023738451981689404 0.20062383128592456 0.9793807044340163
vn 0.005218360971625648 -0.1881322931587773 -0.9821298330565005
vn -0.005218360971625648 0.1881322931587773 0.9821298330565005
vn 0.003745262405790185 -0.1872631202899515 -0.9823026503012108
vn -0.003745262405790185 0.1872631202899515 0.9823026503012108
usemtl material_0_2
f 1//1 2//2 3//3
f 3//6 2//5 1//4
f 1//1 4//7 2//2
f 2//5 4//8 1//4
f 1//1 5//9 4//7
f 4//8 5//10 1//4
