# SSTK version 0.8.0
# 599
mtllib original-599.mtl
o #ID3598
v 0.328431 0.335757 0.509683
v 0.328392 0.335578 0.509716
v 0.327896 0.334711 0.509885
v 0.328483 0.335920 0.509654
v 0.328368 0.335390 0.509755
v 0.328956 0.336980 0.509451
v 0.328556 0.336070 0.509625
v 0.328358 0.335188 0.509794
v 0.327862 0.334957 0.509837
v 0.328368 0.334995 0.509827
v 0.327848 0.335217 0.509789
v 0.328392 0.334817 0.509861
v 0.327862 0.335472 0.509736
v 0.328431 0.334648 0.509895
v 0.327896 0.335708 0.509692
v 0.328488 0.334494 0.509924
v 0.327958 0.335935 0.509649
v 0.328917 0.333473 0.510122
v 0.328040 0.336142 0.509610
v 0.328724 0.333540 0.510108
v 0.328551 0.333637 0.510088
v 0.328146 0.336340 0.509572
v 0.328392 0.333762 0.510064
v 0.328276 0.336518 0.509538
v 0.328252 0.333911 0.510035
v 0.328426 0.336677 0.509509
v 0.328127 0.334085 0.510001
vn -0.08520122206682057 -0.14749701042113658 -0.9853859059653468
vn -0.0109532399982024 -0.1852365498072625 -0.9826329157671462
vn -0.0017285955323388129 -0.18810533760490095 -0.9821473381942404
vn 0.08520122206682057 0.14749701042113658 0.9853859059653468
vn 0.0109532399982024 0.1852365498072625 0.9826329157671462
vn 0.0017285955323388129 0.18810533760490095 0.9821473381942404
vn -0.024637320246661435 -0.17681287672657675 -0.9839360797708029
vn 0.024637320246661435 0.17681287672657675 0.9839360797708029
vn 0.019807492347364057 -0.20163222920302595 -0.9792610006497386
vn -0.019807492347364057 0.20163222920302595 0.9792610006497386
vn 0.0009033679597196284 -0.18642970932054587 -0.9824678861972976
vn -0.0009033679597196284 0.18642970932054587 0.9824678861972976
vn -0.02170972457671721 -0.178214123446414 -0.9837522117195109
vn 0.02170972457671721 0.178214123446414 0.9837522117195109
vn -0.005350981846419037 -0.18385320304846517 -0.9829391470086534
vn 0.005350981846419037 0.18385320304846517 0.9829391470086534
vn 0.004870782029347084 -0.19003279022881947 -0.981765661510053
vn -0.004870782029347084 0.19003279022881947 0.981765661510053
vn -0.01317703583079555 -0.17854981286287894 -0.9838426348015951
vn 0.01317703583079555 0.17854981286287894 0.9838426348015951
vn -0.0027770069569982674 -0.1865561114343651 -0.9824403826791982
vn 0.0027770069569982674 0.1865561114343651 0.9824403826791982
vn -0.006521038803538407 -0.19248736046367063 -0.981277785397515
vn 0.006521038803538407 0.19248736046367063 0.981277785397515
vn 0.02217016411347684 -0.20108549992529776 -0.9793227790381344
vn -0.02217016411347684 0.20108549992529776 0.9793227790381344
vn -0.004439848246326353 -0.19045186717677118 -0.9816864947815219
vn 0.004439848246326353 0.19045186717677118 0.9816864947815219
vn -0.006505860389842236 -0.1812416853748975 -0.9834170657778187
vn 0.006505860389842236 0.1812416853748975 0.9834170657778187
vn -0.005796317079340075 -0.19100076314039804 -0.9815727742699983
vn 0.005796317079340075 0.19100076314039804 0.9815727742699983
vn 0.0026148082980128554 -0.18845534336803502 -0.9820782791272805
vn -0.0026148082980128554 0.18845534336803502 0.9820782791272805
vn 0.004637446095014874 -0.18399181896798936 -0.9829168350611187
vn -0.004637446095014874 0.18399181896798936 0.9829168350611187
vn -0.003314138848900614 -0.1832203937955794 -0.9830662763929414
vn 0.003314138848900614 0.1832203937955794 0.9830662763929414
vn 0.010552256151421162 -0.17926657526966178 -0.9837439427418101
vn -0.010552256151421162 0.17926657526966178 0.9837439427418101
vn 0.00992128023799669 -0.17964189719429358 -0.9836820405857138
vn -0.00992128023799669 0.17964189719429358 0.9836820405857138
vn 0.009503561647088007 -0.19659245664988742 -0.9804392323363964
vn -0.009503561647088007 0.19659245664988742 0.9804392323363964
vn 0.0061033419101926 -0.18198542438862805 -0.9832822862879297
vn -0.0061033419101926 0.18198542438862805 0.9832822862879297
vn 0.001180557823368376 -0.18625957643459748 -0.9824998607987839
vn -0.001180557823368376 0.18625957643459748 0.9824998607987839
vn 0.01566233726833815 -0.1772004137779828 -0.9840501534719683
vn -0.01566233726833815 0.1772004137779828 0.9840501534719683
vn -0.011728827374717789 -0.1679074822482217 -0.9857329821069584
vn 0.011728827374717789 0.1679074822482217 0.9857329821069584
vn 0.027902634387399816 -0.17186937680839057 -0.9847245098552887
vn -0.027902634387399816 0.17186937680839057 0.9847245098552887
usemtl material_0_2
f 1//1 2//2 3//3
f 3//6 2//5 1//4
f 4//7 1//1 3//3
f 3//6 1//4 4//8
f 2//2 5//9 3//3
f 3//6 5//10 2//5
f 6//11 4//7 3//3
f 3//6 4//8 6//12
f 4//7 6//11 7//13
f 7//14 6//12 4//8
f 5//9 8//15 3//3
f 3//6 8//16 5//10
f 6//11 3//3 9//17
f 9//18 3//6 6//12
f 8//15 10//19 3//3
f 3//6 10//20 8//16
f 6//11 9//17 11//21
f 11//22 9//18 6//12
f 10//19 12//23 3//3
f 3//6 12//24 10//20
f 6//11 11//21 13//25
f 13//26 11//22 6//12
f 12//23 14//27 3//3
f 3//6 14//28 12//24
f 6//11 13//25 15//29
f 15//30 13//26 6//12
f 3//3 14//27 16//31
f 16//32 14//28 3//6
f 6//11 15//29 17//33
f 17//34 15//30 6//12
f 3//3 16//31 18//35
f 18//36 16//32 3//6
f 6//11 17//33 19//37
f 19//38 17//34 6//12
f 20//39 3//3 18//35
f 18//36 3//6 20//40
f 3//3 20//39 21//41
f 21//42 20//40 3//6
f 6//11 19//37 22//43
f 22//44 19//38 6//12
f 3//3 21//41 23//45
f 23//46 21//42 3//6
f 6//11 22//43 24//47
f 24//48 22//44 6//12
f 3//3 23//45 25//49
f 25//50 23//46 3//6
f 6//11 24//47 26//51
f 26//52 24//48 6//12
f 3//3 25//49 27//53
f 27//54 25//50 3//6
