# SSTK version 0.8.0
# 41
mtllib original-41.mtl
o #ID98
v 0.429726 0.688540 -0.139008
v 0.429302 0.686766 -0.139542
v 0.429302 0.688181 -0.138514
v 0.429726 0.687125 -0.140036
v 0.429726 0.687125 -0.140036
v 0.429726 0.688540 -0.139008
v 0.429302 0.686766 -0.139542
v 0.429302 0.688181 -0.138514
v 0.428740 0.687888 -0.138110
v 0.429302 0.686766 -0.139542
v 0.428740 0.686473 -0.139138
v 0.429302 0.688181 -0.138514
v 0.429302 0.688181 -0.138514
v 0.428740 0.687888 -0.138110
v 0.429302 0.686766 -0.139542
v 0.428740 0.686473 -0.139138
v 0.429998 0.688931 -0.139546
v 0.429726 0.687125 -0.140036
v 0.429726 0.688540 -0.139008
v 0.429998 0.687516 -0.140574
v 0.429998 0.687516 -0.140574
v 0.429998 0.688931 -0.139546
v 0.429726 0.687125 -0.140036
v 0.429726 0.688540 -0.139008
v 0.428025 0.687679 -0.137822
v 0.428740 0.686473 -0.139138
v 0.428025 0.686264 -0.138850
v 0.428740 0.687888 -0.138110
v 0.428740 0.687888 -0.138110
v 0.428025 0.687679 -0.137822
v 0.428740 0.686473 -0.139138
v 0.428025 0.686264 -0.138850
v 0.430194 0.689896 -0.140875
v 0.429998 0.687516 -0.140574
v 0.429998 0.688931 -0.139546
v 0.430194 0.688481 -0.141903
v 0.430194 0.688481 -0.141903
v 0.430194 0.689896 -0.140875
v 0.429998 0.687516 -0.140574
v 0.429998 0.688931 -0.139546
v 0.427155 0.687553 -0.137649
v 0.428025 0.686264 -0.138850
v 0.427155 0.686138 -0.138677
v 0.428025 0.687679 -0.137822
v 0.428025 0.687679 -0.137822
v 0.427155 0.687553 -0.137649
v 0.428025 0.686264 -0.138850
v 0.427155 0.686138 -0.138677
v 0.429978 0.690728 -0.142022
v 0.430194 0.688481 -0.141903
v 0.430194 0.689896 -0.140875
v 0.429978 0.689313 -0.143049
v 0.429978 0.689313 -0.143049
v 0.429978 0.690728 -0.142022
v 0.430194 0.688481 -0.141903
v 0.430194 0.689896 -0.140875
v 0.426126 0.687511 -0.137591
v 0.427155 0.686138 -0.138677
v 0.426126 0.686096 -0.138619
v 0.427155 0.687553 -0.137649
v 0.427155 0.687553 -0.137649
v 0.426126 0.687511 -0.137591
v 0.427155 0.686138 -0.138677
v 0.426126 0.686096 -0.138619
v 0.429329 0.691359 -0.142891
v 0.429978 0.689313 -0.143049
v 0.429978 0.690728 -0.142022
v 0.429329 0.689944 -0.143918
v 0.429329 0.689944 -0.143918
v 0.429329 0.691359 -0.142891
v 0.429978 0.689313 -0.143049
v 0.429978 0.690728 -0.142022
v 0.424409 0.687511 -0.137591
v 0.426126 0.686096 -0.138619
v 0.424409 0.686096 -0.138619
v 0.426126 0.687511 -0.137591
v 0.426126 0.687511 -0.137591
v 0.424409 0.687511 -0.137591
v 0.426126 0.686096 -0.138619
v 0.424409 0.686096 -0.138619
v 0.429329 0.691359 -0.142891
v 0.428834 0.690176 -0.144238
v 0.429329 0.689944 -0.143918
v 0.428834 0.691591 -0.143210
v 0.428834 0.691591 -0.143210
v 0.429329 0.691359 -0.142891
v 0.428834 0.690176 -0.144238
v 0.429329 0.689944 -0.143918
v 0.424409 0.690443 -0.144605
v 0.424409 0.687511 -0.137591
v 0.424409 0.686096 -0.138619
v 0.424409 0.691858 -0.143577
v 0.424409 0.691858 -0.143577
v 0.424409 0.690443 -0.144605
v 0.424409 0.687511 -0.137591
v 0.424409 0.686096 -0.138619
v 0.428834 0.691591 -0.143210
v 0.428214 0.690342 -0.144466
v 0.428834 0.690176 -0.144238
v 0.428214 0.691757 -0.143438
v 0.428214 0.691757 -0.143438
v 0.428834 0.691591 -0.143210
v 0.428214 0.690342 -0.144466
v 0.428834 0.690176 -0.144238
v 0.425511 0.691878 -0.143605
v 0.424409 0.690443 -0.144605
v 0.425511 0.690463 -0.144632
v 0.424409 0.691858 -0.143577
v 0.424409 0.691858 -0.143577
v 0.425511 0.691878 -0.143605
v 0.424409 0.690443 -0.144605
v 0.425511 0.690463 -0.144632
v 0.428214 0.691757 -0.143438
v 0.426599 0.690475 -0.144649
v 0.428214 0.690342 -0.144466
v 0.426599 0.691890 -0.143621
v 0.426599 0.691890 -0.143621
v 0.428214 0.691757 -0.143438
v 0.426599 0.690475 -0.144649
v 0.428214 0.690342 -0.144466
v 0.426599 0.691890 -0.143621
v 0.425511 0.690463 -0.144632
v 0.426599 0.690475 -0.144649
v 0.425511 0.691878 -0.143605
v 0.425511 0.691878 -0.143605
v 0.426599 0.691890 -0.143621
v 0.425511 0.690463 -0.144632
v 0.426599 0.690475 -0.144649
vn -0.8214560731623564 0.3350779138567704 -0.46144632570871774
vn 0.8214560731623564 -0.3350779138567704 0.46144632570871774
vn -0.6633737817492629 0.43967604625221635 -0.6054917010494038
vn 0.6633737817492629 -0.43967604625221635 0.6054917010494038
vn -0.9255739236704436 0.22243676523286 -0.3063246599509111
vn 0.9255739236704436 -0.22243676523286 0.3063246599509111
vn -0.4461794083195632 0.5258471774133281 -0.7241606738825578
vn 0.4461794083195632 -0.5258471774133281 0.7241606738825578
vn -0.9929517360602946 0.06963913706281152 -0.0959022442072866
vn 0.9929517360602946 -0.06963913706281152 0.0959022442072866
vn -0.23860049710471226 0.5706053380435627 -0.7857985435069066
vn 0.23860049710471226 -0.5706053380435627 0.7857985435069066
vn -0.9885479793202004 -0.08866924479311648 0.12210920362432526
vn 0.9885479793202004 0.08866924479311648 -0.12210920362432526
vn -0.06908823513706792 0.5861718325921952 -0.8072356523600484
vn 0.06908823513706792 -0.5861718325921952 0.8072356523600484
vn -0.8559258215019605 -0.3038346454441527 0.41842023889149993
vn 0.8559258215019605 0.3038346454441527 -0.41842023889149993
vn 0 0.5875758137667693 -0.8091691189586506
vn 0 -0.5875758137667693 0.8091691189586506
vn -0.6235643234280839 -0.45935034710091144 0.6325857990549172
vn 0.6235643234280839 0.45935034710091144 -0.6325857990549172
vn 1 0 0
vn -1 0 0
vn -0.414044386772826 -0.5348448166841514 0.7365516056923718
vn 0.414044386772826 0.5348448166841514 -0.7365516056923718
vn 0.030731058956199635 -0.587298295522223 0.8087869398624844
vn -0.030731058956199635 0.587298295522223 -0.8087869398624844
vn -0.13835410045067295 -0.5819249951805398 0.8013871990945537
vn 0.13835410045067295 0.5819249951805398 -0.8013871990945537
vn 0.018673790114923074 -0.5874733579246653 0.8090280237985963
vn -0.018673790114923074 0.5874733579246653 -0.8090280237985963
usemtl material_0_0
f 1//1 2//1 3//1
f 2//1 1//1 4//1
f 5//2 6//2 7//2
f 8//2 7//2 6//2
f 9//3 10//3 11//3
f 10//3 9//3 12//3
f 13//4 14//4 15//4
f 16//4 15//4 14//4
f 17//5 18//5 19//5
f 18//5 17//5 20//5
f 21//6 22//6 23//6
f 24//6 23//6 22//6
f 25//7 26//7 27//7
f 26//7 25//7 28//7
f 29//8 30//8 31//8
f 32//8 31//8 30//8
f 33//9 34//9 35//9
f 34//9 33//9 36//9
f 37//10 38//10 39//10
f 40//10 39//10 38//10
f 41//11 42//11 43//11
f 42//11 41//11 44//11
f 45//12 46//12 47//12
f 48//12 47//12 46//12
f 49//13 50//13 51//13
f 50//13 49//13 52//13
f 53//14 54//14 55//14
f 56//14 55//14 54//14
f 57//15 58//15 59//15
f 58//15 57//15 60//15
f 61//16 62//16 63//16
f 64//16 63//16 62//16
f 65//17 66//17 67//17
f 66//17 65//17 68//17
f 69//18 70//18 71//18
f 72//18 71//18 70//18
f 73//19 74//19 75//19
f 74//19 73//19 76//19
f 77//20 78//20 79//20
f 80//20 79//20 78//20
f 81//21 82//21 83//21
f 82//21 81//21 84//21
f 85//22 86//22 87//22
f 88//22 87//22 86//22
f 89//23 90//23 91//23
f 90//23 89//23 92//23
f 93//24 94//24 95//24
f 96//24 95//24 94//24
f 97//25 98//25 99//25
f 98//25 97//25 100//25
f 101//26 102//26 103//26
f 104//26 103//26 102//26
f 105//27 106//27 107//27
f 106//27 105//27 108//27
f 109//28 110//28 111//28
f 112//28 111//28 110//28
f 113//29 114//29 115//29
f 114//29 113//29 116//29
f 117//30 118//30 119//30
f 120//30 119//30 118//30
f 121//31 122//31 123//31
f 122//31 121//31 124//31
f 125//32 126//32 127//32
f 128//32 127//32 126//32
