# SSTK version 0.8.0
# 43
mtllib original-43.mtl
o mesh42/mesh42-geometry/material_2/component_3#mesh42-geometry
v 0.376083 0.187898 -0.701202
v 0.397412 0.187898 -0.701202
v 0.386747 0.189302 -0.701202
v 0.386747 0.189302 -0.701202
v 0.397412 0.187898 -0.701202
v 0.376083 0.187898 -0.701202
v 0.366146 0.183781 -0.701202
v 0.397412 0.187898 -0.701202
v 0.376083 0.187898 -0.701202
v 0.376083 0.187898 -0.701202
v 0.397412 0.187898 -0.701202
v 0.366146 0.183781 -0.701202
v 0.357612 0.177233 -0.701202
v 0.407350 0.183781 -0.701202
v 0.366146 0.183781 -0.701202
v 0.366146 0.183781 -0.701202
v 0.407350 0.183781 -0.701202
v 0.357612 0.177233 -0.701202
v 0.366146 0.183781 -0.701202
v 0.407350 0.183781 -0.701202
v 0.397412 0.187898 -0.701202
v 0.397412 0.187898 -0.701202
v 0.407350 0.183781 -0.701202
v 0.366146 0.183781 -0.701202
v 0.351064 0.168700 -0.701202
v 0.415883 0.177233 -0.701202
v 0.357612 0.177233 -0.701202
v 0.357612 0.177233 -0.701202
v 0.415883 0.177233 -0.701202
v 0.351064 0.168700 -0.701202
v 0.357612 0.177233 -0.701202
v 0.415883 0.177233 -0.701202
v 0.407350 0.183781 -0.701202
v 0.407350 0.183781 -0.701202
v 0.415883 0.177233 -0.701202
v 0.357612 0.177233 -0.701202
v 0.346948 0.158762 -0.701202
v 0.422431 0.168700 -0.701202
v 0.351064 0.168700 -0.701202
v 0.351064 0.168700 -0.701202
v 0.422431 0.168700 -0.701202
v 0.346948 0.158762 -0.701202
v 0.351064 0.168700 -0.701202
v 0.422431 0.168700 -0.701202
v 0.415883 0.177233 -0.701202
v 0.415883 0.177233 -0.701202
v 0.422431 0.168700 -0.701202
v 0.351064 0.168700 -0.701202
v 0.345544 0.148098 -0.701202
v 0.426547 0.158762 -0.701202
v 0.346948 0.158762 -0.701202
v 0.346948 0.158762 -0.701202
v 0.426547 0.158762 -0.701202
v 0.345544 0.148098 -0.701202
v 0.346948 0.158762 -0.701202
v 0.426547 0.158762 -0.701202
v 0.422431 0.168700 -0.701202
v 0.422431 0.168700 -0.701202
v 0.426547 0.158762 -0.701202
v 0.346948 0.158762 -0.701202
v 0.346948 0.137433 -0.701202
v 0.427951 0.148098 -0.701202
v 0.345544 0.148098 -0.701202
v 0.345544 0.148098 -0.701202
v 0.427951 0.148098 -0.701202
v 0.346948 0.137433 -0.701202
v 0.345544 0.148098 -0.701202
v 0.427951 0.148098 -0.701202
v 0.426547 0.158762 -0.701202
v 0.426547 0.158762 -0.701202
v 0.427951 0.148098 -0.701202
v 0.345544 0.148098 -0.701202
v 0.351064 0.127496 -0.701202
v 0.426547 0.137433 -0.701202
v 0.346948 0.137433 -0.701202
v 0.346948 0.137433 -0.701202
v 0.426547 0.137433 -0.701202
v 0.351064 0.127496 -0.701202
v 0.346948 0.137433 -0.701202
v 0.426547 0.137433 -0.701202
v 0.427951 0.148098 -0.701202
v 0.427951 0.148098 -0.701202
v 0.426547 0.137433 -0.701202
v 0.346948 0.137433 -0.701202
v 0.357612 0.118962 -0.701202
v 0.415883 0.118962 -0.701202
v 0.351064 0.127496 -0.701202
v 0.351064 0.127496 -0.701202
v 0.415883 0.118962 -0.701202
v 0.357612 0.118962 -0.701202
v 0.351064 0.127496 -0.701202
v 0.422431 0.127496 -0.701202
v 0.426547 0.137433 -0.701202
v 0.426547 0.137433 -0.701202
v 0.422431 0.127496 -0.701202
v 0.351064 0.127496 -0.701202
v 0.351064 0.127496 -0.701202
v 0.415883 0.118962 -0.701202
v 0.422431 0.127496 -0.701202
v 0.422431 0.127496 -0.701202
v 0.415883 0.118962 -0.701202
v 0.351064 0.127496 -0.701202
v 0.366146 0.112414 -0.701202
v 0.407350 0.112414 -0.701202
v 0.415883 0.118962 -0.701202
v 0.415883 0.118962 -0.701202
v 0.407350 0.112414 -0.701202
v 0.366146 0.112414 -0.701202
v 0.366146 0.112414 -0.701202
v 0.415883 0.118962 -0.701202
v 0.357612 0.118962 -0.701202
v 0.357612 0.118962 -0.701202
v 0.415883 0.118962 -0.701202
v 0.366146 0.112414 -0.701202
v 0.376083 0.108298 -0.701202
v 0.407350 0.112414 -0.701202
v 0.366146 0.112414 -0.701202
v 0.366146 0.112414 -0.701202
v 0.407350 0.112414 -0.701202
v 0.376083 0.108298 -0.701202
v 0.376083 0.108298 -0.701202
v 0.397412 0.108298 -0.701202
v 0.407350 0.112414 -0.701202
v 0.407350 0.112414 -0.701202
v 0.397412 0.108298 -0.701202
v 0.376083 0.108298 -0.701202
v 0.397412 0.108298 -0.701202
v 0.376083 0.108298 -0.701202
v 0.386747 0.106894 -0.701202
v 0.386747 0.106894 -0.701202
v 0.376083 0.108298 -0.701202
v 0.397412 0.108298 -0.701202
vt 0 0
vn 0 0 1
vn 0 0 -1
usemtl material_0_0
f 1/1/1 2/1/1 3/1/1
f 4/1/2 5/1/2 6/1/2
f 7/1/1 8/1/1 9/1/1
f 10/1/2 11/1/2 12/1/2
f 13/1/1 14/1/1 15/1/1
f 16/1/2 17/1/2 18/1/2
f 19/1/1 20/1/1 21/1/1
f 22/1/2 23/1/2 24/1/2
f 25/1/1 26/1/1 27/1/1
f 28/1/2 29/1/2 30/1/2
f 31/1/1 32/1/1 33/1/1
f 34/1/2 35/1/2 36/1/2
f 37/1/1 38/1/1 39/1/1
f 40/1/2 41/1/2 42/1/2
f 43/1/1 44/1/1 45/1/1
f 46/1/2 47/1/2 48/1/2
f 49/1/1 50/1/1 51/1/1
f 52/1/2 53/1/2 54/1/2
f 55/1/1 56/1/1 57/1/1
f 58/1/2 59/1/2 60/1/2
f 61/1/1 62/1/1 63/1/1
f 64/1/2 65/1/2 66/1/2
f 67/1/1 68/1/1 69/1/1
f 70/1/2 71/1/2 72/1/2
f 73/1/1 74/1/1 75/1/1
f 76/1/2 77/1/2 78/1/2
f 79/1/1 80/1/1 81/1/1
f 82/1/2 83/1/2 84/1/2
f 85/1/1 86/1/1 87/1/1
f 88/1/2 89/1/2 90/1/2
f 91/1/1 92/1/1 93/1/1
f 94/1/2 95/1/2 96/1/2
f 97/1/1 98/1/1 99/1/1
f 100/1/2 101/1/2 102/1/2
f 103/1/1 104/1/1 105/1/1
f 106/1/2 107/1/2 108/1/2
f 109/1/1 110/1/1 111/1/1
f 112/1/2 113/1/2 114/1/2
f 115/1/1 116/1/1 117/1/1
f 118/1/2 119/1/2 120/1/2
f 121/1/1 122/1/1 123/1/1
f 124/1/2 125/1/2 126/1/2
f 127/1/1 128/1/1 129/1/1
f 130/1/2 131/1/2 132/1/2
