# SSTK version 0.8.0
# 48
mtllib original-48.mtl
o mesh42/mesh42-geometry/material_3#mesh42-geometry
v -0.546659 -0.255159 -0.701202
v 0.237356 0.229389 -0.701202
v -0.546659 0.229389 -0.701202
v 0.237356 0.229389 -0.701202
v -0.546659 -0.255159 -0.701202
v 0.237356 -0.255159 -0.701202
v -0.546659 0.229389 -0.701202
v 0.237356 0.229389 -0.701202
v -0.546659 -0.255159 -0.701202
v -0.546659 0.229389 -0.701202
v -0.546659 -0.255159 -0.701202
v 0.237356 0.229389 -0.701202
v 0.237356 -0.255159 -0.701202
v -0.546659 -0.255159 -0.701202
v 0.237356 0.229389 -0.701202
v 0.237356 -0.255159 -0.701202
v 0.237356 0.229389 -0.701202
v -0.546659 -0.255159 -0.701202
vt 0 0
vt 1 1
vt 0 1
vt 1 0
vn 0 0 1
vn 0 0 -1
usemtl material_0_0
f 1/1/1 2/1/1 3/1/1
f 4/1/1 5/1/1 6/1/1
usemtl material_1_2
f 7/2/2 8/3/2 9/4/2
f 9/4/1 8/3/1 7/2/1
f 10/2/1 11/4/1 12/3/1
f 12/3/2 11/4/2 10/2/2
f 13/1/2 14/4/2 15/3/2
f 15/3/1 14/4/1 13/1/1
f 16/1/1 17/3/1 18/4/1
f 18/4/2 17/3/2 16/1/2
