# SSTK version 0.8.0
# 87
mtllib original-87.mtl
o mesh50/mesh50-geometry/material_2/component_4#mesh50-geometry
v 0.222917 -0.332965 0.686735
v 0.222917 -0.332965 0.860105
v 0.291816 -0.283823 0.686735
v 0.291816 -0.283823 0.860105
v 0.291816 -0.283823 0.686735
v 0.222917 -0.332965 0.860105
v 0.291816 -0.283823 0.686735
v 0.222917 -0.332965 0.860105
v 0.222917 -0.332965 0.686735
v 0.222917 -0.332965 0.860105
v 0.291816 -0.283823 0.686735
v 0.291816 -0.283823 0.860105
vn -0.580682874310522 0.8141298419063574 0
vn 0.580682874310522 -0.8141298419063574 0
usemtl material_0_0
f 1//1 2//1 3//1
f 4//1 5//1 6//1
usemtl material_1_0
f 7//2 8//2 9//2
f 10//2 11//2 12//2
