mtllib new-17.mtl
v -0.771310 -0.040220 0.318677
v -0.782018 -0.040220 0.329385
v -0.782018 -0.040220 0.318677
v -0.375098 -0.040220 0.329385
v -0.782018 0.138254 0.318677
v -0.375098 -0.040220 0.318677
v -0.375098 0.138254 0.329385
v -0.782018 0.138254 0.329385
v -0.760601 -0.029512 0.318677
v -0.551787 0.127545 0.329385
v -0.605329 0.127545 0.329385
v -0.605329 0.138254 0.329385
v -0.760601 0.115766 0.318677
v -0.396515 -0.029512 0.318677
v -0.375098 0.138254 0.318677
v -0.551787 0.138254 0.329385
v -0.605329 0.138254 0.325102
v -0.396515 0.115766 0.318677
v -0.551787 0.138254 0.325102
v -0.605329 0.127545 0.325102
v -0.605256 0.138254 0.324547
v -0.749893 0.115766 0.307968
v -0.551860 0.138254 0.324547
v -0.551787 0.127545 0.325102
v -0.605256 0.127545 0.324547
v -0.605166 0.138254 0.324282
v -0.603188 0.138254 0.322960
v -0.407223 0.115766 0.307968
v -0.551950 0.138254 0.324282
v -0.551860 0.127545 0.324547
v -0.605166 0.127545 0.324282
v -0.605042 0.138254 0.324031
v -0.603742 0.138254 0.323033
v -0.553929 0.138254 0.322960
v -0.407223 -0.019160 0.307968
v -0.552074 0.138254 0.324031
v -0.551950 0.127545 0.324282
v -0.605042 0.127545 0.324031
v -0.604887 0.138254 0.323798
v -0.604007 0.138254 0.323123
v -0.603742 0.127545 0.323033
v -0.603188 0.127545 0.322960
v -0.553374 0.138254 0.323033
v -0.749893 -0.019160 0.307968
v -0.552230 0.138254 0.323798
v -0.552074 0.127545 0.324031
v -0.604887 0.127545 0.323798
v -0.604702 0.138254 0.323587
v -0.604258 0.138254 0.323247
v -0.604007 0.127545 0.323123
v -0.553929 0.127545 0.322960
v -0.553109 0.138254 0.323123
v -0.552414 0.138254 0.323587
v -0.552230 0.127545 0.323798
v -0.604702 0.127545 0.323587
v -0.604491 0.138254 0.323402
v -0.604258 0.127545 0.323247
v -0.553374 0.127545 0.323033
v -0.552858 0.138254 0.323247
v -0.552625 0.138254 0.323402
v -0.552414 0.127545 0.323587
v -0.604491 0.127545 0.323402
v -0.553109 0.127545 0.323123
v -0.552625 0.127545 0.323402
v -0.552858 0.127545 0.323247
vn 0.000000 -1.000000 0.000000
vn 0.000000 1.000000 0.000000
vn -1.000000 0.000000 0.000000
vn 1.000000 0.000000 0.000000
vn 0.000000 0.000000 -1.000000
vn 0.000000 0.000000 1.000000
vn 0.991445 0.000000 0.130526
vn -0.991445 0.000000 -0.130526
vn -0.991445 0.000000 0.130526
vn 0.991445 0.000000 -0.130526
vn 0.946930 0.000000 0.321439
vn -0.946930 0.000000 -0.321439
vn -0.946930 0.000000 0.321439
vn 0.946930 0.000000 -0.321439
vn 0.896873 0.000000 0.442289
vn -0.896873 0.000000 -0.442289
vn 0.130526 0.000000 0.991445
vn -0.130526 0.000000 -0.991445
vn -0.896873 0.000000 0.442289
vn 0.896873 0.000000 -0.442289
vn 0.831470 0.000000 0.555570
vn -0.831470 0.000000 -0.555570
vn 0.321439 0.000000 0.946930
vn -0.321439 0.000000 -0.946930
vn -0.130526 0.000000 0.991445
vn 0.130526 0.000000 -0.991445
vn -0.831470 0.000000 0.555570
vn 0.831470 0.000000 -0.555570
vn 0.751840 0.000000 0.659346
vn -0.751840 0.000000 -0.659346
vn 0.442289 0.000000 0.896873
vn -0.442289 0.000000 -0.896873
vn -0.321439 0.000000 0.946930
vn 0.321439 0.000000 -0.946930
vn -0.751840 0.000000 0.659346
vn 0.751840 0.000000 -0.659346
vn 0.659346 0.000000 0.751840
vn -0.659346 0.000000 -0.751840
vn 0.555570 0.000000 0.831470
vn -0.555570 0.000000 -0.831470
vn -0.442289 0.000000 0.896873
vn 0.442289 0.000000 -0.896873
vn -0.659346 0.000000 0.751840
vn 0.659346 0.000000 -0.751840
vn -0.555570 0.000000 0.831470
vn 0.555570 0.000000 -0.831470
vt -0.005468 0.000000
vt 0.000000 -0.005468
vt 0.000000 0.000000
vt -0.207787 -0.005468
vt 0.005468 0.000000
vt 0.000000 0.091134
vt -0.207787 0.000000
vt 0.207787 0.091134
vt 0.207787 0.000000
vt 0.005468 0.091134
vt -0.010936 0.005468
vt -0.005468 0.091134
vt 0.117563 0.085666
vt 0.090223 0.085666
vt 0.090223 -0.005468
vt -0.010936 0.079652
vt -0.196850 0.005468
vt 0.117563 0.091134
vt 0.090223 0.091134
vt 0.090223 -0.003281
vt -0.196850 0.079652
vt -0.207787 0.091134
vt 0.117563 -0.003281
vt 0.207787 -0.005468
vt 0.117563 -0.005468
vt 0.003281 0.091134
vt 0.005468 0.085666
vt -0.003281 0.085666
vt -0.005468 0.085666
vt -0.003281 0.091134
vt 0.090260 -0.002998
vt 0.016404 0.005468
vt 0.010936 0.000000
vt 0.196850 0.000000
vt 0.117526 -0.002998
vt 0.003281 0.085666
vt 0.008809 0.085666
vt 0.008524 0.091134
vt 0.008524 0.085666
vt 0.008809 0.091134
vt 0.090306 -0.002862
vt 0.091317 -0.002187
vt 0.191382 0.005468
vt 0.117480 -0.002862
vt 0.018312 0.091134
vt 0.018598 0.085666
vt 0.018598 0.091134
vt 0.026318 0.085666
vt 0.026175 0.091134
vt 0.026175 0.085666
vt 0.026318 0.091134
vt 0.090370 -0.002734
vt 0.091034 -0.002224
vt 0.116470 -0.002187
vt -0.191382 0.010754
vt -0.016404 0.079652
vt -0.191382 0.079652
vt 0.117417 -0.002734
vt 0.040473 0.091134
vt 0.040616 0.085666
vt 0.040616 0.091134
vt 0.018312 0.085666
vt 0.037517 0.085666
vt 0.037374 0.091134
vt 0.037374 0.085666
vt 0.037517 0.091134
vt 0.090449 -0.002615
vt 0.090898 -0.002270
vt 0.089965 0.085666
vt 0.090250 0.091134
vt 0.089965 0.091134
vt 0.091317 0.085666
vt 0.116470 0.091134
vt 0.091317 0.091134
vt 0.116753 -0.002224
vt -0.016404 0.010754
vt 0.117337 -0.002615
vt 0.054384 0.091134
vt 0.054527 0.085666
vt 0.054527 0.091134
vt 0.040473 0.085666
vt 0.048076 0.085666
vt 0.047933 0.091134
vt 0.047933 0.085666
vt 0.048076 0.091134
vt 0.090543 -0.002508
vt 0.090770 -0.002334
vt 0.085344 0.085666
vt 0.085487 0.091134
vt 0.085344 0.091134
vt 0.090250 0.085666
vt 0.085487 0.085666
vt 0.116470 0.085666
vt 0.115759 0.085666
vt 0.116044 0.091134
vt 0.115759 0.091134
vt 0.116888 -0.002270
vt 0.117243 -0.002508
vt 0.067364 0.091134
vt 0.067507 0.085666
vt 0.067507 0.091134
vt 0.054384 0.085666
vt 0.057814 0.085666
vt 0.057671 0.091134
vt 0.057671 0.085666
vt 0.057814 0.091134
vt 0.090651 -0.002413
vt 0.080377 0.085666
vt 0.080520 0.091134
vt 0.080377 0.091134
vt 0.080520 0.085666
vt 0.116044 0.085666
vt 0.111272 0.085666
vt 0.111415 0.091134
vt 0.111272 0.091134
vt 0.117017 -0.002334
vt 0.117136 -0.002413
vt 0.079189 0.091134
vt 0.079332 0.085666
vt 0.079332 0.091134
vt 0.067364 0.085666
vt 0.066421 0.085666
vt 0.066564 0.091134
vt 0.066421 0.091134
vt 0.074033 0.085666
vt 0.074176 0.091134
vt 0.074033 0.091134
vt 0.074176 0.085666
vt 0.111415 0.085666
vt 0.105838 0.085666
vt 0.105981 0.091134
vt 0.105838 0.091134
vt 0.089658 0.085666
vt 0.089801 0.091134
vt 0.089658 0.091134
vt 0.079189 0.085666
vt 0.066564 0.085666
vt 0.105981 0.085666
vt 0.098592 0.085666
vt 0.098735 0.091134
vt 0.098592 0.091134
vt 0.089801 0.085666
vt 0.098735 0.085666
usemtl material-0
f 1/1/1 2/2/1 3/3/1
f 2/2/1 1/1/1 4/4/1
f 3/3/2 2/2/2 1/1/2
f 4/4/2 1/1/2 2/2/2
f 2/5/3 5/6/3 3/3/3
f 3/3/4 5/6/4 2/5/4
f 5/6/5 1/1/5 3/3/5
f 3/3/6 1/1/6 5/6/6
f 4/4/1 1/1/1 6/7/1
f 6/7/2 1/1/2 4/4/2
f 7/8/6 2/3/6 4/9/6
f 4/9/5 2/3/5 7/8/5
f 5/6/3 2/5/3 8/10/3
f 8/10/4 2/5/4 5/6/4
f 1/1/5 5/6/5 9/11/5
f 9/11/6 5/6/6 1/1/6
f 1/1/5 9/11/5 6/7/5
f 6/7/6 9/11/6 1/1/6
f 6/3/4 7/12/4 4/1/4
f 4/1/3 7/12/3 6/3/3
f 2/3/6 7/8/6 10/13/6
f 10/13/5 7/8/5 2/3/5
f 2/3/6 11/14/6 8/6/6
f 8/6/5 11/14/5 2/3/5
f 12/15/2 5/3/2 8/2/2
f 8/2/1 5/3/1 12/15/1
f 9/11/5 5/6/5 13/16/5
f 13/16/6 5/6/6 9/11/6
f 14/17/5 6/7/5 9/11/5
f 9/11/6 6/7/6 14/17/6
f 7/12/4 6/3/4 15/6/4
f 15/6/3 6/3/3 7/12/3
f 10/13/6 7/8/6 16/18/6
f 16/18/5 7/8/5 10/13/5
f 11/14/6 2/3/6 10/13/6
f 10/13/5 2/3/5 11/14/5
f 8/6/6 11/14/6 12/19/6
f 12/19/5 11/14/5 8/6/5
f 5/3/2 12/15/2 17/20/2
f 17/20/1 12/15/1 5/3/1
f 13/16/5 5/6/5 18/21/5
f 18/21/6 5/6/6 13/16/6
f 6/7/5 14/17/5 15/22/5
f 15/22/6 14/17/6 6/7/6
f 15/9/2 19/23/2 7/24/2
f 7/24/1 19/23/1 15/9/1
f 7/24/2 19/23/2 16/25/2
f 16/25/1 19/23/1 7/24/1
f 19/26/3 10/27/3 16/10/3
f 16/10/4 10/27/4 19/26/4
f 10/25/2 20/20/2 11/15/2
f 11/15/1 20/20/1 10/25/1
f 20/28/4 12/12/4 11/29/4
f 11/29/3 12/12/3 20/28/3
f 12/12/4 20/28/4 17/30/4
f 17/30/3 20/28/3 12/12/3
f 5/3/2 17/20/2 21/31/2
f 21/31/1 17/20/1 5/3/1
f 15/22/5 18/21/5 5/6/5
f 5/6/6 18/21/6 15/22/6
f 22/32/2 13/33/2 18/34/2
f 18/34/1 13/33/1 22/32/1
f 15/22/5 14/17/5 18/21/5
f 18/21/6 14/17/6 15/22/6
f 15/9/2 23/35/2 19/23/2
f 19/23/1 23/35/1 15/9/1
f 10/27/3 19/26/3 24/36/3
f 24/36/4 19/26/4 10/27/4
f 20/20/2 10/25/2 25/31/2
f 25/31/1 10/25/1 20/20/1
f 25/37/7 17/38/7 20/39/7
f 20/39/8 17/38/8 25/37/8
f 17/38/7 25/37/7 21/40/7
f 21/40/8 25/37/8 17/38/8
f 5/3/2 21/31/2 26/41/2
f 26/41/1 21/31/1 5/3/1
f 5/3/2 27/42/2 15/9/2
f 15/9/1 27/42/1 5/3/1
f 22/32/2 18/34/2 28/43/2
f 28/43/1 18/34/1 22/32/1
f 15/9/2 29/44/2 23/35/2
f 23/35/1 29/44/1 15/9/1
f 23/45/9 24/46/9 19/47/9
f 19/47/10 24/46/10 23/45/10
f 30/35/2 10/25/2 24/23/2
f 24/23/1 10/25/1 30/35/1
f 25/31/2 10/25/2 31/41/2
f 31/41/1 10/25/1 25/31/1
f 31/48/11 21/49/11 25/50/11
f 25/50/12 21/49/12 31/48/12
f 21/49/11 31/48/11 26/51/11
f 26/51/12 31/48/12 21/49/12
f 5/3/2 26/41/2 32/52/2
f 32/52/1 26/41/1 5/3/1
f 5/3/2 33/53/2 27/42/2
f 27/42/1 33/53/1 5/3/1
f 15/9/2 27/42/2 34/54/2
f 34/54/1 27/42/1 15/9/1
f 35/55/5 22/56/5 28/57/5
f 28/57/6 22/56/6 35/55/6
f 15/9/2 36/58/2 29/44/2
f 29/44/1 36/58/1 15/9/1
f 29/59/13 30/60/13 23/61/13
f 23/61/14 30/60/14 29/59/14
f 24/46/9 23/45/9 30/62/9
f 30/62/10 23/45/10 24/46/10
f 37/44/2 10/25/2 30/35/2
f 30/35/1 10/25/1 37/44/1
f 31/41/2 10/25/2 38/52/2
f 38/52/1 10/25/1 31/41/1
f 38/63/15 26/64/15 31/65/15
f 31/65/16 26/64/16 38/63/16
f 26/64/15 38/63/15 32/66/15
f 32/66/16 38/63/16 26/64/16
f 5/3/2 32/52/2 39/67/2
f 39/67/1 32/52/1 5/3/1
f 5/3/2 40/68/2 33/53/2
f 33/53/1 40/68/1 5/3/1
f 41/69/17 27/70/17 33/71/17
f 33/71/18 27/70/18 41/69/18
f 42/72/6 34/73/6 27/74/6
f 27/74/5 34/73/5 42/72/5
f 15/9/2 34/54/2 43/75/2
f 43/75/1 34/54/1 15/9/1
f 22/56/5 35/55/5 44/76/5
f 44/76/6 35/55/6 22/56/6
f 15/9/2 45/77/2 36/58/2
f 36/58/1 45/77/1 15/9/1
f 36/78/19 37/79/19 29/80/19
f 29/80/20 37/79/20 36/78/20
f 30/60/13 29/59/13 37/81/13
f 37/81/14 29/59/14 30/60/14
f 46/58/2 10/25/2 37/44/2
f 37/44/1 10/25/1 46/58/1
f 38/52/2 10/25/2 47/67/2
f 47/67/1 10/25/1 38/52/1
f 47/82/21 32/83/21 38/84/21
f 38/84/22 32/83/22 47/82/22
f 32/83/21 47/82/21 39/85/21
f 39/85/22 47/82/22 32/83/22
f 5/3/2 39/67/2 48/86/2
f 48/86/1 39/67/1 5/3/1
f 5/3/2 49/87/2 40/68/2
f 40/68/1 49/87/1 5/3/1
f 50/88/23 33/89/23 40/90/23
f 40/90/24 33/89/24 50/88/24
f 27/70/17 41/69/17 42/91/17
f 42/91/18 41/69/18 27/70/18
f 33/89/23 50/88/23 41/92/23
f 41/92/24 50/88/24 33/89/24
f 34/73/6 42/72/6 51/93/6
f 51/93/5 42/72/5 34/73/5
f 51/94/25 43/95/25 34/96/25
f 34/96/26 43/95/26 51/94/26
f 15/9/2 43/75/2 52/97/2
f 52/97/1 43/75/1 15/9/1
f 15/9/2 53/98/2 45/77/2
f 45/77/1 53/98/1 15/9/1
f 45/99/27 46/100/27 36/101/27
f 36/101/28 46/100/28 45/99/28
f 37/79/19 36/78/19 46/102/19
f 46/102/20 36/78/20 37/79/20
f 54/77/2 10/25/2 46/58/2
f 46/58/1 10/25/1 54/77/1
f 47/67/2 10/25/2 55/86/2
f 55/86/1 10/25/1 47/67/1
f 55/103/29 39/104/29 47/105/29
f 47/105/30 39/104/30 55/103/30
f 39/104/29 55/103/29 48/106/29
f 48/106/30 55/103/30 39/104/30
f 5/3/2 48/86/2 56/107/2
f 56/107/1 48/86/1 5/3/1
f 5/3/2 56/107/2 49/87/2
f 49/87/1 56/107/1 5/3/1
f 57/108/31 40/109/31 49/110/31
f 49/110/32 40/109/32 57/108/32
f 40/109/31 57/108/31 50/111/31
f 50/111/32 57/108/32 40/109/32
f 41/53/2 10/25/2 42/42/2
f 42/42/1 10/25/1 41/53/1
f 50/68/2 10/25/2 41/53/2
f 41/53/1 10/25/1 50/68/1
f 42/42/2 10/25/2 51/54/2
f 51/54/1 10/25/1 42/42/1
f 43/95/25 51/94/25 58/112/25
f 58/112/26 51/94/26 43/95/26
f 58/113/33 52/114/33 43/115/33
f 43/115/34 52/114/34 58/113/34
f 15/9/2 52/97/2 59/116/2
f 59/116/1 52/97/1 15/9/1
f 15/9/2 60/117/2 53/98/2
f 53/98/1 60/117/1 15/9/1
f 53/118/35 54/119/35 45/120/35
f 45/120/36 54/119/36 53/118/36
f 46/100/27 45/99/27 54/121/27
f 54/121/28 45/99/28 46/100/28
f 61/98/2 10/25/2 54/77/2
f 54/77/1 10/25/1 61/98/1
f 55/86/2 10/25/2 62/107/2
f 62/107/1 10/25/1 55/86/1
f 55/122/37 56/123/37 48/124/37
f 48/124/38 56/123/38 55/122/38
f 62/125/39 49/126/39 56/127/39
f 56/127/40 49/126/40 62/125/40
f 49/126/39 62/125/39 57/128/39
f 57/128/40 62/125/40 49/126/40
f 57/87/2 10/25/2 50/68/2
f 50/68/1 10/25/1 57/87/1
f 51/54/2 10/25/2 58/75/2
f 58/75/1 10/25/1 51/54/1
f 52/114/33 58/113/33 63/129/33
f 63/129/34 58/113/34 52/114/34
f 63/130/41 59/131/41 52/132/41
f 52/132/42 59/131/42 63/130/42
f 15/9/2 59/116/2 60/117/2
f 60/117/1 59/116/1 15/9/1
f 64/133/43 53/134/43 60/135/43
f 60/135/44 53/134/44 64/133/44
f 54/119/35 53/118/35 61/136/35
f 61/136/36 53/118/36 54/119/36
f 64/117/2 10/25/2 61/98/2
f 61/98/1 10/25/1 64/117/1
f 62/107/2 10/25/2 57/87/2
f 57/87/1 10/25/1 62/107/1
f 56/123/37 55/122/37 62/137/37
f 62/137/38 55/122/38 56/123/38
f 58/75/2 10/25/2 63/97/2
f 63/97/1 10/25/1 58/75/1
f 59/131/41 63/130/41 65/138/41
f 65/138/42 63/130/42 59/131/42
f 65/139/45 60/140/45 59/141/45
f 59/141/46 60/140/46 65/139/46
f 53/134/43 64/133/43 61/142/43
f 61/142/44 64/133/44 53/134/44
f 60/140/45 65/139/45 64/143/45
f 64/143/46 65/139/46 60/140/46
f 65/116/2 10/25/2 64/117/2
f 64/117/1 10/25/1 65/116/1
f 63/97/2 10/25/2 65/116/2
f 65/116/1 10/25/1 63/97/1