# SSTK version 0.8.0
# 19
mtllib original-19.mtl
o #ID296
v 0.358618 0.572073 -0.021919
v 0.358618 0.588925 -0.026595
v 0.356275 0.580499 -0.024257
v 0.359773 0.580499 -0.024257
v 0.361647 0.573758 -0.022387
v 0.365019 0.565905 -0.020208
v 0.366768 0.568824 -0.021017
v 0.373764 0.563648 -0.019581
v 0.373764 0.567018 -0.020516
v 0.382508 0.565905 -0.020208
v 0.380759 0.568824 -0.021017
v 0.385880 0.573758 -0.022387
v 0.388909 0.572073 -0.021919
v 0.387754 0.580499 -0.024257
v 0.361647 0.587240 -0.026127
v 0.365019 0.595093 -0.028306
v 0.366768 0.592174 -0.027496
v 0.373764 0.597351 -0.028933
v 0.373764 0.593981 -0.027997
v 0.380759 0.592174 -0.027496
v 0.382508 0.595093 -0.028306
v 0.385880 0.587240 -0.026127
v 0.388909 0.588925 -0.026595
v 0.391252 0.580499 -0.024257
v 0.391252 0.580499 -0.024257
v 0.388909 0.572073 -0.021919
v 0.388909 0.588925 -0.026595
v 0.387754 0.580499 -0.024257
v 0.385880 0.587240 -0.026127
v 0.382508 0.595093 -0.028306
v 0.380759 0.592174 -0.027496
v 0.373764 0.597351 -0.028933
v 0.373764 0.593981 -0.027997
v 0.366768 0.592174 -0.027496
v 0.365019 0.595093 -0.028306
v 0.361647 0.587240 -0.026127
v 0.359773 0.580499 -0.024257
v 0.358618 0.588925 -0.026595
v 0.385880 0.573758 -0.022387
v 0.382508 0.565905 -0.020208
v 0.380759 0.568824 -0.021017
v 0.373764 0.567018 -0.020516
v 0.373764 0.563648 -0.019581
v 0.366768 0.568824 -0.021017
v 0.365019 0.565905 -0.020208
v 0.361647 0.573758 -0.022387
v 0.358618 0.572073 -0.021919
v 0.356275 0.580499 -0.024257
vn 0 0.2673561922676206 0.9635977721311726
vn 0 -0.2673561922676206 -0.9635977721311726
usemtl material_0_0
f 25//2 26//2 27//2
f 26//2 28//2 27//2
f 28//2 29//2 27//2
f 27//2 29//2 30//2
f 29//2 31//2 30//2
f 30//2 31//2 32//2
f 31//2 33//2 32//2
f 33//2 34//2 32//2
f 32//2 34//2 35//2
f 34//2 36//2 35//2
f 37//2 38//2 36//2
f 35//2 36//2 38//2
f 28//2 26//2 39//2
f 26//2 40//2 39//2
f 39//2 40//2 41//2
f 41//2 40//2 42//2
f 40//2 43//2 42//2
f 42//2 43//2 44//2
f 43//2 45//2 44//2
f 44//2 45//2 46//2
f 45//2 47//2 46//2
f 46//2 47//2 37//2
f 37//2 47//2 38//2
f 48//2 38//2 47//2
usemtl material_1_0
f 1//1 2//1 3//1
f 2//1 1//1 4//1
f 4//1 1//1 5//1
f 5//1 1//1 6//1
f 5//1 6//1 7//1
f 7//1 6//1 8//1
f 7//1 8//1 9//1
f 9//1 8//1 10//1
f 9//1 10//1 11//1
f 11//1 10//1 12//1
f 12//1 10//1 13//1
f 12//1 13//1 14//1
f 2//1 15//1 16//1
f 15//1 2//1 4//1
f 16//1 15//1 17//1
f 16//1 17//1 18//1
f 18//1 17//1 19//1
f 18//1 19//1 20//1
f 18//1 20//1 21//1
f 21//1 20//1 22//1
f 21//1 22//1 23//1
f 23//1 22//1 14//1
f 23//1 14//1 13//1
f 23//1 13//1 24//1
