# SSTK version 0.8.0
# 16
mtllib original-16.mtl
o #ID278
v 0.358618 0.589393 -0.024910
v 0.365019 0.595093 -0.028306
v 0.358618 0.588925 -0.026595
v 0.365019 0.595561 -0.026621
v 0.365019 0.595561 -0.026621
v 0.358618 0.589393 -0.024910
v 0.365019 0.595093 -0.028306
v 0.358618 0.588925 -0.026595
v 0.356275 0.580967 -0.022572
v 0.356275 0.580499 -0.024257
v 0.356275 0.580967 -0.022572
v 0.356275 0.580499 -0.024257
v 0.358618 0.572540 -0.020234
v 0.358618 0.589393 -0.024910
v 0.356275 0.580967 -0.022572
v 0.359773 0.580967 -0.022572
v 0.361647 0.574226 -0.020701
v 0.365019 0.566373 -0.018522
v 0.366768 0.569291 -0.019332
v 0.373764 0.564114 -0.017896
v 0.373764 0.567486 -0.018831
v 0.382508 0.566373 -0.018522
v 0.380759 0.569291 -0.019332
v 0.385880 0.574226 -0.020701
v 0.388909 0.572540 -0.020234
v 0.387754 0.580967 -0.022572
v 0.361647 0.587707 -0.024442
v 0.365019 0.595561 -0.026621
v 0.366768 0.592642 -0.025811
v 0.373764 0.597819 -0.027247
v 0.373764 0.594449 -0.026312
v 0.380759 0.592642 -0.025811
v 0.382508 0.595561 -0.026621
v 0.385880 0.587707 -0.024442
v 0.388909 0.589393 -0.024910
v 0.391252 0.580967 -0.022572
v 0.391252 0.580967 -0.022572
v 0.388909 0.572540 -0.020234
v 0.388909 0.589393 -0.024910
v 0.387754 0.580967 -0.022572
v 0.385880 0.587707 -0.024442
v 0.382508 0.595561 -0.026621
v 0.380759 0.592642 -0.025811
v 0.373764 0.597819 -0.027247
v 0.373764 0.594449 -0.026312
v 0.366768 0.592642 -0.025811
v 0.365019 0.595561 -0.026621
v 0.361647 0.587707 -0.024442
v 0.359773 0.580967 -0.022572
v 0.358618 0.589393 -0.024910
v 0.385880 0.574226 -0.020701
v 0.382508 0.566373 -0.018522
v 0.380759 0.569291 -0.019332
v 0.373764 0.567486 -0.018831
v 0.373764 0.564114 -0.017896
v 0.366768 0.569291 -0.019332
v 0.365019 0.566373 -0.018522
v 0.361647 0.574226 -0.020701
v 0.358618 0.572540 -0.020234
v 0.356275 0.580967 -0.022572
v 0.373764 0.597819 -0.027247
v 0.373764 0.597351 -0.028933
v 0.373764 0.597819 -0.027247
v 0.373764 0.597351 -0.028933
v 0.358618 0.572540 -0.020234
v 0.358618 0.572073 -0.021919
v 0.358618 0.572540 -0.020234
v 0.358618 0.572073 -0.021919
v 0.365019 0.566373 -0.018522
v 0.365019 0.565905 -0.020208
v 0.365019 0.566373 -0.018522
v 0.365019 0.565905 -0.020208
v 0.373764 0.563648 -0.019581
v 0.373764 0.564114 -0.017896
v 0.373764 0.564114 -0.017896
v 0.373764 0.563648 -0.019581
v 0.382508 0.566373 -0.018522
v 0.382508 0.565905 -0.020208
v 0.382508 0.566373 -0.018522
v 0.382508 0.565905 -0.020208
v 0.388909 0.572073 -0.021919
v 0.388909 0.572540 -0.020234
v 0.388909 0.572540 -0.020234
v 0.388909 0.572073 -0.021919
v 0.391252 0.580499 -0.024257
v 0.391252 0.580967 -0.022572
v 0.391252 0.580967 -0.022572
v 0.391252 0.580499 -0.024257
v 0.388909 0.588925 -0.026595
v 0.388909 0.589393 -0.024910
v 0.388909 0.589393 -0.024910
v 0.388909 0.588925 -0.026595
v 0.382508 0.595093 -0.028306
v 0.382508 0.595561 -0.026621
v 0.382508 0.595561 -0.026621
v 0.382508 0.595093 -0.028306
vn -0.8660253965766103 0.4817988980954538 -0.1336780994715718
vn -0.5000000154521758 0.8345001257896844 -0.2315373071555101
vn 0.5000000154521758 -0.8345001257896844 0.2315373071555101
vn 0.8660253965766103 -0.4817988980954538 0.1336780994715718
vn -1 0 0
vn 1 0 0
vn 0 0.2673561922676206 0.9635977721311726
vn 0.6377277774371629 0.2059342927140356 0.7422225737401325
vn 0.5522885034782633 0.5131908032320295 0.6569723041375525
vn 0.3188639055333267 0.7381182128087537 0.5945648103176349
vn 0 0.8204474076093379 0.5717220053025043
vn -0.3188639055333267 0.7381182128087537 0.5945648103176349
vn -0.5522885034782633 0.5131908032320295 0.6569723041375525
vn -0.6377277774371629 0.2059342927140356 0.7422225737401325
vn 0.5522884971874902 -0.10132219948402026 0.8274727957861239
vn 0.31886391011572496 -0.3262496103500309 0.8898803282308043
vn 0 -0.4085787809841209 0.912723057520478
vn -0.31886391011572496 -0.3262496103500309 0.8898803282308043
vn -0.5522884971874902 -0.10132219948402026 0.8274727957861239
vn 0 -0.2673561922676206 -0.9635977721311726
vn 0.6377277774371629 -0.2059342927140356 -0.7422225737401325
vn 0.5522884971874902 0.10132219948402026 -0.8274727957861239
vn 0.31886391011572496 0.3262496103500309 -0.8898803282308043
vn 0 0.4085787809841209 -0.912723057520478
vn -0.31886391011572496 0.3262496103500309 -0.8898803282308043
vn -0.5522884971874902 0.10132219948402026 -0.8274727957861239
vn -0.6377277774371629 -0.2059342927140356 -0.7422225737401325
vn 0.5522885034782633 -0.5131908032320295 -0.6569723041375525
vn 0.3188639055333267 -0.7381182128087537 -0.5945648103176349
vn 0 -0.8204474076093379 -0.5717220053025043
vn -0.3188639055333267 -0.7381182128087537 -0.5945648103176349
vn -0.5522885034782633 -0.5131908032320295 -0.6569723041375525
vn 0 0.9635977721311726 -0.2673561922676206
vn 0 -0.9635977721311726 0.2673561922676206
vn -0.8660253965766103 -0.4817988980954538 0.1336780994715718
vn 0.8660253965766103 0.4817988980954538 -0.1336780994715718
vn -0.5000000154521758 -0.8345001257896844 0.2315373071555101
vn 0.5000000154521758 0.8345001257896844 -0.2315373071555101
usemtl material_0_0
f 1//1 2//2 3//1
f 2//2 1//1 4//2
f 5//3 6//4 7//3
f 8//4 7//3 6//4
f 9//5 3//1 10//5
f 3//1 9//5 1//1
f 6//4 11//6 8//4
f 12//6 8//4 11//6
f 13//7 14//7 15//7
f 14//7 13//7 16//8
f 16//8 13//7 17//9
f 17//9 13//7 18//7
f 17//9 18//7 19//10
f 19//10 18//7 20//7
f 19//10 20//7 21//11
f 21//11 20//7 22//7
f 21//11 22//7 23//12
f 23//12 22//7 24//13
f 24//13 22//7 25//7
f 24//13 25//7 26//14
f 14//7 27//15 28//7
f 27//15 14//7 16//8
f 28//7 27//15 29//16
f 28//7 29//16 30//7
f 30//7 29//16 31//17
f 30//7 31//17 32//18
f 30//7 32//18 33//7
f 33//7 32//18 34//19
f 33//7 34//19 35//7
f 35//7 34//19 26//14
f 35//7 26//14 25//7
f 35//7 25//7 36//7
f 37//20 38//20 39//20
f 38//20 40//21 39//20
f 40//21 41//22 39//20
f 39//20 41//22 42//20
f 41//22 43//23 42//20
f 42//20 43//23 44//20
f 43//23 45//24 44//20
f 45//24 46//25 44//20
f 44//20 46//25 47//20
f 46//25 48//26 47//20
f 49//27 50//20 48//26
f 47//20 48//26 50//20
f 40//21 38//20 51//28
f 38//20 52//20 51//28
f 51//28 52//20 53//29
f 53//29 52//20 54//30
f 52//20 55//20 54//30
f 54//30 55//20 56//31
f 55//20 57//20 56//31
f 56//31 57//20 58//32
f 57//20 59//20 58//32
f 58//32 59//20 49//27
f 49//27 59//20 50//20
f 60//20 50//20 59//20
f 2//2 61//33 62//33
f 61//33 2//2 4//2
f 5//3 7//3 63//34
f 64//34 63//34 7//3
f 65//35 10//5 66//35
f 10//5 65//35 9//5
f 11//6 67//36 12//6
f 68//36 12//6 67//36
f 69//37 66//35 70//37
f 66//35 69//37 65//35
f 67//36 71//38 68//36
f 72//38 68//36 71//38
f 73//34 69//37 70//37
f 69//37 73//34 74//34
f 75//33 76//33 71//38
f 72//38 71//38 76//33
f 77//3 73//34 78//3
f 73//34 77//3 74//34
f 75//33 79//2 76//33
f 80//2 76//33 79//2
f 81//4 77//3 78//3
f 77//3 81//4 82//4
f 83//1 84//1 79//2
f 80//2 79//2 84//1
f 85//6 82//4 81//4
f 82//4 85//6 86//6
f 87//5 88//5 83//1
f 84//1 83//1 88//5
f 89//36 86//6 85//6
f 86//6 89//36 90//36
f 91//35 92//35 87//5
f 88//5 87//5 92//35
f 93//38 90//36 89//36
f 90//36 93//38 94//38
f 95//37 96//37 91//35
f 92//35 91//35 96//37
f 61//33 93//38 62//33
f 93//38 61//33 94//38
f 95//37 63//34 96//37
f 64//34 96//37 63//34
