# SSTK version 0.8.0
# 80
mtllib original-80.mtl
o #ID379
v -0.090605 0.268265 0.680341
v -0.090621 0.267885 0.680341
v -0.090671 0.268060 0.680341
v -0.090471 0.267742 0.680341
v -0.090408 0.268424 0.680341
v -0.090134 0.267651 0.680341
v -0.089734 0.268543 0.680341
v -0.089761 0.267715 0.680341
v -0.091095 0.264584 0.680341
v -0.091206 0.262948 0.680341
v -0.091254 0.263392 0.680341
v -0.091063 0.262618 0.680341
v -0.090617 0.265958 0.680341
v -0.090715 0.262297 0.680341
v -0.090289 0.262191 0.680341
v -0.090335 0.263592 0.680341
v -0.090239 0.263246 0.680341
v -0.089841 0.262278 0.680341
v -0.089952 0.263128 0.680341
v -0.089450 0.263342 0.680341
v -0.089370 0.262541 0.680341
v -0.088851 0.263983 0.680341
v -0.088876 0.262979 0.680341
v -0.088360 0.263592 0.680341
v -0.088123 0.265039 0.680341
v -0.087698 0.264550 0.680341
v -0.087944 0.265264 0.680341
v -0.087750 0.265339 0.680341
v -0.087550 0.265257 0.680341
v -0.087477 0.265094 0.680341
v -0.090155 0.264598 0.680341
v -0.089616 0.266013 0.680341
v -0.089097 0.268716 0.680341
v -0.088524 0.268069 0.680341
v -0.088060 0.270272 0.680341
v -0.087859 0.268279 0.680341
v -0.087787 0.269171 0.680341
v -0.087504 0.270982 0.680341
v -0.087286 0.269908 0.680341
v -0.087122 0.271209 0.680341
v -0.086904 0.270492 0.680341
v -0.086886 0.271082 0.680341
v -0.086776 0.270845 0.680341
v -0.086485 0.268625 0.680341
v -0.086340 0.269444 0.680341
v -0.086012 0.268716 0.680341
v -0.085964 0.269339 0.680341
v -0.085882 0.268843 0.680341
v -0.085839 0.269025 0.680341
vn 0 0 -1
vn 0 0 1
usemtl material_0_2
f 1//1 2//1 3//1
f 3//2 2//2 1//2
f 2//1 1//1 4//1
f 4//2 1//2 2//2
f 4//1 1//1 5//1
f 5//2 1//2 4//2
f 4//1 5//1 6//1
f 6//2 5//2 4//2
f 6//1 5//1 7//1
f 7//2 5//2 6//2
f 6//1 7//1 8//1
f 8//2 7//2 6//2
f 9//1 10//1 11//1
f 11//2 10//2 9//2
f 10//1 9//1 12//1
f 12//2 9//2 10//2
f 12//1 9//1 13//1
f 13//2 9//2 12//2
f 12//1 13//1 14//1
f 14//2 13//2 12//2
f 14//1 13//1 15//1
f 15//2 13//2 14//2
f 15//1 13//1 16//1
f 16//2 13//2 15//2
f 15//1 16//1 17//1
f 17//2 16//2 15//2
f 15//1 17//1 18//1
f 18//2 17//2 15//2
f 18//1 17//1 19//1
f 19//2 17//2 18//2
f 18//1 19//1 20//1
f 20//2 19//2 18//2
f 18//1 20//1 21//1
f 21//2 20//2 18//2
f 21//1 20//1 22//1
f 22//2 20//2 21//2
f 21//1 22//1 23//1
f 23//2 22//2 21//2
f 23//1 22//1 24//1
f 24//2 22//2 23//2
f 24//1 22//1 25//1
f 25//2 22//2 24//2
f 24//1 25//1 26//1
f 26//2 25//2 24//2
f 26//1 25//1 27//1
f 27//2 25//2 26//2
f 26//1 27//1 28//1
f 28//2 27//2 26//2
f 26//1 28//1 29//1
f 29//2 28//2 26//2
f 26//1 29//1 30//1
f 30//2 29//2 26//2
f 8//1 16//1 13//1
f 13//2 16//2 8//2
f 16//1 8//1 31//1
f 31//2 8//2 16//2
f 31//1 8//1 32//1
f 32//2 8//2 31//2
f 32//1 8//1 7//1
f 7//2 8//2 32//2
f 32//1 7//1 33//1
f 33//2 7//2 32//2
f 32//1 33//1 34//1
f 34//2 33//2 32//2
f 34//1 33//1 35//1
f 35//2 33//2 34//2
f 34//1 35//1 36//1
f 36//2 35//2 34//2
f 36//1 35//1 37//1
f 37//2 35//2 36//2
f 37//1 35//1 38//1
f 38//2 35//2 37//2
f 37//1 38//1 39//1
f 39//2 38//2 37//2
f 39//1 38//1 40//1
f 40//2 38//2 39//2
f 39//1 40//1 41//1
f 41//2 40//2 39//2
f 41//1 40//1 42//1
f 42//2 40//2 41//2
f 41//1 42//1 43//1
f 43//2 42//2 41//2
f 37//1 44//1 36//1
f 36//2 44//2 37//2
f 44//1 37//1 45//1
f 45//2 37//2 44//2
f 44//1 45//1 46//1
f 46//2 45//2 44//2
f 46//1 45//1 47//1
f 47//2 45//2 46//2
f 46//1 47//1 48//1
f 48//2 47//2 46//2
f 48//1 47//1 49//1
f 49//2 47//2 48//2
