# SSTK version 0.8.0
# 168
mtllib original-168.mtl
o #ID962
v -0.028380 0.273699 0.680211
v -0.028334 0.268907 0.680211
v -0.028263 0.274291 0.680211
v -0.028419 0.272836 0.680211
v -0.022464 0.274938 0.680211
v -0.022816 0.272902 0.680211
v -0.022198 0.272969 0.680211
v -0.023283 0.273793 0.680211
v -0.024226 0.275566 0.680211
v -0.023808 0.274410 0.680211
v -0.024419 0.274770 0.680211
v -0.025808 0.275775 0.680211
v -0.025142 0.274891 0.680211
v -0.025860 0.274781 0.680211
v -0.026976 0.275590 0.680211
v -0.026366 0.274453 0.680211
v -0.026677 0.273789 0.680211
v -0.026812 0.272674 0.680211
v -0.026812 0.271846 0.680211
v -0.026812 0.270220 0.680211
v -0.026812 0.267661 0.680211
v -0.026982 0.267034 0.680211
v -0.027444 0.275369 0.680211
v -0.027264 0.266619 0.680211
v -0.027672 0.266387 0.680211
v -0.027802 0.275076 0.680211
v -0.028220 0.266310 0.680211
v -0.028379 0.268246 0.680211
v -0.028886 0.266462 0.680211
v -0.028515 0.267860 0.680211
v -0.028722 0.267675 0.680211
v -0.028981 0.267613 0.680211
v -0.030351 0.267737 0.680211
v -0.029421 0.267742 0.680211
v -0.030056 0.268127 0.680211
v -0.022966 0.266470 0.680211
v -0.023390 0.268360 0.680211
v -0.023920 0.266310 0.680211
v -0.023292 0.269002 0.680211
v -0.023682 0.267860 0.680211
v -0.024105 0.267539 0.680211
v -0.024543 0.266368 0.680211
v -0.024595 0.267432 0.680211
v -0.025118 0.266543 0.680211
v -0.025160 0.267522 0.680211
v -0.025818 0.266939 0.680211
v -0.025770 0.267789 0.680211
v -0.026296 0.268168 0.680211
v -0.026607 0.268593 0.680211
v -0.026761 0.269223 0.680211
v -0.021627 0.269172 0.680211
v -0.021732 0.267683 0.680211
v -0.021570 0.268593 0.680211
v -0.021798 0.269692 0.680211
v -0.022217 0.266952 0.680211
v -0.022077 0.270152 0.680211
v -0.022455 0.270553 0.680211
v -0.023577 0.271219 0.680211
v -0.023422 0.269664 0.680211
v -0.023810 0.270224 0.680211
v -0.024820 0.270884 0.680211
v -0.026812 0.271846 0.680211
v -0.026812 0.272674 0.680211
v -0.024820 0.270884 0.680211
v -0.023810 0.270224 0.680211
v -0.023577 0.271219 0.680211
v -0.023422 0.269664 0.680211
v -0.023292 0.269002 0.680211
v -0.022455 0.270553 0.680211
v -0.022966 0.266470 0.680211
v -0.022217 0.266952 0.680211
v -0.022077 0.270152 0.680211
v -0.021798 0.269692 0.680211
v -0.021732 0.267683 0.680211
v -0.021627 0.269172 0.680211
v -0.021570 0.268593 0.680211
v -0.026812 0.270220 0.680211
v -0.026761 0.269223 0.680211
v -0.026812 0.267661 0.680211
v -0.026607 0.268593 0.680211
v -0.026296 0.268168 0.680211
v -0.025818 0.266939 0.680211
v -0.025770 0.267789 0.680211
v -0.025160 0.267522 0.680211
v -0.025118 0.266543 0.680211
v -0.024595 0.267432 0.680211
v -0.024543 0.266368 0.680211
v -0.024105 0.267539 0.680211
v -0.023920 0.266310 0.680211
v -0.023682 0.267860 0.680211
v -0.023390 0.268360 0.680211
v -0.030056 0.268127 0.680211
v -0.029421 0.267742 0.680211
v -0.030351 0.267737 0.680211
v -0.028981 0.267613 0.680211
v -0.028886 0.266462 0.680211
v -0.028722 0.267675 0.680211
v -0.028515 0.267860 0.680211
v -0.028379 0.268246 0.680211
v -0.028220 0.266310 0.680211
v -0.028334 0.268907 0.680211
v -0.028263 0.274291 0.680211
v -0.027802 0.275076 0.680211
v -0.027672 0.266387 0.680211
v -0.027444 0.275369 0.680211
v -0.027264 0.266619 0.680211
v -0.026982 0.267034 0.680211
v -0.026976 0.275590 0.680211
v -0.026677 0.273789 0.680211
v -0.026366 0.274453 0.680211
v -0.025860 0.274781 0.680211
v -0.025808 0.275775 0.680211
v -0.025142 0.274891 0.680211
v -0.024419 0.274770 0.680211
v -0.024226 0.275566 0.680211
v -0.023808 0.274410 0.680211
v -0.023283 0.273793 0.680211
v -0.022464 0.274938 0.680211
v -0.022816 0.272902 0.680211
v -0.022198 0.272969 0.680211
v -0.028419 0.272836 0.680211
v -0.028380 0.273699 0.680211
vn 0 0 1
vn 0 0 -1
usemtl material_0_0
f 1//1 2//1 3//1
f 2//1 1//1 4//1
f 5//1 6//1 7//1
f 6//1 5//1 8//1
f 8//1 5//1 9//1
f 8//1 9//1 10//1
f 10//1 9//1 11//1
f 11//1 9//1 12//1
f 11//1 12//1 13//1
f 13//1 12//1 14//1
f 14//1 12//1 15//1
f 14//1 15//1 16//1
f 16//1 15//1 17//1
f 17//1 15//1 18//1
f 18//1 15//1 19//1
f 19//1 15//1 20//1
f 20//1 15//1 21//1
f 21//1 15//1 22//1
f 22//1 15//1 23//1
f 22//1 23//1 24//1
f 24//1 23//1 25//1
f 25//1 23//1 26//1
f 25//1 26//1 27//1
f 27//1 26//1 3//1
f 27//1 3//1 2//1
f 27//1 2//1 28//1
f 27//1 28//1 29//1
f 29//1 28//1 30//1
f 29//1 30//1 31//1
f 29//1 31//1 32//1
f 29//1 32//1 33//1
f 33//1 32//1 34//1
f 33//1 34//1 35//1
f 36//1 37//1 38//1
f 37//1 36//1 39//1
f 38//1 37//1 40//1
f 38//1 40//1 41//1
f 38//1 41//1 42//1
f 42//1 41//1 43//1
f 42//1 43//1 44//1
f 44//1 43//1 45//1
f 44//1 45//1 46//1
f 46//1 45//1 47//1
f 46//1 47//1 48//1
f 46//1 48//1 21//1
f 21//1 48//1 49//1
f 21//1 49//1 50//1
f 21//1 50//1 20//1
f 51//1 52//1 53//1
f 52//1 51//1 54//1
f 52//1 54//1 55//1
f 55//1 54//1 56//1
f 55//1 56//1 57//1
f 55//1 57//1 36//1
f 36//1 57//1 39//1
f 39//1 57//1 58//1
f 39//1 58//1 59//1
f 59//1 58//1 60//1
f 60//1 58//1 18//1
f 60//1 18//1 61//1
f 61//1 18//1 19//1
usemtl material_1_0
f 62//2 63//2 64//2
f 64//2 63//2 65//2
f 63//2 66//2 65//2
f 65//2 66//2 67//2
f 67//2 66//2 68//2
f 66//2 69//2 68//2
f 68//2 69//2 70//2
f 70//2 69//2 71//2
f 69//2 72//2 71//2
f 72//2 73//2 71//2
f 71//2 73//2 74//2
f 73//2 75//2 74//2
f 76//2 74//2 75//2
f 77//2 78//2 79//2
f 78//2 80//2 79//2
f 80//2 81//2 79//2
f 79//2 81//2 82//2
f 81//2 83//2 82//2
f 83//2 84//2 82//2
f 82//2 84//2 85//2
f 84//2 86//2 85//2
f 85//2 86//2 87//2
f 86//2 88//2 87//2
f 87//2 88//2 89//2
f 88//2 90//2 89//2
f 90//2 91//2 89//2
f 68//2 70//2 91//2
f 89//2 91//2 70//2
f 92//2 93//2 94//2
f 93//2 95//2 94//2
f 94//2 95//2 96//2
f 95//2 97//2 96//2
f 97//2 98//2 96//2
f 98//2 99//2 96//2
f 96//2 99//2 100//2
f 99//2 101//2 100//2
f 101//2 102//2 100//2
f 102//2 103//2 100//2
f 100//2 103//2 104//2
f 103//2 105//2 104//2
f 104//2 105//2 106//2
f 106//2 105//2 107//2
f 105//2 108//2 107//2
f 107//2 108//2 79//2
f 79//2 108//2 77//2
f 77//2 108//2 62//2
f 62//2 108//2 63//2
f 63//2 108//2 109//2
f 109//2 108//2 110//2
f 110//2 108//2 111//2
f 108//2 112//2 111//2
f 111//2 112//2 113//2
f 113//2 112//2 114//2
f 112//2 115//2 114//2
f 114//2 115//2 116//2
f 116//2 115//2 117//2
f 115//2 118//2 117//2
f 117//2 118//2 119//2
f 120//2 119//2 118//2
f 121//2 122//2 101//2
f 102//2 101//2 122//2
