# SSTK version 0.8.0
# 52
mtllib original-52.mtl
o #ID314
v -0.001325 -0.040184 0.238235
v -0.004403 -0.040184 0.237726
v -0.002296 -0.040184 0.238252
v -0.000124 -0.040184 0.238214
v 0.001963 -0.040184 0.237615
v -0.006302 -0.040184 0.236673
v 0.003825 -0.040184 0.236497
v -0.007865 -0.040184 0.235165
v 0.005334 -0.040184 0.234934
v -0.008983 -0.040184 0.233303
v 0.006386 -0.040184 0.233035
v -0.009582 -0.040184 0.231216
v 0.006912 -0.040184 0.230928
v -0.00962 -0.040184 0.229044
v 0.006874 -0.040184 0.228756
v -0.009094 -0.040184 0.226937
v 0.006275 -0.040184 0.226669
v -0.008041 -0.040184 0.225037
v 0.005157 -0.040184 0.224807
v -0.006533 -0.040184 0.223475
v 0.003595 -0.040184 0.223298
v -0.004671 -0.040184 0.222357
v 0.001695 -0.040184 0.222246
v -0.002584 -0.040184 0.221758
v -0.000412 -0.040184 0.22172
v -0.001383 -0.040184 0.221737
v -0.001383 -0.040184 0.221737
v -0.000412 -0.040184 0.22172
v -0.002584 -0.040184 0.221758
v 0.001695 -0.040184 0.222246
v -0.004671 -0.040184 0.222357
v 0.003595 -0.040184 0.223298
v -0.006533 -0.040184 0.223475
v 0.005157 -0.040184 0.224807
v -0.008041 -0.040184 0.225037
v 0.006275 -0.040184 0.226669
v -0.009094 -0.040184 0.226937
v 0.006874 -0.040184 0.228756
v -0.00962 -0.040184 0.229044
v 0.006912 -0.040184 0.230928
v -0.009582 -0.040184 0.231216
v 0.006386 -0.040184 0.233035
v -0.008983 -0.040184 0.233303
v 0.005334 -0.040184 0.234934
v -0.007865 -0.040184 0.235165
v 0.003825 -0.040184 0.236497
v -0.006302 -0.040184 0.236673
v 0.001963 -0.040184 0.237615
v -0.004403 -0.040184 0.237726
v -0.000124 -0.040184 0.238214
v -0.001325 -0.040184 0.238235
v -0.002296 -0.040184 0.238252
v -0.007865 -0.040184 0.235165
v -0.006302 -0.041014 0.236673
v -0.006302 -0.040184 0.236673
v -0.007865 -0.041014 0.235165
v -0.007865 -0.041014 0.235165
v -0.007865 -0.040184 0.235165
v -0.006302 -0.041014 0.236673
v -0.006302 -0.040184 0.236673
v -0.004403 -0.041014 0.237726
v -0.004403 -0.040184 0.237726
v -0.004403 -0.041014 0.237726
v -0.004403 -0.040184 0.237726
v -0.002296 -0.041014 0.238252
v -0.002296 -0.040184 0.238252
v -0.002296 -0.041014 0.238252
v -0.002296 -0.040184 0.238252
v -0.001325 -0.041014 0.238235
v -0.001325 -0.040184 0.238235
v -0.001325 -0.041014 0.238235
v -0.001325 -0.040184 0.238235
v -0.001325 -0.040184 0.238235
v -0.000124 -0.041014 0.238214
v -0.000124 -0.040184 0.238214
v -0.001325 -0.041014 0.238235
v -0.001325 -0.041014 0.238235
v -0.001325 -0.040184 0.238235
v -0.000124 -0.041014 0.238214
v -0.000124 -0.040184 0.238214
v 0.001963 -0.041014 0.237615
v 0.001963 -0.040184 0.237615
v 0.001963 -0.041014 0.237615
v 0.001963 -0.040184 0.237615
v 0.003825 -0.041014 0.236497
v 0.003825 -0.040184 0.236497
v 0.003825 -0.041014 0.236497
v 0.003825 -0.040184 0.236497
v 0.005334 -0.040184 0.234934
v 0.005334 -0.041014 0.234934
v 0.005334 -0.040184 0.234934
v 0.005334 -0.041014 0.234934
v 0.006386 -0.040184 0.233035
v 0.006386 -0.041014 0.233035
v 0.006386 -0.040184 0.233035
v 0.006386 -0.041014 0.233035
v 0.006912 -0.040184 0.230928
v 0.006912 -0.041014 0.230928
v 0.006912 -0.040184 0.230928
v 0.006912 -0.041014 0.230928
v 0.006874 -0.040184 0.228756
v 0.006874 -0.041014 0.228756
v 0.006874 -0.040184 0.228756
v 0.006874 -0.041014 0.228756
v 0.006275 -0.040184 0.226669
v 0.006275 -0.041014 0.226669
v 0.006275 -0.040184 0.226669
v 0.006275 -0.041014 0.226669
v 0.005157 -0.040184 0.224807
v 0.005157 -0.041014 0.224807
v 0.005157 -0.040184 0.224807
v 0.005157 -0.041014 0.224807
v 0.003595 -0.041014 0.223298
v 0.003595 -0.040184 0.223298
v 0.003595 -0.040184 0.223298
v 0.003595 -0.041014 0.223298
v 0.001695 -0.041014 0.222246
v 0.001695 -0.040184 0.222246
v 0.001695 -0.040184 0.222246
v 0.001695 -0.041014 0.222246
v -0.000412 -0.041014 0.22172
v -0.000412 -0.040184 0.22172
v -0.000412 -0.040184 0.22172
v -0.000412 -0.041014 0.22172
v -0.001383 -0.041014 0.221737
v -0.001383 -0.040184 0.221737
v -0.001383 -0.040184 0.221737
v -0.001383 -0.041014 0.221737
v -0.002584 -0.041014 0.221758
v -0.001383 -0.040184 0.221737
v -0.001383 -0.041014 0.221737
v -0.002584 -0.040184 0.221758
v -0.002584 -0.040184 0.221758
v -0.002584 -0.041014 0.221758
v -0.001383 -0.040184 0.221737
v -0.001383 -0.041014 0.221737
v -0.004671 -0.041014 0.222357
v -0.004671 -0.040184 0.222357
v -0.004671 -0.040184 0.222357
v -0.004671 -0.041014 0.222357
v -0.006533 -0.041014 0.223475
v -0.006533 -0.040184 0.223475
v -0.006533 -0.040184 0.223475
v -0.006533 -0.041014 0.223475
v -0.008041 -0.040184 0.225037
v -0.008041 -0.041014 0.225037
v -0.008041 -0.040184 0.225037
v -0.008041 -0.041014 0.225037
v -0.009094 -0.040184 0.226937
v -0.009094 -0.041014 0.226937
v -0.009094 -0.040184 0.226937
v -0.009094 -0.041014 0.226937
v -0.00962 -0.040184 0.229044
v -0.00962 -0.041014 0.229044
v -0.00962 -0.040184 0.229044
v -0.00962 -0.041014 0.229044
v -0.009582 -0.040184 0.231216
v -0.009582 -0.041014 0.231216
v -0.009582 -0.040184 0.231216
v -0.009582 -0.041014 0.231216
v -0.008983 -0.040184 0.233303
v -0.008983 -0.041014 0.233303
v -0.008983 -0.040184 0.233303
v -0.008983 -0.041014 0.233303
vt 0.4925691 0.6479366
vt 0.4965865 0.672256
vt 0.4924353 0.6556068
vt 0.4927347 0.6384504
vt 0.4974643 0.6219561
vt 0.5049054 0.6872636
vt 0.5063017 0.6072479
vt 0.5168251 0.6996066
vt 0.5186448 0.5953282
vt 0.5315333 0.7084441
vt 0.5336523 0.5870093
vt 0.5480276 0.7131737
vt 0.5503016 0.5828581
vt 0.565184 0.713473
vt 0.567458 0.5831575
vt 0.5818332 0.7093218
vt 0.5839523 0.587887
vt 0.5968408 0.7010029
vt 0.5986604 0.5967245
vt 0.6091839 0.6890832
vt 0.6105801 0.6090676
vt 0.6180213 0.674375
vt 0.618899 0.6240751
vt 0.6227509 0.6578807
vt 0.6230503 0.6407244
vt 0.6229164 0.6483945
vt -0.8622712 0.1049869
vt -0.8451122 0.0984252
vt -0.8451122 0.1049869
vt -0.8622712 0.0984252
vt -0.8458778 0.1049869
vt -0.8287188 0.0984252
vt -0.8287188 0.1049869
vt -0.8458778 0.0984252
vt -0.7724239 0.1049869
vt -0.755265 0.0984252
vt -0.755265 0.1049869
vt -0.7724239 0.0984252
vt -0.6469153 0.1049869
vt -0.639244 0.0984252
vt -0.639244 0.1049869
vt -0.6469153 0.0984252
vt -0.6297563 0.0984252
vt -0.6297563 0.1049869
vt -0.4779052 0.1049869
vt -0.4607462 0.0984252
vt -0.4607462 0.1049869
vt -0.4779052 0.0984252
vt -0.2769113 0.1049869
vt -0.2597523 0.0984252
vt -0.2597523 0.1049869
vt -0.2769113 0.0984252
vt -0.04047198 0.1049869
vt -0.05763096 0.0984252
vt -0.04047198 0.0984252
vt -0.05763096 0.1049869
vt 0.1821511 0.1049869
vt 0.1649921 0.0984252
vt 0.1821511 0.0984252
vt 0.1649921 0.1049869
vt 0.3929455 0.1049869
vt 0.3757865 0.0984252
vt 0.3929455 0.0984252
vt 0.3757865 0.1049869
vt 0.5775461 0.1049869
vt 0.5603871 0.0984252
vt 0.5775461 0.0984252
vt 0.5603871 0.1049869
vt 0.7233725 0.1049869
vt 0.7062135 0.0984252
vt 0.7233725 0.0984252
vt 0.7062135 0.1049869
vt 0.8204869 0.1049869
vt 0.8033279 0.0984252
vt 0.8204869 0.0984252
vt 0.8033279 0.1049869
vt 0.8622712 0.0984252
vt 0.8451122 0.1049869
vt 0.8451122 0.0984252
vt 0.8622712 0.1049869
vt 0.8458778 0.0984252
vt 0.8287188 0.1049869
vt 0.8287188 0.0984252
vt 0.8458778 0.1049869
vt 0.7724239 0.0984252
vt 0.755265 0.1049869
vt 0.755265 0.0984252
vt 0.7724239 0.1049869
vt 0.6374277 0.0984252
vt 0.6297563 0.1049869
vt 0.6297563 0.0984252
vt 0.6374277 0.1049869
vt 0.6469153 0.0984252
vt 0.6469153 0.1049869
vt 0.4779052 0.0984252
vt 0.4607462 0.1049869
vt 0.4607462 0.0984252
vt 0.4779052 0.1049869
vt 0.2769113 0.0984252
vt 0.2597523 0.1049869
vt 0.2597523 0.0984252
vt 0.2769113 0.1049869
vt 0.05763096 0.1049869
vt 0.04047198 0.0984252
vt 0.05763096 0.0984252
vt 0.04047198 0.1049869
vt -0.1649921 0.1049869
vt -0.1821511 0.0984252
vt -0.1649921 0.0984252
vt -0.1821511 0.1049869
vt -0.3757865 0.1049869
vt -0.3929455 0.0984252
vt -0.3757865 0.0984252
vt -0.3929455 0.1049869
vt -0.5603871 0.1049869
vt -0.5775461 0.0984252
vt -0.5603871 0.0984252
vt -0.5775461 0.1049869
vt -0.7062135 0.1049869
vt -0.7233725 0.0984252
vt -0.7062135 0.0984252
vt -0.7233725 0.1049869
vt -0.8033279 0.1049869
vt -0.8204869 0.0984252
vt -0.8033279 0.0984252
vt -0.8204869 0.1049869
vn 0.0 1.0 0.0
vn 0.0 -1.0 0.0
vn -0.782611380230329 0.0 0.6225105842746608
vn -0.5948269081080708 0.0 0.8038538109573112
vn 0.782611380230329 0.0 -0.6225105842746608
vn 0.5948269081080708 0.0 -0.8038538109573112
vn -0.3665059958140453 0.0 0.9304156893734945
vn 0.3665059958140453 0.0 -0.9304156893734945
vn -0.11320839603689961 0.0 0.9935712652179273
vn 0.11320839603689961 0.0 -0.9935712652179273
vn 0.017447229747019424 0.0 0.9998477855024508
vn -0.017447229747019424 0.0 -0.9998477855024508
vn 0.1478043039778536 0.0 0.9890166266173801
vn -0.1478043039778536 0.0 -0.9890166266173801
vn 0.3987443175369948 0.0 0.9170621403328982
vn -0.3987443175369948 0.0 -0.9170621403328982
vn 0.6225105842746608 0.0 0.782611380230329
vn -0.6225105842746608 0.0 -0.782611380230329
vn 0.8038538109573112 0.0 0.5948269081080708
vn -0.8038538109573112 0.0 -0.5948269081080708
vn 0.9304156893734945 0.0 0.3665059958140453
vn -0.9304156893734945 0.0 -0.3665059958140453
vn 0.9935712652179273 0.0 0.11320839603689961
vn -0.9935712652179273 0.0 -0.11320839603689961
vn 0.9890166266173801 0.0 -0.1478043039778536
vn -0.9890166266173801 0.0 0.1478043039778536
vn 0.9170621403328982 0.0 -0.3987443175369948
vn -0.9170621403328982 0.0 0.3987443175369948
usemtl material_0_0
f 1/1/1 2/2/1 3/3/1
f 2/2/1 1/1/1 4/4/1
f 2/2/1 4/4/1 5/5/1
f 2/2/1 5/5/1 6/6/1
f 6/6/1 5/5/1 7/7/1
f 6/6/1 7/7/1 8/8/1
f 8/8/1 7/7/1 9/9/1
f 8/8/1 9/9/1 10/10/1
f 10/10/1 9/9/1 11/11/1
f 10/10/1 11/11/1 12/12/1
f 12/12/1 11/11/1 13/13/1
f 12/12/1 13/13/1 14/14/1
f 14/14/1 13/13/1 15/15/1
f 14/14/1 15/15/1 16/16/1
f 16/16/1 15/15/1 17/17/1
f 16/16/1 17/17/1 18/18/1
f 18/18/1 17/17/1 19/19/1
f 18/18/1 19/19/1 20/20/1
f 20/20/1 19/19/1 21/21/1
f 20/20/1 21/21/1 22/22/1
f 22/22/1 21/21/1 23/23/1
f 22/22/1 23/23/1 24/24/1
f 24/24/1 23/23/1 25/25/1
f 24/24/1 25/25/1 26/26/1
f 27/26/2 28/25/2 29/24/2
f 28/25/2 30/23/2 29/24/2
f 29/24/2 30/23/2 31/22/2
f 30/23/2 32/21/2 31/22/2
f 31/22/2 32/21/2 33/20/2
f 32/21/2 34/19/2 33/20/2
f 33/20/2 34/19/2 35/18/2
f 34/19/2 36/17/2 35/18/2
f 35/18/2 36/17/2 37/16/2
f 36/17/2 38/15/2 37/16/2
f 37/16/2 38/15/2 39/14/2
f 38/15/2 40/13/2 39/14/2
f 39/14/2 40/13/2 41/12/2
f 40/13/2 42/11/2 41/12/2
f 41/12/2 42/11/2 43/10/2
f 42/11/2 44/9/2 43/10/2
f 43/10/2 44/9/2 45/8/2
f 44/9/2 46/7/2 45/8/2
f 45/8/2 46/7/2 47/6/2
f 46/7/2 48/5/2 47/6/2
f 47/6/2 48/5/2 49/2/2
f 48/5/2 50/4/2 49/2/2
f 50/4/2 51/1/2 49/2/2
f 52/3/2 49/2/2 51/1/2
f 53/27/3 54/28/4 55/29/4
f 54/28/4 53/27/3 56/30/3
f 57/30/5 58/27/5 59/28/6
f 60/29/6 59/28/6 58/27/5
f 55/31/4 61/32/7 62/33/7
f 61/32/7 55/31/4 54/34/4
f 59/34/6 60/31/6 63/32/8
f 64/33/8 63/32/8 60/31/6
f 62/35/7 65/36/9 66/37/9
f 65/36/9 62/35/7 61/38/7
f 63/38/8 64/35/8 67/36/10
f 68/37/10 67/36/10 64/35/8
f 66/39/9 69/40/11 70/41/11
f 69/40/11 66/39/9 65/42/9
f 67/42/10 68/39/10 71/40/12
f 72/41/12 71/40/12 68/39/10
f 73/41/11 74/43/13 75/44/13
f 74/43/13 73/41/11 76/40/11
f 77/40/12 78/41/12 79/43/14
f 80/44/14 79/43/14 78/41/12
f 75/45/13 81/46/15 82/47/15
f 81/46/15 75/45/13 74/48/13
f 79/48/14 80/45/14 83/46/16
f 84/47/16 83/46/16 80/45/14
f 82/49/15 85/50/17 86/51/17
f 85/50/17 82/49/15 81/52/15
f 83/52/16 84/49/16 87/50/18
f 88/51/18 87/50/18 84/49/16
f 89/53/19 85/54/17 90/55/19
f 85/54/17 89/53/19 86/56/17
f 88/56/18 91/53/20 87/54/18
f 92/55/20 87/54/18 91/53/20
f 93/57/21 90/58/19 94/59/21
f 90/58/19 93/57/21 89/60/19
f 91/60/20 95/57/22 92/58/20
f 96/59/22 92/58/20 95/57/22
f 97/61/23 94/62/21 98/63/23
f 94/62/21 97/61/23 93/64/21
f 95/64/22 99/61/24 96/62/22
f 100/63/24 96/62/22 99/61/24
f 101/65/25 98/66/23 102/67/25
f 98/66/23 101/65/25 97/68/23
f 99/68/24 103/65/26 100/66/24
f 104/67/26 100/66/24 103/65/26
f 105/69/27 102/70/25 106/71/27
f 102/70/25 105/69/27 101/72/25
f 103/72/26 107/69/28 104/70/26
f 108/71/28 104/70/26 107/69/28
f 109/73/5 106/74/27 110/75/5
f 106/74/27 109/73/5 105/76/27
f 107/76/28 111/73/3 108/74/28
f 112/75/3 108/74/28 111/73/3
f 113/77/6 109/78/5 110/79/5
f 109/78/5 113/77/6 114/80/6
f 115/80/4 116/77/4 111/78/3
f 112/79/3 111/78/3 116/77/4
f 117/81/8 114/82/6 113/83/6
f 114/82/6 117/81/8 118/84/8
f 119/84/7 120/81/7 115/82/4
f 116/83/4 115/82/4 120/81/7
f 121/85/10 118/86/8 117/87/8
f 118/86/8 121/85/10 122/88/10
f 123/88/9 124/85/9 119/86/7
f 120/87/7 119/86/7 124/85/9
f 125/89/12 122/90/10 121/91/10
f 122/90/10 125/89/12 126/92/12
f 127/92/11 128/89/11 123/90/9
f 124/91/9 123/90/9 128/89/11
f 129/93/14 130/92/12 131/89/12
f 130/92/12 129/93/14 132/94/14
f 133/94/13 134/93/13 135/92/11
f 136/89/11 135/92/11 134/93/13
f 137/95/16 132/96/14 129/97/14
f 132/96/14 137/95/16 138/98/16
f 139/98/15 140/95/15 133/96/13
f 134/97/13 133/96/13 140/95/15
f 141/99/18 138/100/16 137/101/16
f 138/100/16 141/99/18 142/102/18
f 143/102/17 144/99/17 139/100/15
f 140/101/15 139/100/15 144/99/17
f 145/103/20 141/104/18 146/105/20
f 141/104/18 145/103/20 142/106/18
f 143/106/17 147/103/19 144/104/17
f 148/105/19 144/104/17 147/103/19
f 149/107/22 146/108/20 150/109/22
f 146/108/20 149/107/22 145/110/20
f 147/110/19 151/107/21 148/108/19
f 152/109/21 148/108/19 151/107/21
f 153/111/24 150/112/22 154/113/24
f 150/112/22 153/111/24 149/114/22
f 151/114/21 155/111/23 152/112/21
f 156/113/23 152/112/21 155/111/23
f 157/115/26 154/116/24 158/117/26
f 154/116/24 157/115/26 153/118/24
f 155/118/23 159/115/25 156/116/23
f 160/117/25 156/116/23 159/115/25
f 161/119/28 158/120/26 162/121/28
f 158/120/26 161/119/28 157/122/26
f 159/122/25 163/119/27 160/120/25
f 164/121/27 160/120/25 163/119/27
f 53/123/3 162/124/28 56/125/3
f 162/124/28 53/123/3 161/126/28
f 163/126/27 58/123/5 164/124/27
f 57/125/5 164/124/27 58/123/5
