# SSTK version 0.8.0
# 21
mtllib original-21.mtl
o Edge_short1/Edge_short/mesh21/mesh21-geometry#mesh21-geometry
v 0.701254 0.080719 0.387118
v 0.701254 0.080719 -0.417830
v 0.699819 0.084333 0.385683
v 0.702291 0.076971 -0.418867
v 0.699819 0.084333 -0.416395
v 0.693399 0.083399 0.379263
v 0.702291 0.076971 0.388155
v 0.703127 0.069250 -0.419703
v 0.698002 0.087771 0.383866
v 0.693399 0.087630 0.379263
v 0.655866 0.083399 0.341729
v 0.702918 0.073133 -0.419494
v 0.666368 0.079753 0.352232
v 0.698002 0.087771 -0.414578
v 0.695535 0.083399 0.377127
v 0.702918 0.073133 0.388782
v 0.695825 0.090993 0.381688
v 0.655866 0.095506 0.341729
v 0.695825 0.090993 -0.412400
v 0.695535 0.087630 0.377127
v 0.693114 0.083399 0.367586
v 0.655866 0.079753 0.341729
v 0.703127 0.069250 0.388991
v 0.655866 0.087630 0.341729
v 0.693312 0.093961 -0.409888
v 0.693114 0.087630 0.367586
v 0.688978 0.083399 0.359103
v 0.666368 0.079753 -0.382944
v 0.655866 0.095506 -0.372442
v 0.666368 0.069250 0.352232
v 0.693312 0.093961 0.379176
v 0.690495 0.096641 -0.407070
v 0.683233 0.083399 0.351896
v 0.688978 0.087630 0.359103
v 0.655866 0.079753 -0.372442
v 0.666368 0.069250 -0.382944
v 0.666368 0.095506 0.352232
v 0.666368 0.095506 -0.382944
v 0.687404 0.099001 -0.403980
v 0.690495 0.096641 0.376358
v 0.676026 0.083399 0.346150
v 0.683233 0.087630 0.351896
v 0.658001 0.087630 0.339594
v 0.666368 0.106009 -0.382944
v 0.684077 0.101014 -0.400653
v 0.687404 0.099001 0.373268
v 0.667543 0.083399 0.342014
v 0.658001 0.083399 0.339594
v 0.667543 0.087630 0.342014
v 0.676871 0.103908 -0.393447
v 0.666368 0.106009 0.352232
v 0.680552 0.102656 -0.397128
v 0.684077 0.101014 0.369941
v 0.676026 0.087630 0.346150
v 0.676871 0.106009 -0.393447
v 0.680552 0.102656 0.366416
v 0.676871 0.103908 0.362734
v 0.676871 0.106009 0.362734
vt 0.039626 0.311996
vt 0.069998 0.410312
vt 0.017682 0.21004
vt 0.205833 0.384911
vt 0 0
vt 0.108443 0.503842
vt 0.205833 0.5
vt 1 0.384911
vt 0.004422 0.105635
vt 0.777778 0.285714
vt 0.160644 0.384911
vt 0.154512 0.591493
vt 1 0.714286
vt 0.211856 0.384911
vt 1 0.285714
vt 1 0.5
vt 0.207668 0.672241
vt 0.160644 0.5
vt 0.211856 0.5
vt 0.299372 0.384911
vt 0.777778 0
vt 0.267289 0.745144
vt 0.420941 0.384911
vt 0.299372 0.5
vt 0.777778 0.714286
vt 0.33268 0.809351
vt 0.573435 0.384911
vt 0.420941 0.5
vt 0.954811 0.5
vt 0.777778 1
vt 0.403078 0.864112
vt 0.752931 0.384911
vt 0.954811 0.384911
vt 0.752931 0.5
vt 0.555556 0.942857
vt 0.47766 0.908788
vt 0.573435 0.5
vt 0.555556 1
vt 0.798157 0.231459
vt 0.000015 1
vt 1.000015 0
vt 1.000015 1
vt 1.000015 0.5
vt 0.000015 0
vn 0.9479625510009619 0.31838184919958723 0
vn 0.9080776507134473 0.41880183891041645 0
vn 0.9767799568141171 0.21424499052769355 0
vn -0.7071067811865475 0 0.7071067811865475
vn -0.7071067811865475 0 -0.7071067811865475
vn 0.8575911159870623 0.5143320695621314 0
vn 0.9941936217730274 0.10760595906282715 0
vn 0 1 0
vn 0.9985550695648407 0.053738003743685044 0
vn 0.7970919439532791 0.6038579575403331 0
vn -0.9692985307772343 0 0.245886880969878
vn -0.9390147364401977 0 0.3438769034816759
vn 0 -1 0
vn 0.7272872300926246 0.6863332171359605 0
vn -0.8454750017543605 0 0.5340150011080811
vn -1 0 0
vn 0.6489910416337501 0.7607960488062093 0
vn 0.7071067811865475 0 0.7071067811865475
vn 0.5631182322018509 0.8263763407563544 0
vn -0.5340150011080811 0 0.8454750017543605
vn 0.47067091487399537 0.8823088404247553 0
vn -0.3438769034816759 0 0.9390147364401977
vn -0.245886880969878 0 0.9692985307772343
vn 0.37272822259634286 0.927940554173688 0
vn 0.3220519942049965 0.9467219829646847 0
vn 1 0 0
vn -0.9080776507134473 -0.41880183891041645 0
vn -0.9479625510009619 -0.31838184919958723 0
vn -0.9767799568141171 -0.21424499052769355 0
vn 0.7071067811865475 0 -0.7071067811865475
vn -0.8575911159870623 -0.5143320695621314 0
vn -0.9941936217730274 -0.10760595906282715 0
vn -0.9985550695648407 -0.053738003743685044 0
vn -0.7970919439532791 -0.6038579575403331 0
vn 0.9692985307772343 0 -0.245886880969878
vn 0.9390147364401977 0 -0.3438769034816759
vn -0.7272872300926246 -0.6863332171359605 0
vn 0.8454750017543605 0 -0.5340150011080811
vn -0.6489910416337501 -0.7607960488062093 0
vn -0.5631182322018509 -0.8263763407563544 0
vn 0.5340150011080811 0 -0.8454750017543605
vn -0.47067091487399537 -0.8823088404247553 0
vn 0.3438769034816759 0 -0.9390147364401977
vn 0.245886880969878 0 -0.9692985307772343
vn -0.37272822259634286 -0.927940554173688 0
vn -0.3220519942049965 -0.9467219829646847 0
usemtl material_0_0
f 1/1/1 2/1/1 3/2/2
f 2/1/1 1/1/1 4/3/3
f 5/2/2 3/2/2 2/1/1
f 3/2/4 6/4/4 1/1/4
f 7/3/3 4/3/3 1/1/1
f 4/3/5 8/5/5 2/1/5
f 3/2/2 5/2/2 9/6/6
f 2/1/5 8/5/5 5/2/5
f 10/7/4 6/4/4 3/2/4
f 6/4/4 11/8/4 1/1/4
f 4/3/3 7/3/3 12/9/7
f 1/1/4 13/10/4 7/3/4
f 12/9/5 8/5/5 4/3/5
f 14/6/6 9/6/6 5/2/2
f 9/6/4 10/7/4 3/2/4
f 5/2/5 8/5/5 14/6/5
f 6/4/8 15/11/8 11/8/8
f 1/1/4 11/8/4 13/10/4
f 16/9/7 12/9/7 7/3/3
f 7/3/4 13/10/4 16/9/4
f 12/9/7 16/9/7 8/5/9
f 9/6/6 14/6/6 17/12/10
f 9/6/4 18/13/4 10/7/4
f 14/6/5 8/5/5 19/12/5
f 21/14/8 11/8/8 15/11/8
f 22/15/4 13/10/4 11/8/4
f 16/9/4 13/10/4 23/5/4
f 23/5/9 8/5/9 16/9/7
f 19/12/10 17/12/10 14/6/6
f 17/12/4 18/13/4 9/6/4
f 24/16/4 10/7/4 18/13/4
f 19/12/5 8/5/5 25/17/5
f 20/18/11 26/19/12 15/11/11
f 24/16/13 20/18/13 10/7/13
f 27/20/8 11/8/8 21/14/8
f 21/14/12 15/11/11 26/19/12
f 13/10/13 22/15/13 28/10/13
f 30/21/4 23/5/4 13/10/4
f 23/5/13 30/21/13 8/5/13
f 17/12/10 19/12/10 31/17/14
f 31/17/4 18/13/4 17/12/4
f 25/17/5 8/5/5 32/22/5
f 25/17/14 31/17/14 19/12/10
f 20/18/13 24/16/13 26/19/13
f 33/23/8 11/8/8 27/20/8
f 27/20/15 21/14/12 34/24/15
f 26/19/12 34/24/15 21/14/12
f 35/15/13 28/10/13 22/15/13
f 13/10/16 28/10/16 30/21/16
f 36/21/13 8/5/13 30/21/13
f 37/25/4 18/13/4 31/17/4
f 29/13/8 18/13/8 38/25/8
f 32/22/5 8/5/5 39/26/5
f 32/22/17 40/22/17 25/17/14
f 31/17/14 25/17/14 40/22/17
f 26/19/13 24/16/13 34/24/13
f 41/27/8 11/8/8 33/23/8
f 33/23/4 27/20/15 42/28/4
f 34/24/15 42/28/4 27/20/15
f 35/15/5 29/13/5 28/10/5
f 36/21/16 30/21/16 28/10/16
f 24/16/18 11/8/18 43/29/18
f 8/5/5 36/21/5 44/30/5
f 37/25/8 38/25/8 18/13/8
f 40/22/4 37/25/4 31/17/4
f 38/25/5 28/10/5 29/13/5
f 39/26/5 8/5/5 45/31/5
f 39/26/19 46/26/19 32/22/17
f 40/22/17 32/22/17 46/26/19
f 34/24/13 24/16/13 42/28/13
f 47/32/8 11/8/8 41/27/8
f 33/23/4 42/28/4 41/27/20
f 36/21/5 28/10/5 38/25/5
f 48/33/18 43/29/18 11/8/18
f 49/34/13 24/16/13 43/29/13
f 44/30/5 36/21/5 38/25/5
f 50/35/5 8/5/5 44/30/5
f 38/25/16 37/25/16 44/30/16
f 51/30/4 37/25/4 40/22/4
f 45/31/5 8/5/5 52/36/5
f 45/31/21 53/31/21 39/26/19
f 46/26/19 39/26/19 53/31/21
f 46/26/4 51/30/4 40/22/4
f 42/28/13 24/16/13 54/37/13
f 48/33/8 11/8/8 47/32/8
f 41/27/20 54/37/20 47/32/22
f 54/37/20 41/27/20 42/28/4
f 43/29/23 48/33/23 49/34/22
f 54/37/13 24/16/13 49/34/13
f 52/36/5 8/5/5 50/35/5
f 50/35/5 44/30/5 55/38/5
f 51/30/16 44/30/16 37/25/16
f 52/36/24 56/36/24 45/31/21
f 53/31/21 45/31/21 56/36/24
f 53/31/4 51/30/4 46/26/4
f 47/32/22 49/34/22 48/33/23
f 49/34/22 47/32/22 54/37/20
f 50/35/25 57/35/25 52/36/24
f 44/30/8 51/30/8 55/38/8
f 55/38/26 58/38/26 50/35/26
f 56/36/24 52/36/24 57/35/25
f 56/36/4 51/30/4 53/31/4
f 57/35/26 50/35/26 58/38/26
f 58/38/8 55/38/8 51/30/8
f 57/35/4 51/30/4 56/36/4
f 58/38/4 51/30/4 57/35/4
usemtl material_1_0
f 3//27 2//28 1//28
f 4//29 1//28 2//28
f 2//28 3//27 5//27
f 1//30 6//30 3//30
f 1//28 4//29 7//29
f 2//18 8//18 4//18
f 9//31 5//27 3//27
f 5//18 8//18 2//18
f 3//30 6//30 10//30
f 1//30 11//30 6//30
f 12//32 7//29 4//29
f 7//30 13//30 1//30
f 4//18 8//18 12//18
f 5//27 9//31 14//31
f 3//30 10//30 9//30
f 14//18 8//18 5//18
f 6//5 10//5 15//5
f 15//18 10//18 6//18
f 11//13 15//13 6//13
f 13//30 11//30 1//30
f 7//29 12//32 16//32
f 16//30 13//30 7//30
f 8//33 16//32 12//32
f 17//34 14//31 9//31
f 10//30 18//30 9//30
f 19//18 8//18 14//18
f 20//5 15//5 10//5
f 10//18 15//18 20//18
f 15//13 11//13 21//13
f 11//30 13//30 22//30
f 23//30 13//30 16//30
f 16//32 8//33 23//33
f 14//31 17//34 19//34
f 9//30 18//30 17//30
f 18//30 10//30 24//30
f 25//18 8//18 19//18
f 15//35 26//36 20//35
f 10//8 20//8 24//8
f 21//13 11//13 27//13
f 26//36 15//35 21//36
f 28//8 22//8 13//8
f 22//26 29//26 11//26
f 13//30 23//30 30//30
f 8//8 30//8 23//8
f 31//37 19//34 17//34
f 17//30 18//30 31//30
f 24//26 29//26 18//26
f 32//18 8//18 25//18
f 19//34 31//37 25//37
f 26//8 24//8 20//8
f 27//13 11//13 33//13
f 34//38 21//36 27//38
f 21//36 34//38 26//36
f 22//8 28//8 35//8
f 30//26 28//26 13//26
f 11//26 29//26 24//26
f 29//26 22//26 35//26
f 30//8 8//8 36//8
f 31//30 18//30 37//30
f 38//13 18//13 29//13
f 39//18 8//18 32//18
f 25//37 40//39 32//39
f 40//39 25//37 31//37
f 34//8 24//8 26//8
f 33//13 11//13 41//13
f 42//30 27//38 33//30
f 27//38 42//30 34//38
f 28//18 29//18 35//18
f 28//26 30//26 36//26
f 43//5 11//5 24//5
f 44//18 36//18 8//18
f 18//13 38//13 37//13
f 31//30 37//30 40//30
f 29//18 28//18 38//18
f 45//18 8//18 39//18
f 32//39 46//40 39//40
f 46//40 32//39 40//39
f 42//8 24//8 34//8
f 41//13 11//13 47//13
f 41//41 42//30 33//30
f 38//18 28//18 36//18
f 11//5 43//5 48//5
f 43//8 24//8 49//8
f 38//18 36//18 44//18
f 44//18 8//18 50//18
f 44//26 37//26 38//26
f 40//30 37//30 51//30
f 52//18 8//18 45//18
f 39//40 53//42 45//42
f 53//42 39//40 46//40
f 40//30 51//30 46//30
f 54//8 24//8 42//8
f 47//13 11//13 48//13
f 47//43 54//41 41//41
f 42//30 41//41 54//41
f 49//43 48//44 43//44
f 49//8 24//8 54//8
f 50//18 8//18 52//18
f 55//18 44//18 50//18
f 37//26 44//26 51//26
f 45//42 56//45 52//45
f 56//45 45//42 53//42
f 46//30 51//30 53//30
f 48//44 49//43 47//43
f 54//41 47//43 49//43
f 52//45 57//46 50//46
f 55//13 51//13 44//13
f 50//16 58//16 55//16
f 57//46 52//45 56//45
f 53//30 51//30 56//30
f 58//16 50//16 57//16
f 51//13 55//13 58//13
f 56//30 51//30 57//30
f 57//30 51//30 58//30
usemtl material_2_0
f 11/39/16 29/40/16 22/41/16
f 18/42/16 29/40/16 24/43/16
f 24/43/16 29/40/16 11/39/16
f 35/44/16 22/41/16 29/40/16
