mtllib new-4.mtl
v 0.243333 0.078014 -0.392272
v -0.466632 0.078014 -0.392272
v -0.063773 0.078014 -0.392272
v -0.466632 0.078014 -0.100680
v -0.466632 0.082517 -0.392272
v -0.063773 0.078014 -0.100680
v -0.466632 0.082517 -0.100680
v 0.243333 0.078014 -0.058100
v -0.063773 0.078014 -0.058100
v -0.063773 0.082517 -0.392272
v -0.063773 0.082517 -0.100680
vn 0.000000 -1.000000 0.000000
vn 0.000000 1.000000 0.000000
vn 0.000000 0.000000 -1.000000
vn -1.000000 0.000000 0.000000
vn 1.000000 0.000000 0.000000
vn 0.000000 0.000000 1.000000
vt 2.561680 3.192233
vt 2.561680 2.046564
vt 1.286980 2.026879
vt 2.561680 2.026879
vt -1.431126 2.026879
vt -3.192233 2.046564
vt -3.192233 2.026879
vt 1.286980 3.192233
vt 2.561680 1.431126
vt 1.286980 2.046564
vt -1.431126 2.046564
vt 1.286980 1.431126
usemtl material-0
f 6//2 1//2 3//2
f 4//2 3//2 2//2
f 2//1 3//1 4//1
f 9//2 1//2 6//2
f 3//2 4//2 6//2
f 6//1 4//1 3//1
f 1//2 9//2 8//2
usemtl material-3
f 3//1 1//1 6//1
f 6//1 1//1 9//1
f 8//1 9//1 1//1
usemtl material-6
f 10/2/5 6/3/5 3/4/5
f 6/5/6 7/6/6 4/7/6
f 7/8/2 10/9/2 5/1/2
f 6/3/5 10/2/5 11/10/5
f 7/6/6 6/5/6 11/11/6
f 10/9/2 7/8/2 11/12/2
usemtl material-7
f 3//4 6//4 10//4
f 4//3 7//3 6//3
f 5//1 10//1 7//1
f 11//4 10//4 6//4
f 11//3 6//3 7//3
f 11//1 7//1 10//1