mtllib new-15.mtl
v 0.538485 0.103337 -0.340697
v 0.538485 0.103337 0.529280
v 0.538485 -0.163361 -0.186719
v 0.576979 0.064843 0.529280
v 0.538485 -0.163361 0.529280
v 0.576979 -0.014614 0.529280
v 0.576979 -0.124866 0.529280
v 0.576979 -0.045410 0.529280
v 0.576979 0.064843 -0.163622
v 0.576979 -0.014614 -0.163622
v 0.576979 -0.124866 -0.163622
v 0.576979 -0.045410 -0.163622
vn -1.000000 0.000000 0.000000
vn 1.000000 0.000000 0.000000
vn 0.000000 0.000000 -1.000000
vn 0.000000 0.000000 1.000000
vt 0.000000 3.655612
vt -5.561024 3.655612
vt -4.576772 1.950837
vt -0.984252 3.655612
vt 0.000000 1.950837
vt -0.738189 3.409549
vt -0.738189 2.901650
vt -0.738189 2.196900
vt -0.984252 1.950837
vt -0.738189 2.704799
vt 0.000000 3.409549
vt 4.429134 3.409549
vt 0.000000 2.901650
vt 0.000000 2.196900
vt 0.000000 2.704799
vt 4.429134 2.901650
vt 4.429134 2.196900
vt 4.429134 2.704799
vt 0.000000 0.406179
vt -0.109361 0.406179
vt 0.000000 0.216760
vt -0.082021 0.378839
vt -0.617892 0.406179
vt -0.508530 0.216760
vt -0.082021 0.322406
vt -0.109361 0.216760
vt -0.082021 0.244100
vt -0.082021 0.300533
vt 0.000000 0.322406
vt 0.492126 0.378839
vt 0.000000 0.378839
vt 0.000000 0.300533
vt 0.000000 0.244100
vt 0.492126 0.322406
vt 0.492126 0.244100
vt 0.492126 0.300533
usemtl material-4
f 2/1/2 5/5/2 1/2/2
f 3/3/2 1/2/2 5/5/2
f 4/6/3 6/7/3 2/4/3
f 2/4/3 7/8/3 5/9/3
f 6/7/3 8/10/3 2/4/3
f 4/11/1 9/12/1 6/13/1
f 8/10/3 7/8/3 2/4/3
f 10/16/1 6/13/1 9/12/1
f 7/14/1 8/15/1 11/17/1
f 12/18/1 11/17/1 8/15/1
usemtl material-5
f 1/23/1 5/21/1 2/19/1
f 5/21/1 1/23/1 3/24/1
f 2/20/4 6/25/4 4/22/4
f 5/26/4 7/27/4 2/20/4
f 2/20/4 8/28/4 6/25/4
f 6/29/2 9/30/2 4/31/2
f 2/20/4 7/27/4 8/28/4
f 9/30/2 6/29/2 10/34/2
f 11/35/2 8/32/2 7/33/2
f 8/32/2 11/35/2 12/36/2