mtllib new-17.mtl
v 0.769452 -0.430059 -0.617858
v 0.777151 -0.468554 -0.617858
v 0.769452 -0.468554 -0.617858
v 0.777151 -0.430059 -0.617858
v 0.769452 -0.468554 0.536979
v 0.769452 -0.430059 -0.048138
v 0.777151 -0.430059 -0.048138
v 0.777151 -0.468554 0.536979
v 0.769452 -0.430059 -0.017343
v 0.777151 -0.430059 -0.017343
v 0.777151 -0.422360 0.536979
v 0.769452 -0.422360 -0.017343
v 0.769452 -0.422360 0.536979
v 0.777151 -0.422360 -0.017343
v 0.692463 -0.430059 -0.048138
v 0.769452 -0.430059 -0.048138
v 0.692463 -0.430059 -0.625556
v 0.692463 -0.430059 -0.032740
v 0.769452 -0.430059 -0.032740
v 0.769452 -0.430059 -0.625556
v 0.692463 -0.468554 -0.625556
v 0.769452 -0.468554 -0.625556
v 0.692463 -0.468554 0.529280
v 0.769452 -0.430059 0.529280
v 0.692463 -0.430059 0.529280
v 0.769452 -0.468554 0.529280
vn 0.000000 0.000000 -1.000000
vn 0.000000 0.000000 1.000000
vn 0.000000 -1.000000 0.000000
vn 0.000000 1.000000 0.000000
vn -1.000000 0.000000 0.000000
vn 1.000000 0.000000 0.000000
vn 0.000000 -1.000000 0.000000
vn 0.000000 1.000000 0.000000
vn -1.000000 0.000000 0.000000
vn 1.000000 0.000000 0.000000
vn 0.000000 0.000000 -1.000000
vn 0.000000 0.000000 1.000000
vt -0.492126 7.381890
vt 0.000000 7.381890
vt -3.690945 0.246063
vt 0.492126 0.000000
vt 0.492126 7.381890
vt 3.690945 0.246063
vt 0.492126 3.690945
vt 0.000000 3.690945
vt -3.592520 0.246063
vt 0.000000 0.000000
vt 3.592520 0.246063
vt -7.381890 0.000000
vt -7.381890 0.246063
vt -0.492126 0.000000
vt 7.381890 0.000000
vt 7.381890 0.246063
vt 0.000000 0.246063
vt 0.000000 3.592520
vt 0.492126 3.592520
vt 0.492126 0.246063
usemtl material-3
f 1//1 2//1 3//1
f 2//1 1//1 4//1
f 3//2 2//2 1//2
f 4//2 1//2 2//2
f 2//3 5//3 3//3
f 3//4 5//4 2//4
f 3//5 6//5 1//5
f 1//6 6//6 3//6
f 1//4 7//4 4//4
f 4//3 7//3 1//3
f 7//6 2//6 4//6
f 4//5 2//5 7//5
f 5//3 2//3 8//3
f 8//4 2//4 5//4
f 5//5 9//5 3//5
f 3//6 9//6 5//6
f 3//5 9//5 6//5
f 6//6 9//6 3//6
f 7//4 1//4 6//4
f 6//3 1//3 7//3
f 10//6 2//6 7//6
f 7//5 2//5 10//5
f 2//6 11//6 8//6
f 8//5 11//5 2//5
f 11//2 5//2 8//2
f 8//1 5//1 11//1
f 5//5 12//5 9//5
f 9//6 12//6 5//6
f 11//6 2//6 10//6
f 10//5 2//5 11//5
f 5//2 11//2 13//2
f 13//1 11//1 5//1
f 12//5 5//5 13//5
f 13//6 5//6 12//6
f 12//1 10//1 9//1
f 9//2 10//2 12//2
f 14//6 11//6 10//6
f 10//5 11//5 14//5
f 11//4 12//4 13//4
f 13//3 12//3 11//3
f 10//1 12//1 14//1
f 14//2 12//2 10//2
f 12//4 11//4 14//4
f 14//3 11//3 12//3
usemtl material-4
f 16/7/8 17/2/8 15/8/8
f 15/8/7 17/2/7 16/7/7
f 17/2/8 16/7/8 20/5/8
f 20/5/7 16/7/7 17/2/7
f 21/12/9 15/3/9 17/13/9
f 17/13/10 15/3/10 21/12/10
f 21/12/9 18/9/9 15/3/9
f 15/3/10 18/9/10 21/12/10
f 19/11/10 22/15/10 16/6/10
f 16/6/9 22/15/9 19/11/9
f 16/6/10 22/15/10 20/16/10
f 20/16/9 22/15/9 16/6/9
f 23/10/9 18/9/9 21/12/9
f 21/12/10 18/9/10 23/10/10
f 18/18/8 24/4/8 19/19/8
f 19/19/7 24/4/7 18/18/7
f 24/17/10 22/15/10 19/11/10
f 19/11/9 22/15/9 24/17/9
f 22/1/7 23/10/7 21/2/7
f 21/2/8 23/10/8 22/1/8
f 18/9/9 23/10/9 25/17/9
f 25/17/10 23/10/10 18/9/10
f 24/4/8 18/18/8 25/10/8
f 25/10/7 18/18/7 24/4/7
f 22/15/10 24/17/10 26/10/10
f 26/10/9 24/17/9 22/15/9
f 23/10/7 22/1/7 26/14/7
f 26/14/8 22/1/8 23/10/8
f 23/10/12 24/20/12 25/17/12
f 25/17/11 24/20/11 23/10/11
f 24/20/12 23/10/12 26/4/12
f 26/4/11 23/10/11 24/20/11