# SSTK version 0.8.0
# 139
mtllib original-139.mtl
o mesh26/mesh26-geometry/material_1/component_1#mesh26-geometry
v -0.281906 0.586178 0.535316
v -0.279587 0.568568 0.535316
v -0.279587 0.580581 0.535316
v -0.279587 0.580581 0.535316
v -0.279587 0.568568 0.535316
v -0.281906 0.586178 0.535316
v -0.279587 0.580581 0.535316
v -0.279587 0.568568 0.535316
v -0.278796 0.574574 0.535316
v -0.278796 0.574574 0.535316
v -0.279587 0.568568 0.535316
v -0.279587 0.580581 0.535316
v -0.285594 0.590984 0.535316
v -0.281906 0.562971 0.535316
v -0.281906 0.586178 0.535316
v -0.281906 0.586178 0.535316
v -0.281906 0.562971 0.535316
v -0.285594 0.590984 0.535316
v -0.281906 0.586178 0.535316
v -0.281906 0.562971 0.535316
v -0.279587 0.568568 0.535316
v -0.279587 0.568568 0.535316
v -0.281906 0.562971 0.535316
v -0.281906 0.586178 0.535316
v -0.285594 0.590984 0.535316
v -0.285594 0.558164 0.535316
v -0.281906 0.562971 0.535316
v -0.281906 0.562971 0.535316
v -0.285594 0.558164 0.535316
v -0.285594 0.590984 0.535316
v -0.290400 0.594672 0.535316
v -0.290400 0.554476 0.535316
v -0.285594 0.590984 0.535316
v -0.285594 0.590984 0.535316
v -0.290400 0.554476 0.535316
v -0.290400 0.594672 0.535316
v -0.285594 0.590984 0.535316
v -0.290400 0.554476 0.535316
v -0.285594 0.558164 0.535316
v -0.285594 0.558164 0.535316
v -0.290400 0.554476 0.535316
v -0.285594 0.590984 0.535316
v -0.295997 0.596991 0.535316
v -0.290400 0.554476 0.535316
v -0.290400 0.594672 0.535316
v -0.290400 0.594672 0.535316
v -0.290400 0.554476 0.535316
v -0.295997 0.596991 0.535316
v -0.302004 0.597781 0.535316
v -0.295997 0.552158 0.535316
v -0.295997 0.596991 0.535316
v -0.295997 0.596991 0.535316
v -0.295997 0.552158 0.535316
v -0.302004 0.597781 0.535316
v -0.308010 0.596991 0.535316
v -0.308010 0.552158 0.535316
v -0.302004 0.597781 0.535316
v -0.302004 0.597781 0.535316
v -0.308010 0.552158 0.535316
v -0.308010 0.596991 0.535316
v -0.313607 0.594672 0.535316
v -0.308010 0.552158 0.535316
v -0.308010 0.596991 0.535316
v -0.308010 0.596991 0.535316
v -0.308010 0.552158 0.535316
v -0.313607 0.594672 0.535316
v -0.318413 0.590984 0.535316
v -0.313607 0.554476 0.535316
v -0.313607 0.594672 0.535316
v -0.313607 0.594672 0.535316
v -0.313607 0.554476 0.535316
v -0.318413 0.590984 0.535316
v -0.322101 0.586178 0.535316
v -0.318413 0.558164 0.535316
v -0.318413 0.590984 0.535316
v -0.318413 0.590984 0.535316
v -0.318413 0.558164 0.535316
v -0.322101 0.586178 0.535316
v -0.324420 0.580581 0.535316
v -0.322101 0.562971 0.535316
v -0.322101 0.586178 0.535316
v -0.322101 0.586178 0.535316
v -0.322101 0.562971 0.535316
v -0.324420 0.580581 0.535316
v -0.324420 0.568568 0.535316
v -0.324420 0.580581 0.535316
v -0.325211 0.574574 0.535316
v -0.325211 0.574574 0.535316
v -0.324420 0.580581 0.535316
v -0.324420 0.568568 0.535316
v -0.295997 0.596991 0.535316
v -0.295997 0.552158 0.535316
v -0.290400 0.554476 0.535316
v -0.290400 0.554476 0.535316
v -0.295997 0.552158 0.535316
v -0.295997 0.596991 0.535316
v -0.302004 0.597781 0.535316
v -0.302004 0.551367 0.535316
v -0.295997 0.552158 0.535316
v -0.295997 0.552158 0.535316
v -0.302004 0.551367 0.535316
v -0.302004 0.597781 0.535316
v -0.302004 0.597781 0.535316
v -0.308010 0.552158 0.535316
v -0.302004 0.551367 0.535316
v -0.302004 0.551367 0.535316
v -0.308010 0.552158 0.535316
v -0.302004 0.597781 0.535316
v -0.313607 0.594672 0.535316
v -0.313607 0.554476 0.535316
v -0.308010 0.552158 0.535316
v -0.308010 0.552158 0.535316
v -0.313607 0.554476 0.535316
v -0.313607 0.594672 0.535316
v -0.318413 0.590984 0.535316
v -0.318413 0.558164 0.535316
v -0.313607 0.554476 0.535316
v -0.313607 0.554476 0.535316
v -0.318413 0.558164 0.535316
v -0.318413 0.590984 0.535316
v -0.322101 0.586178 0.535316
v -0.322101 0.562971 0.535316
v -0.318413 0.558164 0.535316
v -0.318413 0.558164 0.535316
v -0.322101 0.562971 0.535316
v -0.322101 0.586178 0.535316
v -0.324420 0.580581 0.535316
v -0.324420 0.568568 0.535316
v -0.322101 0.562971 0.535316
v -0.322101 0.562971 0.535316
v -0.324420 0.568568 0.535316
v -0.324420 0.580581 0.535316
vt -18.982666015625 7.712768077850342
vt -18.969322204589844 7.61141300201416
vt -18.969322204589844 7.680553913116455
vt -18.964771270751953 7.645984172821045
vt -19.00389289855957 7.74043083190918
vt -18.982666015625 7.579198837280273
vt -19.00389289855957 7.5515360832214355
vt -19.03155517578125 7.761658191680908
vt -19.03155517578125 7.530309200286865
vt -19.063770294189453 7.7750020027160645
vt -19.098339080810547 7.779552936553955
vt -19.063770294189453 7.516964912414551
vt -19.132911682128906 7.7750020027160645
vt -19.132911682128906 7.516964912414551
vt -19.165124893188477 7.761658191680908
vt -19.192787170410156 7.74043083190918
vt -19.165124893188477 7.530309200286865
vt -19.214014053344727 7.712768077850342
vt -19.192787170410156 7.5515360832214355
vt -19.227359771728516 7.680553913116455
vt -19.214014053344727 7.579198837280273
vt -19.227359771728516 7.61141300201416
vt -19.231910705566406 7.645984172821045
vt -19.098339080810547 7.51241397857666
vn 0 0 1
vn 0 0 -1
usemtl material_0_0
f 1/1/1 2/2/1 3/3/1
f 4/3/2 5/2/2 6/1/2
f 7/3/1 8/2/1 9/4/1
f 10/4/2 11/2/2 12/3/2
f 13/5/1 14/6/1 15/1/1
f 16/1/2 17/6/2 18/5/2
f 19/1/1 20/6/1 21/2/1
f 22/2/2 23/6/2 24/1/2
f 25/5/1 26/7/1 27/6/1
f 28/6/2 29/7/2 30/5/2
f 31/8/1 32/9/1 33/5/1
f 34/5/2 35/9/2 36/8/2
f 37/5/1 38/9/1 39/7/1
f 40/7/2 41/9/2 42/5/2
f 43/10/1 44/9/1 45/8/1
f 46/8/2 47/9/2 48/10/2
f 49/11/1 50/12/1 51/10/1
f 52/10/2 53/12/2 54/11/2
f 55/13/1 56/14/1 57/11/1
f 58/11/2 59/14/2 60/13/2
f 61/15/1 62/14/1 63/13/1
f 64/13/2 65/14/2 66/15/2
f 67/16/1 68/17/1 69/15/1
f 70/15/2 71/17/2 72/16/2
f 73/18/1 74/19/1 75/16/1
f 76/16/2 77/19/2 78/18/2
f 79/20/1 80/21/1 81/18/1
f 82/18/2 83/21/2 84/20/2
f 85/22/1 86/20/1 87/23/1
f 88/23/2 89/20/2 90/22/2
f 91/10/1 92/12/1 93/9/1
f 94/9/2 95/12/2 96/10/2
f 97/11/1 98/24/1 99/12/1
f 100/12/2 101/24/2 102/11/2
f 103/11/1 104/14/1 105/24/1
f 106/24/2 107/14/2 108/11/2
f 109/15/1 110/17/1 111/14/1
f 112/14/2 113/17/2 114/15/2
f 115/16/1 116/19/1 117/17/1
f 118/17/2 119/19/2 120/16/2
f 121/18/1 122/21/1 123/19/1
f 124/19/2 125/21/2 126/18/2
f 127/20/1 128/22/1 129/21/1
f 130/21/2 131/22/2 132/20/2
