# SSTK version 0.8.0
# 154
mtllib original-154.mtl
o Group25/mesh37/mesh37-geometry/material_1#mesh37-geometry
v 0.161227 0.716799 0.152893
v 0.152940 0.716799 0.253899
v 0.148563 0.716799 0.161155
v 0.148563 0.716799 0.161155
v 0.152940 0.716799 0.253899
v 0.161227 0.716799 0.152893
v 0.161227 0.716799 0.152893
v 0.166324 0.716799 0.260896
v 0.152940 0.716799 0.253899
v 0.152940 0.716799 0.253899
v 0.166324 0.716799 0.260896
v 0.161227 0.716799 0.152893
v 0.148563 0.716799 0.161155
v 0.152940 0.716799 0.253899
v 0.141797 0.716799 0.243626
v 0.141797 0.716799 0.243626
v 0.152940 0.716799 0.253899
v 0.148563 0.716799 0.161155
v 0.148563 0.716799 0.161155
v 0.141797 0.716799 0.243626
v 0.138438 0.716799 0.172461
v 0.138438 0.716799 0.172461
v 0.141797 0.716799 0.243626
v 0.148563 0.716799 0.161155
v 0.175566 0.716799 0.148238
v 0.166324 0.716799 0.260896
v 0.161227 0.716799 0.152893
v 0.161227 0.716799 0.152893
v 0.166324 0.716799 0.260896
v 0.175566 0.716799 0.148238
v 0.138438 0.716799 0.172461
v 0.141797 0.716799 0.243626
v 0.133654 0.716799 0.230777
v 0.133654 0.716799 0.230777
v 0.141797 0.716799 0.243626
v 0.138438 0.716799 0.172461
v 0.175566 0.716799 0.148238
v 0.181036 0.716799 0.264139
v 0.166324 0.716799 0.260896
v 0.166324 0.716799 0.260896
v 0.181036 0.716799 0.264139
v 0.175566 0.716799 0.148238
v 0.138438 0.716799 0.172461
v 0.133654 0.716799 0.230777
v 0.131543 0.716799 0.186041
v 0.131543 0.716799 0.186041
v 0.133654 0.716799 0.230777
v 0.138438 0.716799 0.172461
v 0.190605 0.716799 0.147507
v 0.181036 0.716799 0.264139
v 0.175566 0.716799 0.148238
v 0.175566 0.716799 0.148238
v 0.181036 0.716799 0.264139
v 0.190605 0.716799 0.147507
v 0.131543 0.716799 0.186041
v 0.133654 0.716799 0.230777
v 0.129066 0.716799 0.216227
v 0.129066 0.716799 0.216227
v 0.133654 0.716799 0.230777
v 0.131543 0.716799 0.186041
v 0.190605 0.716799 0.147507
v 0.196074 0.716799 0.263409
v 0.181036 0.716799 0.264139
v 0.181036 0.716799 0.264139
v 0.196074 0.716799 0.263409
v 0.190605 0.716799 0.147507
v 0.131543 0.716799 0.186041
v 0.129066 0.716799 0.216227
v 0.128346 0.716799 0.200969
v 0.128346 0.716799 0.200969
v 0.129066 0.716799 0.216227
v 0.131543 0.716799 0.186041
v 0.205317 0.716799 0.150750
v 0.196074 0.716799 0.263409
v 0.190605 0.716799 0.147507
v 0.190605 0.716799 0.147507
v 0.196074 0.716799 0.263409
v 0.205317 0.716799 0.150750
v 0.205317 0.716799 0.150750
v 0.210414 0.716799 0.258754
v 0.196074 0.716799 0.263409
v 0.196074 0.716799 0.263409
v 0.210414 0.716799 0.258754
v 0.205317 0.716799 0.150750
v 0.218701 0.716799 0.157747
v 0.210414 0.716799 0.258754
v 0.205317 0.716799 0.150750
v 0.205317 0.716799 0.150750
v 0.210414 0.716799 0.258754
v 0.218701 0.716799 0.157747
v 0.218701 0.716799 0.157747
v 0.223078 0.716799 0.250491
v 0.210414 0.716799 0.258754
v 0.210414 0.716799 0.258754
v 0.223078 0.716799 0.250491
v 0.218701 0.716799 0.157747
v 0.229844 0.716799 0.168020
v 0.223078 0.716799 0.250491
v 0.218701 0.716799 0.157747
v 0.218701 0.716799 0.157747
v 0.223078 0.716799 0.250491
v 0.229844 0.716799 0.168020
v 0.229844 0.716799 0.168020
v 0.233202 0.716799 0.239185
v 0.223078 0.716799 0.250491
v 0.223078 0.716799 0.250491
v 0.233202 0.716799 0.239185
v 0.229844 0.716799 0.168020
v 0.237987 0.716799 0.180869
v 0.233202 0.716799 0.239185
v 0.229844 0.716799 0.168020
v 0.229844 0.716799 0.168020
v 0.233202 0.716799 0.239185
v 0.237987 0.716799 0.180869
v 0.237987 0.716799 0.180869
v 0.240098 0.716799 0.225605
v 0.233202 0.716799 0.239185
v 0.233202 0.716799 0.239185
v 0.240098 0.716799 0.225605
v 0.237987 0.716799 0.180869
v 0.242575 0.716799 0.195419
v 0.240098 0.716799 0.225605
v 0.237987 0.716799 0.180869
v 0.237987 0.716799 0.180869
v 0.240098 0.716799 0.225605
v 0.242575 0.716799 0.195419
v 0.240098 0.716799 0.225605
v 0.242575 0.716799 0.195419
v 0.243295 0.716799 0.210678
v 0.243295 0.716799 0.210678
v 0.242575 0.716799 0.195419
v 0.240098 0.716799 0.225605
vt 0 0
vn 0 -1 0
vn 0 1 0
usemtl material_0_0
f 1/1/1 2/1/1 3/1/1
f 4/1/2 5/1/2 6/1/2
f 7/1/1 8/1/1 9/1/1
f 10/1/2 11/1/2 12/1/2
f 13/1/1 14/1/1 15/1/1
f 16/1/2 17/1/2 18/1/2
f 19/1/1 20/1/1 21/1/1
f 22/1/2 23/1/2 24/1/2
f 25/1/1 26/1/1 27/1/1
f 28/1/2 29/1/2 30/1/2
f 31/1/1 32/1/1 33/1/1
f 34/1/2 35/1/2 36/1/2
f 37/1/1 38/1/1 39/1/1
f 40/1/2 41/1/2 42/1/2
f 43/1/1 44/1/1 45/1/1
f 46/1/2 47/1/2 48/1/2
f 49/1/1 50/1/1 51/1/1
f 52/1/2 53/1/2 54/1/2
f 55/1/1 56/1/1 57/1/1
f 58/1/2 59/1/2 60/1/2
f 61/1/1 62/1/1 63/1/1
f 64/1/2 65/1/2 66/1/2
f 67/1/1 68/1/1 69/1/1
f 70/1/2 71/1/2 72/1/2
f 73/1/1 74/1/1 75/1/1
f 76/1/2 77/1/2 78/1/2
f 79/1/1 80/1/1 81/1/1
f 82/1/2 83/1/2 84/1/2
f 85/1/1 86/1/1 87/1/1
f 88/1/2 89/1/2 90/1/2
f 91/1/1 92/1/1 93/1/1
f 94/1/2 95/1/2 96/1/2
f 97/1/1 98/1/1 99/1/1
f 100/1/2 101/1/2 102/1/2
f 103/1/1 104/1/1 105/1/1
f 106/1/2 107/1/2 108/1/2
f 109/1/1 110/1/1 111/1/1
f 112/1/2 113/1/2 114/1/2
f 115/1/1 116/1/1 117/1/1
f 118/1/2 119/1/2 120/1/2
f 121/1/1 122/1/1 123/1/1
f 124/1/2 125/1/2 126/1/2
f 127/1/1 128/1/1 129/1/1
f 130/1/2 131/1/2 132/1/2
