# SSTK version 0.8.0
# 167
mtllib original-167.mtl
o Group57/mesh88/mesh88-geometry/material_3/component_0#mesh88-geometry
v 0.369292 0.426084 0.488518
v 0.369329 0.468836 0.488518
v 0.329494 0.426084 0.488518
v 0.329494 0.468836 0.488518
v 0.329494 0.426084 0.488518
v 0.369329 0.468836 0.488518
v 0.374758 0.426881 0.488518
v 0.369329 0.468836 0.488518
v 0.369292 0.426084 0.488518
v 0.374793 0.468029 0.488518
v 0.369329 0.468836 0.488518
v 0.374758 0.426881 0.488518
v 0.379837 0.429052 0.488518
v 0.374793 0.468029 0.488518
v 0.374758 0.426881 0.488518
v 0.379869 0.465849 0.488518
v 0.374793 0.468029 0.488518
v 0.379837 0.429052 0.488518
v 0.384191 0.432452 0.488518
v 0.379869 0.465849 0.488518
v 0.379837 0.429052 0.488518
v 0.384217 0.462442 0.488518
v 0.379869 0.465849 0.488518
v 0.384191 0.432452 0.488518
v 0.387528 0.436854 0.488518
v 0.384217 0.462442 0.488518
v 0.384191 0.432452 0.488518
v 0.387546 0.458034 0.488518
v 0.384217 0.462442 0.488518
v 0.387528 0.436854 0.488518
v 0.389626 0.441964 0.488518
v 0.387546 0.458034 0.488518
v 0.387528 0.436854 0.488518
v 0.389635 0.452920 0.488518
v 0.387546 0.458034 0.488518
v 0.389626 0.441964 0.488518
v 0.390344 0.447442 0.488518
v 0.389635 0.452920 0.488518
v 0.389626 0.441964 0.488518
v 0.218992 0.468836 0.488518
v 0.218992 0.426084 0.488518
v 0.329494 0.468836 0.488518
v 0.329494 0.426084 0.488518
v 0.329494 0.468836 0.488518
v 0.218992 0.426084 0.488518
v 0.329494 0.468836 0.488518
v 0.218992 0.426084 0.488518
v 0.218992 0.468836 0.488518
v 0.218992 0.426084 0.488518
v 0.329494 0.468836 0.488518
v 0.329494 0.426084 0.488518
v 0.329494 0.426084 0.488518
v 0.369329 0.468836 0.488518
v 0.369292 0.426084 0.488518
v 0.369329 0.468836 0.488518
v 0.329494 0.426084 0.488518
v 0.329494 0.468836 0.488518
v 0.369292 0.426084 0.488518
v 0.369329 0.468836 0.488518
v 0.374758 0.426881 0.488518
v 0.374758 0.426881 0.488518
v 0.369329 0.468836 0.488518
v 0.374793 0.468029 0.488518
v 0.374758 0.426881 0.488518
v 0.374793 0.468029 0.488518
v 0.379837 0.429052 0.488518
v 0.379837 0.429052 0.488518
v 0.374793 0.468029 0.488518
v 0.379869 0.465849 0.488518
v 0.379837 0.429052 0.488518
v 0.379869 0.465849 0.488518
v 0.384191 0.432452 0.488518
v 0.384191 0.432452 0.488518
v 0.379869 0.465849 0.488518
v 0.384217 0.462442 0.488518
v 0.384191 0.432452 0.488518
v 0.384217 0.462442 0.488518
v 0.387528 0.436854 0.488518
v 0.387528 0.436854 0.488518
v 0.384217 0.462442 0.488518
v 0.387546 0.458034 0.488518
v 0.387528 0.436854 0.488518
v 0.387546 0.458034 0.488518
v 0.389626 0.441964 0.488518
v 0.389626 0.441964 0.488518
v 0.387546 0.458034 0.488518
v 0.389635 0.452920 0.488518
v 0.389626 0.441964 0.488518
v 0.389635 0.452920 0.488518
v 0.390344 0.447442 0.488518
vt 1.4045649766921997 0.9834660291671753
vt 1.4045339822769165 1.0190989971160889
vt 1.4377349615097046 0.9834660291671753
vt 1.4377349615097046 1.0190989971160889
vt 1.400009036064148 0.9841309785842896
vt 1.3999789953231812 1.0184270143508911
vt 1.3957749605178833 0.9859399795532227
vt 1.3957480192184448 1.016610026359558
vt 1.3921459913253784 0.9887740015983582
vt 1.3921250104904175 1.0137699842453003
vt 1.3893649578094482 0.9924430251121521
vt 1.3893500566482544 1.0100959539413452
vt 1.3876160383224487 0.996703028678894
vt 1.3876090049743652 1.0058339834213257
vt 1.3870179653167725 1.0012680292129517
vt 0 0
vt 2.51173996925354 1.780377984046936
vt 2.672640085220337 1.7181270122528076
vt 2.672640085220337 1.780377984046936
vt 2.51173996925354 1.7181270122528076
vt 2.4537370204925537 1.780377984046936
vt 2.4537909030914307 1.7181270122528076
vt 2.4458320140838623 1.7192879915237427
vt 2.445780038833618 1.77920401096344
vt 2.4384360313415527 1.7224500179290771
vt 2.4383890628814697 1.7760299444198608
vt 2.432096004486084 1.7273999452590942
vt 2.432058095932007 1.7710679769515991
vt 2.427237033843994 1.7338099479675293
vt 2.4272100925445557 1.7646499872207642
vt 2.424182891845703 1.741250991821289
vt 2.4241690635681152 1.7572029829025269
vt 2.4231369495391846 1.7492259740829468
vn 0 0 1
vn 0 0 -1
usemtl material_0_0
f 1/1/1 2/2/1 3/3/1
f 4/4/1 5/3/1 6/2/1
f 7/5/1 8/2/1 9/1/1
f 10/6/1 11/2/1 12/5/1
f 13/7/1 14/6/1 15/5/1
f 16/8/1 17/6/1 18/7/1
f 19/9/1 20/8/1 21/7/1
f 22/10/1 23/8/1 24/9/1
f 25/11/1 26/10/1 27/9/1
f 28/12/1 29/10/1 30/11/1
f 31/13/1 32/12/1 33/11/1
f 34/14/1 35/12/1 36/13/1
f 37/15/1 38/14/1 39/13/1
usemtl material_1_0
f 40/16/1 41/16/1 42/16/1
f 43/16/1 44/16/1 45/16/1
usemtl material_2_0
f 46/17/2 47/18/2 48/19/2
f 49/18/2 50/17/2 51/20/2
f 52/20/2 53/21/2 54/22/2
f 55/21/2 56/20/2 57/17/2
f 58/22/2 59/21/2 60/23/2
f 61/23/2 62/21/2 63/24/2
f 64/23/2 65/24/2 66/25/2
f 67/25/2 68/24/2 69/26/2
f 70/25/2 71/26/2 72/27/2
f 73/27/2 74/26/2 75/28/2
f 76/27/2 77/28/2 78/29/2
f 79/29/2 80/28/2 81/30/2
f 82/29/2 83/30/2 84/31/2
f 85/31/2 86/30/2 87/32/2
f 88/31/2 89/32/2 90/33/2
