# SSTK version 0.8.0
# 9
mtllib original-9.mtl
o E3_1_1/E3_1/mesh5/mesh5-geometry#mesh5-geometry
v 0.390362 -0.717964 -0.541084
v 0.373821 -0.717964 -0.541084
v 0.390362 -0.519471 -0.541084
v 0.390362 -0.717964 0.379705
v 0.373821 -0.519471 -0.541084
v 0.373821 -0.717964 0.379705
v 0.373821 -0.519471 0.379705
v 0.390362 -0.519471 0.379705
vt 0.423307 -0.100053
vt 0.41289 -0.100053
vt 0.423307 -0.006303
vt 0.41289 -0.107866
vt -0.022006 -0.107866
vt 0.41289 -0.006303
vt -0.022006 -0.100053
vt -0.022006 -0.006303
vt -0.434896 0
vt -0.434896 0.09375
vt 0 0
vt 0.010417 0.434896
vt 0.010417 0
vt 0 0.434896
vt 0 0.09375
vt 0.010417 0.09375
vn 0 0 -1
vn 0 -1 0
vn -1 0 0
vn 0 0 1
vn 0 1 0
vn 1 0 0
usemtl material_0_0
f 1/1/1 2/2/1 3/3/1
f 1/4/2 4/5/2 2/2/2
f 5/6/1 3/3/1 2/2/1
f 6/7/2 2/2/2 4/5/2
f 5/6/3 2/2/3 7/8/3
f 6/7/3 7/8/3 2/2/3
usemtl material_1_0
f 3//4 2//4 1//4
f 2//5 4//5 1//5
f 2//4 3//4 5//4
f 4//3 3//3 1//3
f 4//5 2//5 6//5
f 3//2 7//2 5//2
f 7//6 2//6 5//6
f 3//3 4//3 8//3
f 2//6 7//6 6//6
f 7//1 4//1 6//1
f 7//2 3//2 8//2
f 4//1 7//1 8//1
usemtl material_2_0
f 1/9/6 3/10/6 4/11/6
f 5/12/5 7/13/5 3/14/5
f 8/15/6 4/11/6 3/10/6
f 6/13/4 4/11/4 7/16/4
f 8/11/5 3/14/5 7/13/5
f 8/15/4 7/16/4 4/11/4
