# SSTK version 0.8.0
# 11
mtllib original-11.mtl
o Group11/mesh15/mesh15-geometry#mesh15-geometry
v 0.872112 0.247401 -0.417089
v -0.830376 0.247401 0.423816
v -0.830376 0.247401 -0.417089
v 0.872112 0.247401 0.423816
v -0.830376 0.249765 -0.417089
v 0.872112 0.249765 -0.417089
v 0.872112 0.249765 0.423816
v -0.830376 0.249765 0.423816
vn 0 -1 0
vn 0 1 0
vn -1 0 0
vn 1 0 0
vn 0 0 -1
vn 0 0 1
usemtl material_0_0
f 1//1 2//1 3//1
f 2//1 1//1 4//1
f 3//2 2//2 1//2
f 4//2 1//2 2//2
f 2//3 5//3 3//3
f 3//4 5//4 2//4
f 3//5 6//5 1//5
f 1//6 6//6 3//6
f 1//4 7//4 4//4
f 4//3 7//3 1//3
f 7//6 2//6 4//6
f 4//5 2//5 7//5
f 5//3 2//3 8//3
f 8//4 2//4 5//4
f 6//5 3//5 5//5
f 5//6 3//6 6//6
f 7//4 1//4 6//4
f 6//3 1//3 7//3
f 2//6 7//6 8//6
f 8//5 7//5 2//5
f 7//2 5//2 8//2
f 8//1 5//1 7//1
f 5//2 7//2 6//2
f 6//1 7//1 5//1
