# SSTK version 0.8.0
# 70
mtllib original-70.mtl
o mesh94/mesh94-geometry#mesh94-geometry
v -0.33257 0.217911 -0.304048
v -0.33257 0.209292 -0.305609
v -0.33257 0.212519 -0.307379
v -0.33257 0.226884 -0.29343
v -0.33257 0.196363 -0.305609
v -0.33645 0.217911 -0.304048
v -0.33257 0.226884 -0.298135
v -0.33645 0.209292 -0.305609
v -0.33257 0.196363 -0.309648
v -0.33645 0.196363 -0.305609
v -0.33645 0.212519 -0.307379
v -0.33645 0.226884 -0.29343
v -0.33257 0.209292 -0.309648
v -0.33257 0.217682 -0.310481
v -0.33645 0.226884 -0.298135
v -0.33645 0.209292 -0.309648
v -0.33645 0.196363 -0.309648
v -0.33645 0.217682 -0.310481
v -0.33257 0.226884 -0.316498
v -0.33645 0.226884 -0.321411
v -0.33257 0.226884 -0.321411
v -0.33645 0.226884 -0.316498
vn 1.0 0.0 0.0
vn -1.0 0.0 0.0
vn 0.0 0.5255628588879679 -0.8507547715749267
vn 0.0 0.5379498856778613 -0.8429768208552215
vn 0.0 -0.5379498856778613 0.8429768208552215
vn 0.0 -0.5255628588879679 0.8507547715749267
vn 0.0 -0.5692100828303188 0.8221921196437615
vn 0.0 0.5692100828303188 -0.8221921196437615
vn 0.0 0.0 1.0
vn 0.0 0.0 -1.0
vn 0.0 0.5502210332328012 -0.8350190504343172
vn 0.0 -0.5502210332328012 0.8350190504343172
vn 0.0 1.0 0.0
vn 0.0 -1.0 0.0
vn 0.0 0.5312230165866421 0.8472320264535494
vn 0.0 0.5150039002540543 0.8571878339798764
vn 0.0 -0.5150039002540543 -0.8571878339798764
vn 0.0 -0.5312230165866421 -0.8472320264535494
vn 0.0 -0.5558348335069264 -0.8312927509971005
vn 0.0 0.5558348335069264 0.8312927509971005
vn 0.0 0.547248931894601 0.8369698958386844
vn 0.0 -0.547248931894601 -0.8369698958386844
usemtl material_0_0
f 1//1 2//1 3//1
f 2//1 1//1 4//1
f 3//2 2//2 1//2
f 4//2 1//2 2//2
f 5//1 3//1 2//1
f 2//2 3//2 5//2
f 3//3 6//4 1//4
f 1//5 6//5 3//6
f 4//1 1//1 7//1
f 7//2 1//2 4//2
f 4//7 8//7 2//7
f 2//8 8//8 4//8
f 9//1 3//1 5//1
f 5//2 3//2 9//2
f 2//9 10//9 5//9
f 5//10 10//10 2//10
f 6//4 3//3 11//3
f 11//6 3//6 6//5
f 6//4 7//11 1//4
f 1//5 7//12 6//5
f 7//13 12//13 4//13
f 4//14 12//14 7//14
f 8//7 4//7 12//7
f 12//8 4//8 8//8
f 10//9 2//9 8//9
f 8//10 2//10 10//10
f 13//1 3//1 9//1
f 9//2 3//2 13//2
f 10//14 9//14 5//14
f 5//13 9//13 10//13
f 14//15 11//16 3//16
f 3//17 11//17 14//18
f 11//2 8//2 6//2
f 6//1 8//1 11//1
f 7//11 6//4 15//11
f 15//12 6//5 7//12
f 12//13 7//13 15//13
f 15//14 7//14 12//14
f 6//2 8//2 12//2
f 12//1 8//1 6//1
f 11//2 10//2 8//2
f 8//1 10//1 11//1
f 13//1 14//1 3//1
f 3//2 14//2 13//2
f 9//10 16//10 13//10
f 13//9 16//9 9//9
f 9//14 10//14 17//14
f 17//13 10//13 9//13
f 11//16 14//15 18//15
f 18//18 14//18 11//17
f 6//2 12//2 15//2
f 15//1 12//1 6//1
f 16//2 10//2 11//2
f 11//1 10//1 16//1
f 13//1 19//1 14//1
f 14//2 19//2 13//2
f 16//10 9//10 17//10
f 17//9 9//9 16//9
f 20//19 13//19 16//19
f 16//20 13//20 20//20
f 10//2 16//2 17//2
f 17//1 16//1 10//1
f 19//21 18//15 14//15
f 14//18 18//18 19//22
f 18//2 16//2 11//2
f 11//1 16//1 18//1
f 19//1 13//1 21//1
f 21//2 13//2 19//2
f 13//19 20//19 21//19
f 21//20 20//20 13//20
f 16//2 22//2 20//2
f 20//1 22//1 16//1
f 18//15 19//21 22//21
f 22//22 19//22 18//18
f 22//2 16//2 18//2
f 18//1 16//1 22//1
f 21//13 22//13 19//13
f 19//14 22//14 21//14
f 22//13 21//13 20//13
f 20//14 21//14 22//14
