# SSTK version 0.8.0
# 9
mtllib original-9.mtl
o mesh12/mesh12-geometry#mesh12-geometry
v 0.316786 0.214216 0.217930
v 0.318106 0.212976 0.217930
v 0.316786 0.204202 0.217930
v 0.319214 0.214216 0.217930
v 0.318106 0.204202 0.217930
v 0.316786 0.214216 0.219132
v 0.319544 0.212976 0.217930
v 0.318106 0.209205 0.217930
v 0.318106 0.204202 0.219132
v 0.316786 0.204202 0.219132
v 0.319214 0.214216 0.219132
v 0.320236 0.214170 0.217930
v 0.319544 0.212976 0.219132
v 0.318106 0.209205 0.219132
v 0.318106 0.207973 0.217930
v 0.318106 0.212976 0.219132
v 0.320629 0.212857 0.217930
v 0.320629 0.212857 0.219132
v 0.319463 0.209213 0.217930
v 0.318106 0.207973 0.219132
v 0.320236 0.214170 0.219132
v 0.321107 0.214032 0.217930
v 0.319463 0.209213 0.219132
v 0.319566 0.207965 0.217930
v 0.319566 0.207965 0.219132
v 0.321404 0.212499 0.217930
v 0.321404 0.212499 0.219132
v 0.321107 0.214032 0.219132
v 0.320584 0.209329 0.217930
v 0.321828 0.213801 0.217930
v 0.320584 0.209329 0.219132
v 0.320462 0.208014 0.217930
v 0.320462 0.208014 0.219132
v 0.321675 0.212231 0.217930
v 0.321675 0.212231 0.219132
v 0.321828 0.213801 0.219132
v 0.321384 0.209677 0.217930
v 0.321238 0.208162 0.217930
v 0.321869 0.211903 0.217930
v 0.321238 0.208162 0.219132
v 0.321384 0.209677 0.219132
v 0.322398 0.213479 0.217930
v 0.321869 0.211903 0.219132
v 0.321664 0.209938 0.217930
v 0.321895 0.208407 0.217930
v 0.321895 0.208407 0.219132
v 0.322398 0.213479 0.219132
v 0.322024 0.211069 0.217930
v 0.321664 0.209938 0.219132
v 0.322831 0.213054 0.217930
v 0.322433 0.208750 0.217930
v 0.322024 0.211069 0.219132
v 0.321864 0.210257 0.219132
v 0.321864 0.210257 0.217930
v 0.322433 0.208750 0.219132
v 0.322831 0.213054 0.219132
v 0.323141 0.212517 0.219132
v 0.322851 0.209192 0.217930
v 0.322851 0.209192 0.219132
v 0.323141 0.212517 0.217930
v 0.323327 0.211867 0.219132
v 0.323150 0.209732 0.219132
v 0.323150 0.209732 0.217930
v 0.323327 0.211867 0.217930
v 0.323389 0.211105 0.219132
v 0.323329 0.210370 0.219132
v 0.323329 0.210370 0.217930
v 0.323389 0.211105 0.217930
vn 0 0 -1
vn 0 0 1
vn -1 0 0
vn 1 0 0
vn 0 1 0
vn 0.022536000723270423 0.9997460320858498 0
vn 0 -1 0
vn -0.022536000723270423 -0.9997460320858498 0
vn -0.05469799693108691 -0.9985029439774961 0
vn 0.05469799693108691 0.9985029439774961 0
vn 0.10105102482005471 0.9948812443617664 0
vn -0.10105102482005471 -0.9948812443617664 0
vn -0.2676259668940008 -0.9635228808098181 0
vn 0.2676259668940008 0.9635228808098181 0
vn -0.005405002123490626 0.9999853928693383 0
vn -0.054272010239501144 0.9985261883919537 0
vn 0.005405002123490626 -0.9999853928693383 0
vn 0.054272010239501144 -0.9985261883919537 0
vn -0.005025001882381132 -0.9999873745983405 0
vn 0.02484001091618118 -0.9996914393239967 0
vn 0.005025001882381132 0.9999873745983405 0
vn -0.02484001091618118 0.9996914393239967 0
vn 0.23126896502508146 0.9728898528693923 0
vn -0.23126896502508146 -0.9728898528693923 0
vn -0.5696998736380184 -0.821852817709367 0
vn 0.5696998736380184 0.821852817709367 0
vn -0.25392099049497574 0.9672249637938687 0
vn 0.25392099049497574 -0.9672249637938687 0
vn 0.12073595829050268 -0.9926846570667213 0
vn -0.12073595829050268 0.9926846570667213 0
vn 0.4004748845653337 0.9163077358793728 0
vn -0.4004748845653337 -0.9163077358793728 0
vn -0.7885713488285563 -0.6149432720232914 0
vn 0.7885713488285563 0.6149432720232914 0
vn -0.5482400239468506 0.8363210365300855 0
vn 0.5482400239468506 -0.8363210365300855 0
vn 0.26900705742050407 -0.9631382055852429 0
vn -0.26900705742050407 0.9631382055852429 0
vn 0.6012739582340091 0.7990429444964813 0
vn -0.6012739582340091 -0.7990429444964813 0
vn -0.9363668571020013 -0.3510229464307433 0
vn 0.9363668571020013 0.3510229464307433 0
vn -0.7710547793295512 0.6367688177612479 0
vn 0.7710547793295512 -0.6367688177612479 0
vn 0.44660509191446357 -0.8947311841419597 0
vn -0.44660509191446357 0.8947311841419597 0
vn 0.7906021773700372 0.6123301373750571 0
vn -0.7906021773700372 -0.6123301373750571 0
vn -0.9999850175492371 0.005474000096065964 0
vn 0.9999850175492371 -0.005474000096065964 0
vn -0.9296595295923971 0.36841981357962145 0
vn 0.9296595295923971 -0.36841981357962145 0
vn 0.6370349399753856 -0.7708349273680825 0
vn -0.6370349399753856 0.7708349273680825 0
vn 0.9208250178635451 0.38997600756533957 0
vn -0.9208250178635451 -0.38997600756533957 0
vn 0.8070103678075676 -0.590537269146575 0
vn -0.8070103678075676 0.590537269146575 0
vn 0.9838832513659688 0.1788120456835331 0
vn -0.9838832513659688 -0.1788120456835331 0
vn 0.9250547129643552 -0.37983388214117314 0
vn -0.9250547129643552 0.37983388214117314 0
vn 0.9999999987995 0.00004899999994117549 0
vn -0.9999999987995 -0.00004899999994117549 0
vn 0.9843034931041837 -0.1764840884128147 0
vn -0.9843034931041837 0.1764840884128147 0
usemtl material_0_0
f 1//1 2//1 3//1
f 2//1 1//1 4//1
f 3//2 2//2 1//2
f 4//2 1//2 2//2
f 2//1 5//1 3//1
f 3//2 5//2 2//2
f 3//3 6//3 1//3
f 1//4 6//4 3//4
f 6//5 4//6 1//5
f 1//7 4//8 6//7
f 2//1 4//1 7//1
f 7//2 4//2 2//2
f 5//1 2//1 8//1
f 8//2 2//2 5//2
f 9//7 3//7 5//7
f 5//5 3//5 9//5
f 6//3 3//3 10//3
f 10//4 3//4 6//4
f 4//6 6//5 11//6
f 11//8 6//7 4//8
f 7//1 4//1 12//1
f 12//2 4//2 7//2
f 13//9 2//7 7//9
f 7//10 2//5 13//10
f 2//4 14//4 8//4
f 8//3 14//3 2//3
f 5//1 8//1 15//1
f 15//2 8//2 5//2
f 3//7 9//7 10//7
f 10//5 9//5 3//5
f 15//4 9//4 5//4
f 5//3 9//3 15//3
f 9//2 6//2 10//2
f 10//1 6//1 9//1
f 6//2 16//2 11//2
f 11//1 16//1 6//1
f 11//6 12//11 4//6
f 4//8 12//12 11//8
f 7//1 12//1 17//1
f 17//2 12//2 7//2
f 2//7 13//9 16//7
f 16//5 13//10 2//5
f 7//9 18//13 13//9
f 13//10 18//14 7//10
f 14//4 2//4 16//4
f 16//3 2//3 14//3
f 14//15 19//16 8//15
f 8//17 19//18 14//17
f 19//1 15//1 8//1
f 8//2 15//2 19//2
f 9//4 15//4 20//4
f 20//3 15//3 9//3
f 6//2 9//2 16//2
f 16//1 9//1 6//1
f 11//2 16//2 13//2
f 13//1 16//1 11//1
f 12//11 11//6 21//11
f 21//12 11//8 12//12
f 17//1 12//1 22//1
f 22//2 12//2 17//2
f 18//13 7//9 17//13
f 17//14 7//10 18//14
f 21//2 13//2 18//2
f 18//1 13//1 21//1
f 16//2 20//2 14//2
f 14//1 20//1 16//1
f 19//16 14//15 23//16
f 23//18 14//17 19//18
f 15//1 19//1 24//1
f 24//2 19//2 15//2
f 15//19 25//20 20//19
f 20//21 25//22 15//21
f 16//2 9//2 20//2
f 20//1 9//1 16//1
f 11//2 13//2 21//2
f 21//1 13//1 11//1
f 21//11 22//23 12//11
f 12//12 22//24 21//12
f 17//1 22//1 26//1
f 26//2 22//2 17//2
f 17//13 27//25 18//13
f 18//14 27//26 17//14
f 21//2 18//2 28//2
f 28//1 18//1 21//1
f 25//2 14//2 20//2
f 20//1 14//1 25//1
f 14//2 25//2 23//2
f 23//1 25//1 14//1
f 23//16 29//27 19//16
f 19//18 29//28 23//18
f 24//1 19//1 29//1
f 29//2 19//2 24//2
f 25//20 15//19 24//20
f 24//22 15//21 25//22
f 22//23 21//11 28//23
f 28//24 21//12 22//24
f 26//1 22//1 30//1
f 30//2 22//2 26//2
f 27//25 17//13 26//25
f 26//26 17//14 27//26
f 28//2 18//2 27//2
f 27//1 18//1 28//1
f 23//2 25//2 31//2
f 31//1 25//1 23//1
f 29//27 23//16 31//27
f 31//28 23//18 29//28
f 24//1 29//1 32//1
f 32//2 29//2 24//2
f 24//20 33//29 25//20
f 25//22 33//30 24//22
f 28//23 30//31 22//23
f 22//24 30//32 28//24
f 26//1 30//1 34//1
f 34//2 30//2 26//2
f 26//25 35//33 27//25
f 27//26 35//34 26//26
f 28//2 27//2 36//2
f 36//1 27//1 28//1
f 31//2 25//2 33//2
f 33//1 25//1 31//1
f 31//27 37//35 29//27
f 29//28 37//36 31//28
f 32//1 29//1 38//1
f 38//2 29//2 32//2
f 33//29 24//20 32//29
f 32//30 24//22 33//30
f 30//31 28//23 36//31
f 36//32 28//24 30//32
f 34//1 30//1 39//1
f 39//2 30//2 34//2
f 35//33 26//25 34//33
f 34//34 26//26 35//34
f 36//2 27//2 35//2
f 35//1 27//1 36//1
f 31//2 33//2 40//2
f 40//1 33//1 31//1
f 37//35 31//27 41//35
f 41//36 31//28 37//36
f 38//1 29//1 37//1
f 37//2 29//2 38//2
f 40//37 32//29 38//37
f 38//38 32//30 40//38
f 32//29 40//37 33//29
f 33//30 40//38 32//30
f 36//31 42//39 30//31
f 30//32 42//40 36//32
f 39//1 30//1 42//1
f 42//2 30//2 39//2
f 39//41 35//33 34//33
f 34//34 35//34 39//42
f 36//2 35//2 43//2
f 43//1 35//1 36//1
f 31//2 40//2 41//2
f 41//1 40//1 31//1
f 41//35 44//43 37//35
f 37//36 44//44 41//36
f 38//1 37//1 45//1
f 45//2 37//2 38//2
f 38//37 46//45 40//37
f 40//38 46//46 38//38
f 42//39 36//31 47//39
f 47//40 36//32 42//40
f 39//1 42//1 48//1
f 48//2 42//2 39//2
f 35//33 39//41 43//41
f 43//42 39//42 35//34
f 36//2 43//2 47//2
f 47//1 43//1 36//1
f 41//2 40//2 46//2
f 46//1 40//1 41//1
f 44//43 41//35 49//43
f 49//44 41//36 44//44
f 45//1 37//1 44//1
f 44//2 37//2 45//2
f 46//45 38//37 45//45
f 45//46 38//38 46//46
f 47//39 50//47 42//39
f 42//40 50//48 47//40
f 51//1 48//1 42//1
f 42//2 48//2 51//2
f 48//49 43//41 39//41
f 39//42 43//42 48//50
f 47//2 43//2 52//2
f 52//1 43//1 47//1
f 41//2 46//2 49//2
f 49//1 46//1 41//1
f 53//51 44//43 49//43
f 49//44 44//44 53//52
f 45//1 44//1 54//1
f 54//2 44//2 45//2
f 45//45 55//53 46//45
f 46//46 55//54 45//46
f 50//47 47//39 56//47
f 56//48 47//40 50//48
f 51//1 42//1 50//1
f 50//2 42//2 51//2
f 45//1 48//1 51//1
f 51//2 48//2 45//2
f 43//41 48//49 52//49
f 52//50 48//50 43//42
f 52//2 55//2 47//2
f 47//1 55//1 52//1
f 49//2 46//2 53//2
f 53//1 46//1 49//1
f 44//43 53//51 54//51
f 54//52 53//52 44//44
f 45//1 54//1 48//1
f 48//2 54//2 45//2
f 55//53 45//45 51//53
f 51//54 45//46 55//54
f 52//2 46//2 55//2
f 55//1 46//1 52//1
f 47//2 55//2 56//2
f 56//1 55//1 47//1
f 57//55 50//47 56//47
f 56//48 50//48 57//56
f 51//1 50//1 58//1
f 58//2 50//2 51//2
f 54//51 52//49 48//49
f 48//50 52//50 54//52
f 53//2 46//2 52//2
f 52//1 46//1 53//1
f 52//49 54//51 53//51
f 53//52 54//52 52//50
f 58//57 55//53 51//53
f 51//54 55//54 58//58
f 56//2 55//2 59//2
f 59//1 55//1 56//1
f 50//47 57//55 60//55
f 60//56 57//56 50//48
f 56//2 59//2 57//2
f 57//1 59//1 56//1
f 58//1 50//1 60//1
f 60//2 50//2 58//2
f 55//53 58//57 59//57
f 59//58 58//58 55//54
f 61//59 60//55 57//55
f 57//56 60//56 61//60
f 57//2 59//2 62//2
f 62//1 59//1 57//1
f 58//1 60//1 63//1
f 63//2 60//2 58//2
f 63//61 59//57 58//57
f 58//58 59//58 63//62
f 60//55 61//59 64//59
f 64//60 61//60 60//56
f 57//2 62//2 61//2
f 61//1 62//1 57//1
f 59//57 63//61 62//61
f 62//62 63//62 59//58
f 63//1 60//1 64//1
f 64//2 60//2 63//2
f 65//63 64//59 61//59
f 61//60 64//60 65//64
f 61//2 62//2 66//2
f 66//1 62//1 61//1
f 67//65 62//61 63//61
f 63//62 62//62 67//66
f 63//1 64//1 67//1
f 67//2 64//2 63//2
f 64//59 65//63 68//63
f 68//64 65//64 64//60
f 61//2 66//2 65//2
f 65//1 66//1 61//1
f 62//61 67//65 66//65
f 66//66 67//66 62//62
f 67//1 64//1 68//1
f 68//2 64//2 67//2
f 66//65 68//63 65//63
f 65//64 68//64 66//66
f 68//63 66//65 67//65
f 67//66 66//66 68//64
