# SSTK version 0.8.0
# 121
mtllib original-121.mtl
o mesh235/mesh235-geometry/material_1/component_8#mesh235-geometry
v -0.707272 -0.080936 -0.179356
v -0.716716 -0.093243 -0.157284
v -0.707272 -0.080936 -0.157284
v -0.707272 -0.080936 -0.157284
v -0.716716 -0.093243 -0.157284
v -0.707272 -0.080936 -0.179356
v -0.716716 -0.093243 -0.179356
v -0.722653 -0.107576 -0.157284
v -0.716716 -0.093243 -0.157284
v -0.716716 -0.093243 -0.157284
v -0.722653 -0.107576 -0.157284
v -0.716716 -0.093243 -0.179356
v -0.722653 -0.107576 -0.179356
v -0.724678 -0.122956 -0.157284
v -0.722653 -0.107576 -0.157284
v -0.722653 -0.107576 -0.157284
v -0.724678 -0.122956 -0.157284
v -0.722653 -0.107576 -0.179356
v -0.722653 -0.138337 -0.179356
v -0.716716 -0.152669 -0.157284
v -0.722653 -0.138337 -0.157284
v -0.722653 -0.138337 -0.157284
v -0.716716 -0.152669 -0.157284
v -0.722653 -0.138337 -0.179356
v -0.716716 -0.152669 -0.179356
v -0.707272 -0.164977 -0.157284
v -0.716716 -0.152669 -0.157284
v -0.716716 -0.152669 -0.157284
v -0.707272 -0.164977 -0.157284
v -0.716716 -0.152669 -0.179356
v -0.707272 -0.164977 -0.157284
v -0.694965 -0.174421 -0.179356
v -0.694965 -0.174421 -0.157284
v -0.694965 -0.174421 -0.157284
v -0.694965 -0.174421 -0.179356
v -0.707272 -0.164977 -0.157284
v -0.694965 -0.174421 -0.157284
v -0.680632 -0.180358 -0.179356
v -0.680632 -0.180358 -0.157284
v -0.680632 -0.180358 -0.157284
v -0.680632 -0.180358 -0.179356
v -0.694965 -0.174421 -0.157284
v -0.680632 -0.180358 -0.157284
v -0.665252 -0.182382 -0.179356
v -0.665252 -0.182382 -0.157284
v -0.665252 -0.182382 -0.157284
v -0.665252 -0.182382 -0.179356
v -0.680632 -0.180358 -0.157284
v -0.694965 -0.071492 -0.157284
v -0.707272 -0.080936 -0.179356
v -0.707272 -0.080936 -0.157284
v -0.707272 -0.080936 -0.157284
v -0.707272 -0.080936 -0.179356
v -0.694965 -0.071492 -0.157284
v -0.716716 -0.093243 -0.157284
v -0.707272 -0.080936 -0.179356
v -0.716716 -0.093243 -0.179356
v -0.716716 -0.093243 -0.179356
v -0.707272 -0.080936 -0.179356
v -0.716716 -0.093243 -0.157284
v -0.722653 -0.107576 -0.157284
v -0.716716 -0.093243 -0.179356
v -0.722653 -0.107576 -0.179356
v -0.722653 -0.107576 -0.179356
v -0.716716 -0.093243 -0.179356
v -0.722653 -0.107576 -0.157284
v -0.724678 -0.122956 -0.157284
v -0.722653 -0.107576 -0.179356
v -0.724678 -0.122956 -0.179356
v -0.724678 -0.122956 -0.179356
v -0.722653 -0.107576 -0.179356
v -0.724678 -0.122956 -0.157284
v -0.716716 -0.152669 -0.157284
v -0.722653 -0.138337 -0.179356
v -0.716716 -0.152669 -0.179356
v -0.716716 -0.152669 -0.179356
v -0.722653 -0.138337 -0.179356
v -0.716716 -0.152669 -0.157284
v -0.722653 -0.138337 -0.157284
v -0.724678 -0.122956 -0.179356
v -0.722653 -0.138337 -0.179356
v -0.722653 -0.138337 -0.179356
v -0.724678 -0.122956 -0.179356
v -0.722653 -0.138337 -0.157284
v -0.707272 -0.164977 -0.157284
v -0.716716 -0.152669 -0.179356
v -0.707272 -0.164977 -0.179356
v -0.707272 -0.164977 -0.179356
v -0.716716 -0.152669 -0.179356
v -0.707272 -0.164977 -0.157284
v -0.694965 -0.174421 -0.179356
v -0.707272 -0.164977 -0.157284
v -0.707272 -0.164977 -0.179356
v -0.707272 -0.164977 -0.179356
v -0.707272 -0.164977 -0.157284
v -0.694965 -0.174421 -0.179356
v -0.680632 -0.180358 -0.179356
v -0.694965 -0.174421 -0.157284
v -0.694965 -0.174421 -0.179356
v -0.694965 -0.174421 -0.179356
v -0.694965 -0.174421 -0.157284
v -0.680632 -0.180358 -0.179356
v -0.665252 -0.182382 -0.179356
v -0.680632 -0.180358 -0.157284
v -0.680632 -0.180358 -0.179356
v -0.680632 -0.180358 -0.179356
v -0.680632 -0.180358 -0.157284
v -0.665252 -0.182382 -0.179356
v -0.649871 -0.180358 -0.179356
v -0.665252 -0.182382 -0.157284
v -0.665252 -0.182382 -0.179356
v -0.665252 -0.182382 -0.179356
v -0.665252 -0.182382 -0.157284
v -0.649871 -0.180358 -0.179356
v -0.680632 -0.065555 -0.157284
v -0.694965 -0.071492 -0.179356
v -0.694965 -0.071492 -0.157284
v -0.694965 -0.071492 -0.157284
v -0.694965 -0.071492 -0.179356
v -0.680632 -0.065555 -0.157284
v -0.707272 -0.080936 -0.179356
v -0.694965 -0.071492 -0.157284
v -0.694965 -0.071492 -0.179356
v -0.694965 -0.071492 -0.179356
v -0.694965 -0.071492 -0.157284
v -0.707272 -0.080936 -0.179356
v -0.724678 -0.122956 -0.179356
v -0.722653 -0.138337 -0.157284
v -0.724678 -0.122956 -0.157284
v -0.724678 -0.122956 -0.157284
v -0.722653 -0.138337 -0.157284
v -0.724678 -0.122956 -0.179356
v -0.665252 -0.182382 -0.157284
v -0.649871 -0.180358 -0.179356
v -0.649871 -0.180358 -0.157284
v -0.649871 -0.180358 -0.157284
v -0.649871 -0.180358 -0.179356
v -0.665252 -0.182382 -0.157284
v -0.665252 -0.063530 -0.157284
v -0.680632 -0.065555 -0.179356
v -0.680632 -0.065555 -0.157284
v -0.680632 -0.065555 -0.157284
v -0.680632 -0.065555 -0.179356
v -0.665252 -0.063530 -0.157284
v -0.694965 -0.071492 -0.179356
v -0.680632 -0.065555 -0.157284
v -0.680632 -0.065555 -0.179356
v -0.680632 -0.065555 -0.179356
v -0.680632 -0.065555 -0.157284
v -0.694965 -0.071492 -0.179356
v -0.635539 -0.174421 -0.179356
v -0.649871 -0.180358 -0.157284
v -0.649871 -0.180358 -0.179356
v -0.649871 -0.180358 -0.179356
v -0.649871 -0.180358 -0.157284
v -0.635539 -0.174421 -0.179356
v -0.649871 -0.180358 -0.157284
v -0.635539 -0.174421 -0.179356
v -0.635539 -0.174421 -0.157284
v -0.635539 -0.174421 -0.157284
v -0.635539 -0.174421 -0.179356
v -0.649871 -0.180358 -0.157284
v -0.680632 -0.065555 -0.179356
v -0.665252 -0.063530 -0.157284
v -0.665252 -0.063530 -0.179356
v -0.665252 -0.063530 -0.179356
v -0.665252 -0.063530 -0.157284
v -0.680632 -0.065555 -0.179356
v -0.623231 -0.080936 -0.157284
v -0.613787 -0.093243 -0.179356
v -0.623231 -0.080936 -0.179356
v -0.623231 -0.080936 -0.179356
v -0.613787 -0.093243 -0.179356
v -0.623231 -0.080936 -0.157284
v -0.635539 -0.071492 -0.179356
v -0.623231 -0.080936 -0.157284
v -0.623231 -0.080936 -0.179356
v -0.623231 -0.080936 -0.179356
v -0.623231 -0.080936 -0.157284
v -0.635539 -0.071492 -0.179356
v -0.613787 -0.093243 -0.157284
v -0.607850 -0.107576 -0.179356
v -0.613787 -0.093243 -0.179356
v -0.613787 -0.093243 -0.179356
v -0.607850 -0.107576 -0.179356
v -0.613787 -0.093243 -0.157284
v -0.605826 -0.122956 -0.157284
v -0.607850 -0.138337 -0.179356
v -0.605826 -0.122956 -0.179356
v -0.605826 -0.122956 -0.179356
v -0.607850 -0.138337 -0.179356
v -0.605826 -0.122956 -0.157284
v -0.607850 -0.107576 -0.157284
v -0.605826 -0.122956 -0.179356
v -0.607850 -0.107576 -0.179356
v -0.607850 -0.107576 -0.179356
v -0.605826 -0.122956 -0.179356
v -0.607850 -0.107576 -0.157284
v -0.613787 -0.152669 -0.157284
v -0.623231 -0.164977 -0.179356
v -0.613787 -0.152669 -0.179356
v -0.613787 -0.152669 -0.179356
v -0.623231 -0.164977 -0.179356
v -0.613787 -0.152669 -0.157284
v -0.607850 -0.138337 -0.157284
v -0.613787 -0.152669 -0.179356
v -0.607850 -0.138337 -0.179356
v -0.607850 -0.138337 -0.179356
v -0.613787 -0.152669 -0.179356
v -0.607850 -0.138337 -0.157284
v -0.623231 -0.164977 -0.179356
v -0.635539 -0.174421 -0.157284
v -0.635539 -0.174421 -0.179356
v -0.635539 -0.174421 -0.179356
v -0.635539 -0.174421 -0.157284
v -0.623231 -0.164977 -0.179356
v -0.635539 -0.174421 -0.157284
v -0.623231 -0.164977 -0.179356
v -0.623231 -0.164977 -0.157284
v -0.623231 -0.164977 -0.157284
v -0.623231 -0.164977 -0.179356
v -0.635539 -0.174421 -0.157284
v -0.649871 -0.065555 -0.157284
v -0.665252 -0.063530 -0.179356
v -0.665252 -0.063530 -0.157284
v -0.665252 -0.063530 -0.157284
v -0.665252 -0.063530 -0.179356
v -0.649871 -0.065555 -0.157284
v -0.649871 -0.065555 -0.179356
v -0.635539 -0.071492 -0.157284
v -0.635539 -0.071492 -0.179356
v -0.635539 -0.071492 -0.179356
v -0.635539 -0.071492 -0.157284
v -0.649871 -0.065555 -0.179356
v -0.613787 -0.093243 -0.179356
v -0.623231 -0.080936 -0.157284
v -0.613787 -0.093243 -0.157284
v -0.613787 -0.093243 -0.157284
v -0.623231 -0.080936 -0.157284
v -0.613787 -0.093243 -0.179356
v -0.623231 -0.080936 -0.157284
v -0.635539 -0.071492 -0.179356
v -0.635539 -0.071492 -0.157284
v -0.635539 -0.071492 -0.157284
v -0.635539 -0.071492 -0.179356
v -0.623231 -0.080936 -0.157284
v -0.607850 -0.107576 -0.179356
v -0.613787 -0.093243 -0.157284
v -0.607850 -0.107576 -0.157284
v -0.607850 -0.107576 -0.157284
v -0.613787 -0.093243 -0.157284
v -0.607850 -0.107576 -0.179356
v -0.607850 -0.138337 -0.179356
v -0.605826 -0.122956 -0.157284
v -0.607850 -0.138337 -0.157284
v -0.607850 -0.138337 -0.157284
v -0.605826 -0.122956 -0.157284
v -0.607850 -0.138337 -0.179356
v -0.605826 -0.122956 -0.179356
v -0.607850 -0.107576 -0.157284
v -0.605826 -0.122956 -0.157284
v -0.605826 -0.122956 -0.157284
v -0.607850 -0.107576 -0.157284
v -0.605826 -0.122956 -0.179356
v -0.623231 -0.164977 -0.179356
v -0.613787 -0.152669 -0.157284
v -0.623231 -0.164977 -0.157284
v -0.623231 -0.164977 -0.157284
v -0.613787 -0.152669 -0.157284
v -0.623231 -0.164977 -0.179356
v -0.613787 -0.152669 -0.179356
v -0.607850 -0.138337 -0.157284
v -0.613787 -0.152669 -0.157284
v -0.613787 -0.152669 -0.157284
v -0.607850 -0.138337 -0.157284
v -0.613787 -0.152669 -0.179356
v -0.665252 -0.063530 -0.179356
v -0.649871 -0.065555 -0.157284
v -0.649871 -0.065555 -0.179356
v -0.649871 -0.065555 -0.179356
v -0.649871 -0.065555 -0.157284
v -0.665252 -0.063530 -0.179356
v -0.635539 -0.071492 -0.157284
v -0.649871 -0.065555 -0.179356
v -0.649871 -0.065555 -0.157284
v -0.649871 -0.065555 -0.157284
v -0.649871 -0.065555 -0.179356
v -0.635539 -0.071492 -0.157284
vt 0 0
vn -0.7071067811865476 0.7071067811865476 0
vn -0.8660252955903434 0.5000001873976233 0
vn 0.7071067811865476 -0.7071067811865476 0
vn 0.8660252955903434 -0.5000001873976233 0
vn -0.9659258451755842 0.25881897461707376 0
vn 0.9659258451755842 -0.25881897461707376 0
vn -1 0 0
vn 1 0 0
vn -0.9659258451755842 -0.25881897461707376 0
vn -0.8660252955903434 -0.5000001873976233 0
vn 0.9659258451755842 0.25881897461707376 0
vn 0.8660252955903434 0.5000001873976233 0
vn -0.7071067811865476 -0.7071067811865476 0
vn 0.7071067811865476 0.7071067811865476 0
vn -0.5000001873976233 -0.8660252955903434 0
vn 0.5000001873976233 0.8660252955903434 0
vn -0.25881897461707376 -0.9659258451755842 0
vn 0.25881897461707376 0.9659258451755842 0
vn 0 -1 0
vn 0 1 0
vn -0.5000001873976233 0.8660252955903434 0
vn 0.5000001873976233 -0.8660252955903434 0
vn 0.25881897461707376 -0.9659258451755842 0
vn -0.25881897461707376 0.9659258451755842 0
usemtl material_0_0
f 1/1/1 2/1/2 3/1/1
f 4/1/3 5/1/4 6/1/3
f 7/1/2 8/1/5 9/1/2
f 10/1/4 11/1/6 12/1/4
f 13/1/5 14/1/7 15/1/5
f 16/1/6 17/1/8 18/1/6
f 19/1/9 20/1/10 21/1/9
f 22/1/11 23/1/12 24/1/11
f 25/1/10 26/1/13 27/1/10
f 28/1/12 29/1/14 30/1/12
f 31/1/13 32/1/15 33/1/15
f 34/1/16 35/1/16 36/1/14
f 37/1/15 38/1/17 39/1/17
f 40/1/18 41/1/18 42/1/16
f 43/1/17 44/1/19 45/1/19
f 46/1/20 47/1/20 48/1/18
f 49/1/21 50/1/1 51/1/1
f 52/1/3 53/1/3 54/1/22
f 55/1/2 56/1/1 57/1/2
f 58/1/4 59/1/3 60/1/4
f 61/1/5 62/1/2 63/1/5
f 64/1/6 65/1/4 66/1/6
f 67/1/7 68/1/5 69/1/7
f 70/1/8 71/1/6 72/1/8
f 73/1/10 74/1/9 75/1/10
f 76/1/12 77/1/11 78/1/12
f 79/1/9 80/1/7 81/1/9
f 82/1/11 83/1/8 84/1/11
f 85/1/13 86/1/10 87/1/13
f 88/1/14 89/1/12 90/1/14
f 91/1/15 92/1/13 93/1/13
f 94/1/14 95/1/14 96/1/16
f 97/1/17 98/1/15 99/1/15
f 100/1/16 101/1/16 102/1/18
f 103/1/19 104/1/17 105/1/17
f 106/1/18 107/1/18 108/1/20
f 109/1/23 110/1/19 111/1/19
f 112/1/20 113/1/20 114/1/24
f 115/1/24 116/1/21 117/1/21
f 118/1/22 119/1/22 120/1/23
f 121/1/1 122/1/21 123/1/21
f 124/1/22 125/1/22 126/1/3
f 127/1/7 128/1/9 129/1/7
f 130/1/8 131/1/11 132/1/8
f 133/1/19 134/1/23 135/1/23
f 136/1/24 137/1/24 138/1/20
f 139/1/20 140/1/24 141/1/24
f 142/1/23 143/1/23 144/1/19
f 145/1/21 146/1/24 147/1/24
f 148/1/23 149/1/23 150/1/22
f 151/1/22 152/1/23 153/1/23
f 154/1/24 155/1/24 156/1/21
f 157/1/23 158/1/22 159/1/22
f 160/1/21 161/1/21 162/1/24
f 163/1/24 164/1/20 165/1/20
f 166/1/19 167/1/19 168/1/23
f 169/1/14 170/1/12 171/1/14
f 172/1/13 173/1/10 174/1/13
f 175/1/16 176/1/14 177/1/14
f 178/1/13 179/1/13 180/1/15
f 181/1/12 182/1/11 183/1/12
f 184/1/10 185/1/9 186/1/10
f 187/1/8 188/1/6 189/1/8
f 190/1/7 191/1/5 192/1/7
f 193/1/11 194/1/8 195/1/11
f 196/1/9 197/1/7 198/1/9
f 199/1/4 200/1/3 201/1/4
f 202/1/2 203/1/1 204/1/2
f 205/1/6 206/1/4 207/1/6
f 208/1/5 209/1/2 210/1/5
f 211/1/3 212/1/22 213/1/22
f 214/1/21 215/1/21 216/1/1
f 217/1/22 218/1/3 219/1/3
f 220/1/1 221/1/1 222/1/21
f 223/1/18 224/1/20 225/1/20
f 226/1/19 227/1/19 228/1/17
f 229/1/18 230/1/16 231/1/16
f 232/1/15 233/1/15 234/1/17
f 235/1/12 236/1/14 237/1/12
f 238/1/10 239/1/13 240/1/10
f 241/1/14 242/1/16 243/1/16
f 244/1/15 245/1/15 246/1/13
f 247/1/11 248/1/12 249/1/11
f 250/1/9 251/1/10 252/1/9
f 253/1/6 254/1/8 255/1/6
f 256/1/5 257/1/7 258/1/5
f 259/1/8 260/1/11 261/1/8
f 262/1/7 263/1/9 264/1/7
f 265/1/3 266/1/4 267/1/3
f 268/1/1 269/1/2 270/1/1
f 271/1/4 272/1/6 273/1/4
f 274/1/2 275/1/5 276/1/2
f 277/1/20 278/1/18 279/1/18
f 280/1/17 281/1/17 282/1/19
f 283/1/16 284/1/18 285/1/18
f 286/1/17 287/1/17 288/1/15
