# SSTK version 0.8.0
# 86
mtllib original-86.mtl
o mesh188/mesh188-geometry#mesh188-geometry
v 0.211560 -0.400074 -0.207607
v 0.215726 -0.417770 -0.207607
v 0.218287 -0.417770 -0.207607
v 0.214018 -0.413087 -0.207607
v 0.215726 -0.417770 -0.209726
v 0.211560 -0.400074 -0.209726
v 0.213281 -0.411082 -0.207607
v 0.218287 -0.417770 -0.209726
v 0.208585 -0.400074 -0.207607
v 0.210073 -0.401807 -0.207607
v 0.206127 -0.413087 -0.207607
v 0.214018 -0.413087 -0.209726
v 0.208585 -0.400074 -0.209726
v 0.213281 -0.411082 -0.209726
v 0.206891 -0.411082 -0.207607
v 0.206127 -0.413087 -0.209726
v 0.210073 -0.401807 -0.209726
v 0.201871 -0.417770 -0.209726
v 0.201871 -0.417770 -0.207607
v 0.204433 -0.417770 -0.207607
v 0.206891 -0.411082 -0.209726
v 0.204433 -0.417770 -0.209726
vt -0.957129 0.15466
vt -0.920725 0
vt -0.89834 0
vt -0.935649 0.040926
vt 0.920725 0.018519
vt 0.89834 0
vt 0.920725 0
vt -0.319192 0
vt -0.484649 0.018519
vt -0.484649 0
vt -0.942093 0.05845
vt 0.358981 0
vt 0.315419 0.018519
vt 0.315419 0
vt 0.89834 0.018519
vt -0.319192 0.018519
vt -0.957129 0.018519
vt -0.983132 0
vt -0.957129 0
vt -0.970131 0.139511
vt -1.004613 0.040926
vt 0.358981 0.018519
vt 0.957129 0.15466
vt -0.983132 0.018519
vt -0.983132 0.15466
vt 0.448967 0
vt 0.363194 0.018519
vt 0.363194 0
vt -0.997942 0.05845
vt 1.004613 0.018519
vt 0.935649 0
vt 1.004613 0
vt 0.935649 0.018519
vt 0.935649 0.040926
vt 0.970131 0.139511
vt 0.983132 0.15466
vt -0.369546 0.018519
vt -0.204129 0
vt -0.204129 0.018519
vt 0.448967 0.018519
vt -0.942093 0.018519
vt -0.997942 0
vt -0.942093 0
vt -1.041808 0
vt 0.346892 0
vt 0.303369 0.018519
vt 0.303369 0
vt 1.004613 0.040926
vt 0.942093 0.05845
vt 0.997942 0.05845
vt -0.369546 0
vt 1.041808 0
vt 0.268573 0
vt 0.182873 0.018519
vt 0.182873 0
vt -0.997942 0.018519
vt -1.019423 0
vt 0.346892 0.018519
vt 0.268573 0.018519
vt 1.041808 0.018519
vt 1.019423 0
vt 1.019423 0.018519
vn 0 0 1
vn 0 0 -1
vn 0 -1 0
vn 0 1 0
vn 0.934747335584636 0.35531312756134414 0
vn -0.934747335584636 -0.35531312756134414 0
vn -0.9394901052811461 -0.34257603838975814 0
vn 0.9394901052811461 0.34257603838975814 0
vn -0.945064418875325 -0.3268841448829304 0
vn 0.945064418875325 0.3268841448829304 0
vn -0.9349740835249785 0.3547160316882034 0
vn 0.9349740835249785 -0.3547160316882034 0
vn 0.940323063745443 -0.34028302306812724 0
vn -0.940323063745443 0.34028302306812724 0
vn 0.9458764926045551 -0.32452682591444604 0
vn -0.9458764926045551 0.32452682591444604 0
usemtl material_0_0
f 1/1/1 2/2/1 3/3/1
f 2/2/1 1/1/1 4/4/1
f 3/3/2 2/2/2 1/1/2
f 4/4/2 1/1/2 2/2/2
f 5/5/3 3/6/3 2/7/3
f 2/7/4 3/6/4 5/5/4
f 3/8/5 6/9/5 1/10/5
f 1/10/6 6/9/6 3/8/6
f 4/4/1 1/1/1 7/11/1
f 7/11/2 1/1/2 4/4/2
f 4/12/7 5/13/7 2/14/7
f 2/14/8 5/13/8 4/12/8
f 3/6/3 5/5/3 8/15/3
f 8/15/4 5/5/4 3/6/4
f 6/9/5 3/8/5 8/16/5
f 8/16/6 3/8/6 6/9/6
f 6/17/4 9/18/4 1/19/4
f 1/19/3 9/18/3 6/17/3
f 7/11/1 1/1/1 10/20/1
f 10/20/2 1/1/2 7/11/2
f 7/11/1 11/21/1 4/4/1
f 4/4/2 11/21/2 7/11/2
f 5/13/7 4/12/7 12/22/7
f 12/22/8 4/12/8 5/13/8
f 5/7/2 6/23/2 8/6/2
f 8/6/1 6/23/1 5/7/1
f 9/18/4 6/17/4 13/24/4
f 13/24/3 6/17/3 9/18/3
f 10/20/1 1/1/1 9/25/1
f 9/25/2 1/1/2 10/20/2
f 10/26/9 14/27/9 7/28/9
f 7/28/10 14/27/10 10/26/10
f 11/21/1 7/11/1 15/29/1
f 15/29/2 7/11/2 11/21/2
f 16/30/3 4/31/3 11/32/3
f 11/32/4 4/31/4 16/30/4
f 4/31/3 16/30/3 12/33/3
f 12/33/4 16/30/4 4/31/4
f 6/23/2 5/7/2 12/34/2
f 12/34/1 5/7/1 6/23/1
f 6/23/2 17/35/2 13/36/2
f 13/36/1 17/35/1 6/23/1
f 18/37/11 9/38/11 13/39/11
f 13/39/12 9/38/12 18/37/12
f 10/20/1 9/25/1 15/29/1
f 15/29/2 9/25/2 10/20/2
f 14/27/9 10/26/9 17/40/9
f 17/40/10 10/26/10 14/27/10
f 14/41/4 15/42/4 7/43/4
f 7/43/3 15/42/3 14/41/3
f 15/29/1 19/44/1 11/21/1
f 11/21/2 19/44/2 15/29/2
f 20/45/13 16/46/13 11/47/13
f 11/47/14 16/46/14 20/45/14
f 16/48/2 14/49/2 12/34/2
f 12/34/1 14/49/1 16/48/1
f 6/23/2 12/34/2 14/49/2
f 14/49/1 12/34/1 6/23/1
f 6/23/2 14/49/2 17/35/2
f 17/35/1 14/49/1 6/23/1
f 13/36/2 17/35/2 21/50/2
f 21/50/1 17/35/1 13/36/1
f 9/38/11 18/37/11 19/51/11
f 19/51/12 18/37/12 9/38/12
f 13/36/2 21/50/2 18/52/2
f 18/52/1 21/50/1 13/36/1
f 15/29/1 9/25/1 19/44/1
f 19/44/2 9/25/2 15/29/2
f 15/53/15 17/54/15 10/55/15
f 10/55/16 17/54/16 15/53/16
f 15/42/4 14/41/4 21/56/4
f 21/56/3 14/41/3 15/42/3
f 11/21/1 19/44/1 20/57/1
f 20/57/2 19/44/2 11/21/2
f 16/46/13 20/45/13 22/58/13
f 22/58/14 20/45/14 16/46/14
f 14/49/2 16/48/2 21/50/2
f 21/50/1 16/48/1 14/49/1
f 17/54/15 15/53/15 21/59/15
f 21/59/16 15/53/16 17/54/16
f 18/60/3 20/61/3 19/52/3
f 19/52/4 20/61/4 18/60/4
f 18/52/2 21/50/2 16/48/2
f 16/48/1 21/50/1 18/52/1
f 20/61/3 18/60/3 22/62/3
f 22/62/4 18/60/4 20/61/4
f 18/52/2 16/48/2 22/61/2
f 22/61/1 16/48/1 18/52/1
