# SSTK version 0.8.0
# 133
mtllib original-133.mtl
o mesh236/mesh236-geometry/material_0/component_0#mesh236-geometry
v -0.638036 -0.384243 -0.176707
v -0.645111 -0.384243 -0.176707
v -0.641573 -0.384709 -0.176707
v -0.645111 -0.384243 -0.176707
v -0.638036 -0.384243 -0.176707
v -0.634739 -0.382878 -0.176707
v -0.641573 -0.384709 -0.176707
v -0.645111 -0.384243 -0.176707
v -0.638036 -0.384243 -0.176707
v -0.634739 -0.382878 -0.176707
v -0.638036 -0.384243 -0.176707
v -0.645111 -0.384243 -0.176707
v -0.645111 -0.384243 -0.176707
v -0.634739 -0.382878 -0.176707
v -0.648408 -0.382878 -0.176707
v -0.648408 -0.382878 -0.176707
v -0.634739 -0.382878 -0.176707
v -0.645111 -0.384243 -0.176707
v -0.648408 -0.382878 -0.176707
v -0.634739 -0.382878 -0.176707
v -0.631908 -0.380705 -0.176707
v -0.631908 -0.380705 -0.176707
v -0.634739 -0.382878 -0.176707
v -0.648408 -0.382878 -0.176707
v -0.648408 -0.382878 -0.176707
v -0.631908 -0.380705 -0.176707
v -0.651239 -0.380705 -0.176707
v -0.651239 -0.380705 -0.176707
v -0.631908 -0.380705 -0.176707
v -0.648408 -0.382878 -0.176707
v -0.651239 -0.380705 -0.176707
v -0.631908 -0.380705 -0.176707
v -0.629736 -0.377874 -0.176707
v -0.629736 -0.377874 -0.176707
v -0.631908 -0.380705 -0.176707
v -0.651239 -0.380705 -0.176707
v -0.651239 -0.380705 -0.176707
v -0.629736 -0.377874 -0.176707
v -0.653411 -0.377874 -0.176707
v -0.653411 -0.377874 -0.176707
v -0.629736 -0.377874 -0.176707
v -0.651239 -0.380705 -0.176707
v -0.653411 -0.377874 -0.176707
v -0.629736 -0.377874 -0.176707
v -0.628370 -0.374578 -0.176707
v -0.628370 -0.374578 -0.176707
v -0.629736 -0.377874 -0.176707
v -0.653411 -0.377874 -0.176707
v -0.653411 -0.377874 -0.176707
v -0.628370 -0.374578 -0.176707
v -0.654777 -0.374578 -0.176707
v -0.654777 -0.374578 -0.176707
v -0.628370 -0.374578 -0.176707
v -0.653411 -0.377874 -0.176707
v -0.654777 -0.374578 -0.176707
v -0.628370 -0.374578 -0.176707
v -0.627904 -0.371040 -0.176707
v -0.627904 -0.371040 -0.176707
v -0.628370 -0.374578 -0.176707
v -0.654777 -0.374578 -0.176707
v -0.654777 -0.374578 -0.176707
v -0.627904 -0.371040 -0.176707
v -0.655242 -0.371040 -0.176707
v -0.655242 -0.371040 -0.176707
v -0.627904 -0.371040 -0.176707
v -0.654777 -0.374578 -0.176707
v -0.655242 -0.371040 -0.176707
v -0.627904 -0.371040 -0.176707
v -0.628370 -0.367502 -0.176707
v -0.628370 -0.367502 -0.176707
v -0.627904 -0.371040 -0.176707
v -0.655242 -0.371040 -0.176707
v -0.655242 -0.371040 -0.176707
v -0.628370 -0.367502 -0.176707
v -0.654777 -0.367502 -0.176707
v -0.654777 -0.367502 -0.176707
v -0.628370 -0.367502 -0.176707
v -0.655242 -0.371040 -0.176707
v -0.654777 -0.367502 -0.176707
v -0.628370 -0.367502 -0.176707
v -0.629736 -0.364205 -0.176707
v -0.629736 -0.364205 -0.176707
v -0.628370 -0.367502 -0.176707
v -0.654777 -0.367502 -0.176707
v -0.654777 -0.367502 -0.176707
v -0.629736 -0.364205 -0.176707
v -0.653411 -0.364205 -0.176707
v -0.653411 -0.364205 -0.176707
v -0.629736 -0.364205 -0.176707
v -0.654777 -0.367502 -0.176707
v -0.653411 -0.364205 -0.176707
v -0.629736 -0.364205 -0.176707
v -0.631908 -0.361374 -0.176707
v -0.631908 -0.361374 -0.176707
v -0.629736 -0.364205 -0.176707
v -0.653411 -0.364205 -0.176707
v -0.653411 -0.364205 -0.176707
v -0.631908 -0.361374 -0.176707
v -0.651239 -0.361374 -0.176707
v -0.651239 -0.361374 -0.176707
v -0.631908 -0.361374 -0.176707
v -0.653411 -0.364205 -0.176707
v -0.651239 -0.361374 -0.176707
v -0.631908 -0.361374 -0.176707
v -0.634739 -0.359202 -0.176707
v -0.634739 -0.359202 -0.176707
v -0.631908 -0.361374 -0.176707
v -0.651239 -0.361374 -0.176707
v -0.651239 -0.361374 -0.176707
v -0.634739 -0.359202 -0.176707
v -0.648408 -0.359202 -0.176707
v -0.648408 -0.359202 -0.176707
v -0.634739 -0.359202 -0.176707
v -0.651239 -0.361374 -0.176707
v -0.648408 -0.359202 -0.176707
v -0.634739 -0.359202 -0.176707
v -0.638036 -0.357837 -0.176707
v -0.638036 -0.357837 -0.176707
v -0.634739 -0.359202 -0.176707
v -0.648408 -0.359202 -0.176707
v -0.648408 -0.359202 -0.176707
v -0.638036 -0.357837 -0.176707
v -0.645111 -0.357837 -0.176707
v -0.645111 -0.357837 -0.176707
v -0.638036 -0.357837 -0.176707
v -0.648408 -0.359202 -0.176707
v -0.645111 -0.357837 -0.176707
v -0.638036 -0.357837 -0.176707
v -0.641573 -0.357371 -0.176707
v -0.641573 -0.357371 -0.176707
v -0.638036 -0.357837 -0.176707
v -0.645111 -0.357837 -0.176707
vt 0 0
vn 0 0 1
vn 0 0 -1
usemtl material_0_0
f 1/1/1 2/1/1 3/1/1
f 4/1/1 5/1/1 6/1/1
f 7/1/2 8/1/2 9/1/2
f 10/1/2 11/1/2 12/1/2
f 13/1/1 14/1/1 15/1/1
f 16/1/2 17/1/2 18/1/2
f 19/1/1 20/1/1 21/1/1
f 22/1/2 23/1/2 24/1/2
f 25/1/1 26/1/1 27/1/1
f 28/1/2 29/1/2 30/1/2
f 31/1/1 32/1/1 33/1/1
f 34/1/2 35/1/2 36/1/2
f 37/1/1 38/1/1 39/1/1
f 40/1/2 41/1/2 42/1/2
f 43/1/1 44/1/1 45/1/1
f 46/1/2 47/1/2 48/1/2
f 49/1/1 50/1/1 51/1/1
f 52/1/2 53/1/2 54/1/2
f 55/1/1 56/1/1 57/1/1
f 58/1/2 59/1/2 60/1/2
f 61/1/1 62/1/1 63/1/1
f 64/1/2 65/1/2 66/1/2
f 67/1/1 68/1/1 69/1/1
f 70/1/2 71/1/2 72/1/2
f 73/1/1 74/1/1 75/1/1
f 76/1/2 77/1/2 78/1/2
f 79/1/1 80/1/1 81/1/1
f 82/1/2 83/1/2 84/1/2
f 85/1/1 86/1/1 87/1/1
f 88/1/2 89/1/2 90/1/2
f 91/1/1 92/1/1 93/1/1
f 94/1/2 95/1/2 96/1/2
f 97/1/1 98/1/1 99/1/1
f 100/1/2 101/1/2 102/1/2
f 103/1/1 104/1/1 105/1/1
f 106/1/2 107/1/2 108/1/2
f 109/1/1 110/1/1 111/1/1
f 112/1/2 113/1/2 114/1/2
f 115/1/1 116/1/1 117/1/1
f 118/1/2 119/1/2 120/1/2
f 121/1/1 122/1/1 123/1/1
f 124/1/2 125/1/2 126/1/2
f 127/1/1 128/1/1 129/1/1
f 130/1/2 131/1/2 132/1/2
