mtllib new-5.mtl
v 0.052864 -0.178477 0.277210
v 0.052864 -0.033938 0.277210
v 0.052864 -0.033938 -0.123018
v 0.058301 -0.033938 0.277210
v 0.052864 -0.178477 -0.123018
v 0.058301 -0.173041 0.277210
v 0.058301 -0.178477 -0.123018
v 0.058301 -0.173041 -0.123018
v 0.052864 -0.033938 -0.128455
v 0.058301 -0.033938 -0.123018
v 0.057933 -0.173041 -0.123018
v 0.052864 -0.178477 -0.128455
vn 1.000000 0.000000 0.000000
vn -1.000000 0.000000 0.000000
vn 0.000000 0.000000 -1.000000
vn 0.000000 0.000000 1.000000
vn 0.000000 1.000000 0.000000
vn 0.000000 -1.000000 0.000000
vt -0.112563 0.025356
vt -0.112563 0.004075
vt -0.004219 0.304077
vt -0.004219 0.025356
vt -0.004219 0.004075
vt 0.004219 0.004075
vt 0.112563 0.304077
vt 0.004219 0.304077
vt -0.108488 0.029155
vt -0.004219 0.029431
vt 0.112563 0.004075
vt -0.029431 0.304077
vt -0.025356 0.004075
vt -0.025356 0.304077
vt -0.108488 0.029431
vt -0.029431 0.004075
vt 0.004219 0.000000
vt -0.108488 0.304077
vt 0.112563 0.000000
vt -0.025356 0.000000
vt -0.108488 0.004075
usemtl material-0
f 3/6/2 1/7/2 2/8/2
f 2/8/1 1/7/1 3/6/1
f 1/7/2 3/6/2 5/11/2
f 5/11/1 3/6/1 1/7/1
f 4/12/5 3/13/5 2/14/5
f 2/14/6 3/13/6 4/12/6
f 9/17/2 5/11/2 3/6/2
f 3/6/1 5/11/1 9/17/1
f 10/10/3 5/1/3 3/4/3
f 3/4/4 5/1/4 10/10/4
f 3/13/5 4/12/5 10/16/5
f 10/16/6 4/12/6 3/13/6
f 7/2/1 4/3/1 6/18/1
f 6/18/2 4/3/2 7/2/2
f 5/11/2 9/17/2 12/19/2
f 12/19/1 9/17/1 5/11/1
f 10/16/5 9/20/5 3/13/5
f 3/13/6 9/20/6 10/16/6
f 5/1/3 10/10/3 11/9/3
f 11/9/4 10/10/4 5/1/4
f 7/2/1 10/5/1 4/3/1
f 4/3/2 10/5/2 7/2/2
f 10/5/1 7/2/1 8/21/1
f 8/21/2 7/2/2 10/5/2
f 11/9/3 10/10/3 8/15/3
f 8/15/4 10/10/4 11/9/4