# SSTK version 0.8.0
# 7
mtllib original-7.mtl
o mesh8/mesh8-geometry#mesh8-geometry
v -0.141221 0.542073 0.590723
v -0.164458 0.536871 0.587720
v -0.164458 0.542073 0.590723
v -0.156752 0.536871 0.587720
v -0.148927 0.536871 0.587720
v -0.141221 0.536871 0.587720
v -0.156752 0.496315 0.564305
v -0.148927 0.496315 0.564305
v -0.141221 0.491113 0.561301
v -0.164458 0.491113 0.561301
v -0.141221 0.496315 0.564305
v -0.164458 0.496315 0.564305
vn 0 0.5000001748438415 -0.8660253028382761
vn 0 -0.5000001748438415 0.8660253028382761
usemtl material_0_0
f 1//1 2//1 3//1
f 2//1 1//1 4//1
f 3//2 2//2 1//2
f 4//2 1//2 2//2
f 4//1 1//1 5//1
f 5//2 1//2 4//2
f 5//1 1//1 6//1
f 6//2 1//2 5//2
f 4//1 5//1 7//1
f 7//2 5//2 4//2
f 8//1 7//1 5//1
f 5//2 7//2 8//2
f 9//1 7//1 8//1
f 8//2 7//2 9//2
f 10//1 7//1 9//1
f 9//2 7//2 10//2
f 9//1 8//1 11//1
f 11//2 8//2 9//2
f 7//1 10//1 12//1
f 12//2 10//2 7//2
