# SSTK version 0.8.0
# 21
mtllib original-21.mtl
o mesh24/mesh24-geometry#mesh24-geometry
v 0.035812 -0.238360 -0.260637
v 0.035812 -0.239300 -0.260637
v 0.035750 -0.238829 -0.260637
v 0.035994 -0.237921 -0.260637
v 0.035994 -0.239737 -0.260637
v 0.036283 -0.237545 -0.260637
v 0.036283 -0.240113 -0.260637
v 0.036659 -0.237256 -0.260637
v 0.035994 -0.237921 0.184382
v 0.035812 -0.238360 0.184382
v 0.036659 -0.240402 -0.260637
v 0.035812 -0.239300 0.184382
v 0.037096 -0.237074 -0.260637
v 0.036283 -0.237545 0.184382
v 0.035750 -0.238829 0.184382
v 0.037096 -0.240584 -0.260637
v 0.035994 -0.239737 0.184382
v 0.036283 -0.240113 0.184382
v 0.036659 -0.237256 0.184382
v 0.037567 -0.237013 -0.260637
v 0.037567 -0.240646 -0.260637
v 0.037096 -0.240584 0.184382
v 0.037567 -0.240646 0.184382
v 0.036659 -0.240402 0.184382
v 0.038037 -0.237074 -0.260637
v 0.037096 -0.237074 0.184382
v 0.037567 -0.237013 0.184382
v 0.038037 -0.237074 0.184382
v 0.038037 -0.240584 0.184382
v 0.038037 -0.240584 -0.260637
v 0.038475 -0.240402 0.184382
v 0.038475 -0.237256 0.184382
v 0.038475 -0.237256 -0.260637
v 0.038475 -0.240402 -0.260637
v 0.038851 -0.237545 -0.260637
v 0.038851 -0.240113 -0.260637
v 0.039140 -0.237921 -0.260637
v 0.038851 -0.240113 0.184382
v 0.039140 -0.239737 0.184382
v 0.038851 -0.237545 0.184382
v 0.039140 -0.239737 -0.260637
v 0.039322 -0.238360 -0.260637
v 0.039322 -0.239300 -0.260637
v 0.039140 -0.237921 0.184382
v 0.039322 -0.239300 0.184382
v 0.039322 -0.238360 0.184382
v 0.039383 -0.238829 -0.260637
v 0.039383 -0.238829 0.184382
vn 0 0 -1
vn 0 0 1
vn 0.8660253028382762 -0.5000001748438417 0
vn 0.965925849201117 -0.2588189595935754 0
vn 1 0 0
vn 0.965925849201117 0.2588189595935754 0
vn 0.8660253028382762 0.5000001748438417 0
vn -0.965925849201117 0.2588189595935754 0
vn -0.8660253028382762 0.5000001748438417 0
vn -0.7071067811865476 0.7071067811865476 0
vn 0.7071067811865476 -0.7071067811865476 0
vn -0.5000001748438417 0.8660253028382762 0
vn 0.5000001748438417 -0.8660253028382762 0
vn -0.965925849201117 -0.2588189595935754 0
vn -1 0 0
vn -0.8660253028382762 -0.5000001748438417 0
vn -0.7071067811865476 -0.7071067811865476 0
vn 0.7071067811865476 0.7071067811865476 0
vn -0.2588189595935754 -0.965925849201117 0
vn -0.5000001748438417 -0.8660253028382762 0
vn 0.2588189595935754 0.965925849201117 0
vn 0.5000001748438417 0.8660253028382762 0
vn 0 -1 0
vn 0 1 0
vn -0.2588189595935754 0.965925849201117 0
vn 0.2588189595935754 -0.965925849201117 0
usemtl material_0_0
f 1//1 2//1 3//1
f 2//1 1//1 4//1
f 2//1 4//1 5//1
f 5//1 4//1 6//1
f 5//1 6//1 7//1
f 7//1 6//1 8//1
f 3//2 2//2 1//2
f 4//2 1//2 2//2
f 4//3 9//3 1//4
f 1//4 10//4 3//5
f 7//1 8//1 11//1
f 7//2 6//2 5//2
f 2//6 12//6 5//7
f 11//1 8//1 13//1
f 6//2 4//2 5//2
f 8//2 6//2 7//2
f 1//8 9//9 4//9
f 4//9 14//10 6//10
f 6//11 14//11 4//3
f 14//10 8//12 6//10
f 6//11 8//13 14//11
f 5//2 4//2 2//2
f 2//14 15//15 3//15
f 3//5 15//5 2//6
f 5//16 12//14 2//14
f 14//10 4//9 9//9
f 9//3 4//3 14//11
f 10//4 1//4 9//3
f 10//8 3//15 15//15
f 3//15 10//8 1//8
f 15//5 3//5 10//4
f 11//1 13//1 16//1
f 11//2 8//2 7//2
f 13//2 8//2 11//2
f 15//15 2//14 12//14
f 12//6 2//6 15//5
f 12//14 5//16 17//16
f 17//7 5//7 12//6
f 17//16 7//17 18//17
f 7//17 17//16 5//16
f 18//18 7//18 17//7
f 5//7 17//7 7//18
f 9//9 1//8 10//8
f 8//12 14//10 19//12
f 19//13 14//11 8//13
f 12//2 10//2 15//2
f 10//2 17//2 9//2
f 9//2 18//2 14//2
f 15//1 10//1 12//1
f 9//1 17//1 10//1
f 14//1 18//1 9//1
f 16//1 20//1 21//1
f 16//2 13//2 11//2
f 21//2 20//2 16//2
f 22//19 11//20 16//19
f 16//21 11//22 22//21
f 23//23 16//19 21//23
f 21//24 16//21 23//24
f 16//1 13//1 20//1
f 20//2 13//2 16//2
f 24//20 7//17 11//20
f 11//22 7//18 24//22
f 21//1 20//1 25//1
f 19//12 13//25 8//12
f 8//13 13//26 19//13
f 26//25 20//24 13//25
f 13//26 20//23 26//26
f 10//2 12//2 17//2
f 17//1 12//1 10//1
f 14//2 24//2 19//2
f 19//2 22//2 26//2
f 26//2 23//2 27//2
f 19//1 24//1 14//1
f 26//1 22//1 19//1
f 13//25 19//12 26//25
f 26//26 19//13 13//26
f 27//1 23//1 26//1
f 28//1 29//1 27//1
f 20//24 26//25 27//24
f 27//23 26//26 20//23
f 28//21 20//24 27//24
f 9//2 17//2 18//2
f 18//1 17//1 9//1
f 14//2 18//2 24//2
f 24//1 18//1 14//1
f 21//1 25//1 30//1
f 25//2 20//2 21//2
f 11//20 22//19 24//20
f 24//22 22//21 11//22
f 16//19 23//23 22//19
f 22//21 23//24 16//21
f 30//26 23//23 21//23
f 21//24 23//24 30//25
f 7//17 24//20 18//17
f 18//18 24//22 7//18
f 27//23 20//23 28//19
f 19//2 24//2 22//2
f 26//2 22//2 23//2
f 23//1 22//1 26//1
f 27//2 23//2 29//2
f 22//1 24//1 19//1
f 28//2 29//2 31//2
f 28//2 31//2 32//2
f 31//1 29//1 28//1
f 32//1 31//1 28//1
f 29//1 23//1 27//1
f 20//24 28//21 25//21
f 25//19 28//19 20//23
f 30//1 33//1 34//1
f 30//2 25//2 21//2
f 34//2 33//2 30//2
f 34//13 29//26 30//26
f 30//25 29//25 34//12
f 30//1 25//1 33//1
f 34//1 33//1 35//1
f 36//1 35//1 37//1
f 33//2 25//2 30//2
f 35//2 33//2 34//2
f 23//23 30//26 29//26
f 29//25 30//25 23//24
f 32//22 25//21 28//21
f 28//19 25//19 32//20
f 27//2 29//2 28//2
f 29//26 34//13 31//13
f 31//12 34//12 29//25
f 31//13 36//11 38//11
f 38//10 36//10 31//12
f 36//11 39//3 38//11
f 32//2 31//2 38//2
f 32//2 38//2 40//2
f 38//1 31//1 32//1
f 38//10 39//9 36//10
f 39//1 38//1 40//1
f 33//20 32//20 25//19
f 34//1 35//1 36//1
f 36//1 37//1 41//1
f 41//1 37//1 42//1
f 41//1 42//1 43//1
f 36//2 35//2 34//2
f 37//2 35//2 36//2
f 41//2 37//2 36//2
f 42//2 37//2 41//2
f 33//22 40//18 35//18
f 35//17 40//17 33//20
f 25//21 32//22 33//22
f 34//12 31//12 36//10
f 36//11 31//13 34//13
f 39//3 36//11 41//3
f 41//9 36//10 39//9
f 40//18 33//22 32//22
f 32//20 33//20 40//17
f 40//2 39//2 44//2
f 44//2 45//2 46//2
f 40//1 38//1 32//1
f 44//1 39//1 40//1
f 40//2 38//2 39//2
f 44//2 39//2 45//2
f 45//1 39//1 44//1
f 43//8 41//9 45//8
f 43//1 42//1 47//1
f 44//7 42//6 37//7
f 37//16 42//14 44//16
f 40//18 37//7 35//18
f 35//17 37//16 40//17
f 43//2 42//2 41//2
f 47//2 42//2 43//2
f 45//4 41//3 43//4
f 48//5 43//4 47//5
f 47//15 43//8 48//15
f 37//7 40//18 44//7
f 44//16 40//17 37//16
f 41//3 45//4 39//3
f 39//9 45//8 41//9
f 46//2 45//2 48//2
f 46//1 45//1 44//1
f 48//1 45//1 46//1
f 47//5 46//6 48//5
f 48//15 46//14 47//15
f 42//6 44//7 46//6
f 43//4 48//5 45//4
f 45//8 48//15 43//8
f 46//14 44//16 42//14
f 46//6 47//5 42//6
f 42//14 47//15 46//14
