# SSTK version 0.8.0
# 56
mtllib original-56.mtl
o mesh59/mesh59-geometry#mesh59-geometry
v -0.036844 -0.239300 0.184382
v -0.036662 -0.239737 -0.260637
v -0.036662 -0.239737 0.184382
v -0.036844 -0.239300 -0.260637
v -0.036906 -0.238829 0.184382
v -0.036844 -0.238360 0.184382
v -0.036662 -0.237921 0.184382
v -0.036374 -0.240113 0.184382
v -0.036662 -0.237921 -0.260637
v -0.036374 -0.237545 -0.260637
v -0.036374 -0.240113 -0.260637
v -0.036906 -0.238829 -0.260637
v -0.036374 -0.237545 0.184382
v -0.035998 -0.240402 0.184382
v -0.036844 -0.238360 -0.260637
v -0.035998 -0.237256 -0.260637
v -0.035998 -0.237256 0.184382
v -0.035560 -0.240584 0.184382
v -0.035560 -0.237074 0.184382
v -0.035560 -0.237074 -0.260637
v -0.035089 -0.237013 -0.260637
v -0.035089 -0.237013 0.184382
v -0.035998 -0.240402 -0.260637
v -0.035560 -0.240584 -0.260637
v -0.035089 -0.240646 0.184382
v -0.034619 -0.237074 0.184382
v -0.034619 -0.237074 -0.260637
v -0.034181 -0.237256 0.184382
v -0.034181 -0.237256 -0.260637
v -0.035089 -0.240646 -0.260637
v -0.034619 -0.240584 0.184382
v -0.034619 -0.240584 -0.260637
v -0.034181 -0.240402 0.184382
v -0.034181 -0.240402 -0.260637
v -0.033805 -0.237545 -0.260637
v -0.033805 -0.240113 -0.260637
v -0.033805 -0.240113 0.184382
v -0.033805 -0.237545 0.184382
v -0.033516 -0.239737 0.184382
v -0.033516 -0.237921 -0.260637
v -0.033516 -0.239737 -0.260637
v -0.033335 -0.238360 -0.260637
v -0.033335 -0.239300 -0.260637
v -0.033516 -0.237921 0.184382
v -0.033335 -0.239300 0.184382
v -0.033273 -0.238829 -0.260637
v -0.033273 -0.238829 0.184382
v -0.033335 -0.238360 0.184382
vn -0.965925849201117 -0.2588189595935754 0
vn -0.8660253028382762 -0.5000001748438417 0
vn 0.8660253028382762 0.5000001748438417 0
vn 0.965925849201117 0.2588189595935754 0
vn 1 0 0
vn 0 0 1
vn 0 0 -1
vn -1 0 0
vn -0.8660253028382762 0.5000001748438417 0
vn -0.965925849201117 0.2588189595935754 0
vn 0.965925849201117 -0.2588189595935754 0
vn 0.8660253028382762 -0.5000001748438417 0
vn -0.7071067811865476 -0.7071067811865476 0
vn -0.5000001748438417 -0.8660253028382762 0
vn 0.7071067811865476 0.7071067811865476 0
vn 0.5000001748438417 0.8660253028382762 0
vn 0.2588189595935754 -0.965925849201117 0
vn 0.5000001748438417 -0.8660253028382762 0
vn 0 1 0
vn -0.2588189595935754 0.965925849201117 0
vn -0.7071067811865476 0.7071067811865476 0
vn 0.7071067811865476 -0.7071067811865476 0
vn 0.2588189595935754 0.965925849201117 0
vn -0.2588189595935754 -0.965925849201117 0
vn -0.5000001748438417 0.8660253028382762 0
vn 0 -1 0
usemtl material_0_0
f 1//1 2//2 3//2
f 2//2 1//1 4//1
f 3//3 2//3 1//4
f 4//4 1//4 2//3
f 1//4 4//4 5//5
f 6//6 1//6 3//6
f 7//6 3//6 8//6
f 5//7 6//7 1//7
f 3//7 1//7 6//7
f 5//8 4//1 1//1
f 4//7 9//7 2//7
f 2//7 10//7 11//7
f 2//6 9//6 4//6
f 4//1 5//8 12//8
f 1//6 6//6 5//6
f 6//6 3//6 7//6
f 7//6 8//6 13//6
f 13//6 8//6 14//6
f 7//7 3//7 6//7
f 8//7 3//7 7//7
f 13//7 8//7 7//7
f 14//7 8//7 13//7
f 7//9 15//10 6//10
f 6//11 15//11 7//12
f 4//7 15//7 9//7
f 2//7 9//7 10//7
f 11//7 10//7 16//7
f 12//6 4//6 15//6
f 9//6 15//6 4//6
f 10//6 9//6 2//6
f 11//6 10//6 2//6
f 16//6 10//6 11//6
f 12//5 5//5 4//4
f 11//13 14//14 8//13
f 8//15 14//16 11//15
f 3//2 11//13 8//13
f 8//15 11//15 3//3
f 13//6 14//6 17//6
f 17//6 14//6 18//6
f 17//7 14//7 13//7
f 18//7 14//7 17//7
f 19//17 17//18 20//17
f 21//19 19//20 22//19
f 19//7 18//7 17//7
f 6//10 12//8 5//8
f 12//8 6//10 15//10
f 5//5 12//5 6//11
f 15//11 6//11 12//5
f 15//10 7//9 9//9
f 9//12 7//12 15//11
f 9//9 13//21 10//21
f 10//22 13//22 9//12
f 10//22 16//18 13//22
f 11//7 16//7 23//7
f 23//7 16//7 20//7
f 23//7 20//7 24//7
f 23//6 16//6 11//6
f 20//6 16//6 23//6
f 14//14 11//13 23//14
f 23//16 11//15 14//16
f 11//13 3//2 2//2
f 2//3 3//3 11//15
f 24//7 20//7 21//7
f 14//16 18//23 23//16
f 23//14 18//24 14//14
f 19//6 18//6 25//6
f 17//6 18//6 19//6
f 17//25 20//20 16//25
f 20//20 17//25 19//20
f 16//18 20//17 17//18
f 19//20 21//19 20//20
f 20//17 21//26 19//17
f 22//26 19//17 21//26
f 21//19 26//23 27//23
f 26//23 21//19 22//19
f 27//24 26//24 21//26
f 22//26 21//26 26//24
f 27//23 28//16 29//16
f 28//16 27//23 26//23
f 29//14 28//14 27//24
f 26//24 27//24 28//14
f 19//6 25//6 22//6
f 25//7 18//7 19//7
f 22//7 25//7 19//7
f 15//7 4//7 12//7
f 16//25 13//21 17//25
f 17//18 13//22 16//18
f 13//21 9//9 7//9
f 7//12 9//12 13//22
f 13//21 16//25 10//21
f 24//7 21//7 30//7
f 24//6 20//6 23//6
f 30//6 21//6 24//6
f 25//26 24//24 30//26
f 30//19 24//23 25//19
f 18//24 23//14 24//24
f 24//23 23//16 18//23
f 21//6 20//6 24//6
f 30//7 21//7 27//7
f 24//24 25//26 18//24
f 18//23 25//19 24//23
f 22//6 31//6 26//6
f 32//7 27//7 29//7
f 27//6 21//6 30//6
f 29//6 27//6 32//6
f 22//6 25//6 31//6
f 26//6 31//6 33//6
f 31//7 25//7 22//7
f 26//7 31//7 22//7
f 33//7 31//7 26//7
f 30//7 27//7 32//7
f 32//17 25//26 30//26
f 30//19 25//19 32//20
f 32//7 29//7 34//7
f 34//7 29//7 35//7
f 34//6 29//6 32//6
f 35//6 29//6 34//6
f 32//6 27//6 30//6
f 34//7 35//7 36//7
f 33//25 34//25 31//20
f 25//26 32//17 31//17
f 31//20 32//20 25//19
f 26//6 33//6 28//6
f 28//7 33//7 26//7
f 28//6 33//6 37//6
f 38//6 37//6 39//6
f 37//7 33//7 28//7
f 39//7 37//7 38//7
f 36//22 39//12 37//22
f 37//21 39//9 36//21
f 36//7 35//7 40//7
f 41//7 40//7 42//7
f 40//6 35//6 36//6
f 29//16 38//15 35//15
f 36//22 33//18 34//18
f 34//25 33//25 36//21
f 34//18 31//17 32//17
f 32//20 31//20 34//25
f 36//7 40//7 41//7
f 41//7 42//7 43//7
f 36//6 35//6 34//6
f 41//6 40//6 36//6
f 39//12 36//22 41//12
f 41//9 36//21 39//9
f 31//17 34//18 33//18
f 28//6 37//6 38//6
f 38//6 39//6 44//6
f 44//6 39//6 45//6
f 38//7 37//7 28//7
f 44//7 39//7 38//7
f 45//7 39//7 44//7
f 42//6 40//6 41//6
f 43//7 42//7 46//7
f 43//6 42//6 41//6
f 46//6 42//6 43//6
f 46//8 43//10 47//8
f 38//15 29//16 28//16
f 35//13 38//13 29//14
f 28//14 29//14 38//13
f 33//18 36//22 37//22
f 37//21 36//21 33//25
f 45//11 41//12 43//11
f 39//9 45//10 41//9
f 43//10 41//9 45//10
f 43//11 47//5 45//11
f 47//5 43//11 46//5
f 45//10 47//8 43//10
f 40//3 38//15 44//3
f 44//2 38//13 40//2
f 44//6 45//6 48//6
f 48//7 45//7 44//7
f 42//4 44//3 48//4
f 48//1 44//2 42//1
f 41//12 45//11 39//12
f 46//5 48//4 47//5
f 47//8 48//1 46//8
f 48//6 45//6 47//6
f 47//7 45//7 48//7
f 48//4 46//5 42//4
f 42//1 46//8 48//1
f 44//3 42//4 40//3
f 38//15 40//3 35//15
f 35//13 40//2 38//13
f 40//2 42//1 44//2
