# SSTK version 0.8.0
# 91
mtllib original-91.mtl
o mesh221/mesh221-geometry#mesh221-geometry
v -0.164507 0.284732 -0.261091
v -0.164507 0.283791 -0.261091
v -0.164569 0.284262 -0.261091
v -0.164326 0.285170 -0.261091
v -0.164326 0.283354 -0.261091
v -0.164037 0.285546 -0.261091
v -0.164037 0.282978 -0.261091
v -0.163661 0.285835 -0.261091
v -0.164326 0.285170 0.183928
v -0.164507 0.284732 0.183928
v -0.163661 0.282689 -0.261091
v -0.164569 0.284262 0.183928
v -0.164507 0.283791 0.183928
v -0.163223 0.286017 -0.261091
v -0.164037 0.285546 0.183928
v -0.163223 0.282507 -0.261091
v -0.164326 0.283354 0.183928
v -0.164037 0.282978 0.183928
v -0.163661 0.285835 0.183928
v -0.162753 0.286078 -0.261091
v -0.162753 0.282446 -0.261091
v -0.163223 0.282507 0.183928
v -0.162753 0.282446 0.183928
v -0.163661 0.282689 0.183928
v -0.163223 0.286017 0.183928
v -0.162282 0.286017 -0.261091
v -0.162282 0.282507 -0.261091
v -0.162753 0.286078 0.183928
v -0.162282 0.286017 0.183928
v -0.162282 0.282507 0.183928
v -0.161844 0.285835 -0.261091
v -0.161844 0.282689 -0.261091
v -0.161468 0.285546 -0.261091
v -0.161468 0.282978 -0.261091
v -0.161844 0.282689 0.183928
v -0.161844 0.285835 0.183928
v -0.161468 0.282978 0.183928
v -0.161180 0.283354 0.183928
v -0.161180 0.285170 -0.261091
v -0.161180 0.283354 -0.261091
v -0.161468 0.285546 0.183928
v -0.160998 0.283791 0.183928
v -0.160998 0.283791 -0.261091
v -0.160936 0.284262 0.183928
v -0.161180 0.285170 0.183928
v -0.160998 0.284732 -0.261091
v -0.160936 0.284262 -0.261091
v -0.160998 0.284732 0.183928
vn 0 0 -1
vn 0 0 1
vn 0.8660253028382762 -0.5000001748438417 0
vn 0.965925849201117 -0.2588189595935754 0
vn 1 0 0
vn -0.965925849201117 -0.2588189595935754 0
vn -1 0 0
vn 0.965925849201117 0.2588189595935754 0
vn 0.8660253028382762 0.5000001748438417 0
vn -0.8660253028382762 0.5000001748438417 0
vn -0.965925849201117 0.2588189595935754 0
vn 0.7071067811865476 -0.7071067811865476 0
vn -0.8660253028382762 -0.5000001748438417 0
vn -0.7071067811865476 -0.7071067811865476 0
vn 0.7071067811865476 0.7071067811865476 0
vn -0.5000001748438417 0.8660253028382762 0
vn -0.2588189595935754 0.965925849201117 0
vn -0.7071067811865476 0.7071067811865476 0
vn 0.5000001748438417 -0.8660253028382762 0
vn -0.2588189595935754 -0.965925849201117 0
vn -0.5000001748438417 -0.8660253028382762 0
vn 0.2588189595935754 0.965925849201117 0
vn 0.5000001748438417 0.8660253028382762 0
vn 0 -1 0
vn 0 1 0
vn 0.2588189595935754 -0.965925849201117 0
usemtl material_0_0
f 1//1 2//1 3//1
f 2//1 1//1 4//1
f 2//1 4//1 5//1
f 5//1 4//1 6//1
f 5//1 6//1 7//1
f 7//1 6//1 8//1
f 3//2 2//2 1//2
f 4//2 1//2 2//2
f 4//3 9//3 1//4
f 1//4 10//4 3//5
f 7//1 8//1 11//1
f 5//2 4//2 2//2
f 7//2 6//2 5//2
f 2//6 12//7 3//7
f 3//5 12//5 2//8
f 2//8 13//8 5//9
f 11//1 8//1 14//1
f 8//2 6//2 7//2
f 9//10 1//11 10//11
f 1//11 9//10 4//10
f 10//4 1//4 9//3
f 10//11 3//7 12//7
f 3//7 10//11 1//11
f 9//3 4//3 15//12
f 6//2 4//2 5//2
f 11//1 14//1 16//1
f 11//2 8//2 7//2
f 14//2 8//2 11//2
f 13//8 2//8 12//5
f 12//5 3//5 10//4
f 12//7 2//6 13//6
f 13//6 5//13 17//13
f 5//13 13//6 2//6
f 17//9 5//9 13//8
f 17//13 7//14 18//14
f 7//14 17//13 5//13
f 18//15 7//15 17//9
f 5//9 17//9 7//15
f 19//16 14//17 8//16
f 15//18 8//16 6//18
f 6//12 8//19 15//12
f 4//10 15//18 6//18
f 6//12 15//12 4//3
f 13//2 10//2 12//2
f 10//2 17//2 9//2
f 12//1 10//1 13//1
f 15//18 4//10 9//10
f 9//2 18//2 15//2
f 9//1 17//1 10//1
f 15//1 18//1 9//1
f 16//1 20//1 21//1
f 16//2 14//2 11//2
f 21//2 20//2 16//2
f 22//20 11//21 16//20
f 16//22 11//23 22//22
f 23//24 16//20 21//24
f 21//25 16//22 23//25
f 24//21 7//14 11//21
f 11//23 7//15 24//23
f 10//2 13//2 17//2
f 9//2 17//2 18//2
f 17//1 13//1 10//1
f 18//1 17//1 9//1
f 14//17 19//16 25//17
f 8//19 14//26 19//19
f 25//26 19//19 14//26
f 19//19 15//12 8//19
f 25//17 20//25 14//17
f 8//16 15//18 19//16
f 19//2 24//2 22//2
f 19//2 22//2 25//2
f 25//2 22//2 23//2
f 24//1 18//1 15//1
f 19//1 24//1 15//1
f 22//1 24//1 19//1
f 25//1 22//1 19//1
f 15//2 18//2 24//2
f 16//1 14//1 20//1
f 21//1 20//1 26//1
f 20//2 14//2 16//2
f 26//2 20//2 21//2
f 11//21 22//20 24//21
f 24//23 22//22 11//23
f 16//20 23//24 22//20
f 22//22 23//25 16//22
f 27//26 23//24 21//24
f 21//25 23//25 27//17
f 7//14 24//21 18//14
f 18//15 24//23 7//15
f 20//25 25//17 28//25
f 14//26 20//24 25//26
f 20//25 29//22 26//22
f 15//2 24//2 19//2
f 23//1 22//1 25//1
f 28//24 25//26 20//24
f 25//2 23//2 28//2
f 28//1 23//1 25//1
f 21//1 26//1 27//1
f 23//24 27//26 30//26
f 30//17 27//17 23//25
f 27//1 31//1 32//1
f 32//1 33//1 34//1
f 27//2 26//2 21//2
f 32//2 31//2 27//2
f 34//2 33//2 32//2
f 32//19 30//26 27//26
f 27//17 30//17 32//16
f 34//12 35//19 32//19
f 32//16 35//16 34//18
f 29//20 26//20 36//21
f 28//2 23//2 30//2
f 30//1 23//1 28//1
f 28//2 30//2 29//2
f 29//2 30//2 35//2
f 29//1 30//1 28//1
f 30//26 32//19 35//19
f 35//16 32//16 30//17
f 35//19 34//12 37//12
f 37//18 34//18 35//16
f 34//12 38//3 37//12
f 36//2 35//2 37//2
f 35//1 30//1 29//1
f 37//1 35//1 36//1
f 27//1 26//1 31//1
f 32//1 31//1 33//1
f 31//2 26//2 27//2
f 33//2 31//2 32//2
f 34//1 33//1 39//1
f 39//2 33//2 34//2
f 34//1 39//1 40//1
f 36//23 26//22 29//22
f 29//22 20//25 28//25
f 28//24 20//24 29//20
f 29//2 35//2 36//2
f 36//1 35//1 29//1
f 41//1 37//1 36//1
f 37//18 38//10 34//18
f 40//3 42//4 38//3
f 38//10 42//11 40//10
f 43//4 44//5 42//4
f 41//2 37//2 38//2
f 45//2 38//2 42//2
f 38//1 37//1 41//1
f 36//2 37//2 41//2
f 31//21 36//21 26//20
f 40//1 39//1 46//1
f 43//1 46//1 47//1
f 46//2 39//2 40//2
f 46//6 47//7 48//6
f 45//9 46//8 39//9
f 39//13 46//6 45//13
f 41//15 39//9 33//15
f 33//14 39//13 41//14
f 40//1 46//1 43//1
f 40//2 39//2 34//2
f 43//2 46//2 40//2
f 38//3 34//12 40//3
f 26//22 36//23 31//23
f 26//20 29//20 20//24
f 41//2 38//2 45//2
f 45//1 38//1 41//1
f 42//1 38//1 45//1
f 40//10 34//18 38//10
f 42//4 40//3 43//4
f 43//11 40//10 42//11
f 44//5 43//4 47//5
f 42//11 44//7 43//11
f 47//7 43//11 44//7
f 45//2 42//2 48//2
f 48//2 42//2 44//2
f 48//1 42//1 45//1
f 44//1 42//1 48//1
f 41//15 31//23 36//23
f 36//21 31//21 41//14
f 47//2 46//2 43//2
f 48//8 47//5 46//8
f 44//7 48//6 47//7
f 46//8 45//9 48//8
f 48//6 45//13 46//6
f 39//9 41//15 45//9
f 45//13 41//14 39//13
f 31//23 41//15 33//15
f 33//14 41//14 31//21
f 47//5 48//8 44//5
