# SSTK version 0.8.0
# 67
mtllib original-67.mtl
o mesh2/mesh2-geometry#mesh2-geometry
v 0.299584 -0.514926 -0.587484
v 0.299584 -0.514926 -0.633692
v 0.359645 -0.514926 -0.587484
v 0.299584 -0.621381 -0.633692
v 0.359645 -0.514926 -0.633692
v 0.359645 -0.519723 -0.587484
v 0.304205 -0.621381 -0.633692
v 0.299584 -0.621381 -0.610588
v 0.359645 -0.622316 -0.587484
v 0.355025 -0.519723 -0.633692
v 0.355025 -0.519723 -0.587484
v 0.304205 -0.621381 -0.610588
v 0.304205 -0.519723 -0.633692
v 0.299584 -0.621381 -0.587484
v 0.359645 -0.622316 -0.633692
v 0.350413 -0.519723 -0.633692
v 0.304205 -0.519723 -0.587484
v 0.299584 -0.519723 -0.587484
v 0.304205 -0.621381 -0.587484
v 0.355025 -0.622316 -0.633692
v 0.355025 -0.622316 -0.587484
v 0.355025 -0.622316 -0.610077
vt 0 0.071562
vt 0 0.040549
vt -0.32248 0.071562
vt -0.324394 0.120627
vt -0.324394 0.049181
vt -0.572493 0.120627
vt -0.32248 0.040549
vt -0.32248 0.120627
vt 0 0.120627
vt -0.32248 0.117408
vt 0 0.049181
vt -0.02481 0.049181
vt -0.448443 0.049181
vt 0.572493 0.120627
vt 0.572493 0.048554
vt 0.324394 0.120627
vt -0.29767 0.117408
vt 0.572493 0.117408
vt -0.02481 0.040549
vt -0.02481 0.056055
vt -0.02481 0.117408
vt -0.572493 0.049181
vt 0 0.056055
vt 0.324394 0.048554
vt -0.272909 0.117408
vt -0.32248 0.048554
vt -0.572493 0.117408
vt -0.324394 0.117408
vt -0.02481 0.071562
vt -0.29767 0.040549
vt 0.29767 0.040549
vt 0.272909 0.040549
vt 0.29767 0.071562
vt -0.29767 0.048554
vt 0 0.117408
vt 0.02481 0.071562
vt 0.02481 0.040549
vt -0.29767 0.056399
vt 0.451188 0.048554
vt 0.324394 0.117408
vt -0.29767 0.071562
vn 0.0 -1.0 0.0
vn 0.0 1.0 0.0
vn -1.0 0.0 0.0
vn 1.0 0.0 0.0
vn 0.0 0.0 1.0
vn 0.0 0.0 -1.0
usemtl material_0_0
f 1/1/1 2/2/1 3/3/1
f 3/3/2 2/2/2 1/1/2
f 2/4/3 4/5/3 1/6/3
f 1/6/4 4/5/4 2/4/4
f 5/7/1 3/3/1 2/2/1
f 2/2/2 3/3/2 5/7/2
f 3/8/5 1/9/5 6/10/5
f 6/10/6 1/9/6 3/8/6
f 4/11/5 7/12/5 2/9/5
f 2/9/6 7/12/6 4/11/6
f 8/13/3 1/6/3 4/5/3
f 4/5/4 1/6/4 8/13/4
f 3/14/4 9/15/4 5/16/4
f 5/16/3 9/15/3 3/14/3
f 2/9/5 10/17/5 5/8/5
f 5/8/6 10/17/6 2/9/6
f 6/10/5 1/9/5 11/17/5
f 11/17/6 1/9/6 6/10/6
f 6/18/4 9/15/4 3/14/4
f 3/14/3 9/15/3 6/18/3
f 7/19/1 12/20/1 4/2/1
f 4/2/2 12/20/2 7/19/2
f 13/21/5 2/9/5 7/12/5
f 7/12/6 2/9/6 13/21/6
f 14/22/3 1/6/3 8/13/3
f 8/13/4 1/6/4 14/22/4
f 8/23/1 4/2/1 12/20/1
f 12/20/2 4/2/2 8/23/2
f 15/24/4 5/16/4 9/15/4
f 9/15/3 5/16/3 15/24/3
f 10/17/5 2/9/5 16/25/5
f 16/25/6 2/9/6 10/17/6
f 5/8/5 10/17/5 15/26/5
f 15/26/6 10/17/6 5/8/6
f 11/17/5 1/9/5 17/21/5
f 17/21/6 1/9/6 11/17/6
f 6/10/5 11/17/5 9/26/5
f 9/26/6 11/17/6 6/10/6
f 12/13/3 17/27/3 7/5/3
f 7/5/4 17/27/4 12/13/4
f 16/25/5 2/9/5 13/21/5
f 13/21/6 2/9/6 16/25/6
f 13/28/3 7/5/3 17/27/3
f 17/27/4 7/5/4 13/28/4
f 18/27/3 1/6/3 14/22/3
f 14/22/4 1/6/4 18/27/4
f 14/1/1 8/23/1 19/29/1
f 19/29/2 8/23/2 14/1/2
f 12/20/1 19/29/1 8/23/1
f 8/23/2 19/29/2 12/20/2
f 15/7/1 9/3/1 20/30/1
f 20/30/2 9/3/2 15/7/2
f 10/31/2 16/32/2 11/33/2
f 11/33/1 16/32/1 10/31/1
f 20/34/5 15/26/5 10/17/5
f 10/17/6 15/26/6 20/34/6
f 18/35/5 17/21/5 1/9/5
f 1/9/6 17/21/6 18/35/6
f 11/33/2 16/32/2 17/36/2
f 17/36/1 16/32/1 11/33/1
f 21/34/5 9/26/5 11/17/5
f 11/17/6 9/26/6 21/34/6
f 19/22/3 17/27/3 12/13/3
f 12/13/4 17/27/4 19/22/4
f 13/37/2 17/36/2 16/32/2
f 16/32/1 17/36/1 13/37/1
f 14/11/5 19/12/5 18/35/5
f 18/35/6 19/12/6 14/11/6
f 20/30/1 9/3/1 22/38/1
f 22/38/2 9/3/2 20/30/2
f 11/18/4 22/39/4 10/40/4
f 10/40/3 22/39/3 11/18/3
f 20/24/4 10/40/4 22/39/4
f 22/39/3 10/40/3 20/24/3
f 17/21/5 18/35/5 19/12/5
f 19/12/6 18/35/6 17/21/6
f 21/41/1 22/38/1 9/3/1
f 9/3/2 22/38/2 21/41/2
f 21/15/4 22/39/4 11/18/4
f 11/18/3 22/39/3 21/15/3
