# SSTK version 0.8.0
# 160
mtllib original-160.mtl
o mesh276/mesh276-geometry#mesh276-geometry
v 0.100785 0.227519 -0.421911
v 0.098807 0.227531 -0.437171
v 0.102857 0.227506 -0.421911
v 0.098464 0.227533 -0.431914
v 0.10288 0.231387 -0.421911
v 0.098488 0.231413 -0.431914
v 0.097818 0.227537 -0.435037
v 0.098831 0.231411 -0.437171
v 0.100809 0.231399 -0.421911
v 0.097842 0.231417 -0.435037
v 0.096746 0.227544 -0.437171
v 0.09677 0.231424 -0.437171
v 0.097155 0.231422 -0.432216
v 0.097131 0.227541 -0.432216
v 0.094227 0.227559 -0.421911
v 0.093509 0.227564 -0.425543
v 0.094251 0.231439 -0.421911
v 0.093533 0.231444 -0.425543
v 0.091791 0.227574 -0.421911
v 0.093061 0.227566 -0.423753
v 0.093085 0.231446 -0.423753
v 0.091815 0.231454 -0.421911
v 0.089629 0.231468 -0.429634
v 0.092582 0.227569 -0.425543
v 0.092606 0.231449 -0.425543
v 0.089605 0.227587 -0.429634
v 0.08939 0.231469 -0.437171
v 0.089366 0.227589 -0.437171
v 0.088921 0.231472 -0.432422
v 0.088897 0.227592 -0.432422
v 0.088442 0.231475 -0.435037
v 0.087443 0.231481 -0.437171
v 0.088419 0.227595 -0.435037
v 0.087419 0.227601 -0.437171
v 0.087683 0.231479 -0.431716
v 0.083235 0.227626 -0.421911
v 0.087659 0.227599 -0.431716
v 0.085288 0.231494 -0.421911
v 0.083258 0.231506 -0.421911
v 0.085265 0.227614 -0.421911
vn -0.006114001891192305 -0.9999813093157663 0.0
vn 0.006114001891192305 0.9999813093157663 0.0
vn 0.9665336373718088 -0.00590949893937087 -0.2564718418288969
vn -0.9665336373718088 0.00590949893937087 0.2564718418288969
vn 0.0 0.0 1.0
vn 0.0 0.0 -1.0
vn -0.9740988963339849 0.005955753811508184 0.22604395403869804
vn -0.9767645720695588 0.005972052062622252 0.21423189618712987
vn 0.9767645720695588 -0.005972052062622252 -0.21423189618712987
vn 0.9740988963339849 -0.005955753811508184 -0.22604395403869804
vn -0.979286710914382 0.00598747271251185 0.20238994045408645
vn 0.979286710914382 -0.00598747271251185 -0.20238994045408645
vn 0.9671914460380142 -0.005913520857972504 0.25397979640506324
vn 0.9715826786170079 -0.005940369364082086 0.23662588747476132
vn -0.9715826786170079 0.005940369364082086 -0.23662588747476132
vn -0.9671914460380142 0.005913520857972504 -0.25397979640506324
vn -0.9668171478515087 0.00591123235537866 -0.2554009787614654
vn -0.9633391357005432 0.005889967385053221 -0.26822195643148516
vn 0.9633391357005432 -0.005889967385053221 0.26822195643148516
vn 0.9668171478515087 -0.00591123235537866 0.2554009787614654
vn 0.9624903700144459 -0.005884777933048834 0.271252017537444
vn -0.9624903700144459 0.005884777933048834 -0.271252017537444
vn -0.9701243263475929 0.005931452828892715 -0.2425357897217803
vn 0.9701243263475929 -0.005931452828892715 0.2425357897217803
vn -0.9657889946146013 0.005904946107049489 0.2592619322090894
vn -0.962188202259646 0.0058829304442937005 0.2723219685624691
vn 0.962188202259646 -0.0058829304442937005 -0.2723219685624691
vn 0.9657889946146013 -0.005904946107049489 -0.2592619322090894
vn 0.9649158890840748 -0.005899607838408746 -0.26249289822858524
vn 0.9660301274220152 -0.0059064204210459844 -0.2583619691649973
vn -0.9660301274220152 0.0059064204210459844 0.2583619691649973
vn -0.9649158890840748 0.005899607838408746 0.26249289822858524
vn -0.976980728763841 0.00597337366976163 0.21324393175674528
vn 0.976980728763841 -0.00597337366976163 -0.21324393175674528
vn 0.9637837566803908 -0.005892685849374832 -0.2666198541228952
vn -0.9637837566803908 0.005892685849374832 0.2666198541228952
vn -0.9836315801288672 0.006014037747624878 0.1800909379262553
vn 0.9836315801288672 -0.006014037747624878 -0.1800909379262553
vn -0.9643805999911268 0.005896335018710888 -0.2644528154399222
vn 0.9643805999911268 -0.005896335018710888 0.2644528154399222
vn 0.9731393829281981 -0.005949887235080251 0.230139827574489
vn 0.9747833329093172 -0.005959938536239535 0.22307382861924352
vn -0.9747833329093172 0.005959938536239535 -0.22307382861924352
vn -0.9731393829281981 0.005949887235080251 -0.230139827574489
vn 0.9714441456677885 -0.005939522357537434 0.23719400060276605
vn -0.9714441456677885 0.005939522357537434 -0.23719400060276605
usemtl material_0_0
f 1//1 2//1 3//1
f 2//1 1//1 4//1
f 3//2 2//2 1//2
f 4//2 1//2 2//2
f 2//3 5//3 3//3
f 3//4 5//4 2//4
f 5//5 1//5 3//5
f 3//6 1//6 5//6
f 1//7 6//8 4//8
f 4//9 6//9 1//10
f 2//1 4//1 7//1
f 7//2 4//2 2//2
f 5//3 2//3 8//3
f 8//4 2//4 5//4
f 1//5 5//5 9//5
f 9//6 5//6 1//6
f 6//8 1//7 9//7
f 9//10 1//10 6//9
f 10//11 4//8 6//8
f 6//9 4//9 10//12
f 4//8 10//11 7//11
f 7//12 10//12 4//9
f 2//1 7//1 11//1
f 11//2 7//2 2//2
f 2//6 12//6 8//6
f 8//5 12//5 2//5
f 8//2 9//2 5//2
f 5//1 9//1 8//1
f 9//2 8//2 6//2
f 6//1 8//1 9//1
f 6//2 8//2 10//2
f 10//1 8//1 6//1
f 13//13 7//14 10//14
f 10//15 7//15 13//16
f 11//1 7//1 14//1
f 14//2 7//2 11//2
f 12//6 2//6 11//6
f 11//5 2//5 12//5
f 10//2 8//2 12//2
f 12//1 8//1 10//1
f 7//14 13//13 14//13
f 14//16 13//16 7//15
f 10//2 12//2 13//2
f 13//1 12//1 10//1
f 11//1 14//1 15//1
f 15//2 14//2 11//2
f 16//17 12//18 11//18
f 11//19 12//19 16//20
f 17//21 14//13 13//13
f 13//16 14//16 17//22
f 13//2 12//2 17//2
f 17//1 12//1 13//1
f 14//13 17//21 15//21
f 15//22 17//22 14//16
f 11//1 15//1 16//1
f 16//2 15//2 11//2
f 12//18 16//17 18//17
f 18//20 16//20 12//19
f 17//2 12//2 18//2
f 18//1 12//1 17//1
f 17//5 19//5 15//5
f 15//6 19//6 17//6
f 16//1 15//1 20//1
f 20//2 15//2 16//2
f 20//23 18//17 16//17
f 16//20 18//20 20//24
f 17//2 18//2 21//2
f 21//1 18//1 17//1
f 19//5 17//5 22//5
f 22//6 17//6 19//6
f 20//1 15//1 19//1
f 19//2 15//2 20//2
f 18//17 20//23 21//23
f 21//24 20//24 18//20
f 17//2 21//2 22//2
f 22//1 21//1 17//1
f 23//25 19//26 22//26
f 22//27 19//27 23//28
f 20//1 19//1 24//1
f 24//2 19//2 20//2
f 24//29 21//30 20//30
f 20//31 21//31 24//32
f 22//2 21//2 25//2
f 25//1 21//1 22//1
f 19//26 23//25 26//25
f 26//28 23//28 19//27
f 22//2 27//2 23//2
f 23//1 27//1 22//1
f 24//1 19//1 28//1
f 28//2 19//2 24//2
f 21//30 24//29 25//29
f 25//32 24//32 21//31
f 22//2 25//2 27//2
f 27//1 25//1 22//1
f 29//33 26//25 23//25
f 23//28 26//28 29//34
f 28//1 19//1 26//1
f 26//2 19//2 28//2
f 23//2 27//2 29//2
f 29//1 27//1 23//1
f 28//35 25//29 24//29
f 24//32 25//32 28//36
f 25//29 28//35 27//35
f 27//36 28//36 25//32
f 26//25 29//33 30//33
f 30//34 29//34 26//28
f 28//1 26//1 30//1
f 30//2 26//2 28//2
f 29//2 27//2 31//2
f 31//1 27//1 29//1
f 28//6 32//6 27//6
f 27//5 32//5 28//5
f 31//37 30//33 29//33
f 29//34 30//34 31//38
f 28//1 30//1 33//1
f 33//2 30//2 28//2
f 31//2 27//2 32//2
f 32//1 27//1 31//1
f 32//6 28//6 34//6
f 34//5 28//5 32//5
f 30//33 31//37 33//37
f 33//38 31//38 30//34
f 28//1 33//1 34//1
f 34//2 33//2 28//2
f 31//2 32//2 35//2
f 35//1 32//1 31//1
f 36//39 32//39 34//39
f 34//40 32//40 36//40
f 35//41 33//42 31//42
f 31//43 33//43 35//44
f 34//1 33//1 37//1
f 37//2 33//2 34//2
f 35//2 32//2 38//2
f 38//1 32//1 35//1
f 32//39 36//39 39//39
f 39//40 36//40 32//40
f 34//1 40//1 36//1
f 36//2 40//2 34//2
f 33//42 35//41 37//41
f 37//44 35//44 33//43
f 34//1 37//1 40//1
f 40//2 37//2 34//2
f 38//2 32//2 39//2
f 39//1 32//1 38//1
f 38//45 37//41 35//41
f 35//44 37//44 38//46
f 36//5 38//5 39//5
f 39//6 38//6 36//6
f 38//5 36//5 40//5
f 40//6 36//6 38//6
f 37//41 38//45 40//45
f 40//46 38//46 37//44
