# SSTK version 0.8.0
# 105
mtllib original-105.mtl
o mesh133/mesh133-geometry#mesh133-geometry
v 0.026722 0.227972 -0.344919
v 0.028741 0.22796 -0.353726
v 0.028741 0.22796 -0.344919
v 0.027972 0.227964 -0.358617
v 0.028765 0.23184 -0.344919
v 0.027555 0.227967 -0.358035
v 0.0288 0.227959 -0.355046
v 0.028765 0.23184 -0.353726
v 0.026745 0.231852 -0.344919
v 0.027242 0.227969 -0.35739
v 0.027996 0.231844 -0.358617
v 0.028978 0.227958 -0.356133
v 0.026745 0.231852 -0.353736
v 0.026852 0.227971 -0.3558
v 0.027578 0.231847 -0.358035
v 0.029121 0.227957 -0.359591
v 0.028824 0.231839 -0.355046
v 0.026722 0.227972 -0.353736
v 0.026876 0.231851 -0.3558
v 0.027266 0.231849 -0.35739
v 0.029145 0.231837 -0.359591
v 0.029274 0.227956 -0.356987
v 0.029002 0.231838 -0.356133
v 0.029853 0.227953 -0.359963
v 0.029688 0.227954 -0.357608
v 0.029298 0.231836 -0.356987
v 0.029877 0.231833 -0.359963
v 0.029712 0.231834 -0.357608
v 0.030692 0.227948 -0.360228
v 0.030242 0.22795 -0.35805
v 0.030266 0.231831 -0.35805
v 0.030715 0.231828 -0.360228
v 0.031636 0.227942 -0.360387
v 0.030956 0.227946 -0.358366
v 0.030979 0.231826 -0.358366
v 0.03166 0.231822 -0.360387
v 0.032686 0.227935 -0.36044
v 0.031829 0.227941 -0.358555
v 0.031853 0.231821 -0.358555
v 0.03271 0.231816 -0.36044
v 0.034635 0.227924 -0.360255
v 0.032863 0.227934 -0.358618
v 0.032887 0.231814 -0.358618
v 0.034659 0.231804 -0.360255
v 0.034064 0.227927 -0.358491
v 0.034088 0.231807 -0.358491
v 0.035464 0.227918 -0.360024
v 0.035065 0.227921 -0.358108
v 0.035089 0.231801 -0.358108
v 0.035487 0.231799 -0.360024
v 0.036194 0.227914 -0.359701
v 0.035833 0.227916 -0.35749
v 0.035856 0.231796 -0.35749
v 0.036218 0.231794 -0.359701
v 0.036827 0.22791 -0.35929
v 0.036335 0.227913 -0.356656
v 0.036359 0.231793 -0.356656
v 0.036851 0.23179 -0.35929
v 0.036612 0.227911 -0.355452
v 0.036636 0.231792 -0.355452
v 0.037363 0.227907 -0.358796
v 0.036704 0.227911 -0.353726
v 0.036728 0.231791 -0.353726
v 0.037386 0.231787 -0.358796
v 0.036704 0.227911 -0.344919
v 0.036728 0.231791 -0.344919
v 0.037824 0.231784 -0.35822
v 0.037801 0.227904 -0.35822
v 0.038141 0.227902 -0.357562
v 0.038747 0.231779 -0.344919
v 0.038165 0.231782 -0.357562
v 0.038578 0.227899 -0.355905
v 0.038724 0.227899 -0.344919
v 0.038602 0.23178 -0.355905
v 0.038724 0.227899 -0.353736
v 0.038747 0.231779 -0.353736
vn -0.006114001891192305 -0.9999813093157663 0.0
vn 0.006114001891192305 0.9999813093157663 0.0
vn 0.9997302234543839 -0.006112466723067617 0.02240799103907012
vn 0.9999813093157663 -0.006114001891192303 0.0
vn -0.9999813093157663 0.006114001891192303 0.0
vn -0.9997302234543839 0.006112466723067617 -0.02240799103907012
vn 0.0 0.0 1.0
vn 0.0 0.0 -1.0
vn -0.8126119651627632 0.004968403954680092 -0.582783929974442
vn -0.7352531491351726 0.00449542316685245 -0.6777776905869377
vn 0.7352531491351726 -0.00449542316685245 0.6777776905869377
vn 0.8126119651627632 -0.004968403954680092 0.582783929974442
vn 0.9946422472091355 -0.006081358245243091 0.1031979512812833
vn -0.9946422472091355 0.006081358245243091 -0.1031979512812833
vn -0.9994857319517565 0.0061109718736184135 -0.03147900328189339
vn 0.9994857319517565 -0.0061109718736184135 0.03147900328189339
vn -0.9407183746012685 0.005751661423878999 -0.33913987981128413
vn -0.8998784788354397 0.005501961556869257 -0.4361060097589136
vn 0.8998784788354397 -0.005501961556869257 0.4361060097589136
vn 0.9407183746012685 -0.005751661423878999 0.33913987981128413
vn -0.553278945695694 0.0033828117474065497 -0.832989174500211
vn 0.553278945695694 -0.0033828117474065497 0.832989174500211
vn 0.9694450461720657 -0.005927299630988781 0.2452369661603362
vn -0.9694450461720657 0.005927299630988781 -0.2452369661603362
vn -0.988474002430433 0.006043644880112168 -0.15127002636253953
vn 0.988474002430433 -0.006043644880112168 0.15127002636253953
vn -0.45211170960083896 0.002764263513506185 -0.8919570398225659
vn 0.45211170960083896 -0.002764263513506185 0.8919570398225659
vn 0.9448571440905978 -0.005776966341330189 0.32743183095241457
vn -0.9448571440905978 0.005776966341330189 -0.32743183095241457
vn 0.8319008001662965 -0.00508633813264107 0.5549010613137045
vn -0.8319008001662965 0.00508633813264107 -0.5549010613137045
vn -0.3015334037953306 0.0018436102593995124 -0.9534538308155323
vn 0.3015334037953306 -0.0018436102593995124 0.9534538308155323
vn 0.6236744507088893 -0.003813218042776822 0.7816748933547266
vn -0.6236744507088893 0.003813218042776822 -0.7816748933547266
vn -0.1661029294722865 0.0010155726066730492 -0.9861078974600117
vn -0.10844305479725953 0.000663033434665679 -0.994102441528489
vn 0.1661029294722865 -0.0010155726066730492 0.9861078974600117
vn 0.10844305479725953 -0.000663033434665679 0.994102441528489
vn 0.40435130627226773 -0.002472250859314881 0.9146004095186046
vn -0.40435130627226773 0.002472250859314881 -0.9146004095186046
vn 0.022034599367140164 -0.00013472210025059476 -0.9997571996643412
vn -0.022034599367140164 0.00013472210025059476 0.9997571996643412
vn 0.211761024881822 -0.0012947315060260266 0.9773206188407814
vn -0.211761024881822 0.0012947315060260266 -0.9773206188407814
vn 0.18220772995997758 -0.0011140392277205887 -0.9832594276483856
vn -0.18220772995997758 0.0011140392277205887 0.9832594276483856
vn 0.060929878749025126 -0.0003725323567863049 0.998141979427412
vn -0.022402588675789575 0.00013697202963233545 0.9997490211344479
vn -0.060929878749025126 0.0003725323567863049 -0.998141979427412
vn 0.022402588675789575 -0.00013697202963233545 -0.9997490211344479
vn 0.2686141875470176 -0.001642338347091 -0.9632464487207878
vn -0.2686141875470176 0.001642338347091 0.9632464487207878
vn -0.23329967313983568 0.001426421303581671 0.9724038398911795
vn 0.23329967313983568 -0.001426421303581671 -0.9724038398911795
vn -0.49817301414299864 0.003045887680336109 0.8670722983396012
vn 0.49817301414299864 -0.003045887680336109 -0.8670722983396012
vn 0.4046947725105847 -0.0024743508517958085 -0.9144484778764019
vn -0.4046947725105847 0.0024743508517958085 0.9144484778764019
vn -0.6270954568529052 0.0038341344717534856 0.7789329800485395
vn 0.6270954568529052 -0.0038341344717534856 -0.7789329800485395
vn 0.5444019259400046 -0.0033285366173927966 -0.8388178967313469
vn -0.5444019259400046 0.0033285366173927966 0.8388178967313469
vn -0.9270908111521081 0.00566834091786122 0.37479394043736214
vn -0.8566502626420616 0.005237659221318578 0.5158710056217239
vn 0.8566502626420616 -0.005237659221318578 -0.5158710056217239
vn 0.9270908111521081 -0.00566834091786122 -0.37479394043736214
vn 0.6776923928427927 -0.00414349001615099 -0.7353338372287077
vn -0.6776923928427927 0.00414349001615099 0.7353338372287077
vn -0.9902129955163219 0.006054277285855001 0.13943302778444802
vn 0.9902129955163219 -0.006054277285855001 -0.13943302778444802
vn -0.9996241931664153 0.006111818441569629 0.026722988450597458
vn 0.9996241931664153 -0.006111818441569629 -0.026722988450597458
vn 0.7961387514289818 -0.004867684812248048 -0.6050945332075565
vn -0.7961387514289818 0.004867684812248048 0.6050945332075565
vn 0.9332374488391199 -0.00570592217472349 -0.3592148473217481
vn 0.8884543556514602 -0.0054321131406025 -0.4589328383007434
vn -0.8884543556514602 0.0054321131406025 0.4589328383007434
vn -0.9332374488391199 0.00570592217472349 0.3592148473217481
vn 0.9867957813339293 -0.006033384041372209 -0.16185698693157977
vn -0.9867957813339293 0.006033384041372209 0.16185698693157977
vn 0.9994187962405908 -0.006110562620904545 -0.03353700561267011
vn -0.9994187962405908 0.006110562620904545 0.03353700561267011
usemtl material_0_0
f 1//1 2//1 3//1
f 2//1 1//1 4//1
f 3//2 2//2 1//2
f 4//2 1//2 2//2
f 2//3 5//4 3//4
f 3//5 5//5 2//6
f 5//7 1//7 3//7
f 3//8 1//8 5//8
f 4//1 1//1 6//1
f 6//2 1//2 4//2
f 4//1 7//1 2//1
f 2//2 7//2 4//2
f 5//4 2//3 8//3
f 8//6 2//6 5//5
f 1//7 5//7 9//7
f 9//8 5//8 1//8
f 6//1 1//1 10//1
f 10//2 1//2 6//2
f 6//9 11//10 4//10
f 4//11 11//11 6//12
f 4//1 12//1 7//1
f 7//2 12//2 4//2
f 7//13 8//3 2//3
f 2//6 8//6 7//14
f 8//2 11//2 5//2
f 5//1 11//1 8//1
f 5//2 11//2 9//2
f 9//1 11//1 5//1
f 13//15 1//5 9//5
f 9//4 1//4 13//16
f 10//1 1//1 14//1
f 14//2 1//2 10//2
f 10//17 15//18 6//18
f 6//19 15//19 10//20
f 11//10 6//9 15//9
f 15//12 6//12 11//11
f 11//10 16//21 4//10
f 4//11 16//22 11//11
f 16//1 12//1 4//1
f 4//2 12//2 16//2
f 12//23 17//13 7//13
f 7//14 17//14 12//24
f 8//3 7//13 17//13
f 17//14 7//14 8//6
f 17//2 11//2 8//2
f 8//1 11//1 17//1
f 9//2 11//2 15//2
f 15//1 11//1 9//1
f 1//5 13//15 18//15
f 18//16 13//16 1//4
f 9//2 19//2 13//2
f 13//1 19//1 9//1
f 14//1 1//1 18//1
f 18//2 1//2 14//2
f 14//25 20//17 10//17
f 10//20 20//20 14//26
f 15//18 10//17 20//17
f 20//20 10//20 15//19
f 16//21 11//10 21//21
f 21//22 11//11 16//22
f 16//1 22//1 12//1
f 12//2 22//2 16//2
f 17//13 12//23 23//23
f 23//24 12//24 17//14
f 23//2 11//2 17//2
f 17//1 11//1 23//1
f 9//2 15//2 20//2
f 20//1 15//1 9//1
f 19//25 18//15 13//15
f 13//16 18//16 19//26
f 9//2 20//2 19//2
f 19//1 20//1 9//1
f 18//15 19//25 14//25
f 14//26 19//26 18//16
f 20//17 14//25 19//25
f 19//26 14//26 20//20
f 23//2 21//2 11//2
f 11//1 21//1 23//1
f 21//21 24//27 16//21
f 16//22 24//28 21//22
f 16//1 25//1 22//1
f 22//2 25//2 16//2
f 22//29 23//23 12//23
f 12//24 23//24 22//30
f 26//2 21//2 23//2
f 23//1 21//1 26//1
f 24//27 21//21 27//27
f 27//28 21//22 24//28
f 24//1 25//1 16//1
f 16//2 25//2 24//2
f 25//31 26//31 22//31
f 22//32 26//32 25//32
f 23//23 22//29 26//29
f 26//30 22//30 23//24
f 28//2 21//2 26//2
f 26//1 21//1 28//1
f 28//2 27//2 21//2
f 21//1 27//1 28//1
f 27//33 29//33 24//33
f 24//34 29//34 27//34
f 24//1 30//1 25//1
f 25//2 30//2 24//2
f 26//31 25//31 28//31
f 28//32 25//32 26//32
f 31//2 27//2 28//2
f 28//1 27//1 31//1
f 29//33 27//33 32//33
f 32//34 27//34 29//34
f 29//1 30//1 24//1
f 24//2 30//2 29//2
f 31//35 25//35 30//35
f 30//36 25//36 31//36
f 25//35 31//35 28//35
f 28//36 31//36 25//36
f 31//2 32//2 27//2
f 27//1 32//1 31//1
f 32//37 33//38 29//37
f 29//39 33//40 32//39
f 29//1 34//1 30//1
f 30//2 34//2 29//2
f 30//41 35//41 31//41
f 31//42 35//42 30//42
f 35//2 32//2 31//2
f 31//1 32//1 35//1
f 33//38 32//37 36//38
f 36//40 32//39 33//40
f 33//1 34//1 29//1
f 29//2 34//2 33//2
f 35//41 30//41 34//41
f 34//42 30//42 35//42
f 35//2 36//2 32//2
f 32//1 36//1 35//1
f 36//38 37//43 33//38
f 33//40 37//44 36//40
f 33//1 38//1 34//1
f 34//2 38//2 33//2
f 34//45 39//45 35//45
f 35//46 39//46 34//46
f 39//2 36//2 35//2
f 35//1 36//1 39//1
f 37//43 36//38 40//43
f 40//44 36//40 37//44
f 37//1 38//1 33//1
f 33//2 38//2 37//2
f 39//45 34//45 38//45
f 38//46 34//46 39//46
f 39//2 40//2 36//2
f 36//1 40//1 39//1
f 40//43 41//47 37//43
f 37//44 41//48 40//44
f 37//1 42//1 38//1
f 38//2 42//2 37//2
f 38//49 43//50 39//49
f 39//51 43//52 38//51
f 43//2 40//2 39//2
f 39//1 40//1 43//1
f 41//47 40//43 44//47
f 44//48 40//44 41//48
f 41//1 45//1 37//1
f 37//2 45//2 41//2
f 37//1 45//1 42//1
f 42//2 45//2 37//2
f 43//50 38//49 42//50
f 42//52 38//51 43//52
f 46//2 40//2 43//2
f 43//1 40//1 46//1
f 46//2 44//2 40//2
f 40//1 44//1 46//1
f 44//47 47//53 41//47
f 41//48 47//54 44//48
f 41//1 48//1 45//1
f 45//2 48//2 41//2
f 46//55 42//50 45//55
f 45//56 42//52 46//56
f 42//50 46//55 43//50
f 43//52 46//56 42//52
f 49//2 44//2 46//2
f 46//1 44//1 49//1
f 47//53 44//47 50//53
f 50//54 44//48 47//54
f 47//1 48//1 41//1
f 41//2 48//2 47//2
f 49//57 45//55 48//57
f 48//58 45//56 49//58
f 45//55 49//57 46//55
f 46//56 49//58 45//56
f 49//2 50//2 44//2
f 44//1 50//1 49//1
f 50//59 51//59 47//59
f 47//60 51//60 50//60
f 47//1 52//1 48//1
f 48//2 52//2 47//2
f 48//57 53//61 49//57
f 49//58 53//62 48//58
f 53//2 50//2 49//2
f 49//1 50//1 53//1
f 51//59 50//59 54//59
f 54//60 50//60 51//60
f 51//1 52//1 47//1
f 47//2 52//2 51//2
f 53//61 48//57 52//61
f 52//62 48//58 53//62
f 53//2 54//2 50//2
f 50//1 54//1 53//1
f 54//63 55//63 51//63
f 51//64 55//64 54//64
f 51//1 56//1 52//1
f 52//2 56//2 51//2
f 56//65 53//66 52//66
f 52//67 53//67 56//68
f 57//2 54//2 53//2
f 53//1 54//1 57//1
f 55//63 54//63 58//63
f 58//64 54//64 55//64
f 55//1 59//1 51//1
f 51//2 59//2 55//2
f 51//1 59//1 56//1
f 56//2 59//2 51//2
f 53//66 56//65 57//65
f 57//68 56//68 53//67
f 60//2 54//2 57//2
f 57//1 54//1 60//1
f 60//2 58//2 54//2
f 54//1 58//1 60//1
f 58//69 61//69 55//69
f 55//70 61//70 58//70
f 55//1 62//1 59//1
f 59//2 62//2 55//2
f 59//71 57//65 56//65
f 56//68 57//68 59//72
f 57//65 59//71 60//71
f 60//72 59//72 57//68
f 58//2 60//2 63//2
f 63//1 60//1 58//1
f 61//69 58//69 64//69
f 64//70 58//70 61//70
f 61//1 65//1 55//1
f 55//2 65//2 61//2
f 55//1 65//1 62//1
f 62//2 65//2 55//2
f 62//73 60//71 59//71
f 59//72 60//72 62//74
f 60//71 62//73 63//73
f 63//74 62//74 60//72
f 66//2 58//2 63//2
f 63//1 58//1 66//1
f 66//2 64//2 58//2
f 58//1 64//1 66//1
f 67//75 61//75 64//75
f 64//76 61//76 67//76
f 68//1 65//1 61//1
f 61//2 65//2 68//2
f 65//5 63//73 62//73
f 62//74 63//74 65//4
f 63//73 65//5 66//5
f 66//4 65//4 63//74
f 66//2 67//2 64//2
f 64//1 67//1 66//1
f 61//75 67//75 68//75
f 68//76 67//76 61//76
f 69//1 65//1 68//1
f 68//2 65//2 69//2
f 65//7 70//7 66//7
f 66//8 70//8 65//8
f 66//2 71//2 67//2
f 67//1 71//1 66//1
f 71//77 68//78 67//78
f 67//79 68//79 71//80
f 72//1 65//1 69//1
f 69//2 65//2 72//2
f 68//78 71//77 69//77
f 69//80 71//80 68//79
f 70//7 65//7 73//7
f 73//8 65//8 70//8
f 70//2 74//2 66//2
f 66//1 74//1 70//1
f 66//2 74//2 71//2
f 71//1 74//1 66//1
f 75//1 65//1 72//1
f 72//2 65//2 75//2
f 69//77 74//81 72//81
f 72//82 74//82 69//80
f 74//81 69//77 71//77
f 71//80 69//80 74//82
f 65//1 75//1 73//1
f 73//2 75//2 65//2
f 75//83 70//4 73//4
f 73//5 70//5 75//84
f 74//2 70//2 76//2
f 76//1 70//1 74//1
f 72//81 76//83 75//83
f 75//84 76//84 72//82
f 76//83 72//81 74//81
f 74//82 72//82 76//84
f 70//4 75//83 76//83
f 76//84 75//84 70//5
