# SSTK version 0.8.0
# 10
mtllib original-10.mtl
o SolidDoor2/SolidDoor/mesh10/mesh10-geometry#mesh10-geometry
v -0.014760 -0.432017 0.223778
v -0.014760 0.411901 0.243068
v -0.014760 -0.432017 0.243068
v -0.014760 0.411901 0.223778
v -0.858678 -0.432017 0.243068
v -0.858678 0.411901 0.223778
v -0.858678 0.411901 0.243068
v -0.858678 -0.432017 0.223778
vt 0.005249 0
vt 0 0.574147
vt 0 0
vt 0.005249 0.574147
vt 0.2204 -0.550999
vt 0 -0.550999
vt -0.229659 0.013123
vt -0.229659 0
vt -1 -3.218206
vt -0.616227 -4.177637
vt -0.616228 -3.218206
vt 0 0.013123
vt 0.229659 0
vt 0.229659 0.013123
vt 0.2204 0
vt -1 -4.177637
vt -0.005249 0.574147
vt -0.005249 0
vn 1 0 0
vn 0 0 1
vn 0 -1 0
vn 0 0 -1
vn 0 1 0
vn -1 0 0
usemtl material_0_0
f 1/1/1 2/2/1 3/3/1
f 2/2/1 1/1/1 4/4/1
f 2/5/2 5/3/2 3/6/2
f 5/3/3 1/7/3 3/8/3
f 1/9/4 6/10/4 4/11/4
f 6/12/5 2/13/5 4/14/5
f 5/3/2 2/5/2 7/15/2
f 1/7/3 5/3/3 8/12/3
f 6/10/4 1/9/4 8/16/4
f 2/13/5 6/12/5 7/3/5
f 6/17/6 5/3/6 7/2/6
f 5/3/6 6/17/6 8/18/6
usemtl material_1_0
f 3//6 2//6 1//6
f 4//6 1//6 2//6
f 3//4 5//4 2//4
f 3//5 1//5 5//5
f 4//2 6//2 1//2
f 4//3 2//3 6//3
f 7//4 2//4 5//4
f 8//5 5//5 1//5
f 8//2 1//2 6//2
f 7//3 6//3 2//3
f 7//1 5//1 6//1
f 8//1 6//1 5//1
