# SSTK version 0.8.0
# 61
mtllib original-61.mtl
o mesh98/mesh98-geometry/material_0/component_2#mesh98-geometry
v 0.628747 -0.033347 0.035007
v 0.618694 -0.032310 0.035007
v 0.610816 -0.108674 0.035007
v 0.610816 -0.108674 0.035007
v 0.601373 -0.105070 0.035007
v 0.573999 -0.176792 0.035007
v 0.618694 -0.032310 0.035007
v 0.628747 -0.033347 0.035007
v 0.626572 0.044053 0.035007
v 0.610816 -0.108674 0.035007
v 0.618694 -0.032310 0.035007
v 0.601373 -0.105070 0.035007
v 0.573999 -0.176792 0.035007
v 0.601373 -0.105070 0.035007
v 0.565812 -0.170867 0.035007
v 0.573999 -0.176792 0.035007
v 0.565812 -0.170867 0.035007
v 0.520807 -0.233061 0.035007
v 0.520807 -0.233061 0.035007
v 0.514432 -0.225219 0.035007
v 0.454864 -0.273645 0.035007
v 0.626572 0.044053 0.035007
v 0.616592 0.042453 0.035007
v 0.618694 -0.032310 0.035007
v 0.520807 -0.233061 0.035007
v 0.565812 -0.170867 0.035007
v 0.514432 -0.225219 0.035007
v 0.616592 0.042453 0.035007
v 0.626572 0.044053 0.035007
v 0.604437 0.118253 0.035007
v 0.454864 -0.273645 0.035007
v 0.514432 -0.225219 0.035007
v 0.450736 -0.264420 0.035007
v 0.454864 -0.273645 0.035007
v 0.450736 -0.264420 0.035007
v 0.380664 -0.295779 0.035007
v 0.380664 -0.295779 0.035007
v 0.379064 -0.285800 0.035007
v 0.303264 -0.297955 0.035007
v 0.616592 0.042453 0.035007
v 0.604437 0.118253 0.035007
v 0.595212 0.114125 0.035007
v 0.380664 -0.295779 0.035007
v 0.450736 -0.264420 0.035007
v 0.379064 -0.285800 0.035007
v 0.303264 -0.297955 0.035007
v 0.379064 -0.285800 0.035007
v 0.304301 -0.287901 0.035007
v 0.303264 -0.297955 0.035007
v 0.231541 -0.270581 0.035007
v 0.227937 -0.280024 0.035007
v 0.227937 -0.280024 0.035007
v 0.165744 -0.235019 0.035007
v 0.159819 -0.243207 0.035007
v 0.159819 -0.243207 0.035007
v 0.111392 -0.183640 0.035007
v 0.103550 -0.190015 0.035007
v 0.103550 -0.190015 0.035007
v 0.072191 -0.119944 0.035007
v 0.062966 -0.124072 0.035007
v 0.062966 -0.124072 0.035007
v 0.050811 -0.048272 0.035007
v 0.040832 -0.049872 0.035007
v 0.595212 0.114125 0.035007
v 0.604437 0.118253 0.035007
v 0.563853 0.184196 0.035007
v 0.303264 -0.297955 0.035007
v 0.304301 -0.287901 0.035007
v 0.231541 -0.270581 0.035007
v 0.227937 -0.280024 0.035007
v 0.231541 -0.270581 0.035007
v 0.165744 -0.235019 0.035007
v 0.159819 -0.243207 0.035007
v 0.165744 -0.235019 0.035007
v 0.111392 -0.183640 0.035007
v 0.103550 -0.190015 0.035007
v 0.111392 -0.183640 0.035007
v 0.072191 -0.119944 0.035007
v 0.062966 -0.124072 0.035007
v 0.072191 -0.119944 0.035007
v 0.050811 -0.048272 0.035007
v 0.040832 -0.049872 0.035007
v 0.050811 -0.048272 0.035007
v 0.048710 0.026491 0.035007
v 0.048710 0.026491 0.035007
v 0.038656 0.027529 0.035007
v 0.040832 -0.049872 0.035007
v 0.048710 0.026491 0.035007
v 0.056587 0.102855 0.035007
v 0.038656 0.027529 0.035007
v 0.556011 0.177821 0.035007
v 0.563853 0.184196 0.035007
v 0.507584 0.237388 0.035007
v 0.501660 0.229201 0.035007
v 0.507584 0.237388 0.035007
v 0.439466 0.274205 0.035007
v 0.435862 0.264762 0.035007
v 0.439466 0.274205 0.035007
v 0.364140 0.292136 0.035007
v 0.595212 0.114125 0.035007
v 0.563853 0.184196 0.035007
v 0.556011 0.177821 0.035007
v 0.066030 0.099251 0.035007
v 0.056587 0.102855 0.035007
v 0.048710 0.026491 0.035007
v 0.363102 0.282083 0.035007
v 0.364140 0.292136 0.035007
v 0.286739 0.289961 0.035007
v 0.216667 0.258601 0.035007
v 0.286739 0.289961 0.035007
v 0.212539 0.267827 0.035007
v 0.556011 0.177821 0.035007
v 0.507584 0.237388 0.035007
v 0.501660 0.229201 0.035007
v 0.501660 0.229201 0.035007
v 0.439466 0.274205 0.035007
v 0.435862 0.264762 0.035007
v 0.435862 0.264762 0.035007
v 0.364140 0.292136 0.035007
v 0.363102 0.282083 0.035007
v 0.066030 0.099251 0.035007
v 0.093404 0.170973 0.035007
v 0.056587 0.102855 0.035007
v 0.152971 0.219400 0.035007
v 0.212539 0.267827 0.035007
v 0.146596 0.227242 0.035007
v 0.363102 0.282083 0.035007
v 0.286739 0.289961 0.035007
v 0.288339 0.279981 0.035007
v 0.288339 0.279981 0.035007
v 0.286739 0.289961 0.035007
v 0.216667 0.258601 0.035007
v 0.216667 0.258601 0.035007
v 0.212539 0.267827 0.035007
v 0.152971 0.219400 0.035007
v 0.101592 0.165049 0.035007
v 0.093404 0.170973 0.035007
v 0.066030 0.099251 0.035007
v 0.101592 0.165049 0.035007
v 0.146596 0.227242 0.035007
v 0.093404 0.170973 0.035007
v 0.152971 0.219400 0.035007
v 0.146596 0.227242 0.035007
v 0.101592 0.165049 0.035007
v 0.610816 -0.108674 0.035007
v 0.618694 -0.032310 0.035007
v 0.628747 -0.033347 0.035007
v 0.573999 -0.176792 0.035007
v 0.601373 -0.105070 0.035007
v 0.610816 -0.108674 0.035007
v 0.626572 0.044053 0.035007
v 0.628747 -0.033347 0.035007
v 0.618694 -0.032310 0.035007
v 0.601373 -0.105070 0.035007
v 0.618694 -0.032310 0.035007
v 0.610816 -0.108674 0.035007
v 0.565812 -0.170867 0.035007
v 0.601373 -0.105070 0.035007
v 0.573999 -0.176792 0.035007
v 0.520807 -0.233061 0.035007
v 0.565812 -0.170867 0.035007
v 0.573999 -0.176792 0.035007
v 0.454864 -0.273645 0.035007
v 0.514432 -0.225219 0.035007
v 0.520807 -0.233061 0.035007
v 0.618694 -0.032310 0.035007
v 0.616592 0.042453 0.035007
v 0.626572 0.044053 0.035007
v 0.514432 -0.225219 0.035007
v 0.565812 -0.170867 0.035007
v 0.520807 -0.233061 0.035007
v 0.604437 0.118253 0.035007
v 0.626572 0.044053 0.035007
v 0.616592 0.042453 0.035007
v 0.450736 -0.264420 0.035007
v 0.514432 -0.225219 0.035007
v 0.454864 -0.273645 0.035007
v 0.380664 -0.295779 0.035007
v 0.450736 -0.264420 0.035007
v 0.454864 -0.273645 0.035007
v 0.303264 -0.297955 0.035007
v 0.379064 -0.285800 0.035007
v 0.380664 -0.295779 0.035007
v 0.595212 0.114125 0.035007
v 0.604437 0.118253 0.035007
v 0.616592 0.042453 0.035007
v 0.379064 -0.285800 0.035007
v 0.450736 -0.264420 0.035007
v 0.380664 -0.295779 0.035007
v 0.304301 -0.287901 0.035007
v 0.379064 -0.285800 0.035007
v 0.303264 -0.297955 0.035007
v 0.227937 -0.280024 0.035007
v 0.231541 -0.270581 0.035007
v 0.303264 -0.297955 0.035007
v 0.159819 -0.243207 0.035007
v 0.165744 -0.235019 0.035007
v 0.227937 -0.280024 0.035007
v 0.103550 -0.190015 0.035007
v 0.111392 -0.183640 0.035007
v 0.159819 -0.243207 0.035007
v 0.062966 -0.124072 0.035007
v 0.072191 -0.119944 0.035007
v 0.103550 -0.190015 0.035007
v 0.040832 -0.049872 0.035007
v 0.050811 -0.048272 0.035007
v 0.062966 -0.124072 0.035007
v 0.563853 0.184196 0.035007
v 0.604437 0.118253 0.035007
v 0.595212 0.114125 0.035007
v 0.231541 -0.270581 0.035007
v 0.304301 -0.287901 0.035007
v 0.303264 -0.297955 0.035007
v 0.165744 -0.235019 0.035007
v 0.231541 -0.270581 0.035007
v 0.227937 -0.280024 0.035007
v 0.111392 -0.183640 0.035007
v 0.165744 -0.235019 0.035007
v 0.159819 -0.243207 0.035007
v 0.072191 -0.119944 0.035007
v 0.111392 -0.183640 0.035007
v 0.103550 -0.190015 0.035007
v 0.050811 -0.048272 0.035007
v 0.072191 -0.119944 0.035007
v 0.062966 -0.124072 0.035007
v 0.048710 0.026491 0.035007
v 0.050811 -0.048272 0.035007
v 0.040832 -0.049872 0.035007
v 0.040832 -0.049872 0.035007
v 0.038656 0.027529 0.035007
v 0.048710 0.026491 0.035007
v 0.038656 0.027529 0.035007
v 0.056587 0.102855 0.035007
v 0.048710 0.026491 0.035007
v 0.507584 0.237388 0.035007
v 0.563853 0.184196 0.035007
v 0.556011 0.177821 0.035007
v 0.439466 0.274205 0.035007
v 0.507584 0.237388 0.035007
v 0.501660 0.229201 0.035007
v 0.364140 0.292136 0.035007
v 0.439466 0.274205 0.035007
v 0.435862 0.264762 0.035007
v 0.556011 0.177821 0.035007
v 0.563853 0.184196 0.035007
v 0.595212 0.114125 0.035007
v 0.048710 0.026491 0.035007
v 0.056587 0.102855 0.035007
v 0.066030 0.099251 0.035007
v 0.286739 0.289961 0.035007
v 0.364140 0.292136 0.035007
v 0.363102 0.282083 0.035007
v 0.212539 0.267827 0.035007
v 0.286739 0.289961 0.035007
v 0.216667 0.258601 0.035007
v 0.501660 0.229201 0.035007
v 0.507584 0.237388 0.035007
v 0.556011 0.177821 0.035007
v 0.435862 0.264762 0.035007
v 0.439466 0.274205 0.035007
v 0.501660 0.229201 0.035007
v 0.363102 0.282083 0.035007
v 0.364140 0.292136 0.035007
v 0.435862 0.264762 0.035007
v 0.056587 0.102855 0.035007
v 0.093404 0.170973 0.035007
v 0.066030 0.099251 0.035007
v 0.146596 0.227242 0.035007
v 0.212539 0.267827 0.035007
v 0.152971 0.219400 0.035007
v 0.288339 0.279981 0.035007
v 0.286739 0.289961 0.035007
v 0.363102 0.282083 0.035007
v 0.216667 0.258601 0.035007
v 0.286739 0.289961 0.035007
v 0.288339 0.279981 0.035007
v 0.152971 0.219400 0.035007
v 0.212539 0.267827 0.035007
v 0.216667 0.258601 0.035007
v 0.066030 0.099251 0.035007
v 0.093404 0.170973 0.035007
v 0.101592 0.165049 0.035007
v 0.093404 0.170973 0.035007
v 0.146596 0.227242 0.035007
v 0.101592 0.165049 0.035007
v 0.101592 0.165049 0.035007
v 0.146596 0.227242 0.035007
v 0.152971 0.219400 0.035007
vt 0 0
vn 0 0 1
vn 0 0 -1
usemtl material_0_0
f 1/1/1 2/1/1 3/1/1
f 4/1/1 5/1/1 6/1/1
f 7/1/1 8/1/1 9/1/1
f 10/1/1 11/1/1 12/1/1
f 13/1/1 14/1/1 15/1/1
f 16/1/1 17/1/1 18/1/1
f 19/1/1 20/1/1 21/1/1
f 22/1/1 23/1/1 24/1/1
f 25/1/1 26/1/1 27/1/1
f 28/1/1 29/1/1 30/1/1
f 31/1/1 32/1/1 33/1/1
f 34/1/1 35/1/1 36/1/1
f 37/1/1 38/1/1 39/1/1
f 40/1/1 41/1/1 42/1/1
f 43/1/1 44/1/1 45/1/1
f 46/1/1 47/1/1 48/1/1
f 49/1/1 50/1/1 51/1/1
f 52/1/1 53/1/1 54/1/1
f 55/1/1 56/1/1 57/1/1
f 58/1/1 59/1/1 60/1/1
f 61/1/1 62/1/1 63/1/1
f 64/1/1 65/1/1 66/1/1
f 67/1/1 68/1/1 69/1/1
f 70/1/1 71/1/1 72/1/1
f 73/1/1 74/1/1 75/1/1
f 76/1/1 77/1/1 78/1/1
f 79/1/1 80/1/1 81/1/1
f 82/1/1 83/1/1 84/1/1
f 85/1/1 86/1/1 87/1/1
f 88/1/1 89/1/1 90/1/1
f 91/1/1 92/1/1 93/1/1
f 94/1/1 95/1/1 96/1/1
f 97/1/1 98/1/1 99/1/1
f 100/1/1 101/1/1 102/1/1
f 103/1/1 104/1/1 105/1/1
f 106/1/1 107/1/1 108/1/1
f 109/1/1 110/1/1 111/1/1
f 112/1/1 113/1/1 114/1/1
f 115/1/1 116/1/1 117/1/1
f 118/1/1 119/1/1 120/1/1
f 121/1/1 122/1/1 123/1/1
f 124/1/1 125/1/1 126/1/1
f 127/1/1 128/1/1 129/1/1
f 130/1/1 131/1/1 132/1/1
f 133/1/1 134/1/1 135/1/1
f 136/1/1 137/1/1 138/1/1
f 139/1/1 140/1/1 141/1/1
f 142/1/1 143/1/1 144/1/1
usemtl material_1_0
f 145/1/2 146/1/2 147/1/2
f 148/1/2 149/1/2 150/1/2
f 151/1/2 152/1/2 153/1/2
f 154/1/2 155/1/2 156/1/2
f 157/1/2 158/1/2 159/1/2
f 160/1/2 161/1/2 162/1/2
f 163/1/2 164/1/2 165/1/2
f 166/1/2 167/1/2 168/1/2
f 169/1/2 170/1/2 171/1/2
f 172/1/2 173/1/2 174/1/2
f 175/1/2 176/1/2 177/1/2
f 178/1/2 179/1/2 180/1/2
f 181/1/2 182/1/2 183/1/2
f 184/1/2 185/1/2 186/1/2
f 187/1/2 188/1/2 189/1/2
f 190/1/2 191/1/2 192/1/2
f 193/1/2 194/1/2 195/1/2
f 196/1/2 197/1/2 198/1/2
f 199/1/2 200/1/2 201/1/2
f 202/1/2 203/1/2 204/1/2
f 205/1/2 206/1/2 207/1/2
f 208/1/2 209/1/2 210/1/2
f 211/1/2 212/1/2 213/1/2
f 214/1/2 215/1/2 216/1/2
f 217/1/2 218/1/2 219/1/2
f 220/1/2 221/1/2 222/1/2
f 223/1/2 224/1/2 225/1/2
f 226/1/2 227/1/2 228/1/2
f 229/1/2 230/1/2 231/1/2
f 232/1/2 233/1/2 234/1/2
f 235/1/2 236/1/2 237/1/2
f 238/1/2 239/1/2 240/1/2
f 241/1/2 242/1/2 243/1/2
f 244/1/2 245/1/2 246/1/2
f 247/1/2 248/1/2 249/1/2
f 250/1/2 251/1/2 252/1/2
f 253/1/2 254/1/2 255/1/2
f 256/1/2 257/1/2 258/1/2
f 259/1/2 260/1/2 261/1/2
f 262/1/2 263/1/2 264/1/2
f 265/1/2 266/1/2 267/1/2
f 268/1/2 269/1/2 270/1/2
f 271/1/2 272/1/2 273/1/2
f 274/1/2 275/1/2 276/1/2
f 277/1/2 278/1/2 279/1/2
f 280/1/2 281/1/2 282/1/2
f 283/1/2 284/1/2 285/1/2
f 286/1/2 287/1/2 288/1/2
