# SSTK version 0.8.0
# 126
mtllib original-126.mtl
o #ID651
v -0.045165 0.247790 0.680471
v -0.045195 0.246288 0.680471
v -0.045195 0.246395 0.680471
v -0.043865 0.253491 0.680471
v -0.046531 0.253206 0.680471
v -0.046531 0.253557 0.680471
v -0.045890 0.253064 0.680471
v -0.045341 0.252912 0.680471
v -0.045231 0.252796 0.680471
v -0.045171 0.251891 0.680471
v -0.045159 0.249376 0.680471
v -0.044001 0.252921 0.680471
v -0.044043 0.251009 0.680471
v -0.044061 0.249839 0.680471
v -0.041602 0.252921 0.680471
v -0.039826 0.253557 0.680471
v -0.040735 0.252844 0.680471
v -0.040486 0.252601 0.680471
v -0.040100 0.251526 0.680471
v -0.039684 0.251526 0.680471
v -0.042624 0.249839 0.680471
v -0.044055 0.249281 0.680471
v -0.042428 0.249281 0.680471
v -0.041644 0.249884 0.680471
v -0.041543 0.249218 0.680471
v -0.041403 0.250065 0.680471
v -0.041335 0.249014 0.680471
v -0.041174 0.250855 0.680471
v -0.041121 0.248051 0.680471
v -0.041121 0.251056 0.680471
v -0.040729 0.251056 0.680471
v -0.040794 0.249548 0.680471
v -0.040729 0.248051 0.680471
v -0.045569 0.245688 0.680471
v -0.046531 0.245130 0.680471
v -0.046531 0.245480 0.680471
v -0.043776 0.245195 0.680471
v -0.045284 0.245818 0.680471
v -0.045217 0.245992 0.680471
v -0.044025 0.245789 0.680471
v -0.041537 0.245789 0.680471
v -0.039826 0.245130 0.680471
v -0.041317 0.245795 0.680471
v -0.040676 0.245836 0.680471
v -0.040278 0.246095 0.680471
v -0.039642 0.247119 0.680471
v -0.039090 0.247363 0.680471
v -0.039500 0.247363 0.680471
vn 0 0 -1
vn 0 0 1
usemtl material_0_2
f 1//1 2//1 3//1
f 3//2 2//2 1//2
f 4//1 5//1 6//1
f 6//2 5//2 4//2
f 5//1 4//1 7//1
f 7//2 4//2 5//2
f 7//1 4//1 8//1
f 8//2 4//2 7//2
f 8//1 4//1 9//1
f 9//2 4//2 8//2
f 9//1 4//1 10//1
f 10//2 4//2 9//2
f 10//1 4//1 11//1
f 11//2 4//2 10//2
f 11//1 4//1 12//1
f 12//2 4//2 11//2
f 11//1 12//1 13//1
f 13//2 12//2 11//2
f 11//1 13//1 14//1
f 14//2 13//2 11//2
f 12//1 4//1 15//1
f 15//2 4//2 12//2
f 15//1 4//1 16//1
f 16//2 4//2 15//2
f 15//1 16//1 17//1
f 17//2 16//2 15//2
f 17//1 16//1 18//1
f 18//2 16//2 17//2
f 18//1 16//1 19//1
f 19//2 16//2 18//2
f 19//1 16//1 20//1
f 20//2 16//2 19//2
f 21//1 22//1 14//1
f 14//2 22//2 21//2
f 22//1 21//1 23//1
f 23//2 21//2 22//2
f 23//1 21//1 24//1
f 24//2 21//2 23//2
f 23//1 24//1 25//1
f 25//2 24//2 23//2
f 25//1 24//1 26//1
f 26//2 24//2 25//2
f 25//1 26//1 27//1
f 27//2 26//2 25//2
f 27//1 26//1 28//1
f 28//2 26//2 27//2
f 27//1 28//1 29//1
f 29//2 28//2 27//2
f 29//1 28//1 30//1
f 30//2 28//2 29//2
f 29//1 30//1 31//1
f 31//2 30//2 29//2
f 29//1 31//1 32//1
f 32//2 31//2 29//2
f 33//1 29//1 32//1
f 32//2 29//2 33//2
f 34//1 35//1 36//1
f 36//2 35//2 34//2
f 35//1 34//1 37//1
f 37//2 34//2 35//2
f 37//1 34//1 38//1
f 38//2 34//2 37//2
f 37//1 38//1 39//1
f 39//2 38//2 37//2
f 37//1 39//1 2//1
f 2//2 39//2 37//2
f 37//1 2//1 1//1
f 1//2 2//2 37//2
f 37//1 1//1 40//1
f 40//2 1//2 37//2
f 40//1 1//1 11//1
f 11//2 1//2 40//2
f 40//1 11//1 14//1
f 14//2 11//2 40//2
f 40//1 14//1 22//1
f 22//2 14//2 40//2
f 37//1 40//1 41//1
f 41//2 40//2 37//2
f 37//1 41//1 42//1
f 42//2 41//2 37//2
f 42//1 41//1 43//1
f 43//2 41//2 42//2
f 42//1 43//1 44//1
f 44//2 43//2 42//2
f 42//1 44//1 45//1
f 45//2 44//2 42//2
f 42//1 45//1 46//1
f 46//2 45//2 42//2
f 42//1 46//1 47//1
f 47//2 46//2 42//2
f 47//1 46//1 48//1
f 48//2 46//2 47//2
