# SSTK version 0.8.0
# 188
mtllib original-188.mtl
o #ID800
v -0.012564 0.232605 0.680341
v -0.012262 0.229699 0.680341
v -0.012184 0.232389 0.680341
v -0.012410 0.230250 0.680341
v -0.012684 0.231025 0.680341
v -0.012857 0.232677 0.680341
v -0.012995 0.231913 0.680341
v -0.013038 0.232614 0.680341
v -0.013098 0.232424 0.680341
v -0.013234 0.229110 0.680341
v -0.013255 0.228676 0.680341
v -0.013187 0.228825 0.680341
v -0.013377 0.229568 0.680341
v -0.013461 0.228626 0.680341
v -0.013635 0.230261 0.680341
v -0.013783 0.228702 0.680341
v -0.011180 0.229412 0.680341
v -0.011124 0.228821 0.680341
v -0.011100 0.228972 0.680341
v -0.011195 0.228713 0.680341
v -0.011531 0.230493 0.680341
v -0.011314 0.228648 0.680341
v -0.011480 0.228626 0.680341
v -0.011709 0.228652 0.680341
v -0.011818 0.231359 0.680341
v -0.011948 0.228729 0.680341
v -0.011860 0.231553 0.680341
v -0.011715 0.232028 0.680341
v -0.011341 0.231317 0.680341
v -0.011159 0.231524 0.680341
v -0.011793 0.231629 0.680341
v -0.011844 0.231610 0.680341
v -0.012289 0.229598 0.680341
v -0.012460 0.229039 0.680341
v -0.012372 0.229564 0.680341
v -0.012538 0.229631 0.680341
v -0.013017 0.229555 0.680341
v -0.012792 0.229832 0.680341
v -0.013366 0.230476 0.680341
v -0.013618 0.230278 0.680341
v -0.013609 0.230852 0.680341
v -0.013785 0.231226 0.680341
v -0.014209 0.228928 0.680341
v -0.014179 0.232504 0.680341
v -0.014344 0.229648 0.680341
v -0.014581 0.230546 0.680341
v -0.015261 0.232626 0.680341
v -0.014364 0.229569 0.680341
v -0.014681 0.229272 0.680341
v -0.014424 0.229543 0.680341
v -0.014603 0.229631 0.680341
v -0.014961 0.229898 0.680341
v -0.015143 0.229699 0.680341
v -0.015143 0.229699 0.680341
v -0.014961 0.229898 0.680341
v -0.014681 0.229272 0.680341
v -0.014603 0.229631 0.680341
v -0.014424 0.229543 0.680341
v -0.014364 0.229569 0.680341
v -0.014344 0.229648 0.680341
v -0.014209 0.228928 0.680341
v -0.015261 0.232626 0.680341
v -0.014179 0.232504 0.680341
v -0.014581 0.230546 0.680341
v -0.013785 0.231226 0.680341
v -0.013783 0.228702 0.680341
v -0.013635 0.230261 0.680341
v -0.013618 0.230278 0.680341
v -0.013609 0.230852 0.680341
v -0.013366 0.230476 0.680341
v -0.013017 0.229555 0.680341
v -0.012792 0.229832 0.680341
v -0.012538 0.229631 0.680341
v -0.012460 0.229039 0.680341
v -0.012372 0.229564 0.680341
v -0.012289 0.229598 0.680341
v -0.011948 0.228729 0.680341
v -0.012262 0.229699 0.680341
v -0.012184 0.232389 0.680341
v -0.011860 0.231553 0.680341
v -0.011844 0.231610 0.680341
v -0.011793 0.231629 0.680341
v -0.011715 0.232028 0.680341
v -0.011341 0.231317 0.680341
v -0.011159 0.231524 0.680341
v -0.011818 0.231359 0.680341
v -0.011709 0.228652 0.680341
v -0.011531 0.230493 0.680341
v -0.011480 0.228626 0.680341
v -0.011314 0.228648 0.680341
v -0.011195 0.228713 0.680341
v -0.011180 0.229412 0.680341
v -0.011124 0.228821 0.680341
v -0.011100 0.228972 0.680341
v -0.013461 0.228626 0.680341
v -0.013377 0.229568 0.680341
v -0.013255 0.228676 0.680341
v -0.013234 0.229110 0.680341
v -0.013187 0.228825 0.680341
v -0.013098 0.232424 0.680341
v -0.013038 0.232614 0.680341
v -0.012995 0.231913 0.680341
v -0.012857 0.232677 0.680341
v -0.012684 0.231025 0.680341
v -0.012564 0.232605 0.680341
v -0.012410 0.230250 0.680341
vn 0 0 1
vn 0 0 -1
usemtl material_0_0
f 1//1 2//1 3//1
f 2//1 1//1 4//1
f 4//1 1//1 5//1
f 5//1 1//1 6//1
f 5//1 6//1 7//1
f 7//1 6//1 8//1
f 7//1 8//1 9//1
f 10//1 11//1 12//1
f 11//1 10//1 13//1
f 11//1 13//1 14//1
f 14//1 13//1 15//1
f 14//1 15//1 16//1
f 17//1 18//1 19//1
f 18//1 17//1 20//1
f 20//1 17//1 21//1
f 20//1 21//1 22//1
f 22//1 21//1 23//1
f 23//1 21//1 24//1
f 24//1 21//1 25//1
f 24//1 25//1 26//1
f 26//1 25//1 27//1
f 28//1 29//1 30//1
f 29//1 28//1 31//1
f 31//1 28//1 3//1
f 31//1 3//1 32//1
f 32//1 3//1 27//1
f 27//1 3//1 26//1
f 26//1 3//1 2//1
f 26//1 2//1 33//1
f 26//1 33//1 34//1
f 34//1 33//1 35//1
f 34//1 35//1 36//1
f 34//1 36//1 37//1
f 37//1 36//1 38//1
f 37//1 38//1 39//1
f 37//1 39//1 40//1
f 40//1 39//1 41//1
f 40//1 41//1 42//1
f 40//1 42//1 15//1
f 15//1 42//1 16//1
f 16//1 42//1 43//1
f 43//1 42//1 44//1
f 43//1 44//1 45//1
f 45//1 44//1 46//1
f 46//1 44//1 47//1
f 43//1 48//1 49//1
f 48//1 43//1 45//1
f 49//1 48//1 50//1
f 49//1 50//1 51//1
f 49//1 51//1 52//1
f 49//1 52//1 53//1
usemtl material_1_0
f 54//2 55//2 56//2
f 55//2 57//2 56//2
f 57//2 58//2 56//2
f 58//2 59//2 56//2
f 60//2 61//2 59//2
f 56//2 59//2 61//2
f 62//2 63//2 64//2
f 64//2 63//2 60//2
f 60//2 63//2 61//2
f 63//2 65//2 61//2
f 61//2 65//2 66//2
f 66//2 65//2 67//2
f 67//2 65//2 68//2
f 65//2 69//2 68//2
f 69//2 70//2 68//2
f 68//2 70//2 71//2
f 70//2 72//2 71//2
f 72//2 73//2 71//2
f 71//2 73//2 74//2
f 73//2 75//2 74//2
f 75//2 76//2 74//2
f 74//2 76//2 77//2
f 76//2 78//2 77//2
f 78//2 79//2 77//2
f 77//2 79//2 80//2
f 80//2 79//2 81//2
f 81//2 79//2 82//2
f 79//2 83//2 82//2
f 82//2 83//2 84//2
f 85//2 84//2 83//2
f 80//2 86//2 77//2
f 77//2 86//2 87//2
f 86//2 88//2 87//2
f 87//2 88//2 89//2
f 89//2 88//2 90//2
f 90//2 88//2 91//2
f 88//2 92//2 91//2
f 91//2 92//2 93//2
f 94//2 93//2 92//2
f 66//2 67//2 95//2
f 67//2 96//2 95//2
f 95//2 96//2 97//2
f 96//2 98//2 97//2
f 99//2 97//2 98//2
f 100//2 101//2 102//2
f 101//2 103//2 102//2
f 102//2 103//2 104//2
f 103//2 105//2 104//2
f 104//2 105//2 106//2
f 106//2 105//2 78//2
f 79//2 78//2 105//2
