# SSTK version 0.8.0
# 165
mtllib original-165.mtl
o #ID944
v 0.015444 0.273717 0.680211
v 0.015383 0.272531 0.680211
v 0.015502 0.273216 0.680211
v 0.015270 0.274190 0.680211
v 0.015026 0.271923 0.680211
v 0.014980 0.274637 0.680211
v 0.014325 0.271318 0.680211
v 0.014574 0.275057 0.680211
v 0.014072 0.275413 0.680211
v 0.014113 0.273844 0.680211
v 0.014012 0.274292 0.680211
v 0.013494 0.275667 0.680211
v 0.013709 0.274686 0.680211
v 0.013234 0.274961 0.680211
v 0.012838 0.275820 0.680211
v 0.012620 0.275052 0.680211
v 0.012106 0.275870 0.680211
v 0.011895 0.274931 0.680211
v 0.010988 0.275744 0.680211
v 0.011302 0.274567 0.680211
v 0.010889 0.273994 0.680211
v 0.009785 0.275366 0.680211
v 0.010707 0.273245 0.680211
v 0.010042 0.273188 0.680211
v 0.014035 0.273440 0.680211
v 0.013152 0.270648 0.680211
v 0.013799 0.273064 0.680211
v 0.013109 0.272515 0.680211
v 0.011994 0.270001 0.680211
v 0.011915 0.271857 0.680211
v 0.011335 0.269468 0.680211
v 0.010704 0.271165 0.680211
v 0.011036 0.268971 0.680211
v 0.010936 0.268431 0.680211
v 0.010912 0.266691 0.680211
v 0.010403 0.267062 0.680211
v 0.009965 0.270516 0.680211
v 0.009995 0.267505 0.680211
v 0.009704 0.267987 0.680211
v 0.009594 0.269836 0.680211
v 0.009529 0.268509 0.680211
v 0.009471 0.269070 0.680211
v 0.015388 0.269192 0.680211
v 0.014184 0.266346 0.680211
v 0.015540 0.266738 0.680211
v 0.014731 0.269192 0.680211
v 0.014383 0.268229 0.680211
v 0.013890 0.267585 0.680211
v 0.012953 0.266215 0.680211
v 0.013258 0.267221 0.680211
v 0.012496 0.267099 0.680211
v 0.012187 0.266268 0.680211
v 0.011837 0.267193 0.680211
v 0.011507 0.266426 0.680211
v 0.011345 0.267475 0.680211
v 0.011038 0.267902 0.680211
v 0.010936 0.268431 0.680211
v 0.011038 0.267902 0.680211
v 0.010912 0.266691 0.680211
v 0.011345 0.267475 0.680211
v 0.011507 0.266426 0.680211
v 0.011837 0.267193 0.680211
v 0.012187 0.266268 0.680211
v 0.012496 0.267099 0.680211
v 0.012953 0.266215 0.680211
v 0.013258 0.267221 0.680211
v 0.013890 0.267585 0.680211
v 0.014184 0.266346 0.680211
v 0.014383 0.268229 0.680211
v 0.014731 0.269192 0.680211
v 0.015388 0.269192 0.680211
v 0.015540 0.266738 0.680211
v 0.009471 0.269070 0.680211
v 0.009594 0.269836 0.680211
v 0.009529 0.268509 0.680211
v 0.009704 0.267987 0.680211
v 0.009965 0.270516 0.680211
v 0.009995 0.267505 0.680211
v 0.010403 0.267062 0.680211
v 0.010704 0.271165 0.680211
v 0.011036 0.268971 0.680211
v 0.011335 0.269468 0.680211
v 0.011915 0.271857 0.680211
v 0.011994 0.270001 0.680211
v 0.013109 0.272515 0.680211
v 0.013152 0.270648 0.680211
v 0.013799 0.273064 0.680211
v 0.014035 0.273440 0.680211
v 0.014113 0.273844 0.680211
v 0.014325 0.271318 0.680211
v 0.010042 0.273188 0.680211
v 0.009785 0.275366 0.680211
v 0.010707 0.273245 0.680211
v 0.010889 0.273994 0.680211
v 0.010988 0.275744 0.680211
v 0.011302 0.274567 0.680211
v 0.011895 0.274931 0.680211
v 0.012106 0.275870 0.680211
v 0.012620 0.275052 0.680211
v 0.012838 0.275820 0.680211
v 0.013234 0.274961 0.680211
v 0.013494 0.275667 0.680211
v 0.013709 0.274686 0.680211
v 0.014012 0.274292 0.680211
v 0.014072 0.275413 0.680211
v 0.014574 0.275057 0.680211
v 0.014980 0.274637 0.680211
v 0.015026 0.271923 0.680211
v 0.015270 0.274190 0.680211
v 0.015383 0.272531 0.680211
v 0.015444 0.273717 0.680211
v 0.015502 0.273216 0.680211
vn 0 0 1
vn 0 0 -1
usemtl material_0_0
f 1//1 2//1 3//1
f 2//1 1//1 4//1
f 2//1 4//1 5//1
f 5//1 4//1 6//1
f 5//1 6//1 7//1
f 7//1 6//1 8//1
f 7//1 8//1 9//1
f 7//1 9//1 10//1
f 10//1 9//1 11//1
f 11//1 9//1 12//1
f 11//1 12//1 13//1
f 13//1 12//1 14//1
f 14//1 12//1 15//1
f 14//1 15//1 16//1
f 16//1 15//1 17//1
f 16//1 17//1 18//1
f 18//1 17//1 19//1
f 18//1 19//1 20//1
f 20//1 19//1 21//1
f 21//1 19//1 22//1
f 21//1 22//1 23//1
f 23//1 22//1 24//1
f 7//1 25//1 26//1
f 25//1 7//1 10//1
f 26//1 25//1 27//1
f 26//1 27//1 28//1
f 26//1 28//1 29//1
f 29//1 28//1 30//1
f 29//1 30//1 31//1
f 31//1 30//1 32//1
f 31//1 32//1 33//1
f 33//1 32//1 34//1
f 34//1 32//1 35//1
f 35//1 32//1 36//1
f 36//1 32//1 37//1
f 36//1 37//1 38//1
f 38//1 37//1 39//1
f 39//1 37//1 40//1
f 39//1 40//1 41//1
f 41//1 40//1 42//1
f 43//1 44//1 45//1
f 44//1 43//1 46//1
f 44//1 46//1 47//1
f 44//1 47//1 48//1
f 44//1 48//1 49//1
f 49//1 48//1 50//1
f 49//1 50//1 51//1
f 49//1 51//1 52//1
f 52//1 51//1 53//1
f 52//1 53//1 54//1
f 54//1 53//1 55//1
f 54//1 55//1 35//1
f 35//1 55//1 56//1
f 35//1 56//1 34//1
usemtl material_1_0
f 57//2 58//2 59//2
f 58//2 60//2 59//2
f 59//2 60//2 61//2
f 60//2 62//2 61//2
f 61//2 62//2 63//2
f 62//2 64//2 63//2
f 63//2 64//2 65//2
f 64//2 66//2 65//2
f 66//2 67//2 65//2
f 65//2 67//2 68//2
f 67//2 69//2 68//2
f 69//2 70//2 68//2
f 70//2 71//2 68//2
f 72//2 68//2 71//2
f 73//2 74//2 75//2
f 75//2 74//2 76//2
f 74//2 77//2 76//2
f 76//2 77//2 78//2
f 78//2 77//2 79//2
f 77//2 80//2 79//2
f 79//2 80//2 59//2
f 59//2 80//2 57//2
f 57//2 80//2 81//2
f 81//2 80//2 82//2
f 80//2 83//2 82//2
f 82//2 83//2 84//2
f 83//2 85//2 84//2
f 84//2 85//2 86//2
f 85//2 87//2 86//2
f 87//2 88//2 86//2
f 89//2 90//2 88//2
f 86//2 88//2 90//2
f 91//2 92//2 93//2
f 93//2 92//2 94//2
f 92//2 95//2 94//2
f 94//2 95//2 96//2
f 96//2 95//2 97//2
f 95//2 98//2 97//2
f 97//2 98//2 99//2
f 98//2 100//2 99//2
f 99//2 100//2 101//2
f 100//2 102//2 101//2
f 101//2 102//2 103//2
f 103//2 102//2 104//2
f 102//2 105//2 104//2
f 104//2 105//2 89//2
f 89//2 105//2 90//2
f 105//2 106//2 90//2
f 106//2 107//2 90//2
f 90//2 107//2 108//2
f 107//2 109//2 108//2
f 108//2 109//2 110//2
f 109//2 111//2 110//2
f 112//2 110//2 111//2
