# SSTK version 0.8.0
# 223
mtllib original-223.mtl
o #ID1142
v 0.373457 0.274586 -0.091482
v 0.373471 0.270231 -0.091481
v 0.373439 0.272397 -0.091316
v 0.373526 0.276555 -0.091979
v 0.373554 0.268293 -0.091980
v 0.373646 0.278302 -0.092807
v 0.373687 0.266582 -0.092813
v 0.373818 0.279828 -0.093966
v 0.373870 0.265100 -0.093979
v 0.374031 0.281067 -0.095392
v 0.374095 0.263903 -0.095424
v 0.374277 0.281951 -0.097022
v 0.374352 0.263048 -0.097095
v 0.374400 0.276049 -0.097700
v 0.374555 0.282482 -0.098856
v 0.374390 0.270692 -0.097514
v 0.374414 0.271358 -0.097683
v 0.374421 0.276695 -0.097850
v 0.374487 0.277418 -0.098300
v 0.374649 0.278302 -0.099379
v 0.374865 0.282659 -0.100894
v 0.374855 0.278596 -0.100738
v 0.375022 0.278411 -0.101825
v 0.375154 0.282515 -0.102785
v 0.375167 0.277855 -0.102762
v 0.375268 0.277052 -0.103408
v 0.375413 0.282080 -0.104475
v 0.375304 0.276125 -0.103623
v 0.374542 0.271491 -0.098527
v 0.374419 0.275669 -0.097812
v 0.374539 0.275517 -0.098599
v 0.375939 0.271491 -0.107685
v 0.375180 0.275517 -0.102798
v 0.375285 0.275650 -0.103492
v 0.375643 0.281356 -0.105966
v 0.375844 0.280342 -0.107257
v 0.376007 0.279086 -0.108299
v 0.376087 0.271624 -0.108656
v 0.376126 0.277635 -0.109044
v 0.376175 0.272023 -0.109243
v 0.376199 0.275990 -0.109490
v 0.376218 0.272821 -0.109539
v 0.376228 0.274150 -0.109638
v 0.374434 0.269228 -0.097766
v 0.374644 0.262534 -0.098992
v 0.374554 0.268030 -0.098526
v 0.374731 0.267231 -0.099671
v 0.374968 0.262363 -0.101114
v 0.374947 0.266964 -0.101079
v 0.375068 0.267074 -0.101873
v 0.375218 0.262460 -0.102758
v 0.375189 0.267401 -0.102676
v 0.375434 0.268712 -0.104310
v 0.375449 0.262748 -0.104273
v 0.375659 0.263229 -0.105660
v 0.375611 0.269624 -0.105493
v 0.375808 0.269928 -0.106789
v 0.375848 0.263903 -0.106917
v 0.375964 0.269766 -0.107808
v 0.376005 0.264714 -0.107961
v 0.376088 0.269282 -0.108610
v 0.376115 0.265609 -0.108707
v 0.376170 0.268550 -0.109131
v 0.376180 0.266586 -0.109155
v 0.376199 0.267647 -0.109304
vn -0.9885557680140977 -0.003370638077551744 -0.15081820952725603
vn 0.9885557680140977 0.003370638077551744 0.15081820952725603
usemtl material_0_2
f 1//1 2//1 3//1
f 3//2 2//2 1//2
f 2//1 1//1 4//1
f 4//2 1//2 2//2
f 2//1 4//1 5//1
f 5//2 4//2 2//2
f 5//1 4//1 6//1
f 6//2 4//2 5//2
f 5//1 6//1 7//1
f 7//2 6//2 5//2
f 7//1 6//1 8//1
f 8//2 6//2 7//2
f 7//1 8//1 9//1
f 9//2 8//2 7//2
f 9//1 8//1 10//1
f 10//2 8//2 9//2
f 9//1 10//1 11//1
f 11//2 10//2 9//2
f 11//1 10//1 12//1
f 12//2 10//2 11//2
f 11//1 12//1 13//1
f 13//2 12//2 11//2
f 13//1 12//1 14//1
f 14//2 12//2 13//2
f 14//1 12//1 15//1
f 15//2 12//2 14//2
f 13//1 14//1 16//1
f 16//2 14//2 13//2
f 16//1 14//1 17//1
f 17//2 14//2 16//2
f 14//1 15//1 18//1
f 18//2 15//2 14//2
f 18//1 15//1 19//1
f 19//2 15//2 18//2
f 19//1 15//1 20//1
f 20//2 15//2 19//2
f 20//1 15//1 21//1
f 21//2 15//2 20//2
f 20//1 21//1 22//1
f 22//2 21//2 20//2
f 22//1 21//1 23//1
f 23//2 21//2 22//2
f 23//1 21//1 24//1
f 24//2 21//2 23//2
f 23//1 24//1 25//1
f 25//2 24//2 23//2
f 25//1 24//1 26//1
f 26//2 24//2 25//2
f 26//1 24//1 27//1
f 27//2 24//2 26//2
f 26//1 27//1 28//1
f 28//2 27//2 26//2
f 14//1 29//1 17//1
f 17//2 29//2 14//2
f 29//1 14//1 30//1
f 30//2 14//2 29//2
f 29//1 30//1 31//1
f 31//2 30//2 29//2
f 29//1 31//1 32//1
f 32//2 31//2 29//2
f 32//1 31//1 33//1
f 33//2 31//2 32//2
f 32//1 33//1 34//1
f 34//2 33//2 32//2
f 32//1 34//1 28//1
f 28//2 34//2 32//2
f 32//1 28//1 27//1
f 27//2 28//2 32//2
f 32//1 27//1 35//1
f 35//2 27//2 32//2
f 32//1 35//1 36//1
f 36//2 35//2 32//2
f 32//1 36//1 37//1
f 37//2 36//2 32//2
f 32//1 37//1 38//1
f 38//2 37//2 32//2
f 38//1 37//1 39//1
f 39//2 37//2 38//2
f 38//1 39//1 40//1
f 40//2 39//2 38//2
f 40//1 39//1 41//1
f 41//2 39//2 40//2
f 40//1 41//1 42//1
f 42//2 41//2 40//2
f 42//1 41//1 43//1
f 43//2 41//2 42//2
f 13//1 44//1 45//1
f 45//2 44//2 13//2
f 44//1 13//1 16//1
f 16//2 13//2 44//2
f 45//1 44//1 46//1
f 46//2 44//2 45//2
f 45//1 46//1 47//1
f 47//2 46//2 45//2
f 45//1 47//1 48//1
f 48//2 47//2 45//2
f 48//1 47//1 49//1
f 49//2 47//2 48//2
f 48//1 49//1 50//1
f 50//2 49//2 48//2
f 48//1 50//1 51//1
f 51//2 50//2 48//2
f 51//1 50//1 52//1
f 52//2 50//2 51//2
f 51//1 52//1 53//1
f 53//2 52//2 51//2
f 51//1 53//1 54//1
f 54//2 53//2 51//2
f 54//1 53//1 55//1
f 55//2 53//2 54//2
f 55//1 53//1 56//1
f 56//2 53//2 55//2
f 55//1 56//1 57//1
f 57//2 56//2 55//2
f 55//1 57//1 58//1
f 58//2 57//2 55//2
f 58//1 57//1 59//1
f 59//2 57//2 58//2
f 58//1 59//1 60//1
f 60//2 59//2 58//2
f 60//1 59//1 61//1
f 61//2 59//2 60//2
f 60//1 61//1 62//1
f 62//2 61//2 60//2
f 62//1 61//1 63//1
f 63//2 61//2 62//2
f 62//1 63//1 64//1
f 64//2 63//2 62//2
f 64//1 63//1 65//1
f 65//2 63//2 64//2
