# SSTK version 0.8.0
# 134
mtllib original-134.mtl
o #ID699
v 0.025551 0.250183 0.680471
v 0.025501 0.248647 0.680471
v 0.025470 0.249239 0.680471
v 0.025595 0.248082 0.680471
v 0.025792 0.251037 0.680471
v 0.025752 0.247544 0.680471
v 0.025971 0.247033 0.680471
v 0.026195 0.251801 0.680471
v 0.026251 0.246564 0.680471
v 0.026760 0.252476 0.680471
v 0.026590 0.246151 0.680471
v 0.026735 0.249489 0.680471
v 0.026777 0.250180 0.680471
v 0.026904 0.250810 0.680471
v 0.027457 0.253027 0.680471
v 0.027115 0.251379 0.680471
v 0.027411 0.251888 0.680471
v 0.027900 0.252423 0.680471
v 0.028258 0.253420 0.680471
v 0.028496 0.252805 0.680471
v 0.029163 0.253656 0.680471
v 0.029197 0.253035 0.680471
v 0.030172 0.253735 0.680471
v 0.030004 0.253111 0.680471
v 0.030757 0.253053 0.680471
v 0.031551 0.253601 0.680471
v 0.031380 0.252877 0.680471
v 0.031861 0.252603 0.680471
v 0.033078 0.253200 0.680471
v 0.032187 0.252250 0.680471
v 0.032429 0.251696 0.680471
v 0.032656 0.250819 0.680471
v 0.033066 0.252416 0.680471
v 0.033155 0.250819 0.680471
v 0.026988 0.245795 0.680471
v 0.026795 0.248673 0.680471
v 0.026973 0.247948 0.680471
v 0.027271 0.247314 0.680471
v 0.027445 0.245495 0.680471
v 0.027687 0.246772 0.680471
v 0.027945 0.245257 0.680471
v 0.028200 0.246336 0.680471
v 0.028472 0.245087 0.680471
v 0.028787 0.246026 0.680471
v 0.029027 0.244985 0.680471
v 0.029448 0.245839 0.680471
v 0.029609 0.244951 0.680471
v 0.030182 0.245777 0.680471
v 0.030531 0.245023 0.680471
v 0.030838 0.245820 0.680471
v 0.031424 0.245236 0.680471
v 0.031476 0.245949 0.680471
v 0.032320 0.245600 0.680471
v 0.032173 0.246191 0.680471
v 0.033006 0.246573 0.680471
v 0.033256 0.246121 0.680471
vn 0 0 -1
vn 0 0 1
usemtl material_0_2
f 1//1 2//1 3//1
f 3//2 2//2 1//2
f 2//1 1//1 4//1
f 4//2 1//2 2//2
f 4//1 1//1 5//1
f 5//2 1//2 4//2
f 4//1 5//1 6//1
f 6//2 5//2 4//2
f 6//1 5//1 7//1
f 7//2 5//2 6//2
f 7//1 5//1 8//1
f 8//2 5//2 7//2
f 7//1 8//1 9//1
f 9//2 8//2 7//2
f 9//1 8//1 10//1
f 10//2 8//2 9//2
f 9//1 10//1 11//1
f 11//2 10//2 9//2
f 11//1 10//1 12//1
f 12//2 10//2 11//2
f 12//1 10//1 13//1
f 13//2 10//2 12//2
f 13//1 10//1 14//1
f 14//2 10//2 13//2
f 14//1 10//1 15//1
f 15//2 10//2 14//2
f 14//1 15//1 16//1
f 16//2 15//2 14//2
f 16//1 15//1 17//1
f 17//2 15//2 16//2
f 17//1 15//1 18//1
f 18//2 15//2 17//2
f 18//1 15//1 19//1
f 19//2 15//2 18//2
f 18//1 19//1 20//1
f 20//2 19//2 18//2
f 20//1 19//1 21//1
f 21//2 19//2 20//2
f 20//1 21//1 22//1
f 22//2 21//2 20//2
f 22//1 21//1 23//1
f 23//2 21//2 22//2
f 22//1 23//1 24//1
f 24//2 23//2 22//2
f 24//1 23//1 25//1
f 25//2 23//2 24//2
f 25//1 23//1 26//1
f 26//2 23//2 25//2
f 25//1 26//1 27//1
f 27//2 26//2 25//2
f 27//1 26//1 28//1
f 28//2 26//2 27//2
f 28//1 26//1 29//1
f 29//2 26//2 28//2
f 28//1 29//1 30//1
f 30//2 29//2 28//2
f 30//1 29//1 31//1
f 31//2 29//2 30//2
f 31//1 29//1 32//1
f 32//2 29//2 31//2
f 32//1 29//1 33//1
f 33//2 29//2 32//2
f 34//1 32//1 33//1
f 33//2 32//2 34//2
f 12//1 35//1 11//1
f 11//2 35//2 12//2
f 35//1 12//1 36//1
f 36//2 12//2 35//2
f 35//1 36//1 37//1
f 37//2 36//2 35//2
f 35//1 37//1 38//1
f 38//2 37//2 35//2
f 35//1 38//1 39//1
f 39//2 38//2 35//2
f 39//1 38//1 40//1
f 40//2 38//2 39//2
f 39//1 40//1 41//1
f 41//2 40//2 39//2
f 41//1 40//1 42//1
f 42//2 40//2 41//2
f 41//1 42//1 43//1
f 43//2 42//2 41//2
f 43//1 42//1 44//1
f 44//2 42//2 43//2
f 43//1 44//1 45//1
f 45//2 44//2 43//2
f 45//1 44//1 46//1
f 46//2 44//2 45//2
f 45//1 46//1 47//1
f 47//2 46//2 45//2
f 47//1 46//1 48//1
f 48//2 46//2 47//2
f 47//1 48//1 49//1
f 49//2 48//2 47//2
f 49//1 48//1 50//1
f 50//2 48//2 49//2
f 49//1 50//1 51//1
f 51//2 50//2 49//2
f 51//1 50//1 52//1
f 52//2 50//2 51//2
f 51//1 52//1 53//1
f 53//2 52//2 51//2
f 53//1 52//1 54//1
f 54//2 52//2 53//2
f 53//1 54//1 55//1
f 55//2 54//2 53//2
f 53//1 55//1 56//1
f 56//2 55//2 53//2
