# SSTK version 0.8.0
# 114
mtllib original-114.mtl
o #ID579
v 0.052791 0.283268 0.680471
v 0.053204 0.282639 0.680471
v 0.053157 0.278731 0.680471
v 0.056185 0.283334 0.680471
v 0.054520 0.282639 0.680471
v 0.055317 0.282559 0.680471
v 0.055557 0.282291 0.680471
v 0.055918 0.281017 0.680471
v 0.056363 0.281017 0.680471
v 0.049041 0.283334 0.680471
v 0.049296 0.281017 0.680471
v 0.048839 0.281017 0.680471
v 0.049605 0.282134 0.680471
v 0.049745 0.282404 0.680471
v 0.049902 0.282561 0.680471
v 0.050347 0.282633 0.680471
v 0.050603 0.282639 0.680471
v 0.052016 0.282639 0.680471
v 0.052040 0.279824 0.680471
v 0.052426 0.274972 0.680471
v 0.053204 0.275809 0.680471
v 0.053293 0.275566 0.680471
v 0.054522 0.274906 0.680471
v 0.054273 0.275310 0.680471
v 0.054522 0.275257 0.680471
v 0.050953 0.275328 0.680471
v 0.050638 0.274906 0.680471
v 0.050638 0.275257 0.680471
v 0.051892 0.275560 0.680471
v 0.051972 0.275693 0.680471
v 0.052016 0.277009 0.680471
vn 0 0 -1
vn 0 0 1
usemtl material_0_2
f 1//1 2//1 3//1
f 3//2 2//2 1//2
f 2//1 1//1 4//1
f 4//2 1//2 2//2
f 2//1 4//1 5//1
f 5//2 4//2 2//2
f 5//1 4//1 6//1
f 6//2 4//2 5//2
f 6//1 4//1 7//1
f 7//2 4//2 6//2
f 7//1 4//1 8//1
f 8//2 4//2 7//2
f 8//1 4//1 9//1
f 9//2 4//2 8//2
f 10//1 11//1 12//1
f 12//2 11//2 10//2
f 11//1 10//1 13//1
f 13//2 10//2 11//2
f 13//1 10//1 14//1
f 14//2 10//2 13//2
f 14//1 10//1 15//1
f 15//2 10//2 14//2
f 15//1 10//1 1//1
f 1//2 10//2 15//2
f 15//1 1//1 16//1
f 16//2 1//2 15//2
f 16//1 1//1 17//1
f 17//2 1//2 16//2
f 17//1 1//1 18//1
f 18//2 1//2 17//2
f 18//1 1//1 19//1
f 19//2 1//2 18//2
f 19//1 1//1 20//1
f 20//2 1//2 19//2
f 20//1 1//1 21//1
f 21//2 1//2 20//2
f 20//1 21//1 22//1
f 22//2 21//2 20//2
f 20//1 22//1 23//1
f 23//2 22//2 20//2
f 21//1 1//1 3//1
f 3//2 1//2 21//2
f 23//1 22//1 24//1
f 24//2 22//2 23//2
f 23//1 24//1 25//1
f 25//2 24//2 23//2
f 26//1 27//1 28//1
f 28//2 27//2 26//2
f 27//1 26//1 20//1
f 20//2 26//2 27//2
f 20//1 26//1 29//1
f 29//2 26//2 20//2
f 20//1 29//1 30//1
f 30//2 29//2 20//2
f 20//1 30//1 31//1
f 31//2 30//2 20//2
f 20//1 31//1 19//1
f 19//2 31//2 20//2
