mtllib new-8.mtl
v -0.615591 -0.444083 -0.300854
v -0.452630 -0.461902 -0.354118
v -0.497756 -0.461902 -0.361269
v -0.542883 -0.461902 -0.354125
v -0.615904 -0.461902 -0.301081
v -0.636649 -0.461902 -0.260373
v -0.643800 -0.461902 -0.215247
v -0.636656 -0.461902 -0.170120
v -0.615917 -0.461902 -0.129409
v -0.542904 -0.461902 -0.076354
v -0.497778 -0.461902 -0.069203
v -0.452651 -0.461902 -0.076347
v -0.379631 -0.461902 -0.129391
v -0.358885 -0.461902 -0.170099
v -0.358879 -0.461902 -0.260352
v -0.379618 -0.461902 -0.301063
v -0.583594 -0.461902 -0.333385
v -0.583612 -0.461902 -0.097100
v -0.411940 -0.461902 -0.097087
v -0.411922 -0.461902 -0.333372
vn 0.000000 1.000000 0.000000
vn 0.000000 -1.000000 0.000000
vn -0.808783 0.021664 -0.587709
vn 0.808783 -0.021664 0.587709
vn -0.950810 0.021664 -0.309016
vn 0.950810 -0.021664 0.309016
vt 0.138711 0.030529
vt 0.138811 0.015970
vt 0.111082 0.016303
usemtl material-0
f 5/2/3 6/3/5 1/1/3
f 1/1/4 6/3/6 5/2/4
usemtl material-1
f 3//2 2//2 11//2
f 11//1 2//1 3//1
f 4//2 3//2 10//2
f 10//1 3//1 4//1
f 17//2 4//2 18//2
f 18//1 4//1 17//1
f 5//2 17//2 18//2
f 18//1 17//1 5//1
f 6//2 5//2 8//2
f 8//1 5//1 6//1
f 7//2 6//2 8//2
f 8//1 6//1 7//1
f 8//2 5//2 9//2
f 9//1 5//1 8//1
f 9//2 5//2 18//2
f 18//1 5//1 9//1
f 18//2 4//2 10//2
f 10//1 4//1 18//1
f 10//2 3//2 11//2
f 11//1 3//1 10//1
f 11//2 2//2 12//2
f 12//1 2//1 11//1
f 12//2 20//2 19//2
f 19//1 20//1 12//1
f 19//2 16//2 13//2
f 13//1 16//1 19//1
f 13//2 15//2 14//2
f 14//1 15//1 13//1
f 16//2 15//2 13//2
f 13//1 15//1 16//1
f 20//2 16//2 19//2
f 19//1 16//1 20//1
f 2//2 20//2 12//2
f 12//1 20//1 2//1