# Blender v2.93.4 OBJ File: ''
# www.blender.org
mtllib new-7-back.mtl
o new-7
v 0.477197 -0.813519 -0.434795
v 0.489676 -0.771064 -0.429626
v -0.353449 0.757308 -0.477878
v -0.401664 -0.771064 -0.438781
v 0.500392 -0.771064 -0.421404
v -0.396230 -0.771064 -0.425662
v 0.368282 0.757308 -0.477878
v -0.475969 -0.813519 -0.431783
v -0.394376 -0.771064 -0.411584
v -0.372845 0.756037 -0.477878
v -0.410308 -0.771064 -0.450047
v -0.395502 -0.771064 -0.420134
v 0.450413 -0.771064 -0.434795
v 0.387677 0.756037 -0.477878
v 0.477197 -0.771064 -0.434795
v 0.508615 -0.771064 -0.410688
v -0.462850 -0.813519 -0.437218
v 0.437934 -0.771064 -0.429626
v -0.495879 -0.813519 -0.411873
v -0.395502 -0.771064 -0.403034
v -0.487235 -0.771064 -0.423139
v -0.391908 0.752245 -0.477878
v -0.487235 -0.813519 -0.423139
v -0.495879 -0.771064 -0.411873
v 0.463805 -0.771064 -0.436558
v 0.406740 0.752245 -0.477878
v 0.513784 -0.771064 -0.398208
v -0.475969 -0.771064 -0.431783
v -0.502041 -0.771064 -0.403034
v -0.448772 -0.813519 -0.439071
v -0.501313 -0.771064 -0.397505
v 0.427218 -0.771064 -0.421404
v 0.486168 0.699173 -0.450970
v -0.490730 0.665580 -0.450970
v -0.501313 -0.771064 -0.398754
v 0.473352 0.713787 -0.450970
v 0.496966 0.683012 -0.450970
v -0.396230 -0.771064 -0.397505
v -0.496978 0.647175 -0.450970
v -0.410313 0.745997 -0.477878
v -0.421574 -0.771064 -0.458691
v -0.462850 -0.771064 -0.437218
v 0.425146 0.745997 -0.477878
v 0.418996 -0.771064 -0.410688
v -0.482134 0.683012 -0.450970
v -0.500770 0.628112 -0.450970
v 0.458739 0.726602 -0.450970
v 0.505563 0.665580 -0.450970
v 0.515619 0.609971 -0.450970
v -0.427745 0.737401 -0.477878
v -0.434693 -0.771064 -0.464126
v -0.434693 -0.813519 -0.437218
v -0.448772 -0.771064 -0.439071
v 0.516874 0.608716 -0.477878
v -0.502041 -0.771064 -0.420134
v 0.413827 -0.771064 -0.398208
v -0.458520 0.713787 -0.450970
v -0.471335 0.699173 -0.450970
v -0.503167 -0.771064 -0.384676
v -0.502041 0.608716 -0.450970
v -0.443906 0.726602 -0.477878
v -0.502041 -0.771064 -0.477878
v -0.421574 -0.813519 -0.458691
v 0.442578 0.737401 -0.450970
v 0.511811 0.647175 -0.450970
v 0.515602 0.628112 -0.450970
v 0.516874 -0.771064 -0.450970
v -0.421574 -0.813519 -0.431783
v 0.516874 -0.771064 -0.477878
v 0.515602 0.628112 -0.477878
v 0.511811 0.647175 -0.477878
v 0.442578 0.737401 -0.477878
v -0.502041 -0.771064 -0.450970
v -0.443906 0.726602 -0.450970
v -0.502041 0.608716 -0.477878
v -0.503167 -0.771064 -0.411584
v -0.502041 -0.771064 -0.393226
v 0.516874 0.608716 -0.450970
v -0.471335 0.699173 -0.477878
v -0.458520 0.713787 -0.477878
v -0.434693 -0.771064 -0.437218
v 0.413827 -0.771064 -0.425116
v -0.434693 -0.813519 -0.464126
v -0.427745 0.737401 -0.450970
v 0.425146 0.745997 -0.450970
v -0.421574 -0.771064 -0.431783
v -0.410313 0.745997 -0.450970
v -0.396230 -0.771064 -0.370597
v 0.505563 0.665580 -0.477878
v 0.458739 0.726602 -0.477878
v -0.500770 0.628112 -0.477878
v -0.501313 -0.771064 -0.370597
v -0.502041 -0.771064 -0.376126
v -0.482134 0.683012 -0.477878
v 0.406740 0.752245 -0.450970
v 0.418996 -0.771064 -0.437596
v -0.462850 -0.771064 -0.464126
v -0.391908 0.752245 -0.450970
v -0.395502 -0.771064 -0.376126
v 0.387677 0.756037 -0.450970
v -0.395502 -0.771064 -0.393226
v -0.410308 -0.771064 -0.423139
v -0.496978 0.647175 -0.477878
v 0.496966 0.683012 -0.477878
v 0.473352 0.713787 -0.477878
v -0.372845 0.756037 -0.450970
v -0.501313 -0.771064 -0.425662
v -0.490730 0.665580 -0.477878
v 0.486168 0.699173 -0.477878
v 0.427218 -0.771064 -0.448312
v -0.448772 -0.813519 -0.465979
v -0.475969 -0.771064 -0.458691
v -0.394376 -0.771064 -0.384676
v 0.368282 0.757308 -0.450970
v 0.513784 -0.771064 -0.425116
v -0.396230 -0.771064 -0.398754
v -0.401664 -0.771064 -0.411873
v 0.463805 -0.771064 -0.463466
v -0.495879 -0.771064 -0.438781
v -0.487235 -0.813519 -0.450047
v -0.487235 -0.771064 -0.450047
v -0.495879 -0.813519 -0.438781
v 0.437934 -0.771064 -0.456534
v -0.462850 -0.813519 -0.464126
v -0.353449 0.757308 -0.450970
v 0.508615 -0.771064 -0.437596
v 0.477197 -0.771064 -0.461703
v 0.450413 -0.771064 -0.461703
v -0.475969 -0.813519 -0.458691
v 0.500392 -0.771064 -0.448312
v 0.489676 -0.771064 -0.456534
v 0.477197 -0.813519 -0.461703
v 0.463805 -0.813519 -0.463466
v 0.450413 -0.813519 -0.461703
vn 0.0000 1.0000 0.0000
vn -0.0056 -0.0154 -0.9999
vn -0.0000 -0.0000 1.0000
vn 0.0000 -1.0000 0.0000
vn 0.9665 0.2565 0.0000
vn -0.3215 0.9469 0.0000
vn -0.0123 -0.0051 -0.9999
vn 0.0015 -0.0139 -0.9999
vn -1.0000 0.0000 0.0000
vn 0.0125 -0.0259 -0.9996
vn -0.1951 -0.9808 0.0000
vn 0.9979 0.0654 0.0000
vn -0.4423 0.8969 0.0000
vn -0.6593 0.7519 0.0000
vn -0.0000 -0.0202 -0.9998
vn 0.8969 0.4423 0.0000
vn 0.7518 0.6593 0.0000
vn 0.9469 0.3215 0.0000
vn -0.0654 -0.9979 0.0000
vn -0.9469 0.3215 0.0000
vn -0.4423 -0.8969 0.0000
vn 1.0000 0.0000 0.0000
vn 0.8315 -0.5556 0.0000
vn -0.5556 0.8315 0.0000
vn 0.9979 -0.0654 0.0000
vn 0.9492 0.3147 0.0000
vn 0.1951 -0.9808 0.0000
vn 0.8969 -0.4423 0.0000
vn 0.6593 0.7518 0.0000
vn -0.9537 -0.3008 0.0000
vn 0.9554 0.2952 0.0000
vn 0.9808 0.1950 0.0000
vn -0.0654 0.9979 0.0000
vn 0.5556 0.8315 0.0000
vn 0.7519 -0.6593 0.0000
vn -0.9808 0.1951 0.0000
vn 0.3214 0.9469 0.0000
vn 0.8315 0.5556 0.0000
vn -0.0389 0.0443 0.9983
vn -0.0052 -0.0153 -0.9999
vn -0.2588 0.0000 0.9659
vn 0.7071 -0.0000 0.7071
vn 0.8660 0.0000 0.5000
vn 0.0000 0.0000 -1.0000
vn -0.0000 -0.9914 0.1305
vn -0.1206 -0.9914 0.0500
vn 0.1206 -0.9914 -0.0499
vn 0.2588 0.0000 0.9659
vn 0.5000 0.0000 0.8660
vn -0.5000 0.0000 -0.8660
vn -0.7071 0.0000 -0.7071
vn 0.2588 -0.0000 -0.9659
vn 0.5000 0.0000 -0.8660
vn -0.2588 0.0000 -0.9659
vn -0.0114 0.9914 -0.1300
vn -0.0354 0.9914 -0.1256
vn -0.1267 0.9914 0.0313
vn 0.1304 0.9914 -0.0057
usemtl material-0.002
s off
f 63//1 83//1 52//1 68//1
f 73//2 54//2 131//2
f 75//3 90//3 7//3
f 29//4 31//4 92//4 93//4
f 129//5 121//5 21//5 8//5
f 22//6 40//6 87//6 98//6
f 112//7 105//7 54//7
f 105//8 112//8 75//8
f 75//3 7//3 10//3
f 54//9 69//9 67//9 78//9
f 21//10 85//10 16//10
f 14//11 26//11 95//11 100//11
f 54//12 70//12 66//12 78//12
f 40//13 50//13 84//13 87//13
f 61//14 80//14 57//14 74//14
f 112//9 129//9 8//9 28//9
f 100//15 55//15 125//15
f 111//4 83//4 52//4 30//4
f 89//16 104//16 37//16 48//16
f 109//17 105//17 36//17 33//17
f 71//18 89//18 48//18 65//18
f 7//19 14//19 100//19 114//19
f 9//1 12//1 101//1 113//1
f 108//20 103//20 39//20 34//20
f 96//1 82//1 56//1 44//1
f 55//1 76//1 59//1 77//1
f 122//4 120//4 23//4 19//4
f 43//21 72//21 64//21 85//21
f 9//1 20//1 99//1 113//1
f 55//22 75//22 60//22 77//22
f 120//22 121//22 21//22 23//22
f 119//1 107//1 35//1 24//1
f 115//4 69//4 67//4 27//4
f 94//23 79//23 58//23 45//23
f 132//22 127//22 15//22 1//22
f 41//9 63//9 68//9 86//9
f 131//1 127//1 15//1 2//1
f 50//24 61//24 74//24 84//24
f 75//25 91//25 46//25 60//25
f 6//4 12//4 101//4 116//4
f 111//26 97//26 42//26 30//26
f 126//4 115//4 27//4 16//4
f 22//27 10//27 106//27 98//27
f 4//1 11//1 102//1 117//1
f 108//28 94//28 45//28 34//28
f 105//29 90//29 47//29 36//29
f 107//1 55//1 77//1 35//1
f 119//9 122//9 19//9 24//9
f 118//30 132//30 1//30 25//30
f 29//4 55//4 77//4 93//4
f 4//4 6//4 116//4 117//4
f 131//4 130//4 5//4 2//4
f 11//1 41//1 86//1 102//1
f 124//31 112//31 28//31 17//31
f 70//32 71//32 65//32 66//32
f 97//9 124//9 17//9 42//9
f 51//4 41//4 86//4 81//4
f 20//1 38//1 88//1 99//1
f 3//33 10//33 106//33 125//33
f 82//1 62//1 73//1 56//1
f 62//4 51//4 81//4 73//4
f 90//34 72//34 64//34 47//34
f 79//35 80//35 57//35 58//35
f 103//36 91//36 46//36 39//36
f 123//1 110//1 32//1 18//1
f 126//1 130//1 5//1 16//1
f 43//37 26//37 95//37 85//37
f 96//4 110//4 32//4 44//4
f 7//1 3//1 125//1 114//1
f 76//4 29//4 93//4 59//4
f 104//38 109//38 33//38 37//38
f 46//39 113//39 125//39
f 64//40 21//40 100//40
s 1
f 18//1 13//1 73//1
f 5//4 67//4 16//4
f 73//4 28//4 21//4
f 15//41 25//3 1//41
f 5//1 67//1 2//1
f 23//42 21//42 19//43
f 45//44 37//44 34//44
f 24//43 19//43 21//42
f 73//4 21//4 24//4
f 73//4 25//4 13//4
f 57//44 36//44 58//44
f 73//1 25//1 67//1
f 15//1 67//1 25//1
f 27//1 67//1 16//1
f 15//4 67//4 2//4
f 58//3 33//3 36//3
f 45//3 37//3 33//3
f 44//1 32//1 73//1
f 46//3 65//3 39//3
f 73//3 49//3 60//3
f 73//4 35//4 77//4
f 46//3 66//3 65//3
f 46//3 49//3 66//3
f 39//3 65//3 48//3
f 28//1 42//1 73//1
f 30//3 52//41 53//3
f 46//44 49//44 60//44
f 57//3 36//3 47//3
f 39//3 48//3 34//3
f 49//3 73//3 67//3
f 73//4 44//4 56//4
f 73//4 53//4 42//4
f 57//3 47//3 74//3
f 74//3 47//3 64//3
f 78//44 67//44 49//44
f 73//4 81//4 53//4
f 123//45 128//45 13//46 18//47
f 93//1 77//1 59//1
f 74//3 64//3 84//3
f 84//3 85//3 87//3
f 87//3 95//3 98//3
f 87//3 85//3 95//3
f 100//44 95//44 98//44
f 114//44 100//44 106//44
f 106//44 100//44 98//44
f 106//3 114//3 125//3
f 128//48 123//49 134//48
f 73//4 24//4 35//4
f 34//3 48//3 37//3
f 73//4 18//4 32//4
f 66//3 49//3 78//3
f 58//44 33//44 45//44
f 77//9 60//9 73//9
f 85//44 64//44 84//44
usemtl material-1.002
f 8//50 21//51 28//50
f 52//52 53//44 81//52
f 81//52 68//53 52//52
f 30//44 42//54 53//44
f 17//54 28//50 42//54
f 68//53 81//52 86//53
f 118//55 128//56 13//57 25//58
f 133//44 128//54 118//44
