# SSTK version 0.8.0
# 14
mtllib original-14.mtl
o mesh15/mesh15-geometry#mesh15-geometry
v 0.246505 0.542073 0.590723
v 0.254330 0.536255 0.587364
v 0.246505 0.491113 0.561301
v 0.262471 0.542073 0.590723
v 0.254330 0.491113 0.561301
v 0.262076 0.536255 0.587364
v 0.254330 0.515891 0.575607
v 0.268221 0.535793 0.587097
v 0.254330 0.510107 0.572268
v 0.267361 0.541881 0.590612
v 0.260930 0.515891 0.575607
v 0.271442 0.541303 0.590279
v 0.262155 0.510107 0.572268
v 0.272548 0.534270 0.586218
v 0.265227 0.516075 0.575713
v 0.274910 0.540315 0.589708
v 0.267934 0.510437 0.572458
v 0.274445 0.532858 0.585403
v 0.268636 0.516627 0.576032
v 0.275789 0.531087 0.584380
v 0.272627 0.511425 0.573028
v 0.277963 0.538891 0.588886
v 0.271323 0.517581 0.576583
v 0.276589 0.528965 0.583155
v 0.273457 0.518972 0.577386
v 0.276856 0.526501 0.581733
v 0.276500 0.513072 0.573979
v 0.279820 0.515378 0.575311
v 0.275043 0.520657 0.578359
v 0.280941 0.536700 0.587621
v 0.276085 0.522428 0.579381
v 0.281998 0.517693 0.576647
v 0.283159 0.534031 0.586080
v 0.283634 0.520392 0.578206
v 0.284538 0.530736 0.584178
v 0.284656 0.523408 0.579947
v 0.284997 0.526672 0.581831
vn 0 0.5000001748438415 -0.8660253028382761
vn 0 -0.5000001748438415 0.8660253028382761
usemtl material_0_0
f 1//1 2//1 3//1
f 2//1 1//1 4//1
f 3//2 2//2 1//2
f 4//2 1//2 2//2
f 2//1 5//1 3//1
f 3//2 5//2 2//2
f 2//1 4//1 6//1
f 6//2 4//2 2//2
f 5//1 2//1 7//1
f 7//2 2//2 5//2
f 6//1 4//1 8//1
f 8//2 4//2 6//2
f 5//1 7//1 9//1
f 9//2 7//2 5//2
f 8//1 4//1 10//1
f 10//2 4//2 8//2
f 11//1 9//1 7//1
f 7//2 9//2 11//2
f 8//1 10//1 12//1
f 12//2 10//2 8//2
f 9//1 11//1 13//1
f 13//2 11//2 9//2
f 8//1 12//1 14//1
f 14//2 12//2 8//2
f 13//1 11//1 15//1
f 15//2 11//2 13//2
f 14//1 12//1 16//1
f 16//2 12//2 14//2
f 13//1 15//1 17//1
f 17//2 15//2 13//2
f 14//1 16//1 18//1
f 18//2 16//2 14//2
f 17//1 15//1 19//1
f 19//2 15//2 17//2
f 18//1 16//1 20//1
f 20//2 16//2 18//2
f 17//1 19//1 21//1
f 21//2 19//2 17//2
f 20//1 16//1 22//1
f 22//2 16//2 20//2
f 21//1 19//1 23//1
f 23//2 19//2 21//2
f 20//1 22//1 24//1
f 24//2 22//2 20//2
f 21//1 23//1 25//1
f 25//2 23//2 21//2
f 24//1 22//1 26//1
f 26//2 22//2 24//2
f 21//1 25//1 27//1
f 27//2 25//2 21//2
f 28//1 26//1 22//1
f 22//2 26//2 28//2
f 27//1 25//1 29//1
f 29//2 25//2 27//2
f 27//1 26//1 28//1
f 28//2 26//2 27//2
f 28//1 22//1 30//1
f 30//2 22//2 28//2
f 27//1 29//1 31//1
f 31//2 29//2 27//2
f 27//1 31//1 26//1
f 26//2 31//2 27//2
f 28//1 30//1 32//1
f 32//2 30//2 28//2
f 32//1 30//1 33//1
f 33//2 30//2 32//2
f 32//1 33//1 34//1
f 34//2 33//2 32//2
f 34//1 33//1 35//1
f 35//2 33//2 34//2
f 34//1 35//1 36//1
f 36//2 35//2 34//2
f 36//1 35//1 37//1
f 37//2 35//2 36//2
