# SSTK version 0.8.0
# 142
mtllib original-142.mtl
o mesh426/mesh426-geometry#mesh426-geometry
v 0.162961 0.015937 -0.260637
v 0.162961 0.014997 -0.260637
v 0.162899 0.015468 -0.260637
v 0.163142 0.016376 -0.260637
v 0.163142 0.014559 -0.260637
v 0.163431 0.016752 -0.260637
v 0.163431 0.014183 -0.260637
v 0.163807 0.017041 -0.260637
v 0.163807 0.013895 -0.260637
v 0.163431 0.016752 0.184382
v 0.163142 0.016376 0.184382
v 0.162961 0.015937 0.184382
v 0.164245 0.017222 -0.260637
v 0.164245 0.013713 -0.260637
v 0.163807 0.017041 0.184382
v 0.162899 0.015468 0.184382
v 0.164715 0.017284 -0.260637
v 0.164715 0.013651 -0.260637
v 0.164245 0.013713 0.184382
v 0.164715 0.013651 0.184382
v 0.163807 0.013895 0.184382
v 0.163142 0.014559 0.184382
v 0.163431 0.014183 0.184382
v 0.164245 0.017222 0.184382
v 0.164715 0.017284 0.184382
v 0.165186 0.017222 -0.260637
v 0.165186 0.017222 0.184382
v 0.162961 0.014997 0.184382
v 0.165186 0.013713 -0.260637
v 0.165186 0.013713 0.184382
v 0.165623 0.017041 -0.260637
v 0.165623 0.013895 -0.260637
v 0.165999 0.016752 -0.260637
v 0.165999 0.014183 -0.260637
v 0.165623 0.013895 0.184382
v 0.165623 0.017041 0.184382
v 0.165999 0.014183 0.184382
v 0.166288 0.014559 0.184382
v 0.166288 0.016376 -0.260637
v 0.165999 0.016752 0.184382
v 0.166288 0.016376 0.184382
v 0.166470 0.014997 0.184382
v 0.166288 0.014559 -0.260637
v 0.166470 0.014997 -0.260637
v 0.166532 0.015468 0.184382
v 0.166470 0.015937 -0.260637
v 0.166470 0.015937 0.184382
v 0.166532 0.015468 -0.260637
vn 0 0 -1
vn 0 0 1
vn -0.8660253028382762 0.5000001748438417 0
vn -0.7071067811865476 0.7071067811865476 0
vn 0.7071067811865476 -0.7071067811865476 0
vn 0.8660253028382762 -0.5000001748438417 0
vn -0.5000001748438417 0.8660253028382762 0
vn 0.965925849201117 -0.2588189595935754 0
vn -1 0 0
vn -0.965925849201117 0.2588189595935754 0
vn 0.5000001748438417 -0.8660253028382762 0
vn -0.2588189595935754 0.965925849201117 0
vn 0.2588189595935754 -0.965925849201117 0
vn 1 0 0
vn 0.965925849201117 0.2588189595935754 0
vn -0.2588189595935754 -0.965925849201117 0
vn -0.5000001748438417 -0.8660253028382762 0
vn 0.2588189595935754 0.965925849201117 0
vn 0.5000001748438417 0.8660253028382762 0
vn 0 -1 0
vn 0 1 0
vn -0.7071067811865476 -0.7071067811865476 0
vn 0.7071067811865476 0.7071067811865476 0
vn -0.8660253028382762 -0.5000001748438417 0
vn 0.8660253028382762 0.5000001748438417 0
vn -0.965925849201117 -0.2588189595935754 0
usemtl material_0_0
f 1//1 2//1 3//1
f 2//1 1//1 4//1
f 2//1 4//1 5//1
f 5//1 4//1 6//1
f 5//1 6//1 7//1
f 7//1 6//1 8//1
f 3//2 2//2 1//2
f 4//2 1//2 2//2
f 7//1 8//1 9//1
f 5//2 4//2 2//2
f 7//2 6//2 5//2
f 8//2 6//2 7//2
f 6//2 4//2 5//2
f 4//3 10//4 6//4
f 6//5 10//5 4//6
f 10//4 8//7 6//4
f 4//6 11//6 1//8
f 3//9 12//10 1//10
f 9//1 8//1 13//1
f 9//1 13//1 14//1
f 9//2 8//2 7//2
f 13//2 8//2 9//2
f 10//4 4//3 11//3
f 11//6 4//6 10//5
f 8//7 10//4 15//7
f 6//5 8//11 10//5
f 15//11 10//5 8//11
f 15//7 13//12 8//7
f 8//11 13//13 15//11
f 11//3 1//10 12//10
f 1//10 11//3 4//3
f 12//10 3//9 16//9
f 16//14 3//14 12//8
f 1//8 12//8 3//14
f 12//8 1//8 11//6
f 3//14 16//14 2//15
f 14//1 13//1 17//1
f 14//1 17//1 18//1
f 14//2 13//2 9//2
f 18//2 17//2 14//2
f 19//16 9//17 14//16
f 14//18 9//19 19//18
f 20//20 14//16 18//20
f 18//21 14//18 20//21
f 17//2 13//2 14//2
f 21//17 7//22 9//17
f 9//19 7//23 21//19
f 7//22 22//24 5//24
f 5//25 22//25 7//23
f 12//2 22//2 11//2
f 11//2 23//2 10//2
f 10//2 21//2 15//2
f 10//1 23//1 11//1
f 17//21 24//12 25//21
f 25//20 24//13 17//20
f 15//2 19//2 24//2
f 24//2 20//2 25//2
f 15//1 21//1 10//1
f 24//1 19//1 15//1
f 25//1 20//1 24//1
f 13//12 15//7 24//12
f 24//13 15//11 13//13
f 24//12 17//21 13//12
f 13//13 17//20 24//13
f 26//2 17//2 18//2
f 17//21 27//18 26//18
f 16//1 12//1 28//1
f 11//1 22//1 12//1
f 16//9 2//26 28//26
f 2//26 16//9 3//9
f 28//15 2//15 16//14
f 18//1 17//1 26//1
f 9//17 19//16 21//17
f 21//19 19//18 9//19
f 18//21 20//21 29//12
f 14//16 20//20 19//16
f 7//22 21//17 23//22
f 23//23 21//19 7//23
f 19//18 20//21 14//18
f 22//24 7//22 23//22
f 23//23 7//23 22//25
f 28//26 5//24 22//24
f 5//24 28//26 2//26
f 22//25 5//25 28//15
f 22//1 28//1 12//1
f 11//2 22//2 23//2
f 23//1 22//1 11//1
f 10//2 23//2 21//2
f 15//2 21//2 19//2
f 21//1 23//1 10//1
f 19//1 21//1 15//1
f 27//18 17//21 25//21
f 25//20 17//20 27//16
f 24//2 19//2 20//2
f 20//1 19//1 24//1
f 25//2 20//2 30//2
f 30//1 20//1 25//1
f 25//2 30//2 27//2
f 18//1 26//1 29//1
f 28//2 12//2 16//2
f 12//2 28//2 22//2
f 2//15 28//15 5//25
f 29//1 26//1 31//1
f 32//1 31//1 33//1
f 26//16 27//16 17//20
f 29//13 20//20 18//20
f 20//20 29//13 30//13
f 30//12 29//12 20//21
f 34//2 33//2 32//2
f 32//11 30//13 29//13
f 29//12 30//12 32//7
f 34//5 35//11 32//11
f 32//7 35//7 34//4
f 27//1 30//1 25//1
f 27//2 30//2 35//2
f 36//2 35//2 37//2
f 35//1 30//1 27//1
f 37//1 35//1 36//1
f 29//1 31//1 32//1
f 32//1 33//1 34//1
f 29//2 26//2 18//2
f 32//2 31//2 29//2
f 31//2 26//2 29//2
f 33//2 31//2 32//2
f 36//19 26//18 27//18
f 27//16 26//16 36//17
f 30//13 32//11 35//11
f 35//7 32//7 30//12
f 34//5 38//6 37//5
f 37//4 38//3 34//4
f 35//11 34//5 37//5
f 37//4 34//4 35//7
f 34//1 33//1 39//1
f 27//2 35//2 36//2
f 36//1 35//1 27//1
f 36//2 37//2 40//2
f 40//2 37//2 38//2
f 40//1 37//1 36//1
f 38//1 37//1 40//1
f 40//2 38//2 41//2
f 41//2 38//2 42//2
f 39//2 33//2 34//2
f 33//22 40//22 31//17
f 26//18 36//19 31//19
f 31//17 36//17 26//16
f 31//19 40//23 33//23
f 40//23 31//19 36//19
f 36//17 31//17 40//22
f 38//6 34//5 43//6
f 43//3 34//4 38//3
f 44//8 45//14 42//8
f 38//3 42//10 43//3
f 43//1 39//1 46//1
f 47//26 41//24 46//26
f 41//2 42//2 47//2
f 41//1 38//1 40//1
f 47//1 42//1 41//1
f 42//10 45//9 44//10
f 43//6 42//8 38//6
f 42//1 38//1 41//1
f 45//1 42//1 47//1
f 43//1 46//1 44//1
f 44//1 46//1 48//1
f 43//2 39//2 34//2
f 46//2 39//2 43//2
f 44//2 46//2 43//2
f 48//2 46//2 44//2
f 34//1 39//1 43//1
f 39//24 46//26 41//24
f 45//14 44//8 48//14
f 48//9 44//10 45//9
f 47//15 48//14 46//15
f 42//8 43//6 44//8
f 44//10 43//3 42//10
f 39//25 40//23 41//25
f 40//23 39//25 33//23
f 41//24 40//22 39//24
f 33//22 39//24 40//22
f 41//25 46//15 39//25
f 45//9 47//26 48//9
f 46//26 48//9 47//26
f 46//15 41//25 47//15
f 48//14 47//15 45//14
f 47//2 42//2 45//2
