# SSTK version 0.8.0
# 90
mtllib original-90.mtl
o #ID514
v -0.228447 -0.165104 0.324227
v -0.224314 -0.165104 0.318333
v -0.225256 -0.165104 0.319199
v -0.220788 -0.165104 0.318480
v -0.230227 -0.165104 0.329909
v -0.200331 -0.165104 0.324891
v -0.230477 -0.165104 0.335859
v -0.229178 -0.165104 0.341671
v -0.226419 -0.165104 0.346948
v -0.222388 -0.165104 0.351332
v -0.185148 -0.165104 0.334527
v -0.217360 -0.165104 0.354523
v -0.211677 -0.165104 0.356304
v -0.205727 -0.165104 0.356553
v -0.199915 -0.165104 0.355254
v -0.185283 -0.165104 0.337753
v -0.194638 -0.165104 0.352495
v -0.187064 -0.165104 0.343436
v -0.190255 -0.165104 0.348464
v -0.190255 -0.165104 0.348464
v -0.194638 -0.165104 0.352495
v -0.187064 -0.165104 0.343436
v -0.185283 -0.165104 0.337753
v -0.199915 -0.165104 0.355254
v -0.185148 -0.165104 0.334527
v -0.205727 -0.165104 0.356553
v -0.211677 -0.165104 0.356304
v -0.217360 -0.165104 0.354523
v -0.222388 -0.165104 0.351332
v -0.200331 -0.165104 0.324891
v -0.226419 -0.165104 0.346948
v -0.229178 -0.165104 0.341671
v -0.230477 -0.165104 0.335859
v -0.230227 -0.165104 0.329909
v -0.220788 -0.165104 0.318480
v -0.228447 -0.165104 0.324227
v -0.224314 -0.165104 0.318333
v -0.225256 -0.165104 0.319199
vn 0 1 0
vn 0 -1 0
usemtl material_0_0
f 20//2 21//2 22//2
f 22//2 21//2 23//2
f 21//2 24//2 23//2
f 23//2 24//2 25//2
f 24//2 26//2 25//2
f 26//2 27//2 25//2
f 27//2 28//2 25//2
f 28//2 29//2 25//2
f 25//2 29//2 30//2
f 29//2 31//2 30//2
f 31//2 32//2 30//2
f 32//2 33//2 30//2
f 33//2 34//2 30//2
f 30//2 34//2 35//2
f 34//2 36//2 35//2
f 35//2 36//2 37//2
f 38//2 37//2 36//2
usemtl material_1_0
f 1//1 2//1 3//1
f 2//1 1//1 4//1
f 4//1 1//1 5//1
f 4//1 5//1 6//1
f 6//1 5//1 7//1
f 6//1 7//1 8//1
f 6//1 8//1 9//1
f 6//1 9//1 10//1
f 6//1 10//1 11//1
f 11//1 10//1 12//1
f 11//1 12//1 13//1
f 11//1 13//1 14//1
f 11//1 14//1 15//1
f 11//1 15//1 16//1
f 16//1 15//1 17//1
f 16//1 17//1 18//1
f 18//1 17//1 19//1
