# Blender v2.93.4 OBJ File: ''
# www.blender.org
mtllib original-20-collision.mtl
o group_4/ID108#ID108
v 0.440400 -0.106183 0.853024
v -0.436985 -0.182167 0.809155
v 0.440400 -0.182167 0.809155
v -0.436985 -0.106183 0.853024
v -0.436985 -0.106183 0.853024
v 0.440400 -0.106183 0.853024
v -0.436985 -0.182167 0.809155
v 0.440400 -0.182167 0.809155
v -0.436985 -0.106183 0.853024
v -0.433475 -0.182692 0.804799
v -0.436985 -0.182167 0.809155
v -0.433475 -0.104429 0.849984
v -0.433475 -0.104429 0.849984
v -0.436985 -0.106183 0.853024
v -0.433475 -0.182692 0.804799
v -0.436985 -0.182167 0.809155
v 0.436890 -0.182692 0.804799
v 0.440400 -0.106183 0.853024
v 0.440400 -0.182167 0.809155
v 0.436890 -0.104429 0.849984
v 0.436890 -0.104429 0.849984
v 0.436890 -0.182692 0.804799
v 0.440400 -0.106183 0.853024
v 0.440400 -0.182167 0.809155
v 0.440400 -0.106183 0.853024
v -0.433475 -0.104429 0.849984
v -0.436985 -0.106183 0.853024
v 0.436890 -0.104429 0.849984
v 0.436890 -0.104429 0.849984
v 0.440400 -0.106183 0.853024
v -0.433475 -0.104429 0.849984
v -0.436985 -0.106183 0.853024
v -0.433475 -0.104429 0.849984
v 0.436890 -0.182692 0.804799
v -0.433475 -0.182692 0.804799
v 0.436890 -0.104429 0.849984
v 0.436890 -0.104429 0.849984
v -0.433475 -0.104429 0.849984
v 0.436890 -0.182692 0.804799
v -0.433475 -0.182692 0.804799
v 0.370214 -0.182692 0.804799
v 0.250712 -0.182692 0.804799
v 0.109669 -0.182692 0.804799
v 0.003018 -0.182692 0.804799
v -0.183823 -0.182692 0.804799
v -0.191749 -0.182692 0.804799
v -0.266638 -0.182692 0.804799
v -0.351221 -0.182692 0.804799
v -0.401957 -0.182692 0.804799
v 0.370214 -0.182692 0.804799
v 0.250712 -0.182692 0.804799
v 0.109669 -0.182692 0.804799
v 0.003018 -0.182692 0.804799
v -0.183823 -0.182692 0.804799
v -0.191749 -0.182692 0.804799
v -0.266638 -0.182692 0.804799
v -0.351221 -0.182692 0.804799
v -0.401957 -0.182692 0.804799
v -0.358575 -0.111164 0.846096
v -0.347360 -0.112173 0.845513
v -0.314665 -0.115112 0.843816
v -0.298066 -0.116605 0.842954
v -0.227565 -0.122944 0.839294
v -0.164920 -0.128578 0.836042
v -0.125294 -0.132141 0.833985
v -0.043946 -0.139455 0.829762
v 0.030263 -0.146128 0.825909
v 0.109505 -0.153254 0.821795
v 0.137672 -0.155786 0.820333
v 0.245691 -0.165500 0.814725
v 0.267936 -0.167500 0.813570
v 0.373893 -0.177027 0.808069
v -0.354492 -0.104429 0.849984
v -0.304903 -0.104429 0.849984
v -0.205191 -0.104429 0.849984
v -0.135543 -0.104429 0.849984
v -0.078591 -0.104429 0.849984
v -0.007654 -0.104429 0.849984
v 0.084684 -0.104429 0.849984
v 0.243225 -0.104429 0.849984
v 0.349975 -0.104429 0.849984
v -0.433475 -0.118476 0.841874
v 0.349975 -0.104429 0.849984
v 0.243225 -0.104429 0.849984
v 0.084684 -0.104429 0.849984
v -0.007654 -0.104429 0.849984
v -0.078591 -0.104429 0.849984
v -0.135543 -0.104429 0.849984
v -0.205191 -0.104429 0.849984
v -0.304903 -0.104429 0.849984
v -0.354492 -0.104429 0.849984
v -0.433475 -0.118476 0.841874
v -0.358575 -0.111164 0.846096
v -0.347360 -0.112173 0.845513
v -0.314665 -0.115112 0.843816
v -0.298066 -0.116605 0.842954
v -0.227565 -0.122944 0.839294
v -0.164920 -0.128578 0.836042
v -0.125295 -0.132141 0.833985
v -0.043946 -0.139455 0.829762
v 0.030263 -0.146128 0.825909
v 0.109505 -0.153254 0.821795
v 0.137672 -0.155786 0.820333
v 0.245691 -0.165500 0.814725
v 0.267936 -0.167500 0.813570
v 0.373893 -0.177028 0.808070
v -0.433475 -0.118476 0.841874
v -0.253646 -0.162826 0.816269
v -0.177557 -0.150832 0.823193
v -0.201641 -0.159446 0.818220
v -0.188836 -0.176153 0.808575
v -0.226626 -0.168382 0.813061
v -0.237106 -0.137534 0.830871
v -0.324632 -0.133538 0.833178
v 0.289822 -0.150674 0.823285
v 0.245175 -0.152735 0.822095
v 0.177682 -0.136319 0.831572
v -0.158233 -0.120716 0.840581
v 0.412618 -0.132401 0.833835
v 0.359745 -0.134083 0.832864
v 0.245175 -0.152735 0.822095
v 0.177682 -0.136319 0.831572
v -0.158233 -0.120716 0.840581
v -0.237106 -0.137534 0.830871
v -0.177557 -0.150832 0.823193
v -0.201641 -0.159446 0.818220
v -0.188836 -0.176153 0.808575
v -0.226626 -0.168382 0.813061
v -0.324632 -0.133538 0.833178
vn 0.0000 -0.5000 0.8660
vn 0.0000 0.5000 -0.8660
vn -0.7071 0.3536 -0.6124
vn 0.7071 -0.3536 0.6124
vn 0.7071 0.3536 -0.6124
vn -0.7071 -0.3536 0.6124
vn 0.0000 0.8660 0.5000
vn 0.0000 -0.8662 -0.4998
vn -0.0000 -0.8659 -0.5002
vn 0.0000 -0.8659 -0.5003
usemtl material_0_0.015
s 1
f 1//1 2//1 3//1
f 2//1 1//1 4//1
f 5//2 6//2 7//2
f 8//2 7//2 6//2
f 9//3 10//3 11//3
f 10//3 9//3 12//3
f 13//4 14//4 82//4
f 16//4 15//4 14//4
f 17//5 18//5 19//5
f 18//5 17//5 20//5
f 21//6 22//6 23//6
f 24//6 23//6 22//6
f 25//7 26//7 27//7
f 26//7 25//7 28//7
f 29//8 30//8 31//9
f 32//10 31//9 30//8
f 33//2 93//2 49//2 92//2
f 34//2 106//2 81//2 36//2
f 37//1 83//1 120//1 119//1
f 40//1 58//1 107//1
f 92//2 49//2 35//2
f 49//2 93//2 94//2 114//2 48//2
f 48//2 114//2 108//2 47//2
f 47//2 112//2 111//2 46//2
f 46//2 111//2 45//2
f 45//2 111//2 100//2 44//2
f 44//2 101//2 102//2 43//2
f 43//2 103//2 104//2 42//2
f 42//2 105//2 106//2 41//2
f 41//2 106//2 34//2
f 105//2 42//2 104//2
f 103//2 43//2 102//2
f 101//2 44//2 100//2
f 100//2 111//2 109//2 99//2
f 99//2 109//2 98//2
f 98//2 109//2 110//2 113//2 97//2
f 97//2 113//2 96//2
f 96//2 113//2 108//2 114//2 95//2
f 95//2 114//2 94//2
f 113//2 110//2 112//2 108//2
f 110//2 109//2 111//2
f 110//2 111//2 112//2
f 112//2 47//2 108//2
f 82//4 14//4 15//4
f 81//2 106//2 105//2 115//2
f 115//2 105//2 104//2 116//2
f 116//2 104//2 103//2 117//2
f 117//2 103//2 102//2 79//2
f 79//2 102//2 101//2
f 101//2 100//2 78//2 79//2
f 78//2 100//2 77//2
f 77//2 99//2 76//2
f 76//2 118//2 75//2
f 75//2 97//2 96//2 74//2
f 74//2 95//2 94//2 73//2
f 73//2 93//2 33//2
f 93//2 73//2 94//2
f 95//2 74//2 96//2
f 97//2 75//2 118//2 98//2
f 98//2 118//2 99//2
f 118//2 76//2 99//2
f 99//2 77//2 100//2
f 79//2 80//2 117//2
f 80//2 81//2 115//2 116//2
f 80//2 116//2 117//2
f 119//1 120//1 72//1
f 72//1 120//1 83//1 71//1
f 71//1 83//1 84//1 121//1 70//1
f 70//1 121//1 122//1 69//1
f 69//1 122//1 85//1 68//1
f 68//1 85//1 67//1
f 67//1 85//1 86//1 66//1
f 66//1 87//1 65//1
f 65//1 123//1 64//1
f 64//1 123//1 89//1 63//1
f 63//1 89//1 90//1 62//1
f 62//1 90//1 61//1
f 61//1 90//1 91//1 60//1
f 60//1 91//1 59//1
f 59//1 91//1 38//1
f 89//1 123//1 88//1
f 88//1 65//1 87//1
f 88//1 123//1 65//1
f 87//1 66//1 86//1
f 85//1 122//1 84//1
f 122//1 121//1 84//1
f 72//1 39//1 37//1 119//1
f 107//1 58//1 59//1 38//1
f 59//1 58//1 57//1 129//1 60//1
f 60//1 129//1 61//1
f 61//1 129//1 57//1 56//1 124//1 62//1
f 62//1 124//1 63//1
f 63//1 124//1 126//1 125//1 64//1
f 64//1 125//1 65//1
f 65//1 125//1 127//1 66//1
f 66//1 127//1 54//1 53//1
f 53//1 52//1 68//1 67//1
f 67//1 66//1 53//1
f 68//1 52//1 69//1
f 69//1 52//1 51//1 70//1
f 70//1 51//1 71//1
f 71//1 51//1 50//1 72//1
f 72//1 50//1 39//1
f 54//1 127//1 55//1
f 55//1 127//1 128//1 56//1
f 128//1 127//1 126//1
f 128//1 126//1 124//1 56//1
f 127//1 125//1 126//1
