# Blender v2.93.4 OBJ File: ''
# www.blender.org
mtllib Square_rim_top.mtl
o Square
v 2.719700 7.326798 2.501502
v 2.713300 7.314700 2.507902
v 3.641000 7.275800 2.607002
v 3.648800 7.287300 2.600402
v 2.706900 7.302598 2.514402
v 3.633200 7.264200 2.613602
v 4.600200 7.225698 2.720502
v 4.609100 7.236598 2.713702
v 4.591200 7.214700 2.727302
v 2.700500 7.290500 2.520802
v 2.694100 7.278399 2.527202
v 3.617700 7.241098 2.626802
v 3.625500 7.252600 2.620202
v 4.573400 7.192800 2.741002
v 4.582300 7.203800 2.734202
v 6.182700 7.079898 2.944502
v 6.193100 7.090000 2.937302
v 5.471400 7.148200 2.845502
v 5.461600 7.137800 2.852602
v 6.203400 7.100100 2.930102
v 5.481200 7.158598 2.838502
v 6.213800 7.110098 2.922902
v 6.224100 7.120200 2.915702
v 5.500800 7.179399 2.824402
v 5.491000 7.169000 2.831502
v -6.228000 7.119699 2.915702
v -6.217700 7.109600 2.922902
v -5.498800 7.168700 2.831602
v -5.508700 7.179100 2.824602
v -6.207300 7.099598 2.930102
v -5.489000 7.158298 2.838702
v -4.612900 7.225500 2.720802
v -4.621800 7.236400 2.714002
v -4.603900 7.214499 2.727602
v -6.197000 7.089499 2.937302
v -6.186600 7.079400 2.944602
v -5.469400 7.137498 2.852702
v -5.479200 7.147900 2.845702
v -4.586000 7.192598 2.741302
v -4.595000 7.203498 2.734402
v -2.715900 7.277998 2.527702
v -2.722300 7.290100 2.521302
v -3.643100 7.252298 2.620602
v -3.635300 7.240698 2.627202
v -2.728700 7.302299 2.514802
v -3.650800 7.263898 2.614002
v -2.735100 7.314400 2.508402
v -2.741500 7.326499 2.502002
v -3.666400 7.287098 2.600802
v -3.658600 7.275498 2.607402
v 6.668600 7.053699 2.977702
v 6.679000 7.063798 2.970402
v 6.658100 7.043600 2.985002
v 6.637300 7.023398 2.999702
v 6.647700 7.033500 2.992402
v -6.649500 7.032400 2.992302
v -6.639000 7.022298 2.999602
v -6.659900 7.042500 2.985002
v -6.680800 7.062799 2.970402
v -6.670400 7.052700 2.977702
v -0.013000 7.366199 2.367102
v -0.013000 7.353498 2.373402
v 0.586500 7.353600 2.378402
v 0.588200 7.366199 2.372202
v -0.013000 7.340798 2.379702
v 0.584900 7.340899 2.384702
v 1.218900 7.349699 2.399002
v 1.222200 7.362298 2.392702
v 1.215500 7.337100 2.405302
v -0.013000 7.328198 2.385902
v -0.013000 7.315498 2.392202
v 0.581500 7.315598 2.397202
v 0.583200 7.328198 2.391002
v 1.208900 7.311900 2.417802
v 1.212200 7.324500 2.411502
v 1.907000 7.313200 2.453002
v 1.902100 7.300798 2.459402
v 1.911900 7.325600 2.446702
v 1.921700 7.350500 2.434102
v 1.916800 7.338099 2.440402
v 6.218600 7.117098 2.902102
v 5.495300 7.176600 2.810802
v 6.213200 7.113998 2.888502
v 5.489700 7.173800 2.797102
v 4.603700 7.233900 2.699902
v 4.598400 7.231298 2.686202
v 6.207700 7.110898 2.874902
v 6.202200 7.107800 2.861302
v 5.478600 7.168200 2.769802
v 5.484100 7.171000 2.783502
v 4.587700 7.225900 2.658702
v 4.593000 7.228600 2.672502
v 2.703000 7.315800 2.446002
v 2.707200 7.318600 2.459902
v 3.634100 7.279200 2.558902
v 3.629300 7.276500 2.545102
v 2.711400 7.321300 2.473802
v 3.639000 7.281898 2.572802
v 2.715500 7.324100 2.487602
v 3.643900 7.284598 2.586602
v -2.737300 7.323800 2.488102
v -3.661500 7.284400 2.587002
v -2.733100 7.321000 2.474302
v -3.656700 7.281700 2.573202
v -4.616500 7.233799 2.700302
v -4.611100 7.231100 2.686502
v -2.729000 7.318298 2.460402
v -2.724800 7.315598 2.446502
v -3.647000 7.276400 2.545602
v -3.651800 7.278998 2.559402
v -4.600500 7.225800 2.659102
v -4.605800 7.228400 2.672802
v -6.206300 7.107399 2.861402
v -6.211700 7.110498 2.875002
v -5.492100 7.170800 2.783702
v -5.486500 7.168000 2.770002
v -6.217100 7.113598 2.888502
v -5.497600 7.173600 2.797302
v -6.222600 7.116600 2.902102
v -5.503100 7.176400 2.810902
v 6.664000 7.052800 2.929702
v 6.658900 7.049098 2.916202
v 6.669000 7.056398 2.943302
v 6.674000 7.060100 2.956802
v -6.675800 7.059100 2.956802
v -6.670800 7.055500 2.943302
v -6.660900 7.048100 2.916202
v -6.665900 7.051798 2.929802
v -0.013000 7.363400 2.353202
v -0.613000 7.363298 2.358402
v -0.614200 7.366098 2.372302
v -0.013000 7.360498 2.339302
v -0.611900 7.360498 2.344502
v -1.245500 7.359300 2.379102
v -1.247700 7.362100 2.393002
v -1.243200 7.356500 2.365202
v -0.013000 7.357698 2.325402
v -0.013000 7.354898 2.311402
v -0.609600 7.354898 2.316602
v -0.610700 7.357698 2.330602
v -1.238700 7.350900 2.337402
v -1.241000 7.353700 2.351302
v -1.936200 7.341898 2.392802
v -1.932900 7.339098 2.378902
v -1.939500 7.344698 2.406702
v -1.946000 7.350200 2.434502
v -1.942800 7.347400 2.420602
v -1.926400 7.300398 2.459802
v -1.931300 7.312900 2.453502
v -1.234400 7.311600 2.418202
v -1.237800 7.324298 2.411902
v -1.936200 7.325300 2.447102
v -1.241100 7.336900 2.405602
v -0.607500 7.315400 2.397402
v -0.609100 7.328100 2.391102
v -0.610800 7.340798 2.384902
v -0.612500 7.353400 2.378602
v -1.244400 7.349500 2.399302
v -1.941100 7.337800 2.440802
v 1.908700 7.339300 2.378402
v 1.911900 7.342100 2.392302
v 1.213200 7.351099 2.337002
v 1.215400 7.353899 2.350902
v 1.915200 7.344900 2.406202
v 1.217700 7.356699 2.364802
v 0.583600 7.354898 2.316402
v 0.584800 7.357800 2.330402
v 0.585900 7.360600 2.344302
v 0.587100 7.363400 2.358202
v 1.219900 7.359499 2.378802
v 1.918500 7.347700 2.420102
vt 0.338300 0.502500
vt 0.345000 0.499200
vt 0.376900 0.497700
vt 0.376000 0.500400
vt 0.346500 0.496500
vt 0.377300 0.495200
vt 0.411500 0.495900
vt 0.413600 0.498300
vt 0.409500 0.493500
vt 0.346300 0.494000
vt 0.345400 0.491600
vt 0.375300 0.490400
vt 0.376500 0.492700
vt 0.406200 0.488800
vt 0.407800 0.491100
vt 0.458300 0.485100
vt 0.460400 0.487400
vt 0.436800 0.489300
vt 0.435000 0.487000
vt 0.464100 0.489700
vt 0.439800 0.491600
vt 0.471200 0.491900
vt 0.489000 0.494000
vt 0.451300 0.496100
vt 0.445000 0.493900
vt 0.027500 0.494000
vt 0.045200 0.491900
vt 0.071200 0.493900
vt 0.065000 0.496100
vt 0.052200 0.489600
vt 0.076400 0.491600
vt 0.104600 0.495800
vt 0.102400 0.498300
vt 0.106500 0.493500
vt 0.055900 0.487400
vt 0.057900 0.485100
vt 0.081100 0.487000
vt 0.079300 0.489300
vt 0.109700 0.488700
vt 0.108200 0.491100
vt 0.170300 0.491500
vt 0.169300 0.493900
vt 0.139300 0.492700
vt 0.140500 0.490300
vt 0.169200 0.496400
vt 0.138600 0.495100
vt 0.170700 0.499200
vt 0.177400 0.502500
vt 0.139900 0.500400
vt 0.139000 0.497700
vt 0.484100 0.490000
vt 0.490800 0.492200
vt 0.478500 0.487800
vt 0.473000 0.483300
vt 0.475200 0.485500
vt 0.041100 0.485500
vt 0.043300 0.483200
vt 0.037900 0.487800
vt 0.025800 0.492200
vt 0.032400 0.490000
vt 0.257800 0.502500
vt 0.257800 0.500100
vt 0.277700 0.500100
vt 0.277900 0.502500
vt 0.257800 0.497600
vt 0.277400 0.497600
vt 0.298100 0.500000
vt 0.298000 0.502500
vt 0.298100 0.497500
vt 0.257700 0.495200
vt 0.257700 0.492700
vt 0.277000 0.492700
vt 0.277200 0.495200
vt 0.297300 0.492600
vt 0.297700 0.495100
vt 0.320400 0.494700
vt 0.319700 0.492300
vt 0.320600 0.497200
vt 0.318200 0.502500
vt 0.319700 0.499800
vt 0.978700 0.981600
vt 0.960000 0.978800
vt 0.933500 0.980800
vt 0.940400 0.983700
vt 0.952200 0.975900
vt 0.927600 0.977800
vt 0.899500 0.982800
vt 0.902200 0.985900
vt 0.897100 0.979800
vt 0.947800 0.972900
vt 0.945100 0.969900
vt 0.921700 0.971900
vt 0.924100 0.974900
vt 0.892900 0.973700
vt 0.894900 0.976700
vt 0.831900 0.976600
vt 0.833100 0.979700
vt 0.863500 0.978400
vt 0.861800 0.975400
vt 0.833500 0.982800
vt 0.864500 0.981500
vt 0.832200 0.986200
vt 0.825600 0.990200
vt 0.863900 0.988000
vt 0.864500 0.984700
vt 0.662200 0.990200
vt 0.655700 0.986200
vt 0.623600 0.984700
vt 0.624100 0.988000
vt 0.654500 0.982800
vt 0.623600 0.981500
vt 0.588700 0.982800
vt 0.586100 0.985900
vt 0.591200 0.979800
vt 0.654900 0.979700
vt 0.656200 0.976600
vt 0.626300 0.975400
vt 0.624700 0.978400
vt 0.595400 0.973700
vt 0.593400 0.976700
vt 0.543500 0.969900
vt 0.540800 0.972900
vt 0.564300 0.974900
vt 0.566800 0.971900
vt 0.536400 0.975800
vt 0.560800 0.977800
vt 0.528600 0.978800
vt 0.510000 0.981600
vt 0.548000 0.983700
vt 0.555000 0.980800
vt 0.962800 0.971000
vt 0.959900 0.968000
vt 0.966800 0.974000
vt 0.980500 0.979800
vt 0.973000 0.976900
vt 0.515600 0.976900
vt 0.508200 0.979800
vt 0.521900 0.973900
vt 0.528700 0.968000
vt 0.525900 0.971000
vt 0.743900 0.990200
vt 0.743900 0.987100
vt 0.723800 0.987100
vt 0.723500 0.990200
vt 0.743900 0.984100
vt 0.724000 0.984100
vt 0.703100 0.987100
vt 0.703100 0.990200
vt 0.703200 0.983900
vt 0.743900 0.981000
vt 0.743900 0.977900
vt 0.724600 0.977900
vt 0.724300 0.981000
vt 0.704200 0.977800
vt 0.703700 0.980800
vt 0.680900 0.980500
vt 0.681800 0.977400
vt 0.680600 0.983600
vt 0.682600 0.990200
vt 0.681300 0.986900
vt 0.195800 0.492200
vt 0.195100 0.494700
vt 0.218200 0.492600
vt 0.217800 0.495000
vt 0.195000 0.497200
vt 0.217500 0.497500
vt 0.238500 0.492700
vt 0.238300 0.495200
vt 0.238100 0.497600
vt 0.237700 0.502500
vt 0.237900 0.500100
vt 0.217600 0.502500
vt 0.217500 0.500000
vt 0.197500 0.502500
vt 0.196000 0.499800
vt 0.806100 0.977400
vt 0.807000 0.980500
vt 0.783600 0.977800
vt 0.784200 0.980800
vt 0.807300 0.983600
vt 0.784600 0.983900
vt 0.763200 0.977900
vt 0.763500 0.981000
vt 0.763800 0.984100
vt 0.764300 0.990200
vt 0.764100 0.987100
vt 0.784700 0.990200
vt 0.784700 0.987100
vt 0.805200 0.990200
vt 0.806500 0.986900
vn -0.0653 0.4948 0.8665
vn -0.0658 0.4950 0.8664
vn -0.0699 0.5309 0.8446
vn -0.0696 0.5299 0.8452
vn -0.0663 0.4952 0.8663
vn -0.0707 0.5306 0.8447
vn -0.0669 0.5662 0.8215
vn -0.0664 0.5663 0.8215
vn -0.0675 0.5670 0.8210
vn -0.0668 0.4954 0.8661
vn -0.0673 0.4955 0.8660
vn -0.0719 0.5308 0.8444
vn -0.0712 0.5307 0.8445
vn -0.0687 0.5675 0.8205
vn -0.0680 0.5670 0.8209
vn -0.0399 0.6089 0.7923
vn -0.0396 0.6086 0.7925
vn -0.0587 0.5970 0.8001
vn -0.0593 0.5973 0.7998
vn -0.0392 0.6084 0.7926
vn -0.0582 0.5966 0.8004
vn -0.0389 0.6082 0.7928
vn -0.0386 0.6080 0.7930
vn -0.0571 0.5962 0.8008
vn -0.0577 0.5963 0.8007
vn 0.0384 0.6073 0.7936
vn 0.0387 0.6075 0.7934
vn 0.0579 0.5959 0.8010
vn 0.0567 0.5956 0.8013
vn 0.0391 0.6077 0.7932
vn 0.0584 0.5962 0.8007
vn 0.0672 0.5661 0.8216
vn 0.0667 0.5660 0.8217
vn 0.0678 0.5665 0.8213
vn 0.0394 0.6079 0.7930
vn 0.0397 0.6081 0.7929
vn 0.0594 0.5969 0.8001
vn 0.0589 0.5966 0.8004
vn 0.0690 0.5671 0.8207
vn 0.0684 0.5668 0.8210
vn 0.0676 0.4951 0.8662
vn 0.0671 0.4950 0.8663
vn 0.0716 0.5303 0.8448
vn 0.0722 0.5305 0.8446
vn 0.0666 0.4949 0.8664
vn 0.0709 0.5297 0.8452
vn 0.0661 0.4946 0.8666
vn 0.0656 0.4944 0.8668
vn 0.0699 0.5296 0.8454
vn 0.0703 0.5298 0.8452
vn 0.0500 0.5520 0.8323
vn 0.0501 0.5520 0.8323
vn -0.0508 0.5504 0.8334
vn -0.0508 0.5504 0.8333
vn -0.0507 0.5505 0.8333
vn -0.0507 0.5504 0.8333
vn 0.0001 0.4435 0.8963
vn 0.0001 0.4433 0.8964
vn -0.0171 0.4456 0.8951
vn -0.0172 0.4454 0.8952
vn 0.0001 0.4437 0.8962
vn -0.0170 0.4462 0.8948
vn -0.0362 0.4532 0.8907
vn -0.0360 0.4532 0.8907
vn -0.0363 0.4533 0.8906
vn 0.0001 0.4430 0.8965
vn 0.0001 0.4436 0.8962
vn -0.0177 0.4451 0.8953
vn -0.0368 0.4533 0.8906
vn -0.0366 0.4533 0.8906
vn -0.0540 0.4696 0.8812
vn -0.0542 0.4698 0.8811
vn -0.0536 0.4695 0.8813
vn -0.0529 0.4694 0.8814
vn -0.0533 0.4694 0.8814
vn 0.1270 0.9548 -0.2687
vn 0.1277 0.9546 -0.2691
vn 0.0998 0.9660 -0.2385
vn 0.0994 0.9661 -0.2381
vn 0.1283 0.9545 -0.2692
vn 0.1000 0.9660 -0.2384
vn 0.0839 0.9711 -0.2232
vn 0.0835 0.9714 -0.2223
vn 0.0838 0.9712 -0.2228
vn 0.1290 0.9543 -0.2694
vn 0.1294 0.9542 -0.2696
vn 0.1005 0.9659 -0.2385
vn 0.1003 0.9659 -0.2386
vn 0.0836 0.9713 -0.2226
vn 0.0838 0.9713 -0.2227
vn 0.0559 0.9759 -0.2110
vn 0.0562 0.9758 -0.2111
vn 0.0706 0.9740 -0.2153
vn 0.0707 0.9740 -0.2153
vn 0.0558 0.9759 -0.2108
vn 0.0707 0.9739 -0.2157
vn 0.0553 0.9761 -0.2103
vn 0.0559 0.9758 -0.2112
vn 0.0710 0.9739 -0.2154
vn 0.0706 0.9741 -0.2149
vn -0.0574 0.9762 -0.2091
vn -0.0558 0.9761 -0.2099
vn -0.0708 0.9743 -0.2140
vn -0.0555 0.9762 -0.2095
vn -0.0708 0.9741 -0.2145
vn -0.0839 0.9716 -0.2212
vn -0.0840 0.9716 -0.2213
vn -0.0558 0.9764 -0.2089
vn -0.0561 0.9761 -0.2098
vn -0.0709 0.9743 -0.2140
vn -0.0709 0.9743 -0.2138
vn -0.0842 0.9716 -0.2213
vn -0.0841 0.9715 -0.2214
vn -0.1289 0.9547 -0.2684
vn -0.1302 0.9544 -0.2687
vn -0.1008 0.9662 -0.2374
vn -0.1011 0.9661 -0.2375
vn -0.1295 0.9545 -0.2685
vn -0.1006 0.9662 -0.2373
vn -0.1289 0.9547 -0.2683
vn -0.1281 0.9549 -0.2680
vn -0.1000 0.9663 -0.2370
vn -0.1004 0.9662 -0.2373
vn 0.2616 0.9028 -0.3413
vn 0.2628 0.9024 -0.3416
vn 0.2605 0.9032 -0.3410
vn 0.2581 0.9042 -0.3404
vn 0.2593 0.9037 -0.3407
vn -0.2616 0.9032 -0.3404
vn -0.2604 0.9036 -0.3400
vn -0.2628 0.9027 -0.3407
vn -0.2651 0.9018 -0.3413
vn -0.2640 0.9022 -0.3410
vn -0.0001 0.9801 -0.1983
vn -0.0001 0.9800 -0.1991
vn -0.0073 0.9800 -0.1990
vn -0.0076 0.9801 -0.1983
vn -0.0001 0.9799 -0.1993
vn -0.0073 0.9799 -0.1992
vn -0.0207 0.9796 -0.1999
vn -0.0217 0.9793 -0.2011
vn -0.0207 0.9795 -0.2002
vn -0.0001 0.9803 -0.1977
vn -0.0001 0.9802 -0.1979
vn -0.0073 0.9801 -0.1984
vn -0.0072 0.9802 -0.1977
vn -0.0209 0.9794 -0.2007
vn -0.0208 0.9794 -0.2008
vn -0.0377 0.9782 -0.2044
vn -0.0381 0.9781 -0.2047
vn -0.0382 0.9781 -0.2048
vn -0.0393 0.9781 -0.2045
vn -0.0377 0.9783 -0.2039
vn 0.0544 0.4692 0.8814
vn 0.0542 0.4692 0.8814
vn 0.0369 0.4530 0.8907
vn 0.0368 0.4531 0.8907
vn 0.0538 0.4691 0.8815
vn 0.0366 0.4529 0.8908
vn 0.0176 0.4450 0.8954
vn 0.0173 0.4452 0.8953
vn 0.0175 0.4450 0.8954
vn 0.0173 0.4451 0.8953
vn 0.0174 0.4450 0.8954
vn 0.0362 0.4530 0.8908
vn 0.0364 0.4529 0.8908
vn 0.0531 0.4689 0.8817
vn 0.0535 0.4691 0.8815
vn 0.0379 0.9779 -0.2057
vn 0.0381 0.9779 -0.2056
vn 0.0211 0.9793 -0.2015
vn 0.0218 0.9792 -0.2015
vn 0.0382 0.9779 -0.2056
vn 0.0206 0.9795 -0.2006
vn 0.0071 0.9799 -0.1994
vn 0.0070 0.9799 -0.1995
vn 0.0070 0.9800 -0.1990
vn 0.0073 0.9800 -0.1988
vn 0.0071 0.9801 -0.1985
vn 0.0210 0.9793 -0.2014
vn 0.0208 0.9793 -0.2011
vn 0.0382 0.9779 -0.2057
usemtl _10272_Bread_Plate_v1_a10272_Bread_Plate_v1
s 1
f 1/1/1 2/2/2 3/3/3 4/4/4
f 2/2/2 5/5/5 6/6/6 3/3/3
f 4/4/4 3/3/3 7/7/7 8/8/8
f 3/3/3 6/6/6 9/9/9 7/7/7
f 10/10/10 11/11/11 12/12/12 13/13/13
f 13/13/13 12/12/12 14/14/14 15/15/15
f 5/5/5 10/10/10 13/13/13 6/6/6
f 6/6/6 13/13/13 15/15/15 9/9/9
f 16/16/16 17/17/17 18/18/18 19/19/19
f 17/17/17 20/20/20 21/21/21 18/18/18
f 19/19/19 18/18/18 15/15/15 14/14/14
f 18/18/18 21/21/21 9/9/9 15/15/15
f 22/22/22 23/23/23 24/24/24 25/25/25
f 25/25/25 24/24/24 8/8/8 7/7/7
f 20/20/20 22/22/22 25/25/25 21/21/21
f 21/21/21 25/25/25 7/7/7 9/9/9
f 26/26/26 27/27/27 28/28/28 29/29/29
f 27/27/27 30/30/30 31/31/31 28/28/28
f 29/29/29 28/28/28 32/32/32 33/33/33
f 28/28/28 31/31/31 34/34/34 32/32/32
f 35/35/35 36/36/36 37/37/37 38/38/38
f 38/38/38 37/37/37 39/39/39 40/40/40
f 30/30/30 35/35/35 38/38/38 31/31/31
f 31/31/31 38/38/38 40/40/40 34/34/34
f 41/41/41 42/42/42 43/43/43 44/44/44
f 42/42/42 45/45/45 46/46/46 43/43/43
f 44/44/44 43/43/43 40/40/40 39/39/39
f 43/43/43 46/46/46 34/34/34 40/40/40
f 47/47/47 48/48/48 49/49/49 50/50/50
f 50/50/50 49/49/49 33/33/33 32/32/32
f 45/45/45 47/47/47 50/50/50 46/46/46
f 46/46/46 50/50/50 32/32/32 34/34/34
f 23/23/23 22/22/22 51/51/51 52/52/51
f 22/22/22 20/20/20 53/53/51 51/51/51
f 17/17/17 16/16/16 54/54/52 55/55/52
f 20/20/20 17/17/17 55/55/52 53/53/51
f 36/36/36 35/35/35 56/56/53 57/57/53
f 35/35/35 30/30/30 58/58/54 56/56/53
f 27/27/27 26/26/26 59/59/55 60/60/56
f 30/30/30 27/27/27 60/60/56 58/58/54
f 61/61/57 62/62/58 63/63/59 64/64/60
f 62/62/58 65/65/61 66/66/62 63/63/59
f 64/64/60 63/63/59 67/67/63 68/68/64
f 63/63/59 66/66/62 69/69/65 67/67/63
f 70/70/66 71/71/67 72/72/68 73/73/59
f 73/73/59 72/72/68 74/74/69 75/75/70
f 65/65/61 70/70/66 73/73/59 66/66/62
f 66/66/62 73/73/59 75/75/70 69/69/65
f 11/11/11 10/10/10 76/76/71 77/77/72
f 10/10/10 5/5/5 78/78/73 76/76/71
f 77/77/72 76/76/71 75/75/70 74/74/69
f 76/76/71 78/78/73 69/69/65 75/75/70
f 2/2/2 1/1/1 79/79/74 80/80/75
f 80/80/75 79/79/74 68/68/64 67/67/63
f 5/5/5 2/2/2 80/80/75 78/78/73
f 78/78/73 80/80/75 67/67/63 69/69/65
f 23/81/76 81/82/77 82/83/78 24/84/79
f 81/82/77 83/85/80 84/86/81 82/83/78
f 24/84/79 82/83/78 85/87/82 8/88/83
f 82/83/78 84/86/81 86/89/84 85/87/82
f 87/90/85 88/91/86 89/92/87 90/93/88
f 90/93/88 89/92/87 91/94/89 92/95/90
f 83/85/80 87/90/85 90/93/88 84/86/81
f 84/86/81 90/93/88 92/95/90 86/89/84
f 93/96/91 94/97/92 95/98/93 96/99/94
f 94/97/92 97/100/95 98/101/96 95/98/93
f 96/99/94 95/98/93 92/95/90 91/94/89
f 95/98/93 98/101/96 86/89/84 92/95/90
f 99/102/97 1/103/98 4/104/99 100/105/100
f 100/105/100 4/104/99 8/88/83 85/87/82
f 97/100/95 99/102/97 100/105/100 98/101/96
f 98/101/96 100/105/100 85/87/82 86/89/84
f 48/106/101 101/107/102 102/108/103 49/109/103
f 101/107/102 103/110/104 104/111/105 102/108/103
f 49/109/103 102/108/103 105/112/106 33/113/106
f 102/108/103 104/111/105 106/114/107 105/112/106
f 107/115/108 108/116/109 109/117/110 110/118/111
f 110/118/111 109/117/110 111/119/112 112/120/113
f 103/110/104 107/115/108 110/118/111 104/111/105
f 104/111/105 110/118/111 112/120/113 106/114/107
f 113/121/114 114/122/115 115/123/116 116/124/117
f 114/122/115 117/125/118 118/126/119 115/123/116
f 116/124/117 115/123/116 112/120/113 111/119/112
f 115/123/116 118/126/119 106/114/107 112/120/113
f 119/127/120 26/128/121 29/129/122 120/130/123
f 120/130/123 29/129/122 33/113/106 105/112/106
f 117/125/118 119/127/120 120/130/123 118/126/119
f 118/126/119 120/130/123 105/112/106 106/114/107
f 88/91/86 87/90/85 121/131/124 122/132/125
f 87/90/85 83/85/80 123/133/126 121/131/124
f 81/82/77 23/81/76 52/134/127 124/135/128
f 83/85/80 81/82/77 124/135/128 123/133/126
f 26/128/121 119/127/120 125/136/129 59/137/130
f 119/127/120 117/125/118 126/138/131 125/136/129
f 114/122/115 113/121/114 127/139/132 128/140/133
f 117/125/118 114/122/115 128/140/133 126/138/131
f 61/141/134 129/142/135 130/143/136 131/144/137
f 129/142/135 132/145/138 133/146/139 130/143/136
f 131/144/137 130/143/136 134/147/140 135/148/141
f 130/143/136 133/146/139 136/149/142 134/147/140
f 137/150/143 138/151/144 139/152/145 140/153/146
f 140/153/146 139/152/145 141/154/147 142/155/148
f 132/145/138 137/150/143 140/153/146 133/146/139
f 133/146/139 140/153/146 142/155/148 136/149/142
f 108/116/109 107/115/108 143/156/149 144/157/150
f 107/115/108 103/110/104 145/158/151 143/156/149
f 144/157/150 143/156/149 142/155/148 141/154/147
f 143/156/149 145/158/151 136/149/142 142/155/148
f 101/107/102 48/106/101 146/159/152 147/160/153
f 147/160/153 146/159/152 135/148/141 134/147/140
f 103/110/104 101/107/102 147/160/153 145/158/151
f 145/158/151 147/160/153 134/147/140 136/149/142
f 41/41/41 148/161/154 149/162/155 42/42/42
f 148/161/154 150/163/156 151/164/157 149/162/155
f 42/42/42 149/162/155 152/165/158 45/45/45
f 149/162/155 151/164/157 153/166/159 152/165/158
f 154/167/160 71/71/67 70/70/66 155/168/161
f 155/168/161 70/70/66 65/65/61 156/169/162
f 150/163/156 154/167/160 155/168/161 151/164/157
f 151/164/157 155/168/161 156/169/162 153/166/159
f 61/61/57 131/170/163 157/171/164 62/62/58
f 131/170/163 135/172/165 158/173/166 157/171/164
f 62/62/58 157/171/164 156/169/162 65/65/61
f 157/171/164 158/173/166 153/166/159 156/169/162
f 146/174/167 48/48/48 47/47/47 159/175/168
f 159/175/168 47/47/47 45/45/45 152/165/158
f 135/172/165 146/174/167 159/175/168 158/173/166
f 158/173/166 159/175/168 152/165/158 153/166/159
f 93/96/91 160/176/169 161/177/170 94/97/92
f 160/176/169 162/178/171 163/179/172 161/177/170
f 94/97/92 161/177/170 164/180/173 97/100/95
f 161/177/170 163/179/172 165/181/174 164/180/173
f 166/182/175 138/151/144 137/150/143 167/183/176
f 167/183/176 137/150/143 132/145/138 168/184/177
f 162/178/171 166/182/175 167/183/176 163/179/172
f 163/179/172 167/183/176 168/184/177 165/181/174
f 61/141/134 64/185/178 169/186/179 129/142/135
f 64/185/178 68/187/180 170/188/181 169/186/179
f 129/142/135 169/186/179 168/184/177 132/145/138
f 169/186/179 170/188/181 165/181/174 168/184/177
f 79/189/182 1/103/98 99/102/97 171/190/182
f 171/190/182 99/102/97 97/100/95 164/180/173
f 68/187/180 79/189/182 171/190/182 170/188/181
f 170/188/181 171/190/182 164/180/173 165/181/174
