# SSTK version 0.8.0
# 210
mtllib original-210.mtl
o Group9/mesh100/mesh100-geometry/material_1/component_18#mesh100-geometry
v -0.103024 0.246092 0.843299
v -0.109899 0.215138 0.842704
v -0.112742 0.236490 0.843101
v -0.103024 0.245497 0.875955
v -0.099521 0.241977 0.875889
v -0.103024 0.246092 0.843299
v -0.112742 0.236490 0.843101
v -0.124046 0.218328 0.842771
v -0.124442 0.224922 0.842903
v -0.109899 0.215138 0.842704
v -0.114857 0.214824 0.842704
v -0.112742 0.236490 0.843101
v -0.105239 0.216840 0.842704
v -0.109899 0.215138 0.842704
v -0.103024 0.246092 0.843299
v -0.099521 0.242572 0.843233
v -0.103024 0.246092 0.843299
v -0.099521 0.241977 0.875889
v -0.127516 0.221881 0.842837
v -0.124442 0.224922 0.842903
v -0.124046 0.218328 0.842771
v -0.119716 0.215915 0.842704
v -0.124046 0.218328 0.842771
v -0.112742 0.236490 0.843101
v -0.114857 0.214824 0.842704
v -0.119716 0.215915 0.842704
v -0.112742 0.236490 0.843101
v -0.114857 0.214824 0.842704
v -0.109899 0.215138 0.842704
v -0.114857 0.214213 0.875360
v -0.109899 0.215138 0.842704
v -0.105239 0.216840 0.842704
v -0.109899 0.214543 0.875360
v -0.101239 0.219798 0.842771
v -0.105239 0.216840 0.842704
v -0.103024 0.246092 0.843299
v -0.099521 0.242572 0.843233
v -0.101239 0.219798 0.842771
v -0.103024 0.246092 0.843299
v -0.099521 0.242572 0.843233
v -0.099521 0.241977 0.875889
v -0.097141 0.238209 0.843101
v -0.127516 0.221881 0.842837
v -0.124046 0.218328 0.842771
v -0.127516 0.221269 0.875492
v -0.124046 0.218328 0.842771
v -0.119716 0.215915 0.842704
v -0.124046 0.217733 0.875426
v -0.119716 0.215915 0.842704
v -0.114857 0.214824 0.842704
v -0.119716 0.215320 0.875360
v -0.109899 0.214543 0.875360
v -0.114857 0.214213 0.875360
v -0.109899 0.215138 0.842704
v -0.114857 0.214213 0.875360
v -0.119716 0.215320 0.875360
v -0.114857 0.214824 0.842704
v -0.105239 0.216245 0.875426
v -0.109899 0.214543 0.875360
v -0.105239 0.216840 0.842704
v -0.105239 0.216840 0.842704
v -0.101239 0.219798 0.842771
v -0.105239 0.216245 0.875426
v -0.097141 0.237614 0.875757
v -0.097141 0.238209 0.843101
v -0.099521 0.241977 0.875889
v -0.098232 0.223748 0.842837
v -0.101239 0.219798 0.842771
v -0.099521 0.242572 0.843233
v -0.097141 0.238209 0.843101
v -0.098232 0.223748 0.842837
v -0.099521 0.242572 0.843233
v -0.124046 0.217733 0.875426
v -0.127516 0.221269 0.875492
v -0.124046 0.218328 0.842771
v -0.119716 0.215320 0.875360
v -0.124046 0.217733 0.875426
v -0.119716 0.215915 0.842704
v -0.101239 0.219204 0.875426
v -0.105239 0.216245 0.875426
v -0.101239 0.219798 0.842771
v -0.097141 0.238209 0.843101
v -0.097141 0.237614 0.875757
v -0.096116 0.233350 0.843035
v -0.096116 0.232755 0.875691
v -0.096116 0.233350 0.843035
v -0.097141 0.237614 0.875757
v -0.098232 0.223748 0.842837
v -0.098232 0.223153 0.875492
v -0.101239 0.219798 0.842771
v -0.096480 0.228409 0.842969
v -0.098232 0.223748 0.842837
v -0.097141 0.238209 0.843101
v -0.101239 0.219204 0.875426
v -0.101239 0.219798 0.842771
v -0.098232 0.223153 0.875492
v -0.096116 0.233350 0.843035
v -0.096480 0.228409 0.842969
v -0.097141 0.238209 0.843101
v -0.096116 0.233350 0.843035
v -0.096116 0.232755 0.875691
v -0.096480 0.228409 0.842969
v -0.096480 0.227797 0.875625
v -0.096480 0.228409 0.842969
v -0.096116 0.232755 0.875691
v -0.098232 0.223153 0.875492
v -0.098232 0.223748 0.842837
v -0.096480 0.227797 0.875625
v -0.096480 0.228409 0.842969
v -0.096480 0.227797 0.875625
v -0.098232 0.223748 0.842837
v -0.112742 0.236490 0.843101
v -0.109899 0.215138 0.842704
v -0.103024 0.246092 0.843299
v -0.103024 0.246092 0.843299
v -0.099521 0.241977 0.875889
v -0.103024 0.245497 0.875955
v -0.124442 0.224922 0.842903
v -0.124046 0.218328 0.842771
v -0.112742 0.236490 0.843101
v -0.112742 0.236490 0.843101
v -0.114857 0.214824 0.842704
v -0.109899 0.215138 0.842704
v -0.103024 0.246092 0.843299
v -0.109899 0.215138 0.842704
v -0.105239 0.216840 0.842704
v -0.099521 0.241977 0.875889
v -0.103024 0.246092 0.843299
v -0.099521 0.242572 0.843233
v -0.124046 0.218328 0.842771
v -0.124442 0.224922 0.842903
v -0.127516 0.221881 0.842837
v -0.112742 0.236490 0.843101
v -0.124046 0.218328 0.842771
v -0.119716 0.215915 0.842704
v -0.112742 0.236490 0.843101
v -0.119716 0.215915 0.842704
v -0.114857 0.214824 0.842704
v -0.114857 0.214213 0.875360
v -0.109899 0.215138 0.842704
v -0.114857 0.214824 0.842704
v -0.109899 0.214543 0.875360
v -0.105239 0.216840 0.842704
v -0.109899 0.215138 0.842704
v -0.103024 0.246092 0.843299
v -0.105239 0.216840 0.842704
v -0.101239 0.219798 0.842771
v -0.103024 0.246092 0.843299
v -0.101239 0.219798 0.842771
v -0.099521 0.242572 0.843233
v -0.097141 0.238209 0.843101
v -0.099521 0.241977 0.875889
v -0.099521 0.242572 0.843233
v -0.127516 0.221269 0.875492
v -0.124046 0.218328 0.842771
v -0.127516 0.221881 0.842837
v -0.124046 0.217733 0.875426
v -0.119716 0.215915 0.842704
v -0.124046 0.218328 0.842771
v -0.119716 0.215320 0.875360
v -0.114857 0.214824 0.842704
v -0.119716 0.215915 0.842704
v -0.109899 0.215138 0.842704
v -0.114857 0.214213 0.875360
v -0.109899 0.214543 0.875360
v -0.114857 0.214824 0.842704
v -0.119716 0.215320 0.875360
v -0.114857 0.214213 0.875360
v -0.105239 0.216840 0.842704
v -0.109899 0.214543 0.875360
v -0.105239 0.216245 0.875426
v -0.105239 0.216245 0.875426
v -0.101239 0.219798 0.842771
v -0.105239 0.216840 0.842704
v -0.099521 0.241977 0.875889
v -0.097141 0.238209 0.843101
v -0.097141 0.237614 0.875757
v -0.099521 0.242572 0.843233
v -0.101239 0.219798 0.842771
v -0.098232 0.223748 0.842837
v -0.099521 0.242572 0.843233
v -0.098232 0.223748 0.842837
v -0.097141 0.238209 0.843101
v -0.124046 0.218328 0.842771
v -0.127516 0.221269 0.875492
v -0.124046 0.217733 0.875426
v -0.119716 0.215915 0.842704
v -0.124046 0.217733 0.875426
v -0.119716 0.215320 0.875360
v -0.101239 0.219798 0.842771
v -0.105239 0.216245 0.875426
v -0.101239 0.219204 0.875426
v -0.096116 0.233350 0.843035
v -0.097141 0.237614 0.875757
v -0.097141 0.238209 0.843101
v -0.097141 0.237614 0.875757
v -0.096116 0.233350 0.843035
v -0.096116 0.232755 0.875691
v -0.101239 0.219798 0.842771
v -0.098232 0.223153 0.875492
v -0.098232 0.223748 0.842837
v -0.097141 0.238209 0.843101
v -0.098232 0.223748 0.842837
v -0.096480 0.228409 0.842969
v -0.098232 0.223153 0.875492
v -0.101239 0.219798 0.842771
v -0.101239 0.219204 0.875426
v -0.097141 0.238209 0.843101
v -0.096480 0.228409 0.842969
v -0.096116 0.233350 0.843035
v -0.096480 0.228409 0.842969
v -0.096116 0.232755 0.875691
v -0.096116 0.233350 0.843035
v -0.096116 0.232755 0.875691
v -0.096480 0.228409 0.842969
v -0.096480 0.227797 0.875625
v -0.096480 0.227797 0.875625
v -0.098232 0.223748 0.842837
v -0.098232 0.223153 0.875492
v -0.098232 0.223748 0.842837
v -0.096480 0.227797 0.875625
v -0.096480 0.228409 0.842969
vt 23.026447296142578 114.54460906982422
vt 22.040531158447266 109.3778076171875
vt 21.508817672729492 112.9118423461914
vt -59.64054489135742 5.71999979019165
vt -58.847232818603516 5.71999979019165
vt -59.64054489135742 2.2750000953674316
vt 19.77113914489746 109.85526275634766
vt 19.684389114379883 110.94900512695312
vt 21.250198364257812 109.306396484375
vt 22.77931022644043 109.67842102050781
vt -58.847232818603516 2.2750000953674316
vt 19.202800750732422 110.43087768554688
vt 20.472639083862305 109.46998596191406
vt -30.268035888671875 2.2750000953674316
vt -31.06134796142578 2.2750000953674316
vt -30.268035888671875 5.71999979019165
vt -58.84501647949219 2.2750000953674316
vt -59.638328552246094 2.2750000953674316
vt -58.84501647949219 5.71999979019165
vt 23.406404495239258 110.18375396728516
vt 23.598865509033203 113.973388671875
vt -83.39514923095703 2.2750000953674316
vt -83.39514923095703 5.71999979019165
vt -82.60183715820312 2.2750000953674316
vt 60.324527740478516 2.2750000953674316
vt 59.53121566772461 2.2750000953674316
vt 60.324527740478516 5.71999979019165
vt 31.844514846801758 2.2750000953674316
vt 31.05120277404785 2.2750000953674316
vt 31.844514846801758 5.71999979019165
vt 0.8048509955406189 2.2750000953674316
vt 0.011540000326931477 2.2750000953674316
vt 0.8048509955406189 5.71999979019165
vt -31.06134796142578 5.71999979019165
vt 0.011540000326931477 5.71999979019165
vt -59.638328552246094 5.71999979019165
vt -82.60011291503906 2.2750000953674316
vt -83.39342498779297 2.2750000953674316
vt -82.60011291503906 5.71999979019165
vt -82.60183715820312 5.71999979019165
vt 23.870769500732422 110.8526840209961
vt 23.992891311645508 113.25730895996094
vt 59.53121566772461 5.71999979019165
vt 31.05120277404785 5.71999979019165
vt -83.39342498779297 5.71999979019165
vt -100.39421844482422 2.2750000953674316
vt -100.39421844482422 5.71999979019165
vt -99.60090637207031 2.2750000953674316
vt -99.60090637207031 5.71999979019165
vt -100.39311981201172 2.2750000953674316
vt -100.39311981201172 5.71999979019165
vt -99.59980773925781 2.2750000953674316
vt 24.134611129760742 111.6307601928711
vt -99.59980773925781 5.71999979019165
vt 24.17645263671875 112.45465087890625
vt -109.2541275024414 2.2750000953674316
vt -109.2541275024414 5.71999979019165
vt -108.4608154296875 2.2750000953674316
vt -108.4608154296875 5.71999979019165
vt -108.46044158935547 5.71999979019165
vt -108.46044158935547 2.2750000953674316
vt -109.25375366210938 5.71999979019165
vt -109.25375366210938 2.2750000953674316
vt 21.508817672729492 110.6175537109375
vt 22.040531158447266 107.15532684326172
vt 23.026447296142578 112.21714782714844
vt 0 0
vt 0.7960270047187805 3.375
vt 0 3.375
vt 19.684389114379883 108.69459533691406
vt 19.77113914489746 107.62308502197266
vt 21.250198364257812 107.08536529541016
vt 22.77931022644043 107.4498291015625
vt 0.7960270047187805 0
vt 19.202800750732422 108.18700408935547
vt 20.472639083862305 107.2456283569336
vt 7.164238929748535 3.375
vt 6.3682122230529785 0
vt 7.164238929748535 0
vt 6.3682122230529785 3.375
vt 5.57218599319458 0
vt 23.406404495239258 107.94489288330078
vt 23.598865509033203 111.65753173828125
vt 1.5920530557632446 0
vt 9.55231761932373 3.375
vt 8.756292343139648 0
vt 9.55231761932373 0
vt 8.756292343139648 3.375
vt 7.960265159606934 0
vt 7.960265159606934 3.375
vt 5.57218599319458 3.375
vt 4.776158809661865 0
vt 1.5920530557632446 3.375
vt 23.870769500732422 108.60023498535156
vt 23.992891311645508 110.95600128173828
vt 4.776158809661865 3.375
vt 2.388079881668091 0
vt 2.388079881668091 3.375
vt 3.980133056640625 3.375
vt 3.980133056640625 0
vt 24.134611129760742 109.36250305175781
vt 24.17645263671875 110.1696548461914
vt 3.1841061115264893 0
vt 3.1841061115264893 3.375
vn 0.00010300003932064134 0.01836100762282291 -0.9998314171849504
vn 0.7084518344055492 0.705638853403183 0.013030997477313462
vn 0.8018821087607556 0.597380042204131 0.01105300075067299
vn -0.07893901629566463 -0.996711243148595 -0.018312003916975413
vn 0.20576996163617686 -0.978435806897483 -0.01794699610290201
vn 0.47373101768078174 -0.8805220248450957 -0.016121000273663033
vn 0.937963809085955 0.34667293302743185 0.006462998617030444
vn -0.7136539520469563 -0.7003789849278367 -0.012934999003246352
vn -0.60643208237561 -0.795000097589646 -0.014662001842680551
vn -0.3572229982583371 -0.9338610019486799 -0.01718599879936632
vn 0.70313340770973 -0.7109394154738129 -0.012983007673725754
vn 0.9977014853533894 0.06774903477396285 0.0013470006819702952
vn 0.8753051568343476 -0.4834910918188662 -0.008789001706623913
vn 0.9762327685468388 -0.21668995127124485 -0.0038789990255156228
vn -0.00010300003932064134 -0.01836100762282291 0.9998314171849504
vn -0.7084518344055492 -0.705638853403183 -0.013030997477313462
vn -0.8018821087607556 -0.597380042204131 -0.01105300075067299
vn 0.07893901629566463 0.996711243148595 0.018312003916975413
vn -0.20576996163617686 0.978435806897483 0.01794699610290201
vn -0.47373101768078174 0.8805220248450957 0.016121000273663033
vn -0.937963809085955 -0.34667293302743185 -0.006462998617030444
vn 0.7136539520469563 0.7003789849278367 0.012934999003246352
vn 0.60643208237561 0.795000097589646 0.014662001842680551
vn 0.3572229982583371 0.9338610019486799 0.01718599879936632
vn -0.70313340770973 0.7109394154738129 0.012983007673725754
vn -0.9977014853533894 -0.06774903477396285 -0.0013470006819702952
vn -0.8753051568343476 0.4834910918188662 0.008789001706623913
vn -0.9762327685468388 0.21668995127124485 0.0038789990255156228
usemtl material_0_0
f 1/1/1 2/2/1 3/3/1
f 4/4/2 5/5/3 6/6/2
f 7/3/1 8/7/1 9/8/1
f 10/2/1 11/9/1 12/3/1
f 13/10/1 14/2/1 15/1/1
f 16/11/3 17/6/2 18/5/3
f 19/12/1 20/8/1 21/7/1
f 22/13/1 23/7/1 24/3/1
f 25/9/1 26/13/1 27/3/1
f 28/14/4 29/15/5 30/16/4
f 31/17/5 32/18/6 33/19/5
f 34/20/1 35/10/1 36/1/1
f 37/21/1 38/20/1 39/1/1
f 40/22/3 41/23/3 42/24/7
f 43/25/8 44/26/9 45/27/8
f 46/28/9 47/29/10 48/30/9
f 49/31/10 50/32/4 51/33/10
f 52/34/5 53/16/4 54/15/5
f 55/35/4 56/33/10 57/32/4
f 58/36/6 59/19/5 60/18/6
f 61/37/6 62/38/11 63/39/6
f 64/40/7 65/24/7 66/23/3
f 67/41/1 68/20/1 69/21/1
f 70/42/1 71/41/1 72/21/1
f 73/43/9 74/27/8 75/26/9
f 76/44/10 77/30/9 78/29/10
f 79/45/11 80/39/6 81/38/11
f 82/46/7 83/47/7 84/48/12
f 85/49/12 86/48/12 87/47/7
f 88/50/13 89/51/13 90/52/11
f 91/53/1 92/41/1 93/42/1
f 94/54/11 95/52/11 96/51/13
f 97/55/1 98/53/1 99/42/1
f 100/56/12 101/57/12 102/58/14
f 103/59/14 104/58/14 105/57/12
f 106/60/13 107/61/13 108/62/14
f 109/63/14 110/62/14 111/61/13
usemtl material_1_0
f 112/64/15 113/65/15 114/66/15
f 115/67/16 116/68/17 117/69/16
f 118/70/15 119/71/15 120/64/15
f 121/64/15 122/72/15 123/65/15
f 124/66/15 125/65/15 126/73/15
f 127/68/17 128/67/16 129/74/17
f 130/71/15 131/70/15 132/75/15
f 133/64/15 134/71/15 135/76/15
f 136/64/15 137/76/15 138/72/15
f 139/77/18 140/78/19 141/79/18
f 142/80/19 143/81/20 144/78/19
f 145/66/15 146/73/15 147/82/15
f 148/66/15 149/82/15 150/83/15
f 151/84/21 152/68/17 153/74/17
f 154/85/22 155/86/23 156/87/22
f 157/88/23 158/89/24 159/86/23
f 160/90/24 161/79/18 162/89/24
f 163/78/19 164/77/18 165/80/19
f 166/79/18 167/90/24 168/77/18
f 169/81/20 170/80/19 171/91/20
f 172/91/20 173/92/25 174/81/20
f 175/68/17 176/84/21 177/93/21
f 178/83/15 179/82/15 180/94/15
f 181/83/15 182/94/15 183/95/15
f 184/86/23 185/85/22 186/88/23
f 187/89/24 188/88/23 189/90/24
f 190/92/25 191/91/20 192/96/25
f 193/97/26 194/93/21 195/84/21
f 196/93/21 197/97/26 198/98/26
f 199/92/25 200/99/27 201/100/27
f 202/95/15 203/94/15 204/101/15
f 205/99/27 206/92/25 207/96/25
f 208/95/15 209/101/15 210/102/15
f 211/103/28 212/98/26 213/97/26
f 214/98/26 215/103/28 216/104/28
f 217/104/28 218/100/27 219/99/27
f 220/100/27 221/104/28 222/103/28
