# SSTK version 0.8.0
# 245
mtllib original-245.mtl
o Group9/mesh100/mesh100-geometry/material_1/component_53#mesh100-geometry
v -0.217220 -0.179541 0.868089
v -0.217220 -0.178946 0.835433
v -0.217815 -0.174682 0.868221
v -0.217815 -0.174682 0.868221
v -0.217815 -0.174087 0.835565
v -0.219666 -0.170154 0.868287
v -0.217815 -0.174087 0.835565
v -0.217815 -0.174682 0.868221
v -0.217220 -0.178946 0.835433
v -0.217220 -0.178946 0.835433
v -0.217220 -0.179541 0.868089
v -0.217881 -0.183805 0.835367
v -0.217881 -0.184400 0.868023
v -0.217881 -0.183805 0.835367
v -0.217220 -0.179541 0.868089
v -0.219666 -0.169559 0.835631
v -0.219666 -0.170154 0.868287
v -0.217815 -0.174087 0.835565
v -0.217220 -0.178946 0.835433
v -0.217881 -0.183805 0.835367
v -0.217815 -0.174087 0.835565
v -0.219799 -0.188928 0.867957
v -0.219765 -0.188333 0.835301
v -0.217881 -0.184400 0.868023
v -0.217881 -0.183805 0.835367
v -0.217881 -0.184400 0.868023
v -0.219765 -0.188333 0.835301
v -0.219666 -0.170154 0.868287
v -0.219666 -0.169559 0.835631
v -0.222641 -0.166254 0.868353
v -0.217815 -0.174087 0.835565
v -0.219765 -0.188333 0.835301
v -0.219666 -0.169559 0.835631
v -0.217881 -0.183805 0.835367
v -0.219765 -0.188333 0.835301
v -0.217815 -0.174087 0.835565
v -0.219765 -0.188333 0.835301
v -0.219799 -0.188928 0.867957
v -0.222773 -0.192200 0.835235
v -0.231235 -0.197026 0.835102
v -0.226706 -0.195175 0.835169
v -0.231235 -0.197621 0.867758
v -0.226706 -0.195770 0.867824
v -0.231235 -0.197621 0.867758
v -0.226706 -0.195175 0.835169
v -0.222641 -0.165626 0.835697
v -0.222641 -0.166254 0.868353
v -0.219666 -0.169559 0.835631
v -0.219765 -0.188333 0.835301
v -0.222773 -0.192200 0.835235
v -0.219666 -0.169559 0.835631
v -0.222773 -0.192795 0.867890
v -0.222773 -0.192200 0.835235
v -0.219799 -0.188928 0.867957
v -0.222773 -0.192795 0.867890
v -0.226706 -0.195770 0.867824
v -0.222773 -0.192200 0.835235
v -0.226706 -0.195175 0.835169
v -0.231235 -0.197026 0.835102
v -0.226508 -0.162651 0.835763
v -0.226706 -0.195175 0.835169
v -0.222773 -0.192200 0.835235
v -0.226706 -0.195770 0.867824
v -0.231036 -0.161329 0.868419
v -0.226508 -0.163246 0.868419
v -0.231036 -0.160734 0.835763
v -0.226508 -0.163246 0.868419
v -0.222641 -0.166254 0.868353
v -0.226508 -0.162651 0.835763
v -0.222641 -0.165626 0.835697
v -0.226508 -0.162651 0.835763
v -0.222641 -0.166254 0.868353
v -0.219666 -0.169559 0.835631
v -0.222773 -0.192200 0.835235
v -0.222641 -0.165626 0.835697
v -0.226508 -0.162651 0.835763
v -0.231235 -0.197026 0.835102
v -0.231036 -0.160734 0.835763
v -0.222641 -0.165626 0.835697
v -0.226706 -0.195175 0.835169
v -0.226508 -0.162651 0.835763
v -0.240754 -0.160668 0.835763
v -0.235895 -0.160073 0.835830
v -0.231235 -0.197026 0.835102
v -0.222773 -0.192200 0.835235
v -0.226706 -0.195175 0.835169
v -0.222641 -0.165626 0.835697
v -0.226508 -0.162651 0.835763
v -0.231036 -0.160734 0.835763
v -0.226508 -0.163246 0.868419
v -0.231036 -0.160734 0.835763
v -0.235895 -0.160073 0.835830
v -0.231036 -0.161329 0.868419
v -0.231036 -0.160734 0.835763
v -0.231235 -0.197026 0.835102
v -0.235895 -0.160073 0.835830
v -0.235895 -0.160073 0.835830
v -0.240754 -0.160668 0.835763
v -0.235895 -0.160668 0.868485
v -0.235895 -0.160668 0.868485
v -0.231036 -0.161329 0.868419
v -0.235895 -0.160073 0.835830
v -0.240754 -0.161263 0.868419
v -0.235895 -0.160668 0.868485
v -0.240754 -0.160668 0.835763
v -0.217815 -0.174682 0.868221
v -0.217220 -0.178946 0.835433
v -0.217220 -0.179541 0.868089
v -0.219666 -0.170154 0.868287
v -0.217815 -0.174087 0.835565
v -0.217815 -0.174682 0.868221
v -0.217220 -0.178946 0.835433
v -0.217815 -0.174682 0.868221
v -0.217815 -0.174087 0.835565
v -0.217881 -0.183805 0.835367
v -0.217220 -0.179541 0.868089
v -0.217220 -0.178946 0.835433
v -0.217220 -0.179541 0.868089
v -0.217881 -0.183805 0.835367
v -0.217881 -0.184400 0.868023
v -0.217815 -0.174087 0.835565
v -0.219666 -0.170154 0.868287
v -0.219666 -0.169559 0.835631
v -0.217815 -0.174087 0.835565
v -0.217881 -0.183805 0.835367
v -0.217220 -0.178946 0.835433
v -0.217881 -0.184400 0.868023
v -0.219765 -0.188333 0.835301
v -0.219799 -0.188928 0.867957
v -0.219765 -0.188333 0.835301
v -0.217881 -0.184400 0.868023
v -0.217881 -0.183805 0.835367
v -0.222641 -0.166254 0.868353
v -0.219666 -0.169559 0.835631
v -0.219666 -0.170154 0.868287
v -0.219666 -0.169559 0.835631
v -0.219765 -0.188333 0.835301
v -0.217815 -0.174087 0.835565
v -0.217815 -0.174087 0.835565
v -0.219765 -0.188333 0.835301
v -0.217881 -0.183805 0.835367
v -0.222773 -0.192200 0.835235
v -0.219799 -0.188928 0.867957
v -0.219765 -0.188333 0.835301
v -0.231235 -0.197621 0.867758
v -0.226706 -0.195175 0.835169
v -0.231235 -0.197026 0.835102
v -0.226706 -0.195175 0.835169
v -0.231235 -0.197621 0.867758
v -0.226706 -0.195770 0.867824
v -0.219666 -0.169559 0.835631
v -0.222641 -0.166254 0.868353
v -0.222641 -0.165626 0.835697
v -0.219666 -0.169559 0.835631
v -0.222773 -0.192200 0.835235
v -0.219765 -0.188333 0.835301
v -0.219799 -0.188928 0.867957
v -0.222773 -0.192200 0.835235
v -0.222773 -0.192795 0.867890
v -0.222773 -0.192200 0.835235
v -0.226706 -0.195770 0.867824
v -0.222773 -0.192795 0.867890
v -0.226508 -0.162651 0.835763
v -0.231235 -0.197026 0.835102
v -0.226706 -0.195175 0.835169
v -0.226706 -0.195770 0.867824
v -0.222773 -0.192200 0.835235
v -0.226706 -0.195175 0.835169
v -0.231036 -0.160734 0.835763
v -0.226508 -0.163246 0.868419
v -0.231036 -0.161329 0.868419
v -0.226508 -0.162651 0.835763
v -0.222641 -0.166254 0.868353
v -0.226508 -0.163246 0.868419
v -0.222641 -0.166254 0.868353
v -0.226508 -0.162651 0.835763
v -0.222641 -0.165626 0.835697
v -0.222641 -0.165626 0.835697
v -0.222773 -0.192200 0.835235
v -0.219666 -0.169559 0.835631
v -0.231036 -0.160734 0.835763
v -0.231235 -0.197026 0.835102
v -0.226508 -0.162651 0.835763
v -0.226508 -0.162651 0.835763
v -0.226706 -0.195175 0.835169
v -0.222641 -0.165626 0.835697
v -0.231235 -0.197026 0.835102
v -0.235895 -0.160073 0.835830
v -0.240754 -0.160668 0.835763
v -0.222641 -0.165626 0.835697
v -0.226706 -0.195175 0.835169
v -0.222773 -0.192200 0.835235
v -0.226508 -0.163246 0.868419
v -0.231036 -0.160734 0.835763
v -0.226508 -0.162651 0.835763
v -0.231036 -0.161329 0.868419
v -0.235895 -0.160073 0.835830
v -0.231036 -0.160734 0.835763
v -0.235895 -0.160073 0.835830
v -0.231235 -0.197026 0.835102
v -0.231036 -0.160734 0.835763
v -0.235895 -0.160668 0.868485
v -0.240754 -0.160668 0.835763
v -0.235895 -0.160073 0.835830
v -0.235895 -0.160073 0.835830
v -0.231036 -0.161329 0.868419
v -0.235895 -0.160668 0.868485
v -0.240754 -0.160668 0.835763
v -0.235895 -0.160668 0.868485
v -0.240754 -0.161263 0.868419
vt -40.46251678466797 5.71999979019165
vt -40.46251678466797 2.2750000953674316
vt -41.24567413330078 5.71999979019165
vt -36.62516784667969 5.71999979019165
vt -36.62516784667969 2.2750000953674316
vt -37.4083251953125 5.71999979019165
vt -41.24567413330078 2.2750000953674316
vt -42.298885345458984 2.2750000953674316
vt -42.298885345458984 5.71999979019165
vt -41.51572799682617 2.2750000953674316
vt -41.51572799682617 5.71999979019165
vt -37.4083251953125 2.2750000953674316
vt 6.326062202453613 43.525047302246094
vt 6.237013816833496 42.715843200683594
vt 6.210693836212158 44.33064270019531
vt -39.7130241394043 5.71999979019165
vt -39.7130241394043 2.2750000953674316
vt -40.49618148803711 5.71999979019165
vt -40.49618148803711 2.2750000953674316
vt -30.265188217163086 5.71999979019165
vt -30.265188217163086 2.2750000953674316
vt -31.0483455657959 5.71999979019165
vt 5.949618816375732 41.95818328857422
vt 5.8987717628479 45.077735900878906
vt -35.960418701171875 2.2750000953674316
vt -35.960418701171875 5.71999979019165
vt -35.17726135253906 2.2750000953674316
vt -19.308149337768555 2.2750000953674316
vt -20.091306686401367 2.2750000953674316
vt -19.308149337768555 5.71999979019165
vt -20.091306686401367 5.71999979019165
vt -31.0483455657959 2.2750000953674316
vt 5.483461856842041 41.3036994934082
vt -35.17726135253906 5.71999979019165
vt -29.000694274902344 5.71999979019165
vt -28.21753692626953 5.71999979019165
vt -29.000694274902344 2.2750000953674316
vt 4.870312213897705 40.796993255615234
vt 4.151951789855957 40.47259521484375
vt 4.782242774963379 46.20021438598633
vt -28.21753692626953 2.2750000953674316
vt -12.636560440063477 5.71999979019165
vt -11.853403091430664 5.71999979019165
vt -12.636560440063477 2.2750000953674316
vt -22.599157333374023 5.71999979019165
vt -21.816001892089844 5.71999979019165
vt -22.599157333374023 2.2750000953674316
vt -21.816001892089844 2.2750000953674316
vt 5.411553859710693 45.71541213989258
vt 4.0537238121032715 46.499107360839844
vt 2.501033067703247 46.47173309326172
vt 3.2756459712982178 46.59171676635742
vt -11.853403091430664 2.2750000953674316
vt -1.0563299655914307 2.2750000953674316
vt -1.8394869565963745 2.2750000953674316
vt -1.0563299655914307 5.71999979019165
vt 9.839415550231934 2.2750000953674316
vt 9.056258201599121 2.2750000953674316
vt 9.839415550231934 5.71999979019165
vt -1.8394869565963745 5.71999979019165
vt 9.056258201599121 5.71999979019165
vt 4.71238899230957 3.375
vt 5.497786998748779 0
vt 5.497786998748779 3.375
vt 3.9269909858703613 3.375
vt 4.71238899230957 0
vt 6.283185005187988 0
vt 6.283185005187988 3.375
vt 3.9269909858703613 0
vt 6.210693836212158 43.429874420166016
vt 6.237013816833496 41.8478889465332
vt 6.326062202453613 42.640647888183594
vt 7.068583011627197 0
vt 7.068583011627197 3.375
vt 3.1415929794311523 3.375
vt 5.8987717628479 44.16178894042969
vt 5.949618816375732 41.10562515258789
vt 7.853981971740723 0
vt 9.42477798461914 3.375
vt 8.63938045501709 0
vt 9.42477798461914 0
vt 8.63938045501709 3.375
vt 3.1415929794311523 0
vt 5.483461856842041 40.464439392089844
vt 7.853981971740723 3.375
vt 4.782242774963379 45.26145935058594
vt 4.151951789855957 39.65022277832031
vt 4.870312213897705 39.9680290222168
vt 1.570796012878418 0
vt 2.356194019317627 3.375
vt 1.570796012878418 3.375
vt 2.356194019317627 0
vt 5.411553859710693 44.78650665283203
vt 4.0537238121032715 45.55427932739258
vt 3.2756459712982178 45.64500427246094
vt 2.501033067703247 45.527462005615234
vt 0.785398006439209 0
vt 0.785398006439209 3.375
vt 0 0
vt 0 3.375
vn 0.9999842974611367 -0.005604001352325941 0
vn 0.9673609183514462 0.25335799207074844 0.004751999592280838
vn 0.8688137690864424 0.4950538798177512 0.009180997941502296
vn 0.9644602936157485 -0.26418508762399623 -0.004752001233799338
vn 0.00010300003932064134 0.01836100762282291 -0.9998314171849504
vn 0.8632102463809209 -0.5047611115497012 -0.009181002674009621
vn 0.711058251990693 0.7030132316533414 0.012983004130989734
vn 0.70313340770973 -0.7109394154738129 -0.012983007673725754
vn 0.37750005324029684 -0.9258541636955134 -0.01696400221806684
vn 0.4951391012221095 -0.8686681924425816 -0.015901002468381605
vn 0.26422802701821707 0.9642971450636548 0.017736001808322154
vn 0.5048448232708069 0.8630636493549608 0.01590099301191485
vn 0.00560399824505644 0.9998157175503992 0.018360995148669214
vn -0.12496894949537102 0.991993637232388 0.018203992762056104
vn -0.9673609183514462 -0.25335799207074844 -0.004751999592280838
vn -0.9999842974611367 0.005604001352325941 0
vn -0.8688137690864424 -0.4950538798177512 -0.009180997941502296
vn -0.9644602936157485 0.26418508762399623 0.004752001233799338
vn -0.00010300003932064134 -0.01836100762282291 0.9998314171849504
vn -0.8632102463809209 0.5047611115497012 0.009181002674009621
vn -0.711058251990693 -0.7030132316533414 -0.012983004130989734
vn -0.70313340770973 0.7109394154738129 0.012983007673725754
vn -0.37750005324029684 0.9258541636955134 0.01696400221806684
vn -0.4951391012221095 0.8686681924425816 0.015901002468381605
vn -0.26422802701821707 -0.9642971450636548 -0.017736001808322154
vn -0.5048448232708069 -0.8630636493549608 -0.01590099301191485
vn -0.00560399824505644 -0.9998157175503992 -0.018360995148669214
vn 0.12496894949537102 -0.991993637232388 -0.018203992762056104
usemtl material_0_0
f 1/1/1 2/2/1 3/3/2
f 4/4/2 5/5/2 6/6/3
f 7/7/2 8/3/2 9/2/1
f 10/8/1 11/9/1 12/10/4
f 13/11/4 14/10/4 15/9/1
f 16/12/3 17/6/3 18/5/2
f 19/13/5 20/14/5 21/15/5
f 22/16/6 23/17/6 24/18/4
f 25/19/4 26/18/4 27/17/6
f 28/20/3 29/21/3 30/22/7
f 31/15/5 32/23/5 33/24/5
f 34/14/5 35/23/5 36/15/5
f 37/25/6 38/26/6 39/27/8
f 40/28/9 41/29/10 42/30/9
f 43/31/10 44/30/9 45/29/10
f 46/32/7 47/22/7 48/21/3
f 49/23/5 50/33/5 51/24/5
f 52/34/8 53/27/8 54/26/6
f 55/35/8 56/36/10 57/37/8
f 58/38/5 59/39/5 60/40/5
f 61/41/10 62/37/8 63/36/10
f 64/42/11 65/43/12 66/44/11
f 67/45/12 68/46/7 69/47/12
f 70/48/7 71/47/12 72/46/7
f 73/24/5 74/33/5 75/49/5
f 76/40/5 77/39/5 78/50/5
f 79/49/5 80/38/5 81/40/5
f 82/51/5 83/52/5 84/39/5
f 85/33/5 86/38/5 87/49/5
f 88/53/12 89/44/11 90/43/12
f 91/54/11 92/55/13 93/56/11
f 94/50/5 95/39/5 96/52/5
f 97/57/13 98/58/14 99/59/13
f 100/60/13 101/56/11 102/55/13
f 103/61/14 104/59/13 105/58/14
usemtl material_1_0
f 106/62/15 107/63/16 108/64/16
f 109/65/17 110/66/15 111/62/15
f 112/63/16 113/62/15 114/66/15
f 115/67/18 116/64/16 117/63/16
f 118/64/16 119/67/18 120/68/18
f 121/66/15 122/65/17 123/69/17
f 124/70/19 125/71/19 126/72/19
f 127/68/18 128/73/20 129/74/20
f 130/73/20 131/68/18 132/67/18
f 133/75/21 134/69/17 135/65/17
f 136/76/19 137/77/19 138/70/19
f 139/70/19 140/77/19 141/71/19
f 142/78/22 143/74/20 144/73/20
f 145/79/23 146/80/24 147/81/23
f 148/80/24 149/79/23 150/82/24
f 151/69/17 152/75/21 153/83/21
f 154/76/19 155/84/19 156/77/19
f 157/74/20 158/78/22 159/85/22
f 160/78/22 161/82/24 162/85/22
f 163/86/19 164/87/19 165/88/19
f 166/82/24 167/78/22 168/80/24
f 169/89/25 170/90/26 171/91/25
f 172/92/26 173/75/21 174/90/26
f 175/75/21 176/92/26 177/83/21
f 178/93/19 179/84/19 180/76/19
f 181/94/19 182/87/19 183/86/19
f 184/86/19 185/88/19 186/93/19
f 187/87/19 188/95/19 189/96/19
f 190/93/19 191/88/19 192/84/19
f 193/90/26 194/89/25 195/92/26
f 196/91/25 197/97/27 198/89/25
f 199/95/19 200/87/19 201/94/19
f 202/98/27 203/99/28 204/97/27
f 205/97/27 206/91/25 207/98/27
f 208/99/28 209/98/27 210/100/28
