# SSTK version 0.8.0
# 216
mtllib original-216.mtl
o Group9/mesh100/mesh100-geometry/material_1/component_24#mesh100-geometry
v 0.130822 -0.440919 0.863329
v 0.130855 -0.440324 0.830673
v 0.129268 -0.443200 0.863329
v 0.130822 -0.440919 0.863329
v 0.132970 -0.439135 0.863395
v 0.130855 -0.440324 0.830673
v 0.129268 -0.443200 0.863329
v 0.129268 -0.442572 0.830673
v 0.128376 -0.445811 0.863263
v 0.129268 -0.442572 0.830673
v 0.129268 -0.443200 0.863329
v 0.130855 -0.440324 0.830673
v 0.132970 -0.438540 0.830739
v 0.130855 -0.440324 0.830673
v 0.132970 -0.439135 0.863395
v 0.132970 -0.439135 0.863395
v 0.135515 -0.438044 0.863395
v 0.132970 -0.438540 0.830739
v 0.128376 -0.445811 0.863263
v 0.128376 -0.445216 0.830607
v 0.128210 -0.448588 0.863197
v 0.128376 -0.445216 0.830607
v 0.128376 -0.445811 0.863263
v 0.129268 -0.442572 0.830673
v 0.130855 -0.440324 0.830673
v 0.148174 -0.448092 0.830541
v 0.129268 -0.442572 0.830673
v 0.132970 -0.438540 0.830739
v 0.148174 -0.448092 0.830541
v 0.130855 -0.440324 0.830673
v 0.135515 -0.437449 0.830739
v 0.132970 -0.438540 0.830739
v 0.135515 -0.438044 0.863395
v 0.135515 -0.438044 0.863395
v 0.138258 -0.437680 0.863395
v 0.135515 -0.437449 0.830739
v 0.128243 -0.447993 0.830541
v 0.128210 -0.448588 0.863197
v 0.128376 -0.445216 0.830607
v 0.129268 -0.442572 0.830673
v 0.148174 -0.448092 0.830541
v 0.128376 -0.445216 0.830607
v 0.135515 -0.437449 0.830739
v 0.148174 -0.448092 0.830541
v 0.132970 -0.438540 0.830739
v 0.138258 -0.437085 0.830739
v 0.135515 -0.437449 0.830739
v 0.138258 -0.437680 0.863395
v 0.138258 -0.437680 0.863395
v 0.141002 -0.438077 0.863395
v 0.138258 -0.437085 0.830739
v 0.128243 -0.447993 0.830541
v 0.128376 -0.445216 0.830607
v 0.148174 -0.448092 0.830541
v 0.138258 -0.437085 0.830739
v 0.148174 -0.448092 0.830541
v 0.135515 -0.437449 0.830739
v 0.141002 -0.437482 0.830739
v 0.138258 -0.437085 0.830739
v 0.141002 -0.438077 0.863395
v 0.141002 -0.438077 0.863395
v 0.143547 -0.439201 0.863395
v 0.141002 -0.437482 0.830739
v 0.141002 -0.437482 0.830739
v 0.148174 -0.448092 0.830541
v 0.138258 -0.437085 0.830739
v 0.143547 -0.438606 0.830739
v 0.141002 -0.437482 0.830739
v 0.143547 -0.439201 0.863395
v 0.143547 -0.439201 0.863395
v 0.145662 -0.440985 0.863329
v 0.143547 -0.438606 0.830739
v 0.143547 -0.438606 0.830739
v 0.148174 -0.448092 0.830541
v 0.141002 -0.437482 0.830739
v 0.145662 -0.440391 0.830673
v 0.143547 -0.438606 0.830739
v 0.145662 -0.440985 0.863329
v 0.147216 -0.443299 0.863329
v 0.147216 -0.442671 0.830673
v 0.145662 -0.440985 0.863329
v 0.145662 -0.440391 0.830673
v 0.148174 -0.448092 0.830541
v 0.143547 -0.438606 0.830739
v 0.145662 -0.440391 0.830673
v 0.145662 -0.440985 0.863329
v 0.147216 -0.442671 0.830673
v 0.147216 -0.442671 0.830673
v 0.147216 -0.443299 0.863329
v 0.148075 -0.445315 0.830607
v 0.148075 -0.445910 0.863263
v 0.148075 -0.445315 0.830607
v 0.147216 -0.443299 0.863329
v 0.147216 -0.442671 0.830673
v 0.148174 -0.448092 0.830541
v 0.145662 -0.440391 0.830673
v 0.148075 -0.445315 0.830607
v 0.148174 -0.448092 0.830541
v 0.147216 -0.442671 0.830673
v 0.148075 -0.445315 0.830607
v 0.148075 -0.445910 0.863263
v 0.148174 -0.448092 0.830541
v 0.148174 -0.448687 0.863197
v 0.148174 -0.448092 0.830541
v 0.148075 -0.445910 0.863263
v 0.129268 -0.443200 0.863329
v 0.130855 -0.440324 0.830673
v 0.130822 -0.440919 0.863329
v 0.130855 -0.440324 0.830673
v 0.132970 -0.439135 0.863395
v 0.130822 -0.440919 0.863329
v 0.128376 -0.445811 0.863263
v 0.129268 -0.442572 0.830673
v 0.129268 -0.443200 0.863329
v 0.130855 -0.440324 0.830673
v 0.129268 -0.443200 0.863329
v 0.129268 -0.442572 0.830673
v 0.132970 -0.439135 0.863395
v 0.130855 -0.440324 0.830673
v 0.132970 -0.438540 0.830739
v 0.132970 -0.438540 0.830739
v 0.135515 -0.438044 0.863395
v 0.132970 -0.439135 0.863395
v 0.128210 -0.448588 0.863197
v 0.128376 -0.445216 0.830607
v 0.128376 -0.445811 0.863263
v 0.129268 -0.442572 0.830673
v 0.128376 -0.445811 0.863263
v 0.128376 -0.445216 0.830607
v 0.129268 -0.442572 0.830673
v 0.148174 -0.448092 0.830541
v 0.130855 -0.440324 0.830673
v 0.130855 -0.440324 0.830673
v 0.148174 -0.448092 0.830541
v 0.132970 -0.438540 0.830739
v 0.135515 -0.438044 0.863395
v 0.132970 -0.438540 0.830739
v 0.135515 -0.437449 0.830739
v 0.135515 -0.437449 0.830739
v 0.138258 -0.437680 0.863395
v 0.135515 -0.438044 0.863395
v 0.128376 -0.445216 0.830607
v 0.128210 -0.448588 0.863197
v 0.128243 -0.447993 0.830541
v 0.128376 -0.445216 0.830607
v 0.148174 -0.448092 0.830541
v 0.129268 -0.442572 0.830673
v 0.132970 -0.438540 0.830739
v 0.148174 -0.448092 0.830541
v 0.135515 -0.437449 0.830739
v 0.138258 -0.437680 0.863395
v 0.135515 -0.437449 0.830739
v 0.138258 -0.437085 0.830739
v 0.138258 -0.437085 0.830739
v 0.141002 -0.438077 0.863395
v 0.138258 -0.437680 0.863395
v 0.148174 -0.448092 0.830541
v 0.128376 -0.445216 0.830607
v 0.128243 -0.447993 0.830541
v 0.135515 -0.437449 0.830739
v 0.148174 -0.448092 0.830541
v 0.138258 -0.437085 0.830739
v 0.141002 -0.438077 0.863395
v 0.138258 -0.437085 0.830739
v 0.141002 -0.437482 0.830739
v 0.141002 -0.437482 0.830739
v 0.143547 -0.439201 0.863395
v 0.141002 -0.438077 0.863395
v 0.138258 -0.437085 0.830739
v 0.148174 -0.448092 0.830541
v 0.141002 -0.437482 0.830739
v 0.143547 -0.439201 0.863395
v 0.141002 -0.437482 0.830739
v 0.143547 -0.438606 0.830739
v 0.143547 -0.438606 0.830739
v 0.145662 -0.440985 0.863329
v 0.143547 -0.439201 0.863395
v 0.141002 -0.437482 0.830739
v 0.148174 -0.448092 0.830541
v 0.143547 -0.438606 0.830739
v 0.145662 -0.440985 0.863329
v 0.143547 -0.438606 0.830739
v 0.145662 -0.440391 0.830673
v 0.145662 -0.440985 0.863329
v 0.147216 -0.442671 0.830673
v 0.147216 -0.443299 0.863329
v 0.143547 -0.438606 0.830739
v 0.148174 -0.448092 0.830541
v 0.145662 -0.440391 0.830673
v 0.147216 -0.442671 0.830673
v 0.145662 -0.440985 0.863329
v 0.145662 -0.440391 0.830673
v 0.148075 -0.445315 0.830607
v 0.147216 -0.443299 0.863329
v 0.147216 -0.442671 0.830673
v 0.147216 -0.443299 0.863329
v 0.148075 -0.445315 0.830607
v 0.148075 -0.445910 0.863263
v 0.145662 -0.440391 0.830673
v 0.148174 -0.448092 0.830541
v 0.147216 -0.442671 0.830673
v 0.147216 -0.442671 0.830673
v 0.148174 -0.448092 0.830541
v 0.148075 -0.445315 0.830607
v 0.148174 -0.448092 0.830541
v 0.148075 -0.445910 0.863263
v 0.148075 -0.445315 0.830607
v 0.148075 -0.445910 0.863263
v 0.148174 -0.448092 0.830541
v 0.148174 -0.448687 0.863197
vt 35.740421295166016 5.71999979019165
vt 35.740421295166016 2.2750000953674316
vt 35.29785919189453 5.71999979019165
vt 48.53196716308594 5.71999979019165
vt 48.97452926635742 5.71999979019165
vt 48.53196716308594 2.2750000953674316
vt 19.791261672973633 5.71999979019165
vt 19.791261672973633 2.2750000953674316
vt 19.34869956970215 5.71999979019165
vt 35.29785919189453 2.2750000953674316
vt 48.97452926635742 2.2750000953674316
vt 58.03942108154297 5.71999979019165
vt 58.48198318481445 5.71999979019165
vt 58.03942108154297 2.2750000953674316
vt 2.346191883087158 5.71999979019165
vt 2.346191883087158 2.2750000953674316
vt 1.903630018234253 5.71999979019165
vt 19.34869956970215 2.2750000953674316
vt 62.839107513427734 1.4225189685821533
vt 65.6367416381836 0.19548200070858002
vt 62.595436096191406 1.0383009910583496
vt 63.174625396728516 1.722661018371582
vt 58.48198318481445 2.2750000953674316
vt 63.093482971191406 5.71999979019165
vt 63.53604507446289 5.71999979019165
vt 63.093482971191406 2.2750000953674316
vt 1.903630018234253 2.2750000953674316
vt 62.462242126464844 0.5993769764900208
vt 63.57634735107422 1.9157849550247192
vt 63.53604507446289 2.2750000953674316
vt 63.307823181152344 5.71999979019165
vt 63.75038528442383 5.71999979019165
vt 63.307823181152344 2.2750000953674316
vt 62.44969940185547 0.1392969936132431
vt 64.01355743408203 1.9871280193328857
vt 63.75038528442383 2.2750000953674316
vt 58.66605758666992 5.71999979019165
vt 59.108619689941406 5.71999979019165
vt 58.66605758666992 2.2750000953674316
vt 64.45285034179688 1.931236982345581
vt 59.108619689941406 2.2750000953674316
vt 49.52299880981445 5.71999979019165
vt 49.96556091308594 5.71999979019165
vt 49.52299880981445 2.2750000953674316
vt 64.86062622070312 1.7523839473724365
vt 49.96556091308594 2.2750000953674316
vt 37.02009582519531 5.71999979019165
vt 37.02009582519531 2.2750000953674316
vt 36.57753372192383 5.71999979019165
vt 65.20573425292969 1.4642410278320312
vt 36.57753372192383 2.2750000953674316
vt 20.81920051574707 2.2750000953674316
vt 20.81920051574707 5.71999979019165
vt 21.261762619018555 2.2750000953674316
vt 21.261762619018555 5.71999979019165
vt 65.4617919921875 1.088832974433899
vt 65.60921478271484 0.6548560261726379
vt 3.4525530338287354 2.2750000953674316
vt 3.4525530338287354 5.71999979019165
vt 3.895116090774536 2.2750000953674316
vt 3.895116090774536 5.71999979019165
vt 0.8879680037498474 3.375
vt 1.3319530487060547 0
vt 1.3319530487060547 3.375
vt 1.7759369611740112 3.375
vt 0.4439840018749237 3.375
vt 0.8879680037498474 0
vt 1.7759369611740112 0
vt 2.219921112060547 3.375
vt 0 3.375
vt 0.4439840018749237 0
vt 62.595436096191406 1.0172040462493896
vt 65.6367416381836 0.19151000678539276
vt 62.839107513427734 1.3936150074005127
vt 63.174625396728516 1.6876579523086548
vt 2.219921112060547 0
vt 2.663904905319214 3.375
vt 0 0
vt 62.462242126464844 0.58719801902771
vt 63.57634735107422 1.8768579959869385
vt 2.663904905319214 0
vt 3.1078898906707764 3.375
vt 62.44969940185547 0.13646599650382996
vt 64.01355743408203 1.9467509984970093
vt 3.1078898906707764 0
vt 3.5518739223480225 3.375
vt 64.45285034179688 1.8919960260391235
vt 3.5518739223480225 0
vt 3.9958579540252686 3.375
vt 64.86062622070312 1.716776967048645
vt 3.9958579540252686 0
vt 4.439842224121094 0
vt 4.439842224121094 3.375
vt 65.20573425292969 1.4344890117645264
vt 4.883827209472656 0
vt 4.883827209472656 3.375
vt 65.4617919921875 1.066709041595459
vt 65.60921478271484 0.6415500044822693
vt 5.327810764312744 0
vt 5.327810764312744 3.375
vn -0.7355579715507822 0.6773489696779484 0.012362999810744518
vn -0.8929488457679873 0.45008393059676766 0.008173999032482886
vn -0.5219409091825862 0.8528388345751572 0.015607996737027199
vn -0.9820837632860387 0.18841496494189555 0.00335899923725238
vn -0.26842796530044355 0.9631378675664112 0.017659997290208083
vn -0.9987050903862364 0.05086700183383703 0.0008310000336813391
vn 0.00010300003932064134 0.01836100762282291 -0.9998314171849504
vn 0.00560399824505644 0.9998157175503992 0.018360995148669214
vn 0.2792068647627707 0.9600685659742862 0.017659991433227173
vn 0.5314677967420908 0.8469346914231857 0.01560799442660278
vn 0.7431038491810281 0.6690618996935116 0.012362997648201939
vn 0.897937632265662 0.44004680925644063 0.008173996841364134
vn 0.9841340009560143 0.1773949979056293 0.003358999906101209
vn 0.9992124908872533 0.03966998228630087 0.0008309995760112697
vn 0.8929488457679873 -0.45008393059676766 -0.008173999032482886
vn 0.7355579715507822 -0.6773489696779484 -0.012362999810744518
vn 0.5219409091825862 -0.8528388345751572 -0.015607996737027199
vn 0.9820837632860387 -0.18841496494189555 -0.00335899923725238
vn 0.26842796530044355 -0.9631378675664112 -0.017659997290208083
vn 0.9987050903862364 -0.05086700183383703 -0.0008310000336813391
vn -0.00010300003932064134 -0.01836100762282291 0.9998314171849504
vn -0.00560399824505644 -0.9998157175503992 -0.018360995148669214
vn -0.2792068647627707 -0.9600685659742862 -0.017659991433227173
vn -0.5314677967420908 -0.8469346914231857 -0.01560799442660278
vn -0.7431038491810281 -0.6690618996935116 -0.012362997648201939
vn -0.897937632265662 -0.44004680925644063 -0.008173996841364134
vn -0.9841340009560143 -0.1773949979056293 -0.003358999906101209
vn -0.9992124908872533 -0.03966998228630087 -0.0008309995760112697
usemtl material_0_0
f 1/1/1 2/2/1 3/3/2
f 4/4/1 5/5/3 6/6/1
f 7/7/2 8/8/2 9/9/4
f 10/10/2 11/3/2 12/2/1
f 13/11/3 14/6/1 15/5/3
f 16/12/3 17/13/5 18/14/3
f 19/15/4 20/16/4 21/17/6
f 22/18/4 23/9/4 24/8/2
f 25/19/7 26/20/7 27/21/7
f 28/22/7 29/20/7 30/19/7
f 31/23/5 32/14/3 33/13/5
f 34/24/5 35/25/8 36/26/5
f 37/27/6 38/17/6 39/16/4
f 40/21/7 41/20/7 42/28/7
f 43/29/7 44/20/7 45/22/7
f 46/30/8 47/26/5 48/25/8
f 49/31/8 50/32/9 51/33/8
f 52/34/7 53/28/7 54/20/7
f 55/35/7 56/20/7 57/29/7
f 58/36/9 59/33/8 60/32/9
f 61/37/9 62/38/10 63/39/9
f 64/40/7 65/20/7 66/35/7
f 67/41/10 68/39/9 69/38/10
f 70/42/10 71/43/11 72/44/10
f 73/45/7 74/20/7 75/40/7
f 76/46/11 77/44/10 78/43/11
f 79/47/12 80/48/12 81/49/11
f 82/50/7 83/20/7 84/45/7
f 85/51/11 86/49/11 87/48/12
f 88/52/12 89/53/12 90/54/13
f 91/55/13 92/54/13 93/53/12
f 94/56/7 95/20/7 96/50/7
f 97/57/7 98/20/7 99/56/7
f 100/58/13 101/59/13 102/60/14
f 103/61/14 104/60/14 105/59/13
usemtl material_1_0
f 106/62/15 107/63/16 108/64/16
f 109/63/16 110/65/17 111/64/16
f 112/66/18 113/67/15 114/62/15
f 115/63/16 116/62/15 117/67/15
f 118/65/17 119/63/16 120/68/17
f 121/68/17 122/69/19 123/65/17
f 124/70/20 125/71/18 126/66/18
f 127/67/15 128/66/18 129/71/18
f 130/72/21 131/73/21 132/74/21
f 133/74/21 134/73/21 135/75/21
f 136/69/19 137/68/17 138/76/19
f 139/76/19 140/77/22 141/69/19
f 142/71/18 143/70/20 144/78/20
f 145/79/21 146/73/21 147/72/21
f 148/75/21 149/73/21 150/80/21
f 151/77/22 152/76/19 153/81/22
f 154/81/22 155/82/23 156/77/22
f 157/73/21 158/79/21 159/83/21
f 160/80/21 161/73/21 162/84/21
f 163/82/23 164/81/22 165/85/23
f 166/85/23 167/86/24 168/82/23
f 169/84/21 170/73/21 171/87/21
f 172/86/24 173/85/23 174/88/24
f 175/88/24 176/89/25 177/86/24
f 178/87/21 179/73/21 180/90/21
f 181/89/25 182/88/24 183/91/25
f 184/89/25 185/92/26 186/93/26
f 187/90/21 188/73/21 189/94/21
f 190/92/26 191/89/25 192/91/25
f 193/95/27 194/93/26 195/92/26
f 196/93/26 197/95/27 198/96/27
f 199/94/21 200/73/21 201/97/21
f 202/97/21 203/73/21 204/98/21
f 205/99/28 206/96/27 207/95/27
f 208/96/27 209/99/28 210/100/28
