# SSTK version 0.8.0
# 240
mtllib original-240.mtl
o Group9/mesh100/mesh100-geometry/material_1/component_48#mesh100-geometry
v -0.011072 -0.419204 0.863726
v -0.011072 -0.418609 0.831070
v -0.012758 -0.420890 0.863726
v -0.011072 -0.419204 0.863726
v -0.009089 -0.417981 0.863792
v -0.011072 -0.418609 0.831070
v -0.013981 -0.422311 0.831004
v -0.013981 -0.422906 0.863660
v -0.012758 -0.420295 0.831070
v -0.012758 -0.420890 0.863726
v -0.012758 -0.420295 0.831070
v -0.013981 -0.422906 0.863660
v -0.012758 -0.420295 0.831070
v -0.012758 -0.420890 0.863726
v -0.011072 -0.418609 0.831070
v -0.009056 -0.417353 0.831070
v -0.011072 -0.418609 0.831070
v -0.009089 -0.417981 0.863792
v -0.009089 -0.417981 0.863792
v -0.006842 -0.417221 0.863792
v -0.009056 -0.417353 0.831070
v -0.013981 -0.422311 0.831004
v -0.012758 -0.420295 0.831070
v 0.005255 -0.427566 0.830938
v -0.011072 -0.418609 0.831070
v 0.005255 -0.427566 0.830938
v -0.012758 -0.420295 0.831070
v -0.009056 -0.417353 0.831070
v 0.005255 -0.427566 0.830938
v -0.011072 -0.418609 0.831070
v -0.006842 -0.416626 0.831136
v -0.009056 -0.417353 0.831070
v -0.006842 -0.417221 0.863792
v -0.006842 -0.417221 0.863792
v -0.004462 -0.417022 0.863792
v -0.006842 -0.416626 0.831136
v -0.006842 -0.416626 0.831136
v 0.005255 -0.427566 0.830938
v -0.009056 -0.417353 0.831070
v -0.004462 -0.416428 0.831136
v -0.006842 -0.416626 0.831136
v -0.004462 -0.417022 0.863792
v -0.004462 -0.417022 0.863792
v -0.002148 -0.417386 0.863792
v -0.004462 -0.416428 0.831136
v -0.004462 -0.416428 0.831136
v 0.005255 -0.427566 0.830938
v -0.006842 -0.416626 0.831136
v -0.002148 -0.416791 0.831136
v -0.004462 -0.416428 0.831136
v -0.002148 -0.417386 0.863792
v -0.002148 -0.417386 0.863792
v 0.000066 -0.418278 0.863726
v -0.002148 -0.416791 0.831136
v 0.005255 -0.428161 0.863594
v 0.005255 -0.427566 0.830938
v 0.005222 -0.425814 0.863594
v -0.002148 -0.416791 0.831136
v 0.005255 -0.427566 0.830938
v -0.004462 -0.416428 0.831136
v 0.000066 -0.417684 0.831070
v -0.002148 -0.416791 0.831136
v 0.000066 -0.418278 0.863726
v 0.000066 -0.418278 0.863726
v 0.001983 -0.419634 0.863726
v 0.000066 -0.417684 0.831070
v 0.005222 -0.425219 0.830938
v 0.005222 -0.425814 0.863594
v 0.005255 -0.427566 0.830938
v 0.000066 -0.417684 0.831070
v 0.005255 -0.427566 0.830938
v -0.002148 -0.416791 0.831136
v 0.001983 -0.419039 0.831070
v 0.000066 -0.417684 0.831070
v 0.001983 -0.419634 0.863726
v 0.003537 -0.421418 0.863726
v 0.003537 -0.420823 0.831004
v 0.001983 -0.419634 0.863726
v 0.005222 -0.425814 0.863594
v 0.005222 -0.425219 0.830938
v 0.004627 -0.423501 0.863660
v 0.005222 -0.425219 0.830938
v 0.005255 -0.427566 0.830938
v 0.004627 -0.422906 0.831004
v 0.001983 -0.419039 0.831070
v 0.005255 -0.427566 0.830938
v 0.000066 -0.417684 0.831070
v 0.001983 -0.419039 0.831070
v 0.001983 -0.419634 0.863726
v 0.003537 -0.420823 0.831004
v 0.003537 -0.420823 0.831004
v 0.003537 -0.421418 0.863726
v 0.004627 -0.422906 0.831004
v 0.004627 -0.423501 0.863660
v 0.004627 -0.422906 0.831004
v 0.003537 -0.421418 0.863726
v 0.004627 -0.422906 0.831004
v 0.004627 -0.423501 0.863660
v 0.005222 -0.425219 0.830938
v 0.004627 -0.422906 0.831004
v 0.005255 -0.427566 0.830938
v 0.003537 -0.420823 0.831004
v 0.003537 -0.420823 0.831004
v 0.005255 -0.427566 0.830938
v 0.001983 -0.419039 0.831070
v -0.012758 -0.420890 0.863726
v -0.011072 -0.418609 0.831070
v -0.011072 -0.419204 0.863726
v -0.011072 -0.418609 0.831070
v -0.009089 -0.417981 0.863792
v -0.011072 -0.419204 0.863726
v -0.012758 -0.420295 0.831070
v -0.013981 -0.422906 0.863660
v -0.013981 -0.422311 0.831004
v -0.013981 -0.422906 0.863660
v -0.012758 -0.420295 0.831070
v -0.012758 -0.420890 0.863726
v -0.011072 -0.418609 0.831070
v -0.012758 -0.420890 0.863726
v -0.012758 -0.420295 0.831070
v -0.009089 -0.417981 0.863792
v -0.011072 -0.418609 0.831070
v -0.009056 -0.417353 0.831070
v -0.009056 -0.417353 0.831070
v -0.006842 -0.417221 0.863792
v -0.009089 -0.417981 0.863792
v 0.005255 -0.427566 0.830938
v -0.012758 -0.420295 0.831070
v -0.013981 -0.422311 0.831004
v -0.012758 -0.420295 0.831070
v 0.005255 -0.427566 0.830938
v -0.011072 -0.418609 0.831070
v -0.011072 -0.418609 0.831070
v 0.005255 -0.427566 0.830938
v -0.009056 -0.417353 0.831070
v -0.006842 -0.417221 0.863792
v -0.009056 -0.417353 0.831070
v -0.006842 -0.416626 0.831136
v -0.006842 -0.416626 0.831136
v -0.004462 -0.417022 0.863792
v -0.006842 -0.417221 0.863792
v -0.009056 -0.417353 0.831070
v 0.005255 -0.427566 0.830938
v -0.006842 -0.416626 0.831136
v -0.004462 -0.417022 0.863792
v -0.006842 -0.416626 0.831136
v -0.004462 -0.416428 0.831136
v -0.004462 -0.416428 0.831136
v -0.002148 -0.417386 0.863792
v -0.004462 -0.417022 0.863792
v -0.006842 -0.416626 0.831136
v 0.005255 -0.427566 0.830938
v -0.004462 -0.416428 0.831136
v -0.002148 -0.417386 0.863792
v -0.004462 -0.416428 0.831136
v -0.002148 -0.416791 0.831136
v -0.002148 -0.416791 0.831136
v 0.000066 -0.418278 0.863726
v -0.002148 -0.417386 0.863792
v 0.005222 -0.425814 0.863594
v 0.005255 -0.427566 0.830938
v 0.005255 -0.428161 0.863594
v -0.004462 -0.416428 0.831136
v 0.005255 -0.427566 0.830938
v -0.002148 -0.416791 0.831136
v 0.000066 -0.418278 0.863726
v -0.002148 -0.416791 0.831136
v 0.000066 -0.417684 0.831070
v 0.000066 -0.417684 0.831070
v 0.001983 -0.419634 0.863726
v 0.000066 -0.418278 0.863726
v 0.005255 -0.427566 0.830938
v 0.005222 -0.425814 0.863594
v 0.005222 -0.425219 0.830938
v -0.002148 -0.416791 0.831136
v 0.005255 -0.427566 0.830938
v 0.000066 -0.417684 0.831070
v 0.001983 -0.419634 0.863726
v 0.000066 -0.417684 0.831070
v 0.001983 -0.419039 0.831070
v 0.001983 -0.419634 0.863726
v 0.003537 -0.420823 0.831004
v 0.003537 -0.421418 0.863726
v 0.004627 -0.423501 0.863660
v 0.005222 -0.425219 0.830938
v 0.005222 -0.425814 0.863594
v 0.004627 -0.422906 0.831004
v 0.005255 -0.427566 0.830938
v 0.005222 -0.425219 0.830938
v 0.000066 -0.417684 0.831070
v 0.005255 -0.427566 0.830938
v 0.001983 -0.419039 0.831070
v 0.003537 -0.420823 0.831004
v 0.001983 -0.419634 0.863726
v 0.001983 -0.419039 0.831070
v 0.004627 -0.422906 0.831004
v 0.003537 -0.421418 0.863726
v 0.003537 -0.420823 0.831004
v 0.003537 -0.421418 0.863726
v 0.004627 -0.422906 0.831004
v 0.004627 -0.423501 0.863660
v 0.005222 -0.425219 0.830938
v 0.004627 -0.423501 0.863660
v 0.004627 -0.422906 0.831004
v 0.003537 -0.420823 0.831004
v 0.005255 -0.427566 0.830938
v 0.004627 -0.422906 0.831004
v 0.001983 -0.419039 0.831070
v 0.005255 -0.427566 0.830938
v 0.003537 -0.420823 0.831004
vt 30.7969970703125 5.71999979019165
vt 30.7969970703125 2.2750000953674316
vt 30.419349670410156 5.71999979019165
vt 36.00123977661133 5.71999979019165
vt 36.37888717651367 5.71999979019165
vt 36.00123977661133 2.2750000953674316
vt 23.16535758972168 2.2750000953674316
vt 23.16535758972168 5.71999979019165
vt 23.543004989624023 2.2750000953674316
vt 23.543004989624023 5.71999979019165
vt 30.419349670410156 2.2750000953674316
vt 36.37888717651367 2.2750000953674316
vt 39.60609817504883 5.71999979019165
vt 39.98374557495117 5.71999979019165
vt 39.60609817504883 2.2750000953674316
vt 39.6498908996582 3.8714609146118164
vt 39.83988952636719 4.210887908935547
vt 42.74231719970703 3.06787109375
vt 40.10045623779297 4.495174884796143
vt 40.4173583984375 4.7087931632995605
vt 39.98374557495117 2.2750000953674316
vt 41.036991119384766 5.71999979019165
vt 41.414642333984375 5.71999979019165
vt 41.036991119384766 2.2750000953674316
vt 40.773284912109375 4.840071201324463
vt 41.414642333984375 2.2750000953674316
vt 40.215755462646484 5.71999979019165
vt 40.59340286254883 5.71999979019165
vt 40.215755462646484 2.2750000953674316
vt 41.1487922668457 4.881838798522949
vt 40.59340286254883 2.2750000953674316
vt 37.18724822998047 5.71999979019165
vt 37.56489562988281 5.71999979019165
vt 37.18724822998047 2.2750000953674316
vt -1.3456109762191772 5.71999979019165
vt -1.3456109762191772 2.2750000953674316
vt -1.7232589721679688 5.71999979019165
vt 41.52336502075195 4.831812858581543
vt 37.56489562988281 2.2750000953674316
vt 32.11691665649414 5.71999979019165
vt 32.494564056396484 5.71999979019165
vt 32.11691665649414 2.2750000953674316
vt -1.7232589721679688 2.2750000953674316
vt 41.87653732299805 4.692728042602539
vt 32.494564056396484 2.2750000953674316
vt 25.65939712524414 5.71999979019165
vt 25.65939712524414 2.2750000953674316
vt 25.281749725341797 5.71999979019165
vt 8.264165878295898 5.71999979019165
vt 8.264165878295898 2.2750000953674316
vt 7.8865180015563965 5.71999979019165
vt 42.7281608581543 3.460347890853882
vt 42.626792907714844 3.8386878967285156
vt 42.189022064208984 4.4721808433532715
vt 25.281749725341797 2.2750000953674316
vt 17.055145263671875 2.2750000953674316
vt 17.055145263671875 5.71999979019165
vt 17.43279266357422 2.2750000953674316
vt 17.43279266357422 5.71999979019165
vt 7.8865180015563965 2.2750000953674316
vt 42.44374465942383 4.182220935821533
vt 0.3785119950771332 3.375
vt 0.7570250034332275 0
vt 0.7570250034332275 3.375
vt 1.135537028312683 3.375
vt 0.3785119950771332 0
vt 0 3.375
vt 0 0
vt 1.135537028312683 0
vt 1.514050006866455 3.375
vt 42.74231719970703 3.0055339336395264
vt 39.83988952636719 4.125326156616211
vt 39.6498908996582 3.7927958965301514
vt 40.10045623779297 4.403835773468018
vt 40.4173583984375 4.613112926483154
vt 1.514050006866455 0
vt 1.8925620317459106 3.375
vt 40.773284912109375 4.741724014282227
vt 1.8925620317459106 0
vt 2.2710750102996826 3.375
vt 41.1487922668457 4.782642841339111
vt 2.2710750102996826 0
vt 2.6495869159698486 3.375
vt 4.163637161254883 3.375
vt 4.542150020599365 0
vt 4.542150020599365 3.375
vt 41.52336502075195 4.733633995056152
vt 2.6495869159698486 0
vt 3.02810001373291 3.375
vt 4.163637161254883 0
vt 41.87653732299805 4.59737491607666
vt 3.02810001373291 0
vt 3.406611919403076 0
vt 3.406611919403076 3.375
vt 3.7851250171661377 3.375
vt 42.626792907714844 3.760688066482544
vt 42.7281608581543 3.390036106109619
vt 42.189022064208984 4.381309986114502
vt 3.7851250171661377 0
vt 42.44374465942383 4.097240924835205
vn -0.6207146698280905 0.7839055381004648 0.014331992032693213
vn -0.7857563844717775 0.6184333076045937 0.011276005812443467
vn -0.4217638363031111 0.9065536611743451 0.01660499317293602
vn -0.8526568374542021 0.5223848892885008 0.009504997929473203
vn -0.19977192958975276 0.9796776283533016 0.017969993100647903
vn 0.00010300003932064134 0.01836100762282291 -0.9998314171849504
vn 0.033133013629643604 0.9992824094309866 0.018354007998800683
vn 0.26422802701821707 0.9642971450636548 0.017736001808322154
vn 0.48088814574285954 0.8766332375977257 0.0161480036823034
vn 0.9998883955095451 0.014935005732965273 0.000377000137425543
vn 0.9912910637245507 0.13166501653200718 0.0025200002926297005
vn 0.6712777358631875 0.7410796946274503 0.013677994928993378
vn 0.8249963404096716 0.5650412424789925 0.010461004179599732
vn 0.9336459698189615 0.3581349942679306 0.006672999439550755
vn 0.7857563844717775 -0.6184333076045937 -0.011276005812443467
vn 0.6207146698280905 -0.7839055381004648 -0.014331992032693213
vn 0.4217638363031111 -0.9065536611743451 -0.01660499317293602
vn 0.8526568374542021 -0.5223848892885008 -0.009504997929473203
vn 0.19977192958975276 -0.9796776283533016 -0.017969993100647903
vn -0.00010300003932064134 -0.01836100762282291 0.9998314171849504
vn -0.033133013629643604 -0.9992824094309866 -0.018354007998800683
vn -0.26422802701821707 -0.9642971450636548 -0.017736001808322154
vn -0.48088814574285954 -0.8766332375977257 -0.0161480036823034
vn -0.9912910637245507 -0.13166501653200718 -0.0025200002926297005
vn -0.9998883955095451 -0.014935005732965273 -0.000377000137425543
vn -0.6712777358631875 -0.7410796946274503 -0.013677994928993378
vn -0.8249963404096716 -0.5650412424789925 -0.010461004179599732
vn -0.9336459698189615 -0.3581349942679306 -0.006672999439550755
usemtl material_0_0
f 1/1/1 2/2/1 3/3/2
f 4/4/1 5/5/3 6/6/1
f 7/7/4 8/8/4 9/9/2
f 10/10/2 11/9/2 12/8/4
f 13/11/2 14/3/2 15/2/1
f 16/12/3 17/6/1 18/5/3
f 19/13/3 20/14/5 21/15/3
f 22/16/6 23/17/6 24/18/6
f 25/19/6 26/18/6 27/17/6
f 28/20/6 29/18/6 30/19/6
f 31/21/5 32/15/3 33/14/5
f 34/22/5 35/23/7 36/24/5
f 37/25/6 38/18/6 39/20/6
f 40/26/7 41/24/5 42/23/7
f 43/27/7 44/28/8 45/29/7
f 46/30/6 47/18/6 48/25/6
f 49/31/8 50/29/7 51/28/8
f 52/32/8 53/33/9 54/34/8
f 55/35/10 56/36/10 57/37/11
f 58/38/6 59/18/6 60/30/6
f 61/39/9 62/34/8 63/33/9
f 64/40/9 65/41/12 66/42/9
f 67/43/11 68/37/11 69/36/10
f 70/44/6 71/18/6 72/38/6
f 73/45/12 74/42/9 75/41/12
f 76/46/13 77/47/13 78/48/12
f 79/49/11 80/50/11 81/51/14
f 82/52/6 83/18/6 84/53/6
f 85/54/6 86/18/6 87/44/6
f 88/55/12 89/48/12 90/47/13
f 91/56/13 92/57/13 93/58/14
f 94/59/14 95/58/14 96/57/13
f 97/60/14 98/51/14 99/50/11
f 100/53/6 101/18/6 102/61/6
f 103/61/6 104/18/6 105/54/6
usemtl material_1_0
f 106/62/15 107/63/16 108/64/16
f 109/63/16 110/65/17 111/64/16
f 112/66/15 113/67/18 114/68/18
f 115/67/18 116/66/15 117/62/15
f 118/63/16 119/62/15 120/66/15
f 121/65/17 122/63/16 123/69/17
f 124/69/17 125/70/19 126/65/17
f 127/71/20 128/72/20 129/73/20
f 130/72/20 131/71/20 132/74/20
f 133/74/20 134/71/20 135/75/20
f 136/70/19 137/69/17 138/76/19
f 139/76/19 140/77/21 141/70/19
f 142/75/20 143/71/20 144/78/20
f 145/77/21 146/76/19 147/79/21
f 148/79/21 149/80/22 150/77/21
f 151/78/20 152/71/20 153/81/20
f 154/80/22 155/79/21 156/82/22
f 157/82/22 158/83/23 159/80/22
f 160/84/24 161/85/25 162/86/25
f 163/81/20 164/71/20 165/87/20
f 166/83/23 167/82/22 168/88/23
f 169/88/23 170/89/26 171/83/23
f 172/85/25 173/84/24 174/90/24
f 175/87/20 176/71/20 177/91/20
f 178/89/26 179/88/23 180/92/26
f 181/89/26 182/93/27 183/94/27
f 184/95/28 185/90/24 186/84/24
f 187/96/20 188/71/20 189/97/20
f 190/91/20 191/71/20 192/98/20
f 193/93/27 194/89/26 195/92/26
f 196/99/28 197/94/27 198/93/27
f 199/94/27 200/99/28 201/95/28
f 202/90/24 203/95/28 204/99/28
f 205/100/20 206/71/20 207/96/20
f 208/98/20 209/71/20 210/100/20
