# SSTK version 0.8.0
# 5
mtllib original-5.mtl
o mesh7/mesh7-geometry#mesh7-geometry
v -0.477608 -0.697532 0.486990
v -0.477608 -0.599259 -0.573028
v -0.477608 -0.697532 -0.573028
v -0.477608 -0.599259 0.486990
v 0.503087 -0.697532 -0.573028
v -0.477608 -0.697253 0.488040
v -0.477608 -0.599524 0.488035
v -0.477608 -0.599886 0.489048
v 0.503087 -0.599259 0.486990
v 0.503087 -0.599259 -0.573028
v 0.503087 -0.697532 0.486990
v -0.477608 -0.696877 0.489056
v 0.503087 -0.599524 0.488035
v 0.503087 -0.697253 0.488040
v -0.477608 -0.600342 0.490021
v -0.477608 -0.696405 0.490031
v 0.503087 -0.599886 0.489048
v 0.503087 -0.696877 0.489056
v -0.477608 -0.600886 0.490944
v -0.477608 -0.695848 0.490955
v 0.503087 -0.696405 0.490031
v -0.477608 -0.601516 0.491809
v 0.503087 -0.600342 0.490021
v 0.503087 -0.600886 0.490944
v -0.477608 -0.695204 0.491821
v -0.477608 -0.602226 0.492607
v 0.503087 -0.695848 0.490955
v 0.503087 -0.695204 0.491821
v 0.503087 -0.601516 0.491809
v -0.477608 -0.694483 0.492619
v -0.477608 -0.603007 0.493332
v -0.477608 -0.693690 0.493344
v -0.477608 -0.603853 0.493978
v 0.503087 -0.602226 0.492607
v -0.477608 -0.692833 0.493986
v -0.477608 -0.604757 0.494536
v 0.503087 -0.694483 0.492619
v 0.503087 -0.603007 0.493332
v 0.503087 -0.693690 0.493344
v 0.503087 -0.603853 0.493978
v 0.503087 -0.692833 0.493986
v -0.477608 -0.691919 0.494542
v -0.477608 -0.605708 0.495001
v 0.503087 -0.691919 0.494542
v 0.503087 -0.604757 0.494536
v 0.503087 -0.605708 0.495001
v -0.477608 -0.690958 0.495005
v -0.477608 -0.606699 0.495371
v 0.503087 -0.690958 0.495005
v 0.503087 -0.606699 0.495371
v -0.477608 -0.689958 0.495374
v -0.477608 -0.607720 0.495642
v -0.477608 -0.688927 0.495642
v 0.503087 -0.689958 0.495374
v 0.503087 -0.688927 0.495642
v 0.503087 -0.607720 0.495642
vn -1 0 0
vn 1 0 0
vn 0 0 -1
vn 0 0 1
vn 0 -1 0
vn 0 1 0
vn 0 -0.963315658265276 0.2683709047958408
vn 0 -0.9490541434566626 0.31511304763170384
vn 0 0.963315658265276 -0.2683709047958408
vn 0 0.9490541434566626 -0.31511304763170384
vn 0 0.9667088292202665 0.2558789547961722
vn 0 0.95292915518929 0.30319304937650826
vn 0 -0.9138490704956908 0.406054031323618
vn 0 0.9138490704956908 -0.406054031323618
vn 0 -0.9667088292202665 -0.2558789547961722
vn 0 -0.95292915518929 -0.30319304937650826
vn 0 0.9185421469240429 0.39532306323331284
vn 0 -0.8701047430085115 0.49286685442834577
vn 0 -0.8183401938009844 0.5747341361097035
vn 0 0.8701047430085115 -0.49286685442834577
vn 0 0.8183401938009844 -0.5747341361097035
vn 0 0.8754195916623775 0.48336377453598695
vn 0 -0.8754195916623775 -0.48336377453598695
vn 0 -0.9185421469240429 -0.39532306323331284
vn 0 0.8240842879577627 0.5664671979392516
vn 0 -0.7591498627624186 0.6509158823287391
vn 0 0.7591498627624186 -0.6509158823287391
vn 0 -0.8240842879577627 -0.5664671979392516
vn 0 -0.7651358516948797 -0.643868875199874
vn 0 0.6931838346836469 -0.7207608281068515
vn 0 0.7651358516948797 0.643868875199874
vn 0 0.6992369670418158 0.7148899663040198
vn 0 -0.6992369670418158 -0.7148899663040198
vn 0 0.6270970850061509 0.7789411055893689
vn 0 -0.6931838346836469 0.7207608281068515
vn 0 -0.6270970850061509 -0.7789411055893689
vn 0 0.5494558408048085 0.8355227579219378
vn 0 -0.5494558408048085 -0.8355227579219378
vn 0 0.4617302139427443 -0.8870204110010025
vn 0 0.5437387131382118 -0.8392545572320722
vn 0 -0.621138101728454 0.7837011283526218
vn 0 -0.5437387131382118 0.8392545572320722
vn 0 0.621138101728454 -0.7837011283526218
vn 0 0.46707607172770993 0.8842171357870255
vn 0 -0.46707607172770993 -0.8842171357870255
vn 0 0.3807309442311062 0.9246858645534115
vn 0 -0.3807309442311062 -0.9246858645534115
vn 0 -0.3758672160075685 0.9266735325510919
vn 0 -0.4617302139427443 0.8870204110010025
vn 0 0.3758672160075685 -0.9266735325510919
vn 0 -0.29119794601583676 -0.9566628226476442
vn 0 0.29119794601583676 0.9566628226476442
vn 0 -0.2869098740661031 0.957957579521856
vn 0 0.2869098740661031 -0.957957579521856
vn 0 -0.2415079597569285 0.9703988383000292
vn 0 0.2415079597569285 -0.9703988383000292
vn 0 0.24547897826958792 0.969401914186123
vn 0 -0.24547897826958792 -0.969401914186123
usemtl material_0_0
f 1//1 2//1 3//1
f 2//1 1//1 4//1
f 3//2 2//2 1//2
f 4//2 1//2 2//2
f 2//3 5//3 3//3
f 3//4 5//4 2//4
f 5//5 1//5 3//5
f 3//6 1//6 5//6
f 4//1 1//1 6//1
f 4//1 6//1 7//1
f 7//1 6//1 8//1
f 6//2 1//2 4//2
f 9//6 2//6 4//6
f 4//5 2//5 9//5
f 5//3 2//3 10//3
f 10//4 2//4 5//4
f 1//5 5//5 11//5
f 11//6 5//6 1//6
f 11//7 6//8 1//7
f 1//9 6//10 11//9
f 8//1 6//1 12//1
f 2//6 9//6 10//6
f 10//5 9//5 2//5
f 4//11 13//12 9//11
f 9//2 5//2 10//2
f 10//1 5//1 9//1
f 5//2 9//2 11//2
f 11//1 9//1 5//1
f 14//8 12//13 6//8
f 6//10 12//14 14//10
f 6//8 11//7 14//8
f 14//10 11//9 6//10
f 8//1 12//1 15//1
f 15//1 12//1 16//1
f 8//2 6//2 7//2
f 12//2 6//2 8//2
f 15//2 12//2 8//2
f 13//1 9//1 11//1
f 17//1 13//1 14//1
f 9//15 13//16 4//15
f 7//12 17//17 13//12
f 11//2 9//2 13//2
f 11//2 13//2 14//2
f 14//2 13//2 17//2
f 14//1 13//1 11//1
f 12//13 14//8 18//13
f 18//14 14//10 12//14
f 19//1 16//1 20//1
f 16//2 12//2 15//2
f 20//2 16//2 19//2
f 21//18 20//19 16//18
f 16//20 20//21 21//20
f 18//13 16//18 12//13
f 12//14 16//20 18//14
f 15//1 16//1 19//1
f 19//1 20//1 22//1
f 19//2 16//2 15//2
f 23//22 8//17 15//22
f 15//23 8//24 23//23
f 24//25 15//22 19//25
f 7//2 6//2 4//2
f 7//16 4//15 13//16
f 17//17 7//12 8//17
f 8//24 7//16 17//24
f 14//2 17//2 18//2
f 13//12 4//11 7//12
f 18//2 23//2 21//2
f 18//1 17//1 14//1
f 21//20 18//14 16//20
f 22//1 20//1 25//1
f 22//1 25//1 26//1
f 22//2 20//2 19//2
f 25//2 20//2 22//2
f 26//2 25//2 22//2
f 27//19 25//26 20//19
f 28//27 27//21 25//27
f 20//21 25//27 27//21
f 20//19 21//18 27//19
f 27//21 21//20 20//21
f 16//18 18//13 21//18
f 13//16 17//24 7//16
f 8//17 23//22 17//17
f 17//24 23//23 8//24
f 15//22 24//25 23//22
f 23//23 24//28 15//23
f 19//28 15//23 24//28
f 24//28 29//29 19//28
f 18//2 17//2 23//2
f 23//1 17//1 18//1
f 21//1 23//1 18//1
f 21//2 23//2 24//2
f 21//2 24//2 27//2
f 27//2 24//2 29//2
f 24//1 23//1 21//1
f 27//1 24//1 21//1
f 26//1 25//1 30//1
f 25//27 30//30 28//27
f 26//1 30//1 31//1
f 31//1 32//1 33//1
f 31//2 30//2 26//2
f 29//31 19//25 22//31
f 22//29 19//28 29//29
f 34//32 22//31 26//32
f 26//33 22//29 34//33
f 31//34 34//32 26//32
f 33//1 35//1 36//1
f 30//2 25//2 26//2
f 28//2 34//2 37//2
f 37//2 38//2 39//2
f 39//2 40//2 41//2
f 37//1 34//1 28//1
f 39//1 38//1 37//1
f 30//35 28//26 37//35
f 29//1 24//1 27//1
f 34//1 29//1 28//1
f 19//25 29//31 24//25
f 22//31 34//32 29//31
f 29//29 34//33 22//29
f 28//2 29//2 34//2
f 28//1 29//1 27//1
f 31//1 30//1 32//1
f 33//1 32//1 35//1
f 28//26 30//35 25//26
f 37//30 28//27 30//30
f 25//26 27//19 28//26
f 32//2 30//2 31//2
f 34//32 31//34 38//34
f 26//33 34//33 31//36
f 38//36 31//36 34//33
f 38//34 33//37 40//37
f 33//37 38//34 31//34
f 31//36 38//36 33//38
f 36//1 35//1 42//1
f 36//1 42//1 43//1
f 36//2 35//2 33//2
f 35//2 32//2 33//2
f 42//39 44//39 35//40
f 32//41 41//42 35//42
f 35//40 41//40 32//43
f 30//35 39//41 32//41
f 32//43 39//43 30//30
f 37//2 34//2 38//2
f 39//2 38//2 40//2
f 38//1 34//1 37//1
f 40//1 38//1 39//1
f 41//1 40//1 39//1
f 41//2 40//2 45//2
f 41//2 45//2 44//2
f 45//1 40//1 41//1
f 37//30 30//30 39//43
f 27//2 29//2 28//2
f 41//42 32//41 39//41
f 39//43 32//43 41//40
f 39//41 30//35 37//35
f 40//38 33//38 38//36
f 33//2 32//2 31//2
f 40//37 36//44 45//44
f 36//44 40//37 33//37
f 45//45 36//45 40//38
f 33//38 40//38 36//45
f 45//44 43//46 46//46
f 36//45 45//45 43//47
f 43//1 42//1 47//1
f 43//1 47//1 48//1
f 42//2 35//2 36//2
f 43//2 42//2 36//2
f 49//48 42//49 44//49
f 42//49 49//48 47//48
f 44//39 42//39 49//50
f 47//50 49//50 42//39
f 44//49 35//42 41//42
f 35//42 44//49 42//49
f 41//40 35//40 44//39
f 44//2 45//2 46//2
f 46//1 45//1 44//1
f 44//2 46//2 49//2
f 44//1 45//1 41//1
f 49//1 46//1 44//1
f 49//2 46//2 50//2
f 43//46 45//44 36//44
f 46//47 43//47 45//45
f 43//47 46//47 48//51
f 48//1 47//1 51//1
f 47//2 42//2 43//2
f 48//2 47//2 43//2
f 51//2 47//2 48//2
f 48//1 51//1 52//1
f 48//52 46//46 43//46
f 52//1 51//1 53//1
f 52//2 51//2 48//2
f 53//2 51//2 52//2
f 54//53 47//48 49//48
f 47//48 54//53 51//53
f 49//50 47//50 54//54
f 51//54 54//54 47//50
f 51//53 55//55 53//55
f 49//2 50//2 54//2
f 50//1 46//1 49//1
f 54//2 50//2 56//2
f 54//2 56//2 55//2
f 54//1 50//1 49//1
f 56//1 50//1 54//1
f 55//1 56//1 54//1
f 46//46 48//52 50//52
f 50//51 48//51 46//47
f 53//56 55//56 51//54
f 52//57 50//52 48//52
f 48//51 50//51 52//58
f 53//4 56//4 52//4
f 52//3 56//3 53//3
f 55//55 51//53 54//53
f 54//54 51//54 55//56
f 56//4 53//4 55//4
f 55//3 53//3 56//3
f 50//52 52//57 56//57
f 56//58 52//58 50//51
