# SSTK version 0.8.0
# 133
mtllib original-133.mtl
o Group102/mesh129/mesh129-geometry#mesh129-geometry
v -0.096954 -0.859142 -0.312778
v -0.117243 -0.859142 -0.297718
v -0.097455 -0.860143 -0.313646
v -0.124344 -0.860143 -0.291911
v -0.073767 -0.859142 -0.322819
v -0.142161 -0.859142 -0.262950
v -0.065188 -0.860143 -0.326065
v -0.145087 -0.860143 -0.258644
v -0.046120 -0.859142 -0.327453
v -0.152526 -0.859642 -0.217393
v -0.026006 -0.860143 -0.327396
v -0.152275 -0.859392 -0.217393
v -0.152776 -0.859893 -0.217393
v -0.001080 -0.859142 -0.319698
v -0.152025 -0.859142 -0.217393
v -0.153026 -0.860143 -0.217393
v 0.013688 -0.860143 -0.313646
v 0.037913 -0.859142 -0.293312
v 0.045443 -0.860143 -0.286145
v 0.061406 -0.859142 -0.255635
v 0.063881 -0.860143 -0.251547
v 0.068758 -0.859642 -0.217393
v 0.068508 -0.859392 -0.217393
v 0.069009 -0.859893 -0.217393
v 0.068258 -0.859142 -0.217393
v 0.069259 -0.860143 -0.217393
vn 0.3535530884515692 -0.7071071769033886 0.612372153202672
vn 0.5228698208363337 -0.6034397932286749 0.6020527937039363
vn 0.46645505287851396 -0.36011104082309037 0.8079230915881865
vn -0.46645505287851396 0.36011104082309037 -0.8079230915881865
vn -0.5228698208363337 0.6034397932286749 -0.6020527937039363
vn -0.3535530884515692 0.7071071769033886 -0.612372153202672
vn 0.6901901543013438 -0.4165930931350205 0.5916821322785432
vn -0.6901901543013438 0.4165930931350205 -0.5916821322785432
vn 0.2705410533363623 -0.5717081127105507 0.7745691527039997
vn -0.2705410533363623 0.5717081127105507 -0.7745691527039997
vn 0.6380370761567481 -0.7306220872077882 0.24310502901726094
vn -0.6380370761567481 0.7306220872077882 -0.24310502901726094
vn 0.20494393927255797 -0.09909197063781502 0.9737447114673129
vn -0.20494393927255797 0.09909197063781502 -0.9737447114673129
vn 0.7104854234259926 -0.6638293956205313 0.2335401391822575
vn -0.7104854234259926 0.6638293956205313 -0.2335401391822575
vn 0.02989700979506923 -0.6186962027016142 0.7850612572073065
vn -0.02989700979506923 0.6186962027016142 -0.7850612572073065
vn 0.6202231180256796 -0.7740921473062663 0.12690402414926685
vn -0.6202231180256796 0.7740921473062663 -0.12690402414926685
vn -0.14502194421615974 0.16224393759158326 0.976035624560161
vn 0.14502194421615974 -0.16224393759158326 -0.976035624560161
vn 0.6989632377740537 -0.6989632377740537 0.15133005147961684
vn -0.6989632377740537 0.6989632377740537 -0.15133005147961684
vn 0.700649046242138 -0.700649046242138 0.1348400088993059
vn -0.700649046242138 0.700649046242138 -0.1348400088993059
vn -0.2523110581845767 -0.6895711590196099 0.6788451565461234
vn 0.2523110581845767 0.6895711590196099 -0.6788451565461234
vn -0.5206118867164276 0.07534098360602959 0.850462814941863
vn 0.5206118867164276 -0.07534098360602959 -0.850462814941863
vn -0.5008539974724404 -0.6868039965340438 0.5267309973418519
vn 0.5008539974724404 0.6868039965340438 -0.5267309973418519
vn -0.7542118302103434 -0.32282192732569037 0.5717958712761843
vn 0.7542118302103434 0.32282192732569037 -0.5717958712761843
vn -0.6469530688807734 -0.7336960781162587 0.20770602211435732
vn 0.6469530688807734 0.7336960781162587 -0.20770602211435732
vn -0.7210879670051786 -0.6636009696356112 0.19916299088689912
vn 0.7210879670051786 0.6636009696356112 -0.19916299088689912
vn -0.635964124356119 -0.764245149440129 0.10714002095010802
vn 0.635964124356119 0.764245149440129 -0.10714002095010802
vn -0.7014988511942213 -0.7014988511942213 0.12569297333731785
vn 0.7014988511942213 0.7014988511942213 -0.12569297333731785
vn -0.7027641928943908 -0.7027641928943908 0.1106570303730904
vn 0.7027641928943908 0.7027641928943908 -0.1106570303730904
usemtl material_0_0
f 1//1 2//2 3//3
f 3//4 2//5 1//6
f 2//2 4//7 3//3
f 3//4 4//8 2//5
f 5//9 1//1 3//3
f 3//4 1//6 5//10
f 2//2 6//11 4//7
f 4//8 6//12 2//5
f 5//9 3//3 7//13
f 7//14 3//4 5//10
f 4//7 6//11 8//15
f 8//16 6//12 4//8
f 9//17 5//9 7//13
f 7//14 5//10 9//18
f 6//11 10//19 8//15
f 8//16 10//20 6//12
f 9//17 7//13 11//21
f 11//22 7//14 9//18
f 6//11 12//23 10//19
f 10//20 12//24 6//12
f 8//15 10//19 13//25
f 13//26 10//20 8//16
f 14//27 9//17 11//21
f 11//22 9//18 14//28
f 6//11 15//23 12//23
f 12//24 15//24 6//12
f 8//15 13//25 16//25
f 16//26 13//26 8//16
f 14//27 11//21 17//29
f 17//30 11//22 14//28
f 18//31 14//27 17//29
f 17//30 14//28 18//32
f 18//31 17//29 19//33
f 19//34 17//30 18//32
f 20//35 18//31 19//33
f 19//34 18//32 20//36
f 19//33 21//37 20//35
f 20//36 21//38 19//34
f 22//39 20//35 21//37
f 21//38 20//36 22//40
f 22//39 23//41 20//35
f 20//36 23//42 22//40
f 24//43 22//39 21//37
f 21//38 22//40 24//44
f 23//41 25//41 20//35
f 20//36 25//42 23//42
f 26//43 24//43 21//37
f 21//38 24//44 26//44
