# SSTK version 0.8.0
# 168
mtllib original-168.mtl
o mesh162/mesh162-geometry#mesh162-geometry
v 0.108309 -0.815085 -0.217393
v 0.105423 -0.815085 -0.246694
v 0.061900 -0.815085 -0.205144
v 0.096876 -0.815085 -0.274870
v 0.105423 -0.815085 -0.188092
v 0.082997 -0.815085 -0.300836
v 0.096876 -0.815085 -0.159917
v 0.064319 -0.815085 -0.323596
v 0.082997 -0.815085 -0.133951
v 0.061900 -0.815085 -0.325580
v 0.064319 -0.815085 -0.111191
v 0.061900 -0.815085 -0.109206
v 0.056315 -0.815085 -0.181643
v 0.046003 -0.815085 -0.160851
v 0.032364 -0.815085 -0.143851
v 0.016920 -0.815085 -0.131003
v 0.041559 -0.815085 -0.092513
v 0.001073 -0.815085 -0.122125
v 0.015593 -0.815085 -0.078633
v -0.014407 -0.815085 -0.116566
v -0.012582 -0.815085 -0.070087
v -0.028824 -0.815085 -0.113708
v -0.041884 -0.815085 -0.067201
v -0.041884 -0.815085 -0.112889
v -0.054943 -0.815085 -0.113708
v -0.071185 -0.815085 -0.070087
v -0.069359 -0.815085 -0.116566
v -0.099360 -0.815085 -0.078633
v -0.084838 -0.815085 -0.122125
v -0.125326 -0.815085 -0.092513
v -0.100685 -0.815085 -0.131002
v -0.145668 -0.815085 -0.109206
v -0.116129 -0.815085 -0.143849
v -0.129770 -0.815085 -0.160849
v -0.140082 -0.815085 -0.181641
v -0.145667 -0.815085 -0.205143
vn 0 1 0
vn 0 -1 0
usemtl material_0_0
f 1//1 2//1 3//1
f 3//2 2//2 1//2
f 2//1 4//1 3//1
f 3//2 4//2 2//2
f 1//1 3//1 5//1
f 5//2 3//2 1//2
f 4//1 6//1 3//1
f 3//2 6//2 4//2
f 5//1 3//1 7//1
f 7//2 3//2 5//2
f 6//1 8//1 3//1
f 3//2 8//2 6//2
f 7//1 3//1 9//1
f 9//2 3//2 7//2
f 8//1 10//1 3//1
f 3//2 10//2 8//2
f 9//1 3//1 11//1
f 11//2 3//2 9//2
f 11//1 3//1 12//1
f 12//2 3//2 11//2
f 3//1 13//1 12//1
f 12//2 13//2 3//2
f 12//1 13//1 14//1
f 14//2 13//2 12//2
f 12//1 14//1 15//1
f 15//2 14//2 12//2
f 12//1 15//1 16//1
f 16//2 15//2 12//2
f 12//1 16//1 17//1
f 17//2 16//2 12//2
f 17//1 16//1 18//1
f 18//2 16//2 17//2
f 17//1 18//1 19//1
f 19//2 18//2 17//2
f 19//1 18//1 20//1
f 20//2 18//2 19//2
f 19//1 20//1 21//1
f 21//2 20//2 19//2
f 21//1 20//1 22//1
f 22//2 20//2 21//2
f 21//1 22//1 23//1
f 23//2 22//2 21//2
f 22//1 24//1 23//1
f 23//2 24//2 22//2
f 24//1 25//1 23//1
f 23//2 25//2 24//2
f 23//1 25//1 26//1
f 26//2 25//2 23//2
f 25//1 27//1 26//1
f 26//2 27//2 25//2
f 27//1 28//1 26//1
f 26//2 28//2 27//2
f 27//1 29//1 28//1
f 28//2 29//2 27//2
f 29//1 30//1 28//1
f 28//2 30//2 29//2
f 29//1 31//1 30//1
f 30//2 31//2 29//2
f 31//1 32//1 30//1
f 30//2 32//2 31//2
f 31//1 33//1 32//1
f 32//2 33//2 31//2
f 33//1 34//1 32//1
f 32//2 34//2 33//2
f 34//1 35//1 32//1
f 32//2 35//2 34//2
f 35//1 36//1 32//1
f 32//2 36//2 35//2
