# SSTK version 0.8.0
# 134
mtllib original-134.mtl
o Group103/mesh130/mesh130-geometry#mesh130-geometry
v -0.123864 -0.785047 -0.170062
v -0.110920 -0.785047 -0.152624
v -0.123864 -0.822595 -0.170062
v -0.105353 -0.822595 -0.147159
v -0.132494 -0.785047 -0.189991
v -0.081039 -0.785047 -0.131207
v -0.134443 -0.822595 -0.197545
v -0.077018 -0.822595 -0.129492
v -0.136477 -0.785047 -0.213752
v -0.041884 -0.803821 -0.122730
v -0.135576 -0.822595 -0.230917
v -0.041884 -0.794434 -0.122730
v -0.041884 -0.813208 -0.122730
v -0.129811 -0.785047 -0.252463
v -0.041884 -0.785047 -0.122730
v -0.041884 -0.822595 -0.122730
v -0.123864 -0.822595 -0.264725
v -0.107134 -0.785047 -0.285976
v -0.100441 -0.822595 -0.291772
v -0.074751 -0.785047 -0.306167
v -0.070974 -0.822595 -0.307476
v -0.041884 -0.803821 -0.312057
v -0.041884 -0.813208 -0.312057
v -0.041884 -0.794434 -0.312057
v -0.041884 -0.822595 -0.312057
v -0.041884 -0.785047 -0.312057
vn 0.8660253028382762 0 -0.5000001748438417
vn 0.7279639876056853 -0.002715999953757233 -0.6856099883268044
vn 0.8659627647434948 0.012025996732892012 -0.49996386417458555
vn -0.8659627647434948 -0.012025996732892012 0.49996386417458555
vn -0.7279639876056853 0.002715999953757233 0.6856099883268044
vn -0.8660253028382762 0 0.5000001748438417
vn 0.6364060909201626 0.0033050004721690974 -0.7713471101985127
vn -0.6364060909201626 -0.0033050004721690974 0.7713471101985127
vn 0.9510505987123685 0.0019789991649783686 -0.30902886960792275
vn -0.9510505987123685 -0.0019789991649783686 0.30902886960792275
vn 0.3533068964805645 -0.007584997777584391 -0.9354767259039563
vn -0.3533068964805645 0.007584997777584391 0.9354767259039563
vn 0.9820656426970863 0.015269994444349514 -0.18791993162947956
vn -0.9820656426970863 -0.015269994444349514 0.18791993162947956
vn 0.2804569006826567 -0.001356999519449703 -0.9598656600857136
vn -0.2804569006826567 0.001356999519449703 0.9598656600857136
vn 0.9998905858039099 -0.01088099549264104 -0.010020995848888511
vn -0.9998905858039099 0.01088099549264104 0.010020995848888511
vn 0.2005130807287882 -0.007747003119029084 -0.9796603944221305
vn -0.2005130807287882 0.007747003119029084 0.9796603944221305
vn 0.987694818723448 0.009561998245038776 0.15610097135001083
vn -0.987694818723448 -0.009561998245038776 -0.15610097135001083
vn 0.21160389382227118 0 -0.9773555095865848
vn -0.21160389382227118 0 0.9773555095865848
vn 0.18898191678324866 0 -0.9819805675923172
vn -0.18898191678324866 0 0.9819805675923172
vn 0.9335350096368819 -0.021315000220034824 0.3578520036941062
vn -0.9335350096368819 0.021315000220034824 -0.3578520036941062
vn 0.8537139160197393 0.008312999182246037 0.5206759487808491
vn -0.8537139160197393 -0.008312999182246037 -0.5206759487808491
vn 0.7153040297491375 -0.018554000771651785 0.698567029053054
vn -0.7153040297491375 0.018554000771651785 -0.698567029053054
vn 0.5926229613482429 0.0045849997009592735 0.8054669474662393
vn -0.5926229613482429 -0.0045849997009592735 -0.8054669474662393
vn 0.30829591065200435 -0.007652997782066113 0.9512597243130811
vn -0.30829591065200435 0.007652997782066113 -0.9512597243130811
vn 0.23943296597334557 -0.000262999962624373 0.9709128620201847
vn -0.23943296597334557 0.000262999962624373 -0.9709128620201847
vn 0.16617999699438551 -0.005866999893886725 0.9860779821653007
vn -0.16617999699438551 0.005866999893886725 -0.9860779821653007
vn 0.15554301881370697 0 0.9878291194828784
vn -0.15554301881370697 0 -0.9878291194828784
vn 0.17636902106401797 0 0.9843241175593128
vn -0.17636902106401797 0 -0.9843241175593128
usemtl material_0_0
f 1//1 2//2 3//3
f 3//4 2//5 1//6
f 3//3 2//2 4//7
f 4//8 2//5 3//4
f 5//9 1//1 3//3
f 3//4 1//6 5//10
f 2//2 6//11 4//7
f 4//8 6//12 2//5
f 7//13 5//9 3//3
f 3//4 5//10 7//14
f 6//11 8//15 4//7
f 4//8 8//16 6//12
f 9//17 5//9 7//13
f 7//14 5//10 9//18
f 6//11 10//19 8//15
f 8//16 10//20 6//12
f 11//21 9//17 7//13
f 7//14 9//18 11//22
f 6//11 12//23 10//19
f 10//20 12//24 6//12
f 10//19 13//25 8//15
f 8//16 13//26 10//20
f 14//27 9//17 11//21
f 11//22 9//18 14//28
f 15//23 12//23 6//11
f 6//12 12//24 15//24
f 13//25 16//25 8//15
f 8//16 16//26 13//26
f 17//29 14//27 11//21
f 11//22 14//28 17//30
f 18//31 14//27 17//29
f 17//30 14//28 18//32
f 19//33 18//31 17//29
f 17//30 18//32 19//34
f 18//31 19//33 20//35
f 20//36 19//34 18//32
f 20//35 19//33 21//37
f 21//38 19//34 20//36
f 20//35 21//37 22//39
f 22//40 21//38 20//36
f 22//39 21//37 23//41
f 23//42 21//38 22//40
f 20//35 22//39 24//43
f 24//44 22//40 20//36
f 23//41 21//37 25//41
f 25//42 21//38 23//42
f 20//35 24//43 26//43
f 26//44 24//44 20//36
