# SSTK version 0.8.0
# 156
mtllib original-156.mtl
o Group122/mesh151/mesh151-geometry#mesh151-geometry
v -0.094256 0.287974 0.799580
v -0.090925 0.293376 0.810715
v -0.090925 0.289401 0.811203
v -0.094783 0.291420 0.794783
v -0.085014 0.290698 0.821766
v -0.093570 0.285464 0.779135
v -0.082321 0.295093 0.824699
v -0.092959 0.289150 0.776291
v -0.075811 0.291903 0.831579
v -0.083964 0.284977 0.758741
v -0.067874 0.296544 0.836513
v -0.083964 0.285971 0.758619
v -0.083964 0.283983 0.758863
v -0.056327 0.293153 0.841762
v -0.083964 0.286965 0.758497
v -0.083964 0.282990 0.758985
v -0.048845 0.297317 0.842807
v -0.033683 0.293320 0.843117
v -0.028821 0.297174 0.841641
v -0.013647 0.292406 0.835675
v -0.011775 0.296231 0.833964
v 0.000197 0.292858 0.822926
v 0.000197 0.293852 0.822804
v 0.000197 0.291864 0.823048
v 0.000197 0.294846 0.822682
v 0.000197 0.290870 0.823170
vn 0.986991650160378 -0.005685997984595493 -0.160670943050114
vn 0.9223016771806348 -0.10885096190053714 -0.3708248702057557
vn 0.9241285187634336 -0.046563975751978834 -0.3792338025153761
vn -0.9241285187634336 0.046563975751978834 0.3792338025153761
vn -0.9223016771806348 0.10885096190053714 0.3708248702057557
vn -0.986991650160378 0.005685997984595493 0.160670943050114
vn 0.9992403558310529 -0.021906007800763617 -0.03223101147751358
vn -0.9992403558310529 0.021906007800763617 0.03223101147751358
vn 0.8245030177651546 -0.07913300170503912 -0.5602970120724398
vn -0.8245030177651546 0.07913300170503912 0.5602970120724398
vn 0.9561510139454626 0.0745500010873117 0.2832270041308659
vn -0.9561510139454626 -0.0745500010873117 -0.2832270041308659
vn 0.7455211886057017 -0.15932504030685027 -0.6471581637213287
vn -0.7455211886057017 0.15932504030685027 0.6471581637213287
vn 0.9319344579280088 0.0511640251406522 0.3589991764027251
vn -0.9319344579280088 -0.0511640251406522 -0.3589991764027251
vn 0.6176823701709785 -0.03998602396323131 -0.7854104706887821
vn -0.6176823701709785 0.03998602396323131 0.7854104706887821
vn 0.8982856836665064 0.09350996707023701 0.4293468488044604
vn -0.8982856836665064 -0.09350996707023701 -0.4293468488044604
vn 0.4776251237665367 -0.15837404103931196 -0.8641712239318541
vn -0.4776251237665367 0.15837404103931196 0.8641712239318541
vn 0.8938106714222973 0.054651979909143326 0.445101836374141
vn -0.8938106714222973 -0.054651979909143326 -0.445101836374141
vn 0.9039259930573964 0.05212199959967689 0.4245009967396201
vn -0.9039259930573964 -0.05212199959967689 -0.4245009967396201
vn 0.2833009955909867 -0.00693299989210151 -0.95900598507499
vn -0.2833009955909867 0.00693299989210151 0.95900598507499
vn 0.10684496823109584 -0.1658979506724911 -0.9803377085098604
vn -0.10684496823109584 0.1658979506724911 0.9803377085098604
vn -0.11853803890750982 -0.025332008314675566 -0.9926263258078071
vn 0.11853803890750982 0.025332008314675566 0.9926263258078071
vn -0.2780069932452642 -0.1413719965650844 -0.9501189769149595
vn 0.2780069932452642 0.1413719965650844 0.9501189769149595
vn -0.5667531840774969 -0.06089301977762961 -0.8216342668611019
vn 0.5667531840774969 0.06089301977762961 0.8216342668611019
vn -0.6241260877302897 -0.0938630131938552 -0.7756651090313738
vn 0.6241260877302897 0.0938630131938552 0.7756651090313738
vn -0.6803579746250293 -0.05872999780957652 -0.7305229727540505
vn 0.6803579746250293 0.05872999780957652 0.7305229727540505
vn -0.6885368256676618 -0.08837997762285518 -0.7197958177531205
vn 0.6885368256676618 0.08837997762285518 0.7197958177531205
vn -0.6730689943886239 -0.09013199924856936 -0.7340669938800836
vn 0.6730689943886239 0.09013199924856936 0.7340669938800836
usemtl material_0_0
f 1//1 2//2 3//3
f 3//4 2//5 1//6
f 4//7 2//2 1//1
f 1//6 2//5 4//8
f 2//2 5//9 3//3
f 3//4 5//10 2//5
f 6//11 4//7 1//1
f 1//6 4//8 6//12
f 2//2 7//13 5//9
f 5//10 7//14 2//5
f 8//15 4//7 6//11
f 6//12 4//8 8//16
f 5//9 7//13 9//17
f 9//18 7//14 5//10
f 10//19 8//15 6//11
f 6//12 8//16 10//20
f 11//21 9//17 7//13
f 7//14 9//18 11//22
f 12//23 8//15 10//19
f 10//20 8//16 12//24
f 10//19 6//11 13//25
f 13//26 6//12 10//20
f 11//21 14//27 9//17
f 9//18 14//28 11//22
f 15//23 8//15 12//23
f 12//24 8//16 15//24
f 13//25 6//11 16//25
f 16//26 6//12 13//26
f 17//29 14//27 11//21
f 11//22 14//28 17//30
f 17//29 18//31 14//27
f 14//28 18//32 17//30
f 17//29 19//33 18//31
f 18//32 19//34 17//30
f 19//33 20//35 18//31
f 18//32 20//36 19//34
f 19//33 21//37 20//35
f 20//36 21//38 19//34
f 21//37 22//39 20//35
f 20//36 22//40 21//38
f 21//37 23//41 22//39
f 22//40 23//42 21//38
f 22//39 24//43 20//35
f 20//36 24//44 22//40
f 21//37 25//41 23//41
f 23//42 25//42 21//38
f 20//35 24//43 26//43
f 26//44 24//44 20//36
