# SSTK version 0.8.0
# 28
mtllib original-28.mtl
o RB_31_TC1/RB_31_TC/mesh16/mesh16-geometry#mesh16-geometry
v -0.814351 0.118026 0.241351
v -0.811877 -0.105975 0.238937
v -0.811877 0.118026 0.238937
v -0.814351 -0.105975 0.241351
v -0.810793 0.118026 0.237443
v -0.815904 0.118026 0.242155
v -0.810793 -0.105975 0.237443
v -0.815904 -0.105975 0.242155
v -0.809987 0.118026 0.235834
v -0.817572 0.118026 0.242614
v -0.809987 -0.105975 0.235834
v -0.817572 -0.105975 0.242614
v -0.809982 0.118026 0.229575
v -0.817573 -0.105975 0.245040
v -0.809982 -0.105975 0.229575
v -0.817573 0.118026 0.245040
v -0.789202 -0.105975 0.230155
v -0.884837 -0.105975 0.245040
v -0.789202 0.118026 0.230155
v -0.884837 0.118026 0.245040
v -0.778969 0.118026 0.234417
v -0.885297 0.118026 0.244982
v -0.778969 -0.105975 0.234417
v -0.885297 -0.105975 0.244982
v -0.765163 -0.105975 0.236612
v -0.885527 0.118026 0.244867
v -0.765163 0.118026 0.236612
v -0.885527 -0.105975 0.244867
v -0.763554 -0.105975 0.237188
v -0.885815 -0.105975 0.244579
v -0.763554 0.118026 0.237188
v -0.885815 0.118026 0.244579
v -0.762864 -0.105975 0.237649
v -0.885930 -0.105975 0.244406
v -0.762864 0.118026 0.237649
v -0.885930 0.118026 0.244406
v -0.762289 0.118026 0.238224
v -0.886102 -0.105975 0.244004
v -0.762289 -0.105975 0.238224
v -0.886102 0.118026 0.244004
v -0.761772 0.118026 0.238972
v -0.886100 -0.105975 0.241359
v -0.761772 -0.105975 0.238972
v -0.886100 0.118026 0.241359
v -0.761083 0.118026 0.240525
v -0.888112 0.118026 0.240955
v -0.761083 -0.105975 0.240525
v -0.888112 -0.105975 0.240955
v -0.761085 0.118026 0.243113
v -0.889952 0.118026 0.240206
v -0.761085 -0.105975 0.243113
v -0.889952 -0.105975 0.240206
v -0.760453 0.118026 0.244378
v -0.891619 0.118026 0.239112
v -0.760453 -0.105975 0.244378
v -0.891619 -0.105975 0.239112
v -0.760051 -0.105975 0.244666
v -0.894262 -0.105975 0.236120
v -0.760051 0.118026 0.244666
v -0.894262 0.118026 0.236120
v -0.759189 -0.105975 0.245069
v -0.895754 -0.105975 0.232324
v -0.759189 0.118026 0.245069
v -0.895754 0.118026 0.232324
v -0.754536 -0.105975 0.245069
v -0.895744 -0.105975 0.218695
v -0.754536 0.118026 0.245069
v -0.895744 0.118026 0.218695
v -0.895572 -0.105975 0.218006
v -0.895572 0.118026 0.218006
v -0.895284 -0.105975 0.217373
v -0.895284 0.118026 0.217373
v -0.894248 0.118026 0.216396
v -0.894248 -0.105975 0.216396
v -0.893615 0.118026 0.216052
v -0.893615 -0.105975 0.216052
v -0.892867 0.118026 0.215822
v -0.892867 -0.105975 0.215822
v -0.809973 0.118026 0.215822
v -0.809973 -0.105975 0.215822
v -0.809976 -0.105975 0.220595
v -0.809976 0.118026 0.220595
v -0.754536 0.118026 0.220595
v -0.754536 -0.105975 0.220595
vt 0.786643 -0.393576
vt 0.787966 -0.582384
vt 0.787966 -0.393576
vt 0.786643 -0.582384
vt 0.788546 -0.393576
vt 0.785812 -0.393576
vt 0.788546 -0.582384
vt 0.785812 -0.582384
vt 0.788977 -0.393576
vt 0.78492 -0.393576
vt 0.788977 -0.582384
vt 0.78492 -0.582384
vt 0.788979 -0.393576
vt 0.784919 -0.582384
vt 0.788979 -0.582384
vt 0.784919 -0.393576
vt 0.506185 0.685267
vt 0.694993 0.696381
vt 0.506185 0.696381
vt 0.748945 -0.582384
vt 0.694993 0.685267
vt 0.748945 -0.393576
vt 0.694993 0.679794
vt 0.748699 -0.393576
vt 0.506185 0.679794
vt 0.748699 -0.582384
vt 0.506185 0.67241
vt 0.748576 -0.393576
vt 0.694993 0.67241
vt 0.748576 -0.582384
vt 0.506185 0.671549
vt 0.748422 -0.582384
vt 0.694993 0.671549
vt 0.748422 -0.393576
vt 0.506185 0.67118
vt 0.74836 -0.582384
vt 0.694993 0.67118
vt 0.74836 -0.393576
vt 0.694993 0.670873
vt 0.748268 -0.582384
vt 0.506185 0.670873
vt 0.748268 -0.393576
vt 0.694993 0.670596
vt 0.748269 -0.582384
vt 0.506185 0.670596
vt 0.748269 -0.393576
vt 0.694993 0.670228
vt 0.747193 -0.393576
vt 0.506185 0.670228
vt 0.747193 -0.582384
vt 0.694993 0.670229
vt 0.746209 -0.393576
vt 0.506185 0.670229
vt 0.746209 -0.582384
vt 0.694993 0.669891
vt 0.745318 -0.393576
vt 0.506185 0.669891
vt 0.745318 -0.582384
vt 0.506185 0.669676
vt 0.743904 -0.582384
vt 0.694993 0.669676
vt 0.743904 -0.393576
vt 0.506185 0.669215
vt 0.743106 -0.582384
vt 0.694993 0.669215
vt 0.743106 -0.393576
vt 0.506185 0.666726
vt 0.743111 -0.582384
vt 0.694993 0.666726
vt 0.743111 -0.393576
vt 0.743204 -0.582384
vt 0.743204 -0.393576
vt 0.743358 -0.582384
vt 0.743358 -0.393576
vt 0.743912 -0.393576
vt 0.743912 -0.582384
vt 0.74425 -0.393576
vt 0.74425 -0.582384
vt 0.74465 -0.393576
vt 0.74465 -0.582384
vt 0.788984 -0.393576
vt 0.788984 -0.582384
vt 0.788985 -0.376542
vt 0.788983 -0.564269
vt 0.788985 -0.564269
vt 0.788983 -0.376542
vt 0.506185 0.696377
vt 0.694993 0.696377
vn 0.5853538243945873 0 0.8107779599043321
vn 0.7566185965578511 0 0.653856482221311
vn 0.8546524889239091 0 0.5192004653081194
vn 0.36448436349403845 0 0.9312095085255229
vn 0.9730912175872721 0 0.23042022969895726
vn 0.2652688571766984 0 0.9641744828671667
vn 0.9999997591994255 0 0.0006939748488901953
vn 0.999999750093588 0 0.0007069743713223052
vn -0.2097441855182982 0 0.9777562971626752
vn -0.027922008117380853 0 0.9996101047221827
vn 0 0 1
vn -0.06248623858572521 0 0.9980458255949012
vn -0.27267620968233464 0 0.9621058593903664
vn -0.2904575123976508 0 0.9568878897194637
vn -0.24807041901773055 0 0.9687420023971126
vn -0.5852869980329639 0 0.8108262020516859
vn -0.4495138436715106 0 0.8932733648484459
vn -0.7737931699689521 0 0.633438339626992
vn -0.6345388118954989 0 0.7728909989113913
vn -0.8796176182386151 0 0.4756814540049107
vn -0.7682072043244501 0 0.640201289614456
vn -0.979718441162227 0 0.20037908086089187
vn -0.8721702557846301 0 0.4892024580115816
vn -0.9999997591994255 0 -0.0006939748488901953
vn -0.9783608393346664 0 0.20690594011861238
vn -0.2881965548281343 0 0.9575712745196538
vn -0.19680289879793877 0 0.9804430728118426
vn -0.9734099048232001 0 0.2290702014494424
vn -0.4650149681912486 0 0.8853028178866776
vn -0.7607127598179287 0 0.6490886665550324
vn -0.6548516004604213 0 0.7557574884673157
vn -0.5047978407804061 0 0.8632375918270935
vn -0.8530204970978708 0 0.5218774104432012
vn -0.42352634268665823 0 0.9058837878284739
vn -0.982578397734028 0 0.18584857359267107
vn -0.9924230732852252 0 -0.12286758568112484
vn -0.9439209613126734 0 -0.3301714990645897
vn -0.8133139045405273 0 -0.5818251392652625
vn -0.5870538164288968 0 -0.8095479087838269
vn -0.387798865907103 0 -0.9217440206484472
vn -0.14835829241154755 0 -0.9889336767815776
vn 0 0 -1
vn -0.7566185965578511 0 -0.653856482221311
vn -0.5853538243945873 0 -0.8107779599043321
vn -0.8546524889239091 0 -0.5192004653081194
vn -0.36448436349403845 0 -0.9312095085255229
vn -0.9730912175872721 0 -0.23042022969895726
vn -0.2652688571766984 0 -0.9641744828671667
vn -0.999999750093588 0 -0.0007069743713223052
vn 0.027922008117380853 0 -0.9996101047221827
vn 0.2097441855182982 0 -0.9777562971626752
vn 0.06248623858572521 0 -0.9980458255949012
vn 0.27267620968233464 0 -0.9621058593903664
vn 0.2904575123976508 0 -0.9568878897194637
vn 0.24807041901773055 0 -0.9687420023971126
vn 0.5852869980329639 0 -0.8108262020516859
vn 0.4495138436715106 0 -0.8932733648484459
vn 0.7737931699689521 0 -0.633438339626992
vn 0.6345388118954989 0 -0.7728909989113913
vn 0.8796176182386151 0 -0.4756814540049107
vn 0.7682072043244501 0 -0.640201289614456
vn 0.979718441162227 0 -0.20037908086089187
vn 0.8721702557846301 0 -0.4892024580115816
vn 0.9783608393346664 0 -0.20690594011861238
vn 0.19680289879793877 0 -0.9804430728118426
vn 0.2881965548281343 0 -0.9575712745196538
vn 0.9734099048232001 0 -0.2290702014494424
vn 0.4650149681912486 0 -0.8853028178866776
vn 0.7607127598179287 0 -0.6490886665550324
vn 0.6548516004604213 0 -0.7557574884673157
vn 0.5047978407804061 0 -0.8632375918270935
vn 0.8530204970978708 0 -0.5218774104432012
vn 0.42352634268665823 0 -0.9058837878284739
vn 0.982578397734028 0 -0.18584857359267107
vn 0.9924230732852252 0 0.12286758568112484
vn 0.9439209613126734 0 0.3301714990645897
vn 0.8133139045405273 0 0.5818251392652625
vn 0.5870538164288968 0 0.8095479087838269
vn 0.387798865907103 0 0.9217440206484472
vn 0.14835829241154755 0 0.9889336767815776
usemtl material_0_0
f 1/1/1 2/2/2 3/3/2
f 2/2/2 1/1/1 4/4/1
f 2/2/2 5/5/3 3/3/2
f 6/6/4 4/4/1 1/1/1
f 5/5/3 2/2/2 7/7/3
f 4/4/1 6/6/4 8/8/4
f 7/7/3 9/9/5 5/5/3
f 10/10/6 8/8/4 6/6/4
f 9/9/5 7/7/3 11/11/5
f 8/8/4 10/10/6 12/12/6
f 11/11/5 13/13/7 9/9/5
f 10/10/8 14/14/8 12/12/8
f 13/13/7 11/11/5 15/15/7
f 14/14/8 10/10/8 16/16/8
f 17/17/9 13/18/10 15/19/10
f 16/16/11 18/20/12 14/14/11
f 13/18/10 17/17/9 19/21/9
f 18/20/12 16/16/11 20/22/12
f 17/17/9 21/23/13 19/21/9
f 22/24/14 18/20/12 20/22/12
f 21/23/13 17/17/9 23/25/13
f 18/20/12 22/24/14 24/26/14
f 25/27/15 21/23/13 23/25/13
f 26/28/16 24/26/14 22/24/14
f 21/23/13 25/27/15 27/29/15
f 24/26/14 26/28/16 28/30/16
f 29/31/17 27/29/15 25/27/15
f 26/28/16 30/32/18 28/30/16
f 27/29/15 29/31/17 31/33/17
f 30/32/18 26/28/16 32/34/18
f 33/35/19 31/33/17 29/31/17
f 32/34/18 34/36/20 30/32/18
f 31/33/17 33/35/19 35/37/19
f 34/36/20 32/34/18 36/38/20
f 33/35/19 37/39/21 35/37/19
f 36/38/20 38/40/22 34/36/20
f 37/39/21 33/35/19 39/41/21
f 38/40/22 36/38/20 40/42/22
f 39/41/21 41/43/23 37/39/21
f 40/42/22 42/44/24 38/40/22
f 41/43/23 39/41/21 43/45/23
f 42/44/24 40/42/22 44/46/24
f 43/45/23 45/47/25 41/43/23
f 46/48/26 42/44/27 44/46/27
f 45/47/25 43/45/23 47/49/25
f 42/44/27 46/48/26 48/50/26
f 47/49/25 49/51/28 45/47/25
f 50/52/29 48/50/26 46/48/26
f 49/51/28 47/49/25 51/53/28
f 48/50/26 50/52/29 52/54/29
f 51/53/28 53/55/30 49/51/28
f 54/56/31 52/54/29 50/52/29
f 53/55/30 51/53/28 55/57/30
f 52/54/29 54/56/31 56/58/31
f 57/59/32 53/55/30 55/57/30
f 54/56/31 58/60/33 56/58/31
f 53/55/30 57/59/32 59/61/32
f 58/60/33 54/56/31 60/62/33
f 61/63/34 59/61/32 57/59/32
f 60/62/33 62/64/35 58/60/33
f 59/61/32 61/63/34 63/65/34
f 62/64/35 60/62/33 64/66/35
f 65/67/11 63/65/11 61/63/11
f 64/66/35 66/68/36 62/64/35
f 63/65/11 65/67/11 67/69/11
f 66/68/36 64/66/35 68/70/36
f 68/70/36 69/71/37 66/68/36
f 69/71/37 68/70/36 70/72/37
f 70/72/37 71/73/38 69/71/37
f 71/73/38 70/72/37 72/74/38
f 73/75/39 71/73/38 72/74/38
f 71/73/38 73/75/39 74/76/39
f 75/77/40 74/76/39 73/75/39
f 74/76/39 75/77/40 76/78/40
f 77/79/41 76/78/40 75/77/40
f 76/78/40 77/79/41 78/80/41
f 79/81/42 78/80/41 77/79/41
f 78/80/41 79/81/42 80/82/42
f 79/83/7 81/84/7 80/85/7
f 81/84/7 79/83/7 82/86/7
f 83/69/42 81/87/42 82/88/42
f 81/87/42 83/69/42 84/67/42
usemtl material_1_0
f 3//43 2//43 1//44
f 4//44 1//44 2//43
f 3//43 5//45 2//43
f 1//44 4//44 6//46
f 7//45 2//43 5//45
f 8//46 6//46 4//44
f 5//45 9//47 7//45
f 6//46 8//46 10//48
f 11//47 7//45 9//47
f 12//48 10//48 8//46
f 9//47 13//24 11//47
f 12//49 14//49 10//49
f 15//24 11//47 13//24
f 16//49 10//49 14//49
f 15//50 13//50 17//51
f 14//42 18//52 16//42
f 19//51 17//51 13//50
f 20//52 16//42 18//52
f 19//51 21//53 17//51
f 20//52 18//52 22//54
f 23//53 17//51 21//53
f 24//54 22//54 18//52
f 23//53 21//53 25//55
f 22//54 24//54 26//56
f 27//55 25//55 21//53
f 28//56 26//56 24//54
f 25//55 27//55 29//57
f 28//56 30//58 26//56
f 31//57 29//57 27//55
f 32//58 26//56 30//58
f 29//57 31//57 33//59
f 30//58 34//60 32//58
f 35//59 33//59 31//57
f 36//60 32//58 34//60
f 35//59 37//61 33//59
f 34//60 38//62 36//60
f 39//61 33//59 37//61
f 40//62 36//60 38//62
f 37//61 41//63 39//61
f 38//62 42//7 40//62
f 43//63 39//61 41//63
f 44//7 40//62 42//7
f 41//63 45//64 43//63
f 44//65 42//65 46//66
f 47//64 43//63 45//64
f 48//66 46//66 42//65
f 45//64 49//67 47//64
f 46//66 48//66 50//68
f 51//67 47//64 49//67
f 52//68 50//68 48//66
f 49//67 53//69 51//67
f 50//68 52//68 54//70
f 55//69 51//67 53//69
f 56//70 54//70 52//68
f 55//69 53//69 57//71
f 56//70 58//72 54//70
f 59//71 57//71 53//69
f 60//72 54//70 58//72
f 57//71 59//71 61//73
f 58//72 62//74 60//72
f 63//73 61//73 59//71
f 64//74 60//72 62//74
f 61//42 63//42 65//42
f 62//74 66//75 64//74
f 67//42 65//42 63//42
f 68//75 64//74 66//75
f 66//75 69//76 68//75
f 70//76 68//75 69//76
f 69//76 71//77 70//76
f 72//77 70//76 71//77
f 72//77 71//77 73//78
f 74//78 73//78 71//77
f 73//78 74//78 75//79
f 76//79 75//79 74//78
f 75//79 76//79 77//80
f 78//80 77//80 76//79
f 77//80 78//80 79//11
f 80//11 79//11 78//80
f 80//24 81//24 79//24
f 82//24 79//24 81//24
f 82//11 81//11 83//11
f 84//11 83//11 81//11
