# SSTK version 0.8.0
# 113
mtllib original-113.mtl
o 3dw.47c68395a5775e10d9deb3f829cc2475/Model/Component_18_1/Component_18/mesh1/mesh1-geometry/material_13/component_1#mesh1-geometry
v 0.319643 0.758765 -0.312808
v 0.301881 0.726129 -0.330545
v 0.301881 0.758765 -0.330545
v 0.332208 0.726129 -0.291079
v 0.319643 0.758765 -0.312808
v 0.332208 0.758765 -0.291079
v 0.338721 0.726129 -0.266838
v 0.332208 0.758765 -0.291079
v 0.338721 0.758765 -0.266838
v 0.338739 0.726129 -0.241738
v 0.338721 0.758765 -0.266838
v 0.338739 0.758765 -0.241738
v 0.301881 0.758765 -0.330545
v 0.280135 0.726129 -0.34308
v 0.280135 0.758765 -0.34308
v 0.301881 0.726129 -0.330545
v 0.319643 0.758765 -0.312808
v 0.319643 0.726129 -0.312808
v 0.280135 0.726129 -0.34308
v 0.301881 0.758765 -0.330545
v 0.301881 0.726129 -0.330545
v 0.319643 0.758765 -0.312808
v 0.332208 0.726129 -0.291079
v 0.319643 0.726129 -0.312808
v 0.332208 0.758765 -0.291079
v 0.338721 0.726129 -0.266838
v 0.332208 0.726129 -0.291079
v 0.338721 0.758765 -0.266838
v 0.338739 0.726129 -0.241738
v 0.338721 0.726129 -0.266838
v 0.332259 0.726129 -0.217488
v 0.338739 0.758765 -0.241738
v 0.332259 0.758765 -0.217488
v 0.319724 0.726129 -0.195741
v 0.332259 0.758765 -0.217488
v 0.319724 0.758765 -0.195741
v 0.301987 0.726129 -0.17798
v 0.319724 0.758765 -0.195741
v 0.301987 0.758765 -0.17798
v 0.338739 0.758765 -0.241738
v 0.332259 0.726129 -0.217488
v 0.338739 0.726129 -0.241738
v 0.280135 0.758765 -0.34308
v 0.255885 0.726129 -0.34956
v 0.255885 0.758765 -0.34956
v 0.255885 0.726129 -0.34956
v 0.280135 0.758765 -0.34308
v 0.280135 0.726129 -0.34308
v 0.280258 0.758765 -0.165415
v 0.301987 0.726129 -0.17798
v 0.301987 0.758765 -0.17798
v 0.332259 0.758765 -0.217488
v 0.319724 0.726129 -0.195741
v 0.332259 0.726129 -0.217488
v 0.319724 0.758765 -0.195741
v 0.301987 0.726129 -0.17798
v 0.319724 0.726129 -0.195741
v 0.255885 0.758765 -0.34956
v 0.230784 0.726129 -0.349543
v 0.230784 0.758765 -0.349543
v 0.230784 0.726129 -0.349543
v 0.255885 0.758765 -0.34956
v 0.255885 0.726129 -0.34956
v 0.256017 0.758765 -0.158901
v 0.280258 0.726129 -0.165415
v 0.280258 0.758765 -0.165415
v 0.301987 0.726129 -0.17798
v 0.280258 0.758765 -0.165415
v 0.280258 0.726129 -0.165415
v 0.206543 0.726129 -0.343029
v 0.230784 0.758765 -0.349543
v 0.230784 0.726129 -0.349543
v 0.230916 0.758765 -0.158884
v 0.256017 0.726129 -0.158901
v 0.256017 0.758765 -0.158901
v 0.280258 0.726129 -0.165415
v 0.256017 0.758765 -0.158901
v 0.256017 0.726129 -0.158901
v 0.230784 0.758765 -0.349543
v 0.206543 0.726129 -0.343029
v 0.206543 0.758765 -0.343029
v 0.206666 0.758765 -0.165364
v 0.230916 0.726129 -0.158884
v 0.230916 0.758765 -0.158884
v 0.256017 0.726129 -0.158901
v 0.230916 0.758765 -0.158884
v 0.230916 0.726129 -0.158884
v 0.184814 0.726129 -0.330464
v 0.206543 0.758765 -0.343029
v 0.206543 0.726129 -0.343029
v 0.206543 0.758765 -0.343029
v 0.184814 0.726129 -0.330464
v 0.184814 0.758765 -0.330464
v 0.230916 0.726129 -0.158884
v 0.206666 0.758765 -0.165364
v 0.206666 0.726129 -0.165364
v 0.184814 0.726129 -0.330464
v 0.167078 0.758765 -0.312703
v 0.184814 0.758765 -0.330464
v 0.18492 0.758765 -0.177899
v 0.206666 0.726129 -0.165364
v 0.206666 0.758765 -0.165364
v 0.167078 0.758765 -0.312703
v 0.184814 0.726129 -0.330464
v 0.167078 0.726129 -0.312703
v 0.206666 0.726129 -0.165364
v 0.18492 0.758765 -0.177899
v 0.18492 0.726129 -0.177899
v 0.167078 0.726129 -0.312703
v 0.154542 0.758765 -0.290956
v 0.167078 0.758765 -0.312703
v 0.167159 0.758765 -0.195636
v 0.18492 0.726129 -0.177899
v 0.18492 0.758765 -0.177899
v 0.154542 0.758765 -0.290956
v 0.167078 0.726129 -0.312703
v 0.154542 0.726129 -0.290956
v 0.18492 0.726129 -0.177899
v 0.167159 0.758765 -0.195636
v 0.167159 0.726129 -0.195636
v 0.154542 0.726129 -0.290956
v 0.148062 0.758765 -0.266706
v 0.154542 0.758765 -0.290956
v 0.154593 0.726129 -0.217365
v 0.167159 0.758765 -0.195636
v 0.154593 0.758765 -0.217365
v 0.167159 0.758765 -0.195636
v 0.154593 0.726129 -0.217365
v 0.167159 0.726129 -0.195636
v 0.148062 0.758765 -0.266706
v 0.154542 0.726129 -0.290956
v 0.148062 0.726129 -0.266706
v 0.154593 0.758765 -0.217365
v 0.14808 0.726129 -0.241606
v 0.154593 0.726129 -0.217365
v 0.148062 0.726129 -0.266706
v 0.14808 0.758765 -0.241606
v 0.148062 0.758765 -0.266706
v 0.14808 0.726129 -0.241606
v 0.154593 0.758765 -0.217365
v 0.14808 0.758765 -0.241606
v 0.14808 0.758765 -0.241606
v 0.148062 0.726129 -0.266706
v 0.14808 0.726129 -0.241606
v 0.301881 0.758765 -0.330545
v 0.301881 0.726129 -0.330545
v 0.319643 0.758765 -0.312808
v 0.332208 0.758765 -0.291079
v 0.319643 0.758765 -0.312808
v 0.332208 0.726129 -0.291079
v 0.338721 0.758765 -0.266838
v 0.332208 0.758765 -0.291079
v 0.338721 0.726129 -0.266838
v 0.338739 0.758765 -0.241738
v 0.338721 0.758765 -0.266838
v 0.338739 0.726129 -0.241738
v 0.280135 0.758765 -0.34308
v 0.280135 0.726129 -0.34308
v 0.301881 0.758765 -0.330545
v 0.319643 0.726129 -0.312808
v 0.319643 0.758765 -0.312808
v 0.301881 0.726129 -0.330545
v 0.301881 0.726129 -0.330545
v 0.301881 0.758765 -0.330545
v 0.280135 0.726129 -0.34308
v 0.319643 0.726129 -0.312808
v 0.332208 0.726129 -0.291079
v 0.319643 0.758765 -0.312808
v 0.332208 0.726129 -0.291079
v 0.338721 0.726129 -0.266838
v 0.332208 0.758765 -0.291079
v 0.338721 0.726129 -0.266838
v 0.338739 0.726129 -0.241738
v 0.338721 0.758765 -0.266838
v 0.332259 0.758765 -0.217488
v 0.338739 0.758765 -0.241738
v 0.332259 0.726129 -0.217488
v 0.319724 0.758765 -0.195741
v 0.332259 0.758765 -0.217488
v 0.319724 0.726129 -0.195741
v 0.301987 0.758765 -0.17798
v 0.319724 0.758765 -0.195741
v 0.301987 0.726129 -0.17798
v 0.338739 0.726129 -0.241738
v 0.332259 0.726129 -0.217488
v 0.338739 0.758765 -0.241738
v 0.255885 0.758765 -0.34956
v 0.255885 0.726129 -0.34956
v 0.280135 0.758765 -0.34308
v 0.280135 0.726129 -0.34308
v 0.280135 0.758765 -0.34308
v 0.255885 0.726129 -0.34956
v 0.301987 0.758765 -0.17798
v 0.301987 0.726129 -0.17798
v 0.280258 0.758765 -0.165415
v 0.332259 0.726129 -0.217488
v 0.319724 0.726129 -0.195741
v 0.332259 0.758765 -0.217488
v 0.319724 0.726129 -0.195741
v 0.301987 0.726129 -0.17798
v 0.319724 0.758765 -0.195741
v 0.230784 0.758765 -0.349543
v 0.230784 0.726129 -0.349543
v 0.255885 0.758765 -0.34956
v 0.255885 0.726129 -0.34956
v 0.255885 0.758765 -0.34956
v 0.230784 0.726129 -0.349543
v 0.280258 0.758765 -0.165415
v 0.280258 0.726129 -0.165415
v 0.256017 0.758765 -0.158901
v 0.280258 0.726129 -0.165415
v 0.280258 0.758765 -0.165415
v 0.301987 0.726129 -0.17798
v 0.230784 0.726129 -0.349543
v 0.230784 0.758765 -0.349543
v 0.206543 0.726129 -0.343029
v 0.256017 0.758765 -0.158901
v 0.256017 0.726129 -0.158901
v 0.230916 0.758765 -0.158884
v 0.256017 0.726129 -0.158901
v 0.256017 0.758765 -0.158901
v 0.280258 0.726129 -0.165415
v 0.206543 0.758765 -0.343029
v 0.206543 0.726129 -0.343029
v 0.230784 0.758765 -0.349543
v 0.230916 0.758765 -0.158884
v 0.230916 0.726129 -0.158884
v 0.206666 0.758765 -0.165364
v 0.230916 0.726129 -0.158884
v 0.230916 0.758765 -0.158884
v 0.256017 0.726129 -0.158901
v 0.206543 0.726129 -0.343029
v 0.206543 0.758765 -0.343029
v 0.184814 0.726129 -0.330464
v 0.184814 0.758765 -0.330464
v 0.184814 0.726129 -0.330464
v 0.206543 0.758765 -0.343029
v 0.206666 0.726129 -0.165364
v 0.206666 0.758765 -0.165364
v 0.230916 0.726129 -0.158884
v 0.184814 0.758765 -0.330464
v 0.167078 0.758765 -0.312703
v 0.184814 0.726129 -0.330464
v 0.206666 0.758765 -0.165364
v 0.206666 0.726129 -0.165364
v 0.18492 0.758765 -0.177899
v 0.167078 0.726129 -0.312703
v 0.184814 0.726129 -0.330464
v 0.167078 0.758765 -0.312703
v 0.18492 0.726129 -0.177899
v 0.18492 0.758765 -0.177899
v 0.206666 0.726129 -0.165364
v 0.167078 0.758765 -0.312703
v 0.154542 0.758765 -0.290956
v 0.167078 0.726129 -0.312703
v 0.18492 0.758765 -0.177899
v 0.18492 0.726129 -0.177899
v 0.167159 0.758765 -0.195636
v 0.154542 0.726129 -0.290956
v 0.167078 0.726129 -0.312703
v 0.154542 0.758765 -0.290956
v 0.167159 0.726129 -0.195636
v 0.167159 0.758765 -0.195636
v 0.18492 0.726129 -0.177899
v 0.154542 0.758765 -0.290956
v 0.148062 0.758765 -0.266706
v 0.154542 0.726129 -0.290956
v 0.154593 0.758765 -0.217365
v 0.167159 0.758765 -0.195636
v 0.154593 0.726129 -0.217365
v 0.167159 0.726129 -0.195636
v 0.154593 0.726129 -0.217365
v 0.167159 0.758765 -0.195636
v 0.148062 0.726129 -0.266706
v 0.154542 0.726129 -0.290956
v 0.148062 0.758765 -0.266706
v 0.154593 0.726129 -0.217365
v 0.14808 0.726129 -0.241606
v 0.154593 0.758765 -0.217365
v 0.148062 0.758765 -0.266706
v 0.14808 0.758765 -0.241606
v 0.148062 0.726129 -0.266706
v 0.14808 0.758765 -0.241606
v 0.154593 0.758765 -0.217365
v 0.14808 0.726129 -0.241606
v 0.14808 0.726129 -0.241606
v 0.148062 0.726129 -0.266706
v 0.14808 0.758765 -0.241606
vn 0.7929321773586472 0.0 -0.6093099064591637
vn 0.6082122533359883 0.0 -0.7937744357762849
vn 0.9236145857525411 0.0 -0.38332244518833225
vn 0.9913543477723679 0.0 -0.13121187885562569
vn 0.9915349578938101 0.0 0.12984000644839988
vn 0.3820441679102771 0.0 -0.9241440654820783
vn 0.9241440654820783 0.0 0.3820441679102771
vn 0.7937744357762849 0.0 0.6082122533359883
vn 0.6093099064591637 0.0 0.7929321773586472
vn 0.12984000644839988 0.0 -0.9915349578938101
vn 0.38332244518833225 0.0 0.9236145857525411
vn -0.13121187885562569 0.0 -0.9913543477723679
vn 0.13121187885562569 0.0 0.9913543477723679
vn -0.38332244518833225 0.0 -0.9236145857525411
vn -0.12984000644839988 0.0 0.9915349578938101
vn -0.3820441679102771 0.0 0.9241440654820783
vn -0.6093099064591637 0.0 -0.7929321773586472
vn -0.7937744357762849 0.0 -0.6082122533359883
vn -0.6082122533359883 0.0 0.7937744357762849
vn -0.9241440654820783 0.0 -0.3820441679102771
vn -0.7929321773586472 0.0 0.6093099064591637
vn -0.9915349578938101 0.0 -0.12984000644839988
vn -0.9236145857525411 0.0 0.38332244518833225
vn -0.9913543477723679 0.0 0.13121187885562569
usemtl material_0_0
f 1//1 2//2 3//2
f 4//3 5//1 6//3
f 7//4 8//3 9//4
f 10//5 11//4 12//5
f 13//2 14//6 15//6
f 16//2 17//1 18//1
f 19//6 20//2 21//2
f 22//1 23//3 24//1
f 25//3 26//4 27//3
f 28//4 29//5 30//4
f 31//7 32//5 33//7
f 34//8 35//7 36//8
f 37//9 38//8 39//9
f 40//5 41//7 42//5
f 43//6 44//10 45//10
f 46//10 47//6 48//6
f 49//11 50//9 51//9
f 52//7 53//8 54//7
f 55//8 56//9 57//8
f 58//10 59//12 60//12
f 61//12 62//10 63//10
f 64//13 65//11 66//11
f 67//9 68//11 69//11
f 70//14 71//12 72//12
f 73//15 74//13 75//13
f 76//11 77//13 78//13
f 79//12 80//14 81//14
f 82//16 83//15 84//15
f 85//13 86//15 87//15
f 88//17 89//14 90//14
f 91//14 92//17 93//17
f 94//15 95//16 96//16
f 97//17 98//18 99//17
f 100//19 101//16 102//16
f 103//18 104//17 105//18
f 106//16 107//19 108//19
f 109//18 110//20 111//18
f 112//21 113//19 114//19
f 115//20 116//18 117//20
f 118//19 119//21 120//21
f 121//20 122//22 123//20
f 124//23 125//21 126//23
f 127//21 128//23 129//21
f 130//22 131//20 132//22
f 133//23 134//24 135//23
f 136//22 137//24 138//22
f 139//24 140//23 141//24
f 142//24 143//22 144//24
usemtl material_1_0
f 145//19 146//19 147//21
f 148//23 149//21 150//23
f 151//24 152//23 153//24
f 154//22 155//24 156//22
f 157//16 158//16 159//19
f 160//21 161//21 162//19
f 163//19 164//19 165//16
f 166//21 167//23 168//21
f 169//23 170//24 171//23
f 172//24 173//22 174//24
f 175//20 176//22 177//20
f 178//18 179//20 180//18
f 181//17 182//18 183//17
f 184//22 185//20 186//22
f 187//15 188//15 189//16
f 190//16 191//16 192//15
f 193//17 194//17 195//14
f 196//20 197//18 198//20
f 199//18 200//17 201//18
f 202//13 203//13 204//15
f 205//15 206//15 207//13
f 208//14 209//14 210//12
f 211//14 212//14 213//17
f 214//13 215//13 216//11
f 217//12 218//12 219//10
f 220//12 221//12 222//14
f 223//11 224//11 225//13
f 226//10 227//10 228//6
f 229//10 230//10 231//12
f 232//11 233//11 234//9
f 235//9 236//9 237//11
f 238//6 239//6 240//10
f 241//9 242//8 243//9
f 244//6 245//6 246//2
f 247//8 248//9 249//8
f 250//2 251//2 252//6
f 253//8 254//7 255//8
f 256//2 257//2 258//1
f 259//7 260//8 261//7
f 262//1 263//1 264//2
f 265//7 266//5 267//7
f 268//3 269//1 270//3
f 271//1 272//3 273//1
f 274//5 275//7 276//5
f 277//3 278//4 279//3
f 280//5 281//4 282//5
f 283//4 284//3 285//4
f 286//4 287//5 288//4
