# SSTK version 0.8.0
# 37
mtllib original-37.mtl
o 3dw.47c68395a5775e10d9deb3f829cc2475/Model/Component_18_1/Component_18/mesh1/mesh1-geometry/material_3/component_13#mesh1-geometry
v 0.114141 0.633884 0.498979
v 0.114877 0.617768 0.50993
v 0.108456 0.61902 0.509504
v 0.116554 0.633414 0.499139
v 0.121402 0.618225 0.510364
v 0.114877 0.617768 0.50993
v 0.111932 0.634964 0.498832
v 0.108456 0.61902 0.509504
v 0.102577 0.621894 0.509113
v 0.110077 0.636581 0.498709
v 0.102577 0.621894 0.509113
v 0.097641 0.626195 0.508785
v 0.114877 0.617768 0.50993
v 0.114141 0.633884 0.498979
v 0.116554 0.633414 0.499139
v 0.108456 0.61902 0.509504
v 0.111932 0.634964 0.498832
v 0.114141 0.633884 0.498979
v 0.121402 0.618225 0.510364
v 0.116554 0.633414 0.499139
v 0.119007 0.633585 0.499302
v 0.121402 0.618225 0.510364
v 0.121331 0.634387 0.499456
v 0.127587 0.620358 0.510774
v 0.102577 0.621894 0.509113
v 0.110077 0.636581 0.498709
v 0.111932 0.634964 0.498832
v 0.127587 0.620358 0.510774
v 0.123369 0.635764 0.499592
v 0.13301 0.624023 0.511135
v 0.095516 0.656696 0.508644
v 0.108201 0.645829 0.498584
v 0.092648 0.650804 0.508454
v 0.099808 0.661643 0.508929
v 0.109278 0.648043 0.498656
v 0.095516 0.656696 0.508644
v 0.092648 0.650804 0.508454
v 0.107731 0.64341 0.498553
v 0.091399 0.644369 0.508371
v 0.097641 0.626195 0.508785
v 0.108703 0.638623 0.498617
v 0.110077 0.636581 0.498709
v 0.114141 0.633884 0.498979
v 0.115254 0.652081 0.499053
v 0.116554 0.633414 0.499139
v 0.111932 0.634964 0.498832
v 0.112929 0.651279 0.498898
v 0.114141 0.633884 0.498979
v 0.116554 0.633414 0.499139
v 0.117706 0.652253 0.499215
v 0.119007 0.633585 0.499302
v 0.121331 0.634387 0.499456
v 0.121402 0.618225 0.510364
v 0.119007 0.633585 0.499302
v 0.123369 0.635764 0.499592
v 0.127587 0.620358 0.510774
v 0.121331 0.634387 0.499456
v 0.110077 0.636581 0.498709
v 0.110891 0.649902 0.498763
v 0.111932 0.634964 0.498832
v 0.124982 0.637624 0.499699
v 0.13301 0.624023 0.511135
v 0.123369 0.635764 0.499592
v 0.108201 0.645829 0.498584
v 0.095516 0.656696 0.508644
v 0.109278 0.648043 0.498656
v 0.107731 0.64341 0.498553
v 0.092648 0.650804 0.508454
v 0.108201 0.645829 0.498584
v 0.109278 0.648043 0.498656
v 0.099808 0.661643 0.508929
v 0.110891 0.649902 0.498763
v 0.107731 0.64341 0.498553
v 0.091855 0.637829 0.508401
v 0.091399 0.644369 0.508371
v 0.108703 0.638623 0.498617
v 0.097641 0.626195 0.508785
v 0.093984 0.631631 0.508543
v 0.107903 0.640953 0.498564
v 0.093984 0.631631 0.508543
v 0.091855 0.637829 0.508401
v 0.108703 0.638623 0.498617
v 0.109278 0.648043 0.498656
v 0.110077 0.636581 0.498709
v 0.114141 0.633884 0.498979
v 0.112929 0.651279 0.498898
v 0.115254 0.652081 0.499053
v 0.116554 0.633414 0.499139
v 0.115254 0.652081 0.499053
v 0.117706 0.652253 0.499215
v 0.111932 0.634964 0.498832
v 0.110891 0.649902 0.498763
v 0.112929 0.651279 0.498898
v 0.119007 0.633585 0.499302
v 0.117706 0.652253 0.499215
v 0.120119 0.651782 0.499376
v 0.119007 0.633585 0.499302
v 0.120119 0.651782 0.499376
v 0.121331 0.634387 0.499456
v 0.121331 0.634387 0.499456
v 0.122328 0.650702 0.499522
v 0.123369 0.635764 0.499592
v 0.110077 0.636581 0.498709
v 0.109278 0.648043 0.498656
v 0.110891 0.649902 0.498763
v 0.13301 0.624023 0.511135
v 0.124982 0.637624 0.499699
v 0.137302 0.628971 0.51142
v 0.123369 0.635764 0.499592
v 0.124183 0.649086 0.499646
v 0.124982 0.637624 0.499699
v 0.105231 0.665308 0.50929
v 0.110891 0.649902 0.498763
v 0.099808 0.661643 0.508929
v 0.108703 0.638623 0.498617
v 0.108201 0.645829 0.498584
v 0.109278 0.648043 0.498656
v 0.108201 0.645829 0.498584
v 0.107903 0.640953 0.498564
v 0.107731 0.64341 0.498553
v 0.091855 0.637829 0.508401
v 0.107731 0.64341 0.498553
v 0.107903 0.640953 0.498564
v 0.093984 0.631631 0.508543
v 0.107903 0.640953 0.498564
v 0.108703 0.638623 0.498617
v 0.112929 0.651279 0.498898
v 0.111416 0.667442 0.5097
v 0.115254 0.652081 0.499053
v 0.115254 0.652081 0.499053
v 0.117942 0.667898 0.510134
v 0.117706 0.652253 0.499215
v 0.110891 0.649902 0.498763
v 0.105231 0.665308 0.50929
v 0.112929 0.651279 0.498898
v 0.117942 0.667898 0.510134
v 0.120119 0.651782 0.499376
v 0.117706 0.652253 0.499215
v 0.121331 0.634387 0.499456
v 0.120119 0.651782 0.499376
v 0.122328 0.650702 0.499522
v 0.123369 0.635764 0.499592
v 0.122328 0.650702 0.499522
v 0.124183 0.649086 0.499646
v 0.12606 0.639838 0.49977
v 0.137302 0.628971 0.51142
v 0.124982 0.637624 0.499699
v 0.124982 0.637624 0.499699
v 0.124183 0.649086 0.499646
v 0.125558 0.647043 0.499737
v 0.137302 0.628971 0.51142
v 0.12606 0.639838 0.49977
v 0.14017 0.634862 0.51161
v 0.107903 0.640953 0.498564
v 0.108201 0.645829 0.498584
v 0.108703 0.638623 0.498617
v 0.111416 0.667442 0.5097
v 0.112929 0.651279 0.498898
v 0.105231 0.665308 0.50929
v 0.117942 0.667898 0.510134
v 0.115254 0.652081 0.499053
v 0.111416 0.667442 0.5097
v 0.120119 0.651782 0.499376
v 0.117942 0.667898 0.510134
v 0.124362 0.666647 0.51056
v 0.124362 0.666647 0.51056
v 0.122328 0.650702 0.499522
v 0.120119 0.651782 0.499376
v 0.130241 0.663772 0.510951
v 0.124183 0.649086 0.499646
v 0.122328 0.650702 0.499522
v 0.124982 0.637624 0.499699
v 0.125558 0.647043 0.499737
v 0.12606 0.639838 0.49977
v 0.135178 0.659471 0.511279
v 0.125558 0.647043 0.499737
v 0.124183 0.649086 0.499646
v 0.126529 0.642256 0.499801
v 0.14017 0.634862 0.51161
v 0.12606 0.639838 0.49977
v 0.122328 0.650702 0.499522
v 0.124362 0.666647 0.51056
v 0.130241 0.663772 0.510951
v 0.124183 0.649086 0.499646
v 0.130241 0.663772 0.510951
v 0.135178 0.659471 0.511279
v 0.12606 0.639838 0.49977
v 0.125558 0.647043 0.499737
v 0.126358 0.644714 0.49979
v 0.125558 0.647043 0.499737
v 0.135178 0.659471 0.511279
v 0.138835 0.654036 0.511522
v 0.14017 0.634862 0.51161
v 0.126529 0.642256 0.499801
v 0.141419 0.641297 0.511693
v 0.12606 0.639838 0.49977
v 0.126358 0.644714 0.49979
v 0.126529 0.642256 0.499801
v 0.138835 0.654036 0.511522
v 0.126358 0.644714 0.49979
v 0.125558 0.647043 0.499737
v 0.126529 0.642256 0.499801
v 0.140964 0.647837 0.511663
v 0.141419 0.641297 0.511693
v 0.140964 0.647837 0.511663
v 0.126529 0.642256 0.499801
v 0.126358 0.644714 0.49979
v 0.126358 0.644714 0.49979
v 0.138835 0.654036 0.511522
v 0.140964 0.647837 0.511663
v 0.108456 0.61902 0.509504
v 0.114877 0.617768 0.50993
v 0.114141 0.633884 0.498979
v 0.114877 0.617768 0.50993
v 0.121402 0.618225 0.510364
v 0.116554 0.633414 0.499139
v 0.102577 0.621894 0.509113
v 0.108456 0.61902 0.509504
v 0.111932 0.634964 0.498832
v 0.097641 0.626195 0.508785
v 0.102577 0.621894 0.509113
v 0.110077 0.636581 0.498709
v 0.116554 0.633414 0.499139
v 0.114141 0.633884 0.498979
v 0.114877 0.617768 0.50993
v 0.114141 0.633884 0.498979
v 0.111932 0.634964 0.498832
v 0.108456 0.61902 0.509504
v 0.119007 0.633585 0.499302
v 0.116554 0.633414 0.499139
v 0.121402 0.618225 0.510364
v 0.127587 0.620358 0.510774
v 0.121331 0.634387 0.499456
v 0.121402 0.618225 0.510364
v 0.111932 0.634964 0.498832
v 0.110077 0.636581 0.498709
v 0.102577 0.621894 0.509113
v 0.13301 0.624023 0.511135
v 0.123369 0.635764 0.499592
v 0.127587 0.620358 0.510774
v 0.092648 0.650804 0.508454
v 0.108201 0.645829 0.498584
v 0.095516 0.656696 0.508644
v 0.095516 0.656696 0.508644
v 0.109278 0.648043 0.498656
v 0.099808 0.661643 0.508929
v 0.091399 0.644369 0.508371
v 0.107731 0.64341 0.498553
v 0.092648 0.650804 0.508454
v 0.110077 0.636581 0.498709
v 0.108703 0.638623 0.498617
v 0.097641 0.626195 0.508785
v 0.116554 0.633414 0.499139
v 0.115254 0.652081 0.499053
v 0.114141 0.633884 0.498979
v 0.114141 0.633884 0.498979
v 0.112929 0.651279 0.498898
v 0.111932 0.634964 0.498832
v 0.119007 0.633585 0.499302
v 0.117706 0.652253 0.499215
v 0.116554 0.633414 0.499139
v 0.119007 0.633585 0.499302
v 0.121402 0.618225 0.510364
v 0.121331 0.634387 0.499456
v 0.121331 0.634387 0.499456
v 0.127587 0.620358 0.510774
v 0.123369 0.635764 0.499592
v 0.111932 0.634964 0.498832
v 0.110891 0.649902 0.498763
v 0.110077 0.636581 0.498709
v 0.123369 0.635764 0.499592
v 0.13301 0.624023 0.511135
v 0.124982 0.637624 0.499699
v 0.109278 0.648043 0.498656
v 0.095516 0.656696 0.508644
v 0.108201 0.645829 0.498584
v 0.108201 0.645829 0.498584
v 0.092648 0.650804 0.508454
v 0.107731 0.64341 0.498553
v 0.110891 0.649902 0.498763
v 0.099808 0.661643 0.508929
v 0.109278 0.648043 0.498656
v 0.091399 0.644369 0.508371
v 0.091855 0.637829 0.508401
v 0.107731 0.64341 0.498553
v 0.093984 0.631631 0.508543
v 0.097641 0.626195 0.508785
v 0.108703 0.638623 0.498617
v 0.091855 0.637829 0.508401
v 0.093984 0.631631 0.508543
v 0.107903 0.640953 0.498564
v 0.110077 0.636581 0.498709
v 0.109278 0.648043 0.498656
v 0.108703 0.638623 0.498617
v 0.115254 0.652081 0.499053
v 0.112929 0.651279 0.498898
v 0.114141 0.633884 0.498979
v 0.117706 0.652253 0.499215
v 0.115254 0.652081 0.499053
v 0.116554 0.633414 0.499139
v 0.112929 0.651279 0.498898
v 0.110891 0.649902 0.498763
v 0.111932 0.634964 0.498832
v 0.120119 0.651782 0.499376
v 0.117706 0.652253 0.499215
v 0.119007 0.633585 0.499302
v 0.121331 0.634387 0.499456
v 0.120119 0.651782 0.499376
v 0.119007 0.633585 0.499302
v 0.123369 0.635764 0.499592
v 0.122328 0.650702 0.499522
v 0.121331 0.634387 0.499456
v 0.110891 0.649902 0.498763
v 0.109278 0.648043 0.498656
v 0.110077 0.636581 0.498709
v 0.137302 0.628971 0.51142
v 0.124982 0.637624 0.499699
v 0.13301 0.624023 0.511135
v 0.124982 0.637624 0.499699
v 0.124183 0.649086 0.499646
v 0.123369 0.635764 0.499592
v 0.099808 0.661643 0.508929
v 0.110891 0.649902 0.498763
v 0.105231 0.665308 0.50929
v 0.109278 0.648043 0.498656
v 0.108201 0.645829 0.498584
v 0.108703 0.638623 0.498617
v 0.107731 0.64341 0.498553
v 0.107903 0.640953 0.498564
v 0.108201 0.645829 0.498584
v 0.107903 0.640953 0.498564
v 0.107731 0.64341 0.498553
v 0.091855 0.637829 0.508401
v 0.108703 0.638623 0.498617
v 0.107903 0.640953 0.498564
v 0.093984 0.631631 0.508543
v 0.115254 0.652081 0.499053
v 0.111416 0.667442 0.5097
v 0.112929 0.651279 0.498898
v 0.117706 0.652253 0.499215
v 0.117942 0.667898 0.510134
v 0.115254 0.652081 0.499053
v 0.112929 0.651279 0.498898
v 0.105231 0.665308 0.50929
v 0.110891 0.649902 0.498763
v 0.117706 0.652253 0.499215
v 0.120119 0.651782 0.499376
v 0.117942 0.667898 0.510134
v 0.122328 0.650702 0.499522
v 0.120119 0.651782 0.499376
v 0.121331 0.634387 0.499456
v 0.124183 0.649086 0.499646
v 0.122328 0.650702 0.499522
v 0.123369 0.635764 0.499592
v 0.124982 0.637624 0.499699
v 0.137302 0.628971 0.51142
v 0.12606 0.639838 0.49977
v 0.125558 0.647043 0.499737
v 0.124183 0.649086 0.499646
v 0.124982 0.637624 0.499699
v 0.14017 0.634862 0.51161
v 0.12606 0.639838 0.49977
v 0.137302 0.628971 0.51142
v 0.108703 0.638623 0.498617
v 0.108201 0.645829 0.498584
v 0.107903 0.640953 0.498564
v 0.105231 0.665308 0.50929
v 0.112929 0.651279 0.498898
v 0.111416 0.667442 0.5097
v 0.111416 0.667442 0.5097
v 0.115254 0.652081 0.499053
v 0.117942 0.667898 0.510134
v 0.124362 0.666647 0.51056
v 0.117942 0.667898 0.510134
v 0.120119 0.651782 0.499376
v 0.120119 0.651782 0.499376
v 0.122328 0.650702 0.499522
v 0.124362 0.666647 0.51056
v 0.122328 0.650702 0.499522
v 0.124183 0.649086 0.499646
v 0.130241 0.663772 0.510951
v 0.12606 0.639838 0.49977
v 0.125558 0.647043 0.499737
v 0.124982 0.637624 0.499699
v 0.124183 0.649086 0.499646
v 0.125558 0.647043 0.499737
v 0.135178 0.659471 0.511279
v 0.12606 0.639838 0.49977
v 0.14017 0.634862 0.51161
v 0.126529 0.642256 0.499801
v 0.130241 0.663772 0.510951
v 0.124362 0.666647 0.51056
v 0.122328 0.650702 0.499522
v 0.135178 0.659471 0.511279
v 0.130241 0.663772 0.510951
v 0.124183 0.649086 0.499646
v 0.126358 0.644714 0.49979
v 0.125558 0.647043 0.499737
v 0.12606 0.639838 0.49977
v 0.138835 0.654036 0.511522
v 0.135178 0.659471 0.511279
v 0.125558 0.647043 0.499737
v 0.141419 0.641297 0.511693
v 0.126529 0.642256 0.499801
v 0.14017 0.634862 0.51161
v 0.126529 0.642256 0.499801
v 0.126358 0.644714 0.49979
v 0.12606 0.639838 0.49977
v 0.125558 0.647043 0.499737
v 0.126358 0.644714 0.49979
v 0.138835 0.654036 0.511522
v 0.141419 0.641297 0.511693
v 0.140964 0.647837 0.511663
v 0.126529 0.642256 0.499801
v 0.126358 0.644714 0.49979
v 0.126529 0.642256 0.499801
v 0.140964 0.647837 0.511663
v 0.140964 0.647837 0.511663
v 0.138835 0.654036 0.511522
v 0.126358 0.644714 0.49979
vn -0.12613028770418727 -0.540678755986828 -0.8317196843577738
vn 0.019652517245550304 -0.5690948737215504 -0.8220369841252678
vn 0.16780715849107752 -0.5587280161756903 -0.8121968736085654
vn -0.25960726141269413 -0.4754159262681704 -0.8405853715550722
vn -0.3716824296525488 -0.37775401705741307 -0.8480295243000481
vn 0.30823661738583524 -0.5102856669195862 -0.8028690589622764
vn 0.4313695725029765 -0.4270670352193028 -0.794691159726591
vn -0.4199250415110473 0.3147449393276227 -0.8512335652919217
vn -0.48504440036925306 0.18097391151931982 -0.8555585152517794
vn -0.32247781796111824 0.4270670352193027 -0.8447613890040375
vn -0.5133980311762377 0.03486998501523424 -0.8574418614281669
vn -0.4547181440706863 -0.2543498316679282 -0.8535441245673285
vn 0.06627355889066593 0.0 -0.9978014909750162
vn 0.5288167659436661 -0.31474493932762276 -0.7882185301199999
vn -0.5030539502448517 -0.11361099014280733 -0.8567550793907329
vn -0.19934493430038366 0.5102856669195861 -0.8365824139349385
vn -0.058915402856284445 0.5587280161756903 -0.8272556915770719
vn 0.08923920413952 0.5690948737215504 -0.8174150654033712
vn 0.23502199151610448 0.540678755986828 -0.8077321005929752
vn 0.5939360916457572 -0.18097391151931982 -0.7838930809682911
vn 0.3684989919761142 0.4754159262681704 -0.7988668161609702
vn 0.4805741822778344 0.377754017057413 -0.7914229955750455
vn 0.5636098177057504 0.25434983166792813 -0.7859072060467364
vn 0.6222897369801408 -0.03486998501523427 -0.7820099535135244
vn 0.6119456914276814 0.1136109901428073 -0.7826972682090234
vn 0.12613028770418727 0.540678755986828 0.8317196843577738
vn -0.019652517245550304 0.5690948737215504 0.8220369841252678
vn -0.16780715849107752 0.5587280161756903 0.8121968736085654
vn 0.25960726141269413 0.4754159262681704 0.8405853715550722
vn 0.3716824296525488 0.37775401705741307 0.8480295243000481
vn -0.30823661738583524 0.5102856669195862 0.8028690589622764
vn -0.4313695725029765 0.4270670352193028 0.794691159726591
vn 0.48504440036925306 -0.18097391151931982 0.8555585152517794
vn 0.4199250415110473 -0.3147449393276227 0.8512335652919217
vn 0.32247781796111824 -0.4270670352193027 0.8447613890040375
vn 0.5133980311762377 -0.03486998501523424 0.8574418614281669
vn 0.4547181440706863 0.2543498316679282 0.8535441245673285
vn -0.06627355889066593 0.0 0.9978014909750162
vn -0.5288167659436661 0.31474493932762276 0.7882185301199999
vn 0.5030539502448517 0.11361099014280733 0.8567550793907329
vn 0.19934493430038366 -0.5102856669195861 0.8365824139349385
vn 0.058915402856284445 -0.5587280161756903 0.8272556915770719
vn -0.08923920413952 -0.5690948737215504 0.8174150654033712
vn -0.23502199151610448 -0.540678755986828 0.8077321005929752
vn -0.5939360916457572 0.18097391151931982 0.7838930809682911
vn -0.3684989919761142 -0.4754159262681704 0.7988668161609702
vn -0.4805741822778344 -0.377754017057413 0.7914229955750455
vn -0.5636098177057504 -0.25434983166792813 0.7859072060467364
vn -0.6222897369801408 0.03486998501523427 0.7820099535135244
vn -0.6119456914276814 -0.1136109901428073 0.7826972682090234
usemtl material_0_0
f 1//1 2//2 3//1
f 4//2 5//3 6//2
f 7//4 8//1 9//4
f 10//5 11//4 12//5
f 13//2 14//1 15//2
f 16//1 17//4 18//1
f 19//3 20//2 21//3
f 22//3 23//6 24//6
f 25//4 26//5 27//4
f 28//6 29//7 30//7
f 31//8 32//9 33//9
f 34//10 35//8 36//8
f 37//9 38//11 39//11
f 40//5 41//12 42//5
f 43//13 44//13 45//13
f 46//13 47//13 48//13
f 49//13 50//13 51//13
f 52//6 53//3 54//3
f 55//7 56//6 57//6
f 58//13 59//13 60//13
f 61//14 62//7 63//7
f 64//9 65//8 66//8
f 67//11 68//9 69//9
f 70//8 71//10 72//10
f 73//11 74//15 75//11
f 76//12 77//5 78//12
f 79//15 80//12 81//15
f 82//13 83//13 84//13
f 85//13 86//13 87//13
f 88//13 89//13 90//13
f 91//13 92//13 93//13
f 94//13 95//13 96//13
f 97//13 98//13 99//13
f 100//13 101//13 102//13
f 103//13 104//13 105//13
f 106//7 107//14 108//14
f 109//13 110//13 111//13
f 112//16 113//10 114//10
f 115//13 116//13 117//13
f 118//13 119//13 120//13
f 121//15 122//11 123//15
f 124//12 125//15 126//12
f 127//16 128//17 129//17
f 130//17 131//18 132//18
f 133//10 134//16 135//16
f 136//18 137//19 138//18
f 139//13 140//13 141//13
f 142//13 143//13 144//13
f 145//20 146//14 147//14
f 148//13 149//13 150//13
f 151//14 152//20 153//20
f 154//13 155//13 156//13
f 157//17 158//16 159//16
f 160//18 161//17 162//17
f 163//19 164//18 165//19
f 166//19 167//21 168//19
f 169//21 170//22 171//21
f 172//13 173//13 174//13
f 175//22 176//23 177//22
f 178//24 179//20 180//20
f 181//21 182//19 183//21
f 184//22 185//21 186//22
f 187//13 188//13 189//13
f 190//23 191//22 192//23
f 193//20 194//24 195//24
f 196//13 197//13 198//13
f 199//23 200//25 201//23
f 202//24 203//25 204//24
f 205//25 206//24 207//25
f 208//25 209//23 210//25
usemtl material_1_0
f 211//26 212//27 213//26
f 214//27 215//28 216//27
f 217//29 218//26 219//29
f 220//30 221//29 222//30
f 223//27 224//26 225//27
f 226//26 227//29 228//26
f 229//28 230//27 231//28
f 232//31 233//31 234//28
f 235//29 236//30 237//29
f 238//32 239//32 240//31
f 241//33 242//33 243//34
f 244//34 245//34 246//35
f 247//36 248//36 249//33
f 250//30 251//37 252//30
f 253//38 254//38 255//38
f 256//38 257//38 258//38
f 259//38 260//38 261//38
f 262//28 263//28 264//31
f 265//31 266//31 267//32
f 268//38 269//38 270//38
f 271//32 272//32 273//39
f 274//34 275//34 276//33
f 277//33 278//33 279//36
f 280//35 281//35 282//34
f 283//36 284//40 285//36
f 286//37 287//30 288//37
f 289//40 290//37 291//40
f 292//38 293//38 294//38
f 295//38 296//38 297//38
f 298//38 299//38 300//38
f 301//38 302//38 303//38
f 304//38 305//38 306//38
f 307//38 308//38 309//38
f 310//38 311//38 312//38
f 313//38 314//38 315//38
f 316//39 317//39 318//32
f 319//38 320//38 321//38
f 322//35 323//35 324//41
f 325//38 326//38 327//38
f 328//38 329//38 330//38
f 331//40 332//36 333//40
f 334//37 335//40 336//37
f 337//42 338//42 339//41
f 340//43 341//43 342//42
f 343//41 344//41 345//35
f 346//43 347//44 348//43
f 349//38 350//38 351//38
f 352//38 353//38 354//38
f 355//39 356//39 357//45
f 358//38 359//38 360//38
f 361//45 362//45 363//39
f 364//38 365//38 366//38
f 367//41 368//41 369//42
f 370//42 371//42 372//43
f 373//44 374//43 375//44
f 376//44 377//46 378//44
f 379//46 380//47 381//46
f 382//38 383//38 384//38
f 385//47 386//48 387//47
f 388//45 389//45 390//49
f 391//46 392//44 393//46
f 394//47 395//46 396//47
f 397//38 398//38 399//38
f 400//48 401//47 402//48
f 403//49 404//49 405//45
f 406//38 407//38 408//38
f 409//48 410//50 411//48
f 412//49 413//50 414//49
f 415//50 416//49 417//50
f 418//50 419//48 420//50
