# SSTK version 0.8.0
# 138
mtllib original-138.mtl
o 3dw.47c68395a5775e10d9deb3f829cc2475/Model/Component_18_1/Component_18/mesh1/mesh1-geometry/material_13/component_26#mesh1-geometry
v 0.217247 0.726129 0.268891
v 0.227425 0.758765 0.265991
v 0.227425 0.726129 0.265991
v 0.206665 0.726129 0.269059
v 0.217247 0.758765 0.268891
v 0.217247 0.726129 0.268891
v 0.236506 0.758765 0.260554
v 0.24387 0.726129 0.252953
v 0.236506 0.726129 0.260554
v 0.227425 0.726129 0.265991
v 0.236506 0.758765 0.260554
v 0.236506 0.726129 0.260554
v 0.227425 0.758765 0.265991
v 0.217247 0.726129 0.268891
v 0.217247 0.758765 0.268891
v 0.236506 0.758765 0.260554
v 0.227425 0.726129 0.265991
v 0.227425 0.758765 0.265991
v 0.217247 0.758765 0.268891
v 0.206665 0.726129 0.269059
v 0.206665 0.758765 0.269059
v 0.24387 0.758765 0.252953
v 0.249016 0.726129 0.243705
v 0.24387 0.726129 0.252953
v 0.24387 0.726129 0.252953
v 0.236506 0.758765 0.260554
v 0.24387 0.758765 0.252953
v 0.1964 0.726129 0.266482
v 0.206665 0.758765 0.269059
v 0.206665 0.726129 0.269059
v 0.187152 0.726129 0.261336
v 0.1964 0.758765 0.266482
v 0.1964 0.726129 0.266482
v 0.226239 0.726129 0.19109
v 0.215974 0.758765 0.188513
v 0.215974 0.726129 0.188513
v 0.235487 0.726129 0.196235
v 0.226239 0.758765 0.19109
v 0.226239 0.726129 0.19109
v 0.243088 0.726129 0.2036
v 0.235487 0.758765 0.196235
v 0.235487 0.726129 0.196235
v 0.248524 0.758765 0.21268
v 0.243088 0.726129 0.2036
v 0.248524 0.726129 0.21268
v 0.251425 0.758765 0.222858
v 0.248524 0.726129 0.21268
v 0.251425 0.726129 0.222858
v 0.251593 0.758765 0.23344
v 0.251425 0.726129 0.222858
v 0.251593 0.726129 0.23344
v 0.249016 0.758765 0.243705
v 0.251593 0.726129 0.23344
v 0.249016 0.726129 0.243705
v 0.249016 0.726129 0.243705
v 0.24387 0.758765 0.252953
v 0.249016 0.758765 0.243705
v 0.206665 0.758765 0.269059
v 0.1964 0.726129 0.266482
v 0.1964 0.758765 0.266482
v 0.174115 0.758765 0.244891
v 0.179551 0.726129 0.253972
v 0.174115 0.726129 0.244891
v 0.179551 0.726129 0.253972
v 0.187152 0.758765 0.261336
v 0.187152 0.726129 0.261336
v 0.171214 0.758765 0.234713
v 0.174115 0.726129 0.244891
v 0.171214 0.726129 0.234713
v 0.173623 0.758765 0.213866
v 0.171046 0.726129 0.224131
v 0.173623 0.726129 0.213866
v 0.171046 0.758765 0.224131
v 0.171214 0.726129 0.234713
v 0.171046 0.726129 0.224131
v 0.178769 0.758765 0.204618
v 0.173623 0.726129 0.213866
v 0.178769 0.726129 0.204618
v 0.186133 0.758765 0.197017
v 0.178769 0.726129 0.204618
v 0.186133 0.726129 0.197017
v 0.205392 0.726129 0.18868
v 0.195214 0.758765 0.191581
v 0.195214 0.726129 0.191581
v 0.195214 0.726129 0.191581
v 0.186133 0.758765 0.197017
v 0.186133 0.726129 0.197017
v 0.1964 0.758765 0.266482
v 0.187152 0.726129 0.261336
v 0.187152 0.758765 0.261336
v 0.215974 0.758765 0.188513
v 0.226239 0.726129 0.19109
v 0.226239 0.758765 0.19109
v 0.205392 0.758765 0.18868
v 0.215974 0.726129 0.188513
v 0.215974 0.758765 0.188513
v 0.215974 0.726129 0.188513
v 0.205392 0.758765 0.18868
v 0.205392 0.726129 0.18868
v 0.226239 0.758765 0.19109
v 0.235487 0.726129 0.196235
v 0.235487 0.758765 0.196235
v 0.235487 0.758765 0.196235
v 0.243088 0.726129 0.2036
v 0.243088 0.758765 0.2036
v 0.243088 0.726129 0.2036
v 0.248524 0.758765 0.21268
v 0.243088 0.758765 0.2036
v 0.248524 0.726129 0.21268
v 0.251425 0.758765 0.222858
v 0.248524 0.758765 0.21268
v 0.251425 0.726129 0.222858
v 0.251593 0.758765 0.23344
v 0.251425 0.758765 0.222858
v 0.251593 0.726129 0.23344
v 0.249016 0.758765 0.243705
v 0.251593 0.758765 0.23344
v 0.179551 0.726129 0.253972
v 0.174115 0.758765 0.244891
v 0.179551 0.758765 0.253972
v 0.174115 0.726129 0.244891
v 0.171214 0.758765 0.234713
v 0.174115 0.758765 0.244891
v 0.187152 0.758765 0.261336
v 0.179551 0.726129 0.253972
v 0.179551 0.758765 0.253972
v 0.171214 0.726129 0.234713
v 0.171046 0.758765 0.224131
v 0.171214 0.758765 0.234713
v 0.171046 0.726129 0.224131
v 0.173623 0.758765 0.213866
v 0.171046 0.758765 0.224131
v 0.173623 0.726129 0.213866
v 0.178769 0.758765 0.204618
v 0.173623 0.758765 0.213866
v 0.178769 0.726129 0.204618
v 0.186133 0.758765 0.197017
v 0.178769 0.758765 0.204618
v 0.195214 0.758765 0.191581
v 0.205392 0.726129 0.18868
v 0.205392 0.758765 0.18868
v 0.186133 0.758765 0.197017
v 0.195214 0.726129 0.191581
v 0.195214 0.758765 0.191581
v 0.227425 0.726129 0.265991
v 0.227425 0.758765 0.265991
v 0.217247 0.726129 0.268891
v 0.217247 0.726129 0.268891
v 0.217247 0.758765 0.268891
v 0.206665 0.726129 0.269059
v 0.236506 0.726129 0.260554
v 0.24387 0.726129 0.252953
v 0.236506 0.758765 0.260554
v 0.236506 0.726129 0.260554
v 0.236506 0.758765 0.260554
v 0.227425 0.726129 0.265991
v 0.217247 0.758765 0.268891
v 0.217247 0.726129 0.268891
v 0.227425 0.758765 0.265991
v 0.227425 0.758765 0.265991
v 0.227425 0.726129 0.265991
v 0.236506 0.758765 0.260554
v 0.206665 0.758765 0.269059
v 0.206665 0.726129 0.269059
v 0.217247 0.758765 0.268891
v 0.24387 0.726129 0.252953
v 0.249016 0.726129 0.243705
v 0.24387 0.758765 0.252953
v 0.24387 0.758765 0.252953
v 0.236506 0.758765 0.260554
v 0.24387 0.726129 0.252953
v 0.206665 0.726129 0.269059
v 0.206665 0.758765 0.269059
v 0.1964 0.726129 0.266482
v 0.1964 0.726129 0.266482
v 0.1964 0.758765 0.266482
v 0.187152 0.726129 0.261336
v 0.215974 0.726129 0.188513
v 0.215974 0.758765 0.188513
v 0.226239 0.726129 0.19109
v 0.226239 0.726129 0.19109
v 0.226239 0.758765 0.19109
v 0.235487 0.726129 0.196235
v 0.235487 0.726129 0.196235
v 0.235487 0.758765 0.196235
v 0.243088 0.726129 0.2036
v 0.248524 0.726129 0.21268
v 0.243088 0.726129 0.2036
v 0.248524 0.758765 0.21268
v 0.251425 0.726129 0.222858
v 0.248524 0.726129 0.21268
v 0.251425 0.758765 0.222858
v 0.251593 0.726129 0.23344
v 0.251425 0.726129 0.222858
v 0.251593 0.758765 0.23344
v 0.249016 0.726129 0.243705
v 0.251593 0.726129 0.23344
v 0.249016 0.758765 0.243705
v 0.249016 0.758765 0.243705
v 0.24387 0.758765 0.252953
v 0.249016 0.726129 0.243705
v 0.1964 0.758765 0.266482
v 0.1964 0.726129 0.266482
v 0.206665 0.758765 0.269059
v 0.174115 0.726129 0.244891
v 0.179551 0.726129 0.253972
v 0.174115 0.758765 0.244891
v 0.187152 0.726129 0.261336
v 0.187152 0.758765 0.261336
v 0.179551 0.726129 0.253972
v 0.171214 0.726129 0.234713
v 0.174115 0.726129 0.244891
v 0.171214 0.758765 0.234713
v 0.173623 0.726129 0.213866
v 0.171046 0.726129 0.224131
v 0.173623 0.758765 0.213866
v 0.171046 0.726129 0.224131
v 0.171214 0.726129 0.234713
v 0.171046 0.758765 0.224131
v 0.178769 0.726129 0.204618
v 0.173623 0.726129 0.213866
v 0.178769 0.758765 0.204618
v 0.186133 0.726129 0.197017
v 0.178769 0.726129 0.204618
v 0.186133 0.758765 0.197017
v 0.195214 0.726129 0.191581
v 0.195214 0.758765 0.191581
v 0.205392 0.726129 0.18868
v 0.186133 0.726129 0.197017
v 0.186133 0.758765 0.197017
v 0.195214 0.726129 0.191581
v 0.187152 0.758765 0.261336
v 0.187152 0.726129 0.261336
v 0.1964 0.758765 0.266482
v 0.226239 0.758765 0.19109
v 0.226239 0.726129 0.19109
v 0.215974 0.758765 0.188513
v 0.215974 0.758765 0.188513
v 0.215974 0.726129 0.188513
v 0.205392 0.758765 0.18868
v 0.205392 0.726129 0.18868
v 0.205392 0.758765 0.18868
v 0.215974 0.726129 0.188513
v 0.235487 0.758765 0.196235
v 0.235487 0.726129 0.196235
v 0.226239 0.758765 0.19109
v 0.243088 0.758765 0.2036
v 0.243088 0.726129 0.2036
v 0.235487 0.758765 0.196235
v 0.243088 0.758765 0.2036
v 0.248524 0.758765 0.21268
v 0.243088 0.726129 0.2036
v 0.248524 0.758765 0.21268
v 0.251425 0.758765 0.222858
v 0.248524 0.726129 0.21268
v 0.251425 0.758765 0.222858
v 0.251593 0.758765 0.23344
v 0.251425 0.726129 0.222858
v 0.251593 0.758765 0.23344
v 0.249016 0.758765 0.243705
v 0.251593 0.726129 0.23344
v 0.179551 0.758765 0.253972
v 0.174115 0.758765 0.244891
v 0.179551 0.726129 0.253972
v 0.174115 0.758765 0.244891
v 0.171214 0.758765 0.234713
v 0.174115 0.726129 0.244891
v 0.179551 0.758765 0.253972
v 0.179551 0.726129 0.253972
v 0.187152 0.758765 0.261336
v 0.171214 0.758765 0.234713
v 0.171046 0.758765 0.224131
v 0.171214 0.726129 0.234713
v 0.171046 0.758765 0.224131
v 0.173623 0.758765 0.213866
v 0.171046 0.726129 0.224131
v 0.173623 0.758765 0.213866
v 0.178769 0.758765 0.204618
v 0.173623 0.726129 0.213866
v 0.178769 0.758765 0.204618
v 0.186133 0.758765 0.197017
v 0.178769 0.726129 0.204618
v 0.205392 0.758765 0.18868
v 0.205392 0.726129 0.18868
v 0.195214 0.758765 0.191581
v 0.195214 0.758765 0.191581
v 0.195214 0.726129 0.191581
v 0.186133 0.758765 0.197017
vn -0.14621101721022797 0.0 -0.9892534247837357
vn -0.3972658106894758 0.0 -0.9177035881248551
vn 0.11480876088819306 0.0 -0.9933876123766179
vn -0.6212490128632178 0.0 -0.7836132107210019
vn -0.8028943280443288 0.0 -0.5961213785750731
vn -0.9298239342822415 0.0 -0.3680046891493282
vn 0.3680046891493282 0.0 -0.9298239342822415
vn 0.5961213785750731 0.0 -0.8028943280443288
vn -0.3680046891493282 0.0 0.9298239342822415
vn -0.11480876088819306 0.0 0.9933876123766179
vn -0.5961213785750731 0.0 0.8028943280443288
vn -0.7836132107210019 0.0 0.6212490128632178
vn -0.9177035881248551 0.0 0.3972658106894758
vn -0.9892534247837357 0.0 0.14621101721022797
vn -0.9933876123766179 0.0 -0.11480876088819306
vn 0.9177035881248551 0.0 -0.3972658106894758
vn 0.7836132107210019 0.0 -0.6212490128632178
vn 0.9892534247837357 0.0 -0.14621101721022797
vn 0.9298239342822415 0.0 0.3680046891493282
vn 0.9933876123766179 0.0 0.11480876088819306
vn 0.8028943280443288 0.0 0.5961213785750731
vn 0.6212490128632178 0.0 0.7836132107210019
vn 0.14621101721022797 0.0 0.9892534247837357
vn 0.3972658106894758 0.0 0.9177035881248551
usemtl material_0_0
f 1//1 2//2 3//2
f 4//3 5//1 6//1
f 7//4 8//5 9//4
f 10//2 11//4 12//4
f 13//2 14//1 15//1
f 16//4 17//2 18//2
f 19//1 20//3 21//3
f 22//5 23//6 24//5
f 25//5 26//4 27//5
f 28//7 29//3 30//3
f 31//8 32//7 33//7
f 34//9 35//10 36//10
f 37//11 38//9 39//9
f 40//12 41//11 42//11
f 43//13 44//12 45//13
f 46//14 47//13 48//14
f 49//15 50//14 51//15
f 52//6 53//15 54//6
f 55//6 56//5 57//6
f 58//3 59//7 60//7
f 61//16 62//17 63//16
f 64//17 65//8 66//8
f 67//18 68//16 69//18
f 70//19 71//20 72//19
f 73//20 74//18 75//20
f 76//21 77//19 78//21
f 79//22 80//21 81//22
f 82//23 83//24 84//24
f 85//24 86//22 87//22
f 88//7 89//8 90//8
f 91//10 92//9 93//9
f 94//23 95//10 96//10
f 97//10 98//23 99//23
f 100//9 101//11 102//11
f 103//11 104//12 105//12
f 106//12 107//13 108//12
f 109//13 110//14 111//13
f 112//14 113//15 114//14
f 115//15 116//6 117//15
f 118//17 119//16 120//17
f 121//16 122//18 123//16
f 124//8 125//17 126//17
f 127//18 128//20 129//18
f 130//20 131//19 132//20
f 133//19 134//21 135//19
f 136//21 137//22 138//21
f 139//24 140//23 141//23
f 142//22 143//24 144//24
usemtl material_1_0
f 145//24 146//24 147//23
f 148//23 149//23 150//10
f 151//22 152//21 153//22
f 154//22 155//22 156//24
f 157//23 158//23 159//24
f 160//24 161//24 162//22
f 163//10 164//10 165//23
f 166//21 167//19 168//21
f 169//21 170//22 171//21
f 172//10 173//10 174//9
f 175//9 176//9 177//11
f 178//3 179//3 180//7
f 181//7 182//7 183//8
f 184//8 185//8 186//17
f 187//16 188//17 189//16
f 190//18 191//16 192//18
f 193//20 194//18 195//20
f 196//19 197//20 198//19
f 199//19 200//21 201//19
f 202//9 203//9 204//10
f 205//13 206//12 207//13
f 208//11 209//11 210//12
f 211//14 212//13 213//14
f 214//6 215//15 216//6
f 217//15 218//14 219//15
f 220//5 221//6 222//5
f 223//4 224//5 225//4
f 226//2 227//2 228//1
f 229//4 230//4 231//2
f 232//11 233//11 234//9
f 235//7 236//7 237//3
f 238//3 239//3 240//1
f 241//1 242//1 243//3
f 244//8 245//8 246//7
f 247//17 248//17 249//8
f 250//17 251//16 252//17
f 253//16 254//18 255//16
f 256//18 257//20 258//18
f 259//20 260//19 261//20
f 262//12 263//13 264//12
f 265//13 266//14 267//13
f 268//12 269//12 270//11
f 271//14 272//15 273//14
f 274//15 275//6 276//15
f 277//6 278//5 279//6
f 280//5 281//4 282//5
f 283//1 284//1 285//2
f 286//2 287//2 288//4
