# SSTK version 0.8.0
# 86
mtllib original-86.mtl
o 3dw.47c68395a5775e10d9deb3f829cc2475/Model/Component_18_1/Component_18/mesh1/mesh1-geometry/material_9/component_7#mesh1-geometry
v -0.301671 0.758765 -0.566833
v -0.304361 0.747971 -0.565923
v -0.304361 0.758765 -0.565923
v -0.304361 0.758765 -0.565923
v -0.306723 0.747971 -0.564347
v -0.306723 0.758765 -0.564347
v -0.304361 0.747971 -0.565923
v -0.301671 0.758765 -0.566833
v -0.301671 0.747971 -0.566833
v -0.306723 0.747971 -0.564347
v -0.304361 0.758765 -0.565923
v -0.304361 0.747971 -0.565923
v -0.298837 0.758765 -0.567016
v -0.301671 0.747971 -0.566833
v -0.301671 0.758765 -0.566833
v -0.306723 0.747971 -0.564347
v -0.308598 0.758765 -0.562213
v -0.306723 0.758765 -0.564347
v -0.304939 0.758765 -0.51763
v -0.302154 0.747971 -0.517074
v -0.302154 0.758765 -0.517074
v -0.301671 0.747971 -0.566833
v -0.298837 0.758765 -0.567016
v -0.298837 0.747971 -0.567016
v -0.308598 0.758765 -0.562213
v -0.306723 0.747971 -0.564347
v -0.308598 0.747971 -0.562213
v -0.308598 0.747971 -0.562213
v -0.309856 0.758765 -0.559667
v -0.308598 0.758765 -0.562213
v -0.307485 0.758765 -0.518889
v -0.304939 0.747971 -0.51763
v -0.304939 0.758765 -0.51763
v -0.302154 0.747971 -0.517074
v -0.304939 0.758765 -0.51763
v -0.304939 0.747971 -0.51763
v -0.29932 0.747971 -0.517257
v -0.302154 0.758765 -0.517074
v -0.302154 0.747971 -0.517074
v -0.296052 0.758765 -0.56646
v -0.298837 0.747971 -0.567016
v -0.298837 0.758765 -0.567016
v -0.309856 0.758765 -0.559667
v -0.308598 0.747971 -0.562213
v -0.309856 0.747971 -0.559667
v -0.309856 0.747971 -0.559667
v -0.310413 0.758765 -0.556883
v -0.309856 0.758765 -0.559667
v -0.309618 0.758765 -0.520763
v -0.307485 0.747971 -0.518889
v -0.307485 0.758765 -0.518889
v -0.304939 0.747971 -0.51763
v -0.307485 0.758765 -0.518889
v -0.307485 0.747971 -0.518889
v -0.302154 0.758765 -0.517074
v -0.29932 0.747971 -0.517257
v -0.29932 0.758765 -0.517257
v -0.298837 0.747971 -0.567016
v -0.296052 0.758765 -0.56646
v -0.296052 0.747971 -0.56646
v -0.310413 0.758765 -0.556883
v -0.309856 0.747971 -0.559667
v -0.310413 0.747971 -0.556883
v -0.310413 0.747971 -0.556883
v -0.312288 0.758765 -0.52865
v -0.310413 0.758765 -0.556883
v -0.311194 0.747971 -0.523126
v -0.309618 0.758765 -0.520763
v -0.311194 0.758765 -0.523126
v -0.307485 0.747971 -0.518889
v -0.309618 0.758765 -0.520763
v -0.309618 0.747971 -0.520763
v -0.29663 0.747971 -0.518168
v -0.29932 0.758765 -0.517257
v -0.29932 0.747971 -0.517257
v -0.293506 0.758765 -0.565202
v -0.296052 0.747971 -0.56646
v -0.296052 0.758765 -0.56646
v -0.312288 0.758765 -0.52865
v -0.310413 0.747971 -0.556883
v -0.312288 0.747971 -0.52865
v -0.312288 0.747971 -0.52865
v -0.312105 0.758765 -0.525816
v -0.312288 0.758765 -0.52865
v -0.312105 0.747971 -0.525816
v -0.311194 0.758765 -0.523126
v -0.312105 0.758765 -0.525816
v -0.309618 0.758765 -0.520763
v -0.311194 0.747971 -0.523126
v -0.309618 0.747971 -0.520763
v -0.311194 0.758765 -0.523126
v -0.312105 0.747971 -0.525816
v -0.311194 0.747971 -0.523126
v -0.29932 0.758765 -0.517257
v -0.29663 0.747971 -0.518168
v -0.29663 0.758765 -0.518168
v -0.296052 0.747971 -0.56646
v -0.293506 0.758765 -0.565202
v -0.293506 0.747971 -0.565202
v -0.312105 0.758765 -0.525816
v -0.312288 0.747971 -0.52865
v -0.312105 0.747971 -0.525816
v -0.294267 0.747971 -0.519744
v -0.29663 0.758765 -0.518168
v -0.29663 0.747971 -0.518168
v -0.291372 0.758765 -0.563327
v -0.293506 0.747971 -0.565202
v -0.293506 0.758765 -0.565202
v -0.29663 0.758765 -0.518168
v -0.294267 0.747971 -0.519744
v -0.294267 0.758765 -0.519744
v -0.293506 0.747971 -0.565202
v -0.291372 0.758765 -0.563327
v -0.291372 0.747971 -0.563327
v -0.294267 0.747971 -0.519744
v -0.292393 0.758765 -0.521877
v -0.294267 0.758765 -0.519744
v -0.291372 0.758765 -0.563327
v -0.289797 0.747971 -0.560965
v -0.291372 0.747971 -0.563327
v -0.292393 0.758765 -0.521877
v -0.294267 0.747971 -0.519744
v -0.292393 0.747971 -0.521877
v -0.289797 0.747971 -0.560965
v -0.291372 0.758765 -0.563327
v -0.289797 0.758765 -0.560965
v -0.292393 0.747971 -0.521877
v -0.291135 0.758765 -0.524423
v -0.292393 0.758765 -0.521877
v -0.289797 0.758765 -0.560965
v -0.288886 0.747971 -0.558275
v -0.289797 0.747971 -0.560965
v -0.291135 0.758765 -0.524423
v -0.292393 0.747971 -0.521877
v -0.291135 0.747971 -0.524423
v -0.288886 0.747971 -0.558275
v -0.289797 0.758765 -0.560965
v -0.288886 0.758765 -0.558275
v -0.291135 0.747971 -0.524423
v -0.290578 0.758765 -0.527208
v -0.291135 0.758765 -0.524423
v -0.288886 0.758765 -0.558275
v -0.288703 0.747971 -0.555441
v -0.288886 0.747971 -0.558275
v -0.290578 0.758765 -0.527208
v -0.291135 0.747971 -0.524423
v -0.290578 0.747971 -0.527208
v -0.288703 0.747971 -0.555441
v -0.288886 0.758765 -0.558275
v -0.288703 0.758765 -0.555441
v -0.290578 0.747971 -0.527208
v -0.288703 0.758765 -0.555441
v -0.290578 0.758765 -0.527208
v -0.288703 0.758765 -0.555441
v -0.290578 0.747971 -0.527208
v -0.288703 0.747971 -0.555441
v -0.304361 0.758765 -0.565923
v -0.304361 0.747971 -0.565923
v -0.301671 0.758765 -0.566833
v -0.306723 0.758765 -0.564347
v -0.306723 0.747971 -0.564347
v -0.304361 0.758765 -0.565923
v -0.301671 0.747971 -0.566833
v -0.301671 0.758765 -0.566833
v -0.304361 0.747971 -0.565923
v -0.304361 0.747971 -0.565923
v -0.304361 0.758765 -0.565923
v -0.306723 0.747971 -0.564347
v -0.301671 0.758765 -0.566833
v -0.301671 0.747971 -0.566833
v -0.298837 0.758765 -0.567016
v -0.306723 0.758765 -0.564347
v -0.308598 0.758765 -0.562213
v -0.306723 0.747971 -0.564347
v -0.302154 0.758765 -0.517074
v -0.302154 0.747971 -0.517074
v -0.304939 0.758765 -0.51763
v -0.298837 0.747971 -0.567016
v -0.298837 0.758765 -0.567016
v -0.301671 0.747971 -0.566833
v -0.308598 0.747971 -0.562213
v -0.306723 0.747971 -0.564347
v -0.308598 0.758765 -0.562213
v -0.308598 0.758765 -0.562213
v -0.309856 0.758765 -0.559667
v -0.308598 0.747971 -0.562213
v -0.304939 0.758765 -0.51763
v -0.304939 0.747971 -0.51763
v -0.307485 0.758765 -0.518889
v -0.304939 0.747971 -0.51763
v -0.304939 0.758765 -0.51763
v -0.302154 0.747971 -0.517074
v -0.302154 0.747971 -0.517074
v -0.302154 0.758765 -0.517074
v -0.29932 0.747971 -0.517257
v -0.298837 0.758765 -0.567016
v -0.298837 0.747971 -0.567016
v -0.296052 0.758765 -0.56646
v -0.309856 0.747971 -0.559667
v -0.308598 0.747971 -0.562213
v -0.309856 0.758765 -0.559667
v -0.309856 0.758765 -0.559667
v -0.310413 0.758765 -0.556883
v -0.309856 0.747971 -0.559667
v -0.307485 0.758765 -0.518889
v -0.307485 0.747971 -0.518889
v -0.309618 0.758765 -0.520763
v -0.307485 0.747971 -0.518889
v -0.307485 0.758765 -0.518889
v -0.304939 0.747971 -0.51763
v -0.29932 0.758765 -0.517257
v -0.29932 0.747971 -0.517257
v -0.302154 0.758765 -0.517074
v -0.296052 0.747971 -0.56646
v -0.296052 0.758765 -0.56646
v -0.298837 0.747971 -0.567016
v -0.310413 0.747971 -0.556883
v -0.309856 0.747971 -0.559667
v -0.310413 0.758765 -0.556883
v -0.310413 0.758765 -0.556883
v -0.312288 0.758765 -0.52865
v -0.310413 0.747971 -0.556883
v -0.311194 0.758765 -0.523126
v -0.309618 0.758765 -0.520763
v -0.311194 0.747971 -0.523126
v -0.309618 0.747971 -0.520763
v -0.309618 0.758765 -0.520763
v -0.307485 0.747971 -0.518889
v -0.29932 0.747971 -0.517257
v -0.29932 0.758765 -0.517257
v -0.29663 0.747971 -0.518168
v -0.296052 0.758765 -0.56646
v -0.296052 0.747971 -0.56646
v -0.293506 0.758765 -0.565202
v -0.312288 0.747971 -0.52865
v -0.310413 0.747971 -0.556883
v -0.312288 0.758765 -0.52865
v -0.312288 0.758765 -0.52865
v -0.312105 0.758765 -0.525816
v -0.312288 0.747971 -0.52865
v -0.312105 0.758765 -0.525816
v -0.311194 0.758765 -0.523126
v -0.312105 0.747971 -0.525816
v -0.309618 0.747971 -0.520763
v -0.311194 0.747971 -0.523126
v -0.309618 0.758765 -0.520763
v -0.311194 0.747971 -0.523126
v -0.312105 0.747971 -0.525816
v -0.311194 0.758765 -0.523126
v -0.29663 0.758765 -0.518168
v -0.29663 0.747971 -0.518168
v -0.29932 0.758765 -0.517257
v -0.293506 0.747971 -0.565202
v -0.293506 0.758765 -0.565202
v -0.296052 0.747971 -0.56646
v -0.312105 0.747971 -0.525816
v -0.312288 0.747971 -0.52865
v -0.312105 0.758765 -0.525816
v -0.29663 0.747971 -0.518168
v -0.29663 0.758765 -0.518168
v -0.294267 0.747971 -0.519744
v -0.293506 0.758765 -0.565202
v -0.293506 0.747971 -0.565202
v -0.291372 0.758765 -0.563327
v -0.294267 0.758765 -0.519744
v -0.294267 0.747971 -0.519744
v -0.29663 0.758765 -0.518168
v -0.291372 0.747971 -0.563327
v -0.291372 0.758765 -0.563327
v -0.293506 0.747971 -0.565202
v -0.294267 0.758765 -0.519744
v -0.292393 0.758765 -0.521877
v -0.294267 0.747971 -0.519744
v -0.291372 0.747971 -0.563327
v -0.289797 0.747971 -0.560965
v -0.291372 0.758765 -0.563327
v -0.292393 0.747971 -0.521877
v -0.294267 0.747971 -0.519744
v -0.292393 0.758765 -0.521877
v -0.289797 0.758765 -0.560965
v -0.291372 0.758765 -0.563327
v -0.289797 0.747971 -0.560965
v -0.292393 0.758765 -0.521877
v -0.291135 0.758765 -0.524423
v -0.292393 0.747971 -0.521877
v -0.289797 0.747971 -0.560965
v -0.288886 0.747971 -0.558275
v -0.289797 0.758765 -0.560965
v -0.291135 0.747971 -0.524423
v -0.292393 0.747971 -0.521877
v -0.291135 0.758765 -0.524423
v -0.288886 0.758765 -0.558275
v -0.289797 0.758765 -0.560965
v -0.288886 0.747971 -0.558275
v -0.291135 0.758765 -0.524423
v -0.290578 0.758765 -0.527208
v -0.291135 0.747971 -0.524423
v -0.288886 0.747971 -0.558275
v -0.288703 0.747971 -0.555441
v -0.288886 0.758765 -0.558275
v -0.290578 0.747971 -0.527208
v -0.291135 0.747971 -0.524423
v -0.290578 0.758765 -0.527208
v -0.288703 0.758765 -0.555441
v -0.288886 0.758765 -0.558275
v -0.288703 0.747971 -0.555441
v -0.290578 0.758765 -0.527208
v -0.288703 0.758765 -0.555441
v -0.290578 0.747971 -0.527208
v -0.288703 0.747971 -0.555441
v -0.290578 0.747971 -0.527208
v -0.288703 0.758765 -0.555441
vn -0.19423461538128076 0.0 -0.980955103043807
vn -0.4415063540450231 0.0 -0.8972581230269642
vn -0.6586897176415258 0.0 -0.7524146834514377
vn 0.06627355889066593 0.0 -0.9978014909750162
vn -0.8309845392972834 0.0 -0.5562955109012491
vn -0.32226530214980137 0.0 0.9466493939311942
vn -0.06627355889066593 0.0 0.9978014909750162
vn -0.9466493939311942 0.0 -0.32226530214980137
vn -0.5562955109012491 0.0 0.8309845392972834
vn 0.19423461538128076 0.0 0.980955103043807
vn 0.32226530214980137 0.0 -0.9466493939311942
vn -0.9913306409293468 0.0 -0.13139086861197996
vn -0.7524146834514377 0.0 0.6586897176415258
vn -0.9999996194095095 0.0 -0.0008724567819051159
vn -0.8972581230269642 0.0 0.4415063540450231
vn 0.4415063540450231 0.0 0.8972581230269642
vn 0.5562955109012491 0.0 -0.8309845392972834
vn -0.980955103043807 0.0 0.19423461538128076
vn 0.6586897176415258 0.0 0.7524146834514377
vn 0.7524146834514377 0.0 -0.6586897176415258
vn 0.8309845392972834 0.0 0.5562955109012491
vn 0.8972581230269642 0.0 -0.4415063540450231
vn 0.9466493939311942 0.0 0.32226530214980137
vn 0.980955103043807 0.0 -0.19423461538128076
vn 0.9913306409293468 0.0 0.13139086861197996
vn 0.9999996194095095 0.0 0.0008724567819051159
usemtl material_0_0
f 1//1 2//2 3//2
f 4//2 5//3 6//3
f 7//2 8//1 9//1
f 10//3 11//2 12//2
f 13//4 14//1 15//1
f 16//3 17//5 18//3
f 19//6 20//7 21//7
f 22//1 23//4 24//4
f 25//5 26//3 27//5
f 28//5 29//8 30//5
f 31//9 32//6 33//6
f 34//7 35//6 36//6
f 37//10 38//7 39//7
f 40//11 41//4 42//4
f 43//8 44//5 45//8
f 46//8 47//12 48//8
f 49//13 50//9 51//9
f 52//6 53//9 54//9
f 55//7 56//10 57//10
f 58//4 59//11 60//11
f 61//12 62//8 63//12
f 64//12 65//14 66//12
f 67//15 68//13 69//15
f 70//9 71//13 72//13
f 73//16 74//10 75//10
f 76//17 77//11 78//11
f 79//14 80//12 81//14
f 82//14 83//18 84//14
f 85//18 86//15 87//18
f 88//13 89//15 90//13
f 91//15 92//18 93//15
f 94//10 95//16 96//16
f 97//11 98//17 99//17
f 100//18 101//14 102//18
f 103//19 104//16 105//16
f 106//20 107//17 108//17
f 109//16 110//19 111//19
f 112//17 113//20 114//20
f 115//19 116//21 117//19
f 118//20 119//22 120//20
f 121//21 122//19 123//21
f 124//22 125//20 126//22
f 127//21 128//23 129//21
f 130//22 131//24 132//22
f 133//23 134//21 135//23
f 136//24 137//22 138//24
f 139//23 140//25 141//23
f 142//24 143//26 144//24
f 145//25 146//23 147//25
f 148//26 149//24 150//26
f 151//25 152//26 153//25
f 154//26 155//25 156//26
usemtl material_1_0
f 157//16 158//16 159//10
f 160//19 161//19 162//16
f 163//10 164//10 165//16
f 166//16 167//16 168//19
f 169//10 170//10 171//7
f 172//19 173//21 174//19
f 175//4 176//4 177//11
f 178//7 179//7 180//10
f 181//21 182//19 183//21
f 184//21 185//23 186//21
f 187//11 188//11 189//17
f 190//11 191//11 192//4
f 193//4 194//4 195//1
f 196//7 197//7 198//6
f 199//23 200//21 201//23
f 202//23 203//25 204//23
f 205//17 206//17 207//20
f 208//17 209//17 210//11
f 211//1 212//1 213//4
f 214//6 215//6 216//7
f 217//25 218//23 219//25
f 220//25 221//26 222//25
f 223//22 224//20 225//22
f 226//20 227//20 228//17
f 229//1 230//1 231//2
f 232//6 233//6 234//9
f 235//26 236//25 237//26
f 238//26 239//24 240//26
f 241//24 242//22 243//24
f 244//20 245//22 246//20
f 247//22 248//24 249//22
f 250//2 251//2 252//1
f 253//9 254//9 255//6
f 256//24 257//26 258//24
f 259//2 260//2 261//3
f 262//9 263//9 264//13
f 265//3 266//3 267//2
f 268//13 269//13 270//9
f 271//3 272//5 273//3
f 274//13 275//15 276//13
f 277//5 278//3 279//5
f 280//15 281//13 282//15
f 283//5 284//8 285//5
f 286//15 287//18 288//15
f 289//8 290//5 291//8
f 292//18 293//15 294//18
f 295//8 296//12 297//8
f 298//18 299//14 300//18
f 301//12 302//8 303//12
f 304//14 305//18 306//14
f 307//12 308//14 309//12
f 310//14 311//12 312//14
