# SSTK version 0.8.0
# 133
mtllib original-133.mtl
o 3dw.47c68395a5775e10d9deb3f829cc2475/Model/Component_18_1/Component_18/mesh1/mesh1-geometry/material_13/component_21#mesh1-geometry
v 0.257251 0.726129 -0.287726
v 0.248108 0.758765 -0.290169
v 0.248108 0.726129 -0.290169
v 0.265451 0.726129 -0.283
v 0.257251 0.758765 -0.287726
v 0.257251 0.726129 -0.287726
v 0.272148 0.726129 -0.276312
v 0.265451 0.758765 -0.283
v 0.265451 0.726129 -0.283
v 0.276886 0.758765 -0.268119
v 0.272148 0.726129 -0.276312
v 0.276886 0.726129 -0.268119
v 0.279341 0.758765 -0.258979
v 0.276886 0.726129 -0.268119
v 0.279341 0.726129 -0.258979
v 0.279348 0.758765 -0.249515
v 0.279341 0.726129 -0.258979
v 0.279348 0.726129 -0.249515
v 0.276905 0.758765 -0.240371
v 0.279348 0.726129 -0.249515
v 0.276905 0.726129 -0.240371
v 0.272178 0.758765 -0.232172
v 0.276905 0.726129 -0.240371
v 0.272178 0.726129 -0.232172
v 0.265491 0.758765 -0.225475
v 0.272178 0.726129 -0.232172
v 0.265491 0.726129 -0.225475
v 0.257298 0.726129 -0.220737
v 0.265491 0.758765 -0.225475
v 0.265491 0.726129 -0.225475
v 0.248158 0.726129 -0.218281
v 0.257298 0.758765 -0.220737
v 0.257298 0.726129 -0.220737
v 0.238693 0.726129 -0.218275
v 0.248158 0.758765 -0.218281
v 0.248158 0.726129 -0.218281
v 0.248108 0.758765 -0.290169
v 0.257251 0.726129 -0.287726
v 0.257251 0.758765 -0.287726
v 0.238644 0.758765 -0.290163
v 0.248108 0.726129 -0.290169
v 0.248108 0.758765 -0.290169
v 0.248108 0.726129 -0.290169
v 0.238644 0.758765 -0.290163
v 0.238644 0.726129 -0.290163
v 0.257251 0.758765 -0.287726
v 0.265451 0.726129 -0.283
v 0.265451 0.758765 -0.283
v 0.265451 0.758765 -0.283
v 0.272148 0.726129 -0.276312
v 0.272148 0.758765 -0.276312
v 0.272148 0.726129 -0.276312
v 0.276886 0.758765 -0.268119
v 0.272148 0.758765 -0.276312
v 0.276886 0.726129 -0.268119
v 0.279341 0.758765 -0.258979
v 0.276886 0.758765 -0.268119
v 0.279341 0.726129 -0.258979
v 0.279348 0.758765 -0.249515
v 0.279341 0.758765 -0.258979
v 0.279348 0.726129 -0.249515
v 0.276905 0.758765 -0.240371
v 0.279348 0.758765 -0.249515
v 0.276905 0.726129 -0.240371
v 0.272178 0.758765 -0.232172
v 0.276905 0.758765 -0.240371
v 0.272178 0.726129 -0.232172
v 0.265491 0.758765 -0.225475
v 0.272178 0.758765 -0.232172
v 0.265491 0.758765 -0.225475
v 0.257298 0.726129 -0.220737
v 0.257298 0.758765 -0.220737
v 0.257298 0.758765 -0.220737
v 0.248158 0.726129 -0.218281
v 0.248158 0.758765 -0.218281
v 0.248158 0.758765 -0.218281
v 0.238693 0.726129 -0.218275
v 0.238693 0.758765 -0.218275
v 0.229504 0.758765 -0.287707
v 0.238644 0.726129 -0.290163
v 0.238644 0.758765 -0.290163
v 0.238644 0.726129 -0.290163
v 0.229504 0.758765 -0.287707
v 0.229504 0.726129 -0.287707
v 0.22955 0.726129 -0.220718
v 0.238693 0.758765 -0.218275
v 0.238693 0.726129 -0.218275
v 0.221311 0.758765 -0.282969
v 0.229504 0.726129 -0.287707
v 0.229504 0.758765 -0.287707
v 0.238693 0.758765 -0.218275
v 0.22955 0.726129 -0.220718
v 0.22955 0.758765 -0.220718
v 0.229504 0.726129 -0.287707
v 0.221311 0.758765 -0.282969
v 0.221311 0.726129 -0.282969
v 0.22955 0.758765 -0.220718
v 0.22135 0.726129 -0.225444
v 0.22135 0.758765 -0.225444
v 0.22135 0.726129 -0.225444
v 0.22955 0.758765 -0.220718
v 0.22955 0.726129 -0.220718
v 0.221311 0.758765 -0.282969
v 0.214623 0.726129 -0.276272
v 0.221311 0.726129 -0.282969
v 0.214653 0.726129 -0.232132
v 0.22135 0.758765 -0.225444
v 0.22135 0.726129 -0.225444
v 0.214623 0.726129 -0.276272
v 0.221311 0.758765 -0.282969
v 0.214623 0.758765 -0.276272
v 0.22135 0.758765 -0.225444
v 0.214653 0.726129 -0.232132
v 0.214653 0.758765 -0.232132
v 0.209916 0.758765 -0.240325
v 0.214653 0.726129 -0.232132
v 0.209916 0.726129 -0.240325
v 0.20746 0.758765 -0.249465
v 0.209916 0.726129 -0.240325
v 0.20746 0.726129 -0.249465
v 0.214623 0.758765 -0.276272
v 0.209896 0.726129 -0.268073
v 0.214623 0.726129 -0.276272
v 0.214653 0.726129 -0.232132
v 0.209916 0.758765 -0.240325
v 0.214653 0.758765 -0.232132
v 0.209916 0.726129 -0.240325
v 0.20746 0.758765 -0.249465
v 0.209916 0.758765 -0.240325
v 0.209896 0.758765 -0.268073
v 0.207453 0.726129 -0.258929
v 0.209896 0.726129 -0.268073
v 0.207453 0.758765 -0.258929
v 0.20746 0.726129 -0.249465
v 0.207453 0.726129 -0.258929
v 0.20746 0.726129 -0.249465
v 0.207453 0.758765 -0.258929
v 0.20746 0.758765 -0.249465
v 0.209896 0.726129 -0.268073
v 0.214623 0.758765 -0.276272
v 0.209896 0.758765 -0.268073
v 0.207453 0.726129 -0.258929
v 0.209896 0.758765 -0.268073
v 0.207453 0.758765 -0.258929
v 0.248108 0.726129 -0.290169
v 0.248108 0.758765 -0.290169
v 0.257251 0.726129 -0.287726
v 0.257251 0.726129 -0.287726
v 0.257251 0.758765 -0.287726
v 0.265451 0.726129 -0.283
v 0.265451 0.726129 -0.283
v 0.265451 0.758765 -0.283
v 0.272148 0.726129 -0.276312
v 0.276886 0.726129 -0.268119
v 0.272148 0.726129 -0.276312
v 0.276886 0.758765 -0.268119
v 0.279341 0.726129 -0.258979
v 0.276886 0.726129 -0.268119
v 0.279341 0.758765 -0.258979
v 0.279348 0.726129 -0.249515
v 0.279341 0.726129 -0.258979
v 0.279348 0.758765 -0.249515
v 0.276905 0.726129 -0.240371
v 0.279348 0.726129 -0.249515
v 0.276905 0.758765 -0.240371
v 0.272178 0.726129 -0.232172
v 0.276905 0.726129 -0.240371
v 0.272178 0.758765 -0.232172
v 0.265491 0.726129 -0.225475
v 0.272178 0.726129 -0.232172
v 0.265491 0.758765 -0.225475
v 0.265491 0.726129 -0.225475
v 0.265491 0.758765 -0.225475
v 0.257298 0.726129 -0.220737
v 0.257298 0.726129 -0.220737
v 0.257298 0.758765 -0.220737
v 0.248158 0.726129 -0.218281
v 0.248158 0.726129 -0.218281
v 0.248158 0.758765 -0.218281
v 0.238693 0.726129 -0.218275
v 0.257251 0.758765 -0.287726
v 0.257251 0.726129 -0.287726
v 0.248108 0.758765 -0.290169
v 0.248108 0.758765 -0.290169
v 0.248108 0.726129 -0.290169
v 0.238644 0.758765 -0.290163
v 0.238644 0.726129 -0.290163
v 0.238644 0.758765 -0.290163
v 0.248108 0.726129 -0.290169
v 0.265451 0.758765 -0.283
v 0.265451 0.726129 -0.283
v 0.257251 0.758765 -0.287726
v 0.272148 0.758765 -0.276312
v 0.272148 0.726129 -0.276312
v 0.265451 0.758765 -0.283
v 0.272148 0.758765 -0.276312
v 0.276886 0.758765 -0.268119
v 0.272148 0.726129 -0.276312
v 0.276886 0.758765 -0.268119
v 0.279341 0.758765 -0.258979
v 0.276886 0.726129 -0.268119
v 0.279341 0.758765 -0.258979
v 0.279348 0.758765 -0.249515
v 0.279341 0.726129 -0.258979
v 0.279348 0.758765 -0.249515
v 0.276905 0.758765 -0.240371
v 0.279348 0.726129 -0.249515
v 0.276905 0.758765 -0.240371
v 0.272178 0.758765 -0.232172
v 0.276905 0.726129 -0.240371
v 0.272178 0.758765 -0.232172
v 0.265491 0.758765 -0.225475
v 0.272178 0.726129 -0.232172
v 0.257298 0.758765 -0.220737
v 0.257298 0.726129 -0.220737
v 0.265491 0.758765 -0.225475
v 0.248158 0.758765 -0.218281
v 0.248158 0.726129 -0.218281
v 0.257298 0.758765 -0.220737
v 0.238693 0.758765 -0.218275
v 0.238693 0.726129 -0.218275
v 0.248158 0.758765 -0.218281
v 0.238644 0.758765 -0.290163
v 0.238644 0.726129 -0.290163
v 0.229504 0.758765 -0.287707
v 0.229504 0.726129 -0.287707
v 0.229504 0.758765 -0.287707
v 0.238644 0.726129 -0.290163
v 0.238693 0.726129 -0.218275
v 0.238693 0.758765 -0.218275
v 0.22955 0.726129 -0.220718
v 0.229504 0.758765 -0.287707
v 0.229504 0.726129 -0.287707
v 0.221311 0.758765 -0.282969
v 0.22955 0.758765 -0.220718
v 0.22955 0.726129 -0.220718
v 0.238693 0.758765 -0.218275
v 0.221311 0.726129 -0.282969
v 0.221311 0.758765 -0.282969
v 0.229504 0.726129 -0.287707
v 0.22135 0.758765 -0.225444
v 0.22135 0.726129 -0.225444
v 0.22955 0.758765 -0.220718
v 0.22955 0.726129 -0.220718
v 0.22955 0.758765 -0.220718
v 0.22135 0.726129 -0.225444
v 0.221311 0.726129 -0.282969
v 0.214623 0.726129 -0.276272
v 0.221311 0.758765 -0.282969
v 0.22135 0.726129 -0.225444
v 0.22135 0.758765 -0.225444
v 0.214653 0.726129 -0.232132
v 0.214623 0.758765 -0.276272
v 0.221311 0.758765 -0.282969
v 0.214623 0.726129 -0.276272
v 0.214653 0.758765 -0.232132
v 0.214653 0.726129 -0.232132
v 0.22135 0.758765 -0.225444
v 0.209916 0.726129 -0.240325
v 0.214653 0.726129 -0.232132
v 0.209916 0.758765 -0.240325
v 0.20746 0.726129 -0.249465
v 0.209916 0.726129 -0.240325
v 0.20746 0.758765 -0.249465
v 0.214623 0.726129 -0.276272
v 0.209896 0.726129 -0.268073
v 0.214623 0.758765 -0.276272
v 0.214653 0.758765 -0.232132
v 0.209916 0.758765 -0.240325
v 0.214653 0.726129 -0.232132
v 0.209916 0.758765 -0.240325
v 0.20746 0.758765 -0.249465
v 0.209916 0.726129 -0.240325
v 0.209896 0.726129 -0.268073
v 0.207453 0.726129 -0.258929
v 0.209896 0.758765 -0.268073
v 0.207453 0.726129 -0.258929
v 0.20746 0.726129 -0.249465
v 0.207453 0.758765 -0.258929
v 0.20746 0.758765 -0.249465
v 0.207453 0.758765 -0.258929
v 0.20746 0.726129 -0.249465
v 0.209896 0.758765 -0.268073
v 0.214623 0.758765 -0.276272
v 0.209896 0.726129 -0.268073
v 0.207453 0.758765 -0.258929
v 0.209896 0.758765 -0.268073
v 0.207453 0.726129 -0.258929
vn -0.3820441679102771 0.0 0.9241440654820783
vn -0.12984000644839988 0.0 0.9915349578938101
vn -0.6082122533359883 0.0 0.7937744357762849
vn -0.7929321773586472 0.0 0.6093099064591637
vn -0.9236145857525411 0.0 0.38332244518833225
vn -0.9913543477723679 0.0 0.13121187885562569
vn -0.9915349578938101 0.0 -0.12984000644839988
vn -0.9241440654820783 0.0 -0.3820441679102771
vn -0.7937744357762849 0.0 -0.6082122533359883
vn -0.6093099064591637 0.0 -0.7929321773586472
vn -0.38332244518833225 0.0 -0.9236145857525411
vn -0.13121187885562569 0.0 -0.9913543477723679
vn 0.12984000644839988 0.0 -0.9915349578938101
vn 0.13121187885562569 0.0 0.9913543477723679
vn 0.38332244518833225 0.0 0.9236145857525411
vn 0.3820441679102771 0.0 -0.9241440654820783
vn 0.6093099064591637 0.0 0.7929321773586472
vn 0.6082122533359883 0.0 -0.7937744357762849
vn 0.7937744357762849 0.0 0.6082122533359883
vn 0.7929321773586472 0.0 -0.6093099064591637
vn 0.9236145857525411 0.0 -0.38332244518833225
vn 0.9913543477723679 0.0 -0.13121187885562569
vn 0.9241440654820783 0.0 0.3820441679102771
vn 0.9915349578938101 0.0 0.12984000644839988
usemtl material_0_0
f 1//1 2//2 3//2
f 4//3 5//1 6//1
f 7//4 8//3 9//3
f 10//5 11//4 12//5
f 13//6 14//5 15//6
f 16//7 17//6 18//7
f 19//8 20//7 21//8
f 22//9 23//8 24//9
f 25//10 26//9 27//10
f 28//11 29//10 30//10
f 31//12 32//11 33//11
f 34//13 35//12 36//12
f 37//2 38//1 39//1
f 40//14 41//2 42//2
f 43//2 44//14 45//14
f 46//1 47//3 48//3
f 49//3 50//4 51//4
f 52//4 53//5 54//4
f 55//5 56//6 57//5
f 58//6 59//7 60//6
f 61//7 62//8 63//7
f 64//8 65//9 66//8
f 67//9 68//10 69//9
f 70//10 71//11 72//11
f 73//11 74//12 75//12
f 76//12 77//13 78//13
f 79//15 80//14 81//14
f 82//14 83//15 84//15
f 85//16 86//13 87//13
f 88//17 89//15 90//15
f 91//13 92//16 93//16
f 94//15 95//17 96//17
f 97//16 98//18 99//18
f 100//18 101//16 102//16
f 103//17 104//19 105//17
f 106//20 107//18 108//18
f 109//19 110//17 111//19
f 112//18 113//20 114//20
f 115//21 116//20 117//21
f 118//22 119//21 120//22
f 121//19 122//23 123//19
f 124//20 125//21 126//20
f 127//21 128//22 129//21
f 130//23 131//24 132//23
f 133//24 134//22 135//24
f 136//22 137//24 138//22
f 139//23 140//19 141//23
f 142//24 143//23 144//24
usemtl material_1_0
f 145//13 146//13 147//16
f 148//16 149//16 150//18
f 151//18 152//18 153//20
f 154//21 155//20 156//21
f 157//22 158//21 159//22
f 160//24 161//22 162//24
f 163//23 164//24 165//23
f 166//19 167//23 168//19
f 169//17 170//19 171//17
f 172//17 173//17 174//15
f 175//15 176//15 177//14
f 178//14 179//14 180//2
f 181//16 182//16 183//13
f 184//13 185//13 186//12
f 187//12 188//12 189//13
f 190//18 191//18 192//16
f 193//20 194//20 195//18
f 196//20 197//21 198//20
f 199//21 200//22 201//21
f 202//22 203//24 204//22
f 205//24 206//23 207//24
f 208//23 209//19 210//23
f 211//19 212//17 213//19
f 214//15 215//15 216//17
f 217//14 218//14 219//15
f 220//2 221//2 222//14
f 223//12 224//12 225//11
f 226//11 227//11 228//12
f 229//2 230//2 231//1
f 232//11 233//11 234//10
f 235//1 236//1 237//2
f 238//10 239//10 240//11
f 241//3 242//3 243//1
f 244//1 245//1 246//3
f 247//10 248//9 249//10
f 250//3 251//3 252//4
f 253//9 254//10 255//9
f 256//4 257//4 258//3
f 259//5 260//4 261//5
f 262//6 263//5 264//6
f 265//9 266//8 267//9
f 268//4 269//5 270//4
f 271//5 272//6 273//5
f 274//8 275//7 276//8
f 277//7 278//6 279//7
f 280//6 281//7 282//6
f 283//8 284//9 285//8
f 286//7 287//8 288//7
