# SSTK version 0.8.0
# 83
mtllib original-83.mtl
o mesh101/mesh101-geometry#mesh101-geometry
v 0.061289 0.227761 -0.275181
v 0.068722 0.227715 -0.305702
v 0.07301 0.227689 -0.305702
v 0.06537 0.227736 -0.296458
v 0.068745 0.231595 -0.305702
v 0.061313 0.231641 -0.275181
v 0.064204 0.227743 -0.293169
v 0.073034 0.231569 -0.305702
v 0.056938 0.227787 -0.275181
v 0.060852 0.227763 -0.284216
v 0.052608 0.227814 -0.296458
v 0.065393 0.231616 -0.296458
v 0.056962 0.231667 -0.275181
v 0.059207 0.227773 -0.278387
v 0.064228 0.231623 -0.293169
v 0.053857 0.227806 -0.293169
v 0.052632 0.231694 -0.296458
v 0.059231 0.231653 -0.278387
v 0.044471 0.231744 -0.305702
v 0.057042 0.227787 -0.284716
v 0.05991 0.227769 -0.281312
v 0.060876 0.231643 -0.284216
v 0.044447 0.227864 -0.305702
v 0.049048 0.227835 -0.305702
v 0.057066 0.231667 -0.284716
v 0.053881 0.231686 -0.293169
v 0.059934 0.231649 -0.281312
v 0.049071 0.231716 -0.305702
vn -0.006114001891192305 -0.9999813093157663 0.0
vn 0.006114001891192305 0.9999813093157663 0.0
vn 0.0 0.0 -1.0
vn 0.0 0.0 1.0
vn 0.9335084895596268 -0.005707579349174982 0.35850986521723066
vn -0.9335084895596268 0.005707579349174982 -0.35850986521723066
vn -0.9400845529595371 0.005747786164731529 -0.34089293955884675
vn 0.9400845529595371 -0.005747786164731529 0.34089293955884675
vn -0.9440757747972411 0.005772188958700335 -0.3296780448795667
vn -0.9364906012318178 0.005725812326365325 -0.3506459309298646
vn 0.9364906012318178 -0.005725812326365325 0.3506459309298646
vn 0.9440757747972411 -0.005772188958700335 0.3296780448795667
vn -0.9254695230244735 0.005658428173906728 0.37877980957735113
vn 0.9254695230244735 -0.005658428173906728 -0.37877980957735113
vn 0.9331654512383881 -0.005705481973028783 -0.359401847644821
vn -0.9331654512383881 0.005705481973028783 0.359401847644821
vn 0.9410556037231432 -0.005753723281905442 -0.3382029647558781
vn 0.9461462344521422 -0.0057848479895519864 -0.3236878721326606
vn -0.9461462344521422 0.0057848479895519864 0.3236878721326606
vn -0.9410556037231432 0.005753723281905442 0.3382029647558781
vn -0.9723220598464077 0.005944890026811227 -0.2335689838540377
vn -0.9624870162835258 0.005884757427948392 -0.2712639178284683
vn 0.9624870162835258 -0.005884757427948392 0.2712639178284683
vn 0.9723220598464077 -0.005944890026811227 0.2335689838540377
vn 0.9357423884928447 -0.005721237666760711 -0.3526378451290592
vn -0.9357423884928447 0.005721237666760711 0.3526378451290592
usemtl material_0_0
f 1//1 2//1 3//1
f 2//1 1//1 4//1
f 3//2 2//2 1//2
f 4//2 1//2 2//2
f 5//3 3//3 2//3
f 2//4 3//4 5//4
f 3//5 6//5 1//5
f 1//6 6//6 3//6
f 4//1 1//1 7//1
f 7//2 1//2 4//2
f 4//7 5//7 2//7
f 2//8 5//8 4//8
f 3//3 5//3 8//3
f 8//4 5//4 3//4
f 6//5 3//5 8//5
f 8//6 3//6 6//6
f 6//4 9//4 1//4
f 1//3 9//3 6//3
f 7//1 1//1 10//1
f 10//2 1//2 7//2
f 7//1 11//1 4//1
f 4//2 11//2 7//2
f 5//7 4//7 12//7
f 12//8 4//8 5//8
f 5//2 6//2 8//2
f 8//1 6//1 5//1
f 9//4 6//4 13//4
f 13//3 6//3 9//3
f 14//1 1//1 9//1
f 9//2 1//2 14//2
f 10//1 1//1 14//1
f 14//2 1//2 10//2
f 10//9 15//10 7//10
f 7//11 15//11 10//12
f 11//1 7//1 16//1
f 16//2 7//2 11//2
f 17//3 4//3 11//3
f 11//4 4//4 17//4
f 4//3 17//3 12//3
f 12//4 17//4 4//4
f 6//2 5//2 12//2
f 12//1 5//1 6//1
f 6//2 18//2 13//2
f 13//1 18//1 6//1
f 19//13 9//13 13//13
f 13//14 9//14 19//14
f 14//1 9//1 20//1
f 20//2 9//2 14//2
f 10//1 14//1 21//1
f 21//2 14//2 10//2
f 15//10 10//9 22//9
f 22//12 10//12 15//11
f 15//4 16//4 7//4
f 7//3 16//3 15//3
f 16//1 23//1 11//1
f 11//2 23//2 16//2
f 24//15 17//15 11//15
f 11//16 17//16 24//16
f 17//2 15//2 12//2
f 12//1 15//1 17//1
f 6//2 12//2 15//2
f 15//1 12//1 6//1
f 6//2 22//2 18//2
f 18//1 22//1 6//1
f 13//2 18//2 25//2
f 25//1 18//1 13//1
f 9//13 19//13 23//13
f 23//14 19//14 9//14
f 13//2 26//2 19//2
f 19//1 26//1 13//1
f 20//1 9//1 16//1
f 16//2 9//2 20//2
f 20//17 18//18 14//18
f 14//19 18//19 20//20
f 14//21 27//22 21//22
f 21//23 27//23 14//24
f 21//22 22//9 10//9
f 10//12 22//12 21//23
f 6//2 15//2 22//2
f 22//1 15//1 6//1
f 16//4 15//4 26//4
f 26//3 15//3 16//3
f 16//1 9//1 23//1
f 23//2 9//2 16//2
f 11//1 23//1 24//1
f 24//2 23//2 11//2
f 17//15 24//15 28//15
f 28//16 24//16 17//16
f 15//2 17//2 26//2
f 26//1 17//1 15//1
f 18//2 22//2 27//2
f 27//1 22//1 18//1
f 18//18 20//17 25//17
f 25//20 20//20 18//19
f 13//2 25//2 26//2
f 26//1 25//1 13//1
f 19//3 24//3 23//3
f 23//4 24//4 19//4
f 19//2 26//2 17//2
f 17//1 26//1 19//1
f 16//25 25//17 20//17
f 20//20 25//20 16//26
f 27//22 14//21 18//21
f 18//24 14//24 27//23
f 22//9 21//22 27//22
f 27//23 21//23 22//12
f 25//17 16//25 26//25
f 26//26 16//26 25//20
f 24//3 19//3 28//3
f 28//4 19//4 24//4
f 19//2 17//2 28//2
f 28//1 17//1 19//1
