# SSTK version 0.8.0
# 82
mtllib original-82.mtl
o mesh100/mesh100-geometry#mesh100-geometry
v 0.097587 0.227539 -0.278772
v 0.097212 0.227541 -0.287217
v 0.097452 0.227539 -0.290192
v 0.096195 0.227547 -0.277531
v 0.097475 0.23142 -0.290192
v 0.098019 0.227536 -0.301754
v 0.097611 0.231419 -0.278772
v 0.096494 0.227545 -0.284331
v 0.097236 0.231421 -0.287217
v 0.097192 0.231421 -0.293838
v 0.098787 0.227531 -0.280227
v 0.09675 0.227544 -0.303096
v 0.096218 0.231427 -0.277531
v 0.095185 0.227553 -0.281778
v 0.097168 0.227541 -0.293838
v 0.096774 0.231424 -0.303096
v 0.099103 0.227529 -0.300187
v 0.098043 0.231416 -0.301754
v 0.09461 0.227557 -0.276503
v 0.09881 0.231411 -0.280227
v 0.096518 0.231425 -0.284331
v 0.096341 0.231427 -0.296989
v 0.099794 0.227525 -0.281895
v 0.099127 0.231409 -0.300187
v 0.096317 0.227546 -0.296989
v 0.094634 0.231437 -0.276503
v 0.093173 0.227566 -0.279803
v 0.095209 0.231433 -0.281778
v 0.095321 0.231433 -0.304213
v 0.100002 0.227524 -0.298394
v 0.100026 0.231404 -0.298394
v 0.095297 0.227553 -0.304213
v 0.092886 0.227567 -0.275697
v 0.099817 0.231405 -0.281895
v 0.093197 0.231446 -0.279803
v 0.094891 0.231435 -0.299526
v 0.100591 0.22752 -0.283746
v 0.094867 0.227555 -0.299526
v 0.09291 0.231447 -0.275697
v 0.09192 0.227573 -0.279065
v 0.091943 0.231453 -0.279065
v 0.09366 0.231443 -0.305092
v 0.10116 0.227517 -0.285749
v 0.101236 0.231397 -0.294444
v 0.100614 0.2314 -0.283746
v 0.093636 0.227563 -0.305092
v 0.091078 0.227578 -0.275121
v 0.09393 0.231441 -0.30052
v 0.101212 0.227516 -0.294444
v 0.101184 0.231397 -0.285749
v 0.093907 0.227561 -0.30052
v 0.091102 0.231459 -0.275121
v 0.090522 0.227582 -0.278538
v 0.090545 0.231462 -0.278538
v 0.092812 0.231448 -0.30133
v 0.101502 0.227515 -0.287905
v 0.101639 0.231394 -0.290212
v 0.101525 0.231395 -0.287905
v 0.092788 0.227568 -0.30133
v 0.091768 0.231454 -0.30572
v 0.089186 0.22759 -0.274776
v 0.101615 0.227514 -0.290212
v 0.091745 0.227574 -0.30572
v 0.08921 0.23147 -0.274776
v 0.087292 0.227602 -0.278116
v 0.087316 0.231482 -0.278116
v 0.090319 0.231463 -0.302407
v 0.090295 0.227583 -0.302407
v 0.089647 0.231467 -0.306097
v 0.087209 0.227602 -0.27466
v 0.089623 0.227587 -0.306097
v 0.087232 0.231482 -0.27466
v 0.084492 0.227619 -0.278496
v 0.084516 0.231499 -0.278496
v 0.087628 0.23148 -0.302766
v 0.087604 0.2276 -0.302766
v 0.087295 0.231482 -0.306222
v 0.08501 0.227616 -0.274806
v 0.087271 0.227602 -0.306222
v 0.085033 0.231496 -0.274806
v 0.082993 0.227628 -0.275243
v 0.082236 0.231513 -0.279636
v 0.085996 0.23149 -0.302644
v 0.085973 0.22761 -0.302644
v 0.085003 0.231496 -0.306059
v 0.082212 0.227633 -0.279636
v 0.083017 0.231508 -0.275243
v 0.084979 0.227616 -0.306059
v 0.081158 0.227639 -0.275972
v 0.081286 0.231519 -0.280509
v 0.081182 0.231519 -0.275972
v 0.084495 0.231499 -0.302277
v 0.084471 0.227619 -0.302277
v 0.082894 0.231509 -0.305569
v 0.081262 0.227638 -0.280509
v 0.082871 0.227629 -0.305569
v 0.080432 0.227644 -0.281609
v 0.080456 0.231524 -0.281609
v 0.079506 0.227649 -0.276992
v 0.083123 0.231507 -0.301666
v 0.0831 0.227627 -0.301666
v 0.080969 0.231521 -0.304753
v 0.079529 0.231529 -0.276992
v 0.081882 0.231515 -0.300809
v 0.081858 0.227635 -0.300809
v 0.080946 0.22764 -0.304753
v 0.079131 0.227651 -0.284487
v 0.079155 0.231532 -0.284487
v 0.078063 0.227658 -0.278276
v 0.079228 0.231531 -0.30361
v 0.080801 0.231522 -0.299712
v 0.078086 0.231538 -0.278276
v 0.080777 0.227641 -0.299712
v 0.079204 0.227651 -0.30361
v 0.075155 0.227676 -0.28355
v 0.075178 0.231556 -0.28355
v 0.07688 0.231546 -0.279798
v 0.077705 0.23154 -0.302155
v 0.079909 0.231527 -0.298379
v 0.076857 0.227665 -0.279798
v 0.079886 0.227647 -0.298379
v 0.077681 0.22766 -0.302155
v 0.079208 0.231531 -0.296808
v 0.075887 0.227671 -0.281555
v 0.075911 0.231551 -0.281555
v 0.079184 0.227651 -0.296808
v 0.076412 0.227668 -0.300406
v 0.078697 0.231534 -0.295001
v 0.078673 0.227654 -0.295001
v 0.076435 0.231548 -0.300406
v 0.074634 0.227679 -0.296021
v 0.074658 0.231559 -0.296021
v 0.075396 0.227674 -0.298361
v 0.07542 0.231554 -0.298361
vn -0.006114001891192305 -0.9999813093157663 0.0
vn 0.006114001891192305 0.9999813093157663 0.0
vn -0.9868693319029032 0.0060338337380951524 -0.1614079136843619
vn -0.9999804168844088 0.006113996434763311 -0.0013359997304359325
vn 0.9999804168844088 -0.006113996434763311 0.0013359997304359325
vn 0.9868693319029032 -0.0060338337380951524 0.1614079136843619
vn 0.7205856693955607 -0.004405744491829642 0.6933519182040419
vn 0.6065837857225569 -0.003708723731658478 0.7950109158161123
vn -0.7205856693955607 0.004405744491829642 -0.6933519182040419
vn -0.6065837857225569 0.003708723731658478 -0.7950109158161123
vn -0.9854494527128408 0.006025152431782292 0.16986192535743974
vn 0.9854494527128408 -0.006025152431782292 -0.16986192535743974
vn 0.8159549500993685 -0.004988843352931062 0.5780939636861271
vn -0.8159549500993685 0.004988843352931062 -0.5780939636861271
vn -0.9362826140937808 0.005724540668841873 -0.3512009341955786
vn 0.9362826140937808 -0.005724540668841873 0.3512009341955786
vn 0.6701416284309226 -0.004097323765378053 -0.7422219410539633
vn 0.7768363130521742 -0.0047496674616825905 -0.6296846698010902
vn -0.7768363130521742 0.0047496674616825905 0.6296846698010902
vn -0.6701416284309226 0.004097323765378053 0.7422219410539633
vn 0.4850619512538287 -0.002965725118743056 0.8744747611682959
vn -0.4850619512538287 0.002965725118743056 -0.8744747611682959
vn -0.8055531888944639 0.004925245776570327 -0.5925029973054995
vn 0.8055531888944639 -0.004925245776570327 0.5925029973054995
vn -0.9243644500447262 0.005651671629334206 0.38146876949667197
vn 0.9243644500447262 -0.005651671629334206 -0.38146876949667197
vn 0.8602520345649189 -0.0052596808732663135 -0.5098419095994648
vn -0.8602520345649189 0.0052596808732663135 0.5098419095994648
vn 0.8893320273429713 -0.005437479327281946 0.4572296785649481
vn -0.8893320273429713 0.005437479327281946 -0.4572296785649481
vn 0.9282383201782917 -0.005675356921351373 -0.3719427526870213
vn -0.9282383201782917 0.005675356921351373 0.3719427526870213
vn 0.5404650502134156 -0.003304466101860637 -0.8413599764676185
vn -0.5404650502134156 0.003304466101860637 0.8413599764676185
vn 0.36431115526967495 -0.00222744072469248 0.9312746215021072
vn -0.36431115526967495 0.00222744072469248 -0.9312746215021072
vn -0.608420752036833 0.0037199551571010458 -0.7936059163240682
vn 0.608420752036833 -0.0037199551571010458 0.7936059163240682
vn -0.7997485587436639 0.004889755593514859 0.6003151947749349
vn 0.7997485587436639 -0.004889755593514859 -0.6003151947749349
vn 0.9421567660783816 -0.005760455916465426 0.33512303006561656
vn -0.9421567660783816 0.005760455916465426 -0.33512303006561656
vn -0.4315138146737622 0.002638325591101516 -0.902102470334592
vn 0.4315138146737622 -0.002638325591101516 0.902102470334592
vn 0.9808071631781753 -0.005996768934280894 -0.19488803816737682
vn -0.9808071631781753 0.005996768934280894 0.19488803816737682
vn 0.39273875711869444 -0.002401250384780921 -0.9196469445681059
vn -0.39273875711869444 0.002401250384780921 0.9196469445681059
vn 0.2419965472852244 -0.0014795950024068536 0.9702759823373239
vn -0.2419965472852244 0.0014795950024068536 -0.9702759823373239
vn -0.6551758066912023 0.004005820992708725 0.7554658269734684
vn 0.6551758066912023 -0.004005820992708725 -0.7554658269734684
vn 0.9765248620695545 -0.005970586447835546 0.21532195860503103
vn -0.9765248620695545 0.005970586447835546 -0.21532195860503103
vn -0.24267750995503043 0.0014837584872762597 -0.970105883201817
vn 0.24267750995503043 -0.0014837584872762597 0.970105883201817
vn 0.9997197843403346 -0.006112402897111627 -0.02286900368048908
vn -0.9997197843403346 0.006112402897111627 0.02286900368048908
vn 0.24557438146937702 -0.0015014702962393447 -0.9693765876855507
vn -0.24557438146937702 0.0015014702962393447 0.9693765876855507
vn 0.1190777707556366 -0.000728055323451081 0.992884663214874
vn -0.1190777707556366 0.000728055323451081 -0.992884663214874
vn -0.4945837473192622 0.0030239424860170924 0.8691247164012063
vn 0.4945837473192622 -0.0030239424860170924 -0.8691247164012063
vn 0.994658110515776 -0.006081455235342702 0.10304493722355776
vn -0.994658110515776 0.006081455235342702 -0.10304493722355776
vn 0.0025289530129714096 -1.5462312505244232e-05 -0.9999968020736741
vn -0.0025289530129714096 1.5462312505244232e-05 0.9999968020736741
vn -0.26701111067442046 0.0016325369488653751 0.9636920678305508
vn 0.26701111067442046 -0.0016325369488653751 -0.9636920678305508
vn 0.11427785126166146 -0.0006987080580668758 -0.9934485817182827
vn -0.11427785126166146 0.0006987080580668758 0.9934485817182827
vn -0.003998926508753842 2.4449901222643322e-05 0.9999920039625216
vn 0.003998926508753842 -2.4449901222643322e-05 -0.9999920039625216
vn 0.294803629740464 -0.0018024636390422725 -0.9555561579607331
vn -0.294803629740464 0.0018024636390422725 0.9555561579607331
vn -0.028924456302740143 0.00017684748593717957 0.9995815847406142
vn 0.028924456302740143 -0.00017684748593717957 -0.9995815847406142
vn -0.008893840496615894 5.437797397781317e-05 -0.9999604475399297
vn 0.008893840496615894 -5.437797397781317e-05 0.9999604475399297
vn -0.1393653901777668 0.0008520961853743569 0.9902406586041042
vn 0.1393653901777668 -0.0008520961853743569 -0.9902406586041042
vn 0.5674997473504282 -0.0034697593807286246 -0.8233662596481836
vn -0.5674997473504282 0.0034697593807286246 0.8233662596481836
vn 0.15659518610851952 -0.0009574411592494789 0.9876624074014686
vn -0.15659518610851952 0.0009574411592494789 -0.9876624074014686
vn -0.14914426253110247 0.0009118853469367188 -0.9888150268979369
vn 0.14914426253110247 -0.0009118853469367188 0.9888150268979369
vn -0.2914667352388231 0.001782061478418189 0.9565793048702804
vn 0.2914667352388231 -0.001782061478418189 -0.9565793048702804
vn 0.7404074608152611 -0.004526937227231657 -0.6721430642418609
vn -0.7404074608152611 0.004526937227231657 0.6721430642418609
vn 0.32362395357607454 -0.00197867444697854 0.946183714465232
vn -0.32362395357607454 0.00197867444697854 -0.946183714465232
vn -0.30953442539797693 0.0018925294349424252 -0.950886353790968
vn 0.30953442539797693 -0.0018925294349424252 0.950886353790968
vn -0.44891369908801326 0.002744710505723621 0.893570902242993
vn 0.44891369908801326 -0.002744710505723621 -0.893570902242993
vn 0.8599224795773286 -0.005257665935788375 -0.5103975764700364
vn -0.8599224795773286 0.005257665935788375 0.5103975764700364
vn -0.5973118438627392 0.0036520340020226917 0.8020007629852625
vn 0.5973118438627392 -0.0036520340020226917 -0.8020007629852625
vn 0.48958789544665715 -0.002993397267308831 0.8719488128353138
vn -0.48958789544665715 0.002993397267308831 -0.8719488128353138
vn -0.4714763347278024 0.0028826610810862184 -0.8818740023703664
vn 0.4714763347278024 -0.0028826610810862184 0.8818740023703664
vn 0.9111939938366861 -0.0055711459300899656 -0.4119398838774596
vn -0.9111939938366861 0.0055711459300899656 0.4119398838774596
vn -0.7268905635595339 0.004444293347176422 0.6867389291897958
vn 0.7268905635595339 -0.004444293347176422 -0.6867389291897958
vn 0.6428142141717762 -0.0039302407800209166 0.7660120359799397
vn -0.6428142141717762 0.0039302407800209166 -0.7660120359799397
vn -0.622169697112452 0.0038040178044836765 -0.7828731681719222
vn 0.622169697112452 -0.0038040178044836765 0.7828731681719222
vn 0.7752399065500309 -0.004739906846876806 0.6316491277405379
vn -0.7752399065500309 0.004739906846876806 -0.6316491277405379
vn -0.2293188657520889 0.0014020821847697306 -0.973350343902812
vn 0.2293188657520889 -0.0014020821847697306 0.973350343902812
vn -0.8324797763559472 0.00508987806032322 0.5540320524118466
vn 0.8324797763559472 -0.00508987806032322 -0.5540320524118466
vn -0.7530347481094506 0.004604141928637656 -0.6579646419199418
vn 0.7530347481094506 -0.004604141928637656 0.6579646419199418
vn 0.8753712724709571 -0.005352121650198589 0.48342164838411905
vn -0.8753712724709571 0.005352121650198589 -0.48342164838411905
vn -0.9097989915283204 0.0055626167239217015 0.4150118700823318
vn -0.9386806760195507 0.0057392026980345855 0.34473997450233407
vn 0.9386806760195507 -0.0057392026980345855 -0.34473997450233407
vn 0.9097989915283204 -0.0055626167239217015 -0.4150118700823318
vn -0.8554640158810235 0.005230406370817431 -0.5178358430834119
vn 0.8554640158810235 -0.005230406370817431 0.5178358430834119
vn 0.9400867081615625 -0.005747799341887078 0.3408869958515319
vn -0.9400867081615625 0.005747799341887078 -0.3408869958515319
vn 0.9622086226536822 -0.005883055296955039 0.27224980468546967
vn -0.9622086226536822 0.005883055296955039 -0.27224980468546967
vn -0.925707012654223 0.00565988021309176 -0.3781990117368998
vn 0.925707012654223 -0.00565988021309176 0.3781990117368998
vn -0.24488240551641013 0.0014972394748772992 0.9695516312927596
vn 0.24488240551641013 -0.0014972394748772992 -0.9695516312927596
vn -0.9508627644107172 0.005813685401629543 -0.30955807907282873
vn 0.9508627644107172 -0.005813685401629543 0.30955807907282873
usemtl material_0_0
f 1//1 2//1 3//1
f 2//1 1//1 4//1
f 3//2 2//2 1//2
f 4//2 1//2 2//2
f 2//3 5//4 3//4
f 3//5 5//5 2//6
f 6//1 1//1 3//1
f 3//2 1//2 6//2
f 7//7 4//8 1//7
f 1//9 4//10 7//9
f 2//1 4//1 8//1
f 8//2 4//2 2//2
f 5//4 2//3 9//3
f 9//6 2//6 5//5
f 10//11 3//4 5//4
f 5//5 3//5 10//12
f 6//1 11//1 1//1
f 1//2 11//2 6//2
f 6//1 3//1 12//1
f 12//2 3//2 6//2
f 4//8 7//7 13//8
f 13//10 7//9 4//10
f 11//13 7//7 1//7
f 1//9 7//9 11//14
f 8//1 4//1 14//1
f 14//2 4//2 8//2
f 8//15 9//3 2//3
f 2//6 9//6 8//16
f 9//2 7//2 5//2
f 5//1 7//1 9//1
f 3//4 10//11 15//11
f 15//12 10//12 3//5
f 5//2 16//2 10//2
f 10//1 16//1 5//1
f 17//1 11//1 6//1
f 6//2 11//2 17//2
f 12//1 3//1 15//1
f 15//2 3//2 12//2
f 12//17 18//18 6//18
f 6//19 18//19 12//20
f 7//2 9//2 13//2
f 13//1 9//1 7//1
f 13//8 19//21 4//8
f 4//10 19//22 13//10
f 7//7 11//13 20//13
f 20//14 11//14 7//9
f 14//1 4//1 19//1
f 19//2 4//2 14//2
f 14//23 21//15 8//15
f 8//16 21//16 14//24
f 9//3 8//15 21//15
f 21//16 8//16 9//6
f 7//2 18//2 5//2
f 5//1 18//1 7//1
f 22//25 15//11 10//11
f 10//12 15//12 22//26
f 5//2 18//2 16//2
f 16//1 18//1 5//1
f 10//2 16//2 22//2
f 22//1 16//1 10//1
f 17//1 23//1 11//1
f 11//2 23//2 17//2
f 6//18 24//27 17//27
f 17//28 24//28 6//19
f 12//1 15//1 25//1
f 25//2 15//2 12//2
f 18//18 12//17 16//17
f 16//20 12//20 18//19
f 24//27 6//18 18//18
f 18//19 6//19 24//28
f 13//2 9//2 21//2
f 21//1 9//1 13//1
f 19//21 13//8 26//21
f 26//22 13//10 19//22
f 23//29 20//13 11//13
f 11//14 20//14 23//30
f 20//2 18//2 7//2
f 7//1 18//1 20//1
f 14//1 19//1 27//1
f 27//2 19//2 14//2
f 21//15 14//23 28//23
f 28//24 14//24 21//16
f 15//11 22//25 25//25
f 25//26 22//26 15//12
f 22//2 16//2 29//2
f 29//1 16//1 22//1
f 30//1 23//1 17//1
f 17//2 23//2 30//2
f 31//31 17//27 24//27
f 24//28 17//28 31//32
f 12//1 25//1 32//1
f 32//2 25//2 12//2
f 12//17 29//33 16//17
f 16//20 29//34 12//20
f 20//2 24//2 18//2
f 18//1 24//1 20//1
f 13//2 21//2 28//2
f 28//1 21//1 13//1
f 13//2 28//2 26//2
f 26//1 28//1 13//1
f 26//21 33//35 19//21
f 19//22 33//36 26//22
f 20//13 23//29 34//29
f 34//30 23//30 20//14
f 27//1 19//1 33//1
f 33//2 19//2 27//2
f 35//37 14//23 27//37
f 27//38 14//24 35//38
f 14//23 35//37 28//23
f 28//24 35//38 14//24
f 36//39 25//25 22//25
f 22//26 25//26 36//40
f 22//2 29//2 36//2
f 36//1 29//1 22//1
f 30//1 37//1 23//1
f 23//2 37//2 30//2
f 17//27 31//31 30//31
f 30//32 31//32 17//28
f 34//2 31//2 24//2
f 24//1 31//1 34//1
f 32//1 25//1 38//1
f 38//2 25//2 32//2
f 29//33 12//17 32//33
f 32//34 12//20 29//34
f 34//2 24//2 20//2
f 20//1 24//1 34//1
f 26//2 28//2 35//2
f 35//1 28//1 26//1
f 33//35 26//21 39//35
f 39//36 26//22 33//36
f 37//41 34//29 23//29
f 23//30 34//30 37//42
f 27//1 33//1 40//1
f 40//2 33//2 27//2
f 27//37 41//43 35//37
f 35//38 41//44 27//38
f 25//25 36//39 38//39
f 38//40 36//40 25//26
f 36//2 29//2 42//2
f 42//1 29//1 36//1
f 30//1 43//1 37//1
f 37//2 43//2 30//2
f 44//45 30//31 31//31
f 31//32 30//32 44//46
f 45//2 31//2 34//2
f 34//1 31//1 45//1
f 32//1 38//1 46//1
f 46//2 38//2 32//2
f 32//33 42//47 29//33
f 29//34 42//48 32//34
f 26//2 35//2 39//2
f 39//1 35//1 26//1
f 39//35 47//49 33//35
f 33//36 47//50 39//36
f 34//29 37//41 45//41
f 45//42 37//42 34//30
f 40//1 33//1 47//1
f 47//2 33//2 40//2
f 41//43 27//37 40//43
f 40//44 27//38 41//44
f 39//2 35//2 41//2
f 41//1 35//1 39//1
f 48//51 38//39 36//39
f 36//40 38//40 48//52
f 36//2 42//2 48//2
f 48//1 42//1 36//1
f 49//1 43//1 30//1
f 30//2 43//2 49//2
f 43//53 45//41 37//41
f 37//42 45//42 43//54
f 30//31 44//45 49//45
f 49//46 44//46 30//32
f 50//2 44//2 31//2
f 31//1 44//1 50//1
f 50//2 31//2 45//2
f 45//1 31//1 50//1
f 46//1 38//1 51//1
f 51//2 38//2 46//2
f 42//47 32//33 46//47
f 46//48 32//34 42//48
f 47//49 39//35 52//49
f 52//50 39//36 47//50
f 40//1 47//1 53//1
f 53//2 47//2 40//2
f 40//43 54//55 41//43
f 41//44 54//56 40//44
f 39//2 41//2 52//2
f 52//1 41//1 39//1
f 38//39 48//51 51//51
f 51//52 48//52 38//40
f 48//2 42//2 55//2
f 55//1 42//1 48//1
f 49//1 56//1 43//1
f 43//2 56//2 49//2
f 45//41 43//53 50//53
f 50//54 43//54 45//42
f 57//57 49//45 44//45
f 44//46 49//46 57//58
f 58//2 44//2 50//2
f 50//1 44//1 58//1
f 46//1 51//1 59//1
f 59//2 51//2 46//2
f 46//47 60//59 42//47
f 42//48 60//60 46//48
f 52//49 61//61 47//49
f 47//50 61//62 52//50
f 53//1 47//1 61//1
f 61//2 47//2 53//2
f 54//55 40//43 53//55
f 53//56 40//44 54//56
f 52//2 41//2 54//2
f 54//1 41//1 52//1
f 48//51 59//63 51//51
f 51//52 59//64 48//52
f 55//2 42//2 60//2
f 60//1 42//1 55//1
f 59//63 48//51 55//63
f 55//64 48//52 59//64
f 56//1 49//1 62//1
f 62//2 49//2 56//2
f 56//65 50//53 43//53
f 43//54 50//54 56//66
f 49//45 57//57 62//57
f 62//58 57//58 49//46
f 44//2 58//2 57//2
f 57//1 58//1 44//1
f 50//53 56//65 58//65
f 58//66 56//66 50//54
f 46//1 59//1 63//1
f 63//2 59//2 46//2
f 60//59 46//47 63//59
f 63//60 46//48 60//60
f 61//61 52//49 64//61
f 64//62 52//50 61//62
f 53//1 61//1 65//1
f 65//2 61//2 53//2
f 53//55 66//67 54//55
f 54//56 66//68 53//56
f 52//2 54//2 64//2
f 64//1 54//1 52//1
f 55//2 60//2 67//2
f 67//1 60//1 55//1
f 55//63 68//69 59//63
f 59//64 68//70 55//64
f 62//57 58//65 56//65
f 56//66 58//66 62//58
f 58//65 62//57 57//57
f 57//58 62//58 58//66
f 63//1 59//1 68//1
f 68//2 59//2 63//2
f 63//59 69//71 60//59
f 60//60 69//72 63//60
f 64//61 70//73 61//61
f 61//62 70//74 64//62
f 65//1 61//1 70//1
f 70//2 61//2 65//2
f 66//67 53//55 65//67
f 65//68 53//56 66//68
f 64//2 54//2 66//2
f 66//1 54//1 64//1
f 67//2 60//2 69//2
f 69//1 60//1 67//1
f 68//69 55//63 67//69
f 67//70 55//64 68//70
f 63//1 68//1 71//1
f 71//2 68//2 63//2
f 69//71 63//59 71//71
f 71//72 63//60 69//72
f 70//73 64//61 72//73
f 72//74 64//62 70//74
f 65//1 70//1 73//1
f 73//2 70//2 65//2
f 65//67 74//75 66//67
f 66//68 74//76 65//68
f 64//2 66//2 72//2
f 72//1 66//1 64//1
f 67//2 69//2 75//2
f 75//1 69//1 67//1
f 67//69 76//77 68//69
f 68//70 76//78 67//70
f 71//1 68//1 76//1
f 76//2 68//2 71//2
f 71//71 77//79 69//71
f 69//72 77//80 71//72
f 72//73 78//81 70//73
f 70//74 78//82 72//74
f 73//1 70//1 78//1
f 78//2 70//2 73//2
f 74//75 65//67 73//75
f 73//76 65//68 74//76
f 72//2 66//2 74//2
f 74//1 66//1 72//1
f 75//2 69//2 77//2
f 77//1 69//1 75//1
f 76//77 67//69 75//77
f 75//78 67//70 76//78
f 71//1 76//1 79//1
f 79//2 76//2 71//2
f 77//79 71//71 79//79
f 79//80 71//72 77//80
f 78//81 72//73 80//81
f 80//82 72//74 78//82
f 73//1 78//1 81//1
f 81//2 78//2 73//2
f 73//75 82//83 74//75
f 74//76 82//84 73//76
f 72//2 74//2 80//2
f 80//1 74//1 72//1
f 75//2 77//2 83//2
f 83//1 77//1 75//1
f 75//77 84//85 76//77
f 76//78 84//86 75//78
f 79//1 76//1 84//1
f 84//2 76//2 79//2
f 79//79 85//87 77//79
f 77//80 85//88 79//80
f 80//81 81//89 78//81
f 78//82 81//90 80//82
f 73//1 81//1 86//1
f 86//2 81//2 73//2
f 82//83 73//75 86//83
f 86//84 73//76 82//84
f 87//2 74//2 82//2
f 82//1 74//1 87//1
f 80//2 74//2 87//2
f 87//1 74//1 80//1
f 83//2 77//2 85//2
f 85//1 77//1 83//1
f 84//85 75//77 83//85
f 83//86 75//78 84//86
f 79//1 84//1 88//1
f 88//2 84//2 79//2
f 85//87 79//79 88//87
f 88//88 79//80 85//88
f 81//89 80//81 87//89
f 87//90 80//82 81//90
f 86//1 81//1 89//1
f 89//2 81//2 86//2
f 86//83 90//91 82//83
f 82//84 90//92 86//84
f 87//2 82//2 91//2
f 91//1 82//1 87//1
f 83//2 85//2 92//2
f 92//1 85//1 83//1
f 83//85 93//93 84//85
f 84//86 93//94 83//86
f 88//1 84//1 93//1
f 93//2 84//2 88//2
f 88//87 94//95 85//87
f 85//88 94//96 88//88
f 87//89 89//97 81//89
f 81//90 89//98 87//90
f 86//1 89//1 95//1
f 95//2 89//2 86//2
f 90//91 86//83 95//91
f 95//92 86//84 90//92
f 91//2 82//2 90//2
f 90//1 82//1 91//1
f 89//97 87//89 91//97
f 91//98 87//90 89//98
f 92//2 85//2 94//2
f 94//1 85//1 92//1
f 93//93 83//85 92//93
f 92//94 83//86 93//94
f 88//1 93//1 96//1
f 96//2 93//2 88//2
f 94//95 88//87 96//95
f 96//96 88//88 94//96
f 95//1 89//1 97//1
f 97//2 89//2 95//2
f 97//99 90//91 95//91
f 95//92 90//92 97//100
f 91//2 90//2 98//2
f 98//1 90//1 91//1
f 91//97 99//101 89//97
f 89//98 99//102 91//98
f 92//2 94//2 100//2
f 100//1 94//1 92//1
f 92//93 101//103 93//93
f 93//94 101//104 92//94
f 96//1 93//1 101//1
f 101//2 93//2 96//2
f 96//95 102//105 94//95
f 94//96 102//106 96//96
f 97//1 89//1 99//1
f 99//2 89//2 97//2
f 90//91 97//99 98//99
f 98//100 97//100 90//92
f 91//2 98//2 103//2
f 103//1 98//1 91//1
f 99//101 91//97 103//101
f 103//102 91//98 99//102
f 100//2 94//2 104//2
f 104//1 94//1 100//1
f 101//103 92//93 100//103
f 100//104 92//94 101//104
f 96//1 101//1 105//1
f 105//2 101//2 96//2
f 102//105 96//95 106//105
f 106//106 96//96 102//106
f 104//2 94//2 102//2
f 102//1 94//1 104//1
f 97//1 99//1 107//1
f 107//2 99//2 97//2
f 107//107 98//99 97//99
f 97//100 98//100 107//108
f 103//2 98//2 108//2
f 108//1 98//1 103//1
f 103//101 109//109 99//101
f 99//102 109//110 103//102
f 105//111 100//103 104//111
f 104//112 100//104 105//112
f 100//103 105//111 101//103
f 101//104 105//112 100//104
f 96//1 105//1 106//1
f 106//2 105//2 96//2
f 106//105 110//113 102//105
f 102//106 110//114 106//106
f 104//2 102//2 111//2
f 111//1 102//1 104//1
f 107//1 99//1 109//1
f 109//2 99//2 107//2
f 98//99 107//107 108//107
f 108//108 107//108 98//100
f 103//2 108//2 112//2
f 112//1 108//1 103//1
f 109//109 103//101 112//109
f 112//110 103//102 109//110
f 111//115 105//111 104//111
f 104//112 105//112 111//116
f 106//1 105//1 113//1
f 113//2 105//2 106//2
f 110//113 106//105 114//113
f 114//114 106//106 110//114
f 111//2 102//2 110//2
f 110//1 102//1 111//1
f 107//1 109//1 115//1
f 115//2 109//2 107//2
f 107//117 116//117 108//117
f 108//118 116//118 107//118
f 112//2 108//2 116//2
f 116//1 108//1 112//1
f 117//119 109//109 112//109
f 112//110 109//110 117//120
f 105//111 111//115 113//115
f 113//116 111//116 105//112
f 106//1 113//1 114//1
f 114//2 113//2 106//2
f 114//113 118//121 110//113
f 110//114 118//122 114//114
f 111//2 110//2 119//2
f 119//1 110//1 111//1
f 115//1 109//1 120//1
f 120//2 109//2 115//2
f 116//117 107//117 115//117
f 115//118 107//118 116//118
f 112//2 116//2 117//2
f 117//1 116//1 112//1
f 109//109 117//119 120//119
f 120//120 117//120 109//110
f 119//123 113//115 111//115
f 111//116 113//116 119//124
f 114//1 113//1 121//1
f 121//2 113//2 114//2
f 118//121 114//113 122//121
f 122//122 114//114 118//122
f 123//2 110//2 118//2
f 118//1 110//1 123//1
f 119//2 110//2 123//2
f 123//1 110//1 119//1
f 115//1 120//1 124//1
f 124//2 120//2 115//2
f 124//125 116//126 115//126
f 115//127 116//127 124//128
f 117//2 116//2 125//2
f 125//1 116//1 117//1
f 125//125 120//119 117//119
f 117//120 120//120 125//128
f 113//115 119//123 121//123
f 121//124 119//124 113//116
f 114//1 121//1 126//1
f 126//2 121//2 114//2
f 114//1 126//1 122//1
f 122//2 126//2 114//2
f 127//129 118//121 122//121
f 122//122 118//122 127//130
f 123//2 118//2 128//2
f 128//1 118//1 123//1
f 123//131 121//123 119//123
f 119//124 121//124 123//132
f 120//119 125//125 124//125
f 124//128 125//128 120//120
f 116//126 124//125 125//125
f 125//128 124//128 116//127
f 121//123 123//131 126//131
f 126//132 123//132 121//124
f 122//1 126//1 129//1
f 129//2 126//2 122//2
f 118//121 127//129 130//129
f 130//130 127//130 118//122
f 122//1 131//1 127//1
f 127//2 131//2 122//2
f 128//2 118//2 132//2
f 132//1 118//1 128//1
f 128//133 126//131 123//131
f 123//132 126//132 128//134
f 126//131 128//133 129//133
f 129//134 128//134 126//132
f 122//1 129//1 131//1
f 131//2 129//2 122//2
f 133//135 130//129 127//129
f 127//130 130//130 133//136
f 132//2 118//2 130//2
f 130//1 118//1 132//1
f 127//1 131//1 133//1
f 133//2 131//2 127//2
f 131//137 128//137 132//137
f 132//138 128//138 131//138
f 128//137 131//137 129//137
f 129//138 131//138 128//138
f 130//129 133//135 134//135
f 134//136 133//136 130//130
f 132//2 130//2 134//2
f 134//1 130//1 132//1
f 131//139 134//135 133//135
f 133//136 134//136 131//140
f 134//135 131//139 132//139
f 132//140 131//140 134//136
