# SSTK version 0.8.0
# 13
mtllib original-13.mtl
o mesh21/mesh21-geometry#mesh21-geometry
v -0.520341 -0.299403 0.390764
v -0.528596 -0.295596 0.390761
v -0.528594 -0.299406 0.390761
v -0.518041 -0.295592 0.390764
v -0.528594 -0.299406 0.389803
v -0.518041 -0.295592 0.389806
v -0.528595 -0.295596 0.389803
v -0.520341 -0.299403 0.389806
vt 0.070275 0.009189
vt 0.065281 0.011494
vt 0.065281 0.009189
vt 0.071667 0.011494
vt -0.011494 0.00058
vt -0.009189 0
vt -0.009189 0.00058
vt 0.065281 0
vt 0.070275 0.00058
vt 0.065281 0.00058
vt 0.044199 0.00058
vt 0.046893 0
vt 0.046893 0.00058
vt -0.071667 0
vt -0.065281 0.00058
vt -0.071667 0.00058
vt -0.011494 0
vt 0.070275 0
vt 0.044199 0
vt -0.065281 0
vt -0.071667 0.011494
vt -0.065281 0.009189
vt -0.065281 0.011494
vt -0.070275 0.009189
vn -0.0003311687948486259 -5.483638561980121e-8 0.9999999451636117
vn 0.0003311687948486259 5.483638561980121e-8 -0.9999999451636117
vn -0.9999998903272174 -0.00033116881300872757 -0.000331168794848624
vn 0.9999998903272174 0.00033116881300872757 0.000331168794848624
vn 0.0003311688130087257 -0.9999999451636057 5.483639705509839e-8
vn -0.0003311688130087257 0.9999999451636057 -5.483639705509839e-8
vn 0.856141333801762 -0.5167416532315465 0.00028349897303670414
vn -0.856141333801762 0.5167416532315465 -0.00028349897303670414
usemtl material_0_0
f 1/1/1 2/2/1 3/3/1
f 2/2/1 1/1/1 4/4/1
f 3/3/2 2/2/2 1/1/2
f 4/4/2 1/1/2 2/2/2
f 2/5/3 5/6/3 3/7/3
f 3/7/4 5/6/4 2/5/4
f 5/8/5 1/9/5 3/10/5
f 3/10/6 1/9/6 5/8/6
f 1/11/7 6/12/7 4/13/7
f 4/13/8 6/12/8 1/11/8
f 6/14/6 2/15/6 4/16/6
f 4/16/5 2/15/5 6/14/5
f 5/6/3 2/5/3 7/17/3
f 7/17/4 2/5/4 5/6/4
f 1/9/5 5/8/5 8/18/5
f 8/18/6 5/8/6 1/9/6
f 6/12/7 1/11/7 8/19/7
f 8/19/8 1/11/8 6/12/8
f 2/15/6 6/14/6 7/20/6
f 7/20/5 6/14/5 2/15/5
f 6/21/2 5/22/2 7/23/2
f 7/23/1 5/22/1 6/21/1
f 5/22/2 6/21/2 8/24/2
f 8/24/1 6/21/1 5/22/1
