# SSTK version 0.8.0
# 34
mtllib original-34.mtl
o _8MDF23_1/_8MDF23/mesh23/mesh23-geometry#mesh23-geometry
v -0.617931 0.177523 0.606533
v 0.598728 0.177523 0.568313
v -0.617931 0.177523 0.568313
v 0.598728 0.177523 0.606533
v -0.617931 -0.586519 0.568313
v 0.598728 -0.586519 0.606533
v 0.598728 -0.586519 0.568313
v -0.617931 -0.586519 0.606533
vt 0.020833 0
vt 0 0.662847
vt 0 0
vt 0.020833 0.662847
vt 0 0.416475
vt -0.662847 0.416475
vt 0.020833 0.416475
vt 0.662847 0
vt 0.662847 0.416475
vt -0.020833 0
vt -0.020833 0.416475
vt -0.662847 0
vt -0.020833 0.662847
vn 0 1 0
vn 0 -1 0
vn 0 0 1
vn -1 0 0
vn 1 0 0
vn 0 0 -1
usemtl material_0_0
f 1/1/1 2/2/1 3/3/1
f 2/2/1 1/1/1 4/4/1
f 3/3/2 2/2/2 1/1/2
f 4/4/2 1/1/2 2/2/2
f 3/5/3 5/3/3 2/6/3
f 5/3/4 1/7/4 3/5/4
f 3/5/5 1/7/5 5/3/5
f 1/5/3 6/8/3 4/9/3
f 4/9/6 6/8/6 1/5/6
f 6/10/5 2/5/5 4/11/5
f 4/11/4 2/5/4 6/10/4
f 7/12/3 2/6/3 5/3/3
f 1/7/4 5/3/4 8/1/4
f 8/1/5 5/3/5 1/7/5
f 6/8/3 1/5/3 8/3/3
f 8/3/6 1/5/6 6/8/6
f 2/5/5 6/10/5 7/3/5
f 7/3/4 6/10/4 2/5/4
f 6/13/2 5/3/2 7/2/2
f 7/2/1 5/3/1 6/13/1
f 5/3/2 6/13/2 8/10/2
f 8/10/1 6/13/1 5/3/1
usemtl material_1_0
f 2//6 5//6 3//6
f 5//6 2//6 7//6
