mtllib new-4.mtl
v -0.235368 -0.361976 -0.180044
v -0.220714 -0.347322 -0.180044
v -0.235368 -0.361976 0.139915
v 0.221822 -0.347322 -0.180044
v -0.220714 -0.361976 -0.180044
v -0.220714 -0.361976 0.139915
v -0.220714 -0.334710 0.139915
v 0.221822 -0.347322 0.139915
v -0.220714 -0.347322 0.139915
v -0.220714 -0.334710 -0.175159
v 0.221822 -0.334710 0.139915
v 0.221822 -0.334710 -0.175159
vn 0.000000 1.000000 0.000000
vn 1.000000 0.000000 0.000000
vn 0.000000 0.000000 -1.000000
vn -1.000000 0.000000 0.000000
vn 0.000000 0.000000 1.000000
vn 0.000000 -1.000000 0.000000
vt -1.492265 -0.001557
vt -1.492265 0.649780
vt -1.264834 0.649780
vt -1.264834 -0.001557
vt -0.649780 -0.001557
vt -0.660196 0.008859
vt -0.660196 -0.001557
vt -1.264834 0.660196
vt 0.660196 -0.001557
vt 0.660196 0.017824
vt 0.974756 0.008859
vt -1.492265 0.974756
vt -1.264834 0.974756
vt -1.264834 0.008859
vt -1.492265 0.660196
vt -1.492265 0.008859
vt 0.660196 0.008859
vt 0.974756 0.017824
vt 8.953588 7.095855
vt 7.609838 4.805980
vt 8.953588 4.805980
vt 7.609838 7.095855
usemtl material-0
f 5/7/3 1/5/3 2/6/3
f 5/8/6 3/2/6 1/3/6
f 8/12/6 2/8/6 4/13/6
f 2/14/2 6/1/2 5/4/2
f 3/2/6 5/8/6 6/15/6
f 2/8/6 8/12/6 9/15/6
f 6/1/2 2/14/2 9/16/2
f 7/10/5 6/9/5 9/17/5
f 11/18/5 9/17/5 8/11/5
f 7/10/5 9/17/5 11/18/5
usemtl material-1
f 2//5 1//5 5//5
f 1//1 3//1 5//1
f 4//1 2//1 8//1
f 5//4 6//4 2//4
f 6//1 5//1 3//1
f 9//1 8//1 2//1
f 9//4 2//4 6//4
f 9//3 6//3 7//3
f 8//3 9//3 11//3
f 11//3 9//3 7//3
f 7//6 10//6 11//6
f 12//6 11//6 10//6
usemtl material-2
f 11/19/1 10/20/1 7/21/1
f 10/20/1 11/19/1 12/22/1