# SSTK version 0.8.0
# 60
mtllib original-60.mtl
o _0_1/_0/mesh60/mesh60-geometry#mesh60-geometry
v 0.620041 -0.099403 0.516508
v 0.620698 -0.107969 0.516508
v 0.620467 -0.113456 0.516508
v 0.621758 -0.098183 0.516508
v 0.620000 -0.127413 0.516508
v 0.621027 -0.105750 0.516508
v 0.618656 -0.101112 0.516508
v 0.620666 -0.118921 0.516508
v 0.621556 -0.103949 0.516508
v 0.618625 -0.125663 0.516508
v 0.621718 -0.128663 0.516508
v 0.622323 -0.102517 0.516508
v 0.617589 -0.103348 0.516508
v 0.620983 -0.121004 0.516508
v 0.623805 -0.097451 0.516508
v 0.617571 -0.123401 0.516508
v 0.621535 -0.122857 0.516508
v 0.623325 -0.101489 0.516508
v 0.616826 -0.106150 0.516508
v 0.622271 -0.124284 0.516508
v 0.624600 -0.100868 0.516508
v 0.616818 -0.120612 0.516508
v 0.623780 -0.129413 0.516508
v 0.626184 -0.097206 0.516508
v 0.616369 -0.109520 0.516508
v 0.623263 -0.125339 0.516508
v 0.626184 -0.100662 0.516508
v 0.616367 -0.117297 0.516508
v 0.624553 -0.125991 0.516508
v 0.628588 -0.097459 0.516508
v 0.616216 -0.113456 0.516508
v 0.626184 -0.129663 0.516508
v 0.627778 -0.100868 0.516508
v 0.626184 -0.126208 0.516508
v 0.629042 -0.101489 0.516508
v 0.627767 -0.126001 0.516508
v 0.630649 -0.098217 0.516508
v 0.628562 -0.129417 0.516508
v 0.630023 -0.102507 0.516508
v 0.629042 -0.125381 0.516508
v 0.630769 -0.103907 0.516508
v 0.630610 -0.128681 0.516508
v 0.632367 -0.099480 0.516508
v 0.630039 -0.124352 0.516508
v 0.631303 -0.105677 0.516508
v 0.630790 -0.122920 0.516508
v 0.631649 -0.107844 0.516508
v 0.632326 -0.127454 0.516508
v 0.631900 -0.113414 0.516508
v 0.631309 -0.121167 0.516508
v 0.631649 -0.119005 0.516508
v 0.633711 -0.125737 0.516508
v 0.633743 -0.101248 0.516508
v 0.634779 -0.123494 0.516508
v 0.634796 -0.103524 0.516508
v 0.635541 -0.120693 0.516508
v 0.635549 -0.106310 0.516508
v 0.635998 -0.117333 0.516508
v 0.636000 -0.109607 0.516508
v 0.636151 -0.113414 0.516508
vn 0 0 -1
vn 0 0 1
usemtl material_0_0
f 1//1 2//1 3//1
f 2//1 1//1 4//1
f 3//2 2//2 1//2
f 4//2 1//2 2//2
f 5//1 1//1 3//1
f 3//2 1//2 5//2
f 2//1 4//1 6//1
f 6//2 4//2 2//2
f 5//1 7//1 1//1
f 1//2 7//2 5//2
f 5//1 3//1 8//1
f 8//2 3//2 5//2
f 6//1 4//1 9//1
f 9//2 4//2 6//2
f 10//1 7//1 5//1
f 5//2 7//2 10//2
f 5//1 8//1 11//1
f 11//2 8//2 5//2
f 9//1 4//1 12//1
f 12//2 4//2 9//2
f 10//1 13//1 7//1
f 7//2 13//2 10//2
f 11//1 8//1 14//1
f 14//2 8//2 11//2
f 12//1 4//1 15//1
f 15//2 4//2 12//2
f 16//1 13//1 10//1
f 10//2 13//2 16//2
f 11//1 14//1 17//1
f 17//2 14//2 11//2
f 12//1 15//1 18//1
f 18//2 15//2 12//2
f 16//1 19//1 13//1
f 13//2 19//2 16//2
f 11//1 17//1 20//1
f 20//2 17//2 11//2
f 18//1 15//1 21//1
f 21//2 15//2 18//2
f 22//1 19//1 16//1
f 16//2 19//2 22//2
f 11//1 20//1 23//1
f 23//2 20//2 11//2
f 21//1 15//1 24//1
f 24//2 15//2 21//2
f 22//1 25//1 19//1
f 19//2 25//2 22//2
f 23//1 20//1 26//1
f 26//2 20//2 23//2
f 21//1 24//1 27//1
f 27//2 24//2 21//2
f 28//1 25//1 22//1
f 22//2 25//2 28//2
f 23//1 26//1 29//1
f 29//2 26//2 23//2
f 27//1 24//1 30//1
f 30//2 24//2 27//2
f 25//1 28//1 31//1
f 31//2 28//2 25//2
f 23//1 29//1 32//1
f 32//2 29//2 23//2
f 27//1 30//1 33//1
f 33//2 30//2 27//2
f 32//1 29//1 34//1
f 34//2 29//2 32//2
f 33//1 30//1 35//1
f 35//2 30//2 33//2
f 32//1 34//1 36//1
f 36//2 34//2 32//2
f 35//1 30//1 37//1
f 37//2 30//2 35//2
f 32//1 36//1 38//1
f 38//2 36//2 32//2
f 35//1 37//1 39//1
f 39//2 37//2 35//2
f 38//1 36//1 40//1
f 40//2 36//2 38//2
f 39//1 37//1 41//1
f 41//2 37//2 39//2
f 38//1 40//1 42//1
f 42//2 40//2 38//2
f 41//1 37//1 43//1
f 43//2 37//2 41//2
f 42//1 40//1 44//1
f 44//2 40//2 42//2
f 41//1 43//1 45//1
f 45//2 43//2 41//2
f 42//1 44//1 46//1
f 46//2 44//2 42//2
f 45//1 43//1 47//1
f 47//2 43//2 45//2
f 42//1 46//1 48//1
f 48//2 46//2 42//2
f 47//1 43//1 49//1
f 49//2 43//2 47//2
f 48//1 46//1 50//1
f 50//2 46//2 48//2
f 49//1 43//1 48//1
f 48//2 43//2 49//2
f 48//1 50//1 51//1
f 51//2 50//2 48//2
f 48//1 43//1 52//1
f 52//2 43//2 48//2
f 48//1 51//1 49//1
f 49//2 51//2 48//2
f 52//1 43//1 53//1
f 53//2 43//2 52//2
f 52//1 53//1 54//1
f 54//2 53//2 52//2
f 54//1 53//1 55//1
f 55//2 53//2 54//2
f 54//1 55//1 56//1
f 56//2 55//2 54//2
f 56//1 55//1 57//1
f 57//2 55//2 56//2
f 56//1 57//1 58//1
f 58//2 57//2 56//2
f 58//1 57//1 59//1
f 59//2 57//2 58//2
f 58//1 59//1 60//1
f 60//2 59//2 58//2
