# SSTK version 0.8.0
# 4
mtllib original-4.mtl
o mesh6/mesh6-geometry#mesh6-geometry
v -0.471574 -0.595342 0.399107
v 0.489892 -0.595342 -0.569090
v 0.489892 -0.595342 0.399107
v -0.471574 -0.595342 -0.569090
v 0.489892 0.735816 0.399107
v 0.403360 -0.526551 0.399107
v -0.471574 0.735816 -0.569090
v 0.489892 0.735816 -0.569090
v 0.441819 -0.490815 0.399107
v 0.413313 -0.525334 0.399107
v -0.385042 -0.526551 0.399107
v -0.471574 0.735816 0.399107
v 0.491815 0.735816 -0.569090
v 0.491815 0.735816 0.399107
v 0.491815 0.753684 0.399107
v 0.440507 -0.500064 0.399107
v 0.441819 0.675959 0.399107
v 0.422589 -0.521763 0.399107
v 0.403360 -0.526551 -0.514286
v -0.394997 -0.525334 0.399107
v -0.385042 -0.526551 -0.514286
v -0.471574 0.512467 0.399107
v -0.471574 0.753684 -0.569090
v 0.491815 0.780486 0.454029
v 0.436665 -0.508683 0.399107
v 0.441819 -0.490815 -0.514286
v 0.440507 0.685208 0.399107
v 0.441819 0.675959 -0.514286
v 0.430554 -0.516084 0.399107
v 0.413313 -0.525334 -0.514286
v -0.404272 -0.521763 0.399107
v -0.394997 -0.525334 -0.514286
v -0.423501 -0.490815 0.399107
v -0.423501 0.684893 0.399107
v -0.471574 0.753684 0.399107
v 0.491815 0.780486 -0.569090
v 0.491815 0.753684 0.454029
v -0.394657 0.711695 0.399107
v 0.440507 -0.500064 -0.514286
v 0.436665 0.693827 0.399107
v 0.440507 0.685208 -0.514286
v 0.422589 -0.521763 -0.514286
v -0.412238 -0.516084 0.399107
v -0.404272 -0.521763 -0.514286
v -0.422191 -0.500064 0.399107
v -0.422518 0.691829 0.399107
v -0.472793 0.753684 0.459116
v -0.471574 0.780486 -0.569090
v 0.491109 0.780486 0.459116
v 0.489236 0.753684 0.458639
v 0.489892 0.753684 0.399107
v 0.489892 0.753684 0.453910
v 0.491109 0.753684 0.459116
v -0.402124 0.710781 0.399107
v 0.403360 0.711695 0.399107
v 0.436665 -0.508683 -0.514286
v -0.422191 -0.500064 -0.514286
v -0.423501 -0.490815 -0.514286
v 0.430554 0.701228 0.399107
v 0.436665 0.693827 -0.514286
v -0.423501 0.684893 -0.514286
v 0.430554 -0.516084 -0.514286
v -0.418349 -0.508683 0.399107
v -0.412238 -0.516084 -0.514286
v -0.419638 0.698294 0.399107
v -0.471574 0.753684 0.453910
v -0.473497 0.753684 -0.569090
v -0.473497 0.753684 0.454029
v -0.473497 0.780486 -0.569090
v 0.488994 0.753684 0.463965
v 0.487315 0.753684 0.463044
v -0.409079 0.708103 0.399107
v -0.394657 0.711695 -0.514286
v 0.413313 0.710476 0.399107
v 0.403360 0.711695 -0.514286
v -0.418349 -0.508683 -0.514286
v 0.422589 0.706907 0.399107
v 0.430554 0.701228 -0.514286
v -0.422518 0.691829 -0.514286
v -0.415053 0.703843 0.399107
v -0.470920 0.753684 0.458639
v -0.473497 0.780486 0.454029
v 0.488994 0.780486 0.463965
v 0.484260 0.753684 0.466827
v -0.402124 0.710781 -0.514286
v 0.413313 0.710476 -0.514286
v -0.419638 0.698294 -0.514286
v -0.470678 0.753684 0.463965
v -0.468999 0.753684 0.463044
v -0.472793 0.780486 0.459116
v 0.485631 0.780486 0.468130
v 0.485631 0.753684 0.468130
v 0.480277 0.753684 0.469730
v -0.409079 0.708103 -0.514286
v 0.422589 0.706907 -0.514286
v -0.415053 0.703843 -0.514286
v -0.465944 0.753684 0.466827
v 0.481247 0.780486 0.471326
v 0.481247 0.753684 0.471326
v 0.475639 0.753684 0.471555
v -0.467315 0.753684 0.468130
v -0.470678 0.780486 0.463965
v -0.461960 0.753684 0.469730
v 0.476141 0.780486 0.473336
v 0.476141 0.753684 0.473336
v 0.470663 0.753684 0.472178
v -0.457323 0.753684 0.471555
v -0.462931 0.780486 0.471326
v -0.462931 0.753684 0.471326
v 0.470788 0.780486 0.474005
v 0.470788 0.753684 0.474005
v -0.452345 0.753684 0.472178
v -0.467315 0.780486 0.468130
v -0.457825 0.780486 0.473336
v -0.457825 0.753684 0.473336
v -0.452472 0.780486 0.474005
v -0.452472 0.753684 0.474005
vt -2.5 2.65
vt 0 0
vt 0 2.65
vt -2.5 0
vt -2.65 3.725
vt -2.65 0
vt -0.225 0.1925
vt 2.65 0
vt 0 3.725
vt 2.5 3.725
vt 2.5 0
vt -0.125 0.2925
vt -0.199118 0.195907
vt -2.275 0.1925
vt 2.65 3.725
vt 0.005 0
vt 0.005 2.65
vt -2.65 3.775
vt -0.128407 0.266618
vt -0.125 3.5575
vt -0.175 0.205897
vt 2.65 -0.171844
vt 0.15 -0.197949
vt 2.65 -0.197949
vt -2.300882 0.195907
vt 0.225 2.65
vt 2.275 0.15
vt 2.275 2.65
vt 2.65 3.1
vt 0 3.775
vt 2.5 3.775
vt 0.005 3.775
vt 0.005 3.725
vt -0.005 3.725
vt -2.800328 3.85
vt -2.5 3.725
vt -0.138397 0.2425
vt 0.15 0.273682
vt 2.65 0.247577
vt 2.65 0.273682
vt -0.128407 3.583382
vt 0.15 3.5575
vt 2.65 0.2925
vt 2.65 3.5575
vt -0.154289 0.221789
vt 2.65 -0.082885
vt 0.15 -0.108991
vt 2.65 -0.108991
vt 0.15 -0.171844
vt 0.225 0.15
vt -2.325 0.205897
vt -2.65 2.280663
vt -0.15 2.306769
vt -2.65 2.306769
vt -0.15 2.280663
vt -2.375 0.2925
vt -2.5 3.1
vt -2.375 3.5825
vt 2.65 3.775
vt -0.005 3.85
vt 0 3.85
vt -2.800328 3.775
vt -2.5 3.775
vt -2.3 3.6575
vt 0.15 0.197184
vt 2.65 0.171078
vt 2.65 0.197184
vt 0.15 0.247577
vt 0.15 0.2925
vt -0.138397 3.6075
vt 0.15 3.569486
vt 2.65 3.543381
vt 2.65 3.569486
vt 0.15 3.543381
vt 2.65 0.012611
vt 0.15 -0.013494
vt 2.65 -0.013494
vt 0.15 -0.082885
vt -2.345711 0.221789
vt -2.65 2.200708
vt -0.15 2.226813
vt -2.65 2.226813
vt -0.15 2.200708
vt -2.371593 0.266618
vt -2.372444 3.601911
vt -2.503168 2.814246
vt 2.5 3.85
vt -0.005 2.800328
vt -0.005 0
vt -2.789756 3.85
vt -2.775718 3.775
vt -2.775718 3.85
vt -0.001704 2.812941
vt 0 2.8
vt 0.003168 2.814246
vt 0.005 2.800328
vt -2.319411 3.654944
vt -0.225 3.6575
vt 0.15 0.108137
vt 2.65 0.082032
vt 2.65 0.108137
vt 0.15 0.171078
vt -0.154289 3.628211
vt 0.15 3.385858
vt 2.65 3.359753
vt 2.65 3.385858
vt 0.15 3.359753
vt 0.15 0.012611
vt -2.361603 0.2425
vt -2.65 1.969889
vt -0.15 1.995994
vt -2.65 1.995994
vt -0.15 1.969889
vt -0.15 0.573892
vt -2.65 0.599997
vt -2.65 0.573892
vt -0.15 0.2925
vt -2.65 3.5825
vt -2.65 0.2925
vt -0.15 3.241852
vt -2.65 3.26143
vt -2.65 3.241852
vt -2.364952 3.62
vt -2.5 2.8
vt -2.505 0
vt -2.505 2.800328
vt 2.800328 3.775
vt 2.505 3.85
vt 2.505 3.775
vt -0.003168 2.814246
vt -2.789756 3.775
vt -0.002331 2.827522
vt -0.006699 2.825
vt -2.3375 3.647452
vt -2.65 -1.822503
vt -0.15 -1.802924
vt -2.65 -1.802924
vt -0.199118 3.654093
vt -2.3 2.65
vt -0.225 0.15
vt -0.225 2.65
vt 0.15 0.082032
vt -0.175 3.644103
vt 0.15 2.972378
vt 2.65 2.946273
vt 2.65 2.972378
vt 0.15 2.946273
vt -0.15 1.603935
vt -2.65 1.630041
vt -2.65 1.603935
vt -0.15 1.127787
vt -2.65 1.153892
vt -2.65 1.127787
vt -0.15 0.599997
vt -0.15 1.153892
vt -0.15 3.5825
vt -0.15 3.26143
vt -0.15 2.419837
vt -2.65 2.439416
vt -2.65 2.419837
vt -2.353033 3.635533
vt -2.498296 2.812941
vt 2.463441 3.775
vt 2.449402 3.85
vt 2.449402 3.775
vt 2.800328 3.85
vt 0.002331 2.827522
vt -2.613181 3.85
vt -2.598812 3.775
vt -2.598812 3.85
vt -2.613181 3.775
vt -0.014645 2.835355
vt -2.65 -0.763749
vt -0.15 -0.74417
vt -2.65 -0.74417
vt -0.15 -1.822503
vt -2.3 0.15
vt 2.65 0.700475
vt 0.15 0.674369
vt 2.65 0.674369
vt 0.15 0.700475
vt 2.65 2.357226
vt 0.15 2.331121
vt 2.65 2.331121
vt -0.15 1.630041
vt -0.15 2.439416
vt -0.15 1.432248
vt -2.65 1.451827
vt -2.65 1.432248
vt -2.497669 2.827522
vt -2.493301 2.825
vt 2.463441 3.85
vt 2.503168 2.814246
vt 2.505 0
vt 2.505 2.800328
vt 0.011079 2.838921
vt -2.259012 3.85
vt -2.244643 3.775
vt -2.244643 3.85
vt -0.011079 2.838921
vt -2.259012 3.775
vt -0.025 2.843301
vt -2.65 0.346386
vt -0.15 0.365965
vt -2.65 0.365965
vt -0.15 -0.763749
vt 2.65 1.582322
vt 0.15 1.556217
vt 2.65 1.556217
vt 0.15 1.582322
vt 0.15 2.357226
vt -0.15 1.451827
vt -2.485355 2.835355
vt 1.656473 3.775
vt 1.642104 3.85
vt 1.642104 3.775
vt 0.022478 2.847669
vt -1.737015 3.85
vt -1.751384 3.775
vt -1.737015 3.775
vt -0.022478 2.847669
vt -0.037059 2.848296
vt -0.15 0.346386
vt -2.488921 2.838921
vt 1.656473 3.85
vt -2.475 2.843301
vt 0.035754 2.853168
vt -1.751384 3.85
vt -0.035754 2.853168
vt -1.110523 3.85
vt -1.124892 3.775
vt -1.110523 3.775
vt -0.05 2.85
vt 0.737108 3.775
vt 0.722739 3.85
vt 0.722739 3.775
vt 2.497669 2.827522
vt -2.462941 2.848296
vt -0.231999 3.85
vt -0.246368 3.775
vt -0.231999 3.775
vt -2.477522 2.847669
vt 0.049672 2.855
vt -1.124892 3.85
vt -0.049672 2.855
vt -0.407861 3.85
vt -0.4219 3.775
vt -0.407861 3.775
vt -2.45 2.85
vt 0.737108 3.85
vt 2.488921 2.838921
vt -1.184807 3.85
vt -1.199176 3.775
vt -1.184807 3.775
vt -2.464246 2.853168
vt -0.246368 3.85
vt -1.199176 3.85
vt 2.450328 2.855
vt -0.4219 3.85
vt -2.450328 2.855
vt -0.049672 3.85
vt -2.450328 3.775
vt -0.049672 3.775
vt 2.477522 2.847669
vt -2.056713 3.85
vt -2.070751 3.775
vt -2.056713 3.775
vt -2.070751 3.85
vt 2.464246 2.853168
vt -2.450328 3.85
vn 0 -1 0
vn 1 0 0
vn 0 0 1
vn -1 0 0
vn 0 0 -1
vn -0.2770750783112644 0.9608482715698701 0
vn -0.14028306225693546 0.990111439406604 0
vn 0 1 0
vn 0.9980670689639418 0 0.06214600429413369
vn -0.9926004796862088 0.12142605868061414 0
vn -0.9703754041473697 0.24160210062379267 0
vn -0.5277621323870364 0.8493922130666658 0
vn 0.14028306225693546 0.990111439406604 0
vn 0.2770750783112644 0.9608482715698701 0
vn -0.8812013280351862 0.47274117598219023 0
vn -0.9703754041473697 -0.24160210062379267 0
vn -0.9926004796862088 -0.12142605868061414 0
vn -0.7325640801058865 0.6806980744343385 0
vn 0.5277621323870364 0.8493922130666658 0
vn 0.9690957352232149 0 0.2466849326006286
vn -0.8812013280351862 -0.47274117598219023 0
vn 0.7325640801058865 0.6806980744343385 0
vn 0.9703754041473697 0.24160210062379267 0
vn 0.9926004796862088 0.12142605868061414 0
vn 0.9926004796862088 -0.12142605868061414 0
vn 0.9703754041473697 -0.24160210062379267 0
vn -0.9980670689639418 0 0.06214600429413369
vn 0.2770750783112644 -0.9608482715698701 0
vn 0.14028306225693546 -0.990111439406604 0
vn -0.7325640801058865 -0.6806980744343385 0
vn 0.8812013280351862 0.47274117598219023 0
vn 0.8812013280351862 -0.47274117598219023 0
vn -0.9690957352232149 0 0.2466849326006286
vn 0.876777073501102 0 0.48089704031408154
vn 0.5277621323870364 -0.8493922130666658 0
vn -0.14028306225693546 -0.990111439406604 0
vn -0.2770750783112644 -0.9608482715698701 0
vn -0.5277621323870364 -0.8493922130666658 0
vn 0.7325640801058865 -0.6806980744343385 0
vn 0.7249994585615777 0 0.6887494356334671
vn -0.876777073501102 0 0.48089704031408154
vn 0.5193491050007143 0 0.8545621727732612
vn 0.27146085381551927 0 0.962449481710988
vn -0.7249994585615777 0 0.6887494356334671
vn -0.5193491050007143 0 0.8545621727732612
vn 0.06882903243138735 0 0.9976284700701754
vn -0.27146085381551927 0 0.962449481710988
vn -0.06882903243138735 0 0.9976284700701754
vn -0.9980670689639418 0 -0.06214600429413369
vn -0.9690957352232149 0 -0.2466849326006286
vn 0.9980670689639418 0 -0.06214600429413369
vn 0.9690957352232149 0 -0.2466849326006286
vn -0.876777073501102 0 -0.48089704031408154
vn -0.7249994585615777 0 -0.6887494356334671
vn 0.876777073501102 0 -0.48089704031408154
vn -0.5193491050007143 0 -0.8545621727732612
vn -0.27146085381551927 0 -0.962449481710988
vn 0.7249994585615777 0 -0.6887494356334671
vn 0.5193491050007143 0 -0.8545621727732612
vn -0.06882903243138735 0 -0.9976284700701754
vn 0.27146085381551927 0 -0.962449481710988
vn 0.06882903243138735 0 -0.9976284700701754
usemtl material_0_0
f 1/1/1 2/2/1 3/3/1
f 2/2/1 1/1/1 4/4/1
f 2/2/2 5/5/2 3/6/2
f 3/2/3 6/7/3 1/4/3
f 1/8/4 7/9/4 4/2/4
f 7/10/5 2/2/5 4/11/5
f 5/5/2 2/2/2 8/9/2
f 9/12/3 3/2/3 5/9/3
f 6/7/3 3/2/3 10/13/3
f 11/14/3 1/4/3 6/7/3
f 7/9/4 1/8/4 12/15/4
f 2/2/5 7/10/5 8/9/5
f 5/3/1 13/16/1 14/17/1
f 13/16/1 5/3/1 8/2/1
f 14/5/2 13/9/2 15/18/2
f 16/19/3 3/2/3 9/12/3
f 9/12/3 5/9/3 17/20/3
f 10/13/3 3/2/3 18/21/3
f 10/22/6 19/23/7 6/24/7
f 20/25/3 1/4/3 11/14/3
f 6/26/8 21/27/8 11/28/8
f 12/15/4 1/8/4 22/29/4
f 12/15/4 23/30/4 7/9/4
f 8/9/5 7/10/5 23/31/5
f 15/32/3 5/9/3 14/33/3
f 8/9/5 23/31/5 13/34/5
f 13/9/2 24/35/9 15/18/2
f 5/9/3 15/32/3 12/36/3
f 25/37/3 3/2/3 16/19/3
f 26/38/10 16/39/11 9/40/10
f 17/20/3 5/9/3 27/41/3
f 28/42/4 9/43/4 17/44/4
f 18/21/3 3/2/3 29/45/3
f 18/46/12 30/47/6 10/48/6
f 19/23/7 10/22/6 30/49/6
f 21/27/8 6/26/8 19/50/8
f 31/51/3 1/4/3 20/25/3
f 11/52/13 32/53/14 20/54/14
f 32/53/14 11/52/13 21/55/13
f 1/4/3 33/56/3 22/57/3
f 22/57/3 34/58/3 12/36/3
f 23/30/4 12/15/4 35/59/4
f 13/34/5 23/31/5 36/60/5
f 24/35/9 13/9/2 36/61/2
f 15/18/2 24/35/9 37/62/9
f 12/36/3 15/32/3 35/63/3
f 12/36/3 38/64/3 5/9/3
f 29/45/3 3/2/3 25/37/3
f 39/65/11 25/66/15 16/67/11
f 16/39/11 26/38/10 39/68/11
f 9/43/4 28/42/4 26/69/4
f 27/41/3 5/9/3 40/70/3
f 41/71/16 17/72/17 27/73/16
f 17/72/17 41/71/16 28/74/17
f 29/75/18 42/76/12 18/77/12
f 30/47/6 18/46/12 42/78/12
f 30/13/3 21/14/3 19/7/3
f 43/79/3 1/4/3 31/51/3
f 20/80/14 44/81/19 31/82/19
f 44/81/19 20/80/14 32/83/14
f 21/14/3 30/13/3 32/25/3
f 33/56/3 1/4/3 45/84/3
f 22/57/3 33/56/3 34/58/3
f 12/36/3 34/58/3 46/85/3
f 35/1/1 47/86/1 23/4/1
f 36/60/5 23/31/5 48/87/5
f 48/11/8 24/88/8 36/89/8
f 49/90/20 37/91/9 24/92/9
f 50/93/1 51/3/1 52/94/1
f 53/95/1 15/17/1 37/96/1
f 51/3/1 53/95/1 52/94/1
f 35/63/3 15/32/3 51/30/3
f 51/3/1 50/93/1 35/1/1
f 12/36/3 54/97/3 38/64/3
f 55/98/3 5/9/3 38/64/3
f 56/99/15 29/100/18 25/101/15
f 25/66/15 39/65/11 56/102/15
f 57/84/3 39/19/3 26/12/3
f 58/56/3 26/12/3 28/20/3
f 40/70/3 5/9/3 59/103/3
f 60/104/21 27/105/16 40/106/21
f 27/105/16 60/104/21 41/107/16
f 61/58/3 28/20/3 41/41/3
f 42/76/12 29/75/18 62/108/18
f 32/25/3 30/13/3 42/21/3
f 63/109/3 1/4/3 43/79/3
f 31/110/19 64/111/22 43/112/22
f 64/111/22 31/110/19 44/113/19
f 32/25/3 42/21/3 44/51/3
f 45/84/3 1/4/3 63/109/3
f 57/114/23 33/115/24 45/116/23
f 58/117/2 34/118/2 33/119/2
f 61/120/25 46/121/26 34/122/25
f 12/36/3 46/85/3 65/123/3
f 66/124/1 47/86/1 35/1/1
f 23/4/1 47/86/1 67/125/1
f 67/125/1 47/86/1 68/126/1
f 68/127/27 69/61/4 67/30/4
f 69/128/5 23/31/5 67/129/5
f 23/31/5 69/128/5 48/87/5
f 24/88/8 48/11/8 49/130/8
f 37/91/9 49/90/20 53/131/20
f 15/17/1 53/95/1 51/3/1
f 70/132/1 52/94/1 53/95/1
f 52/94/1 70/132/1 50/93/1
f 35/1/1 50/93/1 71/133/1
f 12/36/3 72/134/3 54/97/3
f 54/135/28 73/136/29 38/137/29
f 74/138/3 5/9/3 55/98/3
f 38/139/1 75/140/1 55/141/1
f 29/100/18 56/99/15 62/142/18
f 76/109/3 56/37/3 39/19/3
f 76/109/3 39/19/3 57/84/3
f 57/84/3 26/12/3 58/56/3
f 58/56/3 28/20/3 61/58/3
f 59/103/3 5/9/3 77/143/3
f 78/144/30 40/145/21 59/146/30
f 40/145/21 78/144/30 60/147/21
f 79/85/3 41/41/3 60/70/3
f 61/58/3 41/41/3 79/85/3
f 44/51/3 42/21/3 62/45/3
f 64/148/22 63/149/31 43/150/22
f 44/51/3 62/45/3 64/79/3
f 76/151/31 45/152/23 63/153/31
f 33/115/24 57/114/23 58/154/24
f 45/152/23 76/151/31 57/155/23
f 34/118/2 58/117/2 61/156/2
f 46/121/26 61/120/25 79/157/26
f 79/158/26 65/159/32 46/160/26
f 12/36/3 65/123/3 80/161/3
f 81/162/1 47/86/1 66/124/1
f 35/1/1 81/162/1 66/124/1
f 47/163/33 82/164/27 68/165/27
f 69/61/4 68/127/27 82/166/27
f 49/130/8 48/11/8 83/167/8
f 83/168/34 53/169/20 49/170/20
f 53/169/20 83/168/34 70/171/34
f 50/93/1 70/132/1 71/133/1
f 35/1/1 71/133/1 84/172/1
f 12/36/3 80/161/3 72/134/3
f 72/173/35 85/174/28 54/175/28
f 73/136/29 54/135/28 85/176/28
f 75/140/1 38/139/1 73/177/1
f 77/143/3 5/9/3 74/138/3
f 55/178/36 86/179/37 74/180/37
f 86/179/37 55/178/36 75/181/36
f 64/79/3 62/45/3 56/37/3
f 64/79/3 56/37/3 76/109/3
f 77/182/38 78/183/30 59/184/30
f 87/123/3 60/70/3 78/103/3
f 79/85/3 60/70/3 87/123/3
f 63/149/31 64/148/22 76/185/31
f 65/159/32 79/158/26 87/186/32
f 87/187/32 80/188/39 65/189/32
f 81/162/1 88/190/1 47/86/1
f 35/1/1 89/191/1 81/162/1
f 82/164/27 47/163/33 90/192/33
f 90/193/8 69/194/8 82/195/8
f 83/167/8 48/11/8 91/196/8
f 91/197/40 70/198/34 83/199/34
f 71/133/1 70/132/1 92/200/1
f 70/198/34 91/197/40 92/201/40
f 71/133/1 92/200/1 84/172/1
f 35/1/1 84/172/1 93/202/1
f 80/203/39 94/204/35 72/205/35
f 85/174/28 72/173/35 94/206/35
f 85/97/3 75/98/3 73/64/3
f 74/207/37 95/208/38 77/209/38
f 95/208/38 74/207/37 86/210/37
f 85/97/3 86/138/3 75/98/3
f 78/183/30 77/182/38 95/211/38
f 87/123/3 78/103/3 96/161/3
f 80/188/39 87/187/32 96/212/39
f 89/191/1 88/190/1 81/162/1
f 35/1/1 97/213/1 89/191/1
f 88/214/41 90/215/33 47/216/33
f 91/196/8 48/11/8 98/217/8
f 91/218/40 99/219/42 92/220/40
f 84/172/1 92/200/1 99/221/1
f 84/172/1 99/221/1 93/202/1
f 35/1/1 93/202/1 100/222/1
f 94/204/35 80/203/39 96/223/39
f 94/134/3 86/138/3 85/97/3
f 94/134/3 95/143/3 86/138/3
f 96/161/3 78/103/3 95/143/3
f 89/191/1 101/224/1 88/190/1
f 90/215/33 88/214/41 102/225/41
f 35/1/1 103/226/1 97/213/1
f 97/213/1 101/224/1 89/191/1
f 90/193/8 48/11/8 69/194/8
f 98/217/8 48/11/8 104/227/8
f 99/219/42 91/218/40 98/228/42
f 93/202/1 99/221/1 105/229/1
f 98/230/42 105/231/43 99/232/42
f 93/202/1 105/229/1 100/222/1
f 35/1/1 100/222/1 106/233/1
f 96/161/3 95/143/3 94/134/3
f 101/234/44 102/235/41 88/236/41
f 102/237/8 48/11/8 90/193/8
f 35/1/1 107/238/1 103/226/1
f 108/239/45 101/240/44 109/241/45
f 103/226/1 109/242/1 97/213/1
f 97/213/1 109/242/1 101/224/1
f 104/227/8 48/11/8 110/243/8
f 105/231/43 98/230/42 104/244/43
f 100/222/1 105/229/1 111/245/1
f 100/222/1 111/245/1 106/233/1
f 104/246/43 111/247/46 105/248/43
f 35/1/1 106/233/1 112/249/1
f 102/235/41 101/234/44 113/250/44
f 113/251/8 48/11/8 102/237/8
f 35/1/1 112/249/1 107/238/1
f 114/252/47 109/253/45 115/254/47
f 107/238/1 115/255/1 103/226/1
f 103/226/1 115/255/1 109/242/1
f 101/240/44 108/239/45 113/256/44
f 109/253/45 114/252/47 108/257/45
f 110/243/8 48/11/8 116/258/8
f 111/247/46 104/246/43 110/259/46
f 106/233/1 111/245/1 117/260/1
f 106/233/1 117/260/1 112/249/1
f 110/261/46 117/262/48 111/263/46
f 108/264/8 48/11/8 113/251/8
f 116/265/48 115/266/47 117/267/48
f 112/249/1 117/260/1 107/238/1
f 107/238/1 117/260/1 115/255/1
f 115/266/47 116/265/48 114/268/47
f 114/269/8 48/11/8 108/264/8
f 116/258/8 48/11/8 114/269/8
f 117/262/48 110/261/46 116/270/48
usemtl material_1_0
f 3//8 2//8 1//8
f 4//8 1//8 2//8
f 3//4 5//4 2//4
f 1//5 6//5 3//5
f 4//2 7//2 1//2
f 4//3 2//3 7//3
f 8//4 2//4 5//4
f 5//5 3//5 9//5
f 10//5 3//5 6//5
f 6//5 1//5 11//5
f 12//2 1//2 7//2
f 8//3 7//3 2//3
f 14//8 13//8 5//8
f 8//8 5//8 13//8
f 15//4 13//4 14//4
f 9//5 3//5 16//5
f 17//5 5//5 9//5
f 18//5 3//5 10//5
f 6//29 19//29 10//28
f 11//5 1//5 20//5
f 11//1 21//1 6//1
f 22//2 1//2 12//2
f 7//2 23//2 12//2
f 23//3 7//3 8//3
f 14//5 5//5 15//5
f 13//3 23//3 8//3
f 15//4 24//49 13//4
f 12//5 15//5 5//5
f 16//5 3//5 25//5
f 9//25 16//26 26//25
f 27//5 5//5 17//5
f 17//2 9//2 28//2
f 29//5 3//5 18//5
f 10//28 30//28 18//35
f 30//28 10//28 19//29
f 19//1 6//1 21//1
f 20//5 1//5 31//5
f 20//37 32//37 11//36
f 21//36 11//36 32//37
f 22//5 33//5 1//5
f 12//5 34//5 22//5
f 35//2 12//2 23//2
f 36//3 23//3 13//3
f 36//4 13//4 24//49
f 37//49 24//49 15//4
f 35//5 15//5 12//5
f 5//5 38//5 12//5
f 25//5 3//5 29//5
f 16//26 25//32 39//26
f 39//26 26//25 16//26
f 26//2 28//2 9//2
f 40//5 5//5 27//5
f 27//23 17//24 41//23
f 28//24 41//23 17//24
f 18//35 42//35 29//39
f 42//35 18//35 30//28
f 19//5 21//5 30//5
f 31//5 1//5 43//5
f 31//38 44//38 20//37
f 32//37 20//37 44//38
f 32//5 30//5 21//5
f 45//5 1//5 33//5
f 34//5 33//5 22//5
f 46//5 34//5 12//5
f 23//8 47//8 35//8
f 48//3 23//3 36//3
f 36//1 24//1 48//1
f 24//49 37//49 49//50
f 52//8 51//8 50//8
f 37//8 15//8 53//8
f 52//8 53//8 51//8
f 51//5 15//5 35//5
f 35//8 50//8 51//8
f 38//5 54//5 12//5
f 38//5 5//5 55//5
f 25//32 29//39 56//32
f 56//32 39//26 25//32
f 26//5 39//5 57//5
f 28//5 26//5 58//5
f 59//5 5//5 40//5
f 40//31 27//23 60//31
f 41//23 60//31 27//23
f 41//5 28//5 61//5
f 62//39 29//39 42//35
f 42//5 30//5 32//5
f 43//5 1//5 63//5
f 43//30 64//30 31//38
f 44//38 31//38 64//30
f 44//5 42//5 32//5
f 63//5 1//5 45//5
f 45//16 33//17 57//16
f 33//4 34//4 58//4
f 34//10 46//11 61//10
f 65//5 46//5 12//5
f 35//8 47//8 66//8
f 67//8 47//8 23//8
f 68//8 47//8 67//8
f 67//2 69//2 68//51
f 67//3 23//3 69//3
f 48//3 69//3 23//3
f 49//1 48//1 24//1
f 53//50 49//50 37//49
f 51//8 53//8 15//8
f 53//8 52//8 70//8
f 50//8 70//8 52//8
f 71//8 50//8 35//8
f 54//5 72//5 12//5
f 38//7 73//7 54//6
f 55//5 5//5 74//5
f 55//8 75//8 38//8
f 62//39 56//32 29//39
f 39//5 56//5 76//5
f 57//5 39//5 76//5
f 58//5 26//5 57//5
f 61//5 28//5 58//5
f 77//5 5//5 59//5
f 59//22 40//31 78//22
f 60//31 78//22 40//31
f 60//5 41//5 79//5
f 79//5 41//5 61//5
f 62//5 42//5 44//5
f 43//30 63//21 64//30
f 64//5 62//5 44//5
f 63//21 45//16 76//21
f 58//17 57//16 33//17
f 57//16 76//21 45//16
f 61//4 58//4 34//4
f 79//11 61//10 46//11
f 46//11 65//15 79//11
f 80//5 65//5 12//5
f 66//8 47//8 81//8
f 66//8 81//8 35//8
f 68//51 82//51 47//52
f 82//51 68//51 69//2
f 83//1 48//1 49//1
f 49//50 53//50 83//53
f 70//53 83//53 53//50
f 71//8 70//8 50//8
f 84//8 71//8 35//8
f 72//5 80//5 12//5
f 54//6 85//6 72//12
f 85//6 54//6 73//7
f 73//8 38//8 75//8
f 74//5 5//5 77//5
f 74//14 86//14 55//13
f 75//13 55//13 86//14
f 56//5 62//5 64//5
f 76//5 56//5 64//5
f 59//22 78//22 77//19
f 78//5 60//5 87//5
f 87//5 60//5 79//5
f 76//21 64//30 63//21
f 87//15 79//11 65//15
f 65//15 80//18 87//15
f 47//8 88//8 81//8
f 81//8 89//8 35//8
f 90//52 47//52 82//51
f 82//1 69//1 90//1
f 91//1 48//1 83//1
f 83//53 70//53 91//54
f 92//8 70//8 71//8
f 92//54 91//54 70//53
f 84//8 92//8 71//8
f 93//8 84//8 35//8
f 72//12 94//12 80//18
f 94//12 72//12 85//6
f 73//5 75//5 85//5
f 77//19 95//19 74//14
f 86//14 74//14 95//19
f 75//5 86//5 85//5
f 95//19 77//19 78//22
f 96//5 78//5 87//5
f 96//18 87//15 80//18
f 81//8 88//8 89//8
f 47//52 90//52 88//55
f 89//8 97//8 35//8
f 69//1 48//1 90//1
f 98//1 48//1 91//1
f 92//54 99//56 91//54
f 99//8 92//8 84//8
f 93//8 99//8 84//8
f 100//8 93//8 35//8
f 96//18 80//18 94//12
f 85//5 86//5 94//5
f 86//5 95//5 94//5
f 95//5 78//5 96//5
f 88//8 101//8 89//8
f 102//55 88//55 90//52
f 97//8 103//8 35//8
f 89//8 101//8 97//8
f 104//1 48//1 98//1
f 98//56 91//54 99//56
f 105//8 99//8 93//8
f 99//56 105//57 98//56
f 100//8 105//8 93//8
f 106//8 100//8 35//8
f 94//5 95//5 96//5
f 88//55 102//55 101//58
f 90//1 48//1 102//1
f 103//8 107//8 35//8
f 109//59 101//58 108//59
f 97//8 109//8 103//8
f 101//8 109//8 97//8
f 110//1 48//1 104//1
f 104//57 98//56 105//57
f 111//8 105//8 100//8
f 106//8 111//8 100//8
f 105//57 111//60 104//57
f 112//8 106//8 35//8
f 113//58 101//58 102//55
f 102//1 48//1 113//1
f 107//8 112//8 35//8
f 115//61 109//59 114//61
f 103//8 115//8 107//8
f 109//8 115//8 103//8
f 113//58 108//59 101//58
f 108//59 114//61 109//59
f 116//1 48//1 110//1
f 110//60 104//57 111//60
f 117//8 111//8 106//8
f 112//8 117//8 106//8
f 111//60 117//62 110//60
f 113//1 48//1 108//1
f 117//62 115//61 116//62
f 107//8 117//8 112//8
f 115//8 117//8 107//8
f 114//61 116//62 115//61
f 108//1 48//1 114//1
f 114//1 48//1 116//1
f 116//62 110//60 117//62
