# SSTK version 0.8.0
# 102
mtllib original-102.mtl
o mesh224/mesh224-geometry#mesh224-geometry
v -0.730356 -0.494500 0.018145
v -0.714553 -0.494500 0.011874
v -0.714553 -0.494500 0.009468
v -0.728058 -0.494500 0.019014
v -0.714553 -0.497043 0.009468
v -0.730356 -0.494500 0.019899
v -0.728058 -0.497043 0.019014
v -0.714553 -0.497043 0.011874
v -0.730356 -0.497043 0.018145
v -0.714553 -0.494500 0.028545
v -0.730356 -0.497043 0.019899
v -0.714553 -0.497043 0.026155
v -0.714553 -0.494500 0.026155
v -0.714553 -0.497043 0.028545
vn 0 1 0
vn 0 -1 0
vn 1 0 0
vn -1 0 0
vn -0.48132389800146025 0 -0.8765428142496405
vn 0.48132389800146025 0 0.8765428142496405
vn 0.467420936321848 0 0.8840348795652845
vn -0.467420936321848 0 -0.8840348795652845
vn 0.467420936321848 0 -0.8840348795652845
vn -0.467420936321848 0 0.8840348795652845
vn -0.47999901479308993 0 0.8772690270365546
vn 0.47999901479308993 0 -0.8772690270365546
usemtl material_0_0
f 1//1 2//1 3//1
f 2//1 1//1 4//1
f 3//2 2//2 1//2
f 4//2 1//2 2//2
f 2//3 5//3 3//3
f 3//4 5//4 2//4
f 5//5 1//5 3//5
f 3//6 1//6 5//6
f 6//1 4//1 1//1
f 1//2 4//2 6//2
f 7//7 2//7 4//7
f 4//8 2//8 7//8
f 5//3 2//3 8//3
f 8//4 2//4 5//4
f 1//5 5//5 9//5
f 9//6 5//6 1//6
f 10//1 4//1 6//1
f 6//2 4//2 10//2
f 1//4 11//4 6//4
f 6//3 11//3 1//3
f 2//7 7//7 8//7
f 8//8 7//8 2//8
f 4//9 12//9 7//9
f 7//10 12//10 4//10
f 7//2 5//2 8//2
f 8//1 5//1 7//1
f 5//2 7//2 9//2
f 9//1 7//1 5//1
f 11//4 1//4 9//4
f 9//3 1//3 11//3
f 4//1 10//1 13//1
f 13//2 10//2 4//2
f 11//11 10//11 6//11
f 6//12 10//12 11//12
f 12//9 4//9 13//9
f 13//10 4//10 12//10
f 12//2 11//2 7//2
f 7//1 11//1 12//1
f 9//2 7//2 11//2
f 11//1 7//1 9//1
f 10//3 12//3 13//3
f 13//4 12//4 10//4
f 10//11 11//11 14//11
f 14//12 11//12 10//12
f 11//2 12//2 14//2
f 14//1 12//1 11//1
f 12//3 10//3 14//3
f 14//4 10//4 12//4
