# SSTK version 0.8.0
# 110
mtllib original-110.mtl
o mesh235/mesh235-geometry/material_0/component_5#mesh235-geometry
v -0.669866 0.082319 -0.162581
v -0.668843 0.074550 -0.154636
v -0.669866 0.082319 -0.154636
v -0.668843 0.074550 -0.162581
v -0.665844 0.067311 -0.154636
v -0.668843 0.074550 -0.154636
v -0.668843 0.090088 -0.162581
v -0.669866 0.082319 -0.154636
v -0.668843 0.090088 -0.154636
v -0.668843 0.074550 -0.154636
v -0.669866 0.082319 -0.162581
v -0.668843 0.074550 -0.162581
v -0.669866 0.082319 -0.154636
v -0.668843 0.090088 -0.162581
v -0.669866 0.082319 -0.162581
v -0.665844 0.067311 -0.154636
v -0.668843 0.074550 -0.162581
v -0.665844 0.067311 -0.162581
v -0.665844 0.067311 -0.162581
v -0.661074 0.061094 -0.154636
v -0.665844 0.067311 -0.154636
v -0.665844 0.097328 -0.162581
v -0.668843 0.090088 -0.154636
v -0.665844 0.097328 -0.154636
v -0.668843 0.090088 -0.154636
v -0.665844 0.097328 -0.162581
v -0.668843 0.090088 -0.162581
v -0.610854 0.074550 -0.162581
v -0.668843 0.074550 -0.162581
v -0.669866 0.082319 -0.162581
v -0.609832 0.082319 -0.162581
v -0.669866 0.082319 -0.162581
v -0.668843 0.090088 -0.162581
v -0.613853 0.067311 -0.162581
v -0.665844 0.067311 -0.162581
v -0.668843 0.074550 -0.162581
v -0.661074 0.061094 -0.154636
v -0.665844 0.067311 -0.162581
v -0.661074 0.061094 -0.162581
v -0.661074 0.061094 -0.154636
v -0.654857 0.056324 -0.162581
v -0.654857 0.056324 -0.154636
v -0.661074 0.103545 -0.162581
v -0.665844 0.097328 -0.154636
v -0.661074 0.103545 -0.154636
v -0.665844 0.097328 -0.154636
v -0.661074 0.103545 -0.162581
v -0.665844 0.097328 -0.162581
v -0.610854 0.090088 -0.162581
v -0.668843 0.090088 -0.162581
v -0.665844 0.097328 -0.162581
v -0.613853 0.067311 -0.162581
v -0.668843 0.074550 -0.162581
v -0.610854 0.074550 -0.162581
v -0.610854 0.074550 -0.162581
v -0.669866 0.082319 -0.162581
v -0.609832 0.082319 -0.162581
v -0.609832 0.082319 -0.162581
v -0.668843 0.090088 -0.162581
v -0.610854 0.090088 -0.162581
v -0.618623 0.061094 -0.162581
v -0.665844 0.067311 -0.162581
v -0.613853 0.067311 -0.162581
v -0.618623 0.061094 -0.162581
v -0.661074 0.061094 -0.162581
v -0.665844 0.067311 -0.162581
v -0.654857 0.056324 -0.162581
v -0.661074 0.061094 -0.154636
v -0.661074 0.061094 -0.162581
v -0.647618 0.053325 -0.162581
v -0.654857 0.056324 -0.154636
v -0.654857 0.056324 -0.162581
v -0.654857 0.056324 -0.154636
v -0.647618 0.053325 -0.162581
v -0.647618 0.053325 -0.154636
v -0.613853 0.067311 -0.162581
v -0.610854 0.074550 -0.154636
v -0.613853 0.067311 -0.154636
v -0.618623 0.061094 -0.162581
v -0.613853 0.067311 -0.154636
v -0.618623 0.061094 -0.154636
v -0.654857 0.108315 -0.154636
v -0.661074 0.103545 -0.162581
v -0.661074 0.103545 -0.154636
v -0.613853 0.097328 -0.162581
v -0.665844 0.097328 -0.162581
v -0.661074 0.103545 -0.162581
v -0.610854 0.090088 -0.162581
v -0.665844 0.097328 -0.162581
v -0.613853 0.097328 -0.162581
v -0.610854 0.074550 -0.154636
v -0.613853 0.067311 -0.162581
v -0.610854 0.074550 -0.162581
v -0.609832 0.082319 -0.154636
v -0.610854 0.074550 -0.162581
v -0.609832 0.082319 -0.162581
v -0.610854 0.090088 -0.154636
v -0.609832 0.082319 -0.162581
v -0.610854 0.090088 -0.162581
v -0.613853 0.067311 -0.154636
v -0.618623 0.061094 -0.162581
v -0.613853 0.067311 -0.162581
v -0.624840 0.056324 -0.162581
v -0.661074 0.061094 -0.162581
v -0.618623 0.061094 -0.162581
v -0.624840 0.056324 -0.162581
v -0.654857 0.056324 -0.162581
v -0.661074 0.061094 -0.162581
v -0.632080 0.053325 -0.162581
v -0.647618 0.053325 -0.162581
v -0.654857 0.056324 -0.162581
v -0.639849 0.052302 -0.162581
v -0.647618 0.053325 -0.154636
v -0.647618 0.053325 -0.162581
v -0.647618 0.053325 -0.154636
v -0.639849 0.052302 -0.162581
v -0.639849 0.052302 -0.154636
v -0.624840 0.056324 -0.154636
v -0.618623 0.061094 -0.162581
v -0.618623 0.061094 -0.154636
v -0.647618 0.111314 -0.154636
v -0.654857 0.108315 -0.162581
v -0.654857 0.108315 -0.154636
v -0.661074 0.103545 -0.162581
v -0.654857 0.108315 -0.154636
v -0.654857 0.108315 -0.162581
v -0.613853 0.097328 -0.162581
v -0.661074 0.103545 -0.162581
v -0.618623 0.103545 -0.162581
v -0.613853 0.097328 -0.154636
v -0.610854 0.090088 -0.162581
v -0.613853 0.097328 -0.162581
v -0.610854 0.074550 -0.162581
v -0.609832 0.082319 -0.154636
v -0.610854 0.074550 -0.154636
v -0.609832 0.082319 -0.162581
v -0.610854 0.090088 -0.154636
v -0.609832 0.082319 -0.154636
v -0.610854 0.090088 -0.162581
v -0.613853 0.097328 -0.154636
v -0.610854 0.090088 -0.154636
v -0.618623 0.061094 -0.162581
v -0.624840 0.056324 -0.154636
v -0.624840 0.056324 -0.162581
v -0.632080 0.053325 -0.162581
v -0.654857 0.056324 -0.162581
v -0.624840 0.056324 -0.162581
v -0.647618 0.053325 -0.162581
v -0.632080 0.053325 -0.162581
v -0.639849 0.052302 -0.162581
v -0.632080 0.053325 -0.162581
v -0.639849 0.052302 -0.154636
v -0.639849 0.052302 -0.162581
v -0.639849 0.052302 -0.154636
v -0.632080 0.053325 -0.162581
v -0.632080 0.053325 -0.154636
v -0.632080 0.053325 -0.154636
v -0.624840 0.056324 -0.162581
v -0.624840 0.056324 -0.154636
v -0.639849 0.112336 -0.154636
v -0.647618 0.111314 -0.162581
v -0.647618 0.111314 -0.154636
v -0.654857 0.108315 -0.162581
v -0.647618 0.111314 -0.154636
v -0.647618 0.111314 -0.162581
v -0.618623 0.103545 -0.162581
v -0.661074 0.103545 -0.162581
v -0.654857 0.108315 -0.162581
v -0.618623 0.103545 -0.154636
v -0.613853 0.097328 -0.162581
v -0.618623 0.103545 -0.162581
v -0.613853 0.097328 -0.162581
v -0.618623 0.103545 -0.154636
v -0.613853 0.097328 -0.154636
v -0.624840 0.056324 -0.162581
v -0.632080 0.053325 -0.154636
v -0.632080 0.053325 -0.162581
v -0.632080 0.111314 -0.154636
v -0.639849 0.112336 -0.162581
v -0.639849 0.112336 -0.154636
v -0.647618 0.111314 -0.162581
v -0.639849 0.112336 -0.154636
v -0.639849 0.112336 -0.162581
v -0.624840 0.108315 -0.162581
v -0.654857 0.108315 -0.162581
v -0.647618 0.111314 -0.162581
v -0.618623 0.103545 -0.162581
v -0.654857 0.108315 -0.162581
v -0.624840 0.108315 -0.162581
v -0.624840 0.108315 -0.162581
v -0.618623 0.103545 -0.154636
v -0.618623 0.103545 -0.162581
v -0.624840 0.108315 -0.154636
v -0.632080 0.111314 -0.162581
v -0.632080 0.111314 -0.154636
v -0.639849 0.112336 -0.162581
v -0.632080 0.111314 -0.154636
v -0.632080 0.111314 -0.162581
v -0.632080 0.111314 -0.162581
v -0.647618 0.111314 -0.162581
v -0.639849 0.112336 -0.162581
v -0.624840 0.108315 -0.162581
v -0.647618 0.111314 -0.162581
v -0.632080 0.111314 -0.162581
v -0.618623 0.103545 -0.154636
v -0.624840 0.108315 -0.162581
v -0.624840 0.108315 -0.154636
v -0.632080 0.111314 -0.162581
v -0.624840 0.108315 -0.154636
v -0.624840 0.108315 -0.162581
v -0.669866 0.082319 -0.154636
v -0.668843 0.074550 -0.154636
v -0.669866 0.082319 -0.162581
v -0.668843 0.074550 -0.154636
v -0.665844 0.067311 -0.154636
v -0.668843 0.074550 -0.162581
v -0.668843 0.090088 -0.154636
v -0.669866 0.082319 -0.154636
v -0.668843 0.090088 -0.162581
v -0.668843 0.074550 -0.162581
v -0.669866 0.082319 -0.162581
v -0.668843 0.074550 -0.154636
v -0.669866 0.082319 -0.162581
v -0.668843 0.090088 -0.162581
v -0.669866 0.082319 -0.154636
v -0.665844 0.067311 -0.162581
v -0.668843 0.074550 -0.162581
v -0.665844 0.067311 -0.154636
v -0.665844 0.067311 -0.154636
v -0.661074 0.061094 -0.154636
v -0.665844 0.067311 -0.162581
v -0.665844 0.097328 -0.154636
v -0.668843 0.090088 -0.154636
v -0.665844 0.097328 -0.162581
v -0.668843 0.090088 -0.162581
v -0.665844 0.097328 -0.162581
v -0.668843 0.090088 -0.154636
v -0.669866 0.082319 -0.162581
v -0.668843 0.074550 -0.162581
v -0.610854 0.074550 -0.162581
v -0.668843 0.090088 -0.162581
v -0.669866 0.082319 -0.162581
v -0.609832 0.082319 -0.162581
v -0.668843 0.074550 -0.162581
v -0.665844 0.067311 -0.162581
v -0.613853 0.067311 -0.162581
v -0.661074 0.061094 -0.162581
v -0.665844 0.067311 -0.162581
v -0.661074 0.061094 -0.154636
v -0.654857 0.056324 -0.154636
v -0.654857 0.056324 -0.162581
v -0.661074 0.061094 -0.154636
v -0.661074 0.103545 -0.154636
v -0.665844 0.097328 -0.154636
v -0.661074 0.103545 -0.162581
v -0.665844 0.097328 -0.162581
v -0.661074 0.103545 -0.162581
v -0.665844 0.097328 -0.154636
v -0.665844 0.097328 -0.162581
v -0.668843 0.090088 -0.162581
v -0.610854 0.090088 -0.162581
v -0.610854 0.074550 -0.162581
v -0.668843 0.074550 -0.162581
v -0.613853 0.067311 -0.162581
v -0.609832 0.082319 -0.162581
v -0.669866 0.082319 -0.162581
v -0.610854 0.074550 -0.162581
v -0.610854 0.090088 -0.162581
v -0.668843 0.090088 -0.162581
v -0.609832 0.082319 -0.162581
v -0.613853 0.067311 -0.162581
v -0.665844 0.067311 -0.162581
v -0.618623 0.061094 -0.162581
v -0.665844 0.067311 -0.162581
v -0.661074 0.061094 -0.162581
v -0.618623 0.061094 -0.162581
v -0.661074 0.061094 -0.162581
v -0.661074 0.061094 -0.154636
v -0.654857 0.056324 -0.162581
v -0.654857 0.056324 -0.162581
v -0.654857 0.056324 -0.154636
v -0.647618 0.053325 -0.162581
v -0.647618 0.053325 -0.154636
v -0.647618 0.053325 -0.162581
v -0.654857 0.056324 -0.154636
v -0.613853 0.067311 -0.154636
v -0.610854 0.074550 -0.154636
v -0.613853 0.067311 -0.162581
v -0.618623 0.061094 -0.154636
v -0.613853 0.067311 -0.154636
v -0.618623 0.061094 -0.162581
v -0.661074 0.103545 -0.154636
v -0.661074 0.103545 -0.162581
v -0.654857 0.108315 -0.154636
v -0.661074 0.103545 -0.162581
v -0.665844 0.097328 -0.162581
v -0.613853 0.097328 -0.162581
v -0.613853 0.097328 -0.162581
v -0.665844 0.097328 -0.162581
v -0.610854 0.090088 -0.162581
v -0.610854 0.074550 -0.162581
v -0.613853 0.067311 -0.162581
v -0.610854 0.074550 -0.154636
v -0.609832 0.082319 -0.162581
v -0.610854 0.074550 -0.162581
v -0.609832 0.082319 -0.154636
v -0.610854 0.090088 -0.162581
v -0.609832 0.082319 -0.162581
v -0.610854 0.090088 -0.154636
v -0.613853 0.067311 -0.162581
v -0.618623 0.061094 -0.162581
v -0.613853 0.067311 -0.154636
v -0.618623 0.061094 -0.162581
v -0.661074 0.061094 -0.162581
v -0.624840 0.056324 -0.162581
v -0.661074 0.061094 -0.162581
v -0.654857 0.056324 -0.162581
v -0.624840 0.056324 -0.162581
v -0.654857 0.056324 -0.162581
v -0.647618 0.053325 -0.162581
v -0.632080 0.053325 -0.162581
v -0.647618 0.053325 -0.162581
v -0.647618 0.053325 -0.154636
v -0.639849 0.052302 -0.162581
v -0.639849 0.052302 -0.154636
v -0.639849 0.052302 -0.162581
v -0.647618 0.053325 -0.154636
v -0.618623 0.061094 -0.154636
v -0.618623 0.061094 -0.162581
v -0.624840 0.056324 -0.154636
v -0.654857 0.108315 -0.154636
v -0.654857 0.108315 -0.162581
v -0.647618 0.111314 -0.154636
v -0.654857 0.108315 -0.162581
v -0.654857 0.108315 -0.154636
v -0.661074 0.103545 -0.162581
v -0.618623 0.103545 -0.162581
v -0.661074 0.103545 -0.162581
v -0.613853 0.097328 -0.162581
v -0.613853 0.097328 -0.162581
v -0.610854 0.090088 -0.162581
v -0.613853 0.097328 -0.154636
v -0.610854 0.074550 -0.154636
v -0.609832 0.082319 -0.154636
v -0.610854 0.074550 -0.162581
v -0.609832 0.082319 -0.154636
v -0.610854 0.090088 -0.154636
v -0.609832 0.082319 -0.162581
v -0.610854 0.090088 -0.154636
v -0.613853 0.097328 -0.154636
v -0.610854 0.090088 -0.162581
v -0.624840 0.056324 -0.162581
v -0.624840 0.056324 -0.154636
v -0.618623 0.061094 -0.162581
v -0.624840 0.056324 -0.162581
v -0.654857 0.056324 -0.162581
v -0.632080 0.053325 -0.162581
v -0.639849 0.052302 -0.162581
v -0.632080 0.053325 -0.162581
v -0.647618 0.053325 -0.162581
v -0.639849 0.052302 -0.162581
v -0.639849 0.052302 -0.154636
v -0.632080 0.053325 -0.162581
v -0.632080 0.053325 -0.154636
v -0.632080 0.053325 -0.162581
v -0.639849 0.052302 -0.154636
v -0.624840 0.056324 -0.154636
v -0.624840 0.056324 -0.162581
v -0.632080 0.053325 -0.154636
v -0.647618 0.111314 -0.154636
v -0.647618 0.111314 -0.162581
v -0.639849 0.112336 -0.154636
v -0.647618 0.111314 -0.162581
v -0.647618 0.111314 -0.154636
v -0.654857 0.108315 -0.162581
v -0.654857 0.108315 -0.162581
v -0.661074 0.103545 -0.162581
v -0.618623 0.103545 -0.162581
v -0.618623 0.103545 -0.162581
v -0.613853 0.097328 -0.162581
v -0.618623 0.103545 -0.154636
v -0.613853 0.097328 -0.154636
v -0.618623 0.103545 -0.154636
v -0.613853 0.097328 -0.162581
v -0.632080 0.053325 -0.162581
v -0.632080 0.053325 -0.154636
v -0.624840 0.056324 -0.162581
v -0.639849 0.112336 -0.154636
v -0.639849 0.112336 -0.162581
v -0.632080 0.111314 -0.154636
v -0.639849 0.112336 -0.162581
v -0.639849 0.112336 -0.154636
v -0.647618 0.111314 -0.162581
v -0.647618 0.111314 -0.162581
v -0.654857 0.108315 -0.162581
v -0.624840 0.108315 -0.162581
v -0.624840 0.108315 -0.162581
v -0.654857 0.108315 -0.162581
v -0.618623 0.103545 -0.162581
v -0.618623 0.103545 -0.162581
v -0.618623 0.103545 -0.154636
v -0.624840 0.108315 -0.162581
v -0.632080 0.111314 -0.154636
v -0.632080 0.111314 -0.162581
v -0.624840 0.108315 -0.154636
v -0.632080 0.111314 -0.162581
v -0.632080 0.111314 -0.154636
v -0.639849 0.112336 -0.162581
v -0.639849 0.112336 -0.162581
v -0.647618 0.111314 -0.162581
v -0.632080 0.111314 -0.162581
v -0.632080 0.111314 -0.162581
v -0.647618 0.111314 -0.162581
v -0.624840 0.108315 -0.162581
v -0.624840 0.108315 -0.154636
v -0.624840 0.108315 -0.162581
v -0.618623 0.103545 -0.154636
v -0.624840 0.108315 -0.162581
v -0.624840 0.108315 -0.154636
v -0.632080 0.111314 -0.162581
vt 0.16483700275421143 0
vt 0.1545339971780777 -0.010417000390589237
vt 0.16483700275421143 -0.010417000390589237
vt 0.1545339971780777 0
vt 0.14423200488090515 -0.010417000390589237
vt 0.17513899505138397 0
vt 0.17513899505138397 -0.010417000390589237
vt 0.14423200488090515 0
vt 0.1339299976825714 -0.010417000390589237
vt 0.1854410022497177 0
vt 0.1854410022497177 -0.010417000390589237
vt -0.6994969844818115 0.7460129857063293
vt -0.6234750151634216 0.7460129857063293
vt -0.6221339702606201 0.756197988986969
vt -0.700838029384613 0.756197988986969
vt -0.6234750151634216 0.7663829922676086
vt -0.6955659985542297 0.7365220189094543
vt -0.6274060010910034 0.7365220189094543
vt 0.1339299976825714 0
vt 0.12362699955701828 0
vt 0.12362699955701828 -0.010417000390589237
vt 0.19574399292469025 0
vt 0.19574399292469025 -0.010417000390589237
vt -0.6994969844818115 0.7663829922676086
vt -0.6274060010910034 0.7758740186691284
vt -0.6893119812011719 0.7283719778060913
vt -0.6336600184440613 0.7283719778060913
vt 0.11332499980926514 0
vt 0.11332499980926514 -0.010417000390589237
vt 0.061813998967409134 0
vt 0.051511000841856 -0.010417000390589237
vt 0.061813998967409134 -0.010417000390589237
vt 0.07211600244045258 0
vt 0.07211600244045258 -0.010417000390589237
vt 0.206046000123024 -0.010417000390589237
vt -0.6955659985542297 0.7758740186691284
vt -0.6336600184440613 0.7840240001678467
vt 0.051511000841856 0
vt 0.04120900109410286 -0.010417000390589237
vt 0.04120900109410286 0
vt 0.030906999483704567 -0.010417000390589237
vt 0.030906999483704567 0
vt -0.6811619997024536 0.7221189737319946
vt -0.6418099999427795 0.7221189737319946
vt -0.6716709733009338 0.7181869745254517
vt -0.6513010263442993 0.7181869745254517
vt 0.103023000061512 0
vt 0.103023000061512 -0.010417000390589237
vt 0.08241800218820572 -0.010417000390589237
vt 0.21634800732135773 -0.010417000390589237
vt 0.206046000123024 0
vt -0.6893119812011719 0.7840240001678467
vt 0.020604999735951424 -0.010417000390589237
vt 0.020604999735951424 0
vt 0.08241800218820572 0
vt -0.661486029624939 0.7168459892272949
vt 0.09272100031375885 0
vt 0.09272100031375885 -0.010417000390589237
vt 0.22664999961853027 -0.010417000390589237
vt 0.21634800732135773 0
vt -0.6418099999427795 0.7902780175209045
vt 0.010301999747753143 -0.010417000390589237
vt 0.010301999747753143 0
vt 0.236953005194664 -0.010417000390589237
vt 0.22664999961853027 0
vt -0.6811619997024536 0.7902780175209045
vt -0.6513010263442993 0.7942090034484863
vt 0 0
vt 0.24725499749183655 -0.010417000390589237
vt 0.236953005194664 0
vt -0.6716709733009338 0.7942090034484863
vt -0.661486029624939 0.7955499887466431
vt 0 -0.010417000390589237
vt 0.24725499749183655 0
vn -1 0 0
vn -0.9659258451755842 -0.25881897461707376 0
vn -0.8660252955903434 -0.5000001873976233 0
vn -0.9659258451755842 0.25881897461707376 0
vn -0.7071067811865476 -0.7071067811865476 0
vn -0.8660252955903434 0.5000001873976233 0
vn 0 0 -1
vn -0.5000001873976233 -0.8660252955903434 0
vn -0.7071067811865476 0.7071067811865476 0
vn -0.25881897461707376 -0.9659258451755842 0
vn 0.8660252955903434 -0.5000001873976233 0
vn 0.9659258451755842 -0.25881897461707376 0
vn 0.7071067811865476 -0.7071067811865476 0
vn -0.5000001873976233 0.8660252955903434 0
vn 1 0 0
vn 0.9659258451755842 0.25881897461707376 0
vn 0 -1 0
vn 0.5000001873976233 -0.8660252955903434 0
vn -0.25881897461707376 0.9659258451755842 0
vn 0.8660252955903434 0.5000001873976233 0
vn 0.25881897461707376 -0.9659258451755842 0
vn 0 1 0
vn 0.7071067811865476 0.7071067811865476 0
vn 0.25881897461707376 0.9659258451755842 0
vn 0.5000001873976233 0.8660252955903434 0
vn 0 0 1
usemtl material_0_0
f 1/1/1 2/2/2 3/3/1
f 4/4/2 5/5/3 6/2/2
f 7/6/4 8/3/1 9/7/4
f 10/2/2 11/1/1 12/4/2
f 13/3/1 14/6/4 15/1/1
f 16/5/3 17/4/2 18/8/3
f 19/8/3 20/9/5 21/5/3
f 22/10/6 23/7/4 24/11/6
f 25/7/4 26/10/6 27/6/4
f 28/12/7 29/13/7 30/14/7
f 31/15/7 32/14/7 33/16/7
f 34/17/7 35/18/7 36/13/7
f 37/9/5 38/8/3 39/19/5
f 40/9/5 41/20/8 42/21/8
f 43/22/9 44/11/6 45/23/9
f 46/11/6 47/22/9 48/10/6
f 49/24/7 50/16/7 51/25/7
f 52/17/7 53/13/7 54/12/7
f 55/12/7 56/14/7 57/15/7
f 58/15/7 59/16/7 60/24/7
f 61/26/7 62/18/7 63/17/7
f 64/26/7 65/27/7 66/18/7
f 67/20/8 68/9/5 69/19/5
f 70/28/10 71/21/8 72/20/8
f 73/21/8 74/28/10 75/29/10
f 76/30/11 77/31/12 78/32/11
f 79/33/13 80/32/11 81/34/13
f 82/35/14 83/22/9 84/23/9
f 85/36/7 86/25/7 87/37/7
f 88/24/7 89/25/7 90/36/7
f 91/31/12 92/30/11 93/38/12
f 94/39/15 95/38/12 96/40/15
f 97/41/16 98/40/15 99/42/16
f 100/32/11 101/33/13 102/30/11
f 103/43/7 104/27/7 105/26/7
f 106/43/7 107/44/7 108/27/7
f 109/45/7 110/46/7 111/44/7
f 112/47/17 113/29/10 114/28/10
f 115/29/10 116/47/17 117/48/17
f 118/49/18 119/33/13 120/34/13
f 121/50/19 122/51/14 123/35/14
f 124/22/9 125/35/14 126/51/14
f 127/36/7 128/37/7 129/52/7
f 130/53/20 131/42/16 132/54/20
f 133/38/12 134/39/15 135/31/12
f 136/40/15 137/41/16 138/39/15
f 139/42/16 140/53/20 141/41/16
f 142/33/13 143/49/18 144/55/18
f 145/45/7 146/44/7 147/43/7
f 148/46/7 149/45/7 150/56/7
f 151/57/21 152/48/17 153/47/17
f 154/48/17 155/57/21 156/58/21
f 157/58/21 158/55/18 159/49/18
f 160/59/22 161/60/19 162/50/19
f 163/51/14 164/50/19 165/60/19
f 166/52/7 167/37/7 168/61/7
f 169/62/23 170/54/20 171/63/23
f 172/54/20 173/62/23 174/53/20
f 175/55/18 176/58/21 177/57/21
f 178/64/24 179/65/22 180/59/22
f 181/60/19 182/59/22 183/65/22
f 184/66/7 185/61/7 186/67/7
f 187/52/7 188/61/7 189/66/7
f 190/68/25 191/62/23 192/63/23
f 193/69/25 194/70/24 195/64/24
f 196/65/22 197/64/24 198/70/24
f 199/71/7 200/67/7 201/72/7
f 202/66/7 203/67/7 204/71/7
f 205/62/23 206/68/25 207/73/25
f 208/70/24 209/69/25 210/74/25
usemtl material_1_0
f 211/68/15 212/68/16 213/68/15
f 214/68/16 215/68/20 216/68/16
f 217/68/12 218/68/15 219/68/12
f 220/68/16 221/68/15 222/68/16
f 223/68/15 224/68/12 225/68/15
f 226/68/20 227/68/16 228/68/20
f 229/68/20 230/68/23 231/68/20
f 232/68/11 233/68/12 234/68/11
f 235/68/12 236/68/11 237/68/12
f 238/68/26 239/68/26 240/68/26
f 241/68/26 242/68/26 243/68/26
f 244/68/26 245/68/26 246/68/26
f 247/68/23 248/68/20 249/68/23
f 250/68/25 251/68/25 252/68/23
f 253/68/13 254/68/11 255/68/13
f 256/68/11 257/68/13 258/68/11
f 259/68/26 260/68/26 261/68/26
f 262/68/26 263/68/26 264/68/26
f 265/68/26 266/68/26 267/68/26
f 268/68/26 269/68/26 270/68/26
f 271/68/26 272/68/26 273/68/26
f 274/68/26 275/68/26 276/68/26
f 277/68/23 278/68/23 279/68/25
f 280/68/25 281/68/25 282/68/24
f 283/68/24 284/68/24 285/68/25
f 286/68/6 287/68/4 288/68/6
f 289/68/9 290/68/6 291/68/9
f 292/68/13 293/68/13 294/68/18
f 295/68/26 296/68/26 297/68/26
f 298/68/26 299/68/26 300/68/26
f 301/68/4 302/68/6 303/68/4
f 304/68/1 305/68/4 306/68/1
f 307/68/2 308/68/1 309/68/2
f 310/68/6 311/68/9 312/68/6
f 313/68/26 314/68/26 315/68/26
f 316/68/26 317/68/26 318/68/26
f 319/68/26 320/68/26 321/68/26
f 322/68/24 323/68/24 324/68/22
f 325/68/22 326/68/22 327/68/24
f 328/68/9 329/68/9 330/68/14
f 331/68/18 332/68/18 333/68/21
f 334/68/18 335/68/18 336/68/13
f 337/68/26 338/68/26 339/68/26
f 340/68/3 341/68/2 342/68/3
f 343/68/4 344/68/1 345/68/4
f 346/68/1 347/68/2 348/68/1
f 349/68/2 350/68/3 351/68/2
f 352/68/14 353/68/14 354/68/9
f 355/68/26 356/68/26 357/68/26
f 358/68/26 359/68/26 360/68/26
f 361/68/22 362/68/22 363/68/19
f 364/68/19 365/68/19 366/68/22
f 367/68/14 368/68/14 369/68/19
f 370/68/21 371/68/21 372/68/17
f 373/68/21 374/68/21 375/68/18
f 376/68/26 377/68/26 378/68/26
f 379/68/5 380/68/3 381/68/5
f 382/68/3 383/68/5 384/68/3
f 385/68/19 386/68/19 387/68/14
f 388/68/17 389/68/17 390/68/10
f 391/68/17 392/68/17 393/68/21
f 394/68/26 395/68/26 396/68/26
f 397/68/26 398/68/26 399/68/26
f 400/68/5 401/68/5 402/68/8
f 403/68/10 404/68/10 405/68/8
f 406/68/10 407/68/10 408/68/17
f 409/68/26 410/68/26 411/68/26
f 412/68/26 413/68/26 414/68/26
f 415/68/8 416/68/8 417/68/5
f 418/68/8 419/68/8 420/68/10
