# SSTK version 0.8.0
# 118
mtllib original-118.mtl
o mesh235/mesh235-geometry/material_1/component_5#mesh235-geometry
v -0.762114 -0.056585 -0.154636
v -0.775991 -0.083916 -0.154636
v -0.769281 -0.070700 -0.154636
v -0.769281 -0.070700 -0.154636
v -0.775991 -0.083916 -0.154636
v -0.762114 -0.056585 -0.154636
v -0.771162 -0.173655 -0.154636
v -0.754432 -0.199340 -0.154636
v -0.769281 -0.176544 -0.154636
v -0.769281 -0.176544 -0.154636
v -0.754432 -0.199340 -0.154636
v -0.771162 -0.173655 -0.154636
v -0.741635 -0.033776 -0.179356
v -0.762114 -0.056585 -0.154636
v -0.741635 -0.033776 -0.154636
v -0.741635 -0.033776 -0.154636
v -0.762114 -0.056585 -0.154636
v -0.741635 -0.033776 -0.179356
v -0.775991 -0.083916 -0.154636
v -0.762114 -0.056585 -0.154636
v -0.762114 -0.056585 -0.179356
v -0.762114 -0.056585 -0.179356
v -0.762114 -0.056585 -0.154636
v -0.775991 -0.083916 -0.154636
v -0.754432 -0.199340 -0.154636
v -0.771162 -0.173655 -0.154636
v -0.771162 -0.173655 -0.179356
v -0.771162 -0.173655 -0.179356
v -0.771162 -0.173655 -0.154636
v -0.754432 -0.199340 -0.154636
v -0.754432 -0.199340 -0.154636
v -0.731623 -0.219818 -0.179356
v -0.731623 -0.219818 -0.154636
v -0.731623 -0.219818 -0.154636
v -0.731623 -0.219818 -0.179356
v -0.754432 -0.199340 -0.154636
v -0.715951 -0.017046 -0.154636
v -0.741635 -0.033776 -0.179356
v -0.741635 -0.033776 -0.154636
v -0.741635 -0.033776 -0.154636
v -0.741635 -0.033776 -0.179356
v -0.715951 -0.017046 -0.154636
v -0.762114 -0.056585 -0.154636
v -0.741635 -0.033776 -0.179356
v -0.762114 -0.056585 -0.179356
v -0.762114 -0.056585 -0.179356
v -0.741635 -0.033776 -0.179356
v -0.762114 -0.056585 -0.154636
v -0.775991 -0.083916 -0.154636
v -0.762114 -0.056585 -0.179356
v -0.775991 -0.083916 -0.179356
v -0.775991 -0.083916 -0.179356
v -0.762114 -0.056585 -0.179356
v -0.775991 -0.083916 -0.154636
v -0.771162 -0.173655 -0.154636
v -0.780675 -0.144516 -0.179356
v -0.771162 -0.173655 -0.179356
v -0.771162 -0.173655 -0.179356
v -0.780675 -0.144516 -0.179356
v -0.771162 -0.173655 -0.154636
v -0.754432 -0.199340 -0.154636
v -0.771162 -0.173655 -0.179356
v -0.754432 -0.199340 -0.179356
v -0.754432 -0.199340 -0.179356
v -0.771162 -0.173655 -0.179356
v -0.754432 -0.199340 -0.154636
v -0.731623 -0.219818 -0.179356
v -0.754432 -0.199340 -0.154636
v -0.754432 -0.199340 -0.179356
v -0.754432 -0.199340 -0.179356
v -0.754432 -0.199340 -0.154636
v -0.731623 -0.219818 -0.179356
v -0.704292 -0.233696 -0.179356
v -0.731623 -0.219818 -0.154636
v -0.731623 -0.219818 -0.179356
v -0.731623 -0.219818 -0.179356
v -0.731623 -0.219818 -0.154636
v -0.704292 -0.233696 -0.179356
v -0.686812 -0.007533 -0.154636
v -0.715951 -0.017046 -0.179356
v -0.715951 -0.017046 -0.154636
v -0.715951 -0.017046 -0.154636
v -0.715951 -0.017046 -0.179356
v -0.686812 -0.007533 -0.154636
v -0.741635 -0.033776 -0.179356
v -0.715951 -0.017046 -0.154636
v -0.715951 -0.017046 -0.179356
v -0.715951 -0.017046 -0.179356
v -0.715951 -0.017046 -0.154636
v -0.741635 -0.033776 -0.179356
v -0.775991 -0.083916 -0.179356
v -0.782323 -0.113908 -0.154636
v -0.775991 -0.083916 -0.154636
v -0.775991 -0.083916 -0.154636
v -0.782323 -0.113908 -0.154636
v -0.775991 -0.083916 -0.179356
v -0.780675 -0.144516 -0.179356
v -0.771162 -0.173655 -0.154636
v -0.780675 -0.144516 -0.154636
v -0.780675 -0.144516 -0.154636
v -0.771162 -0.173655 -0.154636
v -0.780675 -0.144516 -0.179356
v -0.731623 -0.219818 -0.154636
v -0.704292 -0.233696 -0.179356
v -0.704292 -0.233696 -0.154636
v -0.704292 -0.233696 -0.154636
v -0.704292 -0.233696 -0.179356
v -0.731623 -0.219818 -0.154636
v -0.656203 -0.005885 -0.154636
v -0.686812 -0.007533 -0.179356
v -0.686812 -0.007533 -0.154636
v -0.686812 -0.007533 -0.154636
v -0.686812 -0.007533 -0.179356
v -0.656203 -0.005885 -0.154636
v -0.715951 -0.017046 -0.179356
v -0.686812 -0.007533 -0.154636
v -0.686812 -0.007533 -0.179356
v -0.686812 -0.007533 -0.179356
v -0.686812 -0.007533 -0.154636
v -0.715951 -0.017046 -0.179356
v -0.782323 -0.113908 -0.154636
v -0.775991 -0.083916 -0.179356
v -0.782323 -0.113908 -0.179356
v -0.782323 -0.113908 -0.179356
v -0.775991 -0.083916 -0.179356
v -0.782323 -0.113908 -0.154636
v -0.780675 -0.144516 -0.154636
v -0.782323 -0.113908 -0.179356
v -0.780675 -0.144516 -0.179356
v -0.780675 -0.144516 -0.179356
v -0.782323 -0.113908 -0.179356
v -0.780675 -0.144516 -0.154636
v -0.674300 -0.240027 -0.179356
v -0.704292 -0.233696 -0.154636
v -0.704292 -0.233696 -0.179356
v -0.704292 -0.233696 -0.179356
v -0.704292 -0.233696 -0.154636
v -0.674300 -0.240027 -0.179356
v -0.704292 -0.233696 -0.154636
v -0.674300 -0.240027 -0.179356
v -0.674300 -0.240027 -0.154636
v -0.674300 -0.240027 -0.154636
v -0.674300 -0.240027 -0.179356
v -0.704292 -0.233696 -0.154636
v -0.686812 -0.007533 -0.179356
v -0.656203 -0.005885 -0.154636
v -0.656203 -0.005885 -0.179356
v -0.656203 -0.005885 -0.179356
v -0.656203 -0.005885 -0.154636
v -0.686812 -0.007533 -0.179356
v -0.782323 -0.113908 -0.179356
v -0.780675 -0.144516 -0.154636
v -0.782323 -0.113908 -0.154636
v -0.782323 -0.113908 -0.154636
v -0.780675 -0.144516 -0.154636
v -0.782323 -0.113908 -0.179356
v -0.643692 -0.238380 -0.179356
v -0.674300 -0.240027 -0.154636
v -0.674300 -0.240027 -0.179356
v -0.674300 -0.240027 -0.179356
v -0.674300 -0.240027 -0.154636
v -0.643692 -0.238380 -0.179356
v -0.674300 -0.240027 -0.154636
v -0.643692 -0.238380 -0.179356
v -0.643692 -0.238380 -0.154636
v -0.643692 -0.238380 -0.154636
v -0.643692 -0.238380 -0.179356
v -0.674300 -0.240027 -0.154636
v -0.626211 -0.012217 -0.154636
v -0.656203 -0.005885 -0.179356
v -0.656203 -0.005885 -0.154636
v -0.656203 -0.005885 -0.154636
v -0.656203 -0.005885 -0.179356
v -0.626211 -0.012217 -0.154636
v -0.643692 -0.238380 -0.154636
v -0.614553 -0.228867 -0.179356
v -0.614553 -0.228867 -0.154636
v -0.614553 -0.228867 -0.154636
v -0.614553 -0.228867 -0.179356
v -0.643692 -0.238380 -0.154636
v -0.614553 -0.228867 -0.179356
v -0.643692 -0.238380 -0.154636
v -0.643692 -0.238380 -0.179356
v -0.643692 -0.238380 -0.179356
v -0.643692 -0.238380 -0.154636
v -0.614553 -0.228867 -0.179356
v -0.656203 -0.005885 -0.179356
v -0.626211 -0.012217 -0.154636
v -0.626211 -0.012217 -0.179356
v -0.626211 -0.012217 -0.179356
v -0.626211 -0.012217 -0.154636
v -0.656203 -0.005885 -0.179356
v -0.614553 -0.228867 -0.154636
v -0.588868 -0.212136 -0.179356
v -0.588868 -0.212136 -0.154636
v -0.588868 -0.212136 -0.154636
v -0.588868 -0.212136 -0.179356
v -0.614553 -0.228867 -0.154636
v -0.588868 -0.212136 -0.179356
v -0.614553 -0.228867 -0.154636
v -0.614553 -0.228867 -0.179356
v -0.614553 -0.228867 -0.179356
v -0.614553 -0.228867 -0.154636
v -0.588868 -0.212136 -0.179356
v -0.554512 -0.161997 -0.179356
v -0.548181 -0.132005 -0.154636
v -0.554512 -0.161997 -0.154636
v -0.554512 -0.161997 -0.154636
v -0.548181 -0.132005 -0.154636
v -0.554512 -0.161997 -0.179356
v -0.598880 -0.026094 -0.154636
v -0.626211 -0.012217 -0.179356
v -0.626211 -0.012217 -0.154636
v -0.626211 -0.012217 -0.154636
v -0.626211 -0.012217 -0.179356
v -0.598880 -0.026094 -0.154636
v -0.588868 -0.212136 -0.179356
v -0.568390 -0.189328 -0.154636
v -0.588868 -0.212136 -0.154636
v -0.588868 -0.212136 -0.154636
v -0.568390 -0.189328 -0.154636
v -0.588868 -0.212136 -0.179356
v -0.568390 -0.189328 -0.179356
v -0.554512 -0.161997 -0.154636
v -0.568390 -0.189328 -0.154636
v -0.568390 -0.189328 -0.154636
v -0.554512 -0.161997 -0.154636
v -0.568390 -0.189328 -0.179356
v -0.548181 -0.132005 -0.154636
v -0.554512 -0.161997 -0.179356
v -0.548181 -0.132005 -0.179356
v -0.548181 -0.132005 -0.179356
v -0.554512 -0.161997 -0.179356
v -0.548181 -0.132005 -0.154636
v -0.554512 -0.161997 -0.154636
v -0.568390 -0.189328 -0.179356
v -0.554512 -0.161997 -0.179356
v -0.554512 -0.161997 -0.179356
v -0.568390 -0.189328 -0.179356
v -0.554512 -0.161997 -0.154636
v -0.548181 -0.132005 -0.154636
v -0.549828 -0.101396 -0.179356
v -0.549828 -0.101396 -0.154636
v -0.549828 -0.101396 -0.154636
v -0.549828 -0.101396 -0.179356
v -0.548181 -0.132005 -0.154636
v -0.626211 -0.012217 -0.179356
v -0.598880 -0.026094 -0.154636
v -0.598880 -0.026094 -0.179356
v -0.598880 -0.026094 -0.179356
v -0.598880 -0.026094 -0.154636
v -0.626211 -0.012217 -0.179356
v -0.568390 -0.189328 -0.154636
v -0.588868 -0.212136 -0.179356
v -0.568390 -0.189328 -0.179356
v -0.568390 -0.189328 -0.179356
v -0.588868 -0.212136 -0.179356
v -0.568390 -0.189328 -0.154636
v -0.549828 -0.101396 -0.179356
v -0.548181 -0.132005 -0.154636
v -0.548181 -0.132005 -0.179356
v -0.548181 -0.132005 -0.179356
v -0.548181 -0.132005 -0.154636
v -0.549828 -0.101396 -0.179356
v -0.549828 -0.101396 -0.179356
v -0.559341 -0.072257 -0.154636
v -0.549828 -0.101396 -0.154636
v -0.549828 -0.101396 -0.154636
v -0.559341 -0.072257 -0.154636
v -0.549828 -0.101396 -0.179356
v -0.576072 -0.046573 -0.154636
v -0.598880 -0.026094 -0.179356
v -0.598880 -0.026094 -0.154636
v -0.598880 -0.026094 -0.154636
v -0.598880 -0.026094 -0.179356
v -0.576072 -0.046573 -0.154636
v -0.559341 -0.072257 -0.154636
v -0.549828 -0.101396 -0.179356
v -0.559341 -0.072257 -0.179356
v -0.559341 -0.072257 -0.179356
v -0.549828 -0.101396 -0.179356
v -0.559341 -0.072257 -0.154636
v -0.559341 -0.072257 -0.179356
v -0.576072 -0.046573 -0.154636
v -0.559341 -0.072257 -0.154636
v -0.559341 -0.072257 -0.154636
v -0.576072 -0.046573 -0.154636
v -0.559341 -0.072257 -0.179356
v -0.598880 -0.026094 -0.179356
v -0.576072 -0.046573 -0.154636
v -0.576072 -0.046573 -0.179356
v -0.576072 -0.046573 -0.179356
v -0.576072 -0.046573 -0.154636
v -0.598880 -0.026094 -0.179356
v -0.576072 -0.046573 -0.154636
v -0.559341 -0.072257 -0.179356
v -0.576072 -0.046573 -0.179356
v -0.576072 -0.046573 -0.179356
v -0.559341 -0.072257 -0.179356
v -0.576072 -0.046573 -0.154636
vt 0 0
vn -0.8249189782511908 0.565250987899191 0
vn -0.9431081711405279 0.3324860561406574 0
vn -0.8916420542364155 0.4527410375888903 0
vn 0.8916420542364155 -0.4527410375888903 0
vn 0.9431081711405279 -0.3324860561406574 0
vn 0.8249189782511908 -0.565250987899191 0
vn -0.9019808967061129 -0.4317759395534173 0
vn -0.7594950807593568 -0.6505130454513098 0
vn -0.8379065695896576 -0.5458136867452962 0
vn 0.8379065695896576 0.5458136867452962 0
vn 0.7594950807593568 0.6505130454513098 0
vn 0.9019808967061129 0.4317759395534173 0
vn -0.6505130454513098 0.7594950807593568 0
vn 0.6505130454513098 -0.7594950807593568 0
vn -0.565250987899191 -0.8249189782511908 0
vn 0.565250987899191 0.8249189782511908 0
vn -0.4317759395534173 0.9019808967061129 0
vn 0.4317759395534173 -0.9019808967061129 0
vn -0.9829986231291655 -0.18361292690375886 0
vn 0.9829986231291655 0.18361292690375886 0
vn -0.3324860561406574 -0.9431081711405279 0
vn 0.3324860561406574 0.9431081711405279 0
vn -0.18361292690375886 0.9829986231291655 0
vn 0.18361292690375886 -0.9829986231291655 0
vn -0.99702630074398 0.07706202453072993 0
vn 0.99702630074398 -0.07706202453072993 0
vn 0.07706202453072993 0.99702630074398 0
vn -0.07706202453072993 -0.99702630074398 0
usemtl material_0_0
f 1/1/1 2/1/2 3/1/3
f 4/1/4 5/1/5 6/1/6
f 7/1/7 8/1/8 9/1/9
f 10/1/10 11/1/11 12/1/12
f 13/1/13 14/1/1 15/1/13
f 16/1/14 17/1/6 18/1/14
f 19/1/2 20/1/1 21/1/1
f 22/1/6 23/1/6 24/1/5
f 25/1/8 26/1/7 27/1/7
f 28/1/12 29/1/12 30/1/11
f 31/1/8 32/1/15 33/1/15
f 34/1/16 35/1/16 36/1/11
f 37/1/17 38/1/13 39/1/13
f 40/1/14 41/1/14 42/1/18
f 43/1/1 44/1/13 45/1/1
f 46/1/6 47/1/14 48/1/6
f 49/1/2 50/1/1 51/1/2
f 52/1/5 53/1/6 54/1/5
f 55/1/7 56/1/19 57/1/7
f 58/1/12 59/1/20 60/1/12
f 61/1/8 62/1/7 63/1/8
f 64/1/11 65/1/12 66/1/11
f 67/1/15 68/1/8 69/1/8
f 70/1/11 71/1/11 72/1/16
f 73/1/21 74/1/15 75/1/15
f 76/1/16 77/1/16 78/1/22
f 79/1/23 80/1/17 81/1/17
f 82/1/18 83/1/18 84/1/24
f 85/1/13 86/1/17 87/1/17
f 88/1/18 89/1/18 90/1/14
f 91/1/2 92/1/25 93/1/2
f 94/1/5 95/1/26 96/1/5
f 97/1/19 98/1/7 99/1/19
f 100/1/20 101/1/12 102/1/20
f 103/1/15 104/1/21 105/1/21
f 106/1/22 107/1/22 108/1/16
f 109/1/27 110/1/23 111/1/23
f 112/1/24 113/1/24 114/1/28
f 115/1/17 116/1/23 117/1/23
f 118/1/24 119/1/24 120/1/18
f 121/1/25 122/1/2 123/1/25
f 124/1/26 125/1/5 126/1/26
f 127/1/19 128/1/25 129/1/19
f 130/1/20 131/1/26 132/1/20
f 133/1/28 134/1/21 135/1/21
f 136/1/22 137/1/22 138/1/27
f 139/1/21 140/1/28 141/1/28
f 142/1/27 143/1/27 144/1/22
f 145/1/23 146/1/27 147/1/27
f 148/1/28 149/1/28 150/1/24
f 151/1/25 152/1/19 153/1/25
f 154/1/26 155/1/20 156/1/26
f 157/1/24 158/1/28 159/1/28
f 160/1/27 161/1/27 162/1/23
f 163/1/28 164/1/24 165/1/24
f 166/1/23 167/1/23 168/1/27
f 169/1/22 170/1/27 171/1/27
f 172/1/28 173/1/28 174/1/21
f 175/1/24 176/1/18 177/1/18
f 178/1/17 179/1/17 180/1/23
f 181/1/18 182/1/24 183/1/24
f 184/1/23 185/1/23 186/1/17
f 187/1/27 188/1/22 189/1/22
f 190/1/21 191/1/21 192/1/28
f 193/1/18 194/1/14 195/1/14
f 196/1/13 197/1/13 198/1/17
f 199/1/14 200/1/18 201/1/18
f 202/1/17 203/1/17 204/1/13
f 205/1/5 206/1/26 207/1/5
f 208/1/2 209/1/25 210/1/2
f 211/1/16 212/1/22 213/1/22
f 214/1/21 215/1/21 216/1/15
f 217/1/14 218/1/6 219/1/14
f 220/1/13 221/1/1 222/1/13
f 223/1/6 224/1/5 225/1/6
f 226/1/1 227/1/2 228/1/1
f 229/1/26 230/1/5 231/1/26
f 232/1/25 233/1/2 234/1/25
f 235/1/5 236/1/6 237/1/5
f 238/1/2 239/1/1 240/1/2
f 241/1/26 242/1/20 243/1/20
f 244/1/19 245/1/19 246/1/25
f 247/1/22 248/1/16 249/1/16
f 250/1/15 251/1/15 252/1/21
f 253/1/6 254/1/14 255/1/6
f 256/1/1 257/1/13 258/1/1
f 259/1/20 260/1/26 261/1/26
f 262/1/25 263/1/25 264/1/19
f 265/1/20 266/1/12 267/1/20
f 268/1/19 269/1/7 270/1/19
f 271/1/11 272/1/16 273/1/16
f 274/1/15 275/1/15 276/1/8
f 277/1/12 278/1/20 279/1/12
f 280/1/7 281/1/19 282/1/7
f 283/1/12 284/1/11 285/1/12
f 286/1/7 287/1/8 288/1/7
f 289/1/16 290/1/11 291/1/11
f 292/1/8 293/1/8 294/1/15
f 295/1/11 296/1/12 297/1/11
f 298/1/8 299/1/7 300/1/8
