# SSTK version 0.8.0
# 123
mtllib original-123.mtl
o mesh235/mesh235-geometry/material_1/component_10#mesh235-geometry
v -0.766777 0.349382 -0.167879
v -0.766777 0.425131 -0.174066
v -0.766777 0.425131 -0.167879
v -0.766777 0.425131 -0.167879
v -0.766777 0.425131 -0.174066
v -0.766777 0.349382 -0.167879
v -0.766777 0.425131 -0.174066
v -0.766777 0.349382 -0.167879
v -0.766777 0.349382 -0.174066
v -0.766777 0.349382 -0.174066
v -0.766777 0.349382 -0.167879
v -0.766777 0.425131 -0.174066
vt 0 0
vn 1 0 0
vn -1 0 0
usemtl material_0_0
f 1/1/1 2/1/1 3/1/1
f 4/1/2 5/1/2 6/1/2
f 7/1/1 8/1/1 9/1/1
f 10/1/2 11/1/2 12/1/2
