# SSTK version 0.8.0
# 12
mtllib original-12.mtl
o mesh15/mesh15-geometry#mesh15-geometry
v 0.340997 0.213031 0.217930
v 0.341165 0.210066 0.217930
v 0.341107 0.209154 0.217930
v 0.341744 0.213646 0.217930
v 0.341107 0.209154 0.219132
v 0.340967 0.205277 0.217930
v 0.340997 0.213031 0.219132
v 0.341340 0.210872 0.217930
v 0.341165 0.210066 0.219132
v 0.341166 0.208231 0.219132
v 0.340396 0.212266 0.217930
v 0.341166 0.208231 0.217930
v 0.341744 0.213646 0.219132
v 0.341631 0.211572 0.217930
v 0.340967 0.205277 0.219132
v 0.340380 0.206069 0.217930
v 0.341698 0.204639 0.217930
v 0.342612 0.214085 0.217930
v 0.340396 0.212266 0.219132
v 0.342038 0.212166 0.217930
v 0.341340 0.210872 0.219132
v 0.341342 0.207415 0.219132
v 0.341698 0.204639 0.219132
v 0.339968 0.211374 0.217930
v 0.340380 0.206069 0.219132
v 0.341342 0.207415 0.217930
v 0.342612 0.214085 0.219132
v 0.341631 0.211572 0.219132
v 0.339960 0.206989 0.217930
v 0.339960 0.206989 0.219132
v 0.341637 0.206705 0.217930
v 0.342548 0.204184 0.219132
v 0.342038 0.212166 0.219132
v 0.343603 0.214349 0.217930
v 0.342550 0.212639 0.217930
v 0.339968 0.211374 0.219132
v 0.341637 0.206705 0.219132
v 0.339710 0.210356 0.217930
v 0.342049 0.206102 0.217930
v 0.342548 0.204184 0.217930
v 0.342049 0.206102 0.219132
v 0.342550 0.212639 0.219132
v 0.343603 0.214349 0.219132
v 0.343152 0.212977 0.217930
v 0.339709 0.208037 0.217930
v 0.339709 0.208037 0.219132
v 0.339710 0.210356 0.219132
v 0.343518 0.203911 0.219132
v 0.342566 0.205620 0.219132
v 0.343152 0.212977 0.219132
v 0.344716 0.214436 0.217930
v 0.343845 0.213180 0.217930
v 0.339625 0.209213 0.217930
v 0.342566 0.205620 0.217930
v 0.343518 0.203911 0.217930
v 0.343845 0.213180 0.219132
v 0.344716 0.214436 0.219132
v 0.339625 0.209213 0.219132
v 0.344606 0.203820 0.219132
v 0.343173 0.205277 0.219132
v 0.343173 0.205277 0.217930
v 0.345525 0.214390 0.217930
v 0.344628 0.213248 0.217930
v 0.344628 0.213248 0.219132
v 0.344606 0.203820 0.217930
v 0.343870 0.205070 0.219132
v 0.345525 0.214390 0.219132
v 0.345600 0.213149 0.217930
v 0.343870 0.205070 0.217930
v 0.345452 0.203864 0.219132
v 0.344658 0.205001 0.219132
v 0.345600 0.213149 0.219132
v 0.346263 0.214250 0.217930
v 0.344658 0.205001 0.217930
v 0.345452 0.203864 0.217930
v 0.346263 0.214250 0.219132
v 0.346382 0.212852 0.217930
v 0.346382 0.212852 0.219132
v 0.346215 0.203997 0.219132
v 0.345608 0.205104 0.219132
v 0.345608 0.205104 0.217930
v 0.346932 0.214017 0.217930
v 0.346215 0.203997 0.217930
v 0.346932 0.214017 0.219132
v 0.346972 0.212356 0.217930
v 0.346972 0.212356 0.219132
v 0.346894 0.204217 0.219132
v 0.346384 0.205412 0.219132
v 0.346384 0.205412 0.217930
v 0.347530 0.213692 0.217930
v 0.346894 0.204217 0.217930
v 0.347530 0.213692 0.219132
v 0.347372 0.211663 0.217930
v 0.347490 0.204526 0.219132
v 0.346984 0.205926 0.219132
v 0.346984 0.205926 0.217930
v 0.347372 0.211663 0.219132
v 0.348038 0.213286 0.217930
v 0.348905 0.211663 0.217930
v 0.347490 0.204526 0.217930
v 0.348905 0.211663 0.219132
v 0.348038 0.213286 0.219132
v 0.348002 0.204924 0.219132
v 0.347409 0.206645 0.219132
v 0.348437 0.212812 0.219132
v 0.348437 0.212812 0.217930
v 0.348726 0.212271 0.217930
v 0.347409 0.206645 0.217930
v 0.348002 0.204924 0.217930
v 0.349038 0.206645 0.219132
v 0.348726 0.212271 0.219132
v 0.349038 0.206645 0.217930
v 0.348430 0.205409 0.217930
v 0.348430 0.205409 0.219132
v 0.348776 0.205983 0.219132
v 0.348776 0.205983 0.217930
vn 0 0 -1
vn 0 0 1
vn 0.9904061526191239 -0.13818702129427618 0
vn 1 0 0
vn -1 0 0
vn -0.9904061526191239 0.13818702129427618 0
vn -0.7154000675248272 0.6987150659499715 0
vn -0.5465218839982829 0.8374448222485869 0
vn 0.7154000675248272 -0.6987150659499715 0
vn 0.5465218839982829 -0.8374448222485869 0
vn 0.990420101038207 0.13808701408701649 0
vn -0.990420101038207 -0.13808701408701649 0
vn -0.8490678075672939 0.5282838802697549 0
vn 0.8490678075672939 -0.5282838802697549 0
vn 0.9541929360151635 -0.2991919799372337 0
vn -0.9541929360151635 0.2991919799372337 0
vn -0.35587398202267045 0.9345339527910841 0
vn 0.35587398202267045 -0.9345339527910841 0
vn 0.8786279571963223 -0.47750697673753195 0
vn -0.8786279571963223 0.47750697673753195 0
vn 0.9543420469440865 0.2987160146938411 0
vn -0.9543420469440865 -0.2987160146938411 0
vn -0.7344451056686644 -0.678668097643719 0
vn -0.8613099127923759 -0.5080799485569077 0
vn 0.8613099127923759 0.5080799485569077 0
vn 0.7344451056686644 0.678668097643719 0
vn -0.5681340278237966 -0.8229360403024707 0
vn 0.5681340278237966 0.8229360403024707 0
vn -0.9400941099623443 0.340915039876664 0
vn 0.9400941099623443 -0.340915039876664 0
vn 0.7566597865913256 -0.6538088155994607 0
vn -0.7566597865913256 0.6538088155994607 0
vn -0.9454590379308719 -0.325741013068404 0
vn 0.9454590379308719 0.325741013068404 0
vn -0.37374603205302176 -0.9275310795464602 0
vn 0.37374603205302176 0.9275310795464602 0
vn -0.16848195523864673 0.9857047381234214 0
vn 0.16848195523864673 -0.9857047381234214 0
vn 0.8792579374495925 0.47634596611274904 0
vn -0.8792579374495925 -0.47634596611274904 0
vn 0.5886500055792248 -0.8083880076619017 0
vn -0.5886500055792248 0.8083880076619017 0
vn -0.987035685976127 0.16050094893687197 0
vn 0.987035685976127 -0.16050094893687197 0
vn -0.9882435101348904 -0.15288807892138181 0
vn 0.9882435101348904 0.15288807892138181 0
vn 0.7583280895915399 0.6518730770145714 0
vn -0.7583280895915399 -0.6518730770145714 0
vn -0.17804409236751864 -0.9840225105011706 0
vn 0.17804409236751864 0.9840225105011706 0
vn -0.010623995365219288 0.9999435637687158 0
vn 0.010623995365219288 -0.9999435637687158 0
vn 0.3878799576241169 -0.921709899303199 0
vn -0.3878799576241169 0.921709899303199 0
vn 0.5914959677989604 0.806307956104596 0
vn -0.5914959677989604 -0.806307956104596 0
vn 0.1844280048965636 -0.9828460260945623 0
vn -0.1844280048965636 0.9828460260945623 0
vn -0.999998392572946 0.0017930007038847 0
vn 0.999998392572946 -0.0017930007038847 0
vn -0.015648992910342736 -0.9998775470130791 0
vn 0.015648992910342736 0.9998775470130791 0
vn 0.39093800513438437 0.920417012088297 0
vn -0.39093800513438437 -0.920417012088297 0
vn 0.12187505529167825 0.9925454502931593 0
vn -0.12187505529167825 -0.9925454502931593 0
vn -0.007721001487292799 -0.9999701926237767 0
vn 0.007721001487292799 0.9999701926237767 0
vn 0.11178394757641491 -0.9937325339668784 0
vn -0.11178394757641491 0.9937325339668784 0
vn 0.18633197024343887 0.9824868431003024 0
vn -0.18633197024343887 -0.9824868431003024 0
vn 0.2580159112248677 0.966140667581487 0
vn -0.2580159112248677 -0.966140667581487 0
vn -0.2303759304518208 -0.9731017062303702 0
vn 0.2303759304518208 0.9731017062303702 0
vn -0.010261003637885568 0.9999473545163982 0
vn 0.010261003637885568 -0.9999473545163982 0
vn -0.5060419289403322 -0.8625088788843555 0
vn 0.5060419289403322 0.8625088788843555 0
vn 0.24066505632898666 -0.9706082271762204 0
vn -0.24066505632898666 0.9706082271762204 0
vn -0.2405659493554603 0.9706327956599788 0
vn 0.2405659493554603 -0.9706327956599788 0
vn 0.40492784228367307 0.9143486438681301 0
vn -0.40492784228367307 -0.9143486438681301 0
vn -0.7660860398211533 -0.6427380334095238 0
vn 0.7660860398211533 0.6427380334095238 0
vn 0.38603298990253515 -0.9224849758705608 0
vn -0.38603298990253515 0.9224849758705608 0
vn -0.5167097721256153 0.8561606224242592 0
vn 0.5167097721256153 -0.8561606224242592 0
vn 0.5533469250740647 0.8329508872142928 0
vn -0.5533469250740647 -0.8329508872142928 0
vn -0.8662619910151307 -0.49958999481825256 0
vn 0.8662619910151307 0.49958999481825256 0
vn 0.5388328209841404 -0.8424127201261109 0
vn -0.5388328209841404 0.8424127201261109 0
vn -0.765816787497358 0.6430588215608476 0
vn 0.765816787497358 -0.6430588215608476 0
vn 0.697896570720462 0.7161985594628206 0
vn -0.697896570720462 -0.7161985594628206 0
vn 0 -1 0
vn 0 1 0
vn 0.6842033051923733 -0.7292913253041146 0
vn -0.6842033051923733 0.7292913253041146 0
vn -0.8608175314915778 0.5089137230186924 0
vn 0.8608175314915778 -0.5089137230186924 0
vn 0.8279216562387205 0.5608437671321078 0
vn -0.8279216562387205 -0.5608437671321078 0
vn 0.9253093493737435 0.3792131431814296 0
vn 0.9591003978560279 0.2830661174220773 0
vn -0.9591003978560279 -0.2830661174220773 0
vn -0.9253093493737435 -0.3792131431814296 0
vn 0.8065089111368368 -0.5912219348576928 0
vn -0.8065089111368368 0.5912219348576928 0
vn 0.8964172561916063 -0.4432111266675421 0
vn 0.9299140143555477 -0.3677770056775576 0
vn -0.9299140143555477 0.3677770056775576 0
vn -0.8964172561916063 0.4432111266675421 0
usemtl material_0_0
f 1//1 2//1 3//1
f 2//1 1//1 4//1
f 3//2 2//2 1//2
f 4//2 1//2 2//2
f 2//3 5//4 3//4
f 3//5 5//5 2//6
f 6//1 1//1 3//1
f 3//2 1//2 6//2
f 7//7 4//8 1//7
f 1//9 4//10 7//9
f 2//1 4//1 8//1
f 8//2 4//2 2//2
f 5//4 2//3 9//3
f 9//6 2//6 5//5
f 10//11 3//4 5//4
f 5//5 3//5 10//12
f 6//1 11//1 1//1
f 1//2 11//2 6//2
f 6//1 3//1 12//1
f 12//2 3//2 6//2
f 4//8 7//7 13//8
f 13//10 7//9 4//10
f 11//13 7//7 1//7
f 1//9 7//9 11//14
f 8//1 4//1 14//1
f 14//2 4//2 8//2
f 8//15 9//3 2//3
f 2//6 9//6 8//16
f 9//2 7//2 5//2
f 5//1 7//1 9//1
f 3//4 10//11 12//11
f 12//12 10//12 3//5
f 5//2 15//2 10//2
f 10//1 15//1 5//1
f 16//1 11//1 6//1
f 6//2 11//2 16//2
f 6//1 12//1 17//1
f 17//2 12//2 6//2
f 7//2 9//2 13//2
f 13//1 9//1 7//1
f 13//8 18//17 4//8
f 4//10 18//18 13//10
f 7//7 11//13 19//13
f 19//14 11//14 7//9
f 14//1 4//1 20//1
f 20//2 4//2 14//2
f 14//19 21//15 8//15
f 8//16 21//16 14//20
f 9//3 8//15 21//15
f 21//16 8//16 9//6
f 7//2 15//2 5//2
f 5//1 15//1 7//1
f 22//21 12//11 10//11
f 10//12 12//12 22//22
f 10//2 15//2 23//2
f 23//1 15//1 10//1
f 16//1 24//1 11//1
f 11//2 24//2 16//2
f 6//23 25//24 16//24
f 16//25 25//25 6//26
f 17//1 12//1 26//1
f 26//2 12//2 17//2
f 23//27 6//23 17//27
f 17//28 6//26 23//28
f 13//2 9//2 21//2
f 21//1 9//1 13//1
f 18//17 13//8 27//17
f 27//18 13//10 18//18
f 20//1 4//1 18//1
f 18//2 4//2 20//2
f 24//29 19//13 11//13
f 11//14 19//14 24//30
f 19//2 15//2 7//2
f 7//1 15//1 19//1
f 20//31 28//19 14//19
f 14//20 28//20 20//32
f 21//15 14//19 28//19
f 28//20 14//20 21//16
f 12//11 22//21 26//21
f 26//22 22//22 12//12
f 10//2 23//2 22//2
f 22//1 23//1 10//1
f 6//23 23//27 15//23
f 15//26 23//28 6//26
f 29//1 24//1 16//1
f 16//2 24//2 29//2
f 25//24 6//23 15//23
f 15//26 6//26 25//25
f 30//33 16//24 25//24
f 25//25 16//25 30//34
f 17//1 26//1 31//1
f 31//2 26//2 17//2
f 17//27 32//35 23//27
f 23//28 32//36 17//28
f 13//2 21//2 28//2
f 28//1 21//1 13//1
f 13//2 33//2 27//2
f 27//1 33//1 13//1
f 27//17 34//37 18//17
f 18//18 34//38 27//18
f 20//1 18//1 35//1
f 35//2 18//2 20//2
f 19//13 24//29 36//29
f 36//30 24//30 19//14
f 19//2 25//2 15//2
f 15//1 25//1 19//1
f 28//19 20//31 33//31
f 33//32 20//32 28//20
f 37//39 26//21 22//21
f 22//22 26//22 37//40
f 22//2 23//2 37//2
f 37//1 23//1 22//1
f 29//1 38//1 24//1
f 24//2 38//2 29//2
f 16//24 30//33 29//33
f 29//34 30//34 16//25
f 36//2 30//2 25//2
f 25//1 30//1 36//1
f 26//21 37//39 31//39
f 31//40 37//40 26//22
f 17//1 31//1 39//1
f 39//2 31//2 17//2
f 32//35 17//27 40//35
f 40//36 17//28 32//36
f 41//2 23//2 32//2
f 32//1 23//1 41//1
f 13//2 28//2 33//2
f 33//1 28//1 13//1
f 27//2 33//2 42//2
f 42//1 33//1 27//1
f 34//37 27//17 43//37
f 43//38 27//18 34//38
f 44//1 18//1 34//1
f 34//2 18//2 44//2
f 35//1 18//1 44//1
f 44//2 18//2 35//2
f 42//41 20//31 35//41
f 35//42 20//32 42//42
f 38//43 36//29 24//29
f 24//30 36//30 38//44
f 36//2 25//2 19//2
f 19//1 25//1 36//1
f 20//31 42//41 33//31
f 33//32 42//42 20//32
f 37//2 23//2 41//2
f 41//1 23//1 37//1
f 45//1 38//1 29//1
f 29//2 38//2 45//2
f 46//45 29//33 30//33
f 30//34 29//34 46//46
f 47//2 30//2 36//2
f 36//1 30//1 47//1
f 41//47 31//39 37//39
f 37//40 31//40 41//48
f 31//39 41//47 39//47
f 39//48 41//48 31//40
f 17//1 39//1 40//1
f 40//2 39//2 17//2
f 40//35 48//49 32//35
f 32//36 48//50 40//36
f 41//2 32//2 49//2
f 49//1 32//1 41//1
f 27//2 42//2 50//2
f 50//1 42//1 27//1
f 27//2 50//2 43//2
f 43//1 50//1 27//1
f 43//37 51//51 34//37
f 34//38 51//52 43//38
f 44//1 34//1 52//1
f 52//2 34//2 44//2
f 50//53 35//41 44//53
f 44//54 35//42 50//54
f 35//41 50//53 42//41
f 42//42 50//54 35//42
f 36//29 38//43 47//43
f 47//44 38//44 36//30
f 38//1 45//1 53//1
f 53//2 45//2 38//2
f 29//33 46//45 45//45
f 45//46 46//46 29//34
f 47//2 46//2 30//2
f 30//1 46//1 47//1
f 41//47 54//55 39//47
f 39//48 54//56 41//48
f 40//1 39//1 54//1
f 54//2 39//2 40//2
f 48//49 40//35 55//49
f 55//50 40//36 48//50
f 49//2 32//2 48//2
f 48//1 32//1 49//1
f 54//55 41//47 49//55
f 49//56 41//48 54//56
f 43//2 50//2 56//2
f 56//1 50//1 43//1
f 51//51 43//37 57//51
f 57//52 43//38 51//52
f 52//1 34//1 51//1
f 51//2 34//2 52//2
f 56//57 44//53 52//57
f 52//58 44//54 56//58
f 44//53 56//57 50//53
f 50//54 56//58 44//54
f 53//59 47//43 38//43
f 38//44 47//44 53//60
f 45//45 58//59 53//59
f 53//60 58//60 45//46
f 58//59 45//45 46//45
f 46//46 45//46 58//60
f 46//2 47//2 58//2
f 58//1 47//1 46//1
f 40//1 54//1 55//1
f 55//2 54//2 40//2
f 55//49 59//61 48//49
f 48//50 59//62 55//50
f 49//2 48//2 60//2
f 60//1 48//1 49//1
f 49//55 61//63 54//55
f 54//56 61//64 49//56
f 43//2 56//2 57//2
f 57//1 56//1 43//1
f 57//51 62//65 51//51
f 51//52 62//66 57//52
f 52//1 51//1 63//1
f 63//2 51//2 52//2
f 52//57 64//67 56//57
f 56//58 64//68 52//58
f 47//43 53//59 58//59
f 58//60 53//60 47//44
f 55//1 54//1 61//1
f 61//2 54//2 55//2
f 59//61 55//49 65//61
f 65//62 55//50 59//62
f 66//2 48//2 59//2
f 59//1 48//1 66//1
f 60//2 48//2 66//2
f 66//1 48//1 60//1
f 61//63 49//55 60//63
f 60//64 49//56 61//64
f 57//2 56//2 64//2
f 64//1 56//1 57//1
f 62//65 57//51 67//65
f 67//66 57//52 62//66
f 68//1 51//1 62//1
f 62//2 51//2 68//2
f 63//1 51//1 68//1
f 68//2 51//2 63//2
f 64//67 52//57 63//67
f 63//68 52//58 64//68
f 55//1 61//1 69//1
f 69//2 61//2 55//2
f 55//1 69//1 65//1
f 65//2 69//2 55//2
f 65//61 70//69 59//61
f 59//62 70//70 65//62
f 66//2 59//2 71//2
f 71//1 59//1 66//1
f 69//71 60//63 66//71
f 66//72 60//64 69//72
f 60//63 69//71 61//63
f 61//64 69//72 60//64
f 57//2 64//2 72//2
f 72//1 64//1 57//1
f 57//2 72//2 67//2
f 67//1 72//1 57//1
f 67//65 73//73 62//65
f 62//66 73//74 67//66
f 68//1 62//1 73//1
f 73//2 62//2 68//2
f 72//75 63//67 68//75
f 68//76 63//68 72//76
f 63//67 72//75 64//67
f 64//68 72//76 63//68
f 65//1 69//1 74//1
f 74//2 69//2 65//2
f 70//69 65//61 75//69
f 75//70 65//62 70//70
f 71//2 59//2 70//2
f 70//1 59//1 71//1
f 74//77 66//71 71//77
f 71//78 66//72 74//78
f 66//71 74//77 69//71
f 69//72 74//78 66//72
f 67//2 72//2 76//2
f 76//1 72//1 67//1
f 73//73 67//65 76//73
f 76//74 67//66 73//74
f 68//1 73//1 77//1
f 77//2 73//2 68//2
f 68//75 78//79 72//75
f 72//76 78//80 68//76
f 65//1 74//1 75//1
f 75//2 74//2 65//2
f 75//69 79//81 70//69
f 70//70 79//82 75//70
f 71//2 70//2 80//2
f 80//1 70//1 71//1
f 71//77 81//83 74//77
f 74//78 81//84 71//78
f 76//2 72//2 78//2
f 78//1 72//1 76//1
f 76//73 82//85 73//73
f 73//74 82//86 76//74
f 77//1 73//1 82//1
f 82//2 73//2 77//2
f 78//79 68//75 77//79
f 77//80 68//76 78//80
f 75//1 74//1 81//1
f 81//2 74//2 75//2
f 79//81 75//69 83//81
f 83//82 75//70 79//82
f 80//2 70//2 79//2
f 79//1 70//1 80//1
f 81//83 71//77 80//83
f 80//84 71//78 81//84
f 76//2 78//2 84//2
f 84//1 78//1 76//1
f 82//85 76//73 84//85
f 84//86 76//74 82//86
f 77//1 82//1 85//1
f 85//2 82//2 77//2
f 77//79 86//87 78//79
f 78//80 86//88 77//80
f 75//1 81//1 83//1
f 83//2 81//2 75//2
f 83//81 87//89 79//81
f 79//82 87//90 83//82
f 80//2 79//2 88//2
f 88//1 79//1 80//1
f 80//83 89//91 81//83
f 81//84 89//92 80//84
f 84//2 78//2 86//2
f 86//1 78//1 84//1
f 84//85 90//93 82//85
f 82//86 90//94 84//86
f 85//1 82//1 90//1
f 90//2 82//2 85//2
f 86//87 77//79 85//87
f 85//88 77//80 86//88
f 83//1 81//1 89//1
f 89//2 81//2 83//2
f 87//89 83//81 91//89
f 91//90 83//82 87//90
f 88//2 79//2 87//2
f 87//1 79//1 88//1
f 89//91 80//83 88//91
f 88//92 80//84 89//92
f 84//2 86//2 92//2
f 92//1 86//1 84//1
f 90//93 84//85 92//93
f 92//94 84//86 90//94
f 85//1 90//1 93//1
f 93//2 90//2 85//2
f 93//95 86//87 85//87
f 85//88 86//88 93//96
f 83//1 89//1 91//1
f 91//2 89//2 83//2
f 91//89 94//97 87//89
f 87//90 94//98 91//90
f 88//2 87//2 95//2
f 95//1 87//1 88//1
f 88//91 96//99 89//91
f 89//92 96//100 88//92
f 92//2 86//2 97//2
f 97//1 86//1 92//1
f 92//93 98//101 90//93
f 90//94 98//102 92//94
f 93//1 90//1 99//1
f 99//2 90//2 93//2
f 86//87 93//95 97//95
f 97//96 93//96 86//88
f 91//1 89//1 96//1
f 96//2 89//2 91//2
f 94//97 91//89 100//97
f 100//98 91//90 94//98
f 95//2 87//2 94//2
f 94//1 87//1 95//1
f 96//99 88//91 95//99
f 95//100 88//92 96//100
f 92//2 97//2 101//2
f 101//1 97//1 92//1
f 98//101 92//93 102//101
f 102//102 92//94 98//102
f 99//1 90//1 98//1
f 98//2 90//2 99//2
f 101//103 93//103 99//103
f 99//104 93//104 101//104
f 93//103 101//103 97//103
f 97//104 101//104 93//104
f 91//1 96//1 100//1
f 100//2 96//2 91//2
f 100//97 103//105 94//97
f 94//98 103//106 100//98
f 95//2 94//2 104//2
f 104//1 94//1 95//1
f 104//107 96//99 95//99
f 95//100 96//100 104//108
f 92//2 101//2 102//2
f 102//1 101//1 92//1
f 105//109 98//101 102//101
f 102//102 98//102 105//110
f 99//1 98//1 106//1
f 106//2 98//2 99//2
f 107//111 101//112 99//112
f 99//113 101//113 107//114
f 100//1 96//1 108//1
f 108//2 96//2 100//2
f 103//105 100//97 109//105
f 109//106 100//98 103//106
f 110//2 94//2 103//2
f 103//1 94//1 110//1
f 104//2 94//2 110//2
f 110//1 94//1 104//1
f 96//99 104//107 108//107
f 108//108 104//108 96//100
f 102//2 101//2 105//2
f 105//1 101//1 102//1
f 98//101 105//109 106//109
f 106//110 105//110 98//102
f 99//1 106//1 107//1
f 107//2 106//2 99//2
f 101//112 107//111 111//111
f 111//114 107//114 101//113
f 100//1 108//1 112//1
f 112//2 108//2 100//2
f 100//1 112//1 109//1
f 109//2 112//2 100//2
f 113//115 103//105 109//105
f 109//106 103//106 113//116
f 110//2 103//2 114//2
f 114//1 103//1 110//1
f 112//104 104//104 110//104
f 110//103 104//103 112//103
f 104//104 112//104 108//104
f 108//103 112//103 104//103
f 105//2 101//2 111//2
f 111//1 101//1 105//1
f 111//111 106//109 105//109
f 105//110 106//110 111//114
f 106//109 111//111 107//111
f 107//114 111//114 106//110
f 109//1 112//1 113//1
f 113//2 112//2 109//2
f 103//105 113//115 114//115
f 114//116 113//116 103//106
f 110//2 114//2 115//2
f 115//1 114//1 110//1
f 115//117 112//118 110//118
f 110//119 112//119 115//120
f 113//1 112//1 116//1
f 116//2 112//2 113//2
f 116//117 114//115 113//115
f 113//116 114//116 116//120
f 114//115 116//117 115//117
f 115//120 116//120 114//116
f 112//118 115//117 116//117
f 116//120 115//120 112//119
