# SSTK version 0.8.0
# 48
mtllib original-48.mtl
o __HROZ._Face_Framing2/__HROZ._Face_Framing/mesh108/mesh108-geometry#mesh108-geometry
v -0.710179 -0.576809 -0.183529
v -0.710179 -0.576809 -0.208468
v 0.744636 -0.576809 -0.183529
v -0.710179 -0.526929 -0.208468
v 0.744636 -0.576809 -0.208468
v -0.710179 -0.526929 -0.183529
v 0.744636 -0.526929 -0.208468
v 0.744636 -0.526929 -0.183529
vt -1.32236 0.918447
vt -1.311367 0.918447
vt -1.322361 0.082096
vt 0 0
vt -0.028604 0
vt 0 0.074613
vt -1.311368 0.082096
vt -0.090035 0.975919
vt -0.090035 -0.005361
vt -0.115831 0.975919
vt -0.028604 0.074613
vt 0.028604 0
vt -0.115831 -0.005361
vt 0.028604 0.074613
vt 0.09146 -0.021339
vt 0.09146 -0.91791
vt 0.047352 -0.021339
vt 0.047352 -0.91791
vt -0.00118 -0.017062
vt 0.020766 -0.017062
vt -0.001181 -0.909264
vt 0.020766 -0.909264
vn 0 -1 0
vn -1 0 0
vn 0 0 1
vn 1 0 0
vn 0 1 0
vn 0 0 -1
usemtl material_0_0
f 1/1/1 2/2/1 3/3/1
f 2/4/2 1/5/2 4/6/2
f 5/7/1 3/3/1 2/2/1
f 1/8/3 3/9/3 6/10/3
f 6/11/2 4/6/2 1/5/2
f 5/4/4 7/6/4 3/12/4
f 8/13/3 6/10/3 3/9/3
f 8/14/4 3/12/4 7/6/4
usemtl material_1_0
f 3//5 2//5 1//5
f 4//4 1//4 2//4
f 2//5 3//5 5//5
f 6//6 3//6 1//6
f 1//4 4//4 6//4
f 2//3 7//3 4//3
f 3//2 7//2 5//2
f 7//3 2//3 5//3
f 3//6 6//6 8//6
f 7//1 6//1 4//1
f 7//2 3//2 8//2
f 6//1 7//1 8//1
usemtl material_2_0
f 4/15/6 7/16/6 2/17/6
f 5/18/6 2/17/6 7/16/6
f 4/19/5 6/20/5 7/21/5
f 8/22/5 7/21/5 6/20/5
