# SSTK version 0.8.0
# 140
mtllib original-140.mtl
o mesh132/mesh132-geometry#mesh132-geometry
v 0.004238 -0.044002 0.240684
v -0.003898 -0.039467 0.233467
v -0.003898 -0.044002 0.240684
v 0.004238 -0.039467 0.233467
v -0.003898 -0.058890 0.234760
v -0.003898 -0.053651 0.240684
v 0.004238 -0.047823 0.233771
v -0.003898 -0.039467 -0.255434
v -0.003898 -0.047823 0.233771
v 0.004238 -0.053651 0.240684
v 0.004238 -0.048114 0.236334
v 0.004238 -0.046380 0.231475
v 0.004238 -0.039467 -0.255434
v -0.003898 -0.046380 0.231475
v 0.004238 -0.058890 0.234760
v -0.003898 -0.050537 0.233771
v 0.004238 -0.050537 0.233771
v -0.003898 -0.016275 -0.296162
v -0.003865 -0.046380 0.229504
v 0.004238 -0.053711 0.230181
v -0.003898 -0.053711 0.230181
v 0.004238 -0.046380 -0.257264
v 0.004238 -0.016275 -0.296162
v -0.003898 -0.046380 -0.257264
v 0.004238 -0.022282 -0.299583
v -0.003898 -0.022282 -0.299583
vn 0 0.846707935384333 0.5320579593965307
vn 0 -0.846707935384333 -0.5320579593965307
vn -0.9999999610418532 0.0002789338497159749 0.000010592424672758603
vn 0.9999999610418532 -0.0002789338497159749 -0.000010592424672758603
vn 0 0.000012999999998679455 1
vn 0 -0.000012999999998679455 -1
vn 1 0 0
vn -1 0 0
vn 0 1 0
vn 0 -1 0
vn 0 -0.7491182876539866 0.662436254368946
vn 0 0.7491182876539866 -0.662436254368946
vn 0 -0.8467445363969088 -0.5319997087235895
vn 0 0.8467445363969088 0.5319997087235895
vn 0 0.8689898483612846 0.49482991365218776
vn 0 -0.8689898483612846 -0.49482991365218776
vn 0 -0.6624299098181228 -0.7491238980157778
vn 0 0.6624299098181228 0.7491238980157778
vn 0 0 -1
vn 0 0 1
vn 0 0.7491210928423285 -0.6624330820986489
vn 0 -0.7491210928423285 0.6624330820986489
vn 0 0.4948139612568108 -0.8689989319586897
vn 0 -0.4948139612568108 0.8689989319586897
vn 0 -0.8689880686357218 -0.4948330390836471
vn 0 0.8689880686357218 0.4948330390836471
usemtl material_0_0
f 1//1 2//1 3//1
f 2//1 1//1 4//1
f 3//2 2//2 1//2
f 4//2 1//2 2//2
f 5//3 3//3 2//3
f 2//4 3//4 5//4
f 6//5 1//5 3//5
f 3//6 1//6 6//6
f 4//7 1//7 7//7
f 7//8 1//8 4//8
f 4//9 8//9 2//9
f 2//10 8//10 4//10
f 3//3 5//3 6//3
f 6//4 5//4 3//4
f 5//3 2//3 9//3
f 9//4 2//4 5//4
f 1//5 6//5 10//5
f 10//6 6//6 1//6
f 11//7 7//7 1//7
f 1//8 7//8 11//8
f 12//7 4//7 7//7
f 7//8 4//8 12//8
f 8//9 4//9 13//9
f 13//10 4//10 8//10
f 14//3 2//3 8//3
f 8//4 2//4 14//4
f 15//11 6//11 5//11
f 5//12 6//12 15//12
f 9//3 2//3 14//3
f 14//4 2//4 9//4
f 16//3 5//3 9//3
f 9//4 5//4 16//4
f 10//11 6//11 15//11
f 15//12 6//12 10//12
f 17//7 1//7 10//7
f 10//8 1//8 17//8
f 7//7 11//7 17//7
f 17//8 11//8 7//8
f 1//7 17//7 11//7
f 11//8 17//8 1//8
f 12//7 13//7 4//7
f 4//8 13//8 12//8
f 7//13 9//13 12//13
f 12//14 9//14 7//14
f 13//15 18//15 8//15
f 8//16 18//16 13//16
f 14//3 8//3 19//3
f 19//4 8//4 14//4
f 20//17 15//17 5//17
f 5//18 15//18 20//18
f 12//13 9//13 14//13
f 14//14 9//14 12//14
f 5//3 16//3 21//3
f 21//4 16//4 5//4
f 7//19 16//19 9//19
f 9//20 16//20 7//20
f 20//7 10//7 15//7
f 15//8 10//8 20//8
f 20//7 17//7 10//7
f 10//8 17//8 20//8
f 7//19 17//19 16//19
f 16//20 17//20 7//20
f 13//7 12//7 22//7
f 22//8 12//8 13//8
f 18//15 13//15 23//15
f 23//16 13//16 18//16
f 18//8 24//8 8//8
f 8//7 24//7 18//7
f 19//3 8//3 24//3
f 24//4 8//4 19//4
f 19//10 12//10 14//10
f 14//9 12//9 19//9
f 20//17 5//17 21//17
f 21//18 5//18 20//18
f 17//21 21//21 16//21
f 16//22 21//22 17//22
f 20//21 21//21 17//21
f 17//22 21//22 20//22
f 12//10 19//10 22//10
f 22//9 19//9 12//9
f 22//7 23//7 13//7
f 13//8 23//8 22//8
f 23//23 25//23 18//23
f 18//24 25//24 23//24
f 24//8 18//8 26//8
f 26//7 18//7 24//7
f 22//10 19//10 24//10
f 24//9 19//9 22//9
f 23//7 22//7 25//7
f 25//8 22//8 23//8
f 18//23 25//23 26//23
f 26//24 25//24 18//24
f 25//25 24//25 26//25
f 26//26 24//26 25//26
f 22//25 24//25 25//25
f 25//26 24//26 22//26
