# Blender v2.93.4 OBJ File: ''
# www.blender.org
mtllib original-22-bottom.mtl
o mesh39/mesh39-geometry#mesh39-geometry.003
v -0.376423 -0.052045 -0.532851
v -0.192302 -0.075467 -0.532851
v -0.376423 -0.075467 -0.532851
v -0.189049 -0.075467 -0.532851
v -0.353001 -0.075467 -0.509429
v -0.376423 -0.075467 0.591393
v 0.185700 -0.075467 -0.532851
v -0.094139 -0.044238 -0.525044
v -0.192302 -0.075467 -0.509429
v -0.376423 -0.052045 0.591393
v 0.188953 -0.075467 -0.532851
v -0.189049 -0.075467 -0.509429
v -0.205183 -0.044238 0.591393
v -0.060570 -0.044238 0.591393
v -0.353001 -0.075467 0.567972
v 0.349652 -0.052045 -0.509429
v 0.373074 -0.052045 0.591393
v -0.116995 -0.044238 -0.156557
v -0.353001 -0.052045 0.040982
v 0.373074 -0.075467 -0.532851
v -0.376423 -0.064257 0.053336
v 0.185700 -0.075467 -0.509429
v 0.091392 -0.044238 0.591393
v -0.365561 -0.052045 -0.266736
v -0.367079 -0.052045 -0.303931
v 0.373074 -0.075467 0.591393
v -0.353001 -0.075467 0.017560
v -0.353001 -0.052045 -0.509429
v 0.365266 -0.044238 0.591393
v -0.376423 -0.075467 0.058083
v 0.373074 -0.052045 -0.532851
v -0.353001 -0.052045 0.017560
v 0.188953 -0.075467 -0.509429
v 0.349652 -0.075467 0.567972
v -0.353001 -0.075467 0.040982
v 0.349652 -0.052045 0.040982
v -0.123251 -0.044238 -0.151777
v -0.368615 -0.044238 0.591393
v 0.365266 -0.044238 0.465400
v -0.365038 -0.052045 -0.265310
v -0.084793 -0.044238 -0.093271
v 0.349652 -0.075467 -0.509429
v -0.376423 -0.064751 0.077012
v -0.353001 -0.052045 0.567972
v -0.157820 -0.075467 0.017560
v 0.349652 -0.052045 0.017560
v -0.005138 -0.044238 0.027905
v -0.273648 -0.044238 -0.380573
v -0.366695 -0.052045 -0.304240
v 0.191116 -0.044238 -0.525044
v 0.349652 -0.075467 0.017560
v 0.349652 -0.052045 0.567972
v 0.349652 -0.075467 0.040982
v -0.138301 -0.075467 0.017560
v -0.157820 -0.075467 0.040982
v 0.068557 -0.044238 0.140016
v 0.239148 -0.044238 0.399533
v -0.368615 -0.044238 -0.525044
v -0.150971 -0.044238 -0.193946
v 0.295930 -0.044238 0.485914
v -0.376423 -0.052045 0.099455
v -0.376423 -0.052045 0.048163
v -0.368615 -0.044238 -0.304158
v -0.114880 -0.075467 0.017560
v -0.138301 -0.098889 0.017560
v -0.157820 -0.098889 0.040982
v -0.138301 -0.075467 0.040982
v -0.368615 -0.044238 -0.248558
v -0.368615 -0.044238 -0.103619
v 0.365266 -0.044238 -0.525044
v -0.376423 -0.052045 -0.296404
v -0.125251 -0.044238 -0.154820
v 0.365266 -0.044238 -0.258022
v 0.154471 -0.075467 0.017560
v 0.154471 -0.075467 0.040982
v -0.095362 -0.075467 0.017560
v -0.157820 -0.098889 0.017560
v -0.114880 -0.075467 0.040982
v -0.008870 -0.044238 -0.525044
v -0.368615 -0.044238 0.039597
v 0.365266 -0.044238 -0.049803
v 0.365266 -0.044238 0.235825
v -0.368615 -0.044238 0.104157
v 0.134952 -0.075467 0.017560
v 0.134952 -0.075467 0.040982
v -0.071940 -0.075467 0.017560
v -0.095362 -0.098889 0.017560
v -0.138301 -0.098889 0.040982
v -0.095362 -0.075467 0.040982
v -0.368615 -0.044238 0.315006
v -0.368615 -0.044238 0.419767
v 0.111531 -0.075467 0.017560
v 0.154471 -0.098889 0.017560
v 0.111531 -0.075467 0.040982
v 0.134952 -0.098889 0.040982
v 0.068591 -0.075467 0.017560
v -0.071940 -0.075467 0.040982
v -0.114880 -0.098889 0.017560
v -0.114880 -0.098889 0.040982
v 0.092012 -0.075467 0.017560
v 0.134952 -0.098889 0.017560
v 0.154471 -0.098889 0.040982
v 0.092012 -0.075467 0.040982
v 0.068591 -0.075467 0.040982
v -0.071940 -0.098889 0.040982
v -0.095362 -0.098889 0.040982
v 0.111531 -0.098889 0.017560
v 0.092012 -0.098889 0.040982
v 0.068591 -0.098889 0.017560
v -0.071940 -0.098889 0.017560
v 0.092012 -0.098889 0.017560
v 0.111531 -0.098889 0.040982
v 0.068591 -0.098889 0.040982
v 0.277864 -0.044238 -0.031466
v 0.240816 -0.044238 0.029814
v 0.332370 -0.044238 0.278526
v 0.308273 -0.044238 0.141480
v 0.283803 -0.044238 0.002313
v 0.212141 -0.044238 -0.017678
v 0.100644 -0.044238 -0.202346
v 0.050855 -0.044238 -0.284809
v 0.211709 -0.044238 -0.407714
v -0.044531 -0.044238 -0.442851
v 0.242569 -0.044238 -0.232205
v 0.249001 -0.044238 -0.436208
v -0.072000 -0.044238 -0.166024
v -0.066939 -0.044238 -0.194804
v -0.028108 -0.044238 -0.415639
v -0.340154 -0.044238 0.017399
v -0.109967 -0.044238 0.049897
v -0.261641 -0.044238 0.351313
v 0.024216 -0.044238 0.566330
v 0.136223 -0.044238 0.533180
v -0.319270 -0.044238 -0.114001
v -0.286446 -0.044238 -0.024492
v -0.191900 -0.044238 -0.098234
v -0.257356 -0.044238 0.054833
v -0.248508 -0.044238 0.078960
v -0.269563 -0.044238 0.083377
v -0.170111 -0.044238 0.292742
v -0.150458 -0.044238 0.280165
v -0.158322 -0.044238 0.324890
v -0.084681 -0.044238 0.525701
v -0.186925 -0.044238 0.487555
v -0.171899 -0.044238 -0.145006
v -0.322052 -0.044238 0.094389
v -0.305101 -0.044238 0.166480
v -0.233711 -0.044238 0.470099
vt 0.345739 0.654468
vt 0.345739 0.654468
vt 0.345739 0.654468
vt 0.345739 0.654468
vt 0.345739 0.654468
vt 0.345739 0.654468
vt 0.345739 0.654468
vt 0.345739 0.654468
vt 0.345739 0.654468
vt 0.345739 0.654468
vt 0.345739 0.654468
vt 0.345739 0.654468
vt 0.345739 0.654468
vt 0.345739 0.654468
vt 0.345739 0.654468
vt 0.345739 0.654468
vt 0.345739 0.654468
vt 0.345739 0.654468
vt 0.345739 0.654468
vt 0.345739 0.654468
vt 0.345739 0.654468
vt 0.345739 0.654468
vt 0.345739 0.654468
vt 0.345739 0.654468
vt 0.345739 0.654468
vt 0.345739 0.654468
vt 0.345739 0.654468
vt 0.345739 0.654468
vt 0.345739 0.654468
vt 0.345739 0.654468
vt 0.345739 0.654468
vt 0.345739 0.654468
vt 0.345739 0.654468
vt 0.345739 0.654468
vt 0.345739 0.654468
vt 0.345739 0.654468
vt 0.345739 0.654468
vt 0.345739 0.654468
vt 0.345739 0.654468
vt 0.345739 0.654468
vt 0.345739 0.654468
vt 0.345739 0.654468
vt 0.345739 0.654468
vt 0.345739 0.654468
vt 0.345739 0.654468
vt 0.345739 0.654468
vt 0.345739 0.654468
vt 0.345739 0.654468
vt 0.345739 0.654468
vt 0.345739 0.654468
vt 0.345739 0.654468
vt 0.345739 0.654468
vt 0.345739 0.654468
vt 0.345739 0.654468
vt 0.345739 0.654468
vt 0.345739 0.654468
vt 0.345739 0.654468
vt 0.345739 0.654468
vt 0.345739 0.654468
vt 0.345739 0.654468
vt 0.345739 0.654468
vt 0.345739 0.654468
vt 0.345739 0.654468
vt 0.345739 0.654468
vt 0.345739 0.654468
vt 0.345739 0.654468
vt 0.345739 0.654468
vt 0.345739 0.654468
vt 0.345739 0.654468
vt 0.345739 0.654468
vt 0.345739 0.654468
vt 0.345739 0.654468
vt 0.345739 0.654468
vt 0.345739 0.654468
vt 0.345739 0.654468
vt 0.345739 0.654468
vt 0.345739 0.654468
vt 0.345739 0.654468
vt 0.345739 0.654468
vt 0.345739 0.654468
vt 0.345739 0.654468
vt 0.345739 0.654468
vt 0.345739 0.654468
vt 0.345739 0.654468
vt 0.345739 0.654468
vt 0.345739 0.654468
vt 0.345739 0.654468
vt 0.345739 0.654468
vt 0.345739 0.654468
vt 0.345739 0.654468
vt 0.345739 0.654468
vt 0.345739 0.654468
vt 0.345739 0.654468
vt 0.345739 0.654468
vt 0.345739 0.654468
vt 0.345739 0.654468
vt 0.345739 0.654468
vt 0.345739 0.654468
vt 0.345739 0.654468
vt 0.345739 0.654468
vt 0.345739 0.654468
vt 0.345739 0.654468
vt 0.345739 0.654468
vt 0.345739 0.654468
vt 0.345739 0.654468
vt 0.345739 0.654468
vt 0.345739 0.654468
vt 0.345739 0.654468
vt 0.345739 0.654468
vt 0.345739 0.654468
vt 0.345739 0.654468
vt 0.345739 0.654468
vt 0.345739 0.654468
vt 0.345739 0.654468
vt 0.345739 0.654468
vt 0.345739 0.654468
vt 0.345739 0.654468
vt 0.345739 0.654468
vt 0.345739 0.654468
vt 0.345739 0.654468
vt 0.345739 0.654468
vt 0.345739 0.654468
vt 0.345739 0.654468
vt 0.345739 0.654468
vt 0.345739 0.654468
vt 0.345739 0.654468
vt 0.345739 0.654468
vt 0.345739 0.654468
vt 0.345739 0.654468
vt 0.345739 0.654468
vt 0.345739 0.654468
vt 0.345739 0.654468
vt 0.345739 0.654468
vt 0.345739 0.654468
vt 0.345739 0.654468
vt 0.345739 0.654468
vt 0.345739 0.654468
vt 0.345739 0.654468
vt 0.345739 0.654468
vt 0.345739 0.654468
vt 0.345739 0.654468
vt 0.345739 0.654468
vt 0.345739 0.654468
vt 0.345739 0.654468
vt 0.345739 0.654468
vt 0.345739 0.654468
vt 0.345739 0.654468
vt 0.345739 0.654468
vn 0.0000 0.0000 -1.0000
vn 0.0000 -1.0000 -0.0000
vn -1.0000 0.0000 0.0000
vn 0.0000 0.0000 1.0000
vn -0.0000 -0.6264 0.7795
vn 0.0000 -0.9669 0.2553
vn 1.0000 0.0000 0.0000
vn 0.0000 1.0000 0.0000
vn 0.6775 -0.7354 0.0129
vn 0.5262 0.8504 0.0007
vn -0.7246 0.5262 -0.4452
vn 0.7355 0.6775 -0.0061
vn 0.4327 -0.8858 0.1675
vn 0.3537 -0.9352 -0.0145
vn 0.0270 -0.7493 0.6617
vn -0.1463 -0.9352 0.3224
vn -0.0689 -0.9352 -0.3473
vn 0.0000 -0.7493 0.6622
vn -0.3224 -0.9352 -0.1463
vn 0.0001 -0.0000 -1.0000
vn -0.0001 0.0000 1.0000
vn -0.3324 -0.9352 0.1219
vn -0.2974 -0.8858 0.3562
vn 0.0000 -0.9183 0.3959
vn 0.6622 -0.0000 0.7493
vn 0.0460 0.9989 0.0000
vn 0.0672 0.9977 0.0000
vn -0.9183 -0.3959 -0.0000
vn 0.3472 -0.9352 -0.0690
usemtl material_0_0.003
s 1
f 1/1/1 2/2/1 3/3/1
f 2/2/1 1/1/1 4/4/1
f 5/5/2 3/3/2 2/2/2
f 4/4/1 1/1/1 7/6/1
f 3/3/2 5/5/2 6/7/2 30/8/2
f 1/1/3 21/9/3 62/10/3 71/11/3
f 9/12/2 4/4/2 12/13/2
f 15/14/2 6/7/2 5/5/2
f 6/7/4 17/15/4 10/16/4
f 11/17/1 1/1/1 20/18/1
f 11/17/2 22/19/5 7/6/2
f 17/15/4 6/7/4 26/20/4
f 17/15/4 29/21/4 10/16/4
f 22/19/5 11/17/2 33/22/6
f 26/20/2 15/14/2 34/23/2
f 32/24/7 5/5/7 28/25/7
f 20/18/7 17/15/7 26/20/7
f 19/26/8 17/15/8 36/27/8
f 36/27/8 32/24/8 19/26/8
f 17/15/9 20/18/7 31/28/10
f 33/22/2 20/18/2 42/29/2
f 33/22/6 16/30/4 22/19/5
f 44/31/1 34/23/1 15/14/1
f 32/24/8 36/27/8 46/32/8
f 31/28/11 46/32/8 17/15/12
f 42/29/2 20/18/2 51/33/2
f 34/23/1 44/31/1 52/34/1
f 53/35/2 20/18/2 34/23/2
f 45/36/1 32/24/1 54/37/1
f 35/38/2 45/36/2 55/39/2
f 51/33/2 20/18/2 53/35/2
f 36/27/3 34/23/3 52/34/3
f 67/40/4 36/27/4 55/39/4
f 16/30/3 51/33/3 46/32/3
f 75/41/2 51/33/2 53/35/2
f 36/27/4 75/41/4 53/35/4
f 64/42/2 67/40/2 54/37/2
f 67/40/7 65/43/7 54/37/7
f 66/44/4 67/40/4 55/39/4
f 78/45/4 36/27/4 67/40/4
f 51/33/2 75/41/2 74/46/2
f 87/47/1 64/42/1 76/48/1
f 65/43/2 66/44/2 77/49/2
f 67/40/4 66/44/4 88/50/4
f 89/51/4 36/27/4 78/45/4
f 61/52/3 43/53/3 6/7/3 10/16/3
f 93/54/1 84/55/1 74/46/1
f 75/41/7 93/54/7 74/46/7
f 85/56/4 36/27/4 94/57/4
f 95/58/4 75/41/4 85/56/4
f 89/51/7 87/47/7 76/48/7
f 97/59/4 36/27/4 89/51/4
f 84/55/1 93/54/1 101/60/1
f 84/55/3 95/58/3 85/56/3
f 89/51/2 76/48/2 97/59/2
f 86/61/3 105/62/3 97/59/3
f 104/63/4 36/27/4 97/59/4
f 89/51/4 99/64/4 106/65/4
f 95/58/3 84/55/3 101/60/3
f 108/66/4 94/57/4 103/67/4
f 100/68/2 103/67/2 96/69/2
f 104/63/2 96/69/2 103/67/2
f 107/70/2 108/66/2 111/71/2
f 108/66/3 100/68/3 111/71/3
f 108/66/2 107/70/2 112/72/2
f 62/10/3 21/9/3 43/53/3 61/52/3
usemtl material_1_0.003
f 119/73/2 114/74/2 118/75/2 115/76/2
f 115/76/2 118/75/2 117/77/2
f 119/73/2 47/78/2 41/79/2 126/80/2 120/81/2
f 18/82/2 127/83/2 126/80/2
f 8/84/2 48/85/2 58/86/2
f 121/87/2 127/83/2 128/88/2
f 115/76/2 56/89/2 47/78/2 119/73/2
f 50/90/2 125/91/2 122/92/2
f 8/84/2 79/93/2 123/94/2
f 120/81/2 126/80/2 127/83/2 121/87/2
f 60/95/2 57/96/2 116/97/2 39/98/2
f 57/96/2 56/89/2 115/76/2 117/77/2 116/97/2
f 117/77/2 82/99/2 116/97/2
f 116/97/2 82/99/2 39/98/2
f 147/100/2 146/101/2 139/102/2
f 49/103/13 25/104/14 1/1/15
f 131/105/2 148/106/2 91/107/2
f 72/108/2 145/109/2 59/110/2
f 60/95/2 133/111/2 57/96/2
f 83/112/2 146/101/2 147/100/2 90/113/2
f 139/102/2 137/114/2 138/115/2
f 143/116/2 144/117/2 142/118/2
f 143/116/2 132/119/2 14/120/2
f 135/121/2 136/122/2 137/114/2
f 41/79/2 47/78/2 130/123/2
f 142/118/2 140/124/2 141/125/2
f 71/11/2 25/104/16 24/126/17
f 13/127/2 148/106/2 144/117/2
f 3/3/7 1/1/7 21/9/7 30/8/7
f 2/2/8 9/12/8 4/4/8
f 9/12/8 2/2/8 5/5/8
f 11/17/4 1/1/4 7/6/4
f 4/4/8 12/13/8 7/6/8
f 120/81/2 124/128/2 114/74/2 119/73/2
f 79/93/2 50/90/2 122/92/2 121/87/2 128/88/2
f 5/5/1 16/30/1 9/12/1
f 1/1/18 25/104/19 71/11/2
f 22/19/8 7/6/8 12/13/8
f 121/87/2 122/92/2 124/128/2 120/81/2
f 9/12/1 16/30/1 12/13/1
f 79/93/2 128/88/2 123/94/2
f 26/20/8 15/14/8 6/7/8
f 27/129/4 5/5/20 15/14/21
f 28/25/1 16/30/1 5/5/1
f 17/15/2 10/16/2 19/26/2
f 19/26/2 24/126/22 40/130/23 32/24/2
f 31/28/24 1/1/25 20/18/4
f 11/17/8 33/22/8 20/18/8
f 12/13/1 16/30/1 22/19/1
f 72/108/2 18/82/2 37/131/2
f 123/94/2 59/110/2 48/85/2 8/84/2
f 37/131/2 18/82/2 126/80/2 41/79/2
f 128/88/2 127/83/2 18/82/2 72/108/2 59/110/2 123/94/2
f 27/129/3 32/24/3 5/5/3
f 35/38/26 27/129/8 15/14/27
f 135/121/2 129/132/2 69/133/2 134/134/2
f 29/21/1 10/16/1 38/135/1 13/127/1 14/120/1 23/136/1
f 31/28/28 32/24/2 40/130/23 49/103/13 1/1/15
f 122/92/2 125/91/2 73/137/2 124/128/2
f 114/74/2 81/138/2 118/75/2
f 124/128/2 73/137/2 81/138/2 114/74/2
f 20/18/8 34/23/8 26/20/8
f 27/129/4 45/36/4 32/24/4
f 27/129/8 35/38/26 45/36/8
f 15/14/3 44/31/3 35/38/3
f 46/32/2 17/15/2 36/27/2
f 19/26/1 36/27/1 35/38/1
f 80/139/2 129/132/2 146/101/2 83/112/2
f 135/121/2 134/134/2 145/109/2 136/122/2
f 38/135/2 91/107/2 148/106/2 13/127/2
f 37/131/2 136/122/2 145/109/2 72/108/2
f 46/32/2 32/24/2 31/28/28
f 42/29/1 33/22/1 16/30/1
f 118/75/2 81/138/2 82/99/2 117/77/2
f 39/98/2 29/21/2 60/95/2
f 19/26/3 35/38/3 44/31/3
f 35/38/1 36/27/1 55/39/1
f 69/133/2 129/132/2 80/139/2
f 139/102/2 146/101/2 129/132/2 135/121/2 137/114/2
f 23/136/2 132/119/2 133/111/2
f 70/140/2 125/91/2 50/90/2
f 43/53/7 30/8/7 21/9/7
f 30/8/7 43/53/7 6/7/7
f 59/110/2 145/109/2 134/134/2 68/141/2 63/142/2 48/85/2
f 46/32/4 32/24/4 51/33/4
f 42/29/7 16/30/7 51/33/7
f 53/35/7 36/27/7 34/23/7
f 64/42/4 32/24/4 54/37/4
f 54/37/4 45/36/4 65/43/4
f 55/39/7 66/44/7 45/36/7
f 90/113/2 147/100/2 131/105/2 91/107/2
f 48/85/2 63/142/2 58/86/2
f 23/136/2 133/111/2 60/95/2 29/21/2
f 14/120/2 132/119/2 23/136/2
f 14/120/2 13/127/2 144/117/2 143/116/2
f 40/130/23 24/126/29 25/104/14 49/103/13
f 51/33/4 32/24/4 74/46/4
f 76/48/4 32/24/4 64/42/4
f 77/49/4 65/43/4 45/36/4
f 77/49/7 45/36/7 66/44/7
f 68/141/2 134/134/2 69/133/2
f 139/102/2 138/115/2 140/124/2 131/105/2 147/100/2
f 56/89/2 57/96/2 133/111/2 132/119/2 143/116/2 142/118/2 141/125/2
f 24/126/22 19/26/2 10/16/2 61/52/2 62/10/2 71/11/2
f 74/46/4 32/24/4 84/55/4
f 85/56/1 36/27/1 75/41/1
f 86/61/4 32/24/4 76/48/4
f 78/45/8 64/42/8 67/40/8
f 88/50/3 67/40/3 65/43/3
f 47/78/2 56/89/2 141/125/2 130/123/2
f 144/117/2 148/106/2 131/105/2 140/124/2 142/118/2
f 84/55/4 32/24/4 92/143/4
f 96/69/4 32/24/4 86/61/4
f 76/48/8 97/59/8 86/61/8
f 98/144/4 87/47/4 64/42/4
f 78/45/7 99/64/7 64/42/7
f 88/50/8 65/43/8 66/44/8
f 78/45/1 89/51/1 99/64/1
f 141/125/2 140/124/2 138/115/2 130/123/2
f 73/137/2 125/91/2 70/140/2
f 130/123/2 138/115/2 137/114/2 136/122/2 37/131/2 41/79/2
f 92/143/4 32/24/4 100/68/4
f 92/143/8 94/57/8 84/55/8
f 102/145/3 75/41/3 93/54/3
f 103/67/1 36/27/1 94/57/1
f 85/56/8 84/55/8 94/57/8
f 102/145/1 95/58/1 75/41/1
f 100/68/4 32/24/4 96/69/4
f 86/61/8 104/63/8 96/69/8
f 86/61/8 97/59/8 104/63/8
f 98/144/8 99/64/8 87/47/8
f 98/144/7 64/42/7 99/64/7
f 106/65/3 89/51/3 87/47/3
f 92/143/4 100/68/4 107/70/4
f 92/143/3 107/70/3 94/57/3
f 101/60/8 95/58/8 93/54/8
f 102/145/8 93/54/8 95/58/8
f 104/63/1 36/27/1 103/67/1
f 106/65/8 87/47/8 99/64/8
f 111/71/4 107/70/4 100/68/4
f 112/72/3 94/57/3 107/70/3
f 112/72/1 108/66/1 94/57/1
f 103/67/7 108/66/7 100/68/7
f 109/146/2 105/62/2 110/147/2
f 104/63/4 105/62/4 113/148/4
usemtl material_3_0.003
f 96/69/4 86/61/4 109/146/4
f 96/69/3 109/146/3 104/63/3
f 110/147/4 109/146/4 86/61/4
f 110/147/7 86/61/7 105/62/7
f 97/59/1 104/63/1 105/62/1
f 113/148/3 104/63/3 109/146/3
f 113/148/8 109/146/8 105/62/8
