# SSTK version 0.8.0
# 140
mtllib original-140.mtl
o Group_17/mesh36/mesh36-geometry/material_0/component_1#mesh36-geometry
v -0.482963 -0.480980 -0.521814
v 0.451311 0.120269 -0.521814
v -0.482963 0.120269 -0.521814
v 0.451311 0.120269 -0.521814
v -0.482963 -0.480980 -0.521814
v 0.451311 -0.480980 -0.521814
v -0.482963 0.120269 -0.521814
v 0.451311 0.120269 -0.521814
v -0.482963 -0.480980 -0.521814
v 0.451311 -0.480980 -0.521814
v -0.482963 -0.480980 -0.521814
v 0.451311 0.120269 -0.521814
vn 0 0 1
vn 0 0 -1
usemtl material_0_0
f 1//1 2//1 3//1
f 4//1 5//1 6//1
usemtl material_1_0
f 7//2 8//2 9//2
f 10//2 11//2 12//2
