# SSTK version 0.8.0
# 22
mtllib original-22.mtl
o Group_46/mesh22/mesh22-geometry#mesh22-geometry
v -0.045733 0.576515 -0.030491
v -0.045733 0.576515 -0.039965
v -0.046106 0.576515 -0.035228
v -0.044624 0.576515 -0.044585
v -0.045733 0.568521 -0.039965
v -0.045733 0.568521 -0.030491
v -0.044624 0.576515 -0.025871
v -0.044624 0.568521 -0.044585
v -0.046106 0.568521 -0.035228
v -0.042806 0.576515 -0.048975
v -0.044624 0.568521 -0.025871
v -0.042806 0.576515 -0.021481
v -0.042806 0.568521 -0.048975
v -0.040323 0.576515 -0.017430
v -0.040323 0.568521 -0.053026
v -0.042806 0.568521 -0.021481
v -0.040323 0.568521 -0.017430
v -0.040323 0.576515 -0.053026
v -0.037237 0.568521 -0.013816
v -0.037237 0.576515 -0.056640
v -0.037237 0.568521 -0.056640
v -0.037237 0.576515 -0.013816
v -0.033624 0.576515 -0.010731
v -0.033624 0.568521 -0.059725
v -0.033624 0.576515 -0.059725
v -0.033624 0.568521 -0.010731
v -0.029573 0.576515 -0.008248
v -0.029573 0.576515 -0.062208
v -0.029573 0.568521 -0.062208
v -0.029573 0.568521 -0.008248
v -0.025183 0.576515 -0.006430
v -0.025183 0.576515 -0.064026
v -0.025183 0.568521 -0.064026
v -0.025183 0.568521 -0.006430
v -0.020563 0.576515 -0.005320
v -0.020563 0.576515 -0.065136
v -0.020563 0.568521 -0.065136
v -0.020563 0.568521 -0.005320
v -0.015826 0.576515 -0.004948
v -0.015826 0.576515 -0.065508
v -0.015826 0.568521 -0.065508
v -0.015826 0.568521 -0.004948
v -0.011089 0.576515 -0.005320
v -0.011089 0.576515 -0.065136
v -0.011089 0.568521 -0.065136
v -0.011089 0.568521 -0.005320
v -0.006469 0.576515 -0.006430
v -0.006469 0.576515 -0.064026
v -0.006469 0.568521 -0.064026
v -0.006469 0.568521 -0.006430
v -0.002079 0.576515 -0.008248
v -0.002079 0.576515 -0.062208
v -0.002079 0.568521 -0.062208
v -0.002079 0.568521 -0.008248
v 0.001973 0.576515 -0.010731
v 0.001973 0.576515 -0.059725
v 0.001973 0.568521 -0.059725
v 0.001973 0.568521 -0.010731
v 0.005586 0.576515 -0.013816
v 0.005586 0.568521 -0.056640
v 0.005586 0.568521 -0.013816
v 0.005586 0.576515 -0.056640
v 0.008672 0.568521 -0.017430
v 0.008672 0.576515 -0.053026
v 0.008672 0.568521 -0.053026
v 0.008672 0.576515 -0.017430
v 0.011154 0.568521 -0.021481
v 0.011154 0.568521 -0.048975
v 0.011154 0.576515 -0.048975
v 0.011154 0.576515 -0.021481
v 0.012973 0.568521 -0.025871
v 0.012973 0.568521 -0.044585
v 0.012973 0.576515 -0.044585
v 0.012973 0.576515 -0.025871
v 0.014082 0.568521 -0.030491
v 0.014082 0.568521 -0.039965
v 0.014082 0.576515 -0.039965
v 0.014082 0.576515 -0.030491
v 0.014455 0.568521 -0.035228
v 0.014455 0.576515 -0.035228
vn 0 1 0
vn -0.9969173391662902 0 -0.0784590266929423
vn -0.9969173391662902 0 0.0784590266929423
vn -0.9510565608316645 0 -0.3090168573056278
vn -0.9723700073292391 0 -0.23344500175959174
vn -0.9723700073292391 0 0.23344500175959174
vn -0.9510565608316645 0 0.3090168573056278
vn -0.891006824405293 0 -0.4539899105301742
vn 0 -1 0
vn -0.891006824405293 0 0.4539899105301742
vn -0.8526399255641113 0 -0.522498954385582
vn -0.8526399255641113 0 0.522498954385582
vn -0.7071067811865475 0 0.7071067811865475
vn -0.7604060039769235 0 0.649448003396613
vn -0.7604060039769235 0 -0.649448003396613
vn -0.7071067811865475 0 -0.7071067811865475
vn -0.649448003396613 0 0.7604060039769235
vn -0.649448003396613 0 -0.7604060039769235
vn -0.522498954385582 0 0.8526399255641113
vn -0.4539899105301742 0 0.891006824405293
vn -0.522498954385582 0 -0.8526399255641113
vn -0.4539899105301742 0 -0.891006824405293
vn -0.3090168573056278 0 0.9510565608316645
vn -0.3090168573056278 0 -0.9510565608316645
vn -0.23344500175959174 0 0.9723700073292391
vn -0.23344500175959174 0 -0.9723700073292391
vn -0.0784590266929423 0 0.9969173391662902
vn 0 0 1
vn -0.0784590266929423 0 -0.9969173391662902
vn 0 0 -1
vn 0.0784590266929423 0 0.9969173391662902
vn 0.0784590266929423 0 -0.9969173391662902
vn 0.23344500175959174 0 0.9723700073292391
vn 0.3090168573056278 0 0.9510565608316645
vn 0.23344500175959174 0 -0.9723700073292391
vn 0.3090168573056278 0 -0.9510565608316645
vn 0.4539899105301742 0 0.891006824405293
vn 0.4539899105301742 0 -0.891006824405293
vn 0.522498954385582 0 0.8526399255641113
vn 0.522498954385582 0 -0.8526399255641113
vn 0.649448003396613 0 0.7604060039769235
vn 0.7071067811865475 0 0.7071067811865475
vn 0.649448003396613 0 -0.7604060039769235
vn 0.7071067811865475 0 -0.7071067811865475
vn 0.7604060039769235 0 0.649448003396613
vn 0.7604060039769235 0 -0.649448003396613
vn 0.891006824405293 0 0.4539899105301742
vn 0.8526399255641113 0 0.522498954385582
vn 0.891006824405293 0 -0.4539899105301742
vn 0.8526399255641113 0 -0.522498954385582
vn 0.9510565608316645 0 0.3090168573056278
vn 0.9510565608316645 0 -0.3090168573056278
vn 0.9723700073292391 0 0.23344500175959174
vn 0.9723700073292391 0 -0.23344500175959174
vn 1 0 0
vn 0.9969173391662902 0 0.0784590266929423
vn 0.9969173391662902 0 -0.0784590266929423
vn -1 0 0
usemtl material_0_0
f 1//1 2//1 3//1
f 2//1 1//1 4//1
f 5//2 3//2 2//2
f 3//3 6//3 1//3
f 4//1 1//1 7//1
f 8//4 2//5 4//4
f 3//2 5//2 9//2
f 2//5 8//4 5//5
f 6//3 3//3 9//3
f 6//6 7//7 1//6
f 4//1 7//1 10//1
f 10//8 8//4 4//4
f 5//9 6//9 9//9
f 6//9 5//9 8//9
f 7//7 6//6 11//7
f 10//1 7//1 12//1
f 8//4 10//8 13//8
f 6//9 8//9 11//9
f 11//7 12//10 7//7
f 10//1 12//1 14//1
f 10//8 15//11 13//8
f 11//9 8//9 13//9
f 12//10 11//7 16//10
f 12//10 17//12 14//12
f 10//1 14//1 18//1
f 15//11 10//8 18//11
f 16//9 13//9 15//9
f 11//9 13//9 16//9
f 17//12 12//10 16//10
f 19//13 14//14 17//14
f 18//1 14//1 20//1
f 18//15 21//16 15//15
f 16//9 15//9 17//9
f 14//14 19//13 22//13
f 17//9 21//9 19//9
f 20//1 14//1 22//1
f 21//16 18//15 20//16
f 17//9 15//9 21//9
f 19//13 23//17 22//13
f 19//9 21//9 24//9
f 20//1 22//1 25//1
f 20//16 24//18 21//16
f 23//17 19//13 26//17
f 25//1 22//1 23//1
f 19//9 24//9 26//9
f 24//18 20//16 25//18
f 26//19 27//20 23//19
f 25//1 23//1 28//1
f 26//9 24//9 29//9
f 25//21 29//22 24//21
f 27//20 26//19 30//20
f 28//1 23//1 27//1
f 29//22 25//21 28//22
f 26//9 29//9 30//9
f 30//20 31//23 27//20
f 28//1 27//1 32//1
f 28//22 33//24 29//22
f 30//9 29//9 33//9
f 31//23 30//20 34//23
f 32//1 27//1 31//1
f 33//24 28//22 32//24
f 30//9 33//9 34//9
f 34//23 35//25 31//23
f 32//1 31//1 36//1
f 32//24 37//26 33//24
f 34//9 33//9 37//9
f 35//25 34//23 38//25
f 36//1 31//1 35//1
f 37//26 32//24 36//26
f 34//9 37//9 38//9
f 38//27 39//28 35//27
f 36//1 35//1 40//1
f 36//29 41//30 37//29
f 38//9 37//9 41//9
f 39//28 38//27 42//28
f 40//1 35//1 39//1
f 41//30 36//29 40//30
f 38//9 41//9 42//9
f 42//28 43//31 39//28
f 40//1 39//1 44//1
f 40//30 45//32 41//30
f 42//9 41//9 45//9
f 43//31 42//28 46//31
f 44//1 39//1 43//1
f 45//32 40//30 44//32
f 42//9 45//9 46//9
f 46//33 47//34 43//33
f 44//1 43//1 48//1
f 44//35 49//36 45//35
f 46//9 45//9 49//9
f 47//34 46//33 50//34
f 48//1 43//1 47//1
f 49//36 44//35 48//36
f 46//9 49//9 50//9
f 50//34 51//37 47//34
f 48//1 47//1 52//1
f 48//36 53//38 49//36
f 50//9 49//9 53//9
f 51//37 50//34 54//37
f 52//1 47//1 51//1
f 53//38 48//36 52//38
f 50//9 53//9 54//9
f 54//37 55//39 51//37
f 52//1 51//1 56//1
f 52//38 57//40 53//38
f 54//9 53//9 57//9
f 55//39 54//37 58//39
f 56//1 51//1 55//1
f 57//40 52//38 56//40
f 54//9 57//9 58//9
f 58//41 59//42 55//41
f 56//1 55//1 59//1
f 56//43 60//44 57//43
f 58//9 57//9 60//9
f 59//42 58//41 61//42
f 56//1 59//1 62//1
f 60//44 56//43 62//44
f 58//9 60//9 61//9
f 63//45 59//42 61//42
f 62//1 59//1 64//1
f 64//46 60//44 62//44
f 61//9 60//9 65//9
f 59//42 63//45 66//45
f 61//9 65//9 63//9
f 64//1 59//1 66//1
f 60//44 64//46 65//46
f 67//47 66//48 63//48
f 63//9 65//9 68//9
f 64//1 66//1 69//1
f 69//49 65//50 64//50
f 66//48 67//47 70//47
f 63//9 68//9 67//9
f 65//50 69//49 68//49
f 69//1 66//1 70//1
f 71//51 70//47 67//47
f 67//9 68//9 72//9
f 73//52 68//49 69//49
f 69//1 70//1 73//1
f 70//47 71//51 74//51
f 67//9 72//9 71//9
f 68//49 73//52 72//52
f 73//1 70//1 74//1
f 75//53 74//51 71//51
f 71//9 72//9 76//9
f 77//54 72//52 73//52
f 73//1 74//1 77//1
f 74//51 75//53 78//53
f 71//9 76//9 75//9
f 72//52 77//54 76//54
f 77//1 74//1 78//1
f 79//55 78//56 75//56
f 75//9 76//9 79//9
f 80//55 76//57 77//57
f 77//1 78//1 80//1
f 78//56 79//55 80//55
f 76//57 80//55 79//55
usemtl material_1_0
f 3//9 2//9 1//9
f 4//9 1//9 2//9
f 2//56 3//56 5//56
f 1//57 6//57 3//57
f 7//9 1//9 4//9
f 4//51 2//53 8//51
f 9//56 5//56 3//56
f 5//53 8//51 2//53
f 9//57 3//57 6//57
f 1//54 7//52 6//54
f 10//9 7//9 4//9
f 4//51 8//51 10//47
f 9//1 6//1 5//1
f 8//1 5//1 6//1
f 11//52 6//54 7//52
f 12//9 7//9 10//9
f 13//47 10//47 8//51
f 11//1 8//1 6//1
f 7//52 12//49 11//52
f 14//9 12//9 10//9
f 13//47 15//48 10//47
f 13//1 8//1 11//1
f 16//49 11//52 12//49
f 14//50 17//50 12//49
f 18//9 14//9 10//9
f 18//48 10//47 15//48
f 15//1 13//1 16//1
f 16//1 13//1 11//1
f 16//49 12//49 17//50
f 17//46 14//46 19//44
f 20//9 14//9 18//9
f 15//45 21//42 18//45
f 17//1 15//1 16//1
f 22//44 19//44 14//46
f 19//1 21//1 17//1
f 22//9 14//9 20//9
f 20//42 18//45 21//42
f 21//1 15//1 17//1
f 22//44 23//43 19//44
f 24//1 21//1 19//1
f 25//9 22//9 20//9
f 21//42 24//41 20//42
f 26//43 19//44 23//43
f 23//9 22//9 25//9
f 26//1 24//1 19//1
f 25//41 20//42 24//41
f 23//40 27//38 26//40
f 28//9 23//9 25//9
f 29//1 24//1 26//1
f 24//39 29//37 25//39
f 30//38 26//40 27//38
f 27//9 23//9 28//9
f 28//37 25//39 29//37
f 30//1 29//1 26//1
f 27//38 31//36 30//38
f 32//9 27//9 28//9
f 29//37 33//34 28//37
f 33//1 29//1 30//1
f 34//36 30//38 31//36
f 31//9 27//9 32//9
f 32//34 28//37 33//34
f 34//1 33//1 30//1
f 31//36 35//35 34//36
f 36//9 31//9 32//9
f 33//34 37//33 32//34
f 37//1 33//1 34//1
f 38//35 34//36 35//35
f 35//9 31//9 36//9
f 36//33 32//34 37//33
f 38//1 37//1 34//1
f 35//32 39//30 38//32
f 40//9 35//9 36//9
f 37//31 41//28 36//31
f 41//1 37//1 38//1
f 42//30 38//32 39//30
f 39//9 35//9 40//9
f 40//28 36//31 41//28
f 42//1 41//1 38//1
f 39//30 43//29 42//30
f 44//9 39//9 40//9
f 41//28 45//27 40//28
f 45//1 41//1 42//1
f 46//29 42//30 43//29
f 43//9 39//9 44//9
f 44//27 40//28 45//27
f 46//1 45//1 42//1
f 43//26 47//24 46//26
f 48//9 43//9 44//9
f 45//25 49//23 44//25
f 49//1 45//1 46//1
f 50//24 46//26 47//24
f 47//9 43//9 48//9
f 48//23 44//25 49//23
f 50//1 49//1 46//1
f 47//24 51//22 50//24
f 52//9 47//9 48//9
f 49//23 53//20 48//23
f 53//1 49//1 50//1
f 54//22 50//24 51//22
f 51//9 47//9 52//9
f 52//20 48//23 53//20
f 54//1 53//1 50//1
f 51//22 55//21 54//22
f 56//9 51//9 52//9
f 53//20 57//19 52//20
f 57//1 53//1 54//1
f 58//21 54//22 55//21
f 55//9 51//9 56//9
f 56//19 52//20 57//19
f 58//1 57//1 54//1
f 55//18 59//16 58//18
f 59//9 55//9 56//9
f 57//17 60//13 56//17
f 60//1 57//1 58//1
f 61//16 58//18 59//16
f 62//9 59//9 56//9
f 62//13 56//17 60//13
f 61//1 60//1 58//1
f 61//16 59//16 63//15
f 64//9 59//9 62//9
f 62//13 60//13 64//14
f 65//1 60//1 61//1
f 66//15 63//15 59//16
f 63//1 65//1 61//1
f 66//9 59//9 64//9
f 65//14 64//14 60//13
f 63//11 66//11 67//8
f 68//1 65//1 63//1
f 69//9 66//9 64//9
f 64//12 65//12 69//10
f 70//8 67//8 66//11
f 67//1 68//1 63//1
f 68//10 69//10 65//12
f 70//9 66//9 69//9
f 67//8 70//8 71//4
f 72//1 68//1 67//1
f 69//10 68//10 73//7
f 73//9 70//9 69//9
f 74//4 71//4 70//8
f 71//1 72//1 67//1
f 72//7 73//7 68//10
f 74//9 70//9 73//9
f 71//4 74//4 75//5
f 76//1 72//1 71//1
f 73//7 72//7 77//6
f 77//9 74//9 73//9
f 78//5 75//5 74//4
f 75//1 76//1 71//1
f 76//6 77//6 72//7
f 78//9 74//9 77//9
f 75//2 78//2 79//58
f 79//1 76//1 75//1
f 77//3 76//3 80//58
f 80//9 78//9 77//9
f 80//58 79//58 78//2
f 79//58 80//58 76//3
