# SSTK version 0.8.0
# 4
mtllib original-4.mtl
o Group5/mesh4/mesh4-geometry#mesh4-geometry
v -0.031855 0.035838 -0.172157
v -0.036082 0.024880 -0.178414
v -0.031855 0.024786 -0.172328
v -0.036082 0.035932 -0.178244
v -0.026080 0.024751 -0.170100
v 0.041609 0.035932 -0.178244
v -0.037629 0.025008 -0.186728
v -0.026080 0.035804 -0.169930
v 0.043157 0.036060 -0.186558
v 0.037382 0.035838 -0.172157
v -0.037629 0.036060 -0.186558
v -0.007902 0.024751 -0.170100
v 0.041609 0.024880 -0.178414
v 0.037382 0.024786 -0.172328
v -0.037629 0.026202 -0.264203
v 0.031608 0.035804 -0.169930
v 0.043157 0.045576 -0.212295
v 0.043157 0.025008 -0.186728
v -0.037629 0.026797 -0.302835
v 0.002764 0.024751 -0.170100
v -0.037629 0.045576 -0.212295
v 0.043157 0.037785 -0.298471
v 0.043157 0.026797 -0.302835
v 0.031608 0.024751 -0.170100
v -0.037629 0.033062 -0.302739
v 0.043157 0.026202 -0.264203
v -0.007902 0.026202 -0.264203
v 0.013429 0.024751 -0.170100
v -0.037629 0.037785 -0.298471
v 0.043157 0.033878 -0.298531
v 0.043157 0.033062 -0.302739
v -0.037629 0.033878 -0.298531
v 0.013429 0.026202 -0.264203
v 0.002764 0.026202 -0.264203
v -0.037629 0.033923 -0.301477
v -0.037629 0.033661 -0.341581
v 0.043157 0.033923 -0.301477
v -0.037629 0.046712 -0.341380
v 0.043157 0.033661 -0.341581
v 0.043157 0.046712 -0.341380
v -0.037629 0.037830 -0.301416
v -0.036082 0.033789 -0.349895
v 0.043157 0.037830 -0.301416
v 0.041609 0.033789 -0.349895
v 0.042516 0.038586 -0.350451
v -0.036989 0.038586 -0.350451
v -0.031855 0.033883 -0.355981
v 0.037382 0.033883 -0.355981
v 0.037636 0.038037 -0.356255
v -0.032108 0.038038 -0.356255
v -0.026080 0.033917 -0.358209
v -0.026080 0.038705 -0.358135
v 0.031608 0.033917 -0.358209
v 0.031608 0.038705 -0.358135
vn -0.3721409893452315 -0.014304999590433562 0.9280659734285435
vn -0.768957688745599 -0.009852996011759273 0.6392237412585821
vn 0.3721409893452315 0.014304999590433562 -0.9280659734285435
vn 0.768957688745599 0.009852996011759273 -0.6392237412585821
vn -0.09104603709198097 -0.015348006252748325 0.9957284056578436
vn 0.09104603709198097 0.015348006252748325 -0.9957284056578436
vn 0 0.9998812280204403 0.015412003514669271
vn 0 -0.9998812280204403 -0.015412003514669271
vn -0.9825000833941193 -0.0028710002436890753 0.18624001580796007
vn 0.9825000833941193 0.0028710002436890753 -0.18624001580796007
vn 0 -0.015412003514669271 0.9998812280204403
vn 0 0.015412003514669271 -0.9998812280204403
vn 0.768957688745599 -0.009852996011759273 0.6392237412585821
vn 0.9825000833941193 -0.0028710002436890753 0.18624001580796007
vn -0.768957688745599 0.009852996011759273 -0.6392237412585821
vn -0.9825000833941193 0.0028710002436890753 -0.18624001580796007
vn 0.3721409893452315 -0.014304999590433562 0.9280659734285435
vn -0.3721409893452315 0.014304999590433562 -0.9280659734285435
vn -1 0 0
vn 1 0 0
vn 0.09104603709198097 -0.015348006252748325 0.9957284056578436
vn -0.09104603709198097 0.015348006252748325 -0.9957284056578436
vn 0 0.3890159992964645 0.9212309983339537
vn 0 -0.3890159992964645 -0.9212309983339537
vn 0 0.8344681843507316 -0.5510561217393318
vn 0 -0.8344681843507316 0.5510561217393318
vn -0.9978817909213343 -0.01806399621518675 -0.06249498690589548
vn 0.9978817909213343 0.01806399621518675 0.06249498690589548
vn 0.9972716007179613 0.0011379995443740922 -0.07381097044797552
vn -0.9972716007179613 -0.0011379995443740922 0.07381097044797552
vn 0.984743405786253 -0.01935400797526577 -0.17293307126106414
vn -0.984743405786253 0.01935400797526577 0.17293307126106414
vn -0.9110043321845808 -0.034773012679477175 -0.4109281498390187
vn 0.9110043321845808 0.034773012679477175 0.4109281498390187
vn 0 0.5891579300999508 0.8080179041335296
vn 0 -0.5891579300999508 -0.8080179041335296
vn 0.8504019612743964 -0.033655998467373174 -0.5250559760900015
vn -0.8504019612743964 0.033655998467373174 0.5250559760900015
vn -0.7701098292416412 -0.03854299145376709 -0.6367458588127645
vn 0.7701098292416412 0.03854299145376709 0.6367458588127645
vn 0.6822472985944649 -0.03430301501316375 -0.7303163196325013
vn -0.6822472985944649 0.03430301501316375 0.7303163196325013
vn 0 0.1808480102879915 -0.9835110559494868
vn 0 -0.1808480102879915 0.9835110559494868
vn -0.3454751710632825 -0.00690800342052292 -0.93840246465338
vn 0.3454751710632825 0.00690800342052292 0.93840246465338
vn 0.34891285538350186 -0.00678499718777191 -0.9371306115805274
vn -0.34891285538350186 0.00678499718777191 0.9371306115805274
vn 0.000018999994457645425 0.8639737479763024 0.5035368531168107
vn 0.000017000006036728717 0.8242182926812041 -0.5662722010841438
vn -0.000017000006036728717 -0.8242182926812041 0.5662722010841438
vn -0.000018999994457645425 -0.8639737479763024 -0.5035368531168107
vn -0.31988388555964115 -0.003665998688467208 -0.9474496610442598
vn 0.31988388555964115 0.003665998688467208 0.9474496610442598
vn 0.37204193580863404 -0.004735999182860244 -0.9282038398495798
vn -0.37204193580863404 0.004735999182860244 0.9282038398495798
vn -0.1089380253246078 0.01019800237070949 -0.9939962310723426
vn 0.1089380253246078 -0.01019800237070949 0.9939962310723426
vn 0.11058195862786897 0.010006996256073184 -0.9938166281824606
vn -0.11058195862786897 -0.010006996256073184 0.9938166281824606
vn 0.000010000000429815028 0.40345601734114517 0.9149990393280321
vn -0.000010000000429815028 -0.40345601734114517 -0.9149990393280321
vn 0.0745379802621591 0.015368995930251997 -0.9970997359655323
vn -0.0745379802621591 -0.015368995930251997 0.9970997359655323
usemtl material_0_0
f 1//1 2//2 3//1
f 2//2 1//1 4//2
f 3//3 2//4 1//3
f 4//4 1//3 2//4
f 5//5 1//1 3//1
f 3//3 1//3 5//6
f 6//7 4//7 1//7
f 1//8 4//8 6//8
f 4//2 7//9 2//2
f 2//4 7//10 4//4
f 1//1 5//5 8//5
f 8//6 5//6 1//3
f 9//7 4//7 6//7
f 6//8 4//8 9//8
f 6//7 1//7 10//7
f 10//8 1//8 6//8
f 7//9 4//2 11//9
f 11//10 4//4 7//10
f 12//11 8//5 5//5
f 5//6 8//6 12//12
f 10//7 1//7 8//7
f 8//8 1//8 10//8
f 4//7 9//7 11//7
f 11//8 9//8 4//8
f 13//13 9//14 6//13
f 6//15 9//16 13//15
f 14//17 6//13 10//17
f 10//18 6//15 14//18
f 11//9 15//19 7//9
f 7//10 15//20 11//10
f 8//5 12//11 16//21
f 16//22 12//12 8//6
f 10//7 8//7 16//7
f 16//8 8//8 10//8
f 17//23 11//23 9//23
f 9//24 11//24 17//24
f 9//14 13//13 18//14
f 18//16 13//15 9//16
f 6//13 14//17 13//13
f 13//15 14//18 6//15
f 16//21 14//17 10//17
f 10//18 14//18 16//22
f 15//19 11//9 19//19
f 19//20 11//10 15//20
f 16//21 12//11 20//11
f 20//12 12//12 16//22
f 11//23 17//23 21//23
f 21//24 17//24 11//24
f 9//14 22//20 17//20
f 17//19 22//19 9//16
f 18//14 23//20 9//14
f 9//16 23//19 18//16
f 14//17 16//21 24//21
f 24//22 16//22 14//18
f 19//19 11//9 25//19
f 25//20 11//10 19//20
f 19//8 26//8 15//8
f 15//7 26//7 19//7
f 27//8 20//8 12//8
f 12//7 20//7 27//7
f 16//21 20//11 28//11
f 28//12 20//12 16//22
f 22//25 21//25 17//25
f 17//26 21//26 22//26
f 29//19 11//9 21//19
f 21//20 11//10 29//20
f 9//14 30//20 22//20
f 22//19 30//19 9//16
f 23//20 18//14 26//20
f 26//19 18//16 23//19
f 9//14 23//20 31//20
f 31//19 23//19 9//16
f 16//21 28//11 24//21
f 24//22 28//12 16//22
f 25//19 11//9 32//19
f 32//20 11//10 25//20
f 31//12 19//12 25//12
f 25//11 19//11 31//11
f 26//8 19//8 23//8
f 23//7 19//7 26//7
f 15//8 26//8 33//8
f 33//7 26//7 15//7
f 20//8 27//8 34//8
f 34//7 27//7 20//7
f 34//8 28//8 20//8
f 20//7 28//7 34//7
f 21//25 22//25 29//25
f 29//26 22//26 21//26
f 32//19 11//9 29//19
f 29//20 11//10 32//20
f 9//14 31//20 30//20
f 30//19 31//19 9//16
f 32//12 22//12 30//12
f 30//11 22//11 32//11
f 19//12 31//12 23//12
f 23//11 31//11 19//11
f 35//19 25//19 32//19
f 32//20 25//20 35//20
f 36//8 31//8 25//8
f 25//7 31//7 36//7
f 15//8 33//8 34//8
f 34//7 33//7 15//7
f 15//8 34//8 27//8
f 27//7 34//7 15//7
f 28//8 34//8 33//8
f 33//7 34//7 28//7
f 22//12 32//12 29//12
f 29//11 32//11 22//11
f 30//20 31//20 37//20
f 37//19 31//19 30//19
f 37//7 32//7 30//7
f 30//8 32//8 37//8
f 38//27 25//19 35//19
f 35//20 25//20 38//28
f 32//7 37//7 35//7
f 35//8 37//8 32//8
f 36//8 39//8 31//8
f 31//7 39//7 36//7
f 25//19 38//27 36//16
f 36//14 38//28 25//20
f 31//20 40//29 37//20
f 37//19 40//30 31//19
f 38//27 35//19 41//19
f 41//20 35//20 38//28
f 37//11 41//11 35//11
f 35//12 41//12 37//12
f 42//8 39//8 36//8
f 36//7 39//7 42//7
f 40//29 31//20 39//31
f 39//32 31//19 40//30
f 38//27 42//33 36//16
f 36//14 42//34 38//28
f 37//20 40//29 43//20
f 43//19 40//30 37//19
f 43//35 38//35 41//35
f 41//36 38//36 43//36
f 41//11 37//11 43//11
f 43//12 37//12 41//12
f 42//8 44//8 39//8
f 39//7 44//7 42//7
f 40//29 39//31 45//37
f 45//38 39//32 40//30
f 38//27 46//39 42//33
f 42//34 46//40 38//28
f 38//35 43//35 40//35
f 40//36 43//36 38//36
f 47//8 44//8 42//8
f 42//7 44//7 47//7
f 45//37 39//31 44//41
f 44//42 39//32 45//38
f 46//43 40//43 45//43
f 45//44 40//44 46//44
f 40//43 46//43 38//43
f 38//44 46//44 40//44
f 46//39 47//45 42//33
f 42//34 47//46 46//40
f 47//8 48//8 44//8
f 44//7 48//7 47//7
f 45//37 44//41 49//47
f 49//48 44//42 45//38
f 49//49 46//50 45//50
f 45//51 46//51 49//52
f 47//45 46//39 50//53
f 50//54 46//40 47//46
f 51//8 48//8 47//8
f 47//7 48//7 51//7
f 44//41 48//55 49//47
f 49//48 48//56 44//42
f 46//50 49//49 50//49
f 50//52 49//52 46//51
f 52//57 47//45 50//53
f 50//54 47//46 52//58
f 48//8 51//8 53//8
f 53//7 51//7 48//7
f 51//22 47//45 52//57
f 52//58 47//46 51//21
f 49//47 48//55 53//59
f 53//60 48//56 49//48
f 54//61 50//49 49//49
f 49//52 50//52 54//62
f 50//49 54//61 52//61
f 52//62 54//62 50//52
f 51//22 54//63 53//59
f 53//60 54//64 51//21
f 54//63 51//22 52//57
f 52//58 51//21 54//64
f 49//47 53//59 54//63
f 54//64 53//60 49//48
