# SSTK version 0.8.0
# 3
mtllib original-3.mtl
o mesh2/mesh2-geometry#mesh2-geometry
v -0.085815 -0.259227 0.064896
v -0.087110 -0.259227 0.064896
v -0.089010 -0.259227 0.068995
v -0.085815 -0.265086 0.064896
v -0.085770 -0.259227 0.057563
v -0.087110 -0.265086 0.064896
v -0.089847 -0.259227 0.061100
v -0.086909 -0.259227 0.063984
v -0.089010 -0.265086 0.068995
v -0.086909 -0.265086 0.063984
v -0.091158 -0.259227 0.064896
v -0.085770 -0.265086 0.057563
v -0.084668 -0.259227 0.061529
v -0.092205 -0.259227 0.064896
v -0.091158 -0.265086 0.064896
v -0.089847 -0.265086 0.061100
v -0.080470 -0.265086 0.056538
v -0.084668 -0.265086 0.061529
v -0.080470 -0.259227 0.056538
v -0.092205 -0.265086 0.064896
v -0.081499 -0.259227 0.060524
v -0.075368 -0.265086 0.058300
v -0.081499 -0.265086 0.060524
v -0.078252 -0.259227 0.061238
v -0.075368 -0.259227 0.058300
v -0.078252 -0.265086 0.061238
v -0.071831 -0.259227 0.062377
v -0.075797 -0.265086 0.063480
v -0.075797 -0.259227 0.063480
v -0.071831 -0.265086 0.062377
v -0.075348 -0.259227 0.064896
v -0.075348 -0.265086 0.064896
v -0.071344 -0.259227 0.064896
v -0.071344 -0.265086 0.064896
vn 0 1 0
vn 0 -1 0
vn 0 0 -1
vn 0 0 1
vn 0.788722880220609 0 0.6147489066411644
vn -0.788722880220609 0 -0.6147489066411644
vn 0.8878008101948656 0 0.4602279016067369
vn 0.9766652995852899 0 0.21476706587830424
vn -0.9766652995852899 0 -0.21476706587830424
vn -0.8878008101948656 0 -0.4602279016067369
vn -0.43750700190884306 0 -0.899215003923275
vn -0.8284995649964175 0 -0.559989705977482
vn 0.43750700190884306 0 0.899215003923275
vn 0.8284995649964175 0 0.559989705977482
vn -0.788722880220609 0 0.6147489066411644
vn 0.788722880220609 0 -0.6147489066411644
vn -0.9452051306490978 0 -0.3264770451266398
vn 0.9452051306490978 0 0.3264770451266398
vn 0.0707159640174284 0 -0.9974964924414951
vn -0.0707159640174284 0 0.9974964924414951
vn 0.5387437849238266 0 0.842469663671013
vn -0.5387437849238266 0 -0.842469663671013
vn 0.04533100098946244 0 0.9989720218050622
vn -0.04533100098946244 0 -0.9989720218050622
vn 0.559989705977482 0 -0.8284995649964175
vn -0.559989705977482 0 0.8284995649964175
vn -0.4602279016067369 0 0.8878008101948656
vn 0.4602279016067369 0 -0.8878008101948656
vn 0.899215003923275 0 -0.43750700190884306
vn -0.899215003923275 0 0.43750700190884306
vn -0.842469663671013 0 0.5387437849238266
vn 0.842469663671013 0 -0.5387437849238266
vn 0.9818101991479464 0 -0.18986503851175368
vn -0.9818101991479464 0 0.18986503851175368
vn -0.9532004237353341 0 0.30233913440171756
vn 0.9532004237353341 0 -0.30233913440171756
usemtl material_0_0
f 1//1 2//1 3//1
f 3//2 2//2 1//2
f 4//3 2//3 1//3
f 1//4 2//4 4//4
f 5//1 3//1 2//1
f 2//2 3//2 5//2
f 3//5 4//5 1//5
f 1//6 4//6 3//6
f 2//3 4//3 6//3
f 6//4 4//4 2//4
f 7//1 3//1 5//1
f 5//2 3//2 7//2
f 5//1 2//1 8//1
f 8//2 2//2 5//2
f 4//5 3//5 9//5
f 9//6 3//6 4//6
f 4//2 9//2 6//2
f 6//1 9//1 4//1
f 10//7 2//8 6//8
f 6//9 2//9 10//10
f 11//1 3//1 7//1
f 7//2 3//2 11//2
f 12//11 7//12 5//11
f 5//13 7//14 12//13
f 2//8 10//7 8//7
f 8//10 10//10 2//9
f 5//1 8//1 13//1
f 13//2 8//2 5//2
f 14//15 9//15 3//15
f 3//16 9//16 14//16
f 9//2 12//2 6//2
f 6//1 12//1 9//1
f 6//2 12//2 10//2
f 10//1 12//1 6//1
f 3//1 11//1 14//1
f 14//2 11//2 3//2
f 7//12 15//17 11//17
f 11//18 15//18 7//14
f 7//12 12//11 16//12
f 16//14 12//13 7//14
f 5//11 17//19 12//11
f 12//13 17//20 5//13
f 18//21 8//7 10//7
f 10//10 8//10 18//22
f 8//7 18//21 13//21
f 13//22 18//22 8//10
f 5//1 13//1 19//1
f 19//2 13//2 5//2
f 9//15 14//15 20//15
f 20//16 14//16 9//16
f 9//2 16//2 12//2
f 12//1 16//1 9//1
f 10//2 12//2 18//2
f 18//1 12//1 10//1
f 15//3 14//3 11//3
f 11//4 14//4 15//4
f 15//17 7//12 16//12
f 16//14 7//14 15//18
f 17//19 5//11 19//19
f 19//20 5//13 17//20
f 18//2 12//2 17//2
f 17//1 12//1 18//1
f 18//21 21//23 13//21
f 13//22 21//24 18//22
f 19//1 13//1 21//1
f 21//2 13//2 19//2
f 14//3 15//3 20//3
f 20//4 15//4 14//4
f 15//2 9//2 20//2
f 20//1 9//1 15//1
f 9//2 15//2 16//2
f 16//1 15//1 9//1
f 19//19 22//25 17//19
f 17//20 22//26 19//20
f 18//2 17//2 23//2
f 23//1 17//1 18//1
f 21//23 18//21 23//23
f 23//24 18//22 21//24
f 19//1 21//1 24//1
f 24//2 21//2 19//2
f 22//25 19//19 25//25
f 25//26 19//20 22//26
f 26//2 17//2 22//2
f 22//1 17//1 26//1
f 23//2 17//2 26//2
f 26//1 17//1 23//1
f 23//23 24//27 21//23
f 21//24 24//28 23//24
f 19//1 24//1 25//1
f 25//2 24//2 19//2
f 27//29 22//25 25//25
f 25//26 22//26 27//30
f 26//2 22//2 28//2
f 28//1 22//1 26//1
f 24//27 23//23 26//27
f 26//28 23//24 24//28
f 25//1 24//1 29//1
f 29//2 24//2 25//2
f 22//25 27//29 30//29
f 30//30 27//30 22//26
f 25//1 31//1 27//1
f 27//2 31//2 25//2
f 28//2 22//2 32//2
f 32//1 22//1 28//1
f 29//31 26//27 28//31
f 28//32 26//28 29//32
f 26//27 29//31 24//27
f 24//28 29//32 26//28
f 25//1 29//1 31//1
f 31//2 29//2 25//2
f 33//33 30//29 27//29
f 27//30 30//30 33//34
f 32//2 22//2 30//2
f 30//1 22//1 32//1
f 27//1 31//1 33//1
f 33//2 31//2 27//2
f 32//35 29//31 28//31
f 28//32 29//32 32//36
f 29//31 32//35 31//35
f 31//36 32//36 29//32
f 30//29 33//33 34//33
f 34//34 33//34 30//30
f 32//2 30//2 34//2
f 34//1 30//1 32//1
f 32//4 33//4 31//4
f 31//3 33//3 32//3
f 33//4 32//4 34//4
f 34//3 32//3 33//3
