# SSTK version 0.8.0
# 32
mtllib original-32.mtl
o drawer_kicker1/drawer_kicker/mesh66/mesh66-geometry#mesh66-geometry
v -0.265088 0.088845 -0.130808
v -0.265088 0.081232 -0.119389
v -0.265088 0.088845 -0.119389
v -0.265088 0.081232 -0.130808
v -0.265088 0.073619 -0.119389
v -0.227024 0.088845 -0.119389
v -0.227024 0.081232 -0.130808
v -0.265088 0.096457 -0.119389
v -0.227024 0.073619 -0.119389
v -0.227024 0.088845 -0.130808
v -0.227024 0.081232 -0.119389
v -0.265088 0.073619 0.219381
v -0.227024 0.096457 -0.119389
v -0.265088 0.096457 0.219381
v -0.227024 0.073619 0.219381
v -0.227024 0.096457 0.219381
v -0.257476 0.081232 0.219381
v -0.227024 0.081232 0.219381
v -0.257476 0.088845 0.219381
v -0.227024 0.088845 0.219381
v -0.257476 0.081232 0.230800
v -0.227024 0.088845 0.230800
v -0.227024 0.081232 0.230800
v -0.257476 0.088845 0.230800
vt 3.602844 -0.403671
vt 3.640014 -0.382353
vt 3.602844 -0.382353
vt 3.640014 -0.403671
vt 3.677184 -0.382353
vt 4 0.477358
vt 3.944245 0.548418
vt 4 0.548418
vt 3.907075 0.477358
vt 3.907075 0.548418
vt 1.528193 -0.393131
vt 1.583948 -0.464191
vt 1.528193 -0.464191
vt 3.565674 -0.382353
vt 1.621118 -0.393131
vt 1.621118 -0.464191
vt 3.944245 0.477358
vt 4.03717 0.548418
vt 1.583948 -0.393131
vt 3.677185 0.250084
vt 1.806968 -0.464191
vt 1.621117 -1.096628
vt 1.732628 -0.464191
vt 1.769798 -0.442873
vt 1.732628 -0.442873
vt 4.03717 0.477358
vt 1.769798 -0.464191
vt 3.565675 0.250084
vt 1.695458 -0.464191
vt 1.806967 -1.096628
vt 3.751525 0.250084
vt 3.751524 -0.382353
vt 5.765576 0.548418
vt 5.728406 0.534206
vt 5.654066 0.548418
vt 1.695457 -1.096628
vt 1.769797 -1.096628
vt 5.728406 0.477358
vt 5.765576 0.477358
vt 5.691236 0.534206
vt 5.654066 0.477358
vt 1.732627 -1.096628
vt 1.583947 -1.117946
vt 1.583947 -1.096628
vt 1.546777 -1.096628
vt 5.691236 0.477358
vt 1.732627 -1.117946
vt 1.546777 -1.117946
vt 5.654066 0.534206
vt 5.709821 0.477358
vt 1.769797 -1.117946
vt 5.746991 0.534206
vt 5.746991 0.477358
vt 5.709821 0.534206
vn -1 0 0
vn 0 1 0
vn 0 0 -1
vn 0 -1 0
vn 1 0 0
vn 0 0 1
usemtl material_0_0
f 1/1/1 2/2/1 3/3/1
f 2/2/1 1/1/1 4/4/1
f 5/5/1 3/3/1 2/2/1
f 6/6/2 1/7/2 3/8/2
f 1/7/3 7/9/3 4/10/3
f 7/11/4 2/12/4 4/13/4
f 5/5/1 8/14/1 3/3/1
f 2/12/3 9/15/3 5/16/3
f 1/7/2 6/6/2 10/17/2
f 8/18/3 6/6/3 3/8/3
f 7/9/3 1/7/3 10/17/3
f 2/12/4 7/11/4 11/19/4
f 12/20/1 8/14/1 5/5/1
f 9/15/3 2/12/3 11/19/3
f 9/21/4 12/22/4 5/16/4
f 6/23/5 7/24/5 10/25/5
f 6/6/3 8/18/3 13/26/3
f 7/24/5 6/23/5 11/27/5
f 8/14/1 12/20/1 14/28/1
f 13/29/5 9/21/5 11/27/5
f 12/22/4 9/21/4 15/30/4
f 8/14/2 16/31/2 13/32/2
f 13/29/5 11/27/5 6/23/5
f 12/33/6 17/34/6 14/35/6
f 16/31/2 8/14/2 14/28/2
f 16/36/5 9/21/5 13/29/5
f 9/21/5 18/37/5 15/30/5
f 18/38/6 12/33/6 15/39/6
f 12/33/6 18/38/6 17/34/6
f 14/35/6 17/34/6 19/40/6
f 14/35/6 19/40/6 16/41/6
f 20/42/5 9/21/5 16/36/5
f 18/37/5 9/21/5 20/42/5
f 18/42/4 21/43/4 17/44/4
f 21/43/1 19/45/1 17/44/1
f 16/41/6 19/40/6 20/46/6
f 22/47/5 18/37/5 20/42/5
f 21/43/4 18/42/4 23/47/4
f 19/45/1 21/43/1 24/48/1
f 19/49/2 22/50/2 20/41/2
f 18/37/5 22/47/5 23/51/5
f 22/50/6 21/52/6 23/53/6
f 21/52/6 22/50/6 24/54/6
f 22/50/2 19/49/2 24/54/2
usemtl material_1_0
f 3//5 2//5 1//5
f 4//5 1//5 2//5
f 2//5 3//5 5//5
f 3//4 1//4 6//4
f 4//6 7//6 1//6
f 4//2 2//2 7//2
f 3//5 8//5 5//5
f 5//6 9//6 2//6
f 10//4 6//4 1//4
f 3//6 6//6 8//6
f 10//6 1//6 7//6
f 11//2 7//2 2//2
f 5//5 8//5 12//5
f 11//6 2//6 9//6
f 5//2 12//2 9//2
f 10//1 7//1 6//1
f 13//6 8//6 6//6
f 11//1 6//1 7//1
f 14//5 12//5 8//5
f 11//1 9//1 13//1
f 15//2 9//2 12//2
f 13//4 16//4 8//4
f 6//1 11//1 13//1
f 14//3 17//3 12//3
f 14//4 8//4 16//4
f 13//1 9//1 16//1
f 15//1 18//1 9//1
f 15//3 12//3 18//3
f 17//3 18//3 12//3
f 19//3 17//3 14//3
f 16//3 19//3 14//3
f 16//1 9//1 20//1
f 20//1 9//1 18//1
f 17//2 21//2 18//2
f 17//5 19//5 21//5
f 20//3 19//3 16//3
f 20//1 18//1 22//1
f 23//2 18//2 21//2
f 24//5 21//5 19//5
f 20//4 22//4 19//4
f 23//1 22//1 18//1
f 23//3 21//3 22//3
f 24//3 22//3 21//3
f 24//4 19//4 22//4
