# SSTK version 0.8.0
# 147
mtllib original-147.mtl
o mesh126/mesh126-geometry/material_2/component_0#mesh126-geometry
v 0.435689 0.342359 0.403835
v 0.452462 0.336788 0.404038
v 0.435689 0.342036 0.402631
v 0.452462 0.336788 0.404038
v 0.435689 0.342359 0.403835
v 0.452462 0.337110 0.405242
v 0.435689 0.349417 0.400654
v 0.435689 0.342359 0.403835
v 0.435689 0.342036 0.402631
v 0.435689 0.342359 0.403835
v 0.452462 0.349740 0.401858
v 0.452462 0.337110 0.405242
v 0.435689 0.342359 0.403835
v 0.435689 0.349417 0.400654
v 0.435689 0.349740 0.401858
v 0.452462 0.349740 0.401858
v 0.435689 0.342359 0.403835
v 0.435689 0.349740 0.401858
v 0.435689 0.342036 0.402631
v 0.452462 0.336788 0.404038
v 0.435689 0.342359 0.403835
v 0.452462 0.337110 0.405242
v 0.435689 0.342359 0.403835
v 0.452462 0.336788 0.404038
v 0.435689 0.342036 0.402631
v 0.435689 0.342359 0.403835
v 0.435689 0.349417 0.400654
v 0.452462 0.337110 0.405242
v 0.452462 0.349740 0.401858
v 0.435689 0.342359 0.403835
v 0.435689 0.349740 0.401858
v 0.435689 0.349417 0.400654
v 0.435689 0.342359 0.403835
v 0.435689 0.349740 0.401858
v 0.435689 0.342359 0.403835
v 0.452462 0.349740 0.401858
vt 0 0
vn 0.3452928509756146 0.9065166757935421 -0.242899904432583
vn 1 0 0
vn 0 -0.25881897461707354 -0.9659258451755843
vn -0.3452928509756146 -0.9065166757935421 0.242899904432583
vn -1 0 0
vn 0 0.25881897461707354 0.9659258451755843
usemtl material_0_0
f 1/1/1 2/1/1 3/1/1
f 4/1/1 5/1/1 6/1/1
f 7/1/2 8/1/2 9/1/2
f 10/1/3 11/1/3 12/1/3
f 13/1/2 14/1/2 15/1/2
f 16/1/3 17/1/3 18/1/3
usemtl material_1_0
f 19/1/4 20/1/4 21/1/4
f 22/1/4 23/1/4 24/1/4
f 25/1/5 26/1/5 27/1/5
f 28/1/6 29/1/6 30/1/6
f 31/1/5 32/1/5 33/1/5
f 34/1/6 35/1/6 36/1/6
