# SSTK version 0.8.0
# 107
mtllib original-107.mtl
o mesh201/mesh201-geometry#mesh201-geometry
v -0.116594 -0.086341 0.383132
v -0.119888 -0.086337 0.383132
v -0.117948 -0.086465 0.383132
v -0.115273 -0.086004 0.383132
v -0.440451 -0.086337 0.383132
v -0.442017 -0.086232 0.383132
v -0.443387 -0.085954 0.383132
v -0.114014 -0.085463 0.383132
v -0.444712 -0.085496 0.383132
v -0.445971 -0.084863 0.383132
v -0.112847 -0.084727 0.383132
v -0.447141 -0.084065 0.383132
v -0.111799 -0.083812 0.383132
v -0.448203 -0.083115 0.383132
v -0.110897 -0.082737 0.383132
v -0.449138 -0.082027 0.383132
v -0.110164 -0.081528 0.383132
v -0.449929 -0.080820 0.383132
v -0.109620 -0.080213 0.383132
v -0.450560 -0.079514 0.383132
v -0.109281 -0.078824 0.383132
v -0.451020 -0.078132 0.383132
v -0.109154 -0.077396 0.383132
v -0.451300 -0.076698 0.383132
v -0.109281 -0.075403 0.383132
v -0.451405 -0.075070 0.383132
v -0.109281 0.153177 0.383132
v -0.451405 0.153177 0.383132
v -0.109386 0.154806 0.383132
v -0.451300 0.154806 0.383132
v -0.451020 0.156240 0.383132
v -0.109665 0.156240 0.383132
v -0.110125 0.157622 0.383132
v -0.450560 0.157622 0.383132
v -0.110757 0.158928 0.383132
v -0.449929 0.158928 0.383132
v -0.449138 0.160135 0.383132
v -0.111547 0.160135 0.383132
v -0.448203 0.161222 0.383132
v -0.112482 0.161222 0.383132
v -0.113545 0.162173 0.383132
v -0.447141 0.162173 0.383132
v -0.114715 0.162970 0.383132
v -0.445971 0.162970 0.383132
v -0.444712 0.163603 0.383132
v -0.115973 0.163603 0.383132
v -0.117298 0.164062 0.383132
v -0.443387 0.164062 0.383132
v -0.118668 0.164340 0.383132
v -0.442017 0.164340 0.383132
v -0.120235 0.164445 0.383132
v -0.433891 0.164445 0.383132
v -0.440451 0.164445 0.383132
vn 0 0 1
vn 0 0 -1
usemtl material_0_0
f 1//1 2//1 3//1
f 2//1 1//1 4//1
f 3//2 2//2 1//2
f 4//2 1//2 2//2
f 2//1 4//1 5//1
f 5//2 4//2 2//2
f 5//1 4//1 6//1
f 6//2 4//2 5//2
f 6//1 4//1 7//1
f 7//2 4//2 6//2
f 7//1 4//1 8//1
f 8//2 4//2 7//2
f 7//1 8//1 9//1
f 9//2 8//2 7//2
f 9//1 8//1 10//1
f 10//2 8//2 9//2
f 10//1 8//1 11//1
f 11//2 8//2 10//2
f 10//1 11//1 12//1
f 12//2 11//2 10//2
f 12//1 11//1 13//1
f 13//2 11//2 12//2
f 12//1 13//1 14//1
f 14//2 13//2 12//2
f 14//1 13//1 15//1
f 15//2 13//2 14//2
f 14//1 15//1 16//1
f 16//2 15//2 14//2
f 16//1 15//1 17//1
f 17//2 15//2 16//2
f 16//1 17//1 18//1
f 18//2 17//2 16//2
f 18//1 17//1 19//1
f 19//2 17//2 18//2
f 18//1 19//1 20//1
f 20//2 19//2 18//2
f 20//1 19//1 21//1
f 21//2 19//2 20//2
f 20//1 21//1 22//1
f 22//2 21//2 20//2
f 22//1 21//1 23//1
f 23//2 21//2 22//2
f 22//1 23//1 24//1
f 24//2 23//2 22//2
f 24//1 23//1 25//1
f 25//2 23//2 24//2
f 24//1 25//1 26//1
f 26//2 25//2 24//2
f 26//1 25//1 27//1
f 27//2 25//2 26//2
f 26//1 27//1 28//1
f 28//2 27//2 26//2
f 28//1 27//1 29//1
f 29//2 27//2 28//2
f 28//1 29//1 30//1
f 30//2 29//2 28//2
f 30//1 29//1 31//1
f 31//2 29//2 30//2
f 31//1 29//1 32//1
f 32//2 29//2 31//2
f 31//1 32//1 33//1
f 33//2 32//2 31//2
f 31//1 33//1 34//1
f 34//2 33//2 31//2
f 34//1 33//1 35//1
f 35//2 33//2 34//2
f 34//1 35//1 36//1
f 36//2 35//2 34//2
f 36//1 35//1 37//1
f 37//2 35//2 36//2
f 37//1 35//1 38//1
f 38//2 35//2 37//2
f 37//1 38//1 39//1
f 39//2 38//2 37//2
f 39//1 38//1 40//1
f 40//2 38//2 39//2
f 39//1 40//1 41//1
f 41//2 40//2 39//2
f 39//1 41//1 42//1
f 42//2 41//2 39//2
f 42//1 41//1 43//1
f 43//2 41//2 42//2
f 42//1 43//1 44//1
f 44//2 43//2 42//2
f 44//1 43//1 45//1
f 45//2 43//2 44//2
f 45//1 43//1 46//1
f 46//2 43//2 45//2
f 45//1 46//1 47//1
f 47//2 46//2 45//2
f 45//1 47//1 48//1
f 48//2 47//2 45//2
f 48//1 47//1 49//1
f 49//2 47//2 48//2
f 48//1 49//1 50//1
f 50//2 49//2 48//2
f 50//1 49//1 51//1
f 51//2 49//2 50//2
f 50//1 51//1 52//1
f 52//2 51//2 50//2
f 50//1 52//1 53//1
f 53//2 52//2 50//2
