# SSTK version 0.8.0
# 27
mtllib original-27.mtl
o LT_21_TR1/LT_21_TR/mesh21/mesh21-geometry#mesh21-geometry
v -0.099912 0.658529 0.432208
v -0.139274 0.657461 0.430225
v -0.139274 0.658529 0.432208
v -0.098843 0.657461 0.430225
v -0.100281 0.658898 0.434430
v -0.020461 0.658529 0.432208
v -0.097191 0.655808 0.428694
v -0.139274 0.658898 0.434430
v -0.020091 0.658898 0.434430
v -0.021529 0.657461 0.430225
v -0.139274 0.655808 0.428694
v -0.023182 0.655808 0.428694
v -0.100281 0.658898 0.452259
v -0.020091 0.658898 0.452259
v -0.020461 0.517316 0.432208
v -0.020091 0.517316 0.434430
v -0.096445 0.655062 0.428694
v -0.139274 0.658898 0.452259
v -0.020091 0.517316 0.452259
v -0.021529 0.517316 0.430225
v -0.096445 0.582545 0.428694
v -0.096445 0.655062 0.456095
v -0.023928 0.517316 0.456095
v -0.023182 0.517316 0.428694
v -0.139274 0.582545 0.428694
v -0.139274 0.655062 0.456095
v -0.023928 0.655062 0.456095
v -0.139274 0.578966 0.436370
v -0.096445 0.517316 0.428694
v -0.096445 0.582545 0.456095
v -0.096445 0.517316 0.456095
v -0.100024 0.578966 0.436370
v -0.100024 0.517316 0.436370
v -0.139274 0.582545 0.456095
v -0.139274 0.578966 0.439540
v -0.100024 0.578966 0.448419
v -0.100024 0.517316 0.439540
v -0.100024 0.578966 0.439540
v -0.139274 0.578966 0.448419
v -0.100024 0.517316 0.448419
v -0.100024 0.578966 0.445249
v -0.139274 0.517316 0.439540
v -0.139274 0.578966 0.445249
v -0.100024 0.517316 0.445249
v -0.139274 0.517316 0.445249
vt 0.429574 0.205781
vt 0.428964 0.228227
vt 0.429574 0.228227
vt 0.428964 0.205172
vt 0.429784 0.205992
vt 0.339633 0.616977
vt 0.294937 0.616368
vt 0.294327 0.616977
vt 0.428022 0.204229
vt 0.429784 0.228227
vt 0.339844 0.617188
vt 0.294117 0.617188
vt 0.339024 0.616368
vt 0.428022 0.228227
vt 0.338082 0.615425
vt 0.295879 0.615425
vt 0.339633 0.536452
vt 0.339844 0.536452
vt 0.427597 0.203804
vt 0.296304 0.615
vt 0.339024 0.536452
vt 0.386245 0.203804
vt 0.296304 0.573648
vt 0.337656 0.536452
vt 0.338082 0.536452
vt 0.386245 0.228227
vt 0.427597 0.228227
vt 0.337656 0.615
vt 0.384204 0.228227
vt 0.296304 0.536452
vt 0.384204 0.205845
vt 0.294263 0.536452
vt 0.294263 0.571607
vt 0.271882 0.571607
vt 0.271882 0.536452
vn 0 0.9462230373975741 -0.3235150127862839
vn 0 0.7906759082021372 -0.6122349289192225
vn 0 0.9966103232062618 -0.08226702667965334
vn 0 0.6795807408208672 -0.7336007202186771
vn 0 1 0
vn 0.946223037397574 0 -0.32351501278628414
vn 0.7906759082021371 0 -0.6122349289192227
vn 0.9966103232062618 0 -0.08226702667965356
vn 0 0 -1
vn 1 0 0
vn 0.6795807408208668 0 -0.7336007202186771
vn 0 0.7071067811865476 0.7071067811865478
vn 0.7071067811865476 0 0.7071067811865476
vn 0 -0.9063079253256678 -0.42261796517881706
vn 0 -0.9762959252079247 -0.2164399834189666
vn 0 0 1
vn -0.9762959252079247 0 -0.2164399834189664
vn -0.906307925325668 0 -0.42261796517881683
vn 0 -1 0
vn 0 -0.9063079253256678 0.4226179651788165
vn 0 -0.9762959252079247 0.21643998341896617
vn -0.9762959252079247 0 0.2164399834189664
vn -0.906307925325668 0 0.42261796517881683
vn -1 0 0
vn 0 -0.9462230373975741 0.3235150127862839
vn 0 -0.7906759082021372 0.6122349289192225
vn 0 -0.9966103232062618 0.08226702667965334
vn 0 -0.6795807408208672 0.7336007202186771
vn -0.946223037397574 0 0.32351501278628414
vn -0.7906759082021371 0 0.6122349289192227
vn -0.9966103232062618 0 0.08226702667965356
vn -0.6795807408208668 0 0.7336007202186771
vn 0 -0.7071067811865476 -0.7071067811865478
vn -0.7071067811865476 0 -0.7071067811865476
vn 0 0.9063079253256678 0.42261796517881706
vn 0 0.9762959252079247 0.2164399834189666
vn 0.906307925325668 0 0.42261796517881683
vn 0.9762959252079247 0 0.2164399834189664
vn 0 0.9063079253256678 -0.4226179651788165
vn 0 0.9762959252079247 -0.21643998341896617
vn 0.906307925325668 0 -0.42261796517881683
vn 0.9762959252079247 0 -0.2164399834189664
usemtl material_0_0
f 1/1/1 2/2/2 3/3/1
f 2/2/2 1/1/1 4/4/2
f 3/3/1 5/5/3 1/1/1
f 6/6/1 4/7/2 1/8/1
f 7/9/4 2/2/2 4/4/2
f 5/5/3 3/3/1 8/10/3
f 9/11/3 1/8/1 5/12/3
f 4/7/2 6/6/1 10/13/2
f 1/8/1 9/11/3 6/6/1
f 2/2/2 7/9/4 11/14/4
f 4/7/2 12/15/4 7/16/4
f 8/10/3 13/5/5 5/5/3
f 5/12/3 14/11/5 9/11/3
f 15/17/6 10/13/7 6/6/6
f 12/15/4 4/7/2 10/13/2
f 16/18/8 6/6/6 9/11/8
f 17/19/9 11/14/9 7/9/9
f 12/15/9 17/20/9 7/16/9
f 13/5/5 8/10/3 18/10/5
f 14/11/5 5/12/3 13/12/5
f 19/18/10 9/11/8 14/11/10
f 10/13/7 15/17/6 20/21/7
f 6/6/6 16/18/8 15/17/6
f 20/21/7 12/15/11 10/13/7
f 9/11/8 19/18/10 16/18/8
f 21/22/9 11/14/9 17/19/9
f 12/15/9 21/23/9 17/20/9
f 18/10/12 22/19/12 13/5/12
f 22/20/12 14/11/12 13/12/12
f 14/11/13 23/24/13 19/18/13
f 12/15/11 20/21/7 24/25/11
f 11/14/9 21/22/9 25/26/9
f 24/25/9 21/23/9 12/15/9
f 22/19/12 18/10/12 26/27/12
f 14/11/12 22/20/12 27/28/12
f 23/24/13 14/11/13 27/28/13
f 21/22/14 28/29/15 25/26/14
f 21/23/9 24/25/9 29/30/9
f 26/27/16 30/22/16 22/19/16
f 30/23/16 27/28/16 22/20/16
f 27/28/16 31/30/16 23/24/16
f 28/29/15 21/22/14 32/31/15
f 33/32/17 21/23/18 29/30/18
f 30/22/16 26/27/16 34/26/16
f 31/30/16 27/28/16 30/23/16
f 21/23/18 33/32/17 32/33/17
f 32/31/15 35/29/19 28/29/15
f 34/26/20 36/31/21 30/22/20
f 36/33/22 31/30/23 30/23/23
f 37/32/24 32/33/17 33/32/17
f 35/29/19 32/31/15 38/31/19
f 36/31/21 34/26/20 39/29/21
f 31/30/23 36/33/22 40/32/22
f 32/33/17 37/32/24 38/33/24
f 37/32/9 35/34/9 38/33/9
f 39/29/21 41/31/19 36/31/21
f 41/33/24 40/32/22 36/33/22
f 35/34/9 37/32/9 42/35/9
f 41/31/19 39/29/21 43/29/19
f 40/32/22 41/33/24 44/32/24
f 45/35/16 41/33/16 43/34/16
f 41/33/16 45/35/16 44/32/16
usemtl material_1_0
f 3//25 2//26 1//25
f 4//26 1//25 2//26
f 1//25 5//27 3//25
f 1//25 4//26 6//25
f 4//26 2//26 7//28
f 8//27 3//25 5//27
f 5//27 1//25 9//27
f 10//26 6//25 4//26
f 6//25 9//27 1//25
f 11//28 7//28 2//26
f 7//28 12//28 4//26
f 5//27 13//19 8//27
f 9//27 14//19 5//27
f 6//29 10//30 15//29
f 10//26 4//26 12//28
f 9//31 6//29 16//31
f 7//16 11//16 17//16
f 7//16 17//16 12//16
f 18//19 8//27 13//19
f 13//19 5//27 14//19
f 14//24 9//31 19//24
f 20//30 15//29 10//30
f 15//29 16//31 6//29
f 10//30 12//32 20//30
f 16//31 19//24 9//31
f 17//16 11//16 21//16
f 17//16 21//16 12//16
f 13//33 22//33 18//33
f 13//33 14//33 22//33
f 19//34 23//34 14//34
f 24//32 20//30 12//32
f 25//16 21//16 11//16
f 12//16 21//16 24//16
f 26//33 18//33 22//33
f 27//33 22//33 14//33
f 27//34 14//34 23//34
f 25//35 28//36 21//35
f 29//16 24//16 21//16
f 22//9 30//9 26//9
f 22//9 27//9 30//9
f 23//9 31//9 27//9
f 32//36 21//35 28//36
f 29//37 21//37 33//38
f 34//9 26//9 30//9
f 30//9 27//9 31//9
f 32//38 33//38 21//37
f 28//36 35//5 32//36
f 30//39 36//40 34//39
f 30//41 31//41 36//42
f 33//38 32//38 37//10
f 38//5 32//36 35//5
f 39//40 34//39 36//40
f 40//42 36//42 31//41
f 38//10 37//10 32//38
f 38//16 35//16 37//16
f 36//40 41//5 39//40
f 36//42 40//42 41//10
f 42//16 37//16 35//16
f 43//5 39//40 41//5
f 44//10 41//10 40//42
f 43//9 41//9 45//9
f 44//9 45//9 41//9
