# SSTK version 0.8.0
# 16
mtllib original-16.mtl
o mesh17/mesh17-geometry#mesh17-geometry
v 0.281873 -0.244734 0.399523
v 0.280859 -0.273502 0.399523
v 0.277627 -0.248614 0.399523
v 0.281996 -0.262682 0.399523
v 0.281572 -0.302100 0.399523
v 0.277627 -0.248614 0.428552
v 0.286745 -0.241963 0.399523
v 0.280859 -0.273502 0.428552
v 0.277398 -0.298132 0.399523
v 0.281996 -0.284065 0.399523
v 0.281873 -0.244734 0.428552
v 0.274185 -0.253495 0.399523
v 0.283418 -0.258467 0.399523
v 0.281996 -0.262682 0.428552
v 0.281996 -0.284065 0.428552
v 0.281572 -0.302100 0.428552
v 0.286459 -0.304934 0.399523
v 0.274185 -0.253495 0.428552
v 0.286745 -0.241963 0.428552
v 0.285408 -0.255051 0.399523
v 0.274056 -0.293192 0.399523
v 0.277398 -0.298132 0.428552
v 0.286459 -0.304934 0.428552
v 0.283418 -0.288258 0.428552
v 0.283418 -0.288258 0.399523
v 0.271726 -0.259270 0.399523
v 0.292243 -0.240300 0.399523
v 0.287923 -0.252410 0.399523
v 0.283418 -0.258467 0.428552
v 0.274056 -0.293192 0.428552
v 0.285408 -0.291724 0.399523
v 0.292057 -0.306634 0.428552
v 0.271726 -0.259270 0.428552
v 0.292243 -0.240300 0.428552
v 0.285408 -0.255051 0.428552
v 0.271669 -0.287441 0.399523
v 0.271669 -0.287441 0.428552
v 0.285408 -0.291724 0.428552
v 0.287923 -0.294440 0.399523
v 0.292057 -0.306634 0.399523
v 0.287923 -0.294440 0.428552
v 0.270251 -0.265939 0.399523
v 0.287923 -0.252410 0.428552
v 0.298366 -0.239746 0.399523
v 0.290921 -0.250524 0.399523
v 0.298366 -0.307201 0.428552
v 0.290921 -0.296380 0.428552
v 0.270251 -0.265939 0.428552
v 0.290921 -0.250524 0.428552
v 0.298366 -0.239746 0.428552
v 0.294403 -0.249392 0.399523
v 0.270237 -0.280877 0.399523
v 0.270237 -0.280877 0.428552
v 0.290921 -0.296380 0.399523
v 0.298366 -0.307201 0.399523
v 0.294403 -0.297544 0.428552
v 0.269760 -0.273502 0.399523
v 0.294403 -0.249392 0.428552
v 0.304510 -0.240299 0.399523
v 0.298366 -0.249015 0.399523
v 0.294403 -0.297544 0.399523
v 0.304510 -0.306652 0.428552
v 0.298366 -0.297932 0.428552
v 0.269760 -0.273502 0.428552
v 0.298366 -0.249015 0.428552
v 0.304510 -0.240299 0.428552
v 0.298366 -0.297932 0.399523
v 0.304510 -0.306652 0.399523
v 0.302303 -0.249392 0.428552
v 0.310009 -0.241956 0.399523
v 0.302303 -0.249392 0.399523
v 0.302280 -0.297551 0.399523
v 0.310009 -0.305005 0.428552
v 0.302280 -0.297551 0.428552
v 0.305761 -0.250524 0.428552
v 0.310009 -0.241956 0.428552
v 0.305761 -0.250524 0.399523
v 0.305725 -0.296409 0.399523
v 0.310009 -0.305005 0.399523
v 0.305725 -0.296409 0.428552
v 0.314865 -0.244718 0.399523
v 0.308740 -0.252410 0.399523
v 0.314865 -0.302261 0.428552
v 0.308702 -0.294505 0.428552
v 0.308740 -0.252410 0.428552
v 0.314865 -0.244718 0.428552
v 0.311239 -0.255051 0.399523
v 0.308702 -0.294505 0.399523
v 0.314865 -0.302261 0.399523
v 0.311211 -0.291839 0.428552
v 0.311239 -0.255051 0.428552
v 0.319078 -0.248586 0.399523
v 0.313217 -0.258467 0.399523
v 0.311211 -0.291839 0.399523
v 0.319078 -0.298418 0.428552
v 0.313201 -0.288408 0.428552
v 0.313217 -0.258467 0.428552
v 0.319078 -0.248586 0.428552
v 0.315759 -0.273502 0.399523
v 0.314629 -0.262682 0.399523
v 0.313201 -0.288408 0.399523
v 0.319078 -0.298418 0.399523
v 0.315759 -0.273502 0.428552
v 0.314622 -0.284208 0.428552
v 0.314629 -0.262682 0.428552
v 0.322482 -0.253458 0.428552
v 0.314622 -0.284208 0.399523
v 0.322482 -0.293568 0.399523
v 0.322482 -0.253458 0.399523
v 0.322482 -0.293568 0.428552
v 0.324913 -0.259234 0.428552
v 0.324913 -0.287798 0.428552
v 0.324913 -0.287798 0.399523
v 0.324913 -0.259234 0.399523
v 0.326372 -0.265916 0.428552
v 0.326372 -0.281110 0.428552
v 0.326372 -0.281110 0.399523
v 0.326372 -0.265916 0.399523
v 0.326859 -0.273502 0.428552
v 0.326859 -0.273502 0.399523
vn 0 0 -1
vn 0 0 1
vn -0.7502768048886665 0.6611238280731181 0
vn -0.5881308482866681 0.8087657913720164 0
vn 0.7502768048886665 -0.6611238280731181 0
vn 0.5881308482866681 -0.8087657913720164 0
vn 0.9769747525079022 -0.21335494595186516 0
vn 0.9999991986213607 0.001266000251454894 0
vn -0.9999991986213607 -0.001266000251454894 0
vn -0.9769747525079022 0.21335494595186516 0
vn -0.8735680491696527 0.48670202739451107 0
vn 0.8735680491696527 -0.48670202739451107 0
vn -0.394413948354455 0.9189328796726394 0
vn 0.394413948354455 -0.9189328796726394 0
vn 0.9765373547404418 0.2153480782281108 0
vn -0.9765373547404418 -0.2153480782281108 0
vn -0.5993900656485002 -0.8004570876704675 0
vn -0.7630345897206081 -0.6463576524571386 0
vn 0.5993900656485002 0.8004570876704675 0
vn 0.7630345897206081 0.6463576524571386 0
vn 0.9104809631428208 -0.41355098325904305 0
vn -0.9104809631428208 0.41355098325904305 0
vn -0.39880490960668996 -0.9170357921442324 0
vn 0.39880490960668996 0.9170357921442324 0
vn 0.9114617285352922 0.4113848774754089 0
vn -0.9114617285352922 -0.4113848774754089 0
vn -0.9523129547184723 0.30512298549170747 0
vn 0.9523129547184723 -0.30512298549170747 0
vn -0.19080191444014774 0.9816285598157659 0
vn 0.19080191444014774 -0.9816285598157659 0
vn 0.7995437690917928 -0.6006078265444847 0
vn -0.7995437690917928 0.6006078265444847 0
vn -0.8804213565244996 -0.47419219202298163 0
vn 0.8804213565244996 0.47419219202298163 0
vn -0.19105198441932922 -0.9815799199501977 0
vn 0.19105198441932922 0.9815799199501977 0
vn 0.6331401465817746 -0.7740371792016252 0
vn -0.6331401465817746 0.7740371792016252 0
vn -0.9541189077629443 -0.2994279710535508 0
vn 0.9541189077629443 0.2994279710535508 0
vn 0.8055969525886068 0.5924639651320155 0
vn -0.8055969525886068 -0.5924639651320155 0
vn -0.9900340758663141 0.1408280107916509 0
vn 0.9900340758663141 -0.1408280107916509 0
vn -0.0002879999880560647 0.9999999585280025 0
vn 0.0002879999880560647 -0.9999999585280025 0
vn 0.6434190985213051 0.765514117216679 0
vn -0.6434190985213051 -0.765514117216679 0
vn -0.00023799999325936432 -0.9999999716780013 0
vn 0.00023799999325936432 0.9999999716780013 0
vn 0.4240738236150112 -0.9056276233223809 0
vn -0.4240738236150112 0.9056276233223809 0
vn -0.9902531763393502 -0.13927902480211454 0
vn 0.9902531763393502 0.13927902480211454 0
vn 0.43358285715940315 0.9011137031348978 0
vn -0.43358285715940315 -0.9011137031348978 0
vn -0.9999999899180003 0.00014199999856835603 0
vn 0.9999999899180003 -0.00014199999856835603 0
vn 0.19003602289696667 0.9817771182918776 0
vn -0.19003602289696667 -0.9817771182918776 0
vn 0.20318699018921796 -0.979139952722718 0
vn -0.20318699018921796 0.979139952722718 0
vn 0.1888740612068215 -0.9820013182288717 0
vn -0.1888740612068215 0.9820013182288717 0
vn 0.20857910645191996 0.97800549914186 0
vn -0.20857910645191996 -0.97800549914186 0
vn -0.0003209999834619207 -0.9999999484795039 0
vn 0.0003209999834619207 0.9999999484795039 0
vn 0.0002849999884254382 0.9999999593875025 0
vn -0.0002849999884254382 -0.9999999593875025 0
vn 0.3939771081607173 0.9191202523311728 0
vn -0.3939771081607173 -0.9191202523311728 0
vn -0.20446900796509032 -0.9788730381319998 0
vn 0.20446900796509032 0.9788730381319998 0
vn 0.3918739623336644 -0.9200189115691666 0
vn -0.3918739623336644 0.9200189115691666 0
vn -0.20708690495769383 0.9783225509999465 0
vn 0.20708690495769383 -0.9783225509999465 0
vn -0.42631207223432366 -0.9045761532713964 0
vn 0.42631207223432366 0.9045761532713964 0
vn 0.589111057430967 0.8080520787749809 0
vn -0.589111057430967 -0.8080520787749809 0
vn -0.43011989281757707 0.9027717750365238 0
vn 0.43011989281757707 -0.9027717750365238 0
vn 0.5866758824712321 -0.8098218377684074 0
vn -0.5866758824712321 0.8098218377684074 0
vn -0.63552682523968 -0.7720787876899438 0
vn 0.63552682523968 0.7720787876899438 0
vn -0.6384069845984317 0.7696989814310125 0
vn 0.6384069845984317 -0.7696989814310125 0
vn 0.752482837526557 0.6586118577948482 0
vn -0.752482837526557 -0.6586118577948482 0
vn -0.8013251233776347 -0.5982290921075458 0
vn 0.8013251233776347 0.5982290921075458 0
vn 0.7507328781842163 -0.6606058928084452 0
vn -0.7507328781842163 0.6606058928084452 0
vn -0.8019240291691851 0.5974260217307745 0
vn 0.8019240291691851 -0.5974260217307745 0
vn -0.9114390866113262 -0.4114350390974393 0
vn 0.9114390866113262 0.4114350390974393 0
vn -0.9106430204507658 0.41319400927930455 0
vn 0.9106430204507658 -0.41319400927930455 0
vn 0.8755915104765662 0.48305228162318514 0
vn -0.8755915104765662 -0.48305228162318514 0
vn -0.9772470948784819 -0.2121040205926501 0
vn 0.9772470948784819 0.2121040205926501 0
vn 0.8749828486257928 -0.4841539162401693 0
vn -0.8749828486257928 0.4841539162401693 0
vn -0.9767457375889904 0.21440094239937213 0
vn 0.9767457375889904 -0.21440094239937213 0
vn -0.9999996110382269 0.0008819996569357161 0
vn 0.9999996110382269 -0.0008819996569357161 0
vn 0.9533358166544734 0.301911941936301 0
vn -0.9533358166544734 -0.301911941936301 0
vn 0.9533025814535468 -0.30201686739982553 0
vn -0.9533025814535468 0.30201686739982553 0
vn 0.990285649389428 0.13904795077008178 0
vn -0.990285649389428 -0.13904795077008178 0
vn 0.9903135724832085 -0.13884894005913379 0
vn -0.9903135724832085 0.13884894005913379 0
vn 0.9999999959500001 0.00008999999963550002 0
vn -0.9999999959500001 -0.00008999999963550002 0
usemtl material_0_0
f 1//1 2//1 3//1
f 2//1 1//1 4//1
f 3//2 2//2 1//2
f 4//2 1//2 2//2
f 5//1 3//1 2//1
f 2//2 3//2 5//2
f 6//3 1//4 3//3
f 3//5 1//6 6//5
f 4//1 1//1 7//1
f 7//2 1//2 4//2
f 4//7 8//8 2//8
f 2//9 8//9 4//10
f 9//1 3//1 5//1
f 5//2 3//2 9//2
f 5//1 2//1 10//1
f 10//2 2//2 5//2
f 1//4 6//3 11//4
f 11//6 6//5 1//6
f 12//11 6//3 3//3
f 3//5 6//5 12//12
f 11//4 7//13 1//4
f 1//6 7//14 11//6
f 4//1 7//1 13//1
f 13//2 7//2 4//2
f 8//8 4//7 14//7
f 14//10 4//10 8//9
f 15//15 2//8 8//8
f 8//9 2//9 15//16
f 9//1 12//1 3//1
f 3//2 12//2 9//2
f 16//17 9//18 5//17
f 5//19 9//20 16//19
f 2//8 15//15 10//15
f 10//16 15//16 2//9
f 5//1 10//1 17//1
f 17//2 10//2 5//2
f 8//2 11//2 6//2
f 6//1 11//1 8//1
f 6//3 12//11 18//11
f 18//12 12//12 6//5
f 7//13 11//4 19//13
f 19//14 11//6 7//14
f 13//1 7//1 20//1
f 20//2 7//2 13//2
f 13//21 14//7 4//7
f 4//10 14//10 13//22
f 11//2 8//2 14//2
f 14//1 8//1 11//1
f 8//2 16//2 15//2
f 15//1 16//1 8//1
f 21//1 12//1 9//1
f 9//2 12//2 21//2
f 9//18 16//17 22//18
f 22//20 16//19 9//20
f 5//17 23//23 16//17
f 16//19 23//24 5//19
f 24//25 10//15 15//15
f 15//16 10//16 24//26
f 17//1 10//1 25//1
f 25//2 10//2 17//2
f 23//23 5//17 17//23
f 17//24 5//19 23//24
f 6//2 16//2 8//2
f 8//1 16//1 6//1
f 26//27 18//11 12//11
f 12//12 18//12 26//28
f 18//2 22//2 6//2
f 6//1 22//1 18//1
f 11//2 14//2 19//2
f 19//1 14//1 11//1
f 19//13 27//29 7//13
f 7//14 27//30 19//14
f 20//1 7//1 28//1
f 28//2 7//2 20//2
f 20//31 29//21 13//21
f 13//22 29//22 20//32
f 14//7 13//21 29//21
f 29//22 13//22 14//10
f 15//2 16//2 23//2
f 23//1 16//1 15//1
f 21//1 26//1 12//1
f 12//2 26//2 21//2
f 9//18 30//33 21//33
f 21//34 30//34 9//20
f 6//2 22//2 16//2
f 16//1 22//1 6//1
f 30//33 9//18 22//18
f 22//20 9//20 30//34
f 10//15 24//25 25//25
f 25//26 24//26 10//16
f 15//2 23//2 24//2
f 24//1 23//1 15//1
f 17//1 25//1 31//1
f 31//2 25//2 17//2
f 17//23 32//35 23//23
f 23//24 32//36 17//24
f 18//11 26//27 33//27
f 33//28 26//28 18//12
f 18//2 30//2 22//2
f 22//1 30//1 18//1
f 19//2 14//2 29//2
f 29//1 14//1 19//1
f 27//29 19//13 34//29
f 34//30 19//14 27//30
f 28//1 7//1 27//1
f 27//2 7//2 28//2
f 28//37 35//31 20//31
f 20//32 35//32 28//38
f 29//21 20//31 35//31
f 35//32 20//32 29//22
f 36//1 26//1 21//1
f 21//2 26//2 36//2
f 37//39 21//33 30//33
f 30//34 21//34 37//40
f 38//41 25//25 24//25
f 24//26 25//26 38//42
f 24//2 23//2 38//2
f 38//1 23//1 24//1
f 25//25 38//41 31//41
f 31//42 38//42 25//26
f 17//1 31//1 39//1
f 39//2 31//2 17//2
f 32//35 17//23 40//35
f 40//36 17//24 32//36
f 41//2 23//2 32//2
f 32//1 23//1 41//1
f 42//43 33//27 26//27
f 26//28 33//28 42//44
f 33//2 30//2 18//2
f 18//1 30//1 33//1
f 19//2 29//2 35//2
f 35//1 29//1 19//1
f 19//2 43//2 34//2
f 34//1 43//1 19//1
f 34//29 44//45 27//29
f 27//30 44//46 34//30
f 28//1 27//1 45//1
f 45//2 27//2 28//2
f 35//31 28//37 43//37
f 43//38 28//38 35//32
f 36//1 42//1 26//1
f 26//2 42//2 36//2
f 21//33 37//39 36//39
f 36//40 37//40 21//34
f 33//2 37//2 30//2
f 30//1 37//1 33//1
f 38//2 23//2 41//2
f 41//1 23//1 38//1
f 41//47 31//41 38//41
f 38//42 31//42 41//48
f 31//41 41//47 39//47
f 39//48 41//48 31//42
f 17//1 39//1 40//1
f 40//2 39//2 17//2
f 40//35 46//49 32//35
f 32//36 46//50 40//36
f 41//2 32//2 47//2
f 47//1 32//1 41//1
f 33//27 42//43 48//43
f 48//44 42//44 33//28
f 19//2 35//2 43//2
f 43//1 35//1 19//1
f 34//2 43//2 49//2
f 49//1 43//1 34//1
f 44//45 34//29 50//45
f 50//46 34//30 44//46
f 51//1 27//1 44//1
f 44//2 27//2 51//2
f 45//1 27//1 51//1
f 51//2 27//2 45//2
f 49//51 28//37 45//51
f 45//52 28//38 49//52
f 28//37 49//51 43//37
f 43//38 49//52 28//38
f 52//1 42//1 36//1
f 36//2 42//2 52//2
f 53//53 36//39 37//39
f 37//40 36//40 53//54
f 48//2 37//2 33//2
f 33//1 37//1 48//1
f 41//47 54//55 39//47
f 39//48 54//56 41//48
f 40//1 39//1 54//1
f 54//2 39//2 40//2
f 46//49 40//35 55//49
f 55//50 40//36 46//50
f 56//2 32//2 46//2
f 46//1 32//1 56//1
f 47//2 32//2 56//2
f 56//1 32//1 47//1
f 54//55 41//47 47//55
f 47//56 41//48 54//56
f 57//57 48//43 42//43
f 42//44 48//44 57//58
f 34//2 49//2 58//2
f 58//1 49//1 34//1
f 34//2 58//2 50//2
f 50//1 58//1 34//1
f 50//45 59//59 44//45
f 44//46 59//60 50//46
f 51//1 44//1 60//1
f 60//2 44//2 51//2
f 58//61 45//51 51//61
f 51//62 45//52 58//62
f 45//51 58//61 49//51
f 49//52 58//62 45//52
f 42//1 52//1 57//1
f 57//2 52//2 42//2
f 36//39 53//53 52//53
f 52//54 53//54 36//40
f 48//2 53//2 37//2
f 37//1 53//1 48//1
f 40//1 54//1 61//1
f 61//2 54//2 40//2
f 40//1 61//1 55//1
f 55//2 61//2 40//2
f 55//49 62//63 46//49
f 46//50 62//64 55//50
f 56//2 46//2 63//2
f 63//1 46//1 56//1
f 61//65 47//55 56//65
f 56//66 47//56 61//66
f 47//55 61//65 54//55
f 54//56 61//66 47//56
f 48//43 57//57 64//57
f 64//58 57//58 48//44
f 50//2 58//2 65//2
f 65//1 58//1 50//1
f 59//59 50//45 66//59
f 66//60 50//46 59//60
f 60//1 44//1 59//1
f 59//2 44//2 60//2
f 65//67 51//61 60//67
f 60//68 51//62 65//68
f 51//61 65//67 58//61
f 58//62 65//68 51//62
f 52//53 64//57 57//57
f 57//58 64//58 52//54
f 64//57 52//53 53//53
f 53//54 52//54 64//58
f 53//2 48//2 64//2
f 64//1 48//1 53//1
f 55//1 61//1 67//1
f 67//2 61//2 55//2
f 62//63 55//49 68//63
f 68//64 55//50 62//64
f 63//2 46//2 62//2
f 62//1 46//1 63//1
f 67//69 56//65 63//69
f 63//70 56//66 67//70
f 56//65 67//69 61//65
f 61//66 67//70 56//66
f 50//2 65//2 69//2
f 69//1 65//1 50//1
f 50//2 69//2 66//2
f 66//1 69//1 50//1
f 66//59 70//71 59//59
f 59//60 70//72 66//60
f 60//1 59//1 71//1
f 71//2 59//2 60//2
f 60//67 69//73 65//67
f 65//68 69//74 60//68
f 55//1 67//1 72//1
f 72//2 67//2 55//2
f 55//1 72//1 68//1
f 68//2 72//2 55//2
f 68//63 73//75 62//63
f 62//64 73//76 68//64
f 63//2 62//2 74//2
f 74//1 62//1 63//1
f 63//69 72//77 67//69
f 67//70 72//78 63//70
f 66//2 69//2 75//2
f 75//1 69//1 66//1
f 70//71 66//59 76//71
f 76//72 66//60 70//72
f 77//1 59//1 70//1
f 70//2 59//2 77//2
f 71//1 59//1 77//1
f 77//2 59//2 71//2
f 69//73 60//67 71//73
f 71//74 60//68 69//74
f 68//1 72//1 78//1
f 78//2 72//2 68//2
f 73//75 68//63 79//75
f 79//76 68//64 73//76
f 80//2 62//2 73//2
f 73//1 62//1 80//1
f 74//2 62//2 80//2
f 80//1 62//1 74//1
f 72//77 63//69 74//77
f 74//78 63//70 72//78
f 71//73 75//79 69//73
f 69//74 75//80 71//74
f 66//2 75//2 76//2
f 76//1 75//1 66//1
f 76//71 81//81 70//71
f 70//72 81//82 76//72
f 77//1 70//1 82//1
f 82//2 70//2 77//2
f 75//79 71//73 77//79
f 77//80 71//74 75//80
f 74//77 78//83 72//77
f 72//78 78//84 74//78
f 68//1 78//1 79//1
f 79//2 78//2 68//2
f 79//75 83//85 73//75
f 73//76 83//86 79//76
f 80//2 73//2 84//2
f 84//1 73//1 80//1
f 78//83 74//77 80//83
f 80//84 74//78 78//84
f 76//2 75//2 85//2
f 85//1 75//1 76//1
f 81//81 76//71 86//81
f 86//82 76//72 81//82
f 87//1 70//1 81//1
f 81//2 70//2 87//2
f 82//1 70//1 87//1
f 87//2 70//2 82//2
f 85//87 77//79 82//87
f 82//88 77//80 85//88
f 77//79 85//87 75//79
f 75//80 85//88 77//80
f 79//1 78//1 88//1
f 88//2 78//2 79//2
f 83//85 79//75 89//85
f 89//86 79//76 83//86
f 90//2 73//2 83//2
f 83//1 73//1 90//1
f 84//2 73//2 90//2
f 90//1 73//1 84//1
f 88//89 80//83 84//89
f 84//90 80//84 88//90
f 80//83 88//89 78//83
f 78//84 88//90 80//84
f 76//2 85//2 91//2
f 91//1 85//1 76//1
f 76//2 91//2 86//2
f 86//1 91//1 76//1
f 86//81 92//91 81//81
f 81//82 92//92 86//82
f 87//1 81//1 93//1
f 93//2 81//2 87//2
f 87//93 85//87 82//87
f 82//88 85//88 87//94
f 79//1 88//1 94//1
f 94//2 88//2 79//2
f 79//1 94//1 89//1
f 89//2 94//2 79//2
f 89//85 95//95 83//85
f 83//86 95//96 89//86
f 90//2 83//2 96//2
f 96//1 83//1 90//1
f 90//97 88//89 84//89
f 84//90 88//90 90//98
f 85//87 87//93 91//93
f 91//94 87//94 85//88
f 86//2 91//2 97//2
f 97//1 91//1 86//1
f 92//91 86//81 98//91
f 98//92 86//82 92//92
f 99//1 81//1 92//1
f 92//2 81//2 99//2
f 93//1 81//1 100//1
f 100//2 81//2 93//2
f 93//99 91//93 87//93
f 87//94 91//94 93//100
f 88//89 90//97 94//97
f 94//98 90//98 88//90
f 89//1 94//1 101//1
f 101//2 94//2 89//2
f 95//95 89//85 102//95
f 102//96 89//86 95//96
f 103//2 83//2 95//2
f 95//1 83//1 103//1
f 96//2 83//2 104//2
f 104//1 83//1 96//1
f 96//101 94//97 90//97
f 90//98 94//98 96//102
f 91//93 93//99 97//99
f 97//100 93//100 91//94
f 86//2 97//2 105//2
f 105//1 97//1 86//1
f 86//2 103//2 98//2
f 98//1 103//1 86//1
f 106//103 92//91 98//91
f 98//92 92//92 106//104
f 100//1 81//1 99//1
f 99//2 81//2 100//2
f 102//1 99//1 92//1
f 92//2 99//2 102//2
f 100//105 97//99 93//99
f 93//100 97//100 100//106
f 94//97 96//101 101//101
f 101//102 96//102 94//98
f 89//1 101//1 107//1
f 107//2 101//2 89//2
f 89//1 99//1 102//1
f 102//2 99//2 89//2
f 108//107 95//95 102//95
f 102//96 95//96 108//108
f 104//2 83//2 103//2
f 103//1 83//1 104//1
f 98//2 103//2 95//2
f 95//1 103//1 98//1
f 104//109 101//101 96//101
f 96//102 101//102 104//110
f 97//99 100//105 105//105
f 105//106 100//106 97//100
f 86//2 105//2 103//2
f 103//1 105//1 86//1
f 92//91 106//103 109//103
f 109//104 106//104 92//92
f 98//2 110//2 106//2
f 106//1 110//1 98//1
f 99//111 105//105 100//105
f 100//106 105//106 99//112
f 102//1 92//1 109//1
f 109//2 92//2 102//2
f 101//101 104//109 107//109
f 107//110 104//110 101//102
f 89//1 107//1 99//1
f 99//2 107//2 89//2
f 95//95 108//107 110//107
f 110//108 108//108 95//96
f 102//1 109//1 108//1
f 108//2 109//2 102//2
f 103//111 107//109 104//109
f 104//110 107//110 103//112
f 98//2 95//2 110//2
f 110//1 95//1 98//1
f 105//105 99//111 103//111
f 103//112 99//112 105//106
f 111//113 109//103 106//103
f 106//104 109//104 111//114
f 106//2 110//2 112//2
f 112//1 110//1 106//1
f 107//109 103//111 99//111
f 99//112 103//112 107//110
f 113//115 110//107 108//107
f 108//108 110//108 113//116
f 108//1 109//1 114//1
f 114//2 109//2 108//2
f 109//103 111//113 114//113
f 114//114 111//114 109//104
f 106//2 112//2 111//2
f 111//1 112//1 106//1
f 110//107 113//115 112//115
f 112//116 113//116 110//108
f 108//1 114//1 113//1
f 113//2 114//2 108//2
f 115//117 114//113 111//113
f 111//114 114//114 115//118
f 111//2 112//2 116//2
f 116//1 112//1 111//1
f 117//119 112//115 113//115
f 113//116 112//116 117//120
f 113//1 114//1 118//1
f 118//2 114//2 113//2
f 114//113 115//117 118//117
f 118//118 115//118 114//114
f 111//2 116//2 115//2
f 115//1 116//1 111//1
f 112//115 117//119 116//119
f 116//120 117//120 112//116
f 113//1 118//1 117//1
f 117//2 118//2 113//2
f 119//121 118//117 115//117
f 115//118 118//118 119//122
f 115//2 116//2 119//2
f 119//1 116//1 115//1
f 120//121 116//119 117//119
f 117//120 116//120 120//122
f 117//1 118//1 120//1
f 120//2 118//2 117//2
f 118//117 119//121 120//121
f 120//122 119//122 118//118
f 116//119 120//121 119//121
f 119//122 120//122 116//120
