# SSTK version 0.8.0
# 42
mtllib original-42.mtl
o mesh18/mesh18-geometry#mesh18-geometry
v -0.242444 0.249071 0.283112
v -0.265926 0.246512 0.278173
v -0.265926 0.246512 0.283112
v -0.242444 0.249071 0.278173
v -0.288965 0.241441 0.278173
v -0.212450 0.246749 0.283112
v -0.218311 0.247942 0.283112
v -0.212450 0.246749 0.278173
v -0.288965 0.241441 0.283112
v -0.207479 0.242952 0.278173
v -0.207479 0.242952 0.283112
v -0.218311 0.247942 0.278173
v -0.311276 0.232275 0.278173
v -0.204065 0.236841 0.278173
v -0.311276 0.232275 0.283112
v -0.204065 0.236841 0.283112
v -0.333149 0.220597 0.278173
v -0.202933 0.229483 0.278173
v -0.333149 0.220597 0.283112
v -0.204185 0.222282 0.278173
v -0.202933 0.229483 0.283112
v -0.354371 0.205232 0.278173
v -0.204185 0.222282 0.283112
v -0.207543 0.216048 0.278173
v -0.354371 0.205232 0.283112
v -0.260342 0.210171 0.278173
v -0.207543 0.216048 0.283112
v -0.236860 0.212730 0.278173
v -0.359555 0.200785 0.278173
v -0.260342 0.210171 0.283112
v -0.283377 0.205100 0.278173
v -0.236860 0.212730 0.283112
v -0.212859 0.212361 0.278173
v -0.359555 0.200785 0.283112
v -0.283377 0.205100 0.283112
v -0.212859 0.212361 0.283112
v -0.362913 0.194551 0.283112
v -0.305692 0.195934 0.278173
v -0.305692 0.195934 0.283112
v -0.362913 0.194551 0.278173
v -0.364165 0.187350 0.283112
v -0.364165 0.187350 0.278173
v -0.327565 0.184261 0.283112
v -0.327565 0.184261 0.278173
v -0.363033 0.179992 0.283112
v -0.363033 0.179992 0.278173
v -0.348919 0.169650 0.283112
v -0.359619 0.173885 0.283112
v -0.359619 0.173885 0.278173
v -0.348919 0.169650 0.278173
v -0.354648 0.170083 0.283112
v -0.354648 0.170083 0.278173
vn -0.030895987790757678 0.9995226050162316 0
vn -0.16187796466163948 0.9868107845767623 0
vn 0.16187796466163948 -0.9868107845767623 0
vn 0.030895987790757678 -0.9995226050162316 0
vn -0.2985949763475464 0.9543799244011834 0
vn 0.2985949763475464 -0.9543799244011834 0
vn 0 0 1
vn 0 0 -1
vn 0.12340997168753436 0.9923557723357495 0
vn -0.12340997168753436 -0.9923557723357495 0
vn -0.42602678735943283 0.9047105484364603 0
vn 0.42602678735943283 -0.9047105484364603 0
vn 0.7557928093248352 0.6548108348010694 0
vn 0.41372699765623655 0.9104009948425783 0
vn -0.41372699765623655 -0.9104009948425783 0
vn -0.7557928093248352 -0.6548108348010694 0
vn 0.9456996256146148 0.32504187132179935 0
vn -0.9456996256146148 -0.32504187132179935 0
vn -0.5299487817933691 0.8480296508234392 0
vn 0.5299487817933691 -0.8480296508234392 0
vn 0.9999530314620225 -0.009692000304944255 0
vn -0.9999530314620225 0.009692000304944255 0
vn -0.6193019378799933 0.7851529212440626 0
vn 0.6193019378799933 -0.7851529212440626 0
vn 0.9450337146542007 -0.32697290127299966 0
vn -0.9450337146542007 0.32697290127299966 0
vn 0.7456801182589107 -0.6663041056705091 0
vn -0.7456801182589107 0.6663041056705091 0
vn -0.7788550122120572 0.6272040098342453 0
vn 0.7788550122120572 -0.6272040098342453 0
vn 0.16189694596908893 -0.9868076706663168 0
vn 0.29858199549439773 -0.9543839855983457 0
vn -0.29858199549439773 0.9543839855983457 0
vn -0.16189694596908893 0.9868076706663168 0
vn 0.04656301652535718 -0.9989153545181189 0
vn -0.04656301652535718 0.9989153545181189 0
vn 0.29125604171354763 -0.9566451370102479 0
vn -0.29125604171354763 0.9566451370102479 0
vn 0.4259280233764213 -0.904757049656235 0
vn -0.4259280233764213 0.904757049656235 0
vn 0.5185420704003875 -0.8550521160870136 0
vn -0.5185420704003875 0.8550521160870136 0
vn -0.9456515090991899 -0.3251818311936027 0
vn 0.9456515090991899 0.3251818311936027 0
vn 0.25931893114759147 -0.9657917435702538 0
vn -0.25931893114759147 0.9657917435702538 0
vn -0.7558726367692711 -0.6547186853782849 0
vn 0.7558726367692711 0.6547186853782849 0
vn -0.356165899831026 -0.9344227372006503 0
vn 0.356165899831026 0.9344227372006503 0
usemtl material_0_0
f 1//1 2//2 3//2
f 2//2 1//1 4//1
f 3//3 2//3 1//4
f 4//4 1//4 2//3
f 5//5 3//2 2//2
f 2//3 3//3 5//6
f 3//7 6//7 1//7
f 1//8 6//8 3//8
f 7//9 4//1 1//1
f 1//4 4//4 7//10
f 8//8 2//8 4//8
f 4//7 2//7 8//7
f 3//2 5//5 9//5
f 9//6 5//6 3//3
f 10//8 5//8 2//8
f 2//7 5//7 10//7
f 3//7 11//7 6//7
f 6//8 11//8 3//8
f 1//7 6//7 7//7
f 7//8 6//8 1//8
f 4//1 7//9 12//9
f 12//10 7//10 4//4
f 10//8 2//8 8//8
f 8//7 2//7 10//7
f 8//8 4//8 12//8
f 12//7 4//7 8//7
f 13//11 9//5 5//5
f 5//6 9//6 13//12
f 9//7 11//7 3//7
f 3//8 11//8 9//8
f 14//8 5//8 10//8
f 10//7 5//7 14//7
f 11//13 8//14 6//14
f 6//15 8//15 11//16
f 6//14 12//9 7//9
f 7//10 12//10 6//15
f 8//14 11//13 10//13
f 10//16 11//16 8//15
f 12//9 6//14 8//14
f 8//15 6//15 12//10
f 9//5 13//11 15//11
f 15//12 13//12 9//6
f 14//8 13//8 5//8
f 5//7 13//7 14//7
f 9//7 16//7 11//7
f 11//8 16//8 9//8
f 11//13 14//17 10//13
f 10//16 14//18 11//16
f 17//19 15//11 13//11
f 13//12 15//12 17//20
f 15//7 16//7 9//7
f 9//8 16//8 15//8
f 18//8 13//8 14//8
f 14//7 13//7 18//7
f 14//17 11//13 16//17
f 16//18 11//16 14//18
f 15//11 17//19 19//19
f 19//20 17//20 15//12
f 20//8 17//8 13//8
f 13//7 17//7 20//7
f 15//7 21//7 16//7
f 16//8 21//8 15//8
f 20//8 13//8 18//8
f 18//7 13//7 20//7
f 16//17 18//21 14//17
f 14//18 18//22 16//18
f 22//23 19//19 17//19
f 17//20 19//20 22//24
f 19//7 23//7 15//7
f 15//8 23//8 19//8
f 24//8 17//8 20//8
f 20//7 17//7 24//7
f 15//7 23//7 21//7
f 21//8 23//8 15//8
f 18//21 16//17 21//21
f 21//22 16//18 18//22
f 21//21 20//25 18//21
f 18//22 20//26 21//22
f 19//19 22//23 25//23
f 25//24 22//24 19//20
f 26//8 22//8 17//8
f 17//7 22//7 26//7
f 19//7 27//7 23//7
f 23//8 27//8 19//8
f 28//8 17//8 24//8
f 24//7 17//7 28//7
f 23//25 24//27 20//25
f 20//26 24//28 23//26
f 20//25 21//21 23//25
f 23//26 21//22 20//26
f 29//29 25//23 22//23
f 22//24 25//24 29//30
f 25//7 30//7 19//7
f 19//8 30//8 25//8
f 31//8 22//8 26//8
f 26//7 22//7 31//7
f 26//8 17//8 28//8
f 28//7 17//7 26//7
f 19//7 32//7 27//7
f 27//8 32//8 19//8
f 24//27 23//25 27//27
f 27//28 23//26 24//28
f 24//8 33//8 28//8
f 28//7 33//7 24//7
f 25//23 29//29 34//29
f 34//30 29//30 25//24
f 31//8 29//8 22//8
f 22//7 29//7 31//7
f 25//7 35//7 30//7
f 30//8 35//8 25//8
f 19//7 30//7 32//7
f 32//8 30//8 19//8
f 26//31 35//32 31//32
f 31//33 35//33 26//34
f 28//35 30//31 26//31
f 26//34 30//34 28//36
f 27//7 32//7 36//7
f 36//8 32//8 27//8
f 36//37 24//27 27//27
f 27//28 24//28 36//38
f 24//27 36//37 33//37
f 33//38 36//38 24//28
f 33//37 32//35 28//35
f 28//36 32//36 33//38
f 29//29 37//26 34//29
f 34//30 37//25 29//30
f 34//7 35//7 25//7
f 25//8 35//8 34//8
f 38//8 29//8 31//8
f 31//7 29//7 38//7
f 35//32 26//31 30//31
f 30//34 26//34 35//33
f 30//31 28//35 32//35
f 32//36 28//36 30//34
f 39//39 31//32 35//32
f 35//33 31//33 39//40
f 32//35 33//37 36//37
f 36//38 33//38 32//36
f 37//26 29//29 40//26
f 40//25 29//30 37//25
f 37//7 39//7 34//7
f 34//8 39//8 37//8
f 34//7 39//7 35//7
f 35//8 39//8 34//8
f 38//8 40//8 29//8
f 29//7 40//7 38//7
f 31//32 39//39 38//39
f 38//40 39//40 31//33
f 40//26 41//22 37//26
f 37//25 41//21 40//25
f 41//7 39//7 37//7
f 37//8 39//8 41//8
f 38//8 42//8 40//8
f 40//7 42//7 38//7
f 43//41 38//39 39//39
f 39//40 38//40 43//42
f 41//22 40//26 42//22
f 42//21 40//25 41//21
f 41//7 43//7 39//7
f 39//8 43//8 41//8
f 44//8 42//8 38//8
f 38//7 42//7 44//7
f 38//39 43//41 44//41
f 44//42 43//42 38//40
f 42//22 45//43 41//22
f 41//21 45//44 42//21
f 45//7 43//7 41//7
f 41//8 43//8 45//8
f 44//8 46//8 42//8
f 42//7 46//7 44//7
f 47//45 44//41 43//41
f 43//42 44//42 47//46
f 45//43 42//22 46//43
f 46//44 42//21 45//44
f 48//7 43//7 45//7
f 45//8 43//8 48//8
f 44//8 49//8 46//8
f 46//7 49//7 44//7
f 44//41 47//45 50//45
f 50//46 47//46 44//42
f 43//7 51//7 47//7
f 47//8 51//8 43//8
f 46//43 48//47 45//43
f 45//44 48//48 46//44
f 51//7 43//7 48//7
f 48//8 43//8 51//8
f 44//8 52//8 49//8
f 49//7 52//7 44//7
f 48//47 46//43 49//47
f 49//48 46//44 48//48
f 51//49 50//45 47//45
f 47//46 50//46 51//50
f 52//8 44//8 50//8
f 50//7 44//7 52//7
f 48//47 52//49 51//49
f 51//50 52//50 48//48
f 52//49 48//47 49//47
f 49//48 48//48 52//50
f 50//45 51//49 52//49
f 52//50 51//50 50//46
