# SSTK version 0.8.0
# 128
mtllib original-128.mtl
o Component_47_2/Component_47/mesh123/mesh123-geometry#mesh123-geometry
v 0.388010 -0.295097 -0.075570
v 0.390154 -0.282596 -0.081073
v 0.390154 -0.295332 -0.077127
v 0.388010 -0.281835 -0.079679
v 0.392297 -0.295096 -0.075569
v 0.390154 -0.344816 -0.077127
v 0.388828 -0.280603 -0.077423
v 0.390154 -0.207075 -0.144573
v 0.392297 -0.281835 -0.079678
v 0.392297 -0.344816 -0.075569
v 0.388010 -0.344816 -0.075570
v 0.388828 -0.294715 -0.073051
v 0.388828 -0.203949 -0.141876
v 0.388010 -0.205881 -0.143543
v 0.391478 -0.280603 -0.077422
v 0.391478 -0.294715 -0.073050
v 0.388828 -0.344816 -0.073051
v 0.391478 -0.344816 -0.073050
v 0.390154 -0.199526 -0.156820
v 0.392297 -0.205880 -0.143543
v 0.391478 -0.203949 -0.141875
v 0.388828 -0.195718 -0.155231
v 0.388010 -0.198072 -0.156213
v 0.392297 -0.198071 -0.156213
v 0.390154 -0.195481 -0.173456
v 0.392297 -0.193923 -0.173270
v 0.391478 -0.195717 -0.155230
v 0.388828 -0.191404 -0.172968
v 0.388010 -0.193924 -0.173270
v 0.391478 -0.191404 -0.172968
v 0.390154 -0.195481 -0.177584
v 0.392297 -0.193923 -0.178191
v 0.391478 -0.191404 -0.177959
v 0.388828 -0.191404 -0.177208
v 0.388010 -0.193924 -0.176976
v 0.386715 -0.195481 -0.183158
v 0.388858 -0.193923 -0.183765
v 0.388039 -0.191404 -0.183533
v 0.384572 -0.193924 -0.182550
v 0.385390 -0.191404 -0.182782
v 0.386715 -0.195481 -0.200024
v 0.388858 -0.193923 -0.198891
v 0.388039 -0.191404 -0.199324
v 0.385390 -0.191404 -0.200725
v 0.384572 -0.193924 -0.201157
v 0.393422 -0.193924 -0.207189
v 0.395566 -0.195481 -0.206056
v 0.396890 -0.191404 -0.205356
v 0.394241 -0.191404 -0.206757
v 0.397709 -0.193923 -0.204923
v 0.395566 -0.195481 -0.215019
v 0.397709 -0.193923 -0.215906
v 0.394241 -0.191404 -0.214470
v 0.393422 -0.193924 -0.214131
v 0.396890 -0.191404 -0.215567
v 0.390872 -0.195481 -0.219713
v 0.391759 -0.193923 -0.221856
v 0.391420 -0.191404 -0.221037
v 0.389984 -0.193924 -0.217569
v 0.390323 -0.191404 -0.218388
v 0.387235 -0.193924 -0.217569
v 0.386202 -0.195481 -0.219713
v 0.385563 -0.191404 -0.221037
v 0.386841 -0.191404 -0.218388
v 0.385168 -0.193923 -0.221856
v 0.383149 -0.193924 -0.212432
v 0.381471 -0.195481 -0.213766
v 0.379794 -0.193923 -0.215100
v 0.382509 -0.191404 -0.212941
v 0.380435 -0.191404 -0.214590
vn -0.9520154955061061 -0.04580202383908931 -0.30260315749923505
vn 0.00020100002530721125 -0.4792450603400717 -0.8776811105057637
vn 0.00019999999097070062 -0.14965699324351048 -0.9887379553619429
vn -0.9527832688283135 -0.14552304105940453 -0.26650907519567946
vn -0.00019999999097070062 0.14965699324351048 0.9887379553619429
vn -0.00020100002530721125 0.4792450603400717 0.8776811105057637
vn 0.9520154955061061 0.04580202383908931 0.30260315749923505
vn 0.9527832688283135 0.14552304105940453 0.26650907519567946
vn 0.9521350754762266 -0.04574700362638793 -0.3022350239583224
vn -0.9521350754762266 0.04574700362638793 0.3022350239583224
vn 0.00016799998014357953 -0.5257309378622868 -0.8506508994590244
vn -0.00016799998014357953 0.5257309378622868 0.8506508994590244
vn -0.5956369410929985 0.38495496192891837 0.705000930277174
vn 0.5956369410929985 -0.38495496192891837 -0.705000930277174
vn 0.00019999997429500497 -0.7570569026992677 -0.6533489160283361
vn -0.00019999997429500497 0.7570569026992677 0.6533489160283361
vn 0.9529011441868183 -0.1453460219928169 -0.26618404027724185
vn -0.9529011441868183 0.1453460219928169 0.26618404027724185
vn 0.8090689297898105 -0.5257309543775953 -0.2627059772026391
vn -0.8090689297898105 0.5257309543775953 0.2627059772026391
vn -0.8089651592808064 -0.5257311035135728 -0.2630250517881913
vn 0.8089651592808064 0.5257311035135728 0.2630250517881913
vn -0.5923009047547646 0.12058098060991651 0.7966428718954551
vn 0.5923009047547646 -0.12058098060991651 -0.7966428718954551
vn -0.5928671301885967 0.6096581338757587 0.5261421155363492
vn 0.5928671301885967 -0.6096581338757587 -0.5261421155363492
vn -0.9521466136027961 -0.2313879060988731 -0.19969091896204685
vn 0.9521466136027961 0.2313879060988731 0.19969091896204685
vn 0.5953182354448366 0.3850681522921737 0.7052082789056981
vn -0.5953182354448366 -0.3850681522921737 -0.7052082789056981
vn 0.5919818006782813 0.1206159593883116 0.7968747316903309
vn -0.5919818006782813 -0.1206159593883116 -0.7968747316903309
vn -0.5001360741899408 -0.5257310779866912 0.6880921020712459
vn 0.5001360741899408 0.5257310779866912 -0.6880921020712459
vn 0.49986394327619277 -0.525730940340845 0.6882899218938964
vn -0.49986394327619277 0.525730940340845 -0.6882899218938964
vn 0.0002000000284239061 -0.9228201311507449 -0.385231054748849
vn -0.0002000000284239061 0.9228201311507449 0.385231054748849
vn 0.952265769118907 -0.23110694396708822 -0.19944795164295254
vn -0.952265769118907 0.23110694396708822 0.19944795164295254
vn 0.5925478344374178 0.6098358296070142 0.5262958529487489
vn -0.5925478344374178 -0.6098358296070142 -0.5262958529487489
vn -0.5926982148756642 0.7432622694608653 0.3102741124861767
vn 0.5926982148756642 -0.7432622694608653 -0.3102741124861767
vn -0.9521073281086191 -0.2821650972377774 -0.1177900405919863
vn 0.9521073281086191 0.2821650972377774 0.1177900405919863
vn 0.9522267712137384 -0.28182193228820246 -0.11764597173385288
vn -0.9522267712137384 0.28182193228820246 0.11764597173385288
vn 0.00019900002260262286 -0.9928941127739126 -0.1190010135162551
vn -0.00019900002260262286 0.9928941127739126 0.1190010135162551
vn 0.9517603311936177 -0.3046621060163381 -0.036514012706148416
vn -0.9517603311936177 0.3046621060163381 0.036514012706148416
vn 0.592378900389423 0.7434788749814355 0.31036494781105234
vn -0.592378900389423 -0.7434788749814355 -0.31036494781105234
vn -0.5906881484446758 0.8011662013395009 0.09602202413110603
vn 0.5906881484446758 -0.8011662013395009 -0.09602202413110603
vn -0.9516401089128375 -0.3050320349101558 -0.03655900418408693
vn 0.9516401089128375 0.3050320349101558 0.03655900418408693
vn 0.590369082366529 0.801398111808668 0.0960490134004713
vn -0.590369082366529 -0.801398111808668 -0.0960490134004713
vn 0.0001829999966883406 -0.9999999819035005 -0.000051999999059204067
vn -0.0001829999966883406 0.9999999819035005 0.000051999999059204067
vn 0.9115323134172226 -0.31978710995417964 -0.25854408889665137
vn -0.9115323134172226 0.31978710995417964 0.25854408889665137
vn 0.5510008737500107 0.819739812174268 -0.15628396419089363
vn -0.5510008737500107 -0.819739812174268 0.15628396419089363
vn -0.5513078583706833 0.8195167894686224 0.15637095982877489
vn 0.5513078583706833 -0.8195167894686224 -0.15637095982877489
vn -0.911407065784453 -0.32017302310976953 0.2585080186588509
vn 0.911407065784453 0.32017302310976953 -0.2585080186588509
vn 0.00015399999765612006 -0.9999999847800003 0.00008199999875173798
vn -0.00015399999765612006 0.9999999847800003 -0.00008199999875173798
vn 0.829865198578882 -0.3447630824985403 0.4387051049779764
vn -0.829865198578882 0.3447630824985403 -0.4387051049779764
vn 0.4776389972664721 0.8414889951841585 0.2525019985549313
vn -0.4776389972664721 -0.8414889951841585 -0.2525019985549313
vn -0.4779198792234488 0.8412847873964244 -0.2526509361518319
vn 0.4779198792234488 -0.8412847873964244 0.2526509361518319
vn -0.8297327785630199 -0.34517090788166316 -0.43863488293823466
vn 0.8297327785630199 0.34517090788166316 0.43863488293823466
vn 0.00016799999721758406 -0.9999999834380005 -0.00006999999884088207
vn -0.00016799999721758406 0.9999999834380005 0.00006999999884088207
vn 0.8716151596019023 -0.3315730607145144 -0.36103506610931757
vn -0.8716151596019023 0.3315730607145144 0.36103506610931757
vn -0.5150482954129876 0.830187476165371 0.21334012236414254
vn 0.5150482954129876 -0.830187476165371 -0.21334012236414254
vn -0.8714865588300855 -0.3319688319484567 0.36098181726130385
vn 0.8714865588300855 0.3319688319484567 -0.36098181726130385
vn 0.5147541500917796 0.8304012421280142 -0.2132180621700248
vn -0.5147541500917796 -0.8304012421280142 0.2132180621700248
vn 0.00006999999884066002 -0.9999999834380005 -0.0001679999972178061
vn -0.00006999999884066002 0.9999999834380005 0.0001679999972178061
vn 0.3610350661093175 -0.3315730607145143 -0.8716151596019024
vn -0.3610350661093175 0.3315730607145143 0.8716151596019024
vn 0.213218062170025 0.8304012421280144 -0.5147541500917794
vn -0.213218062170025 -0.8304012421280144 0.5147541500917794
vn -0.3609818172613039 -0.33196883194845683 0.8714865588300854
vn 0.3609818172613039 0.33196883194845683 -0.8714865588300854
vn -0.2133401223641424 0.830187476165371 0.5150482954129879
vn 0.2133401223641424 -0.830187476165371 -0.5150482954129879
vn 0.4086428709414073 -0.33953989276567936 0.8471857324397263
vn -0.4086428709414073 0.33953989276567936 -0.8471857324397263
vn -0.00007699999878613354 -0.9999999842355005 -0.00015999999747790214
vn 0.00007699999878613354 0.9999999842355005 0.00015999999747790214
vn -0.23782401046758622 0.8368640368337347 -0.49305002170110396
vn 0.23782401046758622 -0.8368640368337347 0.49305002170110396
vn 0.23796204941568025 0.8366561737417122 0.49333610244717246
vn -0.23796204941568025 -0.8366561737417122 -0.49333610244717246
vn -0.40870587785949275 -0.3391368986499702 -0.84731674678197
vn 0.40870587785949275 0.3391368986499702 0.84731674678197
vn 0.305842975209134 -0.26302497867985386 0.9150289258300457
vn -0.305842975209134 0.26302497867985386 -0.9150289258300457
vn -0.32739997957597144 -0.8506509469342691 0.4113419743394599
vn 0.32739997957597144 0.8506509469342691 -0.4113419743394599
vn -0.9604607046790287 -0.26270591922359043 -0.09219997165049544
vn 0.9604607046790287 0.26270591922359043 0.09219997165049544
vn 0.06414702381147587 0.6880922554209247 0.7227822682979121
vn -0.06414702381147587 -0.6880922554209247 -0.7227822682979121
vn -0.7184710068606796 0.6882900065724812 0.10028100095758342
vn 0.7184710068606796 -0.6882900065724812 -0.10028100095758342
usemtl material_0_0
f 1//1 2//2 3//3
f 2//2 1//1 4//4
f 3//5 2//6 1//7
f 4//8 1//7 2//6
f 2//2 5//9 3//3
f 3//5 5//10 2//6
f 6//11 1//1 3//3
f 3//5 1//7 6//12
f 1//1 7//13 4//4
f 4//8 7//14 1//7
f 4//4 8//15 2//2
f 2//6 8//16 4//8
f 5//9 2//2 9//17
f 9//18 2//6 5//10
f 10//19 3//3 5//9
f 5//10 3//5 10//20
f 1//1 6//11 11//21
f 11//22 6//12 1//7
f 3//3 10//19 6//11
f 6//12 10//20 3//5
f 7//13 1//1 12//23
f 12//24 1//7 7//14
f 13//25 4//4 7//13
f 7//14 4//8 13//26
f 8//15 4//4 14//27
f 14//28 4//8 8//16
f 8//15 9//17 2//2
f 2//6 9//18 8//16
f 15//29 5//9 9//17
f 9//18 5//10 15//30
f 16//31 10//19 5//9
f 5//10 10//20 16//32
f 6//11 17//33 11//21
f 11//22 17//34 6//12
f 17//33 1//1 11//21
f 11//22 1//7 17//34
f 18//35 6//11 10//19
f 10//20 6//12 18//36
f 1//1 17//33 12//23
f 12//24 17//34 1//7
f 16//31 7//13 12//23
f 12//24 7//14 16//32
f 4//4 13//25 14//27
f 14//28 13//26 4//8
f 15//29 13//25 7//13
f 7//14 13//26 15//30
f 14//27 19//37 8//15
f 8//16 19//38 14//28
f 9//17 8//15 20//39
f 20//40 8//16 9//18
f 5//9 15//29 16//31
f 16//32 15//30 5//10
f 9//17 21//41 15//29
f 15//30 21//42 9//18
f 10//19 16//31 18//35
f 18//36 16//32 10//20
f 17//33 6//11 18//35
f 18//36 6//12 17//34
f 17//33 16//31 12//23
f 12//24 16//32 17//34
f 7//13 16//31 15//29
f 15//30 16//32 7//14
f 22//43 14//27 13//25
f 13//26 14//28 22//44
f 13//25 15//29 21//41
f 21//42 15//30 13//26
f 19//37 14//27 23//45
f 23//46 14//28 19//38
f 24//47 8//15 19//37
f 19//38 8//16 24//48
f 8//15 24//47 20//39
f 20//40 24//48 8//16
f 21//41 9//17 20//39
f 20//40 9//18 21//42
f 16//31 17//33 18//35
f 18//36 17//34 16//32
f 14//27 22//43 23//45
f 23//46 22//44 14//28
f 21//41 22//43 13//25
f 13//26 22//44 21//42
f 23//45 25//49 19//37
f 19//38 25//50 23//46
f 19//37 26//51 24//47
f 24//48 26//52 19//38
f 27//53 20//39 24//47
f 24//48 20//40 27//54
f 20//39 27//53 21//41
f 21//42 27//54 20//40
f 28//55 23//45 22//43
f 22//44 23//46 28//56
f 22//43 21//41 27//53
f 27//54 21//42 22//44
f 25//49 23//45 29//57
f 29//58 23//46 25//50
f 26//51 19//37 25//49
f 25//50 19//38 26//52
f 30//59 24//47 26//51
f 26//52 24//48 30//60
f 24//47 30//59 27//53
f 27//54 30//60 24//48
f 23//45 28//55 29//57
f 29//58 28//56 23//46
f 27//53 28//55 22//43
f 22//44 28//56 27//54
f 29//57 31//61 25//49
f 25//50 31//62 29//58
f 25//49 32//63 26//51
f 26//52 32//64 25//50
f 26//51 33//65 30//59
f 30//60 33//66 26//52
f 28//55 27//53 30//59
f 30//60 27//54 28//56
f 34//67 29//57 28//55
f 28//56 29//58 34//68
f 31//61 29//57 35//69
f 35//70 29//58 31//62
f 32//63 25//49 31//61
f 31//62 25//50 32//64
f 33//65 26//51 32//63
f 32//64 26//52 33//66
f 34//67 30//59 33//65
f 33//66 30//60 34//68
f 30//59 34//67 28//55
f 28//56 34//68 30//60
f 29//57 34//67 35//69
f 35//70 34//68 29//58
f 35//69 36//61 31//61
f 31//62 36//62 35//70
f 31//61 37//63 32//63
f 32//64 37//64 31//62
f 32//63 38//65 33//65
f 33//66 38//66 32//64
f 38//65 34//67 33//65
f 33//66 34//68 38//66
f 34//67 39//69 35//69
f 35//70 39//70 34//68
f 36//61 35//69 39//69
f 39//70 35//70 36//62
f 37//63 31//61 36//61
f 36//62 31//62 37//64
f 38//65 32//63 37//63
f 37//64 32//64 38//66
f 34//67 38//65 40//67
f 40//68 38//66 34//68
f 39//69 34//67 40//67
f 40//68 34//68 39//70
f 39//69 41//71 36//61
f 36//62 41//72 39//70
f 36//61 42//73 37//63
f 37//64 42//74 36//62
f 37//63 43//75 38//65
f 38//66 43//76 37//64
f 38//65 44//77 40//67
f 40//68 44//78 38//66
f 40//67 45//79 39//69
f 39//70 45//80 40//68
f 41//71 39//69 45//79
f 45//80 39//70 41//72
f 42//73 36//61 41//71
f 41//72 36//62 42//74
f 43//75 37//63 42//73
f 42//74 37//64 43//76
f 44//77 38//65 43//75
f 43//76 38//66 44//78
f 45//79 40//67 44//77
f 44//78 40//68 45//80
f 46//79 41//71 45//79
f 45//80 41//72 46//80
f 47//71 42//73 41//71
f 41//72 42//74 47//72
f 42//73 48//75 43//75
f 43//76 48//76 42//74
f 43//75 49//77 44//77
f 44//78 49//78 43//76
f 44//77 46//79 45//79
f 45//80 46//80 44//78
f 41//71 46//79 47//71
f 47//72 46//80 41//72
f 42//73 47//71 50//73
f 50//74 47//72 42//74
f 48//75 42//73 50//73
f 50//74 42//74 48//76
f 49//77 43//75 48//75
f 48//76 43//76 49//78
f 46//79 44//77 49//77
f 49//78 44//78 46//80
f 46//79 51//81 47//71
f 47//72 51//82 46//80
f 47//71 52//83 50//73
f 50//74 52//84 47//72
f 52//83 48//75 50//73
f 50//74 48//76 52//84
f 48//75 53//85 49//77
f 49//78 53//86 48//76
f 53//85 46//79 49//77
f 49//78 46//80 53//86
f 51//81 46//79 54//87
f 54//88 46//80 51//82
f 52//83 47//71 51//81
f 51//82 47//72 52//84
f 48//75 52//83 55//89
f 55//90 52//84 48//76
f 53//85 48//75 55//89
f 55//90 48//76 53//86
f 46//79 53//85 54//87
f 54//88 53//86 46//80
f 54//87 56//91 51//81
f 51//82 56//92 54//88
f 51//81 57//93 52//83
f 52//84 57//94 51//82
f 52//83 58//95 55//89
f 55//90 58//96 52//84
f 58//95 53//85 55//89
f 55//90 53//86 58//96
f 53//85 59//97 54//87
f 54//88 59//98 53//86
f 56//91 54//87 59//97
f 59//98 54//88 56//92
f 57//93 51//81 56//91
f 56//92 51//82 57//94
f 58//95 52//83 57//93
f 57//94 52//84 58//96
f 53//85 58//95 60//99
f 60//100 58//96 53//86
f 59//97 53//85 60//99
f 60//100 53//86 59//98
f 61//101 56//91 59//97
f 59//98 56//92 61//102
f 62//103 57//93 56//91
f 56//92 57//94 62//104
f 57//93 63//105 58//95
f 58//96 63//106 57//94
f 58//95 64//107 60//99
f 60//100 64//108 58//96
f 60//99 61//101 59//97
f 59//98 61//102 60//100
f 56//91 61//101 62//103
f 62//104 61//102 56//92
f 57//93 62//103 65//109
f 65//110 62//104 57//94
f 63//105 57//93 65//109
f 65//110 57//94 63//106
f 64//107 58//95 63//105
f 63//106 58//96 64//108
f 61//101 60//99 64//107
f 64//108 60//100 61//102
f 66//111 62//103 61//101
f 61//102 62//104 66//112
f 67//113 65//109 62//103
f 62//104 65//110 67//114
f 68//115 63//105 65//109
f 65//110 63//106 68//116
f 63//105 69//117 64//107
f 64//108 69//118 63//106
f 69//117 61//101 64//107
f 64//108 61//102 69//118
f 62//103 66//111 67//113
f 67//114 66//112 62//104
f 61//101 69//117 66//111
f 66//112 69//118 61//102
f 65//109 67//113 68//115
f 68//116 67//114 65//110
f 63//105 68//115 70//119
f 70//120 68//116 63//106
f 69//117 63//105 70//119
f 70//120 63//106 69//118
f 66//111 68//115 67//113
f 67//114 68//116 66//112
f 68//115 66//111 69//117
f 69//118 66//112 68//116
f 68//115 69//117 70//119
f 70//120 69//118 68//116
