# SSTK version 0.8.0
# 8
mtllib original-8.mtl
o #ID228
v 0.583626 -0.690197 0.137173
v 0.583626 -0.690197 0.008242
v 0.415736 -0.690197 0.137173
v -0.283806 -0.690197 0.372004
v -0.247833 -0.690197 0.367268
v -0.320017 -0.690197 0.367237
v -0.138172 -0.690197 -0.621288
v 0.298084 -0.690197 -0.621288
v 0.079956 -0.690197 -0.635337
v -0.312626 -0.690197 -0.587188
v 0.479625 -0.690197 -0.585817
v -0.326848 -0.690197 -0.583659
v 0.493003 -0.690197 -0.580681
v -0.339672 -0.690197 -0.576570
v 0.504844 -0.690197 -0.572077
v -0.350225 -0.690197 -0.566403
v 0.514055 -0.690197 -0.560702
v -0.357786 -0.690197 -0.553851
v 0.520007 -0.690197 -0.547330
v -0.361841 -0.690197 -0.539770
v 0.520776 -0.690197 -0.544003
v 0.536291 -0.690197 -0.476824
v -0.376379 -0.690197 -0.476824
v -0.402640 -0.690197 -0.316273
v 0.562551 -0.690197 -0.316273
v -0.412463 -0.690197 -0.215611
v 0.572375 -0.690197 -0.215611
v -0.418440 -0.690197 -0.154357
v 0.578352 -0.690197 -0.154357
v -0.423714 -0.690197 0.008242
v -0.423714 -0.690197 0.232096
v 0.415736 -0.690197 0.427967
v -0.418947 -0.690197 0.268307
v -0.404970 -0.690197 0.302050
v -0.382736 -0.690197 0.331026
v -0.353760 -0.690197 0.353260
v -0.255824 -0.690197 0.427967
v -0.244383 -0.690197 0.514874
v 0.404295 -0.690197 0.514874
v -0.227800 -0.690197 0.554909
v 0.370750 -0.690197 0.595858
v -0.210838 -0.690197 0.595858
v -0.157476 -0.690197 0.665400
v 0.317388 -0.690197 0.665400
v -0.087934 -0.690197 0.718762
v 0.247846 -0.690197 0.718762
v -0.006950 -0.690197 0.752306
v 0.166862 -0.690197 0.752306
v 0.049497 -0.690197 0.759737
v 0.079956 -0.690197 0.763748
v 0.079956 -0.690197 0.763748
v 0.049497 -0.690197 0.759737
v 0.166862 -0.690197 0.752306
v -0.006950 -0.690197 0.752306
v 0.247846 -0.690197 0.718762
v -0.087934 -0.690197 0.718762
v 0.317388 -0.690197 0.665400
v -0.157476 -0.690197 0.665400
v 0.370750 -0.690197 0.595858
v -0.210838 -0.690197 0.595858
v -0.227800 -0.690197 0.554909
v 0.404295 -0.690197 0.514874
v -0.244383 -0.690197 0.514874
v 0.415736 -0.690197 0.427967
v -0.255824 -0.690197 0.427967
v -0.247833 -0.690197 0.367268
v -0.320017 -0.690197 0.367237
v -0.353760 -0.690197 0.353260
v -0.382736 -0.690197 0.331026
v -0.404970 -0.690197 0.302050
v -0.418947 -0.690197 0.268307
v -0.423714 -0.690197 0.232096
v 0.415736 -0.690197 0.137173
v 0.583626 -0.690197 0.008242
v -0.423714 -0.690197 0.008242
v 0.578352 -0.690197 -0.154357
v -0.418440 -0.690197 -0.154357
v 0.572375 -0.690197 -0.215611
v -0.412463 -0.690197 -0.215611
v 0.562551 -0.690197 -0.316273
v -0.402640 -0.690197 -0.316273
v 0.536291 -0.690197 -0.476824
v -0.376379 -0.690197 -0.476824
v -0.361841 -0.690197 -0.539770
v 0.520776 -0.690197 -0.544003
v 0.520007 -0.690197 -0.547330
v -0.357786 -0.690197 -0.553851
v 0.514055 -0.690197 -0.560702
v -0.350225 -0.690197 -0.566403
v 0.504844 -0.690197 -0.572077
v -0.339672 -0.690197 -0.576570
v 0.493003 -0.690197 -0.580681
v -0.326848 -0.690197 -0.583659
v 0.479625 -0.690197 -0.585817
v -0.312626 -0.690197 -0.587188
v 0.298084 -0.690197 -0.621288
v -0.138172 -0.690197 -0.621288
v 0.079956 -0.690197 -0.635337
v -0.283806 -0.690197 0.372004
v 0.583626 -0.690197 0.137173
vn 0 1 0
vn 0 -1 0
usemtl material_0_0
f 1//1 2//1 3//1
f 4//1 5//1 6//1
f 7//1 8//1 9//1
f 8//1 7//1 10//1
f 8//1 10//1 11//1
f 11//1 10//1 12//1
f 11//1 12//1 13//1
f 13//1 12//1 14//1
f 13//1 14//1 15//1
f 15//1 14//1 16//1
f 15//1 16//1 17//1
f 17//1 16//1 18//1
f 17//1 18//1 19//1
f 19//1 18//1 20//1
f 19//1 20//1 21//1
f 21//1 20//1 22//1
f 22//1 20//1 23//1
f 22//1 23//1 24//1
f 22//1 24//1 25//1
f 25//1 24//1 26//1
f 25//1 26//1 27//1
f 27//1 26//1 28//1
f 27//1 28//1 29//1
f 29//1 28//1 30//1
f 29//1 30//1 2//1
f 2//1 30//1 31//1
f 2//1 31//1 3//1
f 3//1 31//1 32//1
f 32//1 31//1 33//1
f 32//1 33//1 34//1
f 32//1 34//1 35//1
f 32//1 35//1 36//1
f 32//1 36//1 5//1
f 5//1 36//1 6//1
f 32//1 5//1 37//1
f 32//1 37//1 38//1
f 32//1 38//1 39//1
f 39//1 38//1 40//1
f 39//1 40//1 41//1
f 41//1 40//1 42//1
f 41//1 42//1 43//1
f 41//1 43//1 44//1
f 44//1 43//1 45//1
f 44//1 45//1 46//1
f 46//1 45//1 47//1
f 46//1 47//1 48//1
f 48//1 47//1 49//1
f 48//1 49//1 50//1
f 51//2 52//2 53//2
f 52//2 54//2 53//2
f 53//2 54//2 55//2
f 54//2 56//2 55//2
f 55//2 56//2 57//2
f 56//2 58//2 57//2
f 57//2 58//2 59//2
f 58//2 60//2 59//2
f 60//2 61//2 59//2
f 59//2 61//2 62//2
f 61//2 63//2 62//2
f 62//2 63//2 64//2
f 63//2 65//2 64//2
f 65//2 66//2 64//2
f 67//2 68//2 66//2
f 66//2 68//2 64//2
f 68//2 69//2 64//2
f 69//2 70//2 64//2
f 70//2 71//2 64//2
f 71//2 72//2 64//2
f 64//2 72//2 73//2
f 73//2 72//2 74//2
f 72//2 75//2 74//2
f 74//2 75//2 76//2
f 75//2 77//2 76//2
f 76//2 77//2 78//2
f 77//2 79//2 78//2
f 78//2 79//2 80//2
f 79//2 81//2 80//2
f 80//2 81//2 82//2
f 81//2 83//2 82//2
f 83//2 84//2 82//2
f 82//2 84//2 85//2
f 85//2 84//2 86//2
f 84//2 87//2 86//2
f 86//2 87//2 88//2
f 87//2 89//2 88//2
f 88//2 89//2 90//2
f 89//2 91//2 90//2
f 90//2 91//2 92//2
f 91//2 93//2 92//2
f 92//2 93//2 94//2
f 93//2 95//2 94//2
f 94//2 95//2 96//2
f 95//2 97//2 96//2
f 98//2 96//2 97//2
f 67//2 66//2 99//2
f 73//2 74//2 100//2
