# SSTK version 0.8.0
# 67
mtllib original-67.mtl
o instance_5/K/ID439#ID439
v 0.023426 0.636762 0.584718
v 0.013596 0.635480 0.580647
v 0.013596 0.636762 0.580647
v 0.014680 0.635263 0.581096
v 0.015749 0.634848 0.581538
v 0.016508 0.634107 0.581853
v 0.016700 0.633041 0.581932
v 0.020747 0.634757 0.583609
v 0.020455 0.634324 0.583488
v 0.016700 0.614543 0.581932
v 0.020255 0.633222 0.583405
v 0.021223 0.635046 0.583806
v 0.022257 0.635317 0.584234
v 0.023426 0.635480 0.584718
v 0.035142 0.636762 0.589571
v 0.026263 0.635480 0.585894
v 0.026263 0.636762 0.585894
v 0.026864 0.635435 0.586142
v 0.027698 0.635299 0.586488
v 0.028407 0.635019 0.586782
v 0.028716 0.634577 0.586910
v 0.032264 0.634766 0.588379
v 0.031239 0.633981 0.587955
v 0.033474 0.635227 0.588880
v 0.034074 0.635353 0.589129
v 0.034541 0.635426 0.589322
v 0.034925 0.635462 0.589481
v 0.035142 0.635480 0.589571
v 0.026179 0.630205 0.585859
v 0.023956 0.625486 0.584938
v 0.023542 0.627234 0.584767
v 0.027655 0.629607 0.586470
v 0.028107 0.632833 0.586657
v 0.028564 0.633762 0.586847
v 0.020588 0.624370 0.583543
v 0.020255 0.623666 0.583405
v 0.020255 0.624370 0.583405
v 0.020689 0.623666 0.583585
v 0.025604 0.617515 0.585621
v 0.028158 0.620141 0.586679
v 0.029868 0.611129 0.587387
v 0.031692 0.615356 0.588142
v 0.033121 0.613794 0.588734
v 0.036510 0.611129 0.590138
v 0.034350 0.612918 0.589243
v 0.035430 0.612556 0.589691
v 0.036510 0.612412 0.590138
v 0.014714 0.612520 0.581110
v 0.013596 0.611129 0.580647
v 0.013596 0.612412 0.580647
v 0.023426 0.611129 0.584718
v 0.015749 0.612737 0.581538
v 0.016475 0.613432 0.581839
v 0.021223 0.612918 0.583806
v 0.020463 0.613676 0.583491
v 0.020255 0.614742 0.583405
v 0.022216 0.612610 0.584217
v 0.023426 0.612412 0.584718
v 0.036510 0.611129 0.590138
v 0.029198 0.611129 0.589002
v 0.029868 0.611129 0.587387
v 0.035841 0.611129 0.591754
v 0.024934 0.617515 0.587236
v 0.029868 0.611129 0.587387
v 0.029198 0.611129 0.589002
v 0.025604 0.617515 0.585621
v 0.020019 0.623666 0.585200
v 0.020689 0.623666 0.583585
v 0.020019 0.623666 0.585200
v 0.020255 0.623666 0.583405
v 0.020689 0.623666 0.583585
v 0.019585 0.623666 0.585021
v 0.020255 0.614742 0.583405
v 0.019585 0.623666 0.585021
v 0.019585 0.614742 0.585021
v 0.020255 0.623666 0.583405
v 0.020463 0.613676 0.583491
v 0.019585 0.614742 0.585021
v 0.019794 0.613676 0.585107
v 0.020255 0.614742 0.583405
v 0.019794 0.613676 0.585107
v 0.021223 0.612918 0.583806
v 0.020463 0.613676 0.583491
v 0.020553 0.612918 0.585422
v 0.021223 0.612918 0.583806
v 0.021546 0.612610 0.585833
v 0.022216 0.612610 0.584217
v 0.020553 0.612918 0.585422
v 0.021546 0.612610 0.585833
v 0.023426 0.612412 0.584718
v 0.022216 0.612610 0.584217
v 0.022756 0.612412 0.586334
v 0.023426 0.612412 0.584718
v 0.022756 0.611129 0.586334
v 0.023426 0.611129 0.584718
v 0.022756 0.612412 0.586334
v 0.022756 0.611129 0.586334
v 0.013596 0.611129 0.580647
v 0.023426 0.611129 0.584718
v 0.012926 0.611129 0.582262
v 0.012926 0.612412 0.582262
v 0.013596 0.611129 0.580647
v 0.012926 0.611129 0.582262
v 0.013596 0.612412 0.580647
v 0.013596 0.612412 0.580647
v 0.014045 0.612520 0.582726
v 0.014714 0.612520 0.581110
v 0.012926 0.612412 0.582262
v 0.014045 0.612520 0.582726
v 0.015749 0.612737 0.581538
v 0.014714 0.612520 0.581110
v 0.015079 0.612737 0.583154
v 0.015079 0.612737 0.583154
v 0.016475 0.613432 0.581839
v 0.015749 0.612737 0.581538
v 0.015805 0.613432 0.583455
v 0.016031 0.614543 0.583548
v 0.016475 0.613432 0.581839
v 0.015805 0.613432 0.583455
v 0.016700 0.614543 0.581932
v 0.016031 0.633041 0.583548
v 0.016700 0.633041 0.581932
v 0.015839 0.634107 0.583469
v 0.016508 0.634107 0.581853
v 0.016508 0.634107 0.581853
v 0.015079 0.634848 0.583154
v 0.015749 0.634848 0.581538
v 0.015839 0.634107 0.583469
v 0.015079 0.634848 0.583154
v 0.014680 0.635263 0.581096
v 0.015749 0.634848 0.581538
v 0.014011 0.635263 0.582712
v 0.014680 0.635263 0.581096
v 0.012926 0.635480 0.582262
v 0.013596 0.635480 0.580647
v 0.014011 0.635263 0.582712
v 0.012926 0.636762 0.582262
v 0.013596 0.635480 0.580647
v 0.012926 0.635480 0.582262
v 0.013596 0.636762 0.580647
v 0.012926 0.636762 0.582262
v 0.023426 0.636762 0.584718
v 0.013596 0.636762 0.580647
v 0.022756 0.636762 0.586334
v 0.023426 0.635480 0.584718
v 0.022756 0.636762 0.586334
v 0.022756 0.635480 0.586334
v 0.023426 0.636762 0.584718
v 0.022756 0.635480 0.586334
v 0.022257 0.635317 0.584234
v 0.023426 0.635480 0.584718
v 0.021588 0.635317 0.585850
v 0.021588 0.635317 0.585850
v 0.021223 0.635046 0.583806
v 0.022257 0.635317 0.584234
v 0.020553 0.635046 0.585422
v 0.020553 0.635046 0.585422
v 0.020747 0.634757 0.583609
v 0.021223 0.635046 0.583806
v 0.020078 0.634757 0.585225
v 0.020455 0.634324 0.583488
v 0.020078 0.634757 0.585225
v 0.019786 0.634324 0.585104
v 0.020747 0.634757 0.583609
v 0.020455 0.634324 0.583488
v 0.019585 0.633222 0.585021
v 0.020255 0.633222 0.583405
v 0.019786 0.634324 0.585104
v 0.020255 0.624370 0.583405
v 0.019585 0.633222 0.585021
v 0.019585 0.624370 0.585021
v 0.020255 0.633222 0.583405
v 0.020255 0.624370 0.583405
v 0.019919 0.624370 0.585159
v 0.020588 0.624370 0.583543
v 0.019585 0.624370 0.585021
v 0.020588 0.624370 0.583543
v 0.022873 0.627234 0.586382
v 0.023542 0.627234 0.584767
v 0.019919 0.624370 0.585159
v 0.025510 0.630205 0.587475
v 0.026179 0.630205 0.585859
v 0.027438 0.632833 0.588273
v 0.028107 0.632833 0.586657
v 0.027895 0.633762 0.588462
v 0.028107 0.632833 0.586657
v 0.027438 0.632833 0.588273
v 0.028564 0.633762 0.586847
v 0.028047 0.634577 0.588526
v 0.028564 0.633762 0.586847
v 0.027895 0.633762 0.588462
v 0.028716 0.634577 0.586910
v 0.027738 0.635019 0.588398
v 0.028716 0.634577 0.586910
v 0.028047 0.634577 0.588526
v 0.028407 0.635019 0.586782
v 0.027738 0.635019 0.588398
v 0.027698 0.635299 0.586488
v 0.028407 0.635019 0.586782
v 0.027029 0.635299 0.588104
v 0.027029 0.635299 0.588104
v 0.026864 0.635435 0.586142
v 0.027698 0.635299 0.586488
v 0.026194 0.635435 0.587758
v 0.026864 0.635435 0.586142
v 0.025594 0.635480 0.587509
v 0.026263 0.635480 0.585894
v 0.026194 0.635435 0.587758
v 0.025594 0.636762 0.587509
v 0.026263 0.635480 0.585894
v 0.025594 0.635480 0.587509
v 0.026263 0.636762 0.585894
v 0.025594 0.636762 0.587509
v 0.035142 0.636762 0.589571
v 0.026263 0.636762 0.585894
v 0.034472 0.636762 0.591187
v 0.035142 0.635480 0.589571
v 0.034472 0.636762 0.591187
v 0.034472 0.635480 0.591187
v 0.035142 0.636762 0.589571
v 0.034472 0.635480 0.591187
v 0.034925 0.635462 0.589481
v 0.035142 0.635480 0.589571
v 0.034255 0.635462 0.591097
v 0.034925 0.635462 0.589481
v 0.033872 0.635426 0.590938
v 0.034541 0.635426 0.589322
v 0.034255 0.635462 0.591097
v 0.033872 0.635426 0.590938
v 0.034074 0.635353 0.589129
v 0.034541 0.635426 0.589322
v 0.033405 0.635353 0.590745
v 0.033405 0.635353 0.590745
v 0.033474 0.635227 0.588880
v 0.034074 0.635353 0.589129
v 0.032804 0.635227 0.590496
v 0.033474 0.635227 0.588880
v 0.031595 0.634766 0.589995
v 0.032264 0.634766 0.588379
v 0.032804 0.635227 0.590496
v 0.031595 0.634766 0.589995
v 0.031239 0.633981 0.587955
v 0.032264 0.634766 0.588379
v 0.030569 0.633981 0.589570
v 0.027655 0.629607 0.586470
v 0.030569 0.633981 0.589570
v 0.026985 0.629607 0.588086
v 0.031239 0.633981 0.587955
v 0.023956 0.625486 0.584938
v 0.023287 0.625486 0.586554
v 0.028158 0.620141 0.586679
v 0.023287 0.625486 0.586554
v 0.027489 0.620141 0.588294
v 0.023956 0.625486 0.584938
v 0.031692 0.615356 0.588142
v 0.031022 0.615356 0.589758
v 0.033121 0.613794 0.588734
v 0.032451 0.613794 0.590350
v 0.032451 0.613794 0.590350
v 0.034350 0.612918 0.589243
v 0.033121 0.613794 0.588734
v 0.033681 0.612918 0.590859
v 0.033681 0.612918 0.590859
v 0.035430 0.612556 0.589691
v 0.034350 0.612918 0.589243
v 0.034761 0.612556 0.591306
v 0.034761 0.612556 0.591306
v 0.036510 0.612412 0.590138
v 0.035430 0.612556 0.589691
v 0.035841 0.612412 0.591754
v 0.036510 0.612412 0.590138
v 0.035841 0.611129 0.591754
v 0.036510 0.611129 0.590138
v 0.035841 0.612412 0.591754
v 0.022756 0.611129 0.586334
v 0.012926 0.612412 0.582262
v 0.012926 0.611129 0.582262
v 0.014045 0.612520 0.582726
v 0.015079 0.612737 0.583154
v 0.015805 0.613432 0.583455
v 0.016031 0.614543 0.583548
v 0.020553 0.612918 0.585422
v 0.019794 0.613676 0.585107
v 0.019585 0.614742 0.585021
v 0.016031 0.633041 0.583548
v 0.021546 0.612610 0.585833
v 0.022756 0.612412 0.586334
v 0.020019 0.623666 0.585200
v 0.019585 0.624370 0.585021
v 0.019585 0.623666 0.585021
v 0.019919 0.624370 0.585159
v 0.022873 0.627234 0.586382
v 0.024934 0.617515 0.587236
v 0.023287 0.625486 0.586554
v 0.027489 0.620141 0.588294
v 0.029198 0.611129 0.589002
v 0.031022 0.615356 0.589758
v 0.032451 0.613794 0.590350
v 0.035841 0.611129 0.591754
v 0.033681 0.612918 0.590859
v 0.034761 0.612556 0.591306
v 0.035841 0.612412 0.591754
v 0.025510 0.630205 0.587475
v 0.026985 0.629607 0.588086
v 0.027438 0.632833 0.588273
v 0.030569 0.633981 0.589570
v 0.027895 0.633762 0.588462
v 0.028047 0.634577 0.588526
v 0.025594 0.635480 0.587509
v 0.034472 0.636762 0.591187
v 0.025594 0.636762 0.587509
v 0.026194 0.635435 0.587758
v 0.027029 0.635299 0.588104
v 0.027738 0.635019 0.588398
v 0.031595 0.634766 0.589995
v 0.032804 0.635227 0.590496
v 0.033405 0.635353 0.590745
v 0.033872 0.635426 0.590938
v 0.034255 0.635462 0.591097
v 0.034472 0.635480 0.591187
v 0.014011 0.635263 0.582712
v 0.012926 0.636762 0.582262
v 0.012926 0.635480 0.582262
v 0.022756 0.636762 0.586334
v 0.015079 0.634848 0.583154
v 0.015839 0.634107 0.583469
v 0.020078 0.634757 0.585225
v 0.019786 0.634324 0.585104
v 0.019585 0.633222 0.585021
v 0.020553 0.635046 0.585422
v 0.021588 0.635317 0.585850
v 0.022756 0.635480 0.586334
vn 0.3826834162342323 0 -0.9238795391929066
vn 0 -1 0
vn -0.724463676646854 -0.6205664953000938 -0.3000826654944962
vn -0.7487744289220156 -0.585783472101308 -0.31015250830107044
vn -0.6987747447281027 -0.6541690964531263 -0.28944196201635203
vn 0.9238795391929066 0 0.38268341623423247
vn 0.9038175801442323 0.2072637895464552 0.374373481118878
vn 0.626649142296274 0.73480341111709 0.25956656077012896
vn 0.25380922680070633 0.961523948335928 0.10513121880447757
vn 0.13858876976282986 0.9886848735764316 0.057405345193461944
vn -0.9238795391929066 0 -0.38268341623423247
vn -0.0824057124984131 0.9960141557676431 -0.03413356204819894
vn -0.1755573442899989 0.981779852095427 -0.07271822938798968
vn -0.6123100175136484 0.7488322482619507 -0.2536271011059103
vn -0.9184924785535064 0.1078323940831174 -0.3804520227662613
vn -0.9023941126073227 0.21440730012653902 -0.37378386158860716
vn -0.9196033312365502 -0.09610226263030125 -0.38091215299065484
vn -0.906814293588597 -0.19131489410515945 -0.37561476040878
vn -0.6184593983764548 -0.7428880952956173 -0.256174257933703
vn -0.31245487840230063 -0.9410747181786839 -0.1294230418724355
vn -0.16772802366195771 -0.9833821759909646 -0.06947521875985396
vn 0 1 0
vn 0.11781469210348294 -0.9918357804051696 0.04880044090610065
vn 0.21725147874325387 -0.9719587769253655 0.08998850449705832
vn 0.4522711846826908 -0.8719837615429402 0.18733684931465036
vn 0.7465016072685702 -0.5891721832964268 0.3092110747938419
vn 0.9065054783043635 -0.19302188239708218 0.37548684493609685
vn -0.6163222409118269 0.7449660478550565 -0.2552890183706341
vn -0.64177175288818 0.7193491053868643 -0.2658305508664322
vn -0.6957330557625157 0.6579563961997956 -0.28818205325649593
vn -0.723606940458931 0.6217364758201585 -0.29972779376359926
vn -0.8153525058733594 0.47025387283801656 -0.33773004936913753
vn -0.9055504614051516 0.19820420156252097 -0.3750912640036832
vn -0.7372940990090031 -0.602602656553561 -0.30539720018541977
vn -0.3165491407432722 -0.9394703107942748 -0.1311189407782289
vn -0.13704875112480508 -0.9889363460771601 -0.0567674486187867
vn -0.06400416119948162 -0.9975974205725939 -0.026511390307904767
vn 0.07090068693543963 -0.9970509574338002 0.029368024659907926
vn 0.08006232708281154 -0.9962380467743098 0.03316290007512471
vn 0.1307636050341199 -0.9899328940067819 0.05416405599508157
vn 0.17645129494351797 -0.9815920789018953 0.07308851585448334
vn 0.30668939955883945 -0.9432940929292741 0.12703490245982216
vn 0.5337338123236638 -0.8162425813579036 0.2210797728437273
vn 0.677084856509248 -0.680367228994062 0.28045771659341595
vn 0.691136016684785 -0.6636082970330811 0.2862778974177758
vn 0.6626869066123695 -0.6967777032413731 0.27449389077027864
vn 0.7127181355873246 0.636301410443384 0.2952175033304908
vn 0.7036026761777932 0.6480779093473519 0.29144175660226335
vn 0.6900984109958277 0.6648722003618108 0.285848107090248
vn 0.6565939911540865 0.7035030797025835 0.2719701226777084
vn 0.5080108969678878 0.8352522079571142 0.21042499296577755
vn 0.27283807764049844 0.955399075791557 0.11301322650944831
vn 0.11333979284326193 0.9924465134681156 0.046946877033813714
vn -0.3826834162342323 0 0.9238795391929066
usemtl material_0_0
f 1//1 2//1 3//1
f 2//1 1//1 4//1
f 4//1 1//1 5//1
f 5//1 1//1 6//1
f 6//1 1//1 7//1
f 7//1 1//1 8//1
f 7//1 8//1 9//1
f 7//1 9//1 10//1
f 10//1 9//1 11//1
f 8//1 1//1 12//1
f 12//1 1//1 13//1
f 13//1 1//1 14//1
f 15//1 16//1 17//1
f 16//1 15//1 18//1
f 18//1 15//1 19//1
f 19//1 15//1 20//1
f 20//1 15//1 21//1
f 21//1 15//1 22//1
f 21//1 22//1 23//1
f 22//1 15//1 24//1
f 24//1 15//1 25//1
f 25//1 15//1 26//1
f 26//1 15//1 27//1
f 27//1 15//1 28//1
f 29//1 30//1 31//1
f 30//1 29//1 32//1
f 32//1 29//1 33//1
f 32//1 33//1 23//1
f 23//1 33//1 34//1
f 23//1 34//1 21//1
f 35//1 36//1 37//1
f 36//1 35//1 38//1
f 38//1 35//1 31//1
f 38//1 31//1 39//1
f 39//1 31//1 30//1
f 39//1 30//1 40//1
f 39//1 40//1 41//1
f 41//1 40//1 42//1
f 41//1 42//1 43//1
f 41//1 43//1 44//1
f 44//1 43//1 45//1
f 44//1 45//1 46//1
f 44//1 46//1 47//1
f 48//1 49//1 50//1
f 49//1 48//1 51//1
f 51//1 48//1 52//1
f 51//1 52//1 53//1
f 51//1 53//1 10//1
f 51//1 10//1 54//1
f 54//1 10//1 55//1
f 55//1 10//1 56//1
f 56//1 10//1 11//1
f 56//1 11//1 37//1
f 56//1 37//1 36//1
f 51//1 54//1 57//1
f 51//1 57//1 58//1
f 59//2 60//2 61//2
f 60//2 59//2 62//2
f 63//3 64//4 65//4
f 64//4 63//3 66//3
f 67//5 66//3 63//3
f 66//3 67//5 68//5
f 69//2 70//2 71//2
f 70//2 69//2 72//2
f 73//6 74//6 75//6
f 74//6 73//6 76//6
f 77//7 78//7 79//7
f 78//7 77//7 80//7
f 81//8 82//8 83//8
f 82//8 81//8 84//8
f 85//9 86//9 87//9
f 86//9 85//9 88//9
f 89//10 90//10 91//10
f 90//10 89//10 92//10
f 93//6 94//6 95//6
f 94//6 93//6 96//6
f 97//2 98//2 99//2
f 98//2 97//2 100//2
f 101//11 102//11 103//11
f 102//11 101//11 104//11
f 105//12 106//12 107//12
f 106//12 105//12 108//12
f 109//13 110//13 111//13
f 110//13 109//13 112//13
f 113//14 114//14 115//14
f 114//14 113//14 116//14
f 117//15 118//16 119//16
f 118//16 117//15 120//15
f 121//17 120//15 117//15
f 120//15 121//17 122//17
f 123//18 122//17 121//17
f 122//17 123//18 124//18
f 125//19 126//19 127//19
f 126//19 125//19 128//19
f 129//20 130//20 131//20
f 130//20 129//20 132//20
f 133//21 134//21 135//21
f 134//21 133//21 136//21
f 137//11 138//11 139//11
f 138//11 137//11 140//11
f 141//22 142//22 143//22
f 142//22 141//22 144//22
f 145//6 146//6 147//6
f 146//6 145//6 148//6
f 149//23 150//23 151//23
f 150//23 149//23 152//23
f 153//24 154//24 155//24
f 154//24 153//24 156//24
f 157//25 158//25 159//25
f 158//25 157//25 160//25
f 161//26 162//26 163//26
f 162//26 161//26 164//26
f 165//27 166//27 167//27
f 166//27 165//27 168//27
f 169//6 170//6 171//6
f 170//6 169//6 172//6
f 173//22 174//22 175//22
f 174//22 173//22 176//22
f 177//28 178//29 179//29
f 178//29 177//28 180//28
f 181//30 179//29 178//29
f 179//29 181//30 182//30
f 183//31 182//30 181//30
f 182//30 183//31 184//31
f 185//32 186//32 187//32
f 186//32 185//32 188//32
f 189//33 190//33 191//33
f 190//33 189//33 192//33
f 193//34 194//34 195//34
f 194//34 193//34 196//34
f 197//35 198//35 199//35
f 198//35 197//35 200//35
f 201//36 202//36 203//36
f 202//36 201//36 204//36
f 205//37 206//37 207//37
f 206//37 205//37 208//37
f 209//11 210//11 211//11
f 210//11 209//11 212//11
f 213//22 214//22 215//22
f 214//22 213//22 216//22
f 217//6 218//6 219//6
f 218//6 217//6 220//6
f 221//38 222//38 223//38
f 222//38 221//38 224//38
f 225//39 226//39 227//39
f 226//39 225//39 228//39
f 229//40 230//40 231//40
f 230//40 229//40 232//40
f 233//41 234//41 235//41
f 234//41 233//41 236//41
f 237//42 238//42 239//42
f 238//42 237//42 240//42
f 241//43 242//43 243//43
f 242//43 241//43 244//43
f 245//44 246//45 247//44
f 246//45 245//44 248//45
f 249//46 247//44 250//46
f 247//44 249//46 245//44
f 251//47 252//48 253//47
f 252//48 251//47 254//48
f 255//49 253//47 256//49
f 253//47 255//49 251//47
f 257//50 256//49 258//50
f 256//49 257//50 255//49
f 259//51 260//51 261//51
f 260//51 259//51 262//51
f 263//52 264//52 265//52
f 264//52 263//52 266//52
f 267//53 268//53 269//53
f 268//53 267//53 270//53
f 271//6 272//6 273//6
f 272//6 271//6 274//6
f 275//54 276//54 277//54
f 276//54 275//54 278//54
f 278//54 275//54 279//54
f 279//54 275//54 280//54
f 280//54 275//54 281//54
f 281//54 275//54 282//54
f 281//54 282//54 283//54
f 281//54 283//54 284//54
f 281//54 284//54 285//54
f 282//54 275//54 286//54
f 286//54 275//54 287//54
f 288//54 289//54 290//54
f 289//54 288//54 291//54
f 291//54 288//54 292//54
f 292//54 288//54 293//54
f 292//54 293//54 294//54
f 294//54 293//54 295//54
f 295//54 293//54 296//54
f 295//54 296//54 297//54
f 297//54 296//54 298//54
f 298//54 296//54 299//54
f 298//54 299//54 300//54
f 300//54 299//54 301//54
f 301//54 299//54 302//54
f 294//54 303//54 292//54
f 303//54 294//54 304//54
f 303//54 304//54 305//54
f 305//54 304//54 306//54
f 305//54 306//54 307//54
f 307//54 306//54 308//54
f 309//54 310//54 311//54
f 310//54 309//54 312//54
f 310//54 312//54 313//54
f 310//54 313//54 314//54
f 310//54 314//54 308//54
f 310//54 308//54 315//54
f 315//54 308//54 306//54
f 310//54 315//54 316//54
f 310//54 316//54 317//54
f 310//54 317//54 318//54
f 310//54 318//54 319//54
f 310//54 319//54 320//54
f 321//54 322//54 323//54
f 322//54 321//54 324//54
f 324//54 321//54 325//54
f 324//54 325//54 326//54
f 324//54 326//54 285//54
f 324//54 285//54 327//54
f 327//54 285//54 328//54
f 328//54 285//54 329//54
f 329//54 285//54 284//54
f 329//54 284//54 290//54
f 329//54 290//54 289//54
f 324//54 327//54 330//54
f 324//54 330//54 331//54
f 324//54 331//54 332//54
