# SSTK version 0.8.0
# 17
mtllib original-17.mtl
o side2/side12/mesh27/mesh27-geometry#mesh27-geometry
v 0.638108 0.149594 0.138691
v 0.638108 0.149594 -0.134886
v 0.644520 0.149594 0.138691
v 0.638108 0.158143 0.138691
v 0.644520 0.149594 -0.134886
v 0.638108 0.158143 -0.134886
v 0.644520 0.141044 -0.134886
v 0.663756 0.158143 -0.134886
v 0.663756 0.158143 0.138691
v 0.644520 0.132495 -0.134886
v 0.657344 0.141044 0.138691
v 0.657344 0.141044 -0.134886
v 0.644520 0.132495 0.138691
v 0.644520 0.038453 -0.134886
v 0.644520 0.141044 0.138691
v 0.663756 0.038453 0.138691
v 0.657344 0.038453 -0.134886
v 0.657344 0.141044 -0.160534
v 0.638108 0.132495 0.138691
v 0.644520 0.038453 -0.160534
v 0.638108 0.132495 -0.134886
v 0.644520 0.141044 0.164339
v 0.657344 0.038453 0.138691
v 0.663756 0.038453 -0.134886
v 0.644520 0.141044 -0.160534
v 0.644520 0.038453 0.138691
v 0.646657 0.038453 -0.134886
v 0.638108 0.021354 -0.134886
v 0.657344 0.141044 0.164339
v 0.657344 0.038453 0.164339
v 0.646657 0.038453 0.138691
v 0.663693 0.037329 0.138691
v 0.657344 0.038453 -0.160534
v 0.638108 0.021354 0.138691
v 0.663672 0.022462 -0.134886
v 0.663693 0.037329 -0.134886
v 0.644520 0.038453 0.164339
v 0.663756 0.021354 0.138691
v 0.655206 0.029814 -0.134886
v 0.663756 0.021354 -0.134886
v 0.663484 0.036223 0.138691
v 0.663484 0.036223 -0.134886
v 0.663672 0.022462 0.138691
v 0.663445 0.023550 -0.134886
v 0.656330 0.029888 -0.134886
v 0.663131 0.035154 0.138691
v 0.663131 0.035154 -0.134886
v 0.655206 0.029814 0.138691
v 0.663079 0.024598 -0.134886
v 0.656330 0.029888 0.138691
v 0.657434 0.030109 -0.134886
v 0.662640 0.034140 0.138691
v 0.662640 0.034140 -0.134886
v 0.663445 0.023550 0.138691
v 0.662580 0.025591 -0.134886
v 0.657434 0.030109 0.138691
v 0.658499 0.030473 -0.134886
v 0.662021 0.033200 0.138691
v 0.662021 0.033200 -0.134886
v 0.663079 0.024598 0.138691
v 0.661957 0.026510 -0.134886
v 0.656315 0.029742 -0.134886
v 0.658499 0.030473 0.138691
v 0.659507 0.030974 -0.134886
v 0.661283 0.032350 0.138691
v 0.661283 0.032350 -0.134886
v 0.662580 0.025591 0.138691
v 0.661220 0.027341 -0.134886
v 0.656315 0.029742 0.138691
v 0.657405 0.029526 -0.134886
v 0.659507 0.030974 0.138691
v 0.660441 0.031603 -0.134886
v 0.660441 0.031603 0.138691
v 0.661957 0.026510 0.138691
v 0.660381 0.028070 -0.134886
v 0.657405 0.029526 0.138691
v 0.658457 0.029172 -0.134886
v 0.661220 0.027341 0.138691
v 0.660381 0.028070 0.138691
v 0.659455 0.028683 -0.134886
v 0.658457 0.029172 0.138691
v 0.659455 0.028683 0.138691
vt -4.390855 0.834157
vt -4.390855 0.16749
vt -4.413103 0.834157
vt -1.18774 2.145833
vt -1.18774 2.166667
vt -0.238486 2.145833
vt -4.413103 0.16749
vt -0.238486 2.166667
vt -0.238486 2.125
vt -0.238486 2.104167
vt -1.18774 2.104167
vt -0.238486 1.875
vt 1.18774 2.166667
vt 1.18774 1.875
vt 0.238486 2.166667
vt 0.066744 0.0625
vt 0.066744 0
vt 0.022248 0.0625
vt -1.18774 2.125
vt 4.413103 0.834157
vt 4.413103 0.16749
vt 4.390855 0.834157
vt -0.149494 1.875
vt 4.413103 0.896657
vt 4.4576 0.834157
vt 0.238486 1.875
vt 0.238486 2.125
vt 0.149494 2.125
vt 0.022248 0
vt -1.276732 2.125
vt 4.390855 0.16749
vt -0.149494 2.125
vt -4.413103 0.10499
vt -4.420519 0.16749
vt 4.4576 0.896657
vt 1.18774 2.125
vt 1.276732 1.875
vt 1.18774 2.046373
vt 1.18774 2.043629
vt 0.238486 2.046373
vt 0.149494 1.875
vt -1.18774 1.875
vt -0.238486 1.833333
vt -4.4576 0.10499
vt 1.276732 2.125
vt -4.4576 0.834157
vt -4.4576 0.896657
vt -4.420519 0.834157
vt 0.238486 2.043629
vt -4.4576 0.16749
vt -1.276732 1.875
vt -1.18774 1.833333
vt 1.18774 2.42502
vt 1.18774 2.422277
vt 0.238486 2.42502
vt -4.413103 0.896657
vt 0.238486 1.593197
vt 1.18774 1.593197
vt 0.238486 1.59049
vt 0.238486 2.422277
vt 1.18774 1.59049
vt 0.238486 1.15505
vt 0.238486 1.157757
vt 1.18774 1.15505
vt 0.238486 3.243415
vt 1.18774 3.243415
vt 0.238486 3.240671
vt 1.18774 2.761645
vt 1.18774 2.758901
vt 0.238486 2.761645
vt 0.238486 2.758901
vt 1.18774 1.157757
vt 0.238486 0.70009
vt 0.238486 0.702797
vt 1.18774 0.70009
vt 1.18774 3.431324
vt 0.238486 3.431324
vt 1.18774 3.434067
vt 1.18774 3.240671
vt 0.238486 3.434067
vt 1.18774 3.050409
vt 1.18774 3.047666
vt 0.238486 3.050409
vt 0.238486 3.047666
vt 1.18774 0.702797
vt 0.238486 0.233288
vt 0.238486 0.235995
vt 1.18774 0.233288
vt 0.238486 -2.998351
vt 1.18774 -2.998351
vt 0.238486 -3.001058
vt 1.18774 3.562457
vt 0.238486 3.562457
vt 1.18774 3.565201
vt 0.238486 3.565201
vt 1.18774 3.286306
vt 1.18774 3.283563
vt 0.238486 3.286306
vt 0.238486 3.283563
vt 1.18774 0.235995
vt 0.238486 -0.237474
vt 0.238486 -0.234767
vt 1.18774 -0.237474
vt 1.18774 -3.001058
vt 1.18774 3.631798
vt 0.238486 3.631798
vt 1.18774 3.634541
vt 0.238486 3.634541
vt 1.18774 3.465247
vt 1.18774 3.462503
vt 0.238486 3.465247
vt 0.238486 3.462503
vt 1.18774 -0.234767
vt 0.238486 -0.704251
vt 0.238486 -0.701544
vt 1.18774 -0.704251
vt 0.238486 -2.709545
vt 1.18774 -2.709545
vt 0.238486 -2.712252
vt 1.18774 3.638143
vt 0.238486 3.638143
vt 1.18774 3.640887
vt 0.238486 3.640887
vt 1.18774 3.581384
vt 0.238486 3.581384
vt 1.18774 3.584127
vt 0.238486 3.584127
vt 1.18774 -0.701544
vt 0.238486 -1.156455
vt 1.18774 -1.156455
vt 0.238486 -1.159162
vt 1.18774 -2.712252
vt 0.238486 -2.374976
vt 1.18774 -2.374976
vt 0.238486 -2.377683
vt 1.18774 -1.159162
vt 1.18774 -1.594528
vt 0.238486 -1.594528
vt 1.18774 -1.591821
vt 0.238486 -1.591821
vt 1.18774 -2.377683
vt 0.238486 -2.000293
vt 1.18774 -2.000293
vt 0.238486 -2.003
vt 1.18774 -2.003
vt -3.083724 2.145833
vt -3.099349 2.145833
vt -3.083724 2.166667
vt 3.083724 2.145833
vt 3.146224 2.166667
vt 3.099349 2.145833
vt -3.146224 2.166667
vt 3.083724 2.166667
vt 0 0.0625
vt 0 0.729167
vt 0.0625 0.0625
vt 3.099349 2.125
vt -3.130599 2.125
vt 0.0625 0.729167
vt 3.130599 2.125
vt -3.099349 2.125
vt -3.146224 1.875
vt 3.130599 1.875
vt 3.099349 2.104167
vt 3.099349 1.875
vt 3.083724 2.104167
vt -3.130599 1.875
vt 3.146224 1.875
vt -3.099349 2.104167
vt -3.083724 2.104167
vt -3.099349 1.875
vt 3.083724 1.833333
vt -3.104558 1.875
vt -3.083724 1.833333
vt 3.104558 1.875
vt 3.14602 1.836033
vt -3.146072 1.872261
vt 3.146072 1.872261
vt -3.146224 1.833333
vt 3.125391 1.853947
vt 3.146224 1.833333
vt -3.145562 1.869565
vt 3.145562 1.869565
vt -0.0625 0.729167
vt -3.14602 1.836033
vt 3.145467 1.838682
vt 3.128129 1.854128
vt -0.0625 0.0625
vt -3.144702 1.86696
vt 3.144702 1.86696
vt -3.125391 1.853947
vt 3.144576 1.841238
vt 3.130819 1.854667
vt -3.143507 1.864491
vt 3.143507 1.864491
vt -3.128129 1.854128
vt -3.145467 1.838682
vt 3.14336 1.843657
vt 3.133414 1.855554
vt -3.141997 1.8622
vt 3.141997 1.8622
vt -3.130819 1.854667
vt -3.144576 1.841238
vt 3.141842 1.845898
vt 3.135871 1.856775
vt -3.1402 1.860127
vt 3.1402 1.860127
vt -3.133414 1.855554
vt -3.14336 1.843657
vt 3.140045 1.847923
vt 3.128092 1.853771
vt 3.130748 1.853247
vt 3.138146 1.858308
vt -3.138146 1.858308
vt -3.135871 1.856775
vt -3.141842 1.845898
vt 3.138001 1.849698
vt -3.128092 1.853771
vt -3.130748 1.853247
vt 3.133313 1.852382
vt -3.140045 1.847923
vt 3.135745 1.851193
vt -3.133313 1.852382
vt -3.138001 1.849698
vt -3.135745 1.851193
vn 0 -1 0
vn -1 0 0
vn 1 0 0
vn 0 1 0
vn 0.9984651279627997 -0.05538400709798711 0
vn 0.9926523796374936 -0.1210010462765565 0
vn 0.9681481487133761 -0.2503780384595719 0
vn 0.9901317044338489 0.14013995816654706 0
vn 0.9971441350033537 0.07552201022492568 0
vn 0.9636052937715001 0.26732908149982754 0
vn 0.1313919336980046 -0.9913304997623643 0
vn 0.0658390170252807 -0.9978302580284609 0
vn 0.9268571993461507 -0.37541408074313065 0
vn 0.9208122673210483 0.39000611322269124 0
vn 0.2605048738174613 -0.9654725323474246 0
vn 0.86949556286252 -0.4939407516720905 0
vn 0.8624755479003549 0.506098734708933 0
vn 0.06496297882489825 0.9978876747320791 0
vn 0.12965194329647567 0.9915595663395352 0
vn 0.385101154025666 -0.9228743691142908 0
vn 0.79705788491561 -0.6039029128045783 0
vn 0.7895794480292194 0.6136483482010469 0
vn 0.5030210821139228 -0.8642741410854188 0
vn 0.710800085567541 -0.7033940846759917 0
vn 0.7033548804486711 0.7108388791765935 0
vn 0.2571149536696893 0.9663808258649554 0
vn 0.6122180078838374 -0.7906890101820977 0
vn 0.6052570614490289 0.7960300808173559 0
vn 0.38023703070604264 0.9248890746894202 0
vn 0.4969411420911465 0.8677842481268871 0
vn 0 0 -1
vn 0 0 1
vn -0.9984651279627997 0.05538400709798711 0
vn -0.9926523796374936 0.1210010462765565 0
vn -0.9681481487133761 0.2503780384595719 0
vn -0.9971441350033537 -0.07552201022492568 0
vn -0.9901317044338489 -0.14013995816654706 0
vn -0.9636052937715001 -0.26732908149982754 0
vn -0.0658390170252807 0.9978302580284609 0
vn -0.1313919336980046 0.9913304997623643 0
vn -0.9268571993461507 0.37541408074313065 0
vn -0.9208122673210483 -0.39000611322269124 0
vn -0.2605048738174613 0.9654725323474246 0
vn -0.86949556286252 0.4939407516720905 0
vn -0.8624755479003549 -0.506098734708933 0
vn -0.12965194329647567 -0.9915595663395352 0
vn -0.06496297882489825 -0.9978876747320791 0
vn -0.385101154025666 0.9228743691142908 0
vn -0.79705788491561 0.6039029128045783 0
vn -0.7895794480292194 -0.6136483482010469 0
vn -0.5030210821139228 0.8642741410854188 0
vn -0.710800085567541 0.7033940846759917 0
vn -0.7033548804486711 -0.7108388791765935 0
vn -0.2571149536696893 -0.9663808258649554 0
vn -0.6122180078838374 0.7906890101820977 0
vn -0.6052570614490289 -0.7960300808173559 0
vn -0.38023703070604264 -0.9248890746894202 0
vn -0.4969411420911465 -0.8677842481268871 0
usemtl material_0_0
f 1/1/1 2/2/1 3/3/1
f 1/4/2 4/5/2 2/6/2
f 5/7/1 3/3/1 2/2/1
f 6/8/2 2/6/2 4/5/2
f 5/6/2 7/9/2 3/4/2
f 10/10/2 3/4/2 7/9/2
f 13/11/2 3/4/2 10/10/2
f 10/10/2 7/9/2 14/12/2
f 9/13/3 16/14/3 8/15/3
f 12/16/4 18/17/4 7/18/4
f 15/19/2 3/4/2 13/11/2
f 13/20/4 10/21/4 19/22/4
f 14/12/2 7/9/2 20/23/2
f 15/20/4 22/24/4 11/25/4
f 24/26/3 8/15/3 16/14/3
f 12/27/3 17/26/3 18/28/3
f 25/29/4 7/18/4 18/17/4
f 15/19/2 13/11/2 22/30/2
f 21/31/4 19/22/4 10/21/4
f 25/32/2 20/23/2 7/9/2
f 14/7/1 20/33/1 27/34/1
f 29/35/4 11/25/4 22/24/4
f 23/14/3 11/36/3 30/37/3
f 16/38/5 32/39/6 24/40/5
f 33/41/3 18/28/3 17/26/3
f 26/42/2 22/30/2 13/11/2
f 21/10/2 28/43/2 19/11/2
f 33/44/1 27/34/1 20/33/1
f 29/45/3 30/37/3 11/36/3
f 23/46/1 30/47/1 31/48/1
f 36/49/6 24/40/5 32/39/6
f 17/50/1 27/34/1 33/44/1
f 37/51/2 22/30/2 26/42/2
f 34/52/2 19/11/2 28/43/2
f 31/48/1 30/47/1 26/3/1
f 32/53/6 41/54/7 36/55/6
f 37/56/1 26/3/1 30/47/1
f 35/57/8 43/58/8 40/59/9
f 42/60/7 36/55/6 41/54/7
f 38/61/9 40/59/9 43/58/8
f 35/62/8 44/63/10 43/64/8
f 45/65/11 50/66/11 39/67/12
f 41/68/7 46/69/13 42/70/7
f 47/71/13 42/70/7 46/69/13
f 54/72/10 43/64/8 44/63/10
f 44/73/10 49/74/14 54/75/10
f 50/76/11 45/77/11 56/78/15
f 48/79/12 39/67/12 50/66/11
f 51/80/15 56/78/15 45/77/11
f 46/81/13 52/82/16 47/83/13
f 53/84/16 47/83/13 52/82/16
f 60/85/14 54/75/10 49/74/14
f 49/86/14 55/87/17 60/88/14
f 39/89/18 48/90/18 62/91/19
f 56/92/15 51/93/15 63/94/20
f 57/95/20 63/94/20 51/93/15
f 52/96/16 58/97/21 53/98/16
f 59/99/21 53/98/16 58/97/21
f 67/100/17 60/88/14 55/87/17
f 55/101/17 61/102/22 67/103/17
f 69/104/19 62/91/19 48/90/18
f 63/105/20 57/106/20 71/107/23
f 64/108/23 71/107/23 57/106/20
f 58/109/21 65/110/24 59/111/21
f 66/112/24 59/111/21 65/110/24
f 74/113/22 67/103/17 61/102/22
f 61/114/22 68/115/25 74/116/22
f 62/117/19 69/118/19 70/119/26
f 71/120/23 64/121/23 73/122/27
f 72/123/27 73/122/27 64/121/23
f 73/124/27 72/125/27 65/126/24
f 66/127/24 65/126/24 72/125/27
f 78/128/25 74/116/22 68/115/25
f 75/129/28 79/130/28 68/131/25
f 76/132/26 70/119/26 69/118/19
f 70/133/26 76/134/26 77/135/29
f 78/136/25 68/131/25 79/130/28
f 79/137/28 75/138/28 82/139/30
f 80/140/30 82/139/30 75/138/28
f 81/141/29 77/135/29 76/134/26
f 77/142/29 81/143/29 80/144/30
f 82/145/30 80/144/30 81/143/29
usemtl material_1_0
f 3//4 2//4 1//4
f 2//3 4//3 1//3
f 2//4 3//4 5//4
f 4//31 3//31 1//31
f 4//3 2//3 6//3
f 3//3 7//3 5//3
f 5//32 8//32 2//32
f 9//31 3//31 4//31
f 2//32 8//32 6//32
f 8//1 4//1 6//1
f 7//32 8//32 5//32
f 7//3 3//3 10//3
f 9//31 11//31 3//31
f 4//1 8//1 9//1
f 12//32 8//32 7//32
f 10//3 3//3 13//3
f 14//3 7//3 10//3
f 3//31 11//31 15//31
f 16//31 11//31 9//31
f 8//2 16//2 9//2
f 17//32 8//32 12//32
f 7//1 18//1 12//1
f 13//3 3//3 15//3
f 19//1 10//1 13//1
f 20//3 7//3 14//3
f 21//32 14//32 10//32
f 11//1 22//1 15//1
f 16//31 23//31 11//31
f 16//2 8//2 24//2
f 8//32 17//32 24//32
f 18//2 17//2 12//2
f 18//1 7//1 25//1
f 22//3 13//3 15//3
f 10//1 19//1 21//1
f 26//31 19//31 13//31
f 7//3 20//3 25//3
f 27//4 20//4 14//4
f 28//32 14//32 21//32
f 22//1 11//1 29//1
f 30//2 11//2 23//2
f 16//31 31//31 23//31
f 24//33 32//34 16//33
f 14//32 24//32 17//32
f 17//2 18//2 33//2
f 20//32 18//32 25//32
f 13//3 22//3 26//3
f 19//3 28//3 21//3
f 26//31 34//31 19//31
f 20//4 27//4 33//4
f 14//32 17//32 27//32
f 28//32 35//32 14//32
f 11//2 30//2 29//2
f 30//31 22//31 29//31
f 31//4 30//4 23//4
f 16//31 26//31 31//31
f 26//31 16//31 32//31
f 32//34 24//33 36//34
f 14//32 36//32 24//32
f 18//32 20//32 33//32
f 33//4 27//4 17//4
f 26//3 22//3 37//3
f 28//3 19//3 34//3
f 34//31 26//31 38//31
f 14//32 35//32 39//32
f 35//32 28//32 40//32
f 22//31 30//31 37//31
f 26//4 30//4 31//4
f 41//31 26//31 32//31
f 36//34 41//35 32//34
f 14//32 42//32 36//32
f 30//4 26//4 37//4
f 38//4 28//4 34//4
f 38//31 26//31 43//31
f 39//32 35//32 44//32
f 14//32 39//32 45//32
f 28//4 38//4 40//4
f 40//36 43//37 35//37
f 46//31 26//31 41//31
f 41//35 36//34 42//35
f 14//32 47//32 42//32
f 43//31 26//31 48//31
f 43//37 40//36 38//36
f 43//37 44//38 35//37
f 39//32 44//32 49//32
f 39//39 50//40 45//40
f 14//32 45//32 51//32
f 52//31 26//31 46//31
f 42//35 46//41 41//35
f 46//41 42//35 47//41
f 14//32 53//32 47//32
f 48//31 26//31 50//31
f 43//31 48//31 54//31
f 44//38 43//37 54//38
f 54//38 49//42 44//38
f 39//32 49//32 55//32
f 56//43 45//40 50//40
f 50//40 39//39 48//39
f 45//40 56//43 51//43
f 14//32 51//32 57//32
f 58//31 26//31 52//31
f 47//41 52//44 46//41
f 52//44 47//41 53//44
f 14//32 59//32 53//32
f 50//31 26//31 56//31
f 54//31 48//31 60//31
f 49//42 54//38 60//42
f 60//42 55//45 49//42
f 39//32 55//32 61//32
f 62//46 48//47 39//47
f 63//48 51//43 56//43
f 51//43 63//48 57//48
f 14//32 57//32 64//32
f 65//31 26//31 58//31
f 53//44 58//49 52//44
f 58//49 53//44 59//49
f 14//32 66//32 59//32
f 56//31 26//31 63//31
f 60//31 48//31 67//31
f 55//45 60//42 67//45
f 67//45 61//50 55//45
f 39//32 61//32 68//32
f 48//47 62//46 69//46
f 39//32 70//32 62//32
f 71//51 57//48 63//48
f 57//48 71//51 64//51
f 14//32 64//32 72//32
f 73//31 26//31 65//31
f 59//49 65//52 58//49
f 65//52 59//49 66//52
f 14//32 72//32 66//32
f 63//31 26//31 71//31
f 67//31 48//31 74//31
f 61//50 67//45 74//50
f 74//50 68//53 61//50
f 39//32 68//32 75//32
f 70//54 69//46 62//46
f 76//31 48//31 69//31
f 39//32 77//32 70//32
f 73//55 64//51 71//51
f 64//51 73//55 72//55
f 71//31 26//31 73//31
f 65//52 72//55 73//55
f 72//55 65//52 66//52
f 74//31 48//31 78//31
f 68//53 74//50 78//53
f 68//53 79//56 75//56
f 39//32 75//32 80//32
f 69//46 70//54 76//54
f 81//31 48//31 76//31
f 77//57 76//54 70//54
f 39//32 80//32 77//32
f 78//31 48//31 79//31
f 79//56 68//53 78//53
f 82//58 75//56 79//56
f 75//56 82//58 80//58
f 82//31 48//31 81//31
f 76//54 77//57 81//57
f 80//58 81//57 77//57
f 79//31 48//31 82//31
f 81//57 80//58 82//58
usemtl material_2_0
f 1/146/32 3/147/32 4/148/32
f 2/149/31 8/150/31 5/151/31
f 4/148/32 3/147/32 9/152/32
f 6/153/31 8/150/31 2/149/31
f 6/154/4 4/155/4 8/156/4
f 5/151/31 8/150/31 7/157/31
f 3/147/32 11/158/32 9/152/32
f 9/159/4 8/156/4 4/155/4
f 7/157/31 8/150/31 12/160/31
f 15/161/32 11/158/32 3/147/32
f 9/152/32 11/158/32 16/162/32
f 12/160/31 8/150/31 17/163/31
f 10/164/31 14/165/31 21/166/31
f 11/158/32 23/167/32 16/162/32
f 24/168/31 17/163/31 8/150/31
f 13/169/32 19/170/32 26/171/32
f 21/166/31 14/165/31 28/172/31
f 23/167/32 31/173/32 16/162/32
f 17/163/31 24/168/31 14/165/31
f 25/157/31 18/160/31 20/165/31
f 19/170/32 34/174/32 26/171/32
f 27/175/31 17/163/31 14/165/31
f 14/165/31 35/176/31 28/172/31
f 29/158/32 22/161/32 30/167/32
f 31/173/32 26/171/32 16/162/32
f 32/177/32 16/162/32 26/171/32
f 24/168/31 36/178/31 14/165/31
f 33/163/31 20/165/31 18/160/31
f 38/179/32 26/171/32 34/174/32
f 39/180/31 35/176/31 14/165/31
f 40/181/31 28/172/31 35/176/31
f 37/171/32 30/167/32 22/161/32
f 32/177/32 26/171/32 41/182/32
f 36/178/31 42/183/31 14/165/31
f 34/155/1 28/154/1 38/184/1
f 43/185/32 26/171/32 38/179/32
f 44/186/31 35/176/31 39/180/31
f 45/187/31 39/180/31 14/165/31
f 40/188/1 38/184/1 28/154/1
f 41/182/32 26/171/32 46/189/32
f 42/183/31 47/190/31 14/165/31
f 48/191/32 26/171/32 43/185/32
f 49/192/31 44/186/31 39/180/31
f 51/193/31 45/187/31 14/165/31
f 46/189/32 26/171/32 52/194/32
f 47/190/31 53/195/31 14/165/31
f 50/196/32 26/171/32 48/191/32
f 54/197/32 48/191/32 43/185/32
f 55/198/31 49/192/31 39/180/31
f 57/199/31 51/193/31 14/165/31
f 52/194/32 26/171/32 58/200/32
f 53/195/31 59/201/31 14/165/31
f 56/202/32 26/171/32 50/196/32
f 60/203/32 48/191/32 54/197/32
f 61/204/31 55/198/31 39/180/31
f 64/205/31 57/199/31 14/165/31
f 58/200/32 26/171/32 65/206/32
f 59/201/31 66/207/31 14/165/31
f 63/208/32 26/171/32 56/202/32
f 67/209/32 48/191/32 60/203/32
f 68/210/31 61/204/31 39/180/31
f 62/211/31 70/212/31 39/180/31
f 72/213/31 64/205/31 14/165/31
f 65/206/32 26/171/32 73/214/32
f 66/207/31 72/213/31 14/165/31
f 71/215/32 26/171/32 63/208/32
f 74/216/32 48/191/32 67/209/32
f 75/217/31 68/210/31 39/180/31
f 69/218/32 48/191/32 76/219/32
f 70/212/31 77/220/31 39/180/31
f 73/214/32 26/171/32 71/215/32
f 78/221/32 48/191/32 74/216/32
f 80/222/31 75/217/31 39/180/31
f 76/219/32 48/191/32 81/223/32
f 77/220/31 80/222/31 39/180/31
f 79/224/32 48/191/32 78/221/32
f 81/223/32 48/191/32 82/225/32
f 82/225/32 48/191/32 79/224/32
