# SSTK version 0.8.0
# 13
mtllib original-13.mtl
o mesh18/mesh18-geometry#mesh18-geometry
v 0.637039 -0.577328 0.010441
v 0.637039 -0.526032 0.010441
v 0.637039 -0.577328 0.165549
v 0.649863 -0.526032 0.014715
v 0.637039 -0.526032 0.163107
v 0.649863 -0.577328 0.014715
v 0.662687 -0.526032 0.163107
v 0.662687 -0.577328 0.165549
v 0.649863 -0.577328 -0.010933
v 0.662687 -0.577328 -0.161766
v 0.662687 -0.526032 -0.159324
v 0.649863 -0.526032 -0.010933
v 0.637039 -0.526032 -0.006658
v 0.637039 -0.577328 -0.006658
v 0.637039 -0.577328 -0.161766
v 0.637039 -0.526032 -0.159324
vt 1.28097 0.375
vt 0.742776 0.5
vt 0.742776 0.375
vt 4.400418 0.5
vt 4.447321 0.5
vt 4.400418 0.375
vt 1.272495 0.5
vt 4.435352 0.532073
vt 4.390855 0.899633
vt 4.390855 0.521656
vt 4.390855 0.893681
vt 4.447321 0.375
vt 4.479848 0.899633
vt 4.479848 0.893681
vt -0.757608 0.375
vt -0.757608 0.5
vt -0.668616 0.375
vt 4.479848 0.102014
vt 4.479848 0.107966
vt -0.668616 0.5
vt 4.435352 0.469573
vt -1.28097 0.375
vt -0.153731 0.5
vt -1.272495 0.5
vt -0.145256 0.375
vt -3.996309 0.5
vt -3.949406 0.5
vt -3.996309 0.375
vt 4.390855 0.47999
vt -3.949406 0.375
vt 4.390855 0.102014
vt 4.390855 0.107965
vt 0.15373 0.5
vt 0.683448 0.375
vt 0.683448 0.5
vt 0.145256 0.375
vt 3.083724 0.331784
vt 3.146224 0.456926
vt 3.083724 0.456926
vt 3.146224 0.331784
vt 3.146225 0.379426
vt 3.083725 0.379426
vt 3.146225 0.504568
vt 3.083725 0.504568
vn 1 0 0
vn -0.31622806601688475 0 0.9486831980504455
vn 0 1 0
vn 0 -1 0
vn 0 -0.04756500688149143 -0.9988681445117586
vn -1 0 0
vn -0.31622806601688475 0 -0.9486831980504455
vn -0.000009000003442029475 -0.04756001818921376 0.9988683820147887
vn 0.31622806601688475 0 -0.9486831980504455
vn 0.31622806601688475 0 0.9486831980504455
vn 0 0.04756500688149143 0.9988681445117586
vn 0.000009000003442029475 0.04756001818921376 -0.9988683820147887
usemtl material_0_0
f 1//1 2//1 3//1
f 1//2 4//2 2//2
f 5//1 3//1 2//1
f 1//3 3//3 6//3
f 4//4 5//4 2//4
f 4//2 1//2 6//2
f 5//5 7//5 3//5
f 8//3 6//3 3//3
f 5//4 4//4 7//4
f 9//1 4//1 6//1
f 8//5 3//5 7//5
f 10//3 6//3 8//3
f 7//4 4//4 11//4
f 4//1 9//1 12//1
f 6//3 10//3 9//3
f 7//6 11//6 8//6
f 10//6 8//6 11//6
f 12//4 11//4 4//4
f 9//7 13//7 12//7
f 9//3 10//3 14//3
f 11//8 15//8 10//8
f 13//4 11//4 12//4
f 13//7 9//7 14//7
f 15//3 14//3 10//3
f 15//8 11//8 16//8
f 11//4 13//4 16//4
f 13//1 14//1 16//1
f 15//1 16//1 14//1
usemtl material_1_0
f 3/1/6 2/2/6 1/3/6
f 2/4/9 4/5/9 1/6/9
f 2/2/6 3/1/6 5/7/6
f 6/8/4 3/9/4 1/10/4
f 2/10/3 5/11/3 4/8/3
f 6/12/9 1/6/9 4/5/9
f 3/9/4 6/8/4 8/13/4
f 7/14/3 4/8/3 5/11/3
f 6/15/6 4/16/6 9/17/6
f 8/13/4 6/8/4 10/18/4
f 11/19/3 4/8/3 7/14/3
f 12/20/6 9/17/6 4/16/6
f 9/21/4 10/18/4 6/8/4
f 8/22/1 11/23/1 7/24/1
f 11/23/1 8/22/1 10/25/1
f 4/8/3 11/19/3 12/21/3
f 12/26/10 13/27/10 9/28/10
f 14/29/4 10/18/4 9/21/4
f 12/21/3 11/19/3 13/29/3
f 14/30/10 9/28/10 13/27/10
f 10/18/4 14/29/4 15/31/4
f 16/32/3 13/29/3 11/19/3
f 16/33/6 14/34/6 13/35/6
f 14/34/6 16/33/6 15/36/6
usemtl material_2_0
f 3/37/11 7/38/11 5/39/11
f 7/38/11 3/37/11 8/40/11
f 10/41/12 15/42/12 11/43/12
f 16/44/12 11/43/12 15/42/12
