# SSTK version 0.8.0
# 78
mtllib original-78.mtl
o #ID367
v -0.105254 0.258775 0.680341
v -0.105223 0.257467 0.680341
v -0.105369 0.258068 0.680341
v -0.104909 0.259467 0.680341
v -0.104886 0.257126 0.680341
v -0.104335 0.260145 0.680341
v -0.104504 0.258277 0.680341
v -0.104450 0.258550 0.680341
v -0.104206 0.259074 0.680341
v -0.103530 0.260807 0.680341
v -0.103840 0.259570 0.680341
v -0.102850 0.260475 0.680341
v -0.101173 0.262172 0.680341
v -0.101719 0.261117 0.680341
v -0.099990 0.265494 0.680341
v -0.099999 0.265094 0.680341
v -0.100127 0.265285 0.680341
v -0.102750 0.264195 0.680341
v -0.102748 0.262900 0.680341
v -0.102884 0.263446 0.680341
v -0.102347 0.265130 0.680341
v -0.102486 0.262600 0.680341
v -0.102138 0.262500 0.680341
v -0.101956 0.263674 0.680341
v -0.101506 0.266459 0.680341
v -0.101719 0.264511 0.680341
v -0.101142 0.265551 0.680341
v -0.100509 0.267478 0.680341
v -0.100373 0.266486 0.680341
v -0.099660 0.268017 0.680341
v -0.099729 0.267046 0.680341
v -0.099253 0.267232 0.680341
v -0.098916 0.268197 0.680341
v -0.099083 0.267171 0.680341
v -0.099026 0.266986 0.680341
v -0.098307 0.267933 0.680341
v -0.098416 0.266386 0.680341
v -0.098587 0.268131 0.680341
v -0.098204 0.266955 0.680341
v -0.098177 0.267719 0.680341
v -0.098134 0.267423 0.680341
v -0.099253 0.266404 0.680341
v -0.099936 0.262991 0.680341
v -0.099089 0.264639 0.680341
v -0.098298 0.265904 0.680341
v -0.098207 0.266086 0.680341
v -0.101804 0.262563 0.680341
v -0.101883 0.263428 0.680341
v -0.101674 0.263346 0.680341
v -0.101428 0.262750 0.680341
v -0.101292 0.263510 0.680341
v -0.100555 0.263501 0.680341
v -0.100782 0.264002 0.680341
v -0.100163 0.264821 0.680341
v -0.100545 0.261817 0.680341
v -0.099539 0.262496 0.680341
v -0.099087 0.263669 0.680341
v -0.098666 0.263230 0.680341
v -0.098489 0.264284 0.680341
v -0.097928 0.264020 0.680341
v -0.097497 0.265658 0.680341
v -0.097324 0.264866 0.680341
v -0.097349 0.265835 0.680341
v -0.097196 0.265894 0.680341
v -0.097065 0.265357 0.680341
v -0.097033 0.265842 0.680341
v -0.096978 0.265685 0.680341
v -0.104464 0.257030 0.680341
v -0.104450 0.258068 0.680341
v -0.104058 0.257550 0.680341
v -0.104167 0.257904 0.680341
v -0.103873 0.257980 0.680341
v -0.103676 0.257777 0.680341
v -0.103555 0.258207 0.680341
v -0.103439 0.257650 0.680341
v -0.102848 0.259115 0.680341
v -0.103330 0.257413 0.680341
v -0.103239 0.257504 0.680341
v -0.102639 0.258118 0.680341
v -0.102020 0.258978 0.680341
vn 0 0 -1
vn 0 0 1
usemtl material_0_2
f 1//1 2//1 3//1
f 3//2 2//2 1//2
f 2//1 1//1 4//1
f 4//2 1//2 2//2
f 2//1 4//1 5//1
f 5//2 4//2 2//2
f 5//1 4//1 6//1
f 6//2 4//2 5//2
f 5//1 6//1 7//1
f 7//2 6//2 5//2
f 7//1 6//1 8//1
f 8//2 6//2 7//2
f 8//1 6//1 9//1
f 9//2 6//2 8//2
f 9//1 6//1 10//1
f 10//2 6//2 9//2
f 9//1 10//1 11//1
f 11//2 10//2 9//2
f 11//1 10//1 12//1
f 12//2 10//2 11//2
f 12//1 10//1 13//1
f 13//2 10//2 12//2
f 12//1 13//1 14//1
f 14//2 13//2 12//2
f 15//1 16//1 17//1
f 17//2 16//2 15//2
f 18//1 19//1 20//1
f 20//2 19//2 18//2
f 19//1 18//1 21//1
f 21//2 18//2 19//2
f 19//1 21//1 22//1
f 22//2 21//2 19//2
f 22//1 21//1 23//1
f 23//2 21//2 22//2
f 23//1 21//1 24//1
f 24//2 21//2 23//2
f 24//1 21//1 25//1
f 25//2 21//2 24//2
f 24//1 25//1 26//1
f 26//2 25//2 24//2
f 26//1 25//1 27//1
f 27//2 25//2 26//2
f 27//1 25//1 28//1
f 28//2 25//2 27//2
f 27//1 28//1 29//1
f 29//2 28//2 27//2
f 29//1 28//1 30//1
f 30//2 28//2 29//2
f 29//1 30//1 31//1
f 31//2 30//2 29//2
f 31//1 30//1 32//1
f 32//2 30//2 31//2
f 32//1 30//1 33//1
f 33//2 30//2 32//2
f 32//1 33//1 34//1
f 34//2 33//2 32//2
f 34//1 33//1 35//1
f 35//2 33//2 34//2
f 36//1 37//1 38//1
f 38//2 37//2 36//2
f 37//1 36//1 39//1
f 39//2 36//2 37//2
f 39//1 36//1 40//1
f 40//2 36//2 39//2
f 39//1 40//1 41//1
f 41//2 40//2 39//2
f 42//1 43//1 15//1
f 15//2 43//2 42//2
f 43//1 42//1 44//1
f 44//2 42//2 43//2
f 44//1 42//1 35//1
f 35//2 42//2 44//2
f 44//1 35//1 45//1
f 45//2 35//2 44//2
f 45//1 35//1 33//1
f 33//2 35//2 45//2
f 45//1 33//1 37//1
f 37//2 33//2 45//2
f 37//1 33//1 38//1
f 38//2 33//2 37//2
f 45//1 37//1 46//1
f 46//2 37//2 45//2
f 24//1 47//1 23//1
f 23//2 47//2 24//2
f 47//1 24//1 48//1
f 48//2 24//2 47//2
f 47//1 48//1 49//1
f 49//2 48//2 47//2
f 47//1 49//1 50//1
f 50//2 49//2 47//2
f 50//1 49//1 51//1
f 51//2 49//2 50//2
f 50//1 51//1 52//1
f 52//2 51//2 50//2
f 52//1 51//1 53//1
f 53//2 51//2 52//2
f 52//1 53//1 54//1
f 54//2 53//2 52//2
f 52//1 54//1 55//1
f 55//2 54//2 52//2
f 55//1 54//1 43//1
f 43//2 54//2 55//2
f 55//1 43//1 56//1
f 56//2 43//2 55//2
f 43//1 54//1 16//1
f 16//2 54//2 43//2
f 43//1 16//1 15//1
f 15//2 16//2 43//2
f 56//1 43//1 57//1
f 57//2 43//2 56//2
f 56//1 57//1 58//1
f 58//2 57//2 56//2
f 58//1 57//1 59//1
f 59//2 57//2 58//2
f 58//1 59//1 60//1
f 60//2 59//2 58//2
f 60//1 59//1 61//1
f 61//2 59//2 60//2
f 60//1 61//1 62//1
f 62//2 61//2 60//2
f 62//1 61//1 63//1
f 63//2 61//2 62//2
f 62//1 63//1 64//1
f 64//2 63//2 62//2
f 62//1 64//1 65//1
f 65//2 64//2 62//2
f 65//1 64//1 66//1
f 66//2 64//2 65//2
f 65//1 66//1 67//1
f 67//2 66//2 65//2
f 7//1 68//1 5//1
f 5//2 68//2 7//2
f 68//1 7//1 69//1
f 69//2 7//2 68//2
f 68//1 69//1 70//1
f 70//2 69//2 68//2
f 70//1 69//1 71//1
f 71//2 69//2 70//2
f 70//1 71//1 72//1
f 72//2 71//2 70//2
f 70//1 72//1 73//1
f 73//2 72//2 70//2
f 73//1 72//1 74//1
f 74//2 72//2 73//2
f 73//1 74//1 75//1
f 75//2 74//2 73//2
f 75//1 74//1 76//1
f 76//2 74//2 75//2
f 75//1 76//1 77//1
f 77//2 76//2 75//2
f 77//1 76//1 78//1
f 78//2 76//2 77//2
f 78//1 76//1 79//1
f 79//2 76//2 78//2
f 79//1 76//1 14//1
f 14//2 76//2 79//2
f 79//1 14//1 80//1
f 80//2 14//2 79//2
f 80//1 14//1 55//1
f 55//2 14//2 80//2
f 55//1 14//1 13//1
f 13//2 14//2 55//2
f 55//1 13//1 52//1
f 52//2 13//2 55//2
