# SSTK version 0.8.0
# 28
mtllib original-28.mtl
o #ID40
v 0.068480 0.206019 -0.352649
v 0.067709 0.206014 -0.362180
v 0.067958 0.206016 -0.363906
v 0.066014 0.206004 -0.351461
v 0.066961 0.206010 -0.360548
v 0.065789 0.206003 -0.359120
v 0.063357 0.205988 -0.350725
v 0.064268 0.205993 -0.358006
v 0.062507 0.205983 -0.357287
v 0.060612 0.205971 -0.350480
v 0.060612 0.205971 -0.357047
v 0.057863 0.205954 -0.350725
v 0.058712 0.205959 -0.357287
v 0.056952 0.205949 -0.358006
v 0.055210 0.205938 -0.351461
v 0.055435 0.205939 -0.359120
v 0.054267 0.205932 -0.360548
v 0.052751 0.205923 -0.352649
v 0.053523 0.205928 -0.362180
v 0.053274 0.205926 -0.363906
v 0.074722 0.206057 -0.361087
v 0.074751 0.206057 -0.366843
v 0.075014 0.206059 -0.363863
v 0.073961 0.206053 -0.369599
v 0.073847 0.206052 -0.358519
v 0.072681 0.206045 -0.372069
v 0.072465 0.206043 -0.356220
v 0.070948 0.206034 -0.374189
v 0.070653 0.206032 -0.354249
v 0.068819 0.206021 -0.375908
v 0.067711 0.206014 -0.365995
v 0.066351 0.206006 -0.377175
v 0.066970 0.206010 -0.367873
v 0.065806 0.206003 -0.369454
v 0.063597 0.205989 -0.377955
v 0.064294 0.205993 -0.370647
v 0.062530 0.205983 -0.371397
v 0.060612 0.205971 -0.378215
v 0.060612 0.205971 -0.371647
v 0.058689 0.205959 -0.371396
v 0.057626 0.205953 -0.377955
v 0.056926 0.205948 -0.370643
v 0.054869 0.205936 -0.377175
v 0.055418 0.205939 -0.369447
v 0.054259 0.205932 -0.367869
v 0.052401 0.205921 -0.375911
v 0.053521 0.205928 -0.365994
v 0.050580 0.205910 -0.354249
v 0.050281 0.205908 -0.374202
v 0.048768 0.205899 -0.356220
v 0.048556 0.205897 -0.372088
v 0.047386 0.205890 -0.358519
v 0.047276 0.205889 -0.369611
v 0.046510 0.205885 -0.361087
v 0.046483 0.205885 -0.366846
v 0.046219 0.205883 -0.363863
vn 0.006113955524208948 -0.9999813095992586 0
vn -0.006113955524208948 0.9999813095992586 0
usemtl material_0_2
f 1//1 2//1 3//1
f 3//2 2//2 1//2
f 2//1 1//1 4//1
f 4//2 1//2 2//2
f 2//1 4//1 5//1
f 5//2 4//2 2//2
f 5//1 4//1 6//1
f 6//2 4//2 5//2
f 6//1 4//1 7//1
f 7//2 4//2 6//2
f 6//1 7//1 8//1
f 8//2 7//2 6//2
f 8//1 7//1 9//1
f 9//2 7//2 8//2
f 9//1 7//1 10//1
f 10//2 7//2 9//2
f 9//1 10//1 11//1
f 11//2 10//2 9//2
f 11//1 10//1 12//1
f 12//2 10//2 11//2
f 11//1 12//1 13//1
f 13//2 12//2 11//2
f 13//1 12//1 14//1
f 14//2 12//2 13//2
f 14//1 12//1 15//1
f 15//2 12//2 14//2
f 14//1 15//1 16//1
f 16//2 15//2 14//2
f 16//1 15//1 17//1
f 17//2 15//2 16//2
f 17//1 15//1 18//1
f 18//2 15//2 17//2
f 17//1 18//1 19//1
f 19//2 18//2 17//2
f 19//1 18//1 20//1
f 20//2 18//2 19//2
f 21//1 22//1 23//1
f 23//2 22//2 21//2
f 22//1 21//1 24//1
f 24//2 21//2 22//2
f 24//1 21//1 25//1
f 25//2 21//2 24//2
f 24//1 25//1 26//1
f 26//2 25//2 24//2
f 26//1 25//1 27//1
f 27//2 25//2 26//2
f 26//1 27//1 28//1
f 28//2 27//2 26//2
f 28//1 27//1 29//1
f 29//2 27//2 28//2
f 28//1 29//1 30//1
f 30//2 29//2 28//2
f 30//1 29//1 1//1
f 1//2 29//2 30//2
f 30//1 1//1 3//1
f 3//2 1//2 30//2
f 30//1 3//1 31//1
f 31//2 3//2 30//2
f 30//1 31//1 32//1
f 32//2 31//2 30//2
f 32//1 31//1 33//1
f 33//2 31//2 32//2
f 32//1 33//1 34//1
f 34//2 33//2 32//2
f 32//1 34//1 35//1
f 35//2 34//2 32//2
f 35//1 34//1 36//1
f 36//2 34//2 35//2
f 35//1 36//1 37//1
f 37//2 36//2 35//2
f 35//1 37//1 38//1
f 38//2 37//2 35//2
f 38//1 37//1 39//1
f 39//2 37//2 38//2
f 38//1 39//1 40//1
f 40//2 39//2 38//2
f 38//1 40//1 41//1
f 41//2 40//2 38//2
f 41//1 40//1 42//1
f 42//2 40//2 41//2
f 41//1 42//1 43//1
f 43//2 42//2 41//2
f 43//1 42//1 44//1
f 44//2 42//2 43//2
f 43//1 44//1 45//1
f 45//2 44//2 43//2
f 43//1 45//1 46//1
f 46//2 45//2 43//2
f 46//1 45//1 47//1
f 47//2 45//2 46//2
f 46//1 47//1 20//1
f 20//2 47//2 46//2
f 46//1 20//1 18//1
f 18//2 20//2 46//2
f 46//1 18//1 48//1
f 48//2 18//2 46//2
f 46//1 48//1 49//1
f 49//2 48//2 46//2
f 49//1 48//1 50//1
f 50//2 48//2 49//2
f 49//1 50//1 51//1
f 51//2 50//2 49//2
f 51//1 50//1 52//1
f 52//2 50//2 51//2
f 51//1 52//1 53//1
f 53//2 52//2 51//2
f 53//1 52//1 54//1
f 54//2 52//2 53//2
f 53//1 54//1 55//1
f 55//2 54//2 53//2
f 55//1 54//1 56//1
f 56//2 54//2 55//2
