# SSTK version 0.8.0
# 104
mtllib original-104.mtl
o #ID519
v -0.046855 0.282262 0.680471
v -0.046728 0.280213 0.680471
v -0.046810 0.279239 0.680471
v -0.046182 0.282808 0.680471
v -0.046481 0.281126 0.680471
v -0.046293 0.281541 0.680471
v -0.046058 0.281904 0.680471
v -0.045420 0.283199 0.680471
v -0.045778 0.282216 0.680471
v -0.045450 0.282475 0.680471
v -0.044704 0.282825 0.680471
v -0.044568 0.283434 0.680471
v -0.043865 0.282942 0.680471
v -0.043627 0.283512 0.680471
v -0.043097 0.282846 0.680471
v -0.042756 0.283443 0.680471
v -0.042410 0.282558 0.680471
v -0.041979 0.283236 0.680471
v -0.041814 0.282049 0.680471
v -0.041295 0.282890 0.680471
v -0.041323 0.281289 0.680471
v -0.041131 0.280818 0.680471
v -0.040705 0.282407 0.680471
v -0.040993 0.280289 0.680471
v -0.040883 0.279060 0.680471
v -0.040842 0.275972 0.680471
v -0.040307 0.276651 0.680471
v -0.040230 0.281803 0.680471
v -0.039924 0.277443 0.680471
v -0.039890 0.281095 0.680471
v -0.039695 0.278348 0.680471
v -0.039686 0.280282 0.680471
v -0.039619 0.279366 0.680471
v -0.048032 0.279994 0.680471
v -0.048043 0.278084 0.680471
v -0.048111 0.279064 0.680471
v -0.047839 0.277223 0.680471
v -0.047797 0.280837 0.680471
v -0.047498 0.276480 0.680471
v -0.047404 0.281593 0.680471
v -0.047021 0.275857 0.680471
v -0.046757 0.278319 0.680471
v -0.046428 0.275363 0.680471
v -0.046596 0.277522 0.680471
v -0.046328 0.276847 0.680471
v -0.045736 0.275010 0.680471
v -0.045952 0.276294 0.680471
v -0.045495 0.275864 0.680471
v -0.044947 0.274799 0.680471
v -0.044980 0.275556 0.680471
v -0.044409 0.275372 0.680471
v -0.044061 0.274728 0.680471
v -0.043782 0.275310 0.680471
v -0.043111 0.274806 0.680471
v -0.042964 0.275425 0.680471
v -0.042258 0.275039 0.680471
v -0.042243 0.275768 0.680471
v -0.041502 0.275428 0.680471
v -0.041928 0.276023 0.680471
v -0.041654 0.276332 0.680471
v -0.041228 0.277108 0.680471
v -0.040970 0.278037 0.680471
vn 0 0 -1
vn 0 0 1
usemtl material_0_2
f 1//1 2//1 3//1
f 3//2 2//2 1//2
f 2//1 1//1 4//1
f 4//2 1//2 2//2
f 2//1 4//1 5//1
f 5//2 4//2 2//2
f 5//1 4//1 6//1
f 6//2 4//2 5//2
f 6//1 4//1 7//1
f 7//2 4//2 6//2
f 7//1 4//1 8//1
f 8//2 4//2 7//2
f 7//1 8//1 9//1
f 9//2 8//2 7//2
f 9//1 8//1 10//1
f 10//2 8//2 9//2
f 10//1 8//1 11//1
f 11//2 8//2 10//2
f 11//1 8//1 12//1
f 12//2 8//2 11//2
f 11//1 12//1 13//1
f 13//2 12//2 11//2
f 13//1 12//1 14//1
f 14//2 12//2 13//2
f 13//1 14//1 15//1
f 15//2 14//2 13//2
f 15//1 14//1 16//1
f 16//2 14//2 15//2
f 15//1 16//1 17//1
f 17//2 16//2 15//2
f 17//1 16//1 18//1
f 18//2 16//2 17//2
f 17//1 18//1 19//1
f 19//2 18//2 17//2
f 19//1 18//1 20//1
f 20//2 18//2 19//2
f 19//1 20//1 21//1
f 21//2 20//2 19//2
f 21//1 20//1 22//1
f 22//2 20//2 21//2
f 22//1 20//1 23//1
f 23//2 20//2 22//2
f 22//1 23//1 24//1
f 24//2 23//2 22//2
f 24//1 23//1 25//1
f 25//2 23//2 24//2
f 25//1 23//1 26//1
f 26//2 23//2 25//2
f 26//1 23//1 27//1
f 27//2 23//2 26//2
f 27//1 23//1 28//1
f 28//2 23//2 27//2
f 27//1 28//1 29//1
f 29//2 28//2 27//2
f 29//1 28//1 30//1
f 30//2 28//2 29//2
f 29//1 30//1 31//1
f 31//2 30//2 29//2
f 31//1 30//1 32//1
f 32//2 30//2 31//2
f 31//1 32//1 33//1
f 33//2 32//2 31//2
f 34//1 35//1 36//1
f 36//2 35//2 34//2
f 35//1 34//1 37//1
f 37//2 34//2 35//2
f 37//1 34//1 38//1
f 38//2 34//2 37//2
f 37//1 38//1 39//1
f 39//2 38//2 37//2
f 39//1 38//1 40//1
f 40//2 38//2 39//2
f 39//1 40//1 41//1
f 41//2 40//2 39//2
f 41//1 40//1 1//1
f 1//2 40//2 41//2
f 41//1 1//1 3//1
f 3//2 1//2 41//2
f 41//1 3//1 42//1
f 42//2 3//2 41//2
f 41//1 42//1 43//1
f 43//2 42//2 41//2
f 43//1 42//1 44//1
f 44//2 42//2 43//2
f 43//1 44//1 45//1
f 45//2 44//2 43//2
f 43//1 45//1 46//1
f 46//2 45//2 43//2
f 46//1 45//1 47//1
f 47//2 45//2 46//2
f 46//1 47//1 48//1
f 48//2 47//2 46//2
f 46//1 48//1 49//1
f 49//2 48//2 46//2
f 49//1 48//1 50//1
f 50//2 48//2 49//2
f 49//1 50//1 51//1
f 51//2 50//2 49//2
f 49//1 51//1 52//1
f 52//2 51//2 49//2
f 52//1 51//1 53//1
f 53//2 51//2 52//2
f 52//1 53//1 54//1
f 54//2 53//2 52//2
f 54//1 53//1 55//1
f 55//2 53//2 54//2
f 54//1 55//1 56//1
f 56//2 55//2 54//2
f 56//1 55//1 57//1
f 57//2 55//2 56//2
f 56//1 57//1 58//1
f 58//2 57//2 56//2
f 58//1 57//1 59//1
f 59//2 57//2 58//2
f 58//1 59//1 60//1
f 60//2 59//2 58//2
f 58//1 60//1 61//1
f 61//2 60//2 58//2
f 58//1 61//1 26//1
f 26//2 61//2 58//2
f 26//1 61//1 62//1
f 62//2 61//2 26//2
f 26//1 62//1 25//1
f 25//2 62//2 26//2
