# SSTK version 0.8.0
# 69
mtllib original-69.mtl
o #ID319
v 0.018283 0.225652 0.680471
v 0.009836 0.223746 0.680471
v 0.009836 0.225652 0.680471
v 0.012908 0.223746 0.680471
v 0.015204 0.223746 0.680471
v 0.012908 0.215370 0.680471
v 0.018283 0.223746 0.680471
v 0.015204 0.215370 0.680471
v 0.015204 0.223746 0.680471
v 0.012908 0.215370 0.680471
v 0.015204 0.215370 0.680471
v 0.018283 0.223746 0.680471
v 0.018283 0.225652 0.680471
v 0.012908 0.223746 0.680471
v 0.009836 0.223746 0.680471
v 0.009836 0.225652 0.680471
vn 0 0 -1
vn 0 0 1
usemtl material_0_0
f 1//1 2//1 3//1
f 2//1 1//1 4//1
f 4//1 1//1 5//1
f 4//1 5//1 6//1
f 5//1 1//1 7//1
f 8//1 6//1 5//1
f 9//2 10//2 11//2
f 12//2 13//2 9//2
f 10//2 9//2 14//2
f 9//2 13//2 14//2
f 14//2 13//2 15//2
f 16//2 15//2 13//2
