# SSTK version 0.8.0
# 222
mtllib original-222.mtl
o #ID1136
v 0.371277 0.281975 -0.077358
v 0.371360 0.274825 -0.077746
v 0.371328 0.272736 -0.077487
v 0.371571 0.282488 -0.079298
v 0.371473 0.276447 -0.078521
v 0.371651 0.277489 -0.079708
v 0.371902 0.282659 -0.081473
v 0.371878 0.277836 -0.081204
v 0.372031 0.277684 -0.082208
v 0.372144 0.282561 -0.083055
v 0.372172 0.277229 -0.083118
v 0.372364 0.282265 -0.084493
v 0.372246 0.274363 -0.083540
v 0.372386 0.273865 -0.084451
v 0.372563 0.273699 -0.085605
v 0.372564 0.281773 -0.085788
v 0.372776 0.273931 -0.087004
v 0.372742 0.281084 -0.086940
v 0.372889 0.280242 -0.087885
v 0.372944 0.274629 -0.088121
v 0.372995 0.279294 -0.088560
v 0.373052 0.275706 -0.088854
v 0.373060 0.278239 -0.088964
v 0.373085 0.277078 -0.089099
v 0.372153 0.275127 -0.082949
v 0.372120 0.276090 -0.082753
v 0.370429 0.274728 -0.071642
v 0.370443 0.270311 -0.071635
v 0.370411 0.272511 -0.071472
v 0.370525 0.268345 -0.072127
v 0.370500 0.276702 -0.072150
v 0.370656 0.266614 -0.072948
v 0.370623 0.278433 -0.072997
v 0.370837 0.265119 -0.074097
v 0.370799 0.279923 -0.074181
v 0.371059 0.263913 -0.075524
v 0.371019 0.281120 -0.075652
v 0.371314 0.263052 -0.077176
v 0.371377 0.270577 -0.077759
v 0.371602 0.262536 -0.079054
v 0.371507 0.268893 -0.078574
v 0.371599 0.268260 -0.079163
v 0.371923 0.262363 -0.081157
v 0.371704 0.267808 -0.079841
v 0.371822 0.267537 -0.080608
v 0.371953 0.267447 -0.081464
v 0.372177 0.262482 -0.082824
v 0.372083 0.267573 -0.082323
v 0.372194 0.267952 -0.083060
v 0.372412 0.262839 -0.084369
v 0.372286 0.268583 -0.083675
v 0.372358 0.269466 -0.084168
v 0.372491 0.271066 -0.085070
v 0.372627 0.263432 -0.085792
v 0.372592 0.271409 -0.085746
v 0.372741 0.271524 -0.086722
v 0.372822 0.264264 -0.087093
v 0.372918 0.271329 -0.087877
v 0.372984 0.265257 -0.088178
v 0.373059 0.270744 -0.088787
v 0.373099 0.266335 -0.088953
v 0.373152 0.269856 -0.089377
v 0.373166 0.267499 -0.089418
v 0.373186 0.268749 -0.089574
vn -0.9885557680140977 -0.003370638077551744 -0.15081820952725603
vn 0.9885557680140977 0.003370638077551744 0.15081820952725603
usemtl material_0_2
f 1//1 2//1 3//1
f 3//2 2//2 1//2
f 2//1 1//1 4//1
f 4//2 1//2 2//2
f 2//1 4//1 5//1
f 5//2 4//2 2//2
f 5//1 4//1 6//1
f 6//2 4//2 5//2
f 6//1 4//1 7//1
f 7//2 4//2 6//2
f 6//1 7//1 8//1
f 8//2 7//2 6//2
f 8//1 7//1 9//1
f 9//2 7//2 8//2
f 9//1 7//1 10//1
f 10//2 7//2 9//2
f 9//1 10//1 11//1
f 11//2 10//2 9//2
f 11//1 10//1 12//1
f 12//2 10//2 11//2
f 11//1 12//1 13//1
f 13//2 12//2 11//2
f 13//1 12//1 14//1
f 14//2 12//2 13//2
f 14//1 12//1 15//1
f 15//2 12//2 14//2
f 15//1 12//1 16//1
f 16//2 12//2 15//2
f 15//1 16//1 17//1
f 17//2 16//2 15//2
f 17//1 16//1 18//1
f 18//2 16//2 17//2
f 17//1 18//1 19//1
f 19//2 18//2 17//2
f 17//1 19//1 20//1
f 20//2 19//2 17//2
f 20//1 19//1 21//1
f 21//2 19//2 20//2
f 20//1 21//1 22//1
f 22//2 21//2 20//2
f 22//1 21//1 23//1
f 23//2 21//2 22//2
f 22//1 23//1 24//1
f 24//2 23//2 22//2
f 11//1 25//1 26//1
f 26//2 25//2 11//2
f 25//1 11//1 13//1
f 13//2 11//2 25//2
f 27//1 28//1 29//1
f 29//2 28//2 27//2
f 28//1 27//1 30//1
f 30//2 27//2 28//2
f 30//1 27//1 31//1
f 31//2 27//2 30//2
f 30//1 31//1 32//1
f 32//2 31//2 30//2
f 32//1 31//1 33//1
f 33//2 31//2 32//2
f 32//1 33//1 34//1
f 34//2 33//2 32//2
f 34//1 33//1 35//1
f 35//2 33//2 34//2
f 34//1 35//1 36//1
f 36//2 35//2 34//2
f 36//1 35//1 37//1
f 37//2 35//2 36//2
f 36//1 37//1 38//1
f 38//2 37//2 36//2
f 38//1 37//1 1//1
f 1//2 37//2 38//2
f 38//1 1//1 3//1
f 3//2 1//2 38//2
f 38//1 3//1 39//1
f 39//2 3//2 38//2
f 38//1 39//1 40//1
f 40//2 39//2 38//2
f 40//1 39//1 41//1
f 41//2 39//2 40//2
f 40//1 41//1 42//1
f 42//2 41//2 40//2
f 40//1 42//1 43//1
f 43//2 42//2 40//2
f 43//1 42//1 44//1
f 44//2 42//2 43//2
f 43//1 44//1 45//1
f 45//2 44//2 43//2
f 43//1 45//1 46//1
f 46//2 45//2 43//2
f 43//1 46//1 47//1
f 47//2 46//2 43//2
f 47//1 46//1 48//1
f 48//2 46//2 47//2
f 47//1 48//1 49//1
f 49//2 48//2 47//2
f 47//1 49//1 50//1
f 50//2 49//2 47//2
f 50//1 49//1 51//1
f 51//2 49//2 50//2
f 50//1 51//1 52//1
f 52//2 51//2 50//2
f 50//1 52//1 53//1
f 53//2 52//2 50//2
f 50//1 53//1 54//1
f 54//2 53//2 50//2
f 54//1 53//1 55//1
f 55//2 53//2 54//2
f 54//1 55//1 56//1
f 56//2 55//2 54//2
f 54//1 56//1 57//1
f 57//2 56//2 54//2
f 57//1 56//1 58//1
f 58//2 56//2 57//2
f 57//1 58//1 59//1
f 59//2 58//2 57//2
f 59//1 58//1 60//1
f 60//2 58//2 59//2
f 59//1 60//1 61//1
f 61//2 60//2 59//2
f 61//1 60//1 62//1
f 62//2 60//2 61//2
f 61//1 62//1 63//1
f 63//2 62//2 61//2
f 63//1 62//1 64//1
f 64//2 62//2 63//2
