# SSTK version 0.8.0
# 96
mtllib original-96.mtl
o #ID471
v -0.028994 0.290217 0.680471
v -0.029309 0.289795 0.680471
v -0.029309 0.290145 0.680471
v -0.027486 0.289860 0.680471
v -0.028431 0.290337 0.680471
v -0.028169 0.290448 0.680471
v -0.028074 0.290632 0.680471
v -0.027990 0.292699 0.680471
v -0.027961 0.295704 0.680471
v -0.021571 0.298157 0.680471
v -0.021235 0.295517 0.680471
v -0.021256 0.292604 0.680471
v -0.021208 0.297135 0.680471
v -0.021125 0.297491 0.680471
v -0.021018 0.297598 0.680471
v -0.019896 0.298222 0.680471
v -0.020134 0.297818 0.680471
v -0.019896 0.297872 0.680471
v -0.023251 0.297872 0.680471
v -0.023251 0.298222 0.680471
v -0.022972 0.297806 0.680471
v -0.022144 0.297592 0.680471
v -0.022007 0.297420 0.680471
v -0.021951 0.296227 0.680471
v -0.021897 0.292990 0.680471
v -0.021583 0.289617 0.680471
v -0.021197 0.289795 0.680471
v -0.028415 0.298157 0.680471
v -0.029600 0.297872 0.680471
v -0.029600 0.298222 0.680471
v -0.029279 0.297806 0.680471
v -0.028157 0.297560 0.680471
v -0.027165 0.298222 0.680471
v -0.028002 0.297361 0.680471
v -0.027308 0.296602 0.680471
v -0.024059 0.292694 0.680471
v -0.025478 0.296114 0.680471
v -0.021903 0.291784 0.680471
v -0.027106 0.290448 0.680471
v -0.025953 0.289795 0.680471
v -0.027213 0.290632 0.680471
v -0.027278 0.293092 0.680471
v -0.026819 0.290326 0.680471
v -0.026221 0.290199 0.680471
v -0.025953 0.290145 0.680471
vn 0 0 -1
vn 0 0 1
usemtl material_0_2
f 1//1 2//1 3//1
f 3//2 2//2 1//2
f 2//1 1//1 4//1
f 4//2 1//2 2//2
f 4//1 1//1 5//1
f 5//2 1//2 4//2
f 4//1 5//1 6//1
f 6//2 5//2 4//2
f 4//1 6//1 7//1
f 7//2 6//2 4//2
f 4//1 7//1 8//1
f 8//2 7//2 4//2
f 4//1 8//1 9//1
f 9//2 8//2 4//2
f 10//1 11//1 12//1
f 12//2 11//2 10//2
f 11//1 10//1 13//1
f 13//2 10//2 11//2
f 13//1 10//1 14//1
f 14//2 10//2 13//2
f 14//1 10//1 15//1
f 15//2 10//2 14//2
f 15//1 10//1 16//1
f 16//2 10//2 15//2
f 15//1 16//1 17//1
f 17//2 16//2 15//2
f 17//1 16//1 18//1
f 18//2 16//2 17//2
f 10//1 19//1 20//1
f 20//2 19//2 10//2
f 19//1 10//1 21//1
f 21//2 10//2 19//2
f 21//1 10//1 22//1
f 22//2 10//2 21//2
f 22//1 10//1 23//1
f 23//2 10//2 22//2
f 23//1 10//1 24//1
f 24//2 10//2 23//2
f 24//1 10//1 25//1
f 25//2 10//2 24//2
f 25//1 10//1 26//1
f 26//2 10//2 25//2
f 26//1 10//1 27//1
f 27//2 10//2 26//2
f 27//1 10//1 12//1
f 12//2 10//2 27//2
f 28//1 29//1 30//1
f 30//2 29//2 28//2
f 29//1 28//1 31//1
f 31//2 28//2 29//2
f 31//1 28//1 32//1
f 32//2 28//2 31//2
f 32//1 28//1 33//1
f 33//2 28//2 32//2
f 32//1 33//1 34//1
f 34//2 33//2 32//2
f 34//1 33//1 9//1
f 9//2 33//2 34//2
f 9//1 33//1 35//1
f 35//2 33//2 9//2
f 9//1 35//1 4//1
f 4//2 35//2 9//2
f 35//1 33//1 36//1
f 36//2 33//2 35//2
f 36//1 33//1 37//1
f 37//2 33//2 36//2
f 36//1 37//1 38//1
f 38//2 37//2 36//2
f 36//1 38//1 26//1
f 26//2 38//2 36//2
f 26//1 38//1 25//1
f 25//2 38//2 26//2
f 4//1 39//1 40//1
f 40//2 39//2 4//2
f 39//1 4//1 41//1
f 41//2 4//2 39//2
f 41//1 4//1 42//1
f 42//2 4//2 41//2
f 42//1 4//1 35//1
f 35//2 4//2 42//2
f 40//1 39//1 43//1
f 43//2 39//2 40//2
f 40//1 43//1 44//1
f 44//2 43//2 40//2
f 40//1 44//1 45//1
f 45//2 44//2 40//2
