# SSTK version 0.8.0
# 210
mtllib original-210.mtl
o #ID1091
v -0.200338 -0.535659 0.510728
v -0.200338 -0.531023 0.523466
v -0.200338 -0.535659 0.536204
v -0.200338 -0.560748 0.540627
v -0.200338 -0.547398 0.542981
v -0.200338 -0.569461 0.530244
v -0.200338 -0.569461 0.516688
v -0.200338 -0.560748 0.506304
v -0.200338 -0.547398 0.503951
v -0.159823 -0.450710 0.529426
v -0.200338 -0.535659 0.510728
v -0.200338 -0.535659 0.536204
v -0.159823 -0.450710 0.503951
v 0.019896 -0.450710 0.529426
v -0.159823 -0.450710 0.503951
v -0.159823 -0.450710 0.529426
v 0.019896 -0.450710 0.503951
vn 1 0 0
vn -1 0 0
vn -0.9026012168003003 0.43047769214050746 0
vn 0.9026012168003003 -0.43047769214050746 0
vn 0 1 0
vn 0 -1 0
usemtl material_0_2
f 1//1 2//1 3//1
f 3//2 2//2 1//2
f 4//1 3//1 5//1
f 5//2 3//2 4//2
f 3//1 4//1 6//1
f 6//2 4//2 3//2
f 3//1 6//1 1//1
f 1//2 6//2 3//2
f 1//1 6//1 7//1
f 7//2 6//2 1//2
f 1//1 7//1 8//1
f 8//2 7//2 1//2
f 1//1 8//1 9//1
f 9//2 8//2 1//2
f 10//3 11//3 12//3
f 12//4 11//4 10//4
f 11//3 10//3 13//3
f 13//4 10//4 11//4
f 14//5 15//5 16//5
f 16//6 15//6 14//6
f 15//5 14//5 17//5
f 17//6 14//6 15//6
