# SSTK version 0.8.0
# 5
mtllib original-5.mtl
o #ID1201
v -0.347509 0.386410 -0.436935
v -0.253598 0.211058 -0.422336
v -0.348065 -0.066712 -0.398376
v -0.261187 0.386399 -0.437229
v -0.261187 0.386399 -0.437229
v -0.347509 0.386410 -0.436935
v -0.253598 0.211058 -0.422336
v -0.348065 -0.066712 -0.398376
v 0.019531 0.213224 -0.423232
v 0.019531 -0.066751 -0.399409
v 0.019531 0.213224 -0.423232
v 0.019531 -0.066751 -0.399409
v -0.014082 0.213237 -0.423118
v -0.014082 0.213237 -0.423118
v 0.370883 -0.066712 -0.398376
v 0.276416 0.211058 -0.422336
v 0.276416 0.211058 -0.422336
v 0.370883 -0.066712 -0.398376
v 0.101879 0.213237 -0.423118
v 0.101879 0.213237 -0.423118
v 0.370327 0.386410 -0.436935
v 0.284005 0.386399 -0.437229
v 0.284005 0.386399 -0.437229
v 0.370327 0.386410 -0.436935
vt -1253.857 63.33443
vt -1254.579 61.98025
vt -1253.852 59.83514
vt -1254.521 63.33435
vt -1264.304 62.78266
vt -1263.64 62.78275
vt -1264.362 61.42857
vt -1263.635 59.28345
vt -1252.434 60.19925
vt -1255.263 62.36111
vt -1255.263 60.19897
vt -1253.162 62.34441
vt -1251.165 62.7954
vt -1250.438 60.6499
vt -1253.266 62.81311
vt -1253.267 60.65097
vt -1256.346 -141.7895
vt -1256.605 -141.7896
vt -1254.503 -141.8063
vt -1253.008 62.81308
vt -1255.97 60.65125
vt -1255.243 62.7964
vt -1256.973 383.9595
vt -1258.316 383.9423
vt -1256.339 383.9594
vt -1254.118 62.70861
vt -1254.841 64.06279
vt -1254.846 60.56349
vt -1254.176 64.0627
vn -0.0034119818515195364 -0.08478465631039485 -0.9963934566395811
vn -0.003135986966376988 -0.0848066790907307 -0.9963924893170103
vn -0.002874907954504808 -0.08487470865686421 -0.9963874842322465
vn 0.0034119818515195364 0.08478465631039485 0.9963934566395811
vn 0.003135986966376988 0.0848066790907307 0.9963924893170103
vn 0.002874907954504808 0.08487470865686421 0.9963874842322465
vn 0.00006583011089890132 -0.08506369116153303 -0.9963755136053736
vn 0.00007175289133879409 -0.08488657158384731 -0.9963906185910539
vn -0.00006583011089890132 0.08506369116153303 0.9963755136053736
vn -0.00007175289133879409 0.08488657158384731 0.9963906185910539
vn -0.003387448016648424 0.013027170064025366 -0.9999094049142939
vn 0.003387448016648424 -0.013027170064025366 0.9999094049142939
vn 0.0029886449216912497 -0.08485563777660451 -0.9963887738925293
vn 0.003192767144595752 -0.08495885384766194 -0.9963793451245625
vn -0.003192767144595752 0.08495885384766194 0.9963793451245625
vn -0.0029886449216912497 0.08485563777660451 0.9963887738925293
vn 0.0013811760320358308 -0.2384234055301362 -0.9711603225256787
vn -0.0013811760320358308 0.2384234055301362 0.9711603225256787
vn 0.0034119818515195364 -0.08478465631039485 -0.9963934566395811
vn -0.0034119818515195364 0.08478465631039485 0.9963934566395811
usemtl material_0_0
f 1/1/1 2/2/2 3/3/3
f 2/2/2 1/1/1 4/4/1
f 5/5/4 6/6/4 7/7/5
f 8/8/6 7/7/5 6/6/4
f 3/9/3 9/10/7 10/11/8
f 9/10/7 3/9/3 2/12/2
f 7/13/5 8/14/6 11/15/9
f 12/16/10 11/15/9 8/14/6
f 13/17/11 9/18/7 2/19/2
f 7/13/5 11/15/9 14/20/12
f 9/15/7 15/21/13 10/16/8
f 15/21/13 9/15/7 16/22/14
f 17/22/15 11/15/9 18/21/16
f 12/16/10 18/21/16 11/15/9
f 19/23/17 16/24/14 9/25/7
f 11/25/9 17/24/15 20/23/18
f 16/26/14 21/27/19 15/28/13
f 21/27/19 16/26/14 22/29/19
f 23/29/20 17/26/15 24/27/20
f 18/28/16 24/27/20 17/26/15
