# SSTK version 0.8.0
# 18
mtllib original-18.mtl
o Knife1/ID58#ID58
v -0.004476 0.008565 0.280575
v -0.016495 0.007752 0.275207
v -0.004476 0.007752 0.280575
v -0.016495 0.008565 0.275207
v -0.016495 0.008565 0.275207
v -0.004476 0.008565 0.280575
v -0.016495 0.007752 0.275207
v -0.004476 0.007752 0.280575
v -0.005349 0.00874 0.257065
v -0.004476 0.008565 0.280575
v 0.001595 0.00874 0.260167
v -0.016495 0.008565 0.275207
v -0.016495 0.008565 0.275207
v -0.005349 0.00874 0.257065
v -0.004476 0.008565 0.280575
v 0.001595 0.00874 0.260167
v -0.026715 0.007752 0.266911
v -0.026715 0.008565 0.266911
v -0.026715 0.008565 0.266911
v -0.026715 0.007752 0.266911
v -0.004476 0.007752 0.280575
v -0.005349 0.007577 0.257065
v 0.001595 0.007577 0.260167
v -0.016495 0.007752 0.275207
v -0.016495 0.007752 0.275207
v -0.004476 0.007752 0.280575
v -0.005349 0.007577 0.257065
v 0.001595 0.007577 0.260167
v 0.008522 0.008565 0.282649
v 0.008522 0.007752 0.282649
v 0.008522 0.008565 0.282649
v 0.008522 0.007752 0.282649
v 0.008522 0.008565 0.282649
v 0.009105 0.00874 0.261365
v 0.008522 0.008565 0.282649
v 0.009105 0.00874 0.261365
v -0.005349 0.00874 0.257065
v 0.001595 0.007577 0.260167
v -0.005349 0.007577 0.257065
v 0.001595 0.00874 0.260167
v 0.001595 0.00874 0.260167
v -0.005349 0.00874 0.257065
v 0.001595 0.007577 0.260167
v -0.005349 0.007577 0.257065
v -0.011253 0.00874 0.252273
v -0.026715 0.008565 0.266911
v -0.026715 0.008565 0.266911
v -0.011253 0.00874 0.252273
v -0.03444 0.008565 0.256253
v -0.03444 0.007752 0.256253
v -0.03444 0.008565 0.256253
v -0.03444 0.007752 0.256253
v -0.011253 0.007577 0.252273
v -0.026715 0.007752 0.266911
v -0.026715 0.007752 0.266911
v -0.011253 0.007577 0.252273
v 0.008522 0.007752 0.282649
v 0.009105 0.007577 0.261365
v 0.008522 0.007752 0.282649
v 0.009105 0.007577 0.261365
v 0.021615 0.008565 0.281288
v 0.021615 0.007752 0.281288
v 0.021615 0.008565 0.281288
v 0.021615 0.007752 0.281288
v 0.016669 0.00874 0.260579
v 0.021615 0.008565 0.281288
v 0.016669 0.00874 0.260579
v 0.021615 0.008565 0.281288
v 0.009105 0.007577 0.261365
v 0.009105 0.00874 0.261365
v 0.009105 0.00874 0.261365
v 0.009105 0.007577 0.261365
v -0.011253 0.00874 0.252273
v -0.011253 0.007577 0.252273
v -0.011253 0.00874 0.252273
v -0.011253 0.007577 0.252273
v -0.015716 0.00874 0.246115
v -0.03444 0.008565 0.256253
v -0.03444 0.008565 0.256253
v -0.015716 0.00874 0.246115
v -0.039143 0.008565 0.243958
v -0.039143 0.007752 0.243958
v -0.039143 0.008565 0.243958
v -0.039143 0.007752 0.243958
v -0.015716 0.007577 0.246115
v -0.03444 0.007752 0.256253
v -0.03444 0.007752 0.256253
v -0.015716 0.007577 0.246115
v 0.016669 0.007577 0.260579
v 0.021615 0.007752 0.281288
v 0.016669 0.007577 0.260579
v 0.021615 0.007752 0.281288
v 0.03391 0.008565 0.276585
v 0.03391 0.007752 0.276585
v 0.03391 0.008565 0.276585
v 0.03391 0.007752 0.276585
v 0.023772 0.00874 0.257862
v 0.03391 0.008565 0.276585
v 0.023772 0.00874 0.257862
v 0.03391 0.008565 0.276585
v 0.016669 0.007577 0.260579
v 0.016669 0.00874 0.260579
v 0.016669 0.00874 0.260579
v 0.016669 0.007577 0.260579
v -0.015716 0.007577 0.246115
v -0.015716 0.00874 0.246115
v -0.015716 0.007577 0.246115
v -0.015716 0.00874 0.246115
v -0.018433 0.00874 0.239012
v -0.039143 0.008565 0.243958
v -0.039143 0.008565 0.243958
v -0.018433 0.00874 0.239012
v -0.040503 0.008565 0.230866
v -0.040503 0.007752 0.230866
v -0.040503 0.008565 0.230866
v -0.040503 0.007752 0.230866
v -0.018433 0.007577 0.239012
v -0.039143 0.007752 0.243958
v -0.039143 0.007752 0.243958
v -0.018433 0.007577 0.239012
v 0.023772 0.007577 0.257862
v 0.03391 0.007752 0.276585
v 0.023772 0.007577 0.257862
v 0.03391 0.007752 0.276585
v 0.044568 0.008565 0.268861
v 0.044568 0.007752 0.268861
v 0.044568 0.008565 0.268861
v 0.044568 0.007752 0.268861
v 0.029929 0.00874 0.253399
v 0.044568 0.008565 0.268861
v 0.029929 0.00874 0.253399
v 0.044568 0.008565 0.268861
v 0.023772 0.007577 0.257862
v 0.023772 0.00874 0.257862
v 0.023772 0.00874 0.257862
v 0.023772 0.007577 0.257862
v -0.018433 0.007577 0.239012
v -0.018433 0.00874 0.239012
v -0.018433 0.007577 0.239012
v -0.018433 0.00874 0.239012
v -0.019219 0.00874 0.231448
v -0.040503 0.008565 0.230866
v -0.040503 0.008565 0.230866
v -0.019219 0.00874 0.231448
v -0.038429 0.008565 0.217867
v -0.038429 0.007752 0.217867
v -0.038429 0.008565 0.217867
v -0.038429 0.007752 0.217867
v -0.019219 0.007577 0.231448
v -0.040503 0.007752 0.230866
v -0.040503 0.007752 0.230866
v -0.019219 0.007577 0.231448
v 0.029929 0.007577 0.253399
v 0.044568 0.007752 0.268861
v 0.029929 0.007577 0.253399
v 0.044568 0.007752 0.268861
v 0.052864 0.007752 0.258641
v 0.052864 0.008565 0.258641
v 0.052864 0.007752 0.258641
v 0.052864 0.008565 0.258641
v 0.034722 0.00874 0.247495
v 0.052864 0.008565 0.258641
v 0.034722 0.00874 0.247495
v 0.052864 0.008565 0.258641
v 0.029929 0.007577 0.253399
v 0.029929 0.00874 0.253399
v 0.029929 0.00874 0.253399
v 0.029929 0.007577 0.253399
v -0.019219 0.007577 0.231448
v -0.019219 0.00874 0.231448
v -0.019219 0.007577 0.231448
v -0.019219 0.00874 0.231448
v -0.038429 0.008565 0.217867
v -0.018021 0.00874 0.223938
v -0.038429 0.008565 0.217867
v -0.018021 0.00874 0.223938
v -0.033061 0.008565 0.205848
v -0.033061 0.007752 0.205848
v -0.033061 0.008565 0.205848
v -0.033061 0.007752 0.205848
v -0.038429 0.007752 0.217867
v -0.018021 0.007577 0.223938
v -0.038429 0.007752 0.217867
v -0.018021 0.007577 0.223938
v 0.034722 0.007577 0.247495
v 0.052864 0.007752 0.258641
v 0.034722 0.007577 0.247495
v 0.052864 0.007752 0.258641
v 0.058231 0.007752 0.246622
v 0.058231 0.008565 0.246622
v 0.058231 0.007752 0.246622
v 0.058231 0.008565 0.246622
v 0.037823 0.00874 0.240551
v 0.058231 0.008565 0.246622
v 0.037823 0.00874 0.240551
v 0.058231 0.008565 0.246622
v 0.034722 0.00874 0.247495
v 0.034722 0.007577 0.247495
v 0.034722 0.00874 0.247495
v 0.034722 0.007577 0.247495
v -0.018021 0.007577 0.223938
v -0.018021 0.00874 0.223938
v -0.018021 0.007577 0.223938
v -0.018021 0.00874 0.223938
v -0.033061 0.008565 0.205848
v -0.01492 0.00874 0.216994
v -0.033061 0.008565 0.205848
v -0.01492 0.00874 0.216994
v -0.024765 0.008565 0.195628
v -0.024765 0.007752 0.195628
v -0.024765 0.008565 0.195628
v -0.024765 0.007752 0.195628
v -0.033061 0.007752 0.205848
v -0.01492 0.007577 0.216994
v -0.033061 0.007752 0.205848
v -0.01492 0.007577 0.216994
v 0.037823 0.007577 0.240551
v 0.058231 0.007752 0.246622
v 0.037823 0.007577 0.240551
v 0.058231 0.007752 0.246622
v 0.060306 0.007752 0.233623
v 0.060306 0.008565 0.233623
v 0.060306 0.007752 0.233623
v 0.060306 0.008565 0.233623
v 0.039022 0.00874 0.233041
v 0.060306 0.008565 0.233623
v 0.039022 0.00874 0.233041
v 0.060306 0.008565 0.233623
v 0.037823 0.00874 0.240551
v 0.037823 0.007577 0.240551
v 0.037823 0.00874 0.240551
v 0.037823 0.007577 0.240551
v -0.01492 0.007577 0.216994
v -0.01492 0.00874 0.216994
v -0.01492 0.007577 0.216994
v -0.01492 0.00874 0.216994
v -0.024765 0.008565 0.195628
v -0.010127 0.00874 0.21109
v -0.024765 0.008565 0.195628
v -0.010127 0.00874 0.21109
v -0.014107 0.007752 0.187903
v -0.014107 0.008565 0.187903
v -0.014107 0.008565 0.187903
v -0.014107 0.007752 0.187903
v -0.024765 0.007752 0.195628
v -0.010127 0.007577 0.21109
v -0.024765 0.007752 0.195628
v -0.010127 0.007577 0.21109
v 0.039022 0.007577 0.233041
v 0.060306 0.007752 0.233623
v 0.039022 0.007577 0.233041
v 0.060306 0.007752 0.233623
v 0.058945 0.007752 0.220531
v 0.058945 0.008565 0.220531
v 0.058945 0.007752 0.220531
v 0.058945 0.008565 0.220531
v 0.058945 0.008565 0.220531
v 0.038236 0.00874 0.225477
v 0.038236 0.00874 0.225477
v 0.058945 0.008565 0.220531
v 0.039022 0.00874 0.233041
v 0.039022 0.007577 0.233041
v 0.039022 0.00874 0.233041
v 0.039022 0.007577 0.233041
v -0.010127 0.007577 0.21109
v -0.010127 0.00874 0.21109
v -0.010127 0.007577 0.21109
v -0.010127 0.00874 0.21109
v -0.014107 0.008565 0.187903
v -0.003969 0.00874 0.206627
v -0.014107 0.008565 0.187903
v -0.003969 0.00874 0.206627
v -0.001813 0.007752 0.183201
v -0.001813 0.008565 0.183201
v -0.001813 0.008565 0.183201
v -0.001813 0.007752 0.183201
v -0.014107 0.007752 0.187903
v -0.003969 0.007577 0.206627
v -0.014107 0.007752 0.187903
v -0.003969 0.007577 0.206627
v 0.058945 0.007752 0.220531
v 0.038236 0.007577 0.225477
v 0.038236 0.007577 0.225477
v 0.058945 0.007752 0.220531
v 0.054242 0.007752 0.208236
v 0.054242 0.008565 0.208236
v 0.054242 0.007752 0.208236
v 0.054242 0.008565 0.208236
v 0.054242 0.008565 0.208236
v 0.035519 0.00874 0.218374
v 0.035519 0.00874 0.218374
v 0.054242 0.008565 0.208236
v 0.038236 0.00874 0.225477
v 0.038236 0.007577 0.225477
v 0.038236 0.00874 0.225477
v 0.038236 0.007577 0.225477
v -0.003969 0.00874 0.206627
v -0.003969 0.007577 0.206627
v -0.003969 0.00874 0.206627
v -0.003969 0.007577 0.206627
v -0.001813 0.008565 0.183201
v 0.003134 0.00874 0.20391
v -0.001813 0.008565 0.183201
v 0.003134 0.00874 0.20391
v 0.01128 0.007752 0.18184
v 0.01128 0.008565 0.18184
v 0.01128 0.008565 0.18184
v 0.01128 0.007752 0.18184
v -0.001813 0.007752 0.183201
v 0.003134 0.007577 0.20391
v -0.001813 0.007752 0.183201
v 0.003134 0.007577 0.20391
v 0.054242 0.007752 0.208236
v 0.035519 0.007577 0.218374
v 0.035519 0.007577 0.218374
v 0.054242 0.007752 0.208236
v 0.046518 0.007752 0.197578
v 0.046518 0.008565 0.197578
v 0.046518 0.007752 0.197578
v 0.046518 0.008565 0.197578
v 0.046518 0.008565 0.197578
v 0.031056 0.00874 0.212216
v 0.031056 0.00874 0.212216
v 0.046518 0.008565 0.197578
v 0.035519 0.00874 0.218374
v 0.035519 0.007577 0.218374
v 0.035519 0.00874 0.218374
v 0.035519 0.007577 0.218374
v 0.003134 0.00874 0.20391
v 0.003134 0.007577 0.20391
v 0.003134 0.00874 0.20391
v 0.003134 0.007577 0.20391
v 0.010698 0.00874 0.203124
v 0.01128 0.008565 0.18184
v 0.010698 0.00874 0.203124
v 0.01128 0.008565 0.18184
v 0.024279 0.007752 0.183914
v 0.024279 0.008565 0.183914
v 0.024279 0.008565 0.183914
v 0.024279 0.007752 0.183914
v 0.010698 0.007577 0.203124
v 0.01128 0.007752 0.18184
v 0.010698 0.007577 0.203124
v 0.01128 0.007752 0.18184
v 0.046518 0.007752 0.197578
v 0.031056 0.007577 0.212216
v 0.031056 0.007577 0.212216
v 0.046518 0.007752 0.197578
v 0.036298 0.008565 0.189282
v 0.036298 0.007752 0.189282
v 0.036298 0.008565 0.189282
v 0.036298 0.007752 0.189282
v 0.036298 0.008565 0.189282
v 0.025151 0.00874 0.207424
v 0.025151 0.00874 0.207424
v 0.036298 0.008565 0.189282
v 0.031056 0.00874 0.212216
v 0.031056 0.007577 0.212216
v 0.031056 0.00874 0.212216
v 0.031056 0.007577 0.212216
v 0.010698 0.00874 0.203124
v 0.010698 0.007577 0.203124
v 0.010698 0.00874 0.203124
v 0.010698 0.007577 0.203124
v 0.018208 0.00874 0.204322
v 0.024279 0.008565 0.183914
v 0.018208 0.00874 0.204322
v 0.024279 0.008565 0.183914
v 0.018208 0.007577 0.204322
v 0.024279 0.007752 0.183914
v 0.018208 0.007577 0.204322
v 0.024279 0.007752 0.183914
v 0.036298 0.007752 0.189282
v 0.025151 0.007577 0.207424
v 0.025151 0.007577 0.207424
v 0.036298 0.007752 0.189282
v 0.025151 0.007577 0.207424
v 0.025151 0.00874 0.207424
v 0.025151 0.00874 0.207424
v 0.025151 0.007577 0.207424
v 0.018208 0.00874 0.204322
v 0.018208 0.007577 0.204322
v 0.018208 0.00874 0.204322
v 0.018208 0.007577 0.204322
vn -0.28513499084948224 0.0 0.9584873692403388
vn -0.5234940997923561 0.0 0.8520292996620425
vn 0.5234940997923561 0.0 -0.8520292996620425
vn 0.28513499084948224 0.0 -0.9584873692403388
vn -0.00429802397949133 0.9999662952285098 0.006995383966620482
vn -0.002341033988819666 0.9999662952243508 0.007869432962417097
vn 0.00429802397949133 -0.9999662952285098 -0.006995383966620482
vn 0.002341033988819666 -0.9999662952243508 -0.007869432962417097
vn -0.726177870954331 0.0 0.6875068725010939
vn 0.726177870954331 0.0 -0.6875068725010939
vn -0.002341033988819666 -0.9999662952243508 0.007869432962417069
vn -0.00429802397949133 -0.9999662952285098 0.0069953839666204555
vn 0.00429802397949133 0.9999662952285098 -0.0069953839666204555
vn 0.002341033988819666 0.9999662952243508 -0.007869432962417069
vn -0.027344529136977543 0.0 0.9996260684507368
vn 0.027344529136977543 0.0 -0.9996260684507368
vn -0.00022450569892921735 0.9999662952306485 0.008207191960855712
vn 0.00022450569892921735 -0.9999662952306485 -0.008207191960855712
vn -0.00596211097153719 0.9999662952262125 0.005644611973052927
vn 0.00596211097153719 -0.9999662952262125 -0.005644611973052927
vn -0.8793738169057683 0.0 0.4761320091535332
vn 0.8793738169057683 0.0 -0.4761320091535332
vn -0.00596211097153719 -0.9999662952262125 0.0056446119730529
vn 0.00596211097153719 0.9999662952262125 -0.0056446119730529
vn -0.00022450569892921735 -0.9999662952306485 0.008207191960855684
vn 0.00022450569892921735 0.9999662952306485 -0.008207191960855684
vn 0.2323095035513317 0.0 0.9726419148688452
vn -0.2323095035513317 0.0 -0.9726419148688452
vn 0.0019073219909030586 0.9999662952306769 0.007985644961912609
vn -0.0019073219909030586 -0.9999662952306769 -0.007985644961912609
vn -0.007219889965554791 0.9999662952292836 0.0039091679813498545
vn 0.007219889965554791 -0.9999662952292836 -0.0039091679813498545
vn -0.9726419148688452 0.0 0.2323095035513317
vn 0.9726419148688452 0.0 -0.2323095035513317
vn -0.007219889965554791 -0.9999662952292836 0.003909167981349826
vn 0.007219889965554791 0.9999662952292836 -0.003909167981349826
vn 0.0019073219909030586 -0.9999662952306769 0.007985644961912581
vn -0.0019073219909030586 0.9999662952306769 -0.007985644961912581
vn 0.4761320091535332 0.0 0.8793738169057683
vn -0.4761320091535332 0.0 -0.8793738169057683
vn 0.00390916798134984 0.9999662952292836 0.007219889965554804
vn -0.00390916798134984 -0.9999662952292836 -0.007219889965554804
vn -0.007985644961912595 0.9999662952306769 0.0019073219909030723
vn 0.007985644961912595 -0.9999662952306769 -0.0019073219909030723
vn -0.9996260684507368 0.0 -0.027344529136977543
vn 0.9996260684507368 0.0 0.027344529136977543
vn -0.007985644961912595 -0.9999662952306769 0.0019073219909030447
vn 0.007985644961912595 0.9999662952306769 -0.0019073219909030447
vn 0.00390916798134984 -0.9999662952292836 0.007219889965554777
vn -0.00390916798134984 0.9999662952292836 -0.007219889965554777
vn 0.6875068725010939 0.0 0.726177870954331
vn -0.6875068725010939 0.0 -0.726177870954331
vn 0.005644611973052913 0.9999662952262125 0.005962110971537203
vn -0.005644611973052913 -0.9999662952262125 -0.005962110971537203
vn -0.008207191960855698 0.9999662952306485 -0.00022450569892920347
vn 0.008207191960855698 -0.9999662952306485 0.00022450569892920347
vn -0.9584873692403388 0.0 -0.28513499084948224
vn 0.9584873692403388 0.0 0.28513499084948224
vn -0.008207191960855698 -0.9999662952306485 -0.00022450569892923123
vn 0.008207191960855698 0.9999662952306485 0.00022450569892923123
vn 0.005644611973052913 -0.9999662952262125 0.005962110971537176
vn -0.005644611973052913 0.9999662952262125 -0.005962110971537176
vn 0.8520292996620425 0.0 0.5234940997923561
vn -0.8520292996620425 0.0 -0.5234940997923561
vn 0.006995383966620469 0.9999662952285098 0.004298023979491344
vn -0.006995383966620469 -0.9999662952285098 -0.004298023979491344
vn -0.007869432962417083 0.9999662952243508 -0.002341033988819652
vn 0.007869432962417083 -0.9999662952243508 0.002341033988819652
vn -0.007869432962417083 -0.9999662952243508 -0.00234103398881968
vn 0.007869432962417083 0.9999662952243508 0.00234103398881968
vn 0.006995383966620469 -0.9999662952285098 0.004298023979491316
vn -0.006995383966620469 0.9999662952285098 -0.004298023979491316
usemtl material_0_0
f 1//1 2//2 3//1
f 2//2 1//1 4//2
f 5//3 6//4 7//3
f 8//4 7//3 6//4
f 9//5 10//6 11//6
f 10//6 9//5 12//5
f 13//7 14//7 15//8
f 16//8 15//8 14//7
f 4//2 17//9 2//2
f 17//9 4//2 18//9
f 19//10 5//3 20//10
f 7//3 20//10 5//3
f 21//11 22//12 23//11
f 22//12 21//11 24//12
f 25//13 26//14 27//13
f 28//14 27//13 26//14
f 29//15 3//1 30//15
f 3//1 29//15 1//1
f 6//4 31//16 8//4
f 32//16 8//4 31//16
f 11//6 33//17 34//17
f 33//17 11//6 10//6
f 15//8 16//8 35//18
f 36//18 35//18 16//8
f 37//3 38//4 39//3
f 38//4 37//3 40//4
f 41//1 42//2 43//1
f 44//2 43//1 42//2
f 45//19 12//5 9//5
f 12//5 45//19 46//19
f 47//20 48//20 13//7
f 14//7 13//7 48//20
f 17//9 49//21 50//21
f 49//21 17//9 18//9
f 19//10 20//10 51//22
f 52//22 51//22 20//10
f 24//12 53//23 22//12
f 53//23 24//12 54//23
f 55//24 25//13 56//24
f 27//13 56//24 25//13
f 57//25 23//11 58//25
f 23//11 57//25 21//11
f 26//14 59//26 28//14
f 60//26 28//14 59//26
f 61//27 30//15 62//27
f 30//15 61//27 29//15
f 31//16 63//28 32//16
f 64//28 32//16 63//28
f 65//29 33//17 66//29
f 33//17 65//29 34//17
f 36//18 67//30 35//18
f 68//30 35//18 67//30
f 40//4 69//16 38//4
f 69//16 40//4 70//16
f 71//15 41//1 72//15
f 43//1 72//15 41//1
f 73//10 39//3 74//10
f 39//3 73//10 37//3
f 42//2 75//9 44//2
f 76//9 44//2 75//9
f 77//31 46//19 45//19
f 46//19 77//31 78//31
f 79//32 80//32 47//20
f 48//20 47//20 80//32
f 50//21 81//33 82//33
f 81//33 50//21 49//21
f 51//22 52//22 83//34
f 84//34 83//34 52//22
f 54//23 85//35 53//23
f 85//35 54//23 86//35
f 87//36 55//24 88//36
f 56//24 88//36 55//24
f 57//25 89//37 90//37
f 89//37 57//25 58//25
f 60//26 59//26 91//38
f 92//38 91//38 59//26
f 93//39 62//27 94//39
f 62//27 93//39 61//27
f 63//28 95//40 64//28
f 96//40 64//28 95//40
f 97//41 66//29 98//41
f 66//29 97//41 65//29
f 67//30 99//42 68//30
f 100//42 68//30 99//42
f 70//16 101//28 69//16
f 101//28 70//16 102//28
f 103//27 71//15 104//27
f 72//15 104//27 71//15
f 73//10 105//22 106//22
f 105//22 73//10 74//10
f 76//9 75//9 107//21
f 108//21 107//21 75//9
f 109//43 78//31 77//31
f 78//31 109//43 110//43
f 111//44 112//44 79//32
f 80//32 79//32 112//44
f 82//33 113//45 114//45
f 113//45 82//33 81//33
f 83//34 84//34 115//46
f 116//46 115//46 84//34
f 86//35 117//47 85//35
f 117//47 86//35 118//47
f 119//48 87//36 120//48
f 88//36 120//48 87//36
f 90//37 121//49 122//49
f 121//49 90//37 89//37
f 91//38 92//38 123//50
f 124//50 123//50 92//38
f 125//51 94//39 126//51
f 94//39 125//51 93//39
f 95//40 127//52 96//40
f 128//52 96//40 127//52
f 129//53 98//41 130//53
f 98//41 129//53 97//41
f 99//42 131//54 100//42
f 132//54 100//42 131//54
f 102//28 133//40 101//28
f 133//40 102//28 134//40
f 135//39 103//27 136//39
f 104//27 136//39 103//27
f 106//22 137//34 138//34
f 137//34 106//22 105//22
f 107//21 108//21 139//33
f 140//33 139//33 108//21
f 141//55 110//43 109//43
f 110//43 141//55 142//55
f 143//56 144//56 111//44
f 112//44 111//44 144//56
f 114//45 145//57 146//57
f 145//57 114//45 113//45
f 115//46 116//46 147//58
f 148//58 147//58 116//46
f 118//47 149//59 117//47
f 149//59 118//47 150//59
f 151//60 119//48 152//60
f 120//48 152//60 119//48
f 122//49 153//61 154//61
f 153//61 122//49 121//49
f 123//50 124//50 155//62
f 156//62 155//62 124//50
f 125//51 157//63 158//63
f 157//63 125//51 126//51
f 128//52 127//52 159//64
f 160//64 159//64 127//52
f 161//65 130//53 162//65
f 130//53 161//65 129//53
f 131//54 163//66 132//54
f 164//66 132//54 163//66
f 134//40 165//52 133//40
f 165//52 134//40 166//52
f 167//51 135//39 168//51
f 136//39 168//51 135//39
f 138//34 169//46 170//46
f 169//46 138//34 137//34
f 139//33 140//33 171//45
f 172//45 171//45 140//33
f 173//67 141//55 174//67
f 141//55 173//67 142//55
f 143//56 175//68 144//56
f 176//68 144//56 175//68
f 146//57 177//64 178//64
f 177//64 146//57 145//57
f 147//58 148//58 179//63
f 180//63 179//63 148//58
f 149//59 181//69 182//69
f 181//69 149//59 150//59
f 151//60 152//60 183//70
f 184//70 183//70 152//60
f 154//61 185//71 186//71
f 185//71 154//61 153//61
f 155//62 156//62 187//72
f 188//72 187//72 156//62
f 158//63 189//58 190//58
f 189//58 158//63 157//63
f 159//64 160//64 191//57
f 192//57 191//57 160//64
f 193//70 162//65 194//70
f 162//65 193//70 161//65
f 163//66 195//69 164//66
f 196//69 164//66 195//69
f 165//52 197//64 198//64
f 197//64 165//52 166//52
f 167//51 168//51 199//63
f 200//63 199//63 168//51
f 170//46 201//58 202//58
f 201//58 170//46 169//46
f 171//45 172//45 203//57
f 204//57 203//57 172//45
f 205//72 174//67 206//72
f 174//67 205//72 173//67
f 175//68 207//71 176//68
f 208//71 176//68 207//71
f 178//64 209//52 210//52
f 209//52 178//64 177//64
f 179//63 180//63 211//51
f 212//51 211//51 180//63
f 182//69 213//66 214//66
f 213//66 182//69 181//69
f 183//70 184//70 215//65
f 216//65 215//65 184//70
f 186//71 217//68 218//68
f 217//68 186//71 185//71
f 187//72 188//72 219//67
f 220//67 219//67 188//72
f 190//58 221//46 222//46
f 221//46 190//58 189//58
f 191//57 192//57 223//45
f 224//45 223//45 192//57
f 225//60 194//70 226//60
f 194//70 225//60 193//70
f 195//69 227//59 196//69
f 228//59 196//69 227//59
f 198//64 229//57 230//57
f 229//57 198//64 197//64
f 199//63 200//63 231//58
f 232//58 231//58 200//63
f 202//58 233//63 234//63
f 233//63 202//58 201//58
f 203//57 204//57 235//64
f 236//64 235//64 204//57
f 237//62 206//72 238//62
f 206//72 237//62 205//72
f 207//71 239//61 208//71
f 240//61 208//71 239//61
f 209//52 241//40 210//52
f 241//40 209//52 242//40
f 243//39 211//51 244//39
f 212//51 244//39 211//51
f 214//66 245//54 246//54
f 245//54 214//66 213//66
f 215//65 216//65 247//53
f 248//53 247//53 216//65
f 218//68 249//56 250//56
f 249//56 218//68 217//68
f 219//67 220//67 251//55
f 252//55 251//55 220//67
f 222//46 253//34 254//34
f 253//34 222//46 221//46
f 223//45 224//45 255//33
f 256//33 255//33 224//45
f 257//48 225//60 226//60
f 225//60 257//48 258//48
f 259//47 260//47 227//59
f 228//59 227//59 260//47
f 230//57 261//45 262//45
f 261//45 230//57 229//57
f 231//58 232//58 263//46
f 264//46 263//46 232//58
f 234//63 265//51 266//51
f 265//51 234//63 233//63
f 235//64 236//64 267//52
f 268//52 267//52 236//64
f 269//50 238//62 270//50
f 238//62 269//50 237//62
f 239//61 271//49 240//61
f 272//49 240//61 271//49
f 242//40 273//28 241//40
f 273//28 242//40 274//28
f 275//27 243//39 276//27
f 244//39 276//27 243//39
f 246//54 277//42 278//42
f 277//42 246//54 245//54
f 247//53 248//53 279//41
f 280//41 279//41 248//53
f 249//56 281//44 250//56
f 281//44 249//56 282//44
f 283//43 251//55 284//43
f 252//55 284//43 251//55
f 254//34 285//22 286//22
f 285//22 254//34 253//34
f 255//33 256//33 287//21
f 288//21 287//21 256//33
f 289//36 258//48 257//48
f 258//48 289//36 290//36
f 291//35 292//35 259//47
f 260//47 259//47 292//35
f 262//45 293//33 294//33
f 293//33 262//45 261//45
f 263//46 264//46 295//34
f 296//34 295//34 264//46
f 297//39 265//51 298//39
f 265//51 297//39 266//51
f 268//52 299//40 267//52
f 300//40 267//52 299//40
f 301//38 270//50 302//38
f 270//50 301//38 269//50
f 271//49 303//37 272//49
f 304//37 272//49 303//37
f 274//28 305//16 273//28
f 305//16 274//28 306//16
f 307//15 275//27 308//15
f 276//27 308//15 275//27
f 278//42 309//30 310//30
f 309//30 278//42 277//42
f 279//41 280//41 311//29
f 312//29 311//29 280//41
f 282//44 313//32 281//44
f 313//32 282//44 314//32
f 315//31 283//43 316//31
f 284//43 316//31 283//43
f 286//22 317//10 318//10
f 317//10 286//22 285//22
f 287//21 288//21 319//9
f 320//9 319//9 288//21
f 321//24 290//36 289//36
f 290//36 321//24 322//24
f 323//23 324//23 291//35
f 292//35 291//35 324//23
f 294//33 325//21 326//21
f 325//21 294//33 293//33
f 295//34 296//34 327//22
f 328//22 327//22 296//34
f 329//27 298//39 330//27
f 298//39 329//27 297//39
f 299//40 331//28 300//40
f 332//28 300//40 331//28
f 301//38 333//26 334//26
f 333//26 301//38 302//38
f 304//37 303//37 335//25
f 336//25 335//25 303//37
f 306//16 337//4 305//16
f 337//4 306//16 338//4
f 339//1 307//15 340//1
f 308//15 340//1 307//15
f 341//18 309//30 342//18
f 309//30 341//18 310//30
f 312//29 343//17 311//29
f 344//17 311//29 343//17
f 314//32 345//20 313//32
f 345//20 314//32 346//20
f 347//19 315//31 348//19
f 316//31 348//19 315//31
f 349//3 317//10 350//3
f 317//10 349//3 318//10
f 320//9 351//2 319//9
f 352//2 319//9 351//2
f 353//13 322//24 321//24
f 322//24 353//13 354//13
f 355//12 356//12 323//23
f 324//23 323//23 356//12
f 326//21 357//9 358//9
f 357//9 326//21 325//21
f 327//22 328//22 359//10
f 360//10 359//10 328//22
f 361//15 330//27 362//15
f 330//27 361//15 329//27
f 331//28 363//16 332//28
f 364//16 332//28 363//16
f 334//26 365//14 366//14
f 365//14 334//26 333//26
f 335//25 336//25 367//11
f 368//11 367//11 336//25
f 338//4 350//3 337//4
f 350//3 338//4 349//3
f 351//2 339//1 352//2
f 340//1 352//2 339//1
f 369//8 342//18 370//8
f 342//18 369//8 341//18
f 343//17 371//6 344//17
f 372//6 344//17 371//6
f 346//20 373//7 345//20
f 373//7 346//20 374//7
f 375//5 347//19 376//5
f 348//19 376//5 347//19
f 366//14 354//13 353//13
f 354//13 366//14 365//14
f 367//11 368//11 355//12
f 356//12 355//12 368//11
f 357//9 377//2 358//9
f 377//2 357//9 378//2
f 379//3 359//10 380//3
f 360//10 380//3 359//10
f 381//1 362//15 382//1
f 362//15 381//1 361//15
f 363//16 383//4 364//16
f 384//4 364//16 383//4
f 374//7 370//8 373//7
f 370//8 374//7 369//8
f 371//6 375//5 372//6
f 376//5 372//6 375//5
f 378//2 382//1 377//2
f 382//1 378//2 381//1
f 383//4 379//3 384//4
f 380//3 384//4 379//3
