# SSTK version 0.8.0
# 26
mtllib original-26.mtl
o #ID114
v 0.00504 0.016886 0.212832
v 7.2e-05 -0.018878 0.214732
v 0.00504 -0.018878 0.212832
v 7.2e-05 0.016886 0.214732
v -0.004234 -0.018878 0.217853
v -0.004234 0.016886 0.217853
v 0.010329 0.016886 0.212282
v 0.010329 -0.018878 0.212282
v -0.007585 0.016886 0.221982
v -0.007585 -0.018878 0.221982
v 0.015581 0.016886 0.21312
v 0.015581 -0.018878 0.21312
v -0.009754 0.016886 0.226838
v -0.009754 -0.018878 0.226838
v 0.020437 0.016886 0.215289
v 0.020437 -0.018878 0.215289
v -0.010592 0.016886 0.232089
v -0.010592 -0.018878 0.232089
v 0.024566 0.016886 0.218641
v 0.024566 -0.018878 0.218641
v -0.010042 0.016886 0.237379
v -0.010042 -0.018878 0.237379
v 0.027686 -0.018878 0.222947
v 0.027686 0.016886 0.222947
v -0.008142 0.016886 0.242346
v -0.008142 -0.018878 0.242346
v 0.029586 -0.018878 0.227914
v 0.029586 0.016886 0.227914
v -0.005021 0.016886 0.246652
v -0.005021 -0.018878 0.246652
v 0.030136 -0.018878 0.233203
v 0.030136 0.016886 0.233203
v -0.000892 -0.018878 0.250004
v -0.000892 0.016886 0.250004
v 0.029298 -0.018878 0.238455
v 0.029298 0.016886 0.238455
v 0.003963 -0.018878 0.252172
v 0.003963 0.016886 0.252172
v 0.027129 -0.018878 0.243311
v 0.027129 0.016886 0.243311
v 0.009215 -0.018878 0.25301
v 0.009215 0.016886 0.25301
v 0.023778 -0.018878 0.24744
v 0.023778 0.016886 0.24744
v 0.014505 -0.018878 0.252461
v 0.014505 0.016886 0.252461
v 0.019472 0.016886 0.250561
v 0.019472 -0.018878 0.250561
vn 0.2323095035513317 0.0 0.9726419148688452
vn 0.47613200915353315 0.0 0.8793738169057683
vn 0.6875068725010938 0.0 0.7261778709543307
vn -0.027344529136977543 0.0 0.9996260684507368
vn 0.8520292996620425 0.0 0.5234940997923561
vn -0.28513499084948224 0.0 0.9584873692403388
vn 0.9584873692403388 0.0 0.28513499084948224
vn -0.5234940997923561 0.0 0.8520292996620425
vn 0.9996260684507368 0.0 0.027344529136977543
vn -0.7261778709543307 0.0 0.6875068725010938
vn 0.9726419148688452 0.0 -0.2323095035513317
vn -0.8793738169057683 0.0 0.47613200915353315
vn 0.8793738169057683 0.0 -0.47613200915353315
vn -0.9726419148688452 0.0 0.2323095035513317
vn 0.7261778709543307 0.0 -0.6875068725010938
vn -0.9996260684507368 0.0 -0.027344529136977543
vn 0.5234940997923561 0.0 -0.8520292996620425
vn -0.9584873692403388 0.0 -0.28513499084948224
vn 0.28513499084948224 0.0 -0.9584873692403388
vn -0.8520292996620425 0.0 -0.5234940997923561
vn 0.027344529136977543 0.0 -0.9996260684507368
vn -0.6875068725010938 0.0 -0.7261778709543307
vn -0.2323095035513317 0.0 -0.9726419148688452
vn -0.47613200915353315 0.0 -0.8793738169057683
usemtl material_0_0
f 1//1 2//2 3//1
f 2//2 1//1 4//2
f 4//2 5//3 2//2
f 5//3 4//2 6//3
f 7//4 3//1 8//4
f 3//1 7//4 1//1
f 9//5 5//3 6//3
f 5//3 9//5 10//5
f 11//6 8//4 12//6
f 8//4 11//6 7//4
f 13//7 10//5 9//5
f 10//5 13//7 14//7
f 15//8 12//6 16//8
f 12//6 15//8 11//6
f 17//9 14//7 13//7
f 14//7 17//9 18//9
f 19//10 16//8 20//10
f 16//8 19//10 15//8
f 21//11 18//9 17//9
f 18//9 21//11 22//11
f 23//12 19//10 20//10
f 19//10 23//12 24//12
f 25//13 22//11 21//11
f 22//11 25//13 26//13
f 27//14 24//12 23//12
f 24//12 27//14 28//14
f 29//15 26//13 25//13
f 26//13 29//15 30//15
f 31//16 28//14 27//14
f 28//14 31//16 32//16
f 29//15 33//17 30//15
f 33//17 29//15 34//17
f 35//18 32//16 31//16
f 32//16 35//18 36//18
f 34//17 37//19 33//17
f 37//19 34//17 38//19
f 39//20 36//18 35//18
f 36//18 39//20 40//20
f 38//19 41//21 37//19
f 41//21 38//19 42//21
f 43//22 40//20 39//20
f 40//20 43//22 44//22
f 42//21 45//23 41//21
f 45//23 42//21 46//23
f 47//24 43//22 48//24
f 43//22 47//24 44//22
f 46//23 48//24 45//23
f 48//24 46//23 47//24
