# SSTK version 0.8.0
# 25
mtllib original-25.mtl
o mesh32/mesh32-geometry#mesh32-geometry
v 0.121230 -0.629581 -0.012688
v 0.121753 -0.629581 -0.015645
v 0.121628 -0.629581 -0.016774
v 0.122273 -0.629581 -0.011694
v 0.121628 -0.629581 -0.023011
v 0.122127 -0.629581 -0.014873
v 0.120618 -0.629581 -0.011800
v 0.122706 -0.629581 -0.014430
v 0.119851 -0.629581 -0.011163
v 0.123219 -0.629581 -0.011078
v 0.118856 -0.629581 -0.010779
v 0.123443 -0.629581 -0.014282
v 0.117560 -0.629581 -0.010651
v 0.124222 -0.629581 -0.010758
v 0.116985 -0.629581 -0.023011
v 0.124078 -0.629581 -0.014438
v 0.116985 -0.629581 -0.016353
v 0.124600 -0.629581 -0.014908
v 0.116893 -0.629581 -0.015272
v 0.125436 -0.629581 -0.010651
v 0.116691 -0.629581 -0.014861
v 0.124838 -0.629581 -0.015411
v 0.116379 -0.629581 -0.014538
v 0.124918 -0.629581 -0.016125
v 0.116313 -0.629581 -0.010767
v 0.124918 -0.629581 -0.023011
v 0.115983 -0.629581 -0.014328
v 0.129561 -0.629581 -0.023011
v 0.115523 -0.629581 -0.014259
v 0.126354 -0.629581 -0.010723
v 0.115263 -0.629581 -0.011117
v 0.127166 -0.629581 -0.010940
v 0.114795 -0.629581 -0.014410
v 0.127871 -0.629581 -0.011301
v 0.114316 -0.629581 -0.011743
v 0.128470 -0.629581 -0.011806
v 0.114209 -0.629581 -0.014862
v 0.128948 -0.629581 -0.012465
v 0.113824 -0.629581 -0.015659
v 0.129289 -0.629581 -0.013287
v 0.113377 -0.629581 -0.012688
v 0.129493 -0.629581 -0.014272
v 0.113695 -0.629581 -0.016842
v 0.129561 -0.629581 -0.015420
v 0.113695 -0.629581 -0.023011
v 0.109052 -0.629581 -0.023011
v 0.113377 -0.629581 -0.010924
v 0.109052 -0.629581 -0.010924
vn 0 1 0
vn 0 -1 0
usemtl material_0_0
f 1//1 2//1 3//1
f 2//1 1//1 4//1
f 3//2 2//2 1//2
f 4//2 1//2 2//2
f 5//1 1//1 3//1
f 3//2 1//2 5//2
f 2//1 4//1 6//1
f 6//2 4//2 2//2
f 5//1 7//1 1//1
f 1//2 7//2 5//2
f 6//1 4//1 8//1
f 8//2 4//2 6//2
f 5//1 9//1 7//1
f 7//2 9//2 5//2
f 8//1 4//1 10//1
f 10//2 4//2 8//2
f 5//1 11//1 9//1
f 9//2 11//2 5//2
f 8//1 10//1 12//1
f 12//2 10//2 8//2
f 5//1 13//1 11//1
f 11//2 13//2 5//2
f 12//1 10//1 14//1
f 14//2 10//2 12//2
f 15//1 13//1 5//1
f 5//2 13//2 15//2
f 12//1 14//1 16//1
f 16//2 14//2 12//2
f 17//1 13//1 15//1
f 15//2 13//2 17//2
f 16//1 14//1 18//1
f 18//2 14//2 16//2
f 19//1 13//1 17//1
f 17//2 13//2 19//2
f 18//1 14//1 20//1
f 20//2 14//2 18//2
f 21//1 13//1 19//1
f 19//2 13//2 21//2
f 18//1 20//1 22//1
f 22//2 20//2 18//2
f 23//1 13//1 21//1
f 21//2 13//2 23//2
f 22//1 20//1 24//1
f 24//2 20//2 22//2
f 23//1 25//1 13//1
f 13//2 25//2 23//2
f 24//1 20//1 26//1
f 26//2 20//2 24//2
f 27//1 25//1 23//1
f 23//2 25//2 27//2
f 26//1 20//1 28//1
f 28//2 20//2 26//2
f 29//1 25//1 27//1
f 27//2 25//2 29//2
f 28//1 20//1 30//1
f 30//2 20//2 28//2
f 29//1 31//1 25//1
f 25//2 31//2 29//2
f 28//1 30//1 32//1
f 32//2 30//2 28//2
f 33//1 31//1 29//1
f 29//2 31//2 33//2
f 28//1 32//1 34//1
f 34//2 32//2 28//2
f 33//1 35//1 31//1
f 31//2 35//2 33//2
f 28//1 34//1 36//1
f 36//2 34//2 28//2
f 37//1 35//1 33//1
f 33//2 35//2 37//2
f 28//1 36//1 38//1
f 38//2 36//2 28//2
f 39//1 35//1 37//1
f 37//2 35//2 39//2
f 28//1 38//1 40//1
f 40//2 38//2 28//2
f 39//1 41//1 35//1
f 35//2 41//2 39//2
f 28//1 40//1 42//1
f 42//2 40//2 28//2
f 41//1 39//1 43//1
f 43//2 39//2 41//2
f 28//1 42//1 44//1
f 44//2 42//2 28//2
f 45//1 41//1 43//1
f 43//2 41//2 45//2
f 46//1 41//1 45//1
f 45//2 41//2 46//2
f 46//1 47//1 41//1
f 41//2 47//2 46//2
f 47//1 46//1 48//1
f 48//2 46//2 47//2
