# SSTK version 0.8.0
# 27
mtllib original-27.mtl
o front_rail1/front_rail/mesh54/mesh54-geometry#mesh54-geometry
v -0.508698 -0.071024 0.242219
v -0.508698 -0.032960 0.242219
v -0.508698 -0.071024 0.234607
v 0.553289 -0.071024 0.242219
v -0.508698 -0.032960 0.234607
v 0.553289 -0.032960 0.242219
v -0.527730 -0.032960 0.234607
v 0.008973 -0.032960 0.226994
v -0.508698 -0.071024 0.226994
v 0.008973 -0.032960 0.234607
v 0.553289 -0.032960 0.234607
v -0.508698 -0.032960 0.226994
v -0.527730 -0.071024 0.234607
v -0.508698 -0.071024 0.219381
v -0.527730 -0.071024 0.226994
v 0.035618 -0.032960 0.234607
v 0.553289 -0.071024 0.234607
v 0.553289 -0.032960 0.226994
v -0.527730 -0.032960 0.226994
v 0.008973 -0.048186 0.234607
v 0.553289 -0.032960 0.219381
v 0.553289 -0.071024 0.219381
v 0.572321 -0.071024 0.234607
v 0.572321 -0.032960 0.226994
v 0.008973 -0.048186 0.226994
v 0.035618 -0.032960 0.226994
v -0.508698 -0.032960 0.219381
v 0.058456 -0.055799 0.219381
v 0.035618 -0.048186 0.234607
v 0.553289 -0.071024 0.226994
v 0.572321 -0.032960 0.234607
v 0.035618 -0.048186 0.226994
v -0.501085 -0.040573 0.219381
v 0.043230 -0.055799 0.219381
v 0.545676 -0.048186 0.219381
v 0.572321 -0.071024 0.226994
v 0.515225 -0.040573 0.219381
v 0.001360 -0.055799 0.219381
v 0.043230 -0.055799 0.230800
v 0.515225 -0.048186 0.219381
v 0.545676 -0.040573 0.219381
v -0.501085 -0.048186 0.219381
v 0.058456 -0.040573 0.219381
v -0.013866 -0.055799 0.219381
v 0.043230 -0.040573 0.219381
v 0.058456 -0.055799 0.230800
v 0.515225 -0.048186 0.230800
v 0.545676 -0.040573 0.230800
v -0.470634 -0.048186 0.219381
v -0.501085 -0.048186 0.230800
v -0.470634 -0.040573 0.219381
v -0.013866 -0.055799 0.230800
v 0.001360 -0.040573 0.219381
v 0.043230 -0.040573 0.230800
v 0.058456 -0.040573 0.230800
v 0.545676 -0.048186 0.230800
v -0.501085 -0.040573 0.230800
v -0.470634 -0.040573 0.230800
v -0.013866 -0.040573 0.219381
v 0.515225 -0.040573 0.230800
v 0.001360 -0.055799 0.230800
v 0.001360 -0.040573 0.230800
v -0.470634 -0.048186 0.230800
v -0.013866 -0.040573 0.230800
vt 0 0.125
vt 0 0
vt -0.025 0.125
vt 0.0625 0.125
vt 3.55 0.125
vt 0.0625 0
vt -0.025 0
vt 0.0625 0.025
vt 3.55 0
vt -0.0625 0
vt -1.7625 0.05
vt -0.0625 0.025
vt 0.0625 0.05
vt -3.55 0
vt -1.7625 0.025
vt 0.025 0
vt -0.0625 0.05
vt 0 0.025
vt 0.0625 0.075
vt 0 0.05
vt -1.85 0.025
vt 0.025 0.125
vt -3.55 0.025
vt -3.55 0.05
vt -0.05 0.125
vt 0.025 0.05
vt 0.05 0
vt -3.55 0.075
vt 3.55 0.075
vt -0.05 0
vt -0.075 0.125
vt -0.0625 0.125
vt -1.7625 0
vt -1.85 0
vt 3.6125 0.125
vt 3.55 0.025
vt -3.6125 0.05
vt 0.05 0.05
vt -1.85 0.05
vt -0.0625 0.075
vt -1.925 0.075
vt -3.55 0.125
vt -0.075 0
vt 3.55 0.05
vt 3.6125 0.025
vt 3.6125 0
vt -3.6125 0.025
vt -3.6125 0
vt 0.05 0.125
vt 0.075 0
vt 1.7625 0.05
vt 1.85 0.05
vt 1.7625 0
vt 1.85 0
vt -0.0875 0.025
vt -1.875 0.075
vt -3.525 0.05
vt -0.025 0.05
vt -0.05 0.05
vt 3.6125 0.05
vt 0.075 0.125
vt -3.6125 0.125
vt -3.425 0.025
vt -1.7375 0.075
vt -1.875 0.0375
vt -3.425 0.05
vt -3.525 0.025
vt -0.0875 0.05
vt -1.925 0.025
vt -1.6875 0.075
vt -1.875 0.025
vt 0.075 0.075
vt 0.075 0.025
vt 0.0375 0.075
vt -1.925 0.0375
vt -3.425 0.075
vt -3.425 0.0375
vt -3.525 0.075
vt -0.075 0.025
vt -0.075 0.05
vt -0.0375 0.025
vt -0.1875 0.05
vt 0.075 0.05
vt 0.0375 0.05
vt -0.1875 0.025
vt 3.525 0.075
vt 3.525 0.0375
vt 3.425 0.075
vt -1.6875 0.0375
vt -1.7375 0.025
vt 0.0375 0.025
vt -0.0375 0.075
vt -0.075 0.075
vt -3.525 0.0375
vt -0.0375 0.05
vt -0.0875 0.075
vt -0.0875 0.0375
vt -0.1875 0.075
vt 0.1875 0.075
vt 0.1875 0.0375
vt 0.0875 0.075
vt -1.6875 0.025
vt 3.425 0.0375
vt -1.7375 0.0375
vt 1.875 0.0375
vt 1.875 0.075
vt 1.925 0.0375
vt 1.925 0.075
vt -0.1875 0.0375
vt 0.0875 0.0375
vt 1.7375 0.075
vt 1.7375 0.0375
vt 1.6875 0.075
vt 1.6875 0.0375
vn -1 0 0
vn 1 0 0
vn 0 0 1
vn 0 0 -1
vn 0 -1 0
vn 0 1 0
usemtl material_0_0
f 1/1/1 2/2/1 3/3/1
f 3/3/2 2/2/2 1/1/2
f 1/4/3 4/5/3 2/6/3
f 2/6/4 4/5/4 1/4/4
f 5/7/1 3/3/1 2/2/1
f 2/2/2 3/3/2 5/7/2
f 1/6/5 3/8/5 4/9/5
f 4/9/6 3/8/6 1/6/6
f 6/9/3 2/6/3 4/5/3
f 4/5/4 2/6/4 6/9/4
f 5/6/3 7/2/3 3/4/3
f 3/4/4 7/2/4 5/6/4
f 2/10/6 8/11/6 5/12/6
f 5/12/5 8/11/5 2/10/5
f 9/13/5 4/9/5 3/8/5
f 3/8/6 4/9/6 9/13/6
f 6/14/6 10/15/6 2/10/6
f 2/10/5 10/15/5 6/14/5
f 6/2/2 4/1/2 11/16/2
f 11/16/1 4/1/1 6/2/1
f 5/12/6 12/17/6 7/18/6
f 7/18/5 12/17/5 5/12/5
f 13/1/3 3/4/3 7/2/3
f 7/2/4 3/4/4 13/1/4
f 8/11/6 2/10/6 10/15/6
f 10/15/5 2/10/5 8/11/5
f 5/12/6 8/11/6 12/17/6
f 12/17/5 8/11/5 5/12/5
f 14/19/5 4/9/5 9/13/5
f 9/13/6 4/9/6 14/19/6
f 9/13/5 3/8/5 15/20/5
f 15/20/6 3/8/6 9/13/6
f 16/21/6 10/15/6 6/14/6
f 6/14/5 10/15/5 16/21/5
f 17/22/2 11/16/2 4/1/2
f 4/1/1 11/16/1 17/22/1
f 11/23/6 18/24/6 6/14/6
f 6/14/5 18/24/5 11/23/5
f 19/20/6 7/18/6 12/17/6
f 12/17/5 7/18/5 19/20/5
f 13/18/5 15/20/5 3/8/5
f 3/8/6 15/20/6 13/18/6
f 13/3/1 7/7/1 15/25/1
f 15/25/2 7/7/2 13/3/2
f 10/16/2 20/26/2 8/27/2
f 8/27/1 20/26/1 10/16/1
f 8/11/6 21/28/6 12/17/6
f 12/17/5 21/28/5 8/11/5
f 22/29/5 4/9/5 14/19/5
f 14/19/6 4/9/6 22/29/6
f 9/25/1 12/30/1 14/31/1
f 14/31/2 12/30/2 9/25/2
f 9/32/4 15/1/4 12/10/4
f 12/10/3 15/1/3 9/32/3
f 10/33/4 16/34/4 20/11/4
f 20/11/3 16/34/3 10/33/3
f 21/28/6 16/21/6 6/14/6
f 6/14/5 16/21/5 21/28/5
f 17/5/3 23/35/3 11/9/3
f 11/9/4 23/35/4 17/5/4
f 17/36/5 4/9/5 22/29/5
f 22/29/6 4/9/6 17/36/6
f 18/24/6 11/23/6 24/37/6
f 24/37/5 11/23/5 18/24/5
f 18/24/6 21/28/6 6/14/6
f 6/14/5 21/28/5 18/24/5
f 19/30/1 15/25/1 7/7/1
f 7/7/2 15/25/2 19/30/2
f 19/2/4 12/10/4 15/1/4
f 15/1/3 12/10/3 19/2/3
f 25/38/2 8/27/2 20/26/2
f 20/26/1 8/27/1 25/38/1
f 26/39/6 21/28/6 8/11/6
f 8/11/5 21/28/5 26/39/5
f 27/40/6 12/17/6 21/28/6
f 21/28/5 12/17/5 27/40/5
f 14/32/4 28/41/4 22/42/4
f 22/42/3 28/41/3 14/32/3
f 27/43/1 14/31/1 12/30/1
f 12/30/2 14/31/2 27/43/2
f 29/39/4 20/11/4 16/34/4
f 16/34/3 20/11/3 29/39/3
f 16/21/6 21/28/6 26/39/6
f 26/39/5 21/28/5 16/21/5
f 17/36/5 30/44/5 23/45/5
f 23/45/6 30/44/6 17/36/6
f 31/46/3 11/9/3 23/35/3
f 23/35/4 11/9/4 31/46/4
f 30/44/5 17/36/5 22/29/5
f 22/29/6 17/36/6 30/44/6
f 31/47/6 24/37/6 11/23/6
f 11/23/5 24/37/5 31/47/5
f 18/14/4 24/48/4 30/42/4
f 30/42/3 24/48/3 18/14/3
f 18/27/2 30/49/2 21/50/2
f 21/50/1 30/49/1 18/27/1
f 25/51/3 32/52/3 8/53/3
f 8/53/4 32/52/4 25/51/4
f 25/11/6 20/15/6 32/39/6
f 32/39/5 20/15/5 25/11/5
f 26/54/3 8/53/3 32/52/3
f 32/52/4 8/53/4 26/54/4
f 21/14/4 33/55/4 27/10/4
f 27/10/3 33/55/3 21/14/3
f 28/41/4 14/32/4 34/56/4
f 34/56/3 14/32/3 28/41/3
f 28/41/4 35/57/4 22/42/4
f 22/42/3 35/57/3 28/41/3
f 14/32/4 27/10/4 33/55/4
f 33/55/3 27/10/3 14/32/3
f 29/21/6 32/39/6 20/15/6
f 20/15/5 32/39/5 29/21/5
f 29/58/1 16/7/1 32/59/1
f 32/59/2 16/7/2 29/58/2
f 26/30/1 32/59/1 16/7/1
f 16/7/2 32/59/2 26/30/2
f 36/60/5 23/45/5 30/44/5
f 30/44/6 23/45/6 36/60/6
f 31/16/2 23/22/2 24/27/2
f 24/27/1 23/22/1 31/16/1
f 22/61/2 21/50/2 30/49/2
f 30/49/1 21/50/1 22/61/1
f 36/62/4 30/42/4 24/48/4
f 24/48/3 30/42/3 36/62/3
f 37/63/4 33/55/4 21/14/4
f 21/14/3 33/55/3 37/63/3
f 34/56/4 14/32/4 38/64/4
f 38/64/3 14/32/3 34/56/3
f 34/56/6 39/65/6 28/41/6
f 28/41/5 39/65/5 34/56/5
f 35/57/4 28/41/4 40/66/4
f 40/66/3 28/41/3 35/57/3
f 35/57/4 41/67/4 22/42/4
f 22/42/3 41/67/3 35/57/3
f 42/68/4 14/32/4 33/55/4
f 33/55/3 14/32/3 42/68/3
f 36/49/2 24/27/2 23/22/2
f 23/22/1 24/27/1 36/49/1
f 22/42/4 41/67/4 21/14/4
f 21/14/3 41/67/3 22/42/3
f 33/55/4 37/63/4 43/69/4
f 43/69/3 37/63/3 33/55/3
f 37/63/4 21/14/4 41/67/4
f 41/67/3 21/14/3 37/63/3
f 38/64/4 14/32/4 44/70/4
f 44/70/3 14/32/3 38/64/3
f 34/56/4 38/64/4 45/71/4
f 45/71/3 38/64/3 34/56/3
f 34/72/2 45/73/2 39/74/2
f 39/74/1 45/73/1 34/72/1
f 46/75/6 28/41/6 39/65/6
f 39/65/5 28/41/5 46/75/5
f 28/41/4 43/69/4 40/66/4
f 40/66/3 43/69/3 28/41/3
f 40/76/6 47/77/6 35/78/6
f 35/78/5 47/77/5 40/76/5
f 41/79/1 35/80/1 48/81/1
f 48/81/2 35/80/2 41/79/2
f 49/82/4 14/32/4 42/68/4
f 42/68/3 14/32/3 49/82/3
f 42/83/2 33/73/2 50/84/2
f 50/84/1 33/73/1 42/83/1
f 40/66/4 43/69/4 37/63/4
f 37/63/3 43/69/3 40/66/3
f 51/85/4 33/55/4 43/69/4
f 43/69/3 33/55/3 51/85/3
f 41/86/5 48/87/5 37/88/5
f 37/88/6 48/87/6 41/86/6
f 44/70/4 14/32/4 49/82/4
f 49/82/3 14/32/3 44/70/3
f 44/70/6 52/89/6 38/64/6
f 38/64/5 52/89/5 44/70/5
f 53/90/4 45/71/4 38/64/4
f 38/64/3 45/71/3 53/90/3
f 54/91/2 39/74/2 45/73/2
f 45/73/1 39/74/1 54/91/1
f 46/92/1 55/81/1 28/93/1
f 28/93/2 55/81/2 46/92/2
f 46/41/4 39/56/4 55/69/4
f 55/69/3 39/56/3 46/41/3
f 43/79/1 28/93/1 55/81/1
f 55/81/2 28/93/2 43/79/2
f 40/83/2 37/73/2 47/84/2
f 47/84/1 37/73/1 40/83/1
f 56/94/6 35/78/6 47/77/6
f 47/77/5 35/78/5 56/94/5
f 56/95/1 48/81/1 35/80/1
f 35/80/2 48/81/2 56/95/2
f 42/96/6 50/97/6 49/98/6
f 49/98/5 50/97/5 42/96/5
f 57/91/2 50/84/2 33/73/2
f 33/73/1 50/84/1 57/91/1
f 51/99/5 58/100/5 33/101/5
f 33/101/6 58/100/6 51/99/6
f 59/102/4 51/85/4 43/69/4
f 43/69/3 51/85/3 59/102/3
f 60/103/5 37/88/5 48/87/5
f 48/87/6 37/88/6 60/103/6
f 44/70/4 49/82/4 59/102/4
f 59/102/3 49/82/3 44/70/3
f 44/72/2 59/73/2 52/74/2
f 52/74/1 59/73/1 44/72/1
f 61/104/6 38/64/6 52/89/6
f 52/89/5 38/64/5 61/104/5
f 45/71/4 53/90/4 43/69/4
f 43/69/3 53/90/3 45/71/3
f 53/79/1 38/93/1 62/81/1
f 62/81/2 38/93/2 53/79/2
f 54/71/4 55/69/4 39/56/4
f 39/56/3 55/69/3 54/71/3
f 54/105/5 45/106/5 55/107/5
f 55/107/6 45/106/6 54/105/6
f 43/108/5 55/107/5 45/106/5
f 45/106/6 55/107/6 43/108/6
f 60/91/2 47/84/2 37/73/2
f 37/73/1 47/84/1 60/91/1
f 56/57/4 47/66/4 48/67/4
f 48/67/3 47/66/3 56/57/3
f 63/109/6 49/98/6 50/97/6
f 50/97/5 49/98/5 63/109/5
f 57/55/4 58/85/4 50/68/4
f 50/68/3 58/85/3 57/55/3
f 57/110/5 33/101/5 58/100/5
f 58/100/6 33/101/6 57/110/6
f 51/79/1 49/80/1 58/81/1
f 58/81/2 49/80/2 51/79/2
f 51/85/4 59/102/4 49/82/4
f 49/82/3 59/102/3 51/85/3
f 53/90/4 59/102/4 43/69/4
f 43/69/3 59/102/3 53/90/3
f 60/63/4 48/67/4 47/66/4
f 47/66/3 48/67/3 60/63/3
f 64/91/2 52/74/2 59/73/2
f 59/73/1 52/74/1 64/91/1
f 61/92/1 62/81/1 38/93/1
f 38/93/2 62/81/2 61/92/2
f 61/64/4 52/70/4 62/90/4
f 62/90/3 52/70/3 61/64/3
f 53/111/5 62/112/5 59/113/5
f 59/113/6 62/112/6 53/111/6
f 63/95/1 58/81/1 49/80/1
f 49/80/2 58/81/2 63/95/2
f 63/82/4 50/68/4 58/85/4
f 58/85/3 50/68/3 63/82/3
f 64/102/4 62/90/4 52/70/4
f 52/70/3 62/90/3 64/102/3
f 64/114/5 59/113/5 62/112/5
f 62/112/6 59/113/6 64/114/6
