# SSTK version 0.8.0
# 16
mtllib original-16.mtl
o group_12/ID125#ID125
v -0.373590 0.883761 -0.054261
v -0.564483 -0.166496 -0.455315
v -0.564483 0.883761 -0.054261
v -0.507289 -0.166496 -0.455315
v 0.510774 -0.166496 -0.455315
v 0.559742 0.883761 -0.054261
v 0.559742 -0.166496 -0.455315
v 0.559742 -0.166496 -0.455315
v 0.559742 0.883761 -0.054261
v 0.510774 -0.166496 -0.455315
v -0.373590 0.883761 -0.054261
v -0.507289 -0.166496 -0.455315
v -0.564483 -0.166496 -0.455315
v -0.564483 0.883761 -0.054261
vt -0.167111 1.477724
vt 0 0
vt 0 1.477724
vt -0.0500684 0
vt -0.9412964 0
vt -0.9841641 1.477724
vt -0.9841641 0
vn 0 0.35673799135548034 -0.9342044773622408
vn 0 -0.35673799135548034 0.9342044773622408
usemtl material_0_0
f 1/1/1 2/2/1 3/3/1
f 2/2/1 1/1/1 4/4/1
f 4/4/1 1/1/1 5/5/1
f 5/5/1 1/1/1 6/6/1
f 5/5/1 6/6/1 7/7/1
f 8/7/2 9/6/2 10/5/2
f 9/6/2 11/1/2 10/5/2
f 10/5/2 11/1/2 12/4/2
f 12/4/2 11/1/2 13/2/2
f 14/3/2 13/2/2 11/1/2
