# SSTK version 0.8.0
# 64
mtllib original-64.mtl
o Group_35/mesh131/mesh131-geometry#mesh131-geometry
v -0.532224 -0.338392 0.421048
v -0.532393 -0.345068 0.421048
v -0.531594 -0.338509 0.421048
v -0.532723 -0.345076 0.421048
v -0.531183 -0.338627 0.421048
v -0.533413 -0.345039 0.421048
v -0.530559 -0.338927 0.421048
v -0.532951 -0.338318 0.421048
v -0.530009 -0.339331 0.421048
v -0.533684 -0.345010 0.421048
v -0.529583 -0.339778 0.421048
v -0.534359 -0.344907 0.421048
v -0.529224 -0.340351 0.421048
v -0.533780 -0.338296 0.421048
v -0.529004 -0.340996 0.421048
v -0.534785 -0.344819 0.421048
v -0.528938 -0.341686 0.421048
v -0.536524 -0.340468 0.421048
v -0.528996 -0.342412 0.421048
v -0.536575 -0.339573 0.421048
v -0.536524 -0.348399 0.421048
v -0.529187 -0.343065 0.421048
v -0.536737 -0.339067 0.421048
v -0.534785 -0.348399 0.421048
v -0.529503 -0.343645 0.421048
v -0.536766 -0.339030 0.421048
v -0.534734 -0.349287 0.421048
v -0.529921 -0.344136 0.421048
v -0.537302 -0.338700 0.421048
v -0.536568 -0.349236 0.421048
v -0.530412 -0.344511 0.421048
v -0.538277 -0.338296 0.421048
v -0.534565 -0.349793 0.421048
v -0.530992 -0.344797 0.421048
v -0.537815 -0.338627 0.421048
v -0.534536 -0.349837 0.421048
v -0.531652 -0.344980 0.421048
v -0.538277 -0.338627 0.421048
v -0.534000 -0.350167 0.421048
v -0.533024 -0.350571 0.421048
v -0.536700 -0.349727 0.421048
v -0.533494 -0.350233 0.421048
v -0.537118 -0.350094 0.421048
v -0.533024 -0.350233 0.421048
v -0.538277 -0.350571 0.421048
v -0.537815 -0.350233 0.421048
v -0.538277 -0.350233 0.421048
vn 0 0 1
vn 0 0 -1
usemtl material_0_0
f 1//1 2//1 3//1
f 3//2 2//2 1//2
f 1//1 4//1 2//1
f 2//2 4//2 1//2
f 3//1 2//1 5//1
f 5//2 2//2 3//2
f 1//1 6//1 4//1
f 4//2 6//2 1//2
f 5//1 2//1 7//1
f 7//2 2//2 5//2
f 8//1 6//1 1//1
f 1//2 6//2 8//2
f 7//1 2//1 9//1
f 9//2 2//2 7//2
f 8//1 10//1 6//1
f 6//2 10//2 8//2
f 9//1 2//1 11//1
f 11//2 2//2 9//2
f 8//1 12//1 10//1
f 10//2 12//2 8//2
f 11//1 2//1 13//1
f 13//2 2//2 11//2
f 14//1 12//1 8//1
f 8//2 12//2 14//2
f 13//1 2//1 15//1
f 15//2 2//2 13//2
f 14//1 16//1 12//1
f 12//2 16//2 14//2
f 15//1 2//1 17//1
f 17//2 2//2 15//2
f 14//1 18//1 16//1
f 16//2 18//2 14//2
f 17//1 2//1 19//1
f 19//2 2//2 17//2
f 14//1 20//1 18//1
f 18//2 20//2 14//2
f 18//1 21//1 16//1
f 16//2 21//2 18//2
f 19//1 2//1 22//1
f 22//2 2//2 19//2
f 14//1 23//1 20//1
f 20//2 23//2 14//2
f 16//1 21//1 24//1
f 24//2 21//2 16//2
f 22//1 2//1 25//1
f 25//2 2//2 22//2
f 14//1 26//1 23//1
f 23//2 26//2 14//2
f 21//1 27//1 24//1
f 24//2 27//2 21//2
f 25//1 2//1 28//1
f 28//2 2//2 25//2
f 14//1 29//1 26//1
f 26//2 29//2 14//2
f 21//1 30//1 27//1
f 27//2 30//2 21//2
f 28//1 2//1 31//1
f 31//2 2//2 28//2
f 32//1 29//1 14//1
f 14//2 29//2 32//2
f 30//1 33//1 27//1
f 27//2 33//2 30//2
f 31//1 2//1 34//1
f 34//2 2//2 31//2
f 32//1 35//1 29//1
f 29//2 35//2 32//2
f 30//1 36//1 33//1
f 33//2 36//2 30//2
f 34//1 2//1 37//1
f 37//2 2//2 34//2
f 32//1 38//1 35//1
f 35//2 38//2 32//2
f 30//1 39//1 36//1
f 36//2 39//2 30//2
f 30//1 40//1 39//1
f 39//2 40//2 30//2
f 30//1 41//1 40//1
f 40//2 41//2 30//2
f 39//1 40//1 42//1
f 42//2 40//2 39//2
f 41//1 43//1 40//1
f 40//2 43//2 41//2
f 42//1 40//1 44//1
f 44//2 40//2 42//2
f 43//1 45//1 40//1
f 40//2 45//2 43//2
f 43//1 46//1 45//1
f 45//2 46//2 43//2
f 46//1 47//1 45//1
f 45//2 47//2 46//2
