# SSTK version 0.8.0
# 93
mtllib original-93.mtl
o mesh9/mesh9-geometry/material_3/component_4#mesh9-geometry
v -0.430276 -0.377660 0.454384
v -0.429983 -0.377660 0.458839
v -0.430276 -0.582871 0.454384
v -0.429983 -0.582871 0.458839
v -0.430276 -0.582871 0.454384
v -0.429983 -0.377660 0.458839
v -0.429983 -0.377660 0.458839
v -0.429111 -0.377660 0.463218
v -0.429983 -0.582871 0.458839
v -0.429111 -0.582871 0.463218
v -0.429983 -0.582871 0.458839
v -0.429111 -0.377660 0.463218
v -0.429111 -0.377660 0.463218
v -0.427674 -0.377660 0.467446
v -0.429111 -0.582871 0.463218
v -0.427674 -0.582871 0.467446
v -0.429111 -0.582871 0.463218
v -0.427674 -0.377660 0.467446
v -0.427674 -0.377660 0.467446
v -0.425697 -0.377660 0.471451
v -0.427674 -0.582871 0.467446
v -0.425697 -0.582871 0.471451
v -0.427674 -0.582871 0.467446
v -0.425697 -0.377660 0.471451
v -0.425697 -0.377660 0.471451
v -0.423213 -0.377660 0.475163
v -0.425697 -0.582871 0.471451
v -0.423213 -0.582871 0.475163
v -0.425697 -0.582871 0.471451
v -0.423213 -0.377660 0.475163
v -0.423213 -0.377660 0.475163
v -0.420265 -0.377660 0.478520
v -0.423213 -0.582871 0.475163
v -0.420265 -0.582871 0.478520
v -0.423213 -0.582871 0.475163
v -0.420265 -0.377660 0.478520
v -0.420265 -0.582871 0.478520
v -0.420265 -0.377660 0.478520
v -0.416904 -0.582871 0.481464
v -0.416904 -0.377660 0.481464
v -0.416904 -0.582871 0.481464
v -0.420265 -0.377660 0.478520
v -0.416904 -0.582871 0.481464
v -0.416904 -0.377660 0.481464
v -0.413187 -0.582871 0.483945
v -0.413187 -0.377660 0.483945
v -0.413187 -0.582871 0.483945
v -0.416904 -0.377660 0.481464
v -0.413187 -0.582871 0.483945
v -0.413187 -0.377660 0.483945
v -0.409178 -0.582871 0.485920
v -0.409178 -0.377660 0.485920
v -0.409178 -0.582871 0.485920
v -0.413187 -0.377660 0.483945
v -0.409178 -0.582871 0.485920
v -0.409178 -0.377660 0.485920
v -0.404944 -0.582871 0.487355
v -0.404944 -0.377660 0.487355
v -0.404944 -0.582871 0.487355
v -0.409178 -0.377660 0.485920
v -0.404944 -0.582871 0.487355
v -0.404944 -0.377660 0.487355
v -0.400560 -0.582871 0.488226
v -0.400560 -0.377660 0.488226
v -0.400560 -0.582871 0.488226
v -0.404944 -0.377660 0.487355
v -0.400560 -0.582871 0.488226
v -0.400560 -0.377660 0.488226
v -0.396099 -0.582871 0.488518
v -0.396099 -0.377660 0.488518
v -0.396099 -0.582871 0.488518
v -0.400560 -0.377660 0.488226
v -0.430276 -0.582871 0.454384
v -0.429983 -0.377660 0.458839
v -0.430276 -0.377660 0.454384
v -0.429983 -0.377660 0.458839
v -0.430276 -0.582871 0.454384
v -0.429983 -0.582871 0.458839
v -0.429983 -0.582871 0.458839
v -0.429111 -0.377660 0.463218
v -0.429983 -0.377660 0.458839
v -0.429111 -0.377660 0.463218
v -0.429983 -0.582871 0.458839
v -0.429111 -0.582871 0.463218
v -0.429111 -0.582871 0.463218
v -0.427674 -0.377660 0.467446
v -0.429111 -0.377660 0.463218
v -0.427674 -0.377660 0.467446
v -0.429111 -0.582871 0.463218
v -0.427674 -0.582871 0.467446
v -0.427674 -0.582871 0.467446
v -0.425697 -0.377660 0.471451
v -0.427674 -0.377660 0.467446
v -0.425697 -0.377660 0.471451
v -0.427674 -0.582871 0.467446
v -0.425697 -0.582871 0.471451
v -0.425697 -0.582871 0.471451
v -0.423213 -0.377660 0.475163
v -0.425697 -0.377660 0.471451
v -0.423213 -0.377660 0.475163
v -0.425697 -0.582871 0.471451
v -0.423213 -0.582871 0.475163
v -0.423213 -0.582871 0.475163
v -0.420265 -0.377660 0.478520
v -0.423213 -0.377660 0.475163
v -0.420265 -0.377660 0.478520
v -0.423213 -0.582871 0.475163
v -0.420265 -0.582871 0.478520
v -0.416904 -0.582871 0.481464
v -0.420265 -0.377660 0.478520
v -0.420265 -0.582871 0.478520
v -0.420265 -0.377660 0.478520
v -0.416904 -0.582871 0.481464
v -0.416904 -0.377660 0.481464
v -0.413187 -0.582871 0.483945
v -0.416904 -0.377660 0.481464
v -0.416904 -0.582871 0.481464
v -0.416904 -0.377660 0.481464
v -0.413187 -0.582871 0.483945
v -0.413187 -0.377660 0.483945
v -0.409178 -0.582871 0.485920
v -0.413187 -0.377660 0.483945
v -0.413187 -0.582871 0.483945
v -0.413187 -0.377660 0.483945
v -0.409178 -0.582871 0.485920
v -0.409178 -0.377660 0.485920
v -0.404944 -0.582871 0.487355
v -0.409178 -0.377660 0.485920
v -0.409178 -0.582871 0.485920
v -0.409178 -0.377660 0.485920
v -0.404944 -0.582871 0.487355
v -0.404944 -0.377660 0.487355
v -0.400560 -0.582871 0.488226
v -0.404944 -0.377660 0.487355
v -0.404944 -0.582871 0.487355
v -0.404944 -0.377660 0.487355
v -0.400560 -0.582871 0.488226
v -0.400560 -0.377660 0.488226
v -0.396099 -0.582871 0.488518
v -0.400560 -0.377660 0.488226
v -0.400560 -0.582871 0.488226
v -0.400560 -0.377660 0.488226
v -0.396099 -0.582871 0.488518
v -0.396099 -0.377660 0.488518
vt 0 0
vt 0.02568499930202961 1.1811020374298096
vt 0 1.1811020374298096
vt 0.02568499930202961 0
vt 0.05137199908494949 1.1811020374298096
vt 0.05137199908494949 0
vt 0.07706300169229507 1.1811020374298096
vt 0.07706300169229507 0
vt 0.10276000201702118 1.1811020374298096
vt 0.10276000201702118 0
vt 0.1284639984369278 1.1811020374298096
vt 0.1284639984369278 0
vt 0.1541769951581955 1.1811020374298096
vt 0.1541769951581955 0
vt 0.1798979938030243 0
vt 0.1798979938030243 1.1811020374298096
vt 0.20562699437141418 0
vt 0.20562699437141418 1.1811020374298096
vt 0.23136299848556519 0
vt 0.23136299848556519 1.1811020374298096
vt 0.2571049928665161 0
vt 0.2571049928665161 1.1811020374298096
vt 0.2828510105609894 0
vt 0.2828510105609894 1.1811020374298096
vt 0.3086000084877014 0
vt 0.3086000084877014 1.1811020374298096
vn 0.9994659315981238 0 -0.03267799832753658
vn 0.9914660680871563 0 -0.13036500999806025
vn 0.966006728245923 0 -0.2585169259131933
vn 0.9240490181970693 0 -0.38227400116805266
vn 0.8662966981441307 0 -0.4995298097056639
vn 0.7937218283683567 0 -0.6082809048224291
vn 0.707549623920393 0 -0.7066636609378683
vn 0.609241691024226 0 -0.7929845912235255
vn 0.5004699309797187 0 -0.8657539189545466
vn 0.38309292489648517 0 -0.9237098088113257
vn 0.2591219155019952 0 -0.9658446215135109
vn 0.13068695346883744 0 -0.9914236834941124
vn 0.03276000909706551 0 -0.999463246850008
vn -0.9994659315981238 0 0.03267799832753658
vn -0.9914660680871563 0 0.13036500999806025
vn -0.966006728245923 0 0.2585169259131933
vn -0.9240490181970693 0 0.38227400116805266
vn -0.8662966981441307 0 0.4995298097056639
vn -0.7937218283683567 0 0.6082809048224291
vn -0.707549623920393 0 0.7066636609378683
vn -0.609241691024226 0 0.7929845912235255
vn -0.5004699309797187 0 0.8657539189545466
vn -0.38309292489648517 0 0.9237098088113257
vn -0.2591219155019952 0 0.9658446215135109
vn -0.13068695346883744 0 0.9914236834941124
vn -0.03276000909706551 0 0.999463246850008
usemtl material_0_0
f 1/1/1 2/1/2 3/1/1
f 4/1/2 5/1/1 6/1/2
f 7/1/2 8/1/3 9/1/2
f 10/1/3 11/1/2 12/1/3
f 13/1/3 14/1/4 15/1/3
f 16/1/4 17/1/3 18/1/4
f 19/1/4 20/1/5 21/1/4
f 22/1/5 23/1/4 24/1/5
f 25/1/5 26/1/6 27/1/5
f 28/1/6 29/1/5 30/1/6
f 31/1/6 32/1/7 33/1/6
f 34/1/7 35/1/6 36/1/7
f 37/1/7 38/1/7 39/1/8
f 40/1/8 41/1/8 42/1/7
f 43/1/8 44/1/8 45/1/9
f 46/1/9 47/1/9 48/1/8
f 49/1/9 50/1/9 51/1/10
f 52/1/10 53/1/10 54/1/9
f 55/1/10 56/1/10 57/1/11
f 58/1/11 59/1/11 60/1/10
f 61/1/11 62/1/11 63/1/12
f 64/1/12 65/1/12 66/1/11
f 67/1/12 68/1/12 69/1/13
f 70/1/13 71/1/13 72/1/12
usemtl material_1_0
f 73/1/14 74/2/15 75/3/14
f 76/2/15 77/1/14 78/4/15
f 79/4/15 80/5/16 81/2/15
f 82/5/16 83/4/15 84/6/16
f 85/6/16 86/7/17 87/5/16
f 88/7/17 89/6/16 90/8/17
f 91/8/17 92/9/18 93/7/17
f 94/9/18 95/8/17 96/10/18
f 97/10/18 98/11/19 99/9/18
f 100/11/19 101/10/18 102/12/19
f 103/12/19 104/13/20 105/11/19
f 106/13/20 107/12/19 108/14/20
f 109/15/21 110/13/20 111/14/20
f 112/13/20 113/15/21 114/16/21
f 115/17/22 116/16/21 117/15/21
f 118/16/21 119/17/22 120/18/22
f 121/19/23 122/18/22 123/17/22
f 124/18/22 125/19/23 126/20/23
f 127/21/24 128/20/23 129/19/23
f 130/20/23 131/21/24 132/22/24
f 133/23/25 134/22/24 135/21/24
f 136/22/24 137/23/25 138/24/25
f 139/25/26 140/24/25 141/23/25
f 142/24/25 143/25/26 144/26/26
