# SSTK version 0.8.0
# 91
mtllib original-91.mtl
o mesh9/mesh9-geometry/material_3/component_2#mesh9-geometry
v -0.429983 -0.753880 0.373442
v -0.430276 -0.753880 0.368986
v -0.429983 -0.582871 0.373442
v -0.430276 -0.582871 0.368986
v -0.429983 -0.582871 0.373442
v -0.430276 -0.753880 0.368986
v -0.429983 -0.582871 0.373442
v -0.429111 -0.582871 0.377821
v -0.429983 -0.753880 0.373442
v -0.429111 -0.753880 0.377821
v -0.429983 -0.753880 0.373442
v -0.429111 -0.582871 0.377821
v -0.429111 -0.582871 0.377821
v -0.427674 -0.582871 0.382049
v -0.429111 -0.753880 0.377821
v -0.427674 -0.753880 0.382049
v -0.429111 -0.753880 0.377821
v -0.427674 -0.582871 0.382049
v -0.396099 -0.582871 0.403120
v -0.396099 -0.753880 0.403120
v -0.400560 -0.582871 0.402828
v -0.427674 -0.582871 0.382049
v -0.425697 -0.582871 0.386053
v -0.427674 -0.753880 0.382049
v -0.400560 -0.582871 0.402828
v -0.400560 -0.753880 0.402828
v -0.404944 -0.582871 0.401957
v -0.400560 -0.753880 0.402828
v -0.400560 -0.582871 0.402828
v -0.396099 -0.753880 0.403120
v -0.425697 -0.753880 0.386053
v -0.427674 -0.753880 0.382049
v -0.425697 -0.582871 0.386053
v -0.425697 -0.582871 0.386053
v -0.423213 -0.582871 0.389766
v -0.425697 -0.753880 0.386053
v -0.404944 -0.582871 0.401957
v -0.404944 -0.753880 0.401957
v -0.409178 -0.582871 0.400522
v -0.404944 -0.753880 0.401957
v -0.404944 -0.582871 0.401957
v -0.400560 -0.753880 0.402828
v -0.423213 -0.753880 0.389766
v -0.425697 -0.753880 0.386053
v -0.423213 -0.582871 0.389766
v -0.423213 -0.582871 0.389766
v -0.420265 -0.582871 0.393123
v -0.423213 -0.753880 0.389766
v -0.409178 -0.582871 0.400522
v -0.409178 -0.753880 0.400522
v -0.413187 -0.582871 0.398547
v -0.409178 -0.753880 0.400522
v -0.409178 -0.582871 0.400522
v -0.404944 -0.753880 0.401957
v -0.420265 -0.753880 0.393123
v -0.423213 -0.753880 0.389766
v -0.420265 -0.582871 0.393123
v -0.416904 -0.582871 0.396067
v -0.416904 -0.753880 0.396067
v -0.420265 -0.582871 0.393123
v -0.413187 -0.582871 0.398547
v -0.413187 -0.753880 0.398547
v -0.416904 -0.582871 0.396067
v -0.413187 -0.753880 0.398547
v -0.413187 -0.582871 0.398547
v -0.409178 -0.753880 0.400522
v -0.420265 -0.753880 0.393123
v -0.420265 -0.582871 0.393123
v -0.416904 -0.753880 0.396067
v -0.416904 -0.753880 0.396067
v -0.416904 -0.582871 0.396067
v -0.413187 -0.753880 0.398547
v -0.429983 -0.582871 0.373442
v -0.430276 -0.753880 0.368986
v -0.429983 -0.753880 0.373442
v -0.430276 -0.753880 0.368986
v -0.429983 -0.582871 0.373442
v -0.430276 -0.582871 0.368986
v -0.429983 -0.753880 0.373442
v -0.429111 -0.582871 0.377821
v -0.429983 -0.582871 0.373442
v -0.429111 -0.582871 0.377821
v -0.429983 -0.753880 0.373442
v -0.429111 -0.753880 0.377821
v -0.429111 -0.753880 0.377821
v -0.427674 -0.582871 0.382049
v -0.429111 -0.582871 0.377821
v -0.427674 -0.582871 0.382049
v -0.429111 -0.753880 0.377821
v -0.427674 -0.753880 0.382049
v -0.400560 -0.582871 0.402828
v -0.396099 -0.753880 0.403120
v -0.396099 -0.582871 0.403120
v -0.427674 -0.753880 0.382049
v -0.425697 -0.582871 0.386053
v -0.427674 -0.582871 0.382049
v -0.404944 -0.582871 0.401957
v -0.400560 -0.753880 0.402828
v -0.400560 -0.582871 0.402828
v -0.396099 -0.753880 0.403120
v -0.400560 -0.582871 0.402828
v -0.400560 -0.753880 0.402828
v -0.425697 -0.582871 0.386053
v -0.427674 -0.753880 0.382049
v -0.425697 -0.753880 0.386053
v -0.425697 -0.753880 0.386053
v -0.423213 -0.582871 0.389766
v -0.425697 -0.582871 0.386053
v -0.409178 -0.582871 0.400522
v -0.404944 -0.753880 0.401957
v -0.404944 -0.582871 0.401957
v -0.400560 -0.753880 0.402828
v -0.404944 -0.582871 0.401957
v -0.404944 -0.753880 0.401957
v -0.423213 -0.582871 0.389766
v -0.425697 -0.753880 0.386053
v -0.423213 -0.753880 0.389766
v -0.423213 -0.753880 0.389766
v -0.420265 -0.582871 0.393123
v -0.423213 -0.582871 0.389766
v -0.413187 -0.582871 0.398547
v -0.409178 -0.753880 0.400522
v -0.409178 -0.582871 0.400522
v -0.404944 -0.753880 0.401957
v -0.409178 -0.582871 0.400522
v -0.409178 -0.753880 0.400522
v -0.420265 -0.582871 0.393123
v -0.423213 -0.753880 0.389766
v -0.420265 -0.753880 0.393123
v -0.420265 -0.582871 0.393123
v -0.416904 -0.753880 0.396067
v -0.416904 -0.582871 0.396067
v -0.416904 -0.582871 0.396067
v -0.413187 -0.753880 0.398547
v -0.413187 -0.582871 0.398547
v -0.409178 -0.753880 0.400522
v -0.413187 -0.582871 0.398547
v -0.413187 -0.753880 0.398547
v -0.416904 -0.753880 0.396067
v -0.420265 -0.582871 0.393123
v -0.420265 -0.753880 0.393123
v -0.413187 -0.753880 0.398547
v -0.416904 -0.582871 0.396067
v -0.416904 -0.753880 0.396067
vt 0 0
vt 0.02568499930202961 0.9842519760131836
vt 0.02568499930202961 0
vt 0 0.9842519760131836
vt 0.05137199908494949 0.9842519760131836
vt 0.05137199908494949 0
vt 0.07706300169229507 0.9842519760131836
vt 0.07706300169229507 0
vt 0.2828510105609894 0.9842519760131836
vt 0.3086000084877014 0
vt 0.3086000084877014 0.9842519760131836
vt 0.10276000201702118 0.9842519760131836
vt 0.2571049928665161 0.9842519760131836
vt 0.2828510105609894 0
vt 0.10276000201702118 0
vt 0.1284639984369278 0.9842519760131836
vt 0.23136299848556519 0.9842519760131836
vt 0.2571049928665161 0
vt 0.1284639984369278 0
vt 0.1541769951581955 0.9842519760131836
vt 0.20562699437141418 0.9842519760131836
vt 0.23136299848556519 0
vt 0.1541769951581955 0
vt 0.1798979938030243 0
vt 0.1798979938030243 0.9842519760131836
vt 0.20562699437141418 0
vn 0.9914660680871563 0 -0.13036500999806025
vn 0.9994659315981238 0 -0.03267799832753658
vn 0.966006728245923 0 -0.2585169259131933
vn 0.9240490181970693 0 -0.38227400116805266
vn 0.03276000909706551 0 -0.999463246850008
vn 0.13068695346883744 0 -0.9914236834941124
vn 0.8662966981441307 0 -0.4995298097056639
vn 0.2591219155019952 0 -0.9658446215135109
vn 0.7937218283683567 0 -0.6082809048224291
vn 0.38309292489648517 0 -0.9237098088113257
vn 0.707549623920393 0 -0.7066636609378683
vn 0.5004699309797187 0 -0.8657539189545466
vn 0.609241691024226 0 -0.7929845912235255
vn -0.9914660680871563 0 0.13036500999806025
vn -0.9994659315981238 0 0.03267799832753658
vn -0.966006728245923 0 0.2585169259131933
vn -0.9240490181970693 0 0.38227400116805266
vn -0.13068695346883744 0 0.9914236834941124
vn -0.03276000909706551 0 0.999463246850008
vn -0.8662966981441307 0 0.4995298097056639
vn -0.2591219155019952 0 0.9658446215135109
vn -0.7937218283683567 0 0.6082809048224291
vn -0.38309292489648517 0 0.9237098088113257
vn -0.707549623920393 0 0.7066636609378683
vn -0.5004699309797187 0 0.8657539189545466
vn -0.609241691024226 0 0.7929845912235255
usemtl material_0_0
f 1/1/1 2/1/2 3/1/1
f 4/1/2 5/1/1 6/1/2
f 7/1/1 8/1/3 9/1/1
f 10/1/3 11/1/1 12/1/3
f 13/1/3 14/1/4 15/1/3
f 16/1/4 17/1/3 18/1/4
f 19/1/5 20/1/5 21/1/6
f 22/1/4 23/1/7 24/1/4
f 25/1/6 26/1/6 27/1/8
f 28/1/6 29/1/6 30/1/5
f 31/1/7 32/1/4 33/1/7
f 34/1/7 35/1/9 36/1/7
f 37/1/8 38/1/8 39/1/10
f 40/1/8 41/1/8 42/1/6
f 43/1/9 44/1/7 45/1/9
f 46/1/9 47/1/11 48/1/9
f 49/1/10 50/1/10 51/1/12
f 52/1/10 53/1/10 54/1/8
f 55/1/11 56/1/9 57/1/11
f 58/1/13 59/1/13 60/1/11
f 61/1/12 62/1/12 63/1/13
f 64/1/12 65/1/12 66/1/10
f 67/1/11 68/1/11 69/1/13
f 70/1/13 71/1/13 72/1/12
usemtl material_1_0
f 73/2/14 74/1/15 75/3/14
f 76/1/15 77/2/14 78/4/15
f 79/3/14 80/5/16 81/2/14
f 82/5/16 83/3/14 84/6/16
f 85/6/16 86/7/17 87/5/16
f 88/7/17 89/6/16 90/8/17
f 91/9/18 92/10/19 93/11/19
f 94/8/17 95/12/20 96/7/17
f 97/13/21 98/14/18 99/9/18
f 100/10/19 101/9/18 102/14/18
f 103/12/20 104/8/17 105/15/20
f 106/15/20 107/16/22 108/12/20
f 109/17/23 110/18/21 111/13/21
f 112/14/18 113/13/21 114/18/21
f 115/16/22 116/15/20 117/19/22
f 118/19/22 119/20/24 120/16/22
f 121/21/25 122/22/23 123/17/23
f 124/18/21 125/17/23 126/22/23
f 127/20/24 128/19/22 129/23/24
f 130/20/24 131/24/26 132/25/26
f 133/25/26 134/26/25 135/21/25
f 136/22/23 137/21/25 138/26/25
f 139/24/26 140/20/24 141/23/24
f 142/26/25 143/25/26 144/24/26
