# SSTK version 0.8.0
# 132
mtllib original-132.mtl
o mesh24/mesh24-geometry/material_2#mesh24-geometry
v 0.281993 0.549398 0.505597
v 0.289005 0.546493 0.505597
v 0.274663 0.536701 0.488518
v 0.281993 0.549398 0.505597
v 0.274663 0.536701 0.488518
v 0.275972 0.554018 0.505597
v 0.285210 0.532332 0.488518
v 0.274663 0.536701 0.488518
v 0.289005 0.546493 0.505597
v 0.265605 0.543651 0.488518
v 0.275972 0.554018 0.505597
v 0.274663 0.536701 0.488518
v 0.275972 0.554018 0.505597
v 0.265605 0.543651 0.488518
v 0.271352 0.560039 0.505597
v 0.289005 0.546493 0.505597
v 0.296529 0.545503 0.505597
v 0.285210 0.532332 0.488518
v 0.258655 0.552708 0.488518
v 0.271352 0.560039 0.505597
v 0.265605 0.543651 0.488518
v 0.296529 0.530842 0.488518
v 0.285210 0.532332 0.488518
v 0.296529 0.545503 0.505597
v 0.296529 0.545503 0.505597
v 0.304053 0.546493 0.505597
v 0.296529 0.530842 0.488518
v 0.268448 0.567050 0.505597
v 0.271352 0.560039 0.505597
v 0.254286 0.563255 0.488518
v 0.258655 0.552708 0.488518
v 0.254286 0.563255 0.488518
v 0.271352 0.560039 0.505597
v 0.307848 0.532332 0.488518
v 0.296529 0.530842 0.488518
v 0.304053 0.546493 0.505597
v 0.254286 0.563255 0.488518
v 0.252796 0.574574 0.488518
v 0.268448 0.567050 0.505597
v 0.304053 0.546493 0.505597
v 0.311065 0.549398 0.505597
v 0.307848 0.532332 0.488518
v 0.267457 0.574574 0.505597
v 0.268448 0.567050 0.505597
v 0.252796 0.574574 0.488518
v 0.318395 0.536701 0.488518
v 0.307848 0.532332 0.488518
v 0.311065 0.549398 0.505597
v 0.311065 0.549398 0.505597
v 0.317086 0.554018 0.505597
v 0.318395 0.536701 0.488518
v 0.267457 0.574574 0.505597
v 0.252796 0.574574 0.488518
v 0.268448 0.582099 0.505597
v 0.327453 0.543651 0.488518
v 0.318395 0.536701 0.488518
v 0.317086 0.554018 0.505597
v 0.317086 0.554018 0.505597
v 0.321706 0.560039 0.505597
v 0.327453 0.543651 0.488518
v 0.254286 0.585893 0.488518
v 0.268448 0.582099 0.505597
v 0.252796 0.574574 0.488518
v 0.334403 0.552708 0.488518
v 0.327453 0.543651 0.488518
v 0.321706 0.560039 0.505597
v 0.268448 0.582099 0.505597
v 0.254286 0.585893 0.488518
v 0.271352 0.589110 0.505597
v 0.324610 0.567050 0.505597
v 0.338772 0.563255 0.488518
v 0.321706 0.560039 0.505597
v 0.334403 0.552708 0.488518
v 0.321706 0.560039 0.505597
v 0.338772 0.563255 0.488518
v 0.258655 0.596441 0.488518
v 0.271352 0.589110 0.505597
v 0.254286 0.585893 0.488518
v 0.338772 0.563255 0.488518
v 0.324610 0.567050 0.505597
v 0.340262 0.574574 0.488518
v 0.258655 0.596441 0.488518
v 0.265605 0.605498 0.488518
v 0.271352 0.589110 0.505597
v 0.325601 0.574574 0.505597
v 0.340262 0.574574 0.488518
v 0.324610 0.567050 0.505597
v 0.275972 0.595131 0.505597
v 0.271352 0.589110 0.505597
v 0.265605 0.605498 0.488518
v 0.340262 0.574574 0.488518
v 0.325601 0.574574 0.505597
v 0.338772 0.585893 0.488518
v 0.281993 0.599751 0.505597
v 0.275972 0.595131 0.505597
v 0.274663 0.612448 0.488518
v 0.265605 0.605498 0.488518
v 0.274663 0.612448 0.488518
v 0.275972 0.595131 0.505597
v 0.324610 0.582099 0.505597
v 0.338772 0.585893 0.488518
v 0.325601 0.574574 0.505597
v 0.281993 0.599751 0.505597
v 0.274663 0.612448 0.488518
v 0.289005 0.602655 0.505597
v 0.324610 0.582099 0.505597
v 0.321706 0.589110 0.505597
v 0.338772 0.585893 0.488518
v 0.285210 0.616817 0.488518
v 0.289005 0.602655 0.505597
v 0.274663 0.612448 0.488518
v 0.334403 0.596441 0.488518
v 0.338772 0.585893 0.488518
v 0.321706 0.589110 0.505597
v 0.285210 0.616817 0.488518
v 0.296529 0.618307 0.488518
v 0.289005 0.602655 0.505597
v 0.334403 0.596441 0.488518
v 0.321706 0.589110 0.505597
v 0.327453 0.605498 0.488518
v 0.317086 0.595131 0.505597
v 0.327453 0.605498 0.488518
v 0.321706 0.589110 0.505597
v 0.296529 0.603646 0.505597
v 0.289005 0.602655 0.505597
v 0.296529 0.618307 0.488518
v 0.327453 0.605498 0.488518
v 0.317086 0.595131 0.505597
v 0.318395 0.612448 0.488518
v 0.296529 0.618307 0.488518
v 0.307848 0.616817 0.488518
v 0.296529 0.603646 0.505597
v 0.311065 0.599751 0.505597
v 0.318395 0.612448 0.488518
v 0.317086 0.595131 0.505597
v 0.304053 0.602655 0.505597
v 0.296529 0.603646 0.505597
v 0.307848 0.616817 0.488518
v 0.311065 0.599751 0.505597
v 0.304053 0.602655 0.505597
v 0.318395 0.612448 0.488518
v 0.307848 0.616817 0.488518
v 0.318395 0.612448 0.488518
v 0.304053 0.602655 0.505597
v 0.274663 0.536701 0.488518
v 0.289005 0.546493 0.505597
v 0.281993 0.549398 0.505597
v 0.275972 0.554018 0.505597
v 0.274663 0.536701 0.488518
v 0.281993 0.549398 0.505597
v 0.289005 0.546493 0.505597
v 0.274663 0.536701 0.488518
v 0.285210 0.532332 0.488518
v 0.274663 0.536701 0.488518
v 0.275972 0.554018 0.505597
v 0.265605 0.543651 0.488518
v 0.271352 0.560039 0.505597
v 0.265605 0.543651 0.488518
v 0.275972 0.554018 0.505597
v 0.285210 0.532332 0.488518
v 0.296529 0.545503 0.505597
v 0.289005 0.546493 0.505597
v 0.265605 0.543651 0.488518
v 0.271352 0.560039 0.505597
v 0.258655 0.552708 0.488518
v 0.296529 0.545503 0.505597
v 0.285210 0.532332 0.488518
v 0.296529 0.530842 0.488518
v 0.296529 0.530842 0.488518
v 0.304053 0.546493 0.505597
v 0.296529 0.545503 0.505597
v 0.254286 0.563255 0.488518
v 0.271352 0.560039 0.505597
v 0.268448 0.567050 0.505597
v 0.271352 0.560039 0.505597
v 0.254286 0.563255 0.488518
v 0.258655 0.552708 0.488518
v 0.304053 0.546493 0.505597
v 0.296529 0.530842 0.488518
v 0.307848 0.532332 0.488518
v 0.268448 0.567050 0.505597
v 0.252796 0.574574 0.488518
v 0.254286 0.563255 0.488518
v 0.307848 0.532332 0.488518
v 0.311065 0.549398 0.505597
v 0.304053 0.546493 0.505597
v 0.252796 0.574574 0.488518
v 0.268448 0.567050 0.505597
v 0.267457 0.574574 0.505597
v 0.311065 0.549398 0.505597
v 0.307848 0.532332 0.488518
v 0.318395 0.536701 0.488518
v 0.318395 0.536701 0.488518
v 0.317086 0.554018 0.505597
v 0.311065 0.549398 0.505597
v 0.268448 0.582099 0.505597
v 0.252796 0.574574 0.488518
v 0.267457 0.574574 0.505597
v 0.317086 0.554018 0.505597
v 0.318395 0.536701 0.488518
v 0.327453 0.543651 0.488518
v 0.327453 0.543651 0.488518
v 0.321706 0.560039 0.505597
v 0.317086 0.554018 0.505597
v 0.252796 0.574574 0.488518
v 0.268448 0.582099 0.505597
v 0.254286 0.585893 0.488518
v 0.321706 0.560039 0.505597
v 0.327453 0.543651 0.488518
v 0.334403 0.552708 0.488518
v 0.271352 0.589110 0.505597
v 0.254286 0.585893 0.488518
v 0.268448 0.582099 0.505597
v 0.321706 0.560039 0.505597
v 0.338772 0.563255 0.488518
v 0.324610 0.567050 0.505597
v 0.338772 0.563255 0.488518
v 0.321706 0.560039 0.505597
v 0.334403 0.552708 0.488518
v 0.254286 0.585893 0.488518
v 0.271352 0.589110 0.505597
v 0.258655 0.596441 0.488518
v 0.340262 0.574574 0.488518
v 0.324610 0.567050 0.505597
v 0.338772 0.563255 0.488518
v 0.271352 0.589110 0.505597
v 0.265605 0.605498 0.488518
v 0.258655 0.596441 0.488518
v 0.324610 0.567050 0.505597
v 0.340262 0.574574 0.488518
v 0.325601 0.574574 0.505597
v 0.265605 0.605498 0.488518
v 0.271352 0.589110 0.505597
v 0.275972 0.595131 0.505597
v 0.338772 0.585893 0.488518
v 0.325601 0.574574 0.505597
v 0.340262 0.574574 0.488518
v 0.274663 0.612448 0.488518
v 0.275972 0.595131 0.505597
v 0.281993 0.599751 0.505597
v 0.275972 0.595131 0.505597
v 0.274663 0.612448 0.488518
v 0.265605 0.605498 0.488518
v 0.325601 0.574574 0.505597
v 0.338772 0.585893 0.488518
v 0.324610 0.582099 0.505597
v 0.289005 0.602655 0.505597
v 0.274663 0.612448 0.488518
v 0.281993 0.599751 0.505597
v 0.338772 0.585893 0.488518
v 0.321706 0.589110 0.505597
v 0.324610 0.582099 0.505597
v 0.274663 0.612448 0.488518
v 0.289005 0.602655 0.505597
v 0.285210 0.616817 0.488518
v 0.321706 0.589110 0.505597
v 0.338772 0.585893 0.488518
v 0.334403 0.596441 0.488518
v 0.289005 0.602655 0.505597
v 0.296529 0.618307 0.488518
v 0.285210 0.616817 0.488518
v 0.327453 0.605498 0.488518
v 0.321706 0.589110 0.505597
v 0.334403 0.596441 0.488518
v 0.321706 0.589110 0.505597
v 0.327453 0.605498 0.488518
v 0.317086 0.595131 0.505597
v 0.296529 0.618307 0.488518
v 0.289005 0.602655 0.505597
v 0.296529 0.603646 0.505597
v 0.318395 0.612448 0.488518
v 0.317086 0.595131 0.505597
v 0.327453 0.605498 0.488518
v 0.296529 0.603646 0.505597
v 0.307848 0.616817 0.488518
v 0.296529 0.618307 0.488518
v 0.317086 0.595131 0.505597
v 0.318395 0.612448 0.488518
v 0.311065 0.599751 0.505597
v 0.307848 0.616817 0.488518
v 0.296529 0.603646 0.505597
v 0.304053 0.602655 0.505597
v 0.318395 0.612448 0.488518
v 0.304053 0.602655 0.505597
v 0.311065 0.599751 0.505597
v 0.304053 0.602655 0.505597
v 0.318395 0.612448 0.488518
v 0.307848 0.616817 0.488518
vt -10.343889236450195 16.139118194580078
vt -10.30709171295166 16.115585327148438
vt -10.422767639160156 16.036230087280273
vt -7.112518787384033 16.3100643157959
vt -7.204130172729492 16.21832847595215
vt -7.140692234039307 16.34344482421875
vt -10.367412567138672 16.000825881958008
vt -7.246511936187744 16.268543243408203
vt -4.871695041656494 14.96937084197998
vt -4.982472896575928 14.902018547058105
vt -4.891133785247803 15.0084867477417
vt -14.033811569213867 13.989876747131348
vt -13.991006851196289 13.981176376342773
vt -14.070338249206543 13.865483283996582
vt -5.011714935302734 14.960862159729004
vt -14.005946159362793 13.85239315032959
vt -16.95319175720215 10.391568183898926
vt -16.910388946533203 10.4002685546875
vt -16.93825340270996 10.262785911560059
vt -3.526757001876831 12.592367172241211
vt -3.515439033508301 12.550177574157715
vt -3.6543760299682617 12.569535255432129
vt -3.6373510360717773 12.506070137023926
vt -16.87386131286621 10.275875091552734
vt -3.0132319927215576 9.368781089782715
vt -3.0188140869140625 9.43425178527832
vt -2.8854570388793945 9.390729904174805
vt -18.240053176879883 7.068281173706055
vt -18.203256607055664 7.091815948486328
vt -18.179731369018555 6.9535231590271
vt -2.8891680240631104 9.43425178527832
vt -18.12437629699707 6.988926887512207
vt -18.340024948120117 5.290957927703857
vt -18.31184959411621 5.324337005615234
vt -18.2484130859375 5.199222087860107
vt -2.8891680240631104 5.781900882720947
vt -3.0188140869140625 5.781900882720947
vt -2.8854570388793945 5.825422763824463
vt -18.206031799316406 5.249434947967529
vt -18.01512336730957 5.061036109924316
vt -17.995683670043945 5.100152015686035
vt -17.90434455871582 4.993684768676758
vt -3.0132319927215576 5.847372055053711
vt -17.875102996826172 5.052527904510498
vt -3.526757001876831 2.0351030826568604
vt -3.6543760299682617 2.0579349994659424
vt -3.515439033508301 2.0772910118103027
vt -17.670211791992188 5.874517917633057
vt -17.542593002319336 5.851686000823975
vt -17.681529998779297 5.832330226898193
vt -17.55961799621582 5.7882208824157715
vt -3.6373510360717773 2.12139892578125
vt -17.363666534423828 7.005008220672607
vt -17.49144172668457 7.026957035064697
vt -17.358083724975586 7.070478916168213
vt -5.011714935302734 -1.4134119749069214
vt -4.982472896575928 -1.3545689582824707
vt -4.891133785247803 -1.461037039756775
vt -17.487730026245117 7.070478916168213
vt -4.871695041656494 -1.4219210147857666
vt -17.358083724975586 8.145673751831055
vt -17.487730026245117 8.145673751831055
vt -17.363666534423828 8.211145401000977
vt -7.112518787384033 -4.128255844116211
vt -7.140692234039307 -4.161634922027588
vt -7.204130172729492 -4.036520004272461
vt -7.246511936187744 -4.086732864379883
vt -17.49144172668457 8.18919563293457
vt -10.343889236450195 -5.277856826782227
vt -10.422767639160156 -5.1749677658081055
vt -10.30709171295166 -5.2543230056762695
vt -17.670211791992188 8.752951622009277
vt -17.681529998779297 8.795140266418457
vt -17.542593002319336 8.77578353881836
vt -10.367412567138672 -5.1395649909973145
vt -17.55961799621582 8.839247703552246
vt -14.070338249206543 -3.8455750942230225
vt -14.005946159362793 -3.8324859142303467
vt -14.033811569213867 -3.9699690341949463
vt -17.875102996826172 8.494921684265137
vt -17.995683670043945 8.447298049926758
vt -17.90434455871582 8.553765296936035
vt -18.01512336730957 8.486413955688477
vt -13.991006851196289 -3.9612679481506348
vt -18.206031799316406 6.932374000549316
vt -18.31184959411621 6.857471942901611
vt -18.2484130859375 6.982587814331055
vt -16.93825340270996 -0.2428780049085617
vt -16.87386131286621 -0.25596800446510315
vt -16.95319175720215 -0.3716610074043274
vt -18.340024948120117 6.890851974487305
vt -16.910388946533203 -0.38036200404167175
vt -18.203256607055664 3.7694458961486816
vt -18.240053176879883 3.792980909347534
vt -18.12437629699707 3.8723349571228027
vt -18.179731369018555 3.9077389240264893
vt 0.1837809979915619 -0.0568929985165596
vt 0.190310999751091 -0.052414000034332275
vt 0.18823400139808655 -0.05108499899506569
vt 0.16743899881839752 -0.06236099824309349
vt 0.16385899484157562 -0.06942299753427505
vt 0.16902999579906464 -0.06424500048160553
vt 0.18690599501132965 -0.05889099836349487
vt 0.16146700084209442 -0.06658799946308136
vt 0.15034599602222443 -0.05316099897027016
vt 0.14519000053405762 -0.05917000025510788
vt 0.1514430046081543 -0.055369000881910324
vt 0.20260000228881836 -0.02318499982357025
vt 0.2070779949426651 -0.016654999926686287
vt 0.2046619951725006 -0.01616399921476841
vt 0.14353899657726288 -0.05584900081157684
vt 0.20623399317264557 -0.023924000561237335
vt 0.20623399317264557 0.023924000561237335
vt 0.2078070044517517 0.03168400004506111
vt 0.20539100468158722 0.031192999333143234
vt 0.13198000192642212 -0.0317550003528595
vt 0.13982200622558594 -0.03284800052642822
vt 0.13918399810791016 -0.030465999618172646
vt 0.13294099271297455 -0.03533700108528137
vt 0.20986899733543396 0.02466299943625927
vt 0.1340859979391098 -0.0030010000336915255
vt 0.12655900418758392 -0.0005440000095404685
vt 0.12687399983406067 -0.004240000154823065
vt 0.1936119943857193 0.06170399859547615
vt 0.1922840029001236 0.06950999796390533
vt 0.19020700454711914 0.06818199902772903
vt 0.1338769942522049 -0.0005440000095404685
vt 0.19673599302768707 0.06370300054550171
vt 0.1754090040922165 0.07745599746704102
vt 0.1718290001153946 0.08451800048351288
vt 0.17023800313472748 0.08263400197029114
vt 0.1340859979391098 0.03127500042319298
vt 0.12655900418758392 0.028818000108003616
vt 0.1338769942522049 0.028818000108003616
vt 0.17780199646949768 0.08028999716043472
vt 0.15987800061702728 0.07290200144052505
vt 0.15472300350666046 0.07891199737787247
vt 0.1536259949207306 0.0767040029168129
vt 0.12687399983406067 0.032513998448848724
vt 0.16152900457382202 0.07622399926185608
vt 0.13982200622558594 0.06002800166606903
vt 0.13198000192642212 0.058935001492500305
vt 0.13918399810791016 0.057645998895168304
vt 0.1427209973335266 0.056696999818086624
vt 0.15056400001049042 0.05778999999165535
vt 0.14336000382900238 0.05907899886369705
vt 0.1496029943227768 0.054207999259233475
vt 0.13294099271297455 0.06251700222492218
vt 0.14505399763584137 0.030964000150561333
vt 0.1375260055065155 0.02850699983537197
vt 0.14473900198936462 0.027267999947071075
vt 0.15034599602222443 0.07833400368690491
vt 0.14519000053405762 0.08434300124645233
vt 0.14353899657726288 0.0810220018029213
vt 0.1377359926700592 0.030964000150561333
vt 0.1514430046081543 0.08054199814796448
vt 0.14473900198936462 0.0010059999767690897
vt 0.1377359926700592 -0.002689999993890524
vt 0.14505399763584137 -0.002689999993890524
vt 0.16385899484157562 0.09205800294876099
vt 0.16743899881839752 0.08499599993228912
vt 0.16902999579906464 0.08687999844551086
vt 0.16146700084209442 0.08922400325536728
vt 0.1375260055065155 -0.00023299999884329736
vt 0.190310999751091 0.0725959986448288
vt 0.1837809979915619 0.07707499712705612
vt 0.18823400139808655 0.07126700133085251
vt 0.15056400001049042 -0.03061000071465969
vt 0.1427209973335266 -0.029517000541090965
vt 0.14336000382900238 -0.03189900144934654
vt 0.18690599501132965 0.0790729969739914
vt 0.1496029943227768 -0.027027999982237816
vt 0.2046619951725006 0.03478199988603592
vt 0.20623399317264557 0.042541999369859695
vt 0.20260000228881836 0.04180299863219261
vt 0.15987800061702728 -0.0477290004491806
vt 0.15472300350666046 -0.053739000111818314
vt 0.16152900457382202 -0.05104999989271164
vt 0.1536259949207306 -0.051530998200178146
vt 0.2070779949426651 0.035273000597953796
vt 0.1754090040922165 -0.05482000112533569
vt 0.1718290001153946 -0.06188200041651726
vt 0.17780199646949768 -0.0576540008187294
vt 0.20539100468158722 -0.012574000284075737
vt 0.20986899733543396 -0.006043999921530485
vt 0.20623399317264557 -0.005305000115185976
vt 0.17023800313472748 -0.05999799817800522
vt 0.2078070044517517 -0.01306500006467104
vt 0.19673599302768707 -0.04352099820971489
vt 0.19020700454711914 -0.04800000041723251
vt 0.1922840029001236 -0.049327999353408813
vt 0.1936119943857193 -0.04152199998497963
vn 0.3797940139330322 0.6578220342986086 -0.6504050108754359
vn 0.1965960319701094 0.7337051161227102 -0.6504051066750387
vn 0.5371097313218295 0.5371097313218296 -0.650404699428582
vn 0.6578220342986085 0.37979401393303236 -0.6504050108754359
vn 0 0.7595877809053807 -0.6504047994128267
vn -0.1965960319701094 0.7337051161227102 -0.6504051066750387
vn 0.73370511612271 0.19659603197010952 -0.6504051066750388
vn 0.7595877809053806 0 -0.6504047994128269
vn -0.3797940139330322 0.6578220342986086 -0.6504050108754359
vn -0.5371097313218295 0.5371097313218296 -0.650404699428582
vn 0.73370511612271 -0.19659603197010925 -0.6504051066750388
vn -0.6578220342986085 0.37979401393303236 -0.6504050108754359
vn 0.6578220342986085 -0.379794013933032 -0.6504050108754361
vn -0.73370511612271 0.19659603197010952 -0.6504051066750388
vn -0.7595877809053806 0 -0.6504047994128269
vn 0.5371097313218295 -0.5371097313218294 -0.6504046994285823
vn -0.73370511612271 -0.19659603197010925 -0.6504051066750388
vn 0.3797940139330322 -0.6578220342986084 -0.6504050108754361
vn 0.1965960319701094 -0.7337051161227099 -0.6504051066750389
vn -0.6578220342986085 -0.379794013933032 -0.6504050108754361
vn 0 -0.7595877809053805 -0.6504047994128271
vn -0.5371097313218295 -0.5371097313218294 -0.6504046994285823
vn -0.3797940139330322 -0.6578220342986084 -0.6504050108754361
vn -0.1965960319701094 -0.7337051161227099 -0.6504051066750389
vn -0.3797940139330322 -0.6578220342986086 0.6504050108754359
vn -0.1965960319701094 -0.7337051161227102 0.6504051066750387
vn -0.5371097313218295 -0.5371097313218296 0.650404699428582
vn -0.6578220342986085 -0.37979401393303236 0.6504050108754359
vn 0 -0.7595877809053807 0.6504047994128267
vn 0.1965960319701094 -0.7337051161227102 0.6504051066750387
vn -0.73370511612271 -0.19659603197010952 0.6504051066750388
vn -0.7595877809053806 0 0.6504047994128269
vn 0.3797940139330322 -0.6578220342986086 0.6504050108754359
vn 0.5371097313218295 -0.5371097313218296 0.650404699428582
vn -0.73370511612271 0.19659603197010925 0.6504051066750388
vn 0.6578220342986085 -0.37979401393303236 0.6504050108754359
vn -0.6578220342986085 0.379794013933032 0.6504050108754361
vn 0.73370511612271 -0.19659603197010952 0.6504051066750388
vn 0.7595877809053806 0 0.6504047994128269
vn -0.5371097313218295 0.5371097313218294 0.6504046994285823
vn 0.73370511612271 0.19659603197010925 0.6504051066750388
vn -0.3797940139330322 0.6578220342986084 0.6504050108754361
vn -0.1965960319701094 0.7337051161227099 0.6504051066750389
vn 0.6578220342986085 0.379794013933032 0.6504050108754361
vn 0 0.7595877809053805 0.6504047994128271
vn 0.5371097313218295 0.5371097313218294 0.6504046994285823
vn 0.3797940139330322 0.6578220342986084 0.6504050108754361
vn 0.1965960319701094 0.7337051161227099 0.6504051066750389
usemtl material_0_0
f 1/1/1 2/2/2 3/3/1
f 4/4/1 5/5/1 6/6/3
f 7/7/2 8/3/1 9/2/2
f 10/8/3 11/6/3 12/5/1
f 13/9/3 14/10/3 15/11/4
f 16/12/2 17/13/5 18/14/2
f 19/15/4 20/11/4 21/10/3
f 22/16/5 23/14/2 24/13/5
f 25/17/5 26/18/6 27/19/5
f 28/20/7 29/21/4 30/22/7
f 31/23/4 32/22/7 33/21/4
f 34/24/6 35/19/5 36/18/6
f 37/25/7 38/26/8 39/27/7
f 40/28/6 41/29/9 42/30/6
f 43/31/8 44/27/7 45/26/8
f 46/32/9 47/30/6 48/29/9
f 49/33/9 50/34/10 51/35/9
f 52/36/8 53/37/8 54/38/11
f 55/39/10 56/35/9 57/34/10
f 58/40/10 59/41/12 60/42/10
f 61/43/11 62/38/11 63/37/8
f 64/44/12 65/42/10 66/41/12
f 67/45/11 68/46/11 69/47/13
f 70/48/14 71/49/14 72/50/12
f 73/51/12 74/50/12 75/49/14
f 76/52/13 77/47/13 78/46/11
f 79/53/14 80/54/14 81/55/15
f 82/56/13 83/57/16 84/58/13
f 85/59/15 86/55/15 87/54/14
f 88/60/16 89/58/13 90/57/16
f 91/61/15 92/62/15 93/63/17
f 94/64/18 95/65/16 96/66/18
f 97/67/16 98/66/18 99/65/16
f 100/68/17 101/63/17 102/62/15
f 103/69/18 104/70/18 105/71/19
f 106/72/17 107/73/20 108/74/17
f 109/75/19 110/71/19 111/70/18
f 112/76/20 113/74/17 114/73/20
f 115/77/19 116/78/21 117/79/19
f 118/80/20 119/81/20 120/82/22
f 121/83/22 122/82/22 123/81/20
f 124/84/21 125/79/19 126/78/21
f 127/85/22 128/86/22 129/87/23
f 130/88/21 131/89/24 132/90/21
f 133/91/23 134/87/23 135/86/22
f 136/92/24 137/90/21 138/89/24
f 139/93/23 140/94/24 141/95/23
f 142/96/24 143/95/23 144/94/24
usemtl material_1_0
f 145/97/25 146/98/26 147/99/25
f 148/100/27 149/101/25 150/102/25
f 151/98/26 152/97/25 153/103/26
f 154/101/25 155/100/27 156/104/27
f 157/105/28 158/106/27 159/107/27
f 160/108/26 161/109/29 162/110/26
f 163/106/27 164/105/28 165/111/28
f 166/109/29 167/108/26 168/112/29
f 169/113/29 170/114/30 171/115/29
f 172/116/31 173/117/28 174/118/31
f 175/117/28 176/116/31 177/119/28
f 178/114/30 179/113/29 180/120/30
f 181/121/31 182/122/32 183/123/31
f 184/124/30 185/125/33 186/126/30
f 187/122/32 188/121/31 189/127/32
f 190/125/33 191/124/30 192/128/33
f 193/129/33 194/130/34 195/131/33
f 196/132/35 197/133/32 198/134/32
f 199/130/34 200/129/33 201/135/34
f 202/136/34 203/137/36 204/138/34
f 205/133/32 206/132/35 207/139/35
f 208/137/36 209/136/34 210/140/36
f 211/141/37 212/142/35 213/143/35
f 214/144/36 215/145/38 216/146/38
f 217/145/38 218/144/36 219/147/36
f 220/142/35 221/141/37 222/148/37
f 223/149/39 224/150/38 225/151/38
f 226/152/37 227/153/40 228/154/37
f 229/150/38 230/149/39 231/155/39
f 232/153/40 233/152/37 234/156/40
f 235/157/41 236/158/39 237/159/39
f 238/160/42 239/161/40 240/162/42
f 241/161/40 242/160/42 243/163/40
f 244/158/39 245/157/41 246/164/41
f 247/165/43 248/166/42 249/167/42
f 250/168/41 251/169/44 252/170/41
f 253/166/42 254/165/43 255/171/43
f 256/169/44 257/168/41 258/172/44
f 259/173/43 260/174/45 261/175/43
f 262/176/46 263/177/44 264/178/44
f 265/177/44 266/176/46 267/179/46
f 268/174/45 269/173/43 270/180/45
f 271/181/47 272/182/46 273/183/46
f 274/184/45 275/185/48 276/186/45
f 277/182/46 278/181/47 279/187/47
f 280/185/48 281/184/45 282/188/48
f 283/189/47 284/190/48 285/191/47
f 286/190/48 287/189/47 288/192/48
