# SSTK version 0.8.0
# 77
mtllib original-77.mtl
o mesh4/mesh4-geometry/material_2#mesh4-geometry
v -0.004920 0.668144 0.497820
v -0.005633 0.666773 0.497820
v -0.007345 0.667886 0.497820
v -0.007345 0.667886 0.497820
v -0.006734 0.649340 0.497820
v -0.008476 0.667564 0.497820
v -0.005633 0.666773 0.497820
v -0.005949 0.666004 0.497820
v -0.007345 0.667886 0.497820
v -0.005013 0.667172 0.497820
v -0.005633 0.666773 0.497820
v -0.004920 0.668144 0.497820
v -0.006734 0.649340 0.497820
v -0.008533 0.649829 0.497820
v -0.008476 0.667564 0.497820
v -0.006055 0.664763 0.497820
v -0.006734 0.649340 0.497820
v -0.007345 0.667886 0.497820
v -0.005949 0.666004 0.497820
v -0.006055 0.664763 0.497820
v -0.007345 0.667886 0.497820
v -0.004000 0.667305 0.497820
v -0.005013 0.667172 0.497820
v -0.004920 0.668144 0.497820
v -0.003574 0.668049 0.497820
v -0.004000 0.667305 0.497820
v -0.004920 0.668144 0.497820
v -0.008476 0.667564 0.497820
v -0.008533 0.649829 0.497820
v -0.009552 0.667112 0.497820
v -0.006055 0.651932 0.497820
v -0.006734 0.649340 0.497820
v -0.006055 0.664763 0.497820
v -0.002770 0.667146 0.497820
v -0.004000 0.667305 0.497820
v -0.003574 0.668049 0.497820
v -0.008533 0.649829 0.497820
v -0.010140 0.650644 0.497820
v -0.009552 0.667112 0.497820
v -0.006055 0.651932 0.497820
v -0.005974 0.651082 0.497820
v -0.006734 0.649340 0.497820
v -0.002321 0.667765 0.497820
v -0.002770 0.667146 0.497820
v -0.003574 0.668049 0.497820
v -0.009552 0.667112 0.497820
v -0.010140 0.650644 0.497820
v -0.010550 0.666513 0.497820
v -0.005733 0.650475 0.497820
v -0.006734 0.649340 0.497820
v -0.005974 0.651082 0.497820
v -0.001574 0.666666 0.497820
v -0.002770 0.667146 0.497820
v -0.002321 0.667765 0.497820
v -0.004744 0.649177 0.497820
v -0.006734 0.649340 0.497820
v -0.005733 0.650475 0.497820
v -0.010550 0.666513 0.497820
v -0.010140 0.650644 0.497820
v -0.011444 0.665746 0.497820
v -0.001161 0.667290 0.497820
v -0.001574 0.666666 0.497820
v -0.002321 0.667765 0.497820
v -0.005332 0.650110 0.497820
v -0.004744 0.649177 0.497820
v -0.005733 0.650475 0.497820
v -0.010140 0.650644 0.497820
v -0.011556 0.651786 0.497820
v -0.011444 0.665746 0.497820
v -0.000484 0.665923 0.497820
v -0.001574 0.666666 0.497820
v -0.001161 0.667290 0.497820
v -0.003089 0.649288 0.497820
v -0.004744 0.649177 0.497820
v -0.004124 0.650127 0.497820
v -0.004769 0.649989 0.497820
v -0.004744 0.649177 0.497820
v -0.005332 0.650110 0.497820
v -0.011444 0.665746 0.497820
v -0.011556 0.651786 0.497820
v -0.012236 0.664813 0.497820
v -0.000093 0.666627 0.497820
v -0.000484 0.665923 0.497820
v -0.001161 0.667290 0.497820
v -0.004124 0.650127 0.497820
v -0.004744 0.649177 0.497820
v -0.004769 0.649989 0.497820
v -0.003663 0.650541 0.497820
v -0.003089 0.649288 0.497820
v -0.004124 0.650127 0.497820
v -0.011556 0.651786 0.497820
v -0.012711 0.653183 0.497820
v -0.012236 0.664813 0.497820
v 0.000430 0.664969 0.497820
v -0.000484 0.665923 0.497820
v -0.000093 0.666627 0.497820
v -0.001540 0.649619 0.497820
v -0.003089 0.649288 0.497820
v 0.003184 0.657136 0.497820
v -0.003387 0.651232 0.497820
v -0.003089 0.649288 0.497820
v -0.003663 0.650541 0.497820
v -0.012236 0.664813 0.497820
v -0.012711 0.653183 0.497820
v -0.012924 0.663712 0.497820
v 0.002402 0.668117 0.497820
v 0.000430 0.664969 0.497820
v -0.000093 0.666627 0.497820
v -0.003089 0.649288 0.497820
v -0.003295 0.657136 0.497820
v 0.003184 0.657136 0.497820
v -0.000096 0.650173 0.497820
v -0.001540 0.649619 0.497820
v 0.003184 0.657136 0.497820
v -0.003295 0.652198 0.497820
v -0.003089 0.649288 0.497820
v -0.003387 0.651232 0.497820
v -0.012924 0.663712 0.497820
v -0.012711 0.653183 0.497820
v -0.013480 0.662497 0.497820
v -0.012711 0.653183 0.497820
v -0.013536 0.654767 0.497820
v -0.013480 0.662497 0.497820
v 0.001120 0.663976 0.497820
v 0.000430 0.664969 0.497820
v 0.002402 0.668117 0.497820
v 0.002402 0.661143 0.497820
v 0.001860 0.661143 0.497820
v 0.002402 0.668117 0.497820
v 0.003184 0.657136 0.497820
v -0.003295 0.657136 0.497820
v 0.004368 0.657735 0.497820
v -0.003295 0.657136 0.497820
v -0.003089 0.649288 0.497820
v -0.003295 0.652198 0.497820
v 0.001243 0.650947 0.497820
v -0.000096 0.650173 0.497820
v 0.003184 0.657136 0.497820
v -0.013480 0.662497 0.497820
v -0.013536 0.654767 0.497820
v -0.013878 0.661223 0.497820
v 0.001539 0.663113 0.497820
v 0.001120 0.663976 0.497820
v 0.002402 0.668117 0.497820
v 0.001860 0.661143 0.497820
v 0.001761 0.662221 0.497820
v 0.002402 0.668117 0.497820
v 0.004368 0.657735 0.497820
v -0.003295 0.657136 0.497820
v -0.004568 0.657735 0.497820
v 0.004368 0.657136 0.497820
v 0.003184 0.657136 0.497820
v 0.004368 0.657735 0.497820
v 0.003184 0.648884 0.497820
v 0.001243 0.650947 0.497820
v 0.003184 0.657136 0.497820
v -0.013536 0.654767 0.497820
v -0.014031 0.656537 0.497820
v -0.013878 0.661223 0.497820
v 0.001761 0.662221 0.497820
v 0.001539 0.663113 0.497820
v 0.002402 0.668117 0.497820
v -0.004568 0.657136 0.497820
v -0.004568 0.657735 0.497820
v -0.003295 0.657136 0.497820
v -0.013878 0.661223 0.497820
v -0.014031 0.656537 0.497820
v -0.014117 0.659888 0.497820
v -0.014197 0.658494 0.497820
v -0.014117 0.659888 0.497820
v -0.014031 0.656537 0.497820
v -0.007345 0.667886 0.497820
v -0.005633 0.666773 0.497820
v -0.004920 0.668144 0.497820
v -0.008476 0.667564 0.497820
v -0.006734 0.649340 0.497820
v -0.007345 0.667886 0.497820
v -0.007345 0.667886 0.497820
v -0.005949 0.666004 0.497820
v -0.005633 0.666773 0.497820
v -0.004920 0.668144 0.497820
v -0.005633 0.666773 0.497820
v -0.005013 0.667172 0.497820
v -0.008476 0.667564 0.497820
v -0.008533 0.649829 0.497820
v -0.006734 0.649340 0.497820
v -0.007345 0.667886 0.497820
v -0.006734 0.649340 0.497820
v -0.006055 0.664763 0.497820
v -0.007345 0.667886 0.497820
v -0.006055 0.664763 0.497820
v -0.005949 0.666004 0.497820
v -0.004920 0.668144 0.497820
v -0.005013 0.667172 0.497820
v -0.004000 0.667305 0.497820
v -0.004920 0.668144 0.497820
v -0.004000 0.667305 0.497820
v -0.003574 0.668049 0.497820
v -0.009552 0.667112 0.497820
v -0.008533 0.649829 0.497820
v -0.008476 0.667564 0.497820
v -0.006055 0.664763 0.497820
v -0.006734 0.649340 0.497820
v -0.006055 0.651932 0.497820
v -0.003574 0.668049 0.497820
v -0.004000 0.667305 0.497820
v -0.002770 0.667146 0.497820
v -0.009552 0.667112 0.497820
v -0.010140 0.650644 0.497820
v -0.008533 0.649829 0.497820
v -0.006734 0.649340 0.497820
v -0.005974 0.651082 0.497820
v -0.006055 0.651932 0.497820
v -0.003574 0.668049 0.497820
v -0.002770 0.667146 0.497820
v -0.002321 0.667765 0.497820
v -0.010550 0.666513 0.497820
v -0.010140 0.650644 0.497820
v -0.009552 0.667112 0.497820
v -0.005974 0.651082 0.497820
v -0.006734 0.649340 0.497820
v -0.005733 0.650475 0.497820
v -0.002321 0.667765 0.497820
v -0.002770 0.667146 0.497820
v -0.001574 0.666666 0.497820
v -0.005733 0.650475 0.497820
v -0.006734 0.649340 0.497820
v -0.004744 0.649177 0.497820
v -0.011444 0.665746 0.497820
v -0.010140 0.650644 0.497820
v -0.010550 0.666513 0.497820
v -0.002321 0.667765 0.497820
v -0.001574 0.666666 0.497820
v -0.001161 0.667290 0.497820
v -0.005733 0.650475 0.497820
v -0.004744 0.649177 0.497820
v -0.005332 0.650110 0.497820
v -0.011444 0.665746 0.497820
v -0.011556 0.651786 0.497820
v -0.010140 0.650644 0.497820
v -0.001161 0.667290 0.497820
v -0.001574 0.666666 0.497820
v -0.000484 0.665923 0.497820
v -0.004124 0.650127 0.497820
v -0.004744 0.649177 0.497820
v -0.003089 0.649288 0.497820
v -0.005332 0.650110 0.497820
v -0.004744 0.649177 0.497820
v -0.004769 0.649989 0.497820
v -0.012236 0.664813 0.497820
v -0.011556 0.651786 0.497820
v -0.011444 0.665746 0.497820
v -0.001161 0.667290 0.497820
v -0.000484 0.665923 0.497820
v -0.000093 0.666627 0.497820
v -0.004769 0.649989 0.497820
v -0.004744 0.649177 0.497820
v -0.004124 0.650127 0.497820
v -0.004124 0.650127 0.497820
v -0.003089 0.649288 0.497820
v -0.003663 0.650541 0.497820
v -0.012236 0.664813 0.497820
v -0.012711 0.653183 0.497820
v -0.011556 0.651786 0.497820
v -0.000093 0.666627 0.497820
v -0.000484 0.665923 0.497820
v 0.000430 0.664969 0.497820
v 0.003184 0.657136 0.497820
v -0.003089 0.649288 0.497820
v -0.001540 0.649619 0.497820
v -0.003663 0.650541 0.497820
v -0.003089 0.649288 0.497820
v -0.003387 0.651232 0.497820
v -0.012924 0.663712 0.497820
v -0.012711 0.653183 0.497820
v -0.012236 0.664813 0.497820
v -0.000093 0.666627 0.497820
v 0.000430 0.664969 0.497820
v 0.002402 0.668117 0.497820
v 0.003184 0.657136 0.497820
v -0.003295 0.657136 0.497820
v -0.003089 0.649288 0.497820
v 0.003184 0.657136 0.497820
v -0.001540 0.649619 0.497820
v -0.000096 0.650173 0.497820
v -0.003387 0.651232 0.497820
v -0.003089 0.649288 0.497820
v -0.003295 0.652198 0.497820
v -0.013480 0.662497 0.497820
v -0.012711 0.653183 0.497820
v -0.012924 0.663712 0.497820
v -0.013480 0.662497 0.497820
v -0.013536 0.654767 0.497820
v -0.012711 0.653183 0.497820
v 0.002402 0.668117 0.497820
v 0.000430 0.664969 0.497820
v 0.001120 0.663976 0.497820
v 0.002402 0.668117 0.497820
v 0.001860 0.661143 0.497820
v 0.002402 0.661143 0.497820
v 0.004368 0.657735 0.497820
v -0.003295 0.657136 0.497820
v 0.003184 0.657136 0.497820
v -0.003295 0.652198 0.497820
v -0.003089 0.649288 0.497820
v -0.003295 0.657136 0.497820
v 0.003184 0.657136 0.497820
v -0.000096 0.650173 0.497820
v 0.001243 0.650947 0.497820
v -0.013878 0.661223 0.497820
v -0.013536 0.654767 0.497820
v -0.013480 0.662497 0.497820
v 0.002402 0.668117 0.497820
v 0.001120 0.663976 0.497820
v 0.001539 0.663113 0.497820
v 0.002402 0.668117 0.497820
v 0.001761 0.662221 0.497820
v 0.001860 0.661143 0.497820
v -0.004568 0.657735 0.497820
v -0.003295 0.657136 0.497820
v 0.004368 0.657735 0.497820
v 0.004368 0.657735 0.497820
v 0.003184 0.657136 0.497820
v 0.004368 0.657136 0.497820
v 0.003184 0.657136 0.497820
v 0.001243 0.650947 0.497820
v 0.003184 0.648884 0.497820
v -0.013878 0.661223 0.497820
v -0.014031 0.656537 0.497820
v -0.013536 0.654767 0.497820
v 0.002402 0.668117 0.497820
v 0.001539 0.663113 0.497820
v 0.001761 0.662221 0.497820
v -0.003295 0.657136 0.497820
v -0.004568 0.657735 0.497820
v -0.004568 0.657136 0.497820
v -0.014117 0.659888 0.497820
v -0.014031 0.656537 0.497820
v -0.013878 0.661223 0.497820
v -0.014031 0.656537 0.497820
v -0.014117 0.659888 0.497820
v -0.014197 0.658494 0.497820
vt -2.586111068725586 1.1996829509735107
vt -2.586751937866211 1.1985139846801758
vt -2.5882930755615234 1.1994630098342896
vt -2.5877439975738525 1.1836539506912231
vt -2.589310884475708 1.199187994003296
vt -2.5870370864868164 1.1978590488433838
vt -2.5861940383911133 1.1988539695739746
vt -2.5893630981445312 1.1840709447860718
vt -2.587131977081299 1.196800947189331
vt -2.585283041000366 1.1989680528640747
vt -2.5848989486694336 1.1996020078659058
vt -2.590280055999756 1.1988029479980469
vt -2.587131977081299 1.1858630180358887
vt -2.5841751098632812 1.1988320350646973
vt -2.5908100605010986 1.1847660541534424
vt -2.58705997467041 1.1851389408111572
vt -2.583770990371704 1.1993590593338013
vt -2.5911779403686523 1.1982920169830322
vt -2.5868430137634277 1.184620976448059
vt -2.5830979347229004 1.1984230279922485
vt -2.585952043533325 1.183514952659607
vt -2.5919840335845947 1.197638988494873
vt -2.582726001739502 1.1989550590515137
vt -2.5864810943603516 1.184309959411621
vt -2.5920839309692383 1.1857390403747559
vt -2.5821170806884766 1.197788953781128
vt -2.5844619274139404 1.1836090087890625
vt -2.5853939056396484 1.1843249797821045
vt -2.585974931716919 1.1842069625854492
vt -2.592695951461792 1.1968430280685425
vt -2.5817649364471436 1.1983890533447266
vt -2.5849790573120117 1.1846779584884644
vt -2.5931239128112793 1.1869299411773682
vt -2.581294059753418 1.1969770193099976
vt -2.583066940307617 1.183892011642456
vt -2.57881498336792 1.1902999877929688
vt -2.5847299098968506 1.1852660179138184
vt -2.5933148860931396 1.195904016494751
vt -2.579519033432007 1.1996599435806274
vt -2.5846469402313232 1.1902999877929688
vt -2.5817670822143555 1.1843639612197876
vt -2.5846469402313232 1.1860899925231934
vt -2.5938169956207275 1.194869041442871
vt -2.593867063522339 1.1882799863815308
vt -2.5806729793548584 1.1961300373077393
vt -2.579519033432007 1.19371497631073
vt -2.5800070762634277 1.19371497631073
vt -2.577749013900757 1.190809965133667
vt -2.5805630683898926 1.1850240230560303
vt -2.594175100326538 1.1937830448150635
vt -2.580296039581299 1.1953940391540527
vt -2.5800960063934326 1.194633960723877
vt -2.5857930183410645 1.190809965133667
vt -2.577749013900757 1.1902999877929688
vt -2.57881498336792 1.183264970779419
vt -2.594312906265259 1.189789056777954
vt -2.5857930183410645 1.1902999877929688
vt -2.5943899154663086 1.1926449537277222
vt -2.594460964202881 1.1914570331573486
vt 0 0
vn 0 0 -1
vn 0 0 1
usemtl material_0_0
f 1/1/1 2/2/1 3/3/1
f 4/3/1 5/4/1 6/5/1
f 7/2/1 8/6/1 9/3/1
f 10/7/1 11/2/1 12/1/1
f 13/4/1 14/8/1 15/5/1
f 16/9/1 17/4/1 18/3/1
f 19/6/1 20/9/1 21/3/1
f 22/10/1 23/7/1 24/1/1
f 25/11/1 26/10/1 27/1/1
f 28/5/1 29/8/1 30/12/1
f 31/13/1 32/4/1 33/9/1
f 34/14/1 35/10/1 36/11/1
f 37/8/1 38/15/1 39/12/1
f 40/13/1 41/16/1 42/4/1
f 43/17/1 44/14/1 45/11/1
f 46/12/1 47/15/1 48/18/1
f 49/19/1 50/4/1 51/16/1
f 52/20/1 53/14/1 54/17/1
f 55/21/1 56/4/1 57/19/1
f 58/18/1 59/15/1 60/22/1
f 61/23/1 62/20/1 63/17/1
f 64/24/1 65/21/1 66/19/1
f 67/15/1 68/25/1 69/22/1
f 70/26/1 71/20/1 72/23/1
f 73/27/1 74/21/1 75/28/1
f 76/29/1 77/21/1 78/24/1
f 79/22/1 80/25/1 81/30/1
f 82/31/1 83/26/1 84/23/1
f 85/28/1 86/21/1 87/29/1
f 88/32/1 89/27/1 90/28/1
f 91/25/1 92/33/1 93/30/1
f 94/34/1 95/26/1 96/31/1
f 97/35/1 98/27/1 99/36/1
f 100/37/1 101/27/1 102/32/1
f 103/30/1 104/33/1 105/38/1
f 106/39/1 107/34/1 108/31/1
f 109/27/1 110/40/1 111/36/1
f 112/41/1 113/35/1 114/36/1
f 115/42/1 116/27/1 117/37/1
f 118/38/1 119/33/1 120/43/1
f 121/33/1 122/44/1 123/43/1
f 124/45/1 125/34/1 126/39/1
f 127/46/1 128/47/1 129/39/1
f 130/36/1 131/40/1 132/48/1
f 133/40/1 134/27/1 135/42/1
f 136/49/1 137/41/1 138/36/1
f 139/43/1 140/44/1 141/50/1
f 142/51/1 143/45/1 144/39/1
f 145/47/1 146/52/1 147/39/1
f 148/48/1 149/40/1 150/53/1
f 151/54/1 152/36/1 153/48/1
f 154/55/1 155/49/1 156/36/1
f 157/44/1 158/56/1 159/50/1
f 160/52/1 161/51/1 162/39/1
f 163/57/1 164/53/1 165/40/1
f 166/50/1 167/56/1 168/58/1
f 169/59/1 170/58/1 171/56/1
usemtl material_1_0
f 172/60/2 173/60/2 174/60/2
f 175/60/2 176/60/2 177/60/2
f 178/60/2 179/60/2 180/60/2
f 181/60/2 182/60/2 183/60/2
f 184/60/2 185/60/2 186/60/2
f 187/60/2 188/60/2 189/60/2
f 190/60/2 191/60/2 192/60/2
f 193/60/2 194/60/2 195/60/2
f 196/60/2 197/60/2 198/60/2
f 199/60/2 200/60/2 201/60/2
f 202/60/2 203/60/2 204/60/2
f 205/60/2 206/60/2 207/60/2
f 208/60/2 209/60/2 210/60/2
f 211/60/2 212/60/2 213/60/2
f 214/60/2 215/60/2 216/60/2
f 217/60/2 218/60/2 219/60/2
f 220/60/2 221/60/2 222/60/2
f 223/60/2 224/60/2 225/60/2
f 226/60/2 227/60/2 228/60/2
f 229/60/2 230/60/2 231/60/2
f 232/60/2 233/60/2 234/60/2
f 235/60/2 236/60/2 237/60/2
f 238/60/2 239/60/2 240/60/2
f 241/60/2 242/60/2 243/60/2
f 244/60/2 245/60/2 246/60/2
f 247/60/2 248/60/2 249/60/2
f 250/60/2 251/60/2 252/60/2
f 253/60/2 254/60/2 255/60/2
f 256/60/2 257/60/2 258/60/2
f 259/60/2 260/60/2 261/60/2
f 262/60/2 263/60/2 264/60/2
f 265/60/2 266/60/2 267/60/2
f 268/60/2 269/60/2 270/60/2
f 271/60/2 272/60/2 273/60/2
f 274/60/2 275/60/2 276/60/2
f 277/60/2 278/60/2 279/60/2
f 280/60/2 281/60/2 282/60/2
f 283/60/2 284/60/2 285/60/2
f 286/60/2 287/60/2 288/60/2
f 289/60/2 290/60/2 291/60/2
f 292/60/2 293/60/2 294/60/2
f 295/60/2 296/60/2 297/60/2
f 298/60/2 299/60/2 300/60/2
f 301/60/2 302/60/2 303/60/2
f 304/60/2 305/60/2 306/60/2
f 307/60/2 308/60/2 309/60/2
f 310/60/2 311/60/2 312/60/2
f 313/60/2 314/60/2 315/60/2
f 316/60/2 317/60/2 318/60/2
f 319/60/2 320/60/2 321/60/2
f 322/60/2 323/60/2 324/60/2
f 325/60/2 326/60/2 327/60/2
f 328/60/2 329/60/2 330/60/2
f 331/60/2 332/60/2 333/60/2
f 334/60/2 335/60/2 336/60/2
f 337/60/2 338/60/2 339/60/2
f 340/60/2 341/60/2 342/60/2
