# SSTK version 0.8.0
# 41
mtllib original-41.mtl
o D_-_Tray_Base1/D_-_Tray_Base/mesh13/mesh13-geometry#mesh13-geometry
v -0.300996 -0.112568 -0.453830
v 0.329967 -0.127017 -0.453830
v -0.300996 -0.127017 -0.453830
v 0.329967 -0.112568 -0.453830
v -0.300996 -0.127017 0.598577
v -0.300996 -0.112568 0.598577
v 0.329967 -0.127017 0.598577
v 0.329967 -0.112568 0.598577
vn 0 0 -1
vn 0 -1 0
vn -1 0 0
vn 0 1 0
vn 1 0 0
vn 0 0 1
usemtl material_0_0
f 1//1 2//1 3//1
f 2//1 1//1 4//1
f 2//2 5//2 3//2
f 5//3 1//3 3//3
f 6//4 4//4 1//4
f 4//5 7//5 2//5
f 5//2 2//2 7//2
f 1//3 5//3 6//3
f 4//4 6//4 8//4
f 7//5 4//5 8//5
f 8//6 5//6 7//6
f 5//6 8//6 6//6
usemtl material_1_0
f 3//6 2//6 1//6
f 4//6 1//6 2//6
f 3//4 5//4 2//4
f 3//5 1//5 5//5
f 1//2 4//2 6//2
f 2//3 7//3 4//3
f 7//4 2//4 5//4
f 6//5 5//5 1//5
f 8//2 6//2 4//2
f 8//3 4//3 7//3
f 7//1 5//1 8//1
f 6//1 8//1 5//1
