# SSTK version 0.8.0
# 17
mtllib original-17.mtl
o Hardware_Cage_1_1/Hardware_Cage_1/mesh23/mesh23-geometry#mesh23-geometry
v 0.053368 -0.882022 -0.010548
v 0.028831 -0.882022 0.013989
v 0.028831 -0.882022 -0.010548
v 0.053368 -0.882022 0.013989
v 0.028831 -0.857485 -0.010548
v 0.053368 -0.857485 0.013989
v 0.028831 -0.857485 0.013989
v 0.053368 -0.857485 -0.010548
vn 0 -1 0
vn -1 0 0
vn 0 0 -1
vn 1 0 0
vn 0 0 1
vn 0 1 0
usemtl material_0_0
f 1//1 2//1 3//1
f 2//1 1//1 4//1
f 2//2 5//2 3//2
f 5//3 1//3 3//3
f 1//4 6//4 4//4
f 6//5 2//5 4//5
f 5//2 2//2 7//2
f 1//3 5//3 8//3
f 6//4 1//4 8//4
f 2//5 6//5 7//5
f 6//6 5//6 7//6
f 5//6 6//6 8//6
usemtl material_1_0
f 3//6 2//6 1//6
f 4//6 1//6 2//6
f 3//4 5//4 2//4
f 3//5 1//5 5//5
f 4//2 6//2 1//2
f 4//3 2//3 6//3
f 7//4 2//4 5//4
f 8//5 5//5 1//5
f 8//2 1//2 6//2
f 7//3 6//3 2//3
f 7//1 5//1 6//1
f 8//1 6//1 5//1
