# SSTK version 0.8.0
# 34
mtllib original-34.mtl
o Divider_End_Cap2/Divider_End_Cap12/mesh78/mesh78-geometry#mesh78-geometry
v -0.276511 0.104550 0.234312
v -0.276511 0.082321 0.243574
v -0.276511 0.082321 0.234312
v -0.276511 0.104550 0.243574
v -0.276511 0.082321 0.260197
v -0.298740 0.082321 0.234312
v -0.298740 0.104550 0.234312
v -0.298740 0.104550 0.243574
v -0.276511 0.082321 0.213935
v -0.298740 0.082321 0.243574
v -0.298740 0.082321 0.213935
v -0.276511 0.082321 0.204673
v -0.298740 0.082321 0.261824
v -0.298740 0.082321 0.184295
v -0.276511 0.082321 0.184295
v -0.276511 0.104550 0.204673
v -0.298740 0.104550 0.213935
v -0.276511 -0.043647 0.260197
v -0.298740 0.082321 0.204673
v -0.282994 0.082321 0.199115
v -0.276511 0.104550 0.213935
v -0.298740 -0.021417 0.224116
v -0.298740 -0.043647 0.261824
v -0.292256 0.082321 0.199115
v -0.276511 -0.043647 0.184295
v -0.282994 0.082321 0.184295
v -0.298740 0.104550 0.204673
v -0.298740 -0.043647 0.184295
v -0.298740 -0.021417 0.253906
v -0.298740 -0.043647 0.253906
v -0.292256 0.082321 0.184295
v -0.283920 -0.043647 0.256023
v -0.282994 -0.043647 0.184295
v -0.292256 -0.043647 0.199115
v -0.298740 -0.043647 0.224116
v -0.283920 -0.021417 0.221999
v -0.283920 -0.043647 0.221999
v -0.282994 -0.043647 0.199115
v -0.292256 -0.043647 0.184295
v -0.283920 -0.021417 0.256023
vt -0.138889 0.214866
vt -0.118056 0.142528
vt -0.118056 0.214866
vt -0.138889 0.142528
vt -0.118056 0.012704
vt -0.118056 0
vt -0.138889 -0.173611
vt -0.118056 -0.173611
vt 0.025784 0
vt 0.017103 -0.173611
vt 0.025784 -0.173611
vt 0.138889 0
vt 0.118056 -0.173611
vt 0.138889 -0.173611
vt -0.118056 0.37401
vt 0.017103 0
vt 0.001524 -0.173611
vt -0.138889 0
vt 0.044881 0
vt 0.118056 0
vt -0.118056 0.446347
vt 0.044881 -0.173611
vt 0 0
vt 0.118056 0.214866
vt 0.138889 0.142528
vt 0.138889 0.214866
vt 0.118056 0.605491
vt 0.118056 0.37401
vt 0.118056 0.142528
vt -0.118056 0.605491
vt -0.138889 0.446347
vt 0 -0.174075
vt 0.118056 -0.174075
vt 0.118056 0.446347
vt 0 0.012704
vt 0.05877 -0.122975
vt 0.053562 -0.173611
vt 0.072659 -0.173611
vt -0.138889 0.37401
vt 0.138889 0.37401
vt 0.020833 0.294497
vt 0.053562 0
vt 0.05877 -0.050637
vt 0.072659 0
vt 0 0.605491
vt 0.072659 -0.122975
vt 0.138889 0.446347
vt 0.020833 0.061841
vt -0.007421 0
vt -0.001524 -0.173611
vt 0.072659 -0.050637
vt -0.005437 -0.115741
vt -0.072659 -0.173611
vt 0 -0.122975
vt 0 -0.173611
vt -0.118056 -0.122975
vt 0 -0.050637
vt -0.118056 -0.050637
vt 0.118056 0.48975
vt 0 0.294497
vt -0.037324 -0.115741
vt -0.03534 0
vt 0 0.061841
vt 0 0.48975
vt -0.118056 0.48975
vt -0.05877 -0.122975
vt -0.072659 -0.122975
vt -0.072659 0
vt 0 -0.158564
vt 0.020833 -0.041648
vt 0 -0.041648
vt 0.020833 -0.158564
vt -0.020833 -0.10817
vt 0 0.008746
vt -0.020833 0.008746
vt 0 -0.10817
vt 0.020833 0.045306
vt 0 0.311032
vt 0 0.045306
vt -0.05877 -0.050637
vt -0.072659 -0.050637
vt 0.020833 0.311032
vn 1 0 0
vn -1 0 0
vn 0 0 -1
vn 0 0 1
vn 0 1 0
vn 0 -1 0
vn 0.0729800294369022 0 0.9973334022799941
vn -0.0729800294369022 0 -0.9973334022799941
vn 0.14142107623715292 0 0.9899495336611486
vn -0.14142107623715292 0 -0.9899495336611486
vn 0.14142107623715292 0 -0.9899495336611486
vn -0.14142107623715292 0 0.9899495336611486
usemtl material_0_0
f 1/1/1 2/2/1 3/3/1
f 2/2/1 1/1/1 4/4/1
f 3/3/2 2/2/2 1/1/2
f 4/4/2 1/1/2 2/2/2
f 5/5/1 3/3/1 2/2/1
f 2/2/2 3/3/2 5/5/2
f 6/6/3 1/7/3 3/8/3
f 3/8/4 1/7/4 6/6/4
f 7/9/5 4/10/5 1/11/5
f 1/11/6 4/10/6 7/9/6
f 8/12/4 2/13/4 4/14/4
f 4/14/3 2/13/3 8/12/3
f 5/5/1 9/15/1 3/3/1
f 3/3/2 9/15/2 5/5/2
f 10/16/5 5/17/5 2/10/5
f 2/10/6 5/17/6 10/16/6
f 1/7/3 6/6/3 7/18/3
f 7/18/4 6/6/4 1/7/4
f 3/11/5 11/19/5 6/9/5
f 6/9/6 11/19/6 3/11/6
f 4/10/5 7/9/5 8/16/5
f 8/16/6 7/9/6 4/10/6
f 2/13/4 8/12/4 10/20/4
f 10/20/3 8/12/3 2/13/3
f 5/5/1 12/21/1 9/15/1
f 9/15/2 12/21/2 5/5/2
f 11/19/5 3/11/5 9/22/5
f 9/22/6 3/11/6 11/19/6
f 5/17/5 10/16/5 13/23/5
f 13/23/6 10/16/6 5/17/6
f 6/24/2 8/25/2 7/26/2
f 7/26/1 8/25/1 6/24/1
f 14/27/2 6/24/2 11/28/2
f 11/28/1 6/24/1 14/27/1
f 8/25/2 6/24/2 10/29/2
f 10/29/1 6/24/1 8/25/1
f 5/5/1 15/30/1 12/21/1
f 12/21/2 15/30/2 5/5/2
f 16/31/1 9/15/1 12/21/1
f 12/21/2 9/15/2 16/31/2
f 9/13/4 17/12/4 11/20/4
f 11/20/3 17/12/3 9/13/3
f 14/27/2 13/20/2 10/29/2
f 10/29/1 13/20/1 14/27/1
f 13/20/7 18/32/7 5/33/7
f 5/33/8 18/32/8 13/20/8
f 14/27/2 10/29/2 6/24/2
f 6/24/1 10/29/1 14/27/1
f 14/27/2 11/28/2 19/34/2
f 19/34/1 11/28/1 14/27/1
f 18/35/1 15/30/1 5/5/1
f 5/5/2 15/30/2 18/35/2
f 20/36/5 12/37/5 15/38/5
f 15/38/6 12/37/6 20/36/6
f 9/15/1 16/31/1 21/39/1
f 21/39/2 16/31/2 9/15/2
f 19/6/3 16/7/3 12/8/3
f 12/8/4 16/7/4 19/6/4
f 17/12/4 9/13/4 21/14/4
f 21/14/3 9/13/3 17/12/3
f 17/40/2 19/34/2 11/28/2
f 11/28/1 19/34/1 17/40/1
f 14/27/2 22/41/2 13/20/2
f 13/20/1 22/41/1 14/27/1
f 18/32/7 13/20/7 23/23/7
f 23/23/8 13/20/8 18/32/8
f 19/42/5 24/43/5 14/44/5
f 14/44/6 24/43/6 19/42/6
f 15/30/1 18/35/1 25/45/1
f 25/45/2 18/35/2 15/30/2
f 12/37/5 20/36/5 24/43/5
f 24/43/6 20/36/6 12/37/6
f 20/36/5 15/38/5 26/46/5
f 26/46/6 15/38/6 20/36/6
f 27/42/5 21/22/5 16/37/5
f 16/37/6 21/22/6 27/42/6
f 16/7/3 19/6/3 27/18/3
f 27/18/4 19/6/4 16/7/4
f 24/43/5 19/42/5 12/37/5
f 12/37/6 19/42/6 24/43/6
f 21/22/5 27/42/5 17/19/5
f 17/19/6 27/42/6 21/22/6
f 19/34/2 17/40/2 27/47/2
f 27/47/1 17/40/1 19/34/1
f 28/45/2 22/41/2 14/27/2
f 14/27/1 22/41/1 28/45/1
f 29/48/2 13/20/2 22/41/2
f 22/41/1 13/20/1 29/48/1
f 29/48/2 23/23/2 13/20/2
f 13/20/1 23/23/1 29/48/1
f 30/49/6 18/50/6 23/23/6
f 23/23/5 18/50/5 30/49/5
f 14/44/5 24/43/5 31/51/5
f 31/51/6 24/43/6 14/44/6
f 32/52/6 25/53/6 18/50/6
f 18/50/5 25/53/5 32/52/5
f 33/54/3 15/8/3 25/55/3
f 25/55/4 15/8/4 33/54/4
f 20/56/3 34/57/3 24/58/3
f 24/58/4 34/57/4 20/56/4
f 15/8/3 33/54/3 26/56/3
f 26/56/4 33/54/4 15/8/4
f 33/45/2 20/59/2 26/27/2
f 26/27/1 20/59/1 33/45/1
f 22/41/2 28/45/2 35/60/2
f 35/60/1 28/45/1 22/41/1
f 31/58/3 28/23/3 14/6/3
f 14/6/4 28/23/4 31/58/4
f 36/61/6 29/49/6 22/62/6
f 22/62/5 29/49/5 36/61/5
f 23/23/2 29/48/2 30/63/2
f 30/63/1 29/48/1 23/23/1
f 18/50/6 30/49/6 32/52/6
f 32/52/5 30/49/5 18/50/5
f 34/64/1 31/30/1 24/65/1
f 24/65/2 31/30/2 34/64/2
f 25/53/6 32/52/6 37/61/6
f 37/61/5 32/52/5 25/53/5
f 25/53/6 38/66/6 33/67/6
f 33/67/5 38/66/5 25/53/5
f 34/57/3 20/56/3 38/54/3
f 38/54/4 20/56/4 34/57/4
f 20/59/2 33/45/2 38/64/2
f 38/64/1 33/45/1 20/59/1
f 28/68/6 37/61/6 35/62/6
f 35/62/5 37/61/5 28/68/5
f 37/69/9 22/70/9 35/71/9
f 35/71/10 22/70/10 37/69/10
f 28/23/3 31/58/3 39/57/3
f 39/57/4 31/58/4 28/23/4
f 29/49/6 36/61/6 40/52/6
f 40/52/5 36/61/5 29/49/5
f 22/70/9 37/69/9 36/72/9
f 36/72/10 37/69/10 22/70/10
f 40/73/11 30/74/11 29/75/11
f 29/75/12 30/74/12 40/73/12
f 30/74/11 40/73/11 32/76/11
f 32/76/12 40/73/12 30/74/12
f 31/30/1 34/64/1 39/45/1
f 39/45/2 34/64/2 31/30/2
f 40/77/2 37/78/2 32/79/2
f 32/79/1 37/78/1 40/77/1
f 25/53/6 37/61/6 38/66/6
f 38/66/5 37/61/5 25/53/5
f 38/66/6 37/61/6 34/80/6
f 34/80/5 37/61/5 38/66/5
f 37/61/6 28/68/6 34/80/6
f 34/80/5 28/68/5 37/61/5
f 34/80/6 28/68/6 39/81/6
f 39/81/5 28/68/5 34/80/5
f 37/78/2 40/77/2 36/82/2
f 36/82/1 40/77/1 37/78/1
