# SSTK version 0.8.0
# 19
mtllib original-19.mtl
o mesh30/mesh30-geometry#mesh30-geometry
v 0.319913 -0.933871 -0.295660
v 0.317278 -0.942796 -0.290395
v 0.320087 -0.942796 -0.295612
v 0.317125 -0.933871 -0.290491
v 0.320873 -0.933871 -0.301389
v 0.318728 -0.927294 -0.296027
v 0.312896 -0.942796 -0.286250
v 0.321058 -0.942796 -0.301389
v 0.319627 -0.927294 -0.301389
v 0.316113 -0.927294 -0.291187
v 0.312794 -0.933871 -0.286395
v 0.319913 -0.933871 -0.307118
v 0.318728 -0.927294 -0.306751
v 0.316604 -0.921172 -0.296674
v 0.317390 -0.921172 -0.301389
v 0.307381 -0.942796 -0.283593
v 0.320087 -0.942796 -0.307176
v 0.316604 -0.921172 -0.306103
v 0.314316 -0.921172 -0.292423
v 0.312059 -0.927294 -0.287351
v 0.307330 -0.933871 -0.283758
v 0.317125 -0.933871 -0.312286
v 0.316113 -0.927294 -0.311591
v 0.314316 -0.921172 -0.310354
v 0.313683 -0.915752 -0.297573
v 0.314326 -0.915752 -0.301389
v 0.313683 -0.915752 -0.305205
v 0.301272 -0.942796 -0.282676
v 0.317278 -0.942796 -0.312393
v 0.311833 -0.915752 -0.308644
v 0.311833 -0.915752 -0.294133
v 0.310751 -0.921172 -0.289052
v 0.306941 -0.927294 -0.284878
v 0.301272 -0.933871 -0.282859
v 0.312896 -0.942796 -0.316527
v 0.312794 -0.933871 -0.316392
v 0.312059 -0.927294 -0.315436
v 0.310751 -0.921172 -0.313726
v 0.295216 -0.933871 -0.283758
v 0.308943 -0.915752 -0.311378
v 0.308943 -0.915752 -0.291409
v 0.306257 -0.921172 -0.286888
v 0.301272 -0.927294 -0.284038
v 0.295154 -0.942796 -0.283593
v 0.295604 -0.927294 -0.284878
v 0.307381 -0.942796 -0.319194
v 0.307330 -0.933871 -0.319020
v 0.306941 -0.927294 -0.317899
v 0.306257 -0.921172 -0.315899
v 0.289751 -0.933871 -0.286395
v 0.290487 -0.927294 -0.287351
v 0.305307 -0.915752 -0.313127
v 0.305307 -0.915752 -0.289651
v 0.301272 -0.921172 -0.286144
v 0.296288 -0.921172 -0.286888
v 0.289639 -0.942796 -0.286250
v 0.291794 -0.921172 -0.289052
v 0.301272 -0.942796 -0.320102
v 0.301272 -0.933871 -0.319928
v 0.301272 -0.927294 -0.318749
v 0.301272 -0.921172 -0.316643
v 0.285420 -0.933871 -0.290491
v 0.286421 -0.927294 -0.291187
v 0.288229 -0.921172 -0.292423
v 0.301272 -0.915752 -0.313735
v 0.301272 -0.915752 -0.289042
v 0.297238 -0.915752 -0.289651
v 0.293601 -0.915752 -0.291409
v 0.285267 -0.942796 -0.290395
v 0.290711 -0.915752 -0.294133
v 0.295154 -0.942796 -0.319194
v 0.295216 -0.933871 -0.319020
v 0.295604 -0.927294 -0.317899
v 0.296288 -0.921172 -0.315899
v 0.282448 -0.942796 -0.295612
v 0.282631 -0.933871 -0.295660
v 0.283817 -0.927294 -0.296027
v 0.285931 -0.921172 -0.296674
v 0.297238 -0.915752 -0.313127
v 0.288862 -0.915752 -0.297573
v 0.289751 -0.933871 -0.316392
v 0.290487 -0.927294 -0.315436
v 0.291794 -0.921172 -0.313726
v 0.293601 -0.915752 -0.311378
v 0.281488 -0.942796 -0.301389
v 0.281671 -0.933871 -0.301389
v 0.282917 -0.927294 -0.301389
v 0.285144 -0.921172 -0.301389
v 0.289639 -0.942796 -0.316527
v 0.288218 -0.915752 -0.301389
v 0.285420 -0.933871 -0.312286
v 0.286421 -0.927294 -0.311591
v 0.288229 -0.921172 -0.310354
v 0.290711 -0.915752 -0.308644
v 0.282448 -0.942796 -0.307176
v 0.282631 -0.933871 -0.307118
v 0.283817 -0.927294 -0.306751
v 0.285931 -0.921172 -0.306103
v 0.285267 -0.942796 -0.312393
v 0.288862 -0.915752 -0.305205
vn 0.9408519435592344 0.10324299380655623 0.32270498064125147
vn 0.7936411614242478 0.020097004087670758 0.6080541236763972
vn 0.9457546101080135 0.020397991590827707 0.3242408663301092
vn 0.7895460944293237 0.1019540121936496 0.6051630723772051
vn 0.9946039288529996 0.1037449925788097 0.00003499999749634526
vn 0.9123693105495817 0.26389408982349394 0.3129571065234192
vn 0.5673470581468356 0.019743002023440637 0.8232420843732623
vn 0.9997882891983023 0.020576005951806052 0.00006900001995891414
vn 0.9641315449063969 0.2654248747129858 0
vn 0.7662542144343563 0.2601500728023577 0.5875171644152326
vn 0.5647179293727095 0.10025498746146039 0.8191718975490442
vn 0.9408482455529564 0.103395026985175 -0.32266708421321594
vn 0.9123693105495817 0.26389408982349394 -0.3129571065234192
vn 0.8597371575752197 0.4171970764651387 0.29461605399811913
vn 0.907871793963967 0.41924790485421426 0
vn 0.2942640998636889 0.01973700669809976 0.9555203242725988
vn 0.9457712210366906 0.020703004838510175 -0.3241730757626604
vn 0.8597371575752197 0.4171970764651387 -0.29461605399811913
vn 0.723063979930275 0.4121839885592153 0.5543309846137123
vn 0.5486721300523192 0.2560730606972608 0.7958551886423736
vn 0.29278302606910905 0.09893200880880754 0.9510470846802852
vn 0.789716734902403 0.10208196573241693 -0.604918796936658
vn 0.7665181647642472 0.26026205594372537 -0.5871231262030102
vn 0.7232611320103572 0.41217407523043126 -0.5540811011314459
vn 0.824291439930229 0.490767261925993 0.2822961506634719
vn 0.8702197105232018 0.4926638361163875 0
vn 0.824291439930229 0.490767261925993 -0.2822961506634719
vn 0.00005199999468505481 0.019953997960491996 0.9998008978098556
vn 0.7936347668341079 0.02035699401921782 -0.6080538213568538
vn 0.6939140817913109 0.48569705724887274 -0.5315840626575514
vn 0.6936356934085827 0.48593078521548183 0.5317337649702716
vn 0.5182650807946819 0.40651906337409105 0.7524251172989466
vn 0.28454597524933856 0.2530309779906074 0.9246669195697009
vn 0.000019999992720233975 0.09848396415297613 0.9951386377810457
vn 0.5673470581468356 0.019743002023440637 -0.8232420843732623
vn 0.5646627289602612 0.10026595187205385 -0.8192086067775055
vn 0.548706155523923 0.2562330726260718 -0.7957802255539896
vn 0.5185407791955309 0.4065458268850994 -0.7522206796902106
vn -0.2927419116071786 0.09908597008119402 0.9510437128342963
vn 0.49787999618499457 0.4795659963253256 -0.7225869944631772
vn 0.497479140429924 0.4797631354289963 0.7227322040150436
vn 0.2694370356687507 0.40204505322373274 0.8750791158451687
vn -0.000011999997644610694 0.25177495058098814 0.9677858100406005
vn -0.29419513603424424 0.020031009262230653 0.955535441834435
vn -0.2845480986465828 0.2530380877227533 0.9246643205608328
vn 0.2942640998636889 0.01973700669809976 -0.9555203242725988
vn 0.29281488692852836 0.09891896180210406 -0.9510386327531741
vn 0.28477396946141076 0.2528219728878787 -0.9246539008419703
vn 0.26966508486766055 0.402192126575915 -0.8749412753571868
vn -0.5647020092317486 0.10036000164068534 0.8191700133917915
vn -0.5483920342756001 0.2560860160058887 0.7960440497543468
vn 0.2592389243868866 0.4749988614554398 -0.8409347547216526
vn 0.25920600723068127 0.4743820132331237 0.8412930234682899
vn -0.000010000006039000472 0.40015024165060387 0.9164495534435942
vn -0.2694498819499908 0.4020288238651804 0.8750826166132634
vn -0.5675801378263531 0.020164004896456155 0.8230711998676384
vn -0.5180976994376231 0.4065927641246279 0.7525005634542322
vn 0.000052999994580061834 0.01995399795944441 -0.9998008977573661
vn 0.000021000005195254927 0.09849802436772476 -0.9951372461900192
vn -0.000011999996697139365 0.2514829307822249 -0.9678617336072249
vn -0.000010000005190894044 0.40048920788959647 -0.9163014756421404
vn -0.789550894703131 0.10189398641111319 0.6051669192931295
vn -0.7662169020092929 0.2600549667418324 0.5876079248514149
vn -0.7227379423771904 0.41239796712013 0.5545969557828184
vn -0.000008000003397146164 0.473255200964551 -0.8809253740788731
vn -0.000007999998649244343 0.4720349202995066 0.8815798511501035
vn -0.2592199482663136 0.4743499053318643 0.8413068320966265
vn -0.4975011376411713 0.47969513271487224 0.7227621999630317
vn -0.7935792112960482 0.020481005453211795 0.6081221619168041
vn -0.6932431985372548 0.4860821392085976 0.532107152389657
vn -0.2941948549204908 0.020030990121899937 -0.95553552878637
vn -0.29277313759125695 0.0990730465602313 -0.9510354469472971
vn -0.2847760932331452 0.2528290827739798 -0.9246513027225642
vn -0.2696780394627994 0.4021750588514872 -0.8749451280333548
vn -0.9457626723717891 0.02086099277339872 0.3241878876958239
vn -0.9409051034271173 0.10335201136076376 0.32251503545182214
vn -0.912557688585179 0.26341091010972517 0.3128148932503718
vn -0.8596097883855863 0.41730489726997955 0.2948349274190207
vn -0.2592530897272506 0.474967164385689 -0.8409482910514129
vn -0.8236611853773257 0.4916181106460426 0.2826550636157691
vn -0.5646473269464247 0.10037005811704065 -0.8192064743432141
vn -0.548426071582495 0.2562460334461313 -0.7959691038926802
vn -0.5183738185971875 0.4066198577050322 -0.7522957367371622
vn -0.4979022232340139 0.47949721498214504 -0.7226173239848271
vn -0.9997782111306855 0.02106000444739956 0.00006900001457125212
vn -0.994575730854914 0.10401497185220021 0.00003499999052854883
vn -0.964315405609949 0.26475611136160654 0
vn -0.9078929926220076 0.41920199659335505 0
vn -0.5675808156787276 0.020163993451764357 -0.8230707327086461
vn -0.8695543732628166 0.49383721198337255 0
vn -0.7897216218600556 0.10202095114962573 -0.6049227103467427
vn -0.7664819573648255 0.26016598552839754 -0.5872129673365731
vn -0.722936366680286 0.4123872091667632 -0.5543462811697714
vn -0.6935219080618873 0.4858489355924684 -0.5319569294800705
vn -0.9457791462188859 0.02116600327229611 -0.3241200501094498
vn -0.9409017039900182 0.1035049674370836 -0.32247589854829206
vn -0.912557688585179 0.26341091010972517 -0.3128148932503718
vn -0.8596097883855863 0.41730489726997955 -0.2948349274190207
vn -0.7935727372108122 0.020740993131683483 -0.6081217986223242
vn -0.8236611853773257 0.4916181106460426 -0.2826550636157691
vn -0.9457546101080135 -0.020397991590827707 -0.3242408663301092
vn -0.7936411614242478 -0.020097004087670758 -0.6080541236763972
vn -0.9408519435592344 -0.10324299380655623 -0.32270498064125147
vn -0.7895460944293237 -0.1019540121936496 -0.6051630723772051
vn -0.9946039288529996 -0.1037449925788097 -0.00003499999749634526
vn -0.9123693105495817 -0.26389408982349394 -0.3129571065234192
vn -0.5673470581468356 -0.019743002023440637 -0.8232420843732623
vn -0.9997882891983023 -0.020576005951806052 -0.00006900001995891414
vn -0.9641315449063969 -0.2654248747129858 0
vn -0.7662542144343563 -0.2601500728023577 -0.5875171644152326
vn -0.5647179293727095 -0.10025498746146039 -0.8191718975490442
vn -0.9408482455529564 -0.103395026985175 0.32266708421321594
vn -0.9123693105495817 -0.26389408982349394 0.3129571065234192
vn -0.8597371575752197 -0.4171970764651387 -0.29461605399811913
vn -0.907871793963967 -0.41924790485421426 0
vn -0.2942640998636889 -0.01973700669809976 -0.9555203242725988
vn -0.9457712210366906 -0.020703004838510175 0.3241730757626604
vn -0.8597371575752197 -0.4171970764651387 0.29461605399811913
vn -0.723063979930275 -0.4121839885592153 -0.5543309846137123
vn -0.5486721300523192 -0.2560730606972608 -0.7958551886423736
vn -0.29278302606910905 -0.09893200880880754 -0.9510470846802852
vn -0.789716734902403 -0.10208196573241693 0.604918796936658
vn -0.7665181647642472 -0.26026205594372537 0.5871231262030102
vn -0.7232611320103572 -0.41217407523043126 0.5540811011314459
vn -0.824291439930229 -0.490767261925993 -0.2822961506634719
vn -0.8702197105232018 -0.4926638361163875 0
vn -0.824291439930229 -0.490767261925993 0.2822961506634719
vn -0.00005199999468505481 -0.019953997960491996 -0.9998008978098556
vn -0.7936347668341079 -0.02035699401921782 0.6080538213568538
vn -0.6939140817913109 -0.48569705724887274 0.5315840626575514
vn -0.6936356934085827 -0.48593078521548183 -0.5317337649702716
vn -0.5182650807946819 -0.40651906337409105 -0.7524251172989466
vn -0.28454597524933856 -0.2530309779906074 -0.9246669195697009
vn -0.000019999992720233975 -0.09848396415297613 -0.9951386377810457
vn -0.5673470581468356 -0.019743002023440637 0.8232420843732623
vn -0.5646627289602612 -0.10026595187205385 0.8192086067775055
vn -0.548706155523923 -0.2562330726260718 0.7957802255539896
vn -0.5185407791955309 -0.4065458268850994 0.7522206796902106
vn 0.2927419116071786 -0.09908597008119402 -0.9510437128342963
vn -0.49787999618499457 -0.4795659963253256 0.7225869944631772
vn -0.497479140429924 -0.4797631354289963 -0.7227322040150436
vn -0.2694370356687507 -0.40204505322373274 -0.8750791158451687
vn 0.000011999997644610694 -0.25177495058098814 -0.9677858100406005
vn 0.29419513603424424 -0.020031009262230653 -0.955535441834435
vn 0.2845480986465828 -0.2530380877227533 -0.9246643205608328
vn -0.2942640998636889 -0.01973700669809976 0.9555203242725988
vn -0.29281488692852836 -0.09891896180210406 0.9510386327531741
vn -0.28477396946141076 -0.2528219728878787 0.9246539008419703
vn -0.26966508486766055 -0.402192126575915 0.8749412753571868
vn 0.5647020092317486 -0.10036000164068534 -0.8191700133917915
vn 0.5483920342756001 -0.2560860160058887 -0.7960440497543468
vn -0.2592389243868866 -0.4749988614554398 0.8409347547216526
vn -0.25920600723068127 -0.4743820132331237 -0.8412930234682899
vn 0.000010000006039000472 -0.40015024165060387 -0.9164495534435942
vn 0.2694498819499908 -0.4020288238651804 -0.8750826166132634
vn 0.5675801378263531 -0.020164004896456155 -0.8230711998676384
vn 0.5180976994376231 -0.4065927641246279 -0.7525005634542322
vn -0.000052999994580061834 -0.01995399795944441 0.9998008977573661
vn -0.000021000005195254927 -0.09849802436772476 0.9951372461900192
vn 0.000011999996697139365 -0.2514829307822249 0.9678617336072249
vn 0.000010000005190894044 -0.40048920788959647 0.9163014756421404
vn 0.789550894703131 -0.10189398641111319 -0.6051669192931295
vn 0.7662169020092929 -0.2600549667418324 -0.5876079248514149
vn 0.7227379423771904 -0.41239796712013 -0.5545969557828184
vn 0.000008000003397146164 -0.473255200964551 0.8809253740788731
vn 0.000007999998649244343 -0.4720349202995066 -0.8815798511501035
vn 0.2592199482663136 -0.4743499053318643 -0.8413068320966265
vn 0.4975011376411713 -0.47969513271487224 -0.7227621999630317
vn 0.7935792112960482 -0.020481005453211795 -0.6081221619168041
vn 0.6932431985372548 -0.4860821392085976 -0.532107152389657
vn 0.2941948549204908 -0.020030990121899937 0.95553552878637
vn 0.29277313759125695 -0.0990730465602313 0.9510354469472971
vn 0.2847760932331452 -0.2528290827739798 0.9246513027225642
vn 0.2696780394627994 -0.4021750588514872 0.8749451280333548
vn 0.9457626723717891 -0.02086099277339872 -0.3241878876958239
vn 0.9409051034271173 -0.10335201136076376 -0.32251503545182214
vn 0.912557688585179 -0.26341091010972517 -0.3128148932503718
vn 0.8596097883855863 -0.41730489726997955 -0.2948349274190207
vn 0.2592530897272506 -0.474967164385689 0.8409482910514129
vn 0.8236611853773257 -0.4916181106460426 -0.2826550636157691
vn 0.5646473269464247 -0.10037005811704065 0.8192064743432141
vn 0.548426071582495 -0.2562460334461313 0.7959691038926802
vn 0.5183738185971875 -0.4066198577050322 0.7522957367371622
vn 0.4979022232340139 -0.47949721498214504 0.7226173239848271
vn 0.9997782111306855 -0.02106000444739956 -0.00006900001457125212
vn 0.994575730854914 -0.10401497185220021 -0.00003499999052854883
vn 0.964315405609949 -0.26475611136160654 0
vn 0.9078929926220076 -0.41920199659335505 0
vn 0.5675808156787276 -0.020163993451764357 0.8230707327086461
vn 0.8695543732628166 -0.49383721198337255 0
vn 0.7897216218600556 -0.10202095114962573 0.6049227103467427
vn 0.7664819573648255 -0.26016598552839754 0.5872129673365731
vn 0.722936366680286 -0.4123872091667632 0.5543462811697714
vn 0.6935219080618873 -0.4858489355924684 0.5319569294800705
vn 0.9457791462188859 -0.02116600327229611 0.3241200501094498
vn 0.9409017039900182 -0.1035049674370836 0.32247589854829206
vn 0.912557688585179 -0.26341091010972517 0.3128148932503718
vn 0.8596097883855863 -0.41730489726997955 0.2948349274190207
vn 0.7935727372108122 -0.020740993131683483 0.6081217986223242
vn 0.8236611853773257 -0.4916181106460426 0.2826550636157691
usemtl material_0_0
f 1//1 2//2 3//3
f 2//2 1//1 4//4
f 3//3 5//5 1//1
f 6//6 4//4 1//1
f 4//4 7//7 2//2
f 5//5 3//3 8//8
f 9//9 1//1 5//5
f 4//4 6//6 10//10
f 1//1 9//9 6//6
f 7//7 4//4 11//11
f 8//8 12//12 5//5
f 5//5 13//13 9//9
f 14//14 10//10 6//6
f 10//10 11//11 4//4
f 15//15 6//6 9//9
f 11//11 16//16 7//7
f 12//12 8//8 17//17
f 13//13 5//5 12//12
f 18//18 9//9 13//13
f 10//10 14//14 19//19
f 6//6 15//15 14//14
f 11//11 10//10 20//20
f 9//9 18//18 15//15
f 16//16 11//11 21//21
f 17//17 22//22 12//12
f 12//12 23//23 13//13
f 13//13 24//24 18//18
f 25//25 19//19 14//14
f 19//19 20//20 10//10
f 26//26 14//14 15//15
f 20//20 21//21 11//11
f 27//27 15//15 18//18
f 21//21 28//28 16//16
f 22//22 17//17 29//29
f 23//23 12//12 22//22
f 24//24 13//13 23//23
f 30//30 18//18 24//24
f 19//19 25//25 31//31
f 14//14 26//26 25//25
f 20//20 19//19 32//32
f 15//15 27//27 26//26
f 21//21 20//20 33//33
f 18//18 30//30 27//27
f 28//28 21//21 34//34
f 35//35 22//22 29//29
f 36//36 23//23 22//22
f 37//37 24//24 23//23
f 38//38 30//30 24//24
f 31//31 32//32 19//19
f 32//32 33//33 20//20
f 33//33 34//34 21//21
f 39//39 28//28 34//34
f 22//22 35//35 36//36
f 23//23 36//36 37//37
f 24//24 37//37 38//38
f 30//30 38//38 40//40
f 32//32 31//31 41//41
f 33//33 32//32 42//42
f 34//34 33//33 43//43
f 28//28 39//39 44//44
f 34//34 45//45 39//39
f 46//46 36//36 35//35
f 47//47 37//37 36//36
f 48//48 38//38 37//37
f 49//49 40//40 38//38
f 41//41 42//42 32//32
f 42//42 43//43 33//33
f 45//45 34//34 43//43
f 50//50 44//44 39//39
f 51//51 39//39 45//45
f 36//36 46//46 47//47
f 37//37 47//47 48//48
f 38//38 48//48 49//49
f 40//40 49//49 52//52
f 42//42 41//41 53//53
f 43//43 42//42 54//54
f 43//43 55//55 45//45
f 44//44 50//50 56//56
f 39//39 51//51 50//50
f 45//45 57//57 51//51
f 58//58 47//47 46//46
f 59//59 48//48 47//47
f 60//60 49//49 48//48
f 61//61 52//52 49//49
f 53//53 54//54 42//42
f 55//55 43//43 54//54
f 57//57 45//45 55//55
f 62//62 56//56 50//50
f 63//63 50//50 51//51
f 64//64 51//51 57//57
f 47//47 58//58 59//59
f 48//48 59//59 60//60
f 49//49 60//60 61//61
f 52//52 61//61 65//65
f 54//54 53//53 66//66
f 54//54 67//67 55//55
f 55//55 68//68 57//57
f 56//56 62//62 69//69
f 50//50 63//63 62//62
f 51//51 64//64 63//63
f 57//57 70//70 64//64
f 71//71 59//59 58//58
f 72//72 60//60 59//59
f 73//73 61//61 60//60
f 74//74 65//65 61//61
f 67//67 54//54 66//66
f 68//68 55//55 67//67
f 70//70 57//57 68//68
f 62//62 75//75 69//69
f 63//63 76//76 62//62
f 64//64 77//77 63//63
f 70//70 78//78 64//64
f 59//59 71//71 72//72
f 60//60 72//72 73//73
f 61//61 73//73 74//74
f 65//65 74//74 79//79
f 75//75 62//62 76//76
f 76//76 63//63 77//77
f 77//77 64//64 78//78
f 78//78 70//70 80//80
f 71//71 81//81 72//72
f 72//72 82//82 73//73
f 73//73 83//83 74//74
f 74//74 84//84 79//79
f 76//76 85//85 75//75
f 77//77 86//86 76//76
f 78//78 87//87 77//77
f 80//80 88//88 78//78
f 81//81 71//71 89//89
f 82//82 72//72 81//81
f 83//83 73//73 82//82
f 84//84 74//74 83//83
f 85//85 76//76 86//86
f 86//86 77//77 87//87
f 87//87 78//78 88//88
f 88//88 80//80 90//90
f 89//89 91//91 81//81
f 81//81 92//92 82//82
f 82//82 93//93 83//83
f 83//83 94//94 84//84
f 86//86 95//95 85//85
f 87//87 96//96 86//86
f 88//88 97//97 87//87
f 90//90 98//98 88//88
f 91//91 89//89 99//99
f 92//92 81//81 91//91
f 93//93 82//82 92//92
f 94//94 83//83 93//93
f 95//95 86//86 96//96
f 96//96 87//87 97//97
f 97//97 88//88 98//98
f 98//98 90//90 100//100
f 99//99 96//96 91//91
f 91//91 97//97 92//92
f 92//92 98//98 93//93
f 93//93 100//100 94//94
f 96//96 99//99 95//95
f 97//97 91//91 96//96
f 98//98 92//92 97//97
f 100//100 93//93 98//98
usemtl material_1_0
f 3//101 2//102 1//103
f 4//104 1//103 2//102
f 1//103 5//105 3//101
f 1//103 4//104 6//106
f 2//102 7//107 4//104
f 8//108 3//101 5//105
f 5//105 1//103 9//109
f 10//110 6//106 4//104
f 6//106 9//109 1//103
f 11//111 4//104 7//107
f 5//105 12//112 8//108
f 9//109 13//113 5//105
f 6//106 10//110 14//114
f 4//104 11//111 10//110
f 9//109 6//106 15//115
f 7//107 16//116 11//111
f 17//117 8//108 12//112
f 12//112 5//105 13//113
f 13//113 9//109 18//118
f 19//119 14//114 10//110
f 14//114 15//115 6//106
f 20//120 10//110 11//111
f 15//115 18//118 9//109
f 21//121 11//111 16//116
f 12//112 22//122 17//117
f 13//113 23//123 12//112
f 18//118 24//124 13//113
f 14//114 19//119 25//125
f 10//110 20//120 19//119
f 15//115 14//114 26//126
f 11//111 21//121 20//120
f 18//118 15//115 27//127
f 16//116 28//128 21//121
f 29//129 17//117 22//122
f 22//122 12//112 23//123
f 23//123 13//113 24//124
f 24//124 18//118 30//130
f 31//131 25//125 19//119
f 25//125 26//126 14//114
f 32//132 19//119 20//120
f 26//126 27//127 15//115
f 33//133 20//120 21//121
f 27//127 30//130 18//118
f 34//134 21//121 28//128
f 29//129 22//122 35//135
f 22//122 23//123 36//136
f 23//123 24//124 37//137
f 24//124 30//130 38//138
f 19//119 32//132 31//131
f 20//120 33//133 32//132
f 21//121 34//134 33//133
f 34//134 28//128 39//139
f 36//136 35//135 22//122
f 37//137 36//136 23//123
f 38//138 37//137 24//124
f 40//140 38//138 30//130
f 41//141 31//131 32//132
f 42//142 32//132 33//133
f 43//143 33//133 34//134
f 44//144 39//139 28//128
f 39//139 45//145 34//134
f 35//135 36//136 46//146
f 36//136 37//137 47//147
f 37//137 38//138 48//148
f 38//138 40//140 49//149
f 32//132 42//142 41//141
f 33//133 43//143 42//142
f 43//143 34//134 45//145
f 39//139 44//144 50//150
f 45//145 39//139 51//151
f 47//147 46//146 36//136
f 48//148 47//147 37//137
f 49//149 48//148 38//138
f 52//152 49//149 40//140
f 53//153 41//141 42//142
f 54//154 42//142 43//143
f 45//145 55//155 43//143
f 56//156 50//150 44//144
f 50//150 51//151 39//139
f 51//151 57//157 45//145
f 46//146 47//147 58//158
f 47//147 48//148 59//159
f 48//148 49//149 60//160
f 49//149 52//152 61//161
f 42//142 54//154 53//153
f 54//154 43//143 55//155
f 55//155 45//145 57//157
f 50//150 56//156 62//162
f 51//151 50//150 63//163
f 57//157 51//151 64//164
f 59//159 58//158 47//147
f 60//160 59//159 48//148
f 61//161 60//160 49//149
f 65//165 61//161 52//152
f 66//166 53//153 54//154
f 55//155 67//167 54//154
f 57//157 68//168 55//155
f 69//169 62//162 56//156
f 62//162 63//163 50//150
f 63//163 64//164 51//151
f 64//164 70//170 57//157
f 58//158 59//159 71//171
f 59//159 60//160 72//172
f 60//160 61//161 73//173
f 61//161 65//165 74//174
f 66//166 54//154 67//167
f 67//167 55//155 68//168
f 68//168 57//157 70//170
f 69//169 75//175 62//162
f 62//162 76//176 63//163
f 63//163 77//177 64//164
f 64//164 78//178 70//170
f 72//172 71//171 59//159
f 73//173 72//172 60//160
f 74//174 73//173 61//161
f 79//179 74//174 65//165
f 76//176 62//162 75//175
f 77//177 63//163 76//176
f 78//178 64//164 77//177
f 80//180 70//170 78//178
f 72//172 81//181 71//171
f 73//173 82//182 72//172
f 74//174 83//183 73//173
f 79//179 84//184 74//174
f 75//175 85//185 76//176
f 76//176 86//186 77//177
f 77//177 87//187 78//178
f 78//178 88//188 80//180
f 89//189 71//171 81//181
f 81//181 72//172 82//182
f 82//182 73//173 83//183
f 83//183 74//174 84//184
f 86//186 76//176 85//185
f 87//187 77//177 86//186
f 88//188 78//178 87//187
f 90//190 80//180 88//188
f 81//181 91//191 89//189
f 82//182 92//192 81//181
f 83//183 93//193 82//182
f 84//184 94//194 83//183
f 85//185 95//195 86//186
f 86//186 96//196 87//187
f 87//187 97//197 88//188
f 88//188 98//198 90//190
f 99//199 89//189 91//191
f 91//191 81//181 92//192
f 92//192 82//182 93//193
f 93//193 83//183 94//194
f 96//196 86//186 95//195
f 97//197 87//187 96//196
f 98//198 88//188 97//197
f 100//200 90//190 98//198
f 91//191 96//196 99//199
f 92//192 97//197 91//191
f 93//193 98//198 92//192
f 94//194 100//200 93//193
f 95//195 99//199 96//196
f 96//196 91//191 97//197
f 97//197 92//192 98//198
f 98//198 93//193 100//200
