# SSTK version 0.8.0
# 2
mtllib original-2.mtl
o #ID5
v 0.130097 0.036389 0.508968
v 0.068508 0.035129 0.531824
v 0.130097 0.035129 0.531824
v 0.068508 0.036389 0.508968
v 0.130097 0.037842 0.486124
v 0.068508 0.037842 0.486124
v 0.068508 0.031640 0.669108
v 0.068508 0.019603 -0.568303
v 0.068508 0.019603 0.669108
v 0.068508 0.031737 0.646218
v 0.068508 0.032028 0.623329
v 0.068508 0.048337 -0.568303
v 0.068508 0.032512 0.600444
v 0.068508 0.033191 0.577563
v 0.068508 0.034063 0.554689
v 0.068508 0.035129 0.531824
v 0.068508 0.036389 0.508968
v 0.068508 0.037842 0.486124
v 0.068508 0.039488 0.463293
v 0.068508 0.041328 0.440476
v 0.068508 0.042499 0.427350
v 0.068508 0.042805 0.424504
v 0.068508 0.043215 0.421672
v 0.068508 0.043729 0.418857
v 0.068508 0.044346 0.416063
v 0.068508 0.045064 0.413293
v 0.068508 0.045884 0.410551
v 0.068508 0.046803 0.407841
v 0.068508 0.047821 0.405166
v 0.068508 0.048937 0.402531
v 0.068508 0.052851 -0.568303
v 0.068508 0.050148 0.399938
v 0.068508 0.051453 0.397391
v 0.068508 0.052851 0.394894
v 0.068508 0.034063 0.554689
v 0.130097 0.034063 0.554689
v 0.130097 0.048337 -0.568303
v 0.130097 -0.043445 0.669108
v 0.130097 -0.043445 -0.568303
v 0.130097 -0.035922 0.669108
v 0.130097 0.032028 0.623329
v 0.130097 0.031737 0.646218
v 0.130097 0.031640 0.669108
v 0.130097 0.032512 0.600444
v 0.130097 0.033191 0.577563
v 0.130097 0.034063 0.554689
v 0.130097 0.035129 0.531824
v 0.130097 0.036389 0.508968
v 0.130097 0.037842 0.486124
v 0.130097 0.039488 0.463293
v 0.130097 0.041328 0.440476
v 0.130097 0.042499 0.427350
v 0.130097 0.042805 0.424504
v 0.130097 0.043215 0.421672
v 0.130097 0.043729 0.418857
v 0.130097 0.044346 0.416063
v 0.130097 0.045064 0.413293
v 0.130097 0.045884 0.410551
v 0.130097 0.046803 0.407841
v 0.130097 0.047821 0.405166
v 0.130097 0.048937 0.402531
v 0.130097 0.052851 -0.568303
v 0.130097 0.050148 0.399938
v 0.130097 0.051453 0.397391
v 0.130097 0.052851 0.394894
v 0.130097 0.039488 0.463293
v 0.068508 0.039488 0.463293
v 0.125583 0.048337 -0.568303
v 0.130097 0.052851 -0.568303
v 0.130097 0.048337 -0.568303
v 0.068508 0.052851 -0.568303
v 0.071517 0.048337 -0.568303
v 0.068508 0.048337 -0.568303
v 0.071517 0.019603 -0.568303
v 0.068508 0.048337 -0.568303
v 0.071517 0.048337 -0.568303
v 0.068508 0.019603 -0.568303
v 0.130097 0.031640 0.669108
v 0.125110 0.019603 0.669108
v 0.130097 -0.035922 0.669108
v 0.068508 0.031640 0.669108
v 0.068508 0.019603 0.669108
v 0.125110 -0.035922 0.669108
v 0.130097 0.031737 0.646218
v 0.068508 0.031640 0.669108
v 0.130097 0.031640 0.669108
v 0.068508 0.031737 0.646218
v 0.130097 0.032028 0.623329
v 0.068508 0.032028 0.623329
v 0.130097 0.032512 0.600444
v 0.068508 0.032512 0.600444
v 0.130097 0.033191 0.577563
v 0.068508 0.033191 0.577563
v 0.130097 0.041328 0.440476
v 0.068508 0.041328 0.440476
v 0.130097 0.042499 0.427350
v 0.068508 0.042499 0.427350
v 0.130097 0.042805 0.424504
v 0.068508 0.042499 0.427350
v 0.130097 0.042499 0.427350
v 0.068508 0.042805 0.424504
v 0.130097 0.043215 0.421672
v 0.068508 0.043215 0.421672
v 0.130097 0.043729 0.418857
v 0.068508 0.043729 0.418857
v 0.130097 0.044346 0.416063
v 0.068508 0.044346 0.416063
v 0.130097 0.045064 0.413293
v 0.068508 0.045064 0.413293
v 0.130097 0.045884 0.410551
v 0.068508 0.045884 0.410551
v 0.130097 0.046803 0.407841
v 0.068508 0.046803 0.407841
v 0.130097 0.047821 0.405166
v 0.068508 0.047821 0.405166
v 0.130097 0.048937 0.402531
v 0.068508 0.048937 0.402531
v 0.130097 0.050148 0.399938
v 0.068508 0.050148 0.399938
v 0.130097 0.051453 0.397391
v 0.068508 0.051453 0.397391
v 0.130097 0.052851 0.394894
v 0.068508 0.052851 0.394894
v 0.130097 0.052851 -0.568303
v 0.068508 0.052851 0.394894
v 0.130097 0.052851 0.394894
v 0.068508 0.052851 -0.568303
v -0.133212 -0.043445 -0.697097
v -0.130203 -0.043445 -0.575408
v -0.133212 -0.043445 -0.575408
v -0.096626 -0.043445 -0.780216
v 0.048735 -0.043445 -0.822474
v 0.054586 -0.043445 -0.821780
v 0.043263 -0.043445 -0.824659
v 0.038543 -0.043445 -0.828185
v 0.034897 -0.043445 -0.832813
v 0.006843 -0.043445 -0.874976
v 0.032572 -0.043445 -0.838227
v 0.031728 -0.043445 -0.844058
v 0.032422 -0.043445 -0.849909
v 0.034607 -0.043445 -0.855381
v 0.038133 -0.043445 -0.860100
v 0.042761 -0.043445 -0.863747
v 0.048175 -0.043445 -0.866071
v 0.054006 -0.043445 -0.866915
v 0.115209 -0.043445 -0.874866
v 0.105885 -0.043445 -0.882243
v 0.016183 -0.043445 -0.882333
v 0.095571 -0.043445 -0.888158
v 0.026508 -0.043445 -0.888228
v 0.084496 -0.043445 -0.892482
v 0.037592 -0.043445 -0.892530
v 0.072903 -0.043445 -0.895121
v 0.049190 -0.043445 -0.895145
v 0.061048 -0.043445 -0.896015
v -0.133212 -0.043445 -0.568303
v 0.130097 -0.043445 0.669108
v -0.133212 -0.043445 0.669108
v 0.125583 -0.043445 -0.568303
v -0.130203 -0.043445 -0.568303
v 0.125583 -0.043445 -0.575408
v 0.130097 -0.043445 -0.575408
v 0.130097 -0.043445 -0.856409
v -0.132943 -0.043445 -0.704880
v -0.132138 -0.043445 -0.712626
v -0.130799 -0.043445 -0.720298
v -0.128933 -0.043445 -0.727858
v 0.065831 -0.043445 -0.824949
v -0.126550 -0.043445 -0.735273
v -0.123661 -0.043445 -0.742504
v 0.060417 -0.043445 -0.822624
v -0.120279 -0.043445 -0.749519
v -0.116421 -0.043445 -0.756284
v -0.112105 -0.043445 -0.762767
v -0.107352 -0.043445 -0.768935
v -0.102184 -0.043445 -0.774761
v 0.070458 -0.043445 -0.828595
v 0.073985 -0.043445 -0.833315
v 0.076169 -0.043445 -0.838787
v 0.076863 -0.043445 -0.844638
v 0.076019 -0.043445 -0.850469
v 0.073695 -0.043445 -0.855883
v 0.070048 -0.043445 -0.860511
v 0.123339 -0.043445 -0.866191
v 0.065328 -0.043445 -0.864037
v 0.059856 -0.043445 -0.866221
v 0.130097 -0.043445 -0.568303
v 0.130097 -0.043445 -0.568303
v 0.125583 0.048337 -0.568303
v 0.130097 0.048337 -0.568303
v 0.125583 -0.043445 -0.568303
v 0.130097 -0.035922 0.669108
v -0.133212 -0.043445 0.669108
v 0.130097 -0.043445 0.669108
v 0.125110 -0.035922 0.669108
v -0.128650 -0.035922 0.669108
v -0.133212 -0.035922 0.669108
v 0.071517 0.019603 -0.575408
v 0.068508 0.019603 -0.568303
v 0.071517 0.019603 -0.568303
v 0.068508 0.019603 -0.575408
v -0.133212 -0.043445 0.669108
v -0.133212 0.048337 -0.568303
v -0.133212 -0.043445 -0.568303
v -0.133212 -0.035922 0.669108
v -0.133212 0.032028 0.623329
v -0.133212 0.031737 0.646218
v -0.133212 0.031640 0.669108
v -0.133212 0.032512 0.600444
v -0.133212 0.033191 0.577563
v -0.133212 0.034063 0.554689
v -0.133212 0.035129 0.531824
v -0.133212 0.036389 0.508968
v -0.133212 0.037842 0.486124
v -0.133212 0.039488 0.463293
v -0.133212 0.041328 0.440476
v -0.133212 0.042499 0.427350
v -0.133212 0.042805 0.424504
v -0.133212 0.043215 0.421672
v -0.133212 0.043729 0.418857
v -0.133212 0.044346 0.416063
v -0.133212 0.045064 0.413293
v -0.133212 0.045884 0.410551
v -0.133212 0.046803 0.407841
v -0.133212 0.047821 0.405166
v -0.133212 0.048937 0.402531
v -0.133212 0.052851 -0.568303
v -0.133212 0.050148 0.399938
v -0.133212 0.051453 0.397391
v -0.133212 0.052851 0.394894
v -0.133212 -0.043445 -0.568303
v -0.130203 0.048337 -0.568303
v -0.130203 -0.043445 -0.568303
v -0.133212 0.048337 -0.568303
v -0.130203 0.048337 -0.575408
v -0.133212 -0.043445 -0.575408
v -0.130203 -0.043445 -0.575408
v -0.133212 0.048337 -0.575408
v -0.133212 0.031640 0.669108
v -0.061500 0.019603 0.669108
v -0.061500 0.031640 0.669108
v -0.128650 0.019603 0.669108
v -0.133212 -0.035922 0.669108
v -0.128650 -0.035922 0.669108
v -0.064509 0.048337 -0.568303
v -0.061500 0.052851 -0.568303
v -0.061500 0.048337 -0.568303
v -0.133212 0.052851 -0.568303
v -0.130203 0.048337 -0.568303
v -0.133212 0.048337 -0.568303
v -0.061500 0.031640 0.669108
v -0.133212 0.031737 0.646218
v -0.133212 0.031640 0.669108
v -0.061500 0.031737 0.646218
v -0.133212 0.032028 0.623329
v -0.061500 0.032028 0.623329
v -0.133212 0.032512 0.600444
v -0.061500 0.032512 0.600444
v -0.133212 0.033191 0.577563
v -0.061500 0.033191 0.577563
v -0.133212 0.034063 0.554689
v -0.061500 0.034063 0.554689
v -0.133212 0.035129 0.531824
v -0.061500 0.035129 0.531824
v -0.133212 0.036389 0.508968
v -0.061500 0.036389 0.508968
v -0.133212 0.037842 0.486124
v -0.061500 0.037842 0.486124
v -0.133212 0.039488 0.463293
v -0.061500 0.039488 0.463293
v -0.133212 0.041328 0.440476
v -0.061500 0.041328 0.440476
v -0.133212 0.042499 0.427350
v -0.061500 0.042499 0.427350
v -0.061500 0.042499 0.427350
v -0.133212 0.042805 0.424504
v -0.133212 0.042499 0.427350
v -0.061500 0.042805 0.424504
v -0.133212 0.043215 0.421672
v -0.061500 0.043215 0.421672
v -0.133212 0.043729 0.418857
v -0.061500 0.043729 0.418857
v -0.133212 0.044346 0.416063
v -0.061500 0.044346 0.416063
v -0.133212 0.045064 0.413293
v -0.061500 0.045064 0.413293
v -0.133212 0.045884 0.410551
v -0.061500 0.045884 0.410551
v -0.133212 0.046803 0.407841
v -0.061500 0.046803 0.407841
v -0.133212 0.047821 0.405166
v -0.061500 0.047821 0.405166
v -0.133212 0.048937 0.402531
v -0.061500 0.048937 0.402531
v -0.133212 0.050148 0.399938
v -0.061500 0.050148 0.399938
v -0.133212 0.051453 0.397391
v -0.061500 0.051453 0.397391
v -0.133212 0.052851 0.394894
v -0.061500 0.052851 0.394894
v -0.061500 0.052851 0.394894
v -0.133212 0.052851 -0.568303
v -0.133212 0.052851 0.394894
v -0.061500 0.052851 -0.568303
v -0.061500 0.048337 -0.568303
v -0.061500 0.019603 0.669108
v -0.061500 0.019603 -0.568303
v -0.061500 0.032028 0.623329
v -0.061500 0.031737 0.646218
v -0.061500 0.031640 0.669108
v -0.061500 0.032512 0.600444
v -0.061500 0.033191 0.577563
v -0.061500 0.034063 0.554689
v -0.061500 0.035129 0.531824
v -0.061500 0.036389 0.508968
v -0.061500 0.037842 0.486124
v -0.061500 0.039488 0.463293
v -0.061500 0.041328 0.440476
v -0.061500 0.042499 0.427350
v -0.061500 0.042805 0.424504
v -0.061500 0.043215 0.421672
v -0.061500 0.043729 0.418857
v -0.061500 0.044346 0.416063
v -0.061500 0.045064 0.413293
v -0.061500 0.045884 0.410551
v -0.061500 0.046803 0.407841
v -0.061500 0.047821 0.405166
v -0.061500 0.048937 0.402531
v -0.061500 0.052851 -0.568303
v -0.061500 0.050148 0.399938
v -0.061500 0.051453 0.397391
v -0.061500 0.052851 0.394894
v -0.064509 0.019603 -0.568303
v -0.061500 0.048337 -0.568303
v -0.061500 0.019603 -0.568303
v -0.064509 0.048337 -0.568303
vn 0 0.998242895386776 0.05925471972616354
vn 0 0.9987089655732664 0.05079765824894188
vn 0 0.9977052121092774 0.06770753082177508
vn -1 0 0
vn 0 0.9991033893960849 0.0423369495506597
vn 1 0 0
vn 0 0.9970959541968328 0.07615548650167825
vn 0 0 -1
vn 0 0 1
vn 0 0.9999641304290877 0.008469820257738148
vn 0 0.9999910325669271 0.004234948137920484
vn 0 0.9998565243317133 0.016939030412214773
vn 0 0.9996771893168194 0.02540702972848446
vn 0 0.9994261384581934 0.033873201303450125
vn 0 0.9964151656181371 0.08459797708089947
vn 0 0.9960479621418811 0.08881698662421472
vn 0 0.9921262221787636 0.12524200279975745
vn 0 0.9942539074959488 0.10704750080706002
vn 0 0.986872892373634 0.1614988987519672
vn 0 0.9802950083061328 0.1975391016737676
vn 0 0.972401423346984 0.23331410560178192
vn 0 0.9632027098905073 0.2687760027598874
vn 0 0.9527112079621506 0.3038772025396112
vn 0 0.9409410240169318 0.3385705086418007
vn 0 0.927907937296903 0.3728094149849312
vn 0 0.913629473383845 0.40654788815631293
vn 0 0.8981247233805535 0.4397408114476122
vn 0 0.8814146067795239 0.4723434036330954
vn 0 0.8726144322250189 0.4884097180366171
vn 0 1 0
vn 0 -1 0
usemtl material_0_0
f 1//1 2//2 3//2
f 2//2 1//1 4//1
f 5//3 4//1 1//1
f 4//1 5//3 6//3
f 7//4 8//4 9//4
f 8//4 7//4 10//4
f 8//4 10//4 11//4
f 8//4 11//4 12//4
f 12//4 11//4 13//4
f 12//4 13//4 14//4
f 12//4 14//4 15//4
f 12//4 15//4 16//4
f 12//4 16//4 17//4
f 12//4 17//4 18//4
f 12//4 18//4 19//4
f 12//4 19//4 20//4
f 12//4 20//4 21//4
f 12//4 21//4 22//4
f 12//4 22//4 23//4
f 12//4 23//4 24//4
f 12//4 24//4 25//4
f 12//4 25//4 26//4
f 12//4 26//4 27//4
f 12//4 27//4 28//4
f 12//4 28//4 29//4
f 12//4 29//4 30//4
f 12//4 30//4 31//4
f 31//4 30//4 32//4
f 31//4 32//4 33//4
f 31//4 33//4 34//4
f 3//2 35//5 36//5
f 35//5 3//2 2//2
f 37//6 38//6 39//6
f 38//6 37//6 40//6
f 40//6 37//6 41//6
f 40//6 41//6 42//6
f 40//6 42//6 43//6
f 41//6 37//6 44//6
f 44//6 37//6 45//6
f 45//6 37//6 46//6
f 46//6 37//6 47//6
f 47//6 37//6 48//6
f 48//6 37//6 49//6
f 49//6 37//6 50//6
f 50//6 37//6 51//6
f 51//6 37//6 52//6
f 52//6 37//6 53//6
f 53//6 37//6 54//6
f 54//6 37//6 55//6
f 55//6 37//6 56//6
f 56//6 37//6 57//6
f 57//6 37//6 58//6
f 58//6 37//6 59//6
f 59//6 37//6 60//6
f 60//6 37//6 61//6
f 61//6 37//6 62//6
f 61//6 62//6 63//6
f 63//6 62//6 64//6
f 64//6 62//6 65//6
f 66//7 6//3 5//3
f 6//3 66//7 67//7
f 68//8 69//8 70//8
f 69//8 68//8 71//8
f 71//8 68//8 72//8
f 71//8 72//8 73//8
f 74//8 75//8 76//8
f 75//8 74//8 77//8
f 78//9 79//9 80//9
f 79//9 78//9 81//9
f 79//9 81//9 82//9
f 83//9 80//9 79//9
f 84//10 85//11 86//11
f 85//11 84//10 87//10
f 88//12 87//10 84//10
f 87//10 88//12 89//12
f 90//13 89//12 88//12
f 89//12 90//13 91//13
f 92//14 91//13 90//13
f 91//13 92//14 93//14
f 36//5 93//14 92//14
f 93//14 36//5 35//5
f 94//15 67//7 66//7
f 67//7 94//15 95//15
f 96//16 95//15 94//15
f 95//15 96//16 97//16
f 98//17 99//18 100//18
f 99//18 98//17 101//17
f 102//19 101//17 98//17
f 101//17 102//19 103//19
f 104//20 103//19 102//19
f 103//19 104//20 105//20
f 106//21 105//20 104//20
f 105//20 106//21 107//21
f 108//22 107//21 106//21
f 107//21 108//22 109//22
f 110//23 109//22 108//22
f 109//22 110//23 111//23
f 112//24 111//23 110//23
f 111//23 112//24 113//24
f 114//25 113//24 112//24
f 113//24 114//25 115//25
f 116//26 115//25 114//25
f 115//25 116//26 117//26
f 118//27 117//26 116//26
f 117//26 118//27 119//27
f 120//28 119//27 118//27
f 119//27 120//28 121//28
f 122//29 121//28 120//28
f 121//28 122//29 123//29
f 124//30 125//30 126//30
f 125//30 124//30 127//30
f 128//31 129//31 130//31
f 131//31 132//31 133//31
f 132//31 131//31 134//31
f 134//31 131//31 135//31
f 135//31 131//31 136//31
f 136//31 131//31 137//31
f 136//31 137//31 138//31
f 138//31 137//31 139//31
f 139//31 137//31 140//31
f 140//31 137//31 141//31
f 141//31 137//31 142//31
f 142//31 137//31 143//31
f 143//31 137//31 144//31
f 144//31 137//31 145//31
f 145//31 137//31 146//31
f 146//31 137//31 147//31
f 147//31 137//31 148//31
f 147//31 148//31 149//31
f 149//31 148//31 150//31
f 149//31 150//31 151//31
f 151//31 150//31 152//31
f 151//31 152//31 153//31
f 153//31 152//31 154//31
f 153//31 154//31 155//31
f 156//31 157//31 158//31
f 157//31 156//31 159//31
f 159//31 156//31 160//31
f 159//31 160//31 161//31
f 161//31 160//31 129//31
f 161//31 129//31 162//31
f 162//31 129//31 163//31
f 163//31 129//31 128//31
f 163//31 128//31 164//31
f 163//31 164//31 165//31
f 163//31 165//31 166//31
f 163//31 166//31 167//31
f 163//31 167//31 168//31
f 168//31 167//31 169//31
f 168//31 169//31 170//31
f 168//31 170//31 171//31
f 171//31 170//31 172//31
f 171//31 172//31 173//31
f 171//31 173//31 174//31
f 171//31 174//31 175//31
f 171//31 175//31 176//31
f 171//31 176//31 131//31
f 171//31 131//31 133//31
f 163//31 168//31 177//31
f 163//31 177//31 178//31
f 163//31 178//31 179//31
f 163//31 179//31 180//31
f 163//31 180//31 181//31
f 163//31 181//31 182//31
f 163//31 182//31 183//31
f 163//31 183//31 184//31
f 184//31 183//31 185//31
f 184//31 185//31 186//31
f 184//31 186//31 146//31
f 146//31 186//31 145//31
f 187//31 157//31 159//31
f 188//8 189//8 190//8
f 189//8 188//8 191//8
f 192//9 193//9 194//9
f 193//9 192//9 195//9
f 193//9 195//9 196//9
f 193//9 196//9 197//9
f 198//30 199//30 200//30
f 199//30 198//30 201//30
f 202//4 203//4 204//4
f 203//4 202//4 205//4
f 203//4 205//4 206//4
f 206//4 205//4 207//4
f 207//4 205//4 208//4
f 203//4 206//4 209//4
f 203//4 209//4 210//4
f 203//4 210//4 211//4
f 203//4 211//4 212//4
f 203//4 212//4 213//4
f 203//4 213//4 214//4
f 203//4 214//4 215//4
f 203//4 215//4 216//4
f 203//4 216//4 217//4
f 203//4 217//4 218//4
f 203//4 218//4 219//4
f 203//4 219//4 220//4
f 203//4 220//4 221//4
f 203//4 221//4 222//4
f 203//4 222//4 223//4
f 203//4 223//4 224//4
f 203//4 224//4 225//4
f 203//4 225//4 226//4
f 203//4 226//4 227//4
f 227//4 226//4 228//4
f 227//4 228//4 229//4
f 227//4 229//4 230//4
f 231//8 232//8 233//8
f 232//8 231//8 234//8
f 235//9 236//9 237//9
f 236//9 235//9 238//9
f 239//9 240//9 241//9
f 240//9 239//9 242//9
f 242//9 239//9 243//9
f 243//9 244//9 242//9
f 245//8 246//8 247//8
f 246//8 245//8 248//8
f 248//8 245//8 249//8
f 248//8 249//8 250//8
f 251//11 252//10 253//11
f 252//10 251//11 254//10
f 254//10 255//12 252//10
f 255//12 254//10 256//12
f 256//12 257//13 255//12
f 257//13 256//12 258//13
f 258//13 259//14 257//13
f 259//14 258//13 260//14
f 260//14 261//5 259//14
f 261//5 260//14 262//5
f 262//5 263//2 261//5
f 263//2 262//5 264//2
f 264//2 265//1 263//2
f 265//1 264//2 266//1
f 266//1 267//3 265//1
f 267//3 266//1 268//3
f 268//3 269//7 267//3
f 269//7 268//3 270//7
f 270//7 271//15 269//7
f 271//15 270//7 272//15
f 272//15 273//16 271//15
f 273//16 272//15 274//16
f 275//18 276//17 277//18
f 276//17 275//18 278//17
f 278//17 279//19 276//17
f 279//19 278//17 280//19
f 280//19 281//20 279//19
f 281//20 280//19 282//20
f 282//20 283//21 281//20
f 283//21 282//20 284//21
f 284//21 285//22 283//21
f 285//22 284//21 286//22
f 286//22 287//23 285//22
f 287//23 286//22 288//23
f 288//23 289//24 287//23
f 289//24 288//23 290//24
f 290//24 291//25 289//24
f 291//25 290//24 292//25
f 292//25 293//26 291//25
f 293//26 292//25 294//26
f 294//26 295//27 293//26
f 295//27 294//26 296//27
f 296//27 297//28 295//27
f 297//28 296//27 298//28
f 298//28 299//29 297//28
f 299//29 298//28 300//29
f 301//30 302//30 303//30
f 302//30 301//30 304//30
f 305//6 306//6 307//6
f 306//6 305//6 308//6
f 306//6 308//6 309//6
f 306//6 309//6 310//6
f 308//6 305//6 311//6
f 311//6 305//6 312//6
f 312//6 305//6 313//6
f 313//6 305//6 314//6
f 314//6 305//6 315//6
f 315//6 305//6 316//6
f 316//6 305//6 317//6
f 317//6 305//6 318//6
f 318//6 305//6 319//6
f 319//6 305//6 320//6
f 320//6 305//6 321//6
f 321//6 305//6 322//6
f 322//6 305//6 323//6
f 323//6 305//6 324//6
f 324//6 305//6 325//6
f 325//6 305//6 326//6
f 326//6 305//6 327//6
f 327//6 305//6 328//6
f 328//6 305//6 329//6
f 328//6 329//6 330//6
f 330//6 329//6 331//6
f 331//6 329//6 332//6
f 333//8 334//8 335//8
f 334//8 333//8 336//8
