# SSTK version 0.8.0
# 133
mtllib original-133.mtl
o mesh113/mesh113-geometry/material_1/component_0#mesh113-geometry
v 0.043113 -0.309655 0.325302
v 0.043113 -0.390659 0.325302
v 0.043113 -0.309655 0.364116
v 0.043113 -0.390659 0.364116
v 0.043113 -0.309655 0.364116
v 0.043113 -0.390659 0.325302
v 0.043113 -0.309655 0.364116
v 0.043113 -0.390659 0.325302
v 0.043113 -0.309655 0.325302
v 0.043113 -0.390659 0.325302
v 0.043113 -0.309655 0.364116
v 0.043113 -0.390659 0.364116
vt 0 0
vt 0.65625 1.71875
vt 1.015625 0.96875
vt 1.015625 1.71875
vt 0.65625 0.96875
vn -1 0 0
vn 1 0 0
usemtl material_0_0
f 1/1/1 2/1/1 3/1/1
f 4/1/1 5/1/1 6/1/1
usemtl material_1_0
f 7/2/2 8/3/2 9/4/2
f 10/3/2 11/2/2 12/5/2
