# SSTK version 0.8.0
# 39
mtllib original-39.mtl
o mesh24/mesh24-geometry#mesh24-geometry
v 0.476745 0.512186 0.514552
v 0.465095 0.510029 0.514552
v 0.465095 0.512186 0.514552
v 0.474588 0.510029 0.514552
v 0.476745 0.509437 0.514552
v 0.468806 0.493829 0.514552
v 0.466180 0.493829 0.514552
vn 0 0 -1
vn 0 0 1
usemtl material_0_0
f 1//1 2//1 3//1
f 2//1 1//1 4//1
f 3//2 2//2 1//2
f 4//2 1//2 2//2
f 5//1 4//1 1//1
f 1//2 4//2 5//2
f 6//1 4//1 5//1
f 5//2 4//2 6//2
f 4//1 6//1 7//1
f 7//2 6//2 4//2
