# SSTK version 0.8.0
# 81
mtllib original-81.mtl
o Component_2_2/Component_2/mesh3/mesh3-geometry/material_0/component_8#mesh3-geometry
v 0.584230 0.654186 -0.458587
v 0.584230 0.675616 -0.439281
v 0.584230 0.654186 -0.439281
v 0.584230 0.654186 -0.439281
v 0.584230 0.675616 -0.439281
v 0.584230 0.654186 -0.458587
v 0.584230 0.675616 -0.439281
v 0.584230 0.654186 -0.458587
v 0.584230 0.675616 -0.458587
v 0.584230 0.675616 -0.458587
v 0.584230 0.654186 -0.458587
v 0.584230 0.675616 -0.439281
v -0.410050 0.675616 -0.458587
v -0.410050 0.654186 0.448814
v -0.410050 0.675616 0.448814
v -0.410050 0.675616 0.448814
v -0.410050 0.654186 0.448814
v -0.410050 0.675616 -0.458587
v 0.584230 0.654186 -0.458587
v -0.410050 0.675616 -0.458587
v 0.584230 0.675616 -0.458587
v 0.584230 0.675616 -0.458587
v -0.410050 0.675616 -0.458587
v 0.584230 0.654186 -0.458587
v -0.410050 0.654186 0.448814
v -0.410050 0.675616 -0.458587
v -0.410050 0.654186 -0.458587
v -0.410050 0.654186 -0.458587
v -0.410050 0.675616 -0.458587
v -0.410050 0.654186 0.448814
v -0.410050 0.675616 -0.458587
v 0.584230 0.654186 -0.458587
v -0.410050 0.654186 -0.458587
v -0.410050 0.654186 -0.458587
v 0.584230 0.654186 -0.458587
v -0.410050 0.675616 -0.458587
vt 0 0
vn 1 0 0
vn -1 0 0
vn 0 0 -1
vn 0 0 1
usemtl material_0_0
f 1/1/1 2/1/1 3/1/1
f 4/1/2 5/1/2 6/1/2
f 7/1/1 8/1/1 9/1/1
f 10/1/2 11/1/2 12/1/2
f 13/1/2 14/1/2 15/1/2
f 16/1/1 17/1/1 18/1/1
f 19/1/3 20/1/3 21/1/3
f 22/1/4 23/1/4 24/1/4
f 25/1/2 26/1/2 27/1/2
f 28/1/1 29/1/1 30/1/1
f 31/1/3 32/1/3 33/1/3
f 34/1/4 35/1/4 36/1/4
