# SSTK version 0.8.0
# 95
mtllib original-95.mtl
o mesh26/mesh26-geometry/material_2/component_1#mesh26-geometry
v -0.496929 0.364879 -0.448934
v -0.467969 0.000568 -0.448934
v -0.496929 0.000568 -0.448934
v 0.516657 0.000568 -0.448934
v -0.496929 0.364879 -0.448934
v 0.516657 0.364879 -0.448934
v -0.467969 0.000568 -0.448934
v -0.496929 0.364879 -0.448934
v 0.487698 0.000568 -0.448934
v 0.487698 0.000568 -0.448934
v -0.496929 0.364879 -0.448934
v 0.516657 0.000568 -0.448934
v -0.496929 0.000568 -0.448934
v -0.467969 0.000568 -0.448934
v -0.496929 0.364879 -0.448934
v 0.516657 0.364879 -0.448934
v -0.496929 0.364879 -0.448934
v 0.516657 0.000568 -0.448934
v 0.487698 0.000568 -0.448934
v -0.496929 0.364879 -0.448934
v -0.467969 0.000568 -0.448934
v 0.516657 0.000568 -0.448934
v -0.496929 0.364879 -0.448934
v 0.487698 0.000568 -0.448934
vt 0 0
vt -0.02551800012588501 0.2223680019378662
vt -0.03645399957895279 0.2223680019378662
vt -0.02551800012588501 0.3463110029697418
vt -0.40828201174736023 0.3463110029697418
vt -0.40828201174736023 0.2223680019378662
vt -0.39734598994255066 0.2223680019378662
vn 0.5963778432801055 -0.537277336288383 -0.5963778432801052
vn 0 0 -1
vn 0 -0.6693344468687935 -0.7429612360243609
vn 0 0 1
vn -0.5963778432801055 0.537277336288383 0.5963778432801052
vn 0 0.6693344468687935 0.7429612360243609
usemtl material_0_0
f 1/1/1 2/1/2 3/1/2
f 4/1/2 5/1/1 6/1/3
f 7/1/2 8/1/1 9/1/2
f 10/1/2 11/1/1 12/1/2
usemtl material_1_0
f 13/2/4 14/3/4 15/4/5
f 16/5/6 17/4/5 18/6/4
f 19/7/4 20/4/5 21/3/4
f 22/6/4 23/4/5 24/7/4
