# SSTK version 0.8.0
# 15
mtllib original-15.mtl
o #ID214
v -0.197574 -0.183898 -0.853872
v 0.205029 -0.183898 -0.828709
v -0.197574 -0.183898 -0.828709
v 0.205029 -0.183898 -0.853872
v 0.205029 -0.183898 -0.853872
v -0.197574 -0.183898 -0.853872
v 0.205029 -0.183898 -0.828709
v -0.197574 -0.183898 -0.828709
v -0.197574 -0.183898 -0.879035
v 0.205029 -0.183898 -0.879035
v 0.205029 -0.183898 -0.879035
v -0.197574 -0.183898 -0.879035
v 0.205029 -0.183898 -0.803547
v -0.197574 -0.183898 -0.803547
v 0.205029 -0.183898 -0.803547
v -0.197574 -0.183898 -0.803547
v 0.205029 -0.183898 -0.778384
v -0.197574 -0.183898 -0.778384
v 0.205029 -0.183898 -0.778384
v -0.197574 -0.183898 -0.778384
vt -0.1200131 0.02624672
vt -0.1183727 0
vt -0.1183727 0.02624672
vt -0.1200131 0
vt -0.1216535 0.02624672
vt -0.1216535 5.921189e-17
vt -0.1167323 0
vt -0.1167323 0.02624672
vt -0.1150919 0
vt -0.1150919 0.02624672
vn 0.0 -1.0 0.0
vn 0.0 1.0 0.0
usemtl material_0_0
f 1/1/1 2/2/1 3/3/1
f 2/2/1 1/1/1 4/4/1
f 5/4/2 6/1/2 7/2/2
f 8/3/2 7/2/2 6/1/2
f 9/5/1 4/4/1 1/1/1
f 4/4/1 9/5/1 10/6/1
f 11/6/2 12/5/2 5/4/2
f 6/1/2 5/4/2 12/5/2
f 3/3/1 13/7/1 14/8/1
f 13/7/1 3/3/1 2/2/1
f 7/2/2 8/3/2 15/7/2
f 16/8/2 15/7/2 8/3/2
f 14/8/1 17/9/1 18/10/1
f 17/9/1 14/8/1 13/7/1
f 15/7/2 16/8/2 19/9/2
f 20/10/2 19/9/2 16/8/2
