mtllib new-2.mtl
v -0.028533 0.068235 -0.204416
v -0.021985 0.022396 -0.204416
v -0.028533 0.022396 -0.204416
v -0.021985 0.068235 -0.204416
v -0.028533 0.022396 -0.191319
v -0.021985 0.068235 0.249061
v -0.021985 0.022396 0.249061
v -0.035082 0.022396 -0.191319
v -0.028533 0.068235 -0.191319
v -0.035082 0.022396 0.249061
v -0.035082 0.028945 -0.191319
v -0.028533 0.087881 -0.204416
v -0.028533 0.068235 0.249061
v -0.028533 0.028945 0.249061
v -0.028533 0.028945 -0.191319
v -0.028533 0.087881 0.249061
v -0.035082 0.035493 0.249061
v -0.028533 0.035493 0.249061
v -0.035082 0.028945 0.249061
v -0.035082 0.035493 -0.191319
v -0.028533 0.035493 -0.197868
v -0.028533 0.133720 -0.204416
v -0.028533 0.087881 -0.191319
v -0.035082 0.133720 0.249061
v -0.028533 0.028945 -0.197868
v -0.028533 0.035493 -0.191319
v -0.021985 0.087881 -0.204416
v -0.035082 0.087881 -0.191319
v -0.021985 0.133720 0.249061
v -0.035082 0.133720 -0.191319
v -0.035082 0.068235 -0.191319
v -0.021985 0.133720 -0.204416
v -0.028533 0.133720 -0.191319
v -0.021985 0.087881 0.249061
vn 0.000000 0.000000 -1.000000
vn 0.000000 0.000000 1.000000
vn 0.000000 -1.000000 0.000000
vn 0.000000 1.000000 0.000000
vn 1.000000 0.000000 0.000000
vn -1.000000 0.000000 0.000000
vt -0.409505 0.036458
vt -0.414714 0.000000
vt -0.409505 0.000000
vt -0.414714 0.036458
vt -0.414714 0.360677
vt -0.409505 0.350260
vt -0.409505 0.360677
vt 0.409505 0.360677
vt 0.414714 0.000000
vt 0.414714 0.360677
vt 0.000000 0.036458
vt 0.360677 0.000000
vt 0.360677 0.036458
vt -0.404297 0.350260
vt 0.409505 0.350260
vt 0.000000 0.000000
vt -0.404297 0.000000
vt -0.404297 0.005208
vt 0.350260 0.052083
vt 0.360677 0.052083
vt -0.409505 0.052083
vt 0.409505 0.000000
vt 0.409505 0.005208
vt 0.414714 0.036458
vt 0.404297 0.000000
vt 0.404297 0.005208
vt -0.350260 0.005208
vt -0.350260 0.000000
vt -0.409505 0.005208
vt 0.350260 0.005208
vt 0.350260 0.036458
vt 0.000000 0.052083
vt 0.404297 0.010417
vt 0.409505 0.036458
vt 0.409505 0.010417
vt 0.000000 0.005208
vt -0.404297 0.010417
vt 0.350260 0.010417
vt -0.350260 0.052083
vt -0.350260 0.036458
vt 0.360677 0.088542
vt 0.000000 0.088542
vt 0.404297 0.088542
vt 0.409505 0.052083
vt 0.000000 0.010417
vt 0.404297 0.350260
vt 0.409505 0.355469
vt -0.409505 0.010417
vt -0.409505 0.355469
vt -0.404297 0.052083
vt 0.414714 0.088542
vt -0.350260 0.088542
vt -0.404297 0.036458
vt -0.355469 0.010417
vt -0.350260 0.010417
vt -0.355469 0.005208
vt 0.404297 0.052083
vt 0.409505 0.088542
vt 0.414714 0.052083
usemtl material-0
f 1/1/1 2/2/1 3/3/1
f 2/2/1 1/1/1 4/4/1
f 3/3/2 2/2/2 1/1/2
f 4/4/2 1/1/2 2/2/2
f 2/5/3 5/6/3 3/7/3
f 3/7/4 5/6/4 2/5/4
f 1/8/4 6/9/4 4/10/4
f 4/10/3 6/9/3 1/8/3
f 6/11/5 2/12/5 4/13/5
f 4/13/6 2/12/6 6/11/6
f 7/2/3 5/6/3 2/5/3
f 2/5/4 5/6/4 7/2/4
f 8/14/3 3/7/3 5/6/3
f 5/6/4 3/7/4 8/14/4
f 9/15/4 6/9/4 1/8/4
f 1/8/3 6/9/3 9/15/3
f 2/12/5 6/11/5 7/16/5
f 7/16/6 6/11/6 2/12/6
f 10/17/3 5/6/3 7/2/3
f 7/2/4 5/6/4 10/17/4
f 5/6/3 10/17/3 8/14/3
f 8/14/4 10/17/4 5/6/4
f 11/18/1 5/3/1 8/17/1
f 8/17/2 5/3/2 11/18/2
f 6/9/4 9/15/4 13/22/4
f 13/22/3 9/15/3 6/9/3
f 14/23/2 7/9/2 6/24/2
f 6/24/1 7/9/1 14/23/1
f 7/9/2 14/23/2 10/25/2
f 10/25/1 14/23/1 7/9/1
f 10/16/6 11/27/6 8/28/6
f 8/28/5 11/27/5 10/16/5
f 5/3/1 11/18/1 15/29/1
f 15/29/2 11/18/2 5/3/2
f 9/31/5 16/32/5 13/11/5
f 13/11/6 16/32/6 9/31/6
f 17/33/2 6/24/2 13/34/2
f 13/34/1 6/24/1 17/33/1
f 14/23/2 6/24/2 18/35/2
f 18/35/1 6/24/1 14/23/1
f 19/26/2 10/25/2 14/23/2
f 14/23/1 10/25/1 19/26/1
f 11/27/6 10/16/6 19/36/6
f 19/36/5 10/16/5 11/27/5
f 15/29/1 11/18/1 20/37/1
f 20/37/2 11/18/2 15/29/2
f 16/32/5 9/31/5 23/19/5
f 23/19/6 9/31/6 16/32/6
f 24/43/2 13/34/2 16/44/2
f 16/44/1 13/34/1 24/43/1
f 18/35/2 6/24/2 17/33/2
f 17/33/1 6/24/1 18/35/1
f 17/33/2 13/34/2 24/43/2
f 24/43/1 13/34/1 17/33/1
f 15/30/5 18/45/5 14/36/5
f 14/36/6 18/45/6 15/30/6
f 18/35/2 19/26/2 14/23/2
f 14/23/1 19/26/1 18/35/1
f 14/22/4 11/46/4 19/25/4
f 19/25/3 11/46/3 14/22/3
f 15/29/1 20/37/1 26/48/1
f 26/48/2 20/37/2 15/29/2
f 9/1/1 28/50/1 23/21/1
f 23/21/2 28/50/2 9/1/2
f 23/6/3 27/5/3 16/3/3
f 16/3/4 27/5/4 23/6/4
f 24/43/2 16/44/2 29/51/2
f 29/51/1 16/44/1 24/43/1
f 17/17/3 21/49/3 18/3/3
f 18/3/4 21/49/4 17/17/4
f 30/52/6 17/45/6 24/42/6
f 24/42/5 17/45/5 30/52/5
f 18/45/5 15/30/5 26/38/5
f 26/38/6 15/30/6 18/45/6
f 25/47/4 14/22/4 15/15/4
f 15/15/3 14/22/3 25/47/3
f 25/47/4 11/46/4 14/22/4
f 14/22/3 11/46/3 25/47/3
f 26/48/1 20/37/1 31/53/1
f 31/53/2 20/37/2 26/48/2
f 21/54/6 15/27/6 26/55/6
f 26/55/5 15/27/5 21/54/5
f 15/27/6 21/54/6 25/56/6
f 25/56/5 21/54/5 15/27/5
f 27/5/3 23/6/3 12/7/3
f 12/7/4 23/6/4 27/5/4
f 28/50/1 9/1/1 31/53/1
f 31/53/2 9/1/2 28/50/2
f 33/58/2 28/57/2 23/44/2
f 23/44/1 28/57/1 33/58/1
f 16/3/3 27/5/3 34/2/3
f 34/2/4 27/5/4 16/3/4
f 29/51/2 16/44/2 34/59/2
f 34/59/1 16/44/1 29/51/1
f 29/9/4 30/46/4 24/25/4
f 24/25/3 30/46/3 29/9/3
f 20/14/3 21/49/3 17/17/3
f 17/17/4 21/49/4 20/14/4
f 18/3/3 21/49/3 26/6/3
f 26/6/4 21/49/4 18/3/4
f 17/45/6 30/52/6 20/55/6
f 20/55/5 30/52/5 17/45/5
f 20/55/6 28/39/6 31/40/6
f 31/40/5 28/39/5 20/55/5
f 26/48/1 31/53/1 9/1/1
f 9/1/2 31/53/2 26/48/2
f 22/8/4 30/46/4 33/15/4
f 33/15/3 30/46/3 22/8/3
f 22/8/4 29/9/4 32/10/4
f 32/10/3 29/9/3 22/8/3
f 29/42/5 27/20/5 32/41/5
f 32/41/6 27/20/6 29/42/6
f 27/20/5 29/42/5 34/32/5
f 34/32/6 29/42/6 27/20/6
f 30/46/4 29/9/4 33/15/4
f 33/15/3 29/9/3 30/46/3
f 20/55/6 30/52/6 28/39/6
f 28/39/5 30/52/5 20/55/5
f 33/15/4 29/9/4 22/8/4
f 22/8/3 29/9/3 33/15/3