# SSTK version 0.8.0
# 29
mtllib original-29.mtl
o DF_21_BC1/DF_21_BC/mesh24/mesh24-geometry#mesh24-geometry
v -0.789629 0.118726 0.100847
v -0.789847 0.118945 -0.092909
v -0.789629 0.118726 -0.092909
v -0.789847 0.118945 0.100847
v -0.789353 0.118586 0.100847
v -0.789988 0.119220 0.100847
v -0.789353 0.118586 -0.092909
v -0.789988 0.119220 -0.092909
v -0.789048 0.118537 0.100847
v -0.790036 0.119526 0.100847
v -0.789048 0.118537 -0.092909
v -0.790036 0.119526 -0.092909
v -0.787875 0.118537 0.100847
v -0.790022 0.146396 0.100847
v -0.787875 0.118537 -0.092909
v -0.790022 0.146396 -0.092909
v -0.787875 0.116336 -0.092909
v -0.790372 0.150750 0.100847
v -0.787875 0.116336 0.100847
v -0.790372 0.150750 -0.092909
v -0.788591 0.116336 0.100847
v -0.790980 0.155076 0.100847
v -0.788591 0.116336 -0.092909
v -0.790980 0.155076 -0.092909
v -0.789260 0.116230 0.100847
v -0.791843 0.159358 0.100847
v -0.789260 0.116230 -0.092909
v -0.791843 0.159358 -0.092909
v -0.789864 0.115923 0.100847
v -0.792959 0.163581 0.100847
v -0.789864 0.115923 -0.092909
v -0.792959 0.163581 -0.092909
v -0.790343 0.115444 0.100847
v -0.794323 0.167731 0.100847
v -0.790343 0.115444 -0.092909
v -0.794323 0.167731 -0.092909
v -0.790650 0.114840 -0.092909
v -0.795931 0.171792 0.100847
v -0.790650 0.114840 0.100847
v -0.795931 0.171792 -0.092909
v -0.790756 0.114171 -0.092909
v -0.796370 0.172870 0.100847
v -0.790756 0.114171 0.100847
v -0.796370 0.172870 -0.092909
v -0.790756 0.111328 -0.092909
v -0.796519 0.174024 0.100847
v -0.790756 0.111328 0.100847
v -0.796519 0.174024 -0.092909
v -0.790726 0.110625 -0.092909
v -0.796308 0.175361 0.100847
v -0.790726 0.110625 0.100847
v -0.796308 0.175361 -0.092909
v -0.790442 0.109980 -0.092909
v -0.795694 0.176567 0.100847
v -0.790442 0.109980 0.100847
v -0.795694 0.176567 -0.092909
v -0.789944 0.109482 0.100847
v -0.794738 0.177525 0.100847
v -0.789944 0.109482 -0.092909
v -0.794738 0.177525 -0.092909
v -0.789299 0.109198 0.100847
v -0.793533 0.178141 -0.092909
v -0.789299 0.109198 -0.092909
v -0.793533 0.178141 0.100847
v -0.788596 0.109168 0.100847
v -0.792197 0.178355 -0.092909
v -0.788596 0.109168 -0.092909
v -0.792197 0.178355 0.100847
v -0.775486 0.109168 0.100847
v -0.783188 0.178355 -0.092909
v -0.775486 0.109168 -0.092909
v -0.783188 0.178355 0.100847
v -0.774817 0.109274 0.100847
v -0.783188 0.200351 0.100847
v -0.774817 0.109274 -0.092909
v -0.783188 0.200351 -0.092909
v -0.774213 0.109581 0.100847
v -0.774213 0.109581 -0.092909
v -0.773734 0.110060 0.100847
v -0.773734 0.110060 -0.092909
v -0.773427 0.110664 -0.092909
v -0.773427 0.110664 0.100847
v -0.773321 0.111333 -0.092909
v -0.773321 0.111333 0.100847
v -0.773321 0.178355 -0.092909
v -0.773321 0.178355 0.100847
v -0.774541 0.178355 0.100847
v -0.774541 0.178355 -0.092909
v -0.774541 0.200351 -0.092909
v -0.774541 0.200351 0.100847
vt 0.176596 -0.177403
vt 0.176449 -0.427698
vt 0.176596 -0.427698
vt 0.176449 -0.177403
vt 0.176691 -0.177403
vt 0.176263 -0.177403
vt 0.176691 -0.427698
vt 0.176263 -0.427698
vt 0.176723 -0.177403
vt 0.176057 -0.177403
vt 0.176723 -0.427698
vt 0.176057 -0.427698
vt 0.157959 -0.177403
vt 0.157959 -0.427698
vt 0.178206 -0.427698
vt 0.155027 -0.177403
vt 0.178206 -0.177403
vt 0.155027 -0.427698
vt 0.152113 -0.177403
vt 0.152113 -0.427698
vt 0.178277 -0.177403
vt 0.149229 -0.177403
vt 0.178277 -0.427698
vt 0.149229 -0.427698
vt 0.178484 -0.177403
vt 0.146385 -0.177403
vt 0.178484 -0.427698
vt 0.146385 -0.427698
vt 0.178807 -0.177403
vt 0.14359 -0.177403
vt 0.178807 -0.427698
vt 0.14359 -0.427698
vt 0.179213 -0.427698
vt 0.140854 -0.177403
vt 0.179213 -0.177403
vt 0.140854 -0.427698
vt 0.179664 -0.427698
vt 0.140128 -0.177403
vt 0.179664 -0.177403
vt 0.140128 -0.427698
vt 0.181579 -0.427698
vt 0.13935 -0.177403
vt 0.181579 -0.177403
vt 0.13935 -0.427698
vt 0.182053 -0.427698
vt 0.13845 -0.177403
vt 0.182053 -0.177403
vt 0.13845 -0.427698
vt 0.182487 -0.427698
vt 0.137638 -0.177403
vt 0.182487 -0.177403
vt 0.137638 -0.427698
vt 0.182822 -0.177403
vt 0.136993 -0.177403
vt 0.182822 -0.427698
vt 0.136993 -0.427698
vt 0.183013 -0.177403
vt 0.136578 -0.427698
vt 0.183013 -0.427698
vt 0.136578 -0.177403
vt 0.183034 -0.177403
vt 0.136434 -0.427698
vt 0.183034 -0.427698
vt 0.136434 -0.177403
vt 0.182963 -0.177403
vt 0.832178 0.824436
vt 0.581884 0.809621
vt 0.832178 0.809621
vt 0.182963 -0.427698
vt 0.581884 0.824436
vt 0.182756 -0.177403
vt 0.182756 -0.427698
vt 0.182433 -0.177403
vt 0.182433 -0.427698
vt 0.182026 -0.427698
vt 0.182026 -0.177403
vt 0.181576 -0.427698
vt 0.181576 -0.177403
vn -0.5877850844899974 -0.8090171162905557 0
vn -0.8090171162905557 -0.5877850844899974 0
vn -0.3090168573056278 -0.9510565608316645 0
vn -0.9510565608316645 -0.3090168573056278 0
vn -0.0784590266929423 -0.9969173391662902 0
vn -0.9969377709809891 -0.0781989820359364 0
vn 0 -1 0
vn -0.9992052341407924 -0.03986100934051183 0
vn -1 0 0
vn -0.993963643467293 -0.10970996064726361 0
vn 0 1 0
vn -0.0784590266929423 0.9969173391662902 0
vn -0.9857091692379004 -0.16845602892247077 0
vn -0.3090168573056278 0.9510565608316645 0
vn -0.9739856005218359 -0.2266099070564189 0
vn -0.5877850844899974 0.8090171162905557 0
vn -0.958834321827041 -0.28396609531153205 0
vn -0.8090171162905557 0.5877850844899974 0
vn -0.940308642772113 -0.3403228707096644 0
vn -0.9510565608316645 0.3090168573056278 0
vn -0.9280029033308707 -0.3725729611894492 0
vn -0.9969173391662902 0.0784590266929423 0
vn -0.9669642393043395 -0.2549120630856452 0
vn -0.9997619809380383 -0.021816999584026178 0
vn -0.9999018831774702 0.014007998363389614 0
vn -0.9738716941142529 -0.22709892866994094 0
vn -0.9511705383033595 0.3086658501740957 0
vn -0.8253270305560833 -0.5646550209052232 0
vn -0.8094507293419813 0.587187803660579 0
vn -0.5645291094029293 -0.8254131599609589 0
vn -0.5886812081029646 0.8083652857628376 0
vn -0.22695009085540194 -0.9739063898859708 0
vn -0.3104210533859069 0.9505991634831076 0
vn -0.021740992099574925 -0.9997636366974576 0
vn -0.07928698658967773 0.9968518313959844 0
vn 0.0784590266929423 -0.9969173391662902 0
vn 0.3090168573056278 -0.9510565608316645 0
vn 0.5877850844899974 -0.8090171162905557 0
vn 0.8090171162905557 -0.5877850844899974 0
vn 0.9510565608316645 -0.3090168573056278 0
vn 0.9969173391662902 -0.0784590266929423 0
vn 1 0 0
vn 0.5877850844899974 0.8090171162905557 0
vn 0.8090171162905557 0.5877850844899974 0
vn 0.3090168573056278 0.9510565608316645 0
vn 0.9510565608316645 0.3090168573056278 0
vn 0.0784590266929423 0.9969173391662902 0
vn 0.9969377709809891 0.0781989820359364 0
vn 0.9992052341407924 0.03986100934051183 0
vn 0.993963643467293 0.10970996064726361 0
vn 0.9857091692379004 0.16845602892247077 0
vn 0.9739856005218359 0.2266099070564189 0
vn 0.958834321827041 0.28396609531153205 0
vn 0.940308642772113 0.3403228707096644 0
vn 0.9280029033308707 0.3725729611894492 0
vn 0.9669642393043395 0.2549120630856452 0
vn 0.9997619809380383 0.021816999584026178 0
vn 0.9999018831774702 -0.014007998363389614 0
vn 0.9738716941142529 0.22709892866994094 0
vn 0.9511705383033595 -0.3086658501740957 0
vn 0.8253270305560833 0.5646550209052232 0
vn 0.8094507293419813 -0.587187803660579 0
vn 0.5645291094029293 0.8254131599609589 0
vn 0.5886812081029646 -0.8083652857628376 0
vn 0.22695009085540194 0.9739063898859708 0
vn 0.3104210533859069 -0.9505991634831076 0
vn 0.021740992099574925 0.9997636366974576 0
vn 0.07928698658967773 -0.9968518313959844 0
usemtl material_0_0
f 1/1/1 2/2/2 3/3/1
f 2/2/2 1/1/1 4/4/2
f 3/3/1 5/5/3 1/1/1
f 6/6/4 2/2/2 4/4/2
f 5/5/3 3/3/1 7/7/3
f 2/2/2 6/6/4 8/8/4
f 7/7/3 9/9/5 5/5/3
f 10/10/6 8/8/4 6/6/4
f 9/9/5 7/7/3 11/11/5
f 8/8/4 10/10/6 12/12/6
f 11/11/5 13/9/7 9/9/5
f 14/13/8 12/12/6 10/10/6
f 13/9/7 11/11/5 15/11/7
f 12/12/6 14/13/8 16/14/8
f 17/15/9 13/9/9 15/11/9
f 18/16/10 16/14/8 14/13/8
f 13/9/9 17/15/9 19/17/9
f 16/14/8 18/16/10 20/18/10
f 17/15/11 21/17/12 19/17/11
f 22/19/13 20/18/10 18/16/10
f 21/17/12 17/15/11 23/15/12
f 20/18/10 22/19/13 24/20/13
f 23/15/12 25/21/14 21/17/12
f 26/22/15 24/20/13 22/19/13
f 25/21/14 23/15/12 27/23/14
f 24/20/13 26/22/15 28/24/15
f 27/23/14 29/25/16 25/21/14
f 30/26/17 28/24/15 26/22/15
f 29/25/16 27/23/14 31/27/16
f 28/24/15 30/26/17 32/28/17
f 31/27/16 33/29/18 29/25/16
f 34/30/19 32/28/17 30/26/17
f 33/29/18 31/27/16 35/31/18
f 32/28/17 34/30/19 36/32/19
f 37/33/20 33/29/18 35/31/18
f 38/34/21 36/32/19 34/30/19
f 33/29/18 37/33/20 39/35/20
f 36/32/19 38/34/21 40/36/21
f 41/37/22 39/35/20 37/33/20
f 42/38/23 40/36/21 38/34/21
f 39/35/20 41/37/22 43/39/22
f 40/36/21 42/38/23 44/40/23
f 45/41/24 43/39/22 41/37/22
f 46/42/25 44/40/23 42/38/23
f 43/39/22 45/41/24 47/43/24
f 44/40/23 46/42/25 48/44/25
f 49/45/26 47/43/24 45/41/24
f 50/46/27 48/44/25 46/42/25
f 47/43/24 49/45/26 51/47/26
f 48/44/25 50/46/27 52/48/27
f 53/49/28 51/47/26 49/45/26
f 54/50/29 52/48/27 50/46/27
f 51/47/26 53/49/28 55/51/28
f 52/48/27 54/50/29 56/52/29
f 53/49/28 57/53/30 55/51/28
f 58/54/31 56/52/29 54/50/29
f 57/53/30 53/49/28 59/55/30
f 56/52/29 58/54/31 60/56/31
f 59/55/30 61/57/32 57/53/30
f 58/54/31 62/58/33 60/56/31
f 61/57/32 59/55/30 63/59/32
f 62/58/33 58/54/31 64/60/33
f 63/59/32 65/61/34 61/57/32
f 64/60/33 66/62/35 62/58/33
f 65/61/34 63/59/32 67/63/34
f 66/62/35 64/60/33 68/64/35
f 67/63/34 69/61/36 65/61/34
f 68/64/35 70/62/11 66/62/35
f 69/61/36 67/63/34 71/63/36
f 70/62/11 68/64/35 72/64/11
f 71/63/36 73/65/37 69/61/36
f 74/66/9 70/67/9 72/68/9
f 73/65/37 71/63/36 75/69/37
f 70/67/9 74/66/9 76/70/9
f 75/69/37 77/71/38 73/65/37
f 77/71/38 75/69/37 78/72/38
f 78/72/38 79/73/39 77/71/38
f 79/73/39 78/72/38 80/74/39
f 81/75/40 79/73/39 80/74/39
f 79/73/39 81/75/40 82/76/40
f 83/77/41 82/76/40 81/75/40
f 82/76/40 83/77/41 84/78/41
f 85/62/42 84/78/41 83/77/41
f 84/78/41 85/62/42 86/64/42
f 85/62/11 87/64/11 86/64/11
f 87/64/11 85/62/11 88/62/11
f 89/70/42 87/68/42 88/67/42
f 87/68/42 89/70/42 90/66/42
usemtl material_1_0
f 3//43 2//44 1//43
f 4//44 1//43 2//44
f 1//43 5//45 3//43
f 4//44 2//44 6//46
f 7//45 3//43 5//45
f 8//46 6//46 2//44
f 5//45 9//47 7//45
f 6//46 8//46 10//48
f 11//47 7//45 9//47
f 12//48 10//48 8//46
f 9//47 13//11 11//47
f 10//48 12//48 14//49
f 15//11 11//47 13//11
f 16//49 14//49 12//48
f 15//42 13//42 17//42
f 14//49 16//49 18//50
f 19//42 17//42 13//42
f 20//50 18//50 16//49
f 19//7 21//36 17//7
f 18//50 20//50 22//51
f 23//36 17//7 21//36
f 24//51 22//51 20//50
f 21//36 25//37 23//36
f 22//51 24//51 26//52
f 27//37 23//36 25//37
f 28//52 26//52 24//51
f 25//37 29//38 27//37
f 26//52 28//52 30//53
f 31//38 27//37 29//38
f 32//53 30//53 28//52
f 29//38 33//39 31//38
f 30//53 32//53 34//54
f 35//39 31//38 33//39
f 36//54 34//54 32//53
f 35//39 33//39 37//40
f 34//54 36//54 38//55
f 39//40 37//40 33//39
f 40//55 38//55 36//54
f 37//40 39//40 41//41
f 38//55 40//55 42//56
f 43//41 41//41 39//40
f 44//56 42//56 40//55
f 41//41 43//41 45//57
f 42//56 44//56 46//58
f 47//57 45//57 43//41
f 48//58 46//58 44//56
f 45//57 47//57 49//59
f 46//58 48//58 50//60
f 51//59 49//59 47//57
f 52//60 50//60 48//58
f 49//59 51//59 53//61
f 50//60 52//60 54//62
f 55//61 53//61 51//59
f 56//62 54//62 52//60
f 55//61 57//63 53//61
f 54//62 56//62 58//64
f 59//63 53//61 57//63
f 60//64 58//64 56//62
f 57//63 61//65 59//63
f 60//64 62//66 58//64
f 63//65 59//63 61//65
f 64//66 58//64 62//66
f 61//65 65//67 63//65
f 62//66 66//68 64//66
f 67//67 63//65 65//67
f 68//68 64//66 66//68
f 65//67 69//12 67//67
f 66//68 70//7 68//68
f 71//12 67//67 69//12
f 72//7 68//68 70//7
f 69//12 73//14 71//12
f 72//42 70//42 74//42
f 75//14 71//12 73//14
f 76//42 74//42 70//42
f 73//14 77//16 75//14
f 78//16 75//14 77//16
f 77//16 79//18 78//16
f 80//18 78//16 79//18
f 80//18 79//18 81//20
f 82//20 81//20 79//18
f 81//20 82//20 83//22
f 84//22 83//22 82//20
f 83//22 84//22 85//9
f 86//9 85//9 84//22
f 86//7 87//7 85//7
f 88//7 85//7 87//7
f 88//9 87//9 89//9
f 90//9 89//9 87//9
