# SSTK version 0.8.0
# 151
mtllib original-151.mtl
o mesh126/mesh126-geometry/material_4#mesh126-geometry
v 0.469236 0.349417 0.400654
v 0.469236 0.358093 0.399620
v 0.469236 0.357771 0.398415
v 0.469236 0.358093 0.399620
v 0.469236 0.349417 0.400654
v 0.469236 0.349740 0.401858
v 0.435689 0.357771 0.398415
v 0.435689 0.349740 0.401858
v 0.435689 0.349417 0.400654
v 0.452462 0.349740 0.401858
v 0.469236 0.358093 0.399620
v 0.469236 0.349740 0.401858
v 0.435689 0.349740 0.401858
v 0.435689 0.357771 0.398415
v 0.435689 0.358093 0.399620
v 0.435689 0.349740 0.401858
v 0.452462 0.358093 0.399620
v 0.452462 0.349740 0.401858
v 0.452462 0.349740 0.401858
v 0.452462 0.358093 0.399620
v 0.469236 0.358093 0.399620
v 0.452462 0.358093 0.399620
v 0.435689 0.349740 0.401858
v 0.435689 0.358093 0.399620
v 0.469236 0.357771 0.398415
v 0.469236 0.358093 0.399620
v 0.469236 0.349417 0.400654
v 0.469236 0.349740 0.401858
v 0.469236 0.349417 0.400654
v 0.469236 0.358093 0.399620
v 0.435689 0.349417 0.400654
v 0.435689 0.349740 0.401858
v 0.435689 0.357771 0.398415
v 0.469236 0.349740 0.401858
v 0.469236 0.358093 0.399620
v 0.452462 0.349740 0.401858
v 0.435689 0.358093 0.399620
v 0.435689 0.357771 0.398415
v 0.435689 0.349740 0.401858
v 0.452462 0.349740 0.401858
v 0.452462 0.358093 0.399620
v 0.435689 0.349740 0.401858
v 0.469236 0.358093 0.399620
v 0.452462 0.358093 0.399620
v 0.452462 0.349740 0.401858
v 0.435689 0.358093 0.399620
v 0.435689 0.349740 0.401858
v 0.452462 0.358093 0.399620
vt 0 0
vn -1 0 0
vn 1 0 0
vn 0 -0.25881897461707354 -0.9659258451755843
vn 0 0.25881897461707354 0.9659258451755843
usemtl material_0_0
f 1/1/1 2/1/1 3/1/1
f 4/1/1 5/1/1 6/1/1
f 7/1/2 8/1/2 9/1/2
f 10/1/3 11/1/3 12/1/3
f 13/1/2 14/1/2 15/1/2
f 16/1/3 17/1/3 18/1/3
f 19/1/3 20/1/3 21/1/3
f 22/1/3 23/1/3 24/1/3
usemtl material_1_0
f 25/1/2 26/1/2 27/1/2
f 28/1/2 29/1/2 30/1/2
f 31/1/1 32/1/1 33/1/1
f 34/1/4 35/1/4 36/1/4
f 37/1/1 38/1/1 39/1/1
f 40/1/4 41/1/4 42/1/4
f 43/1/4 44/1/4 45/1/4
f 46/1/4 47/1/4 48/1/4
