# SSTK version 0.8.0
# 41
mtllib original-41.mtl
o mesh108/mesh108-geometry#mesh108-geometry
v 0.448850 0.352067 0.401000
v 0.449002 0.352035 0.402303
v 0.449002 0.351711 0.401095
v 0.448850 0.352391 0.402208
v 0.449159 0.351835 0.402357
v 0.448950 0.350524 0.401413
v 0.448734 0.352564 0.400867
v 0.448950 0.350847 0.402621
v 0.449159 0.351511 0.401149
v 0.449325 0.350759 0.402645
v 0.449325 0.350435 0.401437
v 0.448734 0.352888 0.402075
v 0.449374 0.351660 0.402404
v 0.448539 0.350742 0.401355
v 0.448635 0.353870 0.400517
v 0.448539 0.351065 0.402563
v 0.449374 0.351336 0.401196
v 0.449818 0.350729 0.402653
v 0.448635 0.354194 0.401725
v 0.449374 0.353235 0.401982
v 0.449818 0.350405 0.401445
v 0.448703 0.356935 0.399695
v 0.448706 0.354915 0.400237
v 0.448703 0.357259 0.400903
v 0.448184 0.351400 0.402473
v 0.449374 0.352911 0.400774
v 0.450489 0.353776 0.400542
v 0.450489 0.354100 0.401750
v 0.448348 0.356650 0.399772
v 0.450489 0.350782 0.402639
v 0.448706 0.355239 0.401445
v 0.448348 0.356973 0.400980
v 0.448184 0.351077 0.401265
v 0.448925 0.352911 0.400774
v 0.450489 0.350458 0.401431
v 0.448925 0.354100 0.401750
v 0.449101 0.357107 0.399649
v 0.448919 0.355666 0.400035
v 0.449101 0.357431 0.400857
v 0.447888 0.351865 0.402349
v 0.448037 0.356573 0.401087
v 0.448925 0.353235 0.401982
v 0.448037 0.356250 0.399879
v 0.448919 0.355990 0.401244
v 0.447888 0.351541 0.401141
v 0.448925 0.353776 0.400542
v 0.449075 0.355930 0.399965
v 0.449075 0.356254 0.401173
v 0.449544 0.357164 0.399634
v 0.447657 0.352472 0.402186
v 0.447784 0.356073 0.401221
v 0.447784 0.355750 0.400013
v 0.449259 0.356119 0.399914
v 0.449259 0.356443 0.401122
v 0.449544 0.357488 0.400842
v 0.447657 0.352148 0.400978
v 0.449944 0.357119 0.399646
v 0.449470 0.356232 0.399884
v 0.447508 0.353206 0.401989
v 0.447603 0.355487 0.401378
v 0.447603 0.355163 0.400170
v 0.449470 0.356556 0.401092
v 0.449944 0.357443 0.400854
v 0.449709 0.356270 0.399874
v 0.447508 0.352883 0.400781
v 0.449709 0.356594 0.401082
v 0.450489 0.356919 0.399700
v 0.450100 0.356172 0.399900
v 0.447458 0.354055 0.401762
v 0.447494 0.354814 0.401559
v 0.447494 0.354490 0.400350
v 0.450100 0.356496 0.401108
v 0.450489 0.357243 0.400908
v 0.447458 0.353732 0.400554
v 0.450489 0.356202 0.401187
v 0.450489 0.355878 0.399979
vn 0.9780996679718978 0.20104493175279645 -0.0538699817131644
vn 0.9327005161589346 0.3483628192857892 -0.09334395157755755
vn -0.9327005161589346 -0.3483628192857892 0.09334395157755755
vn -0.9780996679718978 -0.20104493175279645 0.0538699817131644
vn 0.8430221713636633 0.5195511056107226 -0.13921302829825266
vn -0.8430221713636633 -0.5195511056107226 0.13921302829825266
vn 0 -0.2588189595935752 -0.9659258492011171
vn 0 0.2588189595935752 0.9659258492011171
vn 0.995083497497887 0.09566495169064658 -0.025632987055729282
vn -0.995083497497887 -0.09566495169064658 0.025632987055729282
vn 0.7847508044299221 0.5986918507982264 -0.16041896002151457
vn -0.7847508044299221 -0.5986918507982264 0.16041896002151457
vn -0.22129607106382285 -0.9419773024929807 0.25240208105275724
vn -0.3441860253126459 -0.9069090666972695 0.24300601787151355
vn 0.22129607106382285 0.9419773024929807 -0.25240208105275724
vn 0.3441860253126459 0.9069090666972695 -0.24300601787151355
vn 0.9999973302806727 0.002232000737188673 -0.0005980001975084343
vn -0.9999973302806727 -0.002232000737188673 0.0005980001975084343
vn -0.6336658958440284 -0.7472468771746673 0.200223967089089
vn 0.6336658958440284 0.7472468771746673 -0.200223967089089
vn 0.014599999934227002 -0.9658229956489676 0.25879099883414636
vn -0.014599999934227002 0.9658229956489676 -0.25879099883414636
vn -1 0 0
vn 1 0 0
vn 0.9936864327803463 -0.10837004719841692 0.029038012646928377
vn -0.9936864327803463 0.10837004719841692 -0.029038012646928377
vn -0.8805145709654562 -0.4578672969018556 0.12268507955455211
vn -0.8244911832798758 -0.5465931215046582 0.14645903255704096
vn 0.8244911832798758 0.5465931215046582 -0.14645903255704096
vn 0.8805145709654562 0.4578672969018556 -0.12268507955455211
vn 0.1212920361350862 -0.9587942856421187 0.25690807653755154
vn -0.1212920361350862 0.9587942856421187 -0.25690807653755154
vn 0 -0.9659258492011171 0.2588189595935752
vn 0 0.9659258492011171 -0.2588189595935752
vn -0.8422150201011461 0.5207710124292418 -0.13954000333040117
vn -0.7794396424333152 0.6051307223972524 -0.16214392561673427
vn 0.7794396424333152 -0.6051307223972524 0.16214392561673427
vn 0.8422150201011461 -0.5207710124292418 0.13954000333040117
vn 0.963251974630833 -0.2594469931669446 0.06951899816907811
vn -0.963251974630833 0.2594469931669446 -0.06951899816907811
vn -0.9507372392611377 -0.29943507535539143 0.08023302019132399
vn 0.9507372392611377 0.29943507535539143 -0.08023302019132399
vn -0.5533687967515519 0.8045547044927432 -0.21557992081901853
vn 0.5533687967515519 -0.8045547044927432 0.21557992081901853
vn -0.9248076916025808 0.3674718774584385 -0.09846396716502932
vn 0.9248076916025808 -0.3674718774584385 0.09846396716502932
vn 0.8954580379710034 -0.4299780182327883 0.11521200488544986
vn -0.8954580379710034 0.4299780182327883 -0.11521200488544986
vn -0.1956459960982319 0.9472589811088143 -0.2538169949381275
vn 0.1956459960982319 -0.9472589811088143 0.2538169949381275
vn -0.9827903709542957 -0.17843006734844163 0.04781001804589467
vn 0.9827903709542957 0.17843006734844163 -0.04781001804589467
vn -0.9673939940210214 0.24464599848796545 -0.06555299959484963
vn 0.9673939940210214 -0.24464599848796545 0.06555299959484963
vn 0.8463745127245593 -0.5144407038257688 0.13784392064038287
vn -0.8463745127245593 0.5144407038257688 -0.13784392064038287
vn 0.1708859746521435 0.9517178588297972 -0.25501196217356825
vn -0.1708859746521435 -0.9517178588297972 0.25501196217356825
vn -0.9964653811714981 -0.08114203103873964 0.02174200831683069
vn 0.9964653811714981 0.08114203103873964 -0.02174200831683069
vn -0.9887449626857546 0.1445129945462242 -0.03872199853867049
vn 0.9887449626857546 -0.1445129945462242 0.03872199853867049
vn 0.6378988850104438 -0.7438788659061761 0.19932196406962788
vn -0.6378988850104438 0.7438788659061761 -0.19932196406962788
vn 0.49358592788685446 0.8400628772664026 -0.22509396711366106
vn -0.49358592788685446 -0.8400628772664026 0.22509396711366106
vn 0.23709992467218036 -0.938382701871171 0.25143892011661034
vn -0.23709992467218036 0.938382701871171 -0.25143892011661034
vn -0.9999937905033228 -0.003403999286869032 0.0009119998089378833
vn 0.9999937905033228 0.003403999286869032 -0.0009119998089378833
vn -0.9977358400060868 0.06496298958273074 -0.01740699720866636
vn 0.9977358400060868 -0.06496298958273074 0.01740699720866636
vn -0.36103806261971066 -0.9007751562336093 0.24136204186268073
vn 0.36103806261971066 0.9007751562336093 -0.24136204186268073
vn -0.7599453004113763 -0.6278392481889848 0.1682290665020565
vn 0.7599453004113763 0.6278392481889848 -0.1682290665020565
usemtl material_0_0
f 1//1 2//2 3//2
f 2//2 1//1 4//1
f 3//3 2//3 1//4
f 4//4 1//4 2//3
f 5//5 3//2 2//2
f 2//3 3//3 5//6
f 6//7 1//7 3//7
f 3//8 1//8 6//8
f 7//9 4//1 1//1
f 1//4 4//4 7//10
f 4//8 8//8 2//8
f 2//7 8//7 4//7
f 3//2 5//5 9//5
f 9//6 5//6 3//3
f 2//8 10//8 5//8
f 5//7 10//7 2//7
f 6//7 7//7 1//7
f 1//8 7//8 6//8
f 6//7 3//7 11//7
f 11//8 3//8 6//8
f 4//1 7//9 12//9
f 12//10 7//10 4//4
f 12//8 8//8 4//8
f 4//7 8//7 12//7
f 2//8 8//8 10//8
f 10//7 8//7 2//7
f 13//11 9//5 5//5
f 5//6 9//6 13//12
f 11//7 3//7 9//7
f 9//8 3//8 11//8
f 5//8 10//8 13//8
f 13//7 10//7 5//7
f 14//7 7//7 6//7
f 6//8 7//8 14//8
f 10//13 6//14 11//13
f 11//15 6//16 10//15
f 15//17 12//9 7//9
f 7//10 12//10 15//18
f 12//8 16//8 8//8
f 8//7 16//7 12//7
f 6//14 10//13 8//14
f 8//16 10//15 6//16
f 9//5 13//11 17//11
f 17//12 13//12 9//6
f 11//7 9//7 17//7
f 17//8 9//8 11//8
f 13//8 10//8 18//8
f 18//7 10//7 13//7
f 7//7 14//7 15//7
f 15//8 14//8 7//8
f 8//19 14//19 6//19
f 6//20 14//20 8//20
f 11//13 18//21 10//13
f 10//15 18//22 11//15
f 12//9 15//17 19//17
f 19//18 15//18 12//10
f 16//8 12//8 19//8
f 19//7 12//7 16//7
f 14//19 8//19 16//19
f 16//20 8//20 14//20
f 20//23 17//23 13//23
f 13//24 17//24 20//24
f 11//7 17//7 21//7
f 21//8 17//8 11//8
f 13//8 18//8 20//8
f 20//7 18//7 13//7
f 14//7 22//7 15//7
f 15//8 22//8 14//8
f 18//21 11//13 21//21
f 21//22 11//15 18//22
f 23//25 19//17 15//17
f 15//18 19//18 23//26
f 24//8 16//8 19//8
f 19//7 16//7 24//7
f 25//27 14//28 16//28
f 16//29 14//29 25//30
f 17//23 20//23 26//23
f 26//24 20//24 17//24
f 17//7 27//7 21//7
f 21//8 27//8 17//8
f 28//8 20//8 18//8
f 18//7 20//7 28//7
f 14//7 29//7 22//7
f 22//8 29//8 14//8
f 15//7 22//7 23//7
f 23//8 22//8 15//8
f 21//21 30//31 18//21
f 18//22 30//32 21//22
f 19//17 23//25 31//25
f 31//26 23//26 19//18
f 32//8 16//8 24//8
f 24//7 16//7 32//7
f 24//8 19//8 31//8
f 31//7 19//7 24//7
f 14//28 25//27 33//27
f 33//30 25//30 14//29
f 32//8 25//8 16//8
f 16//7 25//7 32//7
f 20//33 34//33 26//33
f 26//34 34//34 20//34
f 26//7 27//7 17//7
f 17//8 27//8 26//8
f 21//7 27//7 35//7
f 35//8 27//8 21//8
f 36//8 20//8 28//8
f 28//7 20//7 36//7
f 28//8 18//8 30//8
f 30//7 18//7 28//7
f 33//7 29//7 14//7
f 14//8 29//8 33//8
f 29//35 24//36 22//36
f 22//37 24//37 29//38
f 23//7 22//7 37//7
f 37//8 22//8 23//8
f 30//31 21//21 35//31
f 35//32 21//22 30//32
f 38//39 31//25 23//25
f 23//26 31//26 38//40
f 24//36 29//35 32//35
f 32//38 29//38 24//37
f 24//8 31//8 39//8
f 39//7 31//7 24//7
f 40//41 33//27 25//27
f 25//30 33//30 40//42
f 41//8 25//8 32//8
f 32//7 25//7 41//7
f 34//33 20//33 42//33
f 42//34 20//34 34//34
f 34//7 27//7 26//7
f 26//8 27//8 34//8
f 27//24 30//24 35//24
f 35//23 30//23 27//23
f 20//8 36//8 42//8
f 42//7 36//7 20//7
f 27//34 36//34 28//34
f 28//33 36//33 27//33
f 30//24 27//24 28//24
f 28//23 27//23 30//23
f 33//7 43//7 29//7
f 29//8 43//8 33//8
f 24//43 37//43 22//43
f 22//44 37//44 24//44
f 23//7 37//7 38//7
f 38//8 37//8 23//8
f 31//25 38//39 44//39
f 44//40 38//40 31//26
f 43//45 32//35 29//35
f 29//38 32//38 43//46
f 39//8 31//8 44//8
f 44//7 31//7 39//7
f 37//43 24//43 39//43
f 39//44 24//44 37//44
f 33//27 40//41 45//41
f 45//42 40//42 33//30
f 41//8 40//8 25//8
f 25//7 40//7 41//7
f 32//35 43//45 41//45
f 41//46 43//46 32//38
f 36//23 34//23 42//23
f 42//24 34//24 36//24
f 27//7 34//7 46//7
f 46//8 34//8 27//8
f 36//34 27//34 46//34
f 46//33 27//33 36//33
f 45//7 43//7 33//7
f 33//8 43//8 45//8
f 38//7 37//7 47//7
f 47//8 37//8 38//8
f 47//47 44//39 38//39
f 38//40 44//40 47//48
f 39//8 44//8 48//8
f 48//7 44//7 39//7
f 39//49 49//49 37//49
f 37//50 49//50 39//50
f 50//51 45//41 40//41
f 40//42 45//42 50//52
f 51//8 40//8 41//8
f 41//7 40//7 51//7
f 52//53 41//45 43//45
f 43//46 41//46 52//54
f 34//23 36//23 46//23
f 46//24 36//24 34//24
f 45//7 52//7 43//7
f 43//8 52//8 45//8
f 47//7 37//7 53//7
f 53//8 37//8 47//8
f 44//39 47//47 48//47
f 48//48 47//48 44//40
f 39//8 48//8 54//8
f 54//7 48//7 39//7
f 49//49 39//49 55//49
f 55//50 39//50 49//50
f 53//7 37//7 49//7
f 49//8 37//8 53//8
f 45//41 50//51 56//51
f 56//52 50//52 45//42
f 51//8 50//8 40//8
f 40//7 50//7 51//7
f 41//45 52//53 51//53
f 51//54 52//54 41//46
f 56//7 52//7 45//7
f 45//8 52//8 56//8
f 53//55 48//47 47//47
f 47//48 48//48 53//56
f 48//47 53//55 54//55
f 54//56 53//56 48//48
f 39//8 54//8 55//8
f 55//7 54//7 39//7
f 55//57 57//57 49//57
f 49//58 57//58 55//58
f 53//7 49//7 58//7
f 58//8 49//8 53//8
f 59//59 56//51 50//51
f 50//52 56//52 59//60
f 60//8 50//8 51//8
f 51//7 50//7 60//7
f 61//61 51//53 52//53
f 52//54 51//54 61//62
f 56//7 61//7 52//7
f 52//8 61//8 56//8
f 53//63 62//63 54//63
f 54//64 62//64 53//64
f 55//8 54//8 62//8
f 62//7 54//7 55//7
f 57//57 55//57 63//57
f 63//58 55//58 57//58
f 64//7 49//7 57//7
f 57//8 49//8 64//8
f 58//7 49//7 64//7
f 64//8 49//8 58//8
f 62//63 53//63 58//63
f 58//64 53//64 62//64
f 56//51 59//59 65//59
f 65//60 59//60 56//52
f 60//8 59//8 50//8
f 50//7 59//7 60//7
f 51//53 61//61 60//61
f 60//62 61//62 51//54
f 65//7 61//7 56//7
f 56//8 61//8 65//8
f 55//8 62//8 66//8
f 66//7 62//7 55//7
f 55//8 66//8 63//8
f 63//7 66//7 55//7
f 63//65 67//65 57//65
f 57//66 67//66 63//66
f 64//7 57//7 68//7
f 68//8 57//8 64//8
f 66//67 58//67 64//67
f 64//68 58//68 66//68
f 58//67 66//67 62//67
f 62//68 66//68 58//68
f 69//69 65//59 59//59
f 59//60 65//60 69//70
f 70//8 59//8 60//8
f 60//7 59//7 70//7
f 71//71 60//61 61//61
f 61//62 60//62 71//72
f 65//7 71//7 61//7
f 61//8 71//8 65//8
f 63//8 66//8 72//8
f 72//7 66//7 63//7
f 67//65 63//65 73//65
f 73//66 63//66 67//66
f 68//7 57//7 67//7
f 67//8 57//8 68//8
f 72//73 64//73 68//73
f 68//74 64//74 72//74
f 64//73 72//73 66//73
f 66//74 72//74 64//74
f 65//59 69//69 74//69
f 74//70 69//70 65//60
f 59//8 70//8 69//8
f 69//7 70//7 59//7
f 60//61 71//71 70//71
f 70//72 71//72 60//62
f 71//7 65//7 74//7
f 74//8 65//8 71//8
f 63//8 72//8 73//8
f 73//7 72//7 63//7
f 75//24 67//24 73//24
f 73//23 67//23 75//23
f 68//7 67//7 76//7
f 76//8 67//8 68//8
f 68//75 75//75 72//75
f 72//76 75//76 68//76
f 70//71 74//69 69//69
f 69//70 74//70 70//72
f 74//69 70//71 71//71
f 71//72 70//72 74//70
f 73//8 72//8 75//8
f 75//7 72//7 73//7
f 67//24 75//24 76//24
f 76//23 75//23 67//23
f 75//75 68//75 76//75
f 76//76 68//76 75//76
