# SSTK version 0.8.0
# 122
mtllib original-122.mtl
o Group18/mesh52/mesh52-geometry/material_1/component_0#mesh52-geometry
v -0.438594 0.343093 0.398567
v -0.475304 0.347761 0.397316
v -0.436592 0.347761 0.397316
v -0.436592 0.347761 0.397316
v -0.475304 0.347761 0.397316
v -0.438594 0.343093 0.398567
v -0.436592 0.347761 0.397316
v -0.475987 0.352771 0.395974
v -0.435909 0.352771 0.395974
v -0.435909 0.352771 0.395974
v -0.475987 0.352771 0.395974
v -0.436592 0.347761 0.397316
v -0.435909 0.352771 0.395974
v -0.475304 0.357781 0.394632
v -0.436592 0.357781 0.394632
v -0.436592 0.357781 0.394632
v -0.475304 0.357781 0.394632
v -0.435909 0.352771 0.395974
v -0.441778 0.339084 0.399641
v -0.473302 0.343093 0.398567
v -0.438594 0.343093 0.398567
v -0.438594 0.343093 0.398567
v -0.473302 0.343093 0.398567
v -0.441778 0.339084 0.399641
v -0.438594 0.343093 0.398567
v -0.473302 0.343093 0.398567
v -0.475304 0.347761 0.397316
v -0.475304 0.347761 0.397316
v -0.473302 0.343093 0.398567
v -0.438594 0.343093 0.398567
v -0.436592 0.347761 0.397316
v -0.475304 0.347761 0.397316
v -0.475987 0.352771 0.395974
v -0.475987 0.352771 0.395974
v -0.475304 0.347761 0.397316
v -0.436592 0.347761 0.397316
v -0.435909 0.352771 0.395974
v -0.475987 0.352771 0.395974
v -0.475304 0.357781 0.394632
v -0.475304 0.357781 0.394632
v -0.475987 0.352771 0.395974
v -0.435909 0.352771 0.395974
v -0.436592 0.357781 0.394632
v -0.475304 0.357781 0.394632
v -0.473302 0.362449 0.393381
v -0.473302 0.362449 0.393381
v -0.475304 0.357781 0.394632
v -0.436592 0.357781 0.394632
v -0.436592 0.357781 0.394632
v -0.473302 0.362449 0.393381
v -0.438594 0.362449 0.393381
v -0.438594 0.362449 0.393381
v -0.473302 0.362449 0.393381
v -0.436592 0.357781 0.394632
v -0.441778 0.339084 0.399641
v -0.470118 0.339084 0.399641
v -0.473302 0.343093 0.398567
v -0.473302 0.343093 0.398567
v -0.470118 0.339084 0.399641
v -0.441778 0.339084 0.399641
v -0.438594 0.362449 0.393381
v -0.473302 0.362449 0.393381
v -0.470118 0.366458 0.392307
v -0.470118 0.366458 0.392307
v -0.473302 0.362449 0.393381
v -0.438594 0.362449 0.393381
v -0.445929 0.336008 0.400465
v -0.465967 0.336008 0.400465
v -0.441778 0.339084 0.399641
v -0.441778 0.339084 0.399641
v -0.465967 0.336008 0.400465
v -0.445929 0.336008 0.400465
v -0.441778 0.339084 0.399641
v -0.465967 0.336008 0.400465
v -0.470118 0.339084 0.399641
v -0.470118 0.339084 0.399641
v -0.465967 0.336008 0.400465
v -0.441778 0.339084 0.399641
v -0.438594 0.362449 0.393381
v -0.470118 0.366458 0.392307
v -0.441778 0.366458 0.392307
v -0.441778 0.366458 0.392307
v -0.470118 0.366458 0.392307
v -0.438594 0.362449 0.393381
v -0.450762 0.334075 0.400984
v -0.465967 0.336008 0.400465
v -0.445929 0.336008 0.400465
v -0.445929 0.336008 0.400465
v -0.465967 0.336008 0.400465
v -0.450762 0.334075 0.400984
v -0.441778 0.366458 0.392307
v -0.470118 0.366458 0.392307
v -0.465967 0.369534 0.391482
v -0.465967 0.369534 0.391482
v -0.470118 0.366458 0.392307
v -0.441778 0.366458 0.392307
v -0.441778 0.366458 0.392307
v -0.465967 0.369534 0.391482
v -0.445929 0.369534 0.391482
v -0.445929 0.369534 0.391482
v -0.465967 0.369534 0.391482
v -0.441778 0.366458 0.392307
v -0.450762 0.334075 0.400984
v -0.461134 0.334075 0.400984
v -0.465967 0.336008 0.400465
v -0.465967 0.336008 0.400465
v -0.461134 0.334075 0.400984
v -0.450762 0.334075 0.400984
v -0.445929 0.369534 0.391482
v -0.465967 0.369534 0.391482
v -0.450762 0.371468 0.390964
v -0.450762 0.371468 0.390964
v -0.465967 0.369534 0.391482
v -0.445929 0.369534 0.391482
v -0.461134 0.334075 0.400984
v -0.450762 0.334075 0.400984
v -0.455948 0.333415 0.401160
v -0.455948 0.333415 0.401160
v -0.450762 0.334075 0.400984
v -0.461134 0.334075 0.400984
v -0.450762 0.371468 0.390964
v -0.465967 0.369534 0.391482
v -0.461134 0.371468 0.390964
v -0.461134 0.371468 0.390964
v -0.465967 0.369534 0.391482
v -0.450762 0.371468 0.390964
v -0.450762 0.371468 0.390964
v -0.461134 0.371468 0.390964
v -0.455948 0.372127 0.390787
v -0.455948 0.372127 0.390787
v -0.461134 0.371468 0.390964
v -0.450762 0.371468 0.390964
vt 0 0
vn 0 -0.25881897461707354 -0.9659258451755843
vn 0 0.25881897461707354 0.9659258451755843
usemtl material_0_0
f 1/1/1 2/1/1 3/1/1
f 4/1/2 5/1/2 6/1/2
f 7/1/1 8/1/1 9/1/1
f 10/1/2 11/1/2 12/1/2
f 13/1/1 14/1/1 15/1/1
f 16/1/2 17/1/2 18/1/2
f 19/1/1 20/1/1 21/1/1
f 22/1/2 23/1/2 24/1/2
f 25/1/1 26/1/1 27/1/1
f 28/1/2 29/1/2 30/1/2
f 31/1/1 32/1/1 33/1/1
f 34/1/2 35/1/2 36/1/2
f 37/1/1 38/1/1 39/1/1
f 40/1/2 41/1/2 42/1/2
f 43/1/1 44/1/1 45/1/1
f 46/1/2 47/1/2 48/1/2
f 49/1/1 50/1/1 51/1/1
f 52/1/2 53/1/2 54/1/2
f 55/1/1 56/1/1 57/1/1
f 58/1/2 59/1/2 60/1/2
f 61/1/1 62/1/1 63/1/1
f 64/1/2 65/1/2 66/1/2
f 67/1/1 68/1/1 69/1/1
f 70/1/2 71/1/2 72/1/2
f 73/1/1 74/1/1 75/1/1
f 76/1/2 77/1/2 78/1/2
f 79/1/1 80/1/1 81/1/1
f 82/1/2 83/1/2 84/1/2
f 85/1/1 86/1/1 87/1/1
f 88/1/2 89/1/2 90/1/2
f 91/1/1 92/1/1 93/1/1
f 94/1/2 95/1/2 96/1/2
f 97/1/1 98/1/1 99/1/1
f 100/1/2 101/1/2 102/1/2
f 103/1/1 104/1/1 105/1/1
f 106/1/2 107/1/2 108/1/2
f 109/1/1 110/1/1 111/1/1
f 112/1/2 113/1/2 114/1/2
f 115/1/1 116/1/1 117/1/1
f 118/1/2 119/1/2 120/1/2
f 121/1/1 122/1/1 123/1/1
f 124/1/2 125/1/2 126/1/2
f 127/1/1 128/1/1 129/1/1
f 130/1/2 131/1/2 132/1/2
