# SSTK version 0.8.0
# 102
mtllib original-102.mtl
o 3dw.47c68395a5775e10d9deb3f829cc2475/Model/Component_18_1/Component_18/mesh1/mesh1-geometry/material_10/component_0#mesh1-geometry
v -0.336119 0.687235 0.469073
v -0.337199 0.702738 0.469001
v -0.335163 0.70288 0.469136
v -0.334083 0.687377 0.469208
v -0.335163 0.70288 0.469136
v -0.333159 0.70249 0.469269
v -0.338123 0.687625 0.468939
v -0.33913 0.702072 0.468873
v -0.337199 0.702738 0.469001
v -0.338123 0.687625 0.468939
v -0.337199 0.702738 0.469001
v -0.336119 0.687235 0.469073
v -0.336119 0.687235 0.469073
v -0.335163 0.70288 0.469136
v -0.334083 0.687377 0.469208
v -0.332152 0.688043 0.469336
v -0.333159 0.70249 0.469269
v -0.331324 0.701593 0.469391
v -0.334083 0.687377 0.469208
v -0.333159 0.70249 0.469269
v -0.332152 0.688043 0.469336
v -0.339958 0.688522 0.468818
v -0.33913 0.702072 0.468873
v -0.338123 0.687625 0.468939
v -0.332152 0.688043 0.469336
v -0.331324 0.701593 0.469391
v -0.33046 0.689187 0.469448
v -0.339958 0.688522 0.468818
v -0.340822 0.700928 0.46876
v -0.33913 0.702072 0.468873
v -0.33046 0.689187 0.469448
v -0.331324 0.701593 0.469391
v -0.329784 0.70025 0.469493
v -0.341499 0.689865 0.468715
v -0.340822 0.700928 0.46876
v -0.339958 0.688522 0.468818
v -0.32912 0.690731 0.469537
v -0.329784 0.70025 0.469493
v -0.328642 0.698554 0.469569
v -0.33046 0.689187 0.469448
v -0.329784 0.70025 0.469493
v -0.32912 0.690731 0.469537
v -0.341499 0.689865 0.468715
v -0.342162 0.699384 0.468671
v -0.340822 0.700928 0.46876
v -0.328225 0.69257 0.469597
v -0.328642 0.698554 0.469569
v -0.327978 0.696619 0.469613
v -0.32912 0.690731 0.469537
v -0.328642 0.698554 0.469569
v -0.328225 0.69257 0.469597
v -0.34264 0.691561 0.468639
v -0.342162 0.699384 0.468671
v -0.341499 0.689865 0.468715
v -0.328225 0.69257 0.469597
v -0.327978 0.696619 0.469613
v -0.327835 0.694578 0.469623
v -0.34264 0.691561 0.468639
v -0.343057 0.697545 0.468612
v -0.342162 0.699384 0.468671
v -0.343305 0.693496 0.468595
v -0.343057 0.697545 0.468612
v -0.34264 0.691561 0.468639
v -0.343057 0.697545 0.468612
v -0.343305 0.693496 0.468595
v -0.343447 0.695537 0.468586
v -0.335163 0.70288 0.469136
v -0.337199 0.702738 0.469001
v -0.336119 0.687235 0.469073
v -0.333159 0.70249 0.469269
v -0.335163 0.70288 0.469136
v -0.334083 0.687377 0.469208
v -0.337199 0.702738 0.469001
v -0.33913 0.702072 0.468873
v -0.338123 0.687625 0.468939
v -0.336119 0.687235 0.469073
v -0.337199 0.702738 0.469001
v -0.338123 0.687625 0.468939
v -0.334083 0.687377 0.469208
v -0.335163 0.70288 0.469136
v -0.336119 0.687235 0.469073
v -0.331324 0.701593 0.469391
v -0.333159 0.70249 0.469269
v -0.332152 0.688043 0.469336
v -0.332152 0.688043 0.469336
v -0.333159 0.70249 0.469269
v -0.334083 0.687377 0.469208
v -0.338123 0.687625 0.468939
v -0.33913 0.702072 0.468873
v -0.339958 0.688522 0.468818
v -0.33046 0.689187 0.469448
v -0.331324 0.701593 0.469391
v -0.332152 0.688043 0.469336
v -0.33913 0.702072 0.468873
v -0.340822 0.700928 0.46876
v -0.339958 0.688522 0.468818
v -0.329784 0.70025 0.469493
v -0.331324 0.701593 0.469391
v -0.33046 0.689187 0.469448
v -0.339958 0.688522 0.468818
v -0.340822 0.700928 0.46876
v -0.341499 0.689865 0.468715
v -0.328642 0.698554 0.469569
v -0.329784 0.70025 0.469493
v -0.32912 0.690731 0.469537
v -0.32912 0.690731 0.469537
v -0.329784 0.70025 0.469493
v -0.33046 0.689187 0.469448
v -0.340822 0.700928 0.46876
v -0.342162 0.699384 0.468671
v -0.341499 0.689865 0.468715
v -0.327978 0.696619 0.469613
v -0.328642 0.698554 0.469569
v -0.328225 0.69257 0.469597
v -0.328225 0.69257 0.469597
v -0.328642 0.698554 0.469569
v -0.32912 0.690731 0.469537
v -0.341499 0.689865 0.468715
v -0.342162 0.699384 0.468671
v -0.34264 0.691561 0.468639
v -0.327835 0.694578 0.469623
v -0.327978 0.696619 0.469613
v -0.328225 0.69257 0.469597
v -0.342162 0.699384 0.468671
v -0.343057 0.697545 0.468612
v -0.34264 0.691561 0.468639
v -0.34264 0.691561 0.468639
v -0.343057 0.697545 0.468612
v -0.343305 0.693496 0.468595
v -0.343447 0.695537 0.468586
v -0.343305 0.693496 0.468595
v -0.343057 0.697545 0.468612
vn 0.06627355889066593 0.0 -0.9978014909750162
vn -0.06627355889066593 0.0 0.9978014909750162
usemtl material_0_0
f 1//1 2//1 3//1
f 4//1 5//1 6//1
f 7//1 8//1 9//1
f 10//1 11//1 12//1
f 13//1 14//1 15//1
f 16//1 17//1 18//1
f 19//1 20//1 21//1
f 22//1 23//1 24//1
f 25//1 26//1 27//1
f 28//1 29//1 30//1
f 31//1 32//1 33//1
f 34//1 35//1 36//1
f 37//1 38//1 39//1
f 40//1 41//1 42//1
f 43//1 44//1 45//1
f 46//1 47//1 48//1
f 49//1 50//1 51//1
f 52//1 53//1 54//1
f 55//1 56//1 57//1
f 58//1 59//1 60//1
f 61//1 62//1 63//1
f 64//1 65//1 66//1
usemtl material_1_0
f 67//2 68//2 69//2
f 70//2 71//2 72//2
f 73//2 74//2 75//2
f 76//2 77//2 78//2
f 79//2 80//2 81//2
f 82//2 83//2 84//2
f 85//2 86//2 87//2
f 88//2 89//2 90//2
f 91//2 92//2 93//2
f 94//2 95//2 96//2
f 97//2 98//2 99//2
f 100//2 101//2 102//2
f 103//2 104//2 105//2
f 106//2 107//2 108//2
f 109//2 110//2 111//2
f 112//2 113//2 114//2
f 115//2 116//2 117//2
f 118//2 119//2 120//2
f 121//2 122//2 123//2
f 124//2 125//2 126//2
f 127//2 128//2 129//2
f 130//2 131//2 132//2
