# SSTK version 0.8.0
# 58
mtllib original-58.mtl
o mesh58/mesh58-geometry#mesh58-geometry
v 0.695687 0.158680 0.516508
v 0.696343 0.150113 0.516508
v 0.696113 0.144627 0.516508
v 0.697403 0.159900 0.516508
v 0.695645 0.130670 0.516508
v 0.696673 0.152333 0.516508
v 0.694301 0.156971 0.516508
v 0.696311 0.139162 0.516508
v 0.697201 0.154134 0.516508
v 0.694270 0.132419 0.516508
v 0.697364 0.129420 0.516508
v 0.697968 0.155565 0.516508
v 0.693234 0.154735 0.516508
v 0.696628 0.137078 0.516508
v 0.699450 0.160632 0.516508
v 0.693216 0.134682 0.516508
v 0.697180 0.135225 0.516508
v 0.698971 0.156594 0.516508
v 0.692472 0.151932 0.516508
v 0.697916 0.133799 0.516508
v 0.700245 0.157214 0.516508
v 0.692464 0.137471 0.516508
v 0.699425 0.128670 0.516508
v 0.701829 0.160876 0.516508
v 0.692014 0.148563 0.516508
v 0.698908 0.132744 0.516508
v 0.701829 0.157421 0.516508
v 0.692012 0.140786 0.516508
v 0.700198 0.132092 0.516508
v 0.704233 0.160624 0.516508
v 0.691862 0.144627 0.516508
v 0.701829 0.128420 0.516508
v 0.703423 0.157214 0.516508
v 0.701829 0.131875 0.516508
v 0.704687 0.156594 0.516508
v 0.703413 0.132082 0.516508
v 0.706294 0.159866 0.516508
v 0.704208 0.128665 0.516508
v 0.705669 0.155576 0.516508
v 0.704687 0.132702 0.516508
v 0.706415 0.154176 0.516508
v 0.706255 0.129401 0.516508
v 0.708013 0.158603 0.516508
v 0.705685 0.133731 0.516508
v 0.706949 0.152406 0.516508
v 0.706436 0.135162 0.516508
v 0.707294 0.150239 0.516508
v 0.707972 0.130628 0.516508
v 0.707546 0.144669 0.516508
v 0.706954 0.136916 0.516508
v 0.707294 0.139078 0.516508
v 0.709357 0.132346 0.516508
v 0.709388 0.156835 0.516508
v 0.710424 0.134589 0.516508
v 0.710442 0.154559 0.516508
v 0.711186 0.137390 0.516508
v 0.711194 0.151773 0.516508
v 0.711644 0.140750 0.516508
v 0.711646 0.148476 0.516508
v 0.711796 0.144669 0.516508
vn 0 0 -1
vn 0 0 1
usemtl material_0_0
f 1//1 2//1 3//1
f 2//1 1//1 4//1
f 3//2 2//2 1//2
f 4//2 1//2 2//2
f 5//1 1//1 3//1
f 3//2 1//2 5//2
f 2//1 4//1 6//1
f 6//2 4//2 2//2
f 5//1 7//1 1//1
f 1//2 7//2 5//2
f 5//1 3//1 8//1
f 8//2 3//2 5//2
f 6//1 4//1 9//1
f 9//2 4//2 6//2
f 10//1 7//1 5//1
f 5//2 7//2 10//2
f 5//1 8//1 11//1
f 11//2 8//2 5//2
f 9//1 4//1 12//1
f 12//2 4//2 9//2
f 10//1 13//1 7//1
f 7//2 13//2 10//2
f 11//1 8//1 14//1
f 14//2 8//2 11//2
f 12//1 4//1 15//1
f 15//2 4//2 12//2
f 16//1 13//1 10//1
f 10//2 13//2 16//2
f 11//1 14//1 17//1
f 17//2 14//2 11//2
f 12//1 15//1 18//1
f 18//2 15//2 12//2
f 16//1 19//1 13//1
f 13//2 19//2 16//2
f 11//1 17//1 20//1
f 20//2 17//2 11//2
f 18//1 15//1 21//1
f 21//2 15//2 18//2
f 22//1 19//1 16//1
f 16//2 19//2 22//2
f 11//1 20//1 23//1
f 23//2 20//2 11//2
f 21//1 15//1 24//1
f 24//2 15//2 21//2
f 22//1 25//1 19//1
f 19//2 25//2 22//2
f 23//1 20//1 26//1
f 26//2 20//2 23//2
f 21//1 24//1 27//1
f 27//2 24//2 21//2
f 28//1 25//1 22//1
f 22//2 25//2 28//2
f 23//1 26//1 29//1
f 29//2 26//2 23//2
f 27//1 24//1 30//1
f 30//2 24//2 27//2
f 25//1 28//1 31//1
f 31//2 28//2 25//2
f 23//1 29//1 32//1
f 32//2 29//2 23//2
f 27//1 30//1 33//1
f 33//2 30//2 27//2
f 32//1 29//1 34//1
f 34//2 29//2 32//2
f 33//1 30//1 35//1
f 35//2 30//2 33//2
f 32//1 34//1 36//1
f 36//2 34//2 32//2
f 35//1 30//1 37//1
f 37//2 30//2 35//2
f 32//1 36//1 38//1
f 38//2 36//2 32//2
f 35//1 37//1 39//1
f 39//2 37//2 35//2
f 38//1 36//1 40//1
f 40//2 36//2 38//2
f 39//1 37//1 41//1
f 41//2 37//2 39//2
f 38//1 40//1 42//1
f 42//2 40//2 38//2
f 41//1 37//1 43//1
f 43//2 37//2 41//2
f 42//1 40//1 44//1
f 44//2 40//2 42//2
f 41//1 43//1 45//1
f 45//2 43//2 41//2
f 42//1 44//1 46//1
f 46//2 44//2 42//2
f 45//1 43//1 47//1
f 47//2 43//2 45//2
f 42//1 46//1 48//1
f 48//2 46//2 42//2
f 47//1 43//1 49//1
f 49//2 43//2 47//2
f 48//1 46//1 50//1
f 50//2 46//2 48//2
f 49//1 43//1 48//1
f 48//2 43//2 49//2
f 48//1 50//1 51//1
f 51//2 50//2 48//2
f 48//1 43//1 52//1
f 52//2 43//2 48//2
f 48//1 51//1 49//1
f 49//2 51//2 48//2
f 52//1 43//1 53//1
f 53//2 43//2 52//2
f 52//1 53//1 54//1
f 54//2 53//2 52//2
f 54//1 53//1 55//1
f 55//2 53//2 54//2
f 54//1 55//1 56//1
f 56//2 55//2 54//2
f 56//1 55//1 57//1
f 57//2 55//2 56//2
f 56//1 57//1 58//1
f 58//2 57//2 56//2
f 58//1 57//1 59//1
f 59//2 57//2 58//2
f 58//1 59//1 60//1
f 60//2 59//2 58//2
