mtllib new-2.mtl
v -0.294530 -0.939710 0.207950
v -0.284812 -0.950549 0.213561
v -0.273590 -0.950549 0.213561
v -0.297975 -0.939710 0.203460
v -0.290040 -0.950549 0.211395
v -0.268362 -0.939710 0.211395
v -0.268362 -0.950549 0.211395
v -0.297975 -0.939710 0.181782
v -0.300141 -0.939710 0.198232
v -0.297975 -0.950549 0.203460
v -0.294530 -0.950549 0.207950
v -0.294530 -0.939710 0.177292
v -0.300141 -0.939710 0.187010
v -0.300880 -0.939710 0.192621
v -0.300141 -0.950549 0.198232
v -0.263872 -0.939710 0.207950
v -0.263872 -0.950549 0.207950
v -0.290040 -0.939710 0.173847
v -0.294530 -0.950549 0.177292
v -0.297975 -0.950549 0.181782
v -0.300880 -0.950549 0.192621
v -0.260427 -0.950549 0.203460
v -0.284812 -0.939710 0.171681
v -0.300141 -0.950549 0.187010
v -0.258261 -0.950549 0.198232
v -0.260427 -0.939710 0.203460
v -0.279201 -0.939710 0.170943
v -0.290040 -0.950549 0.173847
v -0.260427 -0.950549 0.181782
v -0.258261 -0.950549 0.187010
v -0.257523 -0.950549 0.192621
v -0.258261 -0.939710 0.198232
v -0.284812 -0.950549 0.171681
v -0.263872 -0.950549 0.177292
v -0.257523 -0.939710 0.192621
v -0.279201 -0.950549 0.170943
v -0.268362 -0.950549 0.173847
v -0.263872 -0.939710 0.177292
v -0.260427 -0.939710 0.181782
v -0.258261 -0.939710 0.187010
v -0.273590 -0.939710 0.171681
v -0.273590 -0.950549 0.171681
v -0.268362 -0.939710 0.173847
vn -0.965926 0.000000 -0.258819
vn 0.965926 0.000000 0.258819
vn 0.000000 0.000000 -1.000000
vn 0.000000 0.000000 1.000000
vn -1.000000 0.000000 0.000000
vn 1.000000 0.000000 0.000000
vn 0.000000 1.000000 0.000000
vn 0.000000 -1.000000 0.000000
vn -0.965926 0.000000 0.258819
vn 0.965926 0.000000 -0.258819
vn 0.258819 0.000000 -0.965926
vn -0.258819 0.000000 0.965926
vn 0.258819 0.000000 0.965926
vn -0.258819 0.000000 -0.965926
vn 0.866025 0.000000 0.500000
vn -0.866025 0.000000 -0.500000
vn 0.866025 0.000000 -0.500000
vn -0.866025 0.000000 0.500000
vn -0.707107 0.000000 -0.707107
vn 0.707107 0.000000 0.707107
vn 0.500000 0.000000 -0.866025
vn -0.500000 0.000000 0.866025
vn -0.500000 0.000000 -0.866025
vn 0.500000 0.000000 0.866025
vn -0.707107 0.000000 0.707107
vn 0.707107 0.000000 -0.707107
usemtl material-1
f 10//18 1//25 4//18
f 4//17 1//26 10//17
f 5//22 1//25 11//25
f 11//26 1//26 5//21
f 5//8 3//8 2//8
f 2//7 3//7 5//7
f 15//9 4//18 9//9
f 9//10 4//17 15//10
f 1//25 10//18 11//25
f 11//26 10//17 1//26
f 4//18 15//9 10//18
f 10//17 15//10 4//17
f 11//8 7//8 5//8
f 5//7 7//7 11//7
f 17//20 6//24 7//24
f 7//23 6//23 17//19
f 19//19 8//16 12//19
f 12//20 8//15 19//20
f 20//16 13//1 8//16
f 8//15 13//2 20//15
f 9//9 21//5 15//9
f 15//10 21//6 9//10
f 10//8 17//8 11//8
f 11//7 17//7 10//7
f 15//8 22//8 10//8
f 10//7 22//7 15//7
f 11//8 17//8 7//8
f 7//7 17//7 11//7
f 6//24 17//20 16//20
f 16//19 17//19 6//23
f 18//23 19//19 12//19
f 12//20 19//20 18//24
f 8//16 19//19 20//16
f 20//15 19//20 8//15
f 13//1 20//16 24//1
f 24//2 20//15 13//2
f 24//1 14//5 13//1
f 13//2 14//6 24//2
f 14//5 24//1 21//5
f 21//6 24//2 14//6
f 21//8 25//8 15//8
f 15//7 25//7 21//7
f 10//8 22//8 17//8
f 17//7 22//7 10//7
f 15//8 25//8 22//8
f 22//7 25//7 15//7
f 17//20 26//15 16//20
f 16//19 26//16 17//19
f 23//14 28//23 18//23
f 18//24 28//24 23//13
f 19//19 18//23 28//23
f 28//24 18//24 19//20
f 19//8 29//8 20//8
f 20//7 29//7 19//7
f 20//8 30//8 24//8
f 24//7 30//7 20//7
f 24//8 31//8 21//8
f 21//7 31//7 24//7
f 21//8 31//8 25//8
f 25//7 31//7 21//7
f 26//15 17//20 22//15
f 22//16 17//19 26//16
f 32//2 22//15 25//2
f 25//1 22//16 32//1
f 27//3 33//14 23//14
f 23//13 33//13 27//4
f 28//23 23//14 33//14
f 33//13 23//13 28//24
f 28//8 34//8 19//8
f 19//7 34//7 28//7
f 19//8 34//8 29//8
f 29//7 34//7 19//7
f 20//8 29//8 30//8
f 30//7 29//7 20//7
f 24//8 30//8 31//8
f 31//7 30//7 24//7
f 35//6 25//2 31//6
f 31//5 25//1 35//5
f 22//15 32//2 26//15
f 26//16 32//1 22//16
f 25//2 35//6 32//2
f 32//1 35//5 25//1
f 33//14 27//3 36//3
f 36//4 27//4 33//13
f 33//8 37//8 28//8
f 28//7 37//7 33//7
f 28//8 37//8 34//8
f 34//7 37//7 28//7
f 38//26 29//17 34//26
f 34//25 29//18 38//25
f 39//17 30//10 29//17
f 29//18 30//9 39//18
f 40//10 31//6 30//10
f 30//9 31//5 40//9
f 31//6 40//10 35//6
f 35//5 40//9 31//5
f 41//11 36//3 27//3
f 27//4 36//4 41//12
f 42//8 33//8 36//8
f 36//7 33//7 42//7
f 33//8 42//8 37//8
f 37//7 42//7 33//7
f 37//21 38//26 34//26
f 34//25 38//25 37//22
f 29//17 38//26 39//17
f 39//18 38//25 29//18
f 30//10 39//17 40//10
f 40//9 39//18 30//9
f 36//3 41//11 42//11
f 42//12 41//12 36//4
f 42//11 43//21 37//21
f 37//22 43//22 42//12
f 38//26 37//21 43//21
f 43//22 37//22 38//25
f 43//21 42//11 41//11
f 41//12 42//12 43//22