# SSTK version 0.8.0
# 28
mtllib original-28.mtl
o Component_5_4/Component_5_1_2/mesh16/mesh16-geometry#mesh16-geometry
v -0.703454 -0.030585 -0.302692
v -0.356190 -0.030585 -0.301597
v -0.703454 -0.030585 -0.301597
v -0.356190 -0.030585 -0.302692
v -0.704026 -0.031157 -0.301559
v -0.703454 0.019806 -0.301597
v -0.356190 0.019806 -0.302692
v -0.355618 -0.031157 -0.301559
v -0.703454 0.019806 -0.302692
v -0.356190 0.019806 -0.301597
v -0.355618 0.020378 -0.301559
v -0.704588 -0.031720 -0.301448
v -0.704026 0.019806 -0.301559
v -0.355056 0.020940 -0.301448
v -0.355056 -0.031720 -0.301448
v -0.704026 0.020378 -0.301559
v -0.704588 0.020940 -0.301448
v -0.705131 -0.032262 -0.301263
v -0.354513 0.021483 -0.301263
v -0.705131 0.021483 -0.301263
v -0.354513 -0.032262 -0.301263
v -0.704588 0.019806 -0.301448
v -0.705645 -0.032776 -0.301010
v -0.353999 0.021997 -0.301010
v -0.705645 0.021997 -0.301010
v -0.705131 0.019806 -0.301263
v -0.353999 -0.032776 -0.301010
v -0.706121 -0.033253 -0.300691
v -0.353522 0.022474 -0.300691
v -0.706121 0.022474 -0.300691
v -0.705645 0.019806 -0.301010
v -0.353522 -0.033253 -0.300691
v -0.706552 -0.033684 -0.300314
v -0.353092 0.022905 -0.300314
v -0.706552 0.022905 -0.300314
v -0.706121 0.019806 -0.300691
v -0.353092 -0.033684 -0.300314
v -0.352714 -0.034062 -0.299883
v -0.352714 0.023283 -0.299883
v -0.706930 0.023283 -0.299883
v -0.706552 0.019806 -0.300314
v -0.706930 -0.034062 -0.299883
v -0.706930 0.019806 -0.299883
v -0.352395 -0.034380 -0.299406
v -0.352395 0.023601 -0.299406
v -0.707249 0.023601 -0.299406
v -0.707249 -0.034380 -0.299406
v -0.707249 0.019806 -0.299406
v -0.352142 -0.034634 -0.298892
v -0.352142 0.023855 -0.298892
v -0.707502 0.023855 -0.298892
v -0.707502 -0.034634 -0.298892
v -0.707502 0.019806 -0.298892
v -0.351957 -0.034818 -0.298349
v -0.351957 0.024039 -0.298349
v -0.707686 0.024039 -0.298349
v -0.707686 -0.034818 -0.298349
v -0.707686 0.019806 -0.298349
v -0.351846 -0.034930 -0.297787
v -0.351846 0.024151 -0.297787
v -0.707798 0.024151 -0.297787
v -0.707798 -0.034930 -0.297787
v -0.707798 0.019806 -0.297787
v -0.351808 -0.034967 -0.297215
v -0.351808 0.024188 -0.297215
v -0.707836 0.024188 -0.297215
v -0.707836 -0.034967 -0.297215
v -0.707836 0.019806 -0.297215
v -0.351808 -0.034967 -0.295024
v -0.707836 0.024188 -0.295024
v -0.707836 -0.034967 -0.295024
v -0.351808 0.024188 -0.295024
v -0.358911 -0.027864 -0.295024
v -0.358911 0.017085 -0.295024
v -0.700733 -0.027864 -0.295024
v -0.700733 0.017085 -0.295024
v -0.358911 -0.027864 -0.289547
v -0.700733 0.017085 -0.289547
v -0.358911 0.017085 -0.289547
v -0.700733 -0.027864 -0.289547
vt -0.0625 1.041306
vt -0.057292 0.012976
vt -0.057292 1.041306
vt -0.0625 0.012976
vt 0.020833 0.015282
vt 1.674594 0.013584
vt 1.671875 0.015282
vt -0.057292 0.162197
vt 1.671875 0.012976
vt 0.020833 0.162197
vt 0.020833 0.012976
vt 0.0625 0.162197
vt 0.057292 0.012976
vt 0.0625 0.012976
vt 0.018114 0.013584
vt 1.667273 0.011282
vt 1.664548 0.162197
vt 1.664548 0.012976
vt -0.0625 0.162197
vt 1.671875 0.162197
vt 0.057292 0.162197
vt 0.024536 0.012976
vt 0.021811 0.163891
vt 0.021811 0.011282
vt 0.018114 0.018005
vt 1.677267 0.016308
vt 1.674594 0.018005
vt 1.667273 0.162197
vt 0.057292 1.041306
vt 0.0625 1.041306
vt 0.024536 0.162197
vt 0.026183 0.165556
vt 0.028908 0.011282
vt 0.028908 0.163891
vt 0.015441 0.016308
vt 1.634 0.009617
vt 1.631275 0.162197
vt 1.631275 0.011282
vt 1.674594 0.161213
vt 0.020833 0.159516
vt 1.671875 0.159516
vt 0.018114 0.161213
vt 0.026183 0.009617
vt 0.018114 0.153802
vt 1.677267 0.155499
vt 0.015441 0.155499
vt 0.015441 0.020435
vt 1.679848 0.018738
vt 1.677267 0.020435
vt 1.631275 0.163891
vt 1.674594 0.153802
vt 0.030084 0.167163
vt 0.032809 0.009617
vt 0.032809 0.165556
vt 1.679848 0.147139
vt 0.015441 0.145442
vt 1.677267 0.145442
vt 0.012861 0.018738
vt 1.572792 0.00801
vt 1.570067 0.162197
vt 1.570067 0.009617
vt 1.634 0.165556
vt 0.030084 0.00801
vt 0.012861 0.147139
vt 1.570067 0.165556
vt 1.572792 0.167163
vt 0.012861 0.02253
vt 1.682292 0.020832
vt 1.679848 0.02253
vt 1.634 0.162197
vt 0.033447 0.168685
vt 0.036173 0.00801
vt 0.036173 0.167163
vt 1.682292 0.136276
vt 0.012861 0.134578
vt 1.679848 0.134578
vt 1.572792 0.162197
vt 0.010417 0.020832
vt 1.484697 0.006488
vt 1.481971 0.162197
vt 1.481971 0.00801
vt 0.033447 0.006488
vt 0.010417 0.136276
vt 1.481971 0.167163
vt 1.484697 0.168685
vt 0.010417 0.024253
vt 1.684558 0.022556
vt 1.682292 0.024253
vt 0.036215 0.170096
vt 0.03894 0.006488
vt 0.03894 0.168685
vt 1.684558 0.123095
vt 0.010417 0.121398
vt 1.682292 0.121398
vt 1.484697 0.162197
vt 0.008151 0.022556
vt 1.371221 0.005077
vt 1.368496 0.162197
vt 1.368496 0.006488
vt 0.036215 0.005077
vt 0.008151 0.123095
vt 1.368496 0.168685
vt 1.371221 0.170096
vt 0.008151 0.025577
vt 1.686606 0.023879
vt 1.684558 0.025577
vt 0.038339 0.171372
vt 0.041065 0.005077
vt 0.041065 0.170096
vt 1.686606 0.107823
vt 0.008151 0.106126
vt 1.684558 0.106126
vt 1.371221 0.162197
vt 0.006102 0.023879
vt 1.234306 0.003801
vt 1.231581 0.162197
vt 1.231581 0.005077
vt 0.038339 0.003801
vt 0.006102 0.107823
vt 1.231581 0.170096
vt 1.234306 0.171372
vt 0.004305 0.024779
vt 1.686606 0.026477
vt 0.006102 0.026477
vt 0.039785 0.172492
vt 0.04251 0.003801
vt 0.04251 0.171372
vt 1.688403 0.09072
vt 0.006102 0.089023
vt 1.686606 0.089023
vt 1.234306 0.162197
vt 1.688403 0.024779
vt 0.039785 0.002681
vt 0.004305 0.09072
vt 1.07357 0.162197
vt 1.076296 0.172492
vt 1.07357 0.171372
vt 1.07357 0.003801
vt 1.076296 0.162197
vt 0.002791 0.025241
vt 1.688403 0.026938
vt 0.004305 0.026938
vt 1.076296 0.002681
vt 0.040526 0.173435
vt 0.043251 0.002681
vt 0.043251 0.172492
vt 1.689917 0.07208
vt 0.004305 0.070383
vt 1.688403 0.070383
vt 1.689917 0.025241
vt 0.040526 0.001738
vt 0.897167 0.002681
vt 0.899893 0.162197
vt 0.897167 0.162197
vt 0.002791 0.07208
vt 0.897167 0.172492
vt 0.899893 0.173435
vt 0.001586 0.025256
vt 1.689917 0.026954
vt 0.002791 0.026954
vt 0.899893 0.001738
vt 0.04055 0.174185
vt 0.043275 0.001738
vt 0.043275 0.173435
vt 1.691122 0.052221
vt 0.002791 0.050524
vt 1.689917 0.050524
vt 0.70539 0.162197
vt 0.708115 0.174185
vt 0.70539 0.173435
vt 1.691122 0.025256
vt 0.04055 0.000988
vt 0.70539 0.001738
vt 0.708115 0.162197
vt 0.001586 0.052221
vt 0.00071 0.024825
vt 1.691122 0.026522
vt 0.001586 0.026522
vt 0.708115 0.000988
vt 0.039858 0.174731
vt 0.042583 0.000988
vt 0.042583 0.174185
vt 1.691998 0.031483
vt 0.001586 0.029785
vt 1.691122 0.029785
vt 0.501521 0.162197
vt 0.504246 0.174731
vt 0.501521 0.174185
vt 1.691998 0.024825
vt 0.039858 0.000442
vt 0.501521 0.000988
vt 0.504246 0.162197
vt 0.00071 0.031483
vt 0.000178 0.023954
vt 1.691998 0.025651
vt 0.00071 0.025651
vt 0.504246 0.000442
vt 0.03846 0.175062
vt 0.041185 0.000442
vt 0.041185 0.174731
vt 1.69253 0.01022
vt 0.00071 0.008523
vt 1.691998 0.008523
vt 0.289046 0.162197
vt 0.291771 0.175062
vt 0.289046 0.174731
vt 1.69253 0.023954
vt 0.03846 0.000111
vt 0.289046 0.000442
vt 0.291771 0.162197
vt 0.000178 0.01022
vt 0 0.022659
vt 1.69253 0.024356
vt 0.000178 0.024356
vt 0.291771 0.000111
vt 0.03638 0.175173
vt 0.039105 0.000111
vt 0.039105 0.175062
vt 1.692708 -0.011202
vt 0.000178 -0.012899
vt 1.69253 -0.012899
vt 0.071603 0.162197
vt 0.074328 0.175173
vt 0.071603 0.175062
vt 1.692708 0.022659
vt 0.03638 0
vt 0.071603 0.000111
vt 0.074328 0.162197
vt 0 -0.011202
vt -0.026042 0
vt -0.036458 1.054282
vt -0.036458 0
vt 0.074328 0
vt 0.036458 0.175173
vt 0.026042 0
vt 0.036458 0
vt 0.026042 1.054282
vt 0.036458 1.054282
vt -0.036458 0.162197
vt -0.026042 0.175173
vt -0.036458 0.175173
vt -0.026042 1.054282
vt 0.026042 0.175173
vt 0 0
vt -0.03377 0.021033
vt -1.692708 0
vt 0 0.175173
vt -0.03377 0.15414
vt -1.692708 0.175173
vt -1.658938 0.021033
vt -1.658938 0.15414
vt 0.026042 0.15414
vt 0 0.021033
vt 0.026042 0.021033
vt -0.026042 1.033249
vt -0.026042 0.021033
vt 0 1.033249
vt 0.026042 1.033249
vt 0 0.15414
vt -0.026042 0.15414
vn 0 -1 0
vn 0 -0.06540299554311302 -0.9978589320009053
vn 0 -0.1305259853353411 -0.9914448886106773
vn -1 0 0
vn 0 0 -1
vn 1 0 0
vn -0.1305259853353411 0 -0.9914448886106773
vn -0.06540299554311302 0 -0.9978589320009053
vn 0.06540299554311302 0 -0.9978589320009053
vn 0.1305259853353411 0 -0.9914448886106773
vn 0 -0.2588189595935754 -0.965925849201117
vn 0 1 0
vn 0.2588189595935754 0 -0.965925849201117
vn -0.2588189595935754 0 -0.965925849201117
vn 0 0.1305259853353411 -0.9914448886106773
vn 0 0.06540299554311302 -0.9978589320009053
vn 0 0.2588189595935754 -0.965925849201117
vn 0 -0.38268289803626016 -0.9238797538373538
vn -0.19509006590875128 0 -0.9807853313461203
vn 0.38268289803626016 0 -0.9238797538373538
vn 0 0.38268289803626016 -0.9238797538373538
vn -0.38268289803626016 0 -0.9238797538373538
vn 0 -0.5000001748438417 -0.8660253028382762
vn 0.5000001748438417 0 -0.8660253028382762
vn 0 0.5000001748438417 -0.8660253028382762
vn -0.5000001748438417 0 -0.8660253028382762
vn 0 -0.6087613233345314 -0.7933534213778813
vn 0.6087613233345314 0 -0.7933534213778813
vn 0 0.6087613233345314 -0.7933534213778813
vn -0.6087613233345314 0 -0.7933534213778813
vn 0 -0.7071067811865476 -0.7071067811865476
vn 0.7071067811865476 0 -0.7071067811865476
vn 0 0.7071067811865476 -0.7071067811865476
vn -0.7071067811865476 0 -0.7071067811865476
vn 0 -0.7933534213778813 -0.6087613233345314
vn 0.7933534213778813 0 -0.6087613233345314
vn 0 0.7933534213778813 -0.6087613233345314
vn -0.7933534213778813 0 -0.6087613233345314
vn 0 -0.8660253028382762 -0.5000001748438417
vn 0.8660253028382762 0 -0.5000001748438417
vn 0 0.8660253028382762 -0.5000001748438417
vn -0.8660253028382762 0 -0.5000001748438417
vn 0 -0.9238797538373538 -0.38268289803626016
vn 0.9238797538373538 0 -0.38268289803626016
vn 0 0.9238797538373538 -0.38268289803626016
vn -0.9238797538373538 0 -0.38268289803626016
vn 0 -0.965925849201117 -0.2588189595935754
vn 0.965925849201117 0 -0.2588189595935754
vn 0 0.965925849201117 -0.2588189595935754
vn -0.965925849201117 0 -0.2588189595935754
vn 0 -0.9914448886106773 -0.1305259853353411
vn 0.9914448886106773 0 -0.1305259853353411
vn 0 0.9914448886106773 -0.1305259853353411
vn -0.9914448886106773 0 -0.1305259853353411
vn 0 -0.9978589320009053 -0.06540299554311302
vn 0.9978589320009053 0 -0.06540299554311302
vn 0 0.9978589320009053 -0.06540299554311302
vn -0.9978589320009053 0 -0.06540299554311302
vn 0 0 1
vn 0 0.06540299554311302 0.9978589320009053
vn 0 0.1305259853353411 0.9914448886106773
vn 0.06540299554311302 0 0.9978589320009053
vn 0.1305259853353411 0 0.9914448886106773
vn -0.1305259853353411 0 0.9914448886106773
vn -0.06540299554311302 0 0.9978589320009053
vn 0 0.2588189595935754 0.965925849201117
vn -0.2588189595935754 0 0.965925849201117
vn 0.2588189595935754 0 0.965925849201117
vn 0 -0.06540299554311302 0.9978589320009053
vn 0 -0.1305259853353411 0.9914448886106773
vn 0 -0.2588189595935754 0.965925849201117
vn 0 0.38268289803626016 0.9238797538373538
vn 0.19509006590875128 0 0.9807853313461203
vn -0.38268289803626016 0 0.9238797538373538
vn 0 -0.38268289803626016 0.9238797538373538
vn 0.38268289803626016 0 0.9238797538373538
vn 0 0.5000001748438417 0.8660253028382762
vn -0.5000001748438417 0 0.8660253028382762
vn 0 -0.5000001748438417 0.8660253028382762
vn 0.5000001748438417 0 0.8660253028382762
vn 0 0.6087613233345314 0.7933534213778813
vn -0.6087613233345314 0 0.7933534213778813
vn 0 -0.6087613233345314 0.7933534213778813
vn 0.6087613233345314 0 0.7933534213778813
vn 0 0.7071067811865476 0.7071067811865476
vn -0.7071067811865476 0 0.7071067811865476
vn 0 -0.7071067811865476 0.7071067811865476
vn 0.7071067811865476 0 0.7071067811865476
vn 0 0.7933534213778813 0.6087613233345314
vn -0.7933534213778813 0 0.6087613233345314
vn 0 -0.7933534213778813 0.6087613233345314
vn 0.7933534213778813 0 0.6087613233345314
vn 0 0.8660253028382762 0.5000001748438417
vn -0.8660253028382762 0 0.5000001748438417
vn 0 -0.8660253028382762 0.5000001748438417
vn 0.8660253028382762 0 0.5000001748438417
vn 0 0.9238797538373538 0.38268289803626016
vn -0.9238797538373538 0 0.38268289803626016
vn 0 -0.9238797538373538 0.38268289803626016
vn 0.9238797538373538 0 0.38268289803626016
vn 0 0.965925849201117 0.2588189595935754
vn -0.965925849201117 0 0.2588189595935754
vn 0 -0.965925849201117 0.2588189595935754
vn 0.965925849201117 0 0.2588189595935754
vn 0 0.9914448886106773 0.1305259853353411
vn -0.9914448886106773 0 0.1305259853353411
vn 0 -0.9914448886106773 0.1305259853353411
vn 0.9914448886106773 0 0.1305259853353411
vn 0 0.9978589320009053 0.06540299554311302
vn -0.9978589320009053 0 0.06540299554311302
vn 0 -0.9978589320009053 0.06540299554311302
vn 0.9978589320009053 0 0.06540299554311302
usemtl material_0_0
f 1/1/1 2/2/1 3/3/1
f 2/2/1 1/1/1 4/4/1
f 2/5/2 5/6/3 3/7/2
f 6/8/4 1/4/4 3/2/4
f 1/9/5 7/10/5 4/11/5
f 7/12/6 2/13/6 4/14/6
f 5/6/3 2/5/2 8/15/3
f 5/16/7 6/17/8 3/18/8
f 1/4/4 6/8/4 9/19/4
f 7/10/5 1/9/5 9/20/5
f 2/13/6 7/12/6 10/21/6
f 2/22/9 11/23/10 8/24/10
f 8/25/3 12/26/11 5/27/3
f 6/17/8 5/16/7 13/28/7
f 6/29/12 7/14/12 9/30/12
f 7/14/12 6/29/12 10/13/12
f 11/23/10 2/22/9 10/31/9
f 14/32/13 8/33/10 11/34/10
f 12/26/11 8/25/3 15/35/11
f 12/36/14 13/37/7 5/38/7
f 16/39/15 10/40/16 6/41/16
f 10/40/16 16/39/15 11/42/15
f 8/33/10 14/32/13 15/43/13
f 11/44/15 17/45/17 14/46/17
f 15/47/11 18/48/18 12/49/11
f 13/37/7 12/36/14 16/50/19
f 17/45/17 11/44/15 16/51/15
f 19/52/20 15/53/13 14/54/13
f 20/55/21 14/56/17 17/57/17
f 18/48/18 15/47/11 21/58/18
f 18/59/22 22/60/14 12/61/14
f 16/50/19 12/36/14 17/62/14
f 15/53/13 19/52/20 21/63/20
f 14/56/17 20/55/21 19/64/21
f 17/65/14 18/59/22 20/66/22
f 21/67/18 23/68/23 18/69/18
f 22/60/14 18/59/22 17/65/14
f 17/62/14 12/36/14 22/70/14
f 24/71/24 21/72/20 19/73/20
f 25/74/25 19/75/21 20/76/21
f 20/66/22 18/59/22 26/77/22
f 23/68/23 21/67/18 27/78/23
f 23/79/26 26/80/22 18/81/22
f 21/72/20 24/71/24 27/82/24
f 19/75/21 25/74/25 24/83/25
f 20/84/22 23/79/26 25/85/26
f 26/80/22 23/79/26 20/84/22
f 27/86/23 28/87/27 23/88/23
f 29/89/28 27/90/24 24/91/24
f 30/92/29 24/93/25 25/94/25
f 25/85/26 23/79/26 31/95/26
f 28/87/27 27/86/23 32/96/27
f 28/97/30 31/98/26 23/99/26
f 27/90/24 29/89/28 32/100/28
f 24/93/25 30/92/29 29/101/29
f 25/102/26 28/97/30 30/103/30
f 31/98/26 28/97/30 25/102/26
f 32/104/27 33/105/31 28/106/27
f 34/107/32 32/108/28 29/109/28
f 35/110/33 29/111/29 30/112/29
f 30/103/30 28/97/30 36/113/30
f 33/105/31 32/104/27 37/114/31
f 33/115/34 36/116/30 28/117/30
f 32/108/28 34/107/32 37/118/32
f 29/111/29 35/110/33 34/119/33
f 30/120/30 33/115/34 35/121/34
f 36/116/30 33/115/34 30/120/30
f 38/122/35 33/123/31 37/124/31
f 39/125/36 37/126/32 34/127/32
f 40/128/37 34/129/33 35/130/33
f 35/121/34 33/115/34 41/131/34
f 33/123/31 38/122/35 42/132/35
f 37/126/32 39/125/36 38/133/36
f 34/129/33 40/128/37 39/134/37
f 41/135/34 40/136/38 35/137/34
f 33/138/34 43/139/38 41/135/34
f 44/140/39 42/141/35 38/142/35
f 43/139/38 33/138/34 42/143/38
f 45/144/40 38/145/36 39/146/36
f 46/147/41 39/148/37 40/149/37
f 41/135/34 43/139/38 40/136/38
f 42/141/35 44/140/39 47/150/39
f 38/145/36 45/144/40 44/151/40
f 42/152/38 48/153/42 43/154/38
f 39/148/37 46/147/41 45/155/41
f 40/156/38 48/153/42 46/157/42
f 43/154/38 48/153/42 40/156/38
f 49/158/43 47/159/39 44/160/39
f 48/153/42 42/152/38 47/161/42
f 50/162/44 44/163/40 45/164/40
f 51/165/45 45/166/41 46/167/41
f 48/168/42 51/169/46 46/170/42
f 47/159/39 49/158/43 52/171/43
f 44/163/40 50/162/44 49/172/44
f 47/173/42 53/174/46 48/168/42
f 45/166/41 51/165/45 50/175/45
f 48/168/42 53/174/46 51/169/46
f 54/176/47 52/177/43 49/178/43
f 53/174/46 47/173/42 52/179/46
f 55/180/48 49/181/44 50/182/44
f 56/183/49 50/184/45 51/185/45
f 53/186/46 56/187/50 51/188/46
f 52/177/43 54/176/47 57/189/47
f 49/181/44 55/180/48 54/190/48
f 52/191/46 58/192/50 53/186/46
f 50/184/45 56/183/49 55/193/49
f 53/186/46 58/192/50 56/187/50
f 59/194/51 57/195/47 54/196/47
f 58/192/50 52/191/46 57/197/50
f 60/198/52 54/199/48 55/200/48
f 61/201/53 55/202/49 56/203/49
f 58/204/50 61/205/54 56/206/50
f 57/195/47 59/194/51 62/207/51
f 54/199/48 60/198/52 59/208/52
f 57/209/50 63/210/54 58/204/50
f 55/202/49 61/201/53 60/211/53
f 58/204/50 63/210/54 61/205/54
f 64/212/55 62/213/51 59/214/51
f 63/210/54 57/209/50 62/215/54
f 65/216/56 59/217/52 60/218/52
f 66/219/57 60/220/53 61/221/53
f 63/222/54 66/223/58 61/224/54
f 62/213/51 64/212/55 67/225/55
f 59/217/52 65/216/56 64/226/56
f 62/227/54 68/228/58 63/222/54
f 60/220/53 66/219/57 65/229/57
f 63/222/54 68/228/58 66/223/58
f 69/230/1 67/231/1 64/232/1
f 68/228/58 62/227/54 67/233/58
f 65/234/6 69/235/6 64/236/6
f 70/237/12 65/236/12 66/238/12
f 68/239/4 70/240/4 66/241/4
f 67/231/1 69/230/1 71/242/1
f 67/232/4 70/240/4 68/239/4
f 69/235/6 65/234/6 72/243/6
f 65/236/12 70/237/12 72/235/12
f 69/244/59 73/245/59 71/246/59
f 70/240/4 67/232/4 71/230/4
f 72/247/59 74/248/59 69/244/59
f 74/248/59 72/247/59 70/249/59
f 73/245/59 69/244/59 74/248/59
f 71/246/59 73/245/59 75/250/59
f 71/246/59 75/250/59 70/249/59
f 74/248/59 70/249/59 76/251/59
f 74/252/6 77/253/6 73/254/6
f 77/253/1 75/255/1 73/256/1
f 76/251/59 70/249/59 75/250/59
f 78/257/12 74/254/12 76/258/12
f 77/253/6 74/252/6 79/259/6
f 75/255/1 77/253/1 80/257/1
f 75/256/4 78/259/4 76/260/4
f 74/254/12 78/257/12 79/253/12
f 78/251/59 77/245/59 79/248/59
f 77/245/59 78/251/59 80/250/59
f 78/259/4 75/256/4 80/253/4
usemtl material_1_0
f 3//12 2//12 1//12
f 4//12 1//12 2//12
f 3//60 5//61 2//60
f 3//6 1//6 6//6
f 4//59 7//59 1//59
f 4//4 2//4 7//4
f 8//61 2//60 5//61
f 3//62 6//62 5//63
f 9//6 6//6 1//6
f 9//59 1//59 7//59
f 10//4 7//4 2//4
f 8//64 11//64 2//65
f 5//61 12//66 8//61
f 13//63 5//63 6//62
f 9//1 7//1 6//1
f 10//1 6//1 7//1
f 10//65 2//65 11//64
f 11//64 8//64 14//67
f 15//66 8//61 12//66
f 5//63 13//63 12//68
f 6//69 10//69 16//70
f 11//70 16//70 10//69
f 15//67 14//67 8//64
f 14//71 17//71 11//70
f 12//66 18//72 15//66
f 16//73 12//68 13//63
f 16//70 11//70 17//71
f 14//67 15//67 19//74
f 17//71 14//71 20//75
f 21//72 15//66 18//72
f 12//68 22//68 18//76
f 17//68 12//68 16//73
f 21//74 19//74 15//67
f 19//75 20//75 14//71
f 20//76 18//76 17//68
f 18//72 23//77 21//72
f 17//68 18//76 22//68
f 22//68 12//68 17//68
f 19//74 21//74 24//78
f 20//75 19//75 25//79
f 26//76 18//76 20//76
f 27//77 21//72 23//77
f 18//76 26//76 23//80
f 27//78 24//78 21//74
f 24//79 25//79 19//75
f 25//80 23//80 20//76
f 20//76 23//80 26//76
f 23//77 28//81 27//77
f 24//78 27//78 29//82
f 25//79 24//79 30//83
f 31//80 23//80 25//80
f 32//81 27//77 28//81
f 23//80 31//80 28//84
f 32//82 29//82 27//78
f 29//83 30//83 24//79
f 30//84 28//84 25//80
f 25//80 28//84 31//80
f 28//81 33//85 32//81
f 29//82 32//82 34//86
f 30//83 29//83 35//87
f 36//84 28//84 30//84
f 37//85 32//81 33//85
f 28//84 36//84 33//88
f 37//86 34//86 32//82
f 34//87 35//87 29//83
f 35//88 33//88 30//84
f 30//84 33//88 36//84
f 37//85 33//85 38//89
f 34//86 37//86 39//90
f 35//87 34//87 40//91
f 41//88 33//88 35//88
f 42//89 38//89 33//85
f 38//90 39//90 37//86
f 39//91 40//91 34//87
f 35//88 40//92 41//88
f 41//88 43//92 33//88
f 38//89 42//89 44//93
f 42//92 33//88 43//92
f 39//90 38//90 45//94
f 40//91 39//91 46//95
f 40//92 43//92 41//88
f 47//93 44//93 42//89
f 44//94 45//94 38//90
f 43//92 48//96 42//92
f 45//95 46//95 39//91
f 46//96 48//96 40//92
f 40//92 48//96 43//92
f 44//93 47//93 49//97
f 47//96 42//92 48//96
f 45//94 44//94 50//98
f 46//95 45//95 51//99
f 46//96 51//100 48//96
f 52//97 49//97 47//93
f 49//98 50//98 44//94
f 48//96 53//100 47//96
f 50//99 51//99 45//95
f 51//100 53//100 48//96
f 49//97 52//97 54//101
f 52//100 47//96 53//100
f 50//98 49//98 55//102
f 51//99 50//99 56//103
f 51//100 56//104 53//100
f 57//101 54//101 52//97
f 54//102 55//102 49//98
f 53//100 58//104 52//100
f 55//103 56//103 50//99
f 56//104 58//104 53//100
f 54//101 57//101 59//105
f 57//104 52//100 58//104
f 55//102 54//102 60//106
f 56//103 55//103 61//107
f 56//104 61//108 58//104
f 62//105 59//105 57//101
f 59//106 60//106 54//102
f 58//104 63//108 57//104
f 60//107 61//107 55//103
f 61//108 63//108 58//104
f 59//105 62//105 64//109
f 62//108 57//104 63//108
f 60//106 59//106 65//110
f 61//107 60//107 66//111
f 61//108 66//112 63//108
f 67//109 64//109 62//105
f 64//110 65//110 59//106
f 63//108 68//112 62//108
f 65//111 66//111 60//107
f 66//112 68//112 63//108
f 64//12 67//12 69//12
f 67//112 62//108 68//112
f 64//4 69//4 65//4
f 66//1 65//1 70//1
f 66//6 70//6 68//6
f 71//12 69//12 67//12
f 68//6 70//6 67//6
f 72//4 65//4 69//4
f 72//1 70//1 65//1
f 71//5 73//5 69//5
f 71//6 67//6 70//6
f 69//5 74//5 72//5
f 70//5 72//5 74//5
f 74//5 69//5 73//5
f 75//5 73//5 71//5
f 70//5 75//5 71//5
f 76//5 70//5 74//5
f 73//4 77//4 74//4
f 73//12 75//12 77//12
f 75//5 70//5 76//5
f 76//1 74//1 78//1
f 79//4 74//4 77//4
f 80//12 77//12 75//12
f 76//6 78//6 75//6
f 79//1 78//1 74//1
f 79//5 77//5 78//5
f 80//5 78//5 77//5
f 80//6 75//6 78//6
