# SSTK version 0.8.0
# 75
mtllib original-75.mtl
o Fond2/Fond12/mesh23/mesh23-geometry#mesh23-geometry
v 0.395595 -0.022369 0.237248
v 0.395595 -0.019083 0.237248
v 0.063667 -0.022369 0.237248
v 0.395595 -0.022369 -0.008137
v 0.063667 -0.019083 0.237248
v 0.395595 -0.019083 -0.008137
v 0.063667 -0.019083 -0.008137
v 0.063667 -0.022369 -0.008137
vt -0.01622 0.028646
vt -0.01622 0.044271
vt 0.966696 0.028646
vt 0.351968 0.028646
vt -0.374676 0.028646
vt 0.351968 0.044271
vt 0.966696 0.044271
vt -0.351968 -0.026042
vt -0.351968 1.552083
vt 0.374676 -0.026042
vt -0.374676 0.044271
vt -0.351968 0.044271
vt 0.374676 0.044271
vt -0.351968 0.028646
vt 0.351968 1.552083
vt 0.351968 -0.026042
vt -0.374676 1.552083
vt 0.374676 1.552083
vt -0.374676 -0.026042
vt 0.01622 0.044271
vt 0.01622 0.028646
vt -0.966696 0.044271
vt 0.374676 0.028646
vt -0.966696 0.028646
vn 0 0 1
vn 1 0 0
vn 0 -1 0
vn -1 0 0
vn 0 1 0
vn 0 0 -1
usemtl material_0_0
f 1/1/1 2/2/1 3/3/1
f 1/4/2 4/5/2 2/6/2
f 5/7/1 3/3/1 2/2/1
f 1/8/3 3/9/3 4/10/3
f 6/11/2 2/6/2 4/5/2
f 5/12/4 7/13/4 3/14/4
f 5/15/5 2/16/5 7/17/5
f 8/18/3 4/10/3 3/9/3
f 6/19/5 7/17/5 2/16/5
f 6/20/6 4/21/6 7/22/6
f 8/23/4 3/14/4 7/13/4
f 8/24/6 7/22/6 4/21/6
usemtl material_1_0
f 3//6 2//6 1//6
f 2//4 4//4 1//4
f 2//6 3//6 5//6
f 4//5 3//5 1//5
f 4//4 2//4 6//4
f 3//2 7//2 5//2
f 7//3 2//3 5//3
f 3//5 4//5 8//5
f 2//3 7//3 6//3
f 7//1 4//1 6//1
f 7//2 3//2 8//2
f 4//1 7//1 8//1
