# SSTK version 0.8.0
# 45
mtllib original-45.mtl
o Component_2_2/Component_2_1_2/mesh20/mesh20-geometry#mesh20-geometry
v 0.887059 0.042811 -0.242442
v 0.891441 -0.047017 -0.242442
v 0.887059 -0.053590 -0.242442
v 0.891441 0.036238 -0.242442
v 0.904587 -0.053590 -0.242442
v 0.887059 -0.047017 -0.027592
v 0.904587 0.042811 -0.242442
v 0.891441 0.036238 -0.264351
v 0.887059 -0.053590 0.195620
v 0.900205 -0.047017 -0.242442
v 0.887059 0.036365 -0.027592
v 0.900205 0.036238 -0.242442
v 0.904587 0.042811 0.195620
v 0.891441 -0.047017 -0.264351
v 0.904587 -0.053590 0.195620
v 0.900205 -0.047017 -0.264351
v 0.887059 -0.047017 -0.018828
v 0.887059 0.036365 -0.018828
v 0.898014 0.036365 -0.027592
v 0.887059 0.042811 0.195620
v 0.900205 0.036238 -0.264351
v 0.891441 -0.047017 0.195620
v 0.898014 -0.047017 -0.018828
v 0.898014 -0.047017 -0.027592
v 0.891441 0.036238 0.195620
v 0.900205 -0.047017 0.195620
v 0.898014 0.036365 -0.018828
v 0.900205 0.036238 0.195620
v 0.891441 -0.047017 0.217530
v 0.900205 0.036238 0.217530
v 0.900205 -0.047017 0.217530
v 0.891441 0.036238 0.217530
vt 0 0.259516
vt 0.020833 -0.006488
vt 0 -0.025952
vt 0.020833 0.240052
vt 0.083333 -0.025952
vt 2.082735 0.259516
vt 2.082735 -0.025952
vt 1.061247 -0.006488
vt 0.083333 0.259516
vt 2.082735 0.240052
vt 2.186901 0.240052
vt 2.082735 -0.006488
vt -2.082735 0
vt -2.082735 0.051903
vt 0 0
vt 0.0625 -0.006488
vt 1.061247 0.240428
vt 0.0625 0.240052
vt 2.082735 0.051903
vt 2.082735 0
vt 0 0.051903
vt 2.082735 0.012976
vt 2.082735 0.038927
vt 2.186901 0.012976
vt 2.186901 -0.006488
vt -2.082735 0.038927
vt -2.082735 0.012976
vt -2.186901 0.038927
vt 1.019581 -0.006488
vt 1.019581 0.240428
vt 0 0.240428
vt 0 -0.006488
vt -0.052083 0.240428
vt -2.082735 0.259516
vt -2.082735 -0.025952
vt 2.186901 0.038927
vt -2.186901 0.012976
vt -0.083333 -0.025952
vt -0.020833 -0.006488
vt -2.082735 -0.006488
vt -2.186901 -0.006488
vt -2.082735 0.240052
vt 1.019581 0
vt 1.019581 0.032439
vt 1.061247 0
vt -1.061247 0
vt -1.061247 0.032439
vt -1.019581 0
vt -0.052083 -0.006488
vt -0.083333 0.259516
vt -0.020833 0.240052
vt -2.186901 0.240052
vt -0.0625 -0.006488
vt 0.052083 -0.006488
vt 1.061247 0.032439
vt -1.019581 0.032439
vt -0.0625 0.240052
vt 0 0.012976
vt 0 0.038927
vt 0.104167 0.012976
vt -0.104167 -0.006488
vt 0 0.240052
vt 0.052083 0.240428
vt -0.104167 0.038927
vt 0.104167 0.038927
vt -0.104167 0.240052
vt 0.104167 0.240052
vt -0.104167 0.012976
vt 0.104167 -0.006488
vn 0 0 -1
vn -1 0 0
vn 0 -1 0
vn 0 1 0
vn 0 0 1
vn 1 0 0
usemtl material_0_0
f 1/1/1 2/2/1 3/3/1
f 2/2/1 1/1/1 4/4/1
f 5/5/1 3/3/1 2/2/1
f 1/6/2 3/7/2 6/8/2
f 7/9/1 4/4/1 1/1/1
f 4/10/2 8/11/2 2/12/2
f 3/13/3 5/14/3 9/15/3
f 10/16/1 5/5/1 2/2/1
f 9/3/2 6/8/2 3/7/2
f 11/17/2 1/6/2 6/8/2
f 12/18/1 4/4/1 7/9/1
f 7/19/4 1/20/4 13/21/4
f 4/22/4 12/23/4 8/24/4
f 14/25/2 2/12/2 8/11/2
f 15/21/3 9/15/3 5/14/3
f 12/18/1 5/5/1 10/16/1
f 10/26/3 2/27/3 16/28/3
f 6/8/2 9/3/2 17/29/2
f 18/30/2 1/6/2 11/17/2
f 11/31/5 6/32/5 19/33/5
f 5/5/1 12/18/1 7/9/1
f 20/15/4 13/21/4 1/20/4
f 7/34/6 13/1/6 5/35/6
f 21/36/4 8/24/4 12/23/4
f 14/37/3 16/28/3 2/27/3
f 14/2/1 8/4/1 16/16/1
f 15/38/5 22/39/5 9/3/5
f 15/3/6 5/35/6 13/1/6
f 10/40/6 16/41/6 12/42/6
f 20/1/2 17/29/2 9/3/2
f 17/43/4 23/44/4 6/45/4
f 1/6/2 18/30/2 20/1/2
f 11/46/3 19/47/3 18/48/3
f 24/49/5 19/33/5 6/32/5
f 13/50/5 20/1/5 25/51/5
f 21/18/1 16/16/1 8/4/1
f 21/52/6 12/42/6 16/41/6
f 26/53/5 22/39/5 15/38/5
f 25/51/5 9/3/5 22/39/5
f 13/50/5 26/53/5 15/38/5
f 18/30/2 17/29/2 20/1/2
f 9/3/5 25/51/5 20/1/5
f 17/32/1 18/31/1 23/54/1
f 24/55/4 6/45/4 23/44/4
f 27/56/3 18/48/3 19/47/3
f 24/8/2 23/29/2 19/17/2
f 28/57/5 13/50/5 25/51/5
f 22/58/3 26/59/3 29/60/3
f 22/32/2 29/61/2 25/62/2
f 26/53/5 13/50/5 28/57/5
f 27/63/1 23/54/1 18/31/1
f 27/30/2 19/17/2 23/29/2
f 28/59/4 25/58/4 30/64/4
f 31/65/3 29/60/3 26/59/3
f 32/66/2 25/62/2 29/61/2
f 28/62/6 30/67/6 26/32/6
f 32/68/4 30/64/4 25/58/4
f 31/53/5 30/57/5 29/39/5
f 31/69/6 26/32/6 30/67/6
f 32/51/5 29/39/5 30/57/5
usemtl material_1_0
f 3//5 2//5 1//5
f 4//5 1//5 2//5
f 2//5 3//5 5//5
f 6//6 3//6 1//6
f 1//5 4//5 7//5
f 2//6 8//6 4//6
f 9//4 5//4 3//4
f 2//5 5//5 10//5
f 3//6 6//6 9//6
f 6//6 1//6 11//6
f 7//5 4//5 12//5
f 13//3 1//3 7//3
f 8//3 12//3 4//3
f 8//6 2//6 14//6
f 5//4 9//4 15//4
f 10//5 5//5 12//5
f 16//4 2//4 10//4
f 17//6 9//6 6//6
f 11//6 1//6 18//6
f 19//1 6//1 11//1
f 7//5 12//5 5//5
f 1//3 13//3 20//3
f 5//2 13//2 7//2
f 12//3 8//3 21//3
f 2//4 16//4 14//4
f 16//5 8//5 14//5
f 9//1 22//1 15//1
f 13//2 5//2 15//2
f 12//2 16//2 10//2
f 9//6 17//6 20//6
f 6//3 23//3 17//3
f 20//6 18//6 1//6
f 18//4 19//4 11//4
f 6//1 19//1 24//1
f 25//1 20//1 13//1
f 8//5 16//5 21//5
f 16//2 12//2 21//2
f 15//1 22//1 26//1
f 22//1 9//1 25//1
f 15//1 26//1 13//1
f 20//6 17//6 18//6
f 20//1 25//1 9//1
f 23//5 18//5 17//5
f 23//3 6//3 24//3
f 19//4 18//4 27//4
f 19//6 23//6 24//6
f 25//1 13//1 28//1
f 29//4 26//4 22//4
f 25//6 29//6 22//6
f 28//1 13//1 26//1
f 18//5 23//5 27//5
f 23//6 19//6 27//6
f 30//3 25//3 28//3
f 26//4 29//4 31//4
f 29//6 25//6 32//6
f 26//2 30//2 28//2
f 25//3 30//3 32//3
f 29//1 30//1 31//1
f 30//2 26//2 31//2
f 30//1 29//1 32//1
