mtllib new-12.mtl
v 0.610421 -0.461902 -0.170109
v 0.589679 -0.461902 -0.129400
v 0.516663 -0.461902 -0.076351
v 0.471536 -0.461902 -0.069203
v 0.617569 -0.461902 -0.215236
v 0.610421 -0.461902 -0.260362
v 0.589679 -0.461902 -0.301072
v 0.516663 -0.461902 -0.354121
v 0.471536 -0.461902 -0.361269
v 0.426410 -0.461902 -0.076351
v 0.426410 -0.461902 -0.354121
v 0.353393 -0.461902 -0.129400
v 0.332651 -0.461902 -0.170109
v 0.332651 -0.461902 -0.260362
v 0.353393 -0.461902 -0.301072
v 0.557372 -0.461902 -0.097093
v 0.557372 -0.461902 -0.333379
v 0.385700 -0.461902 -0.097093
v 0.385700 -0.461902 -0.333379
vn 0.000000 1.000000 0.000000
vn 0.000000 -1.000000 0.000000
usemtl material-1
f 2//2 7//2 1//2
f 1//1 7//1 2//1
f 1//2 6//2 5//2
f 5//1 6//1 1//1
f 16//2 7//2 2//2
f 2//1 7//1 16//1
f 3//2 8//2 16//2
f 16//1 8//1 3//1
f 4//2 9//2 3//2
f 3//1 9//1 4//1
f 1//2 7//2 6//2
f 6//1 7//1 1//1
f 16//2 17//2 7//2
f 7//1 17//1 16//1
f 16//2 8//2 17//2
f 17//1 8//1 16//1
f 3//2 9//2 8//2
f 8//1 9//1 3//1
f 4//2 11//2 9//2
f 9//1 11//1 4//1
f 10//2 11//2 4//2
f 4//1 11//1 10//1
f 18//2 19//2 10//2
f 10//1 19//1 18//1
f 12//2 15//2 18//2
f 18//1 15//1 12//1
f 13//2 14//2 12//2
f 12//1 14//1 13//1
f 12//2 14//2 15//2
f 15//1 14//1 12//1
f 18//2 15//2 19//2
f 19//1 15//1 18//1
f 10//2 19//2 11//2
f 11//1 19//1 10//1