mtllib new-3.mtl
v 0.730169 0.071832 -0.234311
v 0.708830 -0.426071 -0.154352
v 0.730169 -0.618120 -0.184521
v 0.708830 -0.426071 -0.255650
v 0.708830 -0.398871 -0.133480
v 0.730169 -0.618120 -0.255650
v 0.730169 -0.522096 -0.184521
v 0.715943 -0.426071 -0.154352
v 0.715943 -0.447410 -0.255650
v 0.730169 -0.476992 -0.178583
v 0.708830 -0.522096 -0.184521
v 0.708830 -0.618120 -0.255650
v 0.715943 -0.426071 -0.255650
v 0.730169 -0.398871 -0.133480
v 0.730169 -0.434963 -0.161174
v 0.708830 -0.476992 -0.178583
v 0.708830 -0.618120 -0.184521
v 0.715943 -0.434963 -0.161174
v 0.708830 -0.447410 -0.255650
v 0.715943 -0.447410 -0.166330
v 0.708830 -0.447410 -0.166330
vn 0.000000 1.000000 0.000000
vn 0.000000 -1.000000 0.000000
vn 1.000000 0.000000 0.000000
vn -1.000000 0.000000 0.000000
vn 0.000000 0.000000 1.000000
vn 0.000000 0.000000 -1.000000
vn 0.000000 -0.608761 0.793353
vn 0.000000 -0.707107 0.707107
vn 0.000000 0.707107 -0.707107
vn 0.000000 0.608761 -0.793353
vn 0.000000 -0.258819 0.965926
vn 0.000000 -0.130526 0.991445
vn 0.000000 0.130526 -0.991445
vn 0.000000 0.258819 -0.965926
vn 0.000000 -0.500000 0.866025
vn 0.000000 0.500000 -0.866025
vn 0.000000 -0.382683 0.923880
vn 0.000000 0.382683 -0.923880
usemtl material-0
f 6//3 1//3 3//3
f 3//4 1//4 6//4
f 2//2 4//2 8//2
f 8//1 4//1 2//1
f 2//7 8//7 5//8
f 5//9 8//10 2//10
f 7//5 11//5 3//5
f 3//6 11//6 7//6
f 6//2 3//2 12//2
f 12//1 3//1 6//1
f 13//2 8//2 4//2
f 4//1 8//1 13//1
f 5//8 8//7 14//8
f 14//9 8//10 5//9
f 12//6 9//6 6//6
f 6//5 9//5 12//5
f 10//11 16//11 7//12
f 7//13 16//14 10//14
f 11//12 7//12 16//11
f 16//14 7//13 11//13
f 17//5 3//5 11//5
f 11//6 3//6 17//6
f 17//2 12//2 3//2
f 3//1 12//1 17//1
f 8//4 13//4 18//4
f 18//3 13//3 8//3
f 14//8 8//7 15//15
f 15//16 8//10 14//9
f 9//6 12//6 19//6
f 19//5 12//5 9//5
f 9//4 20//4 13//4
f 13//3 20//3 9//3
f 15//15 20//17 10//11
f 10//14 20//18 15//16
f 16//11 10//11 21//17
f 21//18 10//14 16//14
f 11//4 16//4 19//4
f 19//3 16//3 11//3
f 17//4 11//4 12//4
f 12//3 11//3 17//3
f 20//4 18//4 13//4
f 13//3 18//3 20//3
f 18//15 15//15 8//7
f 8//10 15//16 18//16
f 12//4 11//4 19//4
f 19//3 11//3 12//3
f 19//1 21//1 9//1
f 9//2 21//2 19//2
f 20//1 9//1 21//1
f 21//2 9//2 20//2
f 18//15 20//17 15//15
f 15//16 20//18 18//16
f 20//17 21//17 10//11
f 10//14 21//18 20//18
f 21//4 19//4 16//4
f 16//3 19//3 21//3