# SSTK version 0.8.0
# 10
mtllib original-10.mtl
o #ID5
v -0.023559 0.052155 0.25469
v -0.018359 0.047602 0.260806
v -0.023559 0.047602 0.25469
v -0.018359 0.052155 0.260806
v -0.018359 0.052155 0.260806
v -0.023559 0.052155 0.25469
v -0.018359 0.047602 0.260806
v -0.023559 0.047602 0.25469
v -0.011211 0.057552 0.256341
v -0.023559 0.052155 0.25469
v -0.016495 0.057552 0.250125
v -0.018359 0.052155 0.260806
v -0.016852 0.052155 0.262578
v -0.016852 0.052155 0.262578
v -0.011211 0.057552 0.256341
v -0.018359 0.052155 0.260806
v -0.023559 0.052155 0.25469
v -0.016495 0.057552 0.250125
v -0.018359 0.052155 0.260806
v -0.016852 0.047602 0.262578
v -0.018359 0.047602 0.260806
v -0.016852 0.052155 0.262578
v -0.016852 0.052155 0.262578
v -0.018359 0.052155 0.260806
v -0.016852 0.047602 0.262578
v -0.018359 0.047602 0.260806
v -0.002418 0.047602 0.195416
v 0.018087 0.047602 0.194388
v 0.007767 0.047602 0.193552
v 0.027839 0.047602 0.197866
v -0.011773 0.047602 0.199852
v 0.036358 0.047602 0.20375
v -0.019661 0.047602 0.206559
v 0.041244 0.047602 0.209497
v -0.025545 0.047602 0.215078
v 0.043064 0.047602 0.211638
v 0.047501 0.047602 0.220993
v -0.029023 0.047602 0.22483
v 0.049364 0.047602 0.231177
v -0.029859 0.047602 0.23515
v 0.048529 0.047602 0.241497
v -0.027995 0.047602 0.245334
v 0.045051 0.047602 0.251249
v -0.023559 0.047602 0.25469
v 0.039167 0.047602 0.259769
v -0.018359 0.047602 0.260806
v 0.031279 0.047602 0.266475
v -0.016852 0.047602 0.262578
v -0.008333 0.047602 0.268461
v 0.021924 0.047602 0.270911
v 0.001419 0.047602 0.27194
v 0.011739 0.047602 0.272775
v 0.011739 0.047602 0.272775
v 0.001419 0.047602 0.27194
v 0.021924 0.047602 0.270911
v -0.008333 0.047602 0.268461
v 0.031279 0.047602 0.266475
v -0.016852 0.047602 0.262578
v -0.018359 0.047602 0.260806
v 0.039167 0.047602 0.259769
v -0.023559 0.047602 0.25469
v 0.045051 0.047602 0.251249
v -0.027995 0.047602 0.245334
v 0.048529 0.047602 0.241497
v -0.029859 0.047602 0.23515
v 0.049364 0.047602 0.231177
v -0.029023 0.047602 0.22483
v 0.047501 0.047602 0.220993
v -0.025545 0.047602 0.215078
v 0.043064 0.047602 0.211638
v 0.041244 0.047602 0.209497
v -0.019661 0.047602 0.206559
v 0.036358 0.047602 0.20375
v -0.011773 0.047602 0.199852
v 0.027839 0.047602 0.197866
v -0.002418 0.047602 0.195416
v 0.018087 0.047602 0.194388
v 0.007767 0.047602 0.193552
v -0.027995 0.052155 0.245334
v -0.027995 0.047602 0.245334
v -0.027995 0.052155 0.245334
v -0.027995 0.047602 0.245334
v -0.027995 0.052155 0.245334
v -0.019991 0.057552 0.242754
v -0.027995 0.052155 0.245334
v -0.019991 0.057552 0.242754
v 0.009753 0.057552 0.225832
v 0.003409 0.057552 0.222171
v 0.016105 0.057552 0.222164
v 0.01632 0.057552 0.20261
v 0.000163 0.057552 0.20342
v 0.008188 0.057552 0.201951
v 0.024004 0.057552 0.20535
v -0.007209 0.057552 0.206915
v 0.030717 0.057552 0.209986
v -0.013424 0.057552 0.2122
v 0.036001 0.057552 0.216202
v -0.01806 0.057552 0.218913
v 0.039497 0.057552 0.223574
v 0.016105 0.057552 0.229498
v 0.040966 0.057552 0.231599
v 0.022457 0.057552 0.233164
v 0.040307 0.057552 0.23973
v 0.016105 0.057552 0.236832
v 0.016105 0.057552 0.244157
v 0.037566 0.057552 0.247415
v 0.003409 0.057552 0.244163
v -0.020801 0.057552 0.226597
v 0.003409 0.057552 0.229496
v -0.02146 0.057552 0.234729
v -0.002943 0.057552 0.233164
v 0.003409 0.057552 0.23683
v -0.019991 0.057552 0.242754
v -0.016495 0.057552 0.250125
v 0.03293 0.057552 0.254128
v -0.011211 0.057552 0.256341
v 0.026715 0.057552 0.259412
v -0.004498 0.057552 0.260977
v 0.019343 0.057552 0.262908
v 0.003186 0.057552 0.263718
v 0.011318 0.057552 0.264376
v 0.009761 0.057552 0.240495
v 0.016105 0.057552 0.244157
v 0.009761 0.057552 0.240495
v 0.003409 0.057552 0.244163
v 0.011318 0.057552 0.264376
v 0.019343 0.057552 0.262908
v 0.003186 0.057552 0.263718
v -0.004498 0.057552 0.260977
v 0.026715 0.057552 0.259412
v -0.011211 0.057552 0.256341
v 0.03293 0.057552 0.254128
v -0.016495 0.057552 0.250125
v 0.037566 0.057552 0.247415
v -0.019991 0.057552 0.242754
v 0.003409 0.057552 0.23683
v -0.02146 0.057552 0.234729
v -0.002943 0.057552 0.233164
v 0.003409 0.057552 0.229496
v -0.020801 0.057552 0.226597
v 0.003409 0.057552 0.222171
v 0.016105 0.057552 0.222164
v -0.01806 0.057552 0.218913
v 0.040307 0.057552 0.23973
v 0.016105 0.057552 0.236832
v 0.022457 0.057552 0.233164
v 0.040966 0.057552 0.231599
v 0.016105 0.057552 0.229498
v 0.039497 0.057552 0.223574
v 0.036001 0.057552 0.216202
v -0.013424 0.057552 0.2122
v 0.030717 0.057552 0.209986
v -0.007209 0.057552 0.206915
v 0.024004 0.057552 0.20535
v 0.000163 0.057552 0.20342
v 0.01632 0.057552 0.20261
v 0.008188 0.057552 0.201951
v 0.009753 0.057552 0.225832
v -0.004498 0.057552 0.260977
v -0.008333 0.052155 0.268461
v -0.008333 0.052155 0.268461
v -0.004498 0.057552 0.260977
v -0.008333 0.047602 0.268461
v -0.008333 0.052155 0.268461
v -0.008333 0.052155 0.268461
v -0.008333 0.047602 0.268461
v 0.001419 0.047602 0.27194
v 0.001419 0.052155 0.27194
v 0.001419 0.052155 0.27194
v 0.001419 0.047602 0.27194
v 0.011739 0.047602 0.272775
v 0.011739 0.052155 0.272775
v 0.011739 0.052155 0.272775
v 0.011739 0.047602 0.272775
v 0.021924 0.047602 0.270911
v 0.021924 0.052155 0.270911
v 0.021924 0.052155 0.270911
v 0.021924 0.047602 0.270911
v 0.031279 0.052155 0.266475
v 0.031279 0.047602 0.266475
v 0.031279 0.047602 0.266475
v 0.031279 0.052155 0.266475
v 0.039167 0.047602 0.259769
v 0.039167 0.052155 0.259769
v 0.039167 0.052155 0.259769
v 0.039167 0.047602 0.259769
v 0.045051 0.047602 0.251249
v 0.045051 0.052155 0.251249
v 0.045051 0.052155 0.251249
v 0.045051 0.047602 0.251249
v 0.048529 0.047602 0.241497
v 0.048529 0.052155 0.241497
v 0.048529 0.052155 0.241497
v 0.048529 0.047602 0.241497
v 0.049364 0.047602 0.231177
v 0.049364 0.052155 0.231177
v 0.049364 0.052155 0.231177
v 0.049364 0.047602 0.231177
v 0.047501 0.047602 0.220993
v 0.047501 0.052155 0.220993
v 0.047501 0.052155 0.220993
v 0.047501 0.047602 0.220993
v 0.043064 0.047602 0.211638
v 0.043064 0.052155 0.211638
v 0.043064 0.052155 0.211638
v 0.043064 0.047602 0.211638
v 0.041244 0.047602 0.209497
v 0.041244 0.052155 0.209497
v 0.041244 0.052155 0.209497
v 0.041244 0.047602 0.209497
v 0.041244 0.052155 0.209497
v 0.036358 0.047602 0.20375
v 0.041244 0.047602 0.209497
v 0.036358 0.052155 0.20375
v 0.036358 0.052155 0.20375
v 0.041244 0.052155 0.209497
v 0.036358 0.047602 0.20375
v 0.041244 0.047602 0.209497
v 0.027839 0.052155 0.197866
v 0.027839 0.047602 0.197866
v 0.027839 0.052155 0.197866
v 0.027839 0.047602 0.197866
v 0.018087 0.052155 0.194388
v 0.018087 0.047602 0.194388
v 0.018087 0.052155 0.194388
v 0.018087 0.047602 0.194388
v 0.007767 0.052155 0.193552
v 0.007767 0.047602 0.193552
v 0.007767 0.052155 0.193552
v 0.007767 0.047602 0.193552
v -0.002418 0.052155 0.195416
v -0.002418 0.047602 0.195416
v -0.002418 0.052155 0.195416
v -0.002418 0.047602 0.195416
v -0.011773 0.052155 0.199852
v -0.011773 0.047602 0.199852
v -0.011773 0.052155 0.199852
v -0.011773 0.047602 0.199852
v -0.019661 0.052155 0.206559
v -0.019661 0.047602 0.206559
v -0.019661 0.052155 0.206559
v -0.019661 0.047602 0.206559
v -0.025545 0.047602 0.215078
v -0.025545 0.052155 0.215078
v -0.025545 0.052155 0.215078
v -0.025545 0.047602 0.215078
v -0.029023 0.047602 0.22483
v -0.029023 0.052155 0.22483
v -0.029023 0.052155 0.22483
v -0.029023 0.047602 0.22483
v -0.029859 0.047602 0.23515
v -0.029859 0.052155 0.23515
v -0.029859 0.052155 0.23515
v -0.029859 0.047602 0.23515
v -0.029859 0.052155 0.23515
v -0.02146 0.057552 0.234729
v -0.029859 0.052155 0.23515
v -0.02146 0.057552 0.234729
v -0.020801 0.057552 0.226597
v -0.029023 0.052155 0.22483
v -0.020801 0.057552 0.226597
v -0.029023 0.052155 0.22483
v -0.01806 0.057552 0.218913
v -0.025545 0.052155 0.215078
v -0.01806 0.057552 0.218913
v -0.025545 0.052155 0.215078
v -0.013424 0.057552 0.2122
v -0.019661 0.052155 0.206559
v -0.013424 0.057552 0.2122
v -0.019661 0.052155 0.206559
v -0.007209 0.057552 0.206915
v -0.011773 0.052155 0.199852
v -0.007209 0.057552 0.206915
v -0.011773 0.052155 0.199852
v 0.000163 0.057552 0.20342
v -0.002418 0.052155 0.195416
v 0.000163 0.057552 0.20342
v -0.002418 0.052155 0.195416
v 0.008188 0.057552 0.201951
v 0.007767 0.052155 0.193552
v 0.008188 0.057552 0.201951
v 0.007767 0.052155 0.193552
v 0.018087 0.052155 0.194388
v 0.01632 0.057552 0.20261
v 0.01632 0.057552 0.20261
v 0.018087 0.052155 0.194388
v 0.027839 0.052155 0.197866
v 0.024004 0.057552 0.20535
v 0.024004 0.057552 0.20535
v 0.027839 0.052155 0.197866
v 0.036358 0.052155 0.20375
v 0.030717 0.057552 0.209986
v 0.030717 0.057552 0.209986
v 0.036358 0.052155 0.20375
v 0.041244 0.052155 0.209497
v 0.043064 0.052155 0.211638
v 0.036001 0.057552 0.216202
v 0.036001 0.057552 0.216202
v 0.043064 0.052155 0.211638
v 0.041244 0.052155 0.209497
v 0.047501 0.052155 0.220993
v 0.039497 0.057552 0.223574
v 0.039497 0.057552 0.223574
v 0.047501 0.052155 0.220993
v 0.049364 0.052155 0.231177
v 0.040966 0.057552 0.231599
v 0.040966 0.057552 0.231599
v 0.049364 0.052155 0.231177
v 0.048529 0.052155 0.241497
v 0.040307 0.057552 0.23973
v 0.040307 0.057552 0.23973
v 0.048529 0.052155 0.241497
v 0.037566 0.057552 0.247415
v 0.045051 0.052155 0.251249
v 0.045051 0.052155 0.251249
v 0.037566 0.057552 0.247415
v 0.03293 0.057552 0.254128
v 0.039167 0.052155 0.259769
v 0.039167 0.052155 0.259769
v 0.03293 0.057552 0.254128
v 0.026715 0.057552 0.259412
v 0.031279 0.052155 0.266475
v 0.031279 0.052155 0.266475
v 0.026715 0.057552 0.259412
v 0.019343 0.057552 0.262908
v 0.021924 0.052155 0.270911
v 0.021924 0.052155 0.270911
v 0.019343 0.057552 0.262908
v 0.011318 0.057552 0.264376
v 0.011739 0.052155 0.272775
v 0.011739 0.052155 0.272775
v 0.011318 0.057552 0.264376
v 0.001419 0.052155 0.27194
v 0.003186 0.057552 0.263718
v 0.001419 0.052155 0.27194
v 0.003186 0.057552 0.263718
vn 0.8398992088532095 0.0 -0.5427424057209392
vn 0.7618716812408566 0.0 -0.6477279840513537
vn -0.7618716812408566 0.0 0.6477279840513537
vn -0.8398992088532095 0.0 0.5427424057209392
vn 0.36231321526027827 -0.8415916354470154 -0.4005654168714232
vn 0.45364162670553665 -0.8415916495438577 -0.2931429172570999
vn 0.4140033018816082 -0.8394720038153245 -0.3519773015997053
vn -0.36231321526027827 0.8415916354470154 0.4005654168714232
vn -0.4140033018816082 0.8394720038153245 0.3519773015997053
vn -0.45364162670553665 0.8415916495438577 0.2931429172570999
vn 0.6708082936751061 0.0 -0.7416307930073377
vn -0.6708082936751061 0.0 0.7416307930073377
vn 0.0 1.0 0.0
vn 0.0 -1.0 0.0
vn 0.9517524063792346 0.0 -0.30686700205681305
vn -0.9517524063792346 0.0 0.30686700205681305
vn 0.5140551320326248 -0.8415916524426028 -0.16574321032805572
vn -0.5140551320326248 0.8415916524426028 0.16574321032805572
vn 0.24629371429116279 -0.8415916488332514 -0.4806900278919797
vn -0.24629371429116279 0.8415916488332514 0.4806900278919797
vn 0.4560028956042915 0.0 -0.8899782914209209
vn -0.4560028956042915 0.0 0.8899782914209209
vn 0.21012159169844782 0.0 -0.9776752613736889
vn -0.21012159169844782 0.0 0.9776752613736889
vn -0.05007906780843621 0.0 -0.9987452562928337
vn 0.05007906780843621 0.0 0.9987452562928337
vn -0.30686700205681305 0.0 -0.9517524063792346
vn 0.30686700205681305 0.0 0.9517524063792346
vn -0.5427424057209392 0.0 -0.8398992088532095
vn 0.5427424057209392 0.0 0.8398992088532095
vn -0.7416307930073377 0.0 -0.6708082936751061
vn 0.7416307930073377 0.0 0.6708082936751061
vn -0.8899782914209209 0.0 -0.4560028956042915
vn 0.8899782914209209 0.0 0.4560028956042915
vn -0.9776752613736889 0.0 -0.21012159169844782
vn 0.9776752613736889 0.0 0.21012159169844782
vn -0.9987452562928337 0.0 0.05007906780843621
vn 0.9987452562928337 0.0 -0.05007906780843621
vn 0.5394366313858766 -0.8415916489660685 -0.027048421573750137
vn -0.5394366313858766 0.8415916489660685 0.027048421573750137
vn 0.5280564277816809 -0.841591644277143 0.11348970597082911
vn -0.5280564277816809 0.841591644277143 -0.11348970597082911
vn 0.4806900278919802 -0.8415916488332513 0.2462937142911623
vn -0.4806900278919802 0.8415916488332513 -0.2462937142911623
vn 0.40056541687142366 -0.8415916354470154 0.36231321526027777
vn -0.40056541687142366 0.8415916354470154 -0.36231321526027777
vn 0.29314291725710034 -0.8415916495438578 0.4536416267055362
vn -0.29314291725710034 0.8415916495438578 -0.4536416267055362
vn 0.16574321032805617 -0.8415916524426028 0.5140551320326242
vn -0.16574321032805617 0.8415916524426028 -0.5140551320326242
vn 0.027048421573750606 -0.8415916489660689 0.5394366313858762
vn -0.027048421573750606 0.8415916489660689 -0.5394366313858762
vn -0.11348970597082862 -0.8415916442771434 0.5280564277816804
vn 0.11348970597082862 0.8415916442771434 -0.5280564277816804
vn -0.24629371429116184 -0.8415916488332518 0.4806900278919797
vn 0.24629371429116184 0.8415916488332518 -0.4806900278919797
vn -0.3623132152602773 -0.8415916354470159 0.4005654168714232
vn 0.3623132152602773 0.8415916354470159 -0.4005654168714232
vn -0.4140033018816072 -0.8394720038153249 0.35197730159970525
vn -0.4536416267055357 -0.8415916495438583 0.2931429172570999
vn 0.4536416267055357 0.8415916495438583 -0.2931429172570999
vn 0.4140033018816072 0.8394720038153249 -0.35197730159970525
vn -0.5140551320326239 -0.8415916524426034 0.16574321032805572
vn 0.5140551320326239 0.8415916524426034 -0.16574321032805572
vn -0.5394366313858758 -0.8415916489660693 0.02704842157375012
vn 0.5394366313858758 0.8415916489660693 -0.02704842157375012
vn -0.5280564277816799 -0.8415916442771436 -0.11348970597082911
vn 0.5280564277816799 0.8415916442771436 0.11348970597082911
vn -0.4806900278919792 -0.8415916488332519 -0.2462937142911623
vn 0.4806900278919792 0.8415916488332519 0.2462937142911623
vn -0.4005654168714228 -0.841591635447016 -0.3623132152602778
vn 0.4005654168714228 0.841591635447016 0.3623132152602778
vn -0.2931429172570994 -0.8415916495438582 -0.4536416267055362
vn 0.2931429172570994 0.8415916495438582 0.4536416267055362
vn -0.1657432103280552 -0.841591652442603 -0.5140551320326242
vn 0.1657432103280552 0.841591652442603 0.5140551320326242
vn -0.027048421573749645 -0.8415916489660689 -0.5394366313858762
vn 0.027048421573749645 0.8415916489660689 0.5394366313858762
vn 0.1134897059708296 -0.8415916442771432 -0.5280564277816804
vn -0.1134897059708296 0.8415916442771432 0.5280564277816804
usemtl material_0_0
f 1//1 2//2 3//1
f 2//2 1//1 4//2
f 5//3 6//4 7//3
f 8//4 7//3 6//4
f 9//5 10//6 11//6
f 10//6 9//5 12//7
f 12//7 9//5 13//5
f 14//8 15//8 16//9
f 16//9 15//8 17//10
f 18//10 17//10 15//8
f 19//2 20//11 21//2
f 20//11 19//2 22//11
f 23//12 24//3 25//12
f 26//3 25//12 24//3
f 27//13 28//13 29//13
f 28//13 27//13 30//13
f 30//13 27//13 31//13
f 30//13 31//13 32//13
f 32//13 31//13 33//13
f 32//13 33//13 34//13
f 34//13 33//13 35//13
f 34//13 35//13 36//13
f 36//13 35//13 37//13
f 37//13 35//13 38//13
f 37//13 38//13 39//13
f 39//13 38//13 40//13
f 39//13 40//13 41//13
f 41//13 40//13 42//13
f 41//13 42//13 43//13
f 43//13 42//13 44//13
f 43//13 44//13 45//13
f 45//13 44//13 46//13
f 45//13 46//13 47//13
f 47//13 46//13 48//13
f 47//13 48//13 49//13
f 47//13 49//13 50//13
f 50//13 49//13 51//13
f 50//13 51//13 52//13
f 53//14 54//14 55//14
f 54//14 56//14 55//14
f 55//14 56//14 57//14
f 56//14 58//14 57//14
f 58//14 59//14 57//14
f 57//14 59//14 60//14
f 59//14 61//14 60//14
f 60//14 61//14 62//14
f 61//14 63//14 62//14
f 62//14 63//14 64//14
f 63//14 65//14 64//14
f 64//14 65//14 66//14
f 65//14 67//14 66//14
f 66//14 67//14 68//14
f 67//14 69//14 68//14
f 68//14 69//14 70//14
f 70//14 69//14 71//14
f 69//14 72//14 71//14
f 71//14 72//14 73//14
f 72//14 74//14 73//14
f 73//14 74//14 75//14
f 74//14 76//14 75//14
f 75//14 76//14 77//14
f 78//14 77//14 76//14
f 79//15 3//1 80//15
f 3//1 79//15 1//1
f 6//4 81//16 8//4
f 82//16 8//4 81//16
f 11//6 83//17 84//17
f 83//17 11//6 10//6
f 17//10 18//10 85//18
f 86//18 85//18 18//10
f 87//14 88//14 89//14
f 90//14 91//14 92//14
f 91//14 90//14 93//14
f 91//14 93//14 94//14
f 94//14 93//14 95//14
f 94//14 95//14 96//14
f 96//14 95//14 97//14
f 96//14 97//14 98//14
f 98//14 97//14 99//14
f 98//14 99//14 89//14
f 89//14 99//14 100//14
f 100//14 99//14 101//14
f 100//14 101//14 102//14
f 102//14 101//14 103//14
f 102//14 103//14 104//14
f 104//14 103//14 105//14
f 105//14 103//14 106//14
f 105//14 106//14 107//14
f 98//14 88//14 108//14
f 88//14 98//14 89//14
f 108//14 88//14 109//14
f 108//14 109//14 110//14
f 110//14 109//14 111//14
f 110//14 111//14 112//14
f 110//14 112//14 113//14
f 113//14 112//14 107//14
f 113//14 107//14 114//14
f 114//14 107//14 106//14
f 114//14 106//14 115//14
f 114//14 115//14 116//14
f 116//14 115//14 117//14
f 116//14 117//14 118//14
f 118//14 117//14 119//14
f 118//14 119//14 120//14
f 120//14 119//14 121//14
f 107//14 122//14 105//14
f 123//13 124//13 125//13
f 126//13 127//13 128//13
f 128//13 127//13 129//13
f 127//13 130//13 129//13
f 129//13 130//13 131//13
f 130//13 132//13 131//13
f 131//13 132//13 133//13
f 132//13 134//13 133//13
f 134//13 125//13 133//13
f 133//13 125//13 135//13
f 125//13 136//13 135//13
f 135//13 136//13 137//13
f 136//13 138//13 137//13
f 138//13 139//13 137//13
f 137//13 139//13 140//13
f 139//13 141//13 140//13
f 142//13 143//13 141//13
f 140//13 141//13 143//13
f 125//13 134//13 123//13
f 134//13 144//13 123//13
f 123//13 144//13 145//13
f 145//13 144//13 146//13
f 144//13 147//13 146//13
f 146//13 147//13 148//13
f 147//13 149//13 148//13
f 148//13 149//13 142//13
f 142//13 149//13 143//13
f 149//13 150//13 143//13
f 143//13 150//13 151//13
f 150//13 152//13 151//13
f 151//13 152//13 153//13
f 152//13 154//13 153//13
f 153//13 154//13 155//13
f 154//13 156//13 155//13
f 157//13 155//13 156//13
f 142//13 141//13 158//13
f 159//19 13//5 9//5
f 13//5 159//19 160//19
f 161//20 162//20 14//8
f 15//8 14//8 162//20
f 22//11 163//21 20//11
f 163//21 22//11 164//21
f 165//22 23//12 166//22
f 25//12 166//22 23//12
f 164//21 167//23 163//21
f 167//23 164//21 168//23
f 169//24 165//22 170//24
f 166//22 170//24 165//22
f 168//23 171//25 167//23
f 171//25 168//23 172//25
f 173//26 169//24 174//26
f 170//24 174//26 169//24
f 172//25 175//27 171//25
f 175//27 172//25 176//27
f 177//28 173//26 178//28
f 174//26 178//28 173//26
f 179//29 175//27 176//27
f 175//27 179//29 180//29
f 181//30 182//30 178//28
f 177//28 178//28 182//30
f 179//29 183//31 180//29
f 183//31 179//29 184//31
f 185//32 182//30 186//32
f 181//30 186//32 182//30
f 184//31 187//33 183//31
f 187//33 184//31 188//33
f 189//34 185//32 190//34
f 186//32 190//34 185//32
f 188//33 191//35 187//33
f 191//35 188//33 192//35
f 193//36 189//34 194//36
f 190//34 194//36 189//34
f 192//35 195//37 191//35
f 195//37 192//35 196//37
f 197//38 193//36 198//38
f 194//36 198//38 193//36
f 196//37 199//16 195//37
f 199//16 196//37 200//16
f 201//15 197//38 202//15
f 198//38 202//15 197//38
f 200//16 203//4 199//16
f 203//4 200//16 204//4
f 205//1 201//15 206//1
f 202//15 206//1 201//15
f 204//4 207//3 203//4
f 207//3 204//4 208//3
f 209//2 205//1 210//2
f 206//1 210//2 205//1
f 211//3 212//12 213//3
f 212//12 211//3 214//12
f 215//11 216//2 217//11
f 218//2 217//11 216//2
f 212//12 219//22 220//22
f 219//22 212//12 214//12
f 215//11 217//11 221//21
f 222//21 221//21 217//11
f 220//22 223//24 224//24
f 223//24 220//22 219//22
f 221//21 222//21 225//23
f 226//23 225//23 222//21
f 224//24 227//26 228//26
f 227//26 224//24 223//24
f 225//23 226//23 229//25
f 230//25 229//25 226//23
f 228//26 231//28 232//28
f 231//28 228//26 227//26
f 229//25 230//25 233//27
f 234//27 233//27 230//25
f 232//28 235//30 236//30
f 235//30 232//28 231//28
f 233//27 234//27 237//29
f 238//29 237//29 234//27
f 236//30 239//32 240//32
f 239//32 236//30 235//30
f 237//29 238//29 241//31
f 242//31 241//31 238//29
f 239//32 243//34 240//32
f 243//34 239//32 244//34
f 245//33 241//31 246//33
f 242//31 246//33 241//31
f 244//34 247//36 243//34
f 247//36 244//34 248//36
f 249//35 245//33 250//35
f 246//33 250//35 245//33
f 248//36 251//38 247//36
f 251//38 248//36 252//38
f 253//37 249//35 254//37
f 250//35 254//37 249//35
f 252//38 80//15 251//38
f 80//15 252//38 79//15
f 81//16 253//37 82//16
f 254//37 82//16 253//37
f 84//17 255//39 256//39
f 255//39 84//17 83//17
f 85//18 86//18 257//40
f 258//40 257//40 86//18
f 259//41 255//39 260//41
f 255//39 259//41 256//39
f 258//40 261//42 257//40
f 262//42 257//40 261//42
f 263//43 260//41 264//43
f 260//41 263//43 259//41
f 261//42 265//44 262//42
f 266//44 262//42 265//44
f 267//45 264//43 268//45
f 264//43 267//45 263//43
f 265//44 269//46 266//44
f 270//46 266//44 269//46
f 271//47 268//45 272//47
f 268//45 271//47 267//45
f 269//46 273//48 270//46
f 274//48 270//46 273//48
f 275//49 272//47 276//49
f 272//47 275//49 271//47
f 273//48 277//50 274//48
f 278//50 274//48 277//50
f 279//51 276//49 280//51
f 276//49 279//51 275//49
f 277//50 281//52 278//50
f 282//52 278//50 281//52
f 283//53 279//51 280//51
f 279//51 283//53 284//53
f 285//54 286//54 281//52
f 282//52 281//52 286//54
f 287//55 284//53 283//53
f 284//53 287//55 288//55
f 289//56 290//56 285//54
f 286//54 285//54 290//56
f 291//57 288//55 287//55
f 288//55 291//57 292//57
f 293//58 294//58 289//56
f 290//56 289//56 294//58
f 295//59 292//57 291//57
f 292//57 295//59 296//60
f 292//57 296//60 297//60
f 298//61 299//61 293//58
f 299//61 300//62 293//58
f 294//58 293//58 300//62
f 301//63 297//60 296//60
f 297//60 301//63 302//63
f 303//64 304//64 298//61
f 299//61 298//61 304//64
f 305//65 302//63 301//63
f 302//63 305//65 306//65
f 307//66 308//66 303//64
f 304//64 303//64 308//66
f 309//67 306//65 305//65
f 306//65 309//67 310//67
f 311//68 312//68 307//66
f 308//66 307//66 312//68
f 309//67 313//69 310//67
f 313//69 309//67 314//69
f 315//70 312//68 316//70
f 311//68 316//70 312//68
f 314//69 317//71 313//69
f 317//71 314//69 318//71
f 319//72 315//70 320//72
f 316//70 320//72 315//70
f 318//71 321//73 317//71
f 321//73 318//71 322//73
f 323//74 319//72 324//74
f 320//72 324//74 319//72
f 322//73 325//75 321//73
f 325//75 322//73 326//75
f 327//76 323//74 328//76
f 324//74 328//76 323//74
f 326//75 329//77 325//75
f 329//77 326//75 330//77
f 331//78 327//76 332//78
f 328//76 332//78 327//76
f 329//77 333//79 334//79
f 333//79 329//77 330//77
f 331//78 332//78 335//80
f 336//80 335//80 332//78
f 334//79 160//19 159//19
f 160//19 334//79 333//79
f 335//80 336//80 161//20
f 162//20 161//20 336//80
