# SSTK version 0.8.0
# 241
mtllib original-241.mtl
o mesh157/mesh157-geometry#mesh157-geometry
v -0.514496 0.016155 -0.140740
v -0.514496 0.004171 -0.144281
v -0.514496 0.011867 -0.144281
v -0.514496 0.008629 -0.140786
v -0.514496 -0.026052 -0.144281
v -0.514496 0.011813 -0.137177
v -0.514496 0.020637 -0.144281
v -0.514496 0.019218 -0.136822
v -0.514496 -0.026052 -0.152751
v -0.514496 0.013723 -0.133456
v -0.514496 0.020637 -0.152751
v -0.514496 0.021056 -0.132528
v -0.514496 0.014360 -0.129621
v -0.514496 0.021669 -0.127858
v -0.514496 0.013807 -0.126596
v -0.514496 0.020707 -0.122409
v -0.514496 0.012146 -0.124570
v -0.514496 0.009185 -0.123425
v -0.514496 0.004730 -0.123043
v -0.514496 -0.026052 -0.123043
v -0.514496 -0.026052 -0.114574
v -0.514496 0.017821 -0.118185
v -0.514496 0.013312 -0.115477
v -0.514496 0.007482 -0.114574
vn 1 0 0
vn -1 0 0
usemtl material_0_0
f 1//1 2//1 3//1
f 2//1 1//1 4//1
f 5//1 3//1 2//1
f 4//1 1//1 6//1
f 5//1 7//1 3//1
f 6//1 1//1 8//1
f 9//1 7//1 5//1
f 6//1 8//1 10//1
f 7//1 9//1 11//1
f 10//1 8//1 12//1
f 10//1 12//1 13//1
f 13//1 12//1 14//1
f 13//1 14//1 15//1
f 15//1 14//1 16//1
f 15//1 16//1 17//1
f 17//1 16//1 18//1
f 18//1 16//1 19//1
f 19//1 16//1 20//1
f 20//1 16//1 21//1
f 21//1 16//1 22//1
f 21//1 22//1 23//1
f 21//1 23//1 24//1
usemtl material_1_0
f 3//2 2//2 1//2
f 4//2 1//2 2//2
f 2//2 3//2 5//2
f 6//2 1//2 4//2
f 3//2 7//2 5//2
f 8//2 1//2 6//2
f 5//2 7//2 9//2
f 10//2 8//2 6//2
f 11//2 9//2 7//2
f 12//2 8//2 10//2
f 13//2 12//2 10//2
f 14//2 12//2 13//2
f 15//2 14//2 13//2
f 16//2 14//2 15//2
f 17//2 16//2 15//2
f 18//2 16//2 17//2
f 19//2 16//2 18//2
f 20//2 16//2 19//2
f 21//2 16//2 20//2
f 22//2 16//2 21//2
f 23//2 22//2 21//2
f 24//2 23//2 21//2
