# SSTK version 0.8.0
# 245
mtllib original-245.mtl
o mesh161/mesh161-geometry#mesh161-geometry
v -0.514496 0.020637 0.110661
v -0.514496 0.014274 0.098451
v -0.514496 0.020637 0.098451
v -0.514496 0.014274 0.110661
v -0.514496 -0.011607 0.098451
v -0.514496 0.029923 0.098451
v -0.514496 -0.026203 0.097914
v -0.514496 -0.023430 0.093593
v -0.514496 -0.015613 0.098946
v -0.514496 -0.019012 0.090885
v -0.514496 -0.027127 0.103653
v -0.514496 -0.013155 0.089982
v -0.514496 -0.018475 0.100429
v -0.514496 0.014274 0.089982
v -0.514496 -0.020192 0.102901
v -0.514496 0.020637 0.089982
v -0.514496 -0.020764 0.106362
v -0.514496 0.029107 0.089982
v -0.514496 0.014274 0.084135
v -0.514496 -0.026052 0.110446
v -0.514496 0.020637 0.084135
v -0.514496 -0.020205 0.110446
vn 1 0 0
vn -1 0 0
usemtl material_0_0
f 1//1 2//1 3//1
f 2//1 1//1 4//1
f 5//1 3//1 2//1
f 5//1 6//1 3//1
f 7//1 6//1 5//1
f 8//1 6//1 7//1
f 7//1 5//1 9//1
f 10//1 6//1 8//1
f 7//1 9//1 11//1
f 12//1 6//1 10//1
f 11//1 9//1 13//1
f 14//1 6//1 12//1
f 11//1 13//1 15//1
f 16//1 6//1 14//1
f 11//1 15//1 17//1
f 6//1 16//1 18//1
f 19//1 16//1 14//1
f 11//1 17//1 20//1
f 16//1 19//1 21//1
f 20//1 17//1 22//1
usemtl material_1_0
f 3//2 2//2 1//2
f 4//2 1//2 2//2
f 2//2 3//2 5//2
f 3//2 6//2 5//2
f 5//2 6//2 7//2
f 7//2 6//2 8//2
f 9//2 5//2 7//2
f 8//2 6//2 10//2
f 11//2 9//2 7//2
f 10//2 6//2 12//2
f 13//2 9//2 11//2
f 12//2 6//2 14//2
f 15//2 13//2 11//2
f 14//2 6//2 16//2
f 17//2 15//2 11//2
f 18//2 16//2 6//2
f 14//2 16//2 19//2
f 20//2 17//2 11//2
f 21//2 19//2 16//2
f 22//2 17//2 20//2
