# SSTK version 0.8.0
# 21
mtllib original-21.mtl
o mesh2/mesh2-geometry/material_0#mesh2-geometry
v 0.160961 0.338621 -0.151193
v 0.210185 0.246989 -0.151193
v 0.160961 0.246989 -0.151193
v 0.210185 0.246989 -0.151193
v 0.160961 0.338621 -0.151193
v 0.210185 0.338621 -0.151193
v 0.160961 0.246989 -0.151193
v 0.210185 0.246989 -0.151193
v 0.160961 0.338621 -0.151193
v 0.210185 0.338621 -0.151193
v 0.160961 0.338621 -0.151193
v 0.210185 0.246989 -0.151193
vn 0 0 -1
vn 0 0 1
usemtl material_0_0
f 1//1 2//1 3//1
f 4//1 5//1 6//1
usemtl material_1_0
f 7//2 8//2 9//2
f 10//2 11//2 12//2
