# SSTK version 0.8.0
# 115
mtllib original-115.mtl
o mesh50/mesh50-geometry/material_3/component_8#mesh50-geometry
v -0.093943 0.257019 0.860105
v -0.093943 0.257019 0.686735
v -0.090802 0.258193 0.860105
v -0.090802 0.258193 0.686735
v -0.090802 0.258193 0.860105
v -0.093943 0.257019 0.686735
v -0.090802 0.258193 0.860105
v -0.093943 0.257019 0.686735
v -0.093943 0.257019 0.860105
v -0.093943 0.257019 0.686735
v -0.090802 0.258193 0.860105
v -0.090802 0.258193 0.686735
vn 0.03797600169884656 -0.7584550032481239 -0.6506180379783962
vn 0.05000699305215012 -0.998748867656871 0
vn 0.5456828794011614 -0.5077258769668642 -0.6666668050733335
vn 0.7321106560507532 -0.6811857215891535 0
vn -0.5456828794011614 0.5077258769668642 0.6666668050733335
vn -0.05000699305215012 0.998748867656871 0
vn -0.03797600169884656 0.7584550032481239 0.6506180379783962
vn -0.7321106560507532 0.6811857215891535 0
usemtl material_0_0
f 1//1 2//2 3//3
f 4//4 5//3 6//2
usemtl material_1_0
f 7//5 8//6 9//7
f 10//6 11//5 12//8
