# SSTK version 0.8.0
# 95
mtllib original-95.mtl
o mesh50/mesh50-geometry/material_2/component_12#mesh50-geometry
v 0.399524 -0.050149 0.860105
v 0.391415 0.034090 0.860105
v 0.399524 -0.050149 0.686735
v 0.391415 0.034090 0.686735
v 0.399524 -0.050149 0.686735
v 0.391415 0.034090 0.860105
v 0.399524 -0.050149 0.686735
v 0.391415 0.034090 0.860105
v 0.399524 -0.050149 0.860105
v 0.391415 0.034090 0.860105
v 0.399524 -0.050149 0.686735
v 0.391415 0.034090 0.686735
vn -0.999389971069543 0.03492399927869247 0
vn -0.9953985852195352 -0.09582096087468542 0
vn 0.999389971069543 -0.03492399927869247 0
vn 0.9953985852195352 0.09582096087468542 0
usemtl material_0_0
f 1//1 2//2 3//1
f 4//2 5//1 6//2
usemtl material_1_0
f 7//3 8//4 9//3
f 10//4 11//3 12//4
