# SSTK version 0.8.0
# 13
mtllib original-13.mtl
o mesh22/mesh22-geometry#mesh22-geometry
v 0.168552 0.208104 -0.701202
v 0.171106 0.205795 -0.701202
v 0.171106 0.208104 -0.701202
v 0.168552 0.205795 -0.701202
v 0.171106 0.198407 -0.701202
v 0.171106 0.208104 -0.703462
v 0.168552 0.205795 -0.703462
v 0.171106 0.219894 -0.701202
v 0.171106 0.198407 -0.703462
v 0.168552 0.208104 -0.703462
v 0.171106 0.205795 -0.703462
v 0.173762 0.219894 -0.701202
v 0.173877 0.198407 -0.701202
v 0.171106 0.219894 -0.703462
v 0.173762 0.219894 -0.703462
v 0.173877 0.198407 -0.703462
v 0.173877 0.205795 -0.701202
v 0.183372 0.208826 -0.701202
v 0.173877 0.205795 -0.703462
v 0.173877 0.208104 -0.701202
v 0.183372 0.208826 -0.703462
v 0.183372 0.205795 -0.701202
v 0.173877 0.216503 -0.703462
v 0.173877 0.208104 -0.703462
v 0.173877 0.216503 -0.701202
v 0.181121 0.208104 -0.701202
v 0.181121 0.208104 -0.703462
v 0.183372 0.205795 -0.703462
vn 0 0 1
vn 0 0 -1
vn 0 1 0
vn 0 -1 0
vn -1 0 0
vn 1 0 0
vn 0.7550719405954726 0.6556419484180274 0
vn -0.7550719405954726 -0.6556419484180274 0
vn -0.7572324949087681 -0.6531454268799883 0
vn 0.7572324949087681 0.6531454268799883 0
usemtl material_0_0
f 1//1 2//1 3//1
f 2//1 1//1 4//1
f 3//2 2//2 1//2
f 4//2 1//2 2//2
f 5//1 3//1 2//1
f 2//2 3//2 5//2
f 6//3 1//3 3//3
f 3//4 1//4 6//4
f 1//5 7//5 4//5
f 4//6 7//6 1//6
f 7//4 2//4 4//4
f 4//3 2//3 7//3
f 5//1 8//1 3//1
f 3//2 8//2 5//2
f 2//5 9//5 5//5
f 5//6 9//6 2//6
f 1//3 6//3 10//3
f 10//4 6//4 1//4
f 8//5 6//5 3//5
f 3//6 6//6 8//6
f 7//5 1//5 10//5
f 10//6 1//6 7//6
f 2//4 7//4 11//4
f 11//3 7//3 2//3
f 5//1 12//1 8//1
f 8//2 12//2 5//2
f 9//5 2//5 11//5
f 11//6 2//6 9//6
f 9//4 13//4 5//4
f 5//3 13//3 9//3
f 6//2 7//2 10//2
f 10//1 7//1 6//1
f 6//5 8//5 14//5
f 14//6 8//6 6//6
f 7//2 6//2 11//2
f 11//1 6//1 7//1
f 13//1 12//1 5//1
f 5//2 12//2 13//2
f 15//3 8//3 12//3
f 12//4 8//4 15//4
f 14//2 9//2 11//2
f 11//1 9//1 14//1
f 13//4 9//4 16//4
f 16//3 9//3 13//3
f 8//3 15//3 14//3
f 14//4 15//4 8//4
f 14//2 11//2 6//2
f 6//1 11//1 14//1
f 17//1 12//1 13//1
f 13//2 12//2 17//2
f 18//7 15//7 12//7
f 12//8 15//8 18//8
f 15//2 9//2 14//2
f 14//1 9//1 15//1
f 9//2 19//2 16//2
f 16//1 19//1 9//1
f 19//6 13//6 16//6
f 16//5 13//5 19//5
f 20//1 12//1 17//1
f 17//2 12//2 20//2
f 13//6 19//6 17//6
f 17//5 19//5 13//5
f 15//7 18//7 21//7
f 21//8 18//8 15//8
f 12//1 22//1 18//1
f 18//2 22//2 12//2
f 23//2 9//2 15//2
f 15//1 9//1 23//1
f 19//2 9//2 24//2
f 24//1 9//1 19//1
f 25//1 12//1 20//1
f 20//2 12//2 25//2
f 17//1 26//1 20//1
f 20//2 26//2 17//2
f 19//4 22//4 17//4
f 17//3 22//3 19//3
f 22//6 21//6 18//6
f 18//5 21//5 22//5
f 27//2 15//2 21//2
f 21//1 15//1 27//1
f 22//1 12//1 26//1
f 26//2 12//2 22//2
f 24//2 9//2 23//2
f 23//1 9//1 24//1
f 15//2 27//2 23//2
f 23//1 27//1 15//1
f 27//2 19//2 24//2
f 24//1 19//1 27//1
f 26//1 12//1 25//1
f 25//2 12//2 26//2
f 20//6 23//6 25//6
f 25//5 23//5 20//5
f 26//1 17//1 22//1
f 22//2 17//2 26//2
f 27//3 20//3 26//3
f 26//4 20//4 27//4
f 22//4 19//4 28//4
f 28//3 19//3 22//3
f 21//6 22//6 28//6
f 28//5 22//5 21//5
f 28//2 27//2 21//2
f 21//1 27//1 28//1
f 23//6 20//6 24//6
f 24//5 20//5 23//5
f 27//9 25//9 23//9
f 23//10 25//10 27//10
f 27//2 28//2 19//2
f 19//1 28//1 27//1
f 20//3 27//3 24//3
f 24//4 27//4 20//4
f 25//9 27//9 26//9
f 26//10 27//10 25//10
