# SSTK version 0.8.0
# 40
mtllib original-40.mtl
o #ID207
v -0.016155 0.063871 0.063718
v -0.007092 0.059241 0.056013
v -0.016155 0.059241 0.063718
v -0.007092 0.063763 0.056013
v -0.007092 0.063763 0.056013
v -0.016155 0.063871 0.063718
v -0.007092 0.059241 0.056013
v -0.016155 0.059241 0.063718
v -0.022915 0.059241 0.073507
v -0.022915 0.064007 0.073507
v -0.022915 0.064007 0.073507
v -0.022915 0.059241 0.073507
v 0.003657 0.059241 0.050916
v 0.003657 0.063692 0.050916
v 0.003657 0.063692 0.050916
v 0.003657 0.059241 0.050916
v 0.042372 0.059241 0.132559
v 0.040097 0.059241 0.100366
v 0.04106 0.059241 0.094332
v 0.031624 0.059241 0.137656
v 0.037605 0.059241 0.105945
v 0.033754 0.059241 0.110689
v 0.028807 0.059241 0.114274
v 0.019922 0.059241 0.139798
v 0.0231 0.059241 0.116457
v 0.017022 0.059241 0.117089
v 0.008065 0.059241 0.138838
v 0.010988 0.059241 0.116126
v 0.005409 0.059241 0.113635
v -0.003139 0.059241 0.134841
v 0.000665 0.059241 0.109784
v -0.00292 0.059241 0.104836
v -0.005103 0.059241 0.099129
v -0.012928 0.059241 0.128081
v -0.005735 0.059241 0.093052
v -0.007092 0.059241 0.056013
v -0.016155 0.059241 0.063718
v -0.014658 0.059241 0.126046
v -0.020633 0.059241 0.119018
v -0.022915 0.059241 0.073507
v -0.02573 0.059241 0.10827
v -0.026911 0.059241 0.084711
v -0.027871 0.059241 0.096568
v 0.062192 0.059241 0.103861
v 0.061011 0.059241 0.080303
v 0.063152 0.059241 0.092004
v 0.058196 0.059241 0.115066
v 0.055914 0.059241 0.069554
v 0.051436 0.059241 0.124854
v 0.053822 0.059241 0.067094
v 0.048208 0.059241 0.060491
v 0.03842 0.059241 0.053731
v 0.040428 0.059241 0.088254
v 0.038245 0.059241 0.082548
v 0.027215 0.059241 0.049735
v 0.034659 0.059241 0.0776
v 0.029915 0.059241 0.073749
v 0.024336 0.059241 0.071257
v 0.015358 0.059241 0.048775
v 0.018302 0.059241 0.070294
v 0.012225 0.059241 0.070926
v 0.003657 0.059241 0.050916
v 0.006518 0.059241 0.073109
v 0.001571 0.059241 0.076695
v -0.00228 0.059241 0.081439
v -0.004772 0.059241 0.087018
v -0.005735 0.059241 0.093052
v -0.004772 0.059241 0.087018
v -0.007092 0.059241 0.056013
v -0.00228 0.059241 0.081439
v 0.001571 0.059241 0.076695
v 0.003657 0.059241 0.050916
v 0.006518 0.059241 0.073109
v 0.012225 0.059241 0.070926
v 0.015358 0.059241 0.048775
v 0.018302 0.059241 0.070294
v 0.024336 0.059241 0.071257
v 0.027215 0.059241 0.049735
v 0.029915 0.059241 0.073749
v 0.034659 0.059241 0.0776
v 0.038245 0.059241 0.082548
v 0.03842 0.059241 0.053731
v 0.040428 0.059241 0.088254
v 0.04106 0.059241 0.094332
v 0.048208 0.059241 0.060491
v 0.042372 0.059241 0.132559
v 0.051436 0.059241 0.124854
v 0.053822 0.059241 0.067094
v 0.055914 0.059241 0.069554
v 0.058196 0.059241 0.115066
v 0.061011 0.059241 0.080303
v 0.062192 0.059241 0.103861
v 0.063152 0.059241 0.092004
v -0.027871 0.059241 0.096568
v -0.02573 0.059241 0.10827
v -0.026911 0.059241 0.084711
v -0.022915 0.059241 0.073507
v -0.020633 0.059241 0.119018
v -0.016155 0.059241 0.063718
v -0.014658 0.059241 0.126046
v -0.012928 0.059241 0.128081
v -0.005103 0.059241 0.099129
v -0.003139 0.059241 0.134841
v -0.00292 0.059241 0.104836
v 0.000665 0.059241 0.109784
v 0.005409 0.059241 0.113635
v 0.008065 0.059241 0.138838
v 0.010988 0.059241 0.116126
v 0.017022 0.059241 0.117089
v 0.019922 0.059241 0.139798
v 0.0231 0.059241 0.116457
v 0.028807 0.059241 0.114274
v 0.031624 0.059241 0.137656
v 0.033754 0.059241 0.110689
v 0.037605 0.059241 0.105945
v 0.040097 0.059241 0.100366
v -0.026911 0.059241 0.084711
v -0.026911 0.064164 0.084711
v -0.026911 0.064164 0.084711
v -0.026911 0.059241 0.084711
v 0.015358 0.059241 0.048775
v 0.015358 0.063662 0.048775
v 0.015358 0.063662 0.048775
v 0.015358 0.059241 0.048775
v 0.019922 0.064933 0.139798
v 0.008065 0.059241 0.138838
v 0.019922 0.059241 0.139798
v 0.008065 0.06492 0.138838
v 0.008065 0.06492 0.138838
v 0.019922 0.064933 0.139798
v 0.008065 0.059241 0.138838
v 0.019922 0.059241 0.139798
v -0.003139 0.064864 0.134841
v -0.003139 0.059241 0.134841
v -0.003139 0.064864 0.134841
v -0.003139 0.059241 0.134841
v -0.012928 0.059241 0.128081
v -0.012928 0.064769 0.128081
v -0.012928 0.064769 0.128081
v -0.012928 0.059241 0.128081
v -0.014658 0.059241 0.126046
v -0.020633 0.064643 0.119018
v -0.020633 0.059241 0.119018
v -0.014658 0.059241 0.126046
v -0.020633 0.064643 0.119018
v -0.020633 0.059241 0.119018
v -0.02573 0.064493 0.10827
v -0.02573 0.059241 0.10827
v -0.02573 0.064493 0.10827
v -0.02573 0.059241 0.10827
v -0.027871 0.059241 0.096568
v -0.027252 0.064377 0.099951
v -0.027871 0.064311 0.096568
v -0.027252 0.064377 0.099951
v -0.027871 0.059241 0.096568
v -0.027871 0.064311 0.096568
v -0.027252 0.064223 0.088924
v -0.027252 0.064223 0.088924
v 0.027215 0.063675 0.049735
v 0.027215 0.059241 0.049735
v 0.027215 0.063675 0.049735
v 0.027215 0.059241 0.049735
v 0.03842 0.059241 0.053731
v 0.03842 0.063731 0.053731
v 0.03842 0.063731 0.053731
v 0.03842 0.059241 0.053731
v 0.048208 0.059241 0.060491
v 0.048208 0.063203 0.060491
v 0.046663 0.063391 0.059424
v 0.042868 0.06366 0.056803
v 0.039066 0.063737 0.054177
v 0.039066 0.063737 0.054177
v 0.042868 0.06366 0.056803
v 0.046663 0.063391 0.059424
v 0.048208 0.063203 0.060491
v 0.048208 0.059241 0.060491
v 0.050448 0.062946 0.063126
v 0.053822 0.059241 0.067094
v 0.054217 0.06232 0.067559
v 0.055914 0.059241 0.069554
v 0.055914 0.061952 0.069554
v 0.055914 0.061952 0.069554
v 0.054217 0.06232 0.067559
v 0.055914 0.059241 0.069554
v 0.053822 0.059241 0.067094
v 0.050448 0.062946 0.063126
v 0.057965 0.061532 0.073881
v 0.061011 0.059241 0.080303
v 0.061011 0.060751 0.080303
v 0.061011 0.060751 0.080303
v 0.057965 0.061532 0.073881
v 0.061011 0.059241 0.080303
v 0.063152 0.059241 0.092004
v 0.061687 0.060609 0.084001
v 0.063152 0.060224 0.092004
v 0.063152 0.060224 0.092004
v 0.061687 0.060609 0.084001
v 0.063152 0.059241 0.092004
v 0.062192 0.060715 0.103861
v 0.062192 0.059241 0.103861
v 0.062192 0.059241 0.103861
v 0.062192 0.060715 0.103861
v 0.061687 0.060906 0.105276
v 0.058196 0.059241 0.115066
v 0.058196 0.062042 0.115066
v 0.058196 0.062042 0.115066
v 0.061687 0.060906 0.105276
v 0.058196 0.059241 0.115066
v 0.057965 0.062112 0.115399
v 0.051436 0.059241 0.124854
v 0.054217 0.063064 0.120826
v 0.051436 0.063627 0.124854
v 0.051436 0.063627 0.124854
v 0.054217 0.063064 0.120826
v 0.051436 0.059241 0.124854
v 0.057965 0.062112 0.115399
v 0.042372 0.059241 0.132559
v 0.042372 0.064732 0.132559
v 0.050448 0.063819 0.125693
v 0.046663 0.064361 0.128911
v 0.042868 0.064712 0.132139
v 0.042868 0.064712 0.132139
v 0.046663 0.064361 0.128911
v 0.042372 0.064732 0.132559
v 0.050448 0.063819 0.125693
v 0.042372 0.059241 0.132559
v 0.031624 0.059241 0.137656
v 0.031624 0.064903 0.137656
v 0.039066 0.064854 0.134127
v 0.039066 0.064854 0.134127
v 0.031624 0.064903 0.137656
v 0.031624 0.059241 0.137656
vn -0.742207284707023 0.0 -0.6701703861913239
vn -0.5427424057209389 0.0 -0.8398992088532097
vn -0.7416307930073374 0.0 -0.6708082936751064
vn -0.5432706953288905 0.0 -0.839557592781379
vn 0.5432706953288905 0.0 0.839557592781379
vn 0.742207284707023 0.0 0.6701703861913239
vn 0.5427424057209389 0.0 0.8398992088532097
vn 0.7416307930073374 0.0 0.6708082936751064
vn -0.8899782914209208 0.0 -0.45600289560429197
vn -0.8904484484691716 0.0 -0.45508412477128335
vn 0.8904484484691716 0.0 0.45508412477128335
vn 0.8899782914209208 0.0 0.45600289560429197
vn -0.30686700205681267 0.0 -0.9517524063792347
vn -0.30720540953943454 0.0 -0.9516432295507116
vn 0.30720540953943454 0.0 0.9516432295507116
vn 0.30686700205681267 0.0 0.9517524063792347
vn 0.0 -1.0 0.0
vn 0.0 1.0 0.0
vn -0.9776752613736889 0.0 -0.2101215916984483
vn -0.9779129046205162 0.0 -0.20901280098755956
vn 0.9779129046205162 0.0 0.20901280098755956
vn 0.9776752613736889 0.0 0.2101215916984483
vn -0.05007906780843578 0.0 -0.9987452562928336
vn -0.05013703241694295 0.0 -0.9987423481461185
vn 0.05013703241694295 0.0 0.9987423481461185
vn 0.05007906780843578 0.0 0.9987452562928336
vn 0.05002096838824964 0.0 0.9987481678188459
vn -0.2101215916984483 0.0 0.9776752613736889
vn -0.20988300183739472 0.0 0.9777265085593846
vn 0.20988300183739472 0.0 -0.9777265085593846
vn -0.05002096838824964 0.0 -0.9987481678188459
vn 0.2101215916984483 0.0 -0.9776752613736889
vn -0.4555314066840012 0.0 0.8902197130621716
vn -0.45600289560429197 0.0 0.8899782914209208
vn 0.4555314066840012 0.0 -0.8902197130621716
vn 0.45600289560429197 0.0 -0.8899782914209208
vn -0.6708082936751064 0.0 0.7416307930073374
vn -0.6702303956690484 0.0 0.742153095204292
vn 0.6702303956690484 0.0 -0.742153095204292
vn 0.6708082936751064 0.0 -0.7416307930073374
vn -0.7618716812408568 0.0 0.6477279840513532
vn -0.8393696021666773 0.0 0.5435611014031022
vn -0.8398992088532097 0.0 0.5427424057209389
vn 0.7618716812408568 0.0 -0.6477279840513532
vn 0.8393696021666773 0.0 -0.5435611014031022
vn 0.8398992088532097 0.0 -0.5427424057209389
vn -0.9514128702236224 0.0 0.3079180903630844
vn -0.9517524063792347 0.0 0.30686700205681267
vn 0.9514128702236224 0.0 -0.3079180903630844
vn 0.9517524063792347 0.0 -0.30686700205681267
vn -0.9987452562928336 0.0 0.05007906780843578
vn -0.9836642125253654 0.0 0.18001310229217415
vn -0.9986802937690752 0.0 0.05135825967956745
vn 0.9836642125253654 0.0 -0.18001310229217415
vn 0.9987452562928336 0.0 -0.05007906780843578
vn 0.9986802937690752 0.0 -0.05135825967956745
vn -0.9967374823891347 0.0 -0.08071177857394342
vn 0.9967374823891347 0.0 0.08071177857394342
vn 0.21035969113492764 0.0 -0.9776240588005277
vn -0.21035969113492764 0.0 0.9776240588005277
vn 0.4564731846209442 0.0 -0.8897371700238298
vn -0.4564731846209442 0.0 0.8897371700238298
vn 0.665428286258863 0.0 -0.7464617845855156
vn 0.568267193322676 0.0 -0.8228440903313144
vn -0.568267193322676 0.0 0.8228440903313144
vn -0.665428286258863 0.0 0.7464617845855156
vn 0.8347795020270076 0.0 -0.5505844013369261
vn -0.8347795020270076 0.0 0.5505844013369261
vn 0.9035558718059401 0.0 -0.42847028663024883
vn 0.9498842673478571 0.0 -0.3126017892543557
vn -0.9498842673478571 0.0 0.3126017892543557
vn -0.9035558718059401 0.0 0.42847028663024883
vn 0.9987329841400363 0.0 -0.05032321920086283
vn -0.9987329841400363 0.0 0.05032321920086283
vn 0.9762154400617103 0.0 0.21680270889710124
vn -0.9762154400617103 0.0 -0.21680270889710124
vn 0.9418847383514138 0.0 0.33593621367856225
vn 0.8846543169124939 0.0 0.4662475089135477
vn -0.8846543169124939 0.0 -0.4662475089135477
vn -0.9418847383514138 0.0 -0.33593621367856225
vn 0.8228440903313144 0.0 0.568267193322676
vn 0.734313783663545 0.0 0.6788101848983472
vn -0.734313783663545 0.0 -0.6788101848983472
vn -0.8228440903313144 0.0 -0.568267193322676
vn 0.5404491051359688 0.0 0.8413767079957292
vn 0.6477279840513532 0.0 0.7618716812408568
vn -0.6477279840513532 0.0 -0.7618716812408568
vn -0.5404491051359688 0.0 -0.8413767079957292
vn 0.3065277112198063 0.0 0.9518617348409103
vn 0.42847028663024883 0.0 0.9035558718059401
vn -0.42847028663024883 0.0 -0.9035558718059401
vn -0.3065277112198063 0.0 -0.9518617348409103
usemtl material_0_0
f 1//1 2//2 3//3
f 2//2 1//1 4//4
f 5//5 6//6 7//7
f 8//8 7//7 6//6
f 9//9 1//1 3//3
f 1//1 9//9 10//10
f 11//11 12//12 6//6
f 8//8 6//6 12//12
f 4//4 13//13 2//2
f 13//13 4//4 14//14
f 15//15 5//5 16//16
f 7//7 16//16 5//5
f 17//17 18//17 19//17
f 18//17 17//17 20//17
f 18//17 20//17 21//17
f 21//17 20//17 22//17
f 22//17 20//17 23//17
f 23//17 20//17 24//17
f 23//17 24//17 25//17
f 25//17 24//17 26//17
f 26//17 24//17 27//17
f 26//17 27//17 28//17
f 28//17 27//17 29//17
f 29//17 27//17 30//17
f 29//17 30//17 31//17
f 31//17 30//17 32//17
f 32//17 30//17 33//17
f 33//17 30//17 34//17
f 33//17 34//17 35//17
f 35//17 34//17 36//17
f 36//17 34//17 37//17
f 37//17 34//17 38//17
f 37//17 38//17 39//17
f 37//17 39//17 40//17
f 40//17 39//17 41//17
f 40//17 41//17 42//17
f 42//17 41//17 43//17
f 44//17 45//17 46//17
f 45//17 44//17 47//17
f 45//17 47//17 48//17
f 48//17 47//17 49//17
f 48//17 49//17 50//17
f 50//17 49//17 51//17
f 51//17 49//17 17//17
f 51//17 17//17 19//17
f 51//17 19//17 52//17
f 52//17 19//17 53//17
f 52//17 53//17 54//17
f 52//17 54//17 55//17
f 55//17 54//17 56//17
f 55//17 56//17 57//17
f 55//17 57//17 58//17
f 55//17 58//17 59//17
f 59//17 58//17 60//17
f 59//17 60//17 61//17
f 59//17 61//17 62//17
f 62//17 61//17 63//17
f 62//17 63//17 64//17
f 62//17 64//17 36//17
f 36//17 64//17 65//17
f 36//17 65//17 66//17
f 36//17 66//17 35//17
f 67//18 68//18 69//18
f 68//18 70//18 69//18
f 70//18 71//18 69//18
f 69//18 71//18 72//18
f 71//18 73//18 72//18
f 73//18 74//18 72//18
f 72//18 74//18 75//18
f 74//18 76//18 75//18
f 76//18 77//18 75//18
f 75//18 77//18 78//18
f 77//18 79//18 78//18
f 79//18 80//18 78//18
f 80//18 81//18 78//18
f 78//18 81//18 82//18
f 81//18 83//18 82//18
f 83//18 84//18 82//18
f 82//18 84//18 85//18
f 84//18 86//18 85//18
f 86//18 87//18 85//18
f 85//18 87//18 88//18
f 88//18 87//18 89//18
f 87//18 90//18 89//18
f 89//18 90//18 91//18
f 90//18 92//18 91//18
f 93//18 91//18 92//18
f 94//18 95//18 96//18
f 96//18 95//18 97//18
f 95//18 98//18 97//18
f 97//18 98//18 99//18
f 98//18 100//18 99//18
f 100//18 101//18 99//18
f 99//18 101//18 69//18
f 69//18 101//18 67//18
f 67//18 101//18 102//18
f 101//18 103//18 102//18
f 102//18 103//18 104//18
f 104//18 103//18 105//18
f 105//18 103//18 106//18
f 103//18 107//18 106//18
f 106//18 107//18 108//18
f 108//18 107//18 109//18
f 107//18 110//18 109//18
f 109//18 110//18 111//18
f 111//18 110//18 112//18
f 110//18 113//18 112//18
f 112//18 113//18 114//18
f 114//18 113//18 115//18
f 115//18 113//18 116//18
f 113//18 86//18 116//18
f 84//18 116//18 86//18
f 117//19 10//10 9//9
f 10//10 117//19 118//20
f 119//21 120//22 11//11
f 12//12 11//11 120//22
f 14//14 121//23 13//13
f 121//23 14//14 122//24
f 123//25 15//15 124//26
f 16//16 124//26 15//15
f 125//27 126//28 127//26
f 126//28 125//27 128//29
f 129//30 130//31 131//32
f 132//23 131//32 130//31
f 126//28 133//33 134//34
f 133//33 126//28 128//29
f 129//30 131//32 135//35
f 136//36 135//35 131//32
f 133//33 137//37 134//34
f 137//37 133//33 138//38
f 139//39 135//35 140//40
f 136//36 140//40 135//35
f 141//41 142//42 143//43
f 142//42 141//41 138//38
f 138//38 141//41 137//37
f 140//40 144//44 139//39
f 139//39 144//44 145//45
f 146//46 145//45 144//44
f 143//43 147//47 148//48
f 147//47 143//43 142//42
f 145//45 146//46 149//49
f 150//50 149//49 146//46
f 151//51 152//52 153//53
f 152//52 151//51 148//48
f 152//52 148//48 147//47
f 149//49 150//50 154//54
f 150//50 155//55 154//54
f 156//56 154//54 155//55
f 117//19 157//57 118//20
f 157//57 117//19 151//51
f 157//57 151//51 153//53
f 156//56 155//55 158//58
f 155//55 120//22 158//58
f 119//21 158//58 120//22
f 121//23 159//59 160//32
f 159//59 121//23 122//24
f 123//25 124//26 161//60
f 162//28 161//60 124//26
f 159//59 163//36 160//32
f 163//36 159//59 164//61
f 165//62 161//60 166//34
f 162//28 166//34 161//60
f 164//61 167//40 163//36
f 167//40 164//61 168//63
f 168//63 164//61 169//64
f 169//64 164//61 170//64
f 170//64 164//61 171//64
f 172//65 165//62 173//65
f 173//65 165//62 174//65
f 174//65 165//62 175//66
f 175//66 165//62 176//37
f 166//34 176//37 165//62
f 177//44 167//40 168//63
f 167//40 177//44 178//44
f 178//44 177//44 179//44
f 178//44 179//44 180//46
f 180//46 179//44 181//67
f 182//68 183//41 184//43
f 184//43 183//41 185//41
f 183//41 186//41 185//41
f 185//41 186//41 176//37
f 175//66 176//37 186//41
f 187//69 180//46 181//67
f 180//46 187//69 188//50
f 188//50 187//69 189//70
f 190//71 191//72 192//48
f 192//48 191//72 184//43
f 182//68 184//43 191//72
f 189//70 193//55 188//50
f 193//55 189//70 194//54
f 193//55 194//54 195//73
f 196//74 197//52 198//51
f 197//52 190//71 198//51
f 192//48 198//51 190//71
f 199//75 193//55 195//73
f 193//55 199//75 200//22
f 201//19 202//76 198//51
f 196//74 198//51 202//76
f 203//77 200//22 199//75
f 200//22 203//77 204//12
f 204//12 203//77 205//78
f 206//79 207//80 208//9
f 208//9 207//80 201//19
f 202//76 201//19 207//80
f 209//81 204//12 205//78
f 204//12 209//81 210//8
f 210//8 209//81 211//81
f 210//8 211//81 212//82
f 213//83 214//84 215//3
f 214//84 216//84 215//3
f 215//3 216//84 208//9
f 206//79 208//9 216//84
f 212//82 217//7 210//8
f 217//7 212//82 218//85
f 218//85 212//82 219//86
f 218//85 219//86 220//86
f 218//85 220//86 221//86
f 222//87 223//87 224//88
f 223//87 225//87 224//88
f 225//87 213//83 224//88
f 224//88 213//83 226//2
f 215//3 226//2 213//83
f 218//85 227//16 217//7
f 227//16 218//85 228//89
f 228//89 218//85 229//90
f 230//91 224//88 231//92
f 231//92 224//88 232//13
f 226//2 232//13 224//88
f 228//89 127//26 227//16
f 127//26 228//89 125//27
f 130//31 231//92 132//23
f 232//13 132//23 231//92
