# SSTK version 0.8.0
# 27
mtllib original-27.mtl
o #ID137
v 0.003552 -0.044238 -0.861517
v 0.003552 -0.044158 -0.867234
v 0.003929 -0.044198 -0.864375
v 0.002449 -0.044275 -0.858854
v 0.002449 -0.044121 -0.869897
v 0.000694 -0.044089 -0.872184
v 0.000694 -0.044307 -0.856566
v -0.001593 -0.044065 -0.873939
v -0.001593 -0.044332 -0.854811
v -0.004257 -0.044347 -0.853708
v -0.004257 -0.044049 -0.875043
v -0.007115 -0.044353 -0.853332
v -0.007115 -0.044044 -0.875419
v -0.009973 -0.044347 -0.853708
v -0.009973 -0.044049 -0.875043
v -0.012637 -0.044065 -0.873939
v -0.012637 -0.044332 -0.854811
v -0.014924 -0.044089 -0.872184
v -0.014924 -0.044307 -0.856566
v -0.016679 -0.044121 -0.869897
v -0.016679 -0.044275 -0.858854
v -0.017782 -0.044238 -0.861517
v -0.017782 -0.044158 -0.867234
v -0.018159 -0.044198 -0.864375
v -0.018159 -0.044198 -0.864375
v -0.017782 -0.044238 -0.861517
v -0.017782 -0.044158 -0.867234
v -0.016679 -0.044121 -0.869897
v -0.016679 -0.044275 -0.858854
v -0.014924 -0.044307 -0.856566
v -0.014924 -0.044089 -0.872184
v -0.012637 -0.044332 -0.854811
v -0.012637 -0.044065 -0.873939
v -0.009973 -0.044347 -0.853708
v -0.009973 -0.044049 -0.875043
v -0.007115 -0.044044 -0.875419
v -0.007115 -0.044353 -0.853332
v -0.004257 -0.044049 -0.875043
v -0.004257 -0.044347 -0.853708
v -0.001593 -0.044065 -0.873939
v -0.001593 -0.044332 -0.854811
v 0.000694 -0.044307 -0.856566
v 0.000694 -0.044089 -0.872184
v 0.002449 -0.044275 -0.858854
v 0.002449 -0.044121 -0.869897
v 0.003552 -0.044158 -0.867234
v 0.003552 -0.044238 -0.861517
v 0.003929 -0.044198 -0.864375
vn 0.0 -0.9999025240093585 -0.013962180335255687
vn 0.0 0.9999025240093585 0.013962180335255687
usemtl material_0_0
f 1//1 2//1 3//1
f 2//1 1//1 4//1
f 2//1 4//1 5//1
f 5//1 4//1 6//1
f 6//1 4//1 7//1
f 6//1 7//1 8//1
f 8//1 7//1 9//1
f 8//1 9//1 10//1
f 8//1 10//1 11//1
f 11//1 10//1 12//1
f 11//1 12//1 13//1
f 13//1 12//1 14//1
f 13//1 14//1 15//1
f 15//1 14//1 16//1
f 16//1 14//1 17//1
f 16//1 17//1 18//1
f 18//1 17//1 19//1
f 18//1 19//1 20//1
f 20//1 19//1 21//1
f 20//1 21//1 22//1
f 20//1 22//1 23//1
f 23//1 22//1 24//1
f 25//2 26//2 27//2
f 27//2 26//2 28//2
f 26//2 29//2 28//2
f 29//2 30//2 28//2
f 28//2 30//2 31//2
f 30//2 32//2 31//2
f 31//2 32//2 33//2
f 32//2 34//2 33//2
f 33//2 34//2 35//2
f 35//2 34//2 36//2
f 34//2 37//2 36//2
f 36//2 37//2 38//2
f 37//2 39//2 38//2
f 38//2 39//2 40//2
f 39//2 41//2 40//2
f 41//2 42//2 40//2
f 40//2 42//2 43//2
f 42//2 44//2 43//2
f 43//2 44//2 45//2
f 45//2 44//2 46//2
f 44//2 47//2 46//2
f 48//2 46//2 47//2
