# SSTK version 0.8.0
# 31
mtllib original-31.mtl
o #ID156
v -0.014914 0.014588 -0.856605
v -0.012631 -0.007781 -0.854854
v -0.014914 -0.007781 -0.856605
v -0.012631 0.014588 -0.854854
v -0.012631 0.014588 -0.854854
v -0.014914 0.014588 -0.856605
v -0.012631 -0.007781 -0.854854
v -0.014914 -0.007781 -0.856605
v -0.009973 -0.007781 -0.853753
v -0.009973 0.014588 -0.853753
v -0.009973 0.014588 -0.853753
v -0.009973 -0.007781 -0.853753
v -0.016665 -0.007781 -0.858888
v -0.016665 0.014588 -0.858888
v -0.016665 -0.007781 -0.858888
v -0.016665 0.014588 -0.858888
v -0.007121 -0.007781 -0.853378
v -0.007121 0.014588 -0.853378
v -0.007121 0.014588 -0.853378
v -0.007121 -0.007781 -0.853378
v -0.017766 -0.007781 -0.861546
v -0.017766 0.014588 -0.861546
v -0.017766 -0.007781 -0.861546
v -0.017766 0.014588 -0.861546
v -0.004269 -0.007781 -0.853753
v -0.004269 0.014588 -0.853753
v -0.004269 0.014588 -0.853753
v -0.004269 -0.007781 -0.853753
v -0.018141 -0.007781 -0.864398
v -0.018141 0.014588 -0.864398
v -0.018141 -0.007781 -0.864398
v -0.018141 0.014588 -0.864398
v -0.001611 -0.007781 -0.854854
v -0.001611 0.014588 -0.854854
v -0.001611 0.014588 -0.854854
v -0.001611 -0.007781 -0.854854
v -0.017766 -0.007781 -0.86725
v -0.017766 0.014588 -0.86725
v -0.017766 -0.007781 -0.86725
v -0.017766 0.014588 -0.86725
v 0.000671 -0.007781 -0.856605
v 0.000671 0.014588 -0.856605
v 0.000671 0.014588 -0.856605
v 0.000671 -0.007781 -0.856605
v -0.016665 -0.007781 -0.869908
v -0.016665 0.014588 -0.869908
v -0.016665 -0.007781 -0.869908
v -0.016665 0.014588 -0.869908
v 0.002423 0.014588 -0.858888
v 0.002423 -0.007781 -0.858888
v 0.002423 0.014588 -0.858888
v 0.002423 -0.007781 -0.858888
v -0.014914 -0.007781 -0.87219
v -0.014914 0.014588 -0.87219
v -0.014914 -0.007781 -0.87219
v -0.014914 0.014588 -0.87219
v 0.003524 0.014588 -0.861546
v 0.003524 -0.007781 -0.861546
v 0.003524 0.014588 -0.861546
v 0.003524 -0.007781 -0.861546
v -0.012631 0.014588 -0.873942
v -0.012631 -0.007781 -0.873942
v -0.012631 0.014588 -0.873942
v -0.012631 -0.007781 -0.873942
v 0.003899 0.014588 -0.864398
v 0.003899 -0.007781 -0.864398
v 0.003899 0.014588 -0.864398
v 0.003899 -0.007781 -0.864398
v -0.009973 0.014588 -0.875043
v -0.009973 -0.007781 -0.875043
v -0.009973 0.014588 -0.875043
v -0.009973 -0.007781 -0.875043
v 0.003524 0.014588 -0.86725
v 0.003524 -0.007781 -0.86725
v 0.003524 0.014588 -0.86725
v 0.003524 -0.007781 -0.86725
v -0.007121 0.014588 -0.875418
v -0.007121 -0.007781 -0.875418
v -0.007121 0.014588 -0.875418
v -0.007121 -0.007781 -0.875418
v 0.002423 0.014588 -0.869908
v 0.002423 -0.007781 -0.869908
v 0.002423 0.014588 -0.869908
v 0.002423 -0.007781 -0.869908
v -0.004269 0.014588 -0.875043
v -0.004269 -0.007781 -0.875043
v -0.004269 0.014588 -0.875043
v -0.004269 -0.007781 -0.875043
v 0.000671 0.014588 -0.87219
v 0.000671 -0.007781 -0.87219
v 0.000671 0.014588 -0.87219
v 0.000671 -0.007781 -0.87219
v -0.001611 0.014588 -0.873942
v -0.001611 -0.007781 -0.873942
v -0.001611 0.014588 -0.873942
v -0.001611 -0.007781 -0.873942
vn 0.7071067811865477 0.0 -0.7071067811865474
vn 0.5000000016387103 0.0 -0.866025402838329
vn -0.5000000016387103 0.0 0.866025402838329
vn -0.7071067811865477 0.0 0.7071067811865474
vn 0.2588190095935618 0.0 -0.9659258358036644
vn -0.2588190095935618 0.0 0.9659258358036644
vn 0.8660254028383292 0.0 -0.50000000163871
vn -0.8660254028383292 0.0 0.50000000163871
vn 0.0 0.0 -1.0
vn 0.0 0.0 1.0
vn 0.9659258358036645 0.0 -0.25881900959356147
vn -0.9659258358036645 0.0 0.25881900959356147
vn -0.25881900959356147 0.0 -0.9659258358036645
vn 0.25881900959356147 0.0 0.9659258358036645
vn 1.0 0.0 0.0
vn -1.0 0.0 0.0
vn -0.50000000163871 0.0 -0.8660254028383292
vn 0.50000000163871 0.0 0.8660254028383292
vn 0.9659258358036644 0.0 0.2588190095935618
vn -0.9659258358036644 0.0 -0.2588190095935618
vn -0.7071067811865474 0.0 -0.7071067811865477
vn 0.7071067811865474 0.0 0.7071067811865477
vn 0.866025402838329 0.0 0.5000000016387103
vn -0.866025402838329 0.0 -0.5000000016387103
usemtl material_0_0
f 1//1 2//2 3//1
f 2//2 1//1 4//2
f 5//3 6//4 7//3
f 8//4 7//3 6//4
f 4//2 9//5 2//2
f 9//5 4//2 10//5
f 11//6 5//3 12//6
f 7//3 12//6 5//3
f 1//1 13//7 14//7
f 13//7 1//1 3//1
f 8//4 6//4 15//8
f 16//8 15//8 6//4
f 10//5 17//9 9//5
f 17//9 10//5 18//9
f 19//10 11//6 20//10
f 12//6 20//10 11//6
f 14//7 21//11 22//11
f 21//11 14//7 13//7
f 15//8 16//8 23//12
f 24//12 23//12 16//8
f 18//9 25//13 17//9
f 25//13 18//9 26//13
f 27//14 19//10 28//14
f 20//10 28//14 19//10
f 22//11 29//15 30//15
f 29//15 22//11 21//11
f 23//12 24//12 31//16
f 32//16 31//16 24//12
f 26//13 33//17 25//13
f 33//17 26//13 34//17
f 35//18 27//14 36//18
f 28//14 36//18 27//14
f 30//15 37//19 38//19
f 37//19 30//15 29//15
f 31//16 32//16 39//20
f 40//20 39//20 32//16
f 34//17 41//21 33//17
f 41//21 34//17 42//21
f 43//22 35//18 44//22
f 36//18 44//22 35//18
f 38//19 45//23 46//23
f 45//23 38//19 37//19
f 39//20 40//20 47//24
f 48//24 47//24 40//20
f 41//21 49//24 50//24
f 49//24 41//21 42//21
f 43//22 44//22 51//23
f 52//23 51//23 44//22
f 46//23 53//22 54//22
f 53//22 46//23 45//23
f 47//24 48//24 55//21
f 56//21 55//21 48//24
f 50//24 57//20 58//20
f 57//20 50//24 49//24
f 51//23 52//23 59//19
f 60//19 59//19 52//23
f 61//18 53//22 62//18
f 53//22 61//18 54//22
f 56//21 63//17 55//21
f 64//17 55//21 63//17
f 58//20 65//16 66//16
f 65//16 58//20 57//20
f 59//19 60//19 67//15
f 68//15 67//15 60//19
f 69//14 62//18 70//14
f 62//18 69//14 61//18
f 63//17 71//13 64//17
f 72//13 64//17 71//13
f 66//16 73//12 74//12
f 73//12 66//16 65//16
f 67//15 68//15 75//11
f 76//11 75//11 68//15
f 77//10 70//14 78//10
f 70//14 77//10 69//14
f 71//13 79//9 72//13
f 80//9 72//13 79//9
f 74//12 81//8 82//8
f 81//8 74//12 73//12
f 75//11 76//11 83//7
f 84//7 83//7 76//11
f 85//6 78//10 86//6
f 78//10 85//6 77//10
f 79//9 87//5 80//9
f 88//5 80//9 87//5
f 82//8 89//4 90//4
f 89//4 82//8 81//8
f 83//7 84//7 91//1
f 92//1 91//1 84//7
f 93//3 86//6 94//3
f 86//6 93//3 85//6
f 87//5 95//2 88//5
f 96//2 88//5 95//2
f 89//4 94//3 90//4
f 94//3 89//4 93//3
f 95//2 91//1 96//2
f 92//1 96//2 91//1
