# SSTK version 0.8.0
# 41
mtllib original-41.mtl
o #ID213
v -0.005735 0.059241 0.093052
v -0.004772 0.024148 0.087018
v -0.004772 0.059241 0.087018
v -0.005735 0.024148 0.093052
v -0.005735 0.024148 0.093052
v -0.005735 0.059241 0.093052
v -0.004772 0.024148 0.087018
v -0.004772 0.059241 0.087018
v -0.005103 0.059241 0.099129
v -0.005103 0.024148 0.099129
v -0.005103 0.024148 0.099129
v -0.005103 0.059241 0.099129
v -0.00228 0.024148 0.081439
v -0.00228 0.059241 0.081439
v -0.00228 0.024148 0.081439
v -0.00228 0.059241 0.081439
v -0.00292 0.059241 0.104836
v -0.00292 0.024148 0.104836
v -0.00292 0.024148 0.104836
v -0.00292 0.059241 0.104836
v 0.001571 0.024148 0.076695
v 0.001571 0.059241 0.076695
v 0.001571 0.024148 0.076695
v 0.001571 0.059241 0.076695
v 0.000665 0.059241 0.109784
v 0.000665 0.024148 0.109784
v 0.000665 0.024148 0.109784
v 0.000665 0.059241 0.109784
v 0.006518 0.059241 0.073109
v 0.006518 0.024148 0.073109
v 0.006518 0.059241 0.073109
v 0.006518 0.024148 0.073109
v 0.005409 0.024148 0.113635
v 0.005409 0.059241 0.113635
v 0.005409 0.059241 0.113635
v 0.005409 0.024148 0.113635
v 0.012225 0.059241 0.070926
v 0.012225 0.024148 0.070926
v 0.012225 0.059241 0.070926
v 0.012225 0.024148 0.070926
v 0.010988 0.024148 0.116126
v 0.010988 0.059241 0.116126
v 0.010988 0.059241 0.116126
v 0.010988 0.024148 0.116126
v 0.018302 0.059241 0.070294
v 0.018302 0.024148 0.070294
v 0.018302 0.059241 0.070294
v 0.018302 0.024148 0.070294
v 0.017022 0.024148 0.117089
v 0.017022 0.059241 0.117089
v 0.017022 0.059241 0.117089
v 0.017022 0.024148 0.117089
v 0.024336 0.059241 0.071257
v 0.024336 0.024148 0.071257
v 0.024336 0.059241 0.071257
v 0.024336 0.024148 0.071257
v 0.0231 0.024148 0.116457
v 0.0231 0.059241 0.116457
v 0.0231 0.059241 0.116457
v 0.0231 0.024148 0.116457
v 0.029915 0.059241 0.073749
v 0.029915 0.024148 0.073749
v 0.029915 0.059241 0.073749
v 0.029915 0.024148 0.073749
v 0.028807 0.024148 0.114274
v 0.028807 0.059241 0.114274
v 0.028807 0.059241 0.114274
v 0.028807 0.024148 0.114274
v 0.034659 0.059241 0.0776
v 0.034659 0.024148 0.0776
v 0.034659 0.059241 0.0776
v 0.034659 0.024148 0.0776
v 0.033754 0.024148 0.110689
v 0.033754 0.059241 0.110689
v 0.033754 0.059241 0.110689
v 0.033754 0.024148 0.110689
v 0.038245 0.024148 0.082548
v 0.038245 0.059241 0.082548
v 0.038245 0.059241 0.082548
v 0.038245 0.024148 0.082548
v 0.037605 0.059241 0.105945
v 0.037605 0.024148 0.105945
v 0.037605 0.059241 0.105945
v 0.037605 0.024148 0.105945
v 0.040428 0.024148 0.088254
v 0.040428 0.059241 0.088254
v 0.040428 0.059241 0.088254
v 0.040428 0.024148 0.088254
v 0.040097 0.059241 0.100366
v 0.040097 0.024148 0.100366
v 0.040097 0.059241 0.100366
v 0.040097 0.024148 0.100366
v 0.04106 0.024148 0.094332
v 0.04106 0.059241 0.094332
v 0.04106 0.059241 0.094332
v 0.04106 0.024148 0.094332
vn 0.9996260684507368 0.0 0.027344529136977765
vn 0.9584873692403388 0.0 0.28513499084948246
vn -0.9996260684507368 0.0 -0.027344529136977765
vn -0.9584873692403388 0.0 -0.28513499084948246
vn 0.9726419148688452 0.0 -0.23230950355133148
vn -0.9726419148688452 0.0 0.23230950355133148
vn 0.8520292996620424 0.0 0.5234940997923563
vn -0.8520292996620424 0.0 -0.5234940997923563
vn 0.8793738169057683 0.0 -0.476132009153533
vn -0.8793738169057683 0.0 0.476132009153533
vn 0.6875068725010937 0.0 0.7261778709543311
vn -0.6875068725010937 0.0 -0.7261778709543311
vn 0.7261778709543311 0.0 -0.6875068725010937
vn -0.7261778709543311 0.0 0.6875068725010937
vn 0.476132009153533 0.0 0.8793738169057683
vn -0.476132009153533 0.0 -0.8793738169057683
vn 0.5234940997923563 0.0 -0.8520292996620424
vn -0.5234940997923563 0.0 0.8520292996620424
vn 0.23230950355133148 0.0 0.9726419148688452
vn -0.23230950355133148 0.0 -0.9726419148688452
vn 0.28513499084948246 0.0 -0.9584873692403388
vn -0.28513499084948246 0.0 0.9584873692403388
vn -0.027344529136977765 0.0 0.9996260684507368
vn 0.027344529136977765 0.0 -0.9996260684507368
usemtl material_0_0
f 1//1 2//2 3//2
f 2//2 1//1 4//1
f 5//3 6//3 7//4
f 8//4 7//4 6//3
f 9//5 4//1 1//1
f 4//1 9//5 10//5
f 11//6 12//6 5//3
f 6//3 5//3 12//6
f 3//2 13//7 14//7
f 13//7 3//2 2//2
f 7//4 8//4 15//8
f 16//8 15//8 8//4
f 17//9 10//5 9//5
f 10//5 17//9 18//9
f 19//10 20//10 11//6
f 12//6 11//6 20//10
f 14//7 21//11 22//11
f 21//11 14//7 13//7
f 15//8 16//8 23//12
f 24//12 23//12 16//8
f 25//13 18//9 17//9
f 18//9 25//13 26//13
f 27//14 28//14 19//10
f 20//10 19//10 28//14
f 29//15 21//11 30//15
f 21//11 29//15 22//11
f 24//12 31//16 23//12
f 32//16 23//12 31//16
f 25//13 33//17 26//13
f 33//17 25//13 34//17
f 35//18 28//14 36//18
f 27//14 36//18 28//14
f 37//19 30//15 38//19
f 30//15 37//19 29//15
f 31//16 39//20 32//16
f 40//20 32//16 39//20
f 34//17 41//21 33//17
f 41//21 34//17 42//21
f 43//22 35//18 44//22
f 36//18 44//22 35//18
f 45//23 38//19 46//23
f 38//19 45//23 37//19
f 39//20 47//24 40//20
f 48//24 40//20 47//24
f 42//21 49//24 41//21
f 49//24 42//21 50//24
f 51//23 43//22 52//23
f 44//22 52//23 43//22
f 53//22 46//23 54//22
f 46//23 53//22 45//23
f 47//24 55//21 48//24
f 56//21 48//24 55//21
f 50//24 57//20 49//24
f 57//20 50//24 58//20
f 59//19 51//23 60//19
f 52//23 60//19 51//23
f 61//18 54//22 62//18
f 54//22 61//18 53//22
f 55//21 63//17 56//21
f 64//17 56//21 63//17
f 58//20 65//16 57//20
f 65//16 58//20 66//16
f 67//15 59//19 68//15
f 60//19 68//15 59//19
f 69//14 62//18 70//14
f 62//18 69//14 61//18
f 63//17 71//13 64//17
f 72//13 64//17 71//13
f 66//16 73//12 65//16
f 73//12 66//16 74//12
f 75//11 67//15 76//11
f 68//15 76//11 67//15
f 77//10 69//14 70//14
f 69//14 77//10 78//10
f 79//9 80//9 71//13
f 72//13 71//13 80//9
f 73//12 81//8 82//8
f 81//8 73//12 74//12
f 75//11 76//11 83//7
f 84//7 83//7 76//11
f 85//6 78//10 77//10
f 78//10 85//6 86//6
f 87//5 88//5 79//9
f 80//9 79//9 88//5
f 82//8 89//4 90//4
f 89//4 82//8 81//8
f 83//7 84//7 91//2
f 92//2 91//2 84//7
f 93//3 86//6 85//6
f 86//6 93//3 94//3
f 95//1 96//1 87//5
f 88//5 87//5 96//1
f 90//4 94//3 93//3
f 94//3 90//4 89//4
f 91//2 92//2 95//1
f 96//1 95//1 92//2
