mtllib new-0.mtl
v -0.444166 -0.831968 -0.399269
v -0.420148 -0.831968 0.297258
v -0.444166 -0.831968 0.297258
v 0.444507 -0.831968 0.297258
v 0.468526 -0.831968 0.297258
v 0.444507 -0.831968 0.321277
v 0.468526 -0.831968 0.321277
v -0.444166 -0.831968 0.321277
v 0.468526 -0.831968 0.369313
v -0.444166 -0.831968 0.369313
vn 0.000000 -1.000000 0.000000
vn 0.000000 1.000000 0.000000
usemtl material-0
f 1//1 2//1 3//1
f 4//1 1//1 5//1
f 6//1 2//1 4//1
f 9//1 8//1 7//1
f 8//1 9//1 10//1
usemtl material-1
f 3//2 2//2 1//2
f 5//2 1//2 4//2
f 4//2 2//2 6//2
f 7//2 8//2 9//2
f 10//2 9//2 8//2