# SSTK version 0.8.0
# 11
mtllib original-11.mtl
o Group10/mesh22/mesh22-geometry#mesh22-geometry
v -0.002385 -0.212481 -0.391313
v -0.555904 -0.212481 0.368172
v -0.002385 -0.212481 0.368172
v -0.555904 -0.212481 -0.391313
v -0.031588 -0.241683 0.368172
v -0.002385 -0.504200 0.368172
v -0.031588 -0.241683 -0.391313
v -0.555904 -0.504200 -0.391313
v -0.526702 -0.241683 0.368172
v -0.002385 -0.504200 -0.391313
v -0.031588 -0.474998 -0.391313
v -0.526702 -0.241683 -0.391313
v -0.555904 -0.504200 0.368172
v -0.031588 -0.474998 0.368172
v -0.526702 -0.474998 0.368172
v -0.526702 -0.474998 -0.391313
vn 0 1 0
vn 0 -1 0
vn 0 0 1
vn 0 0 -1
vn 1 0 0
vn -1 0 0
usemtl material_0_0
f 1//1 2//1 3//1
f 2//1 1//1 4//1
f 3//2 2//2 1//2
f 4//2 1//2 2//2
f 5//3 3//3 2//3
f 2//4 3//4 5//4
f 6//5 1//5 3//5
f 3//6 1//6 6//6
f 1//4 7//4 4//4
f 4//3 7//3 1//3
f 8//6 2//6 4//6
f 4//5 2//5 8//5
f 3//3 5//3 6//3
f 6//4 5//4 3//4
f 5//3 2//3 9//3
f 9//4 2//4 5//4
f 1//5 6//5 10//5
f 10//6 6//6 1//6
f 7//4 1//4 11//4
f 11//3 1//3 7//3
f 4//4 7//4 12//4
f 12//3 7//3 4//3
f 2//6 8//6 13//6
f 13//5 8//5 2//5
f 4//4 12//4 8//4
f 8//3 12//3 4//3
f 14//3 6//3 5//3
f 5//4 6//4 14//4
f 9//3 2//3 15//3
f 15//4 2//4 9//4
f 12//2 5//2 9//2
f 9//1 5//1 12//1
f 6//2 8//2 10//2
f 10//1 8//1 6//1
f 10//4 11//4 1//4
f 1//3 11//3 10//3
f 11//6 5//6 7//6
f 7//5 5//5 11//5
f 16//4 7//4 11//4
f 11//3 7//3 16//3
f 5//2 12//2 7//2
f 7//1 12//1 5//1
f 7//4 16//4 12//4
f 12//3 16//3 7//3
f 8//2 6//2 13//2
f 13//1 6//1 8//1
f 13//3 15//3 2//3
f 2//4 15//4 13//4
f 16//4 8//4 12//4
f 12//3 8//3 16//3
f 6//3 14//3 13//3
f 13//4 14//4 6//4
f 5//6 11//6 14//6
f 14//5 11//5 5//5
f 15//5 12//5 9//5
f 9//6 12//6 15//6
f 11//4 10//4 8//4
f 8//3 10//3 11//3
f 11//4 8//4 16//4
f 16//3 8//3 11//3
f 15//1 11//1 16//1
f 16//2 11//2 15//2
f 12//5 15//5 16//5
f 16//6 15//6 12//6
f 13//3 14//3 15//3
f 15//4 14//4 13//4
f 11//1 15//1 14//1
f 14//2 15//2 11//2
