# SSTK version 0.8.0
# 12
mtllib original-12.mtl
o Group11/mesh25/mesh25-geometry#mesh25-geometry
v -0.001705 0.245295 -0.391313
v -0.554545 0.245295 0.368172
v -0.001705 0.245295 0.368172
v -0.554545 0.245295 -0.391313
v -0.031255 0.215746 0.368172
v -0.001705 -0.212481 0.368172
v -0.031255 0.215746 -0.391313
v -0.554545 -0.212481 0.368172
v -0.524996 0.215746 0.368172
v -0.001705 -0.212481 -0.391313
v -0.031255 -0.182932 -0.391313
v -0.524996 0.215746 -0.391313
v -0.554545 -0.212481 -0.391313
v -0.524996 -0.182932 0.368172
v -0.031255 -0.182932 0.368172
v -0.524996 -0.182932 -0.391313
vn 0 1 0
vn 0 0 1
vn 1 0 0
vn 0 0 -1
vn -1 0 0
vn 0 -1 0
usemtl material_0_0
f 1//1 2//1 3//1
f 2//1 1//1 4//1
f 5//2 3//2 2//2
f 6//3 1//3 3//3
f 1//4 7//4 4//4
f 4//5 8//5 2//5
f 3//2 5//2 6//2
f 5//2 2//2 9//2
f 1//3 6//3 10//3
f 7//4 1//4 11//4
f 4//4 7//4 12//4
f 8//5 4//5 13//5
f 8//2 14//2 2//2
f 15//2 6//2 5//2
f 9//2 2//2 14//2
f 9//6 7//6 5//6
f 8//6 10//6 6//6
f 10//4 11//4 1//4
f 15//5 7//5 11//5
f 16//4 7//4 11//4
f 7//6 9//6 12//6
f 7//4 16//4 12//4
f 4//4 12//4 13//4
f 10//6 8//6 13//6
f 8//2 15//2 14//2
f 6//2 15//2 8//2
f 7//5 15//5 5//5
f 14//3 12//3 9//3
f 11//4 10//4 13//4
f 11//1 14//1 15//1
f 14//1 11//1 16//1
f 11//4 13//4 16//4
f 12//3 14//3 16//3
f 16//4 13//4 12//4
usemtl material_1_0
f 3//6 2//6 1//6
f 4//6 1//6 2//6
f 2//4 3//4 5//4
f 3//5 1//5 6//5
f 4//2 7//2 1//2
f 2//3 8//3 4//3
f 6//4 5//4 3//4
f 9//4 2//4 5//4
f 10//5 6//5 1//5
f 11//2 1//2 7//2
f 12//2 7//2 4//2
f 13//3 4//3 8//3
f 2//4 14//4 8//4
f 5//4 6//4 15//4
f 14//4 2//4 9//4
f 5//1 7//1 9//1
f 6//1 10//1 8//1
f 1//2 11//2 10//2
f 11//3 7//3 15//3
f 11//2 7//2 16//2
f 12//1 9//1 7//1
f 12//2 16//2 7//2
f 13//2 12//2 4//2
f 13//1 8//1 10//1
f 14//4 15//4 8//4
f 8//4 15//4 6//4
f 5//3 15//3 7//3
f 9//5 12//5 14//5
f 13//2 10//2 11//2
f 15//6 14//6 11//6
f 16//6 11//6 14//6
f 16//2 13//2 11//2
f 16//5 14//5 12//5
f 12//2 13//2 16//2
