# SSTK version 0.8.0
# 148
mtllib original-148.mtl
o mesh126/mesh126-geometry/material_2/component_1#mesh126-geometry
v 0.469236 0.357771 0.398415
v 0.469236 0.364874 0.397803
v 0.469236 0.364551 0.396599
v 0.469236 0.364874 0.397803
v 0.467321 0.365405 0.396370
v 0.469236 0.364551 0.396599
v 0.469236 0.364874 0.397803
v 0.469236 0.357771 0.398415
v 0.469236 0.358093 0.399620
v 0.467321 0.365405 0.396370
v 0.469236 0.364874 0.397803
v 0.467321 0.365728 0.397574
v 0.469236 0.358093 0.399620
v 0.467321 0.365728 0.397574
v 0.469236 0.364874 0.397803
v 0.467321 0.365728 0.397574
v 0.464569 0.366366 0.396112
v 0.467321 0.365405 0.396370
v 0.469236 0.358093 0.399620
v 0.464569 0.366689 0.397316
v 0.467321 0.365728 0.397574
v 0.464569 0.366366 0.396112
v 0.467321 0.365728 0.397574
v 0.464569 0.366689 0.397316
v 0.469236 0.358093 0.399620
v 0.461672 0.367450 0.397113
v 0.464569 0.366689 0.397316
v 0.452462 0.358093 0.399620
v 0.455582 0.368334 0.396876
v 0.469236 0.358093 0.399620
v 0.464569 0.366689 0.397316
v 0.461672 0.367127 0.395908
v 0.464569 0.366366 0.396112
v 0.469236 0.358093 0.399620
v 0.458664 0.368000 0.396965
v 0.461672 0.367450 0.397113
v 0.461672 0.367127 0.395908
v 0.464569 0.366689 0.397316
v 0.461672 0.367450 0.397113
v 0.455582 0.368334 0.396876
v 0.452462 0.358093 0.399620
v 0.452462 0.368445 0.396846
v 0.469236 0.358093 0.399620
v 0.455582 0.368334 0.396876
v 0.458664 0.368000 0.396965
v 0.458664 0.367678 0.395761
v 0.461672 0.367450 0.397113
v 0.458664 0.368000 0.396965
v 0.461672 0.367450 0.397113
v 0.458664 0.367678 0.395761
v 0.461672 0.367127 0.395908
v 0.452462 0.368123 0.395642
v 0.455582 0.368334 0.396876
v 0.452462 0.368445 0.396846
v 0.455582 0.368011 0.395671
v 0.458664 0.368000 0.396965
v 0.455582 0.368334 0.396876
v 0.458664 0.368000 0.396965
v 0.455582 0.368011 0.395671
v 0.458664 0.367678 0.395761
v 0.455582 0.368334 0.396876
v 0.452462 0.368123 0.395642
v 0.455582 0.368011 0.395671
v 0.469236 0.364551 0.396599
v 0.469236 0.364874 0.397803
v 0.469236 0.357771 0.398415
v 0.469236 0.364551 0.396599
v 0.467321 0.365405 0.396370
v 0.469236 0.364874 0.397803
v 0.469236 0.358093 0.399620
v 0.469236 0.357771 0.398415
v 0.469236 0.364874 0.397803
v 0.467321 0.365728 0.397574
v 0.469236 0.364874 0.397803
v 0.467321 0.365405 0.396370
v 0.469236 0.364874 0.397803
v 0.467321 0.365728 0.397574
v 0.469236 0.358093 0.399620
v 0.467321 0.365405 0.396370
v 0.464569 0.366366 0.396112
v 0.467321 0.365728 0.397574
v 0.467321 0.365728 0.397574
v 0.464569 0.366689 0.397316
v 0.469236 0.358093 0.399620
v 0.464569 0.366689 0.397316
v 0.467321 0.365728 0.397574
v 0.464569 0.366366 0.396112
v 0.464569 0.366689 0.397316
v 0.461672 0.367450 0.397113
v 0.469236 0.358093 0.399620
v 0.469236 0.358093 0.399620
v 0.455582 0.368334 0.396876
v 0.452462 0.358093 0.399620
v 0.464569 0.366366 0.396112
v 0.461672 0.367127 0.395908
v 0.464569 0.366689 0.397316
v 0.461672 0.367450 0.397113
v 0.458664 0.368000 0.396965
v 0.469236 0.358093 0.399620
v 0.461672 0.367450 0.397113
v 0.464569 0.366689 0.397316
v 0.461672 0.367127 0.395908
v 0.452462 0.368445 0.396846
v 0.452462 0.358093 0.399620
v 0.455582 0.368334 0.396876
v 0.458664 0.368000 0.396965
v 0.455582 0.368334 0.396876
v 0.469236 0.358093 0.399620
v 0.458664 0.368000 0.396965
v 0.461672 0.367450 0.397113
v 0.458664 0.367678 0.395761
v 0.461672 0.367127 0.395908
v 0.458664 0.367678 0.395761
v 0.461672 0.367450 0.397113
v 0.452462 0.368445 0.396846
v 0.455582 0.368334 0.396876
v 0.452462 0.368123 0.395642
v 0.455582 0.368334 0.396876
v 0.458664 0.368000 0.396965
v 0.455582 0.368011 0.395671
v 0.458664 0.367678 0.395761
v 0.455582 0.368011 0.395671
v 0.458664 0.368000 0.396965
v 0.455582 0.368011 0.395671
v 0.452462 0.368123 0.395642
v 0.455582 0.368334 0.396876
vt 0 0
vn -1 0 0
vn -0.4645079639910519 -0.8553939449230361 0.22920198598156452
vn -0.4227131855048307 -0.8753833797817654 0.23455809771187253
vn 0 -0.25881897461707354 -0.9659258451755843
vn -0.3378429437930686 -0.9091318501400941 0.24360095317974959
vn -0.2530521361268778 -0.9344875018229721 0.2503951384078466
vn -0.16849704588250772 -0.9521152802335948 0.255118087705618
vn -0.04202398705637137 -0.965072658247537 0.25858992403981734
vn -0.08417805065794023 -0.9624975672792837 0.25790015271203287
vn 1 0 0
vn 0.4645079639910519 0.8553939449230361 -0.22920198598156452
vn 0.4227131855048307 0.8753833797817654 -0.23455809771187253
vn 0 0.25881897461707354 0.9659258451755843
vn 0.3378429437930686 0.9091318501400941 -0.24360095317974959
vn 0.2530521361268778 0.9344875018229721 -0.2503951384078466
vn 0.16849704588250772 0.9521152802335948 -0.255118087705618
vn 0.04202398705637137 0.965072658247537 -0.25858992403981734
vn 0.08417805065794023 0.9624975672792837 -0.25790015271203287
usemtl material_0_0
f 1/1/1 2/1/1 3/1/1
f 4/1/2 5/1/3 6/1/2
f 7/1/1 8/1/1 9/1/1
f 10/1/3 11/1/2 12/1/3
f 13/1/4 14/1/4 15/1/4
f 16/1/3 17/1/5 18/1/3
f 19/1/4 20/1/4 21/1/4
f 22/1/5 23/1/3 24/1/5
f 25/1/4 26/1/4 27/1/4
f 28/1/4 29/1/4 30/1/4
f 31/1/5 32/1/6 33/1/5
f 34/1/4 35/1/4 36/1/4
f 37/1/6 38/1/5 39/1/6
f 40/1/4 41/1/4 42/1/4
f 43/1/4 44/1/4 45/1/4
f 46/1/7 47/1/6 48/1/7
f 49/1/6 50/1/7 51/1/6
f 52/1/8 53/1/9 54/1/8
f 55/1/9 56/1/7 57/1/9
f 58/1/7 59/1/9 60/1/7
f 61/1/9 62/1/8 63/1/9
usemtl material_1_0
f 64/1/10 65/1/10 66/1/10
f 67/1/11 68/1/12 69/1/11
f 70/1/10 71/1/10 72/1/10
f 73/1/12 74/1/11 75/1/12
f 76/1/13 77/1/13 78/1/13
f 79/1/12 80/1/14 81/1/12
f 82/1/13 83/1/13 84/1/13
f 85/1/14 86/1/12 87/1/14
f 88/1/13 89/1/13 90/1/13
f 91/1/13 92/1/13 93/1/13
f 94/1/14 95/1/15 96/1/14
f 97/1/13 98/1/13 99/1/13
f 100/1/15 101/1/14 102/1/15
f 103/1/13 104/1/13 105/1/13
f 106/1/13 107/1/13 108/1/13
f 109/1/16 110/1/15 111/1/16
f 112/1/15 113/1/16 114/1/15
f 115/1/17 116/1/18 117/1/17
f 118/1/18 119/1/16 120/1/18
f 121/1/16 122/1/18 123/1/16
f 124/1/18 125/1/17 126/1/18
