# SSTK version 0.8.0
# 17
mtllib original-17.mtl
o skruetopp_enkel_1_2/skruetopp_enkel_1/mesh9/mesh9-geometry#mesh9-geometry
v 0.652295 0.078165 -0.239063
v 0.659184 0.082489 -0.224393
v 0.658833 0.078165 -0.223613
v 0.654561 0.082489 -0.235319
v 0.659184 0.073804 -0.224393
v 0.663232 0.082489 -0.226106
v 0.653405 0.082489 -0.234830
v 0.654561 0.073804 -0.235319
v 0.658608 0.082489 -0.237031
v 0.658608 0.094352 -0.237031
v 0.658028 0.082489 -0.223904
v 0.654561 0.094352 -0.235319
v 0.658608 0.073804 -0.237031
v 0.658028 0.073804 -0.223904
v 0.652008 0.073832 -0.238936
v 0.653405 0.094352 -0.234830
v 0.652358 0.082505 -0.239091
v 0.663232 0.073804 -0.226106
v 0.654561 0.061941 -0.235319
v 0.653405 0.073804 -0.234830
v 0.652358 0.094940 -0.239091
v 0.658608 0.061941 -0.237031
v 0.653405 0.061941 -0.234830
v 0.652008 0.061397 -0.238936
v 0.651177 0.094352 -0.243317
v 0.651177 0.073804 -0.243317
v 0.651177 0.082489 -0.243317
v 0.651177 0.061941 -0.243317
v 0.655224 0.094352 -0.245029
v 0.650021 0.094352 -0.242828
v 0.655224 0.061941 -0.245029
v 0.650021 0.073804 -0.242828
v 0.645757 0.078165 -0.254514
v 0.655224 0.082489 -0.245029
v 0.650021 0.082489 -0.242828
v 0.655224 0.073804 -0.245029
v 0.645398 0.073804 -0.253753
v 0.650021 0.061941 -0.242828
v 0.646554 0.082489 -0.254242
v 0.650601 0.082489 -0.255955
v 0.645398 0.082489 -0.253753
v 0.650601 0.073804 -0.255955
v 0.646554 0.073804 -0.254242
vt -0.002709 -0.002606
vt -0.012786 0.000112
vt -0.013148 -0.002606
vt -0.005404 0.000112
vt 0.012786 0.00546
vt 0.002709 0.002719
vt 0.013148 0.002719
vt -0.005404 0.000781
vt -0.012786 0.003516
vt -0.012786 0.000781
vt 0.005404 0
vt 0.012786 0.000781
vt 0.005404 0.000781
vt 0.005404 0.00546
vt -0.005404 0.003516
vt -0.009041 0.000781
vt 0.001399 0.003516
vt -0.009041 0.003516
vt 0.012786 0
vt -0.007382 0.000781
vt 0 0
vt 0 0.000781
vt 0.005404 0.003516
vt -0.012786 0
vt -0.003409 0.001763
vt -0.006835 0.003506
vt -0.005968 0.000891
vt 0.007382 0.000781
vt 0 0.003516
vt -0.005404 0
vt -0.005404 0.007382
vt -0.009041 0
vt -0.007382 0
vt 0.00001 0.002741
vt 0.007382 0.005459
vt 0 0.005459
vt 0.012786 0.003516
vt -0.00522 0.000781
vt 0.00522 0
vt 0.00522 0.000781
vt -0.012786 0.005446
vt -0.005387 0.002691
vt -0.005404 0.005446
vt 0.007382 0.003516
vt 0.001399 0
vt 0.001399 0.000781
vt 0.007748 0.002741
vt -0.00522 0.003516
vt 0.00522 0.003516
vt -0.005404 -0.012786
vt -0.005404 -0.005404
vt -0.012786 -0.005404
vt -0.00522 0
vt -0.013124 0.002691
vt -0.00001 -0.002631
vt -0.007382 0.0001
vt -0.007748 -0.002631
vt 0.013124 -0.002609
vt 0.005404 0.000165
vt 0.005387 -0.002609
vt 0 0.0001
vt 0.012786 0.000165
vt -0.000338 -0.002609
vt 0.002343 -0.002939
vt -0.007382 0.003516
vt 0.007731 -0.002606
vt 0 0.000112
vt -0.001399 0
vt 0.009041 0.000781
vt 0.009041 0.003516
vt 0.007382 0
vt 0.007382 0.000112
vt 0 0.00546
vt -0.007731 0.002719
vt 0 0.007382
vt 0.007382 -0.005404
vt 0 -0.005404
vt 0 -0.012786
vt 0.009041 0
vt -0.001399 0.000781
vt -0.007382 0.00546
vt -0.001399 0.003516
vn 0.911388731303704 -0.1436650169983545 -0.3856565095308093
vn -0.911388731303704 0.1436650169983545 0.3856565095308093
vn 0.9115486200952906 0.14246396133984063 -0.3857241668883762
vn -0.9115486200952906 -0.14246396133984063 0.3857241668883762
vn 0 -1 0
vn 0 1 0
vn -0.27555891341016686 -0.707106688902895 -0.6512045882431979
vn 0.3896991017182988 0 0.9209422403820725
vn -0.3896991017182988 0 -0.9209422403820725
vn -0.14913121483300285 0.9238797185220143 -0.3524289239919394
vn 0.8147040155346633 -0.0708479765575407 -0.575532736939783
vn -0.8147040155346633 0.0708479765575407 0.575532736939783
vn 0.9209422403820725 0 -0.38969910171829897
vn -0.9209422403820725 0 0.38969910171829897
vn 0.8634603287863807 0 -0.5044167529058836
vn -0.8634603287863807 0 0.5044167529058836
vn -0.2755589134101671 0.7071066889028956 -0.6512045882431969
vn 0.8170145984791829 0 -0.5766169836831895
vn -0.8170145984791829 0 0.5766169836831895
vn 0.9631137578907312 0 -0.2690945732667126
vn -0.9631137578907312 0 0.2690945732667126
vn 0.9824658126016995 0 -0.18644282520087038
vn -0.9824658126016995 0 0.18644282520087038
vn 0.9630127250765175 -0.01555998969037174 -0.2690062788515077
vn -0.9630127250765175 0.01555998969037174 0.2690062788515077
vn 0.14913121483300246 0.923879718522014 0.3524289239919405
vn 0.3419046158937122 0.47984110001242947 0.807993658619568
vn -0.3419046158937122 -0.47984110001242947 -0.807993658619568
vn -0.14913121483300246 -0.923879718522014 -0.3524289239919405
vn 0.27555891341016686 0.707106688902895 0.6512045882431979
vn 0.2755589134101671 -0.7071066889028956 0.6512045882431969
vn 0.14913121483300285 -0.9238797185220143 0.3524289239919394
usemtl material_0_0
f 1/1/1 2/2/1 3/3/1
f 2/2/1 1/1/1 4/4/1
f 3/3/2 2/2/2 1/1/2
f 4/4/2 1/1/2 2/2/2
f 5/5/3 1/6/3 3/7/3
f 3/7/4 1/6/4 5/5/4
f 4/8/5 6/9/5 2/10/5
f 2/10/6 6/9/6 4/8/6
f 7/11/6 2/12/6 4/13/6
f 4/13/5 2/12/5 7/11/5
f 1/6/3 5/5/3 8/14/3
f 8/14/4 5/5/4 1/6/4
f 6/9/5 4/8/5 9/15/5
f 9/15/6 4/8/6 6/9/6
f 2/16/7 10/17/7 6/18/7
f 2/12/6 7/11/6 11/19/6
f 11/19/5 7/11/5 2/12/5
f 12/20/8 7/21/8 4/22/8
f 4/22/9 7/21/9 12/20/9
f 5/12/10 13/23/6 8/13/6
f 14/24/5 8/8/5 5/10/5
f 5/10/6 8/8/6 14/24/6
f 1/25/11 8/26/11 15/27/11
f 15/27/12 8/26/12 1/25/12
f 12/28/9 9/29/9 4/22/9
f 4/22/8 9/29/8 12/28/8
f 9/30/13 10/31/13 6/24/13
f 6/24/14 10/31/14 9/30/14
f 10/17/7 2/16/7 11/32/7
f 16/31/13 11/24/13 7/30/13
f 7/30/14 11/24/14 16/31/14
f 7/21/8 12/20/8 16/33/8
f 16/33/9 12/20/9 7/21/9
f 17/34/15 12/35/15 4/36/15
f 4/36/16 12/35/16 17/34/16
f 13/23/6 5/12/10 18/37/10
f 13/15/9 19/10/9 8/8/9
f 8/8/8 19/10/8 13/15/8
f 8/8/5 14/24/5 20/30/5
f 20/30/6 14/24/6 8/8/6
f 19/38/17 14/39/17 5/40/10
f 19/41/18 15/42/18 8/43/18
f 8/43/19 15/42/19 19/41/19
f 9/29/9 12/28/9 10/44/9
f 10/44/8 12/28/8 9/29/8
f 10/17/7 11/32/7 16/45/7
f 10/17/7 16/45/7 12/46/7
f 12/35/15 17/34/15 21/47/15
f 21/47/16 17/34/16 12/35/16
f 22/48/17 5/40/10 18/49/10
f 22/50/13 13/51/13 18/52/13
f 18/52/14 13/51/14 22/50/14
f 19/10/9 13/15/9 22/9/9
f 22/9/8 13/15/8 19/10/8
f 8/13/8 23/19/8 19/12/8
f 19/12/9 23/19/9 8/13/9
f 23/50/13 20/51/13 14/52/13
f 14/52/14 20/51/14 23/50/14
f 23/19/8 8/13/8 20/11/8
f 20/11/9 8/13/9 23/19/9
f 14/39/17 19/38/17 23/53/17
f 19/38/17 5/40/10 22/48/17
f 15/42/18 19/41/18 24/54/18
f 24/54/19 19/41/19 15/42/19
f 17/55/20 25/56/20 21/57/20
f 21/57/21 25/56/21 17/55/21
f 24/58/22 26/59/22 15/60/22
f 15/60/23 26/59/23 24/58/23
f 25/56/20 17/55/20 27/61/20
f 27/61/21 17/55/21 25/56/21
f 26/59/22 24/58/22 28/62/22
f 28/62/23 24/58/23 26/59/23
f 27/61/24 17/63/24 1/64/24
f 1/64/25 17/63/25 27/61/25
f 27/22/8 29/65/26 25/20/27
f 25/20/28 29/65/29 27/22/9
f 30/33/26 27/22/8 25/20/27
f 25/20/28 27/22/9 30/33/29
f 31/37/8 26/13/8 28/12/8
f 28/12/9 26/13/9 31/37/9
f 28/10/9 32/30/9 26/8/9
f 26/8/8 32/30/8 28/10/8
f 33/66/1 27/67/1 1/1/1
f 1/1/2 27/67/2 33/66/2
f 29/65/26 27/22/8 34/29/8
f 34/29/9 27/22/9 29/65/29
f 29/49/26 30/39/26 25/40/27
f 25/40/28 30/39/29 29/49/29
f 27/22/8 30/33/26 35/21/8
f 35/21/9 30/33/29 27/22/9
f 26/13/8 31/37/8 36/23/8
f 36/23/9 31/37/9 26/13/9
f 37/68/30 28/69/30 31/70/30
f 32/30/9 28/10/9 38/24/9
f 38/24/8 28/10/8 32/30/8
f 37/71/5 26/22/5 32/21/5
f 32/21/6 26/22/6 37/71/6
f 27/67/1 33/66/1 39/72/1
f 39/72/2 33/66/2 27/67/2
f 26/73/3 33/74/3 1/6/3
f 1/6/4 33/74/4 26/73/4
f 39/28/5 34/29/5 27/22/5
f 27/22/6 34/29/6 39/28/6
f 40/71/13 29/75/13 34/21/13
f 34/21/14 29/75/14 40/71/14
f 39/38/17 30/39/26 29/49/26
f 29/49/29 30/39/29 39/38/31
f 41/33/14 35/21/14 30/75/14
f 30/75/13 35/21/13 41/33/13
f 41/71/5 27/22/5 35/21/5
f 35/21/6 27/22/6 41/71/6
f 42/76/13 36/77/13 31/78/13
f 31/78/14 36/77/14 42/76/14
f 36/29/6 43/20/6 26/22/6
f 26/22/5 43/20/5 36/29/5
f 28/69/30 37/68/30 38/79/30
f 37/68/30 31/70/30 43/80/30
f 37/76/13 32/77/13 38/78/13
f 38/78/14 32/77/14 37/76/14
f 26/22/5 37/71/5 43/28/5
f 43/28/6 37/71/6 26/22/6
f 27/22/5 41/71/5 39/28/5
f 39/28/6 41/71/6 27/22/6
f 33/74/3 26/73/3 43/81/3
f 43/81/4 26/73/4 33/74/4
f 34/29/5 39/28/5 40/44/5
f 40/44/6 39/28/6 34/29/6
f 29/49/26 40/48/17 39/38/17
f 39/38/31 40/48/31 29/49/29
f 30/39/26 39/38/17 41/53/17
f 41/53/31 39/38/31 30/39/29
f 43/20/6 36/29/6 42/65/6
f 42/65/5 36/29/5 43/20/5
f 43/80/30 31/70/30 42/82/30
usemtl material_1_0
f 6//30 10//30 2//30
f 8//5 13//5 5//32
f 11//30 2//30 10//30
f 18//32 5//32 13//5
f 5//32 14//31 19//31
f 16//30 11//30 10//30
f 12//30 16//30 10//30
f 18//32 5//32 22//31
f 23//31 19//31 14//31
f 22//31 5//32 19//31
f 31//7 28//7 37//7
f 38//7 37//7 28//7
f 43//7 31//7 37//7
f 42//7 31//7 43//7
