# SSTK version 0.8.0
# 6
mtllib original-6.mtl
o side_draw_right1/side_draw_right/mesh10/mesh10-geometry#mesh10-geometry
v -0.576118 -0.026714 -0.202476
v -0.556843 -0.026714 0.316928
v -0.576118 -0.026714 0.316928
v -0.556843 -0.026714 -0.202476
v -0.566988 -0.023671 0.316928
v -0.576118 -0.008454 0.316928
v -0.556843 -0.023671 -0.202476
v -0.556843 -0.023671 0.316928
v -0.566988 -0.013526 0.316928
v -0.576118 -0.006425 -0.202476
v -0.566988 -0.023671 -0.202476
v -0.566988 -0.013526 -0.202476
v -0.576118 0.001690 0.316928
v -0.556843 -0.013526 0.316928
v -0.576118 0.006763 0.337217
v -0.576118 0.029081 -0.202476
v -0.556843 -0.006425 -0.202476
v -0.556843 -0.008454 0.316928
v -0.556843 -0.013526 -0.202476
v -0.576118 -0.013526 0.337217
v -0.556843 0.001690 0.316928
v -0.576118 0.034153 -0.222765
v -0.576118 0.018936 0.316928
v -0.576118 -0.011498 -0.222765
v -0.556843 -0.013526 0.337217
v -0.556843 0.006763 0.337217
v -0.556843 0.034153 -0.222765
v -0.576118 0.029081 0.316928
v -0.556843 -0.011498 -0.222765
v -0.556843 0.018936 0.316928
v -0.556843 0.029081 -0.202476
v -0.576118 0.034153 0.337217
v -0.576118 0.039225 0.316928
v -0.556843 0.013864 0.337217
v -0.556843 0.039225 -0.202476
v -0.576118 0.013864 0.337217
v -0.556843 0.029081 0.316928
v -0.576118 0.039225 -0.202476
v -0.556843 0.034153 0.337217
v -0.556843 0.039225 0.316928
vt -0.535862 0.025306
vt -0.020145 0
vt -0.020145 0.025306
vt -0.535862 0
vt 0 0
vt -0.010073 0.003996
vt -0.019138 0
vt -0.020145 0.023974
vt 0.019138 0
vt 0 0.003996
vt 0.535862 0.003996
vt 0.020145 0
vt 0.535862 0
vt -0.010073 0.017315
vt -0.535862 0.026638
vt -0.019138 0.023974
vt 0.010073 0.003996
vt 0.020145 0.003996
vt 0.020145 0.013319
vt 0.535862 0.017315
vt 0.020145 0.017315
vt -0.020145 0.037294
vt 0.010073 0.017315
vt 0.019138 0.026638
vt 0 0.017315
vt 0.535862 0.013319
vt -0.535862 0.013319
vt -0.020145 0.013319
vt 0 0.043953
vt -0.535862 0.073255
vt 0 0.026638
vt 0 0.023974
vt 0.019138 0.01066
vt 0 -0.016798
vt 0.019138 -0.016798
vt -0.556007 0.079915
vt -0.020145 0.059936
vt -0.019138 -0.708418
vt 0 -0.68096
vt -0.019138 -0.68096
vt 0.535862 0.026638
vt 0.020145 0.023974
vt 0 0.004199
vt 0.019138 0.031658
vt 0 0.031658
vt 0.019138 0.004199
vt -0.019138 0.043953
vt -0.019138 0.017315
vt 0 0.01066
vt 0 0.037294
vt -0.019138 0.059936
vt -0.019138 0.037294
vt -0.556007 0.019979
vt -0.019138 0.705188
vt 0 0.732646
vt -0.019138 0.732646
vt -0.020145 0.073255
vt 0 -0.708418
vt 0.020145 0.037294
vt 0 0.059936
vt 0 0.079915
vt 0.019138 0.019979
vt 0.019138 0.079915
vt 0 0.705188
vt -0.020145 0.086574
vt 0 0.019979
vt 0.556007 0.079915
vt 0.556007 0.019979
vt 0.535862 0.073255
vt 0.020145 0.059936
vt 0 0.012921
vt 0.019138 0.04038
vt 0 0.04038
vt 0.019138 0.073255
vt 0 0.086574
vt 0 0.073255
vt 0 0.053276
vt 0.019138 0.019382
vt 0 -0.008076
vt 0.019138 -0.008076
vt -0.535862 0.086574
vt -0.019138 0.086574
vt -0.019138 0.073255
vt 0.020145 0.073255
vt 0.019138 0.012921
vt 0.019138 0.086574
vt 0.535862 0.086574
vt -0.019138 0.079915
vt -0.019138 0.053276
vt 0 0.019382
vt 0.020145 0.025306
vt 0.535862 0.025306
vt 0.020145 0.086574
vn 0 -1 0
vn 0 1 0
vn 0 0 1
vn 0 0 -1
vn -1 0 0
vn 1 0 0
vn 0 0.9701424413218079 -0.24253586033030777
vn 0 -0.9701424413218079 0.24253586033030777
vn 0 -0.9701424413218079 -0.24253586033030822
vn 0 0.9701424413218079 0.24253586033030822
usemtl material_0_0
f 1/1/1 2/2/1 3/3/1
f 2/2/1 1/1/1 4/4/1
f 3/3/2 2/2/2 1/1/2
f 4/4/2 1/1/2 2/2/2
f 2/5/3 5/6/3 3/7/3
f 3/7/4 5/6/4 2/5/4
f 6/8/5 1/4/5 3/2/5
f 3/2/6 1/4/6 6/8/6
f 1/9/4 7/10/4 4/5/4
f 4/5/3 7/10/3 1/9/3
f 7/11/6 2/12/6 4/13/6
f 4/13/5 2/12/5 7/11/5
f 5/6/3 2/5/3 8/10/3
f 8/10/4 2/5/4 5/6/4
f 3/7/3 5/6/3 9/14/3
f 9/14/4 5/6/4 3/7/4
f 1/4/5 6/8/5 10/15/5
f 10/15/6 6/8/6 1/4/6
f 3/7/3 9/14/3 6/16/3
f 6/16/4 9/14/4 3/7/4
f 7/10/4 1/9/4 11/17/4
f 11/17/3 1/9/3 7/10/3
f 2/12/6 7/11/6 8/18/6
f 8/18/5 7/11/5 2/12/5
f 7/13/2 5/19/2 8/12/2
f 8/12/1 5/19/1 7/13/1
f 5/18/6 12/20/6 9/21/6
f 9/21/5 12/20/5 5/18/5
f 6/8/5 13/22/5 10/15/5
f 10/15/6 13/22/6 6/8/6
f 12/23/4 1/9/4 10/24/4
f 10/24/3 1/9/3 12/23/3
f 14/25/3 6/16/3 9/14/3
f 9/14/4 6/16/4 14/25/4
f 11/17/4 1/9/4 12/23/4
f 12/23/3 1/9/3 11/17/3
f 5/19/2 7/13/2 11/26/2
f 11/26/1 7/13/1 5/19/1
f 12/20/6 5/18/6 11/11/6
f 11/11/5 5/18/5 12/20/5
f 12/27/1 14/2/1 9/28/1
f 9/28/2 14/2/2 12/27/2
f 6/8/5 15/29/5 13/22/5
f 13/22/6 15/29/6 6/8/6
f 16/30/5 10/15/5 13/22/5
f 13/22/6 10/15/6 16/30/6
f 17/31/4 12/23/4 10/24/4
f 10/24/3 12/23/3 17/31/3
f 6/16/3 14/25/3 18/32/3
f 18/32/4 14/25/4 6/16/4
f 14/2/1 12/27/1 19/4/1
f 19/4/2 12/27/2 14/2/2
f 15/29/5 6/8/5 20/25/5
f 20/25/6 6/8/6 15/29/6
f 15/33/7 21/34/7 13/35/7
f 13/35/8 21/34/8 15/33/8
f 22/36/5 10/15/5 16/30/5
f 16/30/6 10/15/6 22/36/6
f 16/30/5 13/22/5 23/37/5
f 23/37/6 13/22/6 16/30/6
f 12/23/4 17/31/4 19/25/4
f 19/25/3 17/31/3 12/23/3
f 24/38/8 17/39/8 10/40/8
f 10/40/7 17/39/7 24/38/7
f 14/21/6 17/41/6 18/42/6
f 18/42/5 17/41/5 14/21/5
f 25/43/9 6/44/9 18/45/9
f 18/45/10 6/44/10 25/43/10
f 17/41/6 14/21/6 19/20/6
f 19/20/5 14/21/5 17/41/5
f 6/44/9 25/43/9 20/46/9
f 20/46/10 25/43/10 6/44/10
f 25/25/3 15/47/3 20/48/3
f 20/48/4 15/47/4 25/25/4
f 21/34/7 15/33/7 26/49/7
f 26/49/8 15/33/8 21/34/8
f 21/50/3 23/51/3 13/52/3
f 13/52/4 23/51/4 21/50/4
f 10/15/5 22/36/5 24/53/5
f 24/53/6 22/36/6 10/15/6
f 16/54/10 27/55/10 22/56/10
f 22/56/9 27/55/9 16/54/9
f 16/30/5 23/37/5 28/57/5
f 28/57/6 23/37/6 16/30/6
f 17/39/8 24/38/8 29/58/8
f 29/58/7 24/38/7 17/39/7
f 21/59/6 18/42/6 17/41/6
f 17/41/5 18/42/5 21/59/5
f 18/42/6 26/29/6 25/25/6
f 25/25/5 26/29/5 18/42/5
f 15/47/3 25/25/3 26/29/3
f 26/29/4 25/25/4 15/47/4
f 26/29/6 18/42/6 21/59/6
f 21/59/5 18/42/5 26/29/5
f 23/51/3 21/50/3 30/60/3
f 30/60/4 21/50/4 23/51/4
f 27/61/4 24/62/4 22/63/4
f 22/63/3 24/62/3 27/61/3
f 27/55/10 16/54/10 31/64/10
f 31/64/9 16/54/9 27/55/9
f 23/37/5 32/61/5 28/57/5
f 28/57/6 32/61/6 23/37/6
f 33/65/5 16/30/5 28/57/5
f 28/57/6 16/30/6 33/65/6
f 24/62/4 27/61/4 29/66/4
f 29/66/3 27/61/3 24/62/3
f 27/67/6 17/41/6 29/68/6
f 29/68/5 17/41/5 27/67/5
f 17/41/6 31/69/6 21/59/6
f 21/59/5 31/69/5 17/41/5
f 21/59/6 31/69/6 30/70/6
f 30/70/5 31/69/5 21/59/5
f 34/71/9 23/72/9 30/73/9
f 30/73/10 23/72/10 34/71/10
f 16/74/4 35/75/4 31/76/4
f 31/76/3 35/75/3 16/74/3
f 17/41/6 27/67/6 31/69/6
f 31/69/5 27/67/5 17/41/5
f 32/61/5 23/37/5 36/77/5
f 36/77/6 23/37/6 32/61/6
f 32/78/7 37/79/7 28/80/7
f 28/80/8 37/79/8 32/78/8
f 16/30/5 33/65/5 38/81/5
f 38/81/6 33/65/6 16/30/6
f 37/76/3 33/82/3 28/83/3
f 28/83/4 33/82/4 37/76/4
f 37/84/6 30/70/6 31/69/6
f 31/69/5 30/70/5 37/84/5
f 23/72/9 34/71/9 36/85/9
f 36/85/10 34/71/10 23/72/10
f 30/70/6 39/61/6 34/77/6
f 34/77/5 39/61/5 30/70/5
f 35/75/4 16/74/4 38/86/4
f 38/86/3 16/74/3 35/75/3
f 35/87/6 37/84/6 31/69/6
f 31/69/5 37/84/5 35/87/5
f 34/77/3 32/88/3 36/89/3
f 36/89/4 32/88/4 34/77/4
f 37/79/7 32/78/7 39/90/7
f 39/90/8 32/78/8 37/79/8
f 33/91/2 35/13/2 38/92/2
f 38/92/1 35/13/1 33/91/1
f 33/82/3 37/76/3 40/75/3
f 40/75/4 37/76/4 33/82/4
f 39/61/6 30/70/6 37/84/6
f 37/84/5 30/70/5 39/61/5
f 32/88/3 34/77/3 39/61/3
f 39/61/4 34/77/4 32/88/4
f 37/84/6 35/87/6 40/93/6
f 40/93/5 35/87/5 37/84/5
f 35/13/2 33/91/2 40/12/2
f 40/12/1 33/91/1 35/13/1
