# SSTK version 0.8.0
# 252
mtllib original-252.mtl
o Group12/mesh111/mesh111-geometry/material_0#mesh111-geometry
v 0.282136 0.294993 0.822609
v 0.369625 0.244241 0.800133
v 0.282136 0.295389 0.801058
v 0.369625 0.244241 0.800133
v 0.282136 0.294993 0.822609
v 0.369625 0.243844 0.821683
v 0.282136 0.295389 0.801058
v 0.184400 0.321765 0.823137
v 0.282136 0.294993 0.822609
v 0.369625 0.243844 0.821683
v 0.440886 0.172186 0.798811
v 0.369625 0.244241 0.800133
v 0.184400 0.321765 0.823137
v 0.282136 0.295389 0.801058
v 0.184400 0.322162 0.801521
v 0.440886 0.172186 0.798811
v 0.369625 0.243844 0.821683
v 0.440886 0.171790 0.820361
v 0.184400 0.322162 0.801521
v 0.083061 0.322344 0.823137
v 0.184400 0.321765 0.823137
v 0.491060 0.083755 0.818775
v 0.440886 0.172186 0.798811
v 0.440886 0.171790 0.820361
v 0.083061 0.322344 0.823137
v 0.184400 0.322162 0.801521
v 0.083061 0.322740 0.801521
v 0.440886 0.172186 0.798811
v 0.491060 0.083755 0.818775
v 0.491060 0.084151 0.797224
v 0.083061 0.322740 0.801521
v -0.014973 0.296662 0.822609
v 0.083061 0.322344 0.823137
v 0.516742 -0.014246 0.816990
v 0.491060 0.084151 0.797224
v 0.491060 0.083755 0.818775
v -0.014973 0.296662 0.822609
v 0.083061 0.322740 0.801521
v -0.014973 0.297058 0.801058
v 0.491060 0.084151 0.797224
v 0.516742 -0.014246 0.816990
v 0.516742 -0.013882 0.795440
v -0.014973 0.297058 0.801058
v -0.103024 0.246488 0.821683
v -0.014973 0.296662 0.822609
v 0.516180 -0.115584 0.815139
v 0.516742 -0.013882 0.795440
v 0.516742 -0.014246 0.816990
v 0.438242 -0.300777 0.811701
v 0.489407 -0.212924 0.791738
v 0.489407 -0.213320 0.813288
v -0.103024 0.246488 0.821683
v -0.014973 0.297058 0.801058
v -0.103024 0.246885 0.800133
v 0.516742 -0.013882 0.795440
v 0.516180 -0.115584 0.815139
v 0.516180 -0.115188 0.793522
v 0.489407 -0.213320 0.813288
v 0.516180 -0.115188 0.793522
v 0.516180 -0.115584 0.815139
v 0.489407 -0.212924 0.791738
v 0.438242 -0.300777 0.811701
v 0.438242 -0.300380 0.790151
v 0.516180 -0.115188 0.793522
v 0.489407 -0.213320 0.813288
v 0.489407 -0.212924 0.791738
v -0.175079 0.175640 0.798811
v -0.103024 0.246488 0.821683
v -0.103024 0.246885 0.800133
v 0.366188 -0.372038 0.810379
v 0.438242 -0.300380 0.790151
v 0.438242 -0.300777 0.811701
v -0.103024 0.246488 0.821683
v -0.175079 0.175640 0.798811
v -0.175079 0.175244 0.820361
v 0.438242 -0.300380 0.790151
v 0.366188 -0.372038 0.810379
v 0.366188 -0.371641 0.788829
v -0.226244 0.088184 0.797224
v -0.175079 0.175244 0.820361
v -0.175079 0.175640 0.798811
v 0.366188 -0.372038 0.810379
v 0.278136 -0.421815 0.787904
v 0.366188 -0.371641 0.788829
v -0.175079 0.175244 0.820361
v -0.226244 0.088184 0.797224
v -0.226244 0.087787 0.818775
v 0.278136 -0.421815 0.787904
v 0.366188 -0.372038 0.810379
v 0.278136 -0.422179 0.809454
v -0.253016 -0.009552 0.795440
v -0.226244 0.087787 0.818775
v -0.226244 0.088184 0.797224
v 0.278136 -0.422179 0.809454
v 0.180103 -0.447464 0.787441
v 0.278136 -0.421815 0.787904
v -0.226244 0.087787 0.818775
v -0.253016 -0.009552 0.795440
v -0.253016 -0.009949 0.816990
v 0.180103 -0.447464 0.787441
v 0.278136 -0.422179 0.809454
v 0.180103 -0.447860 0.808991
v -0.253578 -0.110891 0.793522
v -0.253016 -0.009949 0.816990
v -0.253016 -0.009552 0.795440
v -0.253578 -0.111288 0.815139
v -0.227896 -0.208891 0.791738
v -0.227896 -0.209288 0.813288
v -0.227896 -0.209288 0.813288
v -0.177723 -0.296943 0.790151
v -0.177723 -0.297340 0.811701
v 0.180103 -0.447860 0.808991
v 0.078764 -0.446902 0.787441
v 0.180103 -0.447464 0.787441
v -0.253016 -0.009949 0.816990
v -0.253578 -0.110891 0.793522
v -0.253578 -0.111288 0.815139
v -0.227896 -0.208891 0.791738
v -0.253578 -0.111288 0.815139
v -0.253578 -0.110891 0.793522
v -0.177723 -0.296943 0.790151
v -0.227896 -0.209288 0.813288
v -0.227896 -0.208891 0.791738
v -0.177723 -0.296943 0.790151
v -0.106462 -0.369361 0.810379
v -0.177723 -0.297340 0.811701
v 0.078764 -0.446902 0.787441
v 0.180103 -0.447860 0.808991
v 0.078764 -0.447298 0.808991
v -0.106462 -0.369361 0.810379
v -0.177723 -0.296943 0.790151
v -0.106462 -0.368964 0.788829
v 0.078764 -0.447298 0.808991
v -0.019005 -0.420129 0.787904
v 0.078764 -0.446902 0.787441
v -0.106462 -0.368964 0.788829
v -0.019005 -0.420526 0.809454
v -0.106462 -0.369361 0.810379
v -0.019005 -0.420129 0.787904
v 0.078764 -0.447298 0.808991
v -0.019005 -0.420526 0.809454
v -0.019005 -0.420526 0.809454
v -0.106462 -0.368964 0.788829
v -0.019005 -0.420129 0.787904
v 0.282136 0.295389 0.801058
v 0.369625 0.244241 0.800133
v 0.282136 0.294993 0.822609
v 0.369625 0.243844 0.821683
v 0.282136 0.294993 0.822609
v 0.369625 0.244241 0.800133
v 0.282136 0.294993 0.822609
v 0.184400 0.321765 0.823137
v 0.282136 0.295389 0.801058
v 0.369625 0.244241 0.800133
v 0.440886 0.172186 0.798811
v 0.369625 0.243844 0.821683
v 0.184400 0.322162 0.801521
v 0.282136 0.295389 0.801058
v 0.184400 0.321765 0.823137
v 0.440886 0.171790 0.820361
v 0.369625 0.243844 0.821683
v 0.440886 0.172186 0.798811
v 0.184400 0.321765 0.823137
v 0.083061 0.322344 0.823137
v 0.184400 0.322162 0.801521
v 0.440886 0.171790 0.820361
v 0.440886 0.172186 0.798811
v 0.491060 0.083755 0.818775
v 0.083061 0.322740 0.801521
v 0.184400 0.322162 0.801521
v 0.083061 0.322344 0.823137
v 0.491060 0.084151 0.797224
v 0.491060 0.083755 0.818775
v 0.440886 0.172186 0.798811
v 0.083061 0.322344 0.823137
v -0.014973 0.296662 0.822609
v 0.083061 0.322740 0.801521
v 0.491060 0.083755 0.818775
v 0.491060 0.084151 0.797224
v 0.516742 -0.014246 0.816990
v -0.014973 0.297058 0.801058
v 0.083061 0.322740 0.801521
v -0.014973 0.296662 0.822609
v 0.516742 -0.013882 0.795440
v 0.516742 -0.014246 0.816990
v 0.491060 0.084151 0.797224
v -0.014973 0.296662 0.822609
v -0.103024 0.246488 0.821683
v -0.014973 0.297058 0.801058
v 0.516742 -0.014246 0.816990
v 0.516742 -0.013882 0.795440
v 0.516180 -0.115584 0.815139
v 0.489407 -0.213320 0.813288
v 0.489407 -0.212924 0.791738
v 0.438242 -0.300777 0.811701
v -0.103024 0.246885 0.800133
v -0.014973 0.297058 0.801058
v -0.103024 0.246488 0.821683
v 0.516180 -0.115188 0.793522
v 0.516180 -0.115584 0.815139
v 0.516742 -0.013882 0.795440
v 0.516180 -0.115584 0.815139
v 0.516180 -0.115188 0.793522
v 0.489407 -0.213320 0.813288
v 0.438242 -0.300380 0.790151
v 0.438242 -0.300777 0.811701
v 0.489407 -0.212924 0.791738
v 0.489407 -0.212924 0.791738
v 0.489407 -0.213320 0.813288
v 0.516180 -0.115188 0.793522
v -0.103024 0.246885 0.800133
v -0.103024 0.246488 0.821683
v -0.175079 0.175640 0.798811
v 0.438242 -0.300777 0.811701
v 0.438242 -0.300380 0.790151
v 0.366188 -0.372038 0.810379
v -0.175079 0.175244 0.820361
v -0.175079 0.175640 0.798811
v -0.103024 0.246488 0.821683
v 0.366188 -0.371641 0.788829
v 0.366188 -0.372038 0.810379
v 0.438242 -0.300380 0.790151
v -0.175079 0.175640 0.798811
v -0.175079 0.175244 0.820361
v -0.226244 0.088184 0.797224
v 0.366188 -0.371641 0.788829
v 0.278136 -0.421815 0.787904
v 0.366188 -0.372038 0.810379
v -0.226244 0.087787 0.818775
v -0.226244 0.088184 0.797224
v -0.175079 0.175244 0.820361
v 0.278136 -0.422179 0.809454
v 0.366188 -0.372038 0.810379
v 0.278136 -0.421815 0.787904
v -0.226244 0.088184 0.797224
v -0.226244 0.087787 0.818775
v -0.253016 -0.009552 0.795440
v 0.278136 -0.421815 0.787904
v 0.180103 -0.447464 0.787441
v 0.278136 -0.422179 0.809454
v -0.253016 -0.009949 0.816990
v -0.253016 -0.009552 0.795440
v -0.226244 0.087787 0.818775
v 0.180103 -0.447860 0.808991
v 0.278136 -0.422179 0.809454
v 0.180103 -0.447464 0.787441
v -0.253016 -0.009552 0.795440
v -0.253016 -0.009949 0.816990
v -0.253578 -0.110891 0.793522
v -0.227896 -0.209288 0.813288
v -0.227896 -0.208891 0.791738
v -0.253578 -0.111288 0.815139
v -0.177723 -0.297340 0.811701
v -0.177723 -0.296943 0.790151
v -0.227896 -0.209288 0.813288
v 0.180103 -0.447464 0.787441
v 0.078764 -0.446902 0.787441
v 0.180103 -0.447860 0.808991
v -0.253578 -0.111288 0.815139
v -0.253578 -0.110891 0.793522
v -0.253016 -0.009949 0.816990
v -0.253578 -0.110891 0.793522
v -0.253578 -0.111288 0.815139
v -0.227896 -0.208891 0.791738
v -0.227896 -0.208891 0.791738
v -0.227896 -0.209288 0.813288
v -0.177723 -0.296943 0.790151
v -0.177723 -0.297340 0.811701
v -0.106462 -0.369361 0.810379
v -0.177723 -0.296943 0.790151
v 0.078764 -0.447298 0.808991
v 0.180103 -0.447860 0.808991
v 0.078764 -0.446902 0.787441
v -0.106462 -0.368964 0.788829
v -0.177723 -0.296943 0.790151
v -0.106462 -0.369361 0.810379
v 0.078764 -0.446902 0.787441
v -0.019005 -0.420129 0.787904
v 0.078764 -0.447298 0.808991
v -0.106462 -0.369361 0.810379
v -0.019005 -0.420526 0.809454
v -0.106462 -0.368964 0.788829
v -0.019005 -0.420526 0.809454
v 0.078764 -0.447298 0.808991
v -0.019005 -0.420129 0.787904
v -0.019005 -0.420129 0.787904
v -0.106462 -0.368964 0.788829
v -0.019005 -0.420526 0.809454
vt 211.25 2.1875
vt 195 0
vt 211.25 0
vt 195 2.1875
vt 227.5 2.1875
vt 178.75 0
vt 227.5 0
vt 178.75 2.1875
vt 243.75 2.1875
vt 162.5 2.1875
vt 243.75 0
vt 162.5 0
vt 260 2.1875
vt 146.25 2.1875
vt 260 0
vt 146.25 0
vt 276.25 2.1875
vt 130 2.1875
vt 97.5 2.1875
vt 113.75 0
vt 113.75 2.1875
vt 276.25 0
vt 130 0
vt 97.5 0
vt 292.5 0
vt 81.25 2.1875
vt 292.5 2.1875
vt 81.25 0
vt 308.75 0
vt 65 0
vt 308.75 2.1875
vt 65 2.1875
vt 325 0
vt 48.75 0
vt 325 2.1875
vt 48.75 2.1875
vt 341.25 0
vt 341.25 2.1875
vt 357.5 0
vt 357.5 2.1875
vt 373.75 0
vt 373.75 2.1875
vt 32.5 0
vt 390 2.1875
vt 32.5 2.1875
vt 390 0
vt 16.25 0
vt 0 0
vt 16.25 2.1875
vt 0 2.1875
vt -15.876688003540039 0
vt -32.06193542480469 0
vt -15.876688003540039 2.2750000953674316
vt -32.06193542480469 2.2750000953674316
vt -52.921321868896484 2.2750000953674316
vt -36.7360725402832 2.2750000953674316
vt -52.921321868896484 0
vt 6.6161651611328125 0
vt -9.569083213806152 0
vt 6.6161651611328125 2.2750000953674316
vt -36.7360725402832 0
vt -9.569083213806152 2.2750000953674316
vt -70.72570037841797 2.2750000953674316
vt -54.54045486450195 2.2750000953674316
vt -70.72570037841797 0
vt 29.209636688232422 2.2750000953674316
vt 29.209636688232422 0
vt 13.024388313293457 2.2750000953674316
vt -54.54045486450195 0
vt 13.024388313293457 0
vt -84.2617416381836 2.2750000953674316
vt -68.07649993896484 2.2750000953674316
vt -84.2617416381836 0
vt 50.364017486572266 2.2750000953674316
vt 50.364017486572266 0
vt 34.178768157958984 2.2750000953674316
vt -68.07649993896484 0
vt 34.178768157958984 0
vt -92.60698699951172 2.2750000953674316
vt -76.42173767089844 2.2750000953674316
vt -92.60698699951172 0
vt 68.6376724243164 2.2750000953674316
vt 68.6376724243164 0
vt 52.45242691040039 2.2750000953674316
vt 91.84271240234375 2.2750000953674316
vt 91.84271240234375 0
vt 75.657470703125 2.2750000953674316
vt -76.42173767089844 0
vt 52.45242691040039 0
vt 82.78528594970703 2.2750000953674316
vt 82.78528594970703 0
vt 66.60003662109375 2.2750000953674316
vt 75.657470703125 0
vt 66.60003662109375 0
vt -95.19271087646484 0
vt -95.19271087646484 2.2750000953674316
vt -79.0074691772461 0
vt 95.19271087646484 2.2750000953674316
vt 95.19271087646484 0
vt 79.0074691772461 2.2750000953674316
vt -79.0074691772461 2.2750000953674316
vt 79.0074691772461 0
vt -91.84271240234375 0
vt -91.84271240234375 2.2750000953674316
vt -75.657470703125 0
vt 92.60698699951172 0
vt 76.42173767089844 0
vt 92.60698699951172 2.2750000953674316
vt -75.657470703125 2.2750000953674316
vt 76.42173767089844 2.2750000953674316
vt -82.78528594970703 0
vt -82.78528594970703 2.2750000953674316
vt -66.60003662109375 0
vt 84.2617416381836 0
vt 68.07649993896484 0
vt 84.2617416381836 2.2750000953674316
vt -66.60003662109375 2.2750000953674316
vt 68.07649993896484 2.2750000953674316
vt -68.6376724243164 0
vt -68.6376724243164 2.2750000953674316
vt -52.45242691040039 0
vt -34.178768157958984 2.2750000953674316
vt -34.178768157958984 0
vt -50.364017486572266 2.2750000953674316
vt -13.024388313293457 2.2750000953674316
vt -13.024388313293457 0
vt -29.209636688232422 2.2750000953674316
vt 70.72570037841797 0
vt 54.54045486450195 0
vt 70.72570037841797 2.2750000953674316
vt -52.45242691040039 2.2750000953674316
vt -50.364017486572266 0
vt -29.209636688232422 0
vt -6.6161651611328125 2.2750000953674316
vt 9.569083213806152 2.2750000953674316
vt -6.6161651611328125 0
vt 54.54045486450195 2.2750000953674316
vt 9.569083213806152 0
vt 52.921321868896484 0
vt 36.7360725402832 0
vt 52.921321868896484 2.2750000953674316
vt 15.876688003540039 2.2750000953674316
vt 32.06193542480469 2.2750000953674316
vt 15.876688003540039 0
vt 36.7360725402832 2.2750000953674316
vt 32.06193542480469 0
vn 0.3878539027113028 0.9215647416346707 0.01696399503165313
vn 0.6131973639994088 0.7897954134249877 0.014567007826919586
vn 0.13607993781839064 0.99053059781124 0.01820399195370724
vn 0.7967520130748061 0.6042030138685858 0.011178000418745993
vn -0.12496894949537102 0.991993637232388 0.018203992762056104
vn 0.9260093586919438 0.37743514521697297 0.00702700291570408
vn -0.37750005324029684 0.9258541636955134 0.01696400221806684
vn 0.9921606533628171 0.12494595756953145 0.002396999311840464
vn -0.6043060592961264 0.7966190991679729 0.014567001709141873
vn 0.9906978388427334 -0.13605898171211323 -0.002396999749795997
vn 0.7899295775416952 -0.6130956817432969 -0.011177994118851894
vn 0.9217206072195901 -0.3877908502468935 -0.007026997334648831
vn -0.7899295775416952 0.6130956817432969 0.011177994118851894
vn 0.6043060592961264 -0.7966190991679729 -0.014567001709141873
vn -0.9217206072195901 0.3877908502468935 0.007026997334648831
vn 0.37750005324029684 -0.9258541636955134 -0.01696400221806684
vn -0.9906978388427334 0.13605898171211323 0.002396999749795997
vn 0.12496894949537102 -0.991993637232388 -0.018203992762056104
vn -0.9921606533628171 -0.12494595756953145 -0.002396999311840464
vn -0.9260093586919438 -0.37743514521697297 -0.00702700291570408
vn -0.7967520130748061 -0.6042030138685858 -0.011178000418745993
vn -0.13607993781839064 -0.99053059781124 -0.01820399195370724
vn -0.6131973639994088 -0.7897954134249877 -0.014567007826919586
vn -0.3878539027113028 -0.9215647416346707 -0.01696399503165313
usemtl material_0_0
f 1/1/1 2/2/2 3/3/1
f 4/2/2 5/1/1 6/4/2
f 7/3/1 8/5/3 9/1/1
f 10/4/2 11/6/4 12/2/2
f 13/5/3 14/3/1 15/7/3
f 16/6/4 17/4/2 18/8/4
f 19/7/3 20/9/5 21/5/3
f 22/10/6 23/6/4 24/8/4
f 25/9/5 26/7/3 27/11/5
f 28/6/4 29/10/6 30/12/6
f 31/11/5 32/13/7 33/9/5
f 34/14/8 35/12/6 36/10/6
f 37/13/7 38/11/5 39/15/7
f 40/12/6 41/14/8 42/16/8
f 43/15/7 44/17/9 45/13/7
f 46/18/10 47/16/8 48/14/8
f 49/19/11 50/20/12 51/21/12
f 52/17/9 53/15/7 54/22/9
f 55/16/8 56/18/10 57/23/10
f 58/21/12 59/23/10 60/18/10
f 61/20/12 62/19/11 63/24/11
f 64/23/10 65/21/12 66/20/12
f 67/25/13 68/17/9 69/22/9
f 70/26/14 71/24/11 72/19/11
f 73/17/9 74/25/13 75/27/13
f 76/24/11 77/26/14 78/28/14
f 79/29/15 80/27/13 81/25/13
f 82/26/14 83/30/16 84/28/14
f 85/27/13 86/29/15 87/31/15
f 88/30/16 89/26/14 90/32/16
f 91/33/17 92/31/15 93/29/15
f 94/32/16 95/34/18 96/30/16
f 97/31/15 98/33/17 99/35/17
f 100/34/18 101/32/16 102/36/18
f 103/37/19 104/35/17 105/33/17
f 106/38/19 107/39/20 108/40/20
f 109/40/20 110/41/21 111/42/21
f 112/36/18 113/43/22 114/34/18
f 115/35/17 116/37/19 117/38/19
f 118/39/20 119/38/19 120/37/19
f 121/41/21 122/40/20 123/39/20
f 124/41/21 125/44/23 126/42/21
f 127/43/22 128/36/18 129/45/22
f 130/44/23 131/41/21 132/46/23
f 133/45/22 134/47/24 135/43/22
f 136/48/23 137/49/24 138/50/23
f 139/47/24 140/45/22 141/49/24
f 142/49/24 143/48/23 144/47/24
usemtl material_1_0
f 145/51/24 146/52/23 147/53/24
f 148/54/23 149/53/24 150/52/23
f 151/55/24 152/56/22 153/57/24
f 154/58/23 155/59/21 156/60/23
f 157/61/22 158/57/24 159/56/22
f 160/62/21 161/60/23 162/59/21
f 163/63/22 164/64/18 165/65/22
f 166/66/21 167/67/21 168/68/20
f 169/69/18 170/65/22 171/64/18
f 172/70/20 173/68/20 174/67/21
f 175/71/18 176/72/16 177/73/18
f 178/74/20 179/75/20 180/76/19
f 181/77/16 182/73/18 183/72/16
f 184/78/19 185/76/19 186/75/20
f 187/79/16 188/80/14 189/81/16
f 190/82/19 191/83/19 192/84/17
f 193/85/15 194/86/15 195/87/13
f 196/88/14 197/81/16 198/80/14
f 199/89/17 200/84/17 201/83/19
f 202/90/17 203/91/17 204/92/15
f 205/93/13 206/87/13 207/86/15
f 208/94/15 209/92/15 210/91/17
f 211/95/14 212/96/14 213/97/11
f 214/98/13 215/99/13 216/100/9
f 217/101/11 218/97/11 219/96/14
f 220/102/9 221/100/9 222/99/13
f 223/103/11 224/104/11 225/105/12
f 226/106/9 227/107/7 228/108/9
f 229/109/12 230/105/12 231/104/11
f 232/110/7 233/108/9 234/107/7
f 235/111/12 236/112/12 237/113/10
f 238/114/7 239/115/5 240/116/7
f 241/117/10 242/113/10 243/112/12
f 244/118/5 245/116/7 246/115/5
f 247/119/10 248/120/10 249/121/8
f 250/122/6 251/123/6 252/124/8
f 253/125/4 254/126/4 255/127/6
f 256/128/5 257/129/3 258/130/5
f 259/131/8 260/121/8 261/120/10
f 262/132/8 263/124/8 264/123/6
f 265/133/6 266/127/6 267/126/4
f 268/134/4 269/135/2 270/136/4
f 271/137/3 272/130/5 273/129/3
f 274/138/2 275/136/4 276/135/2
f 277/139/3 278/140/1 279/141/3
f 280/142/2 281/143/1 282/144/2
f 283/145/1 284/141/3 285/140/1
f 286/146/1 287/144/2 288/143/1
