# SSTK version 0.8.0
# 125
mtllib original-125.mtl
o mesh46/mesh46-geometry/material_1/component_14#mesh46-geometry
v -0.709701 0.158817 0.074368
v -0.721832 0.159098 0.012957
v -0.721799 0.143844 0.012428
v -0.721799 0.143844 0.012428
v -0.721832 0.159098 0.012957
v -0.709701 0.158817 0.074368
v -0.708611 0.168518 0.070336
v -0.721799 0.158817 0.012428
v -0.721799 0.143844 0.012428
v -0.721799 0.143844 0.012428
v -0.721799 0.158817 0.012428
v -0.708611 0.168518 0.070336
v -0.708611 0.168518 0.070336
v -0.721799 0.158817 0.012428
v -0.721799 0.143844 0.012428
v -0.721799 0.143844 0.012428
v -0.721799 0.158817 0.012428
v -0.708611 0.168518 0.070336
v -0.719055 0.152487 0.053281
v -0.708611 0.168518 0.070336
v -0.721799 0.143844 0.012428
v -0.721799 0.143844 0.012428
v -0.708611 0.168518 0.070336
v -0.719055 0.152487 0.053281
v -0.708611 0.168518 0.070336
v -0.719055 0.152487 0.053281
v -0.717039 0.158817 0.083160
v -0.717039 0.158817 0.083160
v -0.719055 0.152487 0.053281
v -0.708611 0.168518 0.070336
v -0.717039 0.158817 0.083160
v -0.696249 0.158817 0.121170
v -0.708611 0.168518 0.070336
v -0.708611 0.168518 0.070336
v -0.696249 0.158817 0.121170
v -0.717039 0.158817 0.083160
v -0.696249 0.158817 0.121170
v -0.697637 0.166518 0.101207
v -0.708611 0.168518 0.070336
v -0.708611 0.168518 0.070336
v -0.697637 0.166518 0.101207
v -0.696249 0.158817 0.121170
v -0.697637 0.166518 0.101207
v -0.696249 0.158817 0.121170
v -0.693274 0.165725 0.113436
v -0.693274 0.165725 0.113436
v -0.696249 0.158817 0.121170
v -0.697637 0.166518 0.101207
vt 15.66808795928955 29.88544273376465
vt 12.820837020874023 29.8981876373291
vt 12.797285079956055 29.176464080810547
vt 13.590958595275879 29.74234390258789
vt 10.889151573181152 29.28360939025879
vt 10.889151573181152 28.57465934753418
vt 32.87261962890625 -13.966922760009766
vt 33.60383987426758 -13.021885871887207
vt 31.03424644470215 -14.476981163024902
vt 34.218414306640625 -13.593530654907227
vt -4.880772113800049 -40.980716705322266
vt -2.9085729122161865 -40.980716705322266
vt -5.208459854125977 -40.19384765625
vt 4.488433837890625 -22.846431732177734
vt 3.6251540184020996 -22.374296188354492
vt 2.1358211040496826 -22.25159454345703
vt 4.214532852172852 -22.422853469848633
vn -0.9810348116023216 -0.008706998322709865 0.19363596413013184
vn 0.9810348116023216 0.008706998322709865 -0.19363596413013184
vn -0.9751369699832216 0 0.22160300036764327
vn 0.9751369699832216 0 -0.22160300036764327
vn -0.7991827924015793 0.5966798222738633 -0.07266398021334444
vn 0.7991827924015793 -0.5966798222738633 0.07266398021334444
vn -0.5115722484564255 0.812481375374329 0.27958513780077127
vn 0.5115722484564255 -0.812481375374329 -0.27958513780077127
vn -0.7125346213203989 0.6366036515682155 0.2950088205966222
vn 0.7125346213203989 -0.6366036515682155 -0.2950088205966222
usemtl material_0_0
f 1/1/1 2/2/1 3/3/1
f 4/3/2 5/2/2 6/1/2
f 7/4/3 8/5/3 9/6/3
f 10/6/4 11/5/4 12/4/4
f 13/4/3 14/5/3 15/6/3
f 16/6/4 17/5/4 18/4/4
f 19/7/5 20/8/5 21/9/5
f 22/9/6 23/8/6 24/7/6
f 25/8/5 26/7/5 27/10/5
f 28/10/6 29/7/6 30/8/6
f 31/11/7 32/12/7 33/13/7
f 34/13/8 35/12/8 36/11/8
f 37/14/9 38/15/9 39/16/9
f 40/16/10 41/15/10 42/14/10
f 43/15/9 44/14/9 45/17/9
f 46/17/10 47/14/10 48/15/10
