# SSTK version 0.8.0
# 118
mtllib original-118.mtl
o mesh46/mesh46-geometry/material_1/component_7#mesh46-geometry
v 0.296745 0.492018 -0.405289
v 0.324410 0.492018 -0.375079
v 0.324410 0.492018 -0.405289
v 0.324410 0.492018 -0.405289
v 0.324410 0.492018 -0.375079
v 0.296745 0.492018 -0.405289
v 0.244158 0.529995 -0.375079
v 0.324410 0.492018 -0.414279
v 0.324410 0.492018 -0.405289
v 0.324410 0.492018 -0.405289
v 0.324410 0.492018 -0.414279
v 0.244158 0.529995 -0.375079
v 0.324410 0.492018 -0.375079
v 0.296745 0.492018 -0.405289
v 0.210213 0.492018 -0.375079
v 0.210213 0.492018 -0.375079
v 0.296745 0.492018 -0.405289
v 0.324410 0.492018 -0.375079
v 0.344142 0.469592 -0.375079
v 0.351380 0.452785 -0.375079
v 0.348141 0.461329 -0.375079
v 0.348141 0.461329 -0.375079
v 0.351380 0.452785 -0.375079
v 0.344142 0.469592 -0.375079
v 0.344142 0.469592 -0.375079
v 0.324410 0.492018 -0.426442
v 0.324410 0.492018 -0.414279
v 0.324410 0.492018 -0.414279
v 0.324410 0.492018 -0.426442
v 0.344142 0.469592 -0.375079
v 0.324410 0.492018 -0.414279
v 0.244158 0.529995 -0.375079
v 0.324410 0.492018 -0.426442
v 0.324410 0.492018 -0.426442
v 0.244158 0.529995 -0.375079
v 0.324410 0.492018 -0.414279
v 0.210213 0.492018 -0.375079
v 0.296745 0.492018 -0.405289
v 0.210213 0.492018 -0.405289
v 0.210213 0.492018 -0.405289
v 0.296745 0.492018 -0.405289
v 0.210213 0.492018 -0.375079
v 0.210213 0.492018 -0.405289
v 0.210213 0.513767 -0.375079
v 0.210213 0.492018 -0.375079
v 0.210213 0.492018 -0.375079
v 0.210213 0.513767 -0.375079
v 0.210213 0.492018 -0.405289
v 0.210213 0.513767 -0.375079
v 0.210213 0.492018 -0.405289
v 0.210213 0.513767 -0.405289
v 0.210213 0.513767 -0.405289
v 0.210213 0.492018 -0.405289
v 0.210213 0.513767 -0.375079
v 0.210213 0.539862 -0.375079
v 0.219898 0.534127 -0.375079
v 0.223137 0.533582 -0.375079
v 0.223137 0.533582 -0.375079
v 0.219898 0.534127 -0.375079
v 0.210213 0.539862 -0.375079
v 0.219898 0.534127 -0.375079
v 0.210213 0.539862 -0.375079
v 0.216659 0.534689 -0.375079
v 0.216659 0.534689 -0.375079
v 0.210213 0.539862 -0.375079
v 0.219898 0.534127 -0.375079
v 0.210213 0.513767 -0.405289
v 0.210213 0.535532 -0.390151
v 0.210213 0.513767 -0.375079
v 0.210213 0.513767 -0.375079
v 0.210213 0.535532 -0.390151
v 0.210213 0.513767 -0.405289
v 0.216659 0.534689 -0.375079
v 0.210213 0.539862 -0.375079
v 0.213420 0.535102 -0.375079
v 0.213420 0.535102 -0.375079
v 0.210213 0.539862 -0.375079
v 0.216659 0.534689 -0.375079
v 0.210213 0.513767 -0.375079
v 0.210213 0.535532 -0.388432
v 0.210213 0.535532 -0.375079
v 0.210213 0.535532 -0.375079
v 0.210213 0.535532 -0.388432
v 0.210213 0.513767 -0.375079
v 0.210213 0.535532 -0.390151
v 0.210213 0.513767 -0.405289
v 0.210213 0.535532 -0.405289
v 0.210213 0.535532 -0.405289
v 0.210213 0.513767 -0.405289
v 0.210213 0.535532 -0.390151
v 0.210213 0.513767 -0.375079
v 0.210213 0.535532 -0.390151
v 0.210213 0.535532 -0.388432
v 0.210213 0.535532 -0.388432
v 0.210213 0.535532 -0.390151
v 0.210213 0.513767 -0.375079
v 0.210213 0.535532 -0.390151
v 0.210213 0.539862 -0.390151
v 0.210213 0.539862 -0.375079
v 0.210213 0.539862 -0.375079
v 0.210213 0.539862 -0.390151
v 0.210213 0.535532 -0.390151
v 0.213420 0.535102 -0.375079
v 0.210213 0.539862 -0.375079
v 0.210213 0.535532 -0.375079
v 0.210213 0.535532 -0.375079
v 0.210213 0.539862 -0.375079
v 0.213420 0.535102 -0.375079
v 0.210213 0.535532 -0.388432
v 0.210213 0.539862 -0.375079
v 0.210213 0.535532 -0.375079
v 0.210213 0.535532 -0.375079
v 0.210213 0.539862 -0.375079
v 0.210213 0.535532 -0.388432
v 0.210213 0.513767 -0.405289
v 0.210213 0.535532 -0.423666
v 0.210213 0.535532 -0.405289
v 0.210213 0.535532 -0.405289
v 0.210213 0.535532 -0.423666
v 0.210213 0.513767 -0.405289
v 0.210213 0.535532 -0.405289
v 0.210213 0.539862 -0.390151
v 0.210213 0.535532 -0.390151
v 0.210213 0.535532 -0.390151
v 0.210213 0.539862 -0.390151
v 0.210213 0.535532 -0.405289
v 0.210213 0.535532 -0.390151
v 0.210213 0.539862 -0.375079
v 0.210213 0.535532 -0.388432
v 0.210213 0.535532 -0.388432
v 0.210213 0.539862 -0.375079
v 0.210213 0.535532 -0.390151
v 0.210213 0.535532 -0.405289
v 0.210213 0.539862 -0.405289
v 0.210213 0.539862 -0.390151
v 0.210213 0.539862 -0.390151
v 0.210213 0.539862 -0.405289
v 0.210213 0.535532 -0.405289
v 0.210213 0.513767 -0.426442
v 0.210213 0.535532 -0.423666
v 0.210213 0.513767 -0.405289
v 0.210213 0.513767 -0.405289
v 0.210213 0.535532 -0.423666
v 0.210213 0.513767 -0.426442
v 0.210213 0.535532 -0.423666
v 0.210213 0.539862 -0.405289
v 0.210213 0.535532 -0.405289
v 0.210213 0.535532 -0.405289
v 0.210213 0.539862 -0.405289
v 0.210213 0.535532 -0.423666
v 0.210213 0.539862 -0.405289
v 0.210213 0.535532 -0.426442
v 0.210213 0.539862 -0.426442
v 0.210213 0.539862 -0.426442
v 0.210213 0.535532 -0.426442
v 0.210213 0.539862 -0.405289
v 0.210213 0.527434 -0.426442
v 0.210213 0.535532 -0.423666
v 0.210213 0.513767 -0.426442
v 0.210213 0.513767 -0.426442
v 0.210213 0.535532 -0.423666
v 0.210213 0.527434 -0.426442
v 0.210213 0.535532 -0.426442
v 0.210213 0.539862 -0.405289
v 0.210213 0.535532 -0.423666
v 0.210213 0.535532 -0.423666
v 0.210213 0.539862 -0.405289
v 0.210213 0.535532 -0.426442
v 0.210213 0.535532 -0.423666
v 0.210213 0.527434 -0.426442
v 0.210213 0.535532 -0.426442
v 0.210213 0.535532 -0.426442
v 0.210213 0.527434 -0.426442
v 0.210213 0.535532 -0.423666
vt 16.5060977935791 6.702031135559082
vt 15.248244285583496 8.131839752197266
vt 15.248244285583496 6.702031135559082
vt 7.819077014923096 37.80375289916992
vt 6.035521984100342 33.602996826171875
vt 6.444261074066162 33.602996826171875
vt 20.4435977935791 8.131839752197266
vt -14.349835395812988 43.98759078979492
vt -14.021210670471191 43.19180679321289
vt -14.16828441619873 43.596683502197266
vt -7.819077014923096 42.873294830322266
vt -5.482891082763672 44.28691482543945
vt -6.035521984100342 44.28691482543945
vt 5.482891082763672 33.602996826171875
vt 20.4435977935791 6.702031135559082
vt -6.444261074066162 45.048404693603516
vt -7.819077014923096 46.077674865722656
vt -7.819077014923096 45.048404693603516
vt -6.444261074066162 46.077674865722656
vt -20.4435977935791 47.31224822998047
vt -20.003122329711914 47.041038513183594
vt -19.85541534423828 47.014835357666016
vt -20.15083122253418 47.06724548339844
vt -7.131669044494629 47.10694122314453
vt -20.29721450805664 47.087093353271484
vt -7.210061073303223 47.10694122314453
vt -7.819077014923096 47.10694122314453
vt -6.444261074066162 47.10694122314453
vt -7.131669044494629 47.31224822998047
vt -7.819077014923096 47.31224822998047
vt -20.4435977935791 47.10694122314453
vt -5.608796119689941 47.10694122314453
vt -6.444261074066162 47.31224822998047
vt -5.482891082763672 46.077674865722656
vt -5.482891082763672 47.10694122314453
vt -5.482891082763672 47.31224822998047
vt -5.482891082763672 46.72425079345703
vn 0 1 0
vn 0 -1 0
vn -0.427733866312196 -0.9039047182140496 0
vn 0.427733866312196 0.9039047182140496 0
vn 0 0 1
vn 0 0 -1
vn 0.7504220060729636 0.660959009925297 0
vn -0.7504220060729636 -0.660959009925297 0
vn 1 0 0
vn -1 0 0
usemtl material_0_0
f 1/1/1 2/2/1 3/3/1
f 4/3/2 5/2/2 6/1/2
f 7/4/3 8/5/3 9/6/3
f 10/6/4 11/5/4 12/4/4
f 13/2/1 14/1/1 15/7/1
f 16/7/2 17/1/2 18/2/2
f 19/8/5 20/9/5 21/10/5
f 22/10/6 23/9/6 24/8/6
f 25/11/7 26/12/7 27/13/7
f 28/13/8 29/12/8 30/11/8
f 31/5/3 32/4/3 33/14/3
f 34/14/4 35/4/4 36/5/4
f 37/7/1 38/1/1 39/15/1
f 40/15/2 41/1/2 42/7/2
f 43/16/9 44/17/9 45/18/9
f 46/18/10 47/17/10 48/16/10
f 49/17/9 50/16/9 51/19/9
f 52/19/10 53/16/10 54/17/10
f 55/20/5 56/21/5 57/22/5
f 58/22/6 59/21/6 60/20/6
f 61/21/5 62/20/5 63/23/5
f 64/23/6 65/20/6 66/21/6
f 67/19/9 68/24/9 69/17/9
f 70/17/10 71/24/10 72/19/10
f 73/23/5 74/20/5 75/25/5
f 76/25/6 77/20/6 78/23/6
f 79/17/9 80/26/9 81/27/9
f 82/27/10 83/26/10 84/17/10
f 85/24/9 86/19/9 87/28/9
f 88/28/10 89/19/10 90/24/10
f 91/17/9 92/24/9 93/26/9
f 94/26/10 95/24/10 96/17/10
f 97/24/9 98/29/9 99/30/9
f 100/30/10 101/29/10 102/24/10
f 103/25/5 104/20/5 105/31/5
f 106/31/6 107/20/6 108/25/6
f 109/26/9 110/30/9 111/27/9
f 112/27/10 113/30/10 114/26/10
f 115/19/9 116/32/9 117/28/9
f 118/28/10 119/32/10 120/19/10
f 121/28/9 122/29/9 123/24/9
f 124/24/10 125/29/10 126/28/10
f 127/24/9 128/30/9 129/26/9
f 130/26/10 131/30/10 132/24/10
f 133/28/9 134/33/9 135/29/9
f 136/29/10 137/33/10 138/28/10
f 139/34/9 140/32/9 141/19/9
f 142/19/10 143/32/10 144/34/10
f 145/32/9 146/33/9 147/28/9
f 148/28/10 149/33/10 150/32/10
f 151/33/9 152/35/9 153/36/9
f 154/36/10 155/35/10 156/33/10
f 157/37/9 158/32/9 159/34/9
f 160/34/10 161/32/10 162/37/10
f 163/35/9 164/33/9 165/32/9
f 166/32/10 167/33/10 168/35/10
f 169/32/9 170/37/9 171/35/9
f 172/35/10 173/37/10 174/32/10
