# SSTK version 0.8.0
# 10
mtllib original-10.mtl
o #ID68
v -0.283888 -0.234042 -0.383323
v -0.272635 -0.234042 -0.383234
v -0.272635 -0.190672 -0.413687
v -0.283888 -0.17942 -0.416866
v -0.283888 -0.234042 -0.383323
v -0.272635 -0.190672 -0.413687
v -0.283888 -0.17942 -0.416866
v -0.272635 -0.190672 -0.413687
v -0.238921 -0.17942 -0.416844
v -0.272635 -0.190672 -0.413687
v -0.239052 -0.190672 -0.413687
v -0.238921 -0.17942 -0.416844
v -0.239052 -0.17942 -0.775246
v -0.283888 -0.17942 -0.416866
v -0.238921 -0.17942 -0.416844
v -0.283888 -0.17942 -0.775246
vt -0.1814925 0.1733099
vt -0.1785989 0.1733099
vt -0.1786607 0.1869366
vt -0.07993061 0.1927147
vt -0.08264529 0.1764571
vt -0.07744142 0.1893655
vt -0.1794472 0.1081343
vt -0.1765532 0.105128
vt -0.1678844 0.1081343
vt -0.1764085 0.1047762
vt -0.167773 0.1047762
vt -0.1677392 0.1077814
vt 0.3789361 0.167773
vt 0.2867819 0.179302
vt 0.2867761 0.1677392
vt 0.3789361 0.179302
vn -0.006461449044194372 0.5746461039303956 0.8183765055974336
vn 0.271911194855194 0.5035848904717183 0.8200405844840902
vn -0.00048722500766208997 0.271422004268343 0.9624603151355111
vn 2.673363865122308e-09 0.27006899243239685 0.9628409730202334
vn -2.6740410022203494e-07 1.0 -3.340601999999879e-08
usemtl material_0_0
f 1/1/1 2/2/1 3/3/1
f 4/4/2 5/5/2 6/6/2
f 7/7/3 8/8/3 9/9/3
f 10/10/4 11/11/4 12/12/4
f 13/13/5 14/14/5 15/15/5
f 14/14/5 13/13/5 16/16/5
