mtllib new-0.mtl
v 0.349938 -0.921161 0.242392
v 0.344647 -0.921161 0.242392
v -0.334412 -0.921161 -0.355773
v -0.334412 -0.921161 0.242392
v 0.349938 -0.921161 -0.355773
v -0.334412 -0.861470 0.242392
v 0.349938 0.868046 -0.355773
v 0.349938 -0.915557 0.242392
v 0.349938 -0.861470 0.242392
v -0.334412 0.868046 -0.355773
v -0.334412 0.312418 0.242392
v -0.334412 0.868046 0.242392
v 0.349938 0.312418 0.242392
v -0.334412 0.312956 0.242392
v -0.329121 0.868046 0.242392
v -0.334412 0.862443 0.242392
v -0.334412 0.326481 0.242392
v 0.344647 0.868046 0.242392
v -0.334412 0.808355 0.242392
v 0.349938 0.326481 0.242392
v -0.334412 0.781117 0.242392
v 0.349938 0.868046 0.242392
v 0.349938 0.808355 0.242392
v 0.349938 0.862443 0.242392
vn 0.000000 0.000000 -1.000000
vn 0.000000 -1.000000 0.000000
vn 0.000000 0.000000 1.000000
vn -1.000000 0.000000 0.000000
vn 1.000000 0.000000 0.000000
vn 0.000000 1.000000 0.000000
usemtl material-0
f 2//2 3//2 1//2
f 3//2 2//2 4//2
f 1//2 3//2 5//2
f 6//4 3//4 4//4
f 3//1 7//1 5//1
f 7//5 1//5 5//5
f 3//4 6//4 10//4
f 7//1 3//1 10//1
f 1//5 7//5 8//5
f 10//4 6//4 11//4
f 12//6 7//6 10//6
f 10//2 7//2 12//2
f 8//5 7//5 9//5
f 10//4 11//4 14//4
f 15//6 7//6 12//6
f 12//2 7//2 15//2
f 10//4 16//4 12//4
f 9//5 7//5 13//5
f 10//4 14//4 17//4
f 18//6 7//6 15//6
f 15//2 7//2 18//2
f 10//4 19//4 16//4
f 13//5 7//5 20//5
f 10//4 17//4 21//4
f 7//6 18//6 22//6
f 22//2 18//2 7//2
f 10//4 21//4 19//4
f 20//5 7//5 23//5
f 24//5 7//5 22//5
f 23//5 7//5 24//5
usemtl material-1
f 1//6 3//6 2//6
f 4//6 2//6 3//6
f 5//6 3//6 1//6
f 4//5 3//5 6//5
f 5//3 7//3 3//3
f 5//4 1//4 7//4
f 10//5 6//5 3//5
f 10//3 3//3 7//3
f 8//4 7//4 1//4
f 11//5 6//5 10//5
f 9//4 7//4 8//4
f 14//5 11//5 10//5
f 12//5 16//5 10//5
f 13//4 7//4 9//4
f 17//5 14//5 10//5
f 16//5 19//5 10//5
f 20//4 7//4 13//4
f 21//5 17//5 10//5
f 19//5 21//5 10//5
f 23//4 7//4 20//4
f 22//4 7//4 24//4
f 24//4 7//4 23//4