# SSTK version 0.8.0
# 18
mtllib original-18.mtl
o mesh29/mesh29-geometry#mesh29-geometry
v -0.276553 -0.927294 -0.317899
v -0.272744 -0.921172 -0.313726
v -0.271436 -0.927294 -0.315436
v -0.277237 -0.921172 -0.315899
v -0.269179 -0.921172 -0.310354
v -0.276165 -0.933871 -0.319020
v -0.282223 -0.927294 -0.318749
v -0.274552 -0.915752 -0.311378
v -0.267371 -0.927294 -0.311591
v -0.271661 -0.915752 -0.308644
v -0.270701 -0.933871 -0.316392
v -0.282223 -0.933871 -0.319928
v -0.282223 -0.921172 -0.316643
v -0.278188 -0.915752 -0.313127
v -0.264766 -0.927294 -0.306751
v -0.266881 -0.921172 -0.306103
v -0.276104 -0.942796 -0.319194
v -0.282223 -0.942796 -0.320102
v -0.287892 -0.927294 -0.317899
v -0.288280 -0.933871 -0.319020
v -0.263582 -0.933871 -0.307118
v -0.266370 -0.933871 -0.312286
v -0.269812 -0.915752 -0.305205
v -0.270589 -0.942796 -0.316527
v -0.288330 -0.942796 -0.319194
v -0.287208 -0.921172 -0.315899
v -0.282223 -0.915752 -0.313735
v -0.263868 -0.927294 -0.301389
v -0.262621 -0.933871 -0.301389
v -0.266095 -0.921172 -0.301389
v -0.291701 -0.921172 -0.313726
v -0.293009 -0.927294 -0.315436
v -0.293744 -0.933871 -0.316392
v -0.263398 -0.942796 -0.307176
v -0.262438 -0.942796 -0.301389
v -0.266217 -0.942796 -0.312393
v -0.269169 -0.915752 -0.301389
v -0.289893 -0.915752 -0.311378
v -0.286257 -0.915752 -0.313127
v -0.293847 -0.942796 -0.316527
v -0.264766 -0.927294 -0.296027
v -0.263582 -0.933871 -0.295660
v -0.263398 -0.942796 -0.295612
v -0.266881 -0.921172 -0.296674
v -0.295266 -0.921172 -0.310354
v -0.292784 -0.915752 -0.308644
v -0.297064 -0.927294 -0.311591
v -0.298075 -0.933871 -0.312286
v -0.269812 -0.915752 -0.297573
v -0.298229 -0.942796 -0.312393
v -0.267371 -0.927294 -0.291187
v -0.266370 -0.933871 -0.290491
v -0.266217 -0.942796 -0.290395
v -0.269179 -0.921172 -0.292423
v -0.297554 -0.921172 -0.306103
v -0.294633 -0.915752 -0.305205
v -0.299679 -0.927294 -0.306751
v -0.300863 -0.933871 -0.307118
v -0.271661 -0.915752 -0.294133
v -0.301037 -0.942796 -0.307176
v -0.271436 -0.927294 -0.287351
v -0.270701 -0.933871 -0.286395
v -0.270589 -0.942796 -0.286250
v -0.272744 -0.921172 -0.289052
v -0.298341 -0.921172 -0.301389
v -0.295276 -0.915752 -0.301389
v -0.300577 -0.927294 -0.301389
v -0.301824 -0.933871 -0.301389
v -0.274552 -0.915752 -0.291409
v -0.302007 -0.942796 -0.301389
v -0.276553 -0.927294 -0.284878
v -0.276165 -0.933871 -0.283758
v -0.276104 -0.942796 -0.283593
v -0.277237 -0.921172 -0.286888
v -0.297554 -0.921172 -0.296674
v -0.294633 -0.915752 -0.297573
v -0.299679 -0.927294 -0.296027
v -0.300863 -0.933871 -0.295660
v -0.278188 -0.915752 -0.289651
v -0.301037 -0.942796 -0.295612
v -0.282223 -0.927294 -0.284038
v -0.282223 -0.933871 -0.282859
v -0.282223 -0.942796 -0.282676
v -0.282223 -0.921172 -0.286144
v -0.295266 -0.921172 -0.292423
v -0.292784 -0.915752 -0.294133
v -0.297064 -0.927294 -0.291187
v -0.298075 -0.933871 -0.290491
v -0.282223 -0.915752 -0.289042
v -0.298229 -0.942796 -0.290395
v -0.287208 -0.921172 -0.286888
v -0.287892 -0.927294 -0.284878
v -0.288280 -0.933871 -0.283758
v -0.286257 -0.915752 -0.289651
v -0.293009 -0.927294 -0.287351
v -0.291701 -0.921172 -0.289052
v -0.293744 -0.933871 -0.286395
v -0.293847 -0.942796 -0.286250
v -0.288330 -0.942796 -0.283593
v -0.289893 -0.915752 -0.291409
vn 0.28478114238177854 0.25283012640725705 -0.9246494622961825
vn 0.5183809190885205 0.40665493652726914 -0.7522718825816523
vn 0.5484403665485962 0.25624517126074875 -0.7959595319773431
vn 0.2696840103383367 0.4021930154180696 -0.8749350335406353
vn 0.7229181789974548 0.41243810212133647 -0.5543321372548715
vn 0.29278207963029523 0.0990580269416077 -0.9510342586604308
vn 0 0.2514829308003316 -0.9678617336769108
vn 0.49791798893924993 0.4795099893481652 -0.7225979839482085
vn 0.7664815072767193 0.2601658327555702 -0.5872136225168908
vn 0.6935219080618873 0.4858489355924684 -0.5319569294800705
vn 0.5646649790932795 0.1003319962852079 -0.8191989696691587
vn -0.000031999988670342016 0.09849396512802083 -0.9951376476695879
vn 0 0.4004908871252637 -0.916300741748919
vn 0.25926300703976857 0.4749870128973226 -0.8409340228338819
vn 0.9125717780365623 0.2634119359307177 -0.3127729239247201
vn 0.859598115130711 0.4173500558979921 -0.294805039484863
vn 0.2942058404301506 0.020014989144373208 -0.9555324817432107
vn -0.0000640000036283843 0.019946001130808643 -0.9998010566822229
vn -0.28478114238177854 0.25283012640725705 -0.9246494622961825
vn -0.2928090761182181 0.09891102571276521 -0.9510412472312881
vn 0.9409128945302567 0.10345598840330854 -0.32245896385460937
vn 0.7897262046271679 0.10196502642031435 -0.604926156743344
vn 0.8236611853773257 0.4916181106460426 -0.2826550636157691
vn 0.5675951144129966 0.020152004062140627 -0.8230611659085713
vn -0.2942530205350362 0.01972100137626957 -0.9555240666831604
vn -0.2696840103383367 0.4021930154180696 -0.8749350335406353
vn 0 0.4732591388992113 -0.8809232585466096
vn 0.9643164969317052 0.2647521364321061 0
vn 0.994579486893026 0.1039790509025929 0.00003500001713414008
vn 0.9078800511590422 0.41923002362361245 0
vn -0.5185571576294731 0.4065461235806898 -0.7522092286543395
vn -0.5487079977171003 0.25626399893381363 -0.7957689966892031
vn -0.5646559876532324 0.10025999780771491 -0.8192139820870673
vn 0.9457791462188859 0.02116600327229611 -0.3241200501094498
vn 0.9997782111306855 0.02106000444739956 0.00006900001457125212
vn 0.7935727372108122 0.020740993131683483 -0.6081217986223242
vn 0.8695543732628166 0.49383721198337255 0
vn -0.49791798893924993 0.4795099893481652 -0.7225979839482085
vn -0.25926300703976857 0.4749870128973226 -0.8409340228338819
vn -0.5673330169584352 0.019732000589819106 -0.8232520246082383
vn 0.9125717780365623 0.2634119359307177 0.3127729239247201
vn 0.9409161903116097 0.10330402089447999 0.3224980652291103
vn 0.9457626723717891 0.02086099277339872 0.3241878876958239
vn 0.859598115130711 0.4173500558979921 0.294805039484863
vn -0.7232373556860493 0.41217120270461083 -0.5541142725118039
vn -0.6939166613260761 0.4856247629853076 -0.5316467405237577
vn -0.7664997583372277 0.2602989179327098 -0.5871308148888387
vn -0.789716734902403 0.10208196573241693 -0.604918796936658
vn 0.8236611853773257 0.4916181106460426 0.2826550636157691
vn -0.7936347668341079 0.02035699401921782 -0.6080538213568538
vn 0.7662171012674731 0.26005403437017377 0.5876080776615206
vn 0.789555848294754 0.10183798043285233 0.6051698837226698
vn 0.7935792112960482 0.020481005453211795 0.6081221619168041
vn 0.7227200523997352 0.4124480299039268 0.5545830402092129
vn -0.8597225504709695 0.4171997818558867 -0.2946548459317984
vn -0.8242883184218147 0.49074318957364005 -0.282347109070427
vn -0.9123599075482943 0.26390897325744533 -0.3129719682857696
vn -0.940856196373644 0.10338202157769102 -0.3226480673424663
vn 0.6932431985372548 0.4860821392085976 0.532107152389657
vn -0.9457851829352064 0.020676003999184095 -0.3241340626945026
vn 0.5484070290573472 0.2560850135686648 0.7960340421778648
vn 0.5647189793273327 0.10032199632751275 0.8191629700129017
vn 0.5675939694112268 0.020151998913968506 0.8230619556435463
vn 0.5181048039134301 0.40662784610399483 0.7524767152109438
vn -0.907871793963967 0.41924790485421426 0
vn -0.8702197105232018 0.4926638361163875 0
vn -0.9641315449063969 0.2654248747129858 0
vn -0.9946068499322379 0.10371698435102701 0.00003499999471914869
vn 0.4975160334228794 0.4797070322264796 0.7227440485535854
vn -0.9997893990330251 0.020522008190683973 0.00006900002753908948
vn 0.2845531480282853 0.25303913163428005 0.9246624810215683
vn 0.29275113220556287 0.09907104474019669 0.9510424294880049
vn 0.2942061215534908 0.02001500826935249 0.9555323947854569
vn 0.2694560900887516 0.40204713441865214 0.8750722925677813
vn -0.8597225504709695 0.4171997818558867 0.2946548459317984
vn -0.8242883184218147 0.49074318957364005 0.282347109070427
vn -0.9123599075482943 0.26390897325744533 0.3129719682857696
vn -0.9408599902917364 0.10322899893483159 0.32268599667036457
vn 0.25922996528846187 0.47437093648054984 0.8412918873489206
vn -0.945768566929835 0.020370990672064396 0.32420185154703357
vn 0 0.25177401398957167 0.9677860537740657
vn -0.00003200000094808004 0.09848000291771633 0.9951390294834821
vn -0.0000640000036283843 0.019946001130808643 0.9998010566822229
vn 0 0.40015192142917755 0.9164488200530007
vn -0.7230390181229732 0.4121820103313422 0.5543650138951592
vn -0.6936381288290748 0.48585909023837426 0.5317960987702327
vn -0.7662351930169682 0.2601880655421625 0.5875251479993661
vn -0.7895460944293237 0.1019540121936496 0.6051630723772051
vn 0 0.47203927745296775 0.8815775181693779
vn -0.7936411614242478 0.020097004087670758 0.6080541236763972
vn -0.2694560900887516 0.40204713441865214 0.8750722925677813
vn -0.2845531480282853 0.25303913163428005 0.9246624810215683
vn -0.2927781294868655 0.09892404375109702 0.9510494206202447
vn -0.25922996528846187 0.47437093648054984 0.8412918873489206
vn -0.5486739754665925 0.25610398854856653 0.7958439644146338
vn -0.5182818040166965 0.40651884627878926 0.7524137154819552
vn -0.5647111317612402 0.10025002339083945 0.8191771911345405
vn -0.5673330169584352 0.019732000589819106 0.8232520246082383
vn -0.2942530205350362 0.01972100137626957 0.9555240666831604
vn -0.4975160334228794 0.4797070322264796 0.7227440485535854
vn -0.5484403665485962 -0.25624517126074875 0.7959595319773431
vn -0.5183809190885205 -0.40665493652726914 0.7522718825816523
vn -0.28478114238177854 -0.25283012640725705 0.9246494622961825
vn -0.2696840103383367 -0.4021930154180696 0.8749350335406353
vn -0.7229181789974548 -0.41243810212133647 0.5543321372548715
vn -0.29278207963029523 -0.0990580269416077 0.9510342586604308
vn 0 -0.2514829308003316 0.9678617336769108
vn -0.49791798893924993 -0.4795099893481652 0.7225979839482085
vn -0.7664815072767193 -0.2601658327555702 0.5872136225168908
vn -0.6935219080618873 -0.4858489355924684 0.5319569294800705
vn -0.5646649790932795 -0.1003319962852079 0.8191989696691587
vn 0.000031999988670342016 -0.09849396512802083 0.9951376476695879
vn 0 -0.4004908871252637 0.916300741748919
vn -0.25926300703976857 -0.4749870128973226 0.8409340228338819
vn -0.9125717780365623 -0.2634119359307177 0.3127729239247201
vn -0.859598115130711 -0.4173500558979921 0.294805039484863
vn -0.2942058404301506 -0.020014989144373208 0.9555324817432107
vn 0.0000640000036283843 -0.019946001130808643 0.9998010566822229
vn 0.28478114238177854 -0.25283012640725705 0.9246494622961825
vn 0.2928090761182181 -0.09891102571276521 0.9510412472312881
vn -0.9409128945302567 -0.10345598840330854 0.32245896385460937
vn -0.7897262046271679 -0.10196502642031435 0.604926156743344
vn -0.8236611853773257 -0.4916181106460426 0.2826550636157691
vn -0.5675951144129966 -0.020152004062140627 0.8230611659085713
vn 0.2942530205350362 -0.01972100137626957 0.9555240666831604
vn 0.2696840103383367 -0.4021930154180696 0.8749350335406353
vn 0 -0.4732591388992113 0.8809232585466096
vn -0.9643164969317052 -0.2647521364321061 0
vn -0.994579486893026 -0.1039790509025929 -0.00003500001713414008
vn -0.9078800511590422 -0.41923002362361245 0
vn 0.5185571576294731 -0.4065461235806898 0.7522092286543395
vn 0.5487079977171003 -0.25626399893381363 0.7957689966892031
vn 0.5646559876532324 -0.10025999780771491 0.8192139820870673
vn -0.9457791462188859 -0.02116600327229611 0.3241200501094498
vn -0.9997782111306855 -0.02106000444739956 -0.00006900001457125212
vn -0.7935727372108122 -0.020740993131683483 0.6081217986223242
vn -0.8695543732628166 -0.49383721198337255 0
vn 0.49791798893924993 -0.4795099893481652 0.7225979839482085
vn 0.25926300703976857 -0.4749870128973226 0.8409340228338819
vn 0.5673330169584352 -0.019732000589819106 0.8232520246082383
vn -0.9125717780365623 -0.2634119359307177 -0.3127729239247201
vn -0.9409161903116097 -0.10330402089447999 -0.3224980652291103
vn -0.9457626723717891 -0.02086099277339872 -0.3241878876958239
vn -0.859598115130711 -0.4173500558979921 -0.294805039484863
vn 0.7232373556860493 -0.41217120270461083 0.5541142725118039
vn 0.6939166613260761 -0.4856247629853076 0.5316467405237577
vn 0.7664997583372277 -0.2602989179327098 0.5871308148888387
vn 0.789716734902403 -0.10208196573241693 0.604918796936658
vn -0.8236611853773257 -0.4916181106460426 -0.2826550636157691
vn 0.7936347668341079 -0.02035699401921782 0.6080538213568538
vn -0.7662171012674731 -0.26005403437017377 -0.5876080776615206
vn -0.789555848294754 -0.10183798043285233 -0.6051698837226698
vn -0.7935792112960482 -0.020481005453211795 -0.6081221619168041
vn -0.7227200523997352 -0.4124480299039268 -0.5545830402092129
vn 0.8597225504709695 -0.4171997818558867 0.2946548459317984
vn 0.8242883184218147 -0.49074318957364005 0.282347109070427
vn 0.9123599075482943 -0.26390897325744533 0.3129719682857696
vn 0.940856196373644 -0.10338202157769102 0.3226480673424663
vn -0.6932431985372548 -0.4860821392085976 -0.532107152389657
vn 0.9457851829352064 -0.020676003999184095 0.3241340626945026
vn -0.5484070290573472 -0.2560850135686648 -0.7960340421778648
vn -0.5647189793273327 -0.10032199632751275 -0.8191629700129017
vn -0.5675939694112268 -0.020151998913968506 -0.8230619556435463
vn -0.5181048039134301 -0.40662784610399483 -0.7524767152109438
vn 0.907871793963967 -0.41924790485421426 0
vn 0.8702197105232018 -0.4926638361163875 0
vn 0.9641315449063969 -0.2654248747129858 0
vn 0.9946068499322379 -0.10371698435102701 -0.00003499999471914869
vn -0.4975160334228794 -0.4797070322264796 -0.7227440485535854
vn 0.9997893990330251 -0.020522008190683973 -0.00006900002753908948
vn -0.2845531480282853 -0.25303913163428005 -0.9246624810215683
vn -0.29275113220556287 -0.09907104474019669 -0.9510424294880049
vn -0.2942061215534908 -0.02001500826935249 -0.9555323947854569
vn -0.2694560900887516 -0.40204713441865214 -0.8750722925677813
vn 0.8597225504709695 -0.4171997818558867 -0.2946548459317984
vn 0.8242883184218147 -0.49074318957364005 -0.282347109070427
vn 0.9123599075482943 -0.26390897325744533 -0.3129719682857696
vn 0.9408599902917364 -0.10322899893483159 -0.32268599667036457
vn -0.25922996528846187 -0.47437093648054984 -0.8412918873489206
vn 0.945768566929835 -0.020370990672064396 -0.32420185154703357
vn 0 -0.25177401398957167 -0.9677860537740657
vn 0.00003200000094808004 -0.09848000291771633 -0.9951390294834821
vn 0.0000640000036283843 -0.019946001130808643 -0.9998010566822229
vn 0 -0.40015192142917755 -0.9164488200530007
vn 0.7230390181229732 -0.4121820103313422 -0.5543650138951592
vn 0.6936381288290748 -0.48585909023837426 -0.5317960987702327
vn 0.7662351930169682 -0.2601880655421625 -0.5875251479993661
vn 0.7895460944293237 -0.1019540121936496 -0.6051630723772051
vn 0 -0.47203927745296775 -0.8815775181693779
vn 0.7936411614242478 -0.020097004087670758 -0.6080541236763972
vn 0.2694560900887516 -0.40204713441865214 -0.8750722925677813
vn 0.2845531480282853 -0.25303913163428005 -0.9246624810215683
vn 0.2927781294868655 -0.09892404375109702 -0.9510494206202447
vn 0.25922996528846187 -0.47437093648054984 -0.8412918873489206
vn 0.5486739754665925 -0.25610398854856653 -0.7958439644146338
vn 0.5182818040166965 -0.40651884627878926 -0.7524137154819552
vn 0.5647111317612402 -0.10025002339083945 -0.8191771911345405
vn 0.5673330169584352 -0.019732000589819106 -0.8232520246082383
vn 0.2942530205350362 -0.01972100137626957 -0.9555240666831604
vn 0.4975160334228794 -0.4797070322264796 -0.7227440485535854
usemtl material_0_0
f 1//1 2//2 3//3
f 2//2 1//1 4//4
f 5//5 3//3 2//2
f 3//3 6//6 1//1
f 7//7 4//4 1//1
f 4//4 8//8 2//2
f 3//3 5//5 9//9
f 2//2 10//10 5//5
f 6//6 3//3 11//11
f 12//12 1//1 6//6
f 4//4 7//7 13//13
f 1//1 12//12 7//7
f 8//8 4//4 14//14
f 10//10 2//2 8//8
f 5//5 15//15 9//9
f 9//9 11//11 3//3
f 10//10 16//16 5//5
f 11//11 17//17 6//6
f 6//6 18//18 12//12
f 19//19 13//13 7//7
f 13//13 14//14 4//4
f 20//20 7//7 12//12
f 15//15 5//5 16//16
f 21//21 9//9 15//15
f 11//11 9//9 22//22
f 16//16 10//10 23//23
f 17//17 11//11 24//24
f 18//18 6//6 17//17
f 25//25 12//12 18//18
f 13//13 19//19 26//26
f 7//7 20//20 19//19
f 14//14 13//13 27//27
f 12//12 25//25 20//20
f 16//16 28//28 15//15
f 9//9 21//21 22//22
f 15//15 29//29 21//21
f 22//22 24//24 11//11
f 23//23 30//30 16//16
f 19//19 31//31 26//26
f 26//26 27//27 13//13
f 20//20 32//32 19//19
f 25//25 33//33 20//20
f 28//28 16//16 30//30
f 29//29 15//15 28//28
f 34//34 22//22 21//21
f 35//35 21//21 29//29
f 24//24 22//22 36//36
f 30//30 23//23 37//37
f 31//31 19//19 32//32
f 38//38 26//26 31//31
f 27//27 26//26 39//39
f 32//32 20//20 33//33
f 33//33 25//25 40//40
f 30//30 41//41 28//28
f 28//28 42//42 29//29
f 22//22 34//34 36//36
f 21//21 35//35 34//34
f 29//29 43//43 35//35
f 37//37 44//44 30//30
f 32//32 45//45 31//31
f 26//26 38//38 39//39
f 31//31 46//46 38//38
f 33//33 47//47 32//32
f 40//40 48//48 33//33
f 41//41 30//30 44//44
f 42//42 28//28 41//41
f 43//43 29//29 42//42
f 44//44 37//37 49//49
f 45//45 32//32 47//47
f 46//46 31//31 45//45
f 47//47 33//33 48//48
f 48//48 40//40 50//50
f 44//44 51//51 41//41
f 41//41 52//52 42//42
f 42//42 53//53 43//43
f 49//49 54//54 44//44
f 47//47 55//55 45//45
f 45//45 56//56 46//46
f 48//48 57//57 47//47
f 50//50 58//58 48//48
f 51//51 44//44 54//54
f 52//52 41//41 51//51
f 53//53 42//42 52//52
f 54//54 49//49 59//59
f 55//55 47//47 57//57
f 56//56 45//45 55//55
f 57//57 48//48 58//58
f 58//58 50//50 60//60
f 54//54 61//61 51//51
f 51//51 62//62 52//52
f 52//52 63//63 53//53
f 59//59 64//64 54//54
f 57//57 65//65 55//55
f 55//55 66//66 56//56
f 58//58 67//67 57//57
f 60//60 68//68 58//58
f 61//61 54//54 64//64
f 62//62 51//51 61//61
f 63//63 52//52 62//62
f 64//64 59//59 69//69
f 65//65 57//57 67//67
f 66//66 55//55 65//65
f 67//67 58//58 68//68
f 68//68 60//60 70//70
f 64//64 71//71 61//61
f 61//61 72//72 62//62
f 62//62 73//73 63//63
f 69//69 74//74 64//64
f 67//67 75//75 65//65
f 65//65 76//76 66//66
f 68//68 77//77 67//67
f 70//70 78//78 68//68
f 71//71 64//64 74//74
f 72//72 61//61 71//71
f 73//73 62//62 72//72
f 74//74 69//69 79//79
f 75//75 67//67 77//77
f 76//76 65//65 75//75
f 77//77 68//68 78//78
f 78//78 70//70 80//80
f 74//74 81//81 71//71
f 71//71 82//82 72//72
f 72//72 83//83 73//73
f 79//79 84//84 74//74
f 77//77 85//85 75//75
f 75//75 86//86 76//76
f 78//78 87//87 77//77
f 80//80 88//88 78//78
f 81//81 74//74 84//84
f 82//82 71//71 81//81
f 83//83 72//72 82//82
f 84//84 79//79 89//89
f 85//85 77//77 87//87
f 86//86 75//75 85//85
f 87//87 78//78 88//88
f 88//88 80//80 90//90
f 91//91 81//81 84//84
f 92//92 82//82 81//81
f 93//93 83//83 82//82
f 94//94 84//84 89//89
f 95//95 85//85 87//87
f 96//96 86//86 85//85
f 97//97 87//87 88//88
f 98//98 88//88 90//90
f 81//81 91//91 92//92
f 84//84 94//94 91//91
f 82//82 92//92 93//93
f 83//83 93//93 99//99
f 85//85 95//95 96//96
f 87//87 97//97 95//95
f 86//86 96//96 100//100
f 88//88 98//98 97//97
f 96//96 92//92 91//91
f 100//100 91//91 94//94
f 95//95 93//93 92//92
f 97//97 99//99 93//93
f 92//92 96//96 95//95
f 93//93 95//95 97//97
f 91//91 100//100 96//96
f 99//99 97//97 98//98
usemtl material_1_0
f 3//101 2//102 1//103
f 4//104 1//103 2//102
f 2//102 3//101 5//105
f 1//103 6//106 3//101
f 1//103 4//104 7//107
f 2//102 8//108 4//104
f 9//109 5//105 3//101
f 5//105 10//110 2//102
f 11//111 3//101 6//106
f 6//106 1//103 12//112
f 13//113 7//107 4//104
f 7//107 12//112 1//103
f 14//114 4//104 8//108
f 8//108 2//102 10//110
f 9//109 15//115 5//105
f 3//101 11//111 9//109
f 5//105 16//116 10//110
f 6//106 17//117 11//111
f 12//112 18//118 6//106
f 7//107 13//113 19//119
f 4//104 14//114 13//113
f 12//112 7//107 20//120
f 16//116 5//105 15//115
f 15//115 9//109 21//121
f 22//122 9//109 11//111
f 23//123 10//110 16//116
f 24//124 11//111 17//117
f 17//117 6//106 18//118
f 18//118 12//112 25//125
f 26//126 19//119 13//113
f 19//119 20//120 7//107
f 27//127 13//113 14//114
f 20//120 25//125 12//112
f 15//115 28//128 16//116
f 22//122 21//121 9//109
f 21//121 29//129 15//115
f 11//111 24//124 22//122
f 16//116 30//130 23//123
f 26//126 31//131 19//119
f 13//113 27//127 26//126
f 19//119 32//132 20//120
f 20//120 33//133 25//125
f 30//130 16//116 28//128
f 28//128 15//115 29//129
f 21//121 22//122 34//134
f 29//129 21//121 35//135
f 36//136 22//122 24//124
f 37//137 23//123 30//130
f 32//132 19//119 31//131
f 31//131 26//126 38//138
f 39//139 26//126 27//127
f 33//133 20//120 32//132
f 40//140 25//125 33//133
f 28//128 41//141 30//130
f 29//129 42//142 28//128
f 36//136 34//134 22//122
f 34//134 35//135 21//121
f 35//135 43//143 29//129
f 30//130 44//144 37//137
f 31//131 45//145 32//132
f 39//139 38//138 26//126
f 38//138 46//146 31//131
f 32//132 47//147 33//133
f 33//133 48//148 40//140
f 44//144 30//130 41//141
f 41//141 28//128 42//142
f 42//142 29//129 43//143
f 49//149 37//137 44//144
f 47//147 32//132 45//145
f 45//145 31//131 46//146
f 48//148 33//133 47//147
f 50//150 40//140 48//148
f 41//141 51//151 44//144
f 42//142 52//152 41//141
f 43//143 53//153 42//142
f 44//144 54//154 49//149
f 45//145 55//155 47//147
f 46//146 56//156 45//145
f 47//147 57//157 48//148
f 48//148 58//158 50//150
f 54//154 44//144 51//151
f 51//151 41//141 52//152
f 52//152 42//142 53//153
f 59//159 49//149 54//154
f 57//157 47//147 55//155
f 55//155 45//145 56//156
f 58//158 48//148 57//157
f 60//160 50//150 58//158
f 51//151 61//161 54//154
f 52//152 62//162 51//151
f 53//153 63//163 52//152
f 54//154 64//164 59//159
f 55//155 65//165 57//157
f 56//156 66//166 55//155
f 57//157 67//167 58//158
f 58//158 68//168 60//160
f 64//164 54//154 61//161
f 61//161 51//151 62//162
f 62//162 52//152 63//163
f 69//169 59//159 64//164
f 67//167 57//157 65//165
f 65//165 55//155 66//166
f 68//168 58//158 67//167
f 70//170 60//160 68//168
f 61//161 71//171 64//164
f 62//162 72//172 61//161
f 63//163 73//173 62//162
f 64//164 74//174 69//169
f 65//165 75//175 67//167
f 66//166 76//176 65//165
f 67//167 77//177 68//168
f 68//168 78//178 70//170
f 74//174 64//164 71//171
f 71//171 61//161 72//172
f 72//172 62//162 73//173
f 79//179 69//169 74//174
f 77//177 67//167 75//175
f 75//175 65//165 76//176
f 78//178 68//168 77//177
f 80//180 70//170 78//178
f 71//171 81//181 74//174
f 72//172 82//182 71//171
f 73//173 83//183 72//172
f 74//174 84//184 79//179
f 75//175 85//185 77//177
f 76//176 86//186 75//175
f 77//177 87//187 78//178
f 78//178 88//188 80//180
f 84//184 74//174 81//181
f 81//181 71//171 82//182
f 82//182 72//172 83//183
f 89//189 79//179 84//184
f 87//187 77//177 85//185
f 85//185 75//175 86//186
f 88//188 78//178 87//187
f 90//190 80//180 88//188
f 84//184 81//181 91//191
f 81//181 82//182 92//192
f 82//182 83//183 93//193
f 89//189 84//184 94//194
f 87//187 85//185 95//195
f 85//185 86//186 96//196
f 88//188 87//187 97//197
f 90//190 88//188 98//198
f 92//192 91//191 81//181
f 91//191 94//194 84//184
f 93//193 92//192 82//182
f 99//199 93//193 83//183
f 96//196 95//195 85//185
f 95//195 97//197 87//187
f 100//200 96//196 86//186
f 97//197 98//198 88//188
f 91//191 92//192 96//196
f 94//194 91//191 100//200
f 92//192 93//193 95//195
f 93//193 99//199 97//197
f 95//195 96//196 92//192
f 97//197 95//195 93//193
f 96//196 100//200 91//191
f 98//198 97//197 99//199
