# SSTK version 0.8.0
# 53
mtllib original-53.mtl
o _8_1/_8/mesh54/mesh54-geometry#mesh54-geometry
v 0.614184 -0.034605 0.516508
v 0.614295 -0.038479 0.516508
v 0.614017 -0.036290 0.516508
v 0.614682 -0.033066 0.516508
v 0.615127 -0.040269 0.516508
v 0.615513 -0.031673 0.516508
v 0.616535 -0.041797 0.516508
v 0.616677 -0.030427 0.516508
v 0.618540 -0.043200 0.516508
v 0.618205 -0.035809 0.516508
v 0.618095 -0.029401 0.516508
v 0.618391 -0.037238 0.516508
v 0.618569 -0.033893 0.516508
v 0.618949 -0.038426 0.516508
v 0.619692 -0.028668 0.516508
v 0.618540 -0.043326 0.516508
v 0.619661 -0.032417 0.516508
v 0.619519 -0.045658 0.516508
v 0.621323 -0.031474 0.516508
v 0.618394 -0.047210 0.516508
v 0.619878 -0.039442 0.516508
v 0.621467 -0.028229 0.516508
v 0.617703 -0.049014 0.516508
v 0.621053 -0.044373 0.516508
v 0.623398 -0.031160 0.516508
v 0.616271 -0.044800 0.516508
v 0.621179 -0.040353 0.516508
v 0.623419 -0.028082 0.516508
v 0.617472 -0.051053 0.516508
v 0.623723 -0.045462 0.516508
v 0.625618 -0.031511 0.516508
v 0.617425 -0.059151 0.516508
v 0.623157 -0.041337 0.516508
v 0.625439 -0.028221 0.516508
v 0.615944 -0.058005 0.516508
v 0.617899 -0.053634 0.516508
v 0.625576 -0.042321 0.516508
v 0.627249 -0.028640 0.516508
v 0.614784 -0.056631 0.516508
v 0.619189 -0.059994 0.516508
v 0.625618 -0.046320 0.516508
v 0.627293 -0.032563 0.516508
v 0.614614 -0.046708 0.516508
v 0.618432 -0.054739 0.516508
v 0.627105 -0.040900 0.516508
v 0.628847 -0.029336 0.516508
v 0.613944 -0.055021 0.516508
v 0.619179 -0.055722 0.516508
v 0.627424 -0.047483 0.516508
v 0.628345 -0.034139 0.516508
v 0.613601 -0.048935 0.516508
v 0.620087 -0.056528 0.516508
v 0.628047 -0.039442 0.516508
v 0.628696 -0.036060 0.516508
v 0.613434 -0.053244 0.516508
v 0.621200 -0.060512 0.516508
v 0.628047 -0.043494 0.516508
v 0.630081 -0.041991 0.516508
v 0.613264 -0.051367 0.516508
v 0.621103 -0.057104 0.516508
v 0.628047 -0.043368 0.516508
v 0.628528 -0.048624 0.516508
v 0.628534 -0.037858 0.516508
v 0.630235 -0.030312 0.516508
v 0.622228 -0.057450 0.516508
v 0.630439 -0.044907 0.516508
v 0.631575 -0.040164 0.516508
v 0.623419 -0.060685 0.516508
v 0.629094 -0.049953 0.516508
v 0.631357 -0.031505 0.516508
v 0.623461 -0.057565 0.516508
v 0.629282 -0.051681 0.516508
v 0.632159 -0.032854 0.516508
v 0.625506 -0.060516 0.516508
v 0.630675 -0.057984 0.516508
v 0.632494 -0.038102 0.516508
v 0.625838 -0.057170 0.516508
v 0.629134 -0.059166 0.516508
v 0.632172 -0.046593 0.516508
v 0.632640 -0.034358 0.516508
v 0.627411 -0.060010 0.516508
v 0.628884 -0.054118 0.516508
v 0.631944 -0.056552 0.516508
v 0.632800 -0.036018 0.516508
v 0.627691 -0.055984 0.516508
v 0.632850 -0.054958 0.516508
v 0.633224 -0.048676 0.516508
v 0.633394 -0.053202 0.516508
v 0.633575 -0.051283 0.516508
vn 0 0 -1
vn 0 0 1
usemtl material_0_0
f 1//1 2//1 3//1
f 2//1 1//1 4//1
f 3//2 2//2 1//2
f 4//2 1//2 2//2
f 2//1 4//1 5//1
f 5//2 4//2 2//2
f 5//1 4//1 6//1
f 6//2 4//2 5//2
f 5//1 6//1 7//1
f 7//2 6//2 5//2
f 7//1 6//1 8//1
f 8//2 6//2 7//2
f 7//1 8//1 9//1
f 9//2 8//2 7//2
f 9//1 8//1 10//1
f 10//2 8//2 9//2
f 10//1 8//1 11//1
f 11//2 8//2 10//2
f 9//1 10//1 12//1
f 12//2 10//2 9//2
f 11//1 13//1 10//1
f 10//2 13//2 11//2
f 9//1 12//1 14//1
f 14//2 12//2 9//2
f 13//1 11//1 15//1
f 15//2 11//2 13//2
f 9//1 14//1 16//1
f 16//2 14//2 9//2
f 13//1 15//1 17//1
f 17//2 15//2 13//2
f 18//1 16//1 14//1
f 14//2 16//2 18//2
f 17//1 15//1 19//1
f 19//2 15//2 17//2
f 20//1 16//1 18//1
f 18//2 16//2 20//2
f 18//1 14//1 21//1
f 21//2 14//2 18//2
f 19//1 15//1 22//1
f 22//2 15//2 19//2
f 23//1 16//1 20//1
f 20//2 16//2 23//2
f 18//1 21//1 24//1
f 24//2 21//2 18//2
f 19//1 22//1 25//1
f 25//2 22//2 19//2
f 23//1 26//1 16//1
f 16//2 26//2 23//2
f 24//1 21//1 27//1
f 27//2 21//2 24//2
f 25//1 22//1 28//1
f 28//2 22//2 25//2
f 29//1 26//1 23//1
f 23//2 26//2 29//2
f 24//1 27//1 30//1
f 30//2 27//2 24//2
f 25//1 28//1 31//1
f 31//2 28//2 25//2
f 32//1 26//1 29//1
f 29//2 26//2 32//2
f 30//1 27//1 33//1
f 33//2 27//2 30//2
f 31//1 28//1 34//1
f 34//2 28//2 31//2
f 35//1 26//1 32//1
f 32//2 26//2 35//2
f 36//1 32//1 29//1
f 29//2 32//2 36//2
f 30//1 33//1 37//1
f 37//2 33//2 30//2
f 31//1 34//1 38//1
f 38//2 34//2 31//2
f 39//1 26//1 35//1
f 35//2 26//2 39//2
f 32//1 36//1 40//1
f 40//2 36//2 32//2
f 30//1 37//1 41//1
f 41//2 37//2 30//2
f 31//1 38//1 42//1
f 42//2 38//2 31//2
f 39//1 43//1 26//1
f 26//2 43//2 39//2
f 40//1 36//1 44//1
f 44//2 36//2 40//2
f 41//1 37//1 45//1
f 45//2 37//2 41//2
f 42//1 38//1 46//1
f 46//2 38//2 42//2
f 47//1 43//1 39//1
f 39//2 43//2 47//2
f 40//1 44//1 48//1
f 48//2 44//2 40//2
f 41//1 45//1 49//1
f 49//2 45//2 41//2
f 42//1 46//1 50//1
f 50//2 46//2 42//2
f 47//1 51//1 43//1
f 43//2 51//2 47//2
f 40//1 48//1 52//1
f 52//2 48//2 40//2
f 49//1 45//1 53//1
f 53//2 45//2 49//2
f 50//1 46//1 54//1
f 54//2 46//2 50//2
f 55//1 51//1 47//1
f 47//2 51//2 55//2
f 40//1 52//1 56//1
f 56//2 52//2 40//2
f 49//1 53//1 57//1
f 57//2 53//2 49//2
f 58//1 54//1 46//1
f 46//2 54//2 58//2
f 51//1 55//1 59//1
f 59//2 55//2 51//2
f 56//1 52//1 60//1
f 60//2 52//2 56//2
f 57//1 53//1 61//1
f 61//2 53//2 57//2
f 49//1 57//1 62//1
f 62//2 57//2 49//2
f 58//1 63//1 54//1
f 54//2 63//2 58//2
f 58//1 46//1 64//1
f 64//2 46//2 58//2
f 56//1 60//1 65//1
f 65//2 60//2 56//2
f 63//1 61//1 53//1
f 53//2 61//2 63//2
f 62//1 57//1 66//1
f 66//2 57//2 62//2
f 61//1 63//1 58//1
f 58//2 63//2 61//2
f 58//1 64//1 67//1
f 67//2 64//2 58//2
f 56//1 65//1 68//1
f 68//2 65//2 56//2
f 62//1 66//1 69//1
f 69//2 66//2 62//2
f 67//1 64//1 70//1
f 70//2 64//2 67//2
f 68//1 65//1 71//1
f 71//2 65//2 68//2
f 69//1 66//1 72//1
f 72//2 66//2 69//2
f 67//1 70//1 73//1
f 73//2 70//2 67//2
f 68//1 71//1 74//1
f 74//2 71//2 68//2
f 75//1 72//1 66//1
f 66//2 72//2 75//2
f 67//1 73//1 76//1
f 76//2 73//2 67//2
f 74//1 71//1 77//1
f 77//2 71//2 74//2
f 78//1 72//1 75//1
f 75//2 72//2 78//2
f 75//1 66//1 79//1
f 79//2 66//2 75//2
f 76//1 73//1 80//1
f 80//2 73//2 76//2
f 74//1 77//1 81//1
f 81//2 77//2 74//2
f 78//1 82//1 72//1
f 72//2 82//2 78//2
f 75//1 79//1 83//1
f 83//2 79//2 75//2
f 76//1 80//1 84//1
f 84//2 80//2 76//2
f 81//1 77//1 85//1
f 85//2 77//2 81//2
f 78//1 85//1 82//1
f 82//2 85//2 78//2
f 83//1 79//1 86//1
f 86//2 79//2 83//2
f 81//1 85//1 78//1
f 78//2 85//2 81//2
f 86//1 79//1 87//1
f 87//2 79//2 86//2
f 86//1 87//1 88//1
f 88//2 87//2 86//2
f 88//1 87//1 89//1
f 89//2 87//2 88//2
