# SSTK version 0.8.0
# 25
mtllib original-25.mtl
o mesh28/mesh28-geometry#mesh28-geometry
v 0.119474 0.132276 -0.487575
v 0.145962 0.128161 -0.487561
v 0.158187 0.128224 -0.487561
v 0.117663 0.124895 -0.487550
v 0.158187 0.077067 -0.487383
v 0.185717 0.127628 -0.487559
v 0.140742 0.127111 -0.487557
v 0.145962 0.103021 -0.487473
v 0.182919 0.136625 -0.487590
v 0.163547 0.127049 -0.487557
v 0.136996 0.125215 -0.487551
v 0.119493 0.098508 -0.487457
v 0.122491 0.138704 -0.487598
v 0.186650 0.115811 -0.487518
v 0.133376 0.120967 -0.487536
v 0.118141 0.103774 -0.487476
v 0.121386 0.093994 -0.487442
v 0.178092 0.143560 -0.487615
v 0.167340 0.124901 -0.487550
v 0.117060 0.116563 -0.487520
v 0.139614 0.104393 -0.487478
v 0.126683 0.086706 -0.487416
v 0.126715 0.144179 -0.487617
v 0.170584 0.120638 -0.487535
v 0.132169 0.115497 -0.487517
v 0.135366 0.107002 -0.487487
v 0.133924 0.081392 -0.487398
v 0.131914 0.148554 -0.487632
v 0.171666 0.115247 -0.487516
v 0.132968 0.110741 -0.487500
v 0.138340 0.079500 -0.487391
v 0.171070 0.149195 -0.487634
v 0.185560 0.102347 -0.487471
v 0.143375 0.078148 -0.487386
v 0.166833 0.151375 -0.487642
v 0.171196 0.111579 -0.487503
v 0.155303 0.077067 -0.487383
v 0.137858 0.151679 -0.487643
v 0.169785 0.108100 -0.487491
v 0.162238 0.152933 -0.487647
v 0.165585 0.103648 -0.487475
v 0.144547 0.153554 -0.487650
v 0.167904 0.078508 -0.487388
v 0.151980 0.154179 -0.487652
v 0.184199 0.096944 -0.487452
v 0.182292 0.092426 -0.487436
v 0.179759 0.088500 -0.487422
v 0.176517 0.084872 -0.487410
vn 0 0.0034905505301866535 0.999993908009942
vn 0 -0.0034905505301866535 -0.999993908009942
usemtl material_0_0
f 1//1 2//1 3//1
f 2//1 1//1 4//1
f 3//2 2//2 1//2
f 4//2 1//2 2//2
f 2//1 5//1 3//1
f 3//2 5//2 2//2
f 6//1 1//1 3//1
f 3//2 1//2 6//2
f 2//1 4//1 7//1
f 7//2 4//2 2//2
f 5//1 2//1 8//1
f 8//2 2//2 5//2
f 9//1 1//1 6//1
f 6//2 1//2 9//2
f 6//1 3//1 10//1
f 10//2 3//2 6//2
f 7//1 4//1 11//1
f 11//2 4//2 7//2
f 5//1 8//1 12//1
f 12//2 8//2 5//2
f 9//1 13//1 1//1
f 1//2 13//2 9//2
f 6//1 10//1 14//1
f 14//2 10//2 6//2
f 11//1 4//1 15//1
f 15//2 4//2 11//2
f 8//1 16//1 12//1
f 12//2 16//2 8//2
f 5//1 12//1 17//1
f 17//2 12//2 5//2
f 18//1 13//1 9//1
f 9//2 13//2 18//2
f 14//1 10//1 19//1
f 19//2 10//2 14//2
f 15//1 4//1 20//1
f 20//2 4//2 15//2
f 21//1 16//1 8//1
f 8//2 16//2 21//2
f 5//1 17//1 22//1
f 22//2 17//2 5//2
f 18//1 23//1 13//1
f 13//2 23//2 18//2
f 14//1 19//1 24//1
f 24//2 19//2 14//2
f 15//1 20//1 25//1
f 25//2 20//2 15//2
f 26//1 16//1 21//1
f 21//2 16//2 26//2
f 5//1 22//1 27//1
f 27//2 22//2 5//2
f 18//1 28//1 23//1
f 23//2 28//2 18//2
f 14//1 24//1 29//1
f 29//2 24//2 14//2
f 25//1 20//1 16//1
f 16//2 20//2 25//2
f 30//1 16//1 26//1
f 26//2 16//2 30//2
f 5//1 27//1 31//1
f 31//2 27//2 5//2
f 32//1 28//1 18//1
f 18//2 28//2 32//2
f 14//1 29//1 33//1
f 33//2 29//2 14//2
f 25//1 16//1 30//1
f 30//2 16//2 25//2
f 5//1 31//1 34//1
f 34//2 31//2 5//2
f 35//1 28//1 32//1
f 32//2 28//2 35//2
f 33//1 29//1 36//1
f 36//2 29//2 33//2
f 5//1 34//1 37//1
f 37//2 34//2 5//2
f 35//1 38//1 28//1
f 28//2 38//2 35//2
f 33//1 36//1 39//1
f 39//2 36//2 33//2
f 40//1 38//1 35//1
f 35//2 38//2 40//2
f 33//1 39//1 41//1
f 41//2 39//2 33//2
f 40//1 42//1 38//1
f 38//2 42//2 40//2
f 33//1 41//1 43//1
f 43//2 41//2 33//2
f 42//1 40//1 44//1
f 44//2 40//2 42//2
f 33//1 43//1 45//1
f 45//2 43//2 33//2
f 45//1 43//1 46//1
f 46//2 43//2 45//2
f 46//1 43//1 47//1
f 47//2 43//2 46//2
f 47//1 43//1 48//1
f 48//2 43//2 47//2
