mtllib new-12.mtl
v 0.702246 0.169158 0.158048
v 0.684760 0.169158 0.140562
v 0.702246 0.169158 -0.279102
v 0.684760 0.169158 -0.261616
v 0.702246 -0.405382 -0.279102
v 0.684760 -0.305462 0.140562
v 0.652333 -0.305462 0.140562
v 0.702246 -0.405382 -0.229142
v 0.684760 -0.305462 -0.261616
v 0.702246 -0.350700 0.108088
v 0.702246 -0.350700 -0.229142
v 0.702246 -0.405382 0.108088
v 0.702246 -0.350700 0.084755
v 0.702246 -0.350700 -0.205810
v 0.702246 -0.346273 0.077755
v 0.702246 -0.346273 -0.198810
v 0.702246 -0.340733 0.066697
v 0.702246 -0.340733 -0.187751
v 0.702246 -0.336372 0.055224
v 0.702246 -0.336372 -0.176279
v 0.702246 -0.333230 0.043437
v 0.702246 -0.333230 -0.164492
v 0.702246 -0.331334 0.031439
v 0.702246 -0.331334 -0.152494
v 0.702246 -0.330700 0.019335
v 0.702246 -0.330700 -0.140390
v 0.702246 -0.331334 0.007232
v 0.702246 -0.331334 -0.128287
v 0.702246 -0.333230 -0.004766
v 0.702246 -0.333230 -0.116289
v 0.702246 -0.336372 -0.016553
v 0.702246 -0.336372 -0.104502
v 0.702246 -0.340733 -0.028026
v 0.702246 -0.340733 -0.093029
v 0.702246 -0.343572 -0.033693
v 0.702246 -0.343613 -0.087279
v 0.702246 -0.340596 -0.037672
v 0.702246 -0.340631 -0.083303
v 0.702246 -0.338113 -0.041914
v 0.702246 -0.338142 -0.079064
v 0.702246 -0.336153 -0.046369
v 0.702246 -0.336175 -0.074612
v 0.702246 -0.334738 -0.050986
v 0.702246 -0.334753 -0.069996
v 0.702246 -0.333884 -0.055712
v 0.702246 -0.333891 -0.065272
v 0.702246 -0.333601 -0.060492
vn -1.000000 0.000000 0.000000
vn 1.000000 0.000000 0.000000
vn 0.000000 0.000000 -1.000000
vn 0.000000 0.000000 1.000000
vn 0.000000 -1.000000 0.000000
vn 0.000000 1.000000 0.000000
vt 0.034722 0.000000
vt 0.000000 0.399306
vt 0.331597 0.000000
vt 0.034722 0.038004
vt 0.319444 0.012153
vt 0.331597 0.303819
vt 0.319444 0.291667
vt -0.319444 0.399306
vt -0.012153 0.399306
vt -0.291667 0.399306
vt -0.012153 0.069444
vt -0.296907 0.069444
vt 0.303819 0.399306
vt 0.269097 0.000000
vt 0.303819 0.000000
vt -0.291667 0.069444
vt -0.319444 0.069444
vt 0.269097 0.038004
vt 0.050938 0.038004
vt 0.252881 0.038004
vt 0.055803 0.041081
vt 0.248016 0.041081
vt 0.063489 0.044931
vt 0.240330 0.044931
vt 0.071463 0.047962
vt 0.232357 0.047962
vt 0.079655 0.050145
vt 0.224165 0.050145
vt 0.087993 0.051463
vt 0.215826 0.051463
vt 0.096405 0.051904
vt 0.207414 0.051904
vt 0.104817 0.051463
vt 0.199002 0.051463
vt 0.113155 0.050145
vt 0.190664 0.050145
vt 0.121347 0.047962
vt 0.182472 0.047962
vt 0.129321 0.044931
vt 0.174498 0.044931
vt 0.133260 0.042958
vt 0.170502 0.042929
vt 0.136026 0.045027
vt 0.167738 0.045002
vt 0.138974 0.046752
vt 0.164793 0.046732
vt 0.142070 0.048114
vt 0.161698 0.048099
vt 0.151885 0.049888
vt 0.155207 0.049686
vt 0.145278 0.049098
vt 0.158491 0.049087
vt 0.148563 0.049691
usemtl material-0
f 2/5/6 1/3/6 4/7/6
f 4/7/5 1/3/5 2/5/5
f 3/6/6 4/7/6 1/3/6
f 1/3/5 4/7/5 3/6/5
f 4/10/1 6/11/1 2/9/1
f 2/9/2 6/11/2 4/10/2
f 3/13/2 8/14/2 5/15/2
f 5/15/1 8/14/1 3/13/1
f 1/2/2 10/4/2 3/13/2
f 3/13/1 10/4/1 1/2/1
f 6/11/1 4/10/1 9/16/1
f 9/16/2 4/10/2 6/11/2
f 7/12/3 2/8/3 6/17/3
f 6/17/4 2/8/4 7/12/4
f 3/13/2 11/18/2 8/14/2
f 8/14/1 11/18/1 3/13/1
f 1/2/2 12/1/2 10/4/2
f 10/4/1 12/1/1 1/2/1
f 3/13/2 10/4/2 13/19/2
f 13/19/1 10/4/1 3/13/1
f 3/13/2 14/20/2 11/18/2
f 11/18/1 14/20/1 3/13/1
f 3/13/2 13/19/2 15/21/2
f 15/21/1 13/19/1 3/13/1
f 3/13/2 16/22/2 14/20/2
f 14/20/1 16/22/1 3/13/1
f 3/13/2 15/21/2 17/23/2
f 17/23/1 15/21/1 3/13/1
f 3/13/2 18/24/2 16/22/2
f 16/22/1 18/24/1 3/13/1
f 3/13/2 17/23/2 19/25/2
f 19/25/1 17/23/1 3/13/1
f 3/13/2 20/26/2 18/24/2
f 18/24/1 20/26/1 3/13/1
f 3/13/2 19/25/2 21/27/2
f 21/27/1 19/25/1 3/13/1
f 3/13/2 22/28/2 20/26/2
f 20/26/1 22/28/1 3/13/1
f 3/13/2 21/27/2 23/29/2
f 23/29/1 21/27/1 3/13/1
f 3/13/2 24/30/2 22/28/2
f 22/28/1 24/30/1 3/13/1
f 3/13/2 23/29/2 25/31/2
f 25/31/1 23/29/1 3/13/1
f 3/13/2 26/32/2 24/30/2
f 24/30/1 26/32/1 3/13/1
f 3/13/2 25/31/2 27/33/2
f 27/33/1 25/31/1 3/13/1
f 3/13/2 28/34/2 26/32/2
f 26/32/1 28/34/1 3/13/1
f 3/13/2 27/33/2 29/35/2
f 29/35/1 27/33/1 3/13/1
f 3/13/2 30/36/2 28/34/2
f 28/34/1 30/36/1 3/13/1
f 3/13/2 29/35/2 31/37/2
f 31/37/1 29/35/1 3/13/1
f 3/13/2 32/38/2 30/36/2
f 30/36/1 32/38/1 3/13/1
f 3/13/2 31/37/2 33/39/2
f 33/39/1 31/37/1 3/13/1
f 3/13/2 34/40/2 32/38/2
f 32/38/1 34/40/1 3/13/1
f 3/13/2 33/39/2 35/41/2
f 35/41/1 33/39/1 3/13/1
f 3/13/2 36/42/2 34/40/2
f 34/40/1 36/42/1 3/13/1
f 3/13/2 35/41/2 37/43/2
f 37/43/1 35/41/1 3/13/1
f 3/13/2 38/44/2 36/42/2
f 36/42/1 38/44/1 3/13/1
f 3/13/2 37/43/2 39/45/2
f 39/45/1 37/43/1 3/13/1
f 3/13/2 40/46/2 38/44/2
f 38/44/1 40/46/1 3/13/1
f 3/13/2 39/45/2 41/47/2
f 41/47/1 39/45/1 3/13/1
f 3/13/2 42/48/2 40/46/2
f 40/46/1 42/48/1 3/13/1
f 3/13/2 41/47/2 43/51/2
f 43/51/1 41/47/1 3/13/1
f 3/13/2 44/52/2 42/48/2
f 42/48/1 44/52/1 3/13/1
f 3/13/2 43/51/2 45/53/2
f 45/53/1 43/51/1 3/13/1
f 3/13/2 46/50/2 44/52/2
f 44/52/1 46/50/1 3/13/1
f 3/13/2 45/53/2 47/49/2
f 47/49/1 45/53/1 3/13/1
f 3/13/2 47/49/2 46/50/2
f 46/50/1 47/49/1 3/13/1