# SSTK version 0.8.0
# 10
mtllib original-10.mtl
o #ID387
v 0.423334 0.680134 0.566837
v 0.422653 0.667252 0.566837
v 0.422653 0.642836 0.566837
v 0.422608 0.667937 0.566837
v 0.421668 0.680465 0.566837
v 0.422540 0.668278 0.566837
v 0.422429 0.668607 0.566837
v 0.422275 0.668918 0.566837
v 0.422082 0.669208 0.566837
v 0.421852 0.669469 0.566837
v 0.421591 0.669698 0.566837
v 0.419973 0.680576 0.566837
v 0.421302 0.669892 0.566837
v 0.420990 0.670046 0.566837
v 0.420661 0.670157 0.566837
v 0.420320 0.670225 0.566837
v 0.419635 0.670270 0.566837
v -0.450429 0.680576 0.566837
v 0.078227 0.670270 0.566837
v -0.015106 0.670270 0.566837
v -0.108439 0.670270 0.566837
v -0.449847 0.670514 0.566837
v -0.449871 0.670620 0.566837
v -0.449905 0.670550 0.566837
v -0.449949 0.670484 0.566837
v -0.450002 0.670425 0.566837
v -0.450061 0.670372 0.566837
v -0.450127 0.670329 0.566837
v -0.450197 0.670294 0.566837
v -0.450091 0.670270 0.566837
v -0.449847 0.640194 0.566837
v -0.449847 0.670270 0.566837
v -0.451641 0.640464 0.566837
v -0.451698 0.680493 0.566837
v 0.432959 0.667589 0.566837
v 0.432868 0.640991 0.566837
v 0.432959 0.642531 0.566837
v 0.432848 0.669285 0.566837
v 0.432595 0.639474 0.566837
v 0.432517 0.670951 0.566837
v 0.432145 0.637999 0.566837
v 0.431971 0.672559 0.566837
v 0.431524 0.636588 0.566837
v 0.431219 0.674083 0.566837
v 0.430740 0.635260 0.566837
v 0.430276 0.675495 0.566837
v 0.429805 0.634034 0.566837
v 0.429156 0.676773 0.566837
v 0.428731 0.632928 0.566837
v 0.427878 0.677893 0.566837
v 0.427534 0.631956 0.566837
v 0.426466 0.678836 0.566837
v 0.426230 0.631132 0.566837
v 0.424942 0.679587 0.566837
v 0.424839 0.630469 0.566837
v 0.423378 0.629974 0.566837
v 0.422616 0.642212 0.566837
v 0.421869 0.629656 0.566837
v 0.422560 0.641898 0.566837
v 0.422466 0.641593 0.566837
v 0.422338 0.641301 0.566837
v 0.422176 0.641026 0.566837
v 0.421982 0.640772 0.566837
v 0.421760 0.640543 0.566837
v 0.421512 0.640342 0.566837
v 0.421242 0.640172 0.566837
v 0.420954 0.640035 0.566837
v 0.420652 0.639932 0.566837
v 0.359033 0.620243 0.566837
v 0.420041 0.639803 0.566837
v 0.357644 0.630457 0.566837
v 0.284834 0.611172 0.566837
v 0.283722 0.621419 0.566837
v 0.210418 0.604110 0.566837
v 0.209582 0.614383 0.566837
v 0.135837 0.599062 0.566837
v 0.135280 0.609354 0.566837
v 0.061147 0.596031 0.566837
v 0.060869 0.606335 0.566837
v -0.013597 0.595021 0.566837
v -0.013597 0.605328 0.566837
v -0.088341 0.596031 0.566837
v -0.088063 0.606335 0.566837
v -0.162474 0.609354 0.566837
v -0.163031 0.599062 0.566837
v -0.236776 0.614383 0.566837
v -0.237611 0.604110 0.566837
v -0.310915 0.621419 0.566837
v -0.312028 0.611172 0.566837
v -0.384838 0.630457 0.566837
v -0.386227 0.620243 0.566837
v -0.449847 0.638394 0.566837
v -0.453456 0.630314 0.566837
v -0.449898 0.638667 0.566837
v -0.449983 0.638946 0.566837
v -0.450100 0.639213 0.566837
v -0.450248 0.639464 0.566837
v -0.450426 0.639696 0.566837
v -0.450628 0.639905 0.566837
v -0.450855 0.640089 0.566837
v -0.451102 0.640245 0.566837
v -0.451365 0.640371 0.566837
v -0.452945 0.680245 0.566837
v -0.454150 0.679836 0.566837
v -0.454367 0.630506 0.566837
v -0.455291 0.679273 0.566837
v -0.455249 0.630805 0.566837
v -0.456089 0.631205 0.566837
v -0.456348 0.678567 0.566837
v -0.456877 0.631703 0.566837
v -0.457305 0.677728 0.566837
v -0.457599 0.632290 0.566837
v -0.458144 0.676771 0.566837
v -0.458248 0.632958 0.566837
v -0.458850 0.675714 0.566837
v -0.458813 0.633698 0.566837
v -0.459286 0.634500 0.566837
v -0.459413 0.674573 0.566837
v -0.459661 0.635352 0.566837
v -0.459822 0.673369 0.566837
v -0.459933 0.636243 0.566837
v -0.460070 0.672121 0.566837
v -0.460098 0.637159 0.566837
v -0.460153 0.670852 0.566837
v -0.460153 0.638089 0.566837
v -0.449847 0.670514 0.566837
v -0.108439 0.670270 0.566837
v -0.449847 0.670270 0.566837
v -0.460153 0.638089 0.566837
v -0.460153 0.670852 0.566837
v -0.460098 0.637159 0.566837
v -0.460070 0.672121 0.566837
v -0.459933 0.636243 0.566837
v -0.459822 0.673369 0.566837
v -0.459661 0.635352 0.566837
v -0.459413 0.674573 0.566837
v -0.459286 0.634500 0.566837
v -0.458850 0.675714 0.566837
v -0.458813 0.633698 0.566837
v -0.458248 0.632958 0.566837
v -0.458144 0.676771 0.566837
v -0.457599 0.632290 0.566837
v -0.457305 0.677728 0.566837
v -0.456877 0.631703 0.566837
v -0.456348 0.678567 0.566837
v -0.456089 0.631205 0.566837
v -0.455291 0.679273 0.566837
v -0.455249 0.630805 0.566837
v -0.454367 0.630506 0.566837
v -0.454150 0.679836 0.566837
v -0.453456 0.630314 0.566837
v -0.452945 0.680245 0.566837
v -0.451698 0.680493 0.566837
v -0.451641 0.640464 0.566837
v -0.451365 0.640371 0.566837
v -0.451102 0.640245 0.566837
v -0.450855 0.640089 0.566837
v -0.450628 0.639905 0.566837
v -0.450426 0.639696 0.566837
v -0.450248 0.639464 0.566837
v -0.450100 0.639213 0.566837
v -0.449983 0.638946 0.566837
v -0.449898 0.638667 0.566837
v -0.449847 0.638394 0.566837
v -0.386227 0.620243 0.566837
v -0.449847 0.640194 0.566837
v -0.384838 0.630457 0.566837
v -0.312028 0.611172 0.566837
v -0.310915 0.621419 0.566837
v -0.237611 0.604110 0.566837
v -0.236776 0.614383 0.566837
v -0.163031 0.599062 0.566837
v -0.162474 0.609354 0.566837
v -0.088341 0.596031 0.566837
v -0.088063 0.606335 0.566837
v -0.013597 0.605328 0.566837
v -0.013597 0.595021 0.566837
v 0.060869 0.606335 0.566837
v 0.061147 0.596031 0.566837
v 0.135280 0.609354 0.566837
v 0.135837 0.599062 0.566837
v 0.209582 0.614383 0.566837
v 0.210418 0.604110 0.566837
v 0.283722 0.621419 0.566837
v 0.284834 0.611172 0.566837
v 0.357644 0.630457 0.566837
v 0.359033 0.620243 0.566837
v 0.420041 0.639803 0.566837
v 0.420652 0.639932 0.566837
v 0.421869 0.629656 0.566837
v 0.420954 0.640035 0.566837
v 0.421242 0.640172 0.566837
v 0.421512 0.640342 0.566837
v 0.421760 0.640543 0.566837
v 0.421982 0.640772 0.566837
v 0.422176 0.641026 0.566837
v 0.422338 0.641301 0.566837
v 0.422466 0.641593 0.566837
v 0.422560 0.641898 0.566837
v 0.422616 0.642212 0.566837
v 0.423378 0.629974 0.566837
v 0.422653 0.642836 0.566837
v 0.423334 0.680134 0.566837
v 0.424839 0.630469 0.566837
v 0.424942 0.679587 0.566837
v 0.426230 0.631132 0.566837
v 0.426466 0.678836 0.566837
v 0.427534 0.631956 0.566837
v 0.427878 0.677893 0.566837
v 0.428731 0.632928 0.566837
v 0.429156 0.676773 0.566837
v 0.429805 0.634034 0.566837
v 0.430276 0.675495 0.566837
v 0.430740 0.635260 0.566837
v 0.431219 0.674083 0.566837
v 0.431524 0.636588 0.566837
v 0.431971 0.672559 0.566837
v 0.432145 0.637999 0.566837
v 0.432517 0.670951 0.566837
v 0.432595 0.639474 0.566837
v 0.432848 0.669285 0.566837
v 0.432868 0.640991 0.566837
v 0.432959 0.667589 0.566837
v 0.432959 0.642531 0.566837
v -0.450429 0.680576 0.566837
v -0.450197 0.670294 0.566837
v -0.450091 0.670270 0.566837
v -0.450127 0.670329 0.566837
v -0.450061 0.670372 0.566837
v -0.450002 0.670425 0.566837
v -0.449949 0.670484 0.566837
v -0.449905 0.670550 0.566837
v -0.449871 0.670620 0.566837
v -0.015106 0.670270 0.566837
v 0.078227 0.670270 0.566837
v 0.419635 0.670270 0.566837
v 0.419973 0.680576 0.566837
v 0.420320 0.670225 0.566837
v 0.420661 0.670157 0.566837
v 0.420990 0.670046 0.566837
v 0.421302 0.669892 0.566837
v 0.421591 0.669698 0.566837
v 0.421668 0.680465 0.566837
v 0.421852 0.669469 0.566837
v 0.422082 0.669208 0.566837
v 0.422275 0.668918 0.566837
v 0.422429 0.668607 0.566837
v 0.422540 0.668278 0.566837
v 0.422608 0.667937 0.566837
v 0.422653 0.667252 0.566837
v 0.359033 0.620243 0.566837
v 0.421869 0.629656 0.566837
v 0.423378 0.629974 0.566837
v 0.424839 0.630469 0.566837
v 0.426230 0.631132 0.566837
v 0.427534 0.631956 0.566837
v 0.428731 0.632928 0.566837
v 0.429805 0.634034 0.566837
v 0.430740 0.635260 0.566837
v 0.431524 0.636588 0.566837
v 0.432145 0.637999 0.566837
v 0.432595 0.639474 0.566837
v 0.432868 0.640991 0.566837
v 0.432959 0.642531 0.566837
v 0.432959 0.667589 0.566837
v 0.432848 0.669285 0.566837
v 0.432517 0.670951 0.566837
v 0.431971 0.672559 0.566837
v 0.431219 0.674083 0.566837
v 0.430276 0.675495 0.566837
v 0.429156 0.676773 0.566837
v 0.427878 0.677893 0.566837
v 0.426466 0.678836 0.566837
v 0.424942 0.679587 0.566837
v 0.423334 0.680134 0.566837
v 0.421668 0.680465 0.566837
v 0.419973 0.680576 0.566837
v -0.450429 0.680576 0.566837
v -0.451698 0.680493 0.566837
v -0.452945 0.680245 0.566837
v -0.454150 0.679836 0.566837
v -0.455291 0.679273 0.566837
v -0.456348 0.678567 0.566837
v -0.457305 0.677728 0.566837
v -0.458144 0.676771 0.566837
v -0.458850 0.675714 0.566837
v -0.459413 0.674573 0.566837
v -0.459822 0.673369 0.566837
v -0.460070 0.672121 0.566837
v -0.460153 0.670852 0.566837
v -0.460153 0.638089 0.566837
v -0.460098 0.637159 0.566837
v -0.459933 0.636243 0.566837
v -0.459661 0.635352 0.566837
v -0.459286 0.634500 0.566837
v -0.458813 0.633698 0.566837
v -0.458248 0.632958 0.566837
v -0.457599 0.632290 0.566837
v -0.456877 0.631703 0.566837
v -0.456089 0.631205 0.566837
v -0.455249 0.630805 0.566837
v -0.454367 0.630506 0.566837
v -0.453456 0.630314 0.566837
v -0.386227 0.620243 0.566837
v -0.312028 0.611172 0.566837
v -0.237611 0.604110 0.566837
v -0.163031 0.599062 0.566837
v -0.088341 0.596031 0.566837
v -0.013597 0.595021 0.566837
v 0.061147 0.596031 0.566837
v 0.135837 0.599062 0.566837
v 0.210418 0.604110 0.566837
v 0.284834 0.611172 0.566837
v -0.449847 0.670514 0.566837
v -0.449847 0.670270 0.566837
v -0.450091 0.670270 0.566837
v -0.450197 0.670294 0.566837
v -0.450127 0.670329 0.566837
v -0.450061 0.670372 0.566837
v -0.450002 0.670425 0.566837
v -0.449949 0.670484 0.566837
v -0.449905 0.670550 0.566837
v -0.449871 0.670620 0.566837
v -0.449847 0.640194 0.566837
v -0.108439 0.670270 0.566837
v -0.015106 0.670270 0.566837
v 0.078227 0.670270 0.566837
v 0.419635 0.670270 0.566837
v 0.420320 0.670225 0.566837
v 0.420661 0.670157 0.566837
v 0.420990 0.670046 0.566837
v 0.421302 0.669892 0.566837
v 0.421591 0.669698 0.566837
v 0.421852 0.669469 0.566837
v 0.422082 0.669208 0.566837
v 0.422275 0.668918 0.566837
v 0.422429 0.668607 0.566837
v 0.422540 0.668278 0.566837
v 0.422608 0.667937 0.566837
v 0.422653 0.667252 0.566837
v 0.422653 0.642836 0.566837
v 0.422616 0.642212 0.566837
v 0.422560 0.641898 0.566837
v 0.422466 0.641593 0.566837
v 0.422338 0.641301 0.566837
v 0.422176 0.641026 0.566837
v 0.421982 0.640772 0.566837
v 0.421760 0.640543 0.566837
v 0.421512 0.640342 0.566837
v 0.421242 0.640172 0.566837
v 0.420954 0.640035 0.566837
v 0.420652 0.639932 0.566837
v 0.420041 0.639803 0.566837
v 0.357644 0.630457 0.566837
v 0.283722 0.621419 0.566837
v 0.209582 0.614383 0.566837
v 0.135280 0.609354 0.566837
v 0.060869 0.606335 0.566837
v -0.013597 0.605328 0.566837
v -0.088063 0.606335 0.566837
v -0.162474 0.609354 0.566837
v -0.236776 0.614383 0.566837
v -0.310915 0.621419 0.566837
v -0.384838 0.630457 0.566837
v -0.451365 0.640371 0.566837
v -0.451641 0.640464 0.566837
v -0.449847 0.638394 0.566837
v -0.449898 0.638667 0.566837
v -0.449983 0.638946 0.566837
v -0.450100 0.639213 0.566837
v -0.450248 0.639464 0.566837
v -0.450426 0.639696 0.566837
v -0.450628 0.639905 0.566837
v -0.450855 0.640089 0.566837
v -0.451102 0.640245 0.566837
vn 0 0 1
vn 0 0 -1
usemtl material_0_0
f 126//2 127//2 128//2
f 129//2 130//2 131//2
f 130//2 132//2 131//2
f 131//2 132//2 133//2
f 132//2 134//2 133//2
f 133//2 134//2 135//2
f 134//2 136//2 135//2
f 135//2 136//2 137//2
f 136//2 138//2 137//2
f 137//2 138//2 139//2
f 139//2 138//2 140//2
f 138//2 141//2 140//2
f 140//2 141//2 142//2
f 141//2 143//2 142//2
f 142//2 143//2 144//2
f 143//2 145//2 144//2
f 144//2 145//2 146//2
f 145//2 147//2 146//2
f 146//2 147//2 148//2
f 148//2 147//2 149//2
f 147//2 150//2 149//2
f 149//2 150//2 151//2
f 150//2 152//2 151//2
f 152//2 153//2 151//2
f 153//2 154//2 151//2
f 154//2 155//2 151//2
f 155//2 156//2 151//2
f 156//2 157//2 151//2
f 157//2 158//2 151//2
f 158//2 159//2 151//2
f 159//2 160//2 151//2
f 160//2 161//2 151//2
f 161//2 162//2 151//2
f 162//2 163//2 151//2
f 163//2 164//2 151//2
f 151//2 164//2 165//2
f 164//2 166//2 165//2
f 166//2 167//2 165//2
f 165//2 167//2 168//2
f 167//2 169//2 168//2
f 168//2 169//2 170//2
f 169//2 171//2 170//2
f 170//2 171//2 172//2
f 171//2 173//2 172//2
f 172//2 173//2 174//2
f 173//2 175//2 174//2
f 175//2 176//2 174//2
f 174//2 176//2 177//2
f 176//2 178//2 177//2
f 177//2 178//2 179//2
f 178//2 180//2 179//2
f 179//2 180//2 181//2
f 180//2 182//2 181//2
f 181//2 182//2 183//2
f 182//2 184//2 183//2
f 183//2 184//2 185//2
f 184//2 186//2 185//2
f 185//2 186//2 187//2
f 186//2 188//2 187//2
f 188//2 189//2 187//2
f 187//2 189//2 190//2
f 189//2 191//2 190//2
f 191//2 192//2 190//2
f 192//2 193//2 190//2
f 193//2 194//2 190//2
f 194//2 195//2 190//2
f 195//2 196//2 190//2
f 196//2 197//2 190//2
f 197//2 198//2 190//2
f 198//2 199//2 190//2
f 199//2 200//2 190//2
f 190//2 200//2 201//2
f 200//2 202//2 201//2
f 202//2 203//2 201//2
f 201//2 203//2 204//2
f 203//2 205//2 204//2
f 204//2 205//2 206//2
f 205//2 207//2 206//2
f 206//2 207//2 208//2
f 207//2 209//2 208//2
f 208//2 209//2 210//2
f 209//2 211//2 210//2
f 210//2 211//2 212//2
f 211//2 213//2 212//2
f 212//2 213//2 214//2
f 213//2 215//2 214//2
f 214//2 215//2 216//2
f 215//2 217//2 216//2
f 216//2 217//2 218//2
f 217//2 219//2 218//2
f 218//2 219//2 220//2
f 219//2 221//2 220//2
f 220//2 221//2 222//2
f 221//2 223//2 222//2
f 224//2 222//2 223//2
f 153//2 225//2 154//2
f 225//2 226//2 154//2
f 226//2 227//2 154//2
f 154//2 227//2 166//2
f 128//2 166//2 227//2
f 226//2 225//2 228//2
f 228//2 225//2 229//2
f 229//2 225//2 230//2
f 230//2 225//2 231//2
f 231//2 225//2 232//2
f 232//2 225//2 233//2
f 233//2 225//2 126//2
f 126//2 225//2 127//2
f 127//2 225//2 234//2
f 234//2 225//2 235//2
f 235//2 225//2 236//2
f 225//2 237//2 236//2
f 236//2 237//2 238//2
f 238//2 237//2 239//2
f 239//2 237//2 240//2
f 240//2 237//2 241//2
f 241//2 237//2 242//2
f 237//2 243//2 242//2
f 242//2 243//2 244//2
f 244//2 243//2 245//2
f 245//2 243//2 246//2
f 246//2 243//2 247//2
f 247//2 243//2 248//2
f 248//2 243//2 249//2
f 243//2 203//2 249//2
f 249//2 203//2 250//2
f 202//2 250//2 203//2
usemtl material_1_0
f 1//1 2//1 3//1
f 2//1 1//1 4//1
f 4//1 1//1 5//1
f 4//1 5//1 6//1
f 6//1 5//1 7//1
f 7//1 5//1 8//1
f 8//1 5//1 9//1
f 9//1 5//1 10//1
f 10//1 5//1 11//1
f 11//1 5//1 12//1
f 11//1 12//1 13//1
f 13//1 12//1 14//1
f 14//1 12//1 15//1
f 15//1 12//1 16//1
f 16//1 12//1 17//1
f 17//1 12//1 18//1
f 17//1 18//1 19//1
f 19//1 18//1 20//1
f 20//1 18//1 21//1
f 21//1 18//1 22//1
f 22//1 18//1 23//1
f 23//1 18//1 24//1
f 24//1 18//1 25//1
f 25//1 18//1 26//1
f 26//1 18//1 27//1
f 27//1 18//1 28//1
f 28//1 18//1 29//1
f 30//1 31//1 32//1
f 31//1 30//1 33//1
f 33//1 30//1 29//1
f 33//1 29//1 18//1
f 33//1 18//1 34//1
f 35//1 36//1 37//1
f 36//1 35//1 38//1
f 36//1 38//1 39//1
f 39//1 38//1 40//1
f 39//1 40//1 41//1
f 41//1 40//1 42//1
f 41//1 42//1 43//1
f 43//1 42//1 44//1
f 43//1 44//1 45//1
f 45//1 44//1 46//1
f 45//1 46//1 47//1
f 47//1 46//1 48//1
f 47//1 48//1 49//1
f 49//1 48//1 50//1
f 49//1 50//1 51//1
f 51//1 50//1 52//1
f 51//1 52//1 53//1
f 53//1 52//1 54//1
f 53//1 54//1 55//1
f 55//1 54//1 1//1
f 55//1 1//1 56//1
f 56//1 1//1 3//1
f 56//1 3//1 57//1
f 56//1 57//1 58//1
f 58//1 57//1 59//1
f 58//1 59//1 60//1
f 58//1 60//1 61//1
f 58//1 61//1 62//1
f 58//1 62//1 63//1
f 58//1 63//1 64//1
f 58//1 64//1 65//1
f 58//1 65//1 66//1
f 58//1 66//1 67//1
f 58//1 67//1 68//1
f 58//1 68//1 69//1
f 69//1 68//1 70//1
f 69//1 70//1 71//1
f 69//1 71//1 72//1
f 72//1 71//1 73//1
f 72//1 73//1 74//1
f 74//1 73//1 75//1
f 74//1 75//1 76//1
f 76//1 75//1 77//1
f 76//1 77//1 78//1
f 78//1 77//1 79//1
f 78//1 79//1 80//1
f 80//1 79//1 81//1
f 80//1 81//1 82//1
f 82//1 81//1 83//1
f 82//1 83//1 84//1
f 82//1 84//1 85//1
f 85//1 84//1 86//1
f 85//1 86//1 87//1
f 87//1 86//1 88//1
f 87//1 88//1 89//1
f 89//1 88//1 90//1
f 89//1 90//1 91//1
f 91//1 90//1 31//1
f 91//1 31//1 92//1
f 91//1 92//1 93//1
f 93//1 92//1 94//1
f 93//1 94//1 95//1
f 93//1 95//1 96//1
f 93//1 96//1 97//1
f 93//1 97//1 98//1
f 93//1 98//1 99//1
f 93//1 99//1 100//1
f 93//1 100//1 101//1
f 93//1 101//1 102//1
f 93//1 102//1 33//1
f 93//1 33//1 34//1
f 93//1 34//1 103//1
f 93//1 103//1 104//1
f 93//1 104//1 105//1
f 105//1 104//1 106//1
f 105//1 106//1 107//1
f 107//1 106//1 108//1
f 108//1 106//1 109//1
f 108//1 109//1 110//1
f 110//1 109//1 111//1
f 110//1 111//1 112//1
f 112//1 111//1 113//1
f 112//1 113//1 114//1
f 114//1 113//1 115//1
f 114//1 115//1 116//1
f 116//1 115//1 117//1
f 117//1 115//1 118//1
f 117//1 118//1 119//1
f 119//1 118//1 120//1
f 119//1 120//1 121//1
f 121//1 120//1 122//1
f 121//1 122//1 123//1
f 123//1 122//1 124//1
f 123//1 124//1 125//1
f 32//1 21//1 22//1
usemtl material_2_0
