# SSTK version 0.8.0
# 5
mtllib original-5.mtl
o #ID345
v -0.515594 0.700930 -0.516864
v -0.515636 0.700930 0.524083
v -0.515594 0.700930 0.524254
v -0.515865 0.700927 -0.516864
v -0.515905 0.700927 0.524129
v -0.515594 0.700930 -0.516864
v -0.515636 0.700930 0.524083
v -0.515865 0.700927 -0.516864
v -0.515905 0.700927 0.524129
v -0.515594 0.700930 0.524254
v -0.515865 0.700927 -0.516864
v -0.515905 0.700927 0.524129
v -0.515636 0.700930 0.524083
v -0.515594 0.700930 0.524254
v -0.515594 0.700930 -0.516864
v -0.515905 0.700927 0.524129
v -0.516136 0.700916 -0.516864
v -0.516173 0.700916 0.524174
v -0.515865 0.700927 -0.516864
v -0.515865 0.700927 -0.516864
v -0.515905 0.700927 0.524129
v -0.516136 0.700916 -0.516864
v -0.516173 0.700916 0.524174
v -0.516136 0.700916 -0.516864
v -0.516173 0.700916 0.524174
v -0.515594 0.700930 -0.516864
v -0.515636 0.700930 0.524083
v -0.515594 0.700930 0.524254
v -0.515865 0.700927 -0.516864
v -0.515905 0.700927 0.524129
v -0.515594 0.700930 -0.516864
v -0.515636 0.700930 0.524083
v -0.515865 0.700927 -0.516864
v -0.515905 0.700927 0.524129
v -0.515594 0.700930 0.524254
v -0.516173 0.700916 0.524174
v -0.516407 0.700899 -0.516864
v -0.516441 0.700899 0.524219
v -0.516136 0.700916 -0.516864
v -0.516136 0.700916 -0.516864
v -0.516173 0.700916 0.524174
v -0.516407 0.700899 -0.516864
v -0.516441 0.700899 0.524219
v -0.516407 0.700899 -0.516864
v -0.516441 0.700899 0.524219
v -0.516441 0.700899 0.524219
v -0.516678 0.700874 -0.516864
v -0.516708 0.700874 0.524264
v -0.516407 0.700899 -0.516864
v -0.516407 0.700899 -0.516864
v -0.516441 0.700899 0.524219
v -0.516678 0.700874 -0.516864
v -0.516708 0.700874 0.524264
v -0.516678 0.700874 -0.516864
v -0.516708 0.700874 0.524264
vn -0.01266179045988887 0.9999198363180669 6.188166192141065e-9
vn -0.03947540168110959 0.9992205425530563 -0.0000014459560616163992
vn -0.012468709533879498 0.9999222626196668 -3.5525518675198677e-7
vn -0.06576126900930335 0.9978353849675586 -0.000002220415966593667
vn -0.0920005658153818 0.9957589547081991 -0.000002843320870722505
vn 0.01266179045988887 -0.9999198363180669 -6.188166192141065e-9
vn 0.03947540168110959 -0.9992205425530563 0.0000014459560616163992
vn 0.012468709533879498 -0.9999222626196668 3.5525518675198677e-7
vn 0.06576126900930335 -0.9978353849675586 0.000002220415966593667
vn 0.0920005658153818 -0.9957589547081991 0.000002843320870722505
usemtl material_0_0
f 1//1 2//1 3//1
f 2//1 4//1 5//1
f 4//1 2//1 1//1
f 16//2 17//2 18//2
f 17//2 16//2 19//2
f 26//3 27//3 28//3
f 27//3 29//3 30//3
f 29//3 27//3 26//3
f 36//4 37//4 38//4
f 37//4 36//4 39//4
f 46//5 47//5 48//5
f 47//5 46//5 49//5
usemtl material_1_0
f 6//6 7//6 8//6
f 9//6 8//6 7//6
f 10//6 7//6 6//6
f 20//7 21//7 22//7
f 23//7 22//7 21//7
f 31//8 32//8 33//8
f 34//8 33//8 32//8
f 35//8 32//8 31//8
f 40//9 41//9 42//9
f 43//9 42//9 41//9
f 50//10 51//10 52//10
f 53//10 52//10 51//10
usemtl material_2_0
