# SSTK version 0.8.0
# 35
mtllib original-35.mtl
o #ID217
v 0.739264 0.034551 0.391106
v 0.726645 0.034629 0.391106
v 0.732916 0.033206 0.391106
v 0.745089 0.037410 0.391106
v 0.720907 0.037530 0.391106
v 0.750034 0.041611 0.391106
v 0.716044 0.041737 0.391106
v 0.753800 0.046895 0.391106
v 0.712347 0.046998 0.391106
v 0.756155 0.052941 0.391106
v 0.710036 0.052998 0.391106
v 0.756581 0.056362 0.391106
v 0.709250 0.059380 0.391106
v 0.756957 0.059380 0.391106
v 0.756581 0.062398 0.391106
v 0.710036 0.065762 0.391106
v 0.756155 0.065819 0.391106
v 0.712347 0.071763 0.391106
v 0.753800 0.071866 0.391106
v 0.716044 0.077023 0.391106
v 0.750034 0.077150 0.391106
v 0.720907 0.081230 0.391106
v 0.745089 0.081350 0.391106
v 0.726645 0.084131 0.391106
v 0.739264 0.084210 0.391106
v 0.732916 0.085554 0.391106
vn 0 0 1
vn 0 0 -1
usemtl material_0_2
f 1//1 2//1 3//1
f 3//2 2//2 1//2
f 2//1 1//1 4//1
f 4//2 1//2 2//2
f 2//1 4//1 5//1
f 5//2 4//2 2//2
f 5//1 4//1 6//1
f 6//2 4//2 5//2
f 5//1 6//1 7//1
f 7//2 6//2 5//2
f 7//1 6//1 8//1
f 8//2 6//2 7//2
f 7//1 8//1 9//1
f 9//2 8//2 7//2
f 9//1 8//1 10//1
f 10//2 8//2 9//2
f 9//1 10//1 11//1
f 11//2 10//2 9//2
f 11//1 10//1 12//1
f 12//2 10//2 11//2
f 11//1 12//1 13//1
f 13//2 12//2 11//2
f 13//1 12//1 14//1
f 14//2 12//2 13//2
f 13//1 14//1 15//1
f 15//2 14//2 13//2
f 13//1 15//1 16//1
f 16//2 15//2 13//2
f 16//1 15//1 17//1
f 17//2 15//2 16//2
f 16//1 17//1 18//1
f 18//2 17//2 16//2
f 18//1 17//1 19//1
f 19//2 17//2 18//2
f 18//1 19//1 20//1
f 20//2 19//2 18//2
f 20//1 19//1 21//1
f 21//2 19//2 20//2
f 20//1 21//1 22//1
f 22//2 21//2 20//2
f 22//1 21//1 23//1
f 23//2 21//2 22//2
f 22//1 23//1 24//1
f 24//2 23//2 22//2
f 24//1 23//1 25//1
f 25//2 23//2 24//2
f 24//1 25//1 26//1
f 26//2 25//2 24//2
