# SSTK version 0.8.0
# 5
mtllib original-5.mtl
o Group5/mesh7/mesh7-geometry#mesh7-geometry
v 0.295901 -0.017976 0.358531
v 0.311645 -0.017976 0.044969
v 0.311645 -0.017976 0.358531
v 0.295901 -0.017976 0.044969
v 0.311645 0.034503 0.358531
v 0.295901 0.034503 0.044969
v 0.311645 0.034503 0.044969
v 0.295901 0.034503 0.358531
vt -0.434181 1.965613
vt -0.242555 1.981803
vt -0.434373 1.977213
vt -0.242363 1.970203
vt -0.242491 1.977936
vt -0.434947 2.012015
vt -0.434309 1.973346
vt -0.463266 1.976522
vt -0.430971 1.965689
vt -0.431162 1.97729
vt -0.434245 1.96948
vt -0.241789 1.935401
vt -0.242427 1.97407
vt -0.21347 1.970894
vt -0.245765 1.981727
vt -0.245574 1.970126
vt -0.243129 2.016605
vt -0.463074 1.964921
vt -0.433607 1.930811
vt -0.213662 1.982495
vt -0.654892 1.960331
vt -0.655084 1.971932
vn 0 -1 0
vn 1 0 0
vn 0 0 1
vn -1 0 0
vn 0 0 -1
vn 0 1 0
usemtl material_0_0
f 1/1/1 2/2/1 3/3/1
f 2/2/1 1/1/1 4/4/1
f 2/5/2 5/6/2 3/7/2
f 5/8/3 1/9/3 3/10/3
f 1/11/4 6/12/4 4/13/4
f 6/14/5 2/15/5 4/16/5
f 5/6/2 2/5/2 7/17/2
f 1/9/3 5/8/3 8/18/3
f 6/12/4 1/11/4 8/19/4
f 2/15/5 6/14/5 7/20/5
f 6/21/6 5/8/6 7/22/6
f 5/8/6 6/21/6 8/18/6
usemtl material_1_0
f 3//6 2//6 1//6
f 4//6 1//6 2//6
f 3//4 5//4 2//4
f 3//5 1//5 5//5
f 4//2 6//2 1//2
f 4//3 2//3 6//3
f 7//4 2//4 5//4
f 8//5 5//5 1//5
f 8//2 1//2 6//2
f 7//3 6//3 2//3
f 7//1 5//1 6//1
f 8//1 6//1 5//1
