# SSTK version 0.8.0
# 4
mtllib original-4.mtl
o Upper_doubler1/Upper_doubler/mesh4/mesh4-geometry#mesh4-geometry
v -0.667821 0.069250 0.278714
v -0.622660 0.032491 0.278714
v -0.622660 0.069250 0.278714
v -0.667821 0.032491 0.278714
v -0.622660 0.051396 0.247207
v -0.622660 0.069250 0.247207
v -0.667821 0.032491 -0.309426
v -0.622660 0.051396 0.226202
v -0.648916 0.069250 0.251836
v -0.667821 0.069250 -0.309426
v -0.622660 0.032491 -0.309426
v -0.622660 0.069250 -0.309426
v -0.648916 0.051396 0.221572
v -0.648916 0.051396 0.251836
v -0.622660 0.069250 0.226202
v -0.648916 0.069250 0.221572
vt -3.355952 -11.328185
vt -3.428599 -11.247462
vt -3.359037 -11.245018
vt -3.425514 -11.330628
vt -3.100735 -9.048699
vt -3.141008 -9.109162
vt -3.174763 -9.046199
vt -2.195703 -11.7824
vt -2.288804 -11.721305
vt -2.197855 -11.724376
vt -4.581496 -12.440846
vt -4.466374 -11.290693
vt -4.507468 -12.443345
vt -6.272824 -7.466766
vt -6.22297 -8.622489
vt -6.313919 -8.619419
vt -3.142476 -9.150329
vt -3.176965 -9.107948
vt -2.248896 -11.772088
vt -4.540402 -11.288194
vt -6.181875 -7.469837
vt -3.215858 -10.198852
vt -3.242165 -11.297256
vt -3.295585 -11.24716
vt -3.253283 -11.248588
vt -3.270058 -11.300106
vt -3.262528 -11.252067
vt -3.303115 -11.295198
vt -2.248626 -12.804409
vt -6.184387 -7.402143
vt -6.275335 -7.399072
vt -3.14183 -10.201351
vt -3.178432 -9.149115
vt -3.286773 -11.255834
vt -3.275656 -11.304501
vt -3.301867 -11.260207
vt -2.246829 -11.827823
vt -2.157677 -12.80748
vt -2.194268 -11.821082
vt -3.240918 -11.262265
vn 0 0 1
vn 1 0 0
vn 0 1 0
vn -1 0 0
vn 0 -1 0
vn -0.17364796311995492 0 -0.9848077908426045
vn 0 0 -1
vn -0.17364796311995492 0 0.9848077908426045
vn 0.17364796311995492 0 0.9848077908426045
vn 0.17364796311995492 0 -0.9848077908426045
usemtl material_0_0
f 1/1/1 2/2/1 3/3/1
f 2/2/1 1/1/1 4/4/1
f 2/5/2 5/6/2 3/7/2
f 6/8/3 1/9/3 3/10/3
f 1/11/4 7/12/4 4/13/4
f 7/14/5 2/15/5 4/16/5
f 5/6/2 2/5/2 8/17/2
f 3/7/2 5/6/2 6/18/2
f 1/9/3 6/8/3 9/19/3
f 7/12/4 1/11/4 10/20/4
f 2/15/5 7/14/5 11/21/5
f 2/5/2 12/22/2 8/17/2
f 13/23/3 5/24/3 8/25/3
f 14/26/6 6/24/6 5/27/6
f 6/24/6 14/26/6 9/28/6
f 9/19/3 10/29/3 1/9/3
f 12/30/7 7/14/7 10/31/7
f 7/14/7 12/30/7 11/21/7
f 12/22/2 2/5/2 11/32/2
f 8/17/2 12/22/2 15/33/2
f 5/24/3 13/23/3 14/28/3
f 8/34/8 16/23/8 13/35/8
f 14/36/2 16/23/2 9/28/2
f 10/29/3 9/19/3 16/37/3
f 10/29/3 16/37/3 12/38/3
f 12/38/3 16/37/3 15/39/3
f 16/23/8 8/34/8 15/25/8
f 16/23/2 14/36/2 13/40/2
usemtl material_1_0
f 3//7 2//7 1//7
f 4//7 1//7 2//7
f 3//4 5//4 2//4
f 3//5 1//5 6//5
f 4//2 7//2 1//2
f 4//3 2//3 7//3
f 8//4 2//4 5//4
f 6//4 5//4 3//4
f 9//5 6//5 1//5
f 10//2 1//2 7//2
f 11//3 7//3 2//3
f 8//4 12//4 2//4
f 8//5 5//5 13//5
f 5//9 6//9 14//9
f 9//9 14//9 6//9
f 1//5 10//5 9//5
f 10//1 7//1 12//1
f 11//1 12//1 7//1
f 11//4 2//4 12//4
f 15//4 12//4 8//4
f 14//5 13//5 5//5
f 13//10 16//10 8//10
f 9//4 16//4 14//4
f 16//5 9//5 10//5
f 12//5 16//5 10//5
f 15//5 16//5 12//5
f 15//10 8//10 16//10
f 13//4 14//4 16//4
