# SSTK version 0.8.0
# 158
mtllib original-158.mtl
o Group124/mesh153/mesh153-geometry#mesh153-geometry
v -0.091785 0.233265 0.805890
v -0.088612 0.289284 0.810253
v -0.088612 0.234624 0.816965
v -0.092288 0.287421 0.795073
v -0.082979 0.235860 0.827030
v -0.091132 0.230873 0.786410
v -0.080414 0.290921 0.823578
v -0.090550 0.285257 0.777454
v -0.074211 0.237008 0.836380
v -0.081979 0.255845 0.763855
v -0.066648 0.292303 0.834835
v -0.081979 0.269510 0.762177
v -0.081979 0.242180 0.765533
v -0.055645 0.238200 0.846082
v -0.081979 0.283175 0.760499
v -0.081979 0.228515 0.767210
v -0.048516 0.293039 0.840832
v -0.034070 0.238358 0.847374
v -0.029437 0.292903 0.839721
v -0.014979 0.237487 0.840283
v -0.013195 0.292004 0.832406
v -0.001788 0.263354 0.825012
v -0.001788 0.277020 0.823334
v -0.001788 0.249689 0.826689
v -0.001788 0.290685 0.821656
v -0.001788 0.236024 0.828367
vn 0.9871982011130253 -0.018455003759672167 -0.15842703227491675
vn 0.9241197844213618 -0.050911988123252705 -0.37869591165782795
vn 0.9241285187634336 -0.046563975751978834 -0.3792338025153761
vn -0.9241285187634336 0.046563975751978834 0.3792338025153761
vn -0.9241197844213618 0.050911988123252705 0.37869591165782795
vn -0.9871982011130253 0.018455003759672167 0.15842703227491675
vn 0.9993978114471306 -0.005419998977427852 -0.034272993533834874
vn -0.9993978114471306 0.005419998977427852 0.034272993533834874
vn 0.8245006696411992 -0.06967697208201049 -0.5615547749976818
vn -0.8245006696411992 0.06967697208201049 0.5615547749976818
vn 0.957084807803512 0.03805999235700236 0.28729794230641315
vn -0.957084807803512 -0.03805999235700236 -0.28729794230641315
vn 0.7474241006402883 -0.08648301164489493 -0.6586940886928357
vn -0.7474241006402883 0.08648301164489493 0.6586940886928357
vn 0.932010622870366 0.044659981928743826 0.3596688544632645
vn -0.932010622870366 -0.044659981928743826 -0.3596688544632645
vn 0.6171392133138974 -0.09195603178456173 -0.7814622701120897
vn -0.6171392133138974 0.09195603178456173 0.7814622701120897
vn 0.8990198359423802 0.05616698975036771 0.43429092074842857
vn -0.8990198359423802 -0.05616698975036771 -0.43429092074842857
vn 0.4780102247862731 -0.11049605196122243 -0.8713764097683385
vn -0.4780102247862731 0.11049605196122243 0.8713764097683385
vn 0.8938106714222973 0.054651979909143326 0.445101836374141
vn -0.8938106714222973 -0.054651979909143326 -0.445101836374141
vn 0.9039259930573964 0.05212199959967689 0.4245009967396201
vn -0.9039259930573964 -0.05212199959967689 -0.4245009967396201
vn 0.2850799065466883 -0.10909796423611105 -0.9522746878306005
vn -0.2850799065466883 0.10909796423611105 0.9522746878306005
vn 0.10728899256776987 -0.12416699139858008 -0.9864439316660719
vn -0.10728899256776987 0.12416699139858008 0.9864439316660719
vn -0.11810001661608302 -0.11430301608186377 -0.9864011387817181
vn 0.11810001661608302 0.11430301608186377 0.9864011387817181
vn -0.27761585944173783 -0.11873493988392127 -0.9533265173261399
vn 0.27761585944173783 0.11873493988392127 0.9533265173261399
vn -0.5664598797142399 -0.09766297926161022 -0.8182818262407368
vn 0.5664598797142399 0.09766297926161022 0.8182818262407368
vn -0.6240069183234278 -0.09513598754760368 -0.7756058984805628
vn 0.6240069183234278 0.09513598754760368 0.7756058984805628
vn -0.6806772179212286 -0.087158027903952 -0.7273802328733647
vn 0.6806772179212286 0.087158027903952 0.7273802328733647
vn -0.6885368256676618 -0.08837997762285518 -0.7197958177531205
vn 0.6885368256676618 0.08837997762285518 0.7197958177531205
vn -0.6730689943886239 -0.09013199924856936 -0.7340669938800836
vn 0.6730689943886239 0.09013199924856936 0.7340669938800836
usemtl material_0_0
f 1//1 2//2 3//3
f 3//4 2//5 1//6
f 4//7 2//2 1//1
f 1//6 2//5 4//8
f 2//2 5//9 3//3
f 3//4 5//10 2//5
f 6//11 4//7 1//1
f 1//6 4//8 6//12
f 2//2 7//13 5//9
f 5//10 7//14 2//5
f 8//15 4//7 6//11
f 6//12 4//8 8//16
f 7//13 9//17 5//9
f 5//10 9//18 7//14
f 10//19 8//15 6//11
f 6//12 8//16 10//20
f 11//21 9//17 7//13
f 7//14 9//18 11//22
f 12//23 8//15 10//19
f 10//20 8//16 12//24
f 10//19 6//11 13//25
f 13//26 6//12 10//20
f 11//21 14//27 9//17
f 9//18 14//28 11//22
f 15//23 8//15 12//23
f 12//24 8//16 15//24
f 13//25 6//11 16//25
f 16//26 6//12 13//26
f 17//29 14//27 11//21
f 11//22 14//28 17//30
f 17//29 18//31 14//27
f 14//28 18//32 17//30
f 17//29 19//33 18//31
f 18//32 19//34 17//30
f 19//33 20//35 18//31
f 18//32 20//36 19//34
f 19//33 21//37 20//35
f 20//36 21//38 19//34
f 21//37 22//39 20//35
f 20//36 22//40 21//38
f 21//37 23//41 22//39
f 22//40 23//42 21//38
f 22//39 24//43 20//35
f 20//36 24//44 22//40
f 21//37 25//41 23//41
f 23//42 25//42 21//38
f 24//43 26//43 20//35
f 20//36 26//44 24//44
