# Blender v2.93.4 OBJ File: 'two_pieces_x_minus.blend'
# www.blender.org
mtllib two_pieces_x_minus.mtl
o mesh2/mesh2-geometry/material_0#mesh2-geometry
v -0.489830 -0.140393 -0.002033
v -0.489830 -0.140393 -0.002033
v -0.489907 -0.139222 -0.002033
v -0.489907 -0.139222 -0.002033
v -0.489907 0.075255 -0.002033
v -0.489907 0.075255 -0.002033
v -0.489601 -0.141544 -0.002033
v -0.489601 -0.141544 -0.002033
v -0.489224 -0.142655 -0.002033
v -0.489224 -0.142655 -0.002033
v -0.488705 -0.143707 -0.002033
v -0.488705 -0.143707 -0.002033
v -0.488053 -0.144682 -0.002033
v -0.488053 -0.144682 -0.002033
v -0.486398 -0.146338 -0.002033
v -0.486398 -0.146338 -0.002033
v -0.485422 -0.146990 -0.002033
v -0.485422 -0.146990 -0.002033
v -0.484370 -0.147509 -0.002033
v -0.484370 -0.147509 -0.002033
v -0.483259 -0.147886 -0.002033
v -0.483259 -0.147886 -0.002033
v -0.482108 -0.148115 -0.002033
v -0.482108 -0.148115 -0.002033
v -0.480938 -0.148191 -0.002033
v -0.480938 -0.148191 -0.002033
v -0.476834 -0.148191 0.060580
v -0.476834 -0.148191 0.060580
v -0.489830 -0.140393 -0.002033
v -0.489601 -0.141544 -0.002033
v -0.489601 -0.141544 -0.002033
v -0.489830 -0.140393 -0.002033
v -0.489907 -0.139222 -0.002033
v -0.489830 -0.140393 -0.002033
v -0.489830 -0.140393 -0.002033
v -0.489907 -0.139222 -0.002033
v -0.489907 0.075255 -0.002033
v -0.489907 -0.139222 -0.002033
v -0.489907 -0.139222 -0.002033
v -0.489907 0.075255 -0.002033
v -0.489601 -0.141544 -0.002033
v -0.489224 -0.142655 -0.002033
v -0.489224 -0.142655 -0.002033
v -0.489601 -0.141544 -0.002033
v -0.489224 -0.142655 -0.002033
v -0.488705 -0.143707 -0.002033
v -0.488705 -0.143707 -0.002033
v -0.489224 -0.142655 -0.002033
v -0.488705 -0.143707 -0.002033
v -0.488053 -0.144682 -0.002033
v -0.488053 -0.144682 -0.002033
v -0.488705 -0.143707 -0.002033
v -0.488053 -0.144682 -0.002033
v -0.487280 -0.145564 -0.002033
v -0.487280 -0.145564 -0.002033
v -0.488053 -0.144682 -0.002033
v -0.486398 -0.146338 -0.002033
v -0.487280 -0.145564 -0.002033
v -0.487280 -0.145564 -0.002033
v -0.486398 -0.146338 -0.002033
v -0.485422 -0.146990 -0.002033
v -0.486398 -0.146338 -0.002033
v -0.486398 -0.146338 -0.002033
v -0.485422 -0.146990 -0.002033
v -0.484370 -0.147509 -0.002033
v -0.485422 -0.146990 -0.002033
v -0.485422 -0.146990 -0.002033
v -0.484370 -0.147509 -0.002033
v -0.483259 -0.147886 -0.002033
v -0.484370 -0.147509 -0.002033
v -0.484370 -0.147509 -0.002033
v -0.483259 -0.147886 -0.002033
v -0.482108 -0.148115 -0.002033
v -0.483259 -0.147886 -0.002033
v -0.483259 -0.147886 -0.002033
v -0.482108 -0.148115 -0.002033
v -0.480938 -0.148191 -0.002033
v -0.482108 -0.148115 -0.002033
v -0.482108 -0.148115 -0.002033
v -0.480938 -0.148191 -0.002033
v -0.476834 -0.148191 0.060580
v -0.480938 -0.148191 -0.002033
v -0.480938 -0.148191 -0.002033
v -0.476834 -0.148191 0.060580
v -0.476834 -0.148191 0.060580
v -0.476834 -0.148191 0.060580
v -0.489830 -0.140393 -0.002033
v -0.485423 -0.141544 0.061710
v -0.489601 -0.141544 -0.002033
v -0.489601 -0.141544 -0.002033
v -0.485423 -0.141544 0.061710
v -0.489830 -0.140393 -0.002033
v -0.489907 -0.139222 -0.002033
v -0.485650 -0.140393 0.061740
v -0.489830 -0.140393 -0.002033
v -0.489830 -0.140393 -0.002033
v -0.485650 -0.140393 0.061740
v -0.489907 -0.139222 -0.002033
v -0.485726 0.075255 0.061750
v -0.489907 -0.139222 -0.002033
v -0.489907 0.075255 -0.002033
v -0.489907 0.075255 -0.002033
v -0.489907 -0.139222 -0.002033
v -0.485726 0.075255 0.061750
v -0.489601 -0.141544 -0.002033
v -0.485049 -0.142655 0.061661
v -0.489224 -0.142655 -0.002033
v -0.489224 -0.142655 -0.002033
v -0.485049 -0.142655 0.061661
v -0.489601 -0.141544 -0.002033
v -0.489224 -0.142655 -0.002033
v -0.484535 -0.143707 0.061594
v -0.488705 -0.143707 -0.002033
v -0.488705 -0.143707 -0.002033
v -0.484535 -0.143707 0.061594
v -0.489224 -0.142655 -0.002033
v -0.488705 -0.143707 -0.002033
v -0.483888 -0.144682 0.061508
v -0.488053 -0.144682 -0.002033
v -0.488053 -0.144682 -0.002033
v -0.483888 -0.144682 0.061508
v -0.488705 -0.143707 -0.002033
v -0.488053 -0.144682 -0.002033
v -0.483122 -0.145564 0.061407
v -0.487280 -0.145564 -0.002033
v -0.487280 -0.145564 -0.002033
v -0.483122 -0.145564 0.061407
v -0.488053 -0.144682 -0.002033
v -0.483122 -0.145564 0.061407
v -0.486398 -0.146338 -0.002033
v -0.487280 -0.145564 -0.002033
v -0.487280 -0.145564 -0.002033
v -0.486398 -0.146338 -0.002033
v -0.483122 -0.145564 0.061407
v -0.482247 -0.146338 0.061292
v -0.485422 -0.146990 -0.002033
v -0.486398 -0.146338 -0.002033
v -0.486398 -0.146338 -0.002033
v -0.485422 -0.146990 -0.002033
v -0.482247 -0.146338 0.061292
v -0.481280 -0.146990 0.061165
v -0.484370 -0.147509 -0.002033
v -0.485422 -0.146990 -0.002033
v -0.485422 -0.146990 -0.002033
v -0.484370 -0.147509 -0.002033
v -0.481280 -0.146990 0.061165
v -0.480237 -0.147509 0.061028
v -0.483259 -0.147886 -0.002033
v -0.484370 -0.147509 -0.002033
v -0.484370 -0.147509 -0.002033
v -0.483259 -0.147886 -0.002033
v -0.480237 -0.147509 0.061028
v -0.479135 -0.147886 0.060883
v -0.482108 -0.148115 -0.002033
v -0.483259 -0.147886 -0.002033
v -0.483259 -0.147886 -0.002033
v -0.482108 -0.148115 -0.002033
v -0.479135 -0.147886 0.060883
v -0.477994 -0.148115 0.060732
v -0.480938 -0.148191 -0.002033
v -0.482108 -0.148115 -0.002033
v -0.482108 -0.148115 -0.002033
v -0.480938 -0.148191 -0.002033
v -0.477994 -0.148115 0.060732
v -0.480938 -0.148191 -0.002033
v -0.477994 -0.148115 0.060732
v -0.476834 -0.148191 0.060580
v -0.476834 -0.148191 0.060580
v -0.477994 -0.148115 0.060732
v -0.480938 -0.148191 -0.002033
v -0.476834 -0.148191 0.060580
v -0.477994 -0.148115 0.060732
v -0.477994 -0.148115 0.060732
v -0.476834 -0.148191 0.060580
v -0.485423 -0.141544 0.061710
v -0.489830 -0.140393 -0.002033
v -0.485650 -0.140393 0.061740
v -0.485650 -0.140393 0.061740
v -0.489830 -0.140393 -0.002033
v -0.485423 -0.141544 0.061710
v -0.485049 -0.142655 0.061661
v -0.489601 -0.141544 -0.002033
v -0.485423 -0.141544 0.061710
v -0.485423 -0.141544 0.061710
v -0.489601 -0.141544 -0.002033
v -0.485049 -0.142655 0.061661
v -0.485650 -0.140393 0.061740
v -0.489907 -0.139222 -0.002033
v -0.485726 -0.139222 0.061750
v -0.485726 -0.139222 0.061750
v -0.489907 -0.139222 -0.002033
v -0.485650 -0.140393 0.061740
v -0.489907 -0.139222 -0.002033
v -0.485726 0.075255 0.061750
v -0.485726 -0.139222 0.061750
v -0.485726 -0.139222 0.061750
v -0.485726 0.075255 0.061750
v -0.489907 -0.139222 -0.002033
v -0.484535 -0.143707 0.061594
v -0.489224 -0.142655 -0.002033
v -0.485049 -0.142655 0.061661
v -0.485049 -0.142655 0.061661
v -0.489224 -0.142655 -0.002033
v -0.484535 -0.143707 0.061594
v -0.483888 -0.144682 0.061508
v -0.488705 -0.143707 -0.002033
v -0.484535 -0.143707 0.061594
v -0.484535 -0.143707 0.061594
v -0.488705 -0.143707 -0.002033
v -0.483888 -0.144682 0.061508
v -0.483122 -0.145564 0.061407
v -0.488053 -0.144682 -0.002033
v -0.483888 -0.144682 0.061508
v -0.483888 -0.144682 0.061508
v -0.488053 -0.144682 -0.002033
v -0.483122 -0.145564 0.061407
v -0.486398 -0.146338 -0.002033
v -0.483122 -0.145564 0.061407
v -0.482247 -0.146338 0.061292
v -0.482247 -0.146338 0.061292
v -0.483122 -0.145564 0.061407
v -0.486398 -0.146338 -0.002033
v -0.485422 -0.146990 -0.002033
v -0.482247 -0.146338 0.061292
v -0.481280 -0.146990 0.061165
v -0.481280 -0.146990 0.061165
v -0.482247 -0.146338 0.061292
v -0.485422 -0.146990 -0.002033
v -0.484370 -0.147509 -0.002033
v -0.481280 -0.146990 0.061165
v -0.480237 -0.147509 0.061028
v -0.480237 -0.147509 0.061028
v -0.481280 -0.146990 0.061165
v -0.484370 -0.147509 -0.002033
v -0.483259 -0.147886 -0.002033
v -0.480237 -0.147509 0.061028
v -0.479135 -0.147886 0.060883
v -0.479135 -0.147886 0.060883
v -0.480237 -0.147509 0.061028
v -0.483259 -0.147886 -0.002033
v -0.482108 -0.148115 -0.002033
v -0.479135 -0.147886 0.060883
v -0.477994 -0.148115 0.060732
v -0.477994 -0.148115 0.060732
v -0.479135 -0.147886 0.060883
v -0.482108 -0.148115 -0.002033
v -0.477994 -0.148115 0.060732
v -0.477994 -0.148115 0.060732
v -0.485650 -0.140393 0.061740
v -0.485423 -0.141544 0.061710
v -0.485423 -0.141544 0.061710
v -0.485650 -0.140393 0.061740
v -0.485423 -0.141544 0.061710
v -0.485049 -0.142655 0.061661
v -0.485049 -0.142655 0.061661
v -0.485423 -0.141544 0.061710
v -0.485726 -0.139222 0.061750
v -0.485650 -0.140393 0.061740
v -0.485650 -0.140393 0.061740
v -0.485726 -0.139222 0.061750
v -0.485726 -0.139222 0.061750
v -0.485726 0.075255 0.061750
v -0.485726 0.075255 0.061750
v -0.485726 -0.139222 0.061750
v -0.485049 -0.142655 0.061661
v -0.484535 -0.143707 0.061594
v -0.484535 -0.143707 0.061594
v -0.485049 -0.142655 0.061661
v -0.484535 -0.143707 0.061594
v -0.483888 -0.144682 0.061508
v -0.483888 -0.144682 0.061508
v -0.484535 -0.143707 0.061594
v -0.483888 -0.144682 0.061508
v -0.483122 -0.145564 0.061407
v -0.483122 -0.145564 0.061407
v -0.483888 -0.144682 0.061508
v -0.482247 -0.146338 0.061292
v -0.483122 -0.145564 0.061407
v -0.483122 -0.145564 0.061407
v -0.482247 -0.146338 0.061292
v -0.481280 -0.146990 0.061165
v -0.482247 -0.146338 0.061292
v -0.482247 -0.146338 0.061292
v -0.481280 -0.146990 0.061165
v -0.480237 -0.147509 0.061028
v -0.481280 -0.146990 0.061165
v -0.481280 -0.146990 0.061165
v -0.480237 -0.147509 0.061028
v -0.479135 -0.147886 0.060883
v -0.480237 -0.147509 0.061028
v -0.480237 -0.147509 0.061028
v -0.479135 -0.147886 0.060883
v -0.477994 -0.148115 0.060732
v -0.479135 -0.147886 0.060883
v -0.479135 -0.147886 0.060883
v -0.477994 -0.148115 0.060732
v -0.485650 -0.140393 0.061740
v -0.485650 -0.140393 0.061740
v -0.485423 -0.141544 0.061710
v -0.485423 -0.141544 0.061710
v -0.485049 -0.142655 0.061661
v -0.485049 -0.142655 0.061661
v -0.485726 -0.139222 0.061750
v -0.485726 -0.139222 0.061750
v -0.485726 -0.139222 0.061750
v -0.485726 -0.139222 0.061750
v -0.484535 -0.143707 0.061594
v -0.484535 -0.143707 0.061594
v -0.483888 -0.144682 0.061508
v -0.483888 -0.144682 0.061508
v -0.482247 -0.146338 0.061292
v -0.482247 -0.146338 0.061292
v -0.481280 -0.146990 0.061165
v -0.481280 -0.146990 0.061165
v -0.480237 -0.147509 0.061028
v -0.480237 -0.147509 0.061028
v -0.479135 -0.147886 0.060883
v -0.479135 -0.147886 0.060883
vn 0.9914 0.1305 -0.0000
vn 0.9577 0.2588 -0.1261
vn 0.9659 0.2588 -0.0000
vn -0.9659 -0.2588 0.0000
vn -0.9577 -0.2588 0.1261
vn -0.9915 -0.1305 -0.0000
vn 0.9995 0.0327 0.0000
vn 0.9830 0.1305 -0.1294
vn -0.9914 -0.1305 0.0000
vn -0.9830 -0.1305 0.1294
vn -0.9995 -0.0327 -0.0000
vn 0.9914 -0.0000 -0.1305
vn 1.0000 -0.0000 -0.0000
vn -1.0000 -0.0000 0.0000
vn -0.9914 -0.0000 0.1305
vn 0.9160 0.3827 -0.1206
vn 0.9239 0.3827 -0.0000
vn -0.9239 -0.3827 0.0000
vn -0.9160 -0.3827 0.1206
vn 0.8586 0.5000 -0.1131
vn 0.8660 0.5000 -0.0000
vn -0.8660 -0.5000 0.0000
vn -0.8586 -0.5000 0.1130
vn 0.7866 0.6087 -0.1036
vn 0.7934 0.6087 0.0000
vn -0.7934 -0.6087 -0.0000
vn -0.7866 -0.6087 0.1036
vn 0.7934 0.6088 0.0000
vn 0.7010 0.7071 -0.0923
vn 0.7071 0.7071 0.0000
vn -0.7071 -0.7071 -0.0000
vn -0.7010 -0.7071 0.0923
vn -0.7933 -0.6088 -0.0000
vn 0.6087 0.7934 0.0000
vn -0.7071 -0.7072 -0.0000
vn -0.6087 -0.7934 -0.0000
vn -0.7010 -0.7072 0.0923
vn 0.6036 0.7933 -0.0795
vn 0.5000 0.8660 0.0000
vn 0.6088 0.7933 -0.0000
vn -0.6088 -0.7933 0.0000
vn -0.5000 -0.8660 -0.0000
vn -0.6036 -0.7933 0.0794
vn 0.4957 0.8660 -0.0653
vn 0.3826 0.9239 -0.0000
vn -0.3826 -0.9239 0.0000
vn -0.4957 -0.8660 0.0653
vn 0.3794 0.9239 -0.0500
vn 0.2588 0.9659 0.0000
vn 0.3827 0.9239 -0.0000
vn -0.3827 -0.9239 0.0000
vn -0.2588 -0.9659 -0.0000
vn -0.3794 -0.9239 0.0500
vn 0.2566 0.9659 -0.0338
vn 0.1305 0.9915 0.0000
vn -0.1305 -0.9915 -0.0000
vn -0.2566 -0.9659 0.0338
vn 0.1294 0.9914 -0.0170
vn 0.0436 0.9990 0.0000
vn 0.1305 0.9914 0.0000
vn -0.1305 -0.9914 -0.0000
vn -0.0436 -0.9990 -0.0000
vn -0.1294 -0.9914 0.0170
vn 0.0432 0.9990 -0.0057
vn -0.0432 -0.9990 0.0057
vn 0.9576 0.2589 -0.1261
vn 0.9914 0.1306 0.0000
vn 0.9830 0.1306 -0.1294
vn -0.9830 -0.1306 0.1294
vn -0.9914 -0.1306 -0.0000
vn -0.9576 -0.2589 0.1261
vn 0.9909 0.0327 -0.1304
vn -0.9909 -0.0327 0.1305
vn 0.9909 0.0327 -0.1305
vn -0.9909 -0.0327 0.1304
vn 0.8586 0.5000 -0.1130
vn 0.7866 0.6087 -0.1035
vn 0.8661 0.4999 -0.0000
vn 0.8587 0.4999 -0.1130
vn -0.8587 -0.4999 0.1130
vn -0.8661 -0.4999 -0.0000
vn -0.7866 -0.6087 0.1035
vn 0.7011 0.7071 -0.0923
vn -0.7011 -0.7071 0.0923
vn -0.6036 -0.7933 0.0795
vn 0.6035 0.7934 -0.0794
vn -0.3794 -0.9239 0.0499
usemtl material_0_0.001
s 1
f 87//1 88//2 89//3
f 90//4 91//5 92//6
f 93//7 94//8 95//1
f 96//9 97//10 98//11
f 99//12 100//7 101//13
f 102//14 103//11 104//15
f 105//3 106//16 107//17
f 108//18 109//19 110//4
f 111//17 112//20 113//21
f 114//22 115//23 116//18
f 117//21 118//24 119//25
f 120//26 121//27 122//22
f 123//28 124//29 125//30
f 126//31 127//32 128//33
f 129//29 130//34 131//30
f 132//35 133//36 134//37
f 135//38 136//39 137//40
f 138//41 139//42 140//43
f 141//44 142//45 143//39
f 144//42 145//46 146//47
f 147//48 148//49 149//50
f 150//51 151//52 152//53
f 153//54 154//55 155//49
f 156//52 157//56 158//57
f 159//58 160//59 161//60
f 162//61 163//62 164//63
f 165//59 166//58 167//64
f 168//65 169//63 170//62
f 175//66 176//67 177//68
f 178//69 179//70 180//71
f 181//16 182//3 183//2
f 184//5 185//4 186//19
f 187//8 188//7 189//72
f 190//73 191//11 192//10
f 193//7 194//12 195//74
f 196//75 197//15 198//11
f 199//76 200//17 201//16
f 202//19 203//18 204//23
f 205//77 206//78 207//79
f 208//80 209//81 210//82
f 211//83 212//25 213//24
f 214//27 215//26 216//84
f 217//40 218//83 219//38
f 220//85 221//84 222//41
f 223//39 224//86 225//44
f 226//47 227//85 228//42
f 229//50 230//44 231//48
f 232//87 233//47 234//51
f 235//49 236//48 237//54
f 238//57 239//87 240//52
f 241//60 242//54 243//58
f 244//63 245//57 246//61
l 269 270
l 253 254
l 57 58
l 73 74
l 259 260
l 41 42
l 285 286
l 31 32
l 275 276
l 47 48
l 63 64
l 79 80
l 291 292
l 69 70
l 265 266
l 249 250
l 43 44
l 53 54
l 255 256
l 281 282
l 75 76
l 271 272
l 171 172
l 59 60
l 287 288
l 37 38
l 65 66
l 81 82
l 293 294
l 71 72
l 261 262
l 251 252
l 39 40
l 33 34
l 283 284
l 277 278
l 173 174
l 267 268
l 49 50
l 55 56
l 61 62
l 77 78
l 273 274
l 257 258
l 67 68
l 83 84
l 279 280
l 51 52
l 295 296
l 29 30
l 45 46
l 35 36
l 263 264
l 289 290
