# SSTK version 0.8.0
# 9
mtllib original-9.mtl
o mesh27/mesh27-geometry#mesh27-geometry
v 0.409045 -0.416824 -0.597469
v 0.409045 -0.416824 -0.588044
v 0.409045 -0.446670 -0.574207
v 0.366382 -0.416824 -0.597469
v 0.366382 -0.416824 -0.588044
v 0.366382 -0.446670 -0.574207
v 0.409045 -0.416824 -0.550945
v 0.366382 -0.416824 -0.550945
v 0.366382 -0.416824 -0.558567
v 0.409045 -0.416824 -0.558567
v 0.409045 -0.389184 -0.568115
v 0.409045 -0.363428 -0.597801
v 0.409045 -0.410181 -0.589505
v 0.366382 -0.410181 -0.589505
v 0.366382 -0.363428 -0.597801
v 0.366382 -0.389184 -0.568115
v 0.366382 -0.355966 -0.636388
v 0.409045 -0.355966 -0.636388
v 0.409045 -0.392307 -0.605827
v 0.366382 -0.392307 -0.605827
v 0.366382 -0.384989 -0.628899
v 0.366382 -0.390187 -0.652539
v 0.366382 -0.368797 -0.673536
v 0.409045 -0.368797 -0.673536
v 0.409045 -0.390187 -0.652539
v 0.409045 -0.384989 -0.628899
v 0.409045 -0.406509 -0.670413
v 0.366382 -0.406509 -0.670413
v 0.366382 -0.416824 -0.673684
v 0.366382 -0.398483 -0.699291
v 0.409045 -0.398483 -0.699291
v 0.409045 -0.416824 -0.673684
v 0.409045 -0.416824 -0.702838
v 0.366382 -0.416824 -0.702838
vt 2.301445 5.272298
vt 1.835199 5.272298
vt 1.150723 3.79592
vt -2.301445 0
vt -1.835199 2.110417
vt -2.301445 2.110417
vt -1.835199 0
vt -2.301445 5.272298
vt -1.150723 3.79592
vt -1.835199 5.272298
vt 5.573193 0
vt 3.701335 2.110417
vt 3.701335 0
vt 5.573193 2.110417
vt -4.158383 2.110417
vt -2.286524 0
vt -2.286524 2.110417
vt -4.158383 0
vt 0 2.110417
vt -0.377076 0
vt 0 0
vt -0.377076 2.110417
vt 0.377076 5.272298
vt 0 5.272298
vt 0.849353 6.639617
vt 2.31786 7.913695
vt 1.907469 5.600952
vt 5.54341 2.110417
vt 5.879917 0
vt 5.879917 2.110417
vt 5.54341 0
vt -2.31786 7.913695
vt -1.907469 5.600952
vt -0.849353 6.639617
vt -0.377076 5.272298
vt -5.106509 0
vt -6.553094 2.110417
vt -6.553094 0
vt -5.106509 2.110417
vt -4.992711 2.110417
vt -6.936878 0
vt -4.992711 0
vt -6.936878 2.110417
vt -3.778233 2.110417
vt -5.7224 0
vt -3.778233 0
vt -5.7224 2.110417
vt 2.714883 6.485125
vt 4.226663 8.282824
vt 5.422187 2.110417
vt 6.619551 0
vt 6.619551 2.110417
vt 5.422187 0
vt -2.714883 6.485125
vt -4.226663 8.282824
vt -3.856211 6.847135
vt -5.025635 6.589981
vt -6.0643 7.648098
vt -1.290911 2.110417
vt -3.235079 0
vt -1.290911 0
vt -3.235079 2.110417
vt 5.025635 6.589981
vt 6.0643 7.648098
vt 3.856211 6.847135
vt 4.548535 0
vt 5.745899 2.110417
vt 4.548535 2.110417
vt 5.745899 0
vt 2.29569 0
vt 3.493053 2.110417
vt 2.29569 2.110417
vt 3.493053 0
vt -0.7327 0
vt 0.464664 2.110417
vt -0.7327 2.110417
vt 0.464664 0
vt -5.909808 5.782567
vt -6.071657 5.272298
vt -7.338377 6.179591
vt 1.802778 0
vt -0.14139 2.110417
vt -0.14139 0
vt 1.802778 2.110417
vt 6.071657 5.272298
vt 7.338377 6.179591
vt 5.909808 5.782567
vt -3.72518 2.110417
vt -3.189857 0
vt -3.189857 2.110417
vt -3.72518 0
vt 6.071657 0
vt 7.513832 2.110417
vt 6.071657 2.110417
vt 7.513832 0
vt -7.513832 5.272298
vt 4.673883 0
vt 3.749781 2.110417
vt 3.749781 0
vt 4.673883 2.110417
vt 7.513832 5.272298
vn 1 0 0
vn -1 0 0
vn 0 1 0
vn 0 -1 0
vn 0 -0.6147489066411642 -0.7887228802206091
vn 0 0.6147489066411642 0.7887228802206091
vn 0 -0.6147489066411645 0.7887228802206087
vn 0 0.6147489066411645 -0.7887228802206087
vn 0 -0.21476706587830396 -0.9766652995852899
vn 0 -0.4602279016067367 -0.8878008101948658
vn 0 0.21476706587830396 0.9766652995852899
vn 0 0.4602279016067367 0.8878008101948658
vn 0 0.32647704512663955 0.9452051306490981
vn 0 0.5599897059774819 0.8284995649964179
vn 0 -0.32647704512663955 -0.9452051306490981
vn 0 -0.5599897059774819 -0.8284995649964179
vn 0 0.8992150039232751 0.43750700190884334
vn 0 -0.8992150039232751 -0.43750700190884334
vn 0 0.9974964924414952 -0.07071596401742818
vn 0 -0.9974964924414952 0.07071596401742818
vn 0 -0.8424696636710127 -0.5387437849238268
vn 0 0.8424696636710127 0.5387437849238268
vn 0 0.8284995649964179 -0.5599897059774819
vn 0 -0.8284995649964179 0.5599897059774819
vn 0 -0.998972021805062 -0.04533100098946266
vn 0 0.998972021805062 0.04533100098946266
vn 0 -0.8878008101948658 0.4602279016067367
vn 0 0.8878008101948658 -0.4602279016067367
vn 0 -0.5387437849238268 0.8424696636710127
vn 0 0.5387437849238268 -0.8424696636710127
vn 0 0.43750700190884334 -0.8992150039232751
vn 0 -0.43750700190884334 0.8992150039232751
vn 0 -0.3023391344017177 0.9532004237353338
vn 0 0.3023391344017177 -0.9532004237353338
vn 0 0.18986503851175388 -0.9818101991479463
vn 0 -0.18986503851175388 0.9818101991479463
usemtl material_0_2
f 1/1/1 2/2/1 3/3/1
f 3/3/2 2/2/2 1/1/2
f 4/4/3 2/5/3 1/6/3
f 1/6/4 2/5/4 4/4/4
f 2/5/3 4/4/3 5/7/3
f 5/7/4 4/4/4 2/5/4
f 4/8/2 6/9/2 5/10/2
f 5/10/1 6/9/1 4/8/1
f 4/11/5 3/12/5 6/13/5
f 6/13/6 3/12/6 4/11/6
f 3/12/5 4/11/5 1/14/5
f 1/14/6 4/11/6 3/12/6
f 7/15/7 6/16/7 3/17/7
f 3/17/8 6/16/8 7/15/8
f 6/16/7 7/15/7 8/18/7
f 8/18/8 7/15/8 6/16/8
f 7/19/3 9/20/3 8/21/3
f 8/21/4 9/20/4 7/19/4
f 9/20/3 7/19/3 10/22/3
f 10/22/4 7/19/4 9/20/4
f 3/3/1 10/23/1 7/24/1
f 7/24/2 10/23/2 3/3/2
f 10/23/1 3/3/1 11/25/1
f 11/25/2 3/3/2 10/23/2
f 11/25/1 3/3/1 12/26/1
f 12/26/2 3/3/2 11/25/2
f 12/26/1 3/3/1 2/2/1
f 2/2/2 3/3/2 12/26/2
f 12/26/1 2/2/1 13/27/1
f 13/27/2 2/2/2 12/26/2
f 2/28/9 14/29/10 13/30/10
f 13/30/12 14/29/12 2/28/11
f 14/29/10 2/28/9 5/31/9
f 5/31/11 2/28/11 14/29/12
f 5/10/2 15/32/2 14/33/2
f 14/33/1 15/32/1 5/10/1
f 6/9/2 15/32/2 5/10/2
f 5/10/1 15/32/1 6/9/1
f 6/9/2 16/34/2 15/32/2
f 15/32/1 16/34/1 6/9/1
f 6/9/2 9/35/2 16/34/2
f 16/34/1 9/35/1 6/9/1
f 9/35/2 6/9/2 8/24/2
f 8/24/1 6/9/1 9/35/1
f 9/36/13 11/37/14 16/38/14
f 16/38/16 11/37/16 9/36/15
f 11/37/14 9/36/13 10/39/13
f 10/39/15 9/36/15 11/37/16
f 11/40/14 15/41/17 16/42/14
f 16/42/16 15/41/18 11/40/16
f 15/41/17 11/40/14 12/43/17
f 12/43/18 11/40/16 15/41/18
f 12/44/17 17/45/19 15/46/17
f 15/46/18 17/45/20 12/44/18
f 17/45/19 12/44/17 18/47/19
f 18/47/20 12/44/18 17/45/20
f 12/26/1 19/48/1 18/49/1
f 18/49/2 19/48/2 12/26/2
f 12/26/1 13/27/1 19/48/1
f 19/48/2 13/27/2 12/26/2
f 13/50/10 20/51/21 19/52/21
f 19/52/22 20/51/22 13/50/12
f 20/51/21 13/50/10 14/53/10
f 14/53/12 13/50/12 20/51/22
f 14/33/2 15/32/2 20/54/2
f 20/54/1 15/32/1 14/33/1
f 20/54/2 15/32/2 17/55/2
f 17/55/1 15/32/1 20/54/1
f 20/54/2 17/55/2 21/56/2
f 21/56/1 17/55/1 20/54/1
f 21/56/2 17/55/2 22/57/2
f 22/57/1 17/55/1 21/56/1
f 22/57/2 17/55/2 23/58/2
f 23/58/1 17/55/1 22/57/1
f 18/59/19 23/60/23 17/61/19
f 17/61/20 23/60/24 18/59/20
f 23/60/23 18/59/19 24/62/23
f 24/62/24 18/59/20 23/60/24
f 18/49/1 25/63/1 24/64/1
f 24/64/2 25/63/2 18/49/2
f 18/49/1 26/65/1 25/63/1
f 25/63/2 26/65/2 18/49/2
f 18/49/1 19/48/1 26/65/1
f 26/65/2 19/48/2 18/49/2
f 20/66/21 26/67/25 19/68/21
f 19/68/22 26/67/26 20/66/22
f 26/67/25 20/66/21 21/69/25
f 21/69/26 20/66/22 26/67/26
f 21/70/25 25/71/27 26/72/25
f 26/72/26 25/71/28 21/70/26
f 25/71/27 21/70/25 22/73/27
f 22/73/28 21/70/26 25/71/28
f 22/74/27 27/75/29 25/76/27
f 25/76/28 27/75/30 22/74/28
f 27/75/29 22/74/27 28/77/29
f 28/77/30 22/74/28 27/75/30
f 22/57/2 23/58/2 28/78/2
f 28/78/1 23/58/1 22/57/1
f 28/78/2 23/58/2 29/79/2
f 29/79/1 23/58/1 28/78/1
f 29/79/2 23/58/2 30/80/2
f 30/80/1 23/58/1 29/79/1
f 23/81/23 31/82/31 30/83/31
f 30/83/32 31/82/32 23/81/24
f 31/82/31 23/81/23 24/84/23
f 24/84/24 23/81/24 31/82/32
f 24/64/1 32/85/1 31/86/1
f 31/86/2 32/85/2 24/64/2
f 24/64/1 27/87/1 32/85/1
f 32/85/2 27/87/2 24/64/2
f 24/64/1 25/63/1 27/87/1
f 27/87/2 25/63/2 24/64/2
f 27/88/29 29/89/33 32/90/33
f 32/90/34 29/89/34 27/88/30
f 29/89/33 27/88/29 28/91/29
f 28/91/30 27/88/30 29/89/34
f 29/92/4 33/93/4 32/94/4
f 32/94/3 33/93/3 29/92/3
f 33/93/4 29/92/4 34/95/4
f 34/95/3 29/92/3 33/93/3
f 29/79/2 30/80/2 34/96/2
f 34/96/1 30/80/1 29/79/1
f 30/97/31 33/98/35 34/99/35
f 34/99/36 33/98/36 30/97/32
f 33/98/35 30/97/31 31/100/31
f 31/100/32 30/97/32 33/98/36
f 31/86/1 32/85/1 33/101/1
f 33/101/2 32/85/2 31/86/2
