# SSTK version 0.8.0
# 48
mtllib original-48.mtl
o Group2/mesh1/mesh1-geometry/material_1#mesh1-geometry
v -0.660718 -0.453909 -0.527781
v 0.529335 -0.453909 -0.546423
v 0.529335 -0.453909 -0.527781
v 0.529335 -0.453909 -0.527781
v 0.529335 -0.453909 -0.546423
v -0.660718 -0.453909 -0.527781
v 0.529335 -0.453909 -0.546423
v -0.660718 -0.453909 -0.527781
v -0.660718 -0.453909 -0.546423
v -0.660718 -0.453909 -0.546423
v -0.660718 -0.453909 -0.527781
v 0.529335 -0.453909 -0.546423
vt -18.372726440429688 0.27594301104545593
vt -1.1262409687042236 0
vt -1.1262409687042236 0.27594301104545593
vt -18.372726440429688 0
vn 0 -1 0
vn 0 1 0
usemtl material_0_0
f 1/1/1 2/2/1 3/3/1
f 4/3/2 5/2/2 6/1/2
f 7/2/1 8/1/1 9/4/1
f 10/4/2 11/1/2 12/2/2
