# SSTK version 0.8.0
# 115
mtllib original-115.mtl
o mesh46/mesh46-geometry/material_1/component_4#mesh46-geometry
v -0.231797 0.237283 0.136044
v -0.293770 0.158817 0.000661
v -0.231797 0.237283 0.000661
v -0.231797 0.237283 0.000661
v -0.293770 0.158817 0.000661
v -0.231797 0.237283 0.136044
v -0.231797 0.237283 0.136044
v -0.293208 0.158817 0.133928
v -0.293770 0.158817 0.000661
v -0.293770 0.158817 0.000661
v -0.293208 0.158817 0.133928
v -0.231797 0.237283 0.136044
v -0.288217 0.158817 0.140605
v -0.293208 0.158817 0.133928
v -0.231797 0.237283 0.136044
v -0.231797 0.237283 0.136044
v -0.293208 0.158817 0.133928
v -0.288217 0.158817 0.140605
v -0.231797 0.237283 0.136044
v -0.281375 0.158817 0.145563
v -0.288217 0.158817 0.140605
v -0.288217 0.158817 0.140605
v -0.281375 0.158817 0.145563
v -0.231797 0.237283 0.136044
v -0.231797 0.237283 0.136044
v -0.270468 0.158817 0.148604
v -0.281375 0.158817 0.145563
v -0.281375 0.158817 0.145563
v -0.270468 0.158817 0.148604
v -0.231797 0.237283 0.136044
v -0.231797 0.237283 0.136044
v -0.270468 0.158817 0.148604
v -0.261015 0.158817 0.148670
v -0.261015 0.158817 0.148670
v -0.270468 0.158817 0.148604
v -0.231797 0.237283 0.136044
vt -31.07029914855957 -0.23926199972629547
vt -24.91114616394043 -4.969048023223877
vt -24.91114616394043 -0.23926199972629547
vt -30.90753936767578 -0.08979800343513489
vt -30.800254821777344 -4.803706169128418
vt -24.73714256286621 -4.803706169128418
vt 0.6090279817581177 -3.9522340297698975
vt 0.99031001329422 -3.9522340297698975
vt -0.7532079815864563 0.40040600299835205
vt 14.737317085266113 8.31689739227295
vt 16.312700271606445 4.218213081359863
vt 16.696914672851562 4.218213081359863
vt 30.746688842773438 20.031532287597656
vt 32.2884635925293 16.17001724243164
vt 32.802734375 16.17001724243164
vt -40.35454177856445 27.307167053222656
vt -42.110286712646484 23.545766830444336
vt -41.67931365966797 23.545766830444336
vn 0.7848402221271787 -0.6196981730902239 0
vn -0.7848402221271787 0.6196981730902239 0
vn 0.7874774838598291 -0.6163353405944318 -0.0031560019230442615
vn -0.7874774838598291 0.6163353405944318 0.0031560019230442615
vn 0.6845589760981987 -0.5221639783731078 -0.5086489830255779
vn -0.6845589760981987 0.5221639783731078 0.5086489830255779
vn 0.5294680188343056 -0.4239470215966288 -0.7348010206246471
vn -0.5294680188343056 0.4239470215966288 0.7348010206246471
vn 0.2575340099978505 -0.27545602487972504 -0.9261750439586932
vn -0.2575340099978505 0.27545602487972504 0.9261750439586932
vn -0.0062669997525186625 0.16133398697018417 0.9868799670488841
vn 0.0062669997525186625 -0.16133398697018417 -0.9868799670488841
usemtl material_0_0
f 1/1/1 2/2/1 3/3/1
f 4/3/2 5/2/2 6/1/2
f 7/4/3 8/5/3 9/6/3
f 10/6/4 11/5/4 12/4/4
f 13/7/5 14/8/5 15/9/5
f 16/9/6 17/8/6 18/7/6
f 19/10/7 20/11/7 21/12/7
f 22/12/8 23/11/8 24/10/8
f 25/13/9 26/14/9 27/15/9
f 28/15/10 29/14/10 30/13/10
f 31/16/11 32/17/11 33/18/11
f 34/18/12 35/17/12 36/16/12
