# SSTK version 0.8.0
# 230
mtllib original-230.mtl
o Group9/mesh100/mesh100-geometry/material_1/component_38#mesh100-geometry
v -0.101438 -0.355148 0.864916
v -0.101438 -0.354553 0.832260
v -0.101901 -0.349992 0.864982
v -0.102396 -0.360238 0.864783
v -0.102363 -0.359643 0.832128
v -0.101438 -0.355148 0.864916
v -0.101901 -0.349992 0.864982
v -0.101901 -0.349397 0.832326
v -0.103785 -0.345167 0.865114
v -0.101901 -0.349397 0.832326
v -0.101901 -0.349992 0.864982
v -0.101438 -0.354553 0.832260
v -0.101438 -0.354553 0.832260
v -0.101438 -0.355148 0.864916
v -0.102363 -0.359643 0.832128
v -0.102363 -0.359643 0.832128
v -0.102396 -0.360238 0.864783
v -0.104677 -0.364271 0.832062
v -0.134556 -0.341993 0.865114
v -0.130656 -0.338589 0.865180
v -0.134556 -0.341399 0.832458
v -0.103785 -0.345167 0.865114
v -0.103751 -0.344572 0.832458
v -0.106858 -0.341035 0.865180
v -0.103751 -0.344572 0.832458
v -0.103785 -0.345167 0.865114
v -0.101901 -0.349397 0.832326
v -0.101438 -0.354553 0.832260
v -0.102363 -0.359643 0.832128
v -0.101901 -0.349397 0.832326
v -0.104677 -0.364866 0.864717
v -0.104677 -0.364271 0.832062
v -0.102396 -0.360238 0.864783
v -0.102363 -0.359643 0.832128
v -0.104677 -0.364271 0.832062
v -0.103751 -0.344572 0.832458
v -0.130656 -0.337994 0.832524
v -0.134556 -0.341399 0.832458
v -0.130656 -0.338589 0.865180
v -0.130656 -0.338589 0.865180
v -0.125996 -0.336342 0.865246
v -0.130656 -0.337994 0.832524
v -0.110957 -0.337895 0.865246
v -0.106858 -0.341035 0.865180
v -0.110957 -0.337300 0.832590
v -0.106858 -0.340440 0.832524
v -0.106858 -0.341035 0.865180
v -0.103751 -0.344572 0.832458
v -0.101901 -0.349397 0.832326
v -0.102363 -0.359643 0.832128
v -0.103751 -0.344572 0.832458
v -0.104677 -0.364271 0.832062
v -0.104677 -0.364866 0.864717
v -0.108114 -0.368105 0.831995
v -0.103751 -0.344572 0.832458
v -0.104677 -0.364271 0.832062
v -0.106858 -0.340440 0.832524
v -0.134556 -0.341399 0.832458
v -0.130656 -0.337994 0.832524
v -0.108114 -0.368105 0.831995
v -0.125996 -0.335747 0.832590
v -0.130656 -0.337994 0.832524
v -0.125996 -0.336342 0.865246
v -0.125996 -0.336342 0.865246
v -0.120906 -0.335449 0.865246
v -0.125996 -0.335747 0.832590
v -0.115783 -0.335978 0.865246
v -0.110957 -0.337895 0.865246
v -0.115783 -0.335383 0.832590
v -0.106858 -0.340440 0.832524
v -0.110957 -0.337300 0.832590
v -0.106858 -0.341035 0.865180
v -0.110957 -0.337300 0.832590
v -0.115783 -0.335383 0.832590
v -0.110957 -0.337895 0.865246
v -0.108114 -0.368700 0.864651
v -0.108114 -0.368105 0.831995
v -0.104677 -0.364866 0.864717
v -0.104677 -0.364271 0.832062
v -0.108114 -0.368105 0.831995
v -0.106858 -0.340440 0.832524
v -0.125996 -0.335747 0.832590
v -0.108114 -0.368105 0.831995
v -0.130656 -0.337994 0.832524
v -0.120906 -0.334854 0.832590
v -0.125996 -0.335747 0.832590
v -0.120906 -0.335449 0.865246
v -0.120906 -0.335449 0.865246
v -0.115783 -0.335978 0.865246
v -0.120906 -0.334854 0.832590
v -0.115783 -0.335383 0.832590
v -0.120906 -0.334854 0.832590
v -0.115783 -0.335978 0.865246
v -0.106858 -0.340440 0.832524
v -0.108114 -0.368105 0.831995
v -0.110957 -0.337300 0.832590
v -0.110957 -0.337300 0.832590
v -0.108114 -0.368105 0.831995
v -0.115783 -0.335383 0.832590
v -0.120906 -0.334854 0.832590
v -0.108114 -0.368105 0.831995
v -0.125996 -0.335747 0.832590
v -0.115783 -0.335383 0.832590
v -0.108114 -0.368105 0.831995
v -0.120906 -0.334854 0.832590
v -0.101901 -0.349992 0.864982
v -0.101438 -0.354553 0.832260
v -0.101438 -0.355148 0.864916
v -0.101438 -0.355148 0.864916
v -0.102363 -0.359643 0.832128
v -0.102396 -0.360238 0.864783
v -0.103785 -0.345167 0.865114
v -0.101901 -0.349397 0.832326
v -0.101901 -0.349992 0.864982
v -0.101438 -0.354553 0.832260
v -0.101901 -0.349992 0.864982
v -0.101901 -0.349397 0.832326
v -0.102363 -0.359643 0.832128
v -0.101438 -0.355148 0.864916
v -0.101438 -0.354553 0.832260
v -0.104677 -0.364271 0.832062
v -0.102396 -0.360238 0.864783
v -0.102363 -0.359643 0.832128
v -0.134556 -0.341399 0.832458
v -0.130656 -0.338589 0.865180
v -0.134556 -0.341993 0.865114
v -0.106858 -0.341035 0.865180
v -0.103751 -0.344572 0.832458
v -0.103785 -0.345167 0.865114
v -0.101901 -0.349397 0.832326
v -0.103785 -0.345167 0.865114
v -0.103751 -0.344572 0.832458
v -0.101901 -0.349397 0.832326
v -0.102363 -0.359643 0.832128
v -0.101438 -0.354553 0.832260
v -0.102396 -0.360238 0.864783
v -0.104677 -0.364271 0.832062
v -0.104677 -0.364866 0.864717
v -0.103751 -0.344572 0.832458
v -0.104677 -0.364271 0.832062
v -0.102363 -0.359643 0.832128
v -0.130656 -0.338589 0.865180
v -0.134556 -0.341399 0.832458
v -0.130656 -0.337994 0.832524
v -0.130656 -0.337994 0.832524
v -0.125996 -0.336342 0.865246
v -0.130656 -0.338589 0.865180
v -0.110957 -0.337300 0.832590
v -0.106858 -0.341035 0.865180
v -0.110957 -0.337895 0.865246
v -0.103751 -0.344572 0.832458
v -0.106858 -0.341035 0.865180
v -0.106858 -0.340440 0.832524
v -0.103751 -0.344572 0.832458
v -0.102363 -0.359643 0.832128
v -0.101901 -0.349397 0.832326
v -0.108114 -0.368105 0.831995
v -0.104677 -0.364866 0.864717
v -0.104677 -0.364271 0.832062
v -0.106858 -0.340440 0.832524
v -0.104677 -0.364271 0.832062
v -0.103751 -0.344572 0.832458
v -0.108114 -0.368105 0.831995
v -0.130656 -0.337994 0.832524
v -0.134556 -0.341399 0.832458
v -0.125996 -0.336342 0.865246
v -0.130656 -0.337994 0.832524
v -0.125996 -0.335747 0.832590
v -0.125996 -0.335747 0.832590
v -0.120906 -0.335449 0.865246
v -0.125996 -0.336342 0.865246
v -0.115783 -0.335383 0.832590
v -0.110957 -0.337895 0.865246
v -0.115783 -0.335978 0.865246
v -0.106858 -0.341035 0.865180
v -0.110957 -0.337300 0.832590
v -0.106858 -0.340440 0.832524
v -0.110957 -0.337895 0.865246
v -0.115783 -0.335383 0.832590
v -0.110957 -0.337300 0.832590
v -0.104677 -0.364866 0.864717
v -0.108114 -0.368105 0.831995
v -0.108114 -0.368700 0.864651
v -0.106858 -0.340440 0.832524
v -0.108114 -0.368105 0.831995
v -0.104677 -0.364271 0.832062
v -0.130656 -0.337994 0.832524
v -0.108114 -0.368105 0.831995
v -0.125996 -0.335747 0.832590
v -0.120906 -0.335449 0.865246
v -0.125996 -0.335747 0.832590
v -0.120906 -0.334854 0.832590
v -0.120906 -0.334854 0.832590
v -0.115783 -0.335978 0.865246
v -0.120906 -0.335449 0.865246
v -0.115783 -0.335978 0.865246
v -0.120906 -0.334854 0.832590
v -0.115783 -0.335383 0.832590
v -0.110957 -0.337300 0.832590
v -0.108114 -0.368105 0.831995
v -0.106858 -0.340440 0.832524
v -0.115783 -0.335383 0.832590
v -0.108114 -0.368105 0.831995
v -0.110957 -0.337300 0.832590
v -0.125996 -0.335747 0.832590
v -0.108114 -0.368105 0.831995
v -0.120906 -0.334854 0.832590
v -0.120906 -0.334854 0.832590
v -0.108114 -0.368105 0.831995
v -0.115783 -0.335383 0.832590
vt -11.225227355957031 5.71999979019165
vt -11.225227355957031 2.2750000953674316
vt -12.050640106201172 5.71999979019165
vt -17.28622055053711 5.71999979019165
vt -17.28622055053711 2.2750000953674316
vt -18.111635208129883 5.71999979019165
vt -4.288850784301758 5.71999979019165
vt -4.288850784301758 2.2750000953674316
vt -5.114264965057373 5.71999979019165
vt -12.050640106201172 2.2750000953674316
vt -18.111635208129883 2.2750000953674316
vt -22.841354370117188 2.2750000953674316
vt -22.841354370117188 5.71999979019165
vt -22.015941619873047 2.2750000953674316
vt 25.771921157836914 5.71999979019165
vt 26.597335815429688 5.71999979019165
vt 25.771921157836914 2.2750000953674316
vt 3.0011649131774902 5.71999979019165
vt 3.0011649131774902 2.2750000953674316
vt 2.1757519245147705 5.71999979019165
vt -5.114264965057373 2.2750000953674316
vt 25.443500518798828 14.795255661010742
vt 25.31151580810547 13.947872161865234
vt 25.349170684814453 15.648061752319336
vt -22.015941619873047 5.71999979019165
vt 24.9631404876709 13.169647216796875
vt 25.03561782836914 16.442142486572266
vt 26.597335815429688 2.2750000953674316
vt 26.062593460083008 5.71999979019165
vt 26.88800621032715 5.71999979019165
vt 26.062593460083008 2.2750000953674316
vt 9.271069526672363 5.71999979019165
vt 10.09648323059082 5.71999979019165
vt 9.271069526672363 2.2750000953674316
vt 2.1757519245147705 2.2750000953674316
vt -25.88404083251953 2.2750000953674316
vt -25.88404083251953 5.71999979019165
vt -25.058626174926758 2.2750000953674316
vt 24.52642822265625 17.117769241333008
vt 20.110641479492188 16.856046676635742
vt 20.717538833618164 17.437875747680664
vt 24.42458152770996 12.519119262695312
vt 26.88800621032715 2.2750000953674316
vt 24.361852645874023 5.71999979019165
vt 25.187265396118164 5.71999979019165
vt 24.361852645874023 2.2750000953674316
vt 15.637994766235352 5.71999979019165
vt 16.463407516479492 5.71999979019165
vt 15.637994766235352 2.2750000953674316
vt 10.09648323059082 2.2750000953674316
vt 16.463407516479492 2.2750000953674316
vt -25.058626174926758 5.71999979019165
vt 21.45359230041504 17.826353073120117
vt 25.187265396118164 2.2750000953674316
vt 20.79762077331543 5.71999979019165
vt 21.62303352355957 5.71999979019165
vt 20.79762077331543 2.2750000953674316
vt 21.62303352355957 2.2750000953674316
vt 23.85990333557129 17.624122619628906
vt 23.0861759185791 17.92311668395996
vt 22.263444900512695 17.992259979248047
vt 6.6666669845581055 3.375
vt 7.5 0
vt 7.5 3.375
vt 8.333333015441895 0
vt 8.333333015441895 3.375
vt 5.8333330154418945 3.375
vt 6.6666669845581055 0
vt 9.166666984558105 0
vt 0 0
vt 0.8333330154418945 3.375
vt 0 3.375
vt 5 3.375
vt 5.8333330154418945 0
vt 25.349170684814453 15.330103874206543
vt 25.31151580810547 13.664461135864258
vt 25.443500518798828 14.494626998901367
vt 9.166666984558105 3.375
vt 25.03561782836914 16.108049392700195
vt 24.9631404876709 12.90204906463623
vt 0.8333330154418945 0
vt 1.6666669845581055 3.375
vt 4.1666669845581055 0
vt 4.1666669845581055 3.375
vt 5 0
vt 10 0
vt 24.52642822265625 16.769947052001953
vt 24.42458152770996 12.264739036560059
vt 20.717538833618164 17.08354949951172
vt 20.110641479492188 16.5135440826416
vt 1.6666669845581055 0
vt 2.5 3.375
vt 3.3333330154418945 0
vt 3.3333330154418945 3.375
vt 10 3.375
vt 21.45359230041504 17.464134216308594
vt 2.5 0
vt 23.85990333557129 17.26601219177246
vt 23.0861759185791 17.558931350708008
vt 22.263444900512695 17.626670837402344
vn 0.9989612881108089 -0.04556101512971974 -0.0007340002334925996
vn 0.9737703027346911 0.22749306850459036 0.004278001210122537
vn 0.9490125725335361 -0.31518686695651194 -0.005689997488385783
vn 0.8753344735033645 0.4834347262660466 0.008967995130487386
vn 0.8276809029424124 -0.5611059569844769 -0.010218999019831813
vn -0.6610290348863631 0.7502350820357127 0.013709001425004544
vn -0.5518878646944604 0.8337787895295519 0.015254997005056186
vn 0.711058251990693 0.7030132316533414 0.012983004130989734
vn 0.00010300003932064134 0.01836100762282291 -0.9998314171849504
vn -0.30458295693848747 0.9523258242713422 0.017456997694795
vn 0.4932971679697505 0.8697132857502534 0.016022005571140762
vn 0.7429052205596167 -0.6692851794121678 -0.01221400362246377
vn -0.03436799513497871 0.999240826122016 0.018346997612493372
vn 0.23843200920083 0.9709950258583505 0.01785600030231548
vn -0.9737703027346911 -0.22749306850459036 -0.004278001210122537
vn -0.9989612881108089 0.04556101512971974 0.0007340002334925996
vn -0.9490125725335361 0.31518686695651194 0.005689997488385783
vn -0.8753344735033645 -0.4834347262660466 -0.008967995130487386
vn -0.8276809029424124 0.5611059569844769 0.010218999019831813
vn 0.6610290348863631 -0.7502350820357127 -0.013709001425004544
vn 0.5518878646944604 -0.8337787895295519 -0.015254997005056186
vn -0.711058251990693 -0.7030132316533414 -0.012983004130989734
vn -0.00010300003932064134 -0.01836100762282291 0.9998314171849504
vn 0.30458295693848747 -0.9523258242713422 -0.017456997694795
vn -0.4932971679697505 -0.8697132857502534 -0.016022005571140762
vn -0.7429052205596167 0.6692851794121678 0.01221400362246377
vn 0.03436799513497871 -0.999240826122016 -0.018346997612493372
vn -0.23843200920083 -0.9709950258583505 -0.01785600030231548
usemtl material_0_0
f 1/1/1 2/2/1 3/3/2
f 4/4/3 5/5/3 6/6/1
f 7/7/2 8/8/2 9/9/4
f 10/10/2 11/3/2 12/2/1
f 13/11/1 14/6/1 15/5/3
f 16/12/3 17/13/3 18/14/5
f 19/15/6 20/16/7 21/17/6
f 22/18/4 23/19/4 24/20/8
f 25/21/4 26/9/4 27/8/2
f 28/22/9 29/23/9 30/24/9
f 31/25/5 32/14/5 33/13/3
f 34/23/9 35/26/9 36/27/9
f 37/28/7 38/17/6 39/16/7
f 40/29/7 41/30/10 42/31/7
f 43/32/11 44/33/8 45/34/11
f 46/35/8 47/20/8 48/19/4
f 49/24/9 50/23/9 51/27/9
f 52/36/5 53/37/5 54/38/12
f 55/27/9 56/26/9 57/39/9
f 58/40/9 59/41/9 60/42/9
f 61/43/10 62/31/7 63/30/10
f 64/44/10 65/45/13 66/46/10
f 67/47/14 68/48/11 69/49/14
f 70/50/8 71/34/11 72/33/8
f 73/51/11 74/49/14 75/48/11
f 76/52/12 77/38/12 78/37/5
f 79/26/9 80/42/9 81/39/9
f 82/53/9 83/42/9 84/41/9
f 85/54/13 86/46/10 87/45/13
f 88/55/13 89/56/14 90/57/13
f 91/58/14 92/57/13 93/56/14
f 94/39/9 95/42/9 96/59/9
f 97/59/9 98/42/9 99/60/9
f 100/61/9 101/42/9 102/53/9
f 103/60/9 104/42/9 105/61/9
usemtl material_1_0
f 106/62/15 107/63/16 108/64/16
f 109/64/16 110/65/17 111/66/17
f 112/67/18 113/68/15 114/62/15
f 115/63/16 116/62/15 117/68/15
f 118/65/17 119/64/16 120/63/16
f 121/69/19 122/66/17 123/65/17
f 124/70/20 125/71/21 126/72/20
f 127/73/22 128/74/18 129/67/18
f 130/68/15 131/67/18 132/74/18
f 133/75/23 134/76/23 135/77/23
f 136/66/17 137/69/19 138/78/19
f 139/79/23 140/80/23 141/76/23
f 142/71/21 143/70/20 144/81/21
f 145/81/21 146/82/24 147/71/21
f 148/83/25 149/73/22 150/84/25
f 151/74/18 152/73/22 153/85/22
f 154/79/23 155/76/23 156/75/23
f 157/86/26 158/78/19 159/69/19
f 160/87/23 161/80/23 162/79/23
f 163/88/23 164/89/23 165/90/23
f 166/82/24 167/81/21 168/91/24
f 169/91/24 170/92/27 171/82/24
f 172/93/28 173/84/25 174/94/28
f 175/73/22 176/83/25 177/85/22
f 178/84/25 179/93/28 180/83/25
f 181/78/19 182/86/26 183/95/26
f 184/87/23 185/88/23 186/80/23
f 187/89/23 188/88/23 189/96/23
f 190/92/27 191/91/24 192/97/27
f 193/97/27 194/94/28 195/92/27
f 196/94/28 197/97/27 198/93/28
f 199/98/23 200/88/23 201/87/23
f 202/99/23 203/88/23 204/98/23
f 205/96/23 206/88/23 207/100/23
f 208/100/23 209/88/23 210/99/23
