# SSTK version 0.8.0
# 221
mtllib original-221.mtl
o Group9/mesh100/mesh100-geometry/material_1/component_29#mesh100-geometry
v -0.097670 -0.367411 0.864651
v -0.094034 -0.366287 0.864717
v -0.097670 -0.366816 0.831995
v -0.094034 -0.366287 0.864717
v -0.090266 -0.366056 0.864717
v -0.094034 -0.365692 0.832062
v -0.100942 -0.369361 0.864651
v -0.097670 -0.367411 0.864651
v -0.100909 -0.368766 0.831995
v -0.094034 -0.365692 0.832062
v -0.097670 -0.366816 0.831995
v -0.094034 -0.366287 0.864717
v -0.097670 -0.366816 0.831995
v -0.100909 -0.368766 0.831995
v -0.097670 -0.367411 0.864651
v -0.090266 -0.365461 0.832062
v -0.094034 -0.365692 0.832062
v -0.090266 -0.366056 0.864717
v -0.090266 -0.366056 0.864717
v -0.086531 -0.366717 0.864717
v -0.090266 -0.365461 0.832062
v -0.100942 -0.369361 0.864651
v -0.100909 -0.368766 0.831995
v -0.103619 -0.372038 0.864585
v -0.094034 -0.365692 0.832062
v -0.076252 -0.387441 0.831665
v -0.097670 -0.366816 0.831995
v -0.097670 -0.366816 0.831995
v -0.076252 -0.387441 0.831665
v -0.100909 -0.368766 0.831995
v -0.090266 -0.365461 0.832062
v -0.076252 -0.387441 0.831665
v -0.094034 -0.365692 0.832062
v -0.086498 -0.366089 0.832062
v -0.090266 -0.365461 0.832062
v -0.086531 -0.366717 0.864717
v -0.086531 -0.366717 0.864717
v -0.083028 -0.368204 0.864651
v -0.086498 -0.366089 0.832062
v -0.103619 -0.371443 0.831929
v -0.103619 -0.372038 0.864585
v -0.100909 -0.368766 0.831995
v -0.103619 -0.371443 0.831929
v -0.100909 -0.368766 0.831995
v -0.076252 -0.387441 0.831665
v -0.086498 -0.366089 0.832062
v -0.076252 -0.387441 0.831665
v -0.090266 -0.365461 0.832062
v -0.083028 -0.367609 0.831995
v -0.086498 -0.366089 0.832062
v -0.083028 -0.368204 0.864651
v -0.083028 -0.368204 0.864651
v -0.080020 -0.370518 0.864651
v -0.083028 -0.367609 0.831995
v -0.083028 -0.367609 0.831995
v -0.076252 -0.387441 0.831665
v -0.086498 -0.366089 0.832062
v -0.080020 -0.369923 0.831995
v -0.083028 -0.367609 0.831995
v -0.080020 -0.370518 0.864651
v -0.077607 -0.373459 0.864585
v -0.077607 -0.372831 0.831929
v -0.080020 -0.370518 0.864651
v -0.080020 -0.369923 0.831995
v -0.076252 -0.387441 0.831665
v -0.083028 -0.367609 0.831995
v -0.080020 -0.369923 0.831995
v -0.080020 -0.370518 0.864651
v -0.077607 -0.372831 0.831929
v -0.077607 -0.372831 0.831929
v -0.077607 -0.373459 0.864585
v -0.075954 -0.376269 0.831863
v -0.075954 -0.376864 0.864519
v -0.075954 -0.376269 0.831863
v -0.077607 -0.373459 0.864585
v -0.077607 -0.372831 0.831929
v -0.076252 -0.387441 0.831665
v -0.080020 -0.369923 0.831995
v -0.075954 -0.376269 0.831863
v -0.076252 -0.387441 0.831665
v -0.077607 -0.372831 0.831929
v -0.075954 -0.376269 0.831863
v -0.075954 -0.376864 0.864519
v -0.075161 -0.379971 0.831797
v -0.075161 -0.380566 0.864453
v -0.075161 -0.379971 0.831797
v -0.075954 -0.376864 0.864519
v -0.076285 -0.388035 0.864321
v -0.076252 -0.387441 0.831665
v -0.075260 -0.384367 0.864387
v -0.075260 -0.383772 0.831731
v -0.076252 -0.387441 0.831665
v -0.075954 -0.376269 0.831863
v -0.075161 -0.379971 0.831797
v -0.075260 -0.383772 0.831731
v -0.075954 -0.376269 0.831863
v -0.075161 -0.379971 0.831797
v -0.075161 -0.380566 0.864453
v -0.075260 -0.383772 0.831731
v -0.075260 -0.383772 0.831731
v -0.075260 -0.384367 0.864387
v -0.076252 -0.387441 0.831665
v -0.075260 -0.384367 0.864387
v -0.075260 -0.383772 0.831731
v -0.075161 -0.380566 0.864453
v -0.097670 -0.366816 0.831995
v -0.094034 -0.366287 0.864717
v -0.097670 -0.367411 0.864651
v -0.094034 -0.365692 0.832062
v -0.090266 -0.366056 0.864717
v -0.094034 -0.366287 0.864717
v -0.100909 -0.368766 0.831995
v -0.097670 -0.367411 0.864651
v -0.100942 -0.369361 0.864651
v -0.094034 -0.366287 0.864717
v -0.097670 -0.366816 0.831995
v -0.094034 -0.365692 0.832062
v -0.097670 -0.367411 0.864651
v -0.100909 -0.368766 0.831995
v -0.097670 -0.366816 0.831995
v -0.090266 -0.366056 0.864717
v -0.094034 -0.365692 0.832062
v -0.090266 -0.365461 0.832062
v -0.090266 -0.365461 0.832062
v -0.086531 -0.366717 0.864717
v -0.090266 -0.366056 0.864717
v -0.103619 -0.372038 0.864585
v -0.100909 -0.368766 0.831995
v -0.100942 -0.369361 0.864651
v -0.097670 -0.366816 0.831995
v -0.076252 -0.387441 0.831665
v -0.094034 -0.365692 0.832062
v -0.100909 -0.368766 0.831995
v -0.076252 -0.387441 0.831665
v -0.097670 -0.366816 0.831995
v -0.094034 -0.365692 0.832062
v -0.076252 -0.387441 0.831665
v -0.090266 -0.365461 0.832062
v -0.086531 -0.366717 0.864717
v -0.090266 -0.365461 0.832062
v -0.086498 -0.366089 0.832062
v -0.086498 -0.366089 0.832062
v -0.083028 -0.368204 0.864651
v -0.086531 -0.366717 0.864717
v -0.100909 -0.368766 0.831995
v -0.103619 -0.372038 0.864585
v -0.103619 -0.371443 0.831929
v -0.076252 -0.387441 0.831665
v -0.100909 -0.368766 0.831995
v -0.103619 -0.371443 0.831929
v -0.090266 -0.365461 0.832062
v -0.076252 -0.387441 0.831665
v -0.086498 -0.366089 0.832062
v -0.083028 -0.368204 0.864651
v -0.086498 -0.366089 0.832062
v -0.083028 -0.367609 0.831995
v -0.083028 -0.367609 0.831995
v -0.080020 -0.370518 0.864651
v -0.083028 -0.368204 0.864651
v -0.086498 -0.366089 0.832062
v -0.076252 -0.387441 0.831665
v -0.083028 -0.367609 0.831995
v -0.080020 -0.370518 0.864651
v -0.083028 -0.367609 0.831995
v -0.080020 -0.369923 0.831995
v -0.080020 -0.370518 0.864651
v -0.077607 -0.372831 0.831929
v -0.077607 -0.373459 0.864585
v -0.083028 -0.367609 0.831995
v -0.076252 -0.387441 0.831665
v -0.080020 -0.369923 0.831995
v -0.077607 -0.372831 0.831929
v -0.080020 -0.370518 0.864651
v -0.080020 -0.369923 0.831995
v -0.075954 -0.376269 0.831863
v -0.077607 -0.373459 0.864585
v -0.077607 -0.372831 0.831929
v -0.077607 -0.373459 0.864585
v -0.075954 -0.376269 0.831863
v -0.075954 -0.376864 0.864519
v -0.080020 -0.369923 0.831995
v -0.076252 -0.387441 0.831665
v -0.077607 -0.372831 0.831929
v -0.077607 -0.372831 0.831929
v -0.076252 -0.387441 0.831665
v -0.075954 -0.376269 0.831863
v -0.075161 -0.379971 0.831797
v -0.075954 -0.376864 0.864519
v -0.075954 -0.376269 0.831863
v -0.075954 -0.376864 0.864519
v -0.075161 -0.379971 0.831797
v -0.075161 -0.380566 0.864453
v -0.075260 -0.384367 0.864387
v -0.076252 -0.387441 0.831665
v -0.076285 -0.388035 0.864321
v -0.075954 -0.376269 0.831863
v -0.076252 -0.387441 0.831665
v -0.075260 -0.383772 0.831731
v -0.075954 -0.376269 0.831863
v -0.075260 -0.383772 0.831731
v -0.075161 -0.379971 0.831797
v -0.075260 -0.383772 0.831731
v -0.075161 -0.380566 0.864453
v -0.075161 -0.379971 0.831797
v -0.076252 -0.387441 0.831665
v -0.075260 -0.384367 0.864387
v -0.075260 -0.383772 0.831731
v -0.075161 -0.380566 0.864453
v -0.075260 -0.383772 0.831731
v -0.075260 -0.384367 0.864387
vt 28.64450454711914 5.71999979019165
vt 29.25081443786621 5.71999979019165
vt 28.64450454711914 2.2750000953674316
vt 27.64993667602539 5.71999979019165
vt 28.256248474121094 5.71999979019165
vt 27.64993667602539 2.2750000953674316
vt 28.013090133666992 5.71999979019165
vt 28.619401931762695 5.71999979019165
vt 28.013090133666992 2.2750000953674316
vt 29.25081443786621 2.2750000953674316
vt 28.619401931762695 2.2750000953674316
vt 28.256248474121094 2.2750000953674316
vt 25.08525276184082 5.71999979019165
vt 25.691564559936523 5.71999979019165
vt 25.08525276184082 2.2750000953674316
vt 26.39747428894043 5.71999979019165
vt 26.39747428894043 2.2750000953674316
vt 25.791162490844727 5.71999979019165
vt 26.664440155029297 12.972345352172852
vt 29.580970764160156 9.427754402160645
vt 26.089832305908203 12.771114349365234
vt 25.57689666748047 12.434903144836426
vt 27.268444061279297 13.027292251586914
vt 25.691564559936523 2.2750000953674316
vt 21.094511032104492 5.71999979019165
vt 21.700822830200195 5.71999979019165
vt 21.094511032104492 2.2750000953674316
vt 25.791162490844727 2.2750000953674316
vt 25.15444564819336 11.982595443725586
vt 27.867919921875 12.932868003845215
vt 21.700822830200195 2.2750000953674316
vt 15.90186882019043 5.71999979019165
vt 16.508180618286133 5.71999979019165
vt 15.90186882019043 2.2750000953674316
vt 28.42919158935547 12.694378852844238
vt 16.508180618286133 2.2750000953674316
vt 10.405306816101074 5.71999979019165
vt 10.405306816101074 2.2750000953674316
vt 9.798995971679688 5.71999979019165
vt 28.920734405517578 12.325218200683594
vt 9.798995971679688 2.2750000953674316
vt 3.128688097000122 2.2750000953674316
vt 3.128688097000122 5.71999979019165
vt 3.734998941421509 2.2750000953674316
vt 3.734998941421509 5.71999979019165
vt 29.31494140625 11.846122741699219
vt 29.589664459228516 11.284004211425781
vt -3.7343859672546387 2.2750000953674316
vt -3.7343859672546387 5.71999979019165
vt -3.128074884414673 2.2750000953674316
vt -3.128074884414673 5.71999979019165
vt -15.90135669708252 5.71999979019165
vt -15.90135669708252 2.2750000953674316
vt -16.507667541503906 5.71999979019165
vt 29.72652244567871 10.039877891540527
vt 29.729476928710938 10.67043399810791
vt -10.404727935791016 2.2750000953674316
vt -10.404727935791016 5.71999979019165
vt -9.798417091369629 2.2750000953674316
vt -16.507667541503906 2.2750000953674316
vt -9.798417091369629 5.71999979019165
vt 1.2154779434204102 0
vt 1.8232170343399048 3.375
vt 1.2154779434204102 3.375
vt 1.8232170343399048 0
vt 2.4309558868408203 3.375
vt 0.6077389717102051 0
vt 0.6077389717102051 3.375
vt 2.4309558868408203 0
vt 3.0386950969696045 3.375
vt 0 3.375
vt 26.089832305908203 12.511613845825195
vt 29.580970764160156 9.236187934875488
vt 26.664440155029297 12.708756446838379
vt 25.57689666748047 12.182233810424805
vt 27.268444061279297 12.762585639953613
vt 3.0386950969696045 0
vt 3.6464340686798096 3.375
vt 0 0
vt 25.15444564819336 11.739116668701172
vt 27.867919921875 12.67008113861084
vt 3.6464340686798096 0
vt 4.25417423248291 3.375
vt 28.42919158935547 12.436437606811523
vt 4.25417423248291 0
vt 4.861913204193115 0
vt 4.861913204193115 3.375
vt 28.920734405517578 12.074777603149414
vt 5.46965217590332 0
vt 5.46965217590332 3.375
vt 29.31494140625 11.60541820526123
vt 29.589664459228516 11.054720878601074
vt 6.077391147613525 0
vt 6.077391147613525 3.375
vt 6.6851301193237305 3.375
vt 7.2928690910339355 0
vt 7.2928690910339355 3.375
vt 29.72652244567871 9.835874557495117
vt 29.729476928710938 10.453618049621582
vt 6.6851301193237305 0
vn -0.40870600241047195 0.9125130020758426 0.016715999407300283
vn -0.18244898510010685 0.9830499187366217 0.018033998665363767
vn 0.0540570218048115 0.9983694118257208 0.018340008842915607
vn -0.6120071061114153 0.7907200947588566 0.01445800171792895
vn 0.28752595834639616 0.9576108474605833 0.017614996531638942
vn -0.7014110993772793 0.7126381125071339 0.013015001829663963
vn 0.00010300003932064134 0.01836100762282291 -0.9998314171849504
vn 0.5048448232708069 0.8630636493549608 0.01590099301191485
vn 0.6938071416453815 0.7200381376649108 0.013294002779925767
vn 0.8437979191044713 0.5365689594613 0.009940998822144335
vn 0.9463933790028679 0.3229601142089276 0.006028002130931291
vn 0.9958300017636045 0.09121099880695752 0.001778000038528305
vn 0.9650965847420085 -0.2618518807647658 -0.004708997692275525
vn 0.9893312109883984 -0.14566102647009704 -0.0025730005648298597
vn 0.40870600241047195 -0.9125130020758426 -0.016715999407300283
vn 0.18244898510010685 -0.9830499187366217 -0.018033998665363767
vn -0.0540570218048115 -0.9983694118257208 -0.018340008842915607
vn 0.6120071061114153 -0.7907200947588566 -0.01445800171792895
vn -0.28752595834639616 -0.9576108474605833 -0.017614996531638942
vn 0.7014110993772793 -0.7126381125071339 -0.013015001829663963
vn -0.00010300003932064134 -0.01836100762282291 0.9998314171849504
vn -0.5048448232708069 -0.8630636493549608 -0.01590099301191485
vn -0.6938071416453815 -0.7200381376649108 -0.013294002779925767
vn -0.8437979191044713 -0.5365689594613 -0.009940998822144335
vn -0.9463933790028679 -0.3229601142089276 -0.006028002130931291
vn -0.9958300017636045 -0.09121099880695752 -0.001778000038528305
vn -0.9893312109883984 0.14566102647009704 0.0025730005648298597
vn -0.9650965847420085 0.2618518807647658 0.004708997692275525
usemtl material_0_0
f 1/1/1 2/2/2 3/3/1
f 4/4/2 5/5/3 6/6/2
f 7/7/4 8/8/1 9/9/4
f 10/10/2 11/3/1 12/2/2
f 13/11/1 14/9/4 15/8/1
f 16/12/3 17/6/2 18/5/3
f 19/13/3 20/14/5 21/15/3
f 22/16/4 23/17/4 24/18/6
f 25/19/7 26/20/7 27/21/7
f 28/21/7 29/20/7 30/22/7
f 31/23/7 32/20/7 33/19/7
f 34/24/5 35/15/3 36/14/5
f 37/25/5 38/26/8 39/27/5
f 40/28/6 41/18/6 42/17/4
f 43/29/7 44/22/7 45/20/7
f 46/30/7 47/20/7 48/23/7
f 49/31/8 50/27/5 51/26/8
f 52/32/8 53/33/9 54/34/8
f 55/35/7 56/20/7 57/30/7
f 58/36/9 59/34/8 60/33/9
f 61/37/10 62/38/10 63/39/9
f 64/40/7 65/20/7 66/35/7
f 67/41/9 68/39/9 69/38/10
f 70/42/10 71/43/10 72/44/11
f 73/45/11 74/44/11 75/43/10
f 76/46/7 77/20/7 78/40/7
f 79/47/7 80/20/7 81/46/7
f 82/48/11 83/49/11 84/50/12
f 85/51/12 86/50/12 87/49/11
f 88/52/13 89/53/13 90/54/14
f 91/55/7 92/20/7 93/47/7
f 94/56/7 95/55/7 96/47/7
f 97/57/12 98/58/12 99/59/14
f 100/60/14 101/54/14 102/53/13
f 103/61/14 104/59/14 105/58/12
usemtl material_1_0
f 106/62/15 107/63/16 108/64/15
f 109/65/16 110/66/17 111/63/16
f 112/67/18 113/64/15 114/68/18
f 115/63/16 116/62/15 117/65/16
f 118/64/15 119/67/18 120/62/15
f 121/66/17 122/65/16 123/69/17
f 124/69/17 125/70/19 126/66/17
f 127/71/20 128/67/18 129/68/18
f 130/72/21 131/73/21 132/74/21
f 133/75/21 134/73/21 135/72/21
f 136/74/21 137/73/21 138/76/21
f 139/70/19 140/69/17 141/77/19
f 142/77/19 143/78/22 144/70/19
f 145/67/18 146/71/20 147/79/20
f 148/73/21 149/75/21 150/80/21
f 151/76/21 152/73/21 153/81/21
f 154/78/22 155/77/19 156/82/22
f 157/82/22 158/83/23 159/78/22
f 160/81/21 161/73/21 162/84/21
f 163/83/23 164/82/22 165/85/23
f 166/83/23 167/86/24 168/87/24
f 169/84/21 170/73/21 171/88/21
f 172/86/24 173/83/23 174/85/23
f 175/89/25 176/87/24 177/86/24
f 178/87/24 179/89/25 180/90/25
f 181/88/21 182/73/21 183/91/21
f 184/91/21 185/73/21 186/92/21
f 187/93/26 188/90/25 189/89/25
f 190/90/25 191/93/26 192/94/26
f 193/95/27 194/96/28 195/97/28
f 196/92/21 197/73/21 198/98/21
f 199/92/21 200/98/21 201/99/21
f 202/100/27 203/94/26 204/93/26
f 205/96/28 206/95/27 207/100/27
f 208/94/26 209/100/27 210/95/27
