# SSTK version 0.8.0
# 104
mtllib original-104.mtl
o mesh46/mesh46-geometry/material_0/component_3#mesh46-geometry
v 0.488713 -0.023038 0.160238
v 0.447100 0.047265 0.160238
v 0.462668 0.069840 0.160238
v 0.488713 -0.023038 0.160238
v 0.467560 -0.040985 0.160238
v 0.447100 0.047265 0.160238
v 0.462668 0.069840 0.160238
v 0.447100 0.047265 0.160238
v 0.403372 0.127450 0.160238
v 0.488680 -0.119154 0.160238
v 0.467560 -0.040985 0.160238
v 0.488713 -0.023038 0.160238
v 0.462668 0.069840 0.160238
v 0.403372 0.127450 0.160238
v 0.412263 0.153082 0.160238
v 0.488680 -0.119154 0.160238
v 0.463362 -0.131284 0.160238
v 0.467560 -0.040985 0.160238
v 0.412263 0.153082 0.160238
v 0.403372 0.127450 0.160238
v 0.339316 0.194133 0.160238
v 0.412263 0.153082 0.160238
v 0.339316 0.194133 0.160238
v 0.340936 0.221088 0.160238
v 0.340936 0.221088 0.160238
v 0.259296 0.242753 0.160238
v 0.253545 0.269195 0.160238
v 0.462503 -0.211965 0.160238
v 0.463362 -0.131284 0.160238
v 0.488680 -0.119154 0.160238
v 0.340936 0.221088 0.160238
v 0.339316 0.194133 0.160238
v 0.259296 0.242753 0.160238
v 0.253545 0.269195 0.160238
v 0.168832 0.270005 0.160238
v 0.156074 0.294117 0.160238
v 0.074037 0.274021 0.160238
v 0.055165 0.294166 0.160238
v 0.156074 0.294117 0.160238
v 0.253545 0.269195 0.160238
v 0.259296 0.242753 0.160238
v 0.168832 0.270005 0.160238
v 0.462503 -0.211965 0.160238
v 0.434739 -0.217452 0.160238
v 0.463362 -0.131284 0.160238
v 0.156074 0.294117 0.160238
v 0.168832 0.270005 0.160238
v 0.074037 0.274021 0.160238
v 0.074037 0.274021 0.160238
v -0.042340 0.269344 0.160238
v 0.055165 0.294166 0.160238
v 0.462503 -0.211965 0.160238
v 0.383706 -0.293638 0.160238
v 0.434739 -0.217452 0.160238
v -0.018642 0.254537 0.160238
v -0.042340 0.269344 0.160238
v 0.074037 0.274021 0.160238
v -0.018642 0.254537 0.160238
v -0.129764 0.221335 0.160238
v -0.042340 0.269344 0.160238
v 0.411998 -0.295191 0.160238
v 0.383706 -0.293638 0.160238
v 0.462503 -0.211965 0.160238
v -0.102826 0.212857 0.160238
v -0.129764 0.221335 0.160238
v -0.018642 0.254537 0.160238
v 0.411998 -0.295191 0.160238
v 0.313668 -0.354620 0.160238
v 0.383706 -0.293638 0.160238
v -0.102826 0.212857 0.160238
v -0.201157 0.153413 0.160238
v -0.129764 0.221335 0.160238
v 0.340605 -0.363114 0.160238
v 0.313668 -0.354620 0.160238
v 0.411998 -0.295191 0.160238
v -0.172864 0.151859 0.160238
v -0.201157 0.153413 0.160238
v -0.102826 0.212857 0.160238
v 0.340605 -0.363114 0.160238
v 0.229483 -0.396299 0.160238
v 0.313668 -0.354620 0.160238
v -0.223897 0.075690 0.160238
v -0.201157 0.153413 0.160238
v -0.172864 0.151859 0.160238
v 0.253182 -0.411106 0.160238
v 0.229483 -0.396299 0.160238
v 0.340605 -0.363114 0.160238
v -0.223897 0.075690 0.160238
v -0.251661 0.070203 0.160238
v -0.201157 0.153413 0.160238
v 0.253182 -0.411106 0.160238
v 0.136804 -0.415800 0.160238
v 0.229483 -0.396299 0.160238
v -0.252520 -0.010511 0.160238
v -0.251661 0.070203 0.160238
v -0.223897 0.075690 0.160238
v 0.253182 -0.411106 0.160238
v 0.054768 -0.435895 0.160238
v 0.136804 -0.415800 0.160238
v -0.252520 -0.010511 0.160238
v -0.277839 -0.022641 0.160238
v -0.251661 0.070203 0.160238
v 0.054768 -0.435895 0.160238
v 0.253182 -0.411106 0.160238
v 0.155677 -0.435928 0.160238
v -0.042704 -0.410974 0.160238
v 0.136804 -0.415800 0.160238
v 0.054768 -0.435895 0.160238
v -0.256718 -0.100777 0.160238
v -0.277839 -0.022641 0.160238
v -0.252520 -0.010511 0.160238
v 0.136804 -0.415800 0.160238
v -0.042704 -0.410974 0.160238
v 0.042010 -0.411767 0.160238
v -0.256718 -0.100777 0.160238
v -0.277872 -0.118757 0.160238
v -0.277839 -0.022641 0.160238
v 0.042010 -0.411767 0.160238
v -0.042704 -0.410974 0.160238
v -0.048455 -0.384532 0.160238
v -0.048455 -0.384532 0.160238
v -0.130094 -0.362850 0.160238
v -0.128442 -0.335912 0.160238
v -0.192497 -0.269212 0.160238
v -0.251826 -0.211602 0.160238
v -0.236259 -0.189027 0.160238
v -0.128442 -0.335912 0.160238
v -0.201388 -0.294861 0.160238
v -0.192497 -0.269212 0.160238
v -0.236259 -0.189027 0.160238
v -0.277872 -0.118757 0.160238
v -0.256718 -0.100777 0.160238
v -0.048455 -0.384532 0.160238
v -0.042704 -0.410974 0.160238
v -0.130094 -0.362850 0.160238
v -0.128442 -0.335912 0.160238
v -0.130094 -0.362850 0.160238
v -0.201388 -0.294861 0.160238
v -0.192497 -0.269212 0.160238
v -0.201388 -0.294861 0.160238
v -0.251826 -0.211602 0.160238
v -0.236259 -0.189027 0.160238
v -0.251826 -0.211602 0.160238
v -0.277872 -0.118757 0.160238
v 0.462668 0.069840 0.160238
v 0.447100 0.047265 0.160238
v 0.488713 -0.023038 0.160238
v 0.447100 0.047265 0.160238
v 0.467560 -0.040985 0.160238
v 0.488713 -0.023038 0.160238
v 0.403372 0.127450 0.160238
v 0.447100 0.047265 0.160238
v 0.462668 0.069840 0.160238
v 0.488713 -0.023038 0.160238
v 0.467560 -0.040985 0.160238
v 0.488680 -0.119154 0.160238
v 0.412263 0.153082 0.160238
v 0.403372 0.127450 0.160238
v 0.462668 0.069840 0.160238
v 0.467560 -0.040985 0.160238
v 0.463362 -0.131284 0.160238
v 0.488680 -0.119154 0.160238
v 0.339316 0.194133 0.160238
v 0.403372 0.127450 0.160238
v 0.412263 0.153082 0.160238
v 0.340936 0.221088 0.160238
v 0.339316 0.194133 0.160238
v 0.412263 0.153082 0.160238
v 0.253545 0.269195 0.160238
v 0.259296 0.242753 0.160238
v 0.340936 0.221088 0.160238
v 0.488680 -0.119154 0.160238
v 0.463362 -0.131284 0.160238
v 0.462503 -0.211965 0.160238
v 0.259296 0.242753 0.160238
v 0.339316 0.194133 0.160238
v 0.340936 0.221088 0.160238
v 0.156074 0.294117 0.160238
v 0.168832 0.270005 0.160238
v 0.253545 0.269195 0.160238
v 0.156074 0.294117 0.160238
v 0.055165 0.294166 0.160238
v 0.074037 0.274021 0.160238
v 0.168832 0.270005 0.160238
v 0.259296 0.242753 0.160238
v 0.253545 0.269195 0.160238
v 0.463362 -0.131284 0.160238
v 0.434739 -0.217452 0.160238
v 0.462503 -0.211965 0.160238
v 0.074037 0.274021 0.160238
v 0.168832 0.270005 0.160238
v 0.156074 0.294117 0.160238
v 0.055165 0.294166 0.160238
v -0.042340 0.269344 0.160238
v 0.074037 0.274021 0.160238
v 0.434739 -0.217452 0.160238
v 0.383706 -0.293638 0.160238
v 0.462503 -0.211965 0.160238
v 0.074037 0.274021 0.160238
v -0.042340 0.269344 0.160238
v -0.018642 0.254537 0.160238
v -0.042340 0.269344 0.160238
v -0.129764 0.221335 0.160238
v -0.018642 0.254537 0.160238
v 0.462503 -0.211965 0.160238
v 0.383706 -0.293638 0.160238
v 0.411998 -0.295191 0.160238
v -0.018642 0.254537 0.160238
v -0.129764 0.221335 0.160238
v -0.102826 0.212857 0.160238
v 0.383706 -0.293638 0.160238
v 0.313668 -0.354620 0.160238
v 0.411998 -0.295191 0.160238
v -0.129764 0.221335 0.160238
v -0.201157 0.153413 0.160238
v -0.102826 0.212857 0.160238
v 0.411998 -0.295191 0.160238
v 0.313668 -0.354620 0.160238
v 0.340605 -0.363114 0.160238
v -0.102826 0.212857 0.160238
v -0.201157 0.153413 0.160238
v -0.172864 0.151859 0.160238
v 0.313668 -0.354620 0.160238
v 0.229483 -0.396299 0.160238
v 0.340605 -0.363114 0.160238
v -0.172864 0.151859 0.160238
v -0.201157 0.153413 0.160238
v -0.223897 0.075690 0.160238
v 0.340605 -0.363114 0.160238
v 0.229483 -0.396299 0.160238
v 0.253182 -0.411106 0.160238
v -0.201157 0.153413 0.160238
v -0.251661 0.070203 0.160238
v -0.223897 0.075690 0.160238
v 0.229483 -0.396299 0.160238
v 0.136804 -0.415800 0.160238
v 0.253182 -0.411106 0.160238
v -0.223897 0.075690 0.160238
v -0.251661 0.070203 0.160238
v -0.252520 -0.010511 0.160238
v 0.136804 -0.415800 0.160238
v 0.054768 -0.435895 0.160238
v 0.253182 -0.411106 0.160238
v -0.251661 0.070203 0.160238
v -0.277839 -0.022641 0.160238
v -0.252520 -0.010511 0.160238
v 0.155677 -0.435928 0.160238
v 0.253182 -0.411106 0.160238
v 0.054768 -0.435895 0.160238
v 0.054768 -0.435895 0.160238
v 0.136804 -0.415800 0.160238
v -0.042704 -0.410974 0.160238
v -0.252520 -0.010511 0.160238
v -0.277839 -0.022641 0.160238
v -0.256718 -0.100777 0.160238
v 0.042010 -0.411767 0.160238
v -0.042704 -0.410974 0.160238
v 0.136804 -0.415800 0.160238
v -0.277839 -0.022641 0.160238
v -0.277872 -0.118757 0.160238
v -0.256718 -0.100777 0.160238
v -0.048455 -0.384532 0.160238
v -0.042704 -0.410974 0.160238
v 0.042010 -0.411767 0.160238
v -0.128442 -0.335912 0.160238
v -0.130094 -0.362850 0.160238
v -0.048455 -0.384532 0.160238
v -0.236259 -0.189027 0.160238
v -0.251826 -0.211602 0.160238
v -0.192497 -0.269212 0.160238
v -0.192497 -0.269212 0.160238
v -0.201388 -0.294861 0.160238
v -0.128442 -0.335912 0.160238
v -0.256718 -0.100777 0.160238
v -0.277872 -0.118757 0.160238
v -0.236259 -0.189027 0.160238
v -0.130094 -0.362850 0.160238
v -0.042704 -0.410974 0.160238
v -0.048455 -0.384532 0.160238
v -0.201388 -0.294861 0.160238
v -0.130094 -0.362850 0.160238
v -0.128442 -0.335912 0.160238
v -0.251826 -0.211602 0.160238
v -0.201388 -0.294861 0.160238
v -0.192497 -0.269212 0.160238
v -0.277872 -0.118757 0.160238
v -0.251826 -0.211602 0.160238
v -0.236259 -0.189027 0.160238
vt 0 0
vt 2.9861109256744385 8.357590675354004
vt 3.2219998836517334 8.001687049865723
vt 2.5908091068267822 6.893186092376709
vt 2.9116599559783936 6.6098809242248535
vt 3.885453939437866 9.266512870788574
vt 2.591636896133423 5.377342224121094
vt 3.7506039142608643 9.670761108398438
vt 2.9755849838256836 5.18594217300415
vt 4.856811046600342 10.318161010742188
vt 4.832188129425049 10.743204116821289
vt 6.157156944274902 11.501835823059082
vt 6.069872856140137 11.08496379852295
vt 2.9885380268096924 3.9133620262145996
vt 7.635213851928711 11.894957542419434
vt 7.4419732093811035 11.514665603637695
vt 9.165633201599121 11.895777702331543
vt 8.879603385925293 11.577981948852539
vt 3.4094181060791016 3.8269100189208984
vt 10.644119262695312 11.504240036010742
vt 4.183595180511475 2.6254000663757324
vt 10.28479290008545 11.270598411560059
vt 11.969915390014648 10.747028350830078
vt 3.754465103149414 2.6010119915008545
vt 11.561779975891113 10.613462448120117
vt 5.245355129241943 1.663295030593872
vt 13.052669525146484 9.675745010375977
vt 4.837220191955566 1.5297290086746216
vt 12.623540878295898 9.65135669708252
vt 6.522342205047607 1.0061589479446411
vt 13.397717475891113 8.449848175048828
vt 6.163015842437744 0.7725170254707336
vt 13.818596839904785 8.363394737243652
vt 7.927532196044922 0.6987749934196472
vt 13.831549644470215 7.090816020965576
vt 9.171920776367188 0.38179999589920044
vt 14.215497970581055 6.899415016174316
vt 7.6415019035339355 0.3809800148010254
vt 10.649978637695312 0.7749210000038147
vt 13.895475387573242 5.666876792907715
vt 9.36516284942627 0.7620909810066223
vt 14.216325759887695 5.383571147918701
vt 10.737261772155762 1.1917929649353027
vt 11.950324058532715 1.9585959911346436
vt 11.974946975708008 1.5335530042648315
vt 13.585136413574219 4.2750701904296875
vt 13.821023941040039 3.919166088104248
vt 12.92168140411377 3.0102438926696777
vt 13.056530952453613 2.6059958934783936
vn 0 0 -1
vn 0 0 1
usemtl material_0_0
f 1/1/1 2/1/1 3/1/1
f 4/1/1 5/1/1 6/1/1
f 7/1/1 8/1/1 9/1/1
f 10/1/1 11/1/1 12/1/1
f 13/1/1 14/1/1 15/1/1
f 16/1/1 17/1/1 18/1/1
f 19/1/1 20/1/1 21/1/1
f 22/1/1 23/1/1 24/1/1
f 25/1/1 26/1/1 27/1/1
f 28/1/1 29/1/1 30/1/1
f 31/1/1 32/1/1 33/1/1
f 34/1/1 35/1/1 36/1/1
f 37/1/1 38/1/1 39/1/1
f 40/1/1 41/1/1 42/1/1
f 43/1/1 44/1/1 45/1/1
f 46/1/1 47/1/1 48/1/1
f 49/1/1 50/1/1 51/1/1
f 52/1/1 53/1/1 54/1/1
f 55/1/1 56/1/1 57/1/1
f 58/1/1 59/1/1 60/1/1
f 61/1/1 62/1/1 63/1/1
f 64/1/1 65/1/1 66/1/1
f 67/1/1 68/1/1 69/1/1
f 70/1/1 71/1/1 72/1/1
f 73/1/1 74/1/1 75/1/1
f 76/1/1 77/1/1 78/1/1
f 79/1/1 80/1/1 81/1/1
f 82/1/1 83/1/1 84/1/1
f 85/1/1 86/1/1 87/1/1
f 88/1/1 89/1/1 90/1/1
f 91/1/1 92/1/1 93/1/1
f 94/1/1 95/1/1 96/1/1
f 97/1/1 98/1/1 99/1/1
f 100/1/1 101/1/1 102/1/1
f 103/1/1 104/1/1 105/1/1
f 106/1/1 107/1/1 108/1/1
f 109/1/1 110/1/1 111/1/1
f 112/1/1 113/1/1 114/1/1
f 115/1/1 116/1/1 117/1/1
f 118/1/1 119/1/1 120/1/1
f 121/1/1 122/1/1 123/1/1
f 124/1/1 125/1/1 126/1/1
f 127/1/1 128/1/1 129/1/1
f 130/1/1 131/1/1 132/1/1
f 133/1/1 134/1/1 135/1/1
f 136/1/1 137/1/1 138/1/1
f 139/1/1 140/1/1 141/1/1
f 142/1/1 143/1/1 144/1/1
usemtl material_1_0
f 145/2/2 146/3/2 147/4/2
f 148/3/2 149/5/2 150/4/2
f 151/6/2 152/3/2 153/2/2
f 154/4/2 155/5/2 156/7/2
f 157/8/2 158/6/2 159/2/2
f 160/5/2 161/9/2 162/7/2
f 163/10/2 164/6/2 165/8/2
f 166/11/2 167/10/2 168/8/2
f 169/12/2 170/13/2 171/11/2
f 172/7/2 173/9/2 174/14/2
f 175/13/2 176/10/2 177/11/2
f 178/15/2 179/16/2 180/12/2
f 181/15/2 182/17/2 183/18/2
f 184/16/2 185/13/2 186/12/2
f 187/9/2 188/19/2 189/14/2
f 190/18/2 191/16/2 192/15/2
f 193/17/2 194/20/2 195/18/2
f 196/19/2 197/21/2 198/14/2
f 199/18/2 200/20/2 201/22/2
f 202/20/2 203/23/2 204/22/2
f 205/14/2 206/21/2 207/24/2
f 208/22/2 209/23/2 210/25/2
f 211/21/2 212/26/2 213/24/2
f 214/23/2 215/27/2 216/25/2
f 217/24/2 218/26/2 219/28/2
f 220/25/2 221/27/2 222/29/2
f 223/26/2 224/30/2 225/28/2
f 226/29/2 227/27/2 228/31/2
f 229/28/2 230/30/2 231/32/2
f 232/27/2 233/33/2 234/31/2
f 235/30/2 236/34/2 237/32/2
f 238/31/2 239/33/2 240/35/2
f 241/34/2 242/36/2 243/32/2
f 244/33/2 245/37/2 246/35/2
f 247/38/2 248/32/2 249/36/2
f 250/36/2 251/34/2 252/39/2
f 253/35/2 254/37/2 255/40/2
f 256/41/2 257/39/2 258/34/2
f 259/37/2 260/42/2 261/40/2
f 262/43/2 263/39/2 264/41/2
f 265/44/2 266/45/2 267/43/2
f 268/46/2 269/47/2 270/48/2
f 271/48/2 272/49/2 273/44/2
f 274/40/2 275/42/2 276/46/2
f 277/45/2 278/39/2 279/43/2
f 280/49/2 281/45/2 282/44/2
f 283/47/2 284/49/2 285/48/2
f 286/42/2 287/47/2 288/46/2
