# SSTK version 0.8.0
# 120
mtllib original-120.mtl
o #ID679
v -0.030200 -0.165104 0.422308
v -0.036107 -0.165104 0.426422
v -0.034925 -0.165104 0.425933
v -0.039367 -0.165104 0.425072
v -0.026575 -0.165104 0.417583
v -0.056375 -0.165104 0.412021
v -0.024296 -0.165104 0.412081
v -0.023519 -0.165104 0.406177
v -0.024296 -0.165104 0.400273
v -0.026575 -0.165104 0.394771
v -0.067322 -0.165104 0.397754
v -0.030200 -0.165104 0.390046
v -0.034925 -0.165104 0.386421
v -0.040427 -0.165104 0.384142
v -0.046331 -0.165104 0.383365
v -0.066086 -0.165104 0.394771
v -0.052235 -0.165104 0.384142
v -0.062461 -0.165104 0.390047
v -0.057737 -0.165104 0.386421
v -0.057737 -0.165104 0.386421
v -0.052235 -0.165104 0.384142
v -0.062461 -0.165104 0.390047
v -0.066086 -0.165104 0.394771
v -0.046331 -0.165104 0.383365
v -0.067322 -0.165104 0.397754
v -0.040427 -0.165104 0.384142
v -0.034925 -0.165104 0.386421
v -0.030200 -0.165104 0.390046
v -0.026575 -0.165104 0.394771
v -0.056375 -0.165104 0.412021
v -0.024296 -0.165104 0.400273
v -0.023519 -0.165104 0.406177
v -0.024296 -0.165104 0.412081
v -0.026575 -0.165104 0.417583
v -0.039367 -0.165104 0.425072
v -0.030200 -0.165104 0.422308
v -0.036107 -0.165104 0.426422
v -0.034925 -0.165104 0.425933
vn 0 1 0
vn 0 -1 0
usemtl material_0_0
f 20//2 21//2 22//2
f 22//2 21//2 23//2
f 21//2 24//2 23//2
f 23//2 24//2 25//2
f 24//2 26//2 25//2
f 26//2 27//2 25//2
f 27//2 28//2 25//2
f 28//2 29//2 25//2
f 25//2 29//2 30//2
f 29//2 31//2 30//2
f 31//2 32//2 30//2
f 32//2 33//2 30//2
f 33//2 34//2 30//2
f 30//2 34//2 35//2
f 34//2 36//2 35//2
f 35//2 36//2 37//2
f 38//2 37//2 36//2
usemtl material_1_0
f 1//1 2//1 3//1
f 2//1 1//1 4//1
f 4//1 1//1 5//1
f 4//1 5//1 6//1
f 6//1 5//1 7//1
f 6//1 7//1 8//1
f 6//1 8//1 9//1
f 6//1 9//1 10//1
f 6//1 10//1 11//1
f 11//1 10//1 12//1
f 11//1 12//1 13//1
f 11//1 13//1 14//1
f 11//1 14//1 15//1
f 11//1 15//1 16//1
f 16//1 15//1 17//1
f 16//1 17//1 18//1
f 18//1 17//1 19//1
