# Blender v2.93.4 OBJ File: ''
# www.blender.org
mtllib new-1-fixed.mtl
o new-1
v -0.400357 0.718766 0.563511
v -0.400357 0.685430 0.530175
v -0.350352 0.718766 0.563511
v -0.400357 -0.061860 0.530175
v -0.400357 -0.095196 0.563511
v -0.350352 -0.061860 0.530175
v -0.350352 -0.095196 0.563511
v -0.350352 0.685430 0.530175
v -0.400357 0.718671 0.564961
v -0.350352 -0.095101 0.564961
v -0.350352 0.718671 0.564961
v -0.400357 0.718387 0.566387
v -0.400357 -0.095101 0.564961
v -0.350352 -0.094818 0.566387
v -0.350352 0.718387 0.566387
v -0.400357 0.717920 0.567764
v -0.400357 -0.094818 0.566387
v -0.350352 -0.094351 0.567764
v -0.350352 0.717920 0.567764
v -0.400357 0.717277 0.569067
v -0.400357 -0.094351 0.567764
v -0.350352 -0.093708 0.569067
v -0.350352 0.717277 0.569067
v -0.400357 0.716470 0.570276
v -0.400357 -0.093708 0.569067
v -0.350352 -0.092900 0.570276
v -0.350352 0.716470 0.570276
v -0.400357 0.715511 0.571369
v -0.400357 -0.092900 0.570276
v -0.350352 -0.091942 0.571369
v -0.350352 0.715511 0.571369
v -0.350352 0.714419 0.572327
v -0.400357 -0.091942 0.571369
v -0.350352 -0.090849 0.572327
v -0.400357 0.714419 0.572327
v -0.400357 -0.090849 0.572327
v -0.350352 0.713210 0.573134
v -0.350352 -0.089640 0.573134
v -0.400357 -0.089640 0.573134
v -0.400357 0.713210 0.573134
v -0.350352 0.711906 0.573777
v -0.350352 -0.088337 0.573777
v -0.400357 -0.088337 0.573777
v -0.400357 0.711906 0.573777
v -0.350352 0.710530 0.574244
v -0.350352 -0.086960 0.574244
v -0.400357 -0.086960 0.574244
v -0.400357 0.710530 0.574244
v -0.350352 0.709104 0.574528
v -0.350352 -0.085535 0.574528
v -0.400357 -0.085535 0.574528
v -0.400357 0.709104 0.574528
v -0.350352 0.707654 0.574623
v -0.350352 -0.084084 0.574623
v -0.400357 -0.084084 0.574623
v -0.400357 0.707654 0.574623
vt -0.009259 0.631944
vt -0.009259 0.631944
vt -0.009259 0.631944
vt -0.009259 0.631944
vt -0.009259 0.631944
vt -0.009259 0.631944
vt -0.009259 0.631944
vt -0.009259 0.631944
vt -0.009259 0.631944
vt -0.009259 0.631944
vt -0.009259 0.631944
vt -0.009259 0.631944
vt -0.009259 0.631944
vt -0.009259 0.631944
vt -0.009259 0.631944
vt -0.009259 0.631944
vt -0.009259 0.631944
vt -0.009259 0.631944
vt -0.009259 0.631944
vt -0.009259 0.631944
vt -0.009259 0.631944
vt -0.009259 0.631944
vt -0.009259 0.631944
vt -0.009259 0.631944
vt -0.009259 0.631944
vt -0.009259 0.631944
vt -0.009259 0.631944
vt -0.009259 0.631944
vt -0.009259 0.631944
vt -0.009259 0.631944
vt -0.009259 0.631944
vt -0.009259 0.631944
vt -0.009259 0.631944
vt -0.009259 0.631944
vt -0.009259 0.631944
vt -0.009259 0.631944
vt -0.009259 0.631944
vt -0.009259 0.631944
vt -0.009259 0.631944
vt -0.009259 0.631944
vt -0.009259 0.631944
vt -0.009259 0.631944
vt -0.009259 0.631944
vt -0.009259 0.631944
vt -0.009259 0.631944
vt -0.009259 0.631944
vt -0.009259 0.631944
vt -0.009259 0.631944
vt -0.009259 0.631944
vt -0.009259 0.631944
vt -0.009259 0.631944
vt -0.009259 0.631944
vt -0.009259 0.631944
vt -0.025463 0.285030
vt -0.039352 0.610261
vt -0.025463 0.596372
vt 0.039352 0.271141
vt 0.039352 0.610261
vt 0.039956 0.271181
vt 0.025463 0.596372
vt 0.025463 0.285030
vt 0.018352 0.596372
vt 0.039186 0.596372
vt 0.018352 0.285030
vt -0.039186 0.000040
vt -0.039186 0.000645
vt -0.018352 0.000040
vt -0.039352 0.271141
vt -0.039956 0.610222
vt 0.039186 0.285030
vt -0.039186 0.079254
vt -0.039186 0.079860
vt -0.018352 0.079254
vt -0.039186 0.092093
vt -0.039186 0.092699
vt -0.018352 0.092093
vt -0.039956 0.271181
vt -0.040550 0.271299
vt -0.040550 0.610104
vt -0.018352 0.092699
vt 0.040550 0.271299
vt 0.040550 0.610104
vt 0.041124 0.271493
vt -0.039186 0.157108
vt -0.039186 0.157713
vt -0.018352 0.157108
vt -0.039186 0.125604
vt -0.039186 0.126210
vt -0.018352 0.125604
vt 0.041124 0.609909
vt -0.041124 0.271493
vt -0.041124 0.609909
vt -0.018352 0.126210
vt -0.039186 0.232268
vt -0.039186 0.232873
vt -0.018352 0.232268
vt -0.039186 0.156961
vt -0.039186 0.157567
vt -0.018352 0.156961
vt 0.041667 0.609641
vt 0.041667 0.271761
vt -0.018352 0.304054
vt -0.018352 0.303448
vt -0.039186 0.304054
vt -0.041667 0.271761
vt -0.041667 0.609641
vt -0.018352 0.157567
vt -0.039186 0.303448
vt -0.042170 0.609305
vt -0.039186 0.185627
vt -0.039186 0.186233
vt -0.018352 0.185627
vt -0.018352 0.186233
vt 0.042170 0.272098
vt 0.042170 0.609305
vt 0.042625 0.272497
vt -0.039186 0.369432
vt -0.039186 0.370037
vt -0.018352 0.369432
vt -0.039186 0.211112
vt -0.039186 0.211717
vt -0.018352 0.211112
vt -0.039186 0.429694
vt -0.018352 0.429694
vt -0.039186 0.429089
vt -0.042170 0.272098
vt -0.042625 0.272497
vt -0.042625 0.608905
vt 0.042625 0.608905
vt 0.043025 0.272952
vt -0.043025 0.608450
vt -0.018352 0.232979
vt -0.039186 0.232979
vt -0.018352 0.233585
vt -0.039186 0.233585
vt -0.039186 0.482004
vt -0.018352 0.482004
vt -0.039186 0.481399
vt -0.043025 0.272952
vt 0.043025 0.608450
vt 0.043361 0.607947
vt 0.043361 0.273456
vt -0.039186 0.251460
vt -0.018352 0.251460
vt -0.039186 0.250855
vt -0.039186 0.526073
vt -0.018352 0.526073
vt -0.039186 0.525467
vt -0.018352 0.264433
vt -0.039186 0.264433
vt -0.018352 0.265039
vt -0.043361 0.607947
vt -0.043361 0.273456
vt -0.043629 0.607403
vt 0.043629 0.607403
vt 0.043629 0.273999
vt -0.039186 0.561145
vt -0.018352 0.561145
vt -0.039186 0.560539
vt -0.043629 0.273999
vt -0.043824 0.606830
vt -0.018352 0.560539
vt 0.043824 0.606830
vt 0.043824 0.274572
vt -0.039186 0.274088
vt -0.018352 0.274088
vt -0.039186 0.273482
vt -0.043824 0.274572
vt -0.018352 0.277846
vt -0.039186 0.277846
vt -0.018352 0.278452
vt -0.018352 0.586015
vt -0.039186 0.586015
vt -0.018352 0.586620
vt 0.043942 0.606236
vt 0.043942 0.275166
vt -0.039186 0.278452
vt -0.039186 0.602064
vt -0.018352 0.602064
vt -0.039186 0.601459
vt -0.018352 0.277451
vt -0.039186 0.277451
vt -0.018352 0.278057
vt -0.043942 0.606236
vt -0.043942 0.275166
vt -0.043981 0.605632
vt -0.018352 0.601459
vt 0.043981 0.605632
vt 0.043981 0.275771
vt -0.039186 0.278057
vt -0.043981 0.275771
vt -0.018352 0.275771
vt -0.039186 0.275771
vt -0.018352 0.605632
vn -1.0000 0.0000 0.0000
vn 0.0000 -0.9979 -0.0653
vn 0.0000 -0.9914 -0.1305
vn 1.0000 0.0000 0.0000
vn 0.0000 0.9979 -0.0654
vn 0.0000 0.9914 -0.1305
vn 0.0000 -0.9914 -0.1306
vn 0.0000 -0.9659 -0.2589
vn 0.0000 -0.9660 -0.2587
vn 0.0000 -0.9239 -0.3826
vn 0.0000 -0.9238 -0.3828
vn 0.0000 -0.8660 -0.5001
vn 0.0000 -0.7934 -0.6088
vn 0.0000 -0.7071 -0.7071
vn 0.0000 0.7071 -0.7071
vn 0.0000 0.7934 -0.6088
vn 0.0000 -0.6088 -0.7933
vn -0.0000 0.5000 -0.8660
vn 0.0000 0.6088 -0.7934
vn 0.0000 -0.5001 -0.8660
vn -0.0000 -0.5000 -0.8660
vn 0.0000 -0.3827 -0.9239
vn -0.0000 0.3827 -0.9239
vn 0.0000 0.2588 -0.9659
vn 0.0000 -0.1305 -0.9914
vn -0.0000 -0.2588 -0.9659
vn 0.0000 0.0000 -1.0000
vn -0.0000 0.9915 0.1304
vn 0.0000 0.9979 0.0653
vn -0.0000 0.9659 0.2588
vn -0.0000 0.9914 0.1305
vn -0.0000 -0.9914 0.1305
vn -0.0000 -0.9659 0.2588
vn 0.0000 -0.9660 0.2585
vn -0.0000 0.9239 0.3827
vn 0.0000 -0.9239 0.3827
vn -0.0000 0.8661 0.4999
vn -0.0000 0.9239 0.3826
vn 0.0000 -0.8659 0.5002
vn 0.0000 0.8660 0.5000
vn 0.0000 0.7933 0.6088
vn -0.0000 -0.8660 0.5000
vn -0.0000 0.8660 0.5001
vn -0.0000 -0.7934 0.6088
vn 0.0000 0.7071 0.7071
vn -0.0000 0.7934 0.6087
vn -0.0000 -0.7071 0.7071
vn -0.0000 0.6087 0.7934
vn 0.0000 -0.6088 0.7934
vn -0.0000 0.6088 0.7934
vn -0.0000 0.5000 0.8660
vn 0.0000 -0.5000 0.8660
vn -0.0000 0.3826 0.9239
vn 0.0000 -0.3827 0.9239
vn -0.0000 0.3827 0.9239
vn -0.0000 0.2588 0.9659
vn 0.0000 0.2589 0.9659
vn 0.0000 -0.2589 0.9659
vn -0.0000 -0.2588 0.9659
vn 0.0000 -0.1307 0.9914
vn 0.0000 0.1306 0.9914
vn -0.0000 0.1305 0.9914
vn 0.0000 0.0654 0.9979
vn 0.0000 -0.0653 0.9979
vn 0.0000 -0.0000 1.0000
usemtl material-1
s 1
f 7/1/1 3/2/1 8/3/1
f 3/2/2 9/4/3 1/5/2
f 1/5/4 5/6/4 4/7/4
f 5/6/5 10/8/6 7/1/5
f 10/8/1 11/9/1 3/2/1
f 11/9/7 12/10/8 9/4/7
f 9/4/4 13/11/4 5/6/4
f 10/8/6 5/6/5 13/11/6
f 14/12/1 11/9/1 10/8/1
f 12/10/4 13/11/4 9/4/4
f 14/12/1 15/13/1 11/9/1
f 15/13/9 16/14/10 12/10/9
f 16/14/4 17/15/4 12/10/4
f 19/16/11 20/17/12 16/14/11
f 22/18/1 19/16/1 18/19/1
f 20/17/4 21/20/4 16/14/4
f 26/21/1 23/22/1 22/18/1
f 26/21/1 27/23/1 23/22/1
f 27/23/13 28/24/14 24/25/13
f 24/25/4 29/26/4 25/27/4
f 28/24/4 29/26/4 24/25/4
f 30/28/1 31/29/1 27/23/1
f 30/28/15 29/26/16 33/30/15
f 28/24/14 32/31/17 35/32/17
f 34/33/1 32/31/1 31/29/1
f 38/34/1 32/31/1 34/33/1
f 39/35/18 34/33/19 36/36/19
f 35/32/17 37/37/20 40/38/20
f 40/38/4 36/36/4 35/32/4
f 40/38/4 39/35/4 36/36/4
f 42/39/1 37/37/1 38/34/1
f 40/38/21 41/40/22 44/41/22
f 38/34/18 43/42/23 42/39/23
f 44/41/4 43/42/4 39/35/4
f 46/43/1 41/40/1 42/39/1
f 47/44/24 42/39/23 43/42/23
f 49/45/25 48/46/26 45/47/26
f 50/48/1 45/47/1 46/43/1
f 52/49/4 47/44/4 48/46/4
f 52/49/4 51/50/4 47/44/4
f 54/51/1 49/45/1 50/48/1
f 54/51/27 56/52/27 53/53/27
usemtl material-2
f 4/54/1 1/55/1 2/56/1
f 7/57/4 3/58/4 10/59/4
f 8/60/4 7/57/4 6/61/4
f 2/62/27 8/63/27 4/64/27
f 11/65/28 3/66/29 9/67/28
f 1/55/1 5/68/1 9/69/1
f 6/70/27 4/64/27 8/63/27
f 15/71/30 11/72/31 12/73/30
f 10/74/32 14/75/33 13/76/32
f 13/77/1 17/78/1 12/79/1
f 17/80/34 13/76/32 14/75/33
f 14/81/4 15/82/4 18/83/4
f 19/84/35 15/85/30 16/86/35
f 14/87/33 18/88/36 17/89/34
f 15/82/4 19/90/4 18/83/4
f 17/78/1 21/91/1 16/92/1
f 21/93/36 17/89/34 18/88/36
f 23/94/37 19/95/38 20/96/37
f 18/97/36 22/98/39 21/99/36
f 19/90/4 23/100/4 22/101/4
f 20/102/40 24/103/41 23/104/40
f 21/91/1 25/105/1 20/106/1
f 25/107/42 21/99/36 22/98/39
f 27/108/41 23/104/43 24/103/41
f 20/106/1 25/105/1 24/109/1
f 22/110/39 26/111/44 25/112/42
f 29/113/44 25/112/42 26/111/44
f 26/114/4 27/115/4 30/116/4
f 31/117/45 27/118/46 28/119/45
f 26/120/44 30/121/47 29/122/44
f 31/123/45 28/124/45 32/125/48
f 29/126/1 33/127/1 28/128/1
f 30/116/4 31/129/4 34/130/4
f 28/128/1 33/127/1 35/131/1
f 33/132/47 30/133/47 36/134/49
f 34/135/49 36/134/49 30/133/47
f 32/136/50 35/137/50 37/138/51
f 33/127/1 36/139/1 35/131/1
f 32/140/4 37/141/4 38/142/4
f 38/143/52 39/144/52 34/145/49
f 37/146/51 40/147/51 41/148/53
f 39/149/52 38/150/52 43/151/54
f 40/152/1 39/153/1 44/154/1
f 37/141/4 41/155/4 42/156/4
f 41/157/55 44/158/55 45/159/56
f 44/154/1 43/160/1 48/161/1
f 48/162/57 45/159/57 44/158/55
f 41/155/4 45/163/4 46/164/4
f 46/165/58 47/166/59 42/167/54
f 43/160/1 47/168/1 48/161/1
f 47/169/59 46/170/58 51/171/60
f 52/172/61 49/173/61 48/174/56
f 45/163/4 49/175/4 50/176/4
f 50/177/60 51/171/60 46/170/58
f 49/178/62 52/179/62 53/180/63
f 51/181/60 50/182/60 55/183/64
f 52/184/1 51/185/1 56/186/1
f 56/187/63 53/180/63 52/179/62
f 53/188/4 54/189/4 49/175/4
f 54/190/64 55/183/64 50/182/60
f 55/191/1 56/186/1 51/185/1
f 55/192/65 54/193/65 56/194/65
