# SSTK version 0.8.0
# 133
mtllib original-133.mtl
o mesh221/mesh221-geometry#mesh221-geometry
v -0.188524 0.479235 -0.427235
v -0.184148 0.503962 -0.427450
v 0.186747 0.479235 -0.427235
v -0.188524 0.506022 -0.427468
v 0.186747 0.503962 -0.427450
v -0.184148 0.506022 -0.427468
v 0.186747 0.510783 0.355432
v -0.135354 0.504425 -0.374283
v -0.184148 0.512844 0.355414
v 0.186747 0.486057 0.355647
v 0.133578 0.504425 -0.374283
v -0.135354 0.510320 0.302264
v -0.188524 0.512844 0.355414
v -0.184148 0.510783 0.355432
v -0.188524 0.486057 0.355647
v 0.133578 0.510320 0.302264
v -0.131320 0.493747 0.292260
v 0.129544 0.488029 -0.363991
v 0.129544 0.493747 0.292260
v -0.131320 0.488029 -0.363991
v -0.131320 0.473605 -0.363865
v 0.129544 0.479324 0.292385
v 0.129544 0.473605 -0.363865
v -0.131320 0.479324 0.292385
vt -0.379812 0.083021
vt -0.384237 0.108021
vt -0.759221 0.083021
vt -0.379812 0.110104
vt -0.759221 0.108021
vt -0.384237 0.110104
vt -0.794277 0.114946
vt -0.002982 0.08305
vt -0.002764 0.108049
vt -0.384237 0.003705
vt -0.433569 0.057461
vt -0.759221 0.003705
vt -0.379812 0.003705
vt -0.384237 0.795248
vt -0.794259 0.117029
vt -0.002746 0.110132
vt -0.794495 0.089947
vt -0.705465 0.057461
vt -0.759221 0.795248
vt -0.433569 0.741492
vt -0.379812 0.795248
vt 0.759221 0.108021
vt 0.379812 0.083021
vt 0.759221 0.083021
vt -0.705465 0.741492
vt -0.731339 -0.00873
vt -0.057442 0.002384
vt -0.741446 0.00852
vt 0.433569 0.061863
vt 0.701387 0.042291
vt 0.705465 0.061863
vt 0.379812 0.110104
vt 0.384237 0.108021
vt 0.384237 0.110104
vt 0.055014 0.273114
vt 0.728911 0.262
vt 0.739017 0.27925
vt -0.067856 -0.014682
vt -0.433569 0.480712
vt -0.701387 0.46114
vt -0.437647 0.46114
vt 0.437647 0.042291
vt 0.065428 0.256048
vt -0.705465 0.480712
vt -0.730408 0.097722
vt -0.06705 0.077358
vt -0.066923 0.091941
vt -0.701387 0.076771
vt -0.437647 0.091354
vt -0.701387 0.091354
vt 0.437647 0.091354
vt 0.701387 0.076771
vt 0.701387 0.091354
vt 0.06705 0.077358
vt 0.730408 0.097722
vt 0.066923 0.091941
vt -0.730535 0.083139
vt 0.437647 0.076771
vt -0.437647 0.076771
vt 0.730535 0.083139
vt -0.701387 0.731232
vt -0.437647 0.067722
vt -0.437647 0.731232
vt -0.701387 0.067722
vn 0 -0.008713000358047467 -0.9999620410919411
vn 0 0.008713000358047467 0.9999620410919411
vn 1 0 0
vn -1 0 0
vn 0 0.9999620410919411 -0.008713000358047467
vn 0 -0.9999620410919411 0.008713000358047467
vn 0.9713400758296086 0.23768501855535706 -0.0020710001616767227
vn -0.9713400758296086 -0.23768501855535706 0.0020710001616767227
vn 0 0.5316477338944262 0.8469655760684265
vn 0 -0.5316477338944262 -0.8469655760684265
vn -0.9713400758296086 0.23768501855535706 -0.0020710001616767227
vn 0.9713400758296086 -0.23768501855535706 0.0020710001616767227
vn 0 0.5168081470151427 -0.8561012435330149
vn 0 -0.5168081470151427 0.8561012435330149
usemtl material_0_0
f 1/1/1 2/2/1 3/3/1
f 2/2/1 1/1/1 4/4/1
f 3/3/2 2/2/2 1/1/2
f 4/4/2 1/1/2 2/2/2
f 5/5/1 3/3/1 2/2/1
f 2/2/2 3/3/2 5/5/2
f 2/2/1 4/4/1 6/6/1
f 6/6/2 4/4/2 2/2/2
f 7/7/3 3/8/3 5/9/3
f 5/9/4 3/8/4 7/7/4
f 2/10/5 8/11/5 5/12/5
f 5/12/6 8/11/6 2/10/6
f 4/13/5 9/14/5 6/10/5
f 6/10/6 9/14/6 4/13/6
f 9/15/3 2/9/3 6/16/3
f 6/16/4 2/9/4 9/15/4
f 3/8/3 7/7/3 10/17/3
f 10/17/4 7/7/4 3/8/4
f 5/12/5 11/18/5 7/19/5
f 7/19/6 11/18/6 5/12/6
f 8/11/5 2/10/5 12/20/5
f 12/20/6 2/10/6 8/11/6
f 5/12/5 8/11/5 11/18/5
f 11/18/6 8/11/6 5/12/6
f 9/14/5 4/13/5 13/21/5
f 13/21/6 4/13/6 9/14/6
f 2/9/3 9/15/3 14/7/3
f 14/7/4 9/15/4 2/9/4
f 7/22/2 15/23/2 10/24/2
f 10/24/1 15/23/1 7/22/1
f 16/25/5 7/19/5 11/18/5
f 11/18/6 7/19/6 16/25/6
f 14/14/5 12/20/5 2/10/5
f 2/10/6 12/20/6 14/14/6
f 17/26/7 8/27/7 12/28/7
f 12/28/8 8/27/8 17/26/8
f 8/29/9 18/30/9 11/31/9
f 11/31/10 18/30/10 8/29/10
f 13/32/2 14/33/2 9/34/2
f 9/34/1 14/33/1 13/32/1
f 15/23/2 7/22/2 14/33/2
f 14/33/1 7/22/1 15/23/1
f 12/20/5 7/19/5 16/25/5
f 16/25/6 7/19/6 12/20/6
f 11/35/11 19/36/11 16/37/11
f 16/37/12 19/36/12 11/35/12
f 12/20/5 14/14/5 7/19/5
f 7/19/6 14/14/6 12/20/6
f 8/27/7 17/26/7 20/38/7
f 20/38/8 17/26/8 8/27/8
f 12/39/13 19/40/13 17/41/13
f 17/41/14 19/40/14 12/39/14
f 18/30/9 8/29/9 20/42/9
f 20/42/10 8/29/10 18/30/10
f 19/36/11 11/35/11 18/43/11
f 18/43/12 11/35/12 19/36/12
f 14/33/2 13/32/2 15/23/2
f 15/23/1 13/32/1 14/33/1
f 19/40/13 12/39/13 16/44/13
f 16/44/14 12/39/14 19/40/14
f 17/45/3 21/46/3 20/47/3
f 20/47/4 21/46/4 17/45/4
f 22/48/1 17/49/1 19/50/1
f 19/50/2 17/49/2 22/48/2
f 20/51/2 23/52/2 18/53/2
f 18/53/1 23/52/1 20/51/1
f 23/54/4 19/55/4 18/56/4
f 18/56/3 19/55/3 23/54/3
f 21/46/3 17/45/3 24/57/3
f 24/57/4 17/45/4 21/46/4
f 23/52/2 20/51/2 21/58/2
f 21/58/1 20/51/1 23/52/1
f 17/49/1 22/48/1 24/59/1
f 24/59/2 22/48/2 17/49/2
f 19/55/4 23/54/4 22/60/4
f 22/60/3 23/54/3 19/55/3
f 22/61/5 21/62/5 24/63/5
f 24/63/6 21/62/6 22/61/6
f 21/62/5 22/61/5 23/64/5
f 23/64/6 22/61/6 21/62/6
