# SSTK version 0.8.0
# 7
mtllib original-7.mtl
o mesh7/mesh7-geometry#mesh7-geometry
v -0.252941 -0.441370 -0.483854
v -0.201429 -0.420252 -0.429055
v -0.201429 -0.441370 -0.483854
v -0.252941 -0.420252 -0.429055
v -0.201429 -0.492771 -0.512259
v -0.252941 -0.587304 -0.455290
v -0.201429 -0.439300 -0.373502
v -0.252941 -0.492771 -0.512259
v -0.252941 -0.550405 -0.500978
v -0.252941 -0.586202 -0.396573
v -0.252941 -0.439300 -0.373502
v -0.201429 -0.550405 -0.500978
v -0.201429 -0.587304 -0.455290
v -0.252941 -0.489600 -0.343189
v -0.201429 -0.586202 -0.396573
v -0.252941 -0.547616 -0.352301
v -0.201429 -0.489600 -0.343189
v -0.201429 -0.547616 -0.352301
vn 0 0.7538539837619854 -0.6570419858473155
vn 0 0.999824109480246 -0.018755002053663237
vn 0 -0.7538539837619854 0.6570419858473155
vn 0 -0.999824109480246 0.018755002053663237
vn 0 0.15514803647647152 -0.9878912322606652
vn 0 -0.15514803647647152 0.9878912322606652
vn -1 0 0
vn 1 0 0
vn 0 0.7779653004992687 0.6283072426918874
vn 0 -0.7779653004992687 -0.6283072426918874
vn 0 -0.5161539097422381 -0.8564958502280098
vn 0 0.5161539097422381 0.8564958502280098
vn 0 -0.9459419487961636 -0.324335982443694
vn 0 0.9459419487961636 0.324335982443694
vn 0 -0.9331127556061375 0.3595839058204924
vn 0 0.9331127556061375 -0.3595839058204924
vn 0 0.19208794442627627 0.9813777160737285
vn 0 -0.19208794442627627 -0.9813777160737285
vn 0 -0.4836697625421468 0.8752505702954003
vn 0 0.4836697625421468 -0.8752505702954003
usemtl material_0_0
f 1//1 2//2 3//1
f 2//2 1//1 4//2
f 3//3 2//4 1//3
f 4//4 1//3 2//4
f 5//5 1//1 3//1
f 3//3 1//3 5//6
f 1//7 6//7 4//7
f 4//8 6//8 1//8
f 4//2 7//9 2//2
f 2//4 7//10 4//4
f 1//1 5//5 8//5
f 8//6 5//6 1//3
f 1//7 9//7 6//7
f 6//8 9//8 1//8
f 4//7 6//7 10//7
f 10//8 6//8 4//8
f 7//9 4//2 11//9
f 11//10 4//4 7//10
f 12//11 8//5 5//5
f 5//6 8//6 12//12
f 9//7 1//7 8//7
f 8//8 1//8 9//8
f 12//11 6//13 9//11
f 9//12 6//14 12//12
f 13//13 10//15 6//13
f 6//14 10//16 13//14
f 4//7 10//7 11//7
f 11//8 10//8 4//8
f 14//17 7//9 11//9
f 11//10 7//10 14//18
f 8//5 12//11 9//11
f 9//12 12//12 8//6
f 6//13 12//11 13//13
f 13//14 12//12 6//14
f 10//15 13//13 15//15
f 15//16 13//14 10//16
f 11//7 10//7 16//7
f 16//8 10//8 11//8
f 7//9 14//17 17//17
f 17//18 14//18 7//10
f 11//7 16//7 14//7
f 14//8 16//8 11//8
f 15//15 16//19 10//15
f 10//16 16//20 15//16
f 16//19 17//17 14//17
f 14//18 17//18 16//20
f 16//19 15//15 18//19
f 18//20 15//16 16//20
f 17//17 16//19 18//19
f 18//20 16//20 17//18
