# SSTK version 0.8.0
# 16
mtllib original-16.mtl
o FR_4_1/FR_4/mesh13/mesh13-geometry#mesh13-geometry
v 0.703638 0.149765 -0.166152
v 0.703638 0.103368 0.177956
v 0.703638 0.149765 0.177956
v 0.703638 0.103368 -0.166152
v 0.726836 0.149765 0.177956
v 0.726836 0.103368 0.177956
v 0.726836 0.149765 -0.166152
v 0.726836 0.103368 -0.166152
vt -0.188497 -0.331964
vt -0.219747 -0.894464
vt -0.188497 -0.894464
vt -0.219747 -0.331964
vt -0.78869 0.03125
vt -0.973586 0.046875
vt -0.78869 0.046875
vt -0.973586 -0.015625
vt -0.78869 0
vt -0.78869 -0.015625
vt -0.973586 0.03125
vt -0.973586 0
vn -1 0 0
vn 1 0 0
vn 0 -1 0
vn 0 1 0
usemtl material_0_0
f 1/1/1 2/2/1 3/3/1
f 2/2/1 1/1/1 4/4/1
usemtl material_1_0
f 3//2 2//2 1//2
f 4//2 1//2 2//2
f 3//3 1//3 5//3
f 2//4 6//4 4//4
f 7//3 5//3 1//3
f 8//4 4//4 6//4
f 7//1 8//1 5//1
f 6//1 5//1 8//1
usemtl material_2_0
f 5/5/4 1/6/4 3/7/4
f 4/8/3 6/9/3 2/10/3
f 1/6/4 5/5/4 7/11/4
f 6/9/3 4/8/3 8/12/3
f 5/5/2 8/12/2 7/11/2
f 8/12/2 5/5/2 6/9/2
