# SSTK version 0.8.0
# 5
mtllib original-5.mtl
o #ID303
v -0.018581 0.008912 -0.594455
v -0.020105 0.017233 -0.596441
v -0.020105 0.008912 -0.596441
v -0.018581 0.017233 -0.594455
v -0.021063 0.017233 -0.598754
v -0.021063 0.008912 -0.598754
v -0.016594 0.008912 -0.59293
v -0.016594 0.017233 -0.59293
v -0.02139 0.008912 -0.601237
v -0.02139 0.017233 -0.601237
v -0.014281 0.008912 -0.591972
v -0.014281 0.017233 -0.591972
v -0.021063 0.008912 -0.603719
v -0.021063 0.017233 -0.603719
v -0.011798 0.008912 -0.591645
v -0.011798 0.017233 -0.591645
v -0.020105 0.008912 -0.606033
v -0.020105 0.017233 -0.606033
v -0.009316 0.008912 -0.591972
v -0.009316 0.017233 -0.591972
v -0.018581 0.008912 -0.608019
v -0.018581 0.017233 -0.608019
v -0.007003 0.008912 -0.59293
v -0.007003 0.017233 -0.59293
v -0.016594 0.017233 -0.609544
v -0.016594 0.008912 -0.609544
v -0.005016 0.008912 -0.594455
v -0.005016 0.017233 -0.594455
v -0.014281 0.017233 -0.610502
v -0.014281 0.008912 -0.610502
v -0.003492 0.017233 -0.596441
v -0.003492 0.008912 -0.596441
v -0.011798 0.017233 -0.610829
v -0.011798 0.008912 -0.610829
v -0.002534 0.017233 -0.598754
v -0.002534 0.008912 -0.598754
v -0.009316 0.017233 -0.610502
v -0.009316 0.008912 -0.610502
v -0.002207 0.017233 -0.601237
v -0.002207 0.008912 -0.601237
v -0.007003 0.017233 -0.609544
v -0.007003 0.008912 -0.609544
v -0.002534 0.017233 -0.603719
v -0.002534 0.008912 -0.603719
v -0.005016 0.017233 -0.608019
v -0.005016 0.008912 -0.608019
v -0.003492 0.017233 -0.606033
v -0.003492 0.008912 -0.606033
vn -0.7071067811865475 0.0 0.7071067811865475
vn -0.8660254028383291 0.0 0.5000000016387102
vn -0.9659258358036644 0.0 0.25881900959356163
vn -0.5000000016387102 0.0 0.8660254028383291
vn -1.0 0.0 0.0
vn -0.25881900959356163 0.0 0.9659258358036644
vn -0.9659258358036644 0.0 -0.25881900959356163
vn 0.0 0.0 1.0
vn -0.8660254028383291 0.0 -0.5000000016387102
vn 0.25881900959356163 0.0 0.9659258358036644
vn -0.7071067811865475 0.0 -0.7071067811865475
vn 0.5000000016387102 0.0 0.8660254028383291
vn -0.5000000016387102 0.0 -0.8660254028383291
vn 0.7071067811865475 0.0 0.7071067811865475
vn -0.25881900959356163 0.0 -0.9659258358036644
vn 0.8660254028383291 0.0 0.5000000016387102
vn 0.0 0.0 -1.0
vn 0.9659258358036644 0.0 0.25881900959356163
vn 0.25881900959356163 0.0 -0.9659258358036644
vn 1.0 0.0 0.0
vn 0.5000000016387102 0.0 -0.8660254028383291
vn 0.9659258358036644 0.0 -0.25881900959356163
vn 0.7071067811865475 0.0 -0.7071067811865475
vn 0.8660254028383291 0.0 -0.5000000016387102
usemtl material_0_0
f 1//1 2//2 3//2
f 2//2 1//1 4//1
f 3//2 5//3 6//3
f 5//3 3//2 2//2
f 7//4 4//1 1//1
f 4//1 7//4 8//4
f 5//3 9//5 6//3
f 9//5 5//3 10//5
f 11//6 8//4 7//4
f 8//4 11//6 12//6
f 10//5 13//7 9//5
f 13//7 10//5 14//7
f 15//8 12//6 11//6
f 12//6 15//8 16//8
f 14//7 17//9 13//7
f 17//9 14//7 18//9
f 19//10 16//8 15//8
f 16//8 19//10 20//10
f 18//9 21//11 17//9
f 21//11 18//9 22//11
f 23//12 20//10 19//10
f 20//10 23//12 24//12
f 25//13 21//11 22//11
f 21//11 25//13 26//13
f 27//14 24//12 23//12
f 24//12 27//14 28//14
f 29//15 26//13 25//13
f 26//13 29//15 30//15
f 31//16 27//14 32//16
f 27//14 31//16 28//14
f 33//17 30//15 29//15
f 30//15 33//17 34//17
f 35//18 32//16 36//18
f 32//16 35//18 31//16
f 37//19 34//17 33//17
f 34//17 37//19 38//19
f 39//20 36//18 40//20
f 36//18 39//20 35//18
f 41//21 38//19 37//19
f 38//19 41//21 42//21
f 43//22 40//20 44//22
f 40//20 43//22 39//20
f 45//23 42//21 41//21
f 42//21 45//23 46//23
f 47//24 44//22 48//24
f 44//22 47//24 43//22
f 46//23 47//24 48//24
f 47//24 46//23 45//23
