# SSTK version 0.8.0
# 28
mtllib original-28.mtl
o #ID121
v -0.051169 0.042034 -0.236627
v -0.049008 0.043013 -0.218953
v -0.049008 0.042779 -0.235732
v -0.051169 0.042293 -0.218058
v -0.052221 0.041938 -0.217919
v -0.052221 0.041675 -0.236765
v -0.052221 0.041675 -0.236765
v -0.051169 0.042034 -0.236627
v -0.052221 0.041938 -0.217919
v -0.051169 0.042293 -0.218058
v -0.049008 0.043013 -0.218953
v -0.049008 0.042779 -0.235732
v -0.053657 0.041108 -0.236954
v -0.053657 0.041377 -0.21773
v -0.055402 0.040688 -0.21796
v -0.055402 0.040426 -0.236724
v -0.055402 0.040426 -0.236724
v -0.053657 0.041108 -0.236954
v -0.055402 0.040688 -0.21796
v -0.053657 0.041377 -0.21773
v -0.045769 0.043747 -0.232717
v -0.04686 0.043605 -0.220545
v -0.045769 0.043897 -0.221967
v -0.04686 0.043415 -0.234139
v -0.048851 0.043057 -0.219018
v -0.048851 0.042825 -0.235666
v -0.048851 0.042825 -0.235666
v -0.048851 0.043057 -0.219018
v -0.04686 0.043415 -0.234139
v -0.04686 0.043605 -0.220545
v -0.045769 0.043747 -0.232717
v -0.045769 0.043897 -0.221967
v -0.056145 0.040354 -0.218058
v -0.056145 0.040094 -0.236627
v -0.058463 0.039301 -0.219018
v -0.058463 0.039069 -0.235666
v -0.058547 0.039263 -0.219083
v -0.058547 0.039032 -0.235601
v -0.058547 0.039032 -0.235601
v -0.058463 0.039069 -0.235666
v -0.058547 0.039263 -0.219083
v -0.058463 0.039301 -0.219018
v -0.056145 0.040094 -0.236627
v -0.056145 0.040354 -0.218058
v -0.044372 0.044114 -0.22983
v -0.044372 0.044184 -0.224854
v -0.044045 0.044226 -0.227342
v -0.045333 0.043992 -0.222536
v -0.045333 0.043857 -0.232148
v -0.045333 0.043857 -0.232148
v -0.045333 0.043992 -0.222536
v -0.044372 0.044114 -0.22983
v -0.044372 0.044184 -0.224854
v -0.044045 0.044226 -0.227342
v -0.060453 0.038281 -0.220545
v -0.060453 0.038091 -0.234139
v -0.061653 0.037507 -0.232576
v -0.061653 0.037654 -0.222108
v -0.061653 0.037654 -0.222108
v -0.061653 0.037507 -0.232576
v -0.060453 0.038281 -0.220545
v -0.060453 0.038091 -0.234139
v -0.061981 0.037329 -0.232148
v -0.061981 0.037463 -0.222536
v -0.062941 0.036821 -0.22983
v -0.062941 0.03689 -0.224854
v -0.063269 0.036671 -0.227342
v -0.063269 0.036671 -0.227342
v -0.062941 0.036821 -0.22983
v -0.062941 0.03689 -0.224854
v -0.061981 0.037463 -0.222536
v -0.061981 0.037329 -0.232148
vn -0.3210256001034587 0.9469782003051878 -0.01322317000426149
vn -0.30355010065563875 0.9527226020577882 -0.013303380028733996
vn -0.30365369830676986 0.9526895946876236 -0.013302919925820403
vn -0.3451509062291647 0.9384557169369258 -0.013104170236499542
vn -0.3452846146007883 0.9384065396816849 -0.013103480554096922
vn 0.3452846146007883 -0.9384065396816849 0.013103480554096922
vn 0.3210256001034587 -0.9469782003051878 0.01322317000426149
vn 0.3451509062291647 -0.9384557169369258 0.013104170236499542
vn 0.30355010065563875 -0.9527226020577882 0.013303380028733996
vn 0.30365369830676986 -0.9526895946876236 0.013302919925820403
vn -0.3657141925542254 0.9306364810526647 -0.012994979735428113
vn -0.3856732923198679 0.9225454816288262 -0.012881999743473387
vn -0.3858203932327374 0.9224839838196958 -0.012881139774065702
vn 0.3858203932327374 -0.9224839838196958 0.012881139774065702
vn 0.3657141925542254 -0.9306364810526647 0.012994979735428113
vn 0.3856732923198679 -0.9225454816288262 0.012881999743473387
vn -0.26495590981889894 0.9641665357306758 -0.013463180498926803
vn -0.2749516130910718 0.9613643457727434 -0.013424050639149579
vn -0.26491749692359934 0.9641770888033255 -0.013463329843654726
vn 0.2749516130910718 -0.9613643457727434 0.013424050639149579
vn 0.26495590981889894 -0.9641665357306758 0.013463180498926803
vn 0.26491749692359934 -0.9641770888033255 0.013463329843654726
vn -0.4088855975339483 0.9124966944965928 -0.012741689923152905
vn -0.4217142095486624 0.9066404205286023 -0.012659910286651959
vn -0.4218238181840997 0.9065894390815122 -0.012659200545716362
vn 0.4218238181840997 -0.9065894390815122 0.012659200545716362
vn 0.4088855975339483 -0.9124966944965928 0.012741689923152905
vn 0.4217142095486624 -0.9066404205286023 0.012659910286651959
vn -0.227649410644985 0.9736482455282136 -0.013595580635735224
vn 0.227649410644985 -0.9736482455282136 0.013595580635735224
vn -0.4504335214987229 0.8927229426087365 -0.012465570594968693
vn -0.4596733885104793 0.8880014778044333 -0.012399649690071166
vn -0.45959930748950106 0.8880398144712472 -0.012400180202069839
vn 0.45959930748950106 -0.8880398144712472 0.012400180202069839
vn 0.4596733885104793 -0.8880014778044333 0.012399649690071166
vn 0.4504335214987229 -0.8927229426087365 0.012465570594968693
vn -0.4902766930328346 0.8714818876156495 -0.012168969827070645
vn 0.4902766930328346 -0.8714818876156495 0.012168969827070645
usemtl material_0_0
f 1//1 2//2 3//3
f 2//2 1//1 4//1
f 4//1 1//1 5//4
f 5//4 1//1 6//5
f 7//6 8//7 9//8
f 9//8 8//7 10//7
f 10//7 8//7 11//9
f 12//10 11//9 8//7
f 13//11 5//4 6//5
f 5//4 13//11 14//11
f 14//11 13//11 15//12
f 15//12 13//11 16//13
f 17//14 18//15 19//16
f 19//16 18//15 20//15
f 20//15 18//15 9//8
f 7//6 9//8 18//15
f 21//17 22//18 23//19
f 22//18 21//17 24//18
f 22//18 24//18 25//18
f 25//18 24//18 26//18
f 25//18 26//18 2//2
f 2//2 26//18 3//3
f 12//10 27//20 11//9
f 11//9 27//20 28//20
f 27//20 29//20 28//20
f 28//20 29//20 30//20
f 29//20 31//21 30//20
f 32//22 30//20 31//21
f 16//13 33//23 15//12
f 33//23 16//13 34//23
f 33//23 34//23 35//23
f 35//23 34//23 36//23
f 35//23 36//23 37//24
f 37//24 36//23 38//25
f 39//26 40//27 41//28
f 41//28 40//27 42//27
f 40//27 43//27 42//27
f 42//27 43//27 44//27
f 43//27 17//14 44//27
f 19//16 44//27 17//14
f 45//29 46//29 47//29
f 46//29 45//29 48//29
f 48//29 45//29 49//29
f 48//29 49//29 23//19
f 23//19 49//29 21//17
f 31//21 50//30 32//22
f 32//22 50//30 51//30
f 50//30 52//30 51//30
f 51//30 52//30 53//30
f 54//30 53//30 52//30
f 38//25 55//31 37//24
f 55//31 38//25 56//31
f 55//31 56//31 57//32
f 55//31 57//32 58//33
f 59//34 60//35 61//36
f 60//35 62//36 61//36
f 62//36 39//26 61//36
f 41//28 61//36 39//26
f 63//37 58//33 57//32
f 58//33 63//37 64//37
f 64//37 63//37 65//37
f 64//37 65//37 66//37
f 66//37 65//37 67//37
f 68//38 69//38 70//38
f 70//38 69//38 71//38
f 69//38 72//38 71//38
f 71//38 72//38 59//34
f 60//35 59//34 72//38
