# SSTK version 0.8.0
# 44
mtllib original-44.mtl
o RT_21_BR1/RT_21_BR/mesh35/mesh35-geometry#mesh35-geometry
v 0.557599 -0.268157 0.448419
v 0.561179 -0.333387 0.456095
v 0.561179 -0.268157 0.456095
v 0.557599 -0.329807 0.448419
v 0.633696 -0.268157 0.456095
v 0.557599 -0.268157 0.445249
v 0.518350 -0.329807 0.448419
v 0.633696 -0.405904 0.456095
v 0.557599 -0.329807 0.445249
v 0.518350 -0.333387 0.456095
v 0.518350 -0.329807 0.445249
v 0.561179 -0.405904 0.456095
v 0.637532 -0.268157 0.452259
v 0.518350 -0.268157 0.445249
v 0.637532 -0.409740 0.452259
v 0.518350 -0.405904 0.456095
v 0.557343 -0.409740 0.452259
v 0.637532 -0.268157 0.434430
v 0.637532 -0.409740 0.434430
v 0.518350 -0.409740 0.452259
v 0.557343 -0.409740 0.434430
v 0.637163 -0.268157 0.432208
v 0.557712 -0.409371 0.432208
v 0.637163 -0.409371 0.432208
v 0.518350 -0.409740 0.434430
v 0.636095 -0.268157 0.430225
v 0.558780 -0.408302 0.430225
v 0.518350 -0.409371 0.432208
v 0.636095 -0.408302 0.430225
v 0.634442 -0.406650 0.428694
v 0.560433 -0.406650 0.428694
v 0.518350 -0.408302 0.430225
v 0.634442 -0.268157 0.428694
v 0.518350 -0.406650 0.428694
v 0.561179 -0.405904 0.428694
v 0.518350 -0.333387 0.428694
v 0.561179 -0.333387 0.428694
v 0.561179 -0.268157 0.428694
v 0.557599 -0.329807 0.436370
v 0.518350 -0.329807 0.436370
v 0.557599 -0.268157 0.436370
v 0.557599 -0.329807 0.439540
v 0.518350 -0.329807 0.439540
v 0.557599 -0.268157 0.439540
v 0.518350 -0.268157 0.439540
vt 0.294263 0.080735
vt 0.296304 0.043539
vt 0.296304 0.080735
vt 0.294263 0.045581
vt 0.337656 0.080735
vt 0.057953 0.228227
vt 0.055912 0.203804
vt 0.057953 0.205845
vt 0.337656 0.002188
vt 0.055912 0.228227
vt 0.296304 0.002188
vt 0.339844 0.080735
vt 0.271882 0.080735
vt 0.01456 0.203804
vt 0.339844 0
vt 0.271882 0.045581
vt 0.01456 0.228227
vt 0.294117 0
vt 0.012373 0.205992
vt 0.012373 0.228227
vt 0.339633 0.080735
vt 0.294327 0.000211
vt 0.339633 0.000211
vt 0.012583 0.205781
vt 0.339024 0.080735
vt 0.294937 0.00082
vt 0.012583 0.228227
vt 0.339024 0.00082
vt 0.013193 0.205172
vt 0.338082 0.001762
vt 0.295879 0.001762
vt 0.013193 0.228227
vt 0.338082 0.080735
vt 0.014135 0.228227
vt 0.014135 0.204229
vn -0.9762959252079247 0 0.2164399834189664
vn -0.906307925325668 0 0.42261796517881683
vn 0 0 1
vn -1 0 0
vn 0 0.9762959252079247 0.2164399834189666
vn 0 0.9063079253256678 0.42261796517881706
vn 0 1 0
vn 0.7071067811865476 0 0.7071067811865476
vn 0 -0.7071067811865478 0.7071067811865476
vn 1 0 0
vn 0.9966103232062618 0 -0.08226702667965356
vn 0 -1 0
vn 0 -0.9966103232062618 -0.08226702667965378
vn 0.946223037397574 0 -0.32351501278628414
vn 0 -0.9462230373975739 -0.32351501278628436
vn 0.7906759082021371 0 -0.6122349289192227
vn 0 -0.7906759082021368 -0.6122349289192228
vn 0.6795807408208668 0 -0.7336007202186771
vn 0 -0.679580740820867 -0.7336007202186773
vn 0 0 -1
vn 0 0.9063079253256678 -0.4226179651788165
vn 0 0.9762959252079247 -0.21643998341896617
vn -0.9762959252079247 0 -0.2164399834189664
vn -0.906307925325668 0 -0.42261796517881683
vn 0.906307925325668 0 -0.42261796517881683
vn 0.9762959252079247 0 -0.2164399834189664
vn 0 -0.9762959252079247 -0.2164399834189666
vn 0 -0.9063079253256678 -0.42261796517881706
vn -0.7071067811865476 0 -0.7071067811865476
vn 0 0.7071067811865478 -0.7071067811865476
vn -0.9966103232062618 0 0.08226702667965356
vn 0 0.9966103232062618 0.08226702667965378
vn -0.946223037397574 0 0.32351501278628414
vn 0 0.9462230373975739 0.32351501278628436
vn -0.7906759082021371 0 0.6122349289192227
vn 0 0.7906759082021368 0.6122349289192228
vn -0.6795807408208668 0 0.7336007202186771
vn 0 0.679580740820867 0.7336007202186773
vn 0 -0.9063079253256678 0.4226179651788165
vn 0 -0.9762959252079247 0.21643998341896617
vn 0.906307925325668 0 0.42261796517881683
vn 0.9762959252079247 0 0.2164399834189664
usemtl material_0_0
f 1/1/1 2/2/2 3/3/2
f 2/2/2 1/1/1 4/4/1
f 2/2/3 5/5/3 3/3/3
f 6/1/4 4/4/1 1/1/1
f 7/6/5 2/7/6 4/8/5
f 2/2/3 8/9/3 5/5/3
f 4/4/1 6/1/4 9/4/4
f 2/7/6 7/6/5 10/10/6
f 4/8/5 11/6/7 7/6/5
f 8/9/3 2/2/3 12/11/3
f 8/9/8 13/12/8 5/5/8
f 14/13/3 9/4/3 6/1/3
f 11/6/7 4/8/5 9/8/7
f 10/10/3 12/14/3 2/7/3
f 12/11/9 15/15/9 8/9/9
f 13/12/8 8/9/8 15/15/8
f 9/4/3 14/13/3 11/16/3
f 12/14/3 10/10/3 16/17/3
f 15/15/9 12/11/9 17/18/9
f 15/15/10 18/12/11 13/12/10
f 16/17/9 17/19/9 12/14/9
f 17/18/12 19/15/13 15/15/12
f 18/12/11 15/15/10 19/15/11
f 17/19/9 16/17/9 20/20/9
f 19/15/13 17/18/12 21/18/13
f 19/15/11 22/21/14 18/12/11
f 20/20/12 21/19/13 17/19/12
f 23/22/15 19/15/13 21/18/13
f 22/21/14 19/15/11 24/23/14
f 21/19/13 20/20/12 25/20/13
f 19/15/13 23/22/15 24/23/15
f 25/20/13 23/24/15 21/19/13
f 24/23/14 26/25/16 22/21/14
f 27/26/17 24/23/15 23/22/15
f 23/24/15 25/20/13 28/27/15
f 26/25/16 24/23/14 29/28/16
f 24/23/15 27/26/17 29/28/17
f 28/27/15 27/29/17 23/24/15
f 30/30/18 26/25/16 29/28/16
f 31/31/19 29/28/17 27/26/17
f 27/29/17 28/27/15 32/32/17
f 26/25/16 30/30/18 33/33/18
f 29/28/17 31/31/19 30/30/19
f 27/29/17 34/34/19 31/35/19
f 34/34/19 27/29/17 32/32/17
f 30/30/20 35/11/20 33/33/20
f 35/11/20 30/30/20 31/31/20
f 36/10/20 31/35/20 34/34/20
f 33/33/20 35/11/20 37/2/20
f 31/35/20 36/10/20 35/14/20
f 35/14/20 36/10/20 37/7/20
f 33/33/20 37/2/20 38/3/20
f 36/10/21 39/8/22 37/7/21
f 39/4/23 38/3/24 37/2/24
f 39/8/22 36/10/21 40/6/22
f 38/3/24 39/4/23 41/1/23
f 40/6/22 42/8/7 39/8/22
f 42/4/4 41/1/23 39/4/23
f 42/8/7 40/6/22 43/6/7
f 41/1/23 42/4/4 44/1/4
f 45/13/20 42/4/20 43/16/20
f 42/4/20 45/13/20 44/1/20
usemtl material_1_0
f 3//25 2//25 1//26
f 4//26 1//26 2//25
f 3//20 5//20 2//20
f 1//26 4//26 6//10
f 4//27 2//28 7//27
f 5//20 8//20 2//20
f 9//10 6//10 4//26
f 10//28 7//27 2//28
f 7//27 11//12 4//27
f 12//20 2//20 8//20
f 5//29 13//29 8//29
f 6//20 9//20 14//20
f 9//12 4//27 11//12
f 2//20 12//20 10//20
f 8//30 15//30 12//30
f 15//29 8//29 13//29
f 11//20 14//20 9//20
f 16//20 10//20 12//20
f 17//30 12//30 15//30
f 13//4 18//31 15//4
f 12//30 17//30 16//30
f 15//7 19//32 17//7
f 19//31 15//4 18//31
f 20//30 16//30 17//30
f 21//32 17//7 19//32
f 18//31 22//33 19//31
f 17//7 21//32 20//7
f 21//32 19//32 23//34
f 24//33 19//31 22//33
f 25//32 20//7 21//32
f 24//34 23//34 19//32
f 21//32 23//34 25//32
f 22//33 26//35 24//33
f 23//34 24//34 27//36
f 28//34 25//32 23//34
f 29//35 24//33 26//35
f 29//36 27//36 24//34
f 23//34 27//36 28//34
f 29//35 26//35 30//37
f 27//36 29//36 31//38
f 32//36 28//34 27//36
f 33//37 30//37 26//35
f 30//38 31//38 29//36
f 31//38 34//38 27//36
f 32//36 27//36 34//38
f 33//3 35//3 30//3
f 31//3 30//3 35//3
f 34//3 31//3 36//3
f 37//3 35//3 33//3
f 35//3 36//3 31//3
f 37//3 36//3 35//3
f 38//3 37//3 33//3
f 37//39 39//40 36//39
f 37//41 38//41 39//42
f 40//40 36//39 39//40
f 41//42 39//42 38//41
f 39//40 42//12 40//40
f 39//42 41//42 42//10
f 43//12 40//40 42//12
f 44//10 42//10 41//42
f 43//3 42//3 45//3
f 44//3 45//3 42//3
