# SSTK version 0.8.0
# 50
mtllib original-50.mtl
o mesh16/mesh16-geometry/material_1/component_0#mesh16-geometry
v -0.789887 0.512972 -0.028867
v -0.712751 0.512972 -0.033379
v -0.791851 0.512972 -0.039122
v -0.785334 0.512972 -0.019471
v -0.716177 0.512972 -0.023515
v -0.789887 0.512972 -0.028867
v -0.778506 0.512972 -0.011572
v -0.722038 0.512972 -0.014875
v -0.785334 0.512972 -0.019471
v -0.769865 0.512972 -0.005711
v -0.729937 0.512972 -0.008046
v -0.778506 0.512972 -0.011572
v -0.760002 0.512972 -0.002285
v -0.739194 0.512972 -0.003561
v -0.769865 0.512972 -0.005711
v -0.789887 0.512972 -0.028867
v -0.716177 0.512972 -0.023515
v -0.712751 0.512972 -0.033379
v -0.791851 0.512972 -0.039122
v -0.712751 0.512972 -0.033379
v -0.711995 0.512972 -0.043792
v -0.785334 0.512972 -0.019471
v -0.722038 0.512972 -0.014875
v -0.716177 0.512972 -0.023515
v -0.778506 0.512972 -0.011572
v -0.729937 0.512972 -0.008046
v -0.722038 0.512972 -0.014875
v -0.769865 0.512972 -0.005711
v -0.739194 0.512972 -0.003561
v -0.729937 0.512972 -0.008046
v -0.739194 0.512972 -0.003561
v -0.760002 0.512972 -0.002285
v -0.750086 0.512972 -0.001565
v -0.791851 0.512972 -0.039122
v -0.711995 0.512972 -0.043792
v -0.791095 0.512972 -0.049536
v -0.791095 0.512972 -0.049536
v -0.711995 0.512972 -0.043792
v -0.713960 0.512972 -0.054047
v -0.791095 0.512972 -0.049536
v -0.713960 0.512972 -0.054047
v -0.787670 0.512972 -0.059399
v -0.787670 0.512972 -0.059399
v -0.718512 0.512972 -0.063444
v -0.781808 0.512972 -0.068039
v -0.787670 0.512972 -0.059399
v -0.713960 0.512972 -0.054047
v -0.718512 0.512972 -0.063444
v -0.781808 0.512972 -0.068039
v -0.718512 0.512972 -0.063444
v -0.725341 0.512972 -0.071342
v -0.781808 0.512972 -0.068039
v -0.725341 0.512972 -0.071342
v -0.773910 0.512972 -0.074868
v -0.773910 0.512972 -0.074868
v -0.725341 0.512972 -0.071342
v -0.733981 0.512972 -0.077204
v -0.773910 0.512972 -0.074868
v -0.733981 0.512972 -0.077204
v -0.764513 0.512972 -0.079420
v -0.764513 0.512972 -0.079420
v -0.733981 0.512972 -0.077204
v -0.743845 0.512972 -0.080629
v -0.764513 0.512972 -0.079420
v -0.743845 0.512972 -0.080629
v -0.754258 0.512972 -0.081385
v -0.791851 0.512972 -0.039122
v -0.712751 0.512972 -0.033379
v -0.789887 0.512972 -0.028867
v -0.789887 0.512972 -0.028867
v -0.716177 0.512972 -0.023515
v -0.785334 0.512972 -0.019471
v -0.785334 0.512972 -0.019471
v -0.722038 0.512972 -0.014875
v -0.778506 0.512972 -0.011572
v -0.778506 0.512972 -0.011572
v -0.729937 0.512972 -0.008046
v -0.769865 0.512972 -0.005711
v -0.769865 0.512972 -0.005711
v -0.739194 0.512972 -0.003561
v -0.760002 0.512972 -0.002285
v -0.712751 0.512972 -0.033379
v -0.716177 0.512972 -0.023515
v -0.789887 0.512972 -0.028867
v -0.711995 0.512972 -0.043792
v -0.712751 0.512972 -0.033379
v -0.791851 0.512972 -0.039122
v -0.716177 0.512972 -0.023515
v -0.722038 0.512972 -0.014875
v -0.785334 0.512972 -0.019471
v -0.722038 0.512972 -0.014875
v -0.729937 0.512972 -0.008046
v -0.778506 0.512972 -0.011572
v -0.729937 0.512972 -0.008046
v -0.739194 0.512972 -0.003561
v -0.769865 0.512972 -0.005711
v -0.750086 0.512972 -0.001565
v -0.760002 0.512972 -0.002285
v -0.739194 0.512972 -0.003561
v -0.791095 0.512972 -0.049536
v -0.711995 0.512972 -0.043792
v -0.791851 0.512972 -0.039122
v -0.713960 0.512972 -0.054047
v -0.711995 0.512972 -0.043792
v -0.791095 0.512972 -0.049536
v -0.787670 0.512972 -0.059399
v -0.713960 0.512972 -0.054047
v -0.791095 0.512972 -0.049536
v -0.781808 0.512972 -0.068039
v -0.718512 0.512972 -0.063444
v -0.787670 0.512972 -0.059399
v -0.718512 0.512972 -0.063444
v -0.713960 0.512972 -0.054047
v -0.787670 0.512972 -0.059399
v -0.725341 0.512972 -0.071342
v -0.718512 0.512972 -0.063444
v -0.781808 0.512972 -0.068039
v -0.773910 0.512972 -0.074868
v -0.725341 0.512972 -0.071342
v -0.781808 0.512972 -0.068039
v -0.733981 0.512972 -0.077204
v -0.725341 0.512972 -0.071342
v -0.773910 0.512972 -0.074868
v -0.764513 0.512972 -0.079420
v -0.733981 0.512972 -0.077204
v -0.773910 0.512972 -0.074868
v -0.743845 0.512972 -0.080629
v -0.733981 0.512972 -0.077204
v -0.764513 0.512972 -0.079420
v -0.754258 0.512972 -0.081385
v -0.743845 0.512972 -0.080629
v -0.764513 0.512972 -0.079420
vn 0 1 0
vn 0 -1 0
usemtl material_0_0
f 1//1 2//1 3//1
f 4//1 5//1 6//1
f 7//1 8//1 9//1
f 10//1 11//1 12//1
f 13//1 14//1 15//1
f 16//1 17//1 18//1
f 19//1 20//1 21//1
f 22//1 23//1 24//1
f 25//1 26//1 27//1
f 28//1 29//1 30//1
f 31//1 32//1 33//1
f 34//1 35//1 36//1
f 37//1 38//1 39//1
f 40//1 41//1 42//1
f 43//1 44//1 45//1
f 46//1 47//1 48//1
f 49//1 50//1 51//1
f 52//1 53//1 54//1
f 55//1 56//1 57//1
f 58//1 59//1 60//1
f 61//1 62//1 63//1
f 64//1 65//1 66//1
usemtl material_1_0
f 67//2 68//2 69//2
f 70//2 71//2 72//2
f 73//2 74//2 75//2
f 76//2 77//2 78//2
f 79//2 80//2 81//2
f 82//2 83//2 84//2
f 85//2 86//2 87//2
f 88//2 89//2 90//2
f 91//2 92//2 93//2
f 94//2 95//2 96//2
f 97//2 98//2 99//2
f 100//2 101//2 102//2
f 103//2 104//2 105//2
f 106//2 107//2 108//2
f 109//2 110//2 111//2
f 112//2 113//2 114//2
f 115//2 116//2 117//2
f 118//2 119//2 120//2
f 121//2 122//2 123//2
f 124//2 125//2 126//2
f 127//2 128//2 129//2
f 130//2 131//2 132//2
