# SSTK version 0.8.0
# 1
mtllib original-1.mtl
o Cart_Handle/mesh1/mesh1-geometry#mesh1-geometry
v -0.294616 0.687747 -0.682964
v 0.306297 0.684492 -0.697463
v -0.299208 0.684492 -0.697463
v 0.301705 0.687747 -0.682964
v 0.294275 0.669697 -0.698848
v -0.299208 0.421513 -0.541623
v -0.279756 0.674963 -0.675388
v 0.306297 0.421513 -0.541623
v -0.287186 0.669697 -0.698848
v -0.294616 0.425386 -0.527490
v 0.286845 0.674963 -0.675388
v 0.301705 0.425386 -0.527490
v -0.275164 0.663808 -0.685205
v 0.294275 0.419119 -0.550357
v -0.294616 0.169416 -0.527490
v -0.287186 0.419119 -0.550357
v -0.279756 0.425386 -0.527490
v 0.286845 0.425386 -0.527490
v 0.306297 -0.077072 -0.541623
v 0.282253 0.663808 -0.685205
v -0.275164 0.421513 -0.541623
v 0.306297 0.169416 -0.541623
v 0.282253 0.421513 -0.541623
v -0.294616 -0.077072 -0.527490
v -0.287186 0.169416 -0.550357
v 0.286845 0.169416 -0.527490
v 0.301705 0.169416 -0.527490
v 0.294275 0.169416 -0.550357
v 0.282253 0.320389 -0.541623
v -0.299208 -0.077072 -0.541623
v -0.279756 0.169416 -0.527490
v -0.275164 0.320389 -0.541623
v -0.299208 0.169416 -0.541623
v -0.275164 0.169416 -0.541623
v 0.301705 -0.077072 -0.527490
v 0.282253 0.295108 -0.541623
v 0.282253 -0.077072 -0.541623
v -0.279756 -0.077072 -0.527490
v -0.275164 -0.077072 -0.541623
v -0.275164 0.295108 -0.541623
v -0.287186 -0.077072 -0.550357
v 0.286845 -0.077072 -0.527490
v 0.294275 -0.077072 -0.550357
v 0.282253 0.169416 -0.541623
vn -0.452011007800354 0.7809030134760435 0.4311340074400797
vn 0.6425202636788048 0.3398941394864653 -0.6867602818341157
vn -0.6425202636788048 0.3398941394864653 -0.6867602818341157
vn 0.452011007800354 0.7809030134760435 0.4311340074400797
vn 0.6425202636788048 -0.3398941394864653 0.6867602818341157
vn -0.6425202636788048 -0.3398941394864653 0.6867602818341157
vn 0.452011007800354 -0.7809030134760435 -0.4311340074400797
vn -0.452011007800354 -0.7809030134760435 -0.4311340074400797
vn 0 -0.5098018969007335 -0.8602918260197604
vn 0 0.5098018969007335 0.8602918260197604
vn -0.9542445124957609 -0.079033042446248 -0.28839415488774617
vn 0.9542445124957609 0.079033042446248 0.28839415488774617
vn 0.4520108769242351 0.0031799991341340535 0.8920067571199731
vn -0.4520108769242351 -0.0031799991341340535 -0.8920067571199731
vn 0.9542445124957609 -0.079033042446248 -0.28839415488774617
vn -0.9542445124957609 0.079033042446248 0.28839415488774617
vn -0.6017011475473685 0.21110205176581817 0.7703191888953836
vn 0.6017011475473685 -0.21110205176581817 -0.7703191888953836
vn -0.4520108769242351 0.0031799991341340535 0.8920067571199731
vn 0.4520108769242351 -0.0031799991341340535 -0.8920067571199731
vn 0.6017011475473685 0.21110205176581817 0.7703191888953836
vn -0.6017011475473685 -0.21110205176581817 -0.7703191888953836
vn 0.6425201419731937 -0.7656151691726433 -0.03164300699193452
vn -0.6425201419731937 0.7656151691726433 0.03164300699193452
vn 0 -0.264299876772722 -0.9644405503388603
vn 0 0.264299876772722 0.9644405503388603
vn -0.5877850844899974 0 0.8090171162905557
vn 0.5877850844899974 0 -0.8090171162905557
vn 0.9510565608316645 0 -0.3090168573056278
vn -0.9510565608316645 0 0.3090168573056278
vn -0.6425201419731937 -0.7656151691726433 -0.03164300699193452
vn 0.6425201419731937 0.7656151691726433 0.03164300699193452
vn 0 0 -1
vn 0 0 1
vn 0.5877850844899974 0 0.8090171162905557
vn -0.5877850844899974 0 -0.8090171162905557
vn -0.716086031672486 0 -0.6980120308730728
vn 0.716086031672486 0 0.6980120308730728
vn -0.9510565608316645 0 -0.3090168573056278
vn 0.9510565608316645 0 0.3090168573056278
usemtl material_0_0
f 1//1 2//2 3//3
f 2//2 1//1 4//4
f 3//5 2//6 1//7
f 4//8 1//7 2//6
f 5//9 3//3 2//2
f 2//6 3//5 5//10
f 6//11 1//1 3//3
f 3//5 1//7 6//12
f 1//1 7//13 4//4
f 4//8 7//14 1//7
f 4//4 8//15 2//2
f 2//6 8//16 4//8
f 3//3 5//9 9//9
f 9//10 5//10 3//5
f 8//15 5//9 2//2
f 2//6 5//10 8//16
f 1//1 6//11 10//17
f 10//18 6//12 1//7
f 9//9 6//11 3//3
f 3//5 6//12 9//10
f 10//17 7//13 1//1
f 1//7 7//14 10//18
f 11//19 4//4 7//13
f 7//14 4//8 11//20
f 8//15 4//4 12//21
f 12//22 4//8 8//16
f 5//9 13//23 9//9
f 9//10 13//24 5//10
f 5//9 8//15 14//25
f 14//26 8//16 5//10
f 6//11 15//27 10//17
f 10//18 15//28 6//12
f 6//11 9//9 16//25
f 16//26 9//10 6//12
f 7//13 10//17 17//21
f 17//22 10//18 7//14
f 18//17 4//4 11//19
f 11//20 4//8 18//18
f 13//23 11//19 7//13
f 7//14 11//20 13//24
f 4//4 18//17 12//21
f 12//22 18//18 4//8
f 12//21 19//29 8//15
f 8//16 19//30 12//22
f 13//23 5//9 20//31
f 20//32 5//10 13//24
f 21//15 9//9 13//23
f 13//24 9//10 21//16
f 22//29 14//25 8//15
f 8//16 14//26 22//30
f 23//11 5//9 14//25
f 14//26 5//10 23//12
f 15//27 6//11 24//27
f 24//28 6//12 15//28
f 15//27 17//21 10//17
f 10//18 17//22 15//28
f 9//9 21//15 16//25
f 16//26 21//16 9//10
f 25//33 6//11 16//25
f 16//26 6//12 25//34
f 21//15 7//13 17//21
f 17//22 7//14 21//16
f 11//19 23//11 18//17
f 18//18 23//12 11//20
f 11//19 13//23 20//31
f 20//32 13//24 11//20
f 7//13 21//15 13//23
f 13//24 21//16 7//14
f 26//27 12//21 18//17
f 18//18 12//22 26//28
f 27//35 19//29 12//21
f 12//22 19//30 27//36
f 8//15 19//29 22//29
f 22//30 19//30 8//16
f 5//9 23//11 20//31
f 20//32 23//12 5//10
f 22//29 28//33 14//25
f 14//26 28//34 22//30
f 14//25 29//37 23//11
f 23//12 29//38 14//26
f 24//27 6//11 30//39
f 30//40 6//12 24//28
f 24//27 31//35 15//27
f 15//28 31//36 24//28
f 15//27 31//35 17//21
f 17//22 31//36 15//28
f 32//29 16//25 21//15
f 21//16 16//26 32//30
f 25//33 33//39 6//11
f 6//12 33//40 25//34
f 34//29 25//33 16//25
f 16//26 25//34 34//30
f 17//21 32//29 21//15
f 21//16 32//30 17//22
f 23//11 11//19 20//31
f 20//32 11//20 23//12
f 23//11 26//27 18//17
f 18//18 26//28 23//12
f 26//27 27//35 12//21
f 12//22 27//36 26//28
f 19//29 27//35 35//35
f 35//36 27//36 19//30
f 19//29 28//33 22//29
f 22//30 28//34 19//30
f 28//33 36//37 14//25
f 14//26 36//38 28//34
f 14//25 36//37 29//37
f 29//38 36//38 14//26
f 37//39 23//11 29//37
f 29//38 23//12 37//40
f 30//39 6//11 33//39
f 33//40 6//12 30//40
f 31//35 24//27 38//35
f 38//36 24//28 31//36
f 31//35 39//29 17//21
f 17//22 39//30 31//36
f 40//29 16//25 32//29
f 32//30 16//26 40//30
f 41//33 33//39 25//33
f 25//34 33//40 41//34
f 39//29 25//33 34//29
f 34//30 25//34 39//30
f 34//29 16//25 40//29
f 40//30 16//26 34//30
f 32//29 17//21 40//29
f 40//30 17//22 32//30
f 26//27 23//11 42//27
f 42//28 23//12 26//28
f 42//27 27//35 26//27
f 26//28 27//36 42//28
f 27//35 42//27 35//35
f 35//36 42//28 27//36
f 28//33 19//29 43//33
f 43//34 19//30 28//34
f 28//33 44//39 36//37
f 36//38 44//40 28//34
f 36//37 32//33 29//37
f 29//38 32//34 36//38
f 37//39 29//37 36//37
f 36//38 29//38 37//40
f 42//27 23//11 37//39
f 37//40 23//12 42//28
f 33//39 41//33 30//39
f 30//40 41//34 33//40
f 39//29 31//35 38//35
f 38//36 31//36 39//30
f 17//21 39//29 40//29
f 40//30 39//30 17//22
f 32//33 36//37 40//33
f 40//34 36//38 32//34
f 25//33 39//29 41//33
f 41//34 39//30 25//34
f 40//29 39//29 34//29
f 34//30 39//30 40//30
f 43//33 44//39 28//33
f 28//34 44//40 43//34
f 37//39 36//37 44//39
f 44//40 36//38 37//40
f 44//39 43//33 37//39
f 37//40 43//34 44//40
