# SSTK version 0.8.0
# 18
mtllib original-18.mtl
o mesh4/mesh4-geometry#mesh4-geometry
v 0.306916 -0.149123 0.670193
v 0.306916 -0.164292 0.661435
v 0.306916 -0.154179 0.661435
v 0.306916 -0.169348 0.670193
v 0.306916 -0.178196 0.651232
v 0.306916 -0.083393 0.698634
v 0.306916 -0.154179 0.678950
v 0.306916 -0.083393 0.641752
v 0.306916 -0.164292 0.678950
v 0.306916 -0.178196 0.689153
vn 1 0 0
vn -1 0 0
usemtl material_0_0
f 1//1 2//1 3//1
f 2//1 1//1 4//1
f 4//1 1//1 7//1
f 4//1 7//1 9//1
usemtl material_1_0
f 3//2 2//2 1//2
f 4//2 1//2 2//2
f 2//1 5//1 3//1
f 3//2 5//2 2//2
f 3//1 6//1 1//1
f 1//2 6//2 3//2
f 7//2 1//2 4//2
f 4//1 5//1 2//1
f 2//2 5//2 4//2
f 8//1 3//1 5//1
f 5//2 3//2 8//2
f 3//1 8//1 6//1
f 6//2 8//2 3//2
f 1//1 6//1 7//1
f 7//2 6//2 1//2
f 9//2 7//2 4//2
f 5//1 4//1 10//1
f 10//2 4//2 5//2
f 7//1 6//1 9//1
f 9//2 6//2 7//2
f 10//1 4//1 9//1
f 9//2 4//2 10//2
f 9//1 6//1 10//1
f 10//2 6//2 9//2
