# Blender v2.93.4 OBJ File: ''
# www.blender.org
mtllib Square_rim_bottom.mtl
o Square
v -2.741700 -7.326500 2.501998
v -2.735300 -7.314402 2.508398
v -3.659100 -7.275402 2.607398
v -3.666800 -7.287002 2.600798
v -2.728900 -7.302300 2.514798
v -3.651300 -7.263802 2.613998
v -4.613600 -7.225202 2.720798
v -4.622500 -7.236200 2.713998
v -4.604600 -7.214200 2.727598
v -2.722400 -7.290202 2.521298
v -2.716000 -7.278000 2.527698
v -3.635700 -7.240602 2.627298
v -3.643500 -7.252202 2.620598
v -4.586800 -7.192300 2.741298
v -4.595700 -7.203300 2.734498
v -6.187500 -7.079200 2.944598
v -6.197800 -7.089302 2.937398
v -5.480100 -7.147602 2.845698
v -5.470300 -7.137200 2.852798
v -6.208100 -7.099401 2.930198
v -5.489900 -7.158000 2.838698
v -6.218500 -7.109500 2.922898
v -6.228800 -7.119502 2.915698
v -5.509500 -7.178802 2.824598
v -5.499700 -7.168400 2.831598
v 6.225100 -7.119600 2.915598
v 6.214700 -7.109601 2.922798
v 5.492100 -7.168302 2.831398
v 5.501900 -7.178700 2.824298
v 6.204400 -7.099502 2.929998
v 5.482200 -7.157802 2.838398
v 4.601000 -7.225000 2.720398
v 4.610000 -7.236001 2.713598
v 4.592100 -7.214100 2.727298
v 6.194000 -7.089400 2.937298
v 6.183600 -7.079401 2.944498
v 5.462500 -7.137002 2.852598
v 5.472400 -7.147400 2.845498
v 4.574200 -7.192101 2.740898
v 4.583100 -7.203102 2.734098
v 2.694400 -7.278100 2.527198
v 2.700800 -7.290202 2.520698
v 3.626000 -7.252100 2.620098
v 3.618300 -7.240500 2.626798
v 2.707200 -7.302300 2.514298
v 3.633800 -7.263700 2.613498
v 2.713600 -7.314500 2.507898
v 2.720000 -7.326602 2.501398
v 3.649400 -7.286901 2.600298
v 3.641600 -7.275301 2.606898
v -6.670800 -7.052900 2.977698
v -6.681300 -7.063002 2.970398
v -6.660400 -7.042800 2.984998
v -6.923800 -6.934200 2.996298
v -6.934100 -6.944500 2.988998
v -6.913600 -6.923800 3.003698
v -6.639600 -7.022501 2.999698
v -6.650000 -7.032600 2.992398
v -6.893000 -6.903202 3.018398
v -6.903300 -6.913500 3.010998
v 6.922800 -6.935600 2.996298
v 6.933200 -6.945900 2.988898
v 6.912500 -6.925302 3.003698
v 6.891900 -6.904700 3.018398
v 6.902200 -6.915000 3.011098
v 6.648200 -7.033401 2.992298
v 6.637700 -7.023302 2.999698
v 6.658700 -7.043500 2.984998
v 6.679600 -7.063702 2.970298
v 6.669100 -7.053600 2.977598
v -0.012900 -7.366200 2.367098
v -0.012900 -7.353500 2.373398
v -0.612400 -7.353500 2.378598
v -0.614100 -7.366200 2.372298
v -0.012900 -7.340900 2.379598
v -0.610700 -7.340800 2.384798
v -1.244400 -7.349600 2.399298
v -1.247700 -7.362200 2.392998
v -1.241000 -7.337000 2.405598
v -0.012900 -7.328200 2.385898
v -0.012900 -7.315500 2.392098
v -0.607400 -7.315500 2.397298
v -0.609100 -7.328200 2.391098
v -1.234400 -7.311700 2.418098
v -1.237700 -7.324300 2.411798
v -1.931300 -7.312901 2.453498
v -1.926400 -7.300500 2.459798
v -1.936300 -7.325400 2.447098
v -1.946100 -7.350300 2.434498
v -1.941200 -7.337801 2.440798
v -6.223400 -7.116400 2.902098
v -5.504000 -7.176002 2.810898
v -6.217900 -7.113300 2.888498
v -5.498400 -7.173202 2.797298
v -4.617200 -7.233500 2.700198
v -4.611800 -7.230802 2.686498
v -6.212500 -7.110200 2.874998
v -6.207100 -7.107100 2.861398
v -5.487400 -7.167602 2.769998
v -5.492900 -7.170402 2.783698
v -4.601200 -7.225400 2.659098
v -4.606500 -7.228100 2.672798
v -2.725100 -7.315500 2.446498
v -2.729200 -7.318202 2.460298
v -3.652300 -7.278800 2.559398
v -3.647400 -7.276102 2.545498
v -2.733400 -7.321002 2.474198
v -3.657100 -7.281600 2.573198
v -2.737500 -7.323802 2.488098
v -3.662000 -7.284300 2.586998
v 2.715800 -7.323902 2.487598
v 3.644500 -7.284202 2.586498
v 2.711700 -7.321102 2.473698
v 3.639600 -7.281500 2.572698
v 4.604600 -7.233302 2.699898
v 4.599300 -7.230700 2.686098
v 2.707500 -7.318400 2.459798
v 2.703300 -7.315600 2.445898
v 3.629900 -7.276102 2.545098
v 3.634700 -7.278800 2.558898
v 4.588600 -7.225300 2.658698
v 4.593900 -7.228002 2.672398
v 6.203200 -7.107400 2.861298
v 6.208700 -7.110500 2.874798
v 5.485200 -7.170402 2.783398
v 5.479600 -7.167602 2.769798
v 6.214200 -7.113502 2.888398
v 5.490800 -7.173100 2.796998
v 6.219600 -7.116601 2.901998
v 5.496300 -7.175900 2.810698
v -6.929800 -6.940102 2.975398
v -6.925500 -6.935700 2.961898
v -6.916800 -6.926900 2.934798
v -6.921100 -6.931302 2.948398
v -6.666300 -7.051900 2.929698
v -6.661400 -7.048202 2.916198
v -6.671300 -7.055602 2.943298
v -6.676300 -7.059300 2.956798
v 6.674600 -7.060000 2.956798
v 6.669600 -7.056400 2.943198
v 6.928800 -6.941600 2.975398
v 6.924400 -6.937201 2.961898
v 6.659500 -7.049100 2.916198
v 6.664500 -7.052802 2.929698
v 6.915700 -6.928600 2.934798
v 6.920100 -6.932900 2.948398
v -0.012900 -7.363400 2.353198
v 0.587100 -7.363400 2.358198
v 0.588300 -7.366302 2.372098
v -0.013000 -7.360600 2.339198
v 0.585900 -7.360600 2.344198
v 1.220000 -7.359500 2.378698
v 1.222300 -7.362300 2.392698
v 1.217700 -7.356700 2.364798
v -0.013000 -7.357700 2.325298
v -0.013000 -7.354900 2.311298
v 0.583600 -7.355000 2.316298
v 0.584800 -7.357800 2.330298
v 1.213200 -7.351100 2.336898
v 1.215500 -7.353900 2.350798
v 1.912100 -7.342000 2.392198
v 1.908800 -7.339200 2.378298
v 1.915300 -7.344800 2.406098
v 1.921900 -7.350400 2.433998
v 1.918600 -7.347600 2.420098
v 1.902300 -7.300601 2.459298
v 1.907200 -7.313002 2.452998
v 1.209000 -7.311800 2.417698
v 1.212300 -7.324400 2.411498
v 1.912100 -7.325500 2.446598
v 1.215600 -7.337101 2.405198
v 0.581600 -7.315500 2.397098
v 0.583200 -7.328200 2.390898
v 0.584900 -7.340900 2.384598
v 0.586600 -7.353601 2.378398
v 1.218900 -7.349700 2.398898
v 1.917000 -7.338000 2.440298
v -1.933000 -7.339100 2.378798
v -1.936300 -7.341900 2.392698
v -1.238700 -7.350902 2.337298
v -1.241000 -7.353702 2.351198
v -1.939600 -7.344700 2.406598
v -1.243200 -7.356600 2.365098
v -0.609600 -7.354900 2.316498
v -0.610700 -7.357700 2.330498
v -0.611800 -7.360500 2.344398
v -0.613000 -7.363400 2.358398
v -1.245500 -7.359400 2.379098
v -1.942800 -7.347500 2.420598
vt 0.177400 0.009400
vt 0.170700 0.012700
vt 0.139000 0.014200
vt 0.139900 0.011500
vt 0.169200 0.015500
vt 0.138600 0.016800
vt 0.104500 0.016100
vt 0.102400 0.013700
vt 0.106500 0.018400
vt 0.169300 0.018000
vt 0.170300 0.020400
vt 0.140500 0.021600
vt 0.139300 0.019200
vt 0.109700 0.023200
vt 0.108200 0.020800
vt 0.057900 0.026800
vt 0.055900 0.024500
vt 0.079300 0.022600
vt 0.081100 0.024900
vt 0.052200 0.022300
vt 0.076400 0.020300
vt 0.045100 0.020000
vt 0.027500 0.017900
vt 0.065000 0.015800
vt 0.071200 0.018000
vt 0.489100 0.017900
vt 0.471300 0.020000
vt 0.445000 0.018000
vt 0.451400 0.015800
vt 0.464100 0.022200
vt 0.439800 0.020300
vt 0.411500 0.016100
vt 0.413700 0.013700
vt 0.409500 0.018400
vt 0.460400 0.024500
vt 0.458300 0.026800
vt 0.435000 0.024900
vt 0.436800 0.022600
vt 0.406200 0.023200
vt 0.407800 0.020800
vt 0.345400 0.020400
vt 0.346400 0.018000
vt 0.376600 0.019200
vt 0.375300 0.021600
vt 0.346500 0.015500
vt 0.377300 0.016800
vt 0.345000 0.012700
vt 0.338300 0.009400
vt 0.376000 0.011500
vt 0.376900 0.014200
vt 0.032400 0.021900
vt 0.025800 0.019700
vt 0.037800 0.024100
vt 0.027300 0.024700
vt 0.024000 0.021400
vt 0.030400 0.027800
vt 0.043200 0.028600
vt 0.041100 0.026400
vt 0.035000 0.032500
vt 0.032800 0.030300
vt 0.475200 0.026300
vt 0.473000 0.028600
vt 0.478500 0.024100
vt 0.483500 0.030200
vt 0.481200 0.032500
vt 0.486100 0.027700
vt 0.490800 0.019600
vt 0.484100 0.021800
vt 0.492600 0.021400
vt 0.489200 0.024700
vt 0.257800 0.009400
vt 0.257800 0.011800
vt 0.237900 0.011900
vt 0.237700 0.009400
vt 0.257800 0.014300
vt 0.238100 0.014300
vt 0.217500 0.011900
vt 0.217600 0.009400
vt 0.217500 0.014400
vt 0.257800 0.016800
vt 0.257800 0.019200
vt 0.238500 0.019200
vt 0.238300 0.016800
vt 0.218200 0.019300
vt 0.217800 0.016900
vt 0.195200 0.017200
vt 0.195800 0.019700
vt 0.195000 0.014700
vt 0.197500 0.009400
vt 0.196000 0.012100
vt 0.510000 0.498100
vt 0.528600 0.500900
vt 0.555000 0.498900
vt 0.548000 0.495900
vt 0.536400 0.503800
vt 0.560800 0.501900
vt 0.588700 0.496900
vt 0.586100 0.493800
vt 0.591200 0.499900
vt 0.540800 0.506800
vt 0.543500 0.509800
vt 0.566800 0.507800
vt 0.564400 0.504800
vt 0.595400 0.506000
vt 0.593400 0.503000
vt 0.656200 0.503100
vt 0.654900 0.500000
vt 0.624700 0.501300
vt 0.626300 0.504300
vt 0.654500 0.496900
vt 0.623600 0.498200
vt 0.655700 0.493500
vt 0.662200 0.489500
vt 0.624100 0.491600
vt 0.623600 0.495000
vt 0.825600 0.489500
vt 0.832200 0.493500
vt 0.864500 0.495000
vt 0.863900 0.491600
vt 0.833500 0.496900
vt 0.864600 0.498200
vt 0.899600 0.496900
vt 0.902200 0.493800
vt 0.897100 0.499900
vt 0.833100 0.500000
vt 0.831900 0.503100
vt 0.861900 0.504400
vt 0.863500 0.501300
vt 0.892900 0.506000
vt 0.894900 0.503000
vt 0.945200 0.509800
vt 0.947900 0.506800
vt 0.924100 0.504900
vt 0.921700 0.507900
vt 0.952300 0.503900
vt 0.927700 0.501900
vt 0.960100 0.500900
vt 0.978800 0.498100
vt 0.940500 0.495900
vt 0.933500 0.498900
vt 0.525900 0.508700
vt 0.528800 0.511700
vt 0.521900 0.505700
vt 0.517500 0.512600
vt 0.520500 0.515600
vt 0.514300 0.509400
vt 0.508200 0.499900
vt 0.515600 0.502800
vt 0.506400 0.501700
vt 0.510500 0.505700
vt 0.973100 0.502800
vt 0.980500 0.499900
vt 0.966800 0.505700
vt 0.978200 0.505600
vt 0.982200 0.501600
vt 0.974400 0.509400
vt 0.959900 0.511700
vt 0.962800 0.508700
vt 0.968200 0.515600
vt 0.971100 0.512600
vt 0.743900 0.489500
vt 0.743900 0.492600
vt 0.764100 0.492600
vt 0.764300 0.489500
vt 0.743900 0.495600
vt 0.763800 0.495600
vt 0.784700 0.492600
vt 0.784700 0.489500
vt 0.784600 0.495800
vt 0.743900 0.498700
vt 0.743900 0.501800
vt 0.763200 0.501800
vt 0.763500 0.498700
vt 0.783600 0.501900
vt 0.784200 0.498900
vt 0.807000 0.499200
vt 0.806100 0.502300
vt 0.807300 0.496100
vt 0.805200 0.489500
vt 0.806500 0.492800
vt 0.319700 0.019700
vt 0.320400 0.017200
vt 0.297300 0.019300
vt 0.297800 0.016900
vt 0.320600 0.014700
vt 0.298100 0.014400
vt 0.277000 0.019200
vt 0.277200 0.016800
vt 0.277500 0.014300
vt 0.277900 0.009400
vt 0.277700 0.011800
vt 0.298000 0.009400
vt 0.298100 0.011900
vt 0.318200 0.009400
vt 0.319700 0.012100
vt 0.681800 0.502300
vt 0.680900 0.499200
vt 0.704200 0.501900
vt 0.703700 0.498900
vt 0.680600 0.496100
vt 0.703200 0.495800
vt 0.724600 0.501800
vt 0.724300 0.498700
vt 0.724000 0.495600
vt 0.723500 0.489500
vt 0.723800 0.492600
vt 0.703100 0.489500
vt 0.703100 0.492600
vt 0.682600 0.489500
vt 0.681300 0.492800
vn 0.0656 -0.4944 0.8667
vn 0.0659 -0.4949 0.8665
vn 0.0704 -0.5301 0.8450
vn 0.0698 -0.5298 0.8452
vn 0.0665 -0.4948 0.8665
vn 0.0709 -0.5304 0.8448
vn 0.0671 -0.5668 0.8211
vn 0.0665 -0.5665 0.8214
vn 0.0677 -0.5670 0.8209
vn 0.0670 -0.4950 0.8663
vn 0.0675 -0.4952 0.8662
vn 0.0721 -0.5308 0.8444
vn 0.0715 -0.5305 0.8446
vn 0.0688 -0.5678 0.8203
vn 0.0681 -0.5673 0.8207
vn 0.0398 -0.6091 0.7921
vn 0.0395 -0.6089 0.7923
vn 0.0588 -0.5973 0.7999
vn 0.0593 -0.5976 0.7996
vn 0.0391 -0.6087 0.7924
vn 0.0583 -0.5970 0.8001
vn 0.0388 -0.6085 0.7926
vn 0.0385 -0.6083 0.7928
vn 0.0572 -0.5964 0.8007
vn 0.0578 -0.5966 0.8004
vn -0.0387 -0.6094 0.7919
vn -0.0390 -0.6096 0.7918
vn -0.0576 -0.5971 0.8001
vn -0.0570 -0.5969 0.8003
vn -0.0393 -0.6098 0.7916
vn -0.0581 -0.5975 0.7998
vn -0.0668 -0.5669 0.8211
vn -0.0662 -0.5665 0.8214
vn -0.0673 -0.5663 0.8214
vn -0.0397 -0.6100 0.7914
vn -0.0400 -0.6103 0.7912
vn -0.0592 -0.5981 0.7992
vn -0.0587 -0.5977 0.7996
vn -0.0686 -0.5677 0.8204
vn -0.0680 -0.5670 0.8209
vn -0.0673 -0.4946 0.8665
vn -0.0668 -0.4944 0.8667
vn -0.0711 -0.5306 0.8446
vn -0.0717 -0.5304 0.8447
vn -0.0663 -0.4944 0.8667
vn -0.0705 -0.5298 0.8452
vn -0.0657 -0.4943 0.8668
vn -0.0653 -0.4939 0.8671
vn -0.0695 -0.5294 0.8455
vn -0.0701 -0.5298 0.8452
vn -0.0505 -0.5518 0.8324
vn -0.0506 -0.5518 0.8325
vn -0.3135 -0.3240 0.8926
vn -0.3129 -0.3247 0.8926
vn -0.3130 -0.3248 0.8925
vn -0.0505 -0.5517 0.8325
vn -0.0506 -0.5518 0.8324
vn -0.3132 -0.3246 0.8925
vn -0.3134 -0.3245 0.8925
vn 0.0497 -0.5535 0.8314
vn 0.0497 -0.5535 0.8313
vn 0.3123 -0.3257 0.8924
vn 0.3125 -0.3249 0.8926
vn 0.3122 -0.3259 0.8924
vn 0.0496 -0.5535 0.8314
vn 0.3121 -0.3260 0.8924
vn 0.0001 -0.4422 0.8969
vn 0.0001 -0.4427 0.8967
vn 0.0174 -0.4440 0.8958
vn 0.0173 -0.4440 0.8958
vn 0.0001 -0.4430 0.8965
vn 0.0175 -0.4441 0.8958
vn 0.0364 -0.4523 0.8911
vn 0.0362 -0.4522 0.8912
vn 0.0364 -0.4528 0.8909
vn 0.0001 -0.4423 0.8969
vn 0.0001 -0.4420 0.8970
vn 0.0177 -0.4440 0.8958
vn 0.0175 -0.4442 0.8957
vn 0.0368 -0.4524 0.8910
vn 0.0368 -0.4524 0.8911
vn 0.0542 -0.4690 0.8815
vn 0.0543 -0.4690 0.8815
vn 0.0538 -0.4688 0.8817
vn 0.0531 -0.4686 0.8818
vn 0.0535 -0.4688 0.8817
vn -0.1279 -0.9545 -0.2695
vn -0.1286 -0.9543 -0.2698
vn -0.1004 -0.9659 -0.2388
vn -0.1001 -0.9659 -0.2387
vn -0.1293 -0.9541 -0.2701
vn -0.1007 -0.9658 -0.2389
vn -0.0841 -0.9712 -0.2228
vn -0.0840 -0.9713 -0.2227
vn -0.0843 -0.9712 -0.2230
vn -0.1300 -0.9540 -0.2702
vn -0.1306 -0.9539 -0.2703
vn -0.1011 -0.9657 -0.2391
vn -0.1010 -0.9657 -0.2390
vn -0.0827 -0.9713 -0.2231
vn -0.0844 -0.9712 -0.2229
vn -0.0564 -0.9758 -0.2111
vn -0.0557 -0.9759 -0.2110
vn -0.0711 -0.9739 -0.2156
vn -0.0711 -0.9739 -0.2154
vn -0.0563 -0.9759 -0.2110
vn -0.0556 -0.9761 -0.2100
vn -0.0563 -0.9759 -0.2111
vn -0.0712 -0.9739 -0.2154
vn -0.0711 -0.9738 -0.2160
vn 0.0564 -0.9760 -0.2104
vn 0.0555 -0.9760 -0.2105
vn 0.0708 -0.9741 -0.2145
vn 0.0708 -0.9742 -0.2143
vn 0.0555 -0.9761 -0.2100
vn 0.0708 -0.9741 -0.2148
vn 0.0836 -0.9716 -0.2212
vn 0.0835 -0.9717 -0.2209
vn 0.0837 -0.9716 -0.2213
vn 0.0561 -0.9760 -0.2105
vn 0.0562 -0.9760 -0.2106
vn 0.0708 -0.9742 -0.2144
vn 0.0708 -0.9740 -0.2151
vn 0.0839 -0.9716 -0.2212
vn 0.0838 -0.9716 -0.2211
vn 0.1291 -0.9548 -0.2676
vn 0.1284 -0.9550 -0.2673
vn 0.1000 -0.9664 -0.2366
vn 0.1003 -0.9664 -0.2367
vn 0.1277 -0.9552 -0.2670
vn 0.0998 -0.9665 -0.2365
vn 0.1270 -0.9554 -0.2668
vn 0.1263 -0.9555 -0.2665
vn 0.0992 -0.9666 -0.2362
vn 0.0995 -0.9666 -0.2363
vn -0.2632 -0.9020 -0.3422
vn -0.2644 -0.9015 -0.3425
vn -0.2620 -0.9024 -0.3420
vn -0.6361 -0.6510 -0.4143
vn -0.6361 -0.6509 -0.4144
vn -0.6360 -0.6510 -0.4143
vn -0.2597 -0.9034 -0.3412
vn -0.2609 -0.9029 -0.3416
vn -0.6359 -0.6511 -0.4143
vn -0.6360 -0.6511 -0.4143
vn 0.2583 -0.9047 -0.3389
vn 0.2571 -0.9051 -0.3387
vn 0.2595 -0.9042 -0.3392
vn 0.6341 -0.6529 -0.4143
vn 0.6342 -0.6528 -0.4143
vn 0.2618 -0.9033 -0.3398
vn 0.2607 -0.9037 -0.3396
vn 0.6343 -0.6527 -0.4143
vn -0.0001 -0.9799 -0.1992
vn -0.0001 -0.9801 -0.1986
vn 0.0071 -0.9799 -0.1993
vn 0.0072 -0.9799 -0.1991
vn -0.0001 -0.9801 -0.1987
vn 0.0072 -0.9799 -0.1992
vn 0.0206 -0.9793 -0.2012
vn 0.0217 -0.9791 -0.2020
vn 0.0210 -0.9793 -0.2013
vn -0.0001 -0.9801 -0.1985
vn 0.0072 -0.9800 -0.1991
vn 0.0070 -0.9801 -0.1985
vn 0.0208 -0.9793 -0.2012
vn 0.0210 -0.9793 -0.2014
vn 0.0377 -0.9780 -0.2052
vn 0.0383 -0.9779 -0.2055
vn 0.0382 -0.9779 -0.2055
vn 0.0380 -0.9779 -0.2056
vn 0.0380 -0.9780 -0.2053
vn -0.0543 -0.4685 0.8818
vn -0.0540 -0.4684 0.8819
vn -0.0367 -0.4519 0.8913
vn -0.0366 -0.4520 0.8913
vn -0.0536 -0.4684 0.8819
vn -0.0364 -0.4519 0.8913
vn -0.0171 -0.4431 0.8963
vn -0.0171 -0.4441 0.8958
vn -0.0173 -0.4439 0.8959
vn -0.0171 -0.4439 0.8959
vn -0.0172 -0.4438 0.8960
vn -0.0360 -0.4518 0.8914
vn -0.0362 -0.4518 0.8914
vn -0.0529 -0.4681 0.8821
vn -0.0533 -0.4683 0.8820
vn -0.0384 -0.9779 -0.2057
vn -0.0379 -0.9777 -0.2063
vn -0.0212 -0.9793 -0.2014
vn -0.0210 -0.9792 -0.2020
vn -0.0379 -0.9778 -0.2062
vn -0.0211 -0.9793 -0.2015
vn -0.0069 -0.9803 -0.1972
vn -0.0073 -0.9799 -0.1994
vn -0.0074 -0.9799 -0.1992
vn -0.0075 -0.9801 -0.1983
vn -0.0072 -0.9799 -0.1993
vn -0.0217 -0.9793 -0.2011
vn -0.0207 -0.9794 -0.2010
vn -0.0383 -0.9779 -0.2056
usemtl _10272_Bread_Plate_v1_a10272_Bread_Plate_v1
s 1
f 1/1/1 2/2/2 3/3/3 4/4/4
f 2/2/2 5/5/5 6/6/6 3/3/3
f 4/4/4 3/3/3 7/7/7 8/8/8
f 3/3/3 6/6/6 9/9/9 7/7/7
f 10/10/10 11/11/11 12/12/12 13/13/13
f 13/13/13 12/12/12 14/14/14 15/15/15
f 5/5/5 10/10/10 13/13/13 6/6/6
f 6/6/6 13/13/13 15/15/15 9/9/9
f 16/16/16 17/17/17 18/18/18 19/19/19
f 17/17/17 20/20/20 21/21/21 18/18/18
f 19/19/19 18/18/18 15/15/15 14/14/14
f 18/18/18 21/21/21 9/9/9 15/15/15
f 22/22/22 23/23/23 24/24/24 25/25/25
f 25/25/25 24/24/24 8/8/8 7/7/7
f 20/20/20 22/22/22 25/25/25 21/21/21
f 21/21/21 25/25/25 7/7/7 9/9/9
f 26/26/26 27/27/27 28/28/28 29/29/29
f 27/27/27 30/30/30 31/31/31 28/28/28
f 29/29/29 28/28/28 32/32/32 33/33/33
f 28/28/28 31/31/31 34/34/34 32/32/32
f 35/35/35 36/36/36 37/37/37 38/38/38
f 38/38/38 37/37/37 39/39/39 40/40/40
f 30/30/30 35/35/35 38/38/38 31/31/31
f 31/31/31 38/38/38 40/40/40 34/34/34
f 41/41/41 42/42/42 43/43/43 44/44/44
f 42/42/42 45/45/45 46/46/46 43/43/43
f 44/44/44 43/43/43 40/40/40 39/39/39
f 43/43/43 46/46/46 34/34/34 40/40/40
f 47/47/47 48/48/48 49/49/49 50/50/50
f 50/50/50 49/49/49 33/33/33 32/32/32
f 45/45/45 47/47/47 50/50/50 46/46/46
f 46/46/46 50/50/50 32/32/32 34/34/34
f 23/23/23 22/22/22 51/51/51 52/52/51
f 22/22/22 20/20/20 53/53/52 51/51/51
f 52/52/51 51/51/51 54/54/53 55/55/54
f 51/51/51 53/53/52 56/56/55 54/54/53
f 17/17/17 16/16/16 57/57/56 58/58/57
f 58/58/57 57/57/56 59/59/58 60/60/59
f 20/20/20 17/17/17 58/58/57 53/53/52
f 53/53/52 58/58/57 60/60/59 56/56/55
f 36/36/36 35/35/35 66/61/60 67/62/60
f 35/35/35 30/30/30 68/63/61 66/61/60
f 67/62/60 66/61/60 65/64/62 64/65/63
f 66/61/60 68/63/61 63/66/64 65/64/62
f 27/27/27 26/26/26 69/67/65 70/68/61
f 70/68/61 69/67/65 62/69/66 61/70/66
f 30/30/30 27/27/27 70/68/61 68/63/61
f 68/63/61 70/68/61 61/70/66 63/66/64
f 71/71/67 72/72/68 73/73/69 74/74/70
f 72/72/68 75/75/71 76/76/72 73/73/69
f 74/74/70 73/73/69 77/77/73 78/78/74
f 73/73/69 76/76/72 79/79/75 77/77/73
f 80/80/76 81/81/77 82/82/78 83/83/79
f 83/83/79 82/82/78 84/84/80 85/85/81
f 75/75/71 80/80/76 83/83/79 76/76/72
f 76/76/72 83/83/79 85/85/81 79/79/75
f 11/11/11 10/10/10 86/86/82 87/87/83
f 10/10/10 5/5/5 88/88/84 86/86/82
f 87/87/83 86/86/82 85/85/81 84/84/80
f 86/86/82 88/88/84 79/79/75 85/85/81
f 2/2/2 1/1/1 89/89/85 90/90/86
f 90/90/86 89/89/85 78/78/74 77/77/73
f 5/5/5 2/2/2 90/90/86 88/88/84
f 88/88/84 90/90/86 77/77/73 79/79/75
f 23/91/87 91/92/88 92/93/89 24/94/90
f 91/92/88 93/95/91 94/96/92 92/93/89
f 24/94/90 92/93/89 95/97/93 8/98/94
f 92/93/89 94/96/92 96/99/95 95/97/93
f 97/100/96 98/101/97 99/102/98 100/103/99
f 100/103/99 99/102/98 101/104/100 102/105/101
f 93/95/91 97/100/96 100/103/99 94/96/92
f 94/96/92 100/103/99 102/105/101 96/99/95
f 103/106/102 104/107/103 105/108/104 106/109/105
f 104/107/103 107/110/106 108/111/105 105/108/104
f 106/109/105 105/108/104 102/105/101 101/104/100
f 105/108/104 108/111/105 96/99/95 102/105/101
f 109/112/107 1/113/108 4/114/109 110/115/110
f 110/115/110 4/114/109 8/98/94 95/97/93
f 107/110/106 109/112/107 110/115/110 108/111/105
f 108/111/105 110/115/110 95/97/93 96/99/95
f 48/116/111 111/117/112 112/118/113 49/119/114
f 111/117/112 113/120/115 114/121/116 112/118/113
f 49/119/114 112/118/113 115/122/117 33/123/118
f 112/118/113 114/121/116 116/124/119 115/122/117
f 117/125/120 118/126/121 119/127/122 120/128/123
f 120/128/123 119/127/122 121/129/124 122/130/125
f 113/120/115 117/125/120 120/128/123 114/121/116
f 114/121/116 120/128/123 122/130/125 116/124/119
f 123/131/126 124/132/127 125/133/128 126/134/129
f 124/132/127 127/135/130 128/136/131 125/133/128
f 126/134/129 125/133/128 122/130/125 121/129/124
f 125/133/128 128/136/131 116/124/119 122/130/125
f 129/137/132 26/138/133 29/139/134 130/140/135
f 130/140/135 29/139/134 33/123/118 115/122/117
f 127/135/130 129/137/132 130/140/135 128/136/131
f 128/136/131 130/140/135 115/122/117 116/124/119
f 98/101/97 97/100/96 135/141/136 136/142/137
f 97/100/96 93/95/91 137/143/138 135/141/136
f 136/142/137 135/141/136 134/144/139 133/145/140
f 135/141/136 137/143/138 132/146/141 134/144/139
f 91/92/88 23/91/87 52/147/142 138/148/143
f 138/148/143 52/147/142 55/149/144 131/150/145
f 93/95/91 91/92/88 138/148/143 137/143/138
f 137/143/138 138/148/143 131/150/145 132/146/141
f 26/138/133 129/137/132 139/151/146 69/152/147
f 129/137/132 127/135/130 140/153/148 139/151/146
f 69/152/147 139/151/146 141/154/149 62/155/149
f 139/151/146 140/153/148 142/156/150 141/154/149
f 124/132/127 123/131/126 143/157/151 144/158/152
f 144/158/152 143/157/151 145/159/153 146/160/153
f 127/135/130 124/132/127 144/158/152 140/153/148
f 140/153/148 144/158/152 146/160/153 142/156/150
f 71/161/154 147/162/155 148/163/156 149/164/157
f 147/162/155 150/165/158 151/166/159 148/163/156
f 149/164/157 148/163/156 152/167/160 153/168/161
f 148/163/156 151/166/159 154/169/162 152/167/160
f 155/170/163 156/171/163 157/172/164 158/173/165
f 158/173/165 157/172/164 159/174/166 160/175/167
f 150/165/158 155/170/163 158/173/165 151/166/159
f 151/166/159 158/173/165 160/175/167 154/169/162
f 118/126/121 117/125/120 161/176/168 162/177/169
f 117/125/120 113/120/115 163/178/170 161/176/168
f 162/177/169 161/176/168 160/175/167 159/174/166
f 161/176/168 163/178/170 154/169/162 160/175/167
f 111/117/112 48/116/111 164/179/171 165/180/172
f 165/180/172 164/179/171 153/168/161 152/167/160
f 113/120/115 111/117/112 165/180/172 163/178/170
f 163/178/170 165/180/172 152/167/160 154/169/162
f 41/41/41 166/181/173 167/182/174 42/42/42
f 166/181/173 168/183/175 169/184/176 167/182/174
f 42/42/42 167/182/174 170/185/177 45/45/45
f 167/182/174 169/184/176 171/186/178 170/185/177
f 172/187/179 81/81/77 80/80/76 173/188/180
f 173/188/180 80/80/76 75/75/71 174/189/181
f 168/183/175 172/187/179 173/188/180 169/184/176
f 169/184/176 173/188/180 174/189/181 171/186/178
f 71/71/67 149/190/182 175/191/183 72/72/68
f 149/190/182 153/192/184 176/193/185 175/191/183
f 72/72/68 175/191/183 174/189/181 75/75/71
f 175/191/183 176/193/185 171/186/178 174/189/181
f 164/194/186 48/48/48 47/47/47 177/195/187
f 177/195/187 47/47/47 45/45/45 170/185/177
f 153/192/184 164/194/186 177/195/187 176/193/185
f 176/193/185 177/195/187 170/185/177 171/186/178
f 103/106/102 178/196/188 179/197/189 104/107/103
f 178/196/188 180/198/190 181/199/191 179/197/189
f 104/107/103 179/197/189 182/200/192 107/110/106
f 179/197/189 181/199/191 183/201/193 182/200/192
f 184/202/194 156/171/163 155/170/163 185/203/195
f 185/203/195 155/170/163 150/165/158 186/204/196
f 180/198/190 184/202/194 185/203/195 181/199/191
f 181/199/191 185/203/195 186/204/196 183/201/193
f 71/161/154 74/205/197 187/206/198 147/162/155
f 74/205/197 78/207/199 188/208/200 187/206/198
f 147/162/155 187/206/198 186/204/196 150/165/158
f 187/206/198 188/208/200 183/201/193 186/204/196
f 89/209/201 1/113/108 109/112/107 189/210/201
f 189/210/201 109/112/107 107/110/106 182/200/192
f 78/207/199 89/209/201 189/210/201 188/208/200
f 188/208/200 189/210/201 182/200/192 183/201/193
