# SSTK version 0.8.0
# 1174
mtllib original-1174.mtl
o draw_side1/draw_side/mesh305/mesh305-geometry#mesh305-geometry
v 0.698161 0.070053 -0.227199
v 0.705274 0.043380 -0.227199
v 0.698161 0.043380 -0.227199
v 0.712387 0.070053 -0.227199
v 0.698161 0.043380 0.228027
v 0.698161 0.068275 -0.212973
v 0.705274 0.036267 -0.227199
v 0.712387 0.068275 -0.212973
v 0.705274 0.043380 0.228027
v 0.698161 0.068275 0.213801
v 0.712387 0.022041 -0.227199
v 0.705274 0.036267 0.213801
v 0.705274 0.036267 0.228027
v 0.698161 0.070053 0.228027
v 0.698161 0.086057 -0.212973
v 0.698161 0.036267 -0.227199
v 0.712387 0.231872 0.213801
v 0.712387 0.070053 0.228027
v 0.698161 0.118065 -0.212973
v 0.712387 0.086057 -0.212973
v 0.698161 0.022041 -0.227199
v 0.698161 0.036267 0.213801
v 0.712387 0.217646 0.213801
v 0.712387 0.034489 0.228027
v 0.712387 0.068275 0.213801
v 0.698161 0.231872 -0.212973
v 0.698161 0.119844 -0.227199
v 0.712387 0.084279 -0.227199
v 0.698161 0.022041 0.213801
v 0.698161 0.036267 0.228027
v 0.712387 0.036267 0.213801
v 0.698161 0.034489 0.228027
v 0.712387 0.185638 0.213801
v 0.698161 0.217646 0.213801
v 0.712387 0.118065 -0.212973
v 0.712387 0.086057 0.213801
v 0.698161 0.086057 0.213801
v 0.698161 0.135848 -0.212973
v 0.698161 0.084279 -0.227199
v 0.712387 0.119844 -0.227199
v 0.712387 0.022041 0.213801
v 0.712387 0.167856 0.213801
v 0.712387 0.219424 0.228027
v 0.698161 0.231872 0.213801
v 0.712387 0.231872 -0.212973
v 0.698161 0.118065 0.213801
v 0.698161 0.185638 -0.212973
v 0.712387 0.135848 0.213801
v 0.698161 0.167856 0.213801
v 0.712387 0.183860 0.228027
v 0.698161 0.219424 0.228027
v 0.712387 0.135848 -0.212973
v 0.698161 0.084279 0.228027
v 0.712387 0.118065 0.213801
v 0.698161 0.135848 0.213801
v 0.698161 0.217646 -0.212973
v 0.698161 0.167856 -0.212973
v 0.712387 0.169634 0.228027
v 0.698161 0.185638 0.213801
v 0.698161 0.183860 0.228027
v 0.712387 0.185638 -0.212973
v 0.712387 0.217646 -0.212973
v 0.712387 0.084279 0.228027
v 0.712387 0.119844 0.228027
v 0.698161 0.119844 0.228027
v 0.698161 0.183860 -0.227199
v 0.698161 0.134069 -0.227199
v 0.712387 0.167856 -0.212973
v 0.712387 0.134069 -0.227199
v 0.712387 0.134069 0.228027
v 0.698161 0.169634 0.228027
v 0.698161 0.134069 0.228027
v 0.698161 0.219424 -0.227199
v 0.712387 0.183860 -0.227199
v 0.698161 0.169634 -0.227199
v 0.712387 0.219424 -0.227199
v 0.712387 0.169634 -0.227199
vt 0 0.017791
vt -0.002636 0.007907
vt 0 0.007907
vt -0.005271 0.017791
vt -0.002636 0.168687
vt 0 0
vt 0 0.168687
vt -0.168687 0.017791
vt -0.163415 0.017132
vt -0.168687 0.007907
vt -0.002636 0.005271
vt 0 0.169591
vt 0.005271 0.164278
vt 0.005271 0.169591
vt -0.002636 0
vt -0.005271 0.017132
vt 0 0.164278
vt -0.005271 0
vt -0.005271 0.005271
vt -0.168687 0.005271
vt 0.163415 0.017132
vt 0.168687 0
vt 0.168687 0.017791
vt 0 0.005271
vt 0.002636 0.007907
vt -0.163415 0.023722
vt 0 0.023722
vt 0 0.017132
vt 0.002636 0.005271
vt 0.002636 0.168687
vt 0.005271 0.077754
vt 0.005271 0.017791
vt -0.005271 0.002207
vt 0 -0.003106
vt 0 0.002207
vt -0.163415 0.035582
vt -0.005271 0.023722
vt 0.002636 0
vt 0.005271 0.072483
vt 0.163415 0.023722
vt 0.005271 0.004613
vt -0.005271 -0.003106
vt -0.163415 0.077754
vt -0.168687 0.036241
vt 0 -0.159211
vt 0.005271 -0.164524
vt 0.005271 -0.159211
vt -0.005271 0.168687
vt -0.168687 0
vt 0.005271 0.005271
vt -0.002636 0.005885
vt 0 0.000572
vt 0 0.005885
vt 0.005271 0.060622
vt 0 0.072483
vt 0.163415 0.035582
vt 0 0.004613
vt 0.005271 0.017132
vt 0.005271 0.023722
vt -0.163415 0.042172
vt -0.168687 0.023063
vt 0.005271 0.166567
vt 0 0.171879
vt 0 0.166567
vt 0 -0.164524
vt 0.168687 0.036241
vt 0.168687 0.023063
vt -0.005271 0.000572
vt -0.005271 0.005885
vt 0.005271 0.054032
vt 0 0.073142
vt 0 0.077754
vt 0 0.00376
vt -0.005271 0.009072
vt -0.005271 0.00376
vt 0.163415 0.077754
vt -0.005271 0.035582
vt -0.163415 0.060622
vt 0 0.042172
vt 0 0.035582
vt 0 0.036241
vt -0.005271 0.023063
vt 0 0.023063
vt 0.005271 0.171879
vt -0.005271 0.036241
vt 0.005271 0
vt 0.005271 0.042172
vt 0 0.054032
vt 0 0.059963
vt 0 0.163415
vt -0.005271 0.077754
vt -0.005271 0.072483
vt 0 0.009072
vt 0.163415 0.042172
vt 0.005271 0.163415
vt -0.005271 0.008173
vt 0 0.002861
vt 0 0.008173
vt 0.005271 0.035582
vt -0.005271 0.042172
vt -0.163415 0.072483
vt -0.163415 0.054032
vt 0 0.054691
vt 0 0.060622
vt 0 0.001471
vt -0.005271 0.006784
vt -0.005271 0.001471
vt 0.005271 0.073142
vt 0.005271 0.059963
vt 0 0.007437
vt -0.005271 0.01275
vt -0.005271 0.007437
vt -0.005271 0.060622
vt 0.163415 0.060622
vt -0.005271 0.002861
vt -0.005271 0.054032
vt -0.168687 0.059963
vt -0.168687 0.041513
vt 0 -0.156923
vt 0.005271 -0.162235
vt 0.005271 -0.156923
vt 0 0.041513
vt 0 0.01275
vt 0 0.006784
vt 0.163415 0.054032
vt 0.163415 0.072483
vt 0.005271 0.036241
vt 0.005271 0.023063
vt 0 -0.000817
vt -0.005271 0.004495
vt -0.005271 -0.000817
vt -0.005271 0.010462
vt 0 0.005149
vt 0 0.010462
vt 0 0.004495
vt 0.005271 0.171144
vt 0 0.176456
vt 0 0.171144
vt -0.168687 0.073142
vt 0.005271 -0.159947
vt 0 -0.154634
vt 0 -0.159947
vt -0.168687 0.054691
vt 0 -0.162235
vt 0.005271 0.168855
vt 0 0.174168
vt 0 0.168855
vt 0.168687 0.041513
vt 0.005271 0.054691
vt 0.005271 0.041513
vt -0.005271 0.005149
vt 0.168687 0.059963
vt 0.005271 0.176456
vt -0.005271 0.059963
vt 0.005271 -0.154634
vt -0.005271 0.041513
vt 0.005271 0.174168
vt 0.168687 0.054691
vt 0.168687 0.073142
vt -0.005271 0.073142
vt -0.005271 0.054691
vt -0.243003 0.016747
vt -0.235409 0.036286
vt -0.243003 0.037682
vt 0 0.016747
vt -0.007594 0.036286
vt 0 0.037682
vt -0.235409 0.050242
vt -0.235409 0.075364
vt -0.235409 0.164684
vt -0.243003 0.076759
vt -0.007594 0.050242
vt -0.235409 0.08932
vt -0.243003 0.048847
vt -0.007594 0.075364
vt -0.235409 0.128397
vt -0.007594 0.153519
vt -0.007594 0.164684
vt -0.007594 0.08932
vt 0 0.048847
vt -0.235409 0.153519
vt -0.235409 0.114441
vt -0.007594 0.128397
vt 0 0.127002
vt 0 0.154914
vt -0.007594 0.114441
vt 0 0.076759
vt -0.243003 0.127002
vt -0.243003 0.087924
vt 0 0.087924
vt -0.243003 0.154914
vt -0.243003 0.115837
vt 0 0.115837
vn 0 0 -1
vn 0 0 1
vn 0 -1 0
vn 0 1 0
vn 1 0 0
vn 0 0.9922778459444112 0.12403498074301281
vn 0 -0.9922778459444112 -0.12403498074301281
vn -1 0 0
vn 0 0.9922778459444112 -0.12403498074301236
vn 0 -0.9922778459444112 0.12403498074301236
usemtl material_0_0
f 1/1/1 2/2/1 3/3/1
f 4/4/1 2/2/1 1/1/1
f 3/3/2 2/2/2 1/1/2
f 1/1/2 2/2/2 4/4/2
f 2/5/3 5/6/3 3/7/3
f 3/7/4 5/6/4 2/5/4
f 1/8/5 6/9/5 3/10/5
f 4/4/1 7/11/1 2/2/1
f 2/2/2 7/11/2 4/4/2
f 1/12/6 8/13/6 4/14/6
f 4/14/7 8/13/7 1/12/7
f 5/6/3 2/5/3 9/15/3
f 9/15/4 2/5/4 5/6/4
f 3/10/5 10/16/5 5/3/5
f 6/9/5 10/16/5 3/10/5
f 8/13/6 1/12/6 6/17/6
f 6/17/7 1/12/7 8/13/7
f 11/18/1 7/11/1 4/4/1
f 4/4/2 7/11/2 11/18/2
f 12/19/8 2/10/8 7/20/8
f 7/20/5 2/10/5 12/19/5
f 8/21/5 11/22/5 4/23/5
f 4/23/8 11/22/8 8/21/8
f 2/10/8 13/24/8 9/3/8
f 9/3/5 13/24/5 2/10/5
f 9/25/2 14/1/2 5/3/2
f 5/3/1 14/1/1 9/25/1
f 14/1/5 5/3/5 10/16/5
f 15/26/5 10/16/5 6/9/5
f 15/27/1 8/16/1 6/28/1
f 6/28/2 8/16/2 15/27/2
f 11/18/1 16/24/1 7/11/1
f 7/11/2 16/24/2 11/18/2
f 13/24/8 2/10/8 12/19/8
f 12/19/5 2/10/5 13/24/5
f 16/7/4 12/29/4 7/30/4
f 7/30/3 12/29/3 16/7/3
f 17/31/5 11/22/5 8/21/5
f 8/21/8 11/22/8 17/31/8
f 13/29/2 18/32/2 9/25/2
f 9/25/1 18/32/1 13/29/1
f 14/1/2 9/25/2 18/32/2
f 18/32/1 9/25/1 14/1/1
f 18/33/9 10/34/9 14/35/9
f 14/35/10 10/34/10 18/33/10
f 19/36/5 10/16/5 15/26/5
f 8/16/1 15/27/1 20/37/1
f 20/37/2 15/27/2 8/16/2
f 16/24/1 11/18/1 21/6/1
f 21/6/2 11/18/2 16/24/2
f 22/24/4 13/38/4 12/29/4
f 12/29/3 13/38/3 22/24/3
f 12/29/4 16/7/4 22/24/4
f 22/24/3 16/7/3 12/29/3
f 23/39/5 11/22/5 17/31/5
f 17/31/8 11/22/8 23/39/8
f 17/31/5 8/21/5 20/40/5
f 20/40/8 8/21/8 17/31/8
f 13/29/2 24/41/2 18/32/2
f 18/32/1 24/41/1 13/29/1
f 10/34/9 18/33/9 25/42/9
f 25/42/10 18/33/10 10/34/10
f 19/36/5 26/43/5 10/16/5
f 19/36/5 15/26/5 27/44/5
f 15/45/10 28/46/10 20/47/10
f 20/47/9 28/46/9 15/45/9
f 11/48/3 29/24/3 21/7/3
f 21/7/4 29/24/4 11/48/4
f 29/18/8 16/20/8 21/49/8
f 21/49/5 16/20/5 29/18/5
f 13/38/4 22/24/4 30/6/4
f 30/6/3 22/24/3 13/38/3
f 22/24/2 31/50/2 12/29/2
f 12/29/1 31/50/1 22/24/1
f 12/51/7 32/52/7 22/53/7
f 22/53/6 32/52/6 12/51/6
f 16/20/8 29/18/8 22/19/8
f 22/19/5 29/18/5 16/20/5
f 33/54/5 11/22/5 23/39/5
f 23/39/8 11/22/8 33/54/8
f 17/31/2 34/55/2 23/39/2
f 23/39/1 34/55/1 17/31/1
f 17/31/5 20/40/5 35/56/5
f 35/56/8 20/40/8 17/31/8
f 24/41/2 13/29/2 32/57/2
f 32/57/1 13/29/1 24/41/1
f 31/50/5 18/1/5 24/57/5
f 24/57/8 18/1/8 31/50/8
f 18/1/5 31/50/5 25/58/5
f 25/58/8 31/50/8 18/1/8
f 36/59/2 10/28/2 25/58/2
f 25/58/1 10/28/1 36/59/1
f 10/16/5 26/43/5 37/37/5
f 38/60/5 26/43/5 19/36/5
f 39/61/5 27/44/5 15/26/5
f 35/62/6 27/63/6 19/64/6
f 19/64/7 27/63/7 35/62/7
f 28/46/10 15/45/10 39/65/10
f 39/65/9 15/45/9 28/46/9
f 40/66/5 20/40/5 28/67/5
f 28/67/8 20/40/8 40/66/8
f 29/24/3 11/48/3 41/19/3
f 41/19/4 11/48/4 29/24/4
f 22/19/8 32/57/8 30/24/8
f 30/24/5 32/57/5 22/19/5
f 30/24/2 32/57/2 13/29/2
f 13/29/1 32/57/1 30/24/1
f 29/6/2 31/50/2 22/24/2
f 22/24/1 31/50/1 29/6/1
f 24/68/7 12/51/7 31/69/7
f 31/69/6 12/51/6 24/68/6
f 32/52/7 12/51/7 24/68/7
f 24/68/6 12/51/6 32/52/6
f 42/70/5 11/22/5 33/54/5
f 33/54/8 11/22/8 42/70/8
f 43/71/5 33/54/5 23/39/5
f 23/39/8 33/54/8 43/71/8
f 34/55/2 17/31/2 44/72/2
f 44/72/1 17/31/1 34/55/1
f 34/73/9 43/74/9 23/75/9
f 23/75/10 43/74/10 34/73/10
f 20/40/5 40/66/5 35/56/5
f 35/56/8 40/66/8 20/40/8
f 35/56/5 45/76/5 17/31/5
f 17/31/8 45/76/8 35/56/8
f 31/50/5 11/22/5 25/58/5
f 25/58/8 11/22/8 31/50/8
f 10/28/2 36/59/2 37/27/2
f 37/27/1 36/59/1 10/28/1
f 25/58/5 11/22/5 36/59/5
f 36/59/8 11/22/8 25/58/8
f 37/37/5 26/43/5 46/77/5
f 47/78/5 26/43/5 38/60/5
f 38/79/1 35/77/1 19/80/1
f 19/80/2 35/77/2 38/79/2
f 27/81/1 28/82/1 39/83/1
f 39/83/2 28/82/2 27/81/2
f 27/63/6 35/62/6 40/84/6
f 40/84/7 35/62/7 27/63/7
f 28/82/1 27/81/1 40/85/1
f 40/85/2 27/81/2 28/82/2
f 11/22/5 31/50/5 41/86/5
f 41/86/8 31/50/8 11/22/8
f 31/50/2 29/6/2 41/86/2
f 41/86/1 29/6/1 31/50/1
f 48/87/5 11/22/5 42/70/5
f 42/70/8 11/22/8 48/87/8
f 33/54/2 49/88/2 42/70/2
f 42/70/1 49/88/1 33/54/1
f 33/54/5 43/71/5 50/89/5
f 50/89/8 43/71/8 33/54/8
f 17/50/4 26/90/4 44/24/4
f 44/24/3 26/90/3 17/50/3
f 44/91/5 34/92/5 26/43/5
f 43/74/9 34/73/9 51/93/9
f 51/93/10 34/73/10 43/74/10
f 45/76/5 35/56/5 52/94/5
f 52/94/8 35/56/8 45/76/8
f 26/90/4 17/50/4 45/95/4
f 45/95/3 17/50/3 26/90/3
f 36/96/7 53/97/7 37/98/7
f 37/98/6 53/97/6 36/96/6
f 36/59/5 11/22/5 54/99/5
f 54/99/8 11/22/8 36/59/8
f 46/77/5 26/43/5 55/100/5
f 37/37/5 46/77/5 53/83/5
f 56/101/5 26/43/5 47/78/5
f 47/78/5 38/60/5 57/102/5
f 35/77/1 38/79/1 52/100/1
f 52/100/2 38/79/2 35/77/2
f 54/99/5 11/22/5 48/87/5
f 48/87/8 11/22/8 54/99/8
f 58/103/5 48/87/5 42/70/5
f 42/70/8 48/87/8 58/103/8
f 49/88/2 33/54/2 59/104/2
f 59/104/1 33/54/1 49/88/1
f 49/105/9 58/106/9 42/107/9
f 42/107/10 58/106/10 49/105/10
f 43/108/2 60/89/2 50/109/2
f 50/109/1 60/89/1 43/108/1
f 60/110/7 33/111/7 50/112/7
f 50/112/6 33/111/6 60/110/6
f 59/113/5 26/43/5 34/92/5
f 51/71/5 60/89/5 34/92/5
f 60/89/2 43/108/2 51/71/2
f 51/71/1 43/108/1 60/89/1
f 45/76/5 52/94/5 61/114/5
f 61/114/8 52/94/8 45/76/8
f 62/92/1 26/72/1 45/91/1
f 45/91/2 26/72/2 62/92/2
f 53/97/7 36/96/7 63/115/7
f 63/115/6 36/96/6 53/97/6
f 64/81/5 36/59/5 54/99/5
f 54/99/8 36/59/8 64/81/8
f 55/100/5 26/43/5 49/116/5
f 46/80/2 48/87/2 55/79/2
f 55/79/1 48/87/1 46/80/1
f 65/81/5 53/83/5 46/77/5
f 26/72/1 62/92/1 56/55/1
f 56/55/2 62/92/2 26/72/2
f 66/117/5 56/101/5 47/78/5
f 67/118/5 57/102/5 38/60/5
f 47/104/1 68/116/1 57/88/1
f 57/88/2 68/116/2 47/104/2
f 38/119/10 69/120/10 52/121/10
f 52/121/9 69/120/9 38/119/9
f 48/87/2 46/80/2 54/99/2
f 54/99/1 46/80/1 48/87/1
f 48/87/5 58/103/5 70/122/5
f 70/122/8 58/103/8 48/87/8
f 33/111/7 60/110/7 59/123/7
f 59/123/6 60/110/6 33/111/6
f 49/116/5 26/43/5 59/113/5
f 58/106/9 49/105/9 71/124/9
f 71/124/10 49/105/10 58/106/10
f 59/113/5 34/92/5 60/89/5
f 61/114/5 52/94/5 68/125/5
f 68/125/8 52/94/8 61/114/8
f 61/114/5 62/126/5 45/76/5
f 45/76/8 62/126/8 61/114/8
f 36/59/5 64/81/5 63/83/5
f 63/83/8 64/81/8 36/59/8
f 64/127/2 53/83/2 63/128/2
f 63/128/1 53/83/1 64/127/1
f 46/129/9 64/130/9 54/131/9
f 54/131/10 64/130/10 46/129/10
f 55/100/5 49/116/5 72/122/5
f 48/132/7 72/133/7 55/134/7
f 55/134/6 72/133/6 48/132/6
f 53/83/2 64/127/2 65/81/2
f 65/81/1 64/127/1 53/83/1
f 64/130/9 46/129/9 65/135/9
f 65/135/10 46/129/10 64/130/10
f 62/136/6 73/137/6 56/138/6
f 56/138/7 73/137/7 62/136/7
f 73/139/5 56/101/5 66/117/5
f 74/140/10 47/141/10 66/142/10
f 66/142/9 47/141/9 74/140/9
f 75/143/5 57/102/5 67/118/5
f 69/120/10 38/119/10 67/144/10
f 67/144/9 38/119/9 69/120/9
f 68/116/1 47/104/1 61/113/1
f 61/113/2 47/104/2 68/116/2
f 68/145/6 75/146/6 57/147/6
f 57/147/7 75/146/7 68/145/7
f 68/125/5 52/94/5 69/148/5
f 69/148/8 52/94/8 68/125/8
f 58/149/2 72/122/2 70/150/2
f 70/150/1 72/122/1 58/149/1
f 72/133/7 48/132/7 70/151/7
f 70/151/6 48/132/6 72/133/6
f 71/103/5 72/122/5 49/116/5
f 72/122/2 58/149/2 71/103/2
f 71/103/1 58/149/1 72/122/1
f 62/126/5 61/114/5 74/152/5
f 74/152/8 61/114/8 62/126/8
f 73/137/6 62/136/6 76/153/6
f 76/153/7 62/136/7 73/137/7
f 73/71/1 74/154/1 66/89/1
f 66/89/2 74/154/2 73/71/2
f 47/141/10 74/140/10 61/155/10
f 61/155/9 74/140/9 47/141/9
f 75/103/1 69/156/1 67/122/1
f 67/122/2 69/156/2 75/103/2
f 75/146/6 68/145/6 77/157/6
f 77/157/7 68/145/7 75/146/7
f 68/125/5 69/148/5 77/158/5
f 77/158/8 69/148/8 68/125/8
f 62/126/5 74/152/5 76/159/5
f 76/159/8 74/152/8 62/126/8
f 74/154/1 73/71/1 76/160/1
f 76/160/2 73/71/2 74/154/2
f 69/156/1 75/103/1 77/161/1
f 77/161/2 75/103/2 69/156/2
usemtl material_1_0
f 3/162/8 6/163/8 1/164/8
f 5/165/8 10/166/8 3/162/8
f 3/162/8 10/166/8 6/163/8
f 10/166/8 5/165/8 14/167/8
f 6/163/8 10/166/8 15/168/8
f 15/168/8 10/166/8 19/169/8
f 10/166/8 26/170/8 19/169/8
f 27/171/8 15/168/8 19/169/8
f 37/172/8 26/170/8 10/166/8
f 19/169/8 26/170/8 38/173/8
f 15/168/8 27/171/8 39/174/8
f 46/175/8 26/170/8 37/172/8
f 38/173/8 26/170/8 47/176/8
f 26/170/8 34/177/8 44/178/8
f 55/179/8 26/170/8 46/175/8
f 53/180/8 46/175/8 37/172/8
f 47/176/8 26/170/8 56/181/8
f 57/182/8 38/173/8 47/176/8
f 34/177/8 26/170/8 59/183/8
f 34/177/8 60/184/8 51/185/8
f 49/186/8 26/170/8 55/179/8
f 46/175/8 53/180/8 65/187/8
f 47/176/8 56/181/8 66/188/8
f 38/173/8 57/182/8 67/189/8
f 59/183/8 26/170/8 49/186/8
f 60/184/8 34/177/8 59/183/8
f 72/190/8 49/186/8 55/179/8
f 66/188/8 56/181/8 73/191/8
f 67/189/8 57/182/8 75/192/8
f 49/186/8 72/190/8 71/193/8
