# SSTK version 0.8.0
# 1065
mtllib original-1065.mtl
o mesh129/mesh129-geometry#mesh129-geometry
v 0.033966 -0.007777 -0.189093
v 0.032814 -0.009460 -0.187956
v 0.032814 -0.010059 -0.188476
v 0.032814 -0.008693 -0.188636
v 0.032814 -0.009137 -0.189293
v 0.031662 -0.011127 -0.186281
v 0.033966 -0.008036 -0.189843
v 0.033966 -0.006774 -0.189298
v 0.031662 -0.010024 -0.187102
v 0.033966 -0.006830 -0.190089
v 0.031662 -0.010349 -0.186131
v 0.031662 -0.010737 -0.187449
v 0.030509 -0.010955 -0.183846
v 0.030509 -0.010410 -0.185108
v 0.030509 -0.010206 -0.184105
v 0.030509 -0.011201 -0.185052
v 0.029357 -0.009588 -0.181824
v 0.029357 -0.009748 -0.183189
v 0.029357 -0.009069 -0.182422
v 0.029357 -0.010405 -0.182745
vt -0.316454 -1.825029
vt -0.373253 -1.264908
vt -0.458924 -1.264908
vt 0.66228 0.513292
vt 0.879858 0.222139
vt 0.772954 0.513292
vt 0.18818 1.791254
vt 0.223052 2.120198
vt 0.12348 1.919188
vt -0.373253 -1.343239
vt -0.390647 -0.697085
vt -0.458924 -1.343239
vt -0.738613 -1.323075
vt -0.756007 -0.67692
vt -0.824284 -1.323075
vt 0.437566 -0.125871
vt 0.544469 -0.417024
vt 0.655143 -0.417024
vt 0.271013 1.958473
vt 0.555377 0.330913
vt 0.66228 0.03976
vt 0.772954 0.03976
vt -1.027858 0.642182
vt -0.651098 1.007433
vt -0.784137 1.007433
vt -0.784137 -0.566577
vt -0.651098 -0.566577
vt -0.407377 -0.201327
vt 0.03532 -1.44277
vt -0.021479 -0.88265
vt -0.107149 -0.88265
vt -0.289566 -0.928159
vt -0.666326 -1.293409
vt -0.533287 -1.293409
vt 0.895194 -1.066486
vt 0.980865 -1.066486
vt 0.838395 -0.506365
vt 0.577983 -1.966238
vt 0.64626 -1.320083
vt 0.560589 -1.320083
vt 0.560589 -1.242686
vt 0.64626 -1.242686
vt 0.50379 -0.682565
vt 0.805384 0.312478
vt 0.698481 0.603631
vt 0.587806 0.603631
vt -0.953384 0.339547
vt -0.576624 0.704798
vt -0.709663 0.704798
vt 0.092129 1.341717
vt 0.050136 1.666315
vt 0.00802 1.378811
vt -0.021479 -0.970097
vt -0.038872 -0.323942
vt -0.107149 -0.970097
vt 0.206767 -1.787918
vt 0.275043 -1.141764
vt 0.189373 -1.141764
vt 0.127165 1.58089
vt 0.698481 0.502473
vt 0.480903 0.793626
vt 0.587806 0.502473
vt -0.709663 0.176913
vt -0.576624 0.176913
vt -0.332903 0.542164
vt 0.222453 -0.186857
vt 0.136782 -0.186857
vt 0.279252 -0.746977
vt 0.189373 -1.047394
vt 0.275043 -1.047394
vt 0.132574 -0.487273
vt 0.55858 0.446776
vt 0.451677 0.737929
vt 0.341002 0.737929
vt -0.70658 0.160408
vt -0.32982 0.525659
vt -0.462859 0.525659
vt 0.205059 0.37591
vt 0.136782 -0.270245
vt 0.222453 -0.270245
vt 0.085457 1.090034
vt 0.026624 0.779308
vt 0.107606 0.842993
vt -0.118987 -0.590736
vt -0.101594 -1.236891
vt -0.033317 -0.590736
vt 0.451677 0.921227
vt 0.234099 1.21238
vt 0.341002 0.921227
vt -0.462859 0.796908
vt -0.32982 0.796908
vt -0.086099 1.162159
vt 0 1.076269
vt 0.29318 0.674549
vt 0.207509 0.674549
vt 0.349979 0.114428
vt -0.175786 0.065697
vt -0.118987 -0.494424
vt -0.033317 -0.494424
vt 0.205578 0.663142
vt 0.098674 0.954296
vt -0.012 0.954296
vt 0.023182 0.577079
vt -0.109857 0.577079
vt -0.353577 0.211829
vt 0.157064 0.61743
vt 0.174308 0.281316
vt 0.230463 0.428716
vt -0.281866 0.218739
vt -0.264473 -0.427416
vt -0.196196 0.218739
vt 0.086077 0.508164
vn 0.6227360934038823 0.03332100499780094 0.7817221172501183
vn 0.4833778594153706 0.23808593075557383 0.842413754994104
vn 0.8876027116560928 -0.37666787763682347 0.2651089138775275
vn -0.8876027116560928 0.37666787763682347 -0.2651089138775275
vn -0.4833778594153706 -0.23808593075557383 -0.842413754994104
vn -0.6227360934038823 -0.03332100499780094 -0.7817221172501183
vn 0 0.446885965527888 0.8945909309926002
vn 0 -0.446885965527888 -0.8945909309926002
vn -1 0 0
vn 1 0 0
vn 0.6227363007443418 0.4197182026987575 0.6603303189000014
vn 0.8876026832439496 -0.19364993089274268 0.41792485085643877
vn 0.8984242649484991 -0.28783908488476634 0.3316360978006603
vn -0.8984242649484991 0.28783908488476634 -0.3316360978006603
vn -0.8876026832439496 0.19364993089274268 -0.41792485085643877
vn -0.6227363007443418 -0.4197182026987575 -0.6603303189000014
vn 0.8984241839936978 -0.4150940850096172 0.14328602934440857
vn -0.8984241839936978 0.4150940850096172 -0.14328602934440857
vn 0.22413993330168142 0.19502994196407092 0.9548427158631986
vn -0.22413993330168142 -0.19502994196407092 -0.9548427158631986
vn 0 0.8343102698472714 0.5512951783095632
vn 0.22413989954746802 0.646322710338262 0.7294026731044068
vn -0.22413989954746802 -0.646322710338262 -0.7294026731044068
vn 0 -0.8343102698472714 -0.5512951783095632
vn 0.629683956034838 -0.5152049640278754 -0.5814309594039105
vn -0.629683956034838 0.5152049640278754 0.5814309594039105
vn -0.6296839560348382 -0.5152049640278752 -0.5814309594039105
vn 0.6296839560348382 0.5152049640278752 0.5814309594039105
vn 0.48337799613539306 0.6273949949839769 0.6105089951189807
vn -0.48337799613539306 -0.6273949949839769 -0.6105089951189807
vn -0.6296842151703745 -0.15546505312420528 -0.7611362600890577
vn 0.6296842151703745 0.15546505312420528 0.7611362600890577
vn -0.8621939520615864 0.5053169719041247 -0.035725998013616596
vn 0.8621939520615864 -0.5053169719041247 0.035725998013616596
vn -0.898424114888237 0.3638650465301557 -0.2458380314371548
vn 0.898424114888237 -0.3638650465301557 0.2458380314371548
vn -0.8621937502807048 0.419754878425363 -0.2835979178608379
vn 0.8621937502807048 -0.419754878425363 0.2835979178608379
vn 0.6296840908530309 -0.736896106321957 -0.24593103548379328
vn -0.6296840908530309 0.736896106321957 0.24593103548379328
vn 0.6227359630045031 0.6936519587915254 0.3620039784940684
vn 0.8876025358998271 0.04125697842798966 0.4587587601290991
vn 0.898424140529269 -0.08345801305429508 0.4311250674355105
vn -0.898424140529269 0.08345801305429508 -0.4311250674355105
vn -0.8876025358998271 -0.04125697842798966 -0.4587587601290991
vn -0.6227359630045031 -0.6936519587915254 -0.3620039784940684
vn -0.8984238058483905 0.19219795846554547 -0.39483491467519705
vn 0.8984238058483905 -0.19219795846554547 0.39483491467519705
vn 0.22414003345413547 0.9244331379767404 0.30852004604831745
vn 0 0.9981815054987069 0.06028003052699087
vn 0 -0.9981815054987069 -0.06028003052699087
vn -0.22414003345413547 -0.9244331379767404 -0.30852004604831745
vn -0.6296840908530311 -0.7368961063219568 -0.24593103548379328
vn 0.6296840908530311 0.7368961063219568 0.24593103548379328
vn 0.48337787789078784 0.8485947856309822 0.21501794568292615
vn -0.48337787789078784 -0.8485947856309822 -0.21501794568292615
vn -0.8621936766955379 0.22171891686007816 -0.4554808292042861
vn 0.8621936766955379 -0.22171891686007816 0.4554808292042861
vn 0.6296842151703743 -0.7611362600890578 0.15546505312420542
vn -0.6296842151703743 0.7611362600890578 -0.15546505312420542
vn 0.8876027116560928 0.26510891387752716 0.3766678776368232
vn 0.8984241839936981 0.1432860293444084 0.41509408500961703
vn 0.6227360934038825 0.7817221172501182 -0.03332100499780108
vn -0.6227360934038825 -0.7817221172501182 0.03332100499780108
vn -0.8984241839936981 -0.1432860293444084 -0.41509408500961703
vn -0.8876027116560928 -0.26510891387752716 -0.3766678776368232
vn -0.8984238652216063 -0.030968995354139762 -0.4380359342873872
vn 0.8984238652216063 0.030968995354139762 0.4380359342873872
vn 0.22413993330168158 0.9548427158631986 -0.19502994196407097
vn 0 0.8945909309926002 -0.446885965527888
vn 0 -0.8945909309926002 0.446885965527888
vn -0.22413993330168158 -0.9548427158631986 0.19502994196407097
vn -0.6296842151703745 -0.7611362600890573 0.15546505312420536
vn 0.6296842151703745 0.7611362600890573 -0.15546505312420536
vn 0.4833778594153707 0.8424137549941039 -0.23808593075557394
vn -0.4833778594153707 -0.8424137549941039 0.23808593075557394
vn -0.8621939520615866 -0.0357259980136164 -0.5053169719041245
vn 0.8621939520615866 0.0357259980136164 0.5053169719041245
vn 0.629683956034838 -0.5814309594039107 0.5152049640278753
vn -0.629683956034838 0.5814309594039107 -0.5152049640278753
vn -0.8984241148882371 -0.2458380314371546 -0.3638650465301555
vn 0.8984241148882371 0.2458380314371546 0.3638650465301555
usemtl material_0_0
f 1/1/1 2/2/2 3/3/3
f 3/3/4 2/2/5 1/1/6
f 2/4/2 1/5/1 4/6/7
f 4/6/8 1/5/6 2/4/5
f 2/7/9 5/8/9 3/9/9
f 3/9/10 5/8/10 2/7/10
f 2/10/11 6/11/12 3/12/13
f 3/12/14 6/11/15 2/10/16
f 1/13/1 3/14/3 7/15/17
f 7/15/18 3/14/4 1/13/6
f 4/16/7 1/17/1 8/18/19
f 8/18/20 1/17/6 4/16/8
f 5/8/9 2/7/9 4/19/9
f 4/19/10 2/7/10 5/8/10
f 9/20/21 2/21/11 4/22/22
f 4/22/23 2/21/16 9/20/24
f 10/23/8 3/24/8 5/25/25
f 5/25/26 3/24/7 10/23/7
f 5/26/24 3/27/27 6/28/24
f 6/28/21 3/27/28 5/26/21
f 2/29/11 11/30/29 6/31/12
f 6/31/15 11/30/30 2/29/16
f 3/32/8 10/33/8 7/34/31
f 7/34/32 10/33/7 3/32/7
f 8/35/33 10/36/33 4/37/33
f 4/37/34 10/36/34 8/35/34
f 10/38/35 5/39/35 4/40/35
f 4/40/36 5/39/36 10/38/36
f 4/41/37 5/42/37 9/43/37
f 9/43/38 5/42/38 4/41/38
f 2/44/11 9/45/21 11/46/29
f 11/46/30 9/45/24 2/44/16
f 5/47/24 6/48/24 12/49/39
f 12/49/40 6/48/21 5/47/21
f 11/50/9 12/51/9 6/52/9
f 6/52/10 12/51/10 11/50/10
f 11/53/41 13/54/42 6/55/43
f 6/55/44 13/54/45 11/53/46
f 5/56/47 12/57/47 9/58/47
f 9/58/48 12/57/48 5/56/48
f 12/51/9 11/50/9 9/59/9
f 9/59/10 11/50/10 12/51/10
f 9/60/49 14/61/50 11/62/41
f 11/62/46 14/61/51 9/60/52
f 12/63/51 6/64/53 13/65/51
f 13/65/50 6/64/54 12/63/50
f 15/66/55 13/67/42 11/68/41
f 11/68/46 13/67/45 15/66/56
f 9/69/57 12/70/57 14/71/57
f 14/71/58 12/70/58 9/69/58
f 11/72/41 14/73/50 15/74/55
f 15/74/56 14/73/51 11/72/46
f 12/75/51 13/76/51 16/77/59
f 16/77/60 13/76/50 12/75/50
f 17/78/61 13/79/62 15/80/63
f 15/80/64 13/79/65 17/78/66
f 14/81/9 13/82/9 15/83/9
f 15/83/10 13/82/10 14/81/10
f 14/84/67 12/85/67 16/86/67
f 16/86/68 12/85/68 14/84/68
f 14/87/69 18/88/70 15/89/63
f 15/89/64 18/88/71 14/87/72
f 16/90/71 13/91/73 17/92/71
f 17/92/70 13/91/74 16/90/70
f 13/82/9 14/81/9 16/93/9
f 16/93/10 14/81/10 13/82/10
f 19/94/75 17/95/61 15/96/63
f 15/96/64 17/95/66 19/94/76
f 18/97/77 14/98/77 16/99/77
f 16/99/78 14/98/78 18/97/78
f 15/100/63 18/101/70 19/102/75
f 19/102/76 18/101/71 15/100/64
f 17/103/71 20/104/79 16/105/71
f 16/105/70 20/104/80 17/103/70
f 18/106/9 17/107/9 19/108/9
f 19/108/10 17/107/10 18/106/10
f 18/109/81 16/110/81 20/111/81
f 20/111/82 16/110/82 18/109/82
f 17/107/9 18/106/9 20/112/9
f 20/112/10 18/106/10 17/107/10
