# SSTK version 0.8.0
# 86
mtllib original-86.mtl
o #ID490
v -0.265845 -0.165104 0.418344
v -0.259205 -0.165104 0.411625
v -0.262967 -0.165104 0.414548
v -0.267642 -0.165104 0.422756
v -0.254814 -0.165104 0.409776
v -0.268236 -0.165104 0.427483
v -0.250094 -0.165104 0.409127
v -0.267587 -0.165104 0.432203
v -0.245367 -0.165104 0.409721
v -0.265738 -0.165104 0.436594
v -0.240955 -0.165104 0.411518
v -0.262815 -0.165104 0.440356
v -0.237159 -0.165104 0.414396
v -0.259019 -0.165104 0.443234
v -0.234236 -0.165104 0.418159
v -0.254607 -0.165104 0.445031
v -0.232387 -0.165104 0.422549
v -0.249880 -0.165104 0.445625
v -0.231738 -0.165104 0.427269
v -0.245160 -0.165104 0.444976
v -0.232332 -0.165104 0.431996
v -0.240769 -0.165104 0.443127
v -0.234129 -0.165104 0.436408
v -0.237007 -0.165104 0.440204
v -0.237007 -0.165104 0.440204
v -0.240769 -0.165104 0.443127
v -0.234129 -0.165104 0.436408
v -0.232332 -0.165104 0.431996
v -0.245160 -0.165104 0.444976
v -0.231738 -0.165104 0.427269
v -0.249880 -0.165104 0.445625
v -0.232387 -0.165104 0.422549
v -0.254607 -0.165104 0.445031
v -0.234236 -0.165104 0.418159
v -0.259019 -0.165104 0.443234
v -0.237159 -0.165104 0.414396
v -0.262815 -0.165104 0.440356
v -0.240955 -0.165104 0.411518
v -0.265738 -0.165104 0.436594
v -0.245367 -0.165104 0.409721
v -0.267587 -0.165104 0.432203
v -0.250094 -0.165104 0.409127
v -0.268236 -0.165104 0.427483
v -0.254814 -0.165104 0.409776
v -0.267642 -0.165104 0.422756
v -0.259205 -0.165104 0.411625
v -0.265845 -0.165104 0.418344
v -0.262967 -0.165104 0.414548
vn 0 1 0
vn 0 -1 0
usemtl material_0_0
f 25//2 26//2 27//2
f 27//2 26//2 28//2
f 26//2 29//2 28//2
f 28//2 29//2 30//2
f 29//2 31//2 30//2
f 30//2 31//2 32//2
f 31//2 33//2 32//2
f 32//2 33//2 34//2
f 33//2 35//2 34//2
f 34//2 35//2 36//2
f 35//2 37//2 36//2
f 36//2 37//2 38//2
f 37//2 39//2 38//2
f 38//2 39//2 40//2
f 39//2 41//2 40//2
f 40//2 41//2 42//2
f 41//2 43//2 42//2
f 42//2 43//2 44//2
f 43//2 45//2 44//2
f 44//2 45//2 46//2
f 45//2 47//2 46//2
f 48//2 46//2 47//2
usemtl material_1_0
f 1//1 2//1 3//1
f 2//1 1//1 4//1
f 2//1 4//1 5//1
f 5//1 4//1 6//1
f 5//1 6//1 7//1
f 7//1 6//1 8//1
f 7//1 8//1 9//1
f 9//1 8//1 10//1
f 9//1 10//1 11//1
f 11//1 10//1 12//1
f 11//1 12//1 13//1
f 13//1 12//1 14//1
f 13//1 14//1 15//1
f 15//1 14//1 16//1
f 15//1 16//1 17//1
f 17//1 16//1 18//1
f 17//1 18//1 19//1
f 19//1 18//1 20//1
f 19//1 20//1 21//1
f 21//1 20//1 22//1
f 21//1 22//1 23//1
f 23//1 22//1 24//1
