# SSTK version 0.8.0
# 81
mtllib original-81.mtl
o Group5/mesh34/mesh34-geometry/material_2#mesh34-geometry
v -0.486829 0.372286 -0.239167
v -0.486829 0.372286 -0.324839
v -0.482697 0.372600 -0.216890
v -0.492778 0.371840 -0.270567
v -0.486829 0.372286 -0.239167
v -0.497902 0.371443 -0.254504
v -0.486829 0.372286 -0.324839
v -0.472286 0.373377 -0.335284
v -0.482697 0.372600 -0.216890
v -0.486829 0.372286 -0.308511
v -0.486829 0.372286 -0.324839
v -0.486829 0.372286 -0.239167
v -0.492778 0.371840 -0.270567
v -0.486829 0.372286 -0.308511
v -0.486829 0.372286 -0.239167
v -0.482697 0.372600 -0.216890
v -0.472286 0.373377 -0.335284
v -0.468353 0.373674 -0.210346
v -0.499455 0.371327 -0.290266
v -0.486829 0.372286 -0.308511
v -0.492778 0.371840 -0.270567
v -0.472286 0.373377 -0.335284
v -0.465114 0.373922 -0.352074
v -0.468353 0.373674 -0.210346
v -0.468353 0.373674 -0.210346
v -0.465114 0.373922 -0.352074
v -0.461511 0.374186 -0.193026
v -0.465114 0.373922 -0.352074
v -0.454041 0.374748 -0.352868
v -0.461511 0.374186 -0.193026
v -0.461511 0.374186 -0.193026
v -0.454041 0.374748 -0.352868
v -0.447067 0.375277 -0.192563
v -0.454041 0.374748 -0.352868
v -0.446009 0.375360 -0.365427
v -0.447067 0.375277 -0.192563
v -0.447067 0.375277 -0.192563
v -0.446009 0.375360 -0.365427
v -0.432821 0.376351 -0.177359
v -0.446009 0.375360 -0.365427
v -0.424426 0.376979 -0.366948
v -0.432821 0.376351 -0.177359
v -0.432821 0.376351 -0.177359
v -0.424426 0.376979 -0.366948
v -0.411073 0.377987 -0.178417
v -0.424426 0.376979 -0.366948
v -0.408098 0.378219 -0.378318
v -0.411073 0.377987 -0.178417
v -0.411073 0.377987 -0.178417
v -0.408098 0.378219 -0.378318
v -0.400661 0.378781 -0.171145
v -0.408098 0.378219 -0.378318
v -0.389424 0.379623 -0.370848
v -0.400661 0.378781 -0.171145
v -0.400661 0.378781 -0.171145
v -0.389424 0.379623 -0.370848
v -0.379574 0.380367 -0.179475
v -0.379574 0.380367 -0.179475
v -0.389424 0.379623 -0.370848
v -0.372864 0.380863 -0.181127
v -0.389424 0.379623 -0.370848
v -0.368501 0.381193 -0.374219
v -0.372864 0.380863 -0.181127
v -0.372864 0.380863 -0.181127
v -0.368501 0.381193 -0.374219
v -0.358586 0.381937 -0.177359
v -0.368501 0.381193 -0.374219
v -0.357660 0.382020 -0.363643
v -0.358586 0.381937 -0.177359
v -0.358586 0.381937 -0.177359
v -0.357660 0.382020 -0.363643
v -0.345761 0.382912 -0.192563
v -0.357660 0.382020 -0.363643
v -0.337663 0.383524 -0.359875
v -0.345761 0.382912 -0.192563
v -0.337663 0.383524 -0.359875
v -0.336011 0.383639 -0.350554
v -0.345761 0.382912 -0.192563
v -0.345761 0.382912 -0.192563
v -0.336011 0.383639 -0.350554
v -0.328508 0.384201 -0.196596
v -0.328508 0.384201 -0.196596
v -0.336011 0.383639 -0.350554
v -0.325864 0.384416 -0.339977
v -0.328508 0.384201 -0.196596
v -0.325864 0.384416 -0.339977
v -0.320774 0.384796 -0.213849
v -0.324575 0.384499 -0.348901
v -0.325864 0.384416 -0.339977
v -0.336011 0.383639 -0.350554
v -0.320774 0.384796 -0.213849
v -0.325864 0.384416 -0.339977
v -0.312709 0.385408 -0.321798
v -0.320774 0.384796 -0.213849
v -0.312709 0.385408 -0.321798
v -0.305867 0.385920 -0.224889
v -0.312709 0.385408 -0.336474
v -0.312709 0.385408 -0.321798
v -0.325864 0.384416 -0.339977
v -0.305867 0.385920 -0.224889
v -0.312709 0.385408 -0.321798
v -0.305867 0.385920 -0.242010
v -0.305867 0.385920 -0.242010
v -0.312709 0.385408 -0.321798
v -0.303190 0.386118 -0.297670
v -0.299587 0.386383 -0.312610
v -0.303190 0.386118 -0.297670
v -0.312709 0.385408 -0.321798
v -0.303190 0.386118 -0.297670
v -0.300479 0.386317 -0.268452
v -0.305867 0.385920 -0.242010
v -0.295257 0.386713 -0.253115
v -0.305867 0.385920 -0.242010
v -0.300479 0.386317 -0.268452
v -0.293076 0.386878 -0.286168
v -0.300479 0.386317 -0.268452
v -0.303190 0.386118 -0.297670
v -0.482697 0.372600 -0.216890
v -0.486829 0.372286 -0.324839
v -0.486829 0.372286 -0.239167
v -0.497902 0.371443 -0.254504
v -0.486829 0.372286 -0.239167
v -0.492778 0.371840 -0.270567
v -0.482697 0.372600 -0.216890
v -0.472286 0.373377 -0.335284
v -0.486829 0.372286 -0.324839
v -0.486829 0.372286 -0.239167
v -0.486829 0.372286 -0.324839
v -0.486829 0.372286 -0.308511
v -0.486829 0.372286 -0.239167
v -0.486829 0.372286 -0.308511
v -0.492778 0.371840 -0.270567
v -0.468353 0.373674 -0.210346
v -0.472286 0.373377 -0.335284
v -0.482697 0.372600 -0.216890
v -0.492778 0.371840 -0.270567
v -0.486829 0.372286 -0.308511
v -0.499455 0.371327 -0.290266
v -0.468353 0.373674 -0.210346
v -0.465114 0.373922 -0.352074
v -0.472286 0.373377 -0.335284
v -0.461511 0.374186 -0.193026
v -0.465114 0.373922 -0.352074
v -0.468353 0.373674 -0.210346
v -0.461511 0.374186 -0.193026
v -0.454041 0.374748 -0.352868
v -0.465114 0.373922 -0.352074
v -0.447067 0.375277 -0.192563
v -0.454041 0.374748 -0.352868
v -0.461511 0.374186 -0.193026
v -0.447067 0.375277 -0.192563
v -0.446009 0.375360 -0.365427
v -0.454041 0.374748 -0.352868
v -0.432821 0.376351 -0.177359
v -0.446009 0.375360 -0.365427
v -0.447067 0.375277 -0.192563
v -0.432821 0.376351 -0.177359
v -0.424426 0.376979 -0.366948
v -0.446009 0.375360 -0.365427
v -0.411073 0.377987 -0.178417
v -0.424426 0.376979 -0.366948
v -0.432821 0.376351 -0.177359
v -0.411073 0.377987 -0.178417
v -0.408098 0.378219 -0.378318
v -0.424426 0.376979 -0.366948
v -0.400661 0.378781 -0.171145
v -0.408098 0.378219 -0.378318
v -0.411073 0.377987 -0.178417
v -0.400661 0.378781 -0.171145
v -0.389424 0.379623 -0.370848
v -0.408098 0.378219 -0.378318
v -0.379574 0.380367 -0.179475
v -0.389424 0.379623 -0.370848
v -0.400661 0.378781 -0.171145
v -0.372864 0.380863 -0.181127
v -0.389424 0.379623 -0.370848
v -0.379574 0.380367 -0.179475
v -0.372864 0.380863 -0.181127
v -0.368501 0.381193 -0.374219
v -0.389424 0.379623 -0.370848
v -0.358586 0.381937 -0.177359
v -0.368501 0.381193 -0.374219
v -0.372864 0.380863 -0.181127
v -0.358586 0.381937 -0.177359
v -0.357660 0.382020 -0.363643
v -0.368501 0.381193 -0.374219
v -0.345761 0.382912 -0.192563
v -0.357660 0.382020 -0.363643
v -0.358586 0.381937 -0.177359
v -0.345761 0.382912 -0.192563
v -0.337663 0.383524 -0.359875
v -0.357660 0.382020 -0.363643
v -0.345761 0.382912 -0.192563
v -0.336011 0.383639 -0.350554
v -0.337663 0.383524 -0.359875
v -0.328508 0.384201 -0.196596
v -0.336011 0.383639 -0.350554
v -0.345761 0.382912 -0.192563
v -0.325864 0.384416 -0.339977
v -0.336011 0.383639 -0.350554
v -0.328508 0.384201 -0.196596
v -0.320774 0.384796 -0.213849
v -0.325864 0.384416 -0.339977
v -0.328508 0.384201 -0.196596
v -0.336011 0.383639 -0.350554
v -0.325864 0.384416 -0.339977
v -0.324575 0.384499 -0.348901
v -0.312709 0.385408 -0.321798
v -0.325864 0.384416 -0.339977
v -0.320774 0.384796 -0.213849
v -0.305867 0.385920 -0.224889
v -0.312709 0.385408 -0.321798
v -0.320774 0.384796 -0.213849
v -0.325864 0.384416 -0.339977
v -0.312709 0.385408 -0.321798
v -0.312709 0.385408 -0.336474
v -0.305867 0.385920 -0.242010
v -0.312709 0.385408 -0.321798
v -0.305867 0.385920 -0.224889
v -0.303190 0.386118 -0.297670
v -0.312709 0.385408 -0.321798
v -0.305867 0.385920 -0.242010
v -0.312709 0.385408 -0.321798
v -0.303190 0.386118 -0.297670
v -0.299587 0.386383 -0.312610
v -0.305867 0.385920 -0.242010
v -0.300479 0.386317 -0.268452
v -0.303190 0.386118 -0.297670
v -0.300479 0.386317 -0.268452
v -0.305867 0.385920 -0.242010
v -0.295257 0.386713 -0.253115
v -0.303190 0.386118 -0.297670
v -0.300479 0.386317 -0.268452
v -0.293076 0.386878 -0.286168
vt 6.332923889160156 -9.138843536376953
vt 2.432744026184082 -9.138843536376953
vt 7.344274044036865 -8.942651748657227
vt 4.904496192932129 -9.420541763305664
vt 5.6339111328125 -9.664557456970215
vt 1.9589190483093262 -8.448659896850586
vt 3.1779348850250244 -9.138843536376953
vt 7.641942024230957 -8.26124382019043
vt 4.008118152618408 -9.738336563110352
vt 1.1953810453414917 -8.107617378234863
vt 8.431459426879883 -7.938037872314453
vt 1.1584980487823486 -7.582802772521973
vt 8.452156066894531 -7.252273082733154
vt 0.5876830220222473 -7.202200889587402
vt 9.143989562988281 -6.576859951019287
vt 0.5170869827270508 -6.178349018096924
vt 9.094654083251953 -5.544416904449463
vt 0 -5.402550220489502
vt 9.427206039428711 -5.05075216293335
vt 0.3399690091609955 -4.516880035400391
vt 9.047396659851074 -4.048858165740967
vt 8.972061157226562 -3.7316160202026367
vt 0.18830600380897522 -3.5236589908599854
vt 9.143989562988281 -3.053934097290039
vt 0.6674479842185974 -3.0102078914642334
vt 8.452156066894531 -2.445080041885376
vt 0.8411369919776917 -2.0609629154205322
vt 1.2644699811935425 -1.9820339679718018
vt 8.269596099853516 -1.6264640092849731
vt 1.745257019996643 -1.5013140439987183
vt 7.482379913330078 -1.2598060369491577
vt 1.3402520418167114 -1.4400620460510254
vt 2.572964906692505 -0.8766610026359558
vt 6.979884147644043 -0.5516149997711182
vt 1.9037319421768188 -0.8766610026359558
vt 6.203484058380127 -0.5516149997711182
vt 3.6689870357513428 -0.42563000321388245
vt 2.989593029022217 -0.2539590001106262
vt 4.998013973236084 -0.2973639965057373
vt 5.697470188140869 -0.049605999141931534
vt 4.193421840667725 0.05524199828505516
vt -0.18196499347686768 -0.7427440285682678
vt -0.17794600129127502 -0.8343070149421692
vt -0.17794600129127502 -0.7615979909896851
vt -0.1671759933233261 -0.7746300101280212
vt -0.17217500507831573 -0.7882279753684998
vt -0.19208499789237976 -0.8431400060653687
vt -0.17794600129127502 -0.8204150199890137
vt -0.19592399895191193 -0.7371950149536133
vt -0.16566500067710876 -0.804938018321991
vt -0.199072003364563 -0.8573740124702454
vt -0.20254600048065186 -0.7224770188331604
vt -0.20982299745082855 -0.8580620288848877
vt -0.21659399569034576 -0.722091019153595
vt -0.21762000024318695 -0.8687030076980591
vt -0.23043100535869598 -0.7091929912567139
vt -0.23859499394893646 -0.8700199723243713
vt -0.25158199667930603 -0.710112988948822
vt -0.2544879913330078 -0.8796589970588684
vt -0.261694997549057 -0.7039139866828918
vt -0.27263200283050537 -0.873320996761322
vt -0.2822200059890747 -0.7109940052032471
vt -0.2887189984321594 -0.7123990058898926
vt -0.29297900199890137 -0.8761489987373352
vt -0.30260199308395386 -0.7091929912567139
vt -0.3034979999065399 -0.8672159910202026
vt -0.31507501006126404 -0.722091019153595
vt -0.3229439854621887 -0.8639780282974243
vt -0.3245609998703003 -0.8560870289802551
vt -0.3318449854850769 -0.7254940271377563
vt -0.3344089984893799 -0.8471230268478394
vt -0.3393569886684418 -0.7401700019836426
vt -0.3356640040874481 -0.8546739816665649
vt -0.3472059965133667 -0.8316929936408997
vt -0.35386499762535095 -0.749538004398346
vt -0.3472059965133667 -0.844169020652771
vt -0.35386499762535095 -0.764011025428772
vt -0.3564459979534149 -0.811260998249054
vt -0.35996299982070923 -0.8239259719848633
vt -0.3590739965438843 -0.7864840030670166
vt -0.3641490042209625 -0.7734450101852417
vt -0.36629700660705566 -0.8014839887619019
vn 0.07510397683074073 -0.9971757080195083 0
vn -0.07510397683074073 0.9971757080195083 0
usemtl material_0_0
f 1/1/1 2/2/1 3/3/1
f 4/4/1 5/1/1 6/5/1
f 7/2/1 8/6/1 9/3/1
f 10/7/1 11/2/1 12/1/1
f 13/4/1 14/7/1 15/1/1
f 16/3/1 17/6/1 18/8/1
f 19/9/1 20/7/1 21/4/1
f 22/6/1 23/10/1 24/8/1
f 25/8/1 26/10/1 27/11/1
f 28/10/1 29/12/1 30/11/1
f 31/11/1 32/12/1 33/13/1
f 34/12/1 35/14/1 36/13/1
f 37/13/1 38/14/1 39/15/1
f 40/14/1 41/16/1 42/15/1
f 43/15/1 44/16/1 45/17/1
f 46/16/1 47/18/1 48/17/1
f 49/17/1 50/18/1 51/19/1
f 52/18/1 53/20/1 54/19/1
f 55/19/1 56/20/1 57/21/1
f 58/21/1 59/20/1 60/22/1
f 61/20/1 62/23/1 63/22/1
f 64/22/1 65/23/1 66/24/1
f 67/23/1 68/25/1 69/24/1
f 70/24/1 71/25/1 72/26/1
f 73/25/1 74/27/1 75/26/1
f 76/27/1 77/28/1 78/26/1
f 79/26/1 80/28/1 81/29/1
f 82/29/1 83/28/1 84/30/1
f 85/29/1 86/30/1 87/31/1
f 88/32/1 89/30/1 90/28/1
f 91/31/1 92/30/1 93/33/1
f 94/31/1 95/33/1 96/34/1
f 97/35/1 98/33/1 99/30/1
f 100/34/1 101/33/1 102/36/1
f 103/36/1 104/33/1 105/37/1
f 106/38/1 107/37/1 108/33/1
f 109/37/1 110/39/1 111/36/1
f 112/40/1 113/36/1 114/39/1
f 115/41/1 116/39/1 117/37/1
usemtl material_1_0
f 118/42/2 119/43/2 120/44/2
f 121/45/2 122/44/2 123/46/2
f 124/42/2 125/47/2 126/43/2
f 127/44/2 128/43/2 129/48/2
f 130/44/2 131/48/2 132/46/2
f 133/49/2 134/47/2 135/42/2
f 136/46/2 137/48/2 138/50/2
f 139/49/2 140/51/2 141/47/2
f 142/52/2 143/51/2 144/49/2
f 145/52/2 146/53/2 147/51/2
f 148/54/2 149/53/2 150/52/2
f 151/54/2 152/55/2 153/53/2
f 154/56/2 155/55/2 156/54/2
f 157/56/2 158/57/2 159/55/2
f 160/58/2 161/57/2 162/56/2
f 163/58/2 164/59/2 165/57/2
f 166/60/2 167/59/2 168/58/2
f 169/60/2 170/61/2 171/59/2
f 172/62/2 173/61/2 174/60/2
f 175/63/2 176/61/2 177/62/2
f 178/63/2 179/64/2 180/61/2
f 181/65/2 182/64/2 183/63/2
f 184/65/2 185/66/2 186/64/2
f 187/67/2 188/66/2 189/65/2
f 190/67/2 191/68/2 192/66/2
f 193/67/2 194/69/2 195/68/2
f 196/70/2 197/69/2 198/67/2
f 199/71/2 200/69/2 201/70/2
f 202/72/2 203/71/2 204/70/2
f 205/69/2 206/71/2 207/73/2
f 208/74/2 209/71/2 210/72/2
f 211/75/2 212/74/2 213/72/2
f 214/71/2 215/74/2 216/76/2
f 217/77/2 218/74/2 219/75/2
f 220/78/2 221/74/2 222/77/2
f 223/74/2 224/78/2 225/79/2
f 226/77/2 227/80/2 228/78/2
f 229/80/2 230/77/2 231/81/2
f 232/78/2 233/80/2 234/82/2
