# SSTK version 0.8.0
# 199
mtllib original-199.mtl
o Group9/mesh100/mesh100-geometry/material_1/component_7#mesh100-geometry
v 0.090068 0.321897 0.844688
v 0.133135 0.321666 0.844688
v 0.090167 0.315816 0.844555
v 0.091952 0.309999 0.844489
v 0.090167 0.315816 0.844555
v 0.133135 0.321666 0.844688
v 0.090167 0.315816 0.844555
v 0.090167 0.315221 0.877211
v 0.090068 0.321897 0.844688
v 0.090068 0.321302 0.877343
v 0.090068 0.321897 0.844688
v 0.090167 0.315221 0.877211
v 0.091952 0.309999 0.844489
v 0.091952 0.309404 0.877145
v 0.090167 0.315816 0.844555
v 0.095290 0.304908 0.844357
v 0.091952 0.309999 0.844489
v 0.133135 0.321666 0.844688
v 0.090167 0.315221 0.877211
v 0.090167 0.315816 0.844555
v 0.091952 0.309404 0.877145
v 0.133135 0.321666 0.844688
v 0.133135 0.321055 0.877343
v 0.132970 0.315584 0.844555
v 0.091952 0.309404 0.877145
v 0.091952 0.309999 0.844489
v 0.095290 0.304297 0.877013
v 0.095290 0.304908 0.844357
v 0.095290 0.304297 0.877013
v 0.091952 0.309999 0.844489
v 0.099918 0.300942 0.844291
v 0.095290 0.304908 0.844357
v 0.133135 0.321666 0.844688
v 0.132970 0.314973 0.877211
v 0.132970 0.315584 0.844555
v 0.133135 0.321055 0.877343
v 0.132970 0.315584 0.844555
v 0.131119 0.309784 0.844489
v 0.133135 0.321666 0.844688
v 0.095290 0.304908 0.844357
v 0.099918 0.300942 0.844291
v 0.095290 0.304297 0.877013
v 0.105437 0.298414 0.844225
v 0.099918 0.300942 0.844291
v 0.133135 0.321666 0.844688
v 0.132970 0.315584 0.844555
v 0.132970 0.314973 0.877211
v 0.131119 0.309784 0.844489
v 0.131119 0.309784 0.844489
v 0.127715 0.304727 0.844357
v 0.133135 0.321666 0.844688
v 0.099918 0.300331 0.876947
v 0.095290 0.304297 0.877013
v 0.099918 0.300942 0.844291
v 0.099918 0.300942 0.844291
v 0.105437 0.298414 0.844225
v 0.099918 0.300331 0.876947
v 0.111453 0.297521 0.844225
v 0.105437 0.298414 0.844225
v 0.133135 0.321666 0.844688
v 0.131119 0.309172 0.877145
v 0.131119 0.309784 0.844489
v 0.132970 0.314973 0.877211
v 0.127715 0.304727 0.844357
v 0.123054 0.300810 0.844291
v 0.133135 0.321666 0.844688
v 0.131119 0.309784 0.844489
v 0.131119 0.309172 0.877145
v 0.127715 0.304727 0.844357
v 0.105437 0.297802 0.876947
v 0.099918 0.300331 0.876947
v 0.105437 0.298414 0.844225
v 0.105437 0.298414 0.844225
v 0.111453 0.297521 0.844225
v 0.105437 0.297802 0.876947
v 0.117501 0.298348 0.844225
v 0.111453 0.297521 0.844225
v 0.133135 0.321666 0.844688
v 0.123054 0.300810 0.844291
v 0.117501 0.298348 0.844225
v 0.133135 0.321666 0.844688
v 0.123054 0.300810 0.844291
v 0.127715 0.304727 0.844357
v 0.123054 0.300215 0.876947
v 0.127715 0.304115 0.877013
v 0.127715 0.304727 0.844357
v 0.131119 0.309172 0.877145
v 0.111453 0.296926 0.876881
v 0.105437 0.297802 0.876947
v 0.111453 0.297521 0.844225
v 0.111453 0.297521 0.844225
v 0.117501 0.298348 0.844225
v 0.111453 0.296926 0.876881
v 0.117501 0.298348 0.844225
v 0.123054 0.300810 0.844291
v 0.117501 0.297736 0.876947
v 0.127715 0.304115 0.877013
v 0.123054 0.300215 0.876947
v 0.127715 0.304727 0.844357
v 0.123054 0.300215 0.876947
v 0.117501 0.297736 0.876947
v 0.123054 0.300810 0.844291
v 0.117501 0.297736 0.876947
v 0.111453 0.296926 0.876881
v 0.117501 0.298348 0.844225
v 0.090167 0.315816 0.844555
v 0.133135 0.321666 0.844688
v 0.090068 0.321897 0.844688
v 0.133135 0.321666 0.844688
v 0.090167 0.315816 0.844555
v 0.091952 0.309999 0.844489
v 0.090068 0.321897 0.844688
v 0.090167 0.315221 0.877211
v 0.090167 0.315816 0.844555
v 0.090167 0.315221 0.877211
v 0.090068 0.321897 0.844688
v 0.090068 0.321302 0.877343
v 0.090167 0.315816 0.844555
v 0.091952 0.309404 0.877145
v 0.091952 0.309999 0.844489
v 0.133135 0.321666 0.844688
v 0.091952 0.309999 0.844489
v 0.095290 0.304908 0.844357
v 0.091952 0.309404 0.877145
v 0.090167 0.315816 0.844555
v 0.090167 0.315221 0.877211
v 0.132970 0.315584 0.844555
v 0.133135 0.321055 0.877343
v 0.133135 0.321666 0.844688
v 0.095290 0.304297 0.877013
v 0.091952 0.309999 0.844489
v 0.091952 0.309404 0.877145
v 0.091952 0.309999 0.844489
v 0.095290 0.304297 0.877013
v 0.095290 0.304908 0.844357
v 0.133135 0.321666 0.844688
v 0.095290 0.304908 0.844357
v 0.099918 0.300942 0.844291
v 0.133135 0.321055 0.877343
v 0.132970 0.315584 0.844555
v 0.132970 0.314973 0.877211
v 0.133135 0.321666 0.844688
v 0.131119 0.309784 0.844489
v 0.132970 0.315584 0.844555
v 0.095290 0.304297 0.877013
v 0.099918 0.300942 0.844291
v 0.095290 0.304908 0.844357
v 0.133135 0.321666 0.844688
v 0.099918 0.300942 0.844291
v 0.105437 0.298414 0.844225
v 0.131119 0.309784 0.844489
v 0.132970 0.314973 0.877211
v 0.132970 0.315584 0.844555
v 0.133135 0.321666 0.844688
v 0.127715 0.304727 0.844357
v 0.131119 0.309784 0.844489
v 0.099918 0.300942 0.844291
v 0.095290 0.304297 0.877013
v 0.099918 0.300331 0.876947
v 0.099918 0.300331 0.876947
v 0.105437 0.298414 0.844225
v 0.099918 0.300942 0.844291
v 0.133135 0.321666 0.844688
v 0.105437 0.298414 0.844225
v 0.111453 0.297521 0.844225
v 0.132970 0.314973 0.877211
v 0.131119 0.309784 0.844489
v 0.131119 0.309172 0.877145
v 0.133135 0.321666 0.844688
v 0.123054 0.300810 0.844291
v 0.127715 0.304727 0.844357
v 0.127715 0.304727 0.844357
v 0.131119 0.309172 0.877145
v 0.131119 0.309784 0.844489
v 0.105437 0.298414 0.844225
v 0.099918 0.300331 0.876947
v 0.105437 0.297802 0.876947
v 0.105437 0.297802 0.876947
v 0.111453 0.297521 0.844225
v 0.105437 0.298414 0.844225
v 0.133135 0.321666 0.844688
v 0.111453 0.297521 0.844225
v 0.117501 0.298348 0.844225
v 0.133135 0.321666 0.844688
v 0.117501 0.298348 0.844225
v 0.123054 0.300810 0.844291
v 0.123054 0.300215 0.876947
v 0.127715 0.304727 0.844357
v 0.123054 0.300810 0.844291
v 0.131119 0.309172 0.877145
v 0.127715 0.304727 0.844357
v 0.127715 0.304115 0.877013
v 0.111453 0.297521 0.844225
v 0.105437 0.297802 0.876947
v 0.111453 0.296926 0.876881
v 0.111453 0.296926 0.876881
v 0.117501 0.298348 0.844225
v 0.111453 0.297521 0.844225
v 0.117501 0.297736 0.876947
v 0.123054 0.300810 0.844291
v 0.117501 0.298348 0.844225
v 0.127715 0.304727 0.844357
v 0.123054 0.300215 0.876947
v 0.127715 0.304115 0.877013
v 0.123054 0.300810 0.844291
v 0.117501 0.297736 0.876947
v 0.123054 0.300215 0.876947
v 0.117501 0.298348 0.844225
v 0.111453 0.296926 0.876881
v 0.117501 0.297736 0.876947
vt 53.5857048034668 127.8581314086914
vt 60.459716796875 127.97930908203125
vt 53.622920989990234 126.84783935546875
vt 53.92873764038086 125.88813781738281
vt 119.8267593383789 2.2750000953674316
vt 119.8267593383789 5.71999979019165
vt 120.79890441894531 2.2750000953674316
vt 120.79890441894531 5.71999979019165
vt 97.93617248535156 2.2750000953674316
vt 97.93617248535156 5.71999979019165
vt 98.90831756591797 2.2750000953674316
vt 54.47903823852539 125.0546875
vt 98.90831756591797 5.71999979019165
vt -123.32150268554688 2.2750000953674316
vt -123.32150268554688 5.71999979019165
vt -122.34935760498047 2.2750000953674316
vt 69.2579345703125 5.71999979019165
vt 69.2579345703125 2.2750000953674316
vt 68.2857894897461 5.71999979019165
vt 68.2857894897461 2.2750000953674316
vt 55.230438232421875 124.41320037841797
vt -122.34935760498047 5.71999979019165
vt 60.4554443359375 126.96829223632812
vt 60.18108367919922 125.99836730957031
vt 34.185447692871094 2.2750000953674316
vt 33.21330261230469 2.2750000953674316
vt 34.185447692871094 5.71999979019165
vt 56.12369918823242 124.01425170898438
vt -134.18397521972656 2.2750000953674316
vt -134.18397521972656 5.71999979019165
vt -133.21182250976562 2.2750000953674316
vt 59.658260345458984 125.14599609375
vt 33.21330261230469 5.71999979019165
vt -3.5439629554748535 2.2750000953674316
vt -4.516106128692627 2.2750000953674316
vt -3.5439629554748535 5.71999979019165
vt 57.08838653564453 123.88929748535156
vt -133.21182250976562 5.71999979019165
vt 58.92819595336914 124.4783935546875
vt -134.5054473876953 2.2750000953674316
vt -134.5054473876953 5.71999979019165
vt -133.53329467773438 2.2750000953674316
vt -4.516106128692627 5.71999979019165
vt -40.95563507080078 2.2750000953674316
vt -41.92778015136719 2.2750000953674316
vt -40.95563507080078 5.71999979019165
vt 58.0484504699707 124.04818725585938
vt -123.28843688964844 2.2750000953674316
vt -124.26057434082031 2.2750000953674316
vt -123.28843688964844 5.71999979019165
vt -133.53329467773438 5.71999979019165
vt -41.92778015136719 5.71999979019165
vt -75.09996795654297 2.2750000953674316
vt -76.07211303710938 2.2750000953674316
vt -75.09996795654297 5.71999979019165
vt -103.28495025634766 2.2750000953674316
vt -104.25709533691406 2.2750000953674316
vt -103.28495025634766 5.71999979019165
vt -124.26057434082031 5.71999979019165
vt -104.25709533691406 5.71999979019165
vt -76.07211303710938 5.71999979019165
vt 53.622920989990234 124.27037811279297
vt 60.459716796875 125.37886047363281
vt 53.5857048034668 125.26013946533203
vt 53.92873764038086 123.3301773071289
vt 11.704387664794922 0
vt 10.729022026062012 3.375
vt 10.729022026062012 0
vt 11.704387664794922 3.375
vt 9.753657341003418 3.375
vt 9.753657341003418 0
vt 54.47903823852539 122.51366424560547
vt 0.9753659963607788 0
vt 0 3.375
vt 0 0
vt 8.778290748596191 3.375
vt 8.778290748596191 0
vt 55.230438232421875 121.88521575927734
vt 0.9753659963607788 3.375
vt 60.18108367919922 123.43816375732422
vt 60.4554443359375 124.38838958740234
vt 7.802925109863281 0
vt 56.12369918823242 121.49436950683594
vt 1.9507310390472412 0
vt 59.658260345458984 122.60311889648438
vt 7.802925109863281 3.375
vt 6.827559947967529 0
vt 57.08838653564453 121.37195587158203
vt 1.9507310390472412 3.375
vt 58.92819595336914 121.94908142089844
vt 2.9260969161987305 0
vt 6.827559947967529 3.375
vt 5.852193832397461 0
vt 58.0484504699707 121.5276107788086
vt 3.901463031768799 3.375
vt 3.901463031768799 0
vt 2.9260969161987305 3.375
vt 5.852193832397461 3.375
vt 4.876828193664551 0
vt 4.876828193664551 3.375
vn 0.00010300003932064134 0.01836100762282291 -0.9998314171849504
vn -0.9877633344289319 -0.15593204906852742 -0.002965001033446967
vn -0.9998761203522839 -0.01573500191436536 -0.00039200002561288956
vn -0.9054667643213047 -0.4243439050376861 -0.007885998153332513
vn 0.9996369485793363 -0.026940997958900464 -0.00039199996399793256
vn 0.9859534393436412 -0.16699408436582427 -0.0029650013937090078
vn -0.7517811164979779 -0.6593001430332511 -0.012185001985571644
vn -0.5388241551346254 -0.8422752318600328 -0.015523003529756687
vn 0.9006535753326879 -0.43446627966504997 -0.007886004974444152
vn -0.2833850099792909 -0.9588440108179925 -0.017637999815817245
vn 0.744344114811185 -0.6676850788181664 -0.01218500182734296
vn -0.00560399824505644 -0.9998157175503992 -0.018360995148669214
vn 0.5293497686813732 -0.8482616689869423 -0.015522993411834307
vn 0.27262001499129307 -0.9619600970624441 -0.01763800118381698
vn -0.00010300003932064134 -0.01836100762282291 0.9998314171849504
vn 0.9998761203522839 0.01573500191436536 0.00039200002561288956
vn 0.9877633344289319 0.15593204906852742 0.002965001033446967
vn 0.9054667643213047 0.4243439050376861 0.007885998153332513
vn -0.9859534393436412 0.16699408436582427 0.0029650013937090078
vn -0.9996369485793363 0.026940997958900464 0.00039199996399793256
vn 0.7517811164979779 0.6593001430332511 0.012185001985571644
vn 0.5388241551346254 0.8422752318600328 0.015523003529756687
vn -0.9006535753326879 0.43446627966504997 0.007886004974444152
vn 0.2833850099792909 0.9588440108179925 0.017637999815817245
vn -0.744344114811185 0.6676850788181664 0.01218500182734296
vn 0.00560399824505644 0.9998157175503992 0.018360995148669214
vn -0.5293497686813732 0.8482616689869423 0.015522993411834307
vn -0.27262001499129307 0.9619600970624441 0.01763800118381698
usemtl material_0_0
f 1/1/1 2/2/1 3/3/1
f 4/4/1 5/3/1 6/2/1
f 7/5/2 8/6/2 9/7/3
f 10/8/3 11/7/3 12/6/2
f 13/9/4 14/10/4 15/11/2
f 16/12/1 17/4/1 18/2/1
f 19/13/2 20/11/2 21/10/4
f 22/14/5 23/15/5 24/16/6
f 25/17/4 26/18/4 27/19/7
f 28/20/7 29/19/7 30/18/4
f 31/21/1 32/12/1 33/2/1
f 34/22/6 35/16/6 36/15/5
f 37/23/1 38/24/1 39/2/1
f 40/25/7 41/26/8 42/27/7
f 43/28/1 44/21/1 45/2/1
f 46/29/6 47/30/6 48/31/9
f 49/24/1 50/32/1 51/2/1
f 52/33/8 53/27/7 54/26/8
f 55/34/8 56/35/10 57/36/8
f 58/37/1 59/28/1 60/2/1
f 61/38/9 62/31/9 63/30/6
f 64/32/1 65/39/1 66/2/1
f 67/40/9 68/41/9 69/42/11
f 70/43/10 71/36/8 72/35/10
f 73/44/10 74/45/12 75/46/10
f 76/47/1 77/37/1 78/2/1
f 79/39/1 80/47/1 81/2/1
f 82/48/13 83/49/11 84/50/13
f 85/51/11 86/42/11 87/41/9
f 88/52/12 89/46/10 90/45/12
f 91/53/12 92/54/14 93/55/12
f 94/56/14 95/57/13 96/58/14
f 97/59/11 98/50/13 99/49/11
f 100/60/13 101/58/14 102/57/13
f 103/61/14 104/55/12 105/54/14
usemtl material_1_0
f 106/62/15 107/63/15 108/64/15
f 109/63/15 110/62/15 111/65/15
f 112/66/16 113/67/17 114/68/17
f 115/67/17 116/66/16 117/69/16
f 118/68/17 119/70/18 120/71/18
f 121/63/15 122/65/15 123/72/15
f 124/70/18 125/68/17 126/67/17
f 127/73/19 128/74/20 129/75/20
f 130/76/21 131/71/18 132/70/18
f 133/71/18 134/76/21 135/77/21
f 136/63/15 137/72/15 138/78/15
f 139/74/20 140/73/19 141/79/19
f 142/63/15 143/80/15 144/81/15
f 145/76/21 146/82/22 147/77/21
f 148/63/15 149/78/15 150/83/15
f 151/84/23 152/79/19 153/73/19
f 154/63/15 155/85/15 156/80/15
f 157/82/22 158/76/21 159/86/22
f 160/86/22 161/87/24 162/82/22
f 163/63/15 164/83/15 165/88/15
f 166/79/19 167/84/23 168/89/23
f 169/63/15 170/90/15 171/85/15
f 172/91/25 173/89/23 174/84/23
f 175/87/24 176/86/22 177/92/24
f 178/92/24 179/93/26 180/87/24
f 181/63/15 182/88/15 183/94/15
f 184/63/15 185/94/15 186/90/15
f 187/95/27 188/91/25 189/96/27
f 190/89/23 191/91/25 192/97/25
f 193/93/26 194/92/24 195/98/26
f 196/98/26 197/99/28 198/93/26
f 199/100/28 200/96/27 201/99/28
f 202/91/25 203/95/27 204/97/25
f 205/96/27 206/100/28 207/95/27
f 208/99/28 209/98/26 210/100/28
