# SSTK version 0.8.0
# 14
mtllib original-14.mtl
o mesh40/mesh40-geometry#mesh40-geometry
v -0.521783 0.288883 -0.359318
v -0.495830 0.302348 -0.375141
v -0.488876 0.306924 -0.376402
v -0.502738 0.298175 -0.372742
v -0.497457 0.313133 -0.368749
v -0.509458 0.294491 -0.369254
v -0.514663 0.285367 -0.360517
v -0.482020 0.311809 -0.376498
v -0.515850 0.291372 -0.364748
v -0.535671 0.285634 -0.338683
v -0.527136 0.287074 -0.353076
v -0.531797 0.285984 -0.346150
vt -1.167099 -0.312824
vt -1.02613 -0.185829
vt -1.003579 -0.142667
vt -1.054391 -0.225188
vt -1.056024 0.220671
vt -1.198627 0.07509
vt -0.992078 0.183395
vt -1.08778 -0.259933
vt 0.878993 0.050102
vt 0.983648 -0.113547
vt 1.024059 -0.092823
vt -0.986228 0.377413
vt -0.924721 0.335936
vt -0.889416 0.368568
vt -1.125609 -0.289347
vt 1.367743 -0.033457
vt 1.230048 -0.00325
vt 1.197771 -0.035944
vt -1.304705 -0.343465
vt -1.211393 -0.329881
vt -1.257579 -0.340165
vn 0.5633830255015332 -0.7857100355651657 0.25545901156335227
vn 0.5463782080160582 -0.23551208966370898 0.8037443059999829
vn -0.23195011609338165 -0.1415840708642608 -0.9623684816751693
vn 0.35809812006673886 -0.4869501632695478 0.7966462671075716
vn -0.4569051574244146 -0.7786342682745901 -0.43007714818095677
vn -0.5633830255015332 0.7857100355651657 -0.25545901156335227
vn -0.5463782080160582 0.23551208966370898 -0.8037443059999829
vn 0.23195011609338165 0.1415840708642608 0.9623684816751693
vn -0.35809812006673886 0.4869501632695478 -0.7966462671075716
vn 0.4569051574244146 0.7786342682745901 0.43007714818095677
usemtl material_0_0
f 1/1/1 2/2/1 3/3/1
f 2/2/1 1/1/1 4/4/1
f 5/5/2 1/6/2 3/7/2
f 4/4/1 1/1/1 6/8/1
f 5/9/3 7/10/3 1/11/3
f 5/12/4 3/13/4 8/14/4
f 6/8/1 1/1/1 9/15/1
f 10/16/5 1/17/5 7/18/5
f 10/19/1 11/20/1 1/1/1
f 11/20/1 10/19/1 12/21/1
usemtl material_1_0
f 3//6 2//6 1//6
f 4//6 1//6 2//6
f 3//7 1//7 5//7
f 6//6 1//6 4//6
f 1//8 7//8 5//8
f 8//9 3//9 5//9
f 9//6 1//6 6//6
f 7//10 1//10 10//10
f 1//6 11//6 10//6
f 12//6 10//6 11//6
