# SSTK version 0.8.0
# 75
mtllib original-75.mtl
o #ID429
v -0.199002 -0.165104 0.165473
v -0.200004 -0.165104 0.156080
v -0.200121 -0.165104 0.160842
v -0.198658 -0.165104 0.151510
v -0.196722 -0.165104 0.169656
v -0.196175 -0.165104 0.147444
v -0.193437 -0.165104 0.173107
v -0.192724 -0.165104 0.144159
v -0.189371 -0.165104 0.175590
v -0.188541 -0.165104 0.141879
v -0.184801 -0.165104 0.176936
v -0.183911 -0.165104 0.140760
v -0.180038 -0.165104 0.177053
v -0.179148 -0.165104 0.140877
v -0.175408 -0.165104 0.175933
v -0.174578 -0.165104 0.142223
v -0.171225 -0.165104 0.173654
v -0.170512 -0.165104 0.144706
v -0.167774 -0.165104 0.170369
v -0.167227 -0.165104 0.148156
v -0.165291 -0.165104 0.166303
v -0.164947 -0.165104 0.152339
v -0.163945 -0.165104 0.161733
v -0.163828 -0.165104 0.156970
v -0.163828 -0.165104 0.156970
v -0.163945 -0.165104 0.161733
v -0.164947 -0.165104 0.152339
v -0.165291 -0.165104 0.166303
v -0.167227 -0.165104 0.148156
v -0.167774 -0.165104 0.170369
v -0.170512 -0.165104 0.144706
v -0.171225 -0.165104 0.173654
v -0.174578 -0.165104 0.142223
v -0.175408 -0.165104 0.175933
v -0.179148 -0.165104 0.140877
v -0.180038 -0.165104 0.177053
v -0.183911 -0.165104 0.140760
v -0.184801 -0.165104 0.176936
v -0.188541 -0.165104 0.141879
v -0.189371 -0.165104 0.175590
v -0.192724 -0.165104 0.144159
v -0.193437 -0.165104 0.173107
v -0.196175 -0.165104 0.147444
v -0.196722 -0.165104 0.169656
v -0.198658 -0.165104 0.151510
v -0.199002 -0.165104 0.165473
v -0.200004 -0.165104 0.156080
v -0.200121 -0.165104 0.160842
vn 0 1 0
vn 0 -1 0
usemtl material_0_0
f 25//2 26//2 27//2
f 26//2 28//2 27//2
f 27//2 28//2 29//2
f 28//2 30//2 29//2
f 29//2 30//2 31//2
f 30//2 32//2 31//2
f 31//2 32//2 33//2
f 32//2 34//2 33//2
f 33//2 34//2 35//2
f 34//2 36//2 35//2
f 35//2 36//2 37//2
f 36//2 38//2 37//2
f 37//2 38//2 39//2
f 38//2 40//2 39//2
f 39//2 40//2 41//2
f 40//2 42//2 41//2
f 41//2 42//2 43//2
f 42//2 44//2 43//2
f 43//2 44//2 45//2
f 44//2 46//2 45//2
f 45//2 46//2 47//2
f 48//2 47//2 46//2
usemtl material_1_0
f 1//1 2//1 3//1
f 2//1 1//1 4//1
f 4//1 1//1 5//1
f 4//1 5//1 6//1
f 6//1 5//1 7//1
f 6//1 7//1 8//1
f 8//1 7//1 9//1
f 8//1 9//1 10//1
f 10//1 9//1 11//1
f 10//1 11//1 12//1
f 12//1 11//1 13//1
f 12//1 13//1 14//1
f 14//1 13//1 15//1
f 14//1 15//1 16//1
f 16//1 15//1 17//1
f 16//1 17//1 18//1
f 18//1 17//1 19//1
f 18//1 19//1 20//1
f 20//1 19//1 21//1
f 20//1 21//1 22//1
f 22//1 21//1 23//1
f 22//1 23//1 24//1
