# SSTK version 0.8.0
# 52
mtllib original-52.mtl
o #ID297
v 0.166145 -0.165104 0.087128
v 0.183153 -0.169666 0.100179
v 0.166145 -0.169666 0.087128
v 0.180354 -0.165104 0.098031
v 0.183153 -0.165104 0.100179
v 0.180354 -0.165104 0.098031
v 0.183153 -0.169666 0.100179
v 0.183153 -0.165104 0.100179
v 0.166145 -0.165104 0.087128
v 0.166145 -0.169666 0.087128
v 0.125084 -0.169666 0.076126
v 0.084022 -0.169666 0.087128
v 0.103829 -0.169666 0.078924
v 0.146339 -0.169666 0.078924
v 0.067014 -0.169666 0.100179
v 0.166145 -0.169666 0.087128
v 0.053963 -0.169666 0.117188
v 0.183153 -0.169666 0.100179
v 0.045759 -0.169666 0.136994
v 0.196204 -0.169666 0.117188
v 0.042960 -0.169666 0.158249
v 0.204409 -0.169666 0.136994
v 0.045759 -0.169666 0.179504
v 0.207207 -0.169666 0.158249
v 0.053963 -0.169666 0.199311
v 0.204408 -0.169666 0.179504
v 0.067014 -0.169666 0.216319
v 0.084022 -0.169666 0.229370
v 0.196204 -0.169666 0.199311
v 0.183153 -0.169666 0.216319
v 0.103829 -0.169666 0.237574
v 0.125084 -0.169666 0.240372
v 0.166145 -0.169666 0.229370
v 0.146339 -0.169666 0.237574
v 0.146339 -0.169666 0.237574
v 0.166145 -0.169666 0.229370
v 0.125084 -0.169666 0.240372
v 0.183153 -0.169666 0.216319
v 0.103829 -0.169666 0.237574
v 0.084022 -0.169666 0.229370
v 0.196204 -0.169666 0.199311
v 0.204408 -0.169666 0.179504
v 0.067014 -0.169666 0.216319
v 0.053963 -0.169666 0.199311
v 0.207207 -0.169666 0.158249
v 0.045759 -0.169666 0.179504
v 0.204409 -0.169666 0.136994
v 0.042960 -0.169666 0.158249
v 0.196204 -0.169666 0.117188
v 0.045759 -0.169666 0.136994
v 0.183153 -0.169666 0.100179
v 0.053963 -0.169666 0.117188
v 0.166145 -0.169666 0.087128
v 0.067014 -0.169666 0.100179
v 0.146339 -0.169666 0.078924
v 0.084022 -0.169666 0.087128
v 0.125084 -0.169666 0.076126
v 0.103829 -0.169666 0.078924
v 0.146339 -0.169666 0.078924
v 0.146339 -0.165104 0.078924
v 0.146339 -0.169666 0.078924
v 0.146339 -0.165104 0.078924
v 0.196204 -0.169666 0.117188
v 0.196204 -0.165104 0.117188
v 0.196204 -0.165104 0.117188
v 0.196204 -0.169666 0.117188
v 0.053963 -0.165104 0.199311
v 0.045759 -0.169666 0.179504
v 0.053963 -0.169666 0.199311
v 0.045759 -0.165104 0.179504
v 0.045759 -0.165104 0.179504
v 0.053963 -0.165104 0.199311
v 0.045759 -0.169666 0.179504
v 0.053963 -0.169666 0.199311
v 0.042960 -0.169666 0.158249
v 0.042960 -0.165104 0.158249
v 0.042960 -0.165104 0.158249
v 0.042960 -0.169666 0.158249
v 0.045759 -0.169666 0.136994
v 0.045759 -0.165104 0.136994
v 0.045759 -0.165104 0.136994
v 0.045759 -0.169666 0.136994
v 0.053963 -0.169666 0.117188
v 0.053963 -0.165104 0.117188
v 0.053963 -0.165104 0.117188
v 0.053963 -0.169666 0.117188
v 0.054141 -0.165104 0.116955
v 0.067014 -0.169666 0.100179
v 0.067014 -0.165104 0.100179
v 0.067014 -0.165104 0.100179
v 0.054141 -0.165104 0.116955
v 0.067014 -0.169666 0.100179
v 0.074327 -0.165104 0.094567
v 0.084022 -0.169666 0.087128
v 0.084022 -0.165104 0.087128
v 0.084022 -0.165104 0.087128
v 0.074327 -0.165104 0.094567
v 0.084022 -0.169666 0.087128
v 0.103829 -0.165104 0.078924
v 0.103829 -0.169666 0.078924
v 0.103829 -0.169666 0.078924
v 0.103829 -0.165104 0.078924
v 0.125084 -0.165104 0.076126
v 0.125084 -0.169666 0.076126
v 0.125084 -0.169666 0.076126
v 0.125084 -0.165104 0.076126
v 0.204409 -0.169666 0.136994
v 0.203086 -0.165104 0.133801
v 0.204409 -0.165104 0.136994
v 0.203086 -0.165104 0.133801
v 0.204409 -0.169666 0.136994
v 0.204409 -0.165104 0.136994
v 0.207207 -0.169666 0.158249
v 0.207207 -0.165104 0.158249
v 0.207207 -0.165104 0.158249
v 0.207207 -0.169666 0.158249
v 0.204408 -0.169666 0.179504
v 0.204408 -0.165104 0.179504
v 0.204408 -0.165104 0.179504
v 0.204408 -0.169666 0.179504
v 0.196204 -0.169666 0.199311
v 0.196204 -0.165104 0.199311
v 0.196204 -0.165104 0.199311
v 0.196204 -0.169666 0.199311
v 0.183153 -0.165104 0.216319
v 0.183153 -0.169666 0.216319
v 0.183153 -0.165104 0.216319
v 0.183153 -0.169666 0.216319
v 0.166145 -0.165104 0.229370
v 0.166145 -0.169666 0.229370
v 0.166145 -0.165104 0.229370
v 0.166145 -0.169666 0.229370
v 0.146339 -0.165104 0.237574
v 0.146339 -0.169666 0.237574
v 0.146339 -0.165104 0.237574
v 0.146339 -0.169666 0.237574
v 0.125084 -0.165104 0.240372
v 0.125084 -0.169666 0.240372
v 0.125084 -0.165104 0.240372
v 0.125084 -0.169666 0.240372
v 0.103829 -0.165104 0.237574
v 0.103829 -0.169666 0.237574
v 0.103829 -0.165104 0.237574
v 0.103829 -0.169666 0.237574
v 0.084022 -0.165104 0.229370
v 0.084022 -0.169666 0.229370
v 0.084022 -0.165104 0.229370
v 0.084022 -0.169666 0.229370
v 0.067014 -0.169666 0.216319
v 0.067014 -0.165104 0.216319
v 0.067014 -0.165104 0.216319
v 0.067014 -0.169666 0.216319
vn 0.5000001111488682 0 -0.8660253396126002
vn 0.707106870601215 0 -0.7071066917718689
vn 0.6087615296297819 0 -0.7933532630819693
vn -0.6087615296297819 0 0.7933532630819693
vn -0.707106870601215 0 0.7071066917718689
vn -0.5000001111488682 0 0.8660253396126002
vn 0 -1 0
vn 0 1 0
vn 0.2588191709007206 0 -0.9659257925815335
vn -0.2588191709007206 0 0.9659257925815335
vn 0.8660254863370479 0 -0.4999998570146592
vn -0.8660254863370479 0 0.4999998570146592
vn -0.9659258595068446 0 0.2588189211320602
vn 0.9659258595068446 0 -0.2588189211320602
vn -1 0 -9.158208327432435e-8
vn 1 0 9.158208327432435e-8
vn -0.9659257925815335 0 -0.2588191709007206
vn 0.9659257925815335 0 0.2588191709007206
vn -0.8660253396126002 0 -0.5000001111488682
vn 0.8660253396126002 0 0.5000001111488682
vn -0.7933532630819693 0 -0.6087615296297819
vn -0.7071066917718689 0 -0.707106870601215
vn 0.7071066917718689 0 0.707106870601215
vn 0.7933532630819693 0 0.6087615296297819
vn -0.6087613133349596 0 -0.7933534290508204
vn -0.4999998570146592 0 -0.8660254863370479
vn 0.4999998570146592 0 0.8660254863370479
vn 0.6087613133349596 0 0.7933534290508204
vn -0.2588189211320602 0 -0.9659258595068446
vn 0.2588189211320602 0 0.9659258595068446
vn 9.158208327432435e-8 0 -1
vn -9.158208327432435e-8 0 1
vn 0.9659258595068446 0 -0.2588189211320604
vn 0.9238795806038725 0 -0.38268331625929597
vn 0.9659258595068446 0 -0.25881892113206034
vn -0.9238795806038725 0 0.38268331625929597
vn -0.9659258595068446 0 0.2588189211320604
vn -0.9659258595068446 0 0.25881892113206034
usemtl material_0_0
f 1//1 2//2 3//1
f 2//2 1//1 4//3
f 5//2 2//2 4//3
f 6//4 7//5 8//5
f 6//4 9//6 7//5
f 10//6 7//5 9//6
f 11//7 12//7 13//7
f 12//7 11//7 14//7
f 12//7 14//7 15//7
f 15//7 14//7 16//7
f 15//7 16//7 17//7
f 17//7 16//7 18//7
f 17//7 18//7 19//7
f 19//7 18//7 20//7
f 19//7 20//7 21//7
f 21//7 20//7 22//7
f 21//7 22//7 23//7
f 23//7 22//7 24//7
f 23//7 24//7 25//7
f 25//7 24//7 26//7
f 25//7 26//7 27//7
f 27//7 26//7 28//7
f 28//7 26//7 29//7
f 28//7 29//7 30//7
f 28//7 30//7 31//7
f 31//7 30//7 32//7
f 32//7 30//7 33//7
f 32//7 33//7 34//7
f 35//8 36//8 37//8
f 36//8 38//8 37//8
f 37//8 38//8 39//8
f 39//8 38//8 40//8
f 38//8 41//8 40//8
f 41//8 42//8 40//8
f 40//8 42//8 43//8
f 43//8 42//8 44//8
f 42//8 45//8 44//8
f 44//8 45//8 46//8
f 45//8 47//8 46//8
f 46//8 47//8 48//8
f 47//8 49//8 48//8
f 48//8 49//8 50//8
f 49//8 51//8 50//8
f 50//8 51//8 52//8
f 51//8 53//8 52//8
f 52//8 53//8 54//8
f 53//8 55//8 54//8
f 54//8 55//8 56//8
f 55//8 57//8 56//8
f 58//8 56//8 57//8
f 1//1 59//9 60//9
f 59//9 1//1 3//1
f 10//6 9//6 61//10
f 62//10 61//10 9//6
f 5//2 63//11 2//2
f 63//11 5//2 64//11
f 65//12 8//5 66//12
f 7//5 66//12 8//5
f 67//12 68//13 69//12
f 68//13 67//12 70//13
f 71//14 72//11 73//14
f 74//11 73//14 72//11
f 70//13 75//15 68//13
f 75//15 70//13 76//15
f 77//16 71//14 78//16
f 73//14 78//16 71//14
f 76//15 79//17 75//15
f 79//17 76//15 80//17
f 81//18 77//16 82//18
f 78//16 82//18 77//16
f 80//17 83//19 79//17
f 83//19 80//17 84//19
f 85//20 81//18 86//20
f 82//18 86//20 81//18
f 87//21 83//19 84//19
f 83//19 87//21 88//22
f 88//22 87//21 89//22
f 90//23 91//24 92//23
f 92//23 91//24 86//20
f 85//20 86//20 91//24
f 93//25 88//22 89//22
f 88//22 93//25 94//26
f 94//26 93//25 95//26
f 96//27 97//28 98//27
f 98//27 97//28 92//23
f 90//23 92//23 97//28
f 99//29 94//26 95//26
f 94//26 99//29 100//29
f 101//30 102//30 98//27
f 96//27 98//27 102//30
f 103//31 100//29 99//29
f 100//29 103//31 104//31
f 105//32 106//32 101//30
f 102//30 101//30 106//32
f 60//9 104//31 103//31
f 104//31 60//9 59//9
f 61//10 62//10 105//32
f 106//32 105//32 62//10
f 64//11 107//33 63//11
f 107//33 64//11 108//34
f 109//35 107//33 108//34
f 110//36 111//37 112//38
f 110//36 65//12 111//37
f 66//12 111//37 65//12
f 109//35 113//16 107//33
f 113//16 109//35 114//16
f 115//15 112//38 116//15
f 111//37 116//15 112//38
f 114//16 117//18 113//16
f 117//18 114//16 118//18
f 119//17 115//15 120//17
f 116//15 120//17 115//15
f 118//18 121//20 117//18
f 121//20 118//18 122//20
f 123//19 119//17 124//19
f 120//17 124//19 119//17
f 121//20 125//23 126//23
f 125//23 121//20 122//20
f 123//19 124//19 127//22
f 128//22 127//22 124//19
f 126//23 129//27 130//27
f 129//27 126//23 125//23
f 127//22 128//22 131//26
f 132//26 131//26 128//22
f 130//27 133//30 134//30
f 133//30 130//27 129//27
f 131//26 132//26 135//29
f 136//29 135//29 132//26
f 134//30 137//32 138//32
f 137//32 134//30 133//30
f 135//29 136//29 139//31
f 140//31 139//31 136//29
f 138//32 141//10 142//10
f 141//10 138//32 137//32
f 139//31 140//31 143//9
f 144//9 143//9 140//31
f 142//10 145//6 146//6
f 145//6 142//10 141//10
f 143//9 144//9 147//1
f 148//1 147//1 144//9
f 145//6 149//5 146//6
f 149//5 145//6 150//5
f 151//2 147//1 152//2
f 148//1 152//2 147//1
f 150//5 69//12 149//5
f 69//12 150//5 67//12
f 72//11 151//2 74//11
f 152//2 74//11 151//2
