# SSTK version 0.8.0
# 5
mtllib original-5.mtl
o #ID33
v 0.307533 0.042245 0.107811
v 0.276772 0.120216 0.650698
v 0.307533 0.042245 0.650698
v 0.276772 0.120216 0.107811
v 0.317067 -0.041030 0.107811
v 0.316445 -0.035599 0.650698
v 0.317067 -0.041030 0.650698
v 0.316445 -0.035599 0.107811
v 0.226878 0.187568 0.650698
v 0.226878 0.187568 0.107811
v -0.003970 -0.356013 0.650698
v -0.092306 -0.344290 0.650698
v -0.009401 -0.356635 0.650698
v 0.073875 -0.347102 0.650698
v 0.151845 -0.316340 0.650698
v -0.169191 -0.310909 0.650698
v 0.219197 -0.266446 0.650698
v -0.234817 -0.258765 0.650698
v -0.011377 -0.258223 0.650698
v -0.003970 -0.257497 0.650698
v 0.046495 -0.252554 0.650698
v 0.271340 -0.200821 0.650698
v 0.100927 -0.232100 0.650698
v 0.148212 -0.198255 0.650698
v 0.304722 -0.123935 0.650698
v 0.185124 -0.153326 0.650698
v 0.209151 -0.100373 0.650698
v 0.317067 -0.041030 0.650698
v 0.218654 -0.043006 0.650698
v 0.217929 -0.035599 0.650698
v 0.316445 -0.035599 0.650698
v 0.307533 0.042245 0.650698
v 0.212986 0.014865 0.650698
v 0.192532 0.069298 0.650698
v 0.276772 0.120216 0.650698
v 0.158688 0.116582 0.650698
v 0.113757 0.153495 0.650698
v 0.226878 0.187568 0.650698
v 0.060805 0.177522 0.650698
v 0.003438 0.187025 0.650698
v -0.068744 -0.248720 0.650698
v -0.284711 -0.191413 0.650698
v -0.121696 -0.224693 0.650698
v -0.166626 -0.187780 0.650698
v -0.315472 -0.113443 0.650698
v -0.200471 -0.140496 0.650698
v -0.220925 -0.086063 0.650698
v -0.324384 -0.035599 0.650698
v -0.225867 -0.035599 0.650698
v -0.226593 -0.028191 0.650698
v -0.325006 -0.030168 0.650698
v -0.312661 0.052738 0.650698
v -0.217090 0.029175 0.650698
v -0.193063 0.082128 0.650698
v -0.279279 0.129623 0.650698
v -0.156150 0.127058 0.650698
v -0.108866 0.160903 0.650698
v -0.227136 0.195249 0.650698
v -0.054433 0.181356 0.650698
v -0.003970 0.186299 0.650698
v 0.161252 0.239711 0.650698
v -0.159784 0.245142 0.650698
v 0.084367 0.273093 0.650698
v -0.081813 0.275904 0.650698
v 0.001462 0.285438 0.650698
v -0.003970 0.284816 0.650698
v 0.304722 -0.123935 0.107811
v 0.304722 -0.123935 0.650698
v 0.161252 0.239711 0.107811
v 0.161252 0.239711 0.650698
v -0.003970 0.284816 0.650698
v -0.081813 0.275904 0.107811
v -0.081813 0.275904 0.650698
v -0.003970 0.284816 0.107811
v 0.001462 0.285438 0.650698
v 0.001462 0.285438 0.107811
v -0.159784 0.245142 0.107811
v -0.159784 0.245142 0.650698
v -0.227136 0.195249 0.107811
v -0.227136 0.195249 0.650698
v -0.279279 0.129623 0.650698
v -0.279279 0.129623 0.107811
v -0.312661 0.052738 0.650698
v -0.312661 0.052738 0.107811
v -0.325006 -0.030168 0.650698
v -0.325006 -0.030168 0.107811
v -0.324384 -0.035599 0.650698
v -0.315472 -0.113443 0.650698
v -0.324384 -0.035599 0.107811
v -0.315472 -0.113443 0.107811
v -0.284711 -0.191413 0.650698
v -0.284711 -0.191413 0.107811
v -0.234817 -0.258765 0.650698
v -0.234817 -0.258765 0.107811
v -0.169191 -0.310909 0.107811
v -0.169191 -0.310909 0.650698
v -0.092306 -0.344290 0.107811
v -0.092306 -0.344290 0.650698
v -0.009401 -0.356635 0.107811
v -0.009401 -0.356635 0.650698
v -0.003970 -0.356013 0.107811
v -0.003970 -0.356013 0.650698
v 0.073875 -0.347102 0.107811
v 0.073875 -0.347102 0.650698
v 0.151845 -0.316340 0.107811
v 0.151845 -0.316340 0.650698
v 0.219197 -0.266446 0.107811
v 0.219197 -0.266446 0.650698
v 0.271340 -0.200821 0.650698
v 0.271340 -0.200821 0.107811
v 0.084367 0.273093 0.107811
v 0.084367 0.273093 0.650698
vn 0.9701656545450771 0.24244298864088074 0
vn 0.8743591957885921 0.4852792976626208 0
vn 0.9998569245482564 -0.01691539041530276 0
vn 0.9935109158499517 0.11373680181449725 0
vn 0.7189666115377175 0.6950446111538258 0
vn 0 0 1
vn 0.9614096078772327 -0.27512100225418196 0
vn 0.5145776060256524 0.8574438100405815 0
vn -0.11373680181449725 0.9935109158499517 0
vn -0.24244298864088074 0.9701656545450771 0
vn 0.01691539041530276 0.9998569245482564 0
vn -0.4852792976626208 0.8743591957885921 0
vn -0.6950446111538258 0.7189666115377175 0
vn -0.8574438100405815 0.5145776060256524 0
vn -0.9614096078772327 0.27512100225418196 0
vn -0.9998569245482564 0.01691539041530276 0
vn -0.9935109158499517 -0.11373680181449725 0
vn -0.9701656545450771 -0.24244298864088074 0
vn -0.8743591957885921 -0.4852792976626208 0
vn -0.7189666115377175 -0.6950446111538258 0
vn -0.5145776060256524 -0.8574438100405815 0
vn -0.27512100225418196 -0.9614096078772327 0
vn -0.01691539041530276 -0.9998569245482564 0
vn 0.11373680181449725 -0.9935109158499517 0
vn 0.24244298864088074 -0.9701656545450771 0
vn 0.4852792976626208 -0.8743591957885921 0
vn 0.6950446111538258 -0.7189666115377175 0
vn 0.8574438100405815 -0.5145776060256524 0
vn 0.27512100225418196 0.9614096078772327 0
usemtl material_0_0
f 1//1 2//2 3//1
f 2//2 1//1 4//2
f 5//3 6//4 7//3
f 6//4 5//3 3//1
f 3//1 5//3 8//4
f 1//1 3//1 8//4
f 4//2 9//5 2//2
f 9//5 4//2 10//5
f 11//6 12//6 13//6
f 12//6 11//6 14//6
f 12//6 14//6 15//6
f 12//6 15//6 16//6
f 16//6 15//6 17//6
f 16//6 17//6 18//6
f 18//6 17//6 19//6
f 19//6 17//6 20//6
f 20//6 17//6 21//6
f 21//6 17//6 22//6
f 21//6 22//6 23//6
f 23//6 22//6 24//6
f 24//6 22//6 25//6
f 24//6 25//6 26//6
f 26//6 25//6 27//6
f 27//6 25//6 28//6
f 27//6 28//6 29//6
f 29//6 28//6 30//6
f 30//6 28//6 31//6
f 30//6 31//6 32//6
f 30//6 32//6 33//6
f 33//6 32//6 34//6
f 34//6 32//6 35//6
f 34//6 35//6 36//6
f 36//6 35//6 37//6
f 37//6 35//6 38//6
f 37//6 38//6 39//6
f 39//6 38//6 40//6
f 18//6 41//6 42//6
f 41//6 18//6 19//6
f 42//6 41//6 43//6
f 42//6 43//6 44//6
f 42//6 44//6 45//6
f 45//6 44//6 46//6
f 45//6 46//6 47//6
f 45//6 47//6 48//6
f 48//6 47//6 49//6
f 48//6 49//6 50//6
f 48//6 50//6 51//6
f 51//6 50//6 52//6
f 52//6 50//6 53//6
f 52//6 53//6 54//6
f 52//6 54//6 55//6
f 55//6 54//6 56//6
f 55//6 56//6 57//6
f 55//6 57//6 58//6
f 58//6 57//6 59//6
f 58//6 59//6 60//6
f 58//6 60//6 40//6
f 58//6 40//6 38//6
f 58//6 38//6 61//6
f 58//6 61//6 62//6
f 62//6 61//6 63//6
f 62//6 63//6 64//6
f 64//6 63//6 65//6
f 64//6 65//6 66//6
f 67//7 7//3 68//7
f 7//3 67//7 5//3
f 9//5 69//8 70//8
f 69//8 9//5 10//5
f 71//9 72//10 73//10
f 72//10 71//9 74//9
f 74//9 71//9 75//11
f 74//9 75//11 76//11
f 73//10 77//12 78//12
f 77//12 73//10 72//10
f 78//12 79//13 80//13
f 79//13 78//12 77//12
f 79//13 81//14 80//13
f 81//14 79//13 82//14
f 82//14 83//15 81//14
f 83//15 82//14 84//15
f 84//15 85//16 83//15
f 85//16 84//15 86//16
f 86//16 87//17 85//16
f 87//17 86//16 88//18
f 88//18 86//16 89//17
f 88//18 89//17 90//18
f 90//18 91//19 88//18
f 91//19 90//18 92//19
f 92//19 93//20 91//19
f 93//20 92//19 94//20
f 95//21 93//20 94//20
f 93//20 95//21 96//21
f 97//22 96//21 95//21
f 96//21 97//22 98//22
f 99//23 98//22 97//22
f 98//22 99//23 100//23
f 101//24 100//23 99//23
f 100//23 101//24 102//24
f 102//24 101//24 103//25
f 102//24 103//25 104//25
f 105//26 104//25 103//25
f 104//25 105//26 106//26
f 107//27 106//26 105//26
f 106//26 107//27 108//27
f 107//27 109//28 108//27
f 109//28 107//27 110//28
f 110//28 68//7 109//28
f 68//7 110//28 67//7
f 70//8 111//29 112//29
f 111//29 70//8 69//8
f 112//29 76//11 75//11
f 76//11 112//29 111//29
