# SSTK version 0.8.0
# 7
mtllib original-7.mtl
o mesh10/mesh10-geometry#mesh10-geometry
v -0.151738 0.190706 -0.487779
v -0.125250 0.186591 -0.487765
v -0.113025 0.186654 -0.487765
v -0.153549 0.183325 -0.487753
v -0.113025 0.135496 -0.487587
v -0.085495 0.186058 -0.487763
v -0.130470 0.185541 -0.487761
v -0.125250 0.161451 -0.487677
v -0.088293 0.195055 -0.487794
v -0.107665 0.185479 -0.487761
v -0.134216 0.183645 -0.487755
v -0.151719 0.156937 -0.487661
v -0.148721 0.197134 -0.487802
v -0.084562 0.174241 -0.487722
v -0.137836 0.179397 -0.487740
v -0.153071 0.162204 -0.487680
v -0.149826 0.152424 -0.487646
v -0.093120 0.201990 -0.487819
v -0.103872 0.183331 -0.487753
v -0.154152 0.174993 -0.487724
v -0.131598 0.162823 -0.487682
v -0.144529 0.145136 -0.487620
v -0.144497 0.202609 -0.487821
v -0.100627 0.179068 -0.487739
v -0.139043 0.173927 -0.487721
v -0.135846 0.165432 -0.487691
v -0.137287 0.139822 -0.487602
v -0.139298 0.206984 -0.487836
v -0.099546 0.173677 -0.487720
v -0.138244 0.169170 -0.487704
v -0.132872 0.137930 -0.487595
v -0.100142 0.207625 -0.487838
v -0.085652 0.160777 -0.487675
v -0.127836 0.136578 -0.487590
v -0.104379 0.209805 -0.487846
v -0.100016 0.170009 -0.487707
v -0.115909 0.135496 -0.487587
v -0.133353 0.210109 -0.487847
v -0.101427 0.166530 -0.487695
v -0.108974 0.211363 -0.487851
v -0.105627 0.162078 -0.487679
v -0.126665 0.211984 -0.487853
v -0.103308 0.136938 -0.487592
v -0.119232 0.212609 -0.487856
v -0.087013 0.155374 -0.487656
v -0.088919 0.150856 -0.487640
v -0.091453 0.146930 -0.487626
v -0.094695 0.143302 -0.487614
vn 0 0.0034905505301866535 0.999993908009942
vn 0 -0.0034905505301866535 -0.999993908009942
usemtl material_0_0
f 1//1 2//1 3//1
f 2//1 1//1 4//1
f 3//2 2//2 1//2
f 4//2 1//2 2//2
f 2//1 5//1 3//1
f 3//2 5//2 2//2
f 6//1 1//1 3//1
f 3//2 1//2 6//2
f 2//1 4//1 7//1
f 7//2 4//2 2//2
f 5//1 2//1 8//1
f 8//2 2//2 5//2
f 9//1 1//1 6//1
f 6//2 1//2 9//2
f 6//1 3//1 10//1
f 10//2 3//2 6//2
f 7//1 4//1 11//1
f 11//2 4//2 7//2
f 5//1 8//1 12//1
f 12//2 8//2 5//2
f 9//1 13//1 1//1
f 1//2 13//2 9//2
f 6//1 10//1 14//1
f 14//2 10//2 6//2
f 11//1 4//1 15//1
f 15//2 4//2 11//2
f 8//1 16//1 12//1
f 12//2 16//2 8//2
f 5//1 12//1 17//1
f 17//2 12//2 5//2
f 18//1 13//1 9//1
f 9//2 13//2 18//2
f 14//1 10//1 19//1
f 19//2 10//2 14//2
f 15//1 4//1 20//1
f 20//2 4//2 15//2
f 21//1 16//1 8//1
f 8//2 16//2 21//2
f 5//1 17//1 22//1
f 22//2 17//2 5//2
f 18//1 23//1 13//1
f 13//2 23//2 18//2
f 14//1 19//1 24//1
f 24//2 19//2 14//2
f 15//1 20//1 25//1
f 25//2 20//2 15//2
f 26//1 16//1 21//1
f 21//2 16//2 26//2
f 5//1 22//1 27//1
f 27//2 22//2 5//2
f 18//1 28//1 23//1
f 23//2 28//2 18//2
f 14//1 24//1 29//1
f 29//2 24//2 14//2
f 25//1 20//1 16//1
f 16//2 20//2 25//2
f 30//1 16//1 26//1
f 26//2 16//2 30//2
f 5//1 27//1 31//1
f 31//2 27//2 5//2
f 32//1 28//1 18//1
f 18//2 28//2 32//2
f 14//1 29//1 33//1
f 33//2 29//2 14//2
f 25//1 16//1 30//1
f 30//2 16//2 25//2
f 5//1 31//1 34//1
f 34//2 31//2 5//2
f 35//1 28//1 32//1
f 32//2 28//2 35//2
f 33//1 29//1 36//1
f 36//2 29//2 33//2
f 5//1 34//1 37//1
f 37//2 34//2 5//2
f 35//1 38//1 28//1
f 28//2 38//2 35//2
f 33//1 36//1 39//1
f 39//2 36//2 33//2
f 40//1 38//1 35//1
f 35//2 38//2 40//2
f 33//1 39//1 41//1
f 41//2 39//2 33//2
f 40//1 42//1 38//1
f 38//2 42//2 40//2
f 33//1 41//1 43//1
f 43//2 41//2 33//2
f 42//1 40//1 44//1
f 44//2 40//2 42//2
f 33//1 43//1 45//1
f 45//2 43//2 33//2
f 45//1 43//1 46//1
f 46//2 43//2 45//2
f 46//1 43//1 47//1
f 47//2 43//2 46//2
f 47//1 43//1 48//1
f 48//2 43//2 47//2
