mtllib new-1.mtl
v -0.177633 -0.385641 -0.406773
v 0.177505 -0.385641 -0.406773
v 0.177505 -0.058422 -0.406773
v -0.177633 -0.385641 -0.460208
v 0.177505 -0.385641 -0.460208
v -0.177633 -0.058422 -0.406773
v 0.177505 -0.058422 -0.460208
v -0.177633 -0.058422 -0.460208
vn 0.000000 -1.000000 0.000000
vn 0.000000 1.000000 0.000000
vn -1.000000 0.000000 0.000000
vn 1.000000 0.000000 0.000000
vt -0.875023 0.476815
vt -0.875023 0.000000
vt -0.952888 0.476815
vt 0.952888 0.000000
vt 0.875023 0.000000
vt 0.952888 0.476815
vt -0.952888 0.000000
vt 0.875023 0.476815
vt -1.312535 0.482217
vt -1.312535 0.094093
vt -1.429332 0.482217
vt -1.429332 0.094093
usemtl material-0
f 7//3 2//3 3//3
f 8//4 1//4 4//4
f 2//3 7//3 5//3
f 1//4 8//4 6//4
f 8//1 3//1 6//1
f 3//1 8//1 7//1
usemtl material-2
f 3/1/4 2/2/4 7/3/4
f 4/4/3 1/5/3 8/6/3
f 5/7/4 7/3/4 2/2/4
f 6/8/3 8/6/3 1/5/3
usemtl material-4
f 6/9/2 3/10/2 8/11/2
f 7/12/2 8/11/2 3/10/2