mtllib new-9.mtl
v 0.096454 -0.193105 0.229320
v 0.102143 -0.326845 0.221561
v 0.096454 -0.326845 0.229320
v 0.102143 -0.193105 0.221561
v 0.091827 -0.193105 0.237754
v 0.106604 -0.193105 0.235785
v 0.108796 -0.326845 0.214611
v 0.091827 -0.326845 0.237754
v 0.099817 -0.193105 0.250340
v 0.111362 -0.193105 0.229296
v 0.102733 -0.193105 0.242840
v 0.108796 -0.193105 0.214611
v 0.088340 -0.326845 0.246721
v 0.097904 -0.193105 0.258156
v 0.106604 -0.326845 0.235785
v 0.102733 -0.326845 0.242840
v 0.116299 -0.326845 0.208590
v 0.088340 -0.193105 0.246721
v 0.099817 -0.326845 0.250340
v 0.116926 -0.193105 0.223484
v 0.111362 -0.326845 0.229296
v 0.116299 -0.193105 0.208590
v 0.086053 -0.326845 0.256066
v 0.097028 -0.193105 0.266154
v 0.097904 -0.326845 0.258156
v 0.326047 -0.326845 0.819139
v 0.318231 -0.326845 0.817226
v 0.124524 -0.326845 0.203599
v 0.086053 -0.193105 0.256066
v 0.303676 -0.326845 0.810440
v 0.097204 -0.193105 0.274199
v 0.123201 -0.193105 0.218447
v 0.116926 -0.326845 0.223484
v 0.310731 -0.326845 0.814310
v 0.124524 -0.193105 0.203599
v 0.085006 -0.326845 0.265630
v 0.097028 -0.326845 0.266154
v 0.297187 -0.326845 0.805682
v 0.334045 -0.326845 0.820015
v 0.318231 -0.193105 0.817226
v 0.310731 -0.193105 0.814310
v 0.133330 -0.326845 0.199724
v 0.085006 -0.193105 0.265630
v 0.098428 -0.193105 0.282152
v 0.097204 -0.326845 0.274199
v 0.303676 -0.193105 0.810440
v 0.130081 -0.193105 0.214273
v 0.123201 -0.326845 0.218447
v 0.342090 -0.326845 0.819839
v 0.326047 -0.193105 0.819139
v 0.133330 -0.193105 0.199724
v 0.085216 -0.326845 0.275248
v 0.289452 -0.193105 0.814900
v 0.100790 -0.193105 0.290255
v 0.291375 -0.326845 0.800117
v 0.297187 -0.193105 0.805682
v 0.334045 -0.193105 0.820015
v 0.323957 -0.193105 0.830990
v 0.314612 -0.193105 0.828703
v 0.202444 -0.326845 0.174569
v 0.085216 -0.193105 0.275248
v 0.278764 -0.193105 0.779237
v 0.282502 -0.193105 0.808247
v 0.098428 -0.326845 0.282152
v 0.286338 -0.326845 0.793842
v 0.305645 -0.193105 0.825216
v 0.137806 -0.193105 0.210873
v 0.130081 -0.326845 0.214273
v 0.342090 -0.193105 0.819839
v 0.333520 -0.193105 0.832037
v 0.086679 -0.326845 0.284757
v 0.282164 -0.193105 0.786963
v 0.289452 -0.326845 0.814900
v 0.100790 -0.326845 0.290255
v 0.291375 -0.193105 0.800117
v 0.297211 -0.193105 0.820589
v 0.350043 -0.326845 0.818615
v 0.343139 -0.193105 0.831827
v 0.323957 -0.326845 0.830990
v 0.314612 -0.326845 0.828703
v 0.086679 -0.193105 0.284757
v 0.276481 -0.193105 0.800744
v 0.286338 -0.193105 0.793842
v 0.278764 -0.326845 0.779237
v 0.282502 -0.326845 0.808247
v 0.297211 -0.326845 0.820589
v 0.282164 -0.326845 0.786963
v 0.305645 -0.326845 0.825216
v 0.137806 -0.326845 0.210873
v 0.358146 -0.326845 0.816253
v 0.352648 -0.193105 0.830364
v 0.350043 -0.193105 0.818615
v 0.333520 -0.326845 0.832037
v 0.206551 -0.326845 0.185853
v 0.089371 -0.326845 0.293993
v 0.343139 -0.326845 0.831827
v 0.089371 -0.193105 0.293993
v 0.271490 -0.193105 0.792519
v 0.276481 -0.326845 0.800744
v 0.426891 -0.326845 0.791233
v 0.358146 -0.193105 0.816253
v 0.361884 -0.193105 0.827672
v 0.352648 -0.326845 0.830364
v 0.267615 -0.326845 0.783713
v 0.267615 -0.193105 0.783713
v 0.271490 -0.326845 0.792519
v 0.361884 -0.326845 0.827672
vn -0.843391 0.000000 -0.537300
vn -0.766044 0.000000 -0.642788
vn 0.843391 0.000000 0.537300
vn 0.766044 0.000000 0.642788
vn -0.906308 0.000000 -0.422619
vn 0.906308 0.000000 0.422619
vn 0.000000 1.000000 0.000000
vn 0.000000 -1.000000 0.000000
vn -0.675590 0.000000 -0.737278
vn 0.675590 0.000000 0.737278
vn -0.953717 0.000000 -0.300706
vn 0.953717 0.000000 0.300706
vn -0.573576 0.000000 -0.819152
vn 0.573576 0.000000 0.819152
vn 0.984808 0.000000 0.173649
vn -0.984808 0.000000 -0.173649
vn -0.461748 0.000000 -0.887011
vn 0.461748 0.000000 0.887011
vn 0.999048 0.000000 0.043619
vn -0.999048 0.000000 -0.043619
vn 0.996195 0.000000 -0.087156
vn -0.996195 0.000000 0.087156
vn 0.300706 0.000000 -0.953717
vn 0.173649 0.000000 -0.984808
vn -0.300706 0.000000 0.953717
vn -0.173649 0.000000 0.984808
vn 0.422619 0.000000 -0.906308
vn -0.422619 0.000000 0.906308
vn -0.402746 0.000000 -0.915312
vn 0.402746 0.000000 0.915312
vn 0.537300 0.000000 -0.843391
vn -0.537300 0.000000 0.843391
vn 0.642788 0.000000 -0.766044
vn -0.642788 0.000000 0.766044
vn 0.043619 0.000000 -0.999048
vn -0.043619 0.000000 0.999048
vn 0.976296 0.000000 -0.216440
vn -0.976296 0.000000 0.216440
vn -0.087156 0.000000 -0.996195
vn 0.087156 0.000000 0.996195
vn -0.342020 0.000000 -0.939693
vn 0.342020 0.000000 0.939693
vn 0.960050 0.000000 -0.279829
vn -0.960050 0.000000 0.279829
vn 0.737278 0.000000 -0.675590
vn -0.737278 0.000000 0.675590
vn 0.939693 0.000000 -0.342020
vn -0.939693 0.000000 0.342020
vn 0.819152 0.000000 -0.573576
vn -0.819152 0.000000 0.573576
vn -0.216440 0.000000 -0.976296
vn 0.216440 0.000000 0.976296
vn 0.887011 0.000000 -0.461748
vn 0.915312 0.000000 -0.402746
vn -0.915312 0.000000 0.402746
vn -0.887011 0.000000 0.461748
vn -0.279829 0.000000 -0.960050
vn 0.279829 0.000000 0.960050
usemtl material-0
f 1//1 2//2 3//1
f 2//2 1//1 4//2
f 3//3 2//4 1//3
f 4//4 1//3 2//4
f 3//1 5//5 1//1
f 1//3 5//6 3//3
f 6//7 4//7 1//7
f 1//8 4//8 6//8
f 4//2 7//9 2//2
f 2//4 7//10 4//4
f 5//5 3//1 8//5
f 8//6 3//3 5//6
f 9//7 1//7 5//7
f 5//8 1//8 9//8
f 10//7 4//7 6//7
f 6//8 4//8 10//8
f 6//7 1//7 11//7
f 11//8 1//8 6//8
f 7//9 4//2 12//9
f 12//10 4//4 7//10
f 13//11 5//5 8//5
f 8//6 5//6 13//12
f 11//7 1//7 9//7
f 9//8 1//8 11//8
f 9//7 5//7 14//7
f 14//8 5//8 9//8
f 10//7 12//7 4//7
f 4//8 12//8 10//8
f 15//3 10//4 6//3
f 6//1 10//2 15//1
f 16//6 6//3 11//6
f 11//5 6//1 16//5
f 12//9 17//13 7//9
f 7//10 17//14 12//10
f 5//5 13//11 18//11
f 18//12 13//12 5//6
f 9//12 16//6 11//6
f 11//5 16//5 9//11
f 14//7 5//7 18//7
f 18//8 5//8 14//8
f 14//15 19//12 9//12
f 9//11 19//11 14//16
f 20//7 12//7 10//7
f 10//8 12//8 20//8
f 10//4 15//3 21//4
f 21//2 15//1 10//2
f 6//3 16//6 15//3
f 15//1 16//5 6//1
f 17//13 12//9 22//13
f 22//14 12//10 17//14
f 23//16 18//11 13//11
f 13//12 18//12 23//15
f 16//6 9//12 19//12
f 19//11 9//11 16//5
f 14//7 18//7 24//7
f 24//8 18//8 14//8
f 19//12 14//15 25//15
f 25//16 14//16 19//11
f 20//7 22//7 12//7
f 12//8 22//8 20//8
f 21//4 20//10 10//4
f 10//2 20//9 21//2
f 26//7 21//7 15//7
f 15//8 21//8 26//8
f 27//7 15//7 16//7
f 16//8 15//8 27//8
f 22//13 28//17 17//13
f 17//14 28//18 22//14
f 18//11 23//16 29//16
f 29//15 23//15 18//12
f 30//7 16//7 19//7
f 19//8 16//8 30//8
f 24//7 18//7 31//7
f 31//8 18//8 24//8
f 24//19 25//15 14//15
f 14//16 25//16 24//20
f 30//7 19//7 25//7
f 25//8 19//8 30//8
f 32//7 22//7 20//7
f 20//8 22//8 32//8
f 20//10 21//4 33//10
f 33//9 21//2 20//9
f 26//7 33//7 21//7
f 21//8 33//8 26//8
f 26//7 15//7 27//7
f 27//8 15//8 26//8
f 27//7 16//7 34//7
f 34//8 16//8 27//8
f 28//17 22//13 35//17
f 35//18 22//14 28//18
f 36//20 29//16 23//16
f 23//15 29//15 36//19
f 31//7 18//7 29//7
f 29//8 18//8 31//8
f 34//7 16//7 30//7
f 30//8 16//8 34//8
f 31//21 37//19 24//19
f 24//20 37//20 31//22
f 25//15 24//19 37//19
f 37//20 24//20 25//16
f 30//7 25//7 38//7
f 38//8 25//8 30//8
f 32//7 35//7 22//7
f 22//8 35//8 32//8
f 33//10 32//14 20//10
f 20//9 32//13 33//9
f 39//7 33//7 26//7
f 26//8 33//8 39//8
f 40//23 26//24 27//23
f 27//25 26//26 40//25
f 41//27 27//23 34//27
f 34//28 27//25 41//28
f 35//17 42//29 28//17
f 28//18 42//30 35//18
f 29//16 36//20 43//20
f 43//19 36//19 29//15
f 31//7 29//7 44//7
f 44//8 29//8 31//8
f 30//31 41//27 34//27
f 34//28 41//28 30//32
f 37//19 31//21 45//21
f 45//22 31//22 37//20
f 38//7 25//7 37//7
f 37//8 25//8 38//8
f 38//33 46//31 30//31
f 30//32 46//32 38//34
f 47//7 35//7 32//7
f 32//8 35//8 47//8
f 32//14 33//10 48//14
f 48//13 33//9 32//13
f 49//7 33//7 39//7
f 39//8 33//8 49//8
f 50//24 39//35 26//24
f 26//26 39//36 50//26
f 26//24 40//23 50//24
f 50//26 40//25 26//26
f 27//23 41//27 40//23
f 40//25 41//28 27//25
f 42//29 35//17 51//29
f 51//30 35//18 42//30
f 52//22 43//20 36//20
f 36//19 43//19 52//21
f 53//7 29//7 43//7
f 43//8 29//8 53//8
f 44//7 29//7 54//7
f 54//8 29//8 44//8
f 44//37 45//21 31//21
f 31//22 45//22 44//38
f 41//27 30//31 46//31
f 46//32 30//32 41//28
f 55//7 37//7 45//7
f 45//8 37//8 55//8
f 38//7 37//7 55//7
f 55//8 37//8 38//8
f 46//31 38//33 56//33
f 56//34 38//34 46//32
f 47//7 51//7 35//7
f 35//8 51//8 47//8
f 48//14 47//18 32//14
f 32//13 47//17 48//13
f 49//7 48//7 33//7
f 33//8 48//8 49//8
f 57//35 49//39 39//35
f 39//36 49//40 57//36
f 39//35 50//24 57//35
f 57//36 50//26 39//36
f 58//7 50//7 40//7
f 40//8 50//8 58//8
f 59//7 40//7 41//7
f 41//8 40//8 59//8
f 51//41 60//41 42//41
f 42//42 60//42 51//42
f 43//20 52//22 61//22
f 61//21 52//21 43//19
f 53//7 62//7 29//7
f 29//8 62//8 53//8
f 53//7 43//7 63//7
f 63//8 43//8 53//8
f 54//7 29//7 62//7
f 62//8 29//8 54//8
f 54//43 64//37 44//37
f 44//38 64//38 54//44
f 45//21 44//37 64//37
f 64//38 44//38 45//22
f 59//7 41//7 46//7
f 46//8 41//8 59//8
f 55//7 45//7 65//7
f 65//8 45//8 55//8
f 55//45 56//33 38//33
f 38//34 56//34 55//46
f 66//7 46//7 56//7
f 56//8 46//8 66//8
f 47//18 48//14 68//18
f 68//17 48//13 47//17
f 49//7 68//7 48//7
f 48//8 68//8 49//8
f 49//39 57//35 69//39
f 69//40 57//36 49//40
f 70//7 57//7 50//7
f 50//8 57//8 70//8
f 70//7 50//7 58//7
f 58//8 50//8 70//8
f 58//7 40//7 59//7
f 59//8 40//8 58//8
f 71//38 61//22 52//22
f 52//21 61//21 71//37
f 63//7 43//7 61//7
f 61//8 43//8 63//8
f 53//7 72//7 62//7
f 62//8 72//8 53//8
f 63//46 73//34 53//34
f 53//33 73//33 63//45
f 62//47 74//47 54//47
f 54//48 74//48 62//48
f 64//37 54//43 74//43
f 74//44 54//44 64//38
f 65//7 45//7 64//7
f 64//8 45//8 65//8
f 59//7 46//7 66//7
f 66//8 46//8 59//8
f 65//49 75//45 55//45
f 55//46 75//46 65//50
f 56//33 55//45 75//45
f 75//46 55//46 56//34
f 66//7 56//7 76//7
f 76//8 56//8 66//8
f 68//18 67//30 47//18
f 47//17 67//29 68//17
f 77//7 68//7 49//7
f 49//8 68//8 77//8
f 78//7 69//7 57//7
f 57//8 69//8 78//8
f 69//39 77//51 49//39
f 49//40 77//52 69//40
f 78//7 57//7 70//7
f 70//8 57//8 78//8
f 79//26 70//36 58//26
f 58//24 70//35 79//24
f 80//25 58//26 59//25
f 59//23 58//24 80//23
f 61//22 71//38 81//38
f 81//37 71//37 61//21
f 63//7 61//7 82//7
f 82//8 61//8 63//8
f 53//7 83//7 72//7
f 72//8 83//8 53//8
f 72//53 84//54 62//54
f 62//55 84//55 72//56
f 73//34 63//46 85//46
f 85//45 63//45 73//33
f 86//32 53//34 73//34
f 73//33 53//33 86//31
f 74//47 62//47 84//47
f 84//48 62//48 74//48
f 87//7 64//7 74//7
f 74//8 64//8 87//8
f 65//7 64//7 87//7
f 87//8 64//8 65//8
f 88//28 59//25 66//28
f 66//27 59//23 88//27
f 75//45 65//49 83//49
f 83//50 65//50 75//46
f 76//7 56//7 75//7
f 75//8 56//8 76//8
f 76//32 88//28 66//28
f 66//27 88//27 76//31
f 67//30 68//18 89//30
f 89//29 68//17 67//29
f 90//7 68//7 77//7
f 77//8 68//8 90//8
f 91//7 69//7 78//7
f 78//8 69//8 91//8
f 77//51 69//39 92//51
f 92//52 69//40 77//52
f 93//36 78//40 70//36
f 70//35 78//39 93//35
f 70//36 79//26 93//36
f 93//35 79//24 70//35
f 58//26 80//25 79//26
f 79//24 80//23 58//24
f 59//25 88//28 80//25
f 80//23 88//27 59//23
f 95//44 81//38 71//38
f 71//37 81//37 95//43
f 82//7 61//7 81//7
f 81//8 61//8 82//8
f 82//50 85//46 63//46
f 63//45 85//45 82//49
f 76//7 83//7 53//7
f 53//8 83//8 76//8
f 83//49 87//53 72//53
f 72//56 87//56 83//50
f 84//54 72//53 87//53
f 87//56 72//56 84//55
f 53//34 86//32 76//32
f 76//31 86//31 53//33
f 87//7 74//7 84//7
f 84//8 74//8 87//8
f 87//53 83//49 65//49
f 65//50 83//50 87//56
f 76//7 75//7 83//7
f 83//8 75//8 76//8
f 88//28 76//32 86//32
f 86//31 76//31 88//27
f 90//7 89//7 68//7
f 68//8 89//8 90//8
f 92//51 90//57 77//51
f 77//52 90//58 92//52
f 91//7 92//7 69//7
f 69//8 92//8 91//8
f 96//40 91//52 78//40
f 78//39 91//51 96//39
f 78//40 93//36 96//40
f 96//39 93//35 78//39
f 81//38 95//44 97//44
f 97//43 95//43 81//37
f 82//7 81//7 98//7
f 98//8 81//8 82//8
f 85//46 82//50 99//50
f 99//49 82//49 85//45
f 100//7 89//7 90//7
f 90//8 89//8 100//8
f 90//57 92//51 101//57
f 101//58 92//52 90//58
f 102//7 92//7 91//7
f 91//8 92//8 102//8
f 91//52 96//40 103//52
f 103//51 96//39 91//51
f 89//7 100//7 94//7
f 94//8 100//8 89//8
f 104//48 97//48 95//48
f 95//47 97//47 104//47
f 98//7 81//7 97//7
f 97//8 81//8 98//8
f 98//56 99//50 82//50
f 82//49 99//49 98//53
f 101//41 100//41 90//41
f 90//42 100//42 101//42
f 103//52 102//58 91//52
f 91//51 102//57 103//51
f 97//48 104//48 105//48
f 105//47 104//47 97//47
f 98//7 97//7 105//7
f 105//8 97//8 98//8
f 99//50 98//56 106//56
f 106//53 98//53 99//49
f 102//58 103//52 107//58
f 107//57 103//51 102//57
f 106//56 105//55 104//55
f 104//54 105//54 106//53
f 105//55 106//56 98//56
f 98//53 106//53 105//54