mtllib new-5.mtl
v 0.243333 0.416341 -0.015520
v -0.063773 0.416341 -0.015520
v 0.243333 0.078014 -0.015520
v -0.063773 0.078014 -0.100680
v -0.063773 0.416341 -0.392272
v -0.063773 0.078014 -0.015520
v 0.243333 0.078014 -0.058100
v -0.063773 0.078014 -0.058100
v -0.063773 0.082517 -0.392272
v -0.063773 0.416341 -0.058100
v -0.063773 0.082517 -0.100680
vn 0.000000 -1.000000 0.000000
vn 0.000000 1.000000 0.000000
vn 0.000000 0.000000 -1.000000
vn -1.000000 0.000000 0.000000
vn 1.000000 0.000000 0.000000
vn 0.000000 0.000000 1.000000
usemtl material-0
f 1//3 6//3 2//3
f 6//3 1//3 3//3
f 6//5 10//5 2//5
f 7//2 6//2 3//2
f 11//5 8//5 4//5
f 5//5 11//5 9//5
f 10//5 6//5 8//5
f 6//2 7//2 8//2
f 8//5 11//5 10//5
f 10//5 11//5 5//5
usemtl material-3
f 2//6 6//6 1//6
f 3//6 1//6 6//6
f 2//4 10//4 6//4
f 3//1 6//1 7//1
f 4//4 8//4 11//4
f 9//4 11//4 5//4
f 8//4 6//4 10//4
f 8//1 7//1 6//1
f 10//4 11//4 8//4
f 5//4 11//4 10//4