# SSTK version 0.8.0
# 164
mtllib original-164.mtl
o Group56/mesh85/mesh85-geometry/material_2#mesh85-geometry
v -0.126159 0.733900 -0.270526
v -0.117294 0.733900 -0.252018
v -0.121525 0.733900 -0.191839
v -0.121525 0.733900 -0.191839
v -0.117294 0.733900 -0.252018
v -0.114896 0.733900 -0.211286
v -0.132890 0.733900 -0.174795
v -0.126159 0.733900 -0.270526
v -0.121525 0.733900 -0.191839
v -0.113452 0.733900 -0.231812
v -0.114896 0.733900 -0.211286
v -0.117294 0.733900 -0.252018
v -0.139443 0.733900 -0.286075
v -0.126159 0.733900 -0.270526
v -0.132890 0.733900 -0.174795
v -0.156241 0.733900 -0.297606
v -0.139443 0.733900 -0.286075
v -0.148215 0.733900 -0.161317
v -0.148215 0.733900 -0.161317
v -0.139443 0.733900 -0.286075
v -0.132890 0.733900 -0.174795
v -0.166456 0.733900 -0.152322
v -0.156241 0.733900 -0.297606
v -0.148215 0.733900 -0.161317
v -0.175407 0.733900 -0.304333
v -0.156241 0.733900 -0.297606
v -0.166456 0.733900 -0.152322
v -0.186370 0.733900 -0.148424
v -0.175407 0.733900 -0.304333
v -0.166456 0.733900 -0.152322
v -0.195637 0.733900 -0.305798
v -0.175407 0.733900 -0.304333
v -0.186370 0.733900 -0.148424
v -0.206599 0.733900 -0.149889
v -0.195637 0.733900 -0.305798
v -0.186370 0.733900 -0.148424
v -0.215550 0.733900 -0.301900
v -0.195637 0.733900 -0.305798
v -0.206599 0.733900 -0.149889
v -0.225766 0.733900 -0.156616
v -0.215550 0.733900 -0.301900
v -0.206599 0.733900 -0.149889
v -0.233791 0.733900 -0.292905
v -0.215550 0.733900 -0.301900
v -0.225766 0.733900 -0.156616
v -0.242563 0.733900 -0.168147
v -0.233791 0.733900 -0.292905
v -0.225766 0.733900 -0.156616
v -0.249116 0.733900 -0.279426
v -0.233791 0.733900 -0.292905
v -0.242563 0.733900 -0.168147
v -0.255847 0.733900 -0.183696
v -0.249116 0.733900 -0.279426
v -0.242563 0.733900 -0.168147
v -0.260481 0.733900 -0.262383
v -0.249116 0.733900 -0.279426
v -0.255847 0.733900 -0.183696
v -0.264712 0.733900 -0.202204
v -0.260481 0.733900 -0.262383
v -0.255847 0.733900 -0.183696
v -0.267111 0.733900 -0.242935
v -0.260481 0.733900 -0.262383
v -0.264712 0.733900 -0.202204
v -0.268554 0.733900 -0.222410
v -0.267111 0.733900 -0.242935
v -0.264712 0.733900 -0.202204
v -0.121525 0.733900 -0.191839
v -0.117294 0.733900 -0.252018
v -0.126159 0.733900 -0.270526
v -0.114896 0.733900 -0.211286
v -0.117294 0.733900 -0.252018
v -0.121525 0.733900 -0.191839
v -0.121525 0.733900 -0.191839
v -0.126159 0.733900 -0.270526
v -0.132890 0.733900 -0.174795
v -0.117294 0.733900 -0.252018
v -0.114896 0.733900 -0.211286
v -0.113452 0.733900 -0.231812
v -0.132890 0.733900 -0.174795
v -0.126159 0.733900 -0.270526
v -0.139443 0.733900 -0.286075
v -0.148215 0.733900 -0.161317
v -0.139443 0.733900 -0.286075
v -0.156241 0.733900 -0.297606
v -0.132890 0.733900 -0.174795
v -0.139443 0.733900 -0.286075
v -0.148215 0.733900 -0.161317
v -0.148215 0.733900 -0.161317
v -0.156241 0.733900 -0.297606
v -0.166456 0.733900 -0.152322
v -0.166456 0.733900 -0.152322
v -0.156241 0.733900 -0.297606
v -0.175407 0.733900 -0.304333
v -0.166456 0.733900 -0.152322
v -0.175407 0.733900 -0.304333
v -0.186370 0.733900 -0.148424
v -0.186370 0.733900 -0.148424
v -0.175407 0.733900 -0.304333
v -0.195637 0.733900 -0.305798
v -0.186370 0.733900 -0.148424
v -0.195637 0.733900 -0.305798
v -0.206599 0.733900 -0.149889
v -0.206599 0.733900 -0.149889
v -0.195637 0.733900 -0.305798
v -0.215550 0.733900 -0.301900
v -0.206599 0.733900 -0.149889
v -0.215550 0.733900 -0.301900
v -0.225766 0.733900 -0.156616
v -0.225766 0.733900 -0.156616
v -0.215550 0.733900 -0.301900
v -0.233791 0.733900 -0.292905
v -0.225766 0.733900 -0.156616
v -0.233791 0.733900 -0.292905
v -0.242563 0.733900 -0.168147
v -0.242563 0.733900 -0.168147
v -0.233791 0.733900 -0.292905
v -0.249116 0.733900 -0.279426
v -0.242563 0.733900 -0.168147
v -0.249116 0.733900 -0.279426
v -0.255847 0.733900 -0.183696
v -0.255847 0.733900 -0.183696
v -0.249116 0.733900 -0.279426
v -0.260481 0.733900 -0.262383
v -0.255847 0.733900 -0.183696
v -0.260481 0.733900 -0.262383
v -0.264712 0.733900 -0.202204
v -0.264712 0.733900 -0.202204
v -0.260481 0.733900 -0.262383
v -0.267111 0.733900 -0.242935
v -0.264712 0.733900 -0.202204
v -0.267111 0.733900 -0.242935
v -0.268554 0.733900 -0.222410
vt 0 0
vt 6.135333061218262 5.17317008972168
vt 6.126223087310791 5.043440818786621
vt 6.145309925079346 5.003542900085449
vt 6.121058940887451 5.131247043609619
vt 6.159801959991455 5.209911823272705
vt 6.1179518699646 5.08699893951416
vt 6.173910140991211 4.970023155212402
vt 6.1927971839904785 5.2389678955078125
vt 6.210075855255127 4.945165157318115
vt 6.232069969177246 5.258358001708984
vt 6.251341819763184 4.930663108825684
vt 6.27494478225708 5.26676082611084
vt 6.294897079467773 4.927505970001221
vt 6.31850004196167 5.263604164123535
vt 6.337771892547607 4.935908794403076
vt 6.359766006469727 5.24910306930542
vt 6.377045154571533 4.9552998542785645
vt 6.395932197570801 5.224245071411133
vt 6.410039901733398 4.984355926513672
vt 6.424532890319824 5.190723896026611
vt 6.434508800506592 5.021097183227539
vt 6.4436187744140625 5.1508259773254395
vt 6.448782920837402 5.063021183013916
vt 6.451889991760254 5.107268810272217
vn 0 -1 0
vn 0 1 0
usemtl material_0_0
f 1/1/1 2/1/1 3/1/1
f 4/1/1 5/1/1 6/1/1
f 7/1/1 8/1/1 9/1/1
f 10/1/1 11/1/1 12/1/1
f 13/1/1 14/1/1 15/1/1
f 16/1/1 17/1/1 18/1/1
f 19/1/1 20/1/1 21/1/1
f 22/1/1 23/1/1 24/1/1
f 25/1/1 26/1/1 27/1/1
f 28/1/1 29/1/1 30/1/1
f 31/1/1 32/1/1 33/1/1
f 34/1/1 35/1/1 36/1/1
f 37/1/1 38/1/1 39/1/1
f 40/1/1 41/1/1 42/1/1
f 43/1/1 44/1/1 45/1/1
f 46/1/1 47/1/1 48/1/1
f 49/1/1 50/1/1 51/1/1
f 52/1/1 53/1/1 54/1/1
f 55/1/1 56/1/1 57/1/1
f 58/1/1 59/1/1 60/1/1
f 61/1/1 62/1/1 63/1/1
f 64/1/1 65/1/1 66/1/1
usemtl material_1_0
f 67/2/2 68/3/2 69/4/2
f 70/5/2 71/3/2 72/2/2
f 73/2/2 74/4/2 75/6/2
f 76/3/2 77/5/2 78/7/2
f 79/6/2 80/4/2 81/8/2
f 82/9/2 83/8/2 84/10/2
f 85/6/2 86/8/2 87/9/2
f 88/9/2 89/10/2 90/11/2
f 91/11/2 92/10/2 93/12/2
f 94/11/2 95/12/2 96/13/2
f 97/13/2 98/12/2 99/14/2
f 100/13/2 101/14/2 102/15/2
f 103/15/2 104/14/2 105/16/2
f 106/15/2 107/16/2 108/17/2
f 109/17/2 110/16/2 111/18/2
f 112/17/2 113/18/2 114/19/2
f 115/19/2 116/18/2 117/20/2
f 118/19/2 119/20/2 120/21/2
f 121/21/2 122/20/2 123/22/2
f 124/21/2 125/22/2 126/23/2
f 127/23/2 128/22/2 129/24/2
f 130/23/2 131/24/2 132/25/2
