# SSTK version 0.8.0
# 150
mtllib original-150.mtl
o mesh29/mesh29-geometry/material_1/component_0#mesh29-geometry
v -0.034510 0.582099 0.529372
v -0.037414 0.589110 0.505597
v -0.037414 0.589110 0.529372
v -0.037414 0.589110 0.529372
v -0.037414 0.589110 0.505597
v -0.034510 0.582099 0.529372
v -0.037414 0.589110 0.529372
v -0.042034 0.595131 0.505597
v -0.042034 0.595131 0.529372
v -0.042034 0.595131 0.529372
v -0.042034 0.595131 0.505597
v -0.037414 0.589110 0.529372
v -0.033519 0.574574 0.529372
v -0.034510 0.582099 0.505597
v -0.034510 0.582099 0.529372
v -0.034510 0.582099 0.529372
v -0.034510 0.582099 0.505597
v -0.033519 0.574574 0.529372
v -0.037414 0.589110 0.505597
v -0.034510 0.582099 0.529372
v -0.034510 0.582099 0.505597
v -0.034510 0.582099 0.505597
v -0.034510 0.582099 0.529372
v -0.037414 0.589110 0.505597
v -0.042034 0.595131 0.505597
v -0.037414 0.589110 0.529372
v -0.037414 0.589110 0.505597
v -0.037414 0.589110 0.505597
v -0.037414 0.589110 0.529372
v -0.042034 0.595131 0.505597
v -0.042034 0.595131 0.505597
v -0.048055 0.599751 0.529372
v -0.042034 0.595131 0.529372
v -0.042034 0.595131 0.529372
v -0.048055 0.599751 0.529372
v -0.042034 0.595131 0.505597
v -0.034510 0.567050 0.529372
v -0.033519 0.574574 0.505597
v -0.033519 0.574574 0.529372
v -0.033519 0.574574 0.529372
v -0.033519 0.574574 0.505597
v -0.034510 0.567050 0.529372
v -0.034510 0.582099 0.505597
v -0.033519 0.574574 0.529372
v -0.033519 0.574574 0.505597
v -0.033519 0.574574 0.505597
v -0.033519 0.574574 0.529372
v -0.034510 0.582099 0.505597
v -0.037414 0.560039 0.529372
v -0.034510 0.567050 0.505597
v -0.034510 0.567050 0.529372
v -0.034510 0.567050 0.529372
v -0.034510 0.567050 0.505597
v -0.037414 0.560039 0.529372
v -0.048055 0.599751 0.529372
v -0.042034 0.595131 0.505597
v -0.048055 0.599751 0.505597
v -0.048055 0.599751 0.505597
v -0.042034 0.595131 0.505597
v -0.048055 0.599751 0.529372
v -0.033519 0.574574 0.505597
v -0.034510 0.567050 0.529372
v -0.034510 0.567050 0.505597
v -0.034510 0.567050 0.505597
v -0.034510 0.567050 0.529372
v -0.033519 0.574574 0.505597
v -0.034510 0.567050 0.505597
v -0.037414 0.560039 0.529372
v -0.037414 0.560039 0.505597
v -0.037414 0.560039 0.505597
v -0.037414 0.560039 0.529372
v -0.034510 0.567050 0.505597
v -0.055066 0.602655 0.505597
v -0.048055 0.599751 0.529372
v -0.048055 0.599751 0.505597
v -0.048055 0.599751 0.505597
v -0.048055 0.599751 0.529372
v -0.055066 0.602655 0.505597
v -0.042034 0.554018 0.529372
v -0.037414 0.560039 0.505597
v -0.037414 0.560039 0.529372
v -0.037414 0.560039 0.529372
v -0.037414 0.560039 0.505597
v -0.042034 0.554018 0.529372
v -0.048055 0.599751 0.529372
v -0.055066 0.602655 0.505597
v -0.055066 0.602655 0.529372
v -0.055066 0.602655 0.529372
v -0.055066 0.602655 0.505597
v -0.048055 0.599751 0.529372
v -0.037414 0.560039 0.505597
v -0.042034 0.554018 0.529372
v -0.042034 0.554018 0.505597
v -0.042034 0.554018 0.505597
v -0.042034 0.554018 0.529372
v -0.037414 0.560039 0.505597
v -0.055066 0.602655 0.505597
v -0.062591 0.603646 0.529372
v -0.055066 0.602655 0.529372
v -0.055066 0.602655 0.529372
v -0.062591 0.603646 0.529372
v -0.055066 0.602655 0.505597
v -0.048055 0.549398 0.529372
v -0.042034 0.554018 0.505597
v -0.042034 0.554018 0.529372
v -0.042034 0.554018 0.529372
v -0.042034 0.554018 0.505597
v -0.048055 0.549398 0.529372
v -0.062591 0.603646 0.529372
v -0.055066 0.602655 0.505597
v -0.062591 0.603646 0.505597
v -0.062591 0.603646 0.505597
v -0.055066 0.602655 0.505597
v -0.062591 0.603646 0.529372
v -0.042034 0.554018 0.505597
v -0.048055 0.549398 0.529372
v -0.048055 0.549398 0.505597
v -0.048055 0.549398 0.505597
v -0.048055 0.549398 0.529372
v -0.042034 0.554018 0.505597
v -0.062591 0.603646 0.505597
v -0.070115 0.602655 0.529372
v -0.062591 0.603646 0.529372
v -0.062591 0.603646 0.529372
v -0.070115 0.602655 0.529372
v -0.062591 0.603646 0.505597
v -0.055066 0.546493 0.505597
v -0.048055 0.549398 0.529372
v -0.055066 0.546493 0.529372
v -0.055066 0.546493 0.529372
v -0.048055 0.549398 0.529372
v -0.055066 0.546493 0.505597
v -0.048055 0.549398 0.529372
v -0.055066 0.546493 0.505597
v -0.048055 0.549398 0.505597
v -0.048055 0.549398 0.505597
v -0.055066 0.546493 0.505597
v -0.048055 0.549398 0.529372
v -0.070115 0.602655 0.529372
v -0.062591 0.603646 0.505597
v -0.070115 0.602655 0.505597
v -0.070115 0.602655 0.505597
v -0.062591 0.603646 0.505597
v -0.070115 0.602655 0.529372
v -0.062591 0.545503 0.529372
v -0.055066 0.546493 0.505597
v -0.055066 0.546493 0.529372
v -0.055066 0.546493 0.529372
v -0.055066 0.546493 0.505597
v -0.062591 0.545503 0.529372
v -0.070115 0.602655 0.505597
v -0.077126 0.599751 0.529372
v -0.070115 0.602655 0.529372
v -0.070115 0.602655 0.529372
v -0.077126 0.599751 0.529372
v -0.070115 0.602655 0.505597
v -0.055066 0.546493 0.505597
v -0.062591 0.545503 0.529372
v -0.062591 0.545503 0.505597
v -0.062591 0.545503 0.505597
v -0.062591 0.545503 0.529372
v -0.055066 0.546493 0.505597
v -0.077126 0.599751 0.529372
v -0.070115 0.602655 0.505597
v -0.077126 0.599751 0.505597
v -0.077126 0.599751 0.505597
v -0.070115 0.602655 0.505597
v -0.077126 0.599751 0.529372
v -0.070115 0.546493 0.529372
v -0.062591 0.545503 0.505597
v -0.062591 0.545503 0.529372
v -0.062591 0.545503 0.529372
v -0.062591 0.545503 0.505597
v -0.070115 0.546493 0.529372
v -0.077126 0.599751 0.505597
v -0.083147 0.595131 0.529372
v -0.077126 0.599751 0.529372
v -0.077126 0.599751 0.529372
v -0.083147 0.595131 0.529372
v -0.077126 0.599751 0.505597
v -0.077126 0.549398 0.505597
v -0.070115 0.546493 0.529372
v -0.077126 0.549398 0.529372
v -0.077126 0.549398 0.529372
v -0.070115 0.546493 0.529372
v -0.077126 0.549398 0.505597
v -0.062591 0.545503 0.505597
v -0.070115 0.546493 0.529372
v -0.070115 0.546493 0.505597
v -0.070115 0.546493 0.505597
v -0.070115 0.546493 0.529372
v -0.062591 0.545503 0.505597
v -0.083147 0.554018 0.505597
v -0.077126 0.549398 0.529372
v -0.083147 0.554018 0.529372
v -0.083147 0.554018 0.529372
v -0.077126 0.549398 0.529372
v -0.083147 0.554018 0.505597
v -0.083147 0.595131 0.529372
v -0.077126 0.599751 0.505597
v -0.083147 0.595131 0.505597
v -0.083147 0.595131 0.505597
v -0.077126 0.599751 0.505597
v -0.083147 0.595131 0.529372
v -0.070115 0.546493 0.529372
v -0.077126 0.549398 0.505597
v -0.070115 0.546493 0.505597
v -0.070115 0.546493 0.505597
v -0.077126 0.549398 0.505597
v -0.070115 0.546493 0.529372
v -0.077126 0.549398 0.529372
v -0.083147 0.554018 0.505597
v -0.077126 0.549398 0.505597
v -0.077126 0.549398 0.505597
v -0.083147 0.554018 0.505597
v -0.077126 0.549398 0.529372
v -0.083147 0.595131 0.529372
v -0.087767 0.589110 0.505597
v -0.087767 0.589110 0.529372
v -0.087767 0.589110 0.529372
v -0.087767 0.589110 0.505597
v -0.083147 0.595131 0.529372
v -0.087767 0.589110 0.529372
v -0.090672 0.582099 0.505597
v -0.090672 0.582099 0.529372
v -0.090672 0.582099 0.529372
v -0.090672 0.582099 0.505597
v -0.087767 0.589110 0.529372
v -0.087767 0.560039 0.529372
v -0.083147 0.554018 0.505597
v -0.083147 0.554018 0.529372
v -0.083147 0.554018 0.529372
v -0.083147 0.554018 0.505597
v -0.087767 0.560039 0.529372
v -0.087767 0.589110 0.505597
v -0.083147 0.595131 0.529372
v -0.083147 0.595131 0.505597
v -0.083147 0.595131 0.505597
v -0.083147 0.595131 0.529372
v -0.087767 0.589110 0.505597
v -0.090672 0.582099 0.505597
v -0.087767 0.589110 0.529372
v -0.087767 0.589110 0.505597
v -0.087767 0.589110 0.505597
v -0.087767 0.589110 0.529372
v -0.090672 0.582099 0.505597
v -0.091662 0.574574 0.505597
v -0.090672 0.582099 0.529372
v -0.090672 0.582099 0.505597
v -0.090672 0.582099 0.505597
v -0.090672 0.582099 0.529372
v -0.091662 0.574574 0.505597
v -0.090672 0.582099 0.529372
v -0.091662 0.574574 0.505597
v -0.091662 0.574574 0.529372
v -0.091662 0.574574 0.529372
v -0.091662 0.574574 0.505597
v -0.090672 0.582099 0.529372
v -0.083147 0.554018 0.505597
v -0.087767 0.560039 0.529372
v -0.087767 0.560039 0.505597
v -0.087767 0.560039 0.505597
v -0.087767 0.560039 0.529372
v -0.083147 0.554018 0.505597
v -0.090672 0.567050 0.505597
v -0.091662 0.574574 0.529372
v -0.091662 0.574574 0.505597
v -0.091662 0.574574 0.505597
v -0.091662 0.574574 0.529372
v -0.090672 0.567050 0.505597
v -0.090672 0.567050 0.529372
v -0.087767 0.560039 0.505597
v -0.087767 0.560039 0.529372
v -0.087767 0.560039 0.529372
v -0.087767 0.560039 0.505597
v -0.090672 0.567050 0.529372
v -0.091662 0.574574 0.529372
v -0.090672 0.567050 0.505597
v -0.090672 0.567050 0.529372
v -0.090672 0.567050 0.529372
v -0.090672 0.567050 0.505597
v -0.091662 0.574574 0.529372
v -0.087767 0.560039 0.505597
v -0.090672 0.567050 0.529372
v -0.090672 0.567050 0.505597
v -0.090672 0.567050 0.505597
v -0.090672 0.567050 0.529372
v -0.087767 0.560039 0.505597
vt -9.89509105682373 13.823426246643066
vt -9.758084297180176 13.867106437683105
vt -9.89509105682373 13.867106437683105
vt -9.89509105682373 16.831615447998047
vt -9.758084297180176 16.875295639038086
vt -9.89509105682373 16.875295639038086
vt -9.89509105682373 9.871706008911133
vt -9.758084297180176 9.915386199951172
vt -9.89509105682373 9.915386199951172
vt -9.758084297180176 13.823426246643066
vt -9.758084297180176 16.831615447998047
vt -9.758084297180176 18.691268920898438
vt -9.89509105682373 18.734949111938477
vt -9.89509105682373 18.691268920898438
vt -9.89509105682373 5.245756149291992
vt -9.758084297180176 5.289435863494873
vt -9.89509105682373 5.289435863494873
vt -9.758084297180176 9.871706008911133
vt -9.89509105682373 0.26082900166511536
vt -9.758084297180176 0.3045090138912201
vt -9.89509105682373 0.3045090138912201
vt -9.758084297180176 18.734949111938477
vt -9.758084297180176 5.245756149291992
vt -9.758084297180176 0.26082900166511536
vt -9.758084297180176 19.3193359375
vt -9.89509105682373 19.27565574645996
vt -9.758084297180176 19.27565574645996
vt -9.89509105682373 -4.743361949920654
vt -9.758084297180176 -4.699682235717773
vt -9.89509105682373 -4.699682235717773
vt -9.89509105682373 19.3193359375
vt -9.758084297180176 -4.743361949920654
vt -9.758084297180176 18.54494857788086
vt -9.89509105682373 18.5886287689209
vt -9.89509105682373 18.54494857788086
vt -9.89509105682373 -9.425788879394531
vt -9.758084297180176 -9.382108688354492
vt -9.89509105682373 -9.382108688354492
vt -9.758084297180176 18.5886287689209
vt -9.758084297180176 -9.425788879394531
vt 9.758084297180176 -16.548946380615234
vt 9.89509105682373 -16.592626571655273
vt 9.89509105682373 -16.548946380615234
vt -9.758084297180176 -13.467351913452148
vt -9.89509105682373 -13.42367172241211
vt -9.89509105682373 -13.467351913452148
vt -9.758084297180176 -13.42367172241211
vt 9.758084297180176 -16.592626571655273
vt -9.89509105682373 -16.592626571655273
vt -9.758084297180176 -16.548946380615234
vt -9.89509105682373 -16.548946380615234
vt 9.758084297180176 -13.42367172241211
vt 9.89509105682373 -13.467351913452148
vt 9.89509105682373 -13.42367172241211
vt -9.758084297180176 -16.592626571655273
vt 9.758084297180176 -13.467351913452148
vt 9.89509105682373 18.5886287689209
vt 9.758084297180176 18.54494857788086
vt 9.89509105682373 18.54494857788086
vt 9.758084297180176 -9.382108688354492
vt 9.89509105682373 -9.425788879394531
vt 9.89509105682373 -9.382108688354492
vt 9.758084297180176 19.3193359375
vt 9.89509105682373 19.27565574645996
vt 9.89509105682373 19.3193359375
vt 9.758084297180176 18.5886287689209
vt 9.758084297180176 18.734949111938477
vt 9.89509105682373 18.691268920898438
vt 9.89509105682373 18.734949111938477
vt 9.758084297180176 -9.425788879394531
vt 9.758084297180176 19.27565574645996
vt 9.758084297180176 18.691268920898438
vt 9.89509105682373 -4.699682235717773
vt 9.758084297180176 -4.743361949920654
vt 9.89509105682373 -4.743361949920654
vt 9.89509105682373 0.3045090138912201
vt 9.758084297180176 0.26082900166511536
vt 9.89509105682373 0.26082900166511536
vt 9.89509105682373 16.875295639038086
vt 9.758084297180176 16.831615447998047
vt 9.89509105682373 16.831615447998047
vt 9.758084297180176 -4.699682235717773
vt 9.758084297180176 0.3045090138912201
vt 9.758084297180176 5.245756149291992
vt 9.89509105682373 5.289435863494873
vt 9.758084297180176 5.289435863494873
vt 9.89509105682373 5.245756149291992
vt 9.758084297180176 16.875295639038086
vt 9.758084297180176 9.871706008911133
vt 9.89509105682373 9.915386199951172
vt 9.758084297180176 9.915386199951172
vt 9.89509105682373 13.867106437683105
vt 9.758084297180176 13.823426246643066
vt 9.89509105682373 13.823426246643066
vt 9.89509105682373 9.871706008911133
vt 9.758084297180176 13.867106437683105
vn 0.9659258451755842 0.25881897461707376 0
vn 0.8660252955903434 0.5000001873976233 0
vn -0.8660252955903434 -0.5000001873976233 0
vn -0.9659258451755842 -0.25881897461707376 0
vn 0.7071067811865476 0.7071067811865476 0
vn -0.7071067811865476 -0.7071067811865476 0
vn 1 0 0
vn -1 0 0
vn 0.5000001873976233 0.8660252955903434 0
vn -0.5000001873976233 -0.8660252955903434 0
vn 0.9659258451755842 -0.25881897461707376 0
vn -0.9659258451755842 0.25881897461707376 0
vn 0.8660252955903434 -0.5000001873976233 0
vn -0.8660252955903434 0.5000001873976233 0
vn 0.25881897461707376 0.9659258451755842 0
vn -0.25881897461707376 -0.9659258451755842 0
vn 0.7071067811865476 -0.7071067811865476 0
vn -0.7071067811865476 0.7071067811865476 0
vn 0 1 0
vn 0 -1 0
vn 0.5000001873976233 -0.8660252955903434 0
vn -0.5000001873976233 0.8660252955903434 0
vn -0.25881897461707376 0.9659258451755842 0
vn 0.25881897461707376 -0.9659258451755842 0
usemtl material_0_0
f 1/1/1 2/2/2 3/3/2
f 4/3/3 5/2/3 6/1/4
f 7/4/2 8/5/5 9/6/5
f 10/6/6 11/5/6 12/4/3
f 13/7/7 14/8/1 15/9/1
f 16/9/4 17/8/4 18/7/8
f 19/2/2 20/1/1 21/10/1
f 22/10/4 23/1/4 24/2/3
f 25/5/5 26/4/2 27/11/2
f 28/11/3 29/4/3 30/5/6
f 31/12/5 32/13/9 33/14/5
f 34/14/6 35/13/10 36/12/6
f 37/15/11 38/16/7 39/17/7
f 40/17/8 41/16/8 42/15/12
f 43/8/1 44/7/7 45/18/7
f 46/18/8 47/7/8 48/8/4
f 49/19/13 50/20/11 51/21/11
f 52/21/12 53/20/12 54/19/14
f 55/13/9 56/12/5 57/22/9
f 58/22/10 59/12/6 60/13/10
f 61/16/7 62/15/11 63/23/11
f 64/23/12 65/15/12 66/16/8
f 67/20/11 68/19/13 69/24/13
f 70/24/14 71/19/14 72/20/12
f 73/25/15 74/26/9 75/27/9
f 76/27/10 77/26/10 78/25/16
f 79/28/17 80/29/13 81/30/13
f 82/30/14 83/29/14 84/28/18
f 85/26/9 86/25/15 87/31/15
f 88/31/16 89/25/16 90/26/10
f 91/29/13 92/28/17 93/32/17
f 94/32/18 95/28/18 96/29/14
f 97/33/15 98/34/19 99/35/15
f 100/35/16 101/34/20 102/33/16
f 103/36/21 104/37/17 105/38/17
f 106/38/18 107/37/18 108/36/22
f 109/34/19 110/33/15 111/39/19
f 112/39/20 113/33/16 114/34/20
f 115/37/17 116/36/21 117/40/21
f 118/40/22 119/36/22 120/37/18
f 121/41/19 122/42/23 123/43/19
f 124/43/20 125/42/24 126/41/20
f 127/44/24 128/45/21 129/46/24
f 130/46/23 131/45/22 132/44/23
f 133/45/21 134/44/24 135/47/21
f 136/47/22 137/44/23 138/45/22
f 139/42/23 140/41/19 141/48/23
f 142/48/24 143/41/20 144/42/24
f 145/49/20 146/50/24 147/51/24
f 148/51/23 149/50/23 150/49/19
f 151/52/23 152/53/22 153/54/23
f 154/54/24 155/53/21 156/52/24
f 157/50/24 158/49/20 159/55/20
f 160/55/19 161/49/19 162/50/23
f 163/53/22 164/52/23 165/56/22
f 166/56/21 167/52/24 168/53/21
f 169/57/16 170/58/20 171/59/20
f 172/59/19 173/58/19 174/57/15
f 175/60/22 176/61/18 177/62/22
f 178/62/21 179/61/17 180/60/21
f 181/63/10 182/64/16 183/65/10
f 184/65/9 185/64/15 186/63/9
f 187/58/20 188/57/16 189/66/16
f 190/66/15 191/57/15 192/58/19
f 193/67/6 194/68/10 195/69/6
f 196/69/5 197/68/9 198/67/5
f 199/61/18 200/60/22 201/70/18
f 202/70/17 203/60/21 204/61/17
f 205/64/16 206/63/10 207/71/16
f 208/71/15 209/63/9 210/64/15
f 211/68/10 212/67/6 213/72/10
f 214/72/9 215/67/5 216/68/9
f 217/73/18 218/74/14 219/75/14
f 220/75/13 221/74/13 222/73/17
f 223/76/14 224/77/12 225/78/12
f 226/78/11 227/77/11 228/76/13
f 229/79/3 230/80/6 231/81/6
f 232/81/5 233/80/5 234/79/2
f 235/74/14 236/73/18 237/82/18
f 238/82/17 239/73/17 240/74/13
f 241/77/12 242/76/14 243/83/14
f 244/83/13 245/76/13 246/77/11
f 247/84/8 248/85/12 249/86/12
f 250/86/11 251/85/11 252/84/7
f 253/85/12 254/84/8 255/87/8
f 256/87/7 257/84/7 258/85/11
f 259/80/6 260/79/3 261/88/3
f 262/88/2 263/79/2 264/80/5
f 265/89/4 266/90/8 267/91/8
f 268/91/7 269/90/7 270/89/1
f 271/92/4 272/93/3 273/94/3
f 274/94/2 275/93/2 276/92/1
f 277/90/8 278/89/4 279/95/4
f 280/95/1 281/89/1 282/90/7
f 283/93/3 284/92/4 285/96/4
f 286/96/1 287/92/1 288/93/2
