# SSTK version 0.8.0
# 144
mtllib original-144.mtl
o mesh27/mesh27-geometry/material_1/component_1#mesh27-geometry
v 0.193232 0.590984 0.535316
v 0.196920 0.562971 0.535316
v 0.196920 0.586178 0.535316
v 0.196920 0.586178 0.535316
v 0.196920 0.562971 0.535316
v 0.193232 0.590984 0.535316
v 0.196920 0.586178 0.535316
v 0.199239 0.568568 0.535316
v 0.199239 0.580581 0.535316
v 0.199239 0.580581 0.535316
v 0.199239 0.568568 0.535316
v 0.196920 0.586178 0.535316
v 0.199239 0.580581 0.535316
v 0.199239 0.568568 0.535316
v 0.200030 0.574574 0.535316
v 0.200030 0.574574 0.535316
v 0.199239 0.568568 0.535316
v 0.199239 0.580581 0.535316
v 0.193232 0.590984 0.535316
v 0.193232 0.558164 0.535316
v 0.196920 0.562971 0.535316
v 0.196920 0.562971 0.535316
v 0.193232 0.558164 0.535316
v 0.193232 0.590984 0.535316
v 0.196920 0.586178 0.535316
v 0.196920 0.562971 0.535316
v 0.199239 0.568568 0.535316
v 0.199239 0.568568 0.535316
v 0.196920 0.562971 0.535316
v 0.196920 0.586178 0.535316
v 0.188426 0.594672 0.535316
v 0.188426 0.554476 0.535316
v 0.193232 0.590984 0.535316
v 0.193232 0.590984 0.535316
v 0.188426 0.554476 0.535316
v 0.188426 0.594672 0.535316
v 0.193232 0.590984 0.535316
v 0.188426 0.554476 0.535316
v 0.193232 0.558164 0.535316
v 0.193232 0.558164 0.535316
v 0.188426 0.554476 0.535316
v 0.193232 0.590984 0.535316
v 0.182829 0.596991 0.535316
v 0.188426 0.554476 0.535316
v 0.188426 0.594672 0.535316
v 0.188426 0.594672 0.535316
v 0.188426 0.554476 0.535316
v 0.182829 0.596991 0.535316
v 0.176822 0.597781 0.535316
v 0.182829 0.552158 0.535316
v 0.182829 0.596991 0.535316
v 0.182829 0.596991 0.535316
v 0.182829 0.552158 0.535316
v 0.176822 0.597781 0.535316
v 0.170816 0.596991 0.535316
v 0.170816 0.552158 0.535316
v 0.176822 0.597781 0.535316
v 0.176822 0.597781 0.535316
v 0.170816 0.552158 0.535316
v 0.170816 0.596991 0.535316
v 0.165219 0.594672 0.535316
v 0.170816 0.552158 0.535316
v 0.170816 0.596991 0.535316
v 0.170816 0.596991 0.535316
v 0.170816 0.552158 0.535316
v 0.165219 0.594672 0.535316
v 0.160413 0.590984 0.535316
v 0.165219 0.554476 0.535316
v 0.165219 0.594672 0.535316
v 0.165219 0.594672 0.535316
v 0.165219 0.554476 0.535316
v 0.160413 0.590984 0.535316
v 0.182829 0.596991 0.535316
v 0.182829 0.552158 0.535316
v 0.188426 0.554476 0.535316
v 0.188426 0.554476 0.535316
v 0.182829 0.552158 0.535316
v 0.182829 0.596991 0.535316
v 0.156725 0.586178 0.535316
v 0.160413 0.558164 0.535316
v 0.160413 0.590984 0.535316
v 0.160413 0.590984 0.535316
v 0.160413 0.558164 0.535316
v 0.156725 0.586178 0.535316
v 0.154406 0.580581 0.535316
v 0.156725 0.562971 0.535316
v 0.156725 0.586178 0.535316
v 0.156725 0.586178 0.535316
v 0.156725 0.562971 0.535316
v 0.154406 0.580581 0.535316
v 0.154406 0.568568 0.535316
v 0.154406 0.580581 0.535316
v 0.153615 0.574574 0.535316
v 0.153615 0.574574 0.535316
v 0.154406 0.580581 0.535316
v 0.154406 0.568568 0.535316
v 0.176822 0.597781 0.535316
v 0.176822 0.551367 0.535316
v 0.182829 0.552158 0.535316
v 0.182829 0.552158 0.535316
v 0.176822 0.551367 0.535316
v 0.176822 0.597781 0.535316
v 0.176822 0.597781 0.535316
v 0.170816 0.552158 0.535316
v 0.176822 0.551367 0.535316
v 0.176822 0.551367 0.535316
v 0.170816 0.552158 0.535316
v 0.176822 0.597781 0.535316
v 0.165219 0.594672 0.535316
v 0.165219 0.554476 0.535316
v 0.170816 0.552158 0.535316
v 0.170816 0.552158 0.535316
v 0.165219 0.554476 0.535316
v 0.165219 0.594672 0.535316
v 0.160413 0.590984 0.535316
v 0.160413 0.558164 0.535316
v 0.165219 0.554476 0.535316
v 0.165219 0.554476 0.535316
v 0.160413 0.558164 0.535316
v 0.160413 0.590984 0.535316
v 0.156725 0.586178 0.535316
v 0.156725 0.562971 0.535316
v 0.160413 0.558164 0.535316
v 0.160413 0.558164 0.535316
v 0.156725 0.562971 0.535316
v 0.156725 0.586178 0.535316
v 0.154406 0.580581 0.535316
v 0.154406 0.568568 0.535316
v 0.156725 0.562971 0.535316
v 0.156725 0.562971 0.535316
v 0.154406 0.568568 0.535316
v 0.154406 0.580581 0.535316
vt -16.247987747192383 7.74043083190918
vt -16.226760864257812 7.579198837280273
vt -16.226760864257812 7.712768077850342
vt -16.213417053222656 7.61141300201416
vt -16.213417053222656 7.680553913116455
vt -16.208864212036133 7.645984172821045
vt -16.247987747192383 7.5515360832214355
vt -16.275650024414062 7.761658191680908
vt -16.275650024414062 7.530309200286865
vt -16.307865142822266 7.7750020027160645
vt -16.342435836791992 7.779552936553955
vt -16.307865142822266 7.516964912414551
vt -16.377004623413086 7.7750020027160645
vt -16.377004623413086 7.516964912414551
vt -16.40921974182129 7.761658191680908
vt -16.4368839263916 7.74043083190918
vt -16.40921974182129 7.530309200286865
vt -16.45810890197754 7.712768077850342
vt -16.4368839263916 7.5515360832214355
vt -16.471452713012695 7.680553913116455
vt -16.45810890197754 7.579198837280273
vt -16.471452713012695 7.61141300201416
vt -16.476003646850586 7.645984172821045
vt -16.342435836791992 7.51241397857666
vn 0 0 1
vn 0 0 -1
usemtl material_0_0
f 1/1/1 2/2/1 3/3/1
f 4/3/2 5/2/2 6/1/2
f 7/3/1 8/4/1 9/5/1
f 10/5/2 11/4/2 12/3/2
f 13/5/1 14/4/1 15/6/1
f 16/6/2 17/4/2 18/5/2
f 19/1/1 20/7/1 21/2/1
f 22/2/2 23/7/2 24/1/2
f 25/3/1 26/2/1 27/4/1
f 28/4/2 29/2/2 30/3/2
f 31/8/1 32/9/1 33/1/1
f 34/1/2 35/9/2 36/8/2
f 37/1/1 38/9/1 39/7/1
f 40/7/2 41/9/2 42/1/2
f 43/10/1 44/9/1 45/8/1
f 46/8/2 47/9/2 48/10/2
f 49/11/1 50/12/1 51/10/1
f 52/10/2 53/12/2 54/11/2
f 55/13/1 56/14/1 57/11/1
f 58/11/2 59/14/2 60/13/2
f 61/15/1 62/14/1 63/13/1
f 64/13/2 65/14/2 66/15/2
f 67/16/1 68/17/1 69/15/1
f 70/15/2 71/17/2 72/16/2
f 73/10/1 74/12/1 75/9/1
f 76/9/2 77/12/2 78/10/2
f 79/18/1 80/19/1 81/16/1
f 82/16/2 83/19/2 84/18/2
f 85/20/1 86/21/1 87/18/1
f 88/18/2 89/21/2 90/20/2
f 91/22/1 92/20/1 93/23/1
f 94/23/2 95/20/2 96/22/2
f 97/11/1 98/24/1 99/12/1
f 100/12/2 101/24/2 102/11/2
f 103/11/1 104/14/1 105/24/1
f 106/24/2 107/14/2 108/11/2
f 109/15/1 110/17/1 111/14/1
f 112/14/2 113/17/2 114/15/2
f 115/16/1 116/19/1 117/17/1
f 118/17/2 119/19/2 120/16/2
f 121/18/1 122/21/1 123/19/1
f 124/19/2 125/21/2 126/18/2
f 127/20/1 128/22/1 129/21/1
f 130/21/2 131/22/2 132/20/2
