# SSTK version 0.8.0
# 120
mtllib original-120.mtl
o Group_96/mesh119/mesh119-geometry#mesh119-geometry
v 0.028166 0.379466 0.530515
v 0.028229 0.378658 0.519505
v 0.028229 0.378666 0.530516
v 0.028166 0.379458 0.519505
v 0.028416 0.377878 0.519506
v 0.033280 0.379466 0.530841
v 0.028229 0.380266 0.530515
v 0.038331 0.378658 0.519505
v 0.028416 0.377886 0.530516
v 0.038143 0.377878 0.519506
v 0.028229 0.380258 0.519504
v 0.038394 0.379458 0.519505
v 0.028723 0.377136 0.519506
v 0.037836 0.377136 0.519506
v 0.028416 0.381046 0.530514
v 0.028723 0.377144 0.530517
v 0.038331 0.378666 0.530516
v 0.038394 0.379466 0.530515
v 0.038143 0.377886 0.530516
v 0.028723 0.381788 0.530514
v 0.029142 0.376460 0.530517
v 0.028416 0.381038 0.519504
v 0.038331 0.380258 0.519504
v 0.038331 0.380266 0.530515
v 0.029142 0.376452 0.519507
v 0.037417 0.376452 0.519507
v 0.037836 0.377144 0.530517
v 0.029142 0.382472 0.530513
v 0.029663 0.375850 0.530518
v 0.028723 0.381780 0.519503
v 0.029663 0.383082 0.530513
v 0.029663 0.375842 0.519507
v 0.030274 0.375329 0.530518
v 0.038143 0.381038 0.519504
v 0.038143 0.381046 0.530514
v 0.036896 0.375842 0.519507
v 0.037417 0.376460 0.530517
v 0.029142 0.382464 0.519503
v 0.030274 0.383603 0.530512
v 0.030958 0.374909 0.530518
v 0.037836 0.381788 0.530514
v 0.036896 0.375850 0.530518
v 0.037836 0.381780 0.519503
v 0.029663 0.383074 0.519502
v 0.030274 0.383595 0.519502
v 0.030958 0.384022 0.530512
v 0.036285 0.375321 0.519508
v 0.030274 0.375321 0.519508
v 0.031699 0.374602 0.530519
v 0.037417 0.382472 0.530513
v 0.036285 0.375329 0.530518
v 0.037417 0.382464 0.519503
v 0.030958 0.384014 0.519501
v 0.031699 0.384329 0.530512
v 0.030958 0.374901 0.519508
v 0.032480 0.374415 0.530519
v 0.036896 0.383082 0.530513
v 0.035601 0.374909 0.530518
v 0.036896 0.383074 0.519502
v 0.036285 0.383595 0.519502
v 0.031699 0.384322 0.519501
v 0.032480 0.384517 0.530512
v 0.035601 0.374901 0.519508
v 0.031699 0.374594 0.519508
v 0.033280 0.374352 0.530519
v 0.036285 0.383603 0.530512
v 0.034860 0.374602 0.530519
v 0.035601 0.384014 0.519501
v 0.032480 0.384509 0.519501
v 0.033280 0.384580 0.530511
v 0.034860 0.374594 0.519508
v 0.032480 0.374407 0.519508
v 0.034080 0.374415 0.530519
v 0.035601 0.384022 0.530512
v 0.034860 0.384322 0.519501
v 0.033280 0.384572 0.519501
v 0.034080 0.384517 0.530512
v 0.034080 0.374407 0.519508
v 0.033280 0.374344 0.519508
v 0.034860 0.384329 0.530512
v 0.034080 0.384509 0.519501
vn -0.996917337546797 -0.07845902656548553 0.000057000019299650883
vn -0.9723699934433091 -0.2334449984258804 0.00016899999886038115
vn -0.06348696917959168 -0.004273997925143555 0.9979735155233959
vn -0.996917337546797 0.07845902656548553 -0.000057000019299650883
vn 0 -0.0007239998102481405 -0.9999997379121031
vn -0.06348701767205824 0.0057190015919241265 0.9979662777909379
vn -0.05835397195047786 -0.02344898872856648 0.9980205202726097
vn -0.0619229818248025 -0.01414399584855418 0.9979807070797316
vn -0.0603799753883723 -0.01889599229775913 0.9979965932041965
vn -0.9238797183931899 -0.38268288335483075 0.00027699991556786067
vn -0.06038001117920916 0.020341003766086125 0.9979681847713315
vn -0.06192301112970244 0.015589002801881652 0.9979591793677103
vn -0.058353973537616906 0.02489298871151737 0.9979855474331175
vn -0.05656801310587679 -0.028100006510308834 0.9980032312209083
vn -0.9723699934433091 0.2334449984258804 -0.00016899999886038115
vn 0.9723699934433091 -0.2334449984258804 0.00016899999886038115
vn 0.996917337546797 -0.07845902656548553 0.000057000019299650883
vn 0.9238797183931899 -0.38268288335483075 0.00027699991556786067
vn -0.056567971741674765 0.029544985240909493 0.9979615014719494
vn -0.054298998964490953 -0.03255199937921732 0.997993980967756
vn 0.996917337546797 0.07845902656548553 -0.000057000019299650883
vn -0.8526403101530851 -0.5224981900618862 0.000378000137499727
vn -0.9238797183931899 0.38268288335483075 -0.00027699991556786067
vn -0.054298991085925404 0.03399599441899681 0.9979458361707382
vn -0.04842499358075907 -0.04063599461327281 0.9979998677046472
vn 0.0619229818248025 -0.01414399584855418 0.9979807070797316
vn 0.061936968547857935 0.010531994651759465 0.9980244931943089
vn 0.06348696917959168 -0.004273997925143555 0.9979735155233959
vn 0.0634870256240988 0.0007220002914074577 0.9979824027972558
vn 0.06270601094919159 0.010654001860311187 0.9979751742579573
vn 0.8526403101530851 -0.5224981900618862 0.000378000137499727
vn 0.05656801310587679 -0.028100006510308834 0.9980032312209083
vn 0.05883497548720684 -0.02364799014738643 0.9979875842020325
vn -0.8526403101530851 0.5224981900618862 -0.000378000137499727
vn -0.04842499915774401 0.04208099926808497 0.9979399826428301
vn -0.7604059199900934 -0.6494479316650923 0.00046999995054646356
vn -0.041358997454043596 -0.04770299706352307 0.9980049385653129
vn 0.9723699934433091 0.2334449984258804 -0.00016899999886038115
vn 0.06038001117920916 0.020341003766086125 0.9979681847713315
vn 0.054298998964490953 -0.03255199937921732 0.997993980967756
vn -0.7604059199900934 0.6494479316650923 -0.00046999995054646356
vn -0.041358994649904196 0.04914699364246796 0.9979348709096483
vn -0.6494479051676237 -0.7604058889655402 0.0005499999196888487
vn -0.024171005961900215 -0.05763201421522645 0.9980452461728806
vn -0.03327400813661066 -0.05357601310113181 0.9980092440467232
vn -0.028823009542103886 -0.055845018487971326 0.9980233304041615
vn 0.058835017351096364 0.02509300740020478 0.9979522943071525
vn 0.7604059199900934 -0.6494479316650923 0.00046999995054646356
vn 0.04842499358075907 -0.04063599461327281 0.9979998677046472
vn -0.6494479051676237 0.7604058889655402 -0.0005499999196888487
vn -0.028823012265491364 0.05729002437948839 0.9979414246690738
vn -0.033273987517631935 0.05502097935948848 0.9979306256373733
vn -0.024170994118098074 0.05907698562388294 0.9979607571507704
vn -0.5224988549308256 -0.8526397632688657 0.000616999828692917
vn -0.0196190011889017 -0.05965800361524552 0.9980260604798822
vn 0.9238797183931899 0.38268288335483075 -0.00027699991556786067
vn 0.054298991085925404 0.03399599441899681 0.9979458361707382
vn 0.041358997454043596 -0.04770299706352307 0.9980049385653129
vn -0.5224988549308256 0.8526397632688657 -0.000616999828692917
vn -0.019618994042830695 0.061101981446813634 0.9979386969829462
vn 0.6494479051676237 -0.7604058889655402 0.0005499999196888487
vn -0.382683165952313 -0.9238794006445465 0.0006690002901148441
vn -0.014865996279175392 -0.06120098468194647 0.9980147502059215
vn 0.04842499915774401 0.04208099926808497 0.9979399826428301
vn 0.8526403101530851 0.5224981900618862 -0.000378000137499727
vn 0.03327400813661066 -0.05357601310113181 0.9980092440467232
vn -0.382683165952313 0.9238794006445465 -0.0006690002901148441
vn -0.014866001301540772 0.06264600548475176 0.9979250873698421
vn 0.5224988549308256 -0.8526397632688657 0.000616999828692917
vn -0.2334449439100734 -0.9723697663682582 0.0007039998308494131
vn -0.004996999435436538 -0.06276399290889333 0.9980158872436725
vn 0.041358994649904196 0.04914699364246796 0.9979348709096483
vn 0.7604059199900934 0.6494479316650923 -0.00046999995054646356
vn 0.0196190011889017 -0.05965800361524552 0.9980260604798822
vn 0.024369988231272493 -0.0581129719361487 0.9980125180409091
vn -0.2334449439100734 0.9723697663682582 -0.0007039998308494131
vn -0.004996999811448209 0.06420899757720172 0.9979239623453359
vn -0.07845900624321875 -0.996917079327686 0.0007220000574514914
vn 0.004996999435436538 -0.06276399290889333 0.9980158872436725
vn 0.028823012265491364 0.05729002437948839 0.9979414246690738
vn 0.033273987517631935 0.05502097935948848 0.9979306256373733
vn 0.6494479051676237 0.7604058889655402 -0.0005499999196888487
vn 0.014865996279175392 -0.06120098468194647 0.9980147502059215
vn 0.382683165952313 -0.9238794006445465 0.0006690002901148441
vn 0.5224988549308256 0.8526397632688657 -0.000616999828692917
vn -0.07845900624321875 0.996917079327686 -0.0007220000574514914
vn 0.004996999811448209 0.06420899757720172 0.9979239623453359
vn 0.07845900624321875 -0.996917079327686 0.0007220000574514914
vn 0.02437000792521316 0.059558019368479286 0.9979273245295115
vn 0.2334449439100734 -0.9723697663682582 0.0007039998308494131
vn 0.382683165952313 0.9238794006445465 -0.0006690002901148441
vn 0.07845900624321875 0.996917079327686 -0.0007220000574514914
vn 0.014866001301540772 0.06264600548475176 0.9979250873698421
vn 0.2334449439100734 0.9723697663682582 -0.0007039998308494131
vn 0.06348696917959168 0.004273997925143555 -0.9979735155233959
vn 0 0.0007239998102481405 0.9999997379121031
vn 0.06348701767205824 -0.0057190015919241265 -0.9979662777909379
vn 0.0603799753883723 0.01889599229775913 -0.9979965932041965
vn 0.0619229818248025 0.01414399584855418 -0.9979807070797316
vn 0.05835397195047786 0.02344898872856648 -0.9980205202726097
vn 0.058353973537616906 -0.02489298871151737 -0.9979855474331175
vn 0.06192301112970244 -0.015589002801881652 -0.9979591793677103
vn 0.06038001117920916 -0.020341003766086125 -0.9979681847713315
vn 0.05656801310587679 0.028100006510308834 -0.9980032312209083
vn 0.056567971741674765 -0.029544985240909493 -0.9979615014719494
vn 0.054298998964490953 0.03255199937921732 -0.997993980967756
vn 0.054298991085925404 -0.03399599441899681 -0.9979458361707382
vn 0.04842499358075907 0.04063599461327281 -0.9979998677046472
vn -0.0619229818248025 0.01414399584855418 -0.9979807070797316
vn -0.0634870256240988 -0.0007220002914074577 -0.9979824027972558
vn -0.06348696917959168 0.004273997925143555 -0.9979735155233959
vn -0.061936968547857935 -0.010531994651759465 -0.9980244931943089
vn -0.06270601094919159 -0.010654001860311187 -0.9979751742579573
vn -0.05883497548720684 0.02364799014738643 -0.9979875842020325
vn -0.05656801310587679 0.028100006510308834 -0.9980032312209083
vn 0.04842499915774401 -0.04208099926808497 -0.9979399826428301
vn 0.041358997454043596 0.04770299706352307 -0.9980049385653129
vn -0.06038001117920916 -0.020341003766086125 -0.9979681847713315
vn -0.054298998964490953 0.03255199937921732 -0.997993980967756
vn 0.041358994649904196 -0.04914699364246796 -0.9979348709096483
vn 0.028823009542103886 0.055845018487971326 -0.9980233304041615
vn 0.03327400813661066 0.05357601310113181 -0.9980092440467232
vn 0.024171005961900215 0.05763201421522645 -0.9980452461728806
vn -0.058835017351096364 -0.02509300740020478 -0.9979522943071525
vn -0.04842499358075907 0.04063599461327281 -0.9979998677046472
vn 0.024170994118098074 -0.05907698562388294 -0.9979607571507704
vn 0.033273987517631935 -0.05502097935948848 -0.9979306256373733
vn 0.028823012265491364 -0.05729002437948839 -0.9979414246690738
vn 0.0196190011889017 0.05965800361524552 -0.9980260604798822
vn -0.054298991085925404 -0.03399599441899681 -0.9979458361707382
vn -0.041358997454043596 0.04770299706352307 -0.9980049385653129
vn 0.019618994042830695 -0.061101981446813634 -0.9979386969829462
vn 0.014865996279175392 0.06120098468194647 -0.9980147502059215
vn -0.04842499915774401 -0.04208099926808497 -0.9979399826428301
vn -0.03327400813661066 0.05357601310113181 -0.9980092440467232
vn 0.014866001301540772 -0.06264600548475176 -0.9979250873698421
vn 0.004996999435436538 0.06276399290889333 -0.9980158872436725
vn -0.041358994649904196 -0.04914699364246796 -0.9979348709096483
vn -0.024369988231272493 0.0581129719361487 -0.9980125180409091
vn -0.0196190011889017 0.05965800361524552 -0.9980260604798822
vn 0.004996999811448209 -0.06420899757720172 -0.9979239623453359
vn -0.004996999435436538 0.06276399290889333 -0.9980158872436725
vn -0.033273987517631935 -0.05502097935948848 -0.9979306256373733
vn -0.028823012265491364 -0.05729002437948839 -0.9979414246690738
vn -0.014865996279175392 0.06120098468194647 -0.9980147502059215
vn -0.004996999811448209 -0.06420899757720172 -0.9979239623453359
vn -0.02437000792521316 -0.059558019368479286 -0.9979273245295115
vn -0.014866001301540772 -0.06264600548475176 -0.9979250873698421
usemtl material_0_0
f 1//1 2//1 3//1
f 2//1 1//1 4//1
f 5//2 3//2 2//2
f 6//3 1//3 3//3
f 7//4 4//4 1//4
f 8//5 2//5 4//5
f 3//2 5//2 9//2
f 10//5 5//5 2//5
f 7//6 1//6 6//6
f 6//7 3//8 9//9
f 4//4 7//4 11//4
f 10//5 2//5 8//5
f 8//5 4//5 12//5
f 13//10 9//10 5//10
f 14//5 5//5 10//5
f 15//11 7//12 6//13
f 6//7 9//9 16//14
f 15//15 11//15 7//15
f 12//5 4//5 11//5
f 17//16 10//16 8//16
f 18//17 8//17 12//17
f 9//10 13//10 16//10
f 14//5 13//5 5//5
f 19//18 14//18 10//18
f 20//19 15//11 6//13
f 6//7 16//14 21//20
f 11//15 15//15 22//15
f 12//5 11//5 23//5
f 10//16 17//16 19//16
f 8//17 18//17 17//17
f 12//21 24//21 18//21
f 25//22 16//22 13//22
f 26//5 13//5 14//5
f 14//18 19//18 27//18
f 20//23 22//23 15//23
f 28//24 20//19 6//13
f 16//22 25//22 21//22
f 6//25 21//25 29//25
f 23//5 11//5 22//5
f 24//21 12//21 23//21
f 6//26 19//26 17//26
f 6//27 17//28 18//29
f 24//30 6//27 18//29
f 26//5 25//5 13//5
f 27//31 26//31 14//31
f 6//32 27//32 19//33
f 22//23 20//23 30//23
f 28//34 30//34 20//34
f 31//35 28//35 6//35
f 32//36 21//36 25//36
f 21//36 32//36 29//36
f 6//37 29//37 33//37
f 23//5 22//5 34//5
f 23//38 35//38 24//38
f 35//39 6//27 24//30
f 36//5 25//5 26//5
f 26//31 27//31 37//31
f 6//32 37//40 27//32
f 34//5 22//5 30//5
f 30//34 28//34 38//34
f 31//41 38//41 28//41
f 39//42 31//42 6//42
f 36//5 32//5 25//5
f 32//43 33//43 29//43
f 6//44 33//45 40//46
f 35//38 23//38 34//38
f 41//47 6//27 35//39
f 37//48 36//48 26//48
f 6//49 42//49 37//49
f 34//5 30//5 43//5
f 43//5 30//5 38//5
f 38//41 31//41 44//41
f 45//50 31//50 39//50
f 46//51 39//52 6//53
f 47//5 32//5 36//5
f 33//43 32//43 48//43
f 48//54 40//54 33//54
f 6//44 40//46 49//55
f 34//56 41//56 35//56
f 50//57 6//57 41//57
f 36//48 37//48 42//48
f 6//58 51//58 42//58
f 41//56 34//56 43//56
f 43//5 38//5 52//5
f 31//50 45//50 44//50
f 52//5 38//5 44//5
f 39//59 53//59 45//59
f 53//59 39//59 46//59
f 54//60 46//51 6//53
f 47//5 48//5 32//5
f 36//61 51//61 47//61
f 40//54 48//54 55//54
f 55//62 49//62 40//62
f 6//44 49//55 56//63
f 57//64 6//64 50//64
f 43//65 50//65 41//65
f 51//61 36//61 42//61
f 6//66 58//66 51//66
f 50//65 43//65 52//65
f 59//5 44//5 45//5
f 52//5 44//5 59//5
f 60//5 45//5 53//5
f 46//67 61//67 53//67
f 61//67 46//67 54//67
f 62//68 54//60 6//53
f 63//5 48//5 47//5
f 58//69 47//69 51//69
f 63//5 55//5 48//5
f 49//62 55//62 64//62
f 64//70 56//70 49//70
f 6//71 56//71 65//71
f 66//72 6//72 57//72
f 52//73 57//73 50//73
f 6//74 67//74 58//75
f 59//5 45//5 60//5
f 57//73 52//73 59//73
f 60//5 53//5 68//5
f 68//5 53//5 61//5
f 54//76 69//76 61//76
f 69//76 54//76 62//76
f 70//77 62//77 6//77
f 47//69 58//69 63//69
f 71//5 55//5 63//5
f 71//5 64//5 55//5
f 56//70 64//70 72//70
f 72//78 65//78 56//78
f 6//79 65//79 73//79
f 74//80 6//80 66//81
f 57//82 60//82 66//82
f 6//74 73//83 67//74
f 67//84 63//84 58//84
f 60//82 57//82 59//82
f 68//85 66//85 60//85
f 68//5 61//5 75//5
f 75//5 61//5 69//5
f 62//86 76//86 69//86
f 76//86 62//86 70//86
f 70//87 6//87 77//87
f 63//84 67//84 71//84
f 78//5 64//5 71//5
f 78//5 72//5 64//5
f 65//78 72//78 79//78
f 65//88 78//88 73//88
f 80//89 6//80 74//80
f 66//85 68//85 74//85
f 73//90 71//90 67//90
f 75//91 74//91 68//91
f 75//5 69//5 81//5
f 81//5 69//5 76//5
f 77//92 76//92 70//92
f 77//93 6//93 80//93
f 71//90 73//90 78//90
f 72//5 78//5 79//5
f 78//88 65//88 79//88
f 74//91 75//91 80//91
f 81//94 80//94 75//94
f 76//92 77//92 81//92
f 80//94 81//94 77//94
usemtl material_1_0
f 3//21 2//21 1//21
f 4//21 1//21 2//21
f 2//38 3//38 5//38
f 3//95 1//95 6//95
f 1//17 4//17 7//17
f 4//96 2//96 8//96
f 9//38 5//38 3//38
f 2//96 5//96 10//96
f 6//97 1//97 7//97
f 9//98 3//99 6//100
f 11//17 7//17 4//17
f 8//96 2//96 10//96
f 12//96 4//96 8//96
f 5//56 9//56 13//56
f 10//96 5//96 14//96
f 6//101 7//102 15//103
f 16//104 9//98 6//100
f 7//16 11//16 15//16
f 11//96 4//96 12//96
f 8//15 10//15 17//15
f 12//4 8//4 18//4
f 16//56 13//56 9//56
f 5//96 13//96 14//96
f 10//23 14//23 19//23
f 6//101 15//103 20//105
f 21//106 16//104 6//100
f 22//16 15//16 11//16
f 23//96 11//96 12//96
f 19//15 17//15 10//15
f 17//4 18//4 8//4
f 18//1 24//1 12//1
f 13//65 16//65 25//65
f 14//96 13//96 26//96
f 27//23 19//23 14//23
f 15//18 22//18 20//18
f 6//101 20//105 28//107
f 21//65 25//65 16//65
f 29//108 21//108 6//108
f 22//96 11//96 23//96
f 23//1 12//1 24//1
f 17//109 19//109 6//109
f 18//110 17//111 6//112
f 18//110 6//112 24//113
f 13//96 25//96 26//96
f 14//34 26//34 27//34
f 19//114 27//115 6//115
f 30//18 20//18 22//18
f 20//31 30//31 28//31
f 6//116 28//116 31//116
f 25//73 21//73 32//73
f 29//73 32//73 21//73
f 33//117 29//117 6//117
f 34//96 22//96 23//96
f 24//2 35//2 23//2
f 24//113 6//112 35//118
f 26//96 25//96 36//96
f 37//34 27//34 26//34
f 27//115 37//119 6//115
f 30//96 22//96 34//96
f 38//31 28//31 30//31
f 28//48 38//48 31//48
f 6//120 31//120 39//120
f 25//96 32//96 36//96
f 29//82 33//82 32//82
f 40//121 33//122 6//123
f 34//2 23//2 35//2
f 35//118 6//112 41//124
f 26//41 36//41 37//41
f 37//125 42//125 6//125
f 43//96 30//96 34//96
f 38//96 30//96 43//96
f 44//48 31//48 38//48
f 39//61 31//61 45//61
f 6//126 39//127 46//128
f 36//96 32//96 47//96
f 48//82 32//82 33//82
f 33//85 40//85 48//85
f 49//129 40//121 6//123
f 35//10 41//10 34//10
f 41//130 6//130 50//130
f 42//41 37//41 36//41
f 42//131 51//131 6//131
f 43//10 34//10 41//10
f 52//96 38//96 43//96
f 44//61 45//61 31//61
f 44//96 38//96 52//96
f 45//69 53//69 39//69
f 46//69 39//69 53//69
f 6//126 46//128 54//132
f 32//96 48//96 47//96
f 47//50 51//50 36//50
f 55//85 48//85 40//85
f 40//91 49//91 55//91
f 56//133 49//129 6//123
f 50//134 6//134 57//134
f 41//22 50//22 43//22
f 42//50 36//50 51//50
f 51//135 58//135 6//135
f 52//22 43//22 50//22
f 45//96 44//96 59//96
f 59//96 44//96 52//96
f 53//96 45//96 60//96
f 53//84 61//84 46//84
f 54//84 46//84 61//84
f 6//126 54//132 62//136
f 47//96 48//96 63//96
f 51//59 47//59 58//59
f 48//96 55//96 63//96
f 64//91 55//91 49//91
f 49//94 56//94 64//94
f 65//137 56//137 6//137
f 57//138 6//138 66//138
f 50//36 57//36 52//36
f 58//139 67//140 6//140
f 60//96 45//96 59//96
f 59//36 52//36 57//36
f 68//96 53//96 60//96
f 61//96 53//96 68//96
f 61//90 69//90 54//90
f 62//90 54//90 69//90
f 6//141 62//141 70//141
f 63//59 58//59 47//59
f 63//96 55//96 71//96
f 55//96 64//96 71//96
f 72//94 64//94 56//94
f 56//92 65//92 72//92
f 73//142 65//142 6//142
f 66//143 6//144 74//144
f 66//43 60//43 57//43
f 67//140 73//145 6//140
f 58//67 63//67 67//67
f 59//43 57//43 60//43
f 60//54 66//54 68//54
f 75//96 61//96 68//96
f 69//96 61//96 75//96
f 69//88 76//88 62//88
f 70//88 62//88 76//88
f 77//146 6//146 70//146
f 71//67 67//67 63//67
f 71//96 64//96 78//96
f 64//96 72//96 78//96
f 79//92 72//92 65//92
f 73//86 78//86 65//86
f 74//144 6//144 80//147
f 74//54 68//54 66//54
f 67//76 71//76 73//76
f 68//62 74//62 75//62
f 81//96 69//96 75//96
f 76//96 69//96 81//96
f 70//78 76//78 77//78
f 80//148 6//148 77//148
f 78//76 73//76 71//76
f 79//96 78//96 72//96
f 79//86 65//86 78//86
f 80//62 75//62 74//62
f 75//70 80//70 81//70
f 81//78 77//78 76//78
f 77//70 81//70 80//70
