# SSTK version 0.8.0
# 13
mtllib original-13.mtl
o Group_30/mesh13/mesh13-geometry#mesh13-geometry
v -0.640898 0.527934 -0.554623
v -0.640898 0.499799 -0.521256
v -0.640898 0.527934 -0.521256
v -0.640898 0.499799 -0.554623
v -0.621435 0.499799 -0.521256
v -0.634125 0.549348 -0.521386
v -0.621435 0.499799 -0.554623
v -0.621435 0.547271 -0.521256
v -0.634782 0.547271 -0.521256
v -0.633478 0.551393 -0.521774
v -0.621435 0.547271 -0.554623
v -0.621435 0.551393 -0.521774
v -0.632852 0.553374 -0.522413
v -0.634782 0.547271 -0.554623
v -0.621435 0.549348 -0.554493
v -0.621435 0.549348 -0.521386
v -0.621435 0.553374 -0.522413
v -0.632255 0.555260 -0.523294
v -0.634125 0.549348 -0.554493
v -0.621435 0.551393 -0.554106
v -0.621435 0.555260 -0.523294
v -0.631698 0.557021 -0.524402
v -0.633478 0.551393 -0.554106
v -0.621435 0.553374 -0.553467
v -0.621435 0.557021 -0.524402
v -0.631189 0.558631 -0.525722
v -0.632852 0.553374 -0.553467
v -0.621435 0.555260 -0.552586
v -0.621435 0.558631 -0.525722
v -0.630736 0.560064 -0.527232
v -0.632255 0.555260 -0.552586
v -0.621435 0.557021 -0.551477
v -0.630345 0.561298 -0.528908
v -0.631698 0.557021 -0.551477
v -0.621435 0.558631 -0.550158
v -0.621435 0.560064 -0.527232
v -0.630024 0.562313 -0.530725
v -0.631189 0.558631 -0.550158
v -0.621435 0.560064 -0.548648
v -0.621435 0.561298 -0.528908
v -0.629777 0.563095 -0.532654
v -0.630736 0.560064 -0.548648
v -0.621435 0.561298 -0.546972
v -0.621435 0.562313 -0.530725
v -0.629777 0.563095 -0.543226
v -0.630345 0.561298 -0.546972
v -0.621435 0.562313 -0.545155
v -0.621435 0.563095 -0.532654
v -0.630024 0.562313 -0.545155
v -0.621435 0.563095 -0.543226
vn -1 0 0
vn 0 0 1
vn -0.9534440352602679 0.3015700111526623 0
vn 0 0 -1
vn 0 -1 0
vn 0 0.031205000168600398 0.9995130054003688
vn 0 0.031205000168600838 -0.9995130054003688
vn 1 0 0
vn 0 0.062380029346566716 0.9980524695318985
vn 0 0.1861689518860367 0.9825177460756903
vn 0 0.24709600107523808 0.9689910042165645
vn 0 0.30706004610506926 0.951690142896286
vn 0 0.062380029346567153 -0.9980524695318985
vn 0 0.47886677391914784 0.8778875855348837
vn 0 0.42317214134269243 0.9060493026273132
vn 0 0.18616895188603708 -0.9825177460756901
vn 0 0.2470960010752384 -0.9689910042165641
vn 0 0.5326970161287339 0.8463060256240311
vn 0 0.30706004610506954 -0.9516901428962856
vn 0 0.6809401040064589 0.7323391118571184
vn 0 0.6339308082800175 0.7733897661033818
vn 0 0.4231721413426928 -0.9060493026273129
vn 0 0.4788667739191482 -0.8778875855348834
vn 0 0.725297049209593 0.6884360467086664
vn 0 0.5326970161287343 -0.8463060256240309
vn 0 0.8053740015443046 0.5927670011366309
vn 0 0.8407826728439585 0.5413727893470165
vn 0 0.6339308082800178 -0.7733897661033815
vn 0 0.6809401040064591 -0.7323391118571182
vn 0 0.8729158011074666 0.48787088883936264
vn 0 0.7252970492095934 -0.6884360467086661
vn 0 0.9268706543690705 0.37538086002012827
vn 0 0.9815473832108964 0.1912190746548098
vn 0 0.8053740015443048 -0.5927670011366306
vn 0 0.8407826728439588 -0.5413727893470162
vn 0 0.9815473832108966 -0.19121907465480942
vn 0 0.8729158011074669 -0.4878708888393622
vn 0 0.9268706543690708 -0.3753808600201279
vn 0.9534440352602679 -0.3015700111526623 0
vn 0 1 0
vn 0 -0.031205000168600398 -0.9995130054003688
vn 0 -0.031205000168600838 0.9995130054003688
vn 0 -0.062380029346566716 -0.9980524695318985
vn 0 -0.24709600107523808 -0.9689910042165645
vn 0 -0.1861689518860367 -0.9825177460756903
vn 0 -0.30706004610506926 -0.951690142896286
vn 0 -0.062380029346567153 0.9980524695318985
vn 0 -0.42317214134269243 -0.9060493026273132
vn 0 -0.47886677391914784 -0.8778875855348837
vn 0 -0.18616895188603708 0.9825177460756901
vn 0 -0.2470960010752384 0.9689910042165641
vn 0 -0.5326970161287339 -0.8463060256240311
vn 0 -0.30706004610506954 0.9516901428962856
vn 0 -0.6339308082800175 -0.7733897661033818
vn 0 -0.6809401040064589 -0.7323391118571184
vn 0 -0.4231721413426928 0.9060493026273129
vn 0 -0.4788667739191482 0.8778875855348834
vn 0 -0.725297049209593 -0.6884360467086664
vn 0 -0.5326970161287343 0.8463060256240309
vn 0 -0.8053740015443046 -0.5927670011366309
vn 0 -0.8407826728439585 -0.5413727893470165
vn 0 -0.6339308082800178 0.7733897661033815
vn 0 -0.6809401040064591 0.7323391118571182
vn 0 -0.8729158011074666 -0.48787088883936264
vn 0 -0.7252970492095934 0.6884360467086661
vn 0 -0.9268706543690705 -0.37538086002012827
vn 0 -0.9815473832108964 -0.1912190746548098
vn 0 -0.8407826728439588 0.5413727893470162
vn 0 -0.8053740015443048 0.5927670011366306
vn 0 -0.9815473832108966 0.19121907465480942
vn 0 -0.8729158011074669 0.4878708888393622
vn 0 -0.9268706543690708 0.3753808600201279
usemtl material_0_0
f 1//1 2//1 3//1
f 2//1 1//1 4//1
f 5//2 3//2 2//2
f 3//3 6//3 1//3
f 1//4 7//4 4//4
f 7//5 2//5 4//5
f 3//2 5//2 8//6
f 2//5 7//5 5//5
f 6//3 3//3 9//3
f 1//3 6//3 10//3
f 7//4 1//4 11//7
f 7//8 8//8 5//8
f 3//2 8//6 9//6
f 8//6 6//9 9//6
f 6//10 12//11 10//11
f 1//3 10//3 13//3
f 11//7 1//4 14//7
f 15//8 7//8 11//8
f 8//8 7//8 16//8
f 6//9 8//6 16//9
f 12//11 6//10 16//10
f 17//12 10//11 12//11
f 10//11 17//12 13//12
f 1//3 13//3 18//3
f 1//3 19//3 14//3
f 19//13 11//7 14//7
f 20//8 7//8 15//8
f 11//7 19//13 15//13
f 16//8 7//8 12//8
f 12//8 7//8 17//8
f 21//14 13//15 17//15
f 13//15 21//14 18//14
f 1//3 18//3 22//3
f 1//3 23//3 19//3
f 24//8 7//8 20//8
f 19//16 20//17 15//16
f 17//8 7//8 21//8
f 25//18 18//14 21//14
f 18//14 25//18 22//18
f 1//3 22//3 26//3
f 1//3 27//3 23//3
f 20//17 19//16 23//17
f 28//8 7//8 24//8
f 23//17 24//19 20//17
f 21//8 7//8 25//8
f 29//20 22//21 25//21
f 22//21 29//20 26//20
f 1//3 26//3 30//3
f 1//3 31//3 27//3
f 24//19 23//17 27//19
f 32//8 7//8 28//8
f 27//22 28//23 24//22
f 25//8 7//8 29//8
f 29//20 30//24 26//20
f 1//3 30//3 33//3
f 1//3 34//3 31//3
f 28//23 27//22 31//23
f 35//8 7//8 32//8
f 31//23 32//25 28//23
f 29//8 7//8 36//8
f 30//24 29//20 36//24
f 36//26 33//27 30//26
f 1//3 33//3 37//3
f 1//3 38//3 34//3
f 32//25 31//23 34//25
f 39//8 7//8 35//8
f 34//28 35//29 32//28
f 36//8 7//8 40//8
f 33//27 36//26 40//27
f 40//27 37//30 33//27
f 1//3 37//3 41//3
f 1//3 42//3 38//3
f 35//29 34//28 38//29
f 43//8 7//8 39//8
f 35//29 42//31 39//31
f 40//8 7//8 44//8
f 37//30 40//27 44//30
f 44//32 41//33 37//32
f 1//3 41//3 45//3
f 1//3 46//3 42//3
f 42//31 35//29 38//29
f 47//8 7//8 43//8
f 39//34 46//35 43//35
f 46//35 39//34 42//34
f 44//8 7//8 48//8
f 41//33 44//32 48//33
f 48//33 45//36 41//33
f 1//3 45//3 49//3
f 1//3 49//3 46//3
f 50//8 7//8 47//8
f 43//35 49//37 47//37
f 49//37 43//35 46//35
f 48//8 7//8 50//8
f 45//36 48//33 50//36
f 45//36 47//38 49//38
f 47//38 45//36 50//36
usemtl material_1_0
f 3//8 2//8 1//8
f 4//8 1//8 2//8
f 2//4 3//4 5//4
f 1//39 6//39 3//39
f 4//2 7//2 1//2
f 4//40 2//40 7//40
f 8//41 5//4 3//4
f 5//40 7//40 2//40
f 9//39 3//39 6//39
f 10//39 6//39 1//39
f 11//42 1//2 7//2
f 5//1 8//1 7//1
f 9//41 8//41 3//4
f 9//41 6//43 8//41
f 10//44 12//44 6//45
f 13//39 10//39 1//39
f 14//42 1//2 11//42
f 11//1 7//1 15//1
f 16//1 7//1 8//1
f 16//43 8//41 6//43
f 16//45 6//45 12//44
f 12//44 10//44 17//46
f 13//46 17//46 10//44
f 18//39 13//39 1//39
f 14//39 19//39 1//39
f 14//42 11//42 19//47
f 15//1 7//1 20//1
f 15//47 19//47 11//42
f 12//1 7//1 16//1
f 17//1 7//1 12//1
f 17//48 13//48 21//49
f 18//49 21//49 13//48
f 22//39 18//39 1//39
f 19//39 23//39 1//39
f 20//1 7//1 24//1
f 15//50 20//51 19//50
f 21//1 7//1 17//1
f 21//49 18//49 25//52
f 22//52 25//52 18//49
f 26//39 22//39 1//39
f 23//39 27//39 1//39
f 23//51 19//50 20//51
f 24//1 7//1 28//1
f 20//51 24//53 23//51
f 25//1 7//1 21//1
f 25//54 22//54 29//55
f 26//55 29//55 22//54
f 30//39 26//39 1//39
f 27//39 31//39 1//39
f 27//53 23//51 24//53
f 28//1 7//1 32//1
f 24//56 28//57 27//56
f 29//1 7//1 25//1
f 26//55 30//58 29//55
f 33//39 30//39 1//39
f 31//39 34//39 1//39
f 31//57 27//56 28//57
f 32//1 7//1 35//1
f 28//57 32//59 31//57
f 36//1 7//1 29//1
f 36//58 29//55 30//58
f 30//60 33//61 36//60
f 37//39 33//39 1//39
f 34//39 38//39 1//39
f 34//59 31//57 32//59
f 35//1 7//1 39//1
f 32//62 35//63 34//62
f 40//1 7//1 36//1
f 40//61 36//60 33//61
f 33//61 37//64 40//61
f 41//39 37//39 1//39
f 38//39 42//39 1//39
f 38//63 34//62 35//63
f 39//1 7//1 43//1
f 39//65 42//65 35//63
f 44//1 7//1 40//1
f 44//64 40//61 37//64
f 37//66 41//67 44//66
f 45//39 41//39 1//39
f 42//39 46//39 1//39
f 38//63 35//63 42//65
f 43//1 7//1 47//1
f 43//68 46//68 39//69
f 42//69 39//69 46//68
f 48//1 7//1 44//1
f 48//67 44//66 41//67
f 41//67 45//70 48//67
f 49//39 45//39 1//39
f 46//39 49//39 1//39
f 47//1 7//1 50//1
f 47//71 49//71 43//68
f 46//68 43//68 49//71
f 50//1 7//1 48//1
f 50//70 48//67 45//70
f 49//72 47//72 45//70
f 50//70 45//70 47//72
