# SSTK version 0.8.0
# 11
mtllib original-11.mtl
o 3dw.47c68395a5775e10d9deb3f829cc2475/Model/Component_18_1/Component_18/mesh1/mesh1-geometry/material_0/component_10#mesh1-geometry
v -0.374762 0.680301 0.470332
v -0.37507 0.679679 0.470726
v -0.374636 0.680212 0.470408
v -0.374636 0.680212 0.470408
v -0.37507 0.679679 0.470726
v -0.374762 0.680301 0.470332
v -0.374149 0.680756 0.470088
v -0.374636 0.680212 0.470408
v -0.374057 0.680641 0.470178
v -0.374057 0.680641 0.470178
v -0.374636 0.680212 0.470408
v -0.374149 0.680756 0.470088
v -0.375222 0.679737 0.470669
v -0.37533 0.679081 0.471109
v -0.37507 0.679679 0.470726
v -0.37507 0.679679 0.470726
v -0.37533 0.679081 0.471109
v -0.375222 0.679737 0.470669
v -0.375222 0.679737 0.470669
v -0.37507 0.679679 0.470726
v -0.374762 0.680301 0.470332
v -0.374762 0.680301 0.470332
v -0.37507 0.679679 0.470726
v -0.375222 0.679737 0.470669
v -0.374762 0.680301 0.470332
v -0.374636 0.680212 0.470408
v -0.374149 0.680756 0.470088
v -0.374149 0.680756 0.470088
v -0.374636 0.680212 0.470408
v -0.374762 0.680301 0.470332
v -0.373424 0.681072 0.469953
v -0.374057 0.680641 0.470178
v -0.373373 0.68094 0.47005
v -0.373373 0.68094 0.47005
v -0.374057 0.680641 0.470178
v -0.373424 0.681072 0.469953
v -0.374149 0.680756 0.470088
v -0.374057 0.680641 0.470178
v -0.373424 0.681072 0.469953
v -0.373424 0.681072 0.469953
v -0.374057 0.680641 0.470178
v -0.374149 0.680756 0.470088
v -0.375497 0.679103 0.471075
v -0.37533 0.679081 0.471109
v -0.375222 0.679737 0.470669
v -0.375222 0.679737 0.470669
v -0.37533 0.679081 0.471109
v -0.375497 0.679103 0.471075
v -0.37527 0.67785 0.471966
v -0.375098 0.677218 0.472422
v -0.374953 0.677302 0.472381
v -0.374953 0.677302 0.472381
v -0.375098 0.677218 0.472422
v -0.37527 0.67785 0.471966
v -0.374953 0.677302 0.472381
v -0.374587 0.676739 0.472812
v -0.374471 0.676849 0.472749
v -0.374471 0.676849 0.472749
v -0.374587 0.676739 0.472812
v -0.374953 0.677302 0.472381
v -0.372638 0.681227 0.469937
v -0.373373 0.68094 0.47005
v -0.372631 0.681086 0.470035
v -0.372631 0.681086 0.470035
v -0.373373 0.68094 0.47005
v -0.372638 0.681227 0.469937
v -0.373424 0.681072 0.469953
v -0.373373 0.68094 0.47005
v -0.372638 0.681227 0.469937
v -0.372638 0.681227 0.469937
v -0.373373 0.68094 0.47005
v -0.373424 0.681072 0.469953
v -0.374471 0.676849 0.472749
v -0.373934 0.676394 0.473125
v -0.373855 0.676523 0.473045
v -0.373855 0.676523 0.473045
v -0.373934 0.676394 0.473125
v -0.374471 0.676849 0.472749
v -0.375497 0.679103 0.471075
v -0.375398 0.678457 0.471532
v -0.37533 0.679081 0.471109
v -0.37533 0.679081 0.471109
v -0.375398 0.678457 0.471532
v -0.375497 0.679103 0.471075
v -0.369595 0.679617 0.471397
v -0.369531 0.678313 0.472305
v -0.369459 0.678974 0.471857
v -0.369459 0.678974 0.471857
v -0.369531 0.678313 0.472305
v -0.369595 0.679617 0.471397
v -0.375433 0.677799 0.471983
v -0.37527 0.67785 0.471966
v -0.375398 0.678457 0.471532
v -0.375398 0.678457 0.471532
v -0.37527 0.67785 0.471966
v -0.375433 0.677799 0.471983
v -0.37527 0.67785 0.471966
v -0.375433 0.677799 0.471983
v -0.375098 0.677218 0.472422
v -0.375098 0.677218 0.472422
v -0.375433 0.677799 0.471983
v -0.37527 0.67785 0.471966
v -0.374953 0.677302 0.472381
v -0.375098 0.677218 0.472422
v -0.374587 0.676739 0.472812
v -0.374587 0.676739 0.472812
v -0.375098 0.677218 0.472422
v -0.374953 0.677302 0.472381
v -0.374471 0.676849 0.472749
v -0.374587 0.676739 0.472812
v -0.373934 0.676394 0.473125
v -0.373934 0.676394 0.473125
v -0.374587 0.676739 0.472812
v -0.374471 0.676849 0.472749
v -0.371843 0.68121 0.470039
v -0.372631 0.681086 0.470035
v -0.37188 0.68107 0.470132
v -0.37188 0.68107 0.470132
v -0.372631 0.681086 0.470035
v -0.371843 0.68121 0.470039
v -0.372638 0.681227 0.469937
v -0.372631 0.681086 0.470035
v -0.371843 0.68121 0.470039
v -0.371843 0.68121 0.470039
v -0.372631 0.681086 0.470035
v -0.372638 0.681227 0.469937
v -0.373855 0.676523 0.473045
v -0.373185 0.676207 0.47334
v -0.373147 0.676346 0.473248
v -0.373147 0.676346 0.473248
v -0.373185 0.676207 0.47334
v -0.373855 0.676523 0.473045
v -0.373855 0.676523 0.473045
v -0.373934 0.676394 0.473125
v -0.373185 0.676207 0.47334
v -0.373185 0.676207 0.47334
v -0.373934 0.676394 0.473125
v -0.373855 0.676523 0.473045
v -0.375497 0.679103 0.471075
v -0.375433 0.677799 0.471983
v -0.375398 0.678457 0.471532
v -0.375398 0.678457 0.471532
v -0.375433 0.677799 0.471983
v -0.375497 0.679103 0.471075
v -0.36963 0.678959 0.471847
v -0.369531 0.678313 0.472305
v -0.369595 0.679617 0.471397
v -0.369595 0.679617 0.471397
v -0.369531 0.678313 0.472305
v -0.36963 0.678959 0.471847
v -0.369698 0.678335 0.47227
v -0.369531 0.678313 0.472305
v -0.36963 0.678959 0.471847
v -0.36963 0.678959 0.471847
v -0.369531 0.678313 0.472305
v -0.369698 0.678335 0.47227
v -0.371843 0.68121 0.470039
v -0.37188 0.68107 0.470132
v -0.371173 0.680893 0.470335
v -0.371173 0.680893 0.470335
v -0.37188 0.68107 0.470132
v -0.371843 0.68121 0.470039
v -0.373147 0.676346 0.473248
v -0.37239 0.67619 0.473443
v -0.372397 0.676331 0.473345
v -0.372397 0.676331 0.473345
v -0.37239 0.67619 0.473443
v -0.373147 0.676346 0.473248
v -0.373147 0.676346 0.473248
v -0.373185 0.676207 0.47334
v -0.37239 0.67619 0.473443
v -0.37239 0.67619 0.473443
v -0.373185 0.676207 0.47334
v -0.373147 0.676346 0.473248
v -0.375433 0.677799 0.471983
v -0.375497 0.679103 0.471075
v -0.375569 0.678442 0.471523
v -0.375569 0.678442 0.471523
v -0.375497 0.679103 0.471075
v -0.375433 0.677799 0.471983
v -0.369595 0.679617 0.471397
v -0.369758 0.679566 0.471414
v -0.36963 0.678959 0.471847
v -0.36963 0.678959 0.471847
v -0.369758 0.679566 0.471414
v -0.369595 0.679617 0.471397
v -0.369698 0.678335 0.47227
v -0.369806 0.677679 0.472711
v -0.369531 0.678313 0.472305
v -0.369531 0.678313 0.472305
v -0.369806 0.677679 0.472711
v -0.369698 0.678335 0.47227
v -0.371093 0.681022 0.470255
v -0.371173 0.680893 0.470335
v -0.370557 0.680567 0.470631
v -0.370557 0.680567 0.470631
v -0.371173 0.680893 0.470335
v -0.371093 0.681022 0.470255
v -0.371843 0.68121 0.470039
v -0.371173 0.680893 0.470335
v -0.371093 0.681022 0.470255
v -0.371093 0.681022 0.470255
v -0.371173 0.680893 0.470335
v -0.371843 0.68121 0.470039
v -0.372397 0.676331 0.473345
v -0.37239 0.67619 0.473443
v -0.371655 0.676477 0.473329
v -0.371655 0.676477 0.473329
v -0.37239 0.67619 0.473443
v -0.372397 0.676331 0.473345
v -0.370392 0.677205 0.472972
v -0.370266 0.677116 0.473048
v -0.369958 0.677737 0.472654
v -0.369958 0.677737 0.472654
v -0.370266 0.677116 0.473048
v -0.370392 0.677205 0.472972
v -0.369958 0.677737 0.472654
v -0.369806 0.677679 0.472711
v -0.369698 0.678335 0.47227
v -0.369698 0.678335 0.47227
v -0.369806 0.677679 0.472711
v -0.369958 0.677737 0.472654
v -0.36993 0.680198 0.470958
v -0.369758 0.679566 0.471414
v -0.369595 0.679617 0.471397
v -0.369595 0.679617 0.471397
v -0.369758 0.679566 0.471414
v -0.36993 0.680198 0.470958
v -0.36993 0.680198 0.470958
v -0.370075 0.680115 0.470999
v -0.369758 0.679566 0.471414
v -0.369758 0.679566 0.471414
v -0.370075 0.680115 0.470999
v -0.36993 0.680198 0.470958
v -0.370441 0.680677 0.470568
v -0.370557 0.680567 0.470631
v -0.370075 0.680115 0.470999
v -0.370075 0.680115 0.470999
v -0.370557 0.680567 0.470631
v -0.370441 0.680677 0.470568
v -0.371093 0.681022 0.470255
v -0.370557 0.680567 0.470631
v -0.370441 0.680677 0.470568
v -0.370441 0.680677 0.470568
v -0.370557 0.680567 0.470631
v -0.371093 0.681022 0.470255
v -0.371655 0.676477 0.473329
v -0.371604 0.676344 0.473427
v -0.370971 0.676775 0.473202
v -0.370971 0.676775 0.473202
v -0.371604 0.676344 0.473427
v -0.371655 0.676477 0.473329
v -0.371655 0.676477 0.473329
v -0.37239 0.67619 0.473443
v -0.371604 0.676344 0.473427
v -0.371604 0.676344 0.473427
v -0.37239 0.67619 0.473443
v -0.371655 0.676477 0.473329
v -0.370971 0.676775 0.473202
v -0.370879 0.67666 0.473292
v -0.370392 0.677205 0.472972
v -0.370392 0.677205 0.472972
v -0.370879 0.67666 0.473292
v -0.370971 0.676775 0.473202
v -0.370392 0.677205 0.472972
v -0.370879 0.67666 0.473292
v -0.370266 0.677116 0.473048
v -0.370266 0.677116 0.473048
v -0.370879 0.67666 0.473292
v -0.370392 0.677205 0.472972
v -0.369958 0.677737 0.472654
v -0.370266 0.677116 0.473048
v -0.369806 0.677679 0.472711
v -0.369806 0.677679 0.472711
v -0.370266 0.677116 0.473048
v -0.369958 0.677737 0.472654
v -0.370441 0.680677 0.470568
v -0.370075 0.680115 0.470999
v -0.36993 0.680198 0.470958
v -0.36993 0.680198 0.470958
v -0.370075 0.680115 0.470999
v -0.370441 0.680677 0.470568
v -0.370971 0.676775 0.473202
v -0.371604 0.676344 0.473427
v -0.370879 0.67666 0.473292
v -0.370879 0.67666 0.473292
v -0.371604 0.676344 0.473427
v -0.370971 0.676775 0.473202
vn -0.09399663417114451 0.5657157041337767 0.8192254725415471
vn 0.09399663417114451 -0.5657157041337767 -0.8192254725415471
usemtl material_0_0
f 1//1 2//1 3//1
f 4//2 5//2 6//2
f 7//1 8//1 9//1
f 10//2 11//2 12//2
f 13//1 14//1 15//1
f 16//2 17//2 18//2
f 19//1 20//1 21//1
f 22//2 23//2 24//2
f 25//1 26//1 27//1
f 28//2 29//2 30//2
f 31//1 32//1 33//1
f 34//2 35//2 36//2
f 37//1 38//1 39//1
f 40//2 41//2 42//2
f 43//1 44//1 45//1
f 46//2 47//2 48//2
f 49//1 50//1 51//1
f 52//2 53//2 54//2
f 55//1 56//1 57//1
f 58//2 59//2 60//2
f 61//1 62//1 63//1
f 64//2 65//2 66//2
f 67//1 68//1 69//1
f 70//2 71//2 72//2
f 73//1 74//1 75//1
f 76//2 77//2 78//2
f 79//1 80//1 81//1
f 82//2 83//2 84//2
f 85//1 86//1 87//1
f 88//2 89//2 90//2
f 91//1 92//1 93//1
f 94//2 95//2 96//2
f 97//1 98//1 99//1
f 100//2 101//2 102//2
f 103//1 104//1 105//1
f 106//2 107//2 108//2
f 109//1 110//1 111//1
f 112//2 113//2 114//2
f 115//1 116//1 117//1
f 118//2 119//2 120//2
f 121//1 122//1 123//1
f 124//2 125//2 126//2
f 127//1 128//1 129//1
f 130//2 131//2 132//2
f 133//1 134//1 135//1
f 136//2 137//2 138//2
f 139//1 140//1 141//1
f 142//2 143//2 144//2
f 145//1 146//1 147//1
f 148//2 149//2 150//2
f 151//1 152//1 153//1
f 154//2 155//2 156//2
f 157//1 158//1 159//1
f 160//2 161//2 162//2
f 163//1 164//1 165//1
f 166//2 167//2 168//2
f 169//1 170//1 171//1
f 172//2 173//2 174//2
f 175//1 176//1 177//1
f 178//2 179//2 180//2
f 181//1 182//1 183//1
f 184//2 185//2 186//2
f 187//1 188//1 189//1
f 190//2 191//2 192//2
f 193//1 194//1 195//1
f 196//2 197//2 198//2
f 199//1 200//1 201//1
f 202//2 203//2 204//2
f 205//1 206//1 207//1
f 208//2 209//2 210//2
f 211//1 212//1 213//1
f 214//2 215//2 216//2
f 217//1 218//1 219//1
f 220//2 221//2 222//2
f 223//1 224//1 225//1
f 226//2 227//2 228//2
f 229//1 230//1 231//1
f 232//2 233//2 234//2
f 235//1 236//1 237//1
f 238//2 239//2 240//2
f 241//1 242//1 243//1
f 244//2 245//2 246//2
f 247//1 248//1 249//1
f 250//2 251//2 252//2
f 253//1 254//1 255//1
f 256//2 257//2 258//2
f 259//1 260//1 261//1
f 262//2 263//2 264//2
f 265//1 266//1 267//1
f 268//2 269//2 270//2
f 271//1 272//1 273//1
f 274//2 275//2 276//2
f 277//1 278//1 279//1
f 280//2 281//2 282//2
f 283//1 284//1 285//1
f 286//2 287//2 288//2
