# SSTK version 0.8.0
# 12
mtllib original-12.mtl
o 3dw.47c68395a5775e10d9deb3f829cc2475/Model/Component_18_1/Component_18/mesh1/mesh1-geometry/material_0/component_11#mesh1-geometry
v -0.211938 0.680301 0.481147
v -0.212247 0.679679 0.481541
v -0.211813 0.680212 0.481223
v -0.211813 0.680212 0.481223
v -0.212247 0.679679 0.481541
v -0.211938 0.680301 0.481147
v -0.211325 0.680756 0.480903
v -0.211813 0.680212 0.481223
v -0.211234 0.680641 0.480992
v -0.211234 0.680641 0.480992
v -0.211813 0.680212 0.481223
v -0.211325 0.680756 0.480903
v -0.212398 0.679737 0.481483
v -0.212507 0.679081 0.481924
v -0.212247 0.679679 0.481541
v -0.212247 0.679679 0.481541
v -0.212507 0.679081 0.481924
v -0.212398 0.679737 0.481483
v -0.212398 0.679737 0.481483
v -0.212247 0.679679 0.481541
v -0.211938 0.680301 0.481147
v -0.211938 0.680301 0.481147
v -0.212247 0.679679 0.481541
v -0.212398 0.679737 0.481483
v -0.211938 0.680301 0.481147
v -0.211813 0.680212 0.481223
v -0.211325 0.680756 0.480903
v -0.211325 0.680756 0.480903
v -0.211813 0.680212 0.481223
v -0.211938 0.680301 0.481147
v -0.210601 0.681072 0.480768
v -0.211234 0.680641 0.480992
v -0.21055 0.68094 0.480865
v -0.21055 0.68094 0.480865
v -0.211234 0.680641 0.480992
v -0.210601 0.681072 0.480768
v -0.211325 0.680756 0.480903
v -0.211234 0.680641 0.480992
v -0.210601 0.681072 0.480768
v -0.210601 0.681072 0.480768
v -0.211234 0.680641 0.480992
v -0.211325 0.680756 0.480903
v -0.206772 0.679617 0.482212
v -0.206708 0.678313 0.483119
v -0.206635 0.678974 0.482671
v -0.206635 0.678974 0.482671
v -0.206708 0.678313 0.483119
v -0.206772 0.679617 0.482212
v -0.212674 0.679103 0.48189
v -0.212507 0.679081 0.481924
v -0.212398 0.679737 0.481483
v -0.212398 0.679737 0.481483
v -0.212507 0.679081 0.481924
v -0.212674 0.679103 0.48189
v -0.212446 0.67785 0.482781
v -0.212275 0.677218 0.483237
v -0.21213 0.677302 0.483196
v -0.21213 0.677302 0.483196
v -0.212275 0.677218 0.483237
v -0.212446 0.67785 0.482781
v -0.21213 0.677302 0.483196
v -0.211763 0.676739 0.483626
v -0.211647 0.676849 0.483564
v -0.211647 0.676849 0.483564
v -0.211763 0.676739 0.483626
v -0.21213 0.677302 0.483196
v -0.209814 0.681227 0.480751
v -0.21055 0.68094 0.480865
v -0.209808 0.681086 0.480849
v -0.209808 0.681086 0.480849
v -0.21055 0.68094 0.480865
v -0.209814 0.681227 0.480751
v -0.210601 0.681072 0.480768
v -0.21055 0.68094 0.480865
v -0.209814 0.681227 0.480751
v -0.209814 0.681227 0.480751
v -0.21055 0.68094 0.480865
v -0.210601 0.681072 0.480768
v -0.211647 0.676849 0.483564
v -0.211111 0.676394 0.48394
v -0.211032 0.676523 0.483859
v -0.211032 0.676523 0.483859
v -0.211111 0.676394 0.48394
v -0.211647 0.676849 0.483564
v -0.206806 0.678959 0.482662
v -0.206708 0.678313 0.483119
v -0.206772 0.679617 0.482212
v -0.206772 0.679617 0.482212
v -0.206708 0.678313 0.483119
v -0.206806 0.678959 0.482662
v -0.206875 0.678335 0.483085
v -0.206708 0.678313 0.483119
v -0.206806 0.678959 0.482662
v -0.206806 0.678959 0.482662
v -0.206708 0.678313 0.483119
v -0.206875 0.678335 0.483085
v -0.212674 0.679103 0.48189
v -0.212575 0.678457 0.482347
v -0.212507 0.679081 0.481924
v -0.212507 0.679081 0.481924
v -0.212575 0.678457 0.482347
v -0.212674 0.679103 0.48189
v -0.21261 0.677799 0.482797
v -0.212446 0.67785 0.482781
v -0.212575 0.678457 0.482347
v -0.212575 0.678457 0.482347
v -0.212446 0.67785 0.482781
v -0.21261 0.677799 0.482797
v -0.212446 0.67785 0.482781
v -0.21261 0.677799 0.482797
v -0.212275 0.677218 0.483237
v -0.212275 0.677218 0.483237
v -0.21261 0.677799 0.482797
v -0.212446 0.67785 0.482781
v -0.21213 0.677302 0.483196
v -0.212275 0.677218 0.483237
v -0.211763 0.676739 0.483626
v -0.211763 0.676739 0.483626
v -0.212275 0.677218 0.483237
v -0.21213 0.677302 0.483196
v -0.211647 0.676849 0.483564
v -0.211763 0.676739 0.483626
v -0.211111 0.676394 0.48394
v -0.211111 0.676394 0.48394
v -0.211763 0.676739 0.483626
v -0.211647 0.676849 0.483564
v -0.209019 0.68121 0.480854
v -0.209808 0.681086 0.480849
v -0.209057 0.68107 0.480946
v -0.209057 0.68107 0.480946
v -0.209808 0.681086 0.480849
v -0.209019 0.68121 0.480854
v -0.209814 0.681227 0.480751
v -0.209808 0.681086 0.480849
v -0.209019 0.68121 0.480854
v -0.209019 0.68121 0.480854
v -0.209808 0.681086 0.480849
v -0.209814 0.681227 0.480751
v -0.211032 0.676523 0.483859
v -0.210362 0.676207 0.484155
v -0.210324 0.676346 0.484063
v -0.210324 0.676346 0.484063
v -0.210362 0.676207 0.484155
v -0.211032 0.676523 0.483859
v -0.211032 0.676523 0.483859
v -0.211111 0.676394 0.48394
v -0.210362 0.676207 0.484155
v -0.210362 0.676207 0.484155
v -0.211111 0.676394 0.48394
v -0.211032 0.676523 0.483859
v -0.206772 0.679617 0.482212
v -0.206935 0.679566 0.482228
v -0.206806 0.678959 0.482662
v -0.206806 0.678959 0.482662
v -0.206935 0.679566 0.482228
v -0.206772 0.679617 0.482212
v -0.206875 0.678335 0.483085
v -0.206983 0.677679 0.483526
v -0.206708 0.678313 0.483119
v -0.206708 0.678313 0.483119
v -0.206983 0.677679 0.483526
v -0.206875 0.678335 0.483085
v -0.212674 0.679103 0.48189
v -0.21261 0.677799 0.482797
v -0.212575 0.678457 0.482347
v -0.212575 0.678457 0.482347
v -0.21261 0.677799 0.482797
v -0.212674 0.679103 0.48189
v -0.209019 0.68121 0.480854
v -0.209057 0.68107 0.480946
v -0.20835 0.680893 0.48115
v -0.20835 0.680893 0.48115
v -0.209057 0.68107 0.480946
v -0.209019 0.68121 0.480854
v -0.210324 0.676346 0.484063
v -0.209567 0.67619 0.484258
v -0.209574 0.676331 0.48416
v -0.209574 0.676331 0.48416
v -0.209567 0.67619 0.484258
v -0.210324 0.676346 0.484063
v -0.210324 0.676346 0.484063
v -0.210362 0.676207 0.484155
v -0.209567 0.67619 0.484258
v -0.209567 0.67619 0.484258
v -0.210362 0.676207 0.484155
v -0.210324 0.676346 0.484063
v -0.207569 0.677205 0.483786
v -0.207443 0.677116 0.483862
v -0.207134 0.677737 0.483469
v -0.207134 0.677737 0.483469
v -0.207443 0.677116 0.483862
v -0.207569 0.677205 0.483786
v -0.207134 0.677737 0.483469
v -0.206983 0.677679 0.483526
v -0.206875 0.678335 0.483085
v -0.206875 0.678335 0.483085
v -0.206983 0.677679 0.483526
v -0.207134 0.677737 0.483469
v -0.207107 0.680198 0.481772
v -0.206935 0.679566 0.482228
v -0.206772 0.679617 0.482212
v -0.206772 0.679617 0.482212
v -0.206935 0.679566 0.482228
v -0.207107 0.680198 0.481772
v -0.207107 0.680198 0.481772
v -0.207251 0.680115 0.481813
v -0.206935 0.679566 0.482228
v -0.206935 0.679566 0.482228
v -0.207251 0.680115 0.481813
v -0.207107 0.680198 0.481772
v -0.21261 0.677799 0.482797
v -0.212674 0.679103 0.48189
v -0.212746 0.678442 0.482338
v -0.212746 0.678442 0.482338
v -0.212674 0.679103 0.48189
v -0.21261 0.677799 0.482797
v -0.20827 0.681022 0.481069
v -0.20835 0.680893 0.48115
v -0.207734 0.680567 0.481445
v -0.207734 0.680567 0.481445
v -0.20835 0.680893 0.48115
v -0.20827 0.681022 0.481069
v -0.209019 0.68121 0.480854
v -0.20835 0.680893 0.48115
v -0.20827 0.681022 0.481069
v -0.20827 0.681022 0.481069
v -0.20835 0.680893 0.48115
v -0.209019 0.68121 0.480854
v -0.209574 0.676331 0.48416
v -0.209567 0.67619 0.484258
v -0.208831 0.676477 0.484144
v -0.208831 0.676477 0.484144
v -0.209567 0.67619 0.484258
v -0.209574 0.676331 0.48416
v -0.208147 0.676775 0.484017
v -0.208056 0.67666 0.484106
v -0.207569 0.677205 0.483786
v -0.207569 0.677205 0.483786
v -0.208056 0.67666 0.484106
v -0.208147 0.676775 0.484017
v -0.207569 0.677205 0.483786
v -0.208056 0.67666 0.484106
v -0.207443 0.677116 0.483862
v -0.207443 0.677116 0.483862
v -0.208056 0.67666 0.484106
v -0.207569 0.677205 0.483786
v -0.207134 0.677737 0.483469
v -0.207443 0.677116 0.483862
v -0.206983 0.677679 0.483526
v -0.206983 0.677679 0.483526
v -0.207443 0.677116 0.483862
v -0.207134 0.677737 0.483469
v -0.207618 0.680677 0.481383
v -0.207734 0.680567 0.481445
v -0.207251 0.680115 0.481813
v -0.207251 0.680115 0.481813
v -0.207734 0.680567 0.481445
v -0.207618 0.680677 0.481383
v -0.207618 0.680677 0.481383
v -0.207251 0.680115 0.481813
v -0.207107 0.680198 0.481772
v -0.207107 0.680198 0.481772
v -0.207251 0.680115 0.481813
v -0.207618 0.680677 0.481383
v -0.20827 0.681022 0.481069
v -0.207734 0.680567 0.481445
v -0.207618 0.680677 0.481383
v -0.207618 0.680677 0.481383
v -0.207734 0.680567 0.481445
v -0.20827 0.681022 0.481069
v -0.208831 0.676477 0.484144
v -0.20878 0.676344 0.484241
v -0.208147 0.676775 0.484017
v -0.208147 0.676775 0.484017
v -0.20878 0.676344 0.484241
v -0.208831 0.676477 0.484144
v -0.208831 0.676477 0.484144
v -0.209567 0.67619 0.484258
v -0.20878 0.676344 0.484241
v -0.20878 0.676344 0.484241
v -0.209567 0.67619 0.484258
v -0.208831 0.676477 0.484144
v -0.208147 0.676775 0.484017
v -0.20878 0.676344 0.484241
v -0.208056 0.67666 0.484106
v -0.208056 0.67666 0.484106
v -0.20878 0.676344 0.484241
v -0.208147 0.676775 0.484017
vn -0.09399663417114451 0.5657157041337767 0.8192254725415471
vn 0.09399663417114451 -0.5657157041337767 -0.8192254725415471
usemtl material_0_0
f 1//1 2//1 3//1
f 4//2 5//2 6//2
f 7//1 8//1 9//1
f 10//2 11//2 12//2
f 13//1 14//1 15//1
f 16//2 17//2 18//2
f 19//1 20//1 21//1
f 22//2 23//2 24//2
f 25//1 26//1 27//1
f 28//2 29//2 30//2
f 31//1 32//1 33//1
f 34//2 35//2 36//2
f 37//1 38//1 39//1
f 40//2 41//2 42//2
f 43//1 44//1 45//1
f 46//2 47//2 48//2
f 49//1 50//1 51//1
f 52//2 53//2 54//2
f 55//1 56//1 57//1
f 58//2 59//2 60//2
f 61//1 62//1 63//1
f 64//2 65//2 66//2
f 67//1 68//1 69//1
f 70//2 71//2 72//2
f 73//1 74//1 75//1
f 76//2 77//2 78//2
f 79//1 80//1 81//1
f 82//2 83//2 84//2
f 85//1 86//1 87//1
f 88//2 89//2 90//2
f 91//1 92//1 93//1
f 94//2 95//2 96//2
f 97//1 98//1 99//1
f 100//2 101//2 102//2
f 103//1 104//1 105//1
f 106//2 107//2 108//2
f 109//1 110//1 111//1
f 112//2 113//2 114//2
f 115//1 116//1 117//1
f 118//2 119//2 120//2
f 121//1 122//1 123//1
f 124//2 125//2 126//2
f 127//1 128//1 129//1
f 130//2 131//2 132//2
f 133//1 134//1 135//1
f 136//2 137//2 138//2
f 139//1 140//1 141//1
f 142//2 143//2 144//2
f 145//1 146//1 147//1
f 148//2 149//2 150//2
f 151//1 152//1 153//1
f 154//2 155//2 156//2
f 157//1 158//1 159//1
f 160//2 161//2 162//2
f 163//1 164//1 165//1
f 166//2 167//2 168//2
f 169//1 170//1 171//1
f 172//2 173//2 174//2
f 175//1 176//1 177//1
f 178//2 179//2 180//2
f 181//1 182//1 183//1
f 184//2 185//2 186//2
f 187//1 188//1 189//1
f 190//2 191//2 192//2
f 193//1 194//1 195//1
f 196//2 197//2 198//2
f 199//1 200//1 201//1
f 202//2 203//2 204//2
f 205//1 206//1 207//1
f 208//2 209//2 210//2
f 211//1 212//1 213//1
f 214//2 215//2 216//2
f 217//1 218//1 219//1
f 220//2 221//2 222//2
f 223//1 224//1 225//1
f 226//2 227//2 228//2
f 229//1 230//1 231//1
f 232//2 233//2 234//2
f 235//1 236//1 237//1
f 238//2 239//2 240//2
f 241//1 242//1 243//1
f 244//2 245//2 246//2
f 247//1 248//1 249//1
f 250//2 251//2 252//2
f 253//1 254//1 255//1
f 256//2 257//2 258//2
f 259//1 260//1 261//1
f 262//2 263//2 264//2
f 265//1 266//1 267//1
f 268//2 269//2 270//2
f 271//1 272//1 273//1
f 274//2 275//2 276//2
f 277//1 278//1 279//1
f 280//2 281//2 282//2
f 283//1 284//1 285//1
f 286//2 287//2 288//2
