# SSTK version 0.8.0
# 99
mtllib original-99.mtl
o 3dw.47c68395a5775e10d9deb3f829cc2475/Model/Component_18_1/Component_18/mesh1/mesh1-geometry/material_9/component_20#mesh1-geometry
v -0.106766 0.758765 -0.504096
v -0.103932 0.747971 -0.50428
v -0.103932 0.758765 -0.50428
v -0.103932 0.747971 -0.50428
v -0.106766 0.758765 -0.504096
v -0.106766 0.747971 -0.504096
v -0.106766 0.747971 -0.504096
v -0.109551 0.758765 -0.504653
v -0.109551 0.747971 -0.504653
v -0.109551 0.758765 -0.504653
v -0.106766 0.747971 -0.504096
v -0.106766 0.758765 -0.504096
v -0.101242 0.747971 -0.50519
v -0.103932 0.758765 -0.50428
v -0.103932 0.747971 -0.50428
v -0.112097 0.758765 -0.505911
v -0.109551 0.747971 -0.504653
v -0.109551 0.758765 -0.504653
v -0.103932 0.758765 -0.50428
v -0.101242 0.747971 -0.50519
v -0.101242 0.758765 -0.50519
v -0.109551 0.747971 -0.504653
v -0.112097 0.758765 -0.505911
v -0.112097 0.747971 -0.505911
v -0.098879 0.747971 -0.506766
v -0.101242 0.758765 -0.50519
v -0.101242 0.747971 -0.50519
v -0.11423 0.758765 -0.507786
v -0.112097 0.747971 -0.505911
v -0.112097 0.758765 -0.505911
v -0.106283 0.747971 -0.553856
v -0.103449 0.758765 -0.554039
v -0.103449 0.747971 -0.554039
v -0.103449 0.747971 -0.554039
v -0.100664 0.758765 -0.553482
v -0.100664 0.747971 -0.553482
v -0.101242 0.758765 -0.50519
v -0.098879 0.747971 -0.506766
v -0.098879 0.758765 -0.506766
v -0.112097 0.747971 -0.505911
v -0.11423 0.758765 -0.507786
v -0.11423 0.747971 -0.507786
v -0.103449 0.758765 -0.554039
v -0.106283 0.747971 -0.553856
v -0.106283 0.758765 -0.553856
v -0.100664 0.758765 -0.553482
v -0.103449 0.747971 -0.554039
v -0.103449 0.758765 -0.554039
v -0.098118 0.758765 -0.552224
v -0.100664 0.747971 -0.553482
v -0.100664 0.758765 -0.553482
v -0.098879 0.747971 -0.506766
v -0.097005 0.758765 -0.508899
v -0.098879 0.758765 -0.506766
v -0.11423 0.758765 -0.507786
v -0.115806 0.747971 -0.510148
v -0.11423 0.747971 -0.507786
v -0.108973 0.747971 -0.552945
v -0.106283 0.758765 -0.553856
v -0.106283 0.747971 -0.553856
v -0.100664 0.747971 -0.553482
v -0.098118 0.758765 -0.552224
v -0.098118 0.747971 -0.552224
v -0.097005 0.758765 -0.508899
v -0.098879 0.747971 -0.506766
v -0.097005 0.747971 -0.508899
v -0.115806 0.747971 -0.510148
v -0.11423 0.758765 -0.507786
v -0.115806 0.758765 -0.510148
v -0.106283 0.758765 -0.553856
v -0.108973 0.747971 -0.552945
v -0.108973 0.758765 -0.552945
v -0.095985 0.758765 -0.55035
v -0.098118 0.747971 -0.552224
v -0.098118 0.758765 -0.552224
v -0.097005 0.747971 -0.508899
v -0.095747 0.758765 -0.511445
v -0.097005 0.758765 -0.508899
v -0.115806 0.758765 -0.510148
v -0.116717 0.747971 -0.512838
v -0.115806 0.747971 -0.510148
v -0.111336 0.747971 -0.551369
v -0.108973 0.758765 -0.552945
v -0.108973 0.747971 -0.552945
v -0.098118 0.747971 -0.552224
v -0.095985 0.758765 -0.55035
v -0.095985 0.747971 -0.55035
v -0.095747 0.758765 -0.511445
v -0.097005 0.747971 -0.508899
v -0.095747 0.747971 -0.511445
v -0.116717 0.747971 -0.512838
v -0.115806 0.758765 -0.510148
v -0.116717 0.758765 -0.512838
v -0.108973 0.758765 -0.552945
v -0.111336 0.747971 -0.551369
v -0.111336 0.758765 -0.551369
v -0.11321 0.758765 -0.549236
v -0.111336 0.747971 -0.551369
v -0.11321 0.747971 -0.549236
v -0.095985 0.758765 -0.55035
v -0.094409 0.747971 -0.547987
v -0.095985 0.747971 -0.55035
v -0.095747 0.747971 -0.511445
v -0.09519 0.758765 -0.51423
v -0.095747 0.758765 -0.511445
v -0.116717 0.758765 -0.512838
v -0.1169 0.747971 -0.515672
v -0.116717 0.747971 -0.512838
v -0.111336 0.747971 -0.551369
v -0.11321 0.758765 -0.549236
v -0.111336 0.758765 -0.551369
v -0.11321 0.747971 -0.549236
v -0.114468 0.758765 -0.54669
v -0.11321 0.758765 -0.549236
v -0.094409 0.747971 -0.547987
v -0.095985 0.758765 -0.55035
v -0.094409 0.758765 -0.547987
v -0.09519 0.758765 -0.51423
v -0.095747 0.747971 -0.511445
v -0.09519 0.747971 -0.51423
v -0.1169 0.747971 -0.515672
v -0.116717 0.758765 -0.512838
v -0.1169 0.758765 -0.515672
v -0.114468 0.758765 -0.54669
v -0.11321 0.747971 -0.549236
v -0.114468 0.747971 -0.54669
v -0.094409 0.758765 -0.547987
v -0.093498 0.747971 -0.545297
v -0.094409 0.747971 -0.547987
v -0.09519 0.747971 -0.51423
v -0.093315 0.758765 -0.542463
v -0.09519 0.758765 -0.51423
v -0.1169 0.758765 -0.515672
v -0.115025 0.747971 -0.543905
v -0.1169 0.747971 -0.515672
v -0.114468 0.747971 -0.54669
v -0.115025 0.758765 -0.543905
v -0.114468 0.758765 -0.54669
v -0.093498 0.747971 -0.545297
v -0.094409 0.758765 -0.547987
v -0.093498 0.758765 -0.545297
v -0.093315 0.758765 -0.542463
v -0.09519 0.747971 -0.51423
v -0.093315 0.747971 -0.542463
v -0.115025 0.747971 -0.543905
v -0.1169 0.758765 -0.515672
v -0.115025 0.758765 -0.543905
v -0.115025 0.758765 -0.543905
v -0.114468 0.747971 -0.54669
v -0.115025 0.747971 -0.543905
v -0.093498 0.758765 -0.545297
v -0.093315 0.747971 -0.542463
v -0.093498 0.747971 -0.545297
v -0.093315 0.747971 -0.542463
v -0.093498 0.758765 -0.545297
v -0.093315 0.758765 -0.542463
v -0.103932 0.758765 -0.50428
v -0.103932 0.747971 -0.50428
v -0.106766 0.758765 -0.504096
v -0.106766 0.747971 -0.504096
v -0.106766 0.758765 -0.504096
v -0.103932 0.747971 -0.50428
v -0.109551 0.747971 -0.504653
v -0.109551 0.758765 -0.504653
v -0.106766 0.747971 -0.504096
v -0.106766 0.758765 -0.504096
v -0.106766 0.747971 -0.504096
v -0.109551 0.758765 -0.504653
v -0.103932 0.747971 -0.50428
v -0.103932 0.758765 -0.50428
v -0.101242 0.747971 -0.50519
v -0.109551 0.758765 -0.504653
v -0.109551 0.747971 -0.504653
v -0.112097 0.758765 -0.505911
v -0.101242 0.758765 -0.50519
v -0.101242 0.747971 -0.50519
v -0.103932 0.758765 -0.50428
v -0.112097 0.747971 -0.505911
v -0.112097 0.758765 -0.505911
v -0.109551 0.747971 -0.504653
v -0.101242 0.747971 -0.50519
v -0.101242 0.758765 -0.50519
v -0.098879 0.747971 -0.506766
v -0.112097 0.758765 -0.505911
v -0.112097 0.747971 -0.505911
v -0.11423 0.758765 -0.507786
v -0.103449 0.747971 -0.554039
v -0.103449 0.758765 -0.554039
v -0.106283 0.747971 -0.553856
v -0.100664 0.747971 -0.553482
v -0.100664 0.758765 -0.553482
v -0.103449 0.747971 -0.554039
v -0.098879 0.758765 -0.506766
v -0.098879 0.747971 -0.506766
v -0.101242 0.758765 -0.50519
v -0.11423 0.747971 -0.507786
v -0.11423 0.758765 -0.507786
v -0.112097 0.747971 -0.505911
v -0.106283 0.758765 -0.553856
v -0.106283 0.747971 -0.553856
v -0.103449 0.758765 -0.554039
v -0.103449 0.758765 -0.554039
v -0.103449 0.747971 -0.554039
v -0.100664 0.758765 -0.553482
v -0.100664 0.758765 -0.553482
v -0.100664 0.747971 -0.553482
v -0.098118 0.758765 -0.552224
v -0.098879 0.758765 -0.506766
v -0.097005 0.758765 -0.508899
v -0.098879 0.747971 -0.506766
v -0.11423 0.747971 -0.507786
v -0.115806 0.747971 -0.510148
v -0.11423 0.758765 -0.507786
v -0.106283 0.747971 -0.553856
v -0.106283 0.758765 -0.553856
v -0.108973 0.747971 -0.552945
v -0.098118 0.747971 -0.552224
v -0.098118 0.758765 -0.552224
v -0.100664 0.747971 -0.553482
v -0.097005 0.747971 -0.508899
v -0.098879 0.747971 -0.506766
v -0.097005 0.758765 -0.508899
v -0.115806 0.758765 -0.510148
v -0.11423 0.758765 -0.507786
v -0.115806 0.747971 -0.510148
v -0.108973 0.758765 -0.552945
v -0.108973 0.747971 -0.552945
v -0.106283 0.758765 -0.553856
v -0.098118 0.758765 -0.552224
v -0.098118 0.747971 -0.552224
v -0.095985 0.758765 -0.55035
v -0.097005 0.758765 -0.508899
v -0.095747 0.758765 -0.511445
v -0.097005 0.747971 -0.508899
v -0.115806 0.747971 -0.510148
v -0.116717 0.747971 -0.512838
v -0.115806 0.758765 -0.510148
v -0.108973 0.747971 -0.552945
v -0.108973 0.758765 -0.552945
v -0.111336 0.747971 -0.551369
v -0.095985 0.747971 -0.55035
v -0.095985 0.758765 -0.55035
v -0.098118 0.747971 -0.552224
v -0.095747 0.747971 -0.511445
v -0.097005 0.747971 -0.508899
v -0.095747 0.758765 -0.511445
v -0.116717 0.758765 -0.512838
v -0.115806 0.758765 -0.510148
v -0.116717 0.747971 -0.512838
v -0.111336 0.758765 -0.551369
v -0.111336 0.747971 -0.551369
v -0.108973 0.758765 -0.552945
v -0.11321 0.747971 -0.549236
v -0.111336 0.747971 -0.551369
v -0.11321 0.758765 -0.549236
v -0.095985 0.747971 -0.55035
v -0.094409 0.747971 -0.547987
v -0.095985 0.758765 -0.55035
v -0.095747 0.758765 -0.511445
v -0.09519 0.758765 -0.51423
v -0.095747 0.747971 -0.511445
v -0.116717 0.747971 -0.512838
v -0.1169 0.747971 -0.515672
v -0.116717 0.758765 -0.512838
v -0.111336 0.758765 -0.551369
v -0.11321 0.758765 -0.549236
v -0.111336 0.747971 -0.551369
v -0.11321 0.758765 -0.549236
v -0.114468 0.758765 -0.54669
v -0.11321 0.747971 -0.549236
v -0.094409 0.758765 -0.547987
v -0.095985 0.758765 -0.55035
v -0.094409 0.747971 -0.547987
v -0.09519 0.747971 -0.51423
v -0.095747 0.747971 -0.511445
v -0.09519 0.758765 -0.51423
v -0.1169 0.758765 -0.515672
v -0.116717 0.758765 -0.512838
v -0.1169 0.747971 -0.515672
v -0.114468 0.747971 -0.54669
v -0.11321 0.747971 -0.549236
v -0.114468 0.758765 -0.54669
v -0.094409 0.747971 -0.547987
v -0.093498 0.747971 -0.545297
v -0.094409 0.758765 -0.547987
v -0.09519 0.758765 -0.51423
v -0.093315 0.758765 -0.542463
v -0.09519 0.747971 -0.51423
v -0.1169 0.747971 -0.515672
v -0.115025 0.747971 -0.543905
v -0.1169 0.758765 -0.515672
v -0.114468 0.758765 -0.54669
v -0.115025 0.758765 -0.543905
v -0.114468 0.747971 -0.54669
v -0.093498 0.758765 -0.545297
v -0.094409 0.758765 -0.547987
v -0.093498 0.747971 -0.545297
v -0.093315 0.747971 -0.542463
v -0.09519 0.747971 -0.51423
v -0.093315 0.758765 -0.542463
v -0.115025 0.758765 -0.543905
v -0.1169 0.758765 -0.515672
v -0.115025 0.747971 -0.543905
v -0.115025 0.747971 -0.543905
v -0.114468 0.747971 -0.54669
v -0.115025 0.758765 -0.543905
v -0.093498 0.747971 -0.545297
v -0.093315 0.747971 -0.542463
v -0.093498 0.758765 -0.545297
v -0.093315 0.758765 -0.542463
v -0.093498 0.758765 -0.545297
v -0.093315 0.747971 -0.542463
vn -0.06627355889066593 0.0 0.9978014909750162
vn 0.19423461538128076 0.0 0.980955103043807
vn -0.32226530214980137 0.0 0.9466493939311942
vn 0.4415063540450231 0.0 0.8972581230269642
vn -0.5562955109012491 0.0 0.8309845392972834
vn 0.6586897176415258 0.0 0.7524146834514377
vn -0.7524146834514377 0.0 0.6586897176415258
vn -0.19423461538128076 0.0 -0.980955103043807
vn 0.06627355889066593 0.0 -0.9978014909750162
vn 0.32226530214980137 0.0 -0.9466493939311942
vn 0.5562955109012491 0.0 -0.8309845392972834
vn 0.8309845392972834 0.0 0.5562955109012491
vn -0.8972581230269642 0.0 0.4415063540450231
vn -0.4415063540450231 0.0 -0.8972581230269642
vn 0.7524146834514377 0.0 -0.6586897176415258
vn 0.9466493939311942 0.0 0.32226530214980137
vn -0.980955103043807 0.0 0.19423461538128076
vn -0.6586897176415258 0.0 -0.7524146834514377
vn -0.8309845392972834 0.0 -0.5562955109012491
vn 0.8972581230269642 0.0 -0.4415063540450231
vn 0.9913306409293468 0.0 0.13139086861197996
vn -0.9999996194095095 0.0 -0.0008724567819051159
vn -0.9466493939311942 0.0 -0.32226530214980137
vn 0.980955103043807 0.0 -0.19423461538128076
vn 0.9999996194095095 0.0 0.0008724567819051159
vn -0.9913306409293468 0.0 -0.13139086861197996
usemtl material_0_0
f 1//1 2//2 3//2
f 4//2 5//1 6//1
f 7//1 8//3 9//3
f 10//3 11//1 12//1
f 13//4 14//2 15//2
f 16//5 17//3 18//3
f 19//2 20//4 21//4
f 22//3 23//5 24//5
f 25//6 26//4 27//4
f 28//7 29//5 30//5
f 31//8 32//9 33//9
f 34//9 35//10 36//10
f 37//4 38//6 39//6
f 40//5 41//7 42//7
f 43//9 44//8 45//8
f 46//10 47//9 48//9
f 49//11 50//10 51//10
f 52//6 53//12 54//6
f 55//7 56//13 57//7
f 58//14 59//8 60//8
f 61//10 62//11 63//11
f 64//12 65//6 66//12
f 67//13 68//7 69//13
f 70//8 71//14 72//14
f 73//15 74//11 75//11
f 76//12 77//16 78//12
f 79//13 80//17 81//13
f 82//18 83//14 84//14
f 85//11 86//15 87//15
f 88//16 89//12 90//16
f 91//17 92//13 93//17
f 94//14 95//18 96//18
f 97//19 98//18 99//19
f 100//15 101//20 102//15
f 103//16 104//21 105//16
f 106//17 107//22 108//17
f 109//18 110//19 111//18
f 112//19 113//23 114//19
f 115//20 116//15 117//20
f 118//21 119//16 120//21
f 121//22 122//17 123//22
f 124//23 125//19 126//23
f 127//20 128//24 129//20
f 130//21 131//25 132//21
f 133//22 134//26 135//22
f 136//23 137//26 138//23
f 139//24 140//20 141//24
f 142//25 143//21 144//25
f 145//26 146//22 147//26
f 148//26 149//23 150//26
f 151//24 152//25 153//24
f 154//25 155//24 156//25
usemtl material_1_0
f 157//8 158//8 159//9
f 160//9 161//9 162//8
f 163//10 164//10 165//9
f 166//9 167//9 168//10
f 169//8 170//8 171//14
f 172//10 173//10 174//11
f 175//14 176//14 177//8
f 178//11 179//11 180//10
f 181//14 182//14 183//18
f 184//11 185//11 186//15
f 187//1 188//1 189//2
f 190//3 191//3 192//1
f 193//18 194//18 195//14
f 196//15 197//15 198//11
f 199//2 200//2 201//1
f 202//1 203//1 204//3
f 205//3 206//3 207//5
f 208//18 209//19 210//18
f 211//15 212//20 213//15
f 214//2 215//2 216//4
f 217//5 218//5 219//3
f 220//19 221//18 222//19
f 223//20 224//15 225//20
f 226//4 227//4 228//2
f 229//5 230//5 231//7
f 232//19 233//23 234//19
f 235//20 236//24 237//20
f 238//4 239//4 240//6
f 241//7 242//7 243//5
f 244//23 245//19 246//23
f 247//24 248//20 249//24
f 250//6 251//6 252//4
f 253//12 254//6 255//12
f 256//7 257//13 258//7
f 259//23 260//26 261//23
f 262//24 263//25 264//24
f 265//6 266//12 267//6
f 268//12 269//16 270//12
f 271//13 272//7 273//13
f 274//26 275//23 276//26
f 277//25 278//24 279//25
f 280//16 281//12 282//16
f 283//13 284//17 285//13
f 286//26 287//22 288//26
f 289//25 290//21 291//25
f 292//16 293//21 294//16
f 295//17 296//13 297//17
f 298//22 299//26 300//22
f 301//21 302//25 303//21
f 304//21 305//16 306//21
f 307//17 308//22 309//17
f 310//22 311//17 312//22
