# SSTK version 0.8.0
# 14
mtllib original-14.mtl
o Group8/mesh28/mesh28-geometry#mesh28-geometry
v 0.458698 -0.393345 0.421298
v 0.449293 -0.393494 0.422182
v 0.450177 -0.395629 0.422182
v 0.456933 -0.389083 0.421298
v 0.450478 -0.397920 0.422182
v 0.441629 -0.397920 0.422737
v 0.467182 -0.391070 0.420092
v 0.447886 -0.391660 0.422182
v 0.459301 -0.397920 0.421298
v 0.450177 -0.400208 0.422182
v 0.449293 -0.402343 0.422182
v 0.458698 -0.402491 0.421298
v 0.464539 -0.384692 0.420092
v 0.468084 -0.397920 0.420092
v 0.454124 -0.385422 0.421298
v 0.446055 -0.390255 0.422182
v 0.456933 -0.406753 0.421298
v 0.447886 -0.404176 0.422182
v 0.467182 -0.391070 0.417446
v 0.418719 -0.384692 0.417446
v 0.464539 -0.384692 0.417446
v 0.468084 -0.397920 0.417446
v 0.416076 -0.391070 0.417446
v 0.450465 -0.382615 0.421298
v 0.454124 -0.410414 0.421298
v 0.467182 -0.404766 0.420092
v 0.422922 -0.379213 0.417446
v 0.460336 -0.379213 0.420092
v 0.415174 -0.397920 0.417446
v 0.467182 -0.404766 0.417446
v 0.443920 -0.389372 0.422182
v 0.446055 -0.405581 0.422182
v 0.464539 -0.411147 0.420092
v 0.416076 -0.391070 0.420092
v 0.426325 -0.389083 0.421298
v 0.418719 -0.384692 0.420092
v 0.429134 -0.385422 0.421298
v 0.422922 -0.379213 0.420092
v 0.460336 -0.379213 0.417446
v 0.415174 -0.397920 0.420092
v 0.454857 -0.375007 0.420092
v 0.443920 -0.406467 0.422182
v 0.460336 -0.416626 0.420092
v 0.464539 -0.411147 0.417446
v 0.416076 -0.404766 0.417446
v 0.424560 -0.393345 0.421298
v 0.432793 -0.382615 0.421298
v 0.428401 -0.375007 0.417446
v 0.454857 -0.375007 0.417446
v 0.423957 -0.397920 0.421298
v 0.446203 -0.380851 0.421298
v 0.441629 -0.389070 0.422182
v 0.439338 -0.389372 0.422182
v 0.441629 -0.406766 0.422182
v 0.450465 -0.413221 0.421298
v 0.460336 -0.416626 0.417446
v 0.418719 -0.411147 0.417446
v 0.433965 -0.393494 0.422182
v 0.435372 -0.391660 0.422182
v 0.428401 -0.375007 0.420092
v 0.437206 -0.390255 0.422182
v 0.424560 -0.402491 0.421298
v 0.416076 -0.404766 0.420092
v 0.448476 -0.372364 0.417446
v 0.448476 -0.372364 0.420092
v 0.437206 -0.405581 0.422182
v 0.439338 -0.406467 0.422182
v 0.446203 -0.414989 0.421298
v 0.437055 -0.414989 0.421298
v 0.454857 -0.420830 0.420092
v 0.422922 -0.416626 0.417446
v 0.418719 -0.411147 0.420092
v 0.426325 -0.406753 0.421298
v 0.433081 -0.395629 0.422182
v 0.437055 -0.380851 0.421298
v 0.434782 -0.372364 0.420092
v 0.434782 -0.372364 0.417446
v 0.433081 -0.400208 0.422182
v 0.441629 -0.380247 0.421298
v 0.435372 -0.404176 0.422182
v 0.433965 -0.402343 0.422182
v 0.432793 -0.413221 0.421298
v 0.441629 -0.415589 0.421298
v 0.454857 -0.420830 0.417446
v 0.429134 -0.410414 0.421298
v 0.422922 -0.416626 0.420092
v 0.432780 -0.397920 0.422182
v 0.441629 -0.371464 0.417446
v 0.441629 -0.371464 0.420092
v 0.448476 -0.423473 0.420092
v 0.434782 -0.423473 0.420092
v 0.428401 -0.420830 0.417446
v 0.428401 -0.420830 0.420092
v 0.441629 -0.424375 0.420092
v 0.448476 -0.423473 0.417446
v 0.434782 -0.423473 0.417446
v 0.441629 -0.424375 0.417446
vn 0.11381804528724176 0.030498012134901983 0.9930333951196256
vn 0.07027096874028273 0.040570981952185045 0.9967025566214516
vn 0.07837696604949616 0.02100099090301302 0.9967025682589404
vn 0.10204703356393816 0.05891701937819359 0.9930333266151695
vn -0.07837696604949616 -0.02100099090301302 -0.9967025682589404
vn -0.07027096874028273 -0.040570981952185045 -0.9967025566214516
vn -0.11381804528724176 -0.030498012134901983 -0.9930333951196256
vn -0.10204703356393816 -0.05891701937819359 -0.9930333266151695
vn -0.08114196371441736 0 -0.9967025542881728
vn 0 0 -1
vn 0.08114196371441736 0 0.9967025542881728
vn 0 0 1
vn 0.1314799498043175 0.03522998655009184 0.9906926217788918
vn -0.1314799498043175 -0.03522998655009184 -0.9906926217788918
vn 0.057375974727007534 0.05737597472700731 0.9967025609720542
vn 0.11783304978577018 0 0.9930334195676316
vn -0.11783304978577018 0 -0.9930334195676316
vn -0.07837696604949616 0.021000990903013463 -0.9967025682589404
vn 0.07027096874028273 -0.04057098195218549 0.9967025566214516
vn 0.11381804528724176 -0.030498012134902427 0.9930333951196256
vn 0.07837696604949616 -0.021000990903013463 0.9967025682589404
vn -0.057375974727007534 -0.05737597472700731 -0.9967025609720542
vn 0.11788195204244885 0.06805897231177788 0.9906925969595849
vn -0.11788195204244885 -0.06805897231177788 -0.9906925969595849
vn 0.136117950305183 0 0.9906926383115583
vn -0.136117950305183 0 -0.9906926383115583
vn 0.08332102844701213 0.0833210284470119 0.9930333390360387
vn 0.04057098195218527 0.0702709687402825 0.9967025566214516
vn -0.11381804528724176 0.030498012134902427 -0.9930333951196256
vn -0.10204703356393816 0.05891701937819403 -0.9930333266151695
vn -0.07027096874028273 0.04057098195218549 -0.9967025566214516
vn 0.057375974727007534 -0.057375974727007756 0.9967025609720542
vn -0.057375974727007534 0.057375974727007756 -0.9967025609720542
vn 0.965925849201117 0.2588189595935754 0
vn 0.8660253028382762 0.5000001748438417 0
vn -0.965925849201117 -0.2588189595935754 0
vn -0.8660253028382762 -0.5000001748438417 0
vn -0.08332102844701213 -0.0833210284470119 -0.9930333390360387
vn 1 0 0
vn -1 0 0
vn 0.05891701937819381 0.10204703356393793 0.9930333266151695
vn -0.04057098195218527 -0.0702709687402825 -0.9967025566214516
vn -0.05891701937819381 -0.10204703356393793 -0.9930333266151695
vn 0.10204703356393816 -0.05891701937819403 0.9930333266151695
vn 0.08332102844701213 -0.08332102844701235 0.9930333390360387
vn -0.08332102844701213 0.08332102844701235 -0.9930333390360387
vn 0.1314799498043175 -0.03522998655009228 0.9906926217788918
vn -0.1314799498043175 0.03522998655009228 -0.9906926217788918
vn 0.7071067811865476 0.7071067811865476 0
vn -0.7071067811865476 -0.7071067811865476 0
vn 0.09624996413491192 0.0962499641349117 0.9906926308437226
vn -0.09624996413491192 -0.0962499641349117 -0.9906926308437226
vn 0.965925849201117 -0.2588189595935754 0
vn -0.965925849201117 0.2588189595935754 0
vn 0.02100099090301324 0.07837696604949594 0.9967025682589404
vn -0.04057098195218527 0.07027096874028295 -0.9967025566214516
vn 0.11788195204244885 -0.06805897231177832 0.9906925969595849
vn -0.11788195204244885 0.06805897231177832 -0.9906925969595849
vn -0.1314799498043175 0.03522998655009184 0.9906926217788918
vn -0.10204703356393816 0.05891701937819359 0.9930333266151695
vn -0.11788195204244885 0.06805897231177788 0.9906925969595849
vn 0.11788195204244885 -0.06805897231177788 -0.9906925969595849
vn 0.10204703356393816 -0.05891701937819359 -0.9930333266151695
vn 0.1314799498043175 -0.03522998655009184 -0.9906926217788918
vn -0.8660253028382762 0.5000001748438417 0
vn 0.8660253028382762 -0.5000001748438417 0
vn -0.08332102844701213 0.0833210284470119 0.9930333390360387
vn -0.09624996413491192 0.0962499641349117 0.9906926308437226
vn 0.09624996413491192 -0.0962499641349117 -0.9906926308437226
vn 0.08332102844701213 -0.0833210284470119 -0.9930333390360387
vn 0.7071067811865476 -0.7071067811865476 0
vn 0.0680589723117781 0.11788195204244863 0.9906925969595849
vn -0.0680589723117781 -0.11788195204244863 -0.9906925969595849
vn -0.02100099090301324 -0.07837696604949594 -0.9967025682589404
vn 0.04057098195218527 -0.07027096874028295 0.9967025566214516
vn 0.02100099090301324 -0.07837696604949639 0.9967025682589404
vn 0.09624996413491192 -0.09624996413491214 0.9906926308437226
vn -0.09624996413491192 0.09624996413491214 -0.9906926308437226
vn -0.11381804528724176 0.030498012134901983 0.9930333951196256
vn 0.11381804528724176 -0.030498012134901983 -0.9930333951196256
vn -0.7071067811865476 0.7071067811865476 0
vn -0.05891701937819381 0.10204703356393793 0.9930333266151695
vn 0.05891701937819381 -0.10204703356393793 -0.9930333266151695
vn 0.5000001748438417 0.8660253028382762 0
vn -0.5000001748438417 -0.8660253028382762 0
vn -0.11783304978577018 0 0.9930334195676316
vn -0.136117950305183 0 0.9906926383115583
vn 0.136117950305183 0 -0.9906926383115583
vn 0.11783304978577018 0 -0.9930334195676316
vn 0.030498012134902205 0.11381804528724154 0.9930333951196256
vn -0.030498012134902205 -0.11381804528724154 -0.9930333951196256
vn 0 0.08114196371441713 0.9967025542881728
vn 0 -0.08114196371441713 -0.9967025542881728
vn -0.02100099090301324 0.07837696604949594 0.9967025682589404
vn -0.02100099090301324 0.07837696604949639 -0.9967025682589404
vn 0 -0.08114196371441758 0.9967025542881728
vn 0.05891701937819381 -0.10204703356393838 0.9930333266151695
vn -0.05891701937819381 0.10204703356393838 -0.9930333266151695
vn 0 0.08114196371441758 -0.9967025542881728
vn -0.07027096874028273 0.040570981952185045 0.9967025566214516
vn 0.07027096874028273 -0.040570981952185045 -0.9967025566214516
vn -0.057375974727007534 0.05737597472700731 0.9967025609720542
vn 0.057375974727007534 -0.05737597472700731 -0.9967025609720542
vn -0.0680589723117781 0.11788195204244863 0.9906925969595849
vn 0.0680589723117781 -0.11788195204244863 -0.9906925969595849
vn -0.04057098195218527 0.0702709687402825 0.9967025566214516
vn 0.04057098195218527 -0.0702709687402825 -0.9967025566214516
vn -0.5000001748438417 0.8660253028382762 0
vn 0.5000001748438417 -0.8660253028382762 0
vn -0.11381804528724176 -0.030498012134902427 0.9930333951196256
vn -0.1314799498043175 -0.03522998655009228 0.9906926217788918
vn 0.1314799498043175 0.03522998655009228 -0.9906926217788918
vn 0.11381804528724176 0.030498012134902427 -0.9930333951196256
vn 0.2588189595935754 0.965925849201117 0
vn -0.2588189595935754 -0.965925849201117 0
vn 0.03522998655009206 0.13147994980431726 0.9906926217788918
vn -0.03522998655009206 -0.13147994980431726 -0.9906926217788918
vn 0.02100099090301324 -0.07837696604949594 -0.9967025682589404
vn -0.04057098195218527 -0.07027096874028295 0.9967025566214516
vn -0.02100099090301324 -0.07837696604949639 0.9967025682589404
vn 0.02100099090301324 0.07837696604949639 -0.9967025682589404
vn 0.04057098195218527 0.07027096874028295 -0.9967025566214516
vn -0.030498012134902205 0.11381804528724199 -0.9930333951196256
vn 0.030498012134902205 0.11381804528724199 -0.9930333951196256
vn 0.0680589723117781 -0.11788195204244907 0.9906925969595849
vn -0.0680589723117781 0.11788195204244907 -0.9906925969595849
vn -0.10204703356393816 -0.05891701937819403 0.9930333266151695
vn -0.11788195204244885 -0.06805897231177832 0.9906925969595849
vn 0.11788195204244885 0.06805897231177832 -0.9906925969595849
vn 0.10204703356393816 0.05891701937819403 -0.9930333266151695
vn -0.07837696604949616 0.02100099090301302 0.9967025682589404
vn 0.07837696604949616 -0.02100099090301302 -0.9967025682589404
vn -0.030498012134902205 0.11381804528724154 0.9930333951196256
vn 0.030498012134902205 -0.11381804528724154 -0.9930333951196256
vn -0.2588189595935754 0.965925849201117 0
vn 0.2588189595935754 -0.965925849201117 0
vn -0.07837696604949616 -0.021000990903013463 0.9967025682589404
vn 0.07837696604949616 0.021000990903013463 -0.9967025682589404
vn 0 0.11783304978576999 0.9930334195676318
vn 0 -0.11783304978576999 -0.9930334195676318
vn -0.057375974727007534 -0.057375974727007756 0.9967025609720542
vn 0.057375974727007534 0.057375974727007756 -0.9967025609720542
vn 0.07027096874028273 0.04057098195218549 -0.9967025566214516
vn -0.05891701937819381 -0.10204703356393838 0.9930333266151695
vn 0.05891701937819381 0.10204703356393838 -0.9930333266151695
vn -0.030498012134902205 -0.11381804528724199 0.9930333951196256
vn 0.030498012134902205 -0.11381804528724199 0.9930333951196256
vn 0 -0.1178330497857704 0.9930334195676316
vn 0 0.1178330497857704 -0.9930334195676316
vn -0.08332102844701213 -0.08332102844701235 0.9930333390360387
vn -0.09624996413491192 -0.09624996413491214 0.9906926308437226
vn 0.09624996413491192 0.09624996413491214 -0.9906926308437226
vn 0.08332102844701213 0.08332102844701235 -0.9930333390360387
vn 0.08114196371441736 0 -0.9967025542881728
vn -0.03522998655009206 0.13147994980431726 0.9906926217788918
vn 0.03522998655009206 -0.13147994980431726 -0.9906926217788918
vn -0.07027096874028273 -0.04057098195218549 0.9967025566214516
vn -0.08114196371441736 0 0.9967025542881728
vn 0 1 0
vn 0 -1 0
vn 0 0.13611795030518278 0.9906926383115583
vn 0 -0.13611795030518278 -0.9906926383115583
vn 0.03522998655009206 -0.1314799498043177 0.9906926217788918
vn -0.03522998655009206 0.1314799498043177 -0.9906926217788918
vn -0.03522998655009206 -0.1314799498043177 0.9906926217788918
vn 0.03522998655009206 0.1314799498043177 -0.9906926217788918
vn -0.0680589723117781 -0.11788195204244907 0.9906925969595849
vn 0.0680589723117781 0.11788195204244907 -0.9906925969595849
vn 0 -0.13611795030518323 0.9906926383115583
vn 0 0.13611795030518323 -0.9906926383115583
usemtl material_0_0
f 1//1 2//2 3//3
f 2//2 1//1 4//4
f 3//5 2//6 1//7
f 4//8 1//7 2//6
f 3//5 1//7 5//9
f 5//9 6//10 3//5
f 5//11 1//1 3//3
f 2//2 6//12 3//3
f 3//5 6//10 2//6
f 7//13 4//4 1//1
f 1//7 4//8 7//14
f 4//4 8//15 2//2
f 1//1 5//11 9//16
f 9//17 5//9 1//7
f 5//9 9//17 10//18
f 11//19 12//20 10//21
f 3//3 6//12 5//11
f 6//12 10//21 5//11
f 5//9 10//18 6//10
f 8//15 6//12 2//2
f 2//6 6//10 8//22
f 4//4 7//13 13//23
f 13//24 7//14 4//8
f 1//1 14//25 7//13
f 7//14 14//26 1//7
f 2//6 8//22 4//8
f 15//27 16//28 8//15
f 9//16 10//21 12//20
f 10//21 9//16 5//11
f 12//29 10//18 9//17
f 14//25 1//1 9//16
f 9//17 1//7 14//26
f 17//30 11//31 12//29
f 10//18 12//29 11//31
f 6//12 11//19 10//21
f 10//18 11//31 6//10
f 6//12 18//32 11//19
f 11//31 18//33 6//10
f 19//10 20//10 21//10
f 21//12 20//12 19//12
f 19//34 13//35 7//34
f 13//35 19//34 21//35
f 7//36 13//37 19//36
f 21//37 19//36 13//37
f 13//23 15//27 4//4
f 4//8 15//38 13//24
f 22//10 23//10 19//10
f 19//12 23//12 22//12
f 22//39 7//34 14//39
f 7//34 22//39 19//34
f 14//40 7//36 22//40
f 19//36 22//40 7//36
f 8//15 4//4 15//27
f 15//38 4//8 8//22
f 16//28 15//27 24//41
f 8//22 16//42 15//38
f 24//43 15//38 16//42
f 12//20 11//19 17//44
f 12//20 14//25 9//16
f 9//17 14//26 12//29
f 17//44 18//32 25//45
f 18//32 17//44 11//19
f 25//46 18//33 17//30
f 11//31 17//30 18//33
f 17//44 26//47 12//20
f 12//29 26//48 17//30
f 19//10 23//10 20//10
f 20//12 23//12 19//12
f 21//10 20//10 27//10
f 27//12 20//12 21//12
f 21//35 28//49 13//35
f 13//37 28//50 21//37
f 15//27 13//23 28//51
f 28//52 13//24 15//38
f 22//10 29//10 23//10
f 23//12 29//12 22//12
f 14//39 30//53 22//39
f 22//40 30//54 14//40
f 28//51 24//41 15//27
f 15//38 24//43 28//52
f 24//41 31//55 16//28
f 14//25 12//20 26//47
f 26//48 12//29 14//26
f 18//33 25//46 32//56
f 25//45 33//57 17//44
f 17//30 33//58 25//46
f 26//47 17//44 33//57
f 33//58 17//30 26//48
f 34//59 35//60 36//61
f 36//62 35//63 34//64
f 20//65 34//54 36//65
f 34//54 20//65 23//54
f 36//66 34//53 20//66
f 23//53 20//66 34//53
f 36//61 37//67 38//68
f 38//69 37//70 36//62
f 38//71 36//66 27//71
f 21//10 27//10 39//10
f 39//12 27//12 21//12
f 39//50 21//37 28//50
f 28//49 21//35 39//49
f 30//10 29//10 22//10
f 22//12 29//12 30//12
f 23//54 40//40 34//54
f 30//53 14//39 26//53
f 26//54 14//40 30//54
f 24//41 28//51 41//72
f 41//73 28//52 24//43
f 16//42 31//74 24//43
f 31//55 6//12 16//28
f 16//42 6//10 31//74
f 6//12 32//75 18//32
f 18//33 32//56 6//10
f 32//75 25//45 18//32
f 6//12 42//76 32//75
f 33//57 25//45 43//77
f 43//78 25//46 33//58
f 44//10 45//10 30//10
f 30//12 45//12 44//12
f 44//66 26//53 33//66
f 26//53 44//66 30//53
f 33//65 26//54 44//65
f 30//54 44//65 26//54
f 35//60 34//59 46//79
f 46//80 34//64 35//63
f 37//67 36//61 35//60
f 35//63 36//62 37//70
f 36//65 27//81 20//65
f 20//66 27//71 36//66
f 34//53 40//39 23//53
f 47//82 38//68 37//67
f 37//70 38//69 47//83
f 27//81 36//65 38//81
f 39//10 27//10 48//10
f 48//12 27//12 39//12
f 49//84 28//49 39//49
f 39//50 28//50 49//85
f 30//10 45//10 29//10
f 29//12 45//12 30//12
f 40//40 23//54 29//40
f 29//39 23//53 40//39
f 50//86 34//59 40//87
f 40//88 34//64 50//89
f 28//49 49//84 41//84
f 41//85 49//85 28//50
f 41//72 51//90 24//41
f 24//43 51//91 41//73
f 31//55 24//41 51//90
f 51//91 24//43 31//74
f 52//92 6//12 31//55
f 31//74 6//10 52//93
f 52//92 53//94 6//12
f 16//28 6//12 8//15
f 8//22 6//10 16//42
f 32//56 42//95 6//10
f 6//12 54//96 42//76
f 25//45 32//75 55//97
f 55//98 32//56 25//46
f 42//95 54//99 6//10
f 55//97 43//77 25//45
f 25//46 43//78 55//98
f 56//10 57//10 44//10
f 44//12 57//12 56//12
f 56//71 33//66 43//71
f 33//66 56//71 44//66
f 43//81 33//65 56//81
f 44//65 56//81 33//65
f 44//10 57//10 45//10
f 45//12 57//12 44//12
f 34//59 50//86 46//79
f 46//80 50//89 34//64
f 46//79 58//100 35//60
f 35//63 58//101 46//80
f 35//60 59//102 37//67
f 37//70 59//103 35//63
f 38//68 47//82 60//104
f 60//105 47//83 38//69
f 37//67 61//106 47//82
f 47//83 61//107 37//70
f 60//108 27//81 38//81
f 38//71 27//71 60//109
f 27//81 60//108 48//108
f 39//10 48//10 49//10
f 49//12 48//12 39//12
f 62//110 40//87 63//111
f 63//112 40//88 62//113
f 29//40 63//36 40//40
f 63//36 29//40 45//36
f 40//39 63//34 29//39
f 45//34 29//39 63//34
f 40//87 62//110 50//86
f 50//89 62//113 40//88
f 64//114 41//84 49//84
f 49//85 41//85 64//115
f 51//90 41//72 65//116
f 65//117 41//73 51//91
f 51//90 52//92 31//55
f 6//10 61//107 53//118
f 61//106 59//102 6//12
f 6//10 53//118 52//93
f 31//74 52//93 51//91
f 6//12 66//119 67//120
f 67//121 66//122 6//10
f 6//12 67//120 54//96
f 54//99 67//121 6//10
f 42//95 68//123 54//99
f 67//121 54//99 69//124
f 43//77 55//97 70//125
f 70//126 55//98 43//78
f 56//10 71//10 57//10
f 57//12 71//12 56//12
f 70//109 56//71 43//71
f 43//81 56//81 70//108
f 45//36 72//37 63//36
f 72//37 45//36 57//37
f 63//34 72//35 45//34
f 57//35 45//34 72//35
f 73//127 63//111 72//128
f 72//129 63//112 73//130
f 50//86 74//131 46//79
f 46//80 74//132 50//89
f 58//100 46//79 74//131
f 59//102 35//60 58//100
f 58//101 35//63 59//103
f 59//103 37//70 61//107
f 75//133 60//104 47//82
f 47//83 60//105 75//134
f 48//109 60//109 27//71
f 61//106 37//67 59//102
f 61//107 47//83 53//118
f 76//135 48//108 60//108
f 60//109 48//109 76//136
f 49//10 48//10 77//10
f 77//12 48//12 49//12
f 63//111 73//127 62//110
f 62//113 73//130 63//112
f 78//137 50//86 62//110
f 62//113 50//89 78//138
f 41//84 64//114 65//114
f 65//115 64//115 41//85
f 49//10 77//10 64//10
f 64//12 77//12 49//12
f 65//116 79//139 51//90
f 51//91 79//140 65//117
f 53//94 61//106 6//12
f 6//10 59//103 61//107
f 53//94 47//82 61//106
f 59//102 58//100 6//12
f 6//10 58//101 59//103
f 52//92 51//90 79//139
f 79//140 51//91 52//93
f 6//12 80//141 66//119
f 66//122 80//142 6//10
f 81//143 78//138 6//10
f 82//144 67//120 66//119
f 66//122 67//121 82//145
f 69//146 54//96 67//120
f 55//97 42//76 68//147
f 68//123 42//95 55//98
f 68//147 54//96 83//148
f 54//96 68//147 42//76
f 83//149 54//99 68//123
f 54//96 69//146 83//148
f 83//149 69//124 54//99
f 68//147 70//125 55//97
f 55//98 70//126 68//123
f 84//10 71//10 56//10
f 56//12 71//12 84//12
f 56//71 70//109 84//109
f 84//108 70//108 56//81
f 85//150 72//128 86//151
f 86//152 72//129 85//153
f 57//37 86//50 72//37
f 86//50 57//37 71//50
f 72//35 86//49 57//35
f 71//49 57//35 86//49
f 72//128 85//150 73//127
f 73//130 85//153 72//129
f 87//154 50//89 74//132
f 74//132 46//80 58//101
f 6//10 74//132 58//101
f 58//100 74//131 6//12
f 60//104 75//133 76//155
f 76//156 75//134 60//105
f 47//82 53//94 75//133
f 75//134 53//118 47//83
f 48//108 76//135 77//135
f 77//136 76//136 48//109
f 81//157 62//110 73//127
f 73//130 62//113 81//143
f 50//86 78//137 87//158
f 87//154 78//138 50//89
f 62//110 81//157 78//137
f 78//138 81//143 62//113
f 74//131 50//86 87//158
f 88//159 65//114 64//114
f 64//115 65//115 88//160
f 64//10 77//10 88//10
f 88//12 77//12 64//12
f 79//139 65//116 89//161
f 89//162 65//117 79//140
f 75//133 52//92 79//139
f 79//140 52//93 75//134
f 85//150 66//119 80//141
f 80//142 66//122 85//153
f 73//127 80//141 81//157
f 81//143 80//142 73//130
f 6//12 78//137 81//157
f 6//10 78//138 87//154
f 6//12 81//157 80//141
f 80//142 81//143 6//10
f 87//158 78//137 6//12
f 67//120 82//144 69//146
f 69//124 82//145 67//121
f 66//119 85//150 82//144
f 82//145 85//153 66//122
f 42//76 55//97 32//75
f 32//56 55//98 42//95
f 83//148 90//163 68//147
f 68//123 90//164 83//149
f 91//165 83//148 69//146
f 69//124 83//149 91//166
f 70//125 68//147 90//163
f 90//164 68//123 70//126
f 84//10 92//10 71//10
f 71//12 92//12 84//12
f 90//136 84//109 70//109
f 70//108 84//108 90//135
f 86//151 82//144 85//150
f 85//153 82//145 86//152
f 92//85 86//50 71//50
f 71//49 86//49 92//84
f 80//141 73//127 85//150
f 85//153 73//130 80//142
f 74//131 87//158 6//12
f 6//10 87//154 74//132
f 79//139 76//155 75//133
f 75//134 76//156 79//140
f 52//92 75//133 53//94
f 53//118 75//134 52//93
f 89//159 77//135 76//135
f 76//136 77//136 89//160
f 65//114 88//159 89//159
f 89//160 88//160 65//115
f 77//135 89//159 88//159
f 88//160 89//160 77//136
f 76//155 79//139 89//161
f 89//162 79//140 76//156
f 93//167 69//146 82//144
f 82//145 69//124 93//168
f 90//163 83//148 94//169
f 94//170 83//149 90//164
f 83//148 91//165 94//169
f 94//170 91//166 83//149
f 69//146 93//167 91//165
f 91//166 93//168 69//124
f 95//10 92//10 84//10
f 84//12 92//12 95//12
f 84//109 90//136 95//136
f 95//135 90//135 84//108
f 86//50 92//85 93//85
f 93//84 92//84 86//49
f 82//144 86//151 93//167
f 93//168 86//152 82//145
f 96//10 95//10 97//10
f 97//12 95//12 96//12
f 95//136 94//160 97//160
f 94//160 95//136 90//136
f 97//159 94//159 95//135
f 90//135 95//135 94//159
f 97//160 91//115 96//115
f 91//115 97//160 94//160
f 96//114 91//114 97//159
f 94//159 97//159 91//114
f 95//10 96//10 92//10
f 92//12 96//12 95//12
f 96//115 93//85 92//85
f 93//85 96//115 91//115
f 92//84 93//84 96//114
f 91//114 96//114 93//84
