# SSTK version 0.8.0
# 96
mtllib original-96.mtl
o mesh226/mesh226-geometry#mesh226-geometry
v -0.155425 0.284732 -0.261091
v -0.155425 0.283791 -0.261091
v -0.155487 0.284262 -0.261091
v -0.155244 0.285170 -0.261091
v -0.155244 0.283354 -0.261091
v -0.154955 0.285546 -0.261091
v -0.154955 0.282978 -0.261091
v -0.154579 0.285835 -0.261091
v -0.155425 0.284732 0.183928
v -0.154579 0.282689 -0.261091
v -0.154141 0.286017 -0.261091
v -0.155244 0.285170 0.183928
v -0.154955 0.285546 0.183928
v -0.155487 0.284262 0.183928
v -0.154141 0.282507 -0.261091
v -0.154579 0.285835 0.183928
v -0.154955 0.282978 0.183928
v -0.154579 0.282689 0.183928
v -0.154141 0.282507 0.183928
v -0.154141 0.286017 0.183928
v -0.155244 0.283354 0.183928
v -0.155425 0.283791 0.183928
v -0.153671 0.286078 -0.261091
v -0.153671 0.282446 -0.261091
v -0.153671 0.282446 0.183928
v -0.153671 0.286078 0.183928
v -0.153200 0.286017 -0.261091
v -0.153200 0.282507 -0.261091
v -0.153200 0.282507 0.183928
v -0.153200 0.286017 0.183928
v -0.152762 0.285835 -0.261091
v -0.152762 0.282689 -0.261091
v -0.152386 0.285546 -0.261091
v -0.152386 0.282978 -0.261091
v -0.152098 0.283354 0.183928
v -0.152098 0.283354 -0.261091
v -0.152762 0.282689 0.183928
v -0.152762 0.285835 0.183928
v -0.152386 0.282978 0.183928
v -0.152386 0.285546 0.183928
v -0.152098 0.285170 -0.261091
v -0.151916 0.283791 0.183928
v -0.151916 0.283791 -0.261091
v -0.152098 0.285170 0.183928
v -0.151916 0.284732 -0.261091
v -0.151916 0.284732 0.183928
v -0.151854 0.284262 0.183928
v -0.151854 0.284262 -0.261091
vn 0 0 -1
vn 0 0 1
vn 0.965925849201117 -0.2588189595935754 0
vn 1 0 0
vn -1 0 0
vn -0.965925849201117 0.2588189595935754 0
vn -0.8660253028382762 0.5000001748438417 0
vn 0.8660253028382762 -0.5000001748438417 0
vn 0.7071067811865476 -0.7071067811865476 0
vn -0.7071067811865476 0.7071067811865476 0
vn -0.5000001748438417 0.8660253028382762 0
vn 0.5000001748438417 -0.8660253028382762 0
vn -0.2588189595935754 0.965925849201117 0
vn 0.2588189595935754 -0.965925849201117 0
vn 0.965925849201117 0.2588189595935754 0
vn 0 -1 0
vn -0.2588189595935754 -0.965925849201117 0
vn 0 1 0
vn 0.2588189595935754 0.965925849201117 0
vn -0.5000001748438417 -0.8660253028382762 0
vn 0.5000001748438417 0.8660253028382762 0
vn -0.7071067811865476 -0.7071067811865476 0
vn 0.7071067811865476 0.7071067811865476 0
vn -0.8660253028382762 -0.5000001748438417 0
vn 0.8660253028382762 0.5000001748438417 0
vn -0.965925849201117 -0.2588189595935754 0
usemtl material_0_0
f 1//1 2//1 3//1
f 2//1 1//1 4//1
f 2//1 4//1 5//1
f 5//1 4//1 6//1
f 5//1 6//1 7//1
f 7//1 6//1 8//1
f 3//2 2//2 1//2
f 4//2 1//2 2//2
f 1//3 9//3 3//4
f 7//1 8//1 10//1
f 5//2 4//2 2//2
f 7//2 6//2 5//2
f 10//1 8//1 11//1
f 8//2 6//2 7//2
f 3//5 9//6 1//6
f 12//7 1//6 9//6
f 1//6 12//7 4//7
f 9//3 1//3 12//8
f 4//8 12//8 1//3
f 12//8 4//8 13//9
f 9//6 3//5 14//5
f 14//4 3//4 9//3
f 6//2 4//2 5//2
f 10//1 11//1 15//1
f 10//2 8//2 7//2
f 11//2 8//2 10//2
f 4//7 13//10 6//10
f 13//10 8//11 6//10
f 6//9 8//12 13//9
f 16//11 11//13 8//11
f 12//2 17//2 13//2
f 13//2 18//2 16//2
f 16//2 19//2 20//2
f 12//1 21//1 9//1
f 13//1 17//1 12//1
f 16//1 18//1 13//1
f 13//10 4//7 12//7
f 8//11 13//10 16//11
f 16//12 13//9 8//12
f 20//14 16//12 11//14
f 6//9 13//9 4//8
f 14//1 9//1 22//1
f 21//1 22//1 9//1
f 17//1 21//1 12//1
f 3//4 14//4 2//15
f 15//1 23//1 24//1
f 15//2 11//2 10//2
f 24//2 23//2 15//2
f 25//16 15//17 24//16
f 24//18 15//19 25//18
f 19//17 10//20 15//17
f 15//19 10//21 19//19
f 18//20 7//22 10//20
f 10//21 7//23 18//21
f 7//22 21//24 5//24
f 5//25 21//25 7//23
f 11//13 16//11 20//13
f 8//12 11//14 16//12
f 20//13 23//18 11//13
f 22//2 9//2 14//2
f 9//2 22//2 21//2
f 9//2 21//2 12//2
f 12//2 21//2 17//2
f 22//15 2//15 14//4
f 13//2 17//2 18//2
f 16//2 18//2 19//2
f 18//1 17//1 13//1
f 19//1 18//1 16//1
f 20//2 19//2 25//2
f 20//2 25//2 26//2
f 20//1 19//1 16//1
f 25//1 19//1 20//1
f 17//23 18//21 7//23
f 21//24 7//22 17//22
f 17//23 7//23 21//25
f 22//26 5//24 21//24
f 21//25 5//25 22//15
f 14//5 2//26 22//26
f 2//26 14//5 3//5
f 15//1 11//1 23//1
f 24//1 23//1 27//1
f 23//2 11//2 15//2
f 27//2 23//2 24//2
f 28//14 25//16 24//16
f 24//18 25//18 28//13
f 15//17 25//16 19//17
f 19//19 25//18 15//19
f 10//20 19//17 18//20
f 18//21 19//19 10//21
f 7//22 18//20 17//22
f 5//24 22//26 2//26
f 26//2 29//2 30//2
f 26//1 25//1 20//1
f 23//18 20//13 26//18
f 26//16 20//14 23//16
f 26//16 23//16 30//17
f 11//14 23//16 20//14
f 23//18 30//19 27//19
f 2//15 22//15 5//25
f 26//2 25//2 29//2
f 29//1 25//1 26//1
f 24//1 27//1 28//1
f 25//16 28//14 29//14
f 29//13 28//13 25//18
f 28//1 31//1 32//1
f 32//1 33//1 34//1
f 28//2 27//2 24//2
f 32//2 31//2 28//2
f 34//2 33//2 32//2
f 35//8 34//9 36//8
f 34//9 37//12 32//12
f 32//11 37//11 34//10
f 32//12 29//14 28//14
f 28//13 29//13 32//11
f 30//2 29//2 37//2
f 30//2 37//2 38//2
f 30//1 29//1 26//1
f 37//1 29//1 30//1
f 30//19 23//18 26//18
f 27//17 30//17 23//16
f 30//17 27//17 38//20
f 38//2 37//2 39//2
f 40//2 39//2 35//2
f 39//1 37//1 38//1
f 39//10 35//7 34//10
f 37//12 34//9 39//9
f 39//10 34//10 37//11
f 29//14 32//12 37//12
f 37//11 32//11 29//13
f 28//1 27//1 31//1
f 32//1 31//1 33//1
f 31//2 27//2 28//2
f 33//2 31//2 32//2
f 34//1 33//1 41//1
f 41//2 33//2 34//2
f 34//1 41//1 36//1
f 34//9 35//8 39//9
f 36//7 34//10 35//7
f 36//8 42//3 35//8
f 42//3 36//8 43//3
f 35//7 42//6 36//7
f 43//6 36//7 42//6
f 41//25 40//23 44//25
f 44//24 40//22 41//24
f 45//15 44//25 46//15
f 38//2 39//2 40//2
f 38//1 37//1 30//1
f 38//21 27//19 30//19
f 40//23 31//21 38//21
f 38//20 31//20 40//22
f 46//2 42//2 47//2
f 40//1 39//1 38//1
f 35//1 39//1 40//1
f 46//1 42//1 44//1
f 40//2 35//2 44//2
f 44//2 35//2 42//2
f 44//2 42//2 46//2
f 44//1 35//1 40//1
f 42//1 35//1 44//1
f 47//1 42//1 46//1
f 36//1 41//1 45//1
f 43//1 45//1 48//1
f 45//2 41//2 36//2
f 33//22 41//24 40//22
f 36//1 45//1 43//1
f 36//2 41//2 34//2
f 43//2 45//2 36//2
f 48//2 45//2 43//2
f 46//15 48//4 45//15
f 48//5 43//6 47//5
f 43//3 47//4 42//3
f 47//4 43//3 48//4
f 42//6 47//5 43//6
f 31//20 38//20 27//17
f 31//21 40//23 33//23
f 33//22 40//22 31//20
f 40//23 41//25 33//23
f 44//25 45//15 41//25
f 46//26 44//24 45//26
f 41//24 45//26 44//24
f 27//19 38//21 31//21
f 48//4 46//15 47//4
f 47//5 46//26 48//5
f 45//26 48//5 46//26
