# SSTK version 0.8.0
# 30
mtllib original-30.mtl
o mesh33/mesh33-geometry#mesh33-geometry
v -0.191238 -0.238360 -0.260637
v -0.191238 -0.239300 -0.260637
v -0.191300 -0.238829 -0.260637
v -0.191057 -0.237921 -0.260637
v -0.191057 -0.239737 -0.260637
v -0.190768 -0.237545 -0.260637
v -0.190768 -0.240113 -0.260637
v -0.190392 -0.237256 -0.260637
v -0.191057 -0.237921 0.184382
v -0.191238 -0.238360 0.184382
v -0.190392 -0.240402 -0.260637
v -0.189954 -0.237074 -0.260637
v -0.191300 -0.238829 0.184382
v -0.191238 -0.239300 0.184382
v -0.190768 -0.237545 0.184382
v -0.189954 -0.240584 -0.260637
v -0.191057 -0.239737 0.184382
v -0.190768 -0.240113 0.184382
v -0.190392 -0.237256 0.184382
v -0.190392 -0.240402 0.184382
v -0.189954 -0.240584 0.184382
v -0.189954 -0.237074 0.184382
v -0.189484 -0.237013 -0.260637
v -0.189484 -0.240646 -0.260637
v -0.189484 -0.240646 0.184382
v -0.189013 -0.237074 -0.260637
v -0.189013 -0.240584 -0.260637
v -0.189484 -0.237013 0.184382
v -0.189013 -0.237074 0.184382
v -0.189013 -0.240584 0.184382
v -0.188576 -0.237256 -0.260637
v -0.188576 -0.240402 -0.260637
v -0.188200 -0.237545 -0.260637
v -0.188200 -0.240113 -0.260637
v -0.188576 -0.240402 0.184382
v -0.188576 -0.237256 0.184382
v -0.188200 -0.240113 0.184382
v -0.187911 -0.239737 0.184382
v -0.187911 -0.237921 -0.260637
v -0.187911 -0.239737 -0.260637
v -0.188200 -0.237545 0.184382
v -0.187729 -0.239300 0.184382
v -0.187911 -0.237921 0.184382
v -0.187729 -0.238360 -0.260637
v -0.187729 -0.239300 -0.260637
v -0.187667 -0.238829 -0.260637
v -0.187729 -0.238360 0.184382
v -0.187667 -0.238829 0.184382
vn 0 0 -1
vn 0 0 1
vn 0.8660253028382762 -0.5000001748438417 0
vn 0.965925849201117 -0.2588189595935754 0
vn 1 0 0
vn -0.965925849201117 -0.2588189595935754 0
vn -1 0 0
vn 0.965925849201117 0.2588189595935754 0
vn -0.8660253028382762 -0.5000001748438417 0
vn 0.8660253028382762 0.5000001748438417 0
vn -0.8660253028382762 0.5000001748438417 0
vn -0.965925849201117 0.2588189595935754 0
vn 0.7071067811865476 -0.7071067811865476 0
vn -0.7071067811865476 -0.7071067811865476 0
vn 0.7071067811865476 0.7071067811865476 0
vn -0.7071067811865476 0.7071067811865476 0
vn -0.5000001748438417 0.8660253028382762 0
vn 0.5000001748438417 -0.8660253028382762 0
vn -0.2588189595935754 0.965925849201117 0
vn 0.2588189595935754 -0.965925849201117 0
vn -0.5000001748438417 -0.8660253028382762 0
vn 0.5000001748438417 0.8660253028382762 0
vn -0.2588189595935754 -0.965925849201117 0
vn 0.2588189595935754 0.965925849201117 0
vn 0 -1 0
vn 0 1 0
usemtl material_0_0
f 1//1 2//1 3//1
f 2//1 1//1 4//1
f 2//1 4//1 5//1
f 5//1 4//1 6//1
f 5//1 6//1 7//1
f 7//1 6//1 8//1
f 3//2 2//2 1//2
f 4//2 1//2 2//2
f 4//3 9//3 1//4
f 1//4 10//4 3//5
f 7//1 8//1 11//1
f 11//1 8//1 12//1
f 5//2 4//2 2//2
f 7//2 6//2 5//2
f 2//6 13//7 3//7
f 3//5 13//5 2//8
f 5//9 14//6 2//6
f 2//8 14//8 5//10
f 9//11 1//12 10//12
f 1//12 9//11 4//11
f 10//4 1//4 9//3
f 10//12 3//7 13//7
f 3//7 10//12 1//12
f 9//3 4//3 15//13
f 11//2 8//2 7//2
f 12//2 8//2 11//2
f 11//1 12//1 16//1
f 6//2 4//2 5//2
f 8//2 6//2 7//2
f 14//8 2//8 13//5
f 13//5 3//5 10//4
f 13//7 2//6 14//6
f 14//6 5//9 17//9
f 17//10 5//10 14//8
f 17//9 7//14 18//14
f 7//14 17//9 5//9
f 18//15 7//15 17//10
f 5//10 17//10 7//15
f 14//2 10//2 13//2
f 10//2 17//2 9//2
f 4//11 15//16 6//16
f 6//13 15//13 4//3
f 15//16 8//17 6//16
f 6//13 8//18 15//13
f 19//17 12//19 8//17
f 15//16 4//11 9//11
f 9//2 18//2 15//2
f 15//2 20//2 19//2
f 19//2 21//2 22//2
f 13//1 10//1 14//1
f 9//1 17//1 10//1
f 15//1 18//1 9//1
f 19//1 20//1 15//1
f 8//17 15//16 19//17
f 19//18 15//13 8//18
f 22//20 19//18 12//20
f 20//21 7//14 11//21
f 11//22 7//15 20//22
f 16//1 23//1 24//1
f 16//2 12//2 11//2
f 24//2 23//2 16//2
f 21//23 11//21 16//23
f 16//24 11//22 21//24
f 25//25 16//23 24//25
f 24//26 16//24 25//26
f 10//2 14//2 17//2
f 9//2 17//2 18//2
f 17//1 14//1 10//1
f 18//1 17//1 9//1
f 12//19 19//17 22//19
f 8//18 12//20 19//18
f 22//19 23//26 12//19
f 15//2 18//2 20//2
f 20//1 18//1 15//1
f 19//2 20//2 21//2
f 21//1 20//1 19//1
f 22//2 21//2 25//2
f 7//14 20//21 18//14
f 18//15 20//22 7//15
f 11//21 21//23 20//21
f 20//22 21//24 11//22
f 16//1 12//1 23//1
f 24//1 23//1 26//1
f 23//2 12//2 16//2
f 26//2 23//2 24//2
f 21//24 25//26 16//24
f 16//23 25//25 21//23
f 27//20 25//25 24//25
f 24//26 25//26 27//19
f 22//2 25//2 28//2
f 22//1 21//1 19//1
f 28//1 25//1 22//1
f 23//26 22//19 28//26
f 12//20 23//25 22//20
f 25//1 21//1 22//1
f 24//1 26//1 27//1
f 23//26 29//24 26//24
f 25//25 27//20 30//20
f 30//19 27//19 25//26
f 27//1 31//1 32//1
f 32//1 33//1 34//1
f 27//2 26//2 24//2
f 32//2 31//2 27//2
f 34//2 33//2 32//2
f 32//18 30//20 27//20
f 27//19 30//19 32//17
f 34//13 35//18 32//18
f 32//17 35//17 34//16
f 29//2 30//2 35//2
f 29//2 35//2 36//2
f 29//1 30//1 28//1
f 35//1 30//1 29//1
f 28//2 25//2 30//2
f 28//2 30//2 29//2
f 30//1 25//1 28//1
f 36//1 35//1 29//1
f 28//25 22//20 23//25
f 29//24 23//26 28//26
f 28//25 23//25 29//23
f 26//23 29//23 23//25
f 29//23 26//23 36//21
f 30//20 32//18 35//18
f 35//17 32//17 30//19
f 35//18 34//13 37//13
f 37//16 34//16 35//17
f 34//13 38//3 37//13
f 36//2 35//2 37//2
f 27//1 26//1 31//1
f 32//1 31//1 33//1
f 31//2 26//2 27//2
f 33//2 31//2 32//2
f 34//1 33//1 39//1
f 39//2 33//2 34//2
f 34//1 39//1 40//1
f 37//1 35//1 36//1
f 36//22 26//24 29//24
f 41//1 37//1 36//1
f 36//2 37//2 41//2
f 37//16 38//11 34//16
f 40//3 42//4 38//3
f 38//11 42//12 40//11
f 41//2 37//2 38//2
f 43//2 38//2 42//2
f 38//1 37//1 41//1
f 31//21 36//21 26//23
f 40//1 39//1 44//1
f 45//1 44//1 46//1
f 44//2 39//2 40//2
f 40//1 44//1 45//1
f 40//2 39//2 34//2
f 45//2 44//2 40//2
f 38//3 34//13 40//3
f 26//24 36//22 31//22
f 41//2 38//2 43//2
f 43//2 42//2 47//2
f 47//2 42//2 48//2
f 43//1 38//1 41//1
f 42//1 38//1 43//1
f 47//1 42//1 43//1
f 41//15 31//22 36//22
f 36//21 31//21 41//14
f 40//11 34//16 38//11
f 42//4 40//3 45//4
f 45//12 40//11 42//12
f 45//4 48//5 42//4
f 46//5 47//8 48//5
f 48//7 47//6 46//7
f 44//8 43//10 47//8
f 48//1 42//1 47//1
f 46//2 44//2 45//2
f 31//22 41//15 33//15
f 33//14 41//14 31//21
f 42//12 48//7 45//12
f 48//5 45//4 46//5
f 46//7 45//12 48//7
f 47//8 46//5 44//8
f 44//6 46//7 47//6
f 43//10 44//8 39//10
f 47//6 43//9 44//6
f 39//9 44//6 43//9
f 39//10 41//15 43//10
f 43//9 41//14 39//9
f 41//15 39//10 33//15
f 33//14 39//9 41//14
