# SSTK version 0.8.0
# 113
mtllib original-113.mtl
o #ID573
v 0.045810 0.278630 0.680471
v 0.045804 0.276154 0.680471
v 0.045792 0.276451 0.680471
v 0.046473 0.283268 0.680471
v 0.044456 0.282983 0.680471
v 0.044456 0.283334 0.680471
v 0.044770 0.282906 0.680471
v 0.045384 0.282768 0.680471
v 0.045665 0.282651 0.680471
v 0.045792 0.282348 0.680471
v 0.046464 0.274972 0.680471
v 0.046950 0.276053 0.680471
v 0.046981 0.275713 0.680471
v 0.047072 0.275524 0.680471
v 0.048305 0.274906 0.680471
v 0.046933 0.279521 0.680471
v 0.047342 0.275419 0.680471
v 0.047907 0.275328 0.680471
v 0.048305 0.275257 0.680471
v 0.044718 0.275316 0.680471
v 0.044456 0.274906 0.680471
v 0.044456 0.275257 0.680471
v 0.045380 0.275448 0.680471
v 0.045683 0.275569 0.680471
v 0.045774 0.275773 0.680471
v 0.046962 0.282116 0.680471
v 0.046994 0.282463 0.680471
v 0.047087 0.282659 0.680471
v 0.048310 0.283334 0.680471
v 0.047378 0.282785 0.680471
v 0.048002 0.282918 0.680471
v 0.048310 0.282983 0.680471
v 0.046962 0.281908 0.680471
vn 0 0 -1
vn 0 0 1
usemtl material_0_2
f 1//1 2//1 3//1
f 3//2 2//2 1//2
f 4//1 5//1 6//1
f 6//2 5//2 4//2
f 5//1 4//1 7//1
f 7//2 4//2 5//2
f 7//1 4//1 8//1
f 8//2 4//2 7//2
f 8//1 4//1 9//1
f 9//2 4//2 8//2
f 9//1 4//1 10//1
f 10//2 4//2 9//2
f 10//1 4//1 1//1
f 1//2 4//2 10//2
f 1//1 4//1 11//1
f 11//2 4//2 1//2
f 11//1 4//1 12//1
f 12//2 4//2 11//2
f 11//1 12//1 13//1
f 13//2 12//2 11//2
f 11//1 13//1 14//1
f 14//2 13//2 11//2
f 11//1 14//1 15//1
f 15//2 14//2 11//2
f 12//1 4//1 16//1
f 16//2 4//2 12//2
f 15//1 14//1 17//1
f 17//2 14//2 15//2
f 15//1 17//1 18//1
f 18//2 17//2 15//2
f 15//1 18//1 19//1
f 19//2 18//2 15//2
f 20//1 21//1 22//1
f 22//2 21//2 20//2
f 21//1 20//1 11//1
f 11//2 20//2 21//2
f 11//1 20//1 23//1
f 23//2 20//2 11//2
f 11//1 23//1 24//1
f 24//2 23//2 11//2
f 11//1 24//1 25//1
f 25//2 24//2 11//2
f 11//1 25//1 2//1
f 2//2 25//2 11//2
f 11//1 2//1 1//1
f 1//2 2//2 11//2
f 4//1 26//1 16//1
f 16//2 26//2 4//2
f 26//1 4//1 27//1
f 27//2 4//2 26//2
f 27//1 4//1 28//1
f 28//2 4//2 27//2
f 28//1 4//1 29//1
f 29//2 4//2 28//2
f 28//1 29//1 30//1
f 30//2 29//2 28//2
f 30//1 29//1 31//1
f 31//2 29//2 30//2
f 31//1 29//1 32//1
f 32//2 29//2 31//2
f 33//1 16//1 26//1
f 26//2 16//2 33//2
