# SSTK version 0.8.0
# 169
mtllib original-169.mtl
o #ID968
v -0.032700 0.275442 0.680211
v -0.030560 0.275014 0.680211
v -0.030560 0.275547 0.680211
v -0.031483 0.274643 0.680211
v -0.031844 0.274158 0.680211
v -0.033347 0.270990 0.680211
v -0.033680 0.274472 0.680211
v -0.033813 0.274719 0.680211
v -0.034841 0.275547 0.680211
v -0.034841 0.275014 0.680211
v -0.038760 0.275442 0.680211
v -0.037019 0.275014 0.680211
v -0.037019 0.275547 0.680211
v -0.037286 0.274929 0.680211
v -0.037752 0.274700 0.680211
v -0.037837 0.274434 0.680211
v -0.038231 0.272400 0.680211
v -0.038839 0.273887 0.680211
v -0.039214 0.274563 0.680211
v -0.040206 0.275547 0.680211
v -0.039591 0.274811 0.680211
v -0.040206 0.275014 0.680211
v -0.035202 0.266747 0.680211
v -0.033984 0.273520 0.680211
v -0.035989 0.268956 0.680211
v -0.035671 0.265537 0.680211
v -0.036382 0.267451 0.680211
v -0.036989 0.271805 0.680211
v -0.037625 0.273596 0.680211
v -0.031445 0.264455 0.680211
v -0.031464 0.263418 0.680211
v -0.031083 0.264198 0.680211
v -0.032163 0.263977 0.680211
v -0.031711 0.262571 0.680211
v -0.032586 0.262457 0.680211
v -0.032872 0.263817 0.680211
v -0.033238 0.262576 0.680211
v -0.033497 0.263939 0.680211
v -0.033918 0.262933 0.680211
v -0.034023 0.264303 0.680211
v -0.034574 0.263537 0.680211
v -0.034655 0.265252 0.680211
v -0.035155 0.264398 0.680211
v -0.035671 0.265537 0.680211
v -0.035202 0.266747 0.680211
v -0.035155 0.264398 0.680211
v -0.034655 0.265252 0.680211
v -0.034574 0.263537 0.680211
v -0.034023 0.264303 0.680211
v -0.033918 0.262933 0.680211
v -0.033497 0.263939 0.680211
v -0.033238 0.262576 0.680211
v -0.032872 0.263817 0.680211
v -0.032586 0.262457 0.680211
v -0.032163 0.263977 0.680211
v -0.031711 0.262571 0.680211
v -0.031464 0.263418 0.680211
v -0.031445 0.264455 0.680211
v -0.031083 0.264198 0.680211
v -0.037837 0.274434 0.680211
v -0.037625 0.273596 0.680211
v -0.038231 0.272400 0.680211
v -0.036989 0.271805 0.680211
v -0.036382 0.267451 0.680211
v -0.035989 0.268956 0.680211
v -0.033984 0.273520 0.680211
v -0.033680 0.274472 0.680211
v -0.033347 0.270990 0.680211
v -0.040206 0.275014 0.680211
v -0.040206 0.275547 0.680211
v -0.039591 0.274811 0.680211
v -0.039214 0.274563 0.680211
v -0.038760 0.275442 0.680211
v -0.038839 0.273887 0.680211
v -0.037752 0.274700 0.680211
v -0.037286 0.274929 0.680211
v -0.037019 0.275014 0.680211
v -0.037019 0.275547 0.680211
v -0.034841 0.275014 0.680211
v -0.034841 0.275547 0.680211
v -0.033813 0.274719 0.680211
v -0.032700 0.275442 0.680211
v -0.031844 0.274158 0.680211
v -0.031483 0.274643 0.680211
v -0.030560 0.275014 0.680211
v -0.030560 0.275547 0.680211
vn 0 0 1
vn 0 0 -1
usemtl material_0_0
f 1//1 2//1 3//1
f 2//1 1//1 4//1
f 4//1 1//1 5//1
f 5//1 1//1 6//1
f 6//1 1//1 7//1
f 7//1 1//1 8//1
f 8//1 1//1 9//1
f 8//1 9//1 10//1
f 11//1 12//1 13//1
f 12//1 11//1 14//1
f 14//1 11//1 15//1
f 15//1 11//1 16//1
f 16//1 11//1 17//1
f 17//1 11//1 18//1
f 18//1 11//1 19//1
f 19//1 11//1 20//1
f 19//1 20//1 21//1
f 21//1 20//1 22//1
f 7//1 23//1 6//1
f 23//1 7//1 24//1
f 23//1 24//1 25//1
f 23//1 25//1 26//1
f 26//1 25//1 27//1
f 27//1 25//1 28//1
f 27//1 28//1 17//1
f 17//1 28//1 29//1
f 17//1 29//1 16//1
f 30//1 31//1 32//1
f 31//1 30//1 33//1
f 31//1 33//1 34//1
f 34//1 33//1 35//1
f 35//1 33//1 36//1
f 35//1 36//1 37//1
f 37//1 36//1 38//1
f 37//1 38//1 39//1
f 39//1 38//1 40//1
f 39//1 40//1 41//1
f 41//1 40//1 42//1
f 41//1 42//1 43//1
f 43//1 42//1 23//1
f 43//1 23//1 26//1
usemtl material_1_0
f 44//2 45//2 46//2
f 45//2 47//2 46//2
f 46//2 47//2 48//2
f 47//2 49//2 48//2
f 48//2 49//2 50//2
f 49//2 51//2 50//2
f 50//2 51//2 52//2
f 51//2 53//2 52//2
f 52//2 53//2 54//2
f 53//2 55//2 54//2
f 54//2 55//2 56//2
f 56//2 55//2 57//2
f 55//2 58//2 57//2
f 59//2 57//2 58//2
f 60//2 61//2 62//2
f 61//2 63//2 62//2
f 62//2 63//2 64//2
f 63//2 65//2 64//2
f 64//2 65//2 44//2
f 44//2 65//2 45//2
f 65//2 66//2 45//2
f 66//2 67//2 45//2
f 68//2 45//2 67//2
f 69//2 70//2 71//2
f 71//2 70//2 72//2
f 70//2 73//2 72//2
f 72//2 73//2 74//2
f 74//2 73//2 62//2
f 62//2 73//2 60//2
f 60//2 73//2 75//2
f 75//2 73//2 76//2
f 76//2 73//2 77//2
f 78//2 77//2 73//2
f 79//2 80//2 81//2
f 80//2 82//2 81//2
f 81//2 82//2 67//2
f 67//2 82//2 68//2
f 68//2 82//2 83//2
f 83//2 82//2 84//2
f 84//2 82//2 85//2
f 86//2 85//2 82//2
