# SSTK version 0.8.0
# 49
mtllib original-49.mtl
o #ID260
v 0.390493 0.297177 -0.141760
v 0.391329 0.291094 -0.149036
v 0.390561 0.261552 -0.142290
v 0.393440 0.297566 -0.167468
v 0.393452 0.291374 -0.167561
v 0.393285 0.283756 -0.166086
v 0.391355 0.277405 -0.149240
v 0.391343 0.283500 -0.149149
v 0.393296 0.277661 -0.166177
v 0.391372 0.268239 -0.149376
v 0.393608 0.261953 -0.168865
v 0.393595 0.268532 -0.168767
v 0.393595 0.268532 -0.168767
v 0.391372 0.268239 -0.149376
v 0.393608 0.261953 -0.168865
v 0.391355 0.277405 -0.149240
v 0.391343 0.283500 -0.149149
v 0.391329 0.291094 -0.149036
v 0.390561 0.261552 -0.142290
v 0.393296 0.277661 -0.166177
v 0.393285 0.283756 -0.166086
v 0.393452 0.291374 -0.167561
v 0.393440 0.297566 -0.167468
v 0.390493 0.297177 -0.141760
vn -0.9934922533073118 -0.00020508015075389923 -0.11389951957972437
vn 0.9934922533073118 0.00020508015075389923 0.11389951957972437
usemtl material_0_0
f 1//1 2//1 3//1
f 2//1 1//1 4//1
f 2//1 4//1 5//1
f 6//1 7//1 8//1
f 7//1 6//1 9//1
f 3//1 10//1 11//1
f 10//1 3//1 2//1
f 10//1 2//1 8//1
f 10//1 8//1 7//1
f 11//1 10//1 12//1
usemtl material_1_0
f 13//2 14//2 15//2
f 16//2 17//2 14//2
f 17//2 18//2 14//2
f 18//2 19//2 14//2
f 15//2 14//2 19//2
f 20//2 21//2 16//2
f 17//2 16//2 21//2
f 22//2 23//2 18//2
f 23//2 24//2 18//2
f 19//2 18//2 24//2
