# SSTK version 0.8.0
# 87
mtllib original-87.mtl
o #ID421
v -0.101446 0.239413 0.680341
v -0.101929 0.237338 0.680341
v -0.102029 0.237593 0.680341
v -0.101637 0.237192 0.680341
v -0.101369 0.237306 0.680341
v -0.100850 0.240696 0.680341
v -0.101182 0.237647 0.680341
v -0.100427 0.239650 0.680341
v -0.099972 0.242107 0.680341
v -0.099890 0.240726 0.680341
v -0.099481 0.242753 0.680341
v -0.099080 0.242061 0.680341
v -0.099144 0.242926 0.680341
v -0.098889 0.242807 0.680341
v -0.098816 0.242607 0.680341
vn 0 0 -1
vn 0 0 1
usemtl material_0_2
f 1//1 2//1 3//1
f 3//2 2//2 1//2
f 2//1 1//1 4//1
f 4//2 1//2 2//2
f 4//1 1//1 5//1
f 5//2 1//2 4//2
f 5//1 1//1 6//1
f 6//2 1//2 5//2
f 5//1 6//1 7//1
f 7//2 6//2 5//2
f 7//1 6//1 8//1
f 8//2 6//2 7//2
f 8//1 6//1 9//1
f 9//2 6//2 8//2
f 8//1 9//1 10//1
f 10//2 9//2 8//2
f 10//1 9//1 11//1
f 11//2 9//2 10//2
f 10//1 11//1 12//1
f 12//2 11//2 10//2
f 12//1 11//1 13//1
f 13//2 11//2 12//2
f 12//1 13//1 14//1
f 14//2 13//2 12//2
f 12//1 14//1 15//1
f 15//2 14//2 12//2
