# SSTK version 0.8.0
# 86
mtllib original-86.mtl
o #ID415
v -0.106094 0.242646 0.680341
v -0.106579 0.240505 0.680341
v -0.106579 0.242025 0.680341
v -0.105796 0.241925 0.680341
v -0.105733 0.242853 0.680341
v -0.105460 0.242562 0.680341
v -0.105528 0.242780 0.680341
v -0.106515 0.238391 0.680341
v -0.106565 0.237561 0.680341
v -0.106643 0.237820 0.680341
v -0.106333 0.237475 0.680341
v -0.106133 0.239358 0.680341
v -0.106069 0.237577 0.680341
v -0.105414 0.240760 0.680341
v -0.105842 0.237884 0.680341
v -0.104859 0.239431 0.680341
v -0.105232 0.241761 0.680341
v -0.104495 0.242273 0.680341
v -0.104695 0.240496 0.680341
v -0.104013 0.241552 0.680341
v -0.104049 0.242443 0.680341
v -0.103794 0.242334 0.680341
v -0.103694 0.242116 0.680341
v -0.104065 0.240341 0.680341
v -0.102902 0.242100 0.680341
v -0.103285 0.241033 0.680341
v -0.103055 0.239991 0.680341
v -0.102517 0.240759 0.680341
v -0.102259 0.242501 0.680341
v -0.101765 0.241606 0.680341
v -0.101783 0.242635 0.680341
v -0.101501 0.242534 0.680341
v -0.101471 0.241970 0.680341
v -0.101374 0.242261 0.680341
v -0.104186 0.239390 0.680341
v -0.104227 0.237980 0.680341
v -0.104304 0.238558 0.680341
v -0.103995 0.237484 0.680341
v -0.103831 0.240232 0.680341
v -0.103728 0.237197 0.680341
v -0.103485 0.238694 0.680341
v -0.103377 0.239303 0.680341
v -0.103439 0.237101 0.680341
v -0.103444 0.238296 0.680341
v -0.103321 0.238030 0.680341
v -0.103130 0.237247 0.680341
v -0.103084 0.237729 0.680341
v -0.103012 0.237520 0.680341
v -0.108449 0.238173 0.680341
v -0.108499 0.237156 0.680341
v -0.108599 0.237420 0.680341
v -0.108263 0.237047 0.680341
v -0.107999 0.239358 0.680341
v -0.107976 0.237161 0.680341
v -0.107330 0.240767 0.680341
v -0.107753 0.237502 0.680341
v -0.107313 0.238477 0.680341
v -0.106777 0.239345 0.680341
v -0.106144 0.240106 0.680341
vn 0 0 -1
vn 0 0 1
usemtl material_0_2
f 1//1 2//1 3//1
f 3//2 2//2 1//2
f 2//1 1//1 4//1
f 4//2 1//2 2//2
f 4//1 1//1 5//1
f 5//2 1//2 4//2
f 4//1 5//1 6//1
f 6//2 5//2 4//2
f 6//1 5//1 7//1
f 7//2 5//2 6//2
f 8//1 9//1 10//1
f 10//2 9//2 8//2
f 9//1 8//1 11//1
f 11//2 8//2 9//2
f 11//1 8//1 12//1
f 12//2 8//2 11//2
f 11//1 12//1 13//1
f 13//2 12//2 11//2
f 13//1 12//1 14//1
f 14//2 12//2 13//2
f 13//1 14//1 15//1
f 15//2 14//2 13//2
f 15//1 14//1 16//1
f 16//2 14//2 15//2
f 16//1 14//1 17//1
f 17//2 14//2 16//2
f 16//1 17//1 18//1
f 18//2 17//2 16//2
f 16//1 18//1 19//1
f 19//2 18//2 16//2
f 19//1 18//1 20//1
f 20//2 18//2 19//2
f 20//1 18//1 21//1
f 21//2 18//2 20//2
f 20//1 21//1 22//1
f 22//2 21//2 20//2
f 20//1 22//1 23//1
f 23//2 22//2 20//2
f 19//1 24//1 16//1
f 16//2 24//2 19//2
f 24//1 19//1 25//1
f 25//2 19//2 24//2
f 24//1 25//1 26//1
f 26//2 25//2 24//2
f 26//1 25//1 27//1
f 27//2 25//2 26//2
f 27//1 25//1 28//1
f 28//2 25//2 27//2
f 28//1 25//1 29//1
f 29//2 25//2 28//2
f 28//1 29//1 30//1
f 30//2 29//2 28//2
f 30//1 29//1 31//1
f 31//2 29//2 30//2
f 30//1 31//1 32//1
f 32//2 31//2 30//2
f 30//1 32//1 33//1
f 33//2 32//2 30//2
f 33//1 32//1 34//1
f 34//2 32//2 33//2
f 35//1 36//1 37//1
f 37//2 36//2 35//2
f 36//1 35//1 38//1
f 38//2 35//2 36//2
f 38//1 35//1 39//1
f 39//2 35//2 38//2
f 38//1 39//1 40//1
f 40//2 39//2 38//2
f 40//1 39//1 26//1
f 26//2 39//2 40//2
f 40//1 26//1 41//1
f 41//2 26//2 40//2
f 41//1 26//1 42//1
f 42//2 26//2 41//2
f 42//1 26//1 27//1
f 27//2 26//2 42//2
f 41//1 43//1 40//1
f 40//2 43//2 41//2
f 43//1 41//1 44//1
f 44//2 41//2 43//2
f 43//1 44//1 45//1
f 45//2 44//2 43//2
f 43//1 45//1 46//1
f 46//2 45//2 43//2
f 46//1 45//1 47//1
f 47//2 45//2 46//2
f 46//1 47//1 48//1
f 48//2 47//2 46//2
f 49//1 50//1 51//1
f 51//2 50//2 49//2
f 50//1 49//1 52//1
f 52//2 49//2 50//2
f 52//1 49//1 53//1
f 53//2 49//2 52//2
f 52//1 53//1 54//1
f 54//2 53//2 52//2
f 54//1 53//1 55//1
f 55//2 53//2 54//2
f 54//1 55//1 56//1
f 56//2 55//2 54//2
f 56//1 55//1 57//1
f 57//2 55//2 56//2
f 57//1 55//1 3//1
f 3//2 55//2 57//2
f 57//1 3//1 58//1
f 58//2 3//2 57//2
f 58//1 3//1 2//1
f 2//2 3//2 58//2
f 58//1 2//1 59//1
f 59//2 2//2 58//2
f 59//1 2//1 17//1
f 17//2 2//2 59//2
f 59//1 17//1 14//1
f 14//2 17//2 59//2
