# SSTK version 0.8.0
# 55
mtllib original-55.mtl
o #ID242
v -0.383349 0.312324 -0.192113
v -0.383653 0.275271 -0.196693
v -0.384185 0.275151 -0.204683
v -0.383499 0.282914 -0.194378
v -0.383372 0.289169 -0.192467
v -0.383048 0.304985 -0.187594
v -0.382766 0.312455 -0.183346
v -0.382691 0.289323 -0.182223
v -0.381844 0.275681 -0.169493
v -0.382548 0.283129 -0.180076
v -0.382374 0.275561 -0.177458
v -0.382691 0.289323 -0.182223
v -0.383372 0.289169 -0.192467
v -0.382548 0.283129 -0.180076
v -0.383499 0.282914 -0.194378
v -0.382374 0.275561 -0.177458
v -0.381844 0.275681 -0.169493
v -0.382766 0.312455 -0.183346
v -0.383048 0.304985 -0.187594
v -0.383349 0.312324 -0.192113
v -0.383653 0.275271 -0.196693
v -0.384185 0.275151 -0.204683
vn 0.9977953396962128 3.112997929026753e-9 -0.06636610641373529
vn -0.9977953396962128 -3.112997929026753e-9 0.06636610641373529
usemtl material_0_0
f 1//1 2//1 3//1
f 2//1 1//1 4//1
f 4//1 1//1 5//1
f 5//1 1//1 6//1
f 6//1 1//1 7//1
f 6//1 7//1 8//1
f 8//1 7//1 9//1
f 8//1 9//1 10//1
f 10//1 9//1 11//1
f 5//1 10//1 4//1
f 10//1 5//1 8//1
usemtl material_1_0
f 12//2 13//2 14//2
f 15//2 14//2 13//2
f 16//2 17//2 14//2
f 14//2 17//2 12//2
f 17//2 18//2 12//2
f 12//2 18//2 19//2
f 18//2 20//2 19//2
f 19//2 20//2 13//2
f 13//2 20//2 15//2
f 15//2 20//2 21//2
f 22//2 21//2 20//2
