# SSTK version 0.8.0
# 8
mtllib original-8.mtl
o mesh5/mesh5-geometry#mesh5-geometry
v -0.983378 0.045792 -0.032901
v -0.983378 0.066479 -0.037016
v -0.983378 0.025105 -0.037016
v -0.980333 0.067645 -0.034203
v -0.983378 0.007568 -0.048735
v -0.980333 0.023940 -0.034203
v -0.980333 0.045792 -0.029856
v -0.980333 0.086170 -0.046581
v -0.980333 0.005414 -0.046581
v -0.983378 0.084017 -0.048735
v -0.602690 0.045792 -0.029856
v -0.580838 0.067645 -0.034203
v -0.980333 -0.006964 -0.065107
v -0.983378 -0.004151 -0.066272
v -0.624543 0.023940 -0.034203
v -0.562312 0.086170 -0.046581
v -0.980333 0.098549 -0.065107
v -0.655447 -0.006964 -0.065107
v -0.983378 0.095735 -0.066272
v -0.643068 0.005414 -0.046581
v -0.602690 -0.027300 -0.029856
v -0.580838 -0.027300 -0.034203
v -0.562312 -0.027300 -0.046581
v -0.983378 -0.008265 -0.086959
v -0.659793 -0.011311 -0.086959
v -0.624543 -0.027300 -0.034203
v -0.549934 0.098549 -0.065107
v -0.980333 0.102895 -0.086959
v -0.980333 -0.011311 -0.086959
v -0.655447 -0.027300 -0.065107
v -0.983378 0.099850 -0.086959
v -0.643068 -0.027300 -0.046581
v -0.621920 -0.027300 -0.040534
v -0.583460 -0.027300 -0.040534
v -0.567157 -0.027300 -0.051427
v -0.549934 -0.027300 -0.065107
v -0.983378 -0.004151 -0.107646
v -0.980333 -0.006964 -0.108812
v -0.659793 -0.027300 -0.086959
v -0.638223 -0.027300 -0.051427
v -0.602690 -0.027300 -0.036708
v -0.556264 -0.027300 -0.067729
v -0.545587 0.102895 -0.086959
v -0.545587 -0.027300 -0.086959
v -0.983378 0.095735 -0.107646
v -0.655447 -0.006964 -0.108812
v -0.655447 -0.027300 -0.108812
v -0.649116 -0.027300 -0.067729
v -0.621920 -0.030498 -0.040534
v -0.602690 -0.030498 -0.036708
v -0.583460 -0.030498 -0.040534
v -0.567157 -0.030498 -0.051427
v -0.549934 0.098549 -0.108812
v -0.549934 -0.027300 -0.108812
v -0.552439 -0.027300 -0.086959
v -0.980333 0.098549 -0.108812
v -0.983378 0.007568 -0.125184
v -0.980333 0.005414 -0.127337
v -0.652941 -0.027300 -0.086959
v -0.649116 -0.030498 -0.067729
v -0.638223 -0.030498 -0.051427
v -0.556264 -0.030498 -0.067729
v -0.983378 0.084017 -0.125184
v -0.643068 -0.027300 -0.127337
v -0.643068 0.005414 -0.127337
v -0.649116 -0.027300 -0.106189
v -0.652941 -0.030498 -0.086959
v -0.562312 0.086170 -0.127337
v -0.556264 -0.027300 -0.106189
v -0.552439 -0.030498 -0.086959
v -0.980333 0.086170 -0.127337
v -0.983378 0.025105 -0.136902
v -0.624543 0.023940 -0.139716
v -0.649116 -0.030498 -0.106189
v -0.983378 0.066479 -0.136902
v -0.562312 -0.027300 -0.127337
v -0.980333 0.023940 -0.139716
v -0.638223 -0.027300 -0.122492
v -0.638223 -0.030498 -0.122492
v -0.580838 0.067645 -0.139716
v -0.567157 -0.027300 -0.122492
v -0.556264 -0.030498 -0.106189
v -0.580838 -0.027300 -0.139716
v -0.980333 0.067645 -0.139716
v -0.983378 0.045792 -0.141017
v -0.624543 -0.027300 -0.139716
v -0.980333 0.045792 -0.144062
v -0.602690 0.045792 -0.144062
v -0.621920 -0.027300 -0.133385
v -0.602690 -0.027300 -0.144062
v -0.583460 -0.027300 -0.133385
v -0.567157 -0.030498 -0.122492
v -0.621920 -0.030498 -0.133385
v -0.583460 -0.030498 -0.133385
v -0.602690 -0.027300 -0.137210
v -0.602690 -0.030498 -0.137210
vt 0.002352 0.381653
vt 0.004715 0.39557
vt 0.003781 0.367378
vt -0.004061 0.361772
vt -0.004061 0.391042
vt -0.005597 0.376605
vt 0.050736 0.391242
vt 0.052165 0.376968
vt 0.053593 0.391942
vt 0.035955 0.38702
vt 0.034762 0.371398
vt 0.033226 0.386232
vt 0.008785 0.35492
vt 0.000314 0.3488
vt 0.049802 0.36305
vt 0.052607 0.362162
vt 0.035955 0.3561
vt 0.033226 0.356961
vt 0.055102 0.376864
vt 0.037578 0.371351
vt 0.048308 0.405102
vt 0.031334 0.400722
vt 0.044007 0.351608
vt 0.046485 0.350075
vt 0.031334 0.34359
vt 0.028851 0.345118
vt 0.01051 0.407013
vt 0.000314 0.402885
vt 0.245354 0.3803
vt 0.245792 0.383665
vt 0.254853 0.395577
vt 0.256218 0.400047
vt 0.045733 0.4037
vt 0.028851 0.399203
vt 0.03767 0.342443
vt 0.024419 0.335725
vt 0.0166 0.346176
vt 0.00686 0.339665
vt 0.231849 0.365399
vt 0.232121 0.367702
vt 0.258901 0.408906
vt 0.261811 0.414354
vt 0.040052 0.414339
vt 0.024419 0.410372
vt 0.035663 0.344383
vt 0.022305 0.337672
vt 0.201344 0.345399
vt 0.203546 0.346319
vt 0.018855 0.414238
vt 0.00686 0.410331
vt 0.216395 0.353144
vt 0.217286 0.354588
vt 0.243704 0.330495
vt 0.245792 0.331955
vt 0.25271 0.330882
vt 0.256218 0.332877
vt 0.25634 0.331587
vt 0.261811 0.334077
vt 0.037917 0.412445
vt 0.022305 0.408338
vt 0.026039 0.342475
vt 0.014582 0.335758
vt 0.188988 0.343345
vt 0.192992 0.344155
vt 0.230692 0.330485
vt 0.232121 0.331452
vt 0.256881 0.418256
vt 0.26172 0.424407
vt 0.030082 0.418248
vt 0.016262 0.4145
vt 0.027504 0.340428
vt 0.016262 0.333702
vt 0.200885 0.331543
vt 0.203546 0.331933
vt 0.028479 0.416145
vt 0.014582 0.412246
vt 0.215656 0.330853
vt 0.217286 0.331444
vt 0.229097 0.330783
vt 0.248473 0.331133
vt 0.251667 0.331753
vt 0.254041 0.332503
vt 0.26172 0.335373
vt 0.188627 0.33245
vt 0.192992 0.332843
vt 0.215865 0.331107
vt 0.240547 0.330792
vt 0.249643 0.332559
vt 0.249101 0.422204
vt 0.255959 0.428676
vt 0.246163 0.333489
vt 0.255959 0.336567
vt 0.180748 0.333436
vt 0.202866 0.331714
vt 0.229025 0.328604
vt 0.231203 0.32958
vt 0.218149 0.331835
vt 0.231203 0.331842
vt 0.240475 0.328613
vt 0.243234 0.330023
vt 0.243234 0.332285
vt 0.2484 0.328954
vt 0.252409 0.330834
vt 0.252409 0.333096
vt 0.251595 0.329574
vt 0.257331 0.33189
vt 0.257331 0.334153
vt 0.257251 0.335293
vt 0.233905 0.334397
vt 0.24271 0.333427
vt 0.192079 0.332512
vt 0.202794 0.329535
vt 0.206057 0.330003
vt 0.206057 0.332265
vt 0.215793 0.328928
vt 0.218149 0.329573
vt 0.249571 0.33038
vt 0.257251 0.333031
vt 0.252181 0.336344
vt 0.185146 0.33338
vt 0.192007 0.330333
vt 0.19677 0.330804
vt 0.19677 0.333067
vt 0.231923 0.334225
vt 0.242638 0.331248
vt 0.252181 0.334082
vt 0.178449 0.334352
vt 0.219133 0.335087
vt 0.183123 0.334186
vt 0.218924 0.334833
vt 0.182079 0.335057
vt 0.204097 0.335454
vt 0.186317 0.334806
vt 0.205693 0.335156
vt 0.191085 0.335444
vt 0.194242 0.335147
vn -0.8637509358397191 0 0.5039189625683969
vn -0.863751192235623 0.19284104291851434 0.46556010361460265
vn -0.863751192235623 -0.19284104291851456 0.46556010361460254
vn 0.863751192235623 0.19284104291851456 -0.46556010361460254
vn 0.863751192235623 -0.19284104291851434 -0.46556010361460265
vn 0.8637509358397191 0 -0.5039189625683969
vn -0.38452110676883694 0.3532610980889627 0.8528482368078443
vn 0.38452110676883694 -0.3532610980889627 -0.8528482368078443
vn -0.8637506539595318 -0.3563248572472046 0.3563248572472045
vn 0.8637506539595318 0.3563248572472046 -0.3563248572472045
vn -0.38452110676883694 -0.35326109808896305 0.852848236807844
vn 0.38452110676883694 0.35326109808896305 -0.852848236807844
vn -0.3845210867293177 0 0.923116208210269
vn 0.3845210867293177 0 -0.923116208210269
vn -0.38452087761298415 0.6527417922424379 0.6527417922424381
vn 0.38452087761298415 -0.6527417922424379 -0.6527417922424381
vn -0.38452087761298415 -0.6527417922424381 0.6527417922424379
vn 0.38452087761298415 0.6527417922424381 -0.6527417922424379
vn -0.8637506539595318 0.3563248572472045 0.3563248572472046
vn 0.8637506539595318 -0.3563248572472045 -0.3563248572472046
vn 0 0 1
vn 0 0 -1
vn 0 0.38268289803625993 0.9238797538373539
vn 0 -0.38268289803625993 -0.9238797538373539
vn -0.38452110676883694 -0.8528482368078443 0.3532610980889627
vn 0.38452110676883694 0.8528482368078443 -0.3532610980889627
vn -0.863751192235623 -0.46556010361460265 0.19284104291851434
vn 0.863751192235623 0.46556010361460265 -0.19284104291851434
vn 0 -0.3826828980362604 0.9238797538373537
vn 0 0.3826828980362604 -0.9238797538373537
vn 0 0.7071067811865476 0.7071067811865478
vn 0 -0.7071067811865476 -0.7071067811865478
vn -0.38452110676883694 0.852848236807844 0.35326109808896305
vn 0.38452110676883694 -0.852848236807844 -0.35326109808896305
vn 0 -0.9238797538373539 0.38268289803625993
vn 0 0.9238797538373539 -0.38268289803625993
vn -0.863751192235623 0.46556010361460254 0.19284104291851456
vn 0.863751192235623 -0.46556010361460254 -0.19284104291851456
vn 0 -0.7071067811865478 0.7071067811865476
vn 0 0.7071067811865478 -0.7071067811865476
vn -0.38268289803626016 0 0.9238797538373538
vn 0.38268289803626016 0 -0.9238797538373538
vn 0.38268289803626016 0 0.9238797538373538
vn -0.38268289803626016 0 -0.9238797538373538
vn 0.7071067811865476 0 0.7071067811865476
vn -0.7071067811865476 0 -0.7071067811865476
vn -0.8637509358397191 -0.5039189625683969 0
vn 0.8637509358397191 0.5039189625683969 0
vn 0 -1 0
vn 0 1 0
vn -0.7071067811865476 0 0.7071067811865476
vn 0.7071067811865476 0 -0.7071067811865476
vn 0 0.9238797538373537 0.3826828980362604
vn 0 -0.9238797538373537 -0.3826828980362604
vn 0.9238797538373538 0 0.38268289803626016
vn -0.9238797538373538 0 -0.38268289803626016
vn -0.3845210867293177 0.923116208210269 0
vn 0.3845210867293177 -0.923116208210269 0
vn -0.3845210867293177 -0.923116208210269 0
vn 0.3845210867293177 0.923116208210269 0
vn -0.9238797538373538 0 0.38268289803626016
vn -1 0 0
vn 0.9238797538373538 0 -0.38268289803626016
vn 1 0 0
vn -0.8637509358397191 0.5039189625683969 0
vn 0.8637509358397191 -0.5039189625683969 0
vn -0.863751192235623 -0.46556010361460254 -0.19284104291851456
vn 0.863751192235623 0.46556010361460254 0.19284104291851456
vn -0.38452110676883694 -0.852848236807844 -0.35326109808896305
vn 0.38452110676883694 0.852848236807844 0.35326109808896305
vn -0.863751192235623 0.46556010361460265 -0.19284104291851434
vn 0.863751192235623 -0.46556010361460265 0.19284104291851434
vn -0.38452110676883694 0.8528482368078443 -0.3532610980889627
vn 0.38452110676883694 -0.8528482368078443 0.3532610980889627
vn -0.8637506539595318 -0.3563248572472045 -0.3563248572472046
vn 0.8637506539595318 0.3563248572472045 0.3563248572472046
vn -0.38452087761298415 -0.6527417922424379 -0.6527417922424381
vn 0.38452087761298415 0.6527417922424379 0.6527417922424381
vn -0.8637506539595318 0.3563248572472046 -0.3563248572472045
vn 0.8637506539595318 -0.3563248572472046 0.3563248572472045
vn -0.38452087761298415 0.6527417922424381 -0.6527417922424379
vn 0.38452087761298415 -0.6527417922424381 0.6527417922424379
vn -0.863751192235623 -0.19284104291851434 -0.46556010361460265
vn 0.863751192235623 0.19284104291851434 0.46556010361460265
vn -0.863751192235623 0.19284104291851456 -0.46556010361460254
vn 0.863751192235623 -0.19284104291851456 0.46556010361460254
vn -0.38452110676883694 -0.3532610980889627 -0.8528482368078443
vn 0.38452110676883694 0.3532610980889627 0.8528482368078443
vn -0.38452110676883694 0.35326109808896305 -0.852848236807844
vn 0.38452110676883694 -0.35326109808896305 0.852848236807844
vn -0.8637509358397191 0 -0.5039189625683969
vn 0.8637509358397191 0 0.5039189625683969
vn -0.3845210867293177 0 -0.923116208210269
vn 0.3845210867293177 0 0.923116208210269
usemtl material_0_0
f 1/1/1 2/2/2 3/3/3
f 3/4/4 2/5/5 1/6/6
f 2/7/2 1/8/1 4/9/7
f 4/10/8 1/11/6 2/12/5
f 5/13/9 3/3/3 2/2/2
f 2/5/5 3/4/4 5/14/10
f 3/15/3 6/16/11 1/8/1
f 1/11/6 6/17/12 3/18/4
f 7/19/13 4/9/7 1/8/1
f 1/11/6 4/10/8 7/20/14
f 4/9/7 8/21/15 2/7/2
f 2/12/5 8/22/16 4/10/8
f 5/23/9 9/24/17 3/15/3
f 3/18/4 9/25/18 5/26/10
f 10/27/19 5/13/9 2/2/2
f 2/5/5 5/14/10 10/28/20
f 6/16/11 3/15/3 9/24/17
f 9/25/18 3/18/4 6/17/12
f 7/19/13 1/8/1 6/16/11
f 6/17/12 1/11/6 7/20/14
f 7/19/13 11/29/21 4/9/7
f 4/10/8 11/30/22 7/20/14
f 4/9/7 12/31/23 8/21/15
f 8/22/16 12/32/24 4/10/8
f 10/33/19 2/7/2 8/21/15
f 8/22/16 2/12/5 10/34/20
f 9/24/17 5/23/9 13/35/25
f 13/36/26 5/26/10 9/25/18
f 14/37/27 5/13/9 10/27/19
f 10/28/20 5/14/10 14/38/28
f 6/16/11 9/24/17 15/39/29
f 15/40/30 9/25/18 6/17/12
f 6/16/11 15/39/29 7/19/13
f 7/20/14 15/40/30 6/17/12
f 11/29/21 7/19/13 15/39/29
f 15/40/30 7/20/14 11/30/22
f 12/31/23 4/9/7 11/29/21
f 11/30/22 4/10/8 12/32/24
f 16/41/31 8/21/15 12/31/23
f 12/32/24 8/22/16 16/42/32
f 8/21/15 17/43/33 10/33/19
f 10/34/20 17/44/34 8/22/16
f 14/45/27 13/35/25 5/23/9
f 5/26/10 13/36/26 14/46/28
f 13/35/25 18/47/35 9/24/17
f 9/25/18 18/48/36 13/36/26
f 19/49/37 14/37/27 10/27/19
f 10/28/20 14/38/28 19/50/38
f 20/51/39 15/39/29 9/24/17
f 9/25/18 15/40/30 20/52/40
f 11/29/21 15/39/41 21/53/21
f 21/54/22 15/40/42 11/30/22
f 12/31/43 11/29/21 22/55/43
f 22/56/44 11/30/22 12/32/44
f 8/21/15 16/41/31 17/43/33
f 17/44/34 16/42/32 8/22/16
f 16/41/45 12/31/43 23/57/45
f 23/58/46 12/32/44 16/42/46
f 19/59/37 10/33/19 17/43/33
f 17/44/34 10/34/20 19/60/38
f 14/45/27 24/61/47 13/35/25
f 13/36/26 24/62/48 14/46/28
f 18/47/35 13/35/25 25/63/49
f 25/64/50 13/36/26 18/48/36
f 20/51/39 9/24/17 18/47/35
f 18/48/36 9/25/18 20/52/40
f 24/61/47 14/37/27 19/49/37
f 19/50/38 14/38/28 24/62/48
f 15/39/41 20/51/51 26/65/41
f 26/66/42 20/52/52 15/40/42
f 26/65/41 21/53/21 15/39/41
f 15/40/42 21/54/22 26/66/42
f 21/53/21 22/55/43 11/29/21
f 11/30/22 22/56/44 21/54/22
f 22/55/43 23/57/45 12/31/43
f 12/32/44 23/58/46 22/56/44
f 27/67/53 17/43/33 16/41/31
f 16/42/32 17/44/34 27/68/54
f 16/41/45 23/57/45 27/67/55
f 27/68/56 23/58/46 16/42/46
f 17/43/33 28/69/57 19/59/37
f 19/60/38 28/70/58 17/44/34
f 29/71/59 13/35/25 24/61/47
f 24/62/48 13/36/26 29/72/60
f 29/71/59 25/63/49 13/35/25
f 13/36/26 25/64/50 29/72/60
f 18/47/61 25/63/62 30/73/61
f 30/74/63 25/64/64 18/48/63
f 18/47/61 30/73/61 20/51/51
f 20/52/52 30/74/63 18/48/63
f 31/75/65 24/61/47 19/49/37
f 19/50/38 24/62/48 31/76/66
f 32/77/51 26/65/41 20/51/51
f 20/52/52 26/66/42 32/78/52
f 26/65/49 33/79/49 21/53/49
f 21/53/49 34/80/49 22/55/49
f 22/55/49 35/81/49 23/57/49
f 17/43/33 27/67/53 28/69/57
f 28/70/58 27/68/54 17/44/34
f 36/82/55 27/67/55 23/57/45
f 23/58/46 27/68/56 36/83/56
f 31/75/65 19/59/37 28/69/57
f 28/70/58 19/60/38 31/76/66
f 24/61/47 37/45/67 29/71/59
f 29/72/60 37/46/68 24/62/48
f 29/71/59 38/35/69 25/63/49
f 25/64/50 38/36/70 29/72/60
f 39/84/62 30/73/61 25/63/62
f 25/64/64 30/74/63 39/85/64
f 32/77/51 20/51/51 30/73/61
f 30/74/63 20/52/52 32/78/52
f 37/45/67 24/61/47 31/75/65
f 31/76/66 24/62/48 37/46/68
f 32/77/49 40/86/49 26/65/49
f 40/86/49 33/79/49 26/65/49
f 33/79/49 41/87/49 21/53/49
f 41/87/49 34/80/49 21/53/49
f 34/80/49 35/81/49 22/55/49
f 35/81/49 42/88/49 23/57/49
f 43/89/50 28/69/57 27/67/53
f 27/68/54 28/70/58 43/90/49
f 36/82/55 44/91/64 27/67/55
f 27/68/56 44/92/62 36/83/56
f 23/57/49 42/88/49 36/82/49
f 31/75/65 28/69/57 45/59/71
f 45/60/72 28/70/58 31/76/66
f 38/35/69 29/71/59 37/45/67
f 37/46/68 29/72/60 38/36/70
f 46/47/54 25/63/49 38/35/69
f 38/36/70 25/64/50 46/48/53
f 39/84/49 47/93/49 30/73/49
f 39/84/62 25/63/62 47/73/56
f 47/74/55 25/64/64 39/85/64
f 30/73/49 48/94/49 32/77/49
f 45/59/71 37/45/67 31/75/65
f 31/76/66 37/46/68 45/60/72
f 48/94/49 40/86/49 32/77/49
f 33/79/41 40/86/51 49/95/41
f 49/96/42 40/97/52 33/98/42
f 41/87/21 33/79/41 50/99/21
f 50/100/22 33/98/42 41/101/22
f 34/80/43 41/87/21 51/102/43
f 51/103/44 41/101/22 34/104/44
f 35/81/45 34/80/43 52/105/45
f 52/106/46 34/104/44 35/107/46
f 35/81/45 52/105/45 42/88/55
f 42/108/56 52/106/46 35/107/46
f 43/89/50 53/67/36 28/69/57
f 28/70/58 53/68/35 43/90/49
f 43/89/64 27/67/55 44/91/64
f 44/92/62 27/68/56 43/90/62
f 44/91/49 36/82/49 54/109/49
f 55/110/49 36/82/49 42/88/49
f 56/43/73 45/59/71 28/69/57
f 28/70/58 45/60/72 56/44/74
f 37/45/67 57/23/75 38/35/69
f 38/36/70 57/26/76 37/46/68
f 46/47/56 47/73/56 25/63/62
f 25/64/64 47/74/55 46/48/55
f 38/35/69 58/24/77 46/47/54
f 46/48/53 58/25/78 38/36/70
f 47/93/49 59/111/49 30/73/49
f 59/111/49 48/94/49 30/73/49
f 57/23/75 37/45/67 45/59/71
f 45/60/72 37/46/68 57/26/76
f 48/94/61 60/112/61 40/86/51
f 40/97/52 60/113/63 48/114/63
f 61/115/51 49/95/41 40/86/51
f 40/97/52 49/96/42 61/116/52
f 49/95/41 50/99/21 33/79/41
f 33/98/42 50/100/22 49/96/42
f 50/99/21 51/102/43 41/87/21
f 41/101/22 51/103/44 50/100/22
f 51/102/43 52/105/45 34/80/43
f 34/104/44 52/106/46 51/103/44
f 62/117/55 42/88/55 52/105/45
f 52/106/46 42/108/56 62/118/56
f 43/89/64 44/91/64 53/67/63
f 53/68/61 44/92/62 43/90/62
f 56/43/73 28/69/57 53/67/36
f 53/68/35 28/70/58 56/44/74
f 55/110/49 54/109/49 36/82/49
f 54/82/63 53/67/63 44/91/64
f 44/92/62 53/68/61 54/83/61
f 42/88/55 62/117/55 55/110/64
f 55/119/62 62/118/56 42/108/56
f 45/59/71 56/43/73 63/33/79
f 63/34/80 56/44/74 45/60/72
f 58/24/77 38/35/69 57/23/75
f 57/26/76 38/36/70 58/25/78
f 47/73/56 46/47/56 64/77/46
f 64/78/45 46/48/55 47/74/55
f 65/51/32 46/47/54 58/24/77
f 58/25/78 46/48/53 65/52/31
f 59/111/49 47/93/49 66/120/49
f 59/111/62 67/121/62 48/94/61
f 48/114/63 67/122/64 59/123/64
f 63/33/79 57/23/75 45/59/71
f 45/60/72 57/26/76 63/34/80
f 60/112/61 48/94/61 67/121/62
f 67/122/64 48/114/63 60/113/63
f 61/115/51 40/86/51 60/112/61
f 60/113/63 40/97/52 61/116/52
f 53/67/36 68/41/40 56/43/73
f 56/44/74 68/42/39 53/68/35
f 69/124/49 54/109/49 55/110/49
f 53/67/63 54/82/63 68/41/52
f 68/42/51 54/83/61 53/68/61
f 70/125/64 55/110/64 62/117/55
f 62/118/56 55/119/62 70/126/62
f 71/21/81 63/33/79 56/43/73
f 56/44/74 63/34/80 71/22/82
f 57/23/75 72/15/83 58/24/77
f 58/25/78 72/18/84 57/26/76
f 65/51/46 64/77/46 46/47/56
f 46/48/55 64/78/45 65/52/45
f 47/93/49 64/127/49 66/120/49
f 65/51/32 58/24/77 73/39/24
f 73/40/23 58/25/78 65/52/31
f 66/94/56 74/112/56 59/111/62
f 59/123/64 74/113/55 66/114/55
f 67/121/62 59/111/62 74/112/56
f 74/113/55 59/123/64 67/122/64
f 75/7/85 57/23/75 63/33/79
f 63/34/80 57/26/76 75/12/86
f 71/21/81 56/43/73 68/41/40
f 68/42/39 56/44/74 71/22/82
f 76/128/49 54/109/49 69/124/49
f 55/110/64 70/125/64 69/88/63
f 69/108/61 70/126/62 55/119/62
f 76/57/52 68/41/52 54/82/63
f 54/83/61 68/42/51 76/58/51
f 63/33/79 71/21/81 75/7/85
f 75/12/86 71/22/82 63/34/80
f 72/15/83 57/23/75 75/7/85
f 75/12/86 57/26/76 72/18/84
f 77/16/87 58/24/77 72/15/83
f 72/18/84 58/25/78 77/17/88
f 65/51/46 73/39/44 64/77/46
f 64/78/45 73/40/43 65/52/45
f 66/120/49 64/127/49 78/129/49
f 77/16/87 73/39/24 58/24/77
f 58/25/78 73/40/23 77/17/88
f 74/112/56 66/94/56 79/115/46
f 79/116/45 66/114/55 74/113/55
f 68/41/40 80/31/30 71/21/81
f 71/22/82 80/32/29 68/42/39
f 81/130/49 76/128/49 69/124/49
f 82/117/63 69/88/63 70/125/64
f 70/126/62 69/108/61 82/118/61
f 76/57/52 83/55/42 68/41/52
f 68/42/51 83/56/41 76/58/51
f 84/9/89 75/7/85 71/21/81
f 71/22/82 75/12/86 84/10/90
f 85/8/91 72/15/83 75/7/85
f 75/12/86 72/18/84 85/11/92
f 72/15/83 85/8/91 77/16/87
f 77/17/88 85/11/92 72/18/84
f 86/65/44 64/77/46 73/39/44
f 73/40/43 64/78/45 86/66/43
f 64/127/49 86/131/49 78/129/49
f 78/86/46 79/115/46 66/94/56
f 66/114/55 79/116/45 78/97/45
f 77/16/87 87/19/93 73/39/24
f 73/40/23 87/20/94 77/17/88
f 80/31/42 68/41/52 83/55/42
f 83/56/41 68/42/51 80/32/41
f 84/9/89 71/21/81 80/31/30
f 80/32/29 71/22/82 84/10/90
f 83/132/49 76/128/49 81/130/49
f 69/88/63 82/117/63 81/81/52
f 81/107/51 82/118/61 69/108/61
f 75/7/85 84/9/89 85/8/91
f 85/11/92 84/10/90 75/12/86
f 87/19/93 77/16/87 85/8/91
f 85/11/92 77/17/88 87/20/94
f 73/39/44 88/29/22 86/65/44
f 86/66/43 88/30/21 73/40/43
f 78/129/49 86/131/49 89/133/49
f 78/86/46 89/79/44 79/115/46
f 79/116/45 89/98/43 78/97/45
f 88/29/22 73/39/24 87/19/93
f 87/20/94 73/40/23 88/30/21
f 83/55/42 90/53/22 80/31/42
f 80/32/41 90/54/21 83/56/41
f 80/31/30 88/29/22 84/9/89
f 84/10/90 88/30/21 80/32/29
f 91/134/49 83/132/49 81/130/49
f 92/105/52 81/81/52 82/117/63
f 82/118/61 81/107/51 92/106/51
f 87/19/93 85/8/91 84/9/89
f 84/10/90 85/11/92 87/20/94
f 90/53/22 86/65/44 88/29/22
f 88/30/21 86/66/43 90/54/21
f 86/131/49 90/135/49 89/133/49
f 93/95/44 79/115/46 89/79/44
f 89/98/43 79/116/45 93/96/43
f 87/19/93 84/9/89 88/29/22
f 88/30/21 84/10/90 87/20/94
f 90/135/49 83/132/49 91/134/49
f 88/29/22 80/31/42 90/53/22
f 90/54/21 80/32/41 88/30/21
f 91/80/42 81/81/52 94/102/42
f 94/103/41 81/107/51 91/104/41
f 92/105/52 94/102/42 81/81/52
f 81/107/51 94/103/41 92/106/51
f 89/133/49 90/135/49 95/136/49
f 89/79/44 95/87/22 93/95/44
f 93/96/43 95/101/21 89/98/43
f 95/136/49 90/135/49 91/134/49
f 94/102/42 96/99/22 91/80/42
f 91/104/41 96/100/21 94/103/41
f 96/99/22 93/95/44 95/87/22
f 95/101/21 93/96/43 96/100/21
f 95/87/22 91/80/42 96/99/22
f 96/100/21 91/104/41 95/101/21
usemtl material_1_0
f 21//50 33//50 26//50
f 22//50 34//50 21//50
f 23//50 35//50 22//50
f 26//50 40//50 32//50
f 26//50 33//50 40//50
f 21//50 41//50 33//50
f 21//50 34//50 41//50
f 22//50 35//50 34//50
f 23//50 42//50 35//50
f 36//50 42//50 23//50
f 30//50 47//50 39//50
f 32//50 48//50 30//50
f 32//50 40//50 48//50
f 54//50 36//50 44//50
f 42//50 36//50 55//50
f 30//50 59//50 47//50
f 30//50 48//50 59//50
f 36//50 54//50 55//50
f 66//50 47//50 59//50
f 55//50 54//50 69//50
f 66//50 64//50 47//50
f 69//50 54//50 76//50
f 78//50 64//50 66//50
f 69//50 76//50 81//50
f 78//50 86//50 64//50
f 81//50 76//50 83//50
f 89//50 86//50 78//50
f 81//50 83//50 91//50
f 89//50 90//50 86//50
f 91//50 83//50 90//50
f 95//50 90//50 89//50
f 91//50 90//50 95//50
