# SSTK version 0.8.0
# 19
mtllib original-19.mtl
o #ID114
v 0.440400 -0.182167 0.809155
v -0.436985 -0.185677 0.809155
v 0.440400 -0.185677 0.809155
v -0.436985 -0.182167 0.809155
v -0.436985 -0.182167 0.809155
v 0.440400 -0.182167 0.809155
v -0.436985 -0.185677 0.809155
v 0.440400 -0.185677 0.809155
v 0.440400 -0.185677 -0.068230
v 0.440400 -0.182167 0.809155
v 0.440400 -0.185677 0.809155
v 0.440400 -0.094429 0.809155
v 0.440400 -0.094429 -0.068230
v 0.440400 -0.094429 -0.068230
v 0.440400 -0.185677 -0.068230
v 0.440400 -0.094429 0.809155
v 0.440400 -0.182167 0.809155
v 0.440400 -0.185677 0.809155
v 0.440400 -0.182167 0.809155
v -0.433475 -0.182167 0.805645
v -0.436985 -0.182167 0.809155
v 0.436890 -0.182167 0.805645
v 0.436890 -0.182167 0.805645
v 0.440400 -0.182167 0.809155
v -0.433475 -0.182167 0.805645
v -0.436985 -0.182167 0.809155
v -0.436985 -0.094429 -0.068230
v -0.436985 -0.182167 0.809155
v -0.436985 -0.094429 0.809155
v -0.436985 -0.185677 0.809155
v -0.436985 -0.185677 -0.068230
v -0.436985 -0.185677 -0.068230
v -0.436985 -0.094429 -0.068230
v -0.436985 -0.185677 0.809155
v -0.436985 -0.182167 0.809155
v -0.436985 -0.094429 0.809155
v 0.440400 -0.185677 -0.068230
v -0.436985 -0.185677 0.809155
v -0.436985 -0.185677 -0.068230
v 0.440400 -0.185677 0.809155
v 0.440400 -0.185677 0.809155
v 0.440400 -0.185677 -0.068230
v -0.436985 -0.185677 0.809155
v -0.436985 -0.185677 -0.068230
v -0.436985 -0.094429 -0.068230
v 0.440400 -0.185677 -0.068230
v -0.436985 -0.185677 -0.068230
v 0.440400 -0.094429 -0.068230
v 0.440400 -0.094429 -0.068230
v -0.436985 -0.094429 -0.068230
v 0.440400 -0.185677 -0.068230
v -0.436985 -0.185677 -0.068230
v 0.440400 -0.094429 0.809155
v 0.436890 -0.094429 -0.064721
v 0.436890 -0.094429 0.805645
v -0.433475 -0.094429 0.805645
v -0.436985 -0.094429 -0.068230
v -0.436985 -0.094429 0.809155
v -0.433475 -0.094429 -0.064721
v 0.440400 -0.094429 -0.068230
v 0.440400 -0.094429 0.809155
v 0.436890 -0.094429 -0.064721
v 0.440400 -0.094429 -0.068230
v -0.433475 -0.094429 -0.064721
v -0.436985 -0.094429 -0.068230
v -0.433475 -0.094429 0.805645
v -0.436985 -0.094429 0.809155
v 0.436890 -0.094429 0.805645
v 0.440400 -0.094429 0.809155
v 0.436890 -0.182167 0.805645
v 0.440400 -0.182167 0.809155
v 0.436890 -0.094429 0.805645
v 0.436890 -0.094429 0.805645
v 0.440400 -0.094429 0.809155
v 0.436890 -0.182167 0.805645
v 0.440400 -0.182167 0.809155
v -0.433475 -0.182167 -0.064721
v 0.436890 -0.182167 -0.064721
v 0.436890 -0.182167 -0.064721
v -0.433475 -0.182167 -0.064721
v -0.433475 -0.094429 0.805645
v -0.436985 -0.182167 0.809155
v -0.433475 -0.182167 0.805645
v -0.436985 -0.094429 0.809155
v -0.436985 -0.094429 0.809155
v -0.433475 -0.094429 0.805645
v -0.436985 -0.182167 0.809155
v -0.433475 -0.182167 0.805645
v 0.436890 -0.094429 -0.064721
v 0.436890 -0.182167 0.805645
v 0.436890 -0.094429 0.805645
v 0.436890 -0.182167 -0.064721
v 0.436890 -0.182167 -0.064721
v 0.436890 -0.094429 -0.064721
v 0.436890 -0.182167 0.805645
v 0.436890 -0.094429 0.805645
v -0.433475 -0.182167 -0.064721
v -0.433475 -0.094429 0.805645
v -0.433475 -0.182167 0.805645
v -0.433475 -0.094429 -0.064721
v -0.433475 -0.094429 -0.064721
v -0.433475 -0.182167 -0.064721
v -0.433475 -0.094429 0.805645
v -0.433475 -0.182167 0.805645
v 0.436890 -0.094429 -0.064721
v -0.433475 -0.182167 -0.064721
v 0.436890 -0.182167 -0.064721
v -0.433475 -0.094429 -0.064721
v -0.433475 -0.094429 -0.064721
v 0.436890 -0.094429 -0.064721
v -0.433475 -0.182167 -0.064721
v 0.436890 -0.182167 -0.064721
vn 0 0 1
vn 0 0 -1
vn 1 0 0
vn -1 0 0
vn 0 1 0
vn 0 -1 0
vn -0.7071067811865476 0 0.7071067811865476
vn 0.7071067811865476 0 -0.7071067811865476
vn 0.7071067811865476 0 0.7071067811865476
vn -0.7071067811865476 0 -0.7071067811865476
usemtl material_0_0
f 1//1 2//1 3//1
f 2//1 1//1 4//1
f 5//2 6//2 7//2
f 8//2 7//2 6//2
f 9//3 10//3 11//3
f 10//3 9//3 12//3
f 12//3 9//3 13//3
f 14//4 15//4 16//4
f 16//4 15//4 17//4
f 18//4 17//4 15//4
f 19//5 20//5 21//5
f 20//5 19//5 22//5
f 23//6 24//6 25//6
f 26//6 25//6 24//6
f 27//4 28//4 29//4
f 28//4 27//4 30//4
f 30//4 27//4 31//4
f 32//3 33//3 34//3
f 34//3 33//3 35//3
f 36//3 35//3 33//3
f 37//6 38//6 39//6
f 38//6 37//6 40//6
f 41//5 42//5 43//5
f 44//5 43//5 42//5
f 45//2 46//2 47//2
f 46//2 45//2 48//2
f 49//1 50//1 51//1
f 52//1 51//1 50//1
f 53//5 54//5 55//5
f 56//5 57//5 58//5
f 57//5 56//5 59//5
f 57//5 59//5 60//5
f 60//5 59//5 54//5
f 60//5 54//5 53//5
f 61//6 62//6 63//6
f 62//6 64//6 63//6
f 63//6 64//6 65//6
f 64//6 66//6 65//6
f 67//6 65//6 66//6
f 68//6 62//6 61//6
f 69//7 70//7 71//7
f 70//7 69//7 72//7
f 73//8 74//8 75//8
f 76//8 75//8 74//8
f 22//5 77//5 20//5
f 77//5 22//5 78//5
f 79//6 23//6 80//6
f 25//6 80//6 23//6
f 81//9 82//9 83//9
f 82//9 81//9 84//9
f 85//10 86//10 87//10
f 88//10 87//10 86//10
f 89//4 90//4 91//4
f 90//4 89//4 92//4
f 93//3 94//3 95//3
f 96//3 95//3 94//3
f 97//3 98//3 99//3
f 98//3 97//3 100//3
f 101//4 102//4 103//4
f 104//4 103//4 102//4
f 105//1 106//1 107//1
f 106//1 105//1 108//1
f 109//2 110//2 111//2
f 112//2 111//2 110//2
