# SSTK version 0.8.0
# 76
mtllib original-76.mtl
o #ID435
v -0.148935 -0.165104 0.205931
v -0.148151 -0.165104 0.196517
v -0.149163 -0.165104 0.201172
v -0.147484 -0.165104 0.210468
v -0.145968 -0.165104 0.192282
v -0.144907 -0.165104 0.214476
v -0.142764 -0.165104 0.188756
v -0.141382 -0.165104 0.217680
v -0.138757 -0.165104 0.186180
v -0.137147 -0.165104 0.219862
v -0.134219 -0.165104 0.184728
v -0.132491 -0.165104 0.220874
v -0.129461 -0.165104 0.184501
v -0.127733 -0.165104 0.220646
v -0.124805 -0.165104 0.185513
v -0.123195 -0.165104 0.219195
v -0.120570 -0.165104 0.187695
v -0.119188 -0.165104 0.216619
v -0.117045 -0.165104 0.190899
v -0.115984 -0.165104 0.213093
v -0.114468 -0.165104 0.194906
v -0.113801 -0.165104 0.208858
v -0.113017 -0.165104 0.199444
v -0.112789 -0.165104 0.204203
v -0.112789 -0.165104 0.204203
v -0.113801 -0.165104 0.208858
v -0.113017 -0.165104 0.199444
v -0.114468 -0.165104 0.194906
v -0.115984 -0.165104 0.213093
v -0.117045 -0.165104 0.190899
v -0.119188 -0.165104 0.216619
v -0.120570 -0.165104 0.187695
v -0.123195 -0.165104 0.219195
v -0.124805 -0.165104 0.185513
v -0.127733 -0.165104 0.220646
v -0.129461 -0.165104 0.184501
v -0.132491 -0.165104 0.220874
v -0.134219 -0.165104 0.184728
v -0.137147 -0.165104 0.219862
v -0.138757 -0.165104 0.186180
v -0.141382 -0.165104 0.217680
v -0.142764 -0.165104 0.188756
v -0.144907 -0.165104 0.214476
v -0.145968 -0.165104 0.192282
v -0.147484 -0.165104 0.210468
v -0.148151 -0.165104 0.196517
v -0.148935 -0.165104 0.205931
v -0.149163 -0.165104 0.201172
vn 0 1 0
vn 0 -1 0
usemtl material_0_0
f 25//2 26//2 27//2
f 27//2 26//2 28//2
f 26//2 29//2 28//2
f 28//2 29//2 30//2
f 29//2 31//2 30//2
f 30//2 31//2 32//2
f 31//2 33//2 32//2
f 32//2 33//2 34//2
f 33//2 35//2 34//2
f 34//2 35//2 36//2
f 35//2 37//2 36//2
f 36//2 37//2 38//2
f 37//2 39//2 38//2
f 38//2 39//2 40//2
f 39//2 41//2 40//2
f 40//2 41//2 42//2
f 41//2 43//2 42//2
f 42//2 43//2 44//2
f 43//2 45//2 44//2
f 44//2 45//2 46//2
f 45//2 47//2 46//2
f 48//2 46//2 47//2
usemtl material_1_0
f 1//1 2//1 3//1
f 2//1 1//1 4//1
f 2//1 4//1 5//1
f 5//1 4//1 6//1
f 5//1 6//1 7//1
f 7//1 6//1 8//1
f 7//1 8//1 9//1
f 9//1 8//1 10//1
f 9//1 10//1 11//1
f 11//1 10//1 12//1
f 11//1 12//1 13//1
f 13//1 12//1 14//1
f 13//1 14//1 15//1
f 15//1 14//1 16//1
f 15//1 16//1 17//1
f 17//1 16//1 18//1
f 17//1 18//1 19//1
f 19//1 18//1 20//1
f 19//1 20//1 21//1
f 21//1 20//1 22//1
f 21//1 22//1 23//1
f 23//1 22//1 24//1
