# SSTK version 0.8.0
# 197
mtllib original-197.mtl
o mesh135/mesh135-geometry#mesh135-geometry
v -0.514496 -0.301742 -0.165251
v -0.514496 -0.319433 -0.168503
v -0.514496 -0.303865 -0.168722
v -0.514496 -0.313734 -0.167404
v -0.514496 -0.325796 -0.168890
v -0.514496 -0.309663 -0.165224
v -0.514496 -0.342025 -0.171018
v -0.514496 -0.325796 -0.139440
v -0.514496 -0.300468 -0.161381
v -0.514496 -0.306837 -0.171791
v -0.514496 -0.345026 -0.167523
v -0.514496 -0.319433 -0.147909
v -0.514496 -0.307221 -0.161965
v -0.514496 -0.338343 -0.173867
v -0.514496 -0.333075 -0.167178
v -0.514496 -0.303429 -0.146570
v -0.514496 -0.306407 -0.157626
v -0.514496 -0.310472 -0.174302
v -0.514496 -0.347168 -0.163553
v -0.514496 -0.313734 -0.148517
v -0.514496 -0.306063 -0.144019
v -0.514496 -0.300044 -0.157110
v -0.514496 -0.334153 -0.175903
v -0.514496 -0.338274 -0.163892
v -0.514496 -0.301548 -0.149602
v -0.514496 -0.309389 -0.141997
v -0.514496 -0.307221 -0.153375
v -0.514496 -0.314586 -0.176096
v -0.514496 -0.340094 -0.161658
v -0.514496 -0.309663 -0.150338
v -0.514496 -0.313350 -0.140552
v -0.514496 -0.300420 -0.153115
v -0.514496 -0.329454 -0.177124
v -0.514496 -0.348454 -0.159107
v -0.514496 -0.317945 -0.139686
v -0.514496 -0.319178 -0.177172
v -0.514496 -0.341394 -0.159031
v -0.514496 -0.323173 -0.139397
v -0.514496 -0.324248 -0.177531
v -0.514496 -0.348883 -0.154186
v -0.514496 -0.342434 -0.152596
v -0.514496 -0.348238 -0.147512
v -0.514496 -0.341725 -0.146706
v -0.514496 -0.346303 -0.139612
v -0.514496 -0.339596 -0.139612
vn 1 0 0
vn -1 0 0
usemtl material_0_0
f 1//1 2//1 3//1
f 2//1 1//1 4//1
f 5//1 3//1 2//1
f 4//1 1//1 6//1
f 7//1 3//1 5//1
f 5//1 2//1 8//1
f 6//1 1//1 9//1
f 7//1 10//1 3//1
f 5//1 11//1 7//1
f 8//1 2//1 12//1
f 6//1 9//1 13//1
f 14//1 10//1 7//1
f 11//1 5//1 15//1
f 8//1 12//1 16//1
f 13//1 9//1 17//1
f 14//1 18//1 10//1
f 11//1 15//1 19//1
f 20//1 16//1 12//1
f 8//1 16//1 21//1
f 17//1 9//1 22//1
f 23//1 18//1 14//1
f 19//1 15//1 24//1
f 20//1 25//1 16//1
f 8//1 21//1 26//1
f 17//1 22//1 27//1
f 23//1 28//1 18//1
f 19//1 24//1 29//1
f 30//1 25//1 20//1
f 8//1 26//1 31//1
f 27//1 22//1 32//1
f 33//1 28//1 23//1
f 19//1 29//1 34//1
f 30//1 32//1 25//1
f 8//1 31//1 35//1
f 27//1 32//1 30//1
f 33//1 36//1 28//1
f 34//1 29//1 37//1
f 8//1 35//1 38//1
f 36//1 33//1 39//1
f 34//1 37//1 40//1
f 40//1 37//1 41//1
f 40//1 41//1 42//1
f 42//1 41//1 43//1
f 42//1 43//1 44//1
f 44//1 43//1 45//1
usemtl material_1_0
f 3//2 2//2 1//2
f 4//2 1//2 2//2
f 2//2 3//2 5//2
f 6//2 1//2 4//2
f 5//2 3//2 7//2
f 8//2 2//2 5//2
f 9//2 1//2 6//2
f 3//2 10//2 7//2
f 7//2 11//2 5//2
f 12//2 2//2 8//2
f 13//2 9//2 6//2
f 7//2 10//2 14//2
f 15//2 5//2 11//2
f 16//2 12//2 8//2
f 17//2 9//2 13//2
f 10//2 18//2 14//2
f 19//2 15//2 11//2
f 12//2 16//2 20//2
f 21//2 16//2 8//2
f 22//2 9//2 17//2
f 14//2 18//2 23//2
f 24//2 15//2 19//2
f 16//2 25//2 20//2
f 26//2 21//2 8//2
f 27//2 22//2 17//2
f 18//2 28//2 23//2
f 29//2 24//2 19//2
f 20//2 25//2 30//2
f 31//2 26//2 8//2
f 32//2 22//2 27//2
f 23//2 28//2 33//2
f 34//2 29//2 19//2
f 25//2 32//2 30//2
f 35//2 31//2 8//2
f 30//2 32//2 27//2
f 28//2 36//2 33//2
f 37//2 29//2 34//2
f 38//2 35//2 8//2
f 39//2 33//2 36//2
f 40//2 37//2 34//2
f 41//2 37//2 40//2
f 42//2 41//2 40//2
f 43//2 41//2 42//2
f 44//2 43//2 42//2
f 45//2 43//2 44//2
