# SSTK version 0.8.0
# 243
mtllib original-243.mtl
o mesh159/mesh159-geometry#mesh159-geometry
v -0.514496 0.020014 -0.006250
v -0.514496 0.002323 -0.009501
v -0.514496 0.017891 -0.009720
v -0.514496 0.008022 -0.008402
v -0.514496 -0.004040 -0.009888
v -0.514496 0.012092 -0.006223
v -0.514496 -0.020270 -0.012017
v -0.514496 -0.004040 0.019561
v -0.514496 0.021287 -0.002380
v -0.514496 0.014919 -0.012790
v -0.514496 -0.023270 -0.008522
v -0.514496 0.002323 0.011092
v -0.514496 0.014535 -0.002964
v -0.514496 -0.016587 -0.014866
v -0.514496 -0.011319 -0.008177
v -0.514496 0.018326 0.012431
v -0.514496 0.015349 0.001376
v -0.514496 0.011284 -0.015301
v -0.514496 -0.025413 -0.004552
v -0.514496 0.008022 0.010484
v -0.514496 0.015693 0.014982
v -0.514496 0.021712 0.001891
v -0.514496 -0.012397 -0.016901
v -0.514496 -0.016519 -0.004891
v -0.514496 0.020207 0.009399
v -0.514496 0.012366 0.017004
v -0.514496 0.014535 0.005626
v -0.514496 0.007170 -0.017095
v -0.514496 -0.018339 -0.002657
v -0.514496 0.012092 0.008663
v -0.514496 0.008406 0.018449
v -0.514496 0.021336 0.005886
v -0.514496 -0.007699 -0.018123
v -0.514496 -0.026698 -0.000106
v -0.514496 0.003811 0.019315
v -0.514496 0.002578 -0.018171
v -0.514496 -0.019638 -0.000030
v -0.514496 -0.001418 0.019604
v -0.514496 -0.002493 -0.018530
v -0.514496 -0.027127 0.004815
v -0.514496 -0.020678 0.006406
v -0.514496 -0.026482 0.011489
v -0.514496 -0.019969 0.012295
v -0.514496 -0.024547 0.019389
v -0.514496 -0.017841 0.019389
vn 1 0 0
vn -1 0 0
usemtl material_0_0
f 1//1 2//1 3//1
f 2//1 1//1 4//1
f 5//1 3//1 2//1
f 4//1 1//1 6//1
f 7//1 3//1 5//1
f 5//1 2//1 8//1
f 6//1 1//1 9//1
f 7//1 10//1 3//1
f 5//1 11//1 7//1
f 8//1 2//1 12//1
f 6//1 9//1 13//1
f 14//1 10//1 7//1
f 11//1 5//1 15//1
f 8//1 12//1 16//1
f 13//1 9//1 17//1
f 14//1 18//1 10//1
f 11//1 15//1 19//1
f 20//1 16//1 12//1
f 8//1 16//1 21//1
f 17//1 9//1 22//1
f 23//1 18//1 14//1
f 19//1 15//1 24//1
f 20//1 25//1 16//1
f 8//1 21//1 26//1
f 17//1 22//1 27//1
f 23//1 28//1 18//1
f 19//1 24//1 29//1
f 30//1 25//1 20//1
f 8//1 26//1 31//1
f 27//1 22//1 32//1
f 33//1 28//1 23//1
f 19//1 29//1 34//1
f 30//1 32//1 25//1
f 8//1 31//1 35//1
f 27//1 32//1 30//1
f 33//1 36//1 28//1
f 34//1 29//1 37//1
f 8//1 35//1 38//1
f 36//1 33//1 39//1
f 34//1 37//1 40//1
f 40//1 37//1 41//1
f 40//1 41//1 42//1
f 42//1 41//1 43//1
f 42//1 43//1 44//1
f 44//1 43//1 45//1
usemtl material_1_0
f 3//2 2//2 1//2
f 4//2 1//2 2//2
f 2//2 3//2 5//2
f 6//2 1//2 4//2
f 5//2 3//2 7//2
f 8//2 2//2 5//2
f 9//2 1//2 6//2
f 3//2 10//2 7//2
f 7//2 11//2 5//2
f 12//2 2//2 8//2
f 13//2 9//2 6//2
f 7//2 10//2 14//2
f 15//2 5//2 11//2
f 16//2 12//2 8//2
f 17//2 9//2 13//2
f 10//2 18//2 14//2
f 19//2 15//2 11//2
f 12//2 16//2 20//2
f 21//2 16//2 8//2
f 22//2 9//2 17//2
f 14//2 18//2 23//2
f 24//2 15//2 19//2
f 16//2 25//2 20//2
f 26//2 21//2 8//2
f 27//2 22//2 17//2
f 18//2 28//2 23//2
f 29//2 24//2 19//2
f 20//2 25//2 30//2
f 31//2 26//2 8//2
f 32//2 22//2 27//2
f 23//2 28//2 33//2
f 34//2 29//2 19//2
f 25//2 32//2 30//2
f 35//2 31//2 8//2
f 30//2 32//2 27//2
f 28//2 36//2 33//2
f 37//2 29//2 34//2
f 38//2 35//2 8//2
f 39//2 33//2 36//2
f 40//2 37//2 34//2
f 41//2 37//2 40//2
f 42//2 41//2 40//2
f 43//2 41//2 42//2
f 44//2 43//2 42//2
f 45//2 43//2 44//2
