# SSTK version 0.8.0
# 285
mtllib original-285.mtl
o mesh199/mesh199-geometry#mesh199-geometry
v -0.271789 -0.511549 -0.521358
v -0.259580 -0.517912 -0.521358
v -0.259580 -0.511549 -0.521358
v -0.271789 -0.517912 -0.521358
v -0.259580 -0.543793 -0.521358
v -0.259580 -0.502263 -0.521358
v -0.259042 -0.558389 -0.521358
v -0.254722 -0.555616 -0.521358
v -0.260074 -0.547800 -0.521358
v -0.252013 -0.551199 -0.521358
v -0.264782 -0.559313 -0.521358
v -0.251110 -0.545341 -0.521358
v -0.261557 -0.550661 -0.521358
v -0.251110 -0.517912 -0.521358
v -0.264029 -0.552378 -0.521358
v -0.251110 -0.511549 -0.521358
v -0.267490 -0.552951 -0.521358
v -0.251110 -0.503080 -0.521358
v -0.245263 -0.517912 -0.521358
v -0.271574 -0.558239 -0.521358
v -0.245263 -0.511549 -0.521358
v -0.271574 -0.552392 -0.521358
vn 0 0 1
vn 0 0 -1
usemtl material_0_0
f 1//1 2//1 3//1
f 2//1 1//1 4//1
f 5//1 3//1 2//1
f 5//1 6//1 3//1
f 7//1 6//1 5//1
f 8//1 6//1 7//1
f 7//1 5//1 9//1
f 10//1 6//1 8//1
f 7//1 9//1 11//1
f 12//1 6//1 10//1
f 11//1 9//1 13//1
f 14//1 6//1 12//1
f 11//1 13//1 15//1
f 16//1 6//1 14//1
f 11//1 15//1 17//1
f 6//1 16//1 18//1
f 19//1 16//1 14//1
f 11//1 17//1 20//1
f 16//1 19//1 21//1
f 20//1 17//1 22//1
usemtl material_1_0
f 3//2 2//2 1//2
f 4//2 1//2 2//2
f 2//2 3//2 5//2
f 3//2 6//2 5//2
f 5//2 6//2 7//2
f 7//2 6//2 8//2
f 9//2 5//2 7//2
f 8//2 6//2 10//2
f 11//2 9//2 7//2
f 10//2 6//2 12//2
f 13//2 9//2 11//2
f 12//2 6//2 14//2
f 15//2 13//2 11//2
f 14//2 6//2 16//2
f 17//2 15//2 11//2
f 18//2 16//2 6//2
f 14//2 16//2 19//2
f 20//2 17//2 11//2
f 21//2 19//2 16//2
f 22//2 17//2 20//2
