# SSTK version 0.8.0
# 286
mtllib original-286.mtl
o mesh200/mesh200-geometry#mesh200-geometry
v -0.295709 -0.516031 -0.521358
v -0.292168 -0.528015 -0.521358
v -0.292168 -0.520320 -0.521358
v -0.295663 -0.523557 -0.521358
v -0.292168 -0.558239 -0.521358
v -0.299272 -0.520373 -0.521358
v -0.292168 -0.490354 -0.521358
v -0.299627 -0.512968 -0.521358
v -0.283698 -0.558239 -0.521358
v -0.302993 -0.518463 -0.521358
v -0.283698 -0.490354 -0.521358
v -0.303921 -0.511130 -0.521358
v -0.306828 -0.517826 -0.521358
v -0.308591 -0.510517 -0.521358
v -0.309853 -0.518380 -0.521358
v -0.314040 -0.511479 -0.521358
v -0.311879 -0.520040 -0.521358
v -0.313024 -0.523001 -0.521358
v -0.313406 -0.527456 -0.521358
v -0.313406 -0.558239 -0.521358
v -0.321875 -0.558239 -0.521358
v -0.318264 -0.514365 -0.521358
v -0.320972 -0.518874 -0.521358
v -0.321875 -0.524705 -0.521358
vn 0 0 1
vn 0 0 -1
usemtl material_0_0
f 1//1 2//1 3//1
f 2//1 1//1 4//1
f 5//1 3//1 2//1
f 4//1 1//1 6//1
f 5//1 7//1 3//1
f 6//1 1//1 8//1
f 9//1 7//1 5//1
f 6//1 8//1 10//1
f 7//1 9//1 11//1
f 10//1 8//1 12//1
f 10//1 12//1 13//1
f 13//1 12//1 14//1
f 13//1 14//1 15//1
f 15//1 14//1 16//1
f 15//1 16//1 17//1
f 17//1 16//1 18//1
f 18//1 16//1 19//1
f 19//1 16//1 20//1
f 20//1 16//1 21//1
f 21//1 16//1 22//1
f 21//1 22//1 23//1
f 21//1 23//1 24//1
usemtl material_1_0
f 3//2 2//2 1//2
f 4//2 1//2 2//2
f 2//2 3//2 5//2
f 6//2 1//2 4//2
f 3//2 7//2 5//2
f 8//2 1//2 6//2
f 5//2 7//2 9//2
f 10//2 8//2 6//2
f 11//2 9//2 7//2
f 12//2 8//2 10//2
f 13//2 12//2 10//2
f 14//2 12//2 13//2
f 15//2 14//2 13//2
f 16//2 14//2 15//2
f 17//2 16//2 15//2
f 18//2 16//2 17//2
f 19//2 16//2 18//2
f 20//2 16//2 19//2
f 21//2 16//2 20//2
f 22//2 16//2 21//2
f 23//2 22//2 21//2
f 24//2 23//2 21//2
