# SSTK version 0.8.0
# 7
mtllib original-7.mtl
o Group2/mesh5/mesh5-geometry#mesh5-geometry
v 0.015023 0.186277 -0.374768
v 0.019027 0.184857 -0.373232
v 0.018054 0.182742 -0.374768
v 0.015995 0.188392 -0.373232
v 0.042765 0.182742 -0.374768
v 0.014050 0.184162 -0.373232
v -0.018877 0.188392 -0.373232
v 0.015624 0.187584 -0.370745
v 0.044302 0.184857 -0.373232
v 0.044302 0.180627 -0.373232
v 0.017082 0.180627 -0.373232
v -0.017904 0.186277 -0.374768
v -0.018506 0.187584 -0.370745
v 0.018655 0.184050 -0.370745
v 0.046788 0.184050 -0.370745
v 0.044302 0.184857 -0.441120
v 0.044302 0.180627 -0.445351
v 0.017453 0.181435 -0.370745
v -0.016932 0.184162 -0.373232
v -0.021908 0.184857 -0.373232
v -0.021537 0.184050 -0.370745
v 0.014422 0.184970 -0.370745
v -0.017303 0.184970 -0.370745
v 0.042765 0.182742 -0.443236
v 0.046788 0.181435 -0.444543
v -0.020936 0.182742 -0.374768
v 0.046788 0.184050 -0.441928
v 0.042765 0.343245 -0.443236
v 0.046788 0.181435 -0.370745
v 0.044302 0.343245 -0.445351
v -0.019963 0.180627 -0.373232
v -0.047183 0.184857 -0.373232
v -0.020335 0.181435 -0.370745
v 0.046788 0.343245 -0.441928
v 0.044302 0.343245 -0.441120
v 0.046788 0.343245 -0.444543
v -0.045646 0.182742 -0.374768
v -0.049670 0.184050 -0.370745
v -0.049670 0.181435 -0.370745
v -0.047183 0.180627 -0.373232
v -0.047183 0.184857 -0.441120
v -0.049670 0.184050 -0.441928
v -0.047183 0.180627 -0.445351
v -0.045646 0.182742 -0.443236
v -0.047183 0.343245 -0.441120
v -0.049670 0.343245 -0.441928
v -0.049670 0.181435 -0.444543
v -0.045646 0.343245 -0.443236
v -0.049670 0.343245 -0.444543
v -0.047183 0.343245 -0.445351
vn 0 0 -1
vn 0.39333585843038665 0.8555106920842195 -0.33673187880331545
vn 0 0 1
vn -0.39333585843038665 -0.8555106920842195 0.33673187880331545
vn -0.7071067811865476 0 -0.7071067811865476
vn 0.7071067811865476 0 0.7071067811865476
vn -0.39333585843038665 -0.8555106920842193 -0.3367318788033158
vn 0.39333585843038665 0.8555106920842193 0.3367318788033158
vn -0.39333585843038665 0.8555106920842195 -0.33673187880331545
vn 0.39333585843038665 -0.8555106920842195 0.33673187880331545
vn 0.30494094611419514 0.6632488827979635 0.6834558792272057
vn -0.30494094611419514 -0.6632488827979635 -0.6834558792272057
vn -0.15833494473208884 0.9746076598064334 -0.15833494473208862
vn 0.15833494473208884 -0.9746076598064334 0.15833494473208862
vn -0.15833494473208884 -0.9746076598064334 -0.15833494473208906
vn 0.15833494473208884 0.9746076598064334 0.15833494473208906
vn -0.30494094611419514 0.6632488827979635 0.6834558792272057
vn 0.30494094611419514 -0.6632488827979635 -0.6834558792272057
vn 0.49317615015218697 0.7166272181839977 0.49317615015218713
vn -0.49317615015218697 -0.7166272181839977 -0.49317615015218713
vn -0.41753513005699405 0.6425202001370418 0.642520200137042
vn 0.41753513005699405 -0.6425202001370418 -0.642520200137042
vn -0.41753513005699405 -0.6425202001370418 -0.642520200137042
vn 0.41753513005699405 0.6425202001370418 0.642520200137042
vn -0.30494094611419514 -0.6632488827979637 0.6834558792272055
vn 0.30494094611419514 0.6632488827979637 -0.6834558792272055
vn 0.39333585843038665 -0.8555106920842193 -0.3367318788033158
vn -0.39333585843038665 0.8555106920842193 0.3367318788033158
vn 0.30494094611419514 -0.6632488827979637 0.6834558792272055
vn -0.30494094611419514 0.6632488827979637 -0.6834558792272055
vn -1 0 0
vn 1 0 0
vn 0.769007132926355 -0.4520110781321556 -0.4520110781321558
vn -0.769007132926355 0.4520110781321556 0.4520110781321558
vn 0.769007132926355 0.4520110781321556 0.4520110781321558
vn -0.769007132926355 -0.4520110781321556 -0.4520110781321558
vn -0.8506509114634071 0.5257309452814002 0
vn 0.8506509114634071 -0.5257309452814002 0
vn 0.49317615015218697 -0.7166272181839979 0.4931761501521868
vn -0.49317615015218697 0.7166272181839979 -0.4931761501521868
vn -0.2628659836226611 0.5257309672453847 -0.8090169495958184
vn 0.2628659836226611 -0.5257309672453847 0.8090169495958184
vn 0.15833494473208884 0.9746076598064334 -0.15833494473208862
vn -0.15833494473208884 -0.9746076598064334 0.15833494473208862
vn 0.6881910217323846 0.5257310166020598 0.5000000157895008
vn -0.6881910217323846 -0.5257310166020598 -0.5000000157895008
vn -0.26286598362266117 0.5257309672453844 0.8090169495958188
vn 0.26286598362266117 -0.5257309672453844 -0.8090169495958188
vn 0.6881910217323846 0.52573101660206 -0.5000000157895006
vn -0.6881910217323846 -0.52573101660206 0.5000000157895006
vn 0.7071067811865476 0 -0.7071067811865476
vn -0.7071067811865476 0 0.7071067811865476
vn -0.49317615015218697 0.7166272181839977 0.49317615015218713
vn 0.49317615015218697 -0.7166272181839977 -0.49317615015218713
vn -0.49317615015218697 -0.7166272181839979 0.4931761501521868
vn 0.49317615015218697 0.7166272181839979 -0.4931761501521868
vn 0.15833494473208884 -0.9746076598064334 -0.15833494473208906
vn -0.15833494473208884 0.9746076598064334 0.15833494473208906
vn 0.26286598362266117 0.5257309672453844 0.8090169495958188
vn -0.26286598362266117 -0.5257309672453844 -0.8090169495958188
vn -0.6881910217323846 0.5257310166020598 0.5000000157895008
vn 0.6881910217323846 -0.5257310166020598 -0.5000000157895008
vn 0.8506509114634071 0.5257309452814002 0
vn -0.8506509114634071 -0.5257309452814002 0
vn -0.6881910217323846 0.52573101660206 -0.5000000157895006
vn 0.6881910217323846 -0.52573101660206 0.5000000157895006
vn 0.2628659836226611 0.5257309672453847 -0.8090169495958184
vn -0.2628659836226611 -0.5257309672453847 0.8090169495958184
usemtl material_0_0
f 1//1 2//2 3//1
f 2//2 1//1 4//2
f 3//3 2//4 1//3
f 4//4 1//3 2//4
f 2//2 5//5 3//1
f 3//3 5//6 2//4
f 3//1 6//7 1//1
f 1//3 6//8 3//3
f 1//1 7//9 4//2
f 4//4 7//10 1//3
f 8//11 2//2 4//2
f 4//4 2//4 8//12
f 5//5 2//2 9//13
f 9//14 2//4 5//6
f 10//15 3//1 5//5
f 5//6 3//3 10//16
f 6//7 3//1 11//7
f 11//8 3//3 6//8
f 6//7 12//1 1//1
f 1//3 12//3 6//8
f 7//9 1//1 12//1
f 12//3 1//3 7//10
f 13//17 4//2 7//9
f 7//10 4//4 13//18
f 2//2 8//11 14//11
f 14//12 8//12 2//4
f 4//2 13//17 8//11
f 8//12 13//18 4//4
f 2//2 15//19 9//13
f 9//14 15//20 2//4
f 16//21 5//5 9//13
f 9//14 5//6 16//22
f 3//1 10//15 11//7
f 11//8 10//16 3//3
f 5//5 17//23 10//15
f 10//16 17//24 5//6
f 18//25 6//7 11//7
f 11//8 6//8 18//26
f 12//1 6//7 19//27
f 19//28 6//8 12//3
f 12//1 20//9 7//9
f 7//10 20//10 12//3
f 7//9 21//17 13//17
f 13//18 21//18 7//10
f 22//25 14//11 8//11
f 8//12 14//12 22//26
f 15//19 2//2 14//11
f 14//12 2//4 15//20
f 13//17 23//29 8//11
f 8//12 23//30 13//18
f 15//19 16//21 9//13
f 9//14 16//22 15//20
f 5//5 16//21 24//31
f 24//32 16//22 5//6
f 10//15 18//25 11//7
f 11//8 18//26 10//16
f 17//23 5//5 24//31
f 24//32 5//6 17//24
f 25//33 10//15 17//23
f 17//24 10//16 25//34
f 6//7 18//25 22//25
f 22//26 18//26 6//8
f 22//25 19//27 6//7
f 6//8 19//28 22//26
f 19//27 26//1 12//1
f 12//3 26//3 19//28
f 20//9 12//1 26//1
f 26//3 12//3 20//10
f 21//17 7//9 20//9
f 20//10 7//10 21//18
f 21//17 23//29 13//17
f 13//18 23//30 21//18
f 18//25 14//11 22//25
f 22//26 14//12 18//26
f 22//25 8//11 23//29
f 23//30 8//12 22//26
f 18//25 15//19 14//11
f 14//12 15//20 18//26
f 16//21 15//19 27//35
f 27//36 15//20 16//22
f 16//21 28//37 24//31
f 24//32 28//38 16//22
f 18//25 10//15 29//39
f 29//40 10//16 18//26
f 24//31 30//41 17//23
f 17//24 30//42 24//32
f 10//15 25//33 29//39
f 29//40 25//34 10//16
f 30//41 25//33 17//23
f 17//24 25//34 30//42
f 19//27 22//25 23//29
f 23//30 22//26 19//28
f 26//1 19//27 31//27
f 31//28 19//28 26//3
f 26//1 32//43 20//9
f 20//10 32//44 26//3
f 32//43 21//17 20//9
f 20//10 21//18 32//44
f 21//17 33//29 23//29
f 23//30 33//30 21//18
f 15//19 18//25 29//39
f 29//40 18//26 15//20
f 15//19 25//33 27//35
f 27//36 25//34 15//20
f 34//45 16//21 27//35
f 27//36 16//22 34//46
f 28//37 16//21 35//47
f 35//48 16//22 28//38
f 30//41 24//31 28//37
f 28//38 24//32 30//42
f 25//33 15//19 29//39
f 29//40 15//20 25//34
f 25//33 30//41 36//49
f 36//50 30//42 25//34
f 23//29 31//27 19//27
f 19//28 31//28 23//30
f 31//27 37//51 26//1
f 26//3 37//52 31//28
f 32//43 26//1 37//51
f 37//52 26//3 32//44
f 21//17 32//43 38//53
f 38//54 32//44 21//18
f 33//29 21//17 39//55
f 39//56 21//18 33//30
f 31//27 23//29 33//29
f 33//30 23//30 31//28
f 27//35 25//33 34//45
f 34//46 25//34 27//36
f 16//21 34//45 35//47
f 35//48 34//46 16//22
f 35//47 30//41 28//37
f 28//38 30//42 35//48
f 30//41 34//45 36//49
f 36//50 34//46 30//42
f 34//45 25//33 36//49
f 36//50 25//34 34//46
f 37//51 31//27 40//57
f 40//58 31//28 37//52
f 37//51 41//24 32//43
f 32//44 41//23 37//52
f 32//43 42//34 38//53
f 38//54 42//33 32//44
f 38//53 39//55 21//17
f 21//18 39//56 38//54
f 40//57 33//29 39//55
f 39//56 33//30 40//58
f 33//29 40//57 31//27
f 31//28 40//58 33//30
f 30//41 35//47 34//45
f 34//46 35//48 30//42
f 43//22 37//51 40//57
f 40//58 37//52 43//21
f 41//24 37//51 44//32
f 44//31 37//52 41//23
f 42//34 32//43 41//24
f 41//23 32//44 42//33
f 42//34 39//55 38//53
f 38//54 39//56 42//33
f 39//55 43//22 40//57
f 40//58 43//21 39//56
f 37//51 43//22 44//32
f 44//31 43//21 37//52
f 44//32 45//59 41//24
f 41//23 45//60 44//31
f 41//24 46//61 42//34
f 42//33 46//62 41//23
f 39//55 42//34 47//36
f 47//35 42//33 39//56
f 43//22 39//55 47//36
f 47//35 39//56 43//21
f 43//22 48//63 44//32
f 44//31 48//64 43//21
f 45//59 44//32 48//63
f 48//64 44//31 45//60
f 46//61 41//24 45//59
f 45//60 41//23 46//62
f 49//65 42//34 46//61
f 46//62 42//33 49//66
f 47//36 42//34 49//65
f 49//66 42//33 47//35
f 47//36 50//67 43//22
f 43//21 50//68 47//35
f 48//63 43//22 50//67
f 50//68 43//21 48//64
f 50//67 45//59 48//63
f 48//64 45//60 50//68
f 45//59 49//65 46//61
f 46//62 49//66 45//60
f 50//67 47//36 49//65
f 49//66 47//35 50//68
f 49//65 45//59 50//67
f 50//68 45//60 49//66
