# SSTK version 0.8.0
# 4
mtllib original-4.mtl
o _1x12_1/Self_Sides/mesh4/mesh4-geometry#mesh4-geometry
v -0.760059 -0.053075 0.190567
v -0.735119 -0.053075 0.190567
v -0.760059 0.354273 0.190567
v -0.760059 -0.053075 -0.183529
v -0.735119 0.354273 0.190567
v -0.760059 0.354273 -0.183529
v -0.735119 -0.053075 -0.183529
v -0.735119 0.354273 -0.183529
vt 0.028604 0.037306
vt 0 0.037306
vt 0.028604 0.646644
vt -0.028604 0
vt -0.028604 0.559596
vt 0 0
vt 0 0.646644
vt 0.429063 0.646644
vt 0.429063 0.037306
vt 0 0.559596
vt 0.028604 0
vt -0.429063 0.646644
vt 0.028604 0.559596
vt -0.028604 0.646644
vt -0.028604 0.037306
vt -0.429063 0.037306
vn 0 0 1
vn 0 -1 0
vn -1 0 0
vn 0 1 0
vn 1 0 0
vn 0 0 -1
usemtl material_0_0
f 1/1/1 2/2/1 3/3/1
f 1/4/2 4/5/2 2/6/2
f 5/7/1 3/3/1 2/2/1
f 3/7/3 6/8/3 1/2/3
f 4/9/3 1/2/3 6/8/3
f 7/10/2 2/6/2 4/5/2
f 5/6/4 8/10/4 3/11/4
f 5/7/5 2/2/5 8/12/5
f 6/13/4 3/11/4 8/10/4
f 6/14/6 8/7/6 4/15/6
f 7/16/5 8/12/5 2/2/5
f 7/2/6 4/15/6 8/7/6
usemtl material_1_0
f 3//6 2//6 1//6
f 2//4 4//4 1//4
f 2//6 3//6 5//6
f 1//5 6//5 3//5
f 6//5 1//5 4//5
f 4//4 2//4 7//4
f 3//2 8//2 5//2
f 8//3 2//3 5//3
f 8//2 3//2 6//2
f 4//1 8//1 6//1
f 2//3 8//3 7//3
f 8//1 4//1 7//1
