# SSTK version 0.8.0
# 46
mtllib original-46.mtl
o Group1/mesh42/mesh42-geometry#mesh42-geometry
v 0.599642 0.026037 -0.298241
v 0.648336 0.026037 0.269857
v 0.599642 0.026037 0.269857
v 0.648336 0.026037 -0.298241
v 0.648336 0.061544 0.269857
v 0.599642 0.039225 0.239423
v 0.599642 0.061544 -0.298241
v 0.599642 0.061544 0.269857
v 0.599642 0.061544 0.239423
v 0.599642 0.039225 0.219134
v 0.648336 0.061544 -0.298241
v 0.625004 0.039225 0.243988
v 0.625004 0.061544 0.214569
v 0.599642 0.061544 0.219134
v 0.625004 0.061544 0.243988
v 0.625004 0.039225 0.214569
vt 1.781806 4.872576
vt 0.040426 5.069947
vt 0.040426 4.872577
vt 1.781806 5.069946
vt 0 0
vt -0.048348 0
vt 0 0.745871
vt -0.048348 0.745871
vt -0.068411 5.069947
vt 0.048348 0
vt 0.048348 0.046617
vt 0.000001 4.74922
vt 0.040424 2.569924
vt -0.564065 0
vt -0.030218 0.017315
vt -0.068412 -1.948867
vt 0.040425 -2.146237
vt 0.040425 -1.948867
vt 0 0.046617
vt -0.068412 -4.44889
vt 0.040424 -4.448889
vt 0.564065 0
vt -0.068411 4.872577
vt -0.068411 4.74922
vt -0.030218 0.046617
vt 0.000001 4.666983
vt -0.050363 0.017315
vt -0.068412 -2.146237
vt -0.048348 0.046617
vt -0.068412 2.569924
vt -0.564065 0.046617
vt 0.564065 0.046617
vt -0.217673 -4.325533
vt -0.217673 -4.44889
vt 0 0.039957
vt 0.000001 4.644771
vt 0.005353 0.017315
vt -0.020233 0.017315
vt 0.005353 0.046617
vt 0.088753 4.750307
vt 0.061209 4.652414
vt 0 0.066596
vt 0.025181 0.033964
vt -0.217673 -2.146237
vt -0.139933 -4.224792
vt 0.048348 0.745871
vt 0.025181 0.072589
vt -0.068411 4.666983
vt -0.050363 0.046617
vt -0.139933 -4.344037
vt -0.068411 4.644771
vt -0.020233 0.046617
vt 0.000001 4.771432
vt -0.217673 -4.243296
vt -0.068411 4.771432
vt 0.008922 0.046617
vt 0.034508 0.046617
vt 0.008922 0.017315
vt 0.000001 4.890676
vt -0.068411 4.890676
vt -0.025685 0.046617
vt -0.025685 0.017315
vt -0.054896 0.046617
vt -0.054896 0.017315
vt 0.034508 0.017315
vn 0 -1 0
vn 0 1 0
vn 0 0 1
vn 0 0 -1
vn -1 0 0
vn 1 0 0
vn 0.17715305643229226 0 -0.9841833135126287
vn -0.17715305643229226 0 0.9841833135126287
vn 0.17715305643229226 0 0.9841833135126287
vn -0.17715305643229226 0 -0.9841833135126287
usemtl material_0_0
f 1/1/1 2/2/1 3/3/1
f 2/2/1 1/1/1 4/4/1
f 3/5/2 2/6/2 1/7/2
f 4/8/2 1/7/2 2/6/2
f 5/9/3 3/3/3 2/2/3
f 2/10/4 3/5/4 5/11/4
f 3/3/5 6/12/5 1/13/5
f 1/14/6 6/15/6 3/5/6
f 7/16/4 4/17/4 1/18/4
f 1/5/3 4/6/3 7/19/3
f 4/17/6 5/20/6 2/21/6
f 2/5/5 5/19/5 4/22/5
f 3/3/3 5/9/3 8/23/3
f 8/19/4 5/11/4 3/5/4
f 3/3/5 9/24/5 6/12/5
f 6/15/6 9/25/6 3/5/6
f 1/13/5 6/12/5 10/26/5
f 10/27/6 6/15/6 1/14/6
f 4/17/4 7/16/4 11/28/4
f 11/29/3 7/19/3 4/6/3
f 1/13/5 10/26/5 7/30/5
f 7/31/6 10/27/6 1/14/6
f 5/20/6 4/17/6 11/28/6
f 11/32/5 4/22/5 5/19/5
f 5/20/2 9/33/2 8/34/2
f 8/5/1 9/35/1 5/10/1
f 9/24/5 3/3/5 8/23/5
f 8/19/6 3/5/6 9/25/6
f 9/24/7 12/36/7 6/12/7
f 6/37/8 12/38/8 9/39/8
f 12/40/2 10/26/2 6/41/2
f 6/35/1 10/42/1 12/43/1
f 7/44/2 13/45/2 11/28/2
f 11/46/1 13/47/1 7/7/1
f 7/30/5 10/26/5 14/48/5
f 14/49/6 10/27/6 7/31/6
f 11/28/2 13/45/2 5/20/2
f 5/10/1 13/47/1 11/46/1
f 9/33/2 5/20/2 15/50/2
f 15/43/1 5/10/1 9/35/1
f 12/36/7 9/24/7 15/51/7
f 15/52/8 9/39/8 12/38/8
f 10/26/2 12/40/2 16/53/2
f 16/47/1 12/43/1 10/42/1
f 13/45/2 7/44/2 14/54/2
f 14/42/1 7/7/1 13/47/1
f 10/26/9 13/55/9 14/48/9
f 14/56/10 13/57/10 10/58/10
f 15/50/2 5/20/2 13/45/2
f 13/47/1 5/10/1 15/43/1
f 13/55/5 12/59/5 15/60/5
f 15/61/6 12/62/6 13/63/6
f 12/59/5 13/55/5 16/53/5
f 16/64/6 13/63/6 12/62/6
f 13/55/9 10/26/9 16/53/9
f 16/65/10 10/58/10 13/57/10
