# SSTK version 0.8.0
# 63
mtllib original-63.mtl
o mesh62/mesh62-geometry#mesh62-geometry
v 0.071261 -0.815085 -0.217393
v 0.069087 -0.815085 -0.239467
v 0.062649 -0.815085 -0.174095
v 0.062649 -0.815085 -0.260692
v 0.069087 -0.815085 -0.195320
v 0.052193 -0.815085 -0.280253
v 0.052193 -0.815085 -0.154533
v 0.038122 -0.815085 -0.137388
v 0.020976 -0.815085 -0.123317
v 0.001415 -0.815085 -0.112861
v 0.038122 -0.815085 -0.297399
v 0.020976 -0.815085 -0.311470
v 0.001415 -0.815085 -0.321926
v -0.019810 -0.815085 -0.106422
v -0.041884 -0.815085 -0.104248
v -0.019810 -0.815085 -0.328364
v -0.041884 -0.815085 -0.330538
v -0.063957 -0.815085 -0.106422
v -0.063957 -0.815085 -0.328364
v -0.085182 -0.815085 -0.321926
v -0.085182 -0.815085 -0.112861
v -0.104744 -0.815085 -0.123317
v -0.121889 -0.815085 -0.137388
v -0.135960 -0.815085 -0.154533
v -0.104744 -0.815085 -0.311470
v -0.121889 -0.815085 -0.297399
v -0.135960 -0.815085 -0.280253
v -0.146416 -0.815085 -0.174095
v -0.152855 -0.815085 -0.195320
v -0.155029 -0.815085 -0.217393
v -0.152855 -0.815085 -0.239467
v -0.146416 -0.815085 -0.260692
vn 0 1 0
vn 0 -1 0
usemtl material_0_0
f 1//1 2//1 3//1
f 3//2 2//2 1//2
f 2//1 4//1 3//1
f 3//2 4//2 2//2
f 1//1 3//1 5//1
f 5//2 3//2 1//2
f 4//1 6//1 3//1
f 3//2 6//2 4//2
f 3//1 6//1 7//1
f 7//2 6//2 3//2
f 6//1 8//1 7//1
f 7//2 8//2 6//2
f 6//1 9//1 8//1
f 8//2 9//2 6//2
f 6//1 10//1 9//1
f 9//2 10//2 6//2
f 6//1 11//1 10//1
f 10//2 11//2 6//2
f 11//1 12//1 10//1
f 10//2 12//2 11//2
f 12//1 13//1 10//1
f 10//2 13//2 12//2
f 13//1 14//1 10//1
f 10//2 14//2 13//2
f 13//1 15//1 14//1
f 14//2 15//2 13//2
f 13//1 16//1 15//1
f 15//2 16//2 13//2
f 16//1 17//1 15//1
f 15//2 17//2 16//2
f 17//1 18//1 15//1
f 15//2 18//2 17//2
f 17//1 19//1 18//1
f 18//2 19//2 17//2
f 18//1 19//1 20//1
f 20//2 19//2 18//2
f 18//1 20//1 21//1
f 21//2 20//2 18//2
f 20//1 22//1 21//1
f 21//2 22//2 20//2
f 20//1 23//1 22//1
f 22//2 23//2 20//2
f 20//1 24//1 23//1
f 23//2 24//2 20//2
f 20//1 25//1 24//1
f 24//2 25//2 20//2
f 25//1 26//1 24//1
f 24//2 26//2 25//2
f 26//1 27//1 24//1
f 24//2 27//2 26//2
f 27//1 28//1 24//1
f 24//2 28//2 27//2
f 27//1 29//1 28//1
f 28//2 29//2 27//2
f 27//1 30//1 29//1
f 29//2 30//2 27//2
f 27//1 31//1 30//1
f 30//2 31//2 27//2
f 27//1 32//1 31//1
f 31//2 32//2 27//2
