# SSTK version 0.8.0
# 20
mtllib original-20.mtl
o #ID131
v 0.431403 -0.792062 -0.471054
v 0.431403 -0.792062 -0.459437
v 0.430895 -0.792062 -0.465246
v 0.432913 -0.792062 -0.476687
v 0.432913 -0.792062 -0.453805
v 0.435377 -0.792062 -0.481971
v 0.435377 -0.792062 -0.448521
v 0.438721 -0.792062 -0.486747
v 0.438721 -0.792062 -0.443744
v 0.442844 -0.792062 -0.490870
v 0.442844 -0.792062 -0.439621
v 0.447621 -0.792062 -0.494215
v 0.447621 -0.792062 -0.436277
v 0.452905 -0.792062 -0.496679
v 0.452905 -0.792062 -0.433813
v 0.458537 -0.792062 -0.498188
v 0.458537 -0.792062 -0.432303
v 0.464346 -0.792062 -0.498696
v 0.464346 -0.792062 -0.431795
v 0.470154 -0.792062 -0.498188
v 0.470154 -0.792062 -0.432303
v 0.475787 -0.792062 -0.496679
v 0.475787 -0.792062 -0.433813
v 0.481071 -0.792062 -0.436277
v 0.481071 -0.792062 -0.494215
v 0.485847 -0.792062 -0.490870
v 0.485847 -0.792062 -0.439621
v 0.489970 -0.792062 -0.486747
v 0.489970 -0.792062 -0.443744
v 0.493315 -0.792062 -0.481971
v 0.493315 -0.792062 -0.448521
v 0.495779 -0.792062 -0.476687
v 0.495779 -0.792062 -0.453805
v 0.497288 -0.792062 -0.471054
v 0.497288 -0.792062 -0.459437
v 0.497796 -0.792062 -0.465246
v 0.497796 -0.792062 -0.465246
v 0.497288 -0.792062 -0.471054
v 0.497288 -0.792062 -0.459437
v 0.495779 -0.792062 -0.453805
v 0.495779 -0.792062 -0.476687
v 0.493315 -0.792062 -0.448521
v 0.493315 -0.792062 -0.481971
v 0.489970 -0.792062 -0.443744
v 0.489970 -0.792062 -0.486747
v 0.485847 -0.792062 -0.439621
v 0.485847 -0.792062 -0.490870
v 0.481071 -0.792062 -0.436277
v 0.481071 -0.792062 -0.494215
v 0.475787 -0.792062 -0.496679
v 0.475787 -0.792062 -0.433813
v 0.470154 -0.792062 -0.432303
v 0.470154 -0.792062 -0.498188
v 0.464346 -0.792062 -0.431795
v 0.464346 -0.792062 -0.498696
v 0.458537 -0.792062 -0.432303
v 0.458537 -0.792062 -0.498188
v 0.452905 -0.792062 -0.433813
v 0.452905 -0.792062 -0.496679
v 0.447621 -0.792062 -0.436277
v 0.447621 -0.792062 -0.494215
v 0.442844 -0.792062 -0.439621
v 0.442844 -0.792062 -0.490870
v 0.438721 -0.792062 -0.443744
v 0.438721 -0.792062 -0.486747
v 0.435377 -0.792062 -0.448521
v 0.435377 -0.792062 -0.481971
v 0.432913 -0.792062 -0.453805
v 0.432913 -0.792062 -0.476687
v 0.431403 -0.792062 -0.459437
v 0.431403 -0.792062 -0.471054
v 0.430895 -0.792062 -0.465246
v 0.497288 -0.792062 -0.459437
v 0.495779 -0.758612 -0.453805
v 0.495779 -0.792062 -0.453805
v 0.497288 -0.758612 -0.459437
v 0.497288 -0.758612 -0.459437
v 0.497288 -0.792062 -0.459437
v 0.495779 -0.758612 -0.453805
v 0.495779 -0.792062 -0.453805
v 0.495779 -0.792062 -0.453805
v 0.493315 -0.758612 -0.448521
v 0.493315 -0.792062 -0.448521
v 0.495779 -0.758612 -0.453805
v 0.495779 -0.758612 -0.453805
v 0.495779 -0.792062 -0.453805
v 0.493315 -0.758612 -0.448521
v 0.493315 -0.792062 -0.448521
v 0.493315 -0.792062 -0.448521
v 0.489970 -0.758612 -0.443744
v 0.489970 -0.792062 -0.443744
v 0.493315 -0.758612 -0.448521
v 0.493315 -0.758612 -0.448521
v 0.493315 -0.792062 -0.448521
v 0.489970 -0.758612 -0.443744
v 0.489970 -0.792062 -0.443744
v 0.489970 -0.792062 -0.443744
v 0.485847 -0.758612 -0.439621
v 0.485847 -0.792062 -0.439621
v 0.489970 -0.758612 -0.443744
v 0.489970 -0.758612 -0.443744
v 0.489970 -0.792062 -0.443744
v 0.485847 -0.758612 -0.439621
v 0.485847 -0.792062 -0.439621
v 0.485847 -0.758612 -0.439621
v 0.481071 -0.792062 -0.436277
v 0.485847 -0.792062 -0.439621
v 0.481071 -0.758612 -0.436277
v 0.481071 -0.758612 -0.436277
v 0.485847 -0.758612 -0.439621
v 0.481071 -0.792062 -0.436277
v 0.485847 -0.792062 -0.439621
v 0.481071 -0.758612 -0.436277
v 0.475787 -0.792062 -0.433813
v 0.481071 -0.792062 -0.436277
v 0.475787 -0.758612 -0.433813
v 0.475787 -0.758612 -0.433813
v 0.481071 -0.758612 -0.436277
v 0.475787 -0.792062 -0.433813
v 0.481071 -0.792062 -0.436277
v 0.475787 -0.758612 -0.433813
v 0.470154 -0.792062 -0.432303
v 0.475787 -0.792062 -0.433813
v 0.470154 -0.758612 -0.432303
v 0.470154 -0.758612 -0.432303
v 0.475787 -0.758612 -0.433813
v 0.470154 -0.792062 -0.432303
v 0.475787 -0.792062 -0.433813
v 0.470154 -0.758612 -0.432303
v 0.464346 -0.792062 -0.431795
v 0.470154 -0.792062 -0.432303
v 0.464346 -0.758612 -0.431795
v 0.464346 -0.758612 -0.431795
v 0.470154 -0.758612 -0.432303
v 0.464346 -0.792062 -0.431795
v 0.470154 -0.792062 -0.432303
v 0.464346 -0.758612 -0.431795
v 0.458537 -0.792062 -0.432303
v 0.464346 -0.792062 -0.431795
v 0.458537 -0.758612 -0.432303
v 0.458537 -0.758612 -0.432303
v 0.464346 -0.758612 -0.431795
v 0.458537 -0.792062 -0.432303
v 0.464346 -0.792062 -0.431795
v 0.458537 -0.758612 -0.432303
v 0.452905 -0.792062 -0.433813
v 0.458537 -0.792062 -0.432303
v 0.452905 -0.758612 -0.433813
v 0.452905 -0.758612 -0.433813
v 0.458537 -0.758612 -0.432303
v 0.452905 -0.792062 -0.433813
v 0.458537 -0.792062 -0.432303
v 0.452905 -0.758612 -0.433813
v 0.447621 -0.792062 -0.436277
v 0.452905 -0.792062 -0.433813
v 0.447621 -0.758612 -0.436277
v 0.447621 -0.758612 -0.436277
v 0.452905 -0.758612 -0.433813
v 0.447621 -0.792062 -0.436277
v 0.452905 -0.792062 -0.433813
v 0.447621 -0.758612 -0.436277
v 0.442844 -0.792062 -0.439621
v 0.447621 -0.792062 -0.436277
v 0.442844 -0.758612 -0.439621
v 0.442844 -0.758612 -0.439621
v 0.447621 -0.758612 -0.436277
v 0.442844 -0.792062 -0.439621
v 0.447621 -0.792062 -0.436277
v 0.438721 -0.758612 -0.443744
v 0.442844 -0.792062 -0.439621
v 0.442844 -0.758612 -0.439621
v 0.438721 -0.792062 -0.443744
v 0.438721 -0.792062 -0.443744
v 0.438721 -0.758612 -0.443744
v 0.442844 -0.792062 -0.439621
v 0.442844 -0.758612 -0.439621
v 0.435377 -0.758612 -0.448521
v 0.438721 -0.792062 -0.443744
v 0.438721 -0.758612 -0.443744
v 0.435377 -0.792062 -0.448521
v 0.435377 -0.792062 -0.448521
v 0.435377 -0.758612 -0.448521
v 0.438721 -0.792062 -0.443744
v 0.438721 -0.758612 -0.443744
v 0.432913 -0.758612 -0.453805
v 0.435377 -0.792062 -0.448521
v 0.435377 -0.758612 -0.448521
v 0.432913 -0.792062 -0.453805
v 0.432913 -0.792062 -0.453805
v 0.432913 -0.758612 -0.453805
v 0.435377 -0.792062 -0.448521
v 0.435377 -0.758612 -0.448521
v 0.431403 -0.758612 -0.459437
v 0.432913 -0.792062 -0.453805
v 0.432913 -0.758612 -0.453805
v 0.431403 -0.792062 -0.459437
v 0.431403 -0.792062 -0.459437
v 0.431403 -0.758612 -0.459437
v 0.432913 -0.792062 -0.453805
v 0.432913 -0.758612 -0.453805
v 0.430895 -0.758612 -0.465246
v 0.431403 -0.792062 -0.459437
v 0.431403 -0.758612 -0.459437
v 0.430895 -0.792062 -0.465246
v 0.430895 -0.792062 -0.465246
v 0.430895 -0.758612 -0.465246
v 0.431403 -0.792062 -0.459437
v 0.431403 -0.758612 -0.459437
v 0.431403 -0.758612 -0.471054
v 0.430895 -0.792062 -0.465246
v 0.430895 -0.758612 -0.465246
v 0.431403 -0.792062 -0.471054
v 0.431403 -0.792062 -0.471054
v 0.431403 -0.758612 -0.471054
v 0.430895 -0.792062 -0.465246
v 0.430895 -0.758612 -0.465246
v 0.432913 -0.758612 -0.476687
v 0.431403 -0.792062 -0.471054
v 0.431403 -0.758612 -0.471054
v 0.432913 -0.792062 -0.476687
v 0.432913 -0.792062 -0.476687
v 0.432913 -0.758612 -0.476687
v 0.431403 -0.792062 -0.471054
v 0.431403 -0.758612 -0.471054
v 0.435377 -0.758612 -0.481971
v 0.432913 -0.792062 -0.476687
v 0.432913 -0.758612 -0.476687
v 0.435377 -0.792062 -0.481971
v 0.435377 -0.792062 -0.481971
v 0.435377 -0.758612 -0.481971
v 0.432913 -0.792062 -0.476687
v 0.432913 -0.758612 -0.476687
v 0.438721 -0.758612 -0.486747
v 0.435377 -0.792062 -0.481971
v 0.435377 -0.758612 -0.481971
v 0.438721 -0.792062 -0.486747
v 0.438721 -0.792062 -0.486747
v 0.438721 -0.758612 -0.486747
v 0.435377 -0.792062 -0.481971
v 0.435377 -0.758612 -0.481971
v 0.438721 -0.758612 -0.486747
v 0.442844 -0.792062 -0.490870
v 0.438721 -0.792062 -0.486747
v 0.442844 -0.758612 -0.490870
v 0.442844 -0.758612 -0.490870
v 0.438721 -0.758612 -0.486747
v 0.442844 -0.792062 -0.490870
v 0.438721 -0.792062 -0.486747
v 0.442844 -0.758612 -0.490870
v 0.447621 -0.792062 -0.494215
v 0.442844 -0.792062 -0.490870
v 0.447621 -0.758612 -0.494215
v 0.447621 -0.758612 -0.494215
v 0.442844 -0.758612 -0.490870
v 0.447621 -0.792062 -0.494215
v 0.442844 -0.792062 -0.490870
v 0.447621 -0.758612 -0.494215
v 0.452905 -0.792062 -0.496679
v 0.447621 -0.792062 -0.494215
v 0.452905 -0.758612 -0.496679
v 0.452905 -0.758612 -0.496679
v 0.447621 -0.758612 -0.494215
v 0.452905 -0.792062 -0.496679
v 0.447621 -0.792062 -0.494215
v 0.452905 -0.758612 -0.496679
v 0.458537 -0.792062 -0.498188
v 0.452905 -0.792062 -0.496679
v 0.458537 -0.758612 -0.498188
v 0.458537 -0.758612 -0.498188
v 0.452905 -0.758612 -0.496679
v 0.458537 -0.792062 -0.498188
v 0.452905 -0.792062 -0.496679
v 0.458537 -0.758612 -0.498188
v 0.464346 -0.792062 -0.498696
v 0.458537 -0.792062 -0.498188
v 0.464346 -0.758612 -0.498696
v 0.464346 -0.758612 -0.498696
v 0.458537 -0.758612 -0.498188
v 0.464346 -0.792062 -0.498696
v 0.458537 -0.792062 -0.498188
v 0.464346 -0.758612 -0.498696
v 0.470154 -0.792062 -0.498188
v 0.464346 -0.792062 -0.498696
v 0.470154 -0.758612 -0.498188
v 0.470154 -0.758612 -0.498188
v 0.464346 -0.758612 -0.498696
v 0.470154 -0.792062 -0.498188
v 0.464346 -0.792062 -0.498696
v 0.470154 -0.758612 -0.498188
v 0.475787 -0.792062 -0.496679
v 0.470154 -0.792062 -0.498188
v 0.475787 -0.758612 -0.496679
v 0.475787 -0.758612 -0.496679
v 0.470154 -0.758612 -0.498188
v 0.475787 -0.792062 -0.496679
v 0.470154 -0.792062 -0.498188
v 0.475787 -0.758612 -0.496679
v 0.481071 -0.792062 -0.494215
v 0.475787 -0.792062 -0.496679
v 0.481071 -0.758612 -0.494215
v 0.481071 -0.758612 -0.494215
v 0.475787 -0.758612 -0.496679
v 0.481071 -0.792062 -0.494215
v 0.475787 -0.792062 -0.496679
v 0.481071 -0.758612 -0.494215
v 0.485847 -0.792062 -0.490870
v 0.481071 -0.792062 -0.494215
v 0.485847 -0.758612 -0.490870
v 0.485847 -0.758612 -0.490870
v 0.481071 -0.758612 -0.494215
v 0.485847 -0.792062 -0.490870
v 0.481071 -0.792062 -0.494215
v 0.485847 -0.792062 -0.490870
v 0.489970 -0.758612 -0.486747
v 0.489970 -0.792062 -0.486747
v 0.485847 -0.758612 -0.490870
v 0.485847 -0.758612 -0.490870
v 0.485847 -0.792062 -0.490870
v 0.489970 -0.758612 -0.486747
v 0.489970 -0.792062 -0.486747
v 0.489970 -0.792062 -0.486747
v 0.493315 -0.758612 -0.481971
v 0.493315 -0.792062 -0.481971
v 0.489970 -0.758612 -0.486747
v 0.489970 -0.758612 -0.486747
v 0.489970 -0.792062 -0.486747
v 0.493315 -0.758612 -0.481971
v 0.493315 -0.792062 -0.481971
v 0.493315 -0.792062 -0.481971
v 0.495779 -0.758612 -0.476687
v 0.495779 -0.792062 -0.476687
v 0.493315 -0.758612 -0.481971
v 0.493315 -0.758612 -0.481971
v 0.493315 -0.792062 -0.481971
v 0.495779 -0.758612 -0.476687
v 0.495779 -0.792062 -0.476687
v 0.495779 -0.792062 -0.476687
v 0.497288 -0.758612 -0.471054
v 0.497288 -0.792062 -0.471054
v 0.495779 -0.758612 -0.476687
v 0.495779 -0.758612 -0.476687
v 0.495779 -0.792062 -0.476687
v 0.497288 -0.758612 -0.471054
v 0.497288 -0.792062 -0.471054
v 0.497288 -0.792062 -0.471054
v 0.497796 -0.758612 -0.465246
v 0.497796 -0.792062 -0.465246
v 0.497288 -0.758612 -0.471054
v 0.497288 -0.758612 -0.471054
v 0.497288 -0.792062 -0.471054
v 0.497796 -0.758612 -0.465246
v 0.497796 -0.792062 -0.465246
v 0.497796 -0.792062 -0.465246
v 0.497288 -0.758612 -0.459437
v 0.497288 -0.792062 -0.459437
v 0.497796 -0.758612 -0.465246
v 0.497796 -0.758612 -0.465246
v 0.497796 -0.792062 -0.465246
v 0.497288 -0.758612 -0.459437
v 0.497288 -0.792062 -0.459437
v 0.431403 -0.758612 -0.459437
v 0.431403 -0.758612 -0.471054
v 0.430895 -0.758612 -0.465246
v 0.432913 -0.758612 -0.453805
v 0.432913 -0.758612 -0.476687
v 0.435377 -0.758612 -0.448521
v 0.435377 -0.758612 -0.481971
v 0.438721 -0.758612 -0.443744
v 0.438721 -0.758612 -0.486747
v 0.442844 -0.758612 -0.439621
v 0.442844 -0.758612 -0.490870
v 0.447621 -0.758612 -0.436277
v 0.447621 -0.758612 -0.494215
v 0.452905 -0.758612 -0.433813
v 0.452905 -0.758612 -0.496679
v 0.458537 -0.758612 -0.432303
v 0.458537 -0.758612 -0.498188
v 0.464346 -0.758612 -0.431795
v 0.464346 -0.758612 -0.498696
v 0.470154 -0.758612 -0.432303
v 0.470154 -0.758612 -0.498188
v 0.475787 -0.758612 -0.433813
v 0.475787 -0.758612 -0.496679
v 0.481071 -0.758612 -0.436277
v 0.481071 -0.758612 -0.494215
v 0.485847 -0.758612 -0.439621
v 0.485847 -0.758612 -0.490870
v 0.489970 -0.758612 -0.443744
v 0.489970 -0.758612 -0.486747
v 0.493315 -0.758612 -0.448521
v 0.493315 -0.758612 -0.481971
v 0.495779 -0.758612 -0.453805
v 0.495779 -0.758612 -0.476687
v 0.497288 -0.758612 -0.459437
v 0.497288 -0.758612 -0.471054
v 0.497796 -0.758612 -0.465246
v 0.497796 -0.758612 -0.465246
v 0.497288 -0.758612 -0.459437
v 0.497288 -0.758612 -0.471054
v 0.495779 -0.758612 -0.476687
v 0.495779 -0.758612 -0.453805
v 0.493315 -0.758612 -0.481971
v 0.493315 -0.758612 -0.448521
v 0.489970 -0.758612 -0.486747
v 0.489970 -0.758612 -0.443744
v 0.485847 -0.758612 -0.490870
v 0.485847 -0.758612 -0.439621
v 0.481071 -0.758612 -0.494215
v 0.481071 -0.758612 -0.436277
v 0.475787 -0.758612 -0.496679
v 0.475787 -0.758612 -0.433813
v 0.470154 -0.758612 -0.498188
v 0.470154 -0.758612 -0.432303
v 0.464346 -0.758612 -0.498696
v 0.464346 -0.758612 -0.431795
v 0.458537 -0.758612 -0.498188
v 0.458537 -0.758612 -0.432303
v 0.452905 -0.758612 -0.496679
v 0.452905 -0.758612 -0.433813
v 0.447621 -0.758612 -0.494215
v 0.447621 -0.758612 -0.436277
v 0.442844 -0.758612 -0.490870
v 0.442844 -0.758612 -0.439621
v 0.438721 -0.758612 -0.486747
v 0.438721 -0.758612 -0.443744
v 0.435377 -0.758612 -0.481971
v 0.435377 -0.758612 -0.448521
v 0.432913 -0.758612 -0.476687
v 0.432913 -0.758612 -0.453805
v 0.431403 -0.758612 -0.471054
v 0.431403 -0.758612 -0.459437
v 0.430895 -0.758612 -0.465246
vn 0 -1 0
vn 0 1 0
vn 0.9659258358036645 0 0.25881900959356163
vn -0.9659258358036645 0 -0.25881900959356163
vn 0.9063077746978222 0 0.4226182882013998
vn -0.9063077746978222 0 -0.4226182882013998
vn 0.8191520467977645 0 0.5735764327681472
vn -0.8191520467977645 0 -0.5735764327681472
vn 0.7071067811865476 0 0.7071067811865476
vn -0.7071067811865476 0 -0.7071067811865476
vn 0.5735764327681472 0 0.8191520467977645
vn -0.5735764327681472 0 -0.8191520467977645
vn 0.4226182882013998 0 0.9063077746978222
vn -0.4226182882013998 0 -0.9063077746978222
vn 0.25881900959356163 0 0.9659258358036645
vn -0.25881900959356163 0 -0.9659258358036645
vn 0.08715573985518911 0 0.9961946983448039
vn -0.08715573985518911 0 -0.9961946983448039
vn -0.08715573985518911 0 0.9961946983448039
vn 0.08715573985518911 0 -0.9961946983448039
vn -0.25881900959356163 0 0.9659258358036645
vn 0.25881900959356163 0 -0.9659258358036645
vn -0.4226182882013998 0 0.9063077746978222
vn 0.4226182882013998 0 -0.9063077746978222
vn -0.5735764327681472 0 0.8191520467977645
vn 0.5735764327681472 0 -0.8191520467977645
vn -0.7071067811865476 0 0.7071067811865476
vn 0.7071067811865476 0 -0.7071067811865476
vn -0.8191520467977645 0 0.5735764327681472
vn 0.8191520467977645 0 -0.5735764327681472
vn -0.9063077746978222 0 0.4226182882013998
vn 0.9063077746978222 0 -0.4226182882013998
vn -0.9659258358036645 0 0.25881900959356163
vn 0.9659258358036645 0 -0.25881900959356163
vn -0.9961946983448039 0 0.08715573985518911
vn 0.9961946983448039 0 -0.08715573985518911
vn -0.9961946983448039 0 -0.08715573985518911
vn 0.9961946983448039 0 0.08715573985518911
usemtl material-5
f 1//1 2//1 3//1
f 2//1 1//1 4//1
f 2//1 4//1 5//1
f 5//1 4//1 6//1
f 5//1 6//1 7//1
f 7//1 6//1 8//1
f 7//1 8//1 9//1
f 9//1 8//1 10//1
f 9//1 10//1 11//1
f 11//1 10//1 12//1
f 11//1 12//1 13//1
f 13//1 12//1 14//1
f 13//1 14//1 15//1
f 15//1 14//1 16//1
f 15//1 16//1 17//1
f 17//1 16//1 18//1
f 17//1 18//1 19//1
f 19//1 18//1 20//1
f 19//1 20//1 21//1
f 21//1 20//1 22//1
f 21//1 22//1 23//1
f 23//1 22//1 24//1
f 24//1 22//1 25//1
f 24//1 25//1 26//1
f 24//1 26//1 27//1
f 27//1 26//1 28//1
f 27//1 28//1 29//1
f 29//1 28//1 30//1
f 29//1 30//1 31//1
f 31//1 30//1 32//1
f 31//1 32//1 33//1
f 33//1 32//1 34//1
f 33//1 34//1 35//1
f 35//1 34//1 36//1
f 37//2 38//2 39//2
f 39//2 38//2 40//2
f 38//2 41//2 40//2
f 40//2 41//2 42//2
f 41//2 43//2 42//2
f 42//2 43//2 44//2
f 43//2 45//2 44//2
f 44//2 45//2 46//2
f 45//2 47//2 46//2
f 46//2 47//2 48//2
f 47//2 49//2 48//2
f 49//2 50//2 48//2
f 48//2 50//2 51//2
f 51//2 50//2 52//2
f 50//2 53//2 52//2
f 52//2 53//2 54//2
f 53//2 55//2 54//2
f 54//2 55//2 56//2
f 55//2 57//2 56//2
f 56//2 57//2 58//2
f 57//2 59//2 58//2
f 58//2 59//2 60//2
f 59//2 61//2 60//2
f 60//2 61//2 62//2
f 61//2 63//2 62//2
f 62//2 63//2 64//2
f 63//2 65//2 64//2
f 64//2 65//2 66//2
f 65//2 67//2 66//2
f 66//2 67//2 68//2
f 67//2 69//2 68//2
f 68//2 69//2 70//2
f 69//2 71//2 70//2
f 72//2 70//2 71//2
f 73//3 74//3 75//3
f 74//3 73//3 76//3
f 77//4 78//4 79//4
f 80//4 79//4 78//4
f 81//5 82//5 83//5
f 82//5 81//5 84//5
f 85//6 86//6 87//6
f 88//6 87//6 86//6
f 89//7 90//7 91//7
f 90//7 89//7 92//7
f 93//8 94//8 95//8
f 96//8 95//8 94//8
f 97//9 98//9 99//9
f 98//9 97//9 100//9
f 101//10 102//10 103//10
f 104//10 103//10 102//10
f 105//11 106//11 107//11
f 106//11 105//11 108//11
f 109//12 110//12 111//12
f 112//12 111//12 110//12
f 113//13 114//13 115//13
f 114//13 113//13 116//13
f 117//14 118//14 119//14
f 120//14 119//14 118//14
f 121//15 122//15 123//15
f 122//15 121//15 124//15
f 125//16 126//16 127//16
f 128//16 127//16 126//16
f 129//17 130//17 131//17
f 130//17 129//17 132//17
f 133//18 134//18 135//18
f 136//18 135//18 134//18
f 137//19 138//19 139//19
f 138//19 137//19 140//19
f 141//20 142//20 143//20
f 144//20 143//20 142//20
f 145//21 146//21 147//21
f 146//21 145//21 148//21
f 149//22 150//22 151//22
f 152//22 151//22 150//22
f 153//23 154//23 155//23
f 154//23 153//23 156//23
f 157//24 158//24 159//24
f 160//24 159//24 158//24
f 161//25 162//25 163//25
f 162//25 161//25 164//25
f 165//26 166//26 167//26
f 168//26 167//26 166//26
f 169//27 170//27 171//27
f 170//27 169//27 172//27
f 173//28 174//28 175//28
f 176//28 175//28 174//28
f 177//29 178//29 179//29
f 178//29 177//29 180//29
f 181//30 182//30 183//30
f 184//30 183//30 182//30
f 185//31 186//31 187//31
f 186//31 185//31 188//31
f 189//32 190//32 191//32
f 192//32 191//32 190//32
f 193//33 194//33 195//33
f 194//33 193//33 196//33
f 197//34 198//34 199//34
f 200//34 199//34 198//34
f 201//35 202//35 203//35
f 202//35 201//35 204//35
f 205//36 206//36 207//36
f 208//36 207//36 206//36
f 209//37 210//37 211//37
f 210//37 209//37 212//37
f 213//38 214//38 215//38
f 216//38 215//38 214//38
f 217//4 218//4 219//4
f 218//4 217//4 220//4
f 221//3 222//3 223//3
f 224//3 223//3 222//3
f 225//6 226//6 227//6
f 226//6 225//6 228//6
f 229//5 230//5 231//5
f 232//5 231//5 230//5
f 233//8 234//8 235//8
f 234//8 233//8 236//8
f 237//7 238//7 239//7
f 240//7 239//7 238//7
f 241//10 242//10 243//10
f 242//10 241//10 244//10
f 245//9 246//9 247//9
f 248//9 247//9 246//9
f 249//12 250//12 251//12
f 250//12 249//12 252//12
f 253//11 254//11 255//11
f 256//11 255//11 254//11
f 257//14 258//14 259//14
f 258//14 257//14 260//14
f 261//13 262//13 263//13
f 264//13 263//13 262//13
f 265//16 266//16 267//16
f 266//16 265//16 268//16
f 269//15 270//15 271//15
f 272//15 271//15 270//15
f 273//18 274//18 275//18
f 274//18 273//18 276//18
f 277//17 278//17 279//17
f 280//17 279//17 278//17
f 281//20 282//20 283//20
f 282//20 281//20 284//20
f 285//19 286//19 287//19
f 288//19 287//19 286//19
f 289//22 290//22 291//22
f 290//22 289//22 292//22
f 293//21 294//21 295//21
f 296//21 295//21 294//21
f 297//24 298//24 299//24
f 298//24 297//24 300//24
f 301//23 302//23 303//23
f 304//23 303//23 302//23
f 305//26 306//26 307//26
f 306//26 305//26 308//26
f 309//25 310//25 311//25
f 312//25 311//25 310//25
f 313//28 314//28 315//28
f 314//28 313//28 316//28
f 317//27 318//27 319//27
f 320//27 319//27 318//27
f 321//30 322//30 323//30
f 322//30 321//30 324//30
f 325//29 326//29 327//29
f 328//29 327//29 326//29
f 329//32 330//32 331//32
f 330//32 329//32 332//32
f 333//31 334//31 335//31
f 336//31 335//31 334//31
f 337//34 338//34 339//34
f 338//34 337//34 340//34
f 341//33 342//33 343//33
f 344//33 343//33 342//33
f 345//36 346//36 347//36
f 346//36 345//36 348//36
f 349//35 350//35 351//35
f 352//35 351//35 350//35
f 353//38 354//38 355//38
f 354//38 353//38 356//38
f 357//37 358//37 359//37
f 360//37 359//37 358//37
f 361//2 362//2 363//2
f 362//2 361//2 364//2
f 362//2 364//2 365//2
f 365//2 364//2 366//2
f 365//2 366//2 367//2
f 367//2 366//2 368//2
f 367//2 368//2 369//2
f 369//2 368//2 370//2
f 369//2 370//2 371//2
f 371//2 370//2 372//2
f 371//2 372//2 373//2
f 373//2 372//2 374//2
f 373//2 374//2 375//2
f 375//2 374//2 376//2
f 375//2 376//2 377//2
f 377//2 376//2 378//2
f 377//2 378//2 379//2
f 379//2 378//2 380//2
f 379//2 380//2 381//2
f 381//2 380//2 382//2
f 381//2 382//2 383//2
f 383//2 382//2 384//2
f 383//2 384//2 385//2
f 385//2 384//2 386//2
f 385//2 386//2 387//2
f 387//2 386//2 388//2
f 387//2 388//2 389//2
f 389//2 388//2 390//2
f 389//2 390//2 391//2
f 391//2 390//2 392//2
f 391//2 392//2 393//2
f 393//2 392//2 394//2
f 393//2 394//2 395//2
f 395//2 394//2 396//2
f 397//1 398//1 399//1
f 399//1 398//1 400//1
f 398//1 401//1 400//1
f 400//1 401//1 402//1
f 401//1 403//1 402//1
f 402//1 403//1 404//1
f 403//1 405//1 404//1
f 404//1 405//1 406//1
f 405//1 407//1 406//1
f 406//1 407//1 408//1
f 407//1 409//1 408//1
f 408//1 409//1 410//1
f 409//1 411//1 410//1
f 410//1 411//1 412//1
f 411//1 413//1 412//1
f 412//1 413//1 414//1
f 413//1 415//1 414//1
f 414//1 415//1 416//1
f 415//1 417//1 416//1
f 416//1 417//1 418//1
f 417//1 419//1 418//1
f 418//1 419//1 420//1
f 419//1 421//1 420//1
f 420//1 421//1 422//1
f 421//1 423//1 422//1
f 422//1 423//1 424//1
f 423//1 425//1 424//1
f 424//1 425//1 426//1
f 425//1 427//1 426//1
f 426//1 427//1 428//1
f 427//1 429//1 428//1
f 428//1 429//1 430//1
f 429//1 431//1 430//1
f 432//1 430//1 431//1
