# SSTK version 0.8.0
# 11
mtllib original-11.mtl
o #ID76
v -0.216539 -0.040322 -0.866462
v -0.2278 -0.040751 -0.860003
v -0.216539 -0.040751 -0.860003
v -0.2278 -0.040322 -0.866462
v -0.2278 -0.040322 -0.866462
v -0.216539 -0.040322 -0.866462
v -0.2278 -0.040751 -0.860003
v -0.216539 -0.040751 -0.860003
v -0.2278 -0.043011 -0.853368
v -0.216539 -0.043011 -0.853368
v -0.2278 -0.043011 -0.853368
v -0.216539 -0.043011 -0.853368
v -0.216539 -0.093841 -0.864072
v -0.216539 -0.092516 -0.856661
v -0.216539 -0.093876 -0.863537
v -0.216539 -0.093411 -0.870531
v -0.216539 -0.091152 -0.877166
v -0.216539 -0.089421 -0.850371
v -0.216539 -0.087252 -0.88299
v -0.216539 -0.084805 -0.845097
v -0.216539 -0.081977 -0.887607
v -0.216539 -0.07898 -0.841197
v -0.216539 -0.075688 -0.890701
v -0.216539 -0.072345 -0.838937
v -0.216539 -0.068811 -0.892062
v -0.216539 -0.065351 -0.838472
v -0.216539 -0.061817 -0.891597
v -0.216539 -0.058475 -0.839833
v -0.216539 -0.055182 -0.889337
v -0.216539 -0.052185 -0.842927
v -0.216539 -0.049358 -0.885438
v -0.216539 -0.046911 -0.847544
v -0.216539 -0.044741 -0.880163
v -0.216539 -0.043011 -0.853368
v -0.216539 -0.041647 -0.873873
v -0.216539 -0.040751 -0.860003
v -0.216539 -0.040286 -0.866997
v -0.216539 -0.040322 -0.866462
v -0.216539 -0.040322 -0.866462
v -0.216539 -0.040286 -0.866997
v -0.216539 -0.040751 -0.860003
v -0.216539 -0.041647 -0.873873
v -0.216539 -0.043011 -0.853368
v -0.216539 -0.044741 -0.880163
v -0.216539 -0.046911 -0.847544
v -0.216539 -0.049358 -0.885438
v -0.216539 -0.052185 -0.842927
v -0.216539 -0.055182 -0.889337
v -0.216539 -0.058475 -0.839833
v -0.216539 -0.061817 -0.891597
v -0.216539 -0.065351 -0.838472
v -0.216539 -0.068811 -0.892062
v -0.216539 -0.072345 -0.838937
v -0.216539 -0.075688 -0.890701
v -0.216539 -0.07898 -0.841197
v -0.216539 -0.081977 -0.887607
v -0.216539 -0.084805 -0.845097
v -0.216539 -0.087252 -0.88299
v -0.216539 -0.089421 -0.850371
v -0.216539 -0.091152 -0.877166
v -0.216539 -0.092516 -0.856661
v -0.216539 -0.093411 -0.870531
v -0.216539 -0.093841 -0.864072
v -0.216539 -0.093876 -0.863537
v -0.216539 -0.040286 -0.866997
v -0.2278 -0.040322 -0.866462
v -0.216539 -0.040322 -0.866462
v -0.2278 -0.040286 -0.866997
v -0.2278 -0.040286 -0.866997
v -0.216539 -0.040286 -0.866997
v -0.2278 -0.040322 -0.866462
v -0.216539 -0.040322 -0.866462
v -0.2278 -0.046911 -0.847544
v -0.216539 -0.046911 -0.847544
v -0.2278 -0.046911 -0.847544
v -0.216539 -0.046911 -0.847544
v -0.2278 -0.061817 -0.891597
v -0.216539 -0.055182 -0.889337
v -0.216539 -0.061817 -0.891597
v -0.2278 -0.055182 -0.889337
v -0.2278 -0.055182 -0.889337
v -0.2278 -0.061817 -0.891597
v -0.216539 -0.055182 -0.889337
v -0.216539 -0.061817 -0.891597
v -0.216539 -0.049358 -0.885438
v -0.2278 -0.049358 -0.885438
v -0.2278 -0.049358 -0.885438
v -0.216539 -0.049358 -0.885438
v -0.2278 -0.044741 -0.880163
v -0.216539 -0.044741 -0.880163
v -0.2278 -0.044741 -0.880163
v -0.216539 -0.044741 -0.880163
v -0.2278 -0.041647 -0.873873
v -0.216539 -0.041647 -0.873873
v -0.2278 -0.041647 -0.873873
v -0.216539 -0.041647 -0.873873
v -0.216539 -0.052185 -0.842927
v -0.2278 -0.052185 -0.842927
v -0.2278 -0.052185 -0.842927
v -0.216539 -0.052185 -0.842927
v -0.216539 -0.058475 -0.839833
v -0.2278 -0.058475 -0.839833
v -0.2278 -0.058475 -0.839833
v -0.216539 -0.058475 -0.839833
v -0.216539 -0.065351 -0.838472
v -0.2278 -0.065351 -0.838472
v -0.2278 -0.065351 -0.838472
v -0.216539 -0.065351 -0.838472
v -0.216539 -0.072345 -0.838937
v -0.2278 -0.072345 -0.838937
v -0.2278 -0.072345 -0.838937
v -0.216539 -0.072345 -0.838937
v -0.216539 -0.07898 -0.841197
v -0.2278 -0.07898 -0.841197
v -0.2278 -0.07898 -0.841197
v -0.216539 -0.07898 -0.841197
v -0.216539 -0.084805 -0.845097
v -0.2278 -0.084805 -0.845097
v -0.2278 -0.084805 -0.845097
v -0.216539 -0.084805 -0.845097
v -0.2278 -0.089421 -0.850371
v -0.216539 -0.089421 -0.850371
v -0.216539 -0.089421 -0.850371
v -0.2278 -0.089421 -0.850371
v -0.2278 -0.092516 -0.856661
v -0.216539 -0.092516 -0.856661
v -0.216539 -0.092516 -0.856661
v -0.2278 -0.092516 -0.856661
v -0.2278 -0.093876 -0.863537
v -0.216539 -0.093876 -0.863537
v -0.216539 -0.093876 -0.863537
v -0.2278 -0.093876 -0.863537
v -0.2278 -0.093841 -0.864072
v -0.216539 -0.093841 -0.864072
v -0.216539 -0.093841 -0.864072
v -0.2278 -0.093841 -0.864072
v -0.2278 -0.093411 -0.870531
v -0.216539 -0.093841 -0.864072
v -0.2278 -0.093841 -0.864072
v -0.216539 -0.093411 -0.870531
v -0.216539 -0.093411 -0.870531
v -0.2278 -0.093411 -0.870531
v -0.216539 -0.093841 -0.864072
v -0.2278 -0.093841 -0.864072
v -0.2278 -0.091152 -0.877166
v -0.216539 -0.091152 -0.877166
v -0.216539 -0.091152 -0.877166
v -0.2278 -0.091152 -0.877166
v -0.2278 -0.087252 -0.88299
v -0.216539 -0.087252 -0.88299
v -0.216539 -0.087252 -0.88299
v -0.2278 -0.087252 -0.88299
v -0.216539 -0.081977 -0.887607
v -0.2278 -0.081977 -0.887607
v -0.2278 -0.081977 -0.887607
v -0.216539 -0.081977 -0.887607
v -0.216539 -0.075688 -0.890701
v -0.2278 -0.075688 -0.890701
v -0.2278 -0.075688 -0.890701
v -0.216539 -0.075688 -0.890701
v -0.216539 -0.068811 -0.892062
v -0.2278 -0.068811 -0.892062
v -0.2278 -0.068811 -0.892062
v -0.216539 -0.068811 -0.892062
vt -0.1619838 0.405969
vt -0.1648795 0.4043045
vt -0.1619838 0.4043045
vt -0.1648795 0.405969
vt -0.1619838 0.4009885
vt -0.1648795 0.3991861
vt -0.1619838 0.3991861
vt -0.1648795 0.4009885
vt 0.401777 0.05350851
vt 0.3998712 0.05384928
vt 0.4016394 0.05349936
vt 0.4034378 0.05361898
vt 0.405144 0.05420001
vt 0.3982539 0.05464491
vt 0.4066417 0.05520284
vt 0.3968976 0.05583203
vt 0.4078288 0.05655913
vt 0.3958948 0.05732973
vt 0.4086245 0.05817646
vt 0.3953137 0.05903595
vt 0.4089744 0.0599446
vt 0.3951941 0.06083441
vt 0.4088548 0.06174306
vt 0.395544 0.06260255
vt 0.4082737 0.06344928
vt 0.3963397 0.06421987
vt 0.4072709 0.06494698
vt 0.3975268 0.06557617
vt 0.4059146 0.06613409
vt 0.3990245 0.066579
vt 0.4042973 0.06692973
vt 0.4007307 0.06716002
vt 0.4025292 0.06727965
vt 0.4023915 0.0672705
vt -0.1619838 0.4061069
vt -0.1648795 0.4061069
vt -0.1619838 0.3686048
vt -0.1648795 0.3668023
vt -0.1619838 0.3668023
vt -0.1648795 0.3686048
vt 0.1648795 -0.07334983
vt 0.1619838 -0.0715474
vt 0.1619838 -0.07334983
vt 0.1648795 -0.0715474
vt 0.1648795 -0.1744314
vt 0.1619838 -0.172629
vt 0.1619838 -0.1744314
vt 0.1648795 -0.172629
vt 0.1619838 -0.2636872
vt 0.1648795 -0.2618848
vt 0.1619838 -0.2618848
vt 0.1648795 -0.2636872
vt 0.1619838 -0.3350346
vt 0.1648795 -0.3332321
vt 0.1619838 -0.3332321
vt 0.1648795 -0.3350346
vt 0.1619838 -0.3836113
vt 0.1648795 -0.3818088
vt 0.1619838 -0.3818088
vt 0.1648795 -0.3836113
vt -0.1648795 0.3111627
vt -0.1619838 0.3093602
vt -0.1619838 0.3111627
vt -0.1648795 0.3093602
vt -0.1648795 0.2325767
vt -0.1619838 0.2307743
vt -0.1619838 0.2325767
vt -0.1648795 0.2307743
vt -0.1648795 0.1382025
vt -0.1619838 0.1364001
vt -0.1619838 0.1382025
vt -0.1648795 0.1364001
vt -0.1648795 0.03447144
vt -0.1619838 0.032669
vt -0.1619838 0.03447144
vt -0.1648795 0.032669
vt -0.1648795 -0.0715474
vt -0.1619838 -0.07334983
vt -0.1619838 -0.0715474
vt -0.1648795 -0.07334983
vt -0.1648795 -0.172629
vt -0.1619838 -0.1744314
vt -0.1619838 -0.172629
vt -0.1648795 -0.1744314
vt -0.1648795 -0.2636872
vt -0.1619838 -0.2618848
vt -0.1648795 -0.2618848
vt -0.1619838 -0.2636872
vt -0.1648795 -0.3350346
vt -0.1619838 -0.3332321
vt -0.1648795 -0.3332321
vt -0.1619838 -0.3350346
vt -0.1648795 -0.3836113
vt -0.1619838 -0.3818088
vt -0.1648795 -0.3818088
vt -0.1619838 -0.3836113
vt 0.1648795 0.4044424
vt 0.1619838 0.4043045
vt 0.1648795 0.4043045
vt 0.1619838 0.4044424
vt 0.1648795 0.4061069
vt 0.1619838 0.4061069
vt 0.1648795 0.4009885
vt 0.1619838 0.3991861
vt 0.1648795 0.3991861
vt 0.1619838 0.4009885
vt 0.1648795 0.3686048
vt 0.1619838 0.3668023
vt 0.1648795 0.3668023
vt 0.1619838 0.3686048
vt 0.1648795 0.3093602
vt 0.1619838 0.3111627
vt 0.1619838 0.3093602
vt 0.1648795 0.3111627
vt 0.1648795 0.2307743
vt 0.1619838 0.2325767
vt 0.1619838 0.2307743
vt 0.1648795 0.2325767
vt 0.1648795 0.1364001
vt 0.1619838 0.1382025
vt 0.1619838 0.1364001
vt 0.1648795 0.1382025
vt 0.1648795 0.032669
vt 0.1619838 0.03447144
vt 0.1619838 0.032669
vt 0.1648795 0.03447144
vn 0.0 0.9977951139121276 0.06636950092538131
vn 0.0 0.9805958804347492 0.1960400960885277
vn 0.0 -0.9977951139121276 -0.06636950092538131
vn 0.0 -0.9805958804347492 -0.1960400960885277
vn 0.0 0.8964439729200372 0.4431570866130201
vn 0.0 -0.8964439729200372 -0.4431570866130201
vn 1.0 0.0 0.0
vn -1.0 0.0 0.0
vn 0.0 0.9979217970394674 -0.06443668980883581
vn 0.0 -0.9979217970394674 0.06443668980883581
vn 0.0 0.751200918938613 0.6600736166411921
vn 0.0 -0.751200918938613 -0.6600736166411921
vn 0.0 0.1960400960885277 -0.9805958804347492
vn 0.0 0.4431570866130201 -0.8964439729200372
vn 0.0 -0.4431570866130201 0.8964439729200372
vn 0.0 -0.1960400960885277 0.9805958804347492
vn 0.0 0.6600736166411921 -0.751200918938613
vn 0.0 -0.6600736166411921 0.751200918938613
vn 0.0 0.8320072918382665 -0.5547646945579303
vn 0.0 -0.8320072918382665 0.5547646945579303
vn 0.0 0.9472410034224575 -0.32052220115807234
vn 0.0 -0.9472410034224575 0.32052220115807234
vn 0.0 0.5547646945579303 0.8320072918382665
vn 0.0 -0.5547646945579303 -0.8320072918382665
vn 0.0 0.32052220115807234 0.9472410034224575
vn 0.0 -0.32052220115807234 -0.9472410034224575
vn 0.0 0.06443668980883581 0.9979217970394674
vn 0.0 -0.06443668980883581 -0.9979217970394674
usemtl material_0_0
f 1/1/1 2/2/2 3/3/2
f 2/2/2 1/1/1 4/4/1
f 5/4/3 6/1/3 7/2/4
f 8/3/4 7/2/4 6/1/3
f 3/5/2 9/6/5 10/7/5
f 9/6/5 3/5/2 2/8/2
f 7/8/4 8/5/4 11/6/6
f 12/7/6 11/6/6 8/5/4
f 13/9/7 14/10/7 15/11/7
f 14/10/7 13/9/7 16/12/7
f 14/10/7 16/12/7 17/13/7
f 14/10/7 17/13/7 18/14/7
f 18/14/7 17/13/7 19/15/7
f 18/14/7 19/15/7 20/16/7
f 20/16/7 19/15/7 21/17/7
f 20/16/7 21/17/7 22/18/7
f 22/18/7 21/17/7 23/19/7
f 22/18/7 23/19/7 24/20/7
f 24/20/7 23/19/7 25/21/7
f 24/20/7 25/21/7 26/22/7
f 26/22/7 25/21/7 27/23/7
f 26/22/7 27/23/7 28/24/7
f 28/24/7 27/23/7 29/25/7
f 28/24/7 29/25/7 30/26/7
f 30/26/7 29/25/7 31/27/7
f 30/26/7 31/27/7 32/28/7
f 32/28/7 31/27/7 33/29/7
f 32/28/7 33/29/7 34/30/7
f 34/30/7 33/29/7 35/31/7
f 34/30/7 35/31/7 36/32/7
f 36/32/7 35/31/7 37/33/7
f 36/32/7 37/33/7 38/34/7
f 39/34/8 40/33/8 41/32/8
f 40/33/8 42/31/8 41/32/8
f 41/32/8 42/31/8 43/30/8
f 42/31/8 44/29/8 43/30/8
f 43/30/8 44/29/8 45/28/8
f 44/29/8 46/27/8 45/28/8
f 45/28/8 46/27/8 47/26/8
f 46/27/8 48/25/8 47/26/8
f 47/26/8 48/25/8 49/24/8
f 48/25/8 50/23/8 49/24/8
f 49/24/8 50/23/8 51/22/8
f 50/23/8 52/21/8 51/22/8
f 51/22/8 52/21/8 53/20/8
f 52/21/8 54/19/8 53/20/8
f 53/20/8 54/19/8 55/18/8
f 54/19/8 56/17/8 55/18/8
f 55/18/8 56/17/8 57/16/8
f 56/17/8 58/15/8 57/16/8
f 57/16/8 58/15/8 59/14/8
f 58/15/8 60/13/8 59/14/8
f 59/14/8 60/13/8 61/10/8
f 60/13/8 62/12/8 61/10/8
f 62/12/8 63/9/8 61/10/8
f 64/11/8 61/10/8 63/9/8
f 65/35/9 66/4/1 67/1/1
f 66/4/1 65/35/9 68/36/9
f 69/36/10 70/35/10 71/4/3
f 72/1/3 71/4/3 70/35/10
f 10/37/5 73/38/11 74/39/11
f 73/38/11 10/37/5 9/40/5
f 11/40/6 12/37/6 75/38/12
f 76/39/12 75/38/12 12/37/6
f 77/41/13 78/42/14 79/43/13
f 78/42/14 77/41/13 80/44/14
f 81/44/15 82/41/16 83/42/15
f 84/43/16 83/42/15 82/41/16
f 80/45/14 85/46/17 78/47/14
f 85/46/17 80/45/14 86/48/17
f 87/48/18 81/45/15 88/46/18
f 83/47/15 88/46/18 81/45/15
f 85/49/17 89/50/19 90/51/19
f 89/50/19 85/49/17 86/52/17
f 87/52/18 88/49/18 91/50/20
f 92/51/20 91/50/20 88/49/18
f 90/53/19 93/54/21 94/55/21
f 93/54/21 90/53/19 89/56/19
f 91/56/20 92/53/20 95/54/22
f 96/55/22 95/54/22 92/53/20
f 94/57/21 68/58/9 65/59/9
f 68/58/9 94/57/21 93/60/21
f 95/60/22 96/57/22 69/58/10
f 70/59/10 69/58/10 96/57/22
f 73/61/11 97/62/23 74/63/11
f 97/62/23 73/61/11 98/64/23
f 99/64/24 75/61/12 100/62/24
f 76/63/12 100/62/24 75/61/12
f 98/65/23 101/66/25 97/67/23
f 101/66/25 98/65/23 102/68/25
f 103/68/26 99/65/24 104/66/26
f 100/67/24 104/66/26 99/65/24
f 102/69/25 105/70/27 101/71/25
f 105/70/27 102/69/25 106/72/27
f 107/72/28 103/69/26 108/70/28
f 104/71/26 108/70/28 103/69/26
f 106/73/27 109/74/16 105/75/27
f 109/74/16 106/73/27 110/76/16
f 111/76/13 107/73/28 112/74/13
f 108/75/28 112/74/13 107/73/28
f 110/77/16 113/78/15 109/79/16
f 113/78/15 110/77/16 114/80/15
f 115/80/14 111/77/13 116/78/14
f 112/79/13 116/78/14 111/77/13
f 114/81/15 117/82/18 113/83/15
f 117/82/18 114/81/15 118/84/18
f 119/84/17 115/81/14 120/82/17
f 116/83/14 120/82/17 115/81/14
f 121/85/20 117/86/18 118/87/18
f 117/86/18 121/85/20 122/88/20
f 123/88/19 124/85/19 120/86/17
f 119/87/17 120/86/17 124/85/19
f 125/89/22 122/90/20 121/91/20
f 122/90/20 125/89/22 126/92/22
f 127/92/21 128/89/21 123/90/19
f 124/91/19 123/90/19 128/89/21
f 129/93/10 126/94/22 125/95/22
f 126/94/22 129/93/10 130/96/10
f 131/96/9 132/93/9 127/94/21
f 128/95/21 127/94/21 132/93/9
f 133/97/3 130/98/10 129/99/10
f 130/98/10 133/97/3 134/100/3
f 135/100/1 136/97/1 131/98/9
f 132/99/9 131/98/9 136/97/1
f 137/101/4 138/100/3 139/97/3
f 138/100/3 137/101/4 140/102/4
f 141/102/2 142/101/2 143/100/1
f 144/97/1 143/100/1 142/101/2
f 145/103/6 140/104/4 137/105/4
f 140/104/4 145/103/6 146/106/6
f 147/106/5 148/103/5 141/104/2
f 142/105/2 141/104/2 148/103/5
f 149/107/12 146/108/6 145/109/6
f 146/108/6 149/107/12 150/110/12
f 151/110/11 152/107/11 147/108/5
f 148/109/5 147/108/5 152/107/11
f 149/111/12 153/112/24 150/113/12
f 153/112/24 149/111/12 154/114/24
f 155/114/23 152/111/11 156/112/23
f 151/113/11 156/112/23 152/111/11
f 154/115/24 157/116/26 153/117/24
f 157/116/26 154/115/24 158/118/26
f 159/118/25 155/115/23 160/116/25
f 156/117/23 160/116/25 155/115/23
f 158/119/26 161/120/28 157/121/26
f 161/120/28 158/119/26 162/122/28
f 163/122/27 159/119/25 164/120/27
f 160/121/25 164/120/27 159/119/25
f 162/123/28 79/124/13 161/125/28
f 79/124/13 162/123/28 77/126/13
f 82/126/16 163/123/27 84/124/16
f 164/125/27 84/124/16 163/123/27
