# SSTK version 0.8.0
# 33
mtllib original-33.mtl
o _7086_87_BC_c2/_7086_87_BC_c/mesh19/mesh19-geometry#mesh19-geometry
v 0.439229 0.570690 0.454226
v 0.432170 0.570690 0.454226
v 0.435700 0.571636 0.454226
v 0.441812 0.568107 0.454226
v 0.435700 0.571636 0.491580
v 0.439229 0.570690 0.490635
v 0.429587 0.568107 0.454226
v 0.432170 0.570690 0.490635
v 0.441058 0.568861 0.488806
v 0.442758 0.564577 0.454226
v 0.429587 0.568107 0.488603
v 0.430341 0.568861 0.488806
v 0.441812 0.568107 0.488603
v 0.428641 0.564577 0.454226
v 0.428641 0.564577 0.487658
v 0.442758 0.564577 0.487658
v 0.441812 0.561048 0.454226
v 0.429587 0.561048 0.454226
v 0.441812 0.561048 0.488603
v 0.439229 0.558465 0.454226
v 0.429587 0.561048 0.488603
v 0.441058 0.560294 0.488806
v 0.439229 0.558465 0.490635
v 0.432170 0.558465 0.454226
v 0.430341 0.560294 0.488806
v 0.435700 0.557519 0.491580
v 0.435700 0.557519 0.454226
v 0.432170 0.558465 0.490635
vt 0 -0.003999
vt -0.001999 -0.003463
vt 0.001999 -0.003463
vt 0.003463 -0.001999
vt 0 -0.001035
vt -0.021161 -0.001035
vt 0 0.001035
vt 0.020626 0.001035
vt 0.020626 -0.001035
vt -0.003463 -0.001999
vt -0.020626 0.001035
vt 0.021161 -0.001035
vt 0.019589 0.000431
vt 0.003999 0
vt -0.019475 0.001035
vt -0.020626 -0.001035
vt -0.019589 0.000431
vt 0.019475 0.001035
vt 0.019475 -0.001035
vt -0.003999 0
vt -0.019475 -0.001035
vt -0.018939 0.001035
vt 0.018939 0.001035
vt 0.003463 0.001999
vt 0.018939 -0.001035
vt -0.003463 0.001999
vt -0.018939 -0.001035
vt 0.001999 0.003463
vt 0.019589 -0.000431
vt -0.001999 0.003463
vt -0.019589 -0.000431
vt 0.021161 0.001035
vt 0 0.003999
vt -0.021161 0.001035
vn 0 0 -1
vn -0.5000001748438417 0.8660253028382762 0
vn 0 1 0
vn 0.5000001748438417 0.8660253028382762 0
vn 0.8660253028382762 0.5000001748438417 0
vn 0.7071067811865476 0.7071067811865476 0
vn -0.8660253028382762 0.5000001748438417 0
vn -0.7071067811865476 0.7071067811865476 0
vn 1 0 0
vn -1 0 0
vn 0.8660253028382762 -0.5000001748438417 0
vn -0.8660253028382762 -0.5000001748438417 0
vn 0.7071067811865476 -0.7071067811865476 0
vn 0.5000001748438417 -0.8660253028382762 0
vn -0.7071067811865476 -0.7071067811865476 0
vn 0 -1 0
vn -0.5000001748438417 -0.8660253028382762 0
vn 0 0 1
usemtl material_0_0
f 1//1 2//1 3//1
f 2//1 1//1 4//1
f 2//2 5//3 3//3
f 3//3 6//4 1//4
f 6//4 4//5 1//4
f 2//1 4//1 7//1
f 5//3 2//2 8//2
f 6//4 3//3 5//3
f 4//5 6//4 9//6
f 7//1 4//1 10//1
f 11//7 2//2 7//7
f 2//2 12//8 8//2
f 4//5 9//6 13//5
f 13//5 10//9 4//5
f 7//1 10//1 14//1
f 2//2 11//7 12//8
f 7//7 15//10 11//7
f 10//9 13//5 16//9
f 14//1 10//1 17//1
f 15//10 7//7 14//10
f 16//9 17//11 10//9
f 14//1 17//1 18//1
f 18//12 15//10 14//10
f 17//11 16//9 19//11
f 18//1 17//1 20//1
f 15//10 18//12 21//12
f 22//13 17//11 19//11
f 17//11 23//14 20//14
f 18//1 20//1 24//1
f 18//12 25//15 21//12
f 23//14 17//11 22//13
f 26//16 20//14 23//14
f 24//1 20//1 27//1
f 28//17 18//12 24//17
f 18//12 28//17 25//15
f 20//14 26//16 27//16
f 26//16 24//17 27//16
f 24//17 26//16 28//17
usemtl material_1_0
f 3/1/18 2/2/18 1/3/18
f 4/4/18 1/3/18 2/2/18
f 3/5/16 5/6/16 2/7/14
f 1/7/17 6/8/17 3/5/16
f 1/5/17 4/7/12 6/9/17
f 7/10/18 4/4/18 2/2/18
f 8/11/14 2/7/14 5/6/16
f 5/12/16 3/5/16 6/8/17
f 9/13/15 6/9/17 4/7/12
f 10/14/18 4/4/18 7/10/18
f 7/7/11 2/5/14 11/15/11
f 8/16/14 12/17/13 2/5/14
f 13/18/12 9/13/15 4/7/12
f 4/5/12 10/7/10 13/19/12
f 14/20/18 10/14/18 7/10/18
f 12/17/13 11/15/11 2/5/14
f 11/21/11 15/22/9 7/5/11
f 16/23/10 13/19/12 10/7/10
f 17/24/18 10/14/18 14/20/18
f 14/7/9 7/5/11 15/22/9
f 10/5/10 17/7/7 16/25/10
f 18/26/18 17/24/18 14/20/18
f 14/5/9 15/27/9 18/7/5
f 19/18/7 16/25/10 17/7/7
f 20/28/18 17/24/18 18/26/18
f 21/15/5 18/7/5 15/27/9
f 19/19/7 17/5/7 22/29/8
f 20/7/2 23/8/2 17/5/7
f 24/30/18 20/28/18 18/26/18
f 21/21/5 25/31/6 18/5/5
f 22/29/8 17/5/7 23/8/2
f 23/9/2 20/5/2 26/32/3
f 27/33/18 20/28/18 24/30/18
f 24/7/4 18/5/5 28/11/4
f 25/31/6 28/11/4 18/5/5
f 27/7/3 26/32/3 20/5/2
f 27/7/3 24/5/4 26/34/3
f 28/16/4 26/34/3 24/5/4
