# SSTK version 0.8.0
# 10
mtllib original-10.mtl
o Lower_ledger1/Lower_ledger/mesh10/mesh10-geometry#mesh10-geometry
v -0.622660 -0.033674 -0.309427
v -0.622660 -0.033674 -0.354587
v -0.622660 -0.045227 -0.309427
v -0.570147 -0.033674 -0.309427
v -0.622660 -0.045227 -0.354587
v -0.570147 -0.033674 -0.354587
v 0.595632 -0.045227 -0.354587
v -0.066026 -0.022122 -0.309427
v -0.570147 -0.022122 -0.354587
v 0.543119 -0.033674 -0.354587
v 0.595632 -0.045227 -0.309427
v -0.066026 -0.033674 -0.354587
v -0.066026 -0.033674 -0.309427
v -0.570147 -0.022122 -0.309427
v 0.038999 -0.033674 -0.354587
v 0.595632 -0.033674 -0.354587
v 0.595632 -0.033674 -0.309427
v 0.038999 -0.033674 -0.309427
v -0.066026 -0.022122 -0.354587
v 0.038999 -0.022122 -0.354587
v 0.543119 -0.033674 -0.309427
v 0.543119 -0.022122 -0.354587
v 0.543119 -0.022122 -0.309427
v 0.038999 -0.022122 -0.309427
vt -5.020299 -7.462695
vt -5.111247 -7.459625
vt -5.021088 -7.44142
vt -5.023968 -7.565611
vt -5.112037 -7.438349
vt -2.279675 -9.042205
vt -2.257813 -9.041437
vt -2.276088 -9.138911
vt -5.114917 -7.56254
vt -2.166864 -9.044508
vt -2.083639 -11.28808
vt -5.210621 -7.463116
vt -2.263512 -10.068053
vt -5.05168 -9.021022
vt -4.960732 -9.024093
vt -5.052488 -9.043664
vt -7.317338 -7.537124
vt -7.4175 -7.51934
vt -2.174588 -11.285009
vt -6.164606 -7.496629
vt -2.24165 -10.067285
vt -2.29795 -9.139679
vt -4.961539 -9.046734
vt -5.209832 -7.484391
vt -6.363353 -7.503611
vt -7.416711 -7.540615
vt -2.19645 -11.285777
vt -2.175395 -11.30765
vt -2.234475 -10.260697
vt -4.927101 -9.975109
vt -5.01805 -9.972038
vt -4.926294 -9.952468
vt -6.163817 -7.517904
vt -6.362563 -7.524886
vt -2.084446 -11.310721
vt -4.968882 -11.190778
vt -4.965651 -11.094498
vt -4.883797 -11.193482
vt -2.200037 -11.189071
vt -5.010875 -10.16545
vt -4.919926 -10.16852
vt -5.017242 -9.949397
vt -7.316548 -7.5584
vt -5.011682 -10.188091
vt -4.880566 -11.097202
vt -2.221899 -11.189839
vt -2.142001 -7.5834
vt -2.227085 -7.580696
vt -2.14129 -7.562219
vt -4.934629 -10.170213
vt -4.920734 -10.191162
vt -2.226375 -7.559514
vt -2.256337 -10.261465
vt -4.849544 -10.172917
vn -1 0 0
vn 0 1 0
vn 0 0 1
vn 0 -1 0
vn 0 0 -1
vn 1 0 0
usemtl material_0_0
f 1/1/1 2/2/1 3/3/1
f 1/1/2 4/4/2 2/2/2
f 5/5/1 3/3/1 2/2/1
f 1/6/3 3/7/3 4/8/3
f 6/9/2 2/2/2 4/4/2
f 5/10/4 7/11/4 3/7/4
f 2/2/5 6/12/5 5/5/5
f 4/8/3 3/7/3 8/13/3
f 6/14/1 4/15/1 9/16/1
f 5/5/5 10/17/5 7/18/5
f 11/19/4 3/7/4 7/11/4
f 6/12/5 12/20/5 5/5/5
f 8/13/3 3/7/3 13/21/3
f 4/8/3 8/13/3 14/22/3
f 14/23/1 9/16/1 4/15/1
f 9/24/5 12/20/5 6/12/5
f 15/25/5 10/17/5 5/5/5
f 16/26/5 7/18/5 10/17/5
f 11/19/3 17/27/3 3/7/3
f 11/19/6 7/11/6 17/28/6
f 12/20/5 15/25/5 5/5/5
f 13/21/3 3/7/3 18/29/3
f 13/30/6 12/31/6 8/32/6
f 14/23/2 8/30/2 9/16/2
f 19/33/5 12/20/5 9/24/5
f 20/34/5 10/17/5 15/25/5
f 16/35/6 17/28/6 7/11/6
f 16/36/2 10/37/2 17/38/2
f 21/39/3 3/7/3 17/27/3
f 15/40/2 12/31/2 18/41/2
f 18/29/3 3/7/3 21/39/3
f 13/30/2 18/41/2 12/31/2
f 19/42/6 8/32/6 12/31/6
f 19/31/2 9/16/2 8/30/2
f 22/43/5 10/17/5 20/34/5
f 15/40/1 18/41/1 20/44/1
f 21/45/2 17/38/2 10/37/2
f 23/46/3 18/29/3 21/39/3
f 22/47/6 23/48/6 10/49/6
f 22/37/2 20/50/2 23/45/2
f 24/51/1 20/44/1 18/41/1
f 21/52/6 10/49/6 23/48/6
f 18/29/3 23/46/3 24/53/3
f 24/54/2 23/45/2 20/50/2
usemtl material_1_0
f 3//6 2//6 1//6
f 2//4 4//4 1//4
f 2//6 3//6 5//6
f 4//5 3//5 1//5
f 4//4 2//4 6//4
f 3//2 7//2 5//2
f 5//3 6//3 2//3
f 8//5 3//5 4//5
f 9//6 4//6 6//6
f 7//3 10//3 5//3
f 7//2 3//2 11//2
f 5//3 12//3 6//3
f 13//5 3//5 8//5
f 14//5 8//5 4//5
f 4//6 9//6 14//6
f 6//3 12//3 9//3
f 5//3 10//3 15//3
f 10//3 7//3 16//3
f 3//5 17//5 11//5
f 17//1 7//1 11//1
f 5//3 15//3 12//3
f 18//5 3//5 13//5
f 8//1 12//1 13//1
f 9//4 8//4 14//4
f 9//3 12//3 19//3
f 15//3 10//3 20//3
f 7//1 17//1 16//1
f 17//4 10//4 16//4
f 17//5 3//5 21//5
f 18//4 12//4 15//4
f 21//5 3//5 18//5
f 12//4 18//4 13//4
f 12//1 8//1 19//1
f 8//4 9//4 19//4
f 20//3 10//3 22//3
f 20//6 18//6 15//6
f 10//4 17//4 21//4
f 21//5 18//5 23//5
f 10//1 23//1 22//1
f 23//4 20//4 22//4
f 18//6 20//6 24//6
f 23//1 10//1 21//1
f 24//5 23//5 18//5
f 20//4 23//4 24//4
