mtllib new-3.mtl
v 0.063651 -0.634253 -0.300234
v 0.062293 -0.623906 -0.212609
v 0.074927 -0.636700 -0.260397
v 0.043455 -0.595736 -0.184417
v 0.066748 -0.625689 -0.219277
v 0.051978 -0.587226 -0.180566
v 0.033260 -0.588936 -0.177605
v 0.066748 -0.625689 -0.301517
v 0.074225 -0.621450 -0.216180
v 0.072979 -0.620951 -0.214315
v 0.014067 -0.541136 -0.164781
v 0.074225 -0.621450 -0.304613
v 0.083020 -0.633290 -0.260397
v 0.062293 -0.623906 -0.308184
v 0.016674 -0.489220 -0.170476
v 0.188671 -0.620866 -0.214364
v 0.033260 -0.493336 -0.177605
v 0.072979 -0.620951 -0.306478
v 0.041085 -0.472937 -0.186788
v 0.033472 -0.541136 -0.168201
v 0.188671 -0.587168 -0.180666
v 0.051978 -0.495046 -0.180566
v 0.188671 -0.620866 -0.306429
v 0.188671 -0.633201 -0.260397
v 0.051978 -0.587226 -0.340227
v 0.043455 -0.486535 -0.184417
v 0.193352 -0.618834 -0.215538
v 0.193352 -0.630854 -0.260397
v 0.062293 -0.458365 -0.212609
v 0.033260 -0.493336 -0.343189
v 0.188671 -0.541136 -0.168332
v 0.188671 -0.495103 -0.180666
v 0.193352 -0.585995 -0.182699
v 0.193352 -0.618834 -0.305256
v 0.188671 -0.587168 -0.340127
v 0.033472 -0.541136 -0.352593
v 0.043455 -0.486535 -0.336376
v 0.072979 -0.461321 -0.214315
v 0.196138 -0.586879 -0.181168
v 0.196138 -0.632622 -0.260397
v 0.193352 -0.585995 -0.338095
v 0.196138 -0.620365 -0.306140
v 0.051978 -0.495046 -0.340227
v 0.062293 -0.458365 -0.308184
v 0.193352 -0.541136 -0.170679
v 0.193352 -0.496277 -0.182699
v 0.188671 -0.461405 -0.214364
v 0.196138 -0.620365 -0.214654
v 0.196138 -0.541136 -0.168911
v 0.196138 -0.586879 -0.339626
v 0.188671 -0.541136 -0.352462
v 0.063651 -0.448019 -0.300234
v 0.074225 -0.460822 -0.216180
v 0.222598 -0.614225 -0.218199
v 0.224488 -0.625025 -0.260397
v 0.222598 -0.614225 -0.302595
v 0.196138 -0.541136 -0.351882
v 0.193352 -0.541136 -0.350115
v 0.074927 -0.445571 -0.260397
v 0.188671 -0.495103 -0.340127
v 0.066748 -0.456582 -0.301517
v 0.072979 -0.461321 -0.306478
v 0.196138 -0.495393 -0.181168
v 0.193352 -0.463438 -0.215538
v 0.083020 -0.448982 -0.260397
v 0.193352 -0.496277 -0.338095
v 0.188671 -0.449071 -0.260397
v 0.188671 -0.461405 -0.306429
v 0.193352 -0.463438 -0.305256
v 0.074225 -0.460822 -0.304613
v 0.196138 -0.461907 -0.214654
v 0.193352 -0.451418 -0.260397
v 0.196138 -0.495393 -0.339626
v 0.196138 -0.461907 -0.306140
v 0.196138 -0.449650 -0.260397
vn 0.889949 -0.185316 -0.416712
vn -0.889949 0.185316 0.416712
vn 0.475548 -0.554426 0.682984
vn -0.475548 0.554426 -0.682984
vn 0.676952 -0.666142 0.313034
vn -0.676952 0.666142 -0.313034
vn 0.399672 -0.418010 0.815800
vn -0.399672 0.418010 -0.815800
vn 0.676952 -0.666142 -0.313034
vn -0.676952 0.666142 0.313034
vn 0.618413 -0.657796 0.429965
vn -0.618413 0.657796 -0.429965
vn 0.151952 -0.495695 0.855101
vn -0.151952 0.495695 -0.855101
vn 0.259433 -0.253074 0.932013
vn -0.259433 0.253074 -0.932013
vn 0.618413 -0.657796 -0.429965
vn -0.618413 0.657796 0.429965
vn 0.228540 -0.912923 0.338145
vn -0.228540 0.912923 -0.338145
vn 0.153737 -0.811797 0.563339
vn -0.153737 0.811797 -0.563339
vn 0.128347 0.000000 0.991729
vn -0.128347 0.000000 -0.991729
vn 0.228540 -0.912923 -0.338145
vn -0.228540 0.912923 0.338145
vn 0.188611 -0.938609 0.288859
vn -0.188611 0.938609 -0.288859
vn 0.475548 -0.554426 -0.682984
vn -0.475548 0.554426 0.682984
vn 0.466829 0.089035 0.879854
vn -0.466829 -0.089035 -0.879854
vn 0.231480 -0.842504 0.486420
vn -0.231480 0.842504 -0.486420
vn 0.259433 0.253074 0.932013
vn -0.259433 -0.253074 -0.932013
vn 0.188611 -0.938609 -0.288859
vn -0.188611 0.938609 0.288859
vn 0.153737 -0.811797 -0.563339
vn -0.153737 0.811797 0.563339
vn 0.641202 0.119788 0.757965
vn -0.641202 -0.119788 -0.757965
vn 0.088235 0.000000 0.996100
vn -0.088235 0.000000 -0.996100
vn 0.231480 -0.486420 0.842504
vn -0.231480 0.486420 -0.842504
vn 0.151952 0.495695 0.855101
vn -0.151952 -0.495695 -0.855101
vn 0.231480 -0.842504 -0.486420
vn -0.231480 0.842504 0.486420
vn 0.223995 -0.941382 0.252243
vn -0.223995 0.941382 -0.252243
vn 0.151952 -0.495695 -0.855101
vn -0.151952 0.495695 0.855101
vn 0.399672 0.418010 0.815800
vn -0.399672 -0.418010 -0.815800
vn 0.448202 -0.774168 0.446966
vn -0.448202 0.774168 -0.446966
vn 0.223995 -0.941382 -0.252243
vn -0.223995 0.941382 0.252243
vn 0.435873 -0.869341 0.232939
vn -0.435873 0.869341 -0.232939
vn 0.475548 0.554426 0.682984
vn -0.475548 -0.554426 -0.682984
vn 0.259433 0.253074 -0.932013
vn -0.259433 -0.253074 0.932013
vn 0.231480 0.000000 0.972840
vn -0.231480 0.000000 -0.972840
vn 0.231480 0.486420 0.842504
vn -0.231480 -0.486420 -0.842504
vn 0.448202 -0.446966 0.774168
vn -0.448202 0.446966 -0.774168
vn 0.448202 -0.774168 -0.446966
vn -0.448202 0.774168 0.446966
vn 0.231480 -0.486420 -0.842504
vn -0.231480 0.486420 0.842504
vn 0.435873 -0.869341 -0.232939
vn -0.435873 0.869341 0.232939
vn 0.088235 0.000000 -0.996100
vn -0.088235 0.000000 0.996100
vn 0.399672 0.418010 -0.815800
vn -0.399672 -0.418010 0.815800
vn 0.153737 0.811797 0.563339
vn -0.153737 -0.811797 -0.563339
vn -0.535769 -0.731241 0.422182
vn -0.535769 -0.422182 0.731241
vn 0.535769 0.422182 -0.731241
vn 0.535769 0.731241 -0.422182
vn -0.522562 -0.823550 0.220670
vn 0.522562 0.823550 -0.220670
vn 0.448202 -0.446966 -0.774168
vn -0.448202 0.446966 0.774168
vn -0.535769 -0.731241 -0.422182
vn -0.522562 -0.823550 -0.220670
vn 0.535769 0.731241 0.422182
vn 0.522562 0.823550 0.220670
vn 0.151952 0.495695 -0.855101
vn -0.151952 -0.495695 0.855101
vn 0.475548 0.554426 -0.682984
vn -0.475548 -0.554426 0.682984
vn 0.448202 0.000000 0.893932
vn -0.448202 0.000000 -0.893932
vn 0.448202 0.446966 0.774168
vn -0.448202 -0.446966 -0.774168
vn 0.231480 0.842504 0.486420
vn -0.231480 -0.842504 -0.486420
vn -0.535769 0.000000 0.844365
vn 0.535769 0.000000 -0.844365
vn -0.535769 -0.422182 -0.731241
vn 0.535769 0.422182 0.731241
vn 0.231480 0.000000 -0.972840
vn -0.231480 0.000000 0.972840
vn 0.889949 0.185316 -0.416712
vn -0.889949 -0.185316 0.416712
vn 0.228540 0.912923 0.338145
vn -0.228540 -0.912923 -0.338145
vn 0.258819 -0.836516 0.482963
vn -0.258819 0.836516 -0.482963
vn 0.258819 -0.965926 0.000000
vn -0.258819 0.965926 0.000000
vn 0.258819 -0.836516 -0.482963
vn -0.258819 0.836516 0.482963
vn -0.535769 0.000000 -0.844365
vn 0.535769 0.000000 0.844365
vn 0.448202 0.000000 -0.893932
vn -0.448202 0.000000 0.893932
vn 0.258819 -0.482963 -0.836516
vn -0.258819 0.482963 0.836516
vn 0.676952 0.666142 0.313034
vn -0.676952 -0.666142 -0.313034
vn 0.231480 0.486420 -0.842504
vn -0.231480 -0.486420 0.842504
vn 0.618413 0.657796 -0.429965
vn -0.618413 -0.657796 0.429965
vn 0.153737 0.811797 -0.563339
vn -0.153737 -0.811797 0.563339
vn -0.535769 0.422182 0.731241
vn 0.535769 -0.422182 -0.731241
vn 0.448202 0.774168 0.446966
vn -0.448202 -0.774168 -0.446966
vn 0.188611 0.938609 0.288859
vn -0.188611 -0.938609 -0.288859
vn 0.448202 0.446966 -0.774168
vn -0.448202 -0.446966 0.774168
vn 0.676952 0.666142 -0.313034
vn -0.676952 -0.666142 0.313034
vn -0.535769 0.731241 0.422182
vn 0.535769 -0.731241 -0.422182
vn 0.223995 0.941382 0.252243
vn -0.223995 -0.941382 -0.252243
vn -0.535769 0.422182 -0.731241
vn 0.535769 -0.422182 0.731241
vn 0.231480 0.842504 -0.486420
vn -0.231480 -0.842504 0.486420
vn 0.448202 0.774168 -0.446966
vn -0.448202 -0.774168 0.446966
vn 0.228540 0.912923 -0.338145
vn -0.228540 -0.912923 0.338145
vn 0.435873 0.869341 0.232939
vn -0.435873 -0.869341 -0.232939
vn 0.188611 0.938609 -0.288859
vn 0.223995 0.941382 -0.252243
vn -0.223995 -0.941382 0.252243
vn -0.188611 -0.938609 0.288859
vn -0.535769 0.731241 -0.422182
vn 0.535769 -0.731241 0.422182
vn 0.435873 0.869341 -0.232939
vn -0.435873 -0.869341 0.232939
vn -0.522562 0.823550 -0.220670
vn 0.522562 -0.823550 0.220670
vt 0.760457 0.165405
vt 0.756116 0.171130
vt 0.785332 0.164051
vt 0.730925 0.186717
vt 0.762074 0.170143
vt 0.735239 0.191426
vt 0.720894 0.190480
vt 0.765978 0.172489
vt 0.764312 0.172765
vt 0.702010 0.216928
vt 0.790987 0.165938
vt 0.706261 0.245653
vt 0.845186 0.172812
vt 0.720894 0.243376
vt 0.730280 0.254662
vt 0.717030 0.216928
vt 0.830811 0.191458
vt 0.735239 0.242430
vt 0.864823 0.165987
vt 0.730925 0.247139
vt 0.848958 0.173937
vt 0.868095 0.167286
vt 0.756116 0.262725
vt 0.825549 0.216928
vt 0.830811 0.242398
vt 0.834950 0.192107
vt 0.764312 0.261090
vt 0.836244 0.191618
vt 0.870042 0.166308
vt 0.850528 0.173090
vt 0.760457 0.268450
vt 0.829822 0.216928
vt 0.834950 0.241749
vt 0.845186 0.261043
vt 0.831015 0.216928
vt 0.762074 0.263712
vt 0.765978 0.261366
vt 0.870532 0.176487
vt 0.889555 0.173090
vt 0.906535 0.176487
vt 0.889854 0.170511
vt 0.785332 0.269804
vt 0.836244 0.242238
vt 0.848958 0.259919
vt 0.790987 0.267917
vt 0.864823 0.267868
vt 0.850528 0.260766
vt 0.868095 0.266569
vt 0.870042 0.267548
usemtl material-0
f 6/6/13 4/4/7 2/2/3
f 2/2/4 4/4/8 6/6/14
f 3/3/9 1/1/1 8/5/17
f 8/5/18 1/1/2 3/3/10
f 3/3/5 9/8/19 5/5/11
f 5/5/12 9/8/20 3/3/6
f 6/6/13 7/7/15 4/4/7
f 4/4/8 7/7/16 6/6/14
f 12/8/25 3/3/9 8/5/17
f 8/5/18 3/3/10 12/8/26
f 9/8/19 3/3/5 13/11/27
f 13/11/28 3/3/6 9/8/20
f 16/13/33 6/6/13 10/9/21
f 10/9/22 6/6/14 16/13/34
f 3/3/9 12/8/25 13/11/37
f 13/11/38 12/8/26 3/3/10
f 8/5/17 18/9/39 12/8/25
f 12/8/26 18/9/40 8/5/18
f 16/13/33 9/8/19 13/11/27
f 13/11/28 9/8/20 16/13/34
f 9/8/19 16/13/33 10/9/21
f 10/9/22 16/13/34 9/8/20
f 18/9/39 8/5/17 14/2/29
f 14/2/30 8/5/18 18/9/40
f 6/6/13 16/13/33 21/17/45
f 21/17/46 16/13/34 6/6/14
f 11/10/23 22/18/47 17/14/35
f 17/14/36 22/18/48 11/10/24
f 12/8/25 23/13/49 13/11/37
f 13/11/38 23/13/50 12/8/26
f 23/13/49 12/8/25 18/9/39
f 18/9/40 12/8/26 23/13/50
f 16/13/33 13/11/27 24/19/51
f 24/19/52 13/11/28 16/13/34
f 26/20/55 15/12/31 17/14/35
f 17/14/36 15/12/32 26/20/56
f 21/17/45 20/16/43 6/6/13
f 6/6/14 20/16/44 21/17/46
f 27/21/57 21/17/45 16/13/33
f 16/13/34 21/17/46 27/21/58
f 26/20/55 17/14/35 22/18/47
f 22/18/48 17/14/36 26/20/56
f 13/11/37 23/13/49 24/19/59
f 24/19/60 23/13/50 13/11/38
f 25/6/53 23/13/49 18/9/39
f 18/9/40 23/13/50 25/6/54
f 28/22/61 16/13/33 24/19/51
f 24/19/52 16/13/34 28/22/62
f 29/23/63 19/15/41 26/20/55
f 26/20/56 19/15/42 29/23/64
f 20/16/43 21/17/45 31/24/67
f 31/24/68 21/17/46 20/16/44
f 20/16/43 32/25/69 22/18/47
f 22/18/48 32/25/70 20/16/44
f 21/17/45 27/21/57 33/26/71
f 33/26/72 27/21/58 21/17/46
f 16/13/33 28/22/61 27/21/57
f 27/21/58 28/22/62 16/13/34
f 29/23/63 26/20/55 22/18/47
f 22/18/48 26/20/56 29/23/64
f 34/21/73 24/19/59 23/13/49
f 23/13/50 24/19/60 34/21/74
f 23/13/49 25/6/53 35/17/75
f 35/17/76 25/6/54 23/13/50
f 24/19/59 34/21/73 28/22/77
f 28/22/78 34/21/74 24/19/60
f 33/26/71 31/24/67 21/17/45
f 21/17/46 31/24/68 33/26/72
f 32/25/69 20/16/43 31/24/67
f 31/24/68 20/16/44 32/25/70
f 32/25/69 38/27/83 22/18/47
f 22/18/48 38/27/84 32/25/70
f 27/21/85 39/28/86 33/26/86
f 33/26/87 39/28/87 27/21/88
f 40/29/89 27/21/85 28/22/89
f 28/22/90 27/21/88 40/29/90
f 29/23/63 22/18/47 38/27/83
f 38/27/84 22/18/48 29/23/64
f 23/13/49 41/26/91 34/21/73
f 34/21/74 41/26/92 23/13/50
f 36/16/79 35/17/75 25/6/53
f 25/6/54 35/17/76 36/16/80
f 41/26/91 23/13/49 35/17/75
f 35/17/76 23/13/50 41/26/92
f 42/30/93 28/22/94 34/21/93
f 34/21/95 28/22/96 42/30/95
f 36/16/79 30/14/65 43/18/97
f 43/18/98 30/14/66 36/16/80
f 37/20/81 43/18/97 30/14/65
f 30/14/66 43/18/98 37/20/82
f 31/24/67 33/26/71 45/32/101
f 45/32/102 33/26/72 31/24/68
f 31/24/67 46/33/103 32/25/69
f 32/25/70 46/33/104 31/24/68
f 38/27/83 32/25/69 47/34/105
f 47/34/106 32/25/70 38/27/84
f 39/28/86 27/21/85 48/30/85
f 48/30/88 27/21/88 39/28/87
f 49/35/107 33/26/86 39/28/86
f 39/28/87 33/26/87 49/35/108
f 27/21/85 40/29/89 48/30/85
f 48/30/88 40/29/90 27/21/88
f 28/22/94 42/30/93 40/29/94
f 40/29/96 42/30/95 28/22/96
f 50/28/109 34/21/93 41/26/109
f 41/26/110 34/21/95 50/28/110
f 35/17/75 36/16/79 51/24/111
f 51/24/112 36/16/80 35/17/76
f 51/24/111 41/26/91 35/17/75
f 35/17/76 41/26/92 51/24/112
f 34/21/93 50/28/109 42/30/93
f 42/30/95 50/28/110 34/21/95
f 43/18/97 51/24/111 36/16/79
f 36/16/80 51/24/112 43/18/98
f 44/23/99 43/18/97 37/20/81
f 37/20/82 43/18/98 44/23/100
f 33/26/86 49/35/107 45/32/107
f 45/32/108 49/35/108 33/26/87
f 46/33/103 31/24/67 45/32/101
f 45/32/102 31/24/68 46/33/104
f 46/33/103 47/34/105 32/25/69
f 32/25/70 47/34/106 46/33/104
f 47/34/105 53/37/115 38/27/83
f 38/27/84 53/37/116 47/34/106
f 55/41/119 48/30/117 40/29/119
f 40/29/120 48/39/118 55/41/120
f 41/26/91 51/24/111 58/32/125
f 58/32/126 51/24/112 41/26/92
f 50/28/127 56/38/121 42/30/121
f 42/30/122 56/38/122 50/28/128
f 51/24/111 43/18/97 60/25/131
f 60/25/132 43/18/98 51/24/112
f 44/23/99 62/27/135 43/18/97
f 43/18/98 62/27/136 44/23/100
f 63/43/137 45/32/107 49/35/107
f 49/35/108 45/32/108 63/43/138
f 47/34/105 46/33/103 64/44/139
f 64/44/140 46/33/104 47/34/106
f 53/37/115 47/34/105 65/45/141
f 65/45/142 47/34/106 53/37/116
f 48/30/117 55/41/119 54/38/117
f 54/40/118 55/41/120 48/39/118
f 57/35/123 41/26/109 58/32/123
f 58/32/124 41/26/110 57/35/124
f 51/24/111 66/33/143 58/32/125
f 58/32/126 66/33/144 51/24/112
f 62/27/135 60/25/131 43/18/97
f 43/18/98 60/25/132 62/27/136
f 66/33/143 51/24/111 60/25/131
f 60/25/132 51/24/112 66/33/144
f 52/31/113 59/42/145 61/36/133
f 61/36/134 59/42/146 52/31/114
f 61/36/133 62/27/135 44/23/99
f 44/23/100 62/27/136 61/36/134
f 63/43/137 64/44/147 46/33/137
f 46/33/138 64/44/148 63/43/138
f 65/45/141 47/34/105 67/46/149
f 67/46/150 47/34/106 65/45/142
f 59/42/129 53/37/115 65/45/141
f 65/45/142 53/37/116 59/42/130
f 66/33/151 57/35/123 58/32/123
f 58/32/124 57/35/124 66/33/152
f 60/25/131 62/27/135 68/34/153
f 68/34/154 62/27/136 60/25/132
f 60/25/131 69/44/155 66/33/143
f 66/33/144 69/44/156 60/25/132
f 59/42/145 70/37/157 61/36/133
f 61/36/134 70/37/158 59/42/146
f 62/27/135 61/36/133 70/37/157
f 70/37/158 61/36/134 62/27/136
f 64/44/147 63/43/137 71/47/147
f 71/47/148 63/43/138 64/44/148
f 67/46/149 64/44/139 72/48/159
f 72/48/160 64/44/140 67/46/150
f 68/34/153 65/45/161 67/46/162
f 67/46/163 65/45/164 68/34/154
f 70/37/157 59/42/145 65/45/161
f 65/45/164 59/42/146 70/37/158
f 57/35/123 66/33/151 73/43/151
f 73/43/152 66/33/152 57/35/124
f 70/37/157 68/34/153 62/27/135
f 62/27/136 68/34/154 70/37/158
f 69/44/155 60/25/131 68/34/153
f 68/34/154 60/25/132 69/44/156
f 69/44/165 73/43/151 66/33/151
f 66/33/152 73/43/152 69/44/166
f 72/48/167 68/34/153 67/46/162
f 67/46/163 68/34/154 72/48/168
f 68/34/153 70/37/157 65/45/161
f 65/45/164 70/37/158 68/34/154
f 68/34/153 72/48/167 69/44/155
f 69/44/156 72/48/168 68/34/154
f 73/43/151 69/44/165 74/47/165
f 74/47/166 69/44/166 73/43/152
f 75/49/169 69/44/165 72/48/169
f 72/48/170 69/44/166 75/49/170
f 69/44/165 75/49/169 74/47/165
f 74/47/166 75/49/170 69/44/166