# SSTK version 0.8.0
# 25
mtllib original-25.mtl
o Component_2_19/Component_2_1_2/mesh5/mesh5-geometry#mesh5-geometry
v 0.006362 -0.250849 0.471868
v -0.002813 -0.295672 0.459857
v 0.019987 -0.295672 0.459857
v -0.002813 -0.250849 0.471868
v 0.019987 -0.289883 0.44588
v 0.006362 -0.249695 0.469082
v -0.002813 -0.289883 0.44588
v -0.002813 -0.249695 0.469082
vt 1 0
vt 0 1
vt 0 0.874079
vt 1 0.025091
vt 0.537838 1
vt 0.892829 0
vn 0.0 -0.2588189595935755 0.9659258492011171
vn 0.0 0.2588189595935755 -0.9659258492011171
vn -0.9588344669253424 -0.2623499853186153 -0.1086689939187674
vn 0.0 -0.5000001748438417 0.8660253028382761
vn 0.9588344669253424 0.2623499853186153 0.1086689939187674
vn 0.0 0.5000001748438417 -0.8660253028382761
usemtl material_0_0
f 1/1/1 2/2/1 3/2/1
f 2/2/1 1/1/1 4/1/1
usemtl material_1_0
f 3//2 2//2 1//2
f 4//2 1//2 2//2
f 3//3 1//3 5//3
f 6//3 5//3 1//3
f 5//4 6//4 7//4
f 8//4 7//4 6//4
usemtl material_2_0
f 5/3/5 1/4/5 3/5/5
f 1/4/5 5/3/5 6/6/5
f 7/3/6 6/6/6 5/3/6
f 6/6/6 7/3/6 8/6/6
