# SSTK version 0.8.0
# 9
mtllib original-9.mtl
o mesh1/mesh1-geometry/material_3#mesh1-geometry
v -0.587452 0.366107 -0.041540
v -0.587452 0.429720 -0.041540
v -0.582802 0.366107 -0.004467
v -0.582349 0.366107 -0.078554
v -0.582349 0.429720 -0.078554
v -0.587452 0.366107 -0.041540
v -0.582802 0.366107 -0.004467
v -0.582802 0.429720 -0.004467
v -0.568715 0.366107 0.030140
v -0.582802 0.429720 -0.004467
v -0.582802 0.366107 -0.004467
v -0.587452 0.429720 -0.041540
v -0.587452 0.429720 -0.041540
v -0.587452 0.366107 -0.041540
v -0.582349 0.429720 -0.078554
v -0.582349 0.429720 -0.078554
v -0.582349 0.366107 -0.078554
v -0.567840 0.429720 -0.112986
v -0.567840 0.366107 -0.112986
v -0.567840 0.429720 -0.112986
v -0.582349 0.366107 -0.078554
v -0.445201 0.366107 0.102460
v -0.482215 0.366107 0.097357
v -0.445201 0.429720 0.102460
v -0.408127 0.366107 0.097810
v -0.445201 0.366107 0.102460
v -0.408127 0.429720 0.097810
v -0.568715 0.366107 0.030140
v -0.568715 0.429720 0.030140
v -0.546150 0.366107 0.059921
v -0.568715 0.429720 0.030140
v -0.568715 0.366107 0.030140
v -0.582802 0.429720 -0.004467
v -0.587452 0.429720 -0.041540
v -0.582349 0.429720 -0.078554
v -0.582802 0.429720 -0.004467
v -0.567840 0.429720 -0.112986
v -0.568715 0.429720 0.030140
v -0.582349 0.429720 -0.078554
v -0.567840 0.429720 -0.112986
v -0.567840 0.366107 -0.112986
v -0.544913 0.429720 -0.142490
v -0.482215 0.366107 0.097357
v -0.516647 0.366107 0.082848
v -0.482215 0.429720 0.097357
v -0.482215 0.429720 0.097357
v -0.445201 0.429720 0.102460
v -0.482215 0.366107 0.097357
v -0.445201 0.429720 0.102460
v -0.408127 0.429720 0.097810
v -0.445201 0.366107 0.102460
v -0.373521 0.366107 0.083722
v -0.408127 0.366107 0.097810
v -0.373521 0.429720 0.083722
v -0.408127 0.429720 0.097810
v -0.373521 0.429720 0.083722
v -0.408127 0.366107 0.097810
v -0.516647 0.366107 0.082848
v -0.546150 0.366107 0.059921
v -0.516647 0.429720 0.082848
v -0.546150 0.429720 0.059921
v -0.546150 0.366107 0.059921
v -0.568715 0.429720 0.030140
v -0.568715 0.429720 0.030140
v -0.582802 0.429720 -0.004467
v -0.582349 0.429720 -0.078554
v -0.546150 0.429720 0.059921
v -0.568715 0.429720 0.030140
v -0.567840 0.429720 -0.112986
v -0.544913 0.366107 -0.142490
v -0.544913 0.429720 -0.142490
v -0.567840 0.366107 -0.112986
v -0.544913 0.429720 -0.142490
v -0.546150 0.429720 0.059921
v -0.567840 0.429720 -0.112986
v -0.343740 0.366107 0.061158
v -0.373521 0.366107 0.083722
v -0.343740 0.429720 0.061158
v -0.343740 0.366107 0.061158
v -0.343740 0.429720 0.061158
v -0.320813 0.366107 0.031655
v -0.516647 0.429720 0.082848
v -0.482215 0.429720 0.097357
v -0.516647 0.366107 0.082848
v -0.445201 0.429720 0.102460
v -0.482215 0.429720 0.097357
v -0.468699 0.429720 0.050295
v -0.408127 0.429720 0.097810
v -0.445201 0.429720 0.102460
v -0.444326 0.429720 0.053504
v -0.373521 0.429720 0.083722
v -0.343740 0.429720 0.061158
v -0.373521 0.366107 0.083722
v -0.373521 0.429720 0.083722
v -0.408127 0.429720 0.097810
v -0.397241 0.429720 0.040888
v -0.546150 0.429720 0.059921
v -0.516647 0.429720 0.082848
v -0.546150 0.366107 0.059921
v -0.544913 0.366107 -0.142490
v -0.515132 0.366107 -0.165054
v -0.544913 0.429720 -0.142490
v -0.538496 0.429720 -0.040666
v -0.546150 0.429720 0.059921
v -0.544913 0.429720 -0.142490
v -0.320813 0.366107 0.031655
v -0.320813 0.429720 0.031655
v -0.306304 0.366107 -0.002777
v -0.320813 0.429720 0.031655
v -0.320813 0.366107 0.031655
v -0.343740 0.429720 0.061158
v -0.482215 0.429720 0.097357
v -0.516647 0.429720 0.082848
v -0.510915 0.429720 0.025923
v -0.468699 0.429720 0.050295
v -0.482215 0.429720 0.097357
v -0.491411 0.429720 0.040888
v -0.444326 0.429720 0.053504
v -0.445201 0.429720 0.102460
v -0.468699 0.429720 0.050295
v -0.419953 0.429720 0.050295
v -0.408127 0.429720 0.097810
v -0.444326 0.429720 0.053504
v -0.343740 0.429720 0.061158
v -0.373521 0.429720 0.083722
v -0.362773 0.429720 0.006419
v -0.397241 0.429720 0.040888
v -0.408127 0.429720 0.097810
v -0.419953 0.429720 0.050295
v -0.377738 0.429720 0.025923
v -0.373521 0.429720 0.083722
v -0.397241 0.429720 0.040888
v -0.516647 0.429720 0.082848
v -0.546150 0.429720 0.059921
v -0.535288 0.429720 -0.016293
v -0.515132 0.429720 -0.165054
v -0.544913 0.429720 -0.142490
v -0.515132 0.366107 -0.165054
v -0.535288 0.429720 -0.016293
v -0.546150 0.429720 0.059921
v -0.538496 0.429720 -0.040666
v -0.538496 0.429720 -0.040666
v -0.544913 0.429720 -0.142490
v -0.535288 0.429720 -0.065039
v -0.306304 0.366107 -0.002777
v -0.306304 0.429720 -0.002777
v -0.301200 0.366107 -0.039791
v -0.306304 0.429720 -0.002777
v -0.306304 0.366107 -0.002777
v -0.320813 0.429720 0.031655
v -0.320813 0.429720 0.031655
v -0.343740 0.429720 0.061158
v -0.342503 0.429720 -0.141253
v -0.510915 0.429720 0.025923
v -0.516647 0.429720 0.082848
v -0.525880 0.429720 0.006419
v -0.491411 0.429720 0.040888
v -0.482215 0.429720 0.097357
v -0.510915 0.429720 0.025923
v -0.362773 0.429720 0.006419
v -0.373521 0.429720 0.083722
v -0.377738 0.429720 0.025923
v -0.353365 0.429720 -0.016293
v -0.343740 0.429720 0.061158
v -0.362773 0.429720 0.006419
v -0.525880 0.429720 0.006419
v -0.516647 0.429720 0.082848
v -0.535288 0.429720 -0.016293
v -0.515132 0.429720 -0.165054
v -0.535288 0.429720 -0.065039
v -0.544913 0.429720 -0.142490
v -0.515132 0.366107 -0.165054
v -0.480525 0.366107 -0.179141
v -0.515132 0.429720 -0.165054
v -0.301200 0.429720 -0.039791
v -0.301200 0.366107 -0.039791
v -0.306304 0.429720 -0.002777
v -0.306304 0.429720 -0.002777
v -0.320813 0.429720 0.031655
v -0.319938 0.429720 -0.111471
v -0.343740 0.429720 0.061158
v -0.350156 0.429720 -0.040666
v -0.342503 0.429720 -0.141253
v -0.319938 0.429720 -0.111471
v -0.320813 0.429720 0.031655
v -0.342503 0.429720 -0.141253
v -0.350156 0.429720 -0.040666
v -0.343740 0.429720 0.061158
v -0.353365 0.429720 -0.016293
v -0.301200 0.366107 -0.039791
v -0.301200 0.429720 -0.039791
v -0.305851 0.366107 -0.076865
v -0.525880 0.429720 -0.087751
v -0.535288 0.429720 -0.065039
v -0.515132 0.429720 -0.165054
v -0.480525 0.429720 -0.179141
v -0.515132 0.429720 -0.165054
v -0.480525 0.366107 -0.179141
v -0.480525 0.366107 -0.179141
v -0.443452 0.366107 -0.183792
v -0.480525 0.429720 -0.179141
v -0.301200 0.429720 -0.039791
v -0.306304 0.429720 -0.002777
v -0.305851 0.429720 -0.076865
v -0.305851 0.429720 -0.076865
v -0.306304 0.429720 -0.002777
v -0.319938 0.429720 -0.111471
v -0.350156 0.429720 -0.040666
v -0.353365 0.429720 -0.065039
v -0.342503 0.429720 -0.141253
v -0.342503 0.429720 -0.141253
v -0.342503 0.366107 -0.141253
v -0.319938 0.429720 -0.111471
v -0.305851 0.366107 -0.076865
v -0.305851 0.429720 -0.076865
v -0.319938 0.366107 -0.111471
v -0.305851 0.429720 -0.076865
v -0.305851 0.366107 -0.076865
v -0.301200 0.429720 -0.039791
v -0.510915 0.429720 -0.107254
v -0.525880 0.429720 -0.087751
v -0.515132 0.429720 -0.165054
v -0.480525 0.429720 -0.179141
v -0.510915 0.429720 -0.107254
v -0.515132 0.429720 -0.165054
v -0.443452 0.429720 -0.183792
v -0.480525 0.429720 -0.179141
v -0.443452 0.366107 -0.183792
v -0.319938 0.429720 -0.111471
v -0.319938 0.366107 -0.111471
v -0.305851 0.429720 -0.076865
v -0.353365 0.429720 -0.065039
v -0.362773 0.429720 -0.087751
v -0.342503 0.429720 -0.141253
v -0.319938 0.366107 -0.111471
v -0.319938 0.429720 -0.111471
v -0.342503 0.366107 -0.141253
v -0.342503 0.429720 -0.141253
v -0.372006 0.429720 -0.164179
v -0.342503 0.366107 -0.141253
v -0.491411 0.429720 -0.122219
v -0.510915 0.429720 -0.107254
v -0.480525 0.429720 -0.179141
v -0.443452 0.429720 -0.183792
v -0.468699 0.429720 -0.131627
v -0.480525 0.429720 -0.179141
v -0.443452 0.366107 -0.183792
v -0.406438 0.366107 -0.178689
v -0.443452 0.429720 -0.183792
v -0.342503 0.429720 -0.141253
v -0.362773 0.429720 -0.087751
v -0.372006 0.429720 -0.164179
v -0.372006 0.366107 -0.164179
v -0.342503 0.366107 -0.141253
v -0.372006 0.429720 -0.164179
v -0.468699 0.429720 -0.131627
v -0.491411 0.429720 -0.122219
v -0.480525 0.429720 -0.179141
v -0.444326 0.429720 -0.134836
v -0.468699 0.429720 -0.131627
v -0.443452 0.429720 -0.183792
v -0.406438 0.429720 -0.178689
v -0.443452 0.429720 -0.183792
v -0.406438 0.366107 -0.178689
v -0.406438 0.366107 -0.178689
v -0.372006 0.366107 -0.164179
v -0.406438 0.429720 -0.178689
v -0.362773 0.429720 -0.087751
v -0.377738 0.429720 -0.107254
v -0.372006 0.429720 -0.164179
v -0.372006 0.429720 -0.164179
v -0.406438 0.429720 -0.178689
v -0.372006 0.366107 -0.164179
v -0.419953 0.429720 -0.131627
v -0.444326 0.429720 -0.134836
v -0.443452 0.429720 -0.183792
v -0.406438 0.429720 -0.178689
v -0.419953 0.429720 -0.131627
v -0.443452 0.429720 -0.183792
v -0.377738 0.429720 -0.107254
v -0.397241 0.429720 -0.122219
v -0.372006 0.429720 -0.164179
v -0.372006 0.429720 -0.164179
v -0.397241 0.429720 -0.122219
v -0.406438 0.429720 -0.178689
v -0.397241 0.429720 -0.122219
v -0.419953 0.429720 -0.131627
v -0.406438 0.429720 -0.178689
v -0.582802 0.366107 -0.004467
v -0.587452 0.429720 -0.041540
v -0.587452 0.366107 -0.041540
v -0.587452 0.366107 -0.041540
v -0.582349 0.429720 -0.078554
v -0.582349 0.366107 -0.078554
v -0.568715 0.366107 0.030140
v -0.582802 0.429720 -0.004467
v -0.582802 0.366107 -0.004467
v -0.587452 0.429720 -0.041540
v -0.582802 0.366107 -0.004467
v -0.582802 0.429720 -0.004467
v -0.582349 0.429720 -0.078554
v -0.587452 0.366107 -0.041540
v -0.587452 0.429720 -0.041540
v -0.567840 0.429720 -0.112986
v -0.582349 0.366107 -0.078554
v -0.582349 0.429720 -0.078554
v -0.582349 0.366107 -0.078554
v -0.567840 0.429720 -0.112986
v -0.567840 0.366107 -0.112986
v -0.445201 0.429720 0.102460
v -0.482215 0.366107 0.097357
v -0.445201 0.366107 0.102460
v -0.408127 0.429720 0.097810
v -0.445201 0.366107 0.102460
v -0.408127 0.366107 0.097810
v -0.546150 0.366107 0.059921
v -0.568715 0.429720 0.030140
v -0.568715 0.366107 0.030140
v -0.582802 0.429720 -0.004467
v -0.568715 0.366107 0.030140
v -0.568715 0.429720 0.030140
v -0.582802 0.429720 -0.004467
v -0.582349 0.429720 -0.078554
v -0.587452 0.429720 -0.041540
v -0.582349 0.429720 -0.078554
v -0.568715 0.429720 0.030140
v -0.567840 0.429720 -0.112986
v -0.544913 0.429720 -0.142490
v -0.567840 0.366107 -0.112986
v -0.567840 0.429720 -0.112986
v -0.482215 0.429720 0.097357
v -0.516647 0.366107 0.082848
v -0.482215 0.366107 0.097357
v -0.482215 0.366107 0.097357
v -0.445201 0.429720 0.102460
v -0.482215 0.429720 0.097357
v -0.445201 0.366107 0.102460
v -0.408127 0.429720 0.097810
v -0.445201 0.429720 0.102460
v -0.373521 0.429720 0.083722
v -0.408127 0.366107 0.097810
v -0.373521 0.366107 0.083722
v -0.408127 0.366107 0.097810
v -0.373521 0.429720 0.083722
v -0.408127 0.429720 0.097810
v -0.516647 0.429720 0.082848
v -0.546150 0.366107 0.059921
v -0.516647 0.366107 0.082848
v -0.568715 0.429720 0.030140
v -0.546150 0.366107 0.059921
v -0.546150 0.429720 0.059921
v -0.582349 0.429720 -0.078554
v -0.582802 0.429720 -0.004467
v -0.568715 0.429720 0.030140
v -0.567840 0.429720 -0.112986
v -0.568715 0.429720 0.030140
v -0.546150 0.429720 0.059921
v -0.567840 0.366107 -0.112986
v -0.544913 0.429720 -0.142490
v -0.544913 0.366107 -0.142490
v -0.567840 0.429720 -0.112986
v -0.546150 0.429720 0.059921
v -0.544913 0.429720 -0.142490
v -0.343740 0.429720 0.061158
v -0.373521 0.366107 0.083722
v -0.343740 0.366107 0.061158
v -0.320813 0.366107 0.031655
v -0.343740 0.429720 0.061158
v -0.343740 0.366107 0.061158
v -0.516647 0.366107 0.082848
v -0.482215 0.429720 0.097357
v -0.516647 0.429720 0.082848
v -0.468699 0.429720 0.050295
v -0.482215 0.429720 0.097357
v -0.445201 0.429720 0.102460
v -0.444326 0.429720 0.053504
v -0.445201 0.429720 0.102460
v -0.408127 0.429720 0.097810
v -0.373521 0.366107 0.083722
v -0.343740 0.429720 0.061158
v -0.373521 0.429720 0.083722
v -0.397241 0.429720 0.040888
v -0.408127 0.429720 0.097810
v -0.373521 0.429720 0.083722
v -0.546150 0.366107 0.059921
v -0.516647 0.429720 0.082848
v -0.546150 0.429720 0.059921
v -0.544913 0.429720 -0.142490
v -0.515132 0.366107 -0.165054
v -0.544913 0.366107 -0.142490
v -0.544913 0.429720 -0.142490
v -0.546150 0.429720 0.059921
v -0.538496 0.429720 -0.040666
v -0.306304 0.366107 -0.002777
v -0.320813 0.429720 0.031655
v -0.320813 0.366107 0.031655
v -0.343740 0.429720 0.061158
v -0.320813 0.366107 0.031655
v -0.320813 0.429720 0.031655
v -0.510915 0.429720 0.025923
v -0.516647 0.429720 0.082848
v -0.482215 0.429720 0.097357
v -0.491411 0.429720 0.040888
v -0.482215 0.429720 0.097357
v -0.468699 0.429720 0.050295
v -0.468699 0.429720 0.050295
v -0.445201 0.429720 0.102460
v -0.444326 0.429720 0.053504
v -0.444326 0.429720 0.053504
v -0.408127 0.429720 0.097810
v -0.419953 0.429720 0.050295
v -0.362773 0.429720 0.006419
v -0.373521 0.429720 0.083722
v -0.343740 0.429720 0.061158
v -0.419953 0.429720 0.050295
v -0.408127 0.429720 0.097810
v -0.397241 0.429720 0.040888
v -0.397241 0.429720 0.040888
v -0.373521 0.429720 0.083722
v -0.377738 0.429720 0.025923
v -0.535288 0.429720 -0.016293
v -0.546150 0.429720 0.059921
v -0.516647 0.429720 0.082848
v -0.515132 0.366107 -0.165054
v -0.544913 0.429720 -0.142490
v -0.515132 0.429720 -0.165054
v -0.538496 0.429720 -0.040666
v -0.546150 0.429720 0.059921
v -0.535288 0.429720 -0.016293
v -0.535288 0.429720 -0.065039
v -0.544913 0.429720 -0.142490
v -0.538496 0.429720 -0.040666
v -0.301200 0.366107 -0.039791
v -0.306304 0.429720 -0.002777
v -0.306304 0.366107 -0.002777
v -0.320813 0.429720 0.031655
v -0.306304 0.366107 -0.002777
v -0.306304 0.429720 -0.002777
v -0.342503 0.429720 -0.141253
v -0.343740 0.429720 0.061158
v -0.320813 0.429720 0.031655
v -0.525880 0.429720 0.006419
v -0.516647 0.429720 0.082848
v -0.510915 0.429720 0.025923
v -0.510915 0.429720 0.025923
v -0.482215 0.429720 0.097357
v -0.491411 0.429720 0.040888
v -0.377738 0.429720 0.025923
v -0.373521 0.429720 0.083722
v -0.362773 0.429720 0.006419
v -0.362773 0.429720 0.006419
v -0.343740 0.429720 0.061158
v -0.353365 0.429720 -0.016293
v -0.535288 0.429720 -0.016293
v -0.516647 0.429720 0.082848
v -0.525880 0.429720 0.006419
v -0.544913 0.429720 -0.142490
v -0.535288 0.429720 -0.065039
v -0.515132 0.429720 -0.165054
v -0.515132 0.429720 -0.165054
v -0.480525 0.366107 -0.179141
v -0.515132 0.366107 -0.165054
v -0.306304 0.429720 -0.002777
v -0.301200 0.366107 -0.039791
v -0.301200 0.429720 -0.039791
v -0.319938 0.429720 -0.111471
v -0.320813 0.429720 0.031655
v -0.306304 0.429720 -0.002777
v -0.342503 0.429720 -0.141253
v -0.350156 0.429720 -0.040666
v -0.343740 0.429720 0.061158
v -0.342503 0.429720 -0.141253
v -0.320813 0.429720 0.031655
v -0.319938 0.429720 -0.111471
v -0.353365 0.429720 -0.016293
v -0.343740 0.429720 0.061158
v -0.350156 0.429720 -0.040666
v -0.305851 0.366107 -0.076865
v -0.301200 0.429720 -0.039791
v -0.301200 0.366107 -0.039791
v -0.515132 0.429720 -0.165054
v -0.535288 0.429720 -0.065039
v -0.525880 0.429720 -0.087751
v -0.480525 0.366107 -0.179141
v -0.515132 0.429720 -0.165054
v -0.480525 0.429720 -0.179141
v -0.480525 0.429720 -0.179141
v -0.443452 0.366107 -0.183792
v -0.480525 0.366107 -0.179141
v -0.305851 0.429720 -0.076865
v -0.306304 0.429720 -0.002777
v -0.301200 0.429720 -0.039791
v -0.319938 0.429720 -0.111471
v -0.306304 0.429720 -0.002777
v -0.305851 0.429720 -0.076865
v -0.342503 0.429720 -0.141253
v -0.353365 0.429720 -0.065039
v -0.350156 0.429720 -0.040666
v -0.319938 0.429720 -0.111471
v -0.342503 0.366107 -0.141253
v -0.342503 0.429720 -0.141253
v -0.319938 0.366107 -0.111471
v -0.305851 0.429720 -0.076865
v -0.305851 0.366107 -0.076865
v -0.301200 0.429720 -0.039791
v -0.305851 0.366107 -0.076865
v -0.305851 0.429720 -0.076865
v -0.515132 0.429720 -0.165054
v -0.525880 0.429720 -0.087751
v -0.510915 0.429720 -0.107254
v -0.515132 0.429720 -0.165054
v -0.510915 0.429720 -0.107254
v -0.480525 0.429720 -0.179141
v -0.443452 0.366107 -0.183792
v -0.480525 0.429720 -0.179141
v -0.443452 0.429720 -0.183792
v -0.305851 0.429720 -0.076865
v -0.319938 0.366107 -0.111471
v -0.319938 0.429720 -0.111471
v -0.342503 0.429720 -0.141253
v -0.362773 0.429720 -0.087751
v -0.353365 0.429720 -0.065039
v -0.342503 0.366107 -0.141253
v -0.319938 0.429720 -0.111471
v -0.319938 0.366107 -0.111471
v -0.342503 0.366107 -0.141253
v -0.372006 0.429720 -0.164179
v -0.342503 0.429720 -0.141253
v -0.480525 0.429720 -0.179141
v -0.510915 0.429720 -0.107254
v -0.491411 0.429720 -0.122219
v -0.480525 0.429720 -0.179141
v -0.468699 0.429720 -0.131627
v -0.443452 0.429720 -0.183792
v -0.443452 0.429720 -0.183792
v -0.406438 0.366107 -0.178689
v -0.443452 0.366107 -0.183792
v -0.372006 0.429720 -0.164179
v -0.362773 0.429720 -0.087751
v -0.342503 0.429720 -0.141253
v -0.372006 0.429720 -0.164179
v -0.342503 0.366107 -0.141253
v -0.372006 0.366107 -0.164179
v -0.480525 0.429720 -0.179141
v -0.491411 0.429720 -0.122219
v -0.468699 0.429720 -0.131627
v -0.443452 0.429720 -0.183792
v -0.468699 0.429720 -0.131627
v -0.444326 0.429720 -0.134836
v -0.406438 0.366107 -0.178689
v -0.443452 0.429720 -0.183792
v -0.406438 0.429720 -0.178689
v -0.406438 0.429720 -0.178689
v -0.372006 0.366107 -0.164179
v -0.406438 0.366107 -0.178689
v -0.372006 0.429720 -0.164179
v -0.377738 0.429720 -0.107254
v -0.362773 0.429720 -0.087751
v -0.372006 0.366107 -0.164179
v -0.406438 0.429720 -0.178689
v -0.372006 0.429720 -0.164179
v -0.443452 0.429720 -0.183792
v -0.444326 0.429720 -0.134836
v -0.419953 0.429720 -0.131627
v -0.443452 0.429720 -0.183792
v -0.419953 0.429720 -0.131627
v -0.406438 0.429720 -0.178689
v -0.372006 0.429720 -0.164179
v -0.397241 0.429720 -0.122219
v -0.377738 0.429720 -0.107254
v -0.406438 0.429720 -0.178689
v -0.397241 0.429720 -0.122219
v -0.372006 0.429720 -0.164179
v -0.406438 0.429720 -0.178689
v -0.419953 0.429720 -0.131627
v -0.397241 0.429720 -0.122219
vt 0 0
vn 0.9999813276512018 0 0.006111002286018112
vn 0.967489265205592 0 -0.2529120829694458
vn 0.964326131359085 0 0.2647170420997126
vn 0.8690645291359255 0 -0.4946987408491679
vn 0.8629537833384163 0 0.5052828592203713
vn 0.006111002286018112 0 -0.9999813276512018
vn 0.2647170420997126 0 -0.964326131359085
vn -0.2529120829694458 0 -0.967489265205592
vn 0.7114140846003336 0 -0.7027730787617503
vn 0 -1 0
vn 0.7027730787617503 0 0.7114140846003336
vn 0.5052828592203713 0 -0.8629537833384163
vn -0.4946987408491679 0 -0.8690645291359255
vn -0.7027730787617503 0 -0.7114140846003336
vn -0.8629537833384163 0 -0.5052828592203713
vn 0.4946987408491679 0 0.8690645291359255
vn -0.964326131359085 0 -0.2647170420997126
vn -0.9999813276512018 0 -0.006111002286018112
vn 0.2529120829694458 0 0.967489265205592
vn -0.967489265205592 0 0.2529120829694458
vn -0.006111002286018112 0 0.9999813276512018
vn -0.7114140846003336 0 0.7027730787617503
vn -0.8690645291359255 0 0.4946987408491679
vn -0.5052828592203713 0 0.8629537833384163
vn -0.2647170420997126 0 0.964326131359085
vn 0 1 0
usemtl material_0_0
f 1/1/1 2/1/1 3/1/2
f 4/1/3 5/1/3 6/1/1
f 7/1/2 8/1/2 9/1/4
f 10/1/2 11/1/2 12/1/1
f 13/1/1 14/1/1 15/1/3
f 16/1/3 17/1/3 18/1/5
f 19/1/5 20/1/5 21/1/3
f 22/1/6 23/1/7 24/1/6
f 25/1/8 26/1/6 27/1/8
f 28/1/4 29/1/4 30/1/9
f 31/1/4 32/1/4 33/1/2
f 34/1/10 35/1/10 36/1/10
f 37/1/10 38/1/10 39/1/10
f 40/1/5 41/1/5 42/1/11
f 43/1/7 44/1/12 45/1/7
f 46/1/7 47/1/6 48/1/7
f 49/1/6 50/1/8 51/1/6
f 52/1/13 53/1/8 54/1/13
f 55/1/8 56/1/13 57/1/8
f 58/1/12 59/1/9 60/1/12
f 61/1/9 62/1/9 63/1/4
f 64/1/10 65/1/10 66/1/10
f 67/1/10 68/1/10 69/1/10
f 70/1/11 71/1/11 72/1/5
f 73/1/10 74/1/10 75/1/10
f 76/1/14 77/1/13 78/1/14
f 79/1/14 80/1/14 81/1/15
f 82/1/12 83/1/7 84/1/12
f 85/1/10 86/1/10 87/1/10
f 88/1/10 89/1/10 90/1/10
f 91/1/13 92/1/14 93/1/13
f 94/1/10 95/1/10 96/1/10
f 97/1/9 98/1/12 99/1/9
f 100/1/11 101/1/16 102/1/11
f 103/1/10 104/1/10 105/1/10
f 106/1/15 107/1/15 108/1/17
f 109/1/15 110/1/15 111/1/14
f 112/1/10 113/1/10 114/1/10
f 115/1/10 116/1/10 117/1/10
f 118/1/10 119/1/10 120/1/10
f 121/1/10 122/1/10 123/1/10
f 124/1/10 125/1/10 126/1/10
f 127/1/10 128/1/10 129/1/10
f 130/1/10 131/1/10 132/1/10
f 133/1/10 134/1/10 135/1/10
f 136/1/16 137/1/11 138/1/16
f 139/1/10 140/1/10 141/1/10
f 142/1/10 143/1/10 144/1/10
f 145/1/17 146/1/17 147/1/18
f 148/1/17 149/1/17 150/1/15
f 151/1/10 152/1/10 153/1/10
f 154/1/10 155/1/10 156/1/10
f 157/1/10 158/1/10 159/1/10
f 160/1/10 161/1/10 162/1/10
f 163/1/10 164/1/10 165/1/10
f 166/1/10 167/1/10 168/1/10
f 169/1/10 170/1/10 171/1/10
f 172/1/16 173/1/19 174/1/16
f 175/1/18 176/1/18 177/1/17
f 178/1/10 179/1/10 180/1/10
f 181/1/10 182/1/10 183/1/10
f 184/1/10 185/1/10 186/1/10
f 187/1/10 188/1/10 189/1/10
f 190/1/18 191/1/18 192/1/20
f 193/1/10 194/1/10 195/1/10
f 196/1/19 197/1/16 198/1/19
f 199/1/19 200/1/21 201/1/19
f 202/1/10 203/1/10 204/1/10
f 205/1/10 206/1/10 207/1/10
f 208/1/10 209/1/10 210/1/10
f 211/1/22 212/1/22 213/1/23
f 214/1/20 215/1/20 216/1/23
f 217/1/20 218/1/20 219/1/18
f 220/1/10 221/1/10 222/1/10
f 223/1/10 224/1/10 225/1/10
f 226/1/21 227/1/19 228/1/21
f 229/1/23 230/1/23 231/1/20
f 232/1/10 233/1/10 234/1/10
f 235/1/23 236/1/23 237/1/22
f 238/1/22 239/1/24 240/1/22
f 241/1/10 242/1/10 243/1/10
f 244/1/10 245/1/10 246/1/10
f 247/1/21 248/1/25 249/1/21
f 250/1/10 251/1/10 252/1/10
f 253/1/24 254/1/22 255/1/24
f 256/1/10 257/1/10 258/1/10
f 259/1/10 260/1/10 261/1/10
f 262/1/25 263/1/21 264/1/25
f 265/1/25 266/1/24 267/1/25
f 268/1/10 269/1/10 270/1/10
f 271/1/24 272/1/25 273/1/24
f 274/1/10 275/1/10 276/1/10
f 277/1/10 278/1/10 279/1/10
f 280/1/10 281/1/10 282/1/10
f 283/1/10 284/1/10 285/1/10
f 286/1/10 287/1/10 288/1/10
usemtl material_1_0
f 289/1/20 290/1/18 291/1/18
f 292/1/18 293/1/17 294/1/17
f 295/1/23 296/1/20 297/1/20
f 298/1/18 299/1/20 300/1/20
f 301/1/17 302/1/18 303/1/18
f 304/1/15 305/1/17 306/1/17
f 307/1/17 308/1/15 309/1/15
f 310/1/21 311/1/25 312/1/21
f 313/1/19 314/1/21 315/1/19
f 316/1/22 317/1/23 318/1/23
f 319/1/20 320/1/23 321/1/23
f 322/1/26 323/1/26 324/1/26
f 325/1/26 326/1/26 327/1/26
f 328/1/14 329/1/15 330/1/15
f 331/1/25 332/1/24 333/1/25
f 334/1/25 335/1/21 336/1/25
f 337/1/21 338/1/19 339/1/21
f 340/1/16 341/1/19 342/1/16
f 343/1/19 344/1/16 345/1/19
f 346/1/24 347/1/22 348/1/24
f 349/1/23 350/1/22 351/1/22
f 352/1/26 353/1/26 354/1/26
f 355/1/26 356/1/26 357/1/26
f 358/1/15 359/1/14 360/1/14
f 361/1/26 362/1/26 363/1/26
f 364/1/11 365/1/16 366/1/11
f 367/1/5 368/1/11 369/1/11
f 370/1/24 371/1/25 372/1/24
f 373/1/26 374/1/26 375/1/26
f 376/1/26 377/1/26 378/1/26
f 379/1/16 380/1/11 381/1/16
f 382/1/26 383/1/26 384/1/26
f 385/1/22 386/1/24 387/1/22
f 388/1/14 389/1/13 390/1/14
f 391/1/26 392/1/26 393/1/26
f 394/1/3 395/1/5 396/1/5
f 397/1/11 398/1/5 399/1/5
f 400/1/26 401/1/26 402/1/26
f 403/1/26 404/1/26 405/1/26
f 406/1/26 407/1/26 408/1/26
f 409/1/26 410/1/26 411/1/26
f 412/1/26 413/1/26 414/1/26
f 415/1/26 416/1/26 417/1/26
f 418/1/26 419/1/26 420/1/26
f 421/1/26 422/1/26 423/1/26
f 424/1/13 425/1/14 426/1/13
f 427/1/26 428/1/26 429/1/26
f 430/1/26 431/1/26 432/1/26
f 433/1/1 434/1/3 435/1/3
f 436/1/5 437/1/3 438/1/3
f 439/1/26 440/1/26 441/1/26
f 442/1/26 443/1/26 444/1/26
f 445/1/26 446/1/26 447/1/26
f 448/1/26 449/1/26 450/1/26
f 451/1/26 452/1/26 453/1/26
f 454/1/26 455/1/26 456/1/26
f 457/1/26 458/1/26 459/1/26
f 460/1/13 461/1/8 462/1/13
f 463/1/3 464/1/1 465/1/1
f 466/1/26 467/1/26 468/1/26
f 469/1/26 470/1/26 471/1/26
f 472/1/26 473/1/26 474/1/26
f 475/1/26 476/1/26 477/1/26
f 478/1/2 479/1/1 480/1/1
f 481/1/26 482/1/26 483/1/26
f 484/1/8 485/1/13 486/1/8
f 487/1/8 488/1/6 489/1/8
f 490/1/26 491/1/26 492/1/26
f 493/1/26 494/1/26 495/1/26
f 496/1/26 497/1/26 498/1/26
f 499/1/4 500/1/9 501/1/9
f 502/1/4 503/1/2 504/1/2
f 505/1/1 506/1/2 507/1/2
f 508/1/26 509/1/26 510/1/26
f 511/1/26 512/1/26 513/1/26
f 514/1/6 515/1/8 516/1/6
f 517/1/2 518/1/4 519/1/4
f 520/1/26 521/1/26 522/1/26
f 523/1/9 524/1/4 525/1/4
f 526/1/9 527/1/12 528/1/9
f 529/1/26 530/1/26 531/1/26
f 532/1/26 533/1/26 534/1/26
f 535/1/6 536/1/7 537/1/6
f 538/1/26 539/1/26 540/1/26
f 541/1/12 542/1/9 543/1/12
f 544/1/26 545/1/26 546/1/26
f 547/1/26 548/1/26 549/1/26
f 550/1/7 551/1/6 552/1/7
f 553/1/7 554/1/12 555/1/7
f 556/1/26 557/1/26 558/1/26
f 559/1/12 560/1/7 561/1/12
f 562/1/26 563/1/26 564/1/26
f 565/1/26 566/1/26 567/1/26
f 568/1/26 569/1/26 570/1/26
f 571/1/26 572/1/26 573/1/26
f 574/1/26 575/1/26 576/1/26
