# SSTK version 0.8.0
# 34
mtllib original-34.mtl
o Component_11_7/Component_11/mesh3/mesh3-geometry#mesh3-geometry
v 0.853066 0.027521 0.230647
v 0.853066 0.027521 0.229777
v 0.853066 0.027449 0.230212
v 0.853066 0.027732 0.231053
v 0.853121 0.027449 0.230212
v 0.853121 0.027521 0.230647
v 0.853121 0.027732 0.231053
v 0.853066 0.027732 0.229372
v 0.853121 0.027521 0.229777
v 0.853121 0.028068 0.231401
v 0.853066 0.028068 0.231401
v 0.853121 0.027732 0.229372
v 0.853121 0.028068 0.229023
v 0.853066 0.028068 0.229023
v 0.853066 0.028506 0.231668
v 0.853121 0.028506 0.228756
v 0.853121 0.028506 0.231668
v 0.853066 0.028506 0.228756
v 0.853066 0.029017 0.231836
v 0.853121 0.029017 0.228588
v 0.853121 0.029017 0.231836
v 0.853066 0.029017 0.228588
v 0.853066 0.029564 0.231893
v 0.853121 0.029564 0.231893
v 0.853121 0.029564 0.228531
v 0.853066 0.029564 0.228531
v 0.853066 0.030111 0.231836
v 0.853121 0.030111 0.228588
v 0.853121 0.030111 0.231836
v 0.853066 0.030111 0.228588
v 0.853066 0.030622 0.231668
v 0.853121 0.030622 0.231668
v 0.853121 0.030622 0.228756
v 0.853066 0.030622 0.228756
v 0.853066 0.031060 0.231401
v 0.853121 0.031060 0.229023
v 0.853121 0.031060 0.231401
v 0.853066 0.031060 0.229023
v 0.853121 0.031396 0.231053
v 0.853121 0.031396 0.229372
v 0.853066 0.031396 0.231053
v 0.853066 0.031396 0.229372
v 0.853121 0.031607 0.230647
v 0.853066 0.031607 0.229777
v 0.853066 0.031607 0.230647
v 0.853121 0.031607 0.229777
v 0.853121 0.031679 0.230212
v 0.853066 0.031679 0.230212
vt -0.004081 0.000188
vt -0.006931 0.000188
vt -0.005506 0
vt -0.002753 0.000738
vt 0.002753 0.006896
vt 0 0.005459
vt 0.002753 0.005459
vt -0.002753 -0.005459
vt 0 -0.004022
vt -0.002753 -0.004022
vt -0.002753 -0.003698
vt 0 -0.002261
vt -0.002753 -0.002261
vt -0.008259 0.000738
vt 0 0.006896
vt 0 -0.005459
vt 0 -0.003698
vt 0 -0.000298
vt -0.002753 -0.001735
vt 0 -0.001735
vt -0.001613 0.001613
vt 0.002753 0.007913
vt 0 0.006475
vt 0.002753 0.006475
vt 0.006931 0.000188
vt 0.004081 0.000188
vt 0.005506 0
vt 0.008259 0.000738
vt 0.002753 0.000738
vt -0.002753 -0.000298
vt 0.009399 0.001613
vt 0.001613 0.001613
vt -0.009399 0.001613
vt 0 0.007913
vt 0 0.000298
vt -0.002753 0.001735
vt -0.002753 0.000298
vt 0.010274 0.002753
vt -0.000738 0.002753
vt 0.002753 0.008439
vt 0 0.007001
vt 0.002753 0.007001
vt 0 0.008439
vt 0 0.001735
vt 0.000738 0.002753
vt -0.010274 0.002753
vt 0 0.002261
vt -0.002753 0.003698
vt -0.002753 0.002261
vt 0.010824 0.004081
vt -0.000188 0.004081
vt 0 0.003698
vt 0.000188 0.004081
vt -0.010824 0.004081
vt 0 0.004022
vt -0.002753 0.005459
vt -0.002753 0.004022
vt 0 0.005506
vt 0.011012 0.005506
vt -0.011012 0.005506
vt -0.002753 0.006896
vt 0.010824 0.006931
vt -0.000188 0.006931
vt 0.002753 0.004022
vt 0.000188 0.006931
vt -0.010824 0.006931
vt -0.002753 0.007913
vt -0.002753 0.006475
vt 0.000738 0.008259
vt -0.000738 0.008259
vt 0.002753 0.002261
vt 0.010274 0.008259
vt -0.010274 0.008259
vt -0.002753 0.008439
vt -0.002753 0.007001
vt 0.002753 0.003698
vt 0.009399 0.009399
vt -0.001613 0.009399
vt 0.002753 0.000298
vt 0.001613 0.009399
vt -0.009399 0.009399
vt 0.002753 0.001735
vt 0.008259 0.010274
vt -0.002753 0.010274
vt 0.002753 0.010274
vt 0.002753 -0.000298
vt 0.002753 -0.001735
vt -0.008259 0.010274
vt 0.004081 0.010824
vt 0.002753 -0.002261
vt 0.002753 -0.003698
vt -0.004081 0.010824
vt 0.006931 0.010824
vt -0.006931 0.010824
vt 0.005506 0.011012
vt 0.002753 -0.004022
vt 0.002753 -0.005459
vt -0.005506 0.011012
vn -1 0 0
vn 1 0 0
vn 0 -0.9475948967625727 -0.31947443032194156
vn 0 -1 0
vn 0 1 0
vn 0 0.9475948967625727 0.31947443032194156
vn 0 -0.9475948967625727 0.31947443032194156
vn 0 0.9475948967625727 -0.31947443032194156
vn 0 -0.8090558473917143 0.5877317719855503
vn 0 0.8090558473917143 -0.5877317719855503
vn 0 -0.6221930424591992 0.7828638565647064
vn 0 0.6221930424591992 -0.7828638565647064
vn 0 -0.8090558473917143 -0.5877317719855503
vn 0 0.8090558473917143 0.5877317719855503
vn 0 -0.4170488875177959 0.9088840549928076
vn 0 0.4170488875177959 -0.9088840549928076
vn 0 -0.6221930424591992 -0.7828638565647064
vn 0 0.6221930424591992 0.7828638565647064
vn 0 -0.4170488875177959 -0.9088840549928076
vn 0 0.4170488875177959 0.9088840549928076
vn 0 -0.2082860736563964 0.9780679483148409
vn 0 0.2082860736563964 -0.9780679483148409
vn 0 -0.2082860736563964 -0.9780679483148409
vn 0 0.2082860736563964 0.9780679483148409
vn 0 0 1
vn 0 0 -1
usemtl material_0_0
f 1/1/1 2/2/1 3/3/1
f 2/2/1 1/1/1 4/4/1
f 3/3/2 2/2/2 1/1/2
f 4/4/2 1/1/2 2/2/2
f 2/5/3 5/6/4 3/7/4
f 3/7/5 5/6/5 2/5/6
f 3/8/4 6/9/7 1/10/7
f 1/10/8 6/9/8 3/8/5
f 1/11/7 7/12/9 4/13/9
f 4/13/10 7/12/10 1/11/8
f 2/2/1 4/4/1 8/14/1
f 8/14/2 4/4/2 2/2/2
f 5/6/4 2/5/3 9/15/3
f 9/15/6 2/5/6 5/6/5
f 6/9/7 3/8/4 5/16/4
f 5/16/5 3/8/5 6/9/8
f 7/12/9 1/11/7 6/17/7
f 6/17/8 1/11/8 7/12/10
f 10/18/11 4/19/9 7/20/9
f 7/20/10 4/19/10 10/18/12
f 8/14/1 4/4/1 11/21/1
f 11/21/2 4/4/2 8/14/2
f 8/22/13 9/23/3 2/24/3
f 2/24/6 9/23/6 8/22/14
f 9/25/2 6/26/2 5/27/2
f 5/27/1 6/26/1 9/25/1
f 6/26/2 12/28/2 7/29/2
f 7/29/1 12/28/1 6/26/1
f 4/19/9 10/18/11 11/30/11
f 11/30/12 10/18/12 4/19/10
f 7/29/2 13/31/2 10/32/2
f 10/32/1 13/31/1 7/29/1
f 8/14/1 11/21/1 14/33/1
f 14/33/2 11/21/2 8/14/2
f 9/23/3 8/22/13 12/34/13
f 12/34/14 8/22/14 9/23/6
f 6/26/2 9/25/2 12/28/2
f 12/28/1 9/25/1 6/26/1
f 7/29/2 12/28/2 13/31/2
f 13/31/1 12/28/1 7/29/1
f 10/35/11 15/36/15 11/37/11
f 11/37/12 15/36/16 10/35/12
f 10/32/2 13/31/2 16/38/2
f 16/38/1 13/31/1 10/32/1
f 14/33/1 11/21/1 15/39/1
f 15/39/2 11/21/2 14/33/2
f 14/40/17 12/41/13 8/42/13
f 8/42/14 12/41/14 14/40/18
f 12/41/13 14/40/17 13/43/17
f 13/43/18 14/40/18 12/41/14
f 15/36/15 10/35/11 17/44/15
f 17/44/16 10/35/12 15/36/16
f 14/42/17 16/43/19 13/41/17
f 13/41/18 16/43/20 14/42/18
f 10/32/2 16/38/2 17/45/2
f 17/45/1 16/38/1 10/32/1
f 14/33/1 15/39/1 18/46/1
f 18/46/2 15/39/2 14/33/2
f 17/47/15 19/48/21 15/49/15
f 15/49/16 19/48/22 17/47/16
f 16/43/19 14/42/17 18/40/19
f 18/40/20 14/42/18 16/43/20
f 17/45/2 16/38/2 20/50/2
f 20/50/1 16/38/1 17/45/1
f 18/46/1 15/39/1 19/51/1
f 19/51/2 15/39/2 18/46/2
f 19/48/21 17/47/15 21/52/21
f 21/52/22 17/47/16 19/48/22
f 18/24/19 20/34/23 16/23/19
f 16/23/20 20/34/24 18/24/20
f 17/45/2 20/50/2 21/53/2
f 21/53/1 20/50/1 17/45/1
f 18/46/1 19/51/1 22/54/1
f 22/54/2 19/51/2 18/46/2
f 21/55/21 23/56/25 19/57/21
f 19/57/22 23/56/26 21/55/22
f 20/34/23 18/24/19 22/22/23
f 22/22/24 18/24/20 20/34/24
f 21/53/2 20/50/2 24/58/2
f 24/58/1 20/50/1 21/53/1
f 22/54/1 19/51/1 23/58/1
f 23/58/2 19/51/2 22/54/2
f 23/56/25 21/55/21 24/6/25
f 24/6/26 21/55/22 23/56/26
f 22/7/23 25/15/26 20/6/23
f 20/6/24 25/15/25 22/7/24
f 24/58/2 20/50/2 25/59/2
f 25/59/1 20/50/1 24/58/1
f 22/54/1 23/58/1 26/60/1
f 26/60/2 23/58/2 22/54/2
f 24/6/25 27/61/24 23/56/25
f 23/56/26 27/61/23 24/6/26
f 25/15/26 22/7/23 26/5/26
f 26/5/25 22/7/24 25/15/25
f 24/58/2 25/59/2 28/62/2
f 28/62/1 25/59/1 24/58/1
f 26/60/1 23/58/1 27/63/1
f 27/63/2 23/58/2 26/60/2
f 27/61/24 24/6/25 29/15/24
f 29/15/23 24/6/26 27/61/23
f 26/64/26 28/6/22 25/55/26
f 25/55/25 28/6/21 26/64/25
f 24/58/2 28/62/2 29/65/2
f 29/65/1 28/62/1 24/58/1
f 26/60/1 27/63/1 30/66/1
f 30/66/2 27/63/2 26/60/2
f 29/23/24 31/67/20 27/68/24
f 27/68/23 31/67/19 29/23/23
f 28/6/22 26/64/26 30/7/22
f 30/7/21 26/64/25 28/6/21
f 29/65/2 28/62/2 32/69/2
f 32/69/1 28/62/1 29/65/1
f 30/66/1 27/63/1 31/70/1
f 31/70/2 27/63/2 30/66/2
f 31/67/20 29/23/24 32/34/20
f 32/34/19 29/23/23 31/67/19
f 30/71/22 33/52/16 28/47/22
f 28/47/21 33/52/15 30/71/21
f 32/69/2 28/62/2 33/72/2
f 33/72/1 28/62/1 32/69/1
f 30/66/1 31/70/1 34/73/1
f 34/73/2 31/70/2 30/66/2
f 32/41/20 35/74/18 31/75/20
f 31/75/19 35/74/17 32/41/19
f 33/52/16 30/71/22 34/76/16
f 34/76/15 30/71/21 33/52/15
f 32/69/2 33/72/2 36/77/2
f 36/77/1 33/72/1 32/69/1
f 34/73/1 31/70/1 35/78/1
f 35/78/2 31/70/2 34/73/2
f 35/74/18 32/41/20 37/43/18
f 37/43/17 32/41/19 35/74/17
f 34/79/16 36/44/12 33/35/16
f 33/35/15 36/44/11 34/79/15
f 32/69/2 36/77/2 37/80/2
f 37/80/1 36/77/1 32/69/1
f 34/73/1 35/78/1 38/81/1
f 38/81/2 35/78/2 34/73/2
f 39/43/14 35/75/18 37/41/18
f 37/41/17 35/75/17 39/43/13
f 36/44/12 34/79/16 38/82/12
f 38/82/11 34/79/15 36/44/11
f 37/80/2 36/77/2 40/83/2
f 40/83/1 36/77/1 37/80/1
f 38/81/1 35/78/1 41/84/1
f 41/84/2 35/78/2 38/81/2
f 35/75/18 39/43/14 41/74/14
f 41/74/13 39/43/13 35/75/17
f 37/80/2 40/83/2 39/85/2
f 39/85/1 40/83/1 37/80/1
f 42/86/10 36/20/12 38/87/12
f 38/87/11 36/20/11 42/86/9
f 36/20/12 42/86/10 40/18/10
f 40/18/9 42/86/9 36/20/11
f 38/81/1 41/84/1 42/88/1
f 42/88/2 41/84/2 38/81/2
f 43/34/6 41/68/14 39/23/14
f 39/23/13 41/68/13 43/34/3
f 39/85/2 40/83/2 43/89/2
f 43/89/1 40/83/1 39/85/1
f 44/90/8 40/17/10 42/91/10
f 42/91/9 40/17/9 44/90/7
f 42/88/1 41/84/1 45/92/1
f 45/92/2 41/84/2 42/88/2
f 41/68/14 43/34/6 45/67/6
f 45/67/3 43/34/3 41/68/13
f 43/89/2 40/83/2 46/93/2
f 46/93/1 40/83/1 43/89/1
f 40/17/10 44/90/8 46/12/8
f 46/12/7 44/90/7 40/17/9
f 42/88/1 45/92/1 44/94/1
f 44/94/2 45/92/2 42/88/2
f 47/15/5 45/56/6 43/6/6
f 43/6/3 45/56/3 47/15/4
f 43/89/2 46/93/2 47/95/2
f 47/95/1 46/93/1 43/89/1
f 48/96/5 46/16/8 44/97/8
f 44/97/7 46/16/7 48/96/4
f 44/94/1 45/92/1 48/98/1
f 48/98/2 45/92/2 44/94/2
f 45/56/6 47/15/5 48/61/5
f 48/61/4 47/15/4 45/56/3
f 46/16/8 48/96/5 47/9/5
f 47/9/4 48/96/4 46/16/7
