# SSTK version 0.8.0
# 43
mtllib original-43.mtl
o mesh5/mesh5-geometry/material_1/component_0#mesh5-geometry
v 0.163045 0.532264 -0.137446
v 0.163045 0.532264 -0.131973
v 0.093516 0.532264 -0.137446
v 0.093516 0.532264 -0.131973
v 0.093516 0.532264 -0.137446
v 0.163045 0.532264 -0.131973
v 0.093516 0.532264 -0.137446
v 0.163045 0.532264 -0.131973
v 0.163045 0.532264 -0.137446
v 0.163045 0.532264 -0.131973
v 0.093516 0.532264 -0.137446
v 0.093516 0.532264 -0.131973
vt 0 0
vt 5.167632102966309 3.9507949352264404
vt 5.675806999206543 3.910794973373413
vt 5.675806999206543 3.9507949352264404
vt 5.167632102966309 3.910794973373413
vn 0 -1 0
vn 0 1 0
usemtl material_0_0
f 1/1/1 2/1/1 3/1/1
f 4/1/1 5/1/1 6/1/1
usemtl material_1_0
f 7/2/2 8/3/2 9/4/2
f 10/3/2 11/2/2 12/5/2
