# SSTK version 0.8.0
# 98
mtllib original-98.mtl
o mesh50/mesh50-geometry/material_2/component_15#mesh50-geometry
v -0.255246 0.060034 0.686735
v -0.220149 0.137042 0.686735
v -0.255246 0.060034 0.860105
v -0.220149 0.137042 0.860105
v -0.255246 0.060034 0.860105
v -0.220149 0.137042 0.686735
v -0.255246 0.060034 0.860105
v -0.220149 0.137042 0.686735
v -0.255246 0.060034 0.686735
v -0.220149 0.137042 0.686735
v -0.255246 0.060034 0.860105
v -0.220149 0.137042 0.860105
vn 0.9562976655627685 -0.2923948953713099 0
vn 0.9099509098200271 -0.4147159771671509 0
vn -0.9562976655627685 0.2923948953713099 0
vn -0.9099509098200271 0.4147159771671509 0
usemtl material_0_0
f 1//1 2//2 3//1
f 4//2 5//1 6//2
usemtl material_1_0
f 7//3 8//4 9//3
f 10//4 11//3 12//4
