# SSTK version 0.8.0
# 18
mtllib original-18.mtl
o _8MDF22_1/_8MDF22/mesh11/mesh11-geometry#mesh11-geometry
v -0.617931 0.562730 0.606533
v -0.617931 0.183894 0.568313
v -0.617931 0.183894 0.606533
v -0.617931 0.562730 0.568313
v 0.598728 0.183894 0.606533
v 0.598728 0.562730 0.568313
v 0.598728 0.183894 0.568313
v 0.598728 0.562730 0.606533
vt 0.020833 0.206502
vt 0 0
vt 0.020833 0
vt 0 0.206502
vt -0.020833 0.662847
vt -0.020833 0
vt 0.662847 0
vt 0 0.662847
vt -0.662847 0.206502
vt 0.662847 0.206502
vt 0.020833 0.662847
vt -0.662847 0
vt -0.020833 0.206502
vn -1 0 0
vn 1 0 0
vn 0 -1 0
vn 0 1 0
vn 0 0 1
vn 0 0 -1
usemtl material_0_0
f 1/1/1 2/2/1 3/3/1
f 2/2/1 1/1/1 4/4/1
f 3/3/2 2/2/2 1/1/2
f 4/4/2 1/1/2 2/2/2
f 2/2/3 5/5/3 3/6/3
f 3/6/4 5/5/4 2/2/4
f 5/7/5 1/4/5 3/2/5
f 3/2/6 1/4/6 5/7/6
f 1/3/4 6/8/4 4/2/4
f 4/2/3 6/8/3 1/3/3
f 4/4/5 2/2/5 6/9/5
f 5/5/3 2/2/3 7/8/3
f 7/8/4 2/2/4 5/5/4
f 1/4/5 5/7/5 8/10/5
f 8/10/6 5/7/6 1/4/6
f 6/8/4 1/3/4 8/11/4
f 8/11/3 1/3/3 6/8/3
f 7/12/5 6/9/5 2/2/5
f 6/4/2 5/6/2 7/2/2
f 7/2/1 5/6/1 6/4/1
f 5/6/2 6/4/2 8/13/2
f 8/13/1 6/4/1 5/6/1
usemtl material_1_0
f 6//6 2//6 4//6
f 2//6 6//6 7//6
