mtllib new-7.mtl
v 0.505316 -0.161860 -0.055742
v 0.511044 -0.168055 -0.079000
v 0.509875 -0.168055 -0.084879
v 0.506545 -0.168055 -0.089863
v 0.509875 -0.168055 -0.073122
v 0.506545 -0.168055 -0.068138
v 0.501561 -0.168055 -0.064808
v 0.489804 -0.168055 -0.064808
v 0.501561 -0.168055 -0.093193
v 0.495683 -0.168055 -0.094362
v 0.484820 -0.168055 -0.068138
v 0.481490 -0.168055 -0.073122
v 0.495683 -0.168055 -0.063639
v 0.511044 -0.183417 -0.079000
v 0.509875 -0.183417 -0.084879
v 0.506545 -0.183417 -0.089863
v 0.501561 -0.183417 -0.093193
v 0.489804 -0.168055 -0.093193
v 0.480321 -0.168055 -0.079000
v 0.509875 -0.183417 -0.073122
v 0.506545 -0.183417 -0.068138
v 0.501561 -0.183417 -0.064808
v 0.495683 -0.183417 -0.063639
v 0.489804 -0.183417 -0.064808
v 0.484820 -0.183417 -0.068138
v 0.495683 -0.183417 -0.094362
v 0.489804 -0.183417 -0.093193
v 0.481490 -0.183417 -0.073122
v 0.480321 -0.183417 -0.079000
v 0.511976 -0.183417 -0.095294
v 0.511976 -0.183417 -0.062707
v 0.504501 -0.183417 -0.100289
v 0.495683 -0.183417 -0.102043
v 0.484820 -0.168055 -0.089863
v 0.484820 -0.183417 -0.089863
v 0.481490 -0.168055 -0.084879
v 0.481490 -0.183417 -0.084879
v 0.504501 -0.183417 -0.057712
v 0.495683 -0.183417 -0.055958
v 0.486865 -0.183417 -0.057712
v 0.486865 -0.183417 -0.100289
v 0.479389 -0.183417 -0.062707
v 0.479389 -0.183417 -0.095294
v 0.516971 -0.183417 -0.087818
v 0.511976 -0.191098 -0.095294
v 0.504501 -0.191098 -0.100289
v 0.504501 -0.191098 -0.057712
v 0.495683 -0.191098 -0.055958
v 0.486865 -0.191098 -0.057712
v 0.479389 -0.191098 -0.062707
v 0.516971 -0.183417 -0.070182
v 0.495683 -0.191098 -0.102043
v 0.474394 -0.183417 -0.087818
v 0.486865 -0.191098 -0.100289
v 0.511976 -0.191098 -0.062707
v 0.474394 -0.183417 -0.070182
v 0.516971 -0.191098 -0.070182
v 0.518725 -0.183417 -0.079000
v 0.516971 -0.191098 -0.087818
v 0.513318 -0.214141 -0.121578
v 0.495683 -0.214141 -0.125086
v 0.474394 -0.191098 -0.087818
v 0.479389 -0.191098 -0.095294
v 0.513318 -0.214141 -0.036423
v 0.478047 -0.214141 -0.036423
v 0.474394 -0.191098 -0.070182
v 0.518725 -0.191098 -0.079000
v 0.528270 -0.214141 -0.111588
v 0.472640 -0.183417 -0.079000
v 0.472640 -0.191098 -0.079000
v 0.478047 -0.214141 -0.121578
v 0.528270 -0.214141 -0.046413
v 0.495683 -0.214141 -0.032915
v 0.463095 -0.214141 -0.046413
v 0.538260 -0.214141 -0.061364
v 0.538260 -0.214141 -0.096636
v 0.528270 -0.221821 -0.111588
v 0.513318 -0.221821 -0.121578
v 0.463095 -0.214141 -0.111588
v 0.453105 -0.214141 -0.096636
v 0.513318 -0.221821 -0.036423
v 0.495683 -0.221821 -0.032915
v 0.478047 -0.221821 -0.036423
v 0.463095 -0.221821 -0.046413
v 0.453105 -0.214141 -0.061364
v 0.541768 -0.214141 -0.079000
v 0.495683 -0.221821 -0.125086
v 0.449597 -0.214141 -0.079000
v 0.478047 -0.221821 -0.121578
v 0.528270 -0.221821 -0.046413
v 0.538260 -0.221821 -0.061364
v 0.541768 -0.221821 -0.079000
v 0.538260 -0.221821 -0.096636
v 0.517407 -0.237183 -0.100725
v 0.495683 -0.237183 -0.109724
v 0.453105 -0.221821 -0.096636
v 0.449597 -0.221821 -0.079000
v 0.463095 -0.221821 -0.111588
v 0.517407 -0.237183 -0.057276
v 0.495683 -0.237183 -0.048277
v 0.483925 -0.237183 -0.050616
v 0.473958 -0.237183 -0.057276
v 0.453105 -0.221821 -0.061364
v 0.524067 -0.237183 -0.090758
v 0.507440 -0.237183 -0.107385
v 0.483925 -0.237183 -0.107385
v 0.473958 -0.237183 -0.100725
v 0.507440 -0.237183 -0.050616
v 0.524067 -0.237183 -0.067243
v 0.467298 -0.237183 -0.067243
v 0.555426 -0.386326 -0.138744
v 0.573741 -0.386326 -0.111333
v 0.528015 -0.386326 -0.157059
v 0.495683 -0.386326 -0.163490
v 0.467298 -0.237183 -0.090758
v 0.464959 -0.237183 -0.079000
v 0.528015 -0.386326 -0.000942
v 0.573741 -0.386326 -0.046668
v 0.495683 -0.386326 0.005489
v 0.463350 -0.386326 -0.000942
v 0.526406 -0.237183 -0.079000
v 0.435939 -0.386326 -0.019257
v 0.417624 -0.386326 -0.046668
v 0.463350 -0.386326 -0.157059
v 0.417624 -0.386326 -0.111333
v 0.555426 -0.386326 -0.019257
v 0.580172 -0.386326 -0.079000
v 0.411193 -0.386326 -0.079000
v 0.555426 -0.478496 -0.138744
v 0.528015 -0.478496 -0.157059
v 0.495683 -0.478496 -0.163490
v 0.435939 -0.386326 -0.138744
v 0.528015 -0.478496 -0.000942
v 0.495683 -0.478496 0.005489
v 0.573741 -0.478496 -0.046668
v 0.580172 -0.478496 -0.079000
v 0.463350 -0.478496 -0.000942
v 0.435939 -0.478496 -0.019257
v 0.417624 -0.478496 -0.046668
v 0.573741 -0.478496 -0.111333
v 0.463350 -0.478496 -0.157059
v 0.417624 -0.478496 -0.111333
v 0.411193 -0.478496 -0.079000
v 0.555426 -0.478496 -0.019257
v 0.435939 -0.478496 -0.138744
vn 0.000000 1.000000 0.000000
vn 0.000000 -1.000000 0.000000
vn 0.250726 -0.755474 0.605306
vn -0.250726 0.755474 -0.605306
vn 0.377513 -0.845558 0.377513
vn -0.377513 0.845558 -0.377513
vn 0.204309 -0.845558 0.493245
vn -0.204309 0.845558 -0.493245
vn -0.980785 0.000000 0.195090
vn 0.980785 0.000000 -0.195090
vn 0.831470 0.000000 -0.555570
vn -0.831470 0.000000 0.555570
vn -0.555570 0.000000 0.831470
vn 0.555570 0.000000 -0.831470
vn 0.980785 0.000000 0.195090
vn -0.980785 0.000000 -0.195090
vn -0.831470 0.000000 -0.555570
vn 0.831470 0.000000 0.555570
vn 0.555570 0.000000 0.831470
vn -0.555570 0.000000 -0.831470
vn -0.195090 0.000000 -0.980785
vn 0.195090 0.000000 0.980785
vn -0.195090 0.000000 0.980785
vn 0.195090 0.000000 -0.980785
vn 0.707107 0.000000 -0.707107
vn 0.382683 0.000000 -0.923880
vn -0.707107 0.000000 0.707107
vn -0.382683 0.000000 0.923880
vn 0.000000 0.000000 -1.000000
vn 0.000000 0.000000 1.000000
vn 0.382683 0.000000 0.923880
vn 0.707107 0.000000 0.707107
vn -0.382683 0.000000 -0.923880
vn -0.707107 0.000000 -0.707107
vn 0.923880 0.000000 -0.382683
vn -0.923880 0.000000 0.382683
vn 0.923880 0.000000 0.382683
vn -0.923880 0.000000 -0.382683
vn 0.500000 0.707107 -0.500000
vn 0.270598 0.707107 -0.653281
vn -0.270598 -0.707107 0.653281
vn -0.500000 -0.707107 0.500000
vn 0.000000 0.707107 -0.707107
vn 0.000000 -0.707107 0.707107
vn 0.270598 0.707107 0.653281
vn 0.500000 0.707107 0.500000
vn -0.270598 -0.707107 -0.653281
vn -0.500000 -0.707107 -0.500000
vn 0.000000 0.707107 0.707107
vn 0.000000 -0.707107 -0.707107
vn -0.270598 0.707107 0.653281
vn 0.270598 -0.707107 -0.653281
vn -0.500000 0.707107 0.500000
vn 0.500000 -0.707107 -0.500000
vn 1.000000 0.000000 0.000000
vn -1.000000 0.000000 0.000000
vn 0.653281 0.707107 -0.270598
vn -0.653281 -0.707107 0.270598
vn -0.270598 0.707107 -0.653281
vn 0.270598 -0.707107 0.653281
vn -0.500000 0.707107 -0.500000
vn 0.500000 -0.707107 0.500000
vn 0.653281 0.707107 0.270598
vn -0.653281 -0.707107 -0.270598
vn -0.653281 0.707107 0.270598
vn 0.653281 -0.707107 -0.270598
vn 0.707107 0.707107 0.000000
vn -0.707107 -0.707107 0.000000
vn -0.653281 0.707107 -0.270598
vn 0.653281 -0.707107 0.270598
vn -0.707107 0.707107 0.000000
vn 0.707107 -0.707107 0.000000
vn 0.696528 0.172327 -0.696528
vn 0.360005 0.339137 -0.869128
vn 0.665202 0.339137 -0.665202
vn -0.665202 -0.339137 0.665202
vn -0.360005 -0.339137 0.869128
vn -0.696528 -0.172327 0.696528
vn 0.910058 0.172327 -0.376958
vn 0.869128 0.339137 -0.360005
vn -0.869128 -0.339137 0.360005
vn -0.910058 -0.172327 0.376958
vn 0.376958 0.172327 -0.910058
vn 0.000000 0.339137 -0.940737
vn 0.000000 -0.339137 0.940737
vn -0.376958 -0.172327 0.910058
vn 0.000000 0.172327 -0.985040
vn -0.360005 0.339137 -0.869128
vn 0.360005 -0.339137 0.869128
vn 0.000000 -0.172327 0.985040
vn 0.376958 0.172327 0.910058
vn 0.665202 0.339137 0.665202
vn 0.360005 0.339137 0.869128
vn -0.360005 -0.339137 -0.869128
vn -0.665202 -0.339137 -0.665202
vn -0.376958 -0.172327 -0.910058
vn 0.910058 0.172327 0.376958
vn 0.869128 0.339137 0.360005
vn -0.869128 -0.339137 -0.360005
vn -0.910058 -0.172327 -0.376958
vn 0.000000 0.172327 0.985040
vn 0.000000 0.339137 0.940737
vn 0.000000 -0.339137 -0.940737
vn 0.000000 -0.172327 -0.985040
vn -0.376958 0.172327 0.910058
vn -0.360005 0.339137 0.869128
vn 0.360005 -0.339137 -0.869128
vn 0.376958 -0.172327 -0.910058
vn -0.696528 0.172327 0.696528
vn -0.665202 0.339137 0.665202
vn 0.665202 -0.339137 -0.665202
vn 0.696528 -0.172327 -0.696528
vn -0.910058 0.172327 0.376958
vn -0.869128 0.339137 0.360005
vn 0.869128 -0.339137 -0.360005
vn 0.910058 -0.172327 -0.376958
vn 0.940737 0.339137 0.000000
vn -0.940737 -0.339137 0.000000
vn -0.376958 0.172327 -0.910058
vn 0.376958 -0.172327 0.910058
vn -0.665202 0.339137 -0.665202
vn 0.665202 -0.339137 0.665202
vn -0.910058 0.172327 -0.376958
vn -0.869128 0.339137 -0.360005
vn 0.869128 -0.339137 0.360005
vn 0.910058 -0.172327 0.376958
vn 0.696528 0.172327 0.696528
vn -0.696528 -0.172327 -0.696528
vn 0.985040 0.172327 0.000000
vn -0.985040 -0.172327 0.000000
vn -0.985040 0.172327 0.000000
vn 0.985040 -0.172327 0.000000
vn -0.696528 0.172327 -0.696528
vn 0.696528 -0.172327 0.696528
vn -0.940737 0.339137 0.000000
vn 0.940737 -0.339137 0.000000
usemtl material-0
f 6//5 1//3 7//7
f 7//8 1//4 6//6
f 3//9 14//9 2//9
f 2//10 14//10 3//10
f 2//10 15//10 3//10
f 3//9 15//9 2//9
f 4//12 15//12 3//12
f 3//11 15//11 4//11
f 17//13 4//13 9//13
f 9//14 4//14 17//14
f 16//14 9//14 4//14
f 4//13 9//13 16//13
f 5//15 14//15 2//15
f 2//16 14//16 5//16
f 2//16 20//16 5//16
f 5//15 20//15 2//15
f 5//17 21//17 6//17
f 6//18 21//18 5//18
f 6//18 20//18 5//18
f 5//17 20//17 6//17
f 22//19 6//19 7//19
f 7//20 6//20 22//20
f 21//20 7//20 6//20
f 6//19 7//19 21//19
f 24//14 11//14 8//14
f 8//13 11//13 24//13
f 25//13 8//13 11//13
f 11//14 8//14 25//14
f 14//9 3//9 15//9
f 15//10 3//10 14//10
f 20//16 2//16 14//16
f 14//15 2//15 20//15
f 15//10 2//10 14//10
f 14//9 2//9 15//9
f 16//11 3//11 15//11
f 15//12 3//12 16//12
f 4//13 17//13 16//13
f 16//14 17//14 4//14
f 15//12 4//12 16//12
f 16//11 4//11 15//11
f 17//24 10//24 9//24
f 9//23 10//23 17//23
f 9//23 26//23 17//23
f 17//24 26//24 9//24
f 9//14 16//14 17//14
f 17//13 16//13 9//13
f 26//23 9//23 10//23
f 10//24 9//24 26//24
f 27//22 10//22 18//22
f 18//21 10//21 27//21
f 26//21 18//21 10//21
f 10//22 18//22 26//22
f 12//12 25//12 11//12
f 11//11 25//11 12//11
f 11//11 28//11 12//11
f 12//12 28//12 11//12
f 12//10 29//10 19//10
f 19//9 29//9 12//9
f 19//9 28//9 12//9
f 12//10 28//10 19//10
f 14//15 5//15 20//15
f 20//16 5//16 14//16
f 21//17 5//17 20//17
f 20//18 5//18 21//18
f 20//18 6//18 21//18
f 21//17 6//17 20//17
f 6//19 22//19 21//19
f 21//20 22//20 6//20
f 7//20 21//20 22//20
f 22//19 21//19 7//19
f 7//22 23//22 22//22
f 22//21 23//21 7//21
f 13//21 22//21 23//21
f 23//22 22//22 13//22
f 13//23 24//23 23//23
f 23//24 24//24 13//24
f 8//24 23//24 24//24
f 24//23 23//23 8//23
f 8//13 25//13 24//13
f 24//14 25//14 8//14
f 11//14 24//14 25//14
f 25//13 24//13 11//13
f 28//11 11//11 25//11
f 25//12 11//12 28//12
f 30//1 15//1 14//1
f 14//2 15//2 30//2
f 20//1 31//1 14//1
f 14//2 31//2 20//2
f 30//1 16//1 15//1
f 15//2 16//2 30//2
f 32//1 17//1 16//1
f 16//2 17//2 32//2
f 10//24 17//24 26//24
f 26//23 17//23 10//23
f 33//1 26//1 17//1
f 17//2 26//2 33//2
f 10//22 27//22 26//22
f 26//21 27//21 10//21
f 18//19 35//19 27//19
f 27//20 35//20 18//20
f 18//21 26//21 27//21
f 27//22 26//22 18//22
f 25//12 12//12 28//12
f 28//11 12//11 25//11
f 29//10 12//10 28//10
f 28//9 12//9 29//9
f 28//9 19//9 29//9
f 29//10 19//10 28//10
f 37//15 19//15 29//15
f 29//16 19//16 37//16
f 21//1 31//1 20//1
f 20//2 31//2 21//2
f 22//1 38//1 21//1
f 21//2 38//2 22//2
f 23//1 38//1 22//1
f 22//2 38//2 23//2
f 24//1 39//1 23//1
f 23//2 39//2 24//2
f 25//1 40//1 24//1
f 24//2 40//2 25//2
f 28//1 40//1 25//1
f 25//2 40//2 28//2
f 14//1 31//1 30//1
f 30//2 31//2 14//2
f 32//1 16//1 30//1
f 30//2 16//2 32//2
f 33//1 17//1 32//1
f 32//2 17//2 33//2
f 33//1 27//1 26//1
f 26//2 27//2 33//2
f 34//20 27//20 35//20
f 35//19 27//19 34//19
f 41//1 35//1 27//1
f 27//2 35//2 41//2
f 29//1 42//1 28//1
f 28//2 42//2 29//2
f 29//16 36//16 37//16
f 37//15 36//15 29//15
f 19//15 37//15 36//15
f 36//16 37//16 19//16
f 37//1 43//1 29//1
f 29//2 43//2 37//2
f 21//1 38//1 31//1
f 31//2 38//2 21//2
f 23//1 39//1 38//1
f 38//2 39//2 23//2
f 24//1 40//1 39//1
f 39//2 40//2 24//2
f 28//1 42//1 40//1
f 40//2 42//2 28//2
f 30//1 31//1 44//1
f 44//2 31//2 30//2
f 45//25 32//26 30//25
f 30//27 32//28 45//27
f 46//26 33//29 32//26
f 32//28 33//30 46//28
f 41//1 27//1 33//1
f 33//2 27//2 41//2
f 36//18 35//18 34//18
f 34//17 35//17 36//17
f 37//17 34//17 35//17
f 35//18 34//18 37//18
f 41//1 37//1 35//1
f 35//2 37//2 41//2
f 34//17 37//17 36//17
f 36//18 37//18 34//18
f 43//1 42//1 29//1
f 29//2 42//2 43//2
f 35//18 36//18 37//18
f 37//17 36//17 35//17
f 43//1 37//1 41//1
f 41//2 37//2 43//2
f 47//31 31//32 38//31
f 38//33 31//34 47//33
f 48//30 38//31 39//30
f 39//29 38//33 48//29
f 49//28 39//30 40//28
f 40//26 39//29 49//26
f 50//27 40//28 42//27
f 42//25 40//26 50//25
f 44//1 31//1 51//1
f 51//2 31//2 44//2
f 44//35 45//25 30//25
f 30//27 45//27 44//36
f 32//26 45//25 46//26
f 46//28 45//27 32//28
f 33//29 46//26 52//29
f 52//30 46//28 33//30
f 52//29 41//33 33//29
f 33//30 41//31 52//30
f 53//1 42//1 43//1
f 43//2 42//2 53//2
f 54//33 43//34 41//33
f 41//31 43//32 54//31
f 31//32 47//31 55//32
f 55//34 47//33 31//34
f 38//31 48//30 47//31
f 47//33 48//29 38//33
f 39//30 49//28 48//30
f 48//29 49//26 39//29
f 40//28 50//27 49//28
f 49//26 50//25 40//26
f 56//36 50//27 42//27
f 42//25 50//25 56//35
f 31//32 57//37 51//37
f 51//38 57//38 31//34
f 44//1 51//1 58//1
f 58//2 51//2 44//2
f 45//25 44//35 59//35
f 59//36 44//36 45//27
f 45//39 60//40 46//40
f 46//41 60//41 45//42
f 46//40 61//43 52//43
f 52//44 61//44 46//41
f 41//33 52//29 54//33
f 54//31 52//30 41//31
f 53//1 56//1 42//1
f 42//2 56//2 53//2
f 43//34 62//38 53//38
f 53//37 62//37 43//32
f 43//34 54//33 63//34
f 63//32 54//31 43//32
f 64//45 55//46 47//45
f 47//47 55//48 64//47
f 57//37 31//32 55//32
f 55//34 31//34 57//38
f 48//49 64//45 47//45
f 47//47 64//47 48//50
f 65//51 48//49 49//51
f 49//52 48//50 65//52
f 50//53 65//51 49//51
f 49//52 65//52 50//54
f 50//27 56//36 66//36
f 66//35 56//35 50//25
f 67//55 51//37 57//37
f 57//38 51//38 67//56
f 51//37 67//55 58//55
f 58//56 67//56 51//38
f 58//55 59//35 44//35
f 44//36 59//36 58//56
f 59//57 68//39 45//39
f 45//42 68//42 59//58
f 60//40 45//39 68//39
f 68//42 45//42 60//41
f 61//43 46//40 60//40
f 60//41 46//41 61//44
f 61//43 54//59 52//43
f 52//44 54//60 61//44
f 56//1 53//1 69//1
f 69//2 53//2 56//2
f 62//38 43//34 63//34
f 63//32 43//32 62//37
f 70//56 53//38 62//38
f 62//37 53//37 70//55
f 71//59 63//61 54//59
f 54//60 63//62 71//60
f 55//46 64//45 72//46
f 72//48 64//47 55//48
f 72//46 57//63 55//46
f 55//48 57//64 72//48
f 64//45 48//49 73//49
f 73//50 48//50 64//47
f 48//49 65//51 73//49
f 73//50 65//52 48//50
f 65//51 50//53 74//53
f 74//54 50//54 65//52
f 69//56 66//36 56//36
f 56//35 66//35 69//55
f 66//65 74//53 50//53
f 50//54 74//54 66//66
f 75//63 67//67 57//63
f 57//64 67//68 75//64
f 59//35 58//55 67//55
f 67//56 58//56 59//36
f 68//39 59//57 76//57
f 76//58 59//58 68//42
f 77//25 60//26 68//25
f 68//27 60//28 77//27
f 78//26 61//29 60//26
f 60//28 61//30 78//28
f 54//59 61//43 71//59
f 71//60 61//44 54//60
f 53//38 70//56 69//56
f 69//55 70//55 53//37
f 79//61 62//69 63//61
f 63//62 62//70 79//62
f 80//69 70//71 62//69
f 62//70 70//72 80//70
f 63//61 71//59 79//61
f 79//62 71//60 63//62
f 81//31 72//32 64//31
f 64//33 72//34 81//33
f 57//63 72//46 75//63
f 75//64 72//48 57//64
f 82//30 64//31 73//30
f 73//29 64//33 82//29
f 83//28 73//30 65//28
f 65//26 73//29 83//26
f 84//27 65//28 74//27
f 74//25 65//26 84//25
f 66//36 69//56 70//56
f 70//55 69//55 66//35
f 74//53 66//65 85//65
f 85//66 66//66 74//54
f 67//67 75//63 86//67
f 86//68 75//64 67//68
f 67//67 76//57 59//57
f 59//58 76//58 67//68
f 76//35 77//25 68//25
f 68//27 77//27 76//36
f 60//26 77//25 78//26
f 78//28 77//27 60//28
f 61//29 78//26 87//29
f 87//30 78//28 61//30
f 87//29 71//33 61//29
f 61//30 71//31 87//30
f 62//69 79//61 80//69
f 80//70 79//62 62//70
f 70//71 80//69 88//71
f 88//72 80//70 70//72
f 89//33 79//34 71//33
f 71//31 79//32 89//31
f 72//32 81//31 90//32
f 90//34 81//33 72//34
f 64//31 82//30 81//31
f 81//33 82//29 64//33
f 72//32 91//37 75//37
f 75//38 91//38 72//34
f 73//30 83//28 82//30
f 82//29 83//26 73//29
f 65//28 84//27 83//28
f 83//26 84//25 65//26
f 85//36 84//27 74//27
f 74//25 84//25 85//35
f 70//71 85//65 66//65
f 66//66 85//66 70//72
f 75//37 92//55 86//55
f 86//56 92//56 75//38
f 76//57 67//67 86//67
f 86//68 67//68 76//58
f 77//25 76//35 93//35
f 93//36 76//36 77//27
f 94//54 78//52 77//54
f 77//53 78//51 94//53
f 78//52 95//50 87//50
f 87//49 95//49 78//51
f 71//33 87//29 89//33
f 89//31 87//30 71//31
f 79//34 96//38 80//38
f 80//37 96//37 79//32
f 80//38 97//56 88//56
f 88//55 97//55 80//37
f 85//65 70//71 88//71
f 88//72 70//72 85//66
f 79//34 89//33 98//34
f 98//32 89//31 79//32
f 81//60 99//62 90//62
f 90//61 99//61 81//59
f 91//37 72//32 90//32
f 90//34 72//34 91//38
f 100//44 81//60 82//44
f 82//43 81//59 100//43
f 92//55 75//37 91//37
f 91//38 75//38 92//56
f 101//41 82//44 83//41
f 83//40 82//43 101//40
f 102//42 83//41 84//42
f 84//39 83//40 102//39
f 84//27 85//36 103//36
f 103//35 85//35 84//25
f 93//35 86//55 92//55
f 92//56 86//56 93//36
f 86//55 93//35 76//35
f 76//36 93//36 86//56
f 104//66 77//54 93//66
f 93//65 77//53 104//65
f 78//52 94//54 105//52
f 105//51 94//53 78//51
f 77//54 104//66 94//54
f 94//53 104//65 77//53
f 95//50 78//52 105//52
f 105//51 78//51 95//49
f 106//47 87//50 95//50
f 95//49 87//49 106//45
f 87//50 106//47 89//47
f 89//45 106//45 87//49
f 96//38 79//34 98//34
f 98//32 79//32 96//37
f 97//56 80//38 96//38
f 96//37 80//37 97//55
f 103//36 88//56 97//56
f 97//55 88//55 103//35
f 88//56 103//36 85//36
f 85//35 103//35 88//55
f 89//47 107//48 98//48
f 98//46 107//46 89//45
f 99//62 81//60 108//60
f 108//59 81//59 99//61
f 109//70 90//62 99//62
f 99//61 90//61 109//69
f 90//62 109//70 91//70
f 91//69 109//69 90//61
f 81//60 100//44 108//60
f 108//59 100//43 81//59
f 82//44 101//41 100//44
f 100//43 101//40 82//43
f 109//70 92//72 91//70
f 91//69 92//71 109//69
f 83//41 102//42 101//41
f 101//40 102//39 83//40
f 84//42 110//58 102//42
f 102//39 110//57 84//39
f 110//58 84//42 103//58
f 103//57 84//39 110//57
f 92//72 104//66 93//66
f 93//65 104//65 92//71
f 111//73 105//74 94//75
f 94//76 105//77 111//78
f 112//79 94//75 104//80
f 104//81 94//76 112//82
f 113//83 95//84 105//74
f 105//77 95//85 113//86
f 114//87 106//88 95//84
f 95//85 106//89 114//90
f 107//48 89//47 106//47
f 106//45 89//45 107//46
f 98//48 115//64 96//64
f 96//63 115//63 98//46
f 96//64 116//68 97//68
f 97//67 116//67 96//63
f 97//68 110//58 103//58
f 103//57 110//57 97//67
f 115//64 98//48 107//48
f 107//46 98//46 115//63
f 117//91 99//92 108//93
f 108//94 99//95 117//96
f 99//92 118//97 109//98
f 109//99 118//100 99//95
f 119//101 108//93 100//102
f 100//103 108//94 119//104
f 120//105 100//102 101//106
f 101//107 100//103 120//108
f 92//72 109//70 121//72
f 121//71 109//69 92//71
f 122//109 101//106 102//110
f 102//111 101//107 122//112
f 123//113 102//110 110//114
f 110//115 102//111 123//116
f 104//66 92//72 121//72
f 121//71 92//71 104//65
f 105//74 111//73 113//83
f 113//86 111//78 105//77
f 94//75 112//79 111//73
f 111//78 112//82 94//76
f 121//117 112//79 104//80
f 104//81 112//82 121//118
f 95//84 113//83 114//87
f 114//90 113//86 95//85
f 106//88 114//87 124//119
f 124//120 114//90 106//89
f 124//119 107//121 106//88
f 106//89 107//122 124//120
f 116//68 96//64 115//64
f 115//63 96//63 116//67
f 110//58 97//68 116//68
f 116//67 97//67 110//57
f 107//121 125//123 115//124
f 115//125 125//126 107//122
f 99//92 117//91 126//127
f 126//128 117//96 99//95
f 108//93 119//101 117//91
f 117//96 119//104 108//94
f 118//97 99//92 126//127
f 126//128 99//95 118//100
f 127//129 109//98 118//97
f 118//100 109//99 127//130
f 100//102 120//105 119//101
f 119//104 120//108 100//103
f 101//106 122//109 120//105
f 120//108 122//112 101//107
f 109//98 127//129 121//117
f 121//118 127//130 109//99
f 102//110 123//113 122//109
f 122//112 123//116 102//111
f 110//114 128//131 123//113
f 123//116 128//132 110//115
f 129//25 113//83 111//73
f 111//78 113//86 129//27
f 112//79 129//25 111//73
f 111//78 129//27 112//82
f 112//79 121//117 127//129
f 127//130 121//118 112//82
f 130//26 114//87 113//83
f 113//86 114//90 130//28
f 131//29 124//119 114//87
f 114//90 124//120 131//30
f 107//121 124//119 132//133
f 132//134 124//120 107//122
f 115//124 128//131 116//135
f 116//136 128//132 115//125
f 128//131 110//114 116//135
f 116//136 110//115 128//132
f 125//123 107//121 132//133
f 132//134 107//122 125//126
f 128//131 115//124 125//123
f 125//126 115//125 128//132
f 133//31 126//127 117//91
f 117//96 126//128 133//33
f 134//30 117//91 119//101
f 119//104 117//96 134//29
f 126//127 135//37 118//97
f 118//100 135//38 126//128
f 118//97 136//55 127//129
f 127//130 136//56 118//100
f 137//28 119//101 120//105
f 120//108 119//104 137//26
f 138//27 120//105 122//109
f 122//112 120//108 138//25
f 123//113 138//27 122//109
f 122//112 138//25 123//116
f 128//131 139//36 123//113
f 123//116 139//35 128//132
f 113//83 129//25 130//26
f 130//28 129//27 113//86
f 129//25 112//79 140//35
f 140//36 112//82 129//27
f 127//129 140//35 112//79
f 112//82 140//36 127//130
f 114//87 130//26 131//29
f 131//30 130//28 114//90
f 124//119 131//29 141//33
f 141//31 131//30 124//120
f 141//33 132//133 124//119
f 124//120 132//134 141//31
f 132//133 142//38 125//123
f 125//126 142//37 132//134
f 125//123 143//56 128//131
f 128//132 143//55 125//126
f 126//127 133//31 144//32
f 144//34 133//33 126//128
f 117//91 134//30 133//31
f 133//33 134//29 117//96
f 119//101 137//28 134//30
f 134//29 137//26 119//104
f 135//37 126//127 144//32
f 144//34 126//128 135//38
f 136//55 118//97 135//37
f 135//38 118//100 136//56
f 140//35 127//129 136//55
f 136//56 127//130 140//36
f 120//105 138//27 137//28
f 137//26 138//25 120//108
f 138//27 123//113 139//36
f 139//35 123//116 138//25
f 139//36 128//131 143//56
f 143//55 128//132 139//35
f 132//133 141//33 145//34
f 145//32 141//31 132//134
f 142//38 132//133 145//34
f 145//32 132//134 142//37
f 143//56 125//123 142//38
f 142//37 125//126 143//55