# SSTK version 0.8.0
# 2
mtllib original-2.mtl
o #ID238
v -0.197573 -0.183898 0.939723
v -0.197573 -0.204028 0.954822
v -0.197573 -0.183898 0.970925
v -0.197573 -0.183898 0.970925
v 0.205029 -0.204028 0.954822
v 0.205029 -0.183898 0.970925
v -0.197573 -0.204028 0.954822
v -0.197573 -0.204028 0.954822
v 0.205029 -0.183898 0.939723
v 0.205029 -0.204028 0.954822
v -0.197573 -0.183898 0.939723
v -0.197573 -0.204028 0.987029
v 0.205029 -0.183898 0.970925
v 0.205029 -0.204028 0.987029
v -0.197573 -0.183898 0.970925
v -0.197573 -0.183898 0.987029
v -0.197573 -0.183898 0.970925
v -0.197573 -0.204028 0.987029
vn -1.0 0.0 0.0
vn 0.0 -0.6246950231641791 0.7808688289552258
vn 0.0 -0.6 -0.8
vn 0.0 -0.6246950231641791 -0.7808688289552258
usemtl material_0_0
f 1//1 2//1 3//1
f 4//2 5//2 6//2
f 5//2 4//2 7//2
f 8//3 9//3 10//3
f 9//3 8//3 11//3
f 12//4 13//4 14//4
f 13//4 12//4 15//4
f 16//1 17//1 18//1
