# SSTK version 0.8.0
# 22
mtllib original-22.mtl
o Component_5_1/Component_5/mesh13/mesh13-geometry#mesh13-geometry
v 0.213940 0.966489 -0.257582
v -0.228005 0.966489 -0.262907
v -0.228005 0.966489 -0.257582
v 0.213940 0.966489 -0.262907
v -0.228005 -0.950377 -0.262907
v -0.228005 -0.950377 -0.257582
v 0.213940 -0.950377 -0.262907
v 0.213940 -0.950377 -0.257582
vn 0 1 0
vn 0 -1 0
vn -1 0 0
vn 1 0 0
vn 0 0 1
vn 0 0 -1
usemtl material_0_0
f 1//1 2//1 3//1
f 2//1 1//1 4//1
f 3//2 2//2 1//2
f 4//2 1//2 2//2
f 5//3 3//3 2//3
f 2//4 3//4 5//4
f 6//5 1//5 3//5
f 3//6 1//6 6//6
f 1//4 7//4 4//4
f 4//3 7//3 1//3
f 7//6 2//6 4//6
f 4//5 2//5 7//5
f 3//3 5//3 6//3
f 6//4 5//4 3//4
f 2//6 7//6 5//6
f 5//5 7//5 2//5
f 1//5 6//5 8//5
f 8//6 6//6 1//6
f 7//4 1//4 8//4
f 8//3 1//3 7//3
f 7//2 6//2 5//2
f 5//1 6//1 7//1
f 6//2 7//2 8//2
f 8//1 7//1 6//1
