# SSTK version 0.8.0
# 13
mtllib original-13.mtl
o Component_11_1/Component_11/mesh8/mesh8-geometry#mesh8-geometry
v 0.197966 -0.409927 0.274881
v -0.212031 -0.548367 0.274881
v 0.197966 -0.548367 0.274881
v -0.212031 -0.409927 0.274881
v 0.197966 -0.548367 0.285530
v -0.212031 -0.409927 0.285530
v -0.212031 -0.548367 0.285530
v 0.197966 -0.452524 0.285530
v 0.197966 -0.409927 0.285530
v -0.212031 -0.452524 0.285530
v -0.145093 -0.471429 0.285530
v 0.164757 -0.462898 0.285530
v 0.164757 -0.420301 0.285530
v -0.178822 -0.420301 0.285530
v -0.178822 -0.462898 0.285530
v -0.110945 -0.478090 0.285530
v 0.131028 -0.471429 0.285530
v -0.145093 -0.428831 0.285530
v 0.096880 -0.478090 0.285530
v -0.076483 -0.482863 0.285530
v 0.131028 -0.428831 0.285530
v -0.041811 -0.443136 0.285530
v -0.110945 -0.435493 0.285530
v 0.062418 -0.482863 0.285530
v -0.041811 -0.485733 0.285530
v 0.096880 -0.435493 0.285530
v -0.076483 -0.440266 0.285530
v -0.007033 -0.444094 0.285530
v 0.027746 -0.485733 0.285530
v -0.007033 -0.486691 0.285530
v 0.062418 -0.440266 0.285530
v 0.027746 -0.443136 0.285530
vn 0 0 1
vn 0 0 -1
vn 0 1 0
vn -1 0 0
vn 0 -1 0
vn 1 0 0
usemtl material_0_0
f 1//1 2//1 3//1
f 2//1 1//1 4//1
f 3//2 2//2 1//2
f 4//2 1//2 2//2
f 2//3 5//3 3//3
f 5//4 1//4 3//4
f 1//5 6//5 4//5
f 6//6 2//6 4//6
f 5//3 2//3 7//3
f 8//4 1//4 5//4
f 6//5 1//5 9//5
f 10//6 2//6 6//6
f 2//6 10//6 7//6
f 7//2 11//2 5//2
f 5//1 11//1 7//1
f 1//4 8//4 9//4
f 5//2 12//2 8//2
f 8//1 12//1 5//1
f 15//2 7//2 10//2
f 10//1 7//1 15//1
f 11//2 7//2 15//2
f 15//1 7//1 11//1
f 5//2 11//2 16//2
f 16//1 11//1 5//1
f 12//2 5//2 17//2
f 17//1 5//1 12//1
f 5//2 16//2 20//2
f 20//1 16//1 5//1
f 17//2 5//2 19//2
f 19//1 5//1 17//1
f 5//2 20//2 25//2
f 25//1 20//1 5//1
f 19//2 5//2 24//2
f 24//1 5//1 19//1
f 5//2 25//2 30//2
f 30//1 25//1 5//1
f 24//2 5//2 29//2
f 29//1 5//1 24//1
f 29//2 5//2 30//2
f 30//1 5//1 29//1
usemtl material_1_0
f 3//5 5//5 2//5
f 3//6 1//6 5//6
f 4//3 6//3 1//3
f 4//4 2//4 6//4
f 7//5 2//5 5//5
f 5//6 1//6 8//6
f 9//3 1//3 6//3
f 6//4 2//4 10//4
f 7//4 10//4 2//4
f 9//6 8//6 1//6
f 14//2 10//2 6//2
f 6//1 10//1 14//1
f 8//2 13//2 9//2
f 9//1 13//1 8//1
f 12//2 10//2 8//2
f 8//1 10//1 12//1
f 18//2 10//2 14//2
f 14//1 10//1 18//1
f 12//2 15//2 10//2
f 10//1 15//1 12//1
f 17//2 11//2 15//2
f 15//1 11//1 17//1
f 19//2 16//2 11//2
f 11//1 16//1 19//1
f 13//2 8//2 21//2
f 21//1 8//1 13//1
f 17//2 15//2 12//2
f 12//1 15//1 17//1
f 8//2 10//2 22//2
f 22//1 10//1 8//1
f 23//2 10//2 18//2
f 18//1 10//1 23//1
f 19//2 11//2 17//2
f 17//1 11//1 19//1
f 24//2 16//2 19//2
f 19//1 16//1 24//1
f 24//2 20//2 16//2
f 16//1 20//1 24//1
f 21//2 8//2 26//2
f 26//1 8//1 21//1
f 22//2 10//2 27//2
f 27//1 10//1 22//1
f 8//2 22//2 28//2
f 28//1 22//1 8//1
f 27//2 10//2 23//2
f 23//1 10//1 27//1
f 29//2 20//2 24//2
f 24//1 20//1 29//1
f 29//2 25//2 20//2
f 20//1 25//1 29//1
f 26//2 8//2 31//2
f 31//1 8//1 26//1
f 32//2 8//2 28//2
f 28//1 8//1 32//1
f 25//2 29//2 30//2
f 30//1 29//1 25//1
f 31//2 8//2 32//2
f 32//1 8//1 31//1
usemtl material_2_0
f 13//2 6//2 9//2
f 9//1 6//1 13//1
f 13//2 14//2 6//2
f 6//1 14//1 13//1
f 21//2 14//2 13//2
f 13//1 14//1 21//1
f 21//2 18//2 14//2
f 14//1 18//1 21//1
f 26//2 23//2 18//2
f 18//1 23//1 26//1
f 26//2 18//2 21//2
f 21//1 18//1 26//1
f 32//2 22//2 27//2
f 27//1 22//1 32//1
f 22//2 32//2 28//2
f 28//1 32//1 22//1
f 31//2 27//2 23//2
f 23//1 27//1 31//1
f 31//2 23//2 26//2
f 26//1 23//1 31//1
f 32//2 27//2 31//2
f 31//1 27//1 32//1
