# SSTK version 0.8.0
# 13
mtllib original-13.mtl
o Group13/mesh25/mesh25-geometry#mesh25-geometry
v 0.793293 0.153365 -0.197868
v 0.812938 -0.082378 -0.197868
v 0.793293 -0.082378 -0.197868
v 0.812938 0.153365 -0.197868
v 0.793293 -0.082378 -0.173311
v 0.812938 0.153365 0.005133
v 0.812938 -0.082378 -0.173311
v 0.793293 -0.082209 -0.170103
v 0.793293 0.153365 0.005133
v 0.812938 -0.082378 -0.019424
v 0.812938 -0.082209 -0.170103
v 0.793293 -0.081703 -0.166930
v 0.793293 -0.082378 0.005133
v 0.812938 -0.082378 0.005133
v 0.812938 -0.082209 -0.022632
v 0.812938 -0.081703 -0.166930
v 0.793293 -0.080866 -0.163827
v 0.793293 -0.082378 -0.019424
v 0.812938 -0.081703 -0.025805
v 0.812938 -0.080866 -0.163827
v 0.793293 -0.079708 -0.160830
v 0.793293 -0.082209 -0.022632
v 0.812938 -0.080866 -0.028907
v 0.812938 -0.079708 -0.160830
v 0.793293 -0.078241 -0.157972
v 0.793293 -0.081703 -0.025805
v 0.812938 -0.079708 -0.031904
v 0.812938 -0.078241 -0.157972
v 0.793293 -0.076481 -0.155283
v 0.793293 -0.080866 -0.028907
v 0.812938 -0.078241 -0.034763
v 0.812938 -0.076481 -0.155283
v 0.793293 -0.074449 -0.152795
v 0.793293 -0.079708 -0.031904
v 0.812938 -0.051586 -0.053985
v 0.812938 -0.074449 -0.152795
v 0.793293 -0.072165 -0.150534
v 0.793293 -0.078241 -0.034763
v 0.812938 -0.076481 -0.037451
v 0.812938 -0.047324 -0.057436
v 0.812938 -0.072165 -0.150534
v 0.793293 -0.069657 -0.148526
v 0.793293 -0.051586 -0.053985
v 0.812938 -0.056184 -0.050999
v 0.793293 -0.047324 -0.057436
v 0.812938 -0.043447 -0.061313
v 0.812938 -0.069657 -0.148526
v 0.793293 -0.066951 -0.146793
v 0.793293 -0.076481 -0.037451
v 0.812938 -0.074449 -0.039940
v 0.812938 -0.039996 -0.065575
v 0.812938 -0.066951 -0.146793
v 0.793293 -0.064079 -0.145354
v 0.793293 -0.043447 -0.061313
v 0.793293 -0.056184 -0.050999
v 0.812938 -0.072165 -0.042200
v 0.812938 -0.037009 -0.070174
v 0.812938 -0.064079 -0.145354
v 0.793293 -0.061070 -0.144226
v 0.793293 -0.039996 -0.065575
v 0.793293 -0.074449 -0.039940
v 0.793293 -0.072165 -0.042200
v 0.812938 -0.061070 -0.048509
v 0.812938 -0.034520 -0.075060
v 0.812938 -0.061070 -0.144226
v 0.793293 -0.056184 -0.141736
v 0.793293 -0.037009 -0.070174
v 0.793293 -0.069657 -0.044208
v 0.812938 -0.069657 -0.044208
v 0.793293 -0.061070 -0.048509
v 0.812938 -0.032555 -0.080179
v 0.812938 -0.056184 -0.141736
v 0.793293 -0.051586 -0.138750
v 0.793293 -0.034520 -0.075060
v 0.812938 -0.066951 -0.045942
v 0.812938 -0.064079 -0.047380
v 0.812938 -0.031136 -0.085475
v 0.812938 -0.051586 -0.138750
v 0.793293 -0.047324 -0.135299
v 0.793293 -0.032555 -0.080179
v 0.793293 -0.066951 -0.045942
v 0.812938 -0.064301 -0.047269
v 0.793293 -0.064079 -0.047380
v 0.812938 -0.030278 -0.090891
v 0.812938 -0.047324 -0.135299
v 0.793293 -0.043447 -0.131421
v 0.793293 -0.031136 -0.085475
v 0.793293 -0.064301 -0.047269
v 0.812938 -0.029991 -0.096367
v 0.812938 -0.043447 -0.131421
v 0.793293 -0.039996 -0.127160
v 0.793293 -0.030278 -0.090891
v 0.812938 -0.030278 -0.101843
v 0.812938 -0.039996 -0.127160
v 0.793293 -0.037009 -0.122561
v 0.793293 -0.029991 -0.096367
v 0.812938 -0.031136 -0.107259
v 0.812938 -0.037009 -0.122561
v 0.793293 -0.034520 -0.117675
v 0.793293 -0.030278 -0.101843
v 0.812938 -0.032555 -0.112556
v 0.812938 -0.034520 -0.117675
v 0.793293 -0.032555 -0.112556
v 0.793293 -0.031136 -0.107259
vt 0 0.375
vt -0.03125 0
vt 0 0
vt -0.03125 0.375
vt -0.03125 0.322917
vt 0 0.283854
vt 0 0.322917
vt -0.283854 0
vt -0.322917 0.375
vt -0.322917 0
vt 0.03125 0
vt 0.03125 0.322917
vt 0.322917 0.375
vt 0.283854 0
vt 0.322917 0
vt -0.03125 0.283854
vt -0.27875 0.000269
vt 0.039062 0
vt 0.27875 0.000269
vt 0.03125 -0.28346
vt 0 -0.278349
vt 0 -0.28346
vt -0.273703 0.001074
vt 0.03125 0.375
vt 0.044166 0.000269
vt 0.273703 0.001074
vt 0.03125 -0.278349
vt -0.268768 0.002405
vt 0.03125 -0.275233
vt 0 -0.270122
vt 0 -0.275233
vt -0.039062 0
vt -0.03125 0.039062
vt 0 0.039008
vt -0.03125 0.044119
vt -0.03125 0.039008
vt 0.049214 0.001074
vt 0.268768 0.002405
vt 0.03125 -0.270122
vt -0.264001 0.004247
vt 0.03125 -0.26398
vt 0 -0.258869
vt 0 -0.26398
vt -0.044166 0.000269
vt 0 0.039062
vt 0 0.044119
vt 0 0.043658
vt -0.03125 0.048769
vt -0.03125 0.043658
vt 0.054149 0.002405
vt 0.264001 0.004247
vt 0.03125 -0.258869
vt -0.259454 0.006581
vt 0.03125 -0.249827
vt 0 -0.244716
vt 0 -0.249827
vt -0.049214 0.001074
vt 0 0.048769
vt 0 0.047796
vt -0.03125 0.052907
vt -0.03125 0.047796
vt 0.058916 0.004247
vt 0.259454 0.006581
vt 0.03125 -0.244716
vt -0.255177 0.00938
vt 0.03125 -0.232931
vt 0 -0.22782
vt 0 -0.232931
vt -0.054149 0.002405
vt 0 0.052907
vt 0 0.051374
vt -0.03125 0.056485
vt -0.03125 0.051374
vt 0.063463 0.006581
vt 0.255177 0.00938
vt 0.03125 -0.22782
vt -0.251219 0.012614
vt 0.03125 -0.213479
vt 0 -0.208368
vt 0 -0.213479
vt -0.058916 0.004247
vt 0 0.056485
vt 0 0.054355
vt -0.03125 0.059466
vt -0.03125 0.054355
vt 0.09404 0.048982
vt 0.251219 0.012614
vt 0.03125 -0.208368
vt -0.247623 0.016246
vt 0.03125 -0.191687
vt 0 -0.186576
vt 0 -0.191687
vt -0.063463 0.006581
vt 0 0.059466
vt 0.06774 0.00938
vt 0.09953 0.055761
vt 0.247623 0.016246
vt 0.03125 -0.186576
vt -0.244428 0.020236
vt 0 -0.167797
vt 0.03125 -0.162686
vt 0 -0.162686
vt -0.09404 0.048982
vt 0 0.056704
vt -0.03125 0.061815
vt -0.03125 0.056704
vt 0.08929 0.041667
vt -0.03125 0.097248
vt 0 0.10597
vt -0.03125 0.10597
vt 0.105697 0.061929
vt 0.244428 0.020236
vt 0.03125 -0.167797
vt -0.241672 0.024539
vt 0 -0.142074
vt 0.03125 -0.136962
vt 0 -0.136962
vt 0.03125 -0.142074
vt -0.09953 0.055761
vt -0.06774 0.00938
vt 0 0.061815
vt 0.071698 0.012614
vt -0.03125 0.083575
vt 0 0.092298
vt -0.03125 0.092298
vt 0 0.097248
vt 0 0.109807
vt -0.03125 0.11853
vt -0.03125 0.109807
vt 0.112476 0.067418
vt 0.241672 0.024539
vt -0.239383 0.029109
vt 0 -0.114802
vt 0.03125 -0.109691
vt 0 -0.109691
vt 0.03125 -0.114802
vt -0.105697 0.061929
vt -0.08929 0.041667
vt 0 0.058395
vt -0.03125 0.063506
vt -0.03125 0.058395
vt 0.075294 0.016246
vt 0 0.083575
vt 0 0.11853
vt 0 0.121115
vt -0.03125 0.129838
vt -0.03125 0.121115
vt 0.119792 0.072169
vt 0.239383 0.029109
vt -0.237587 0.033895
vt 0 -0.086286
vt 0.03125 -0.081175
vt 0 -0.081175
vt 0.03125 -0.086286
vt -0.112476 0.067418
vt -0.071698 0.012614
vt 0 0.063506
vt -0.03125 0.059411
vt 0 0.064522
vt -0.03125 0.064522
vt 0.08533 0.033895
vt -0.03125 0.068939
vt 0 0.077662
vt -0.03125 0.077662
vt 0 0.129838
vt 0 0.131049
vt -0.03125 0.139772
vt -0.03125 0.131049
vt 0.127564 0.076129
vt 0.237587 0.033895
vt -0.233627 0.041667
vt 0 -0.05684
vt 0.03125 -0.051729
vt 0 -0.051729
vt 0.03125 -0.05684
vt -0.119792 0.072169
vt -0.075294 0.016246
vt 0 0.059411
vt 0 0.06485
vt -0.03125 0.059738
vt 0 0.059738
vt 0.078488 0.020236
vt 0 0.068939
vt 0 0.139772
vt 0 0.139499
vt -0.03125 0.148222
vt -0.03125 0.139499
vt 0.135707 0.079255
vt 0.233627 0.041667
vt -0.228876 0.048982
vt 0 -0.077662
vt 0.03125 -0.068939
vt 0 -0.068939
vt 0.03125 -0.077662
vt -0.127564 0.076129
vt -0.08533 0.033895
vt -0.03125 0.06485
vt -0.078488 0.020236
vt 0.081245 0.024539
vt -0.03125 0.056599
vt 0 0.06171
vt -0.03125 0.06171
vt 0 0.148222
vt 0 0.146373
vt -0.03125 0.155096
vt -0.03125 0.146373
vt 0.144132 0.081512
vt 0.228876 0.048982
vt -0.223387 0.055761
vt 0 -0.092298
vt 0.03125 -0.083575
vt 0 -0.083575
vt 0.03125 -0.092298
vt -0.135707 0.079255
vt 0 0.064486
vt -0.03125 0.059375
vt 0 0.059375
vt -0.081245 0.024539
vt -0.03125 0.064486
vt 0.083357 0.028755
vt 0 0.056599
vt 0.083534 0.029109
vt 0 0.155096
vt 0 0.151595
vt -0.03125 0.160318
vt -0.03125 0.151595
vt 0.152748 0.082877
vt 0.223387 0.055761
vt -0.217219 0.061929
vt 0 -0.10597
vt 0.03125 -0.097248
vt 0 -0.097248
vt 0.03125 -0.10597
vt -0.144132 0.081512
vt -0.083357 0.028755
vt 0 0.06304
vt -0.03125 0.058325
vt 0 0.058325
vt -0.03125 0.06304
vt 0 0.063436
vt -0.03125 0.063436
vt -0.083534 0.029109
vt 0 0.160318
vt 0 0.155109
vt -0.03125 0.163832
vt -0.03125 0.155109
vt 0.161458 0.083333
vt 0.217219 0.061929
vt -0.21044 0.067418
vt 0 -0.11853
vt 0.03125 -0.109807
vt 0 -0.109807
vt 0.03125 -0.11853
vt -0.152748 0.082877
vt 0 0.163832
vt 0 0.156876
vt -0.03125 0.165598
vt -0.03125 0.156876
vt 0.170169 0.082877
vt 0.21044 0.067418
vt -0.203125 0.072169
vt 0.03125 -0.129838
vt 0 -0.121115
vt 0 -0.129838
vt -0.161458 0.083333
vt 0 0.165598
vt 0 -0.156876
vt 0.03125 -0.165598
vt 0.03125 -0.156876
vt 0.178784 0.081512
vt 0.203125 0.072169
vt 0.03125 -0.121115
vt -0.195353 0.076129
vt 0.03125 -0.139772
vt 0 -0.131049
vt 0 -0.139772
vt -0.170169 0.082877
vt 0 -0.165598
vt 0 -0.155109
vt 0.03125 -0.163832
vt 0.03125 -0.155109
vt 0.18721 0.079255
vt 0.195353 0.076129
vt 0.03125 -0.131049
vt -0.18721 0.079255
vt 0.03125 -0.148222
vt 0 -0.139499
vt 0 -0.148222
vt -0.178784 0.081512
vt 0 -0.163832
vt 0 -0.151595
vt 0.03125 -0.160318
vt 0.03125 -0.151595
vt 0.03125 -0.139499
vt 0.03125 -0.155096
vt 0 -0.146373
vt 0 -0.155096
vt 0 -0.160318
vt 0.03125 -0.146373
vn 0 0 -1
vn 0 0 1
vn 0 -1 0
vn 0 -0.9996530156495681 0.026341000412368143
vn 0 1 0
vn 0 0.9996530156495681 -0.026341000412368143
vn -1 0 0
vn 1 0 0
vn 0 -0.994452884296408 0.10518298776206504
vn 0 0.994452884296408 -0.10518298776206504
vn 0 -0.9778732897766573 0.20919806199240285
vn 0 0.9778732897766573 -0.20919806199240285
vn 0 -0.9996530156495681 -0.026341000412368587
vn 0 0.9996530156495681 0.026341000412368587
vn 0 -0.994452884296408 -0.10518298776206549
vn 0 0.994452884296408 0.10518298776206549
vn 0 -0.9504449261152657 0.3108929758321134
vn 0 0.9504449261152657 -0.3108929758321134
vn 0 -0.9778732897766573 -0.2091980619924033
vn 0 0.9778732897766573 0.2091980619924033
vn 0 -0.9124724316780349 0.40913819355759695
vn 0 0.9124724316780349 -0.40913819355759695
vn 0 -0.9504449261152657 -0.3108929758321139
vn 0 0.9504449261152657 0.3108929758321139
vn 0 -0.8643767008591564 0.5028448259770011
vn 0 0.8643767008591564 -0.5028448259770011
vn 0 -0.9124724316780347 -0.4091381935575974
vn 0 0.9124724316780347 0.4091381935575974
vn 0 -0.806691219335339 0.5909731606826691
vn 0 0.806691219335339 -0.5909731606826691
vn 0 -0.8643767008591562 -0.5028448259770015
vn 0 0.8643767008591562 0.5028448259770015
vn 0 -0.7400565780664831 0.672544616557539
vn 0 0.7400565780664831 -0.672544616557539
vn 0 -0.6652112116882021 0.746655237605894
vn 0 0.6652112116882021 -0.746655237605894
vn 0 -0.8066912193353388 -0.5909731606826696
vn 0 0.8066912193353388 0.5909731606826696
vn 0 -0.5877850844899972 -0.8090171162905558
vn 0 -0.6691307369694429 -0.7431447078750749
vn 0 0.6691307369694429 0.7431447078750749
vn 0 0.5877850844899972 0.8090171162905558
vn 0 -0.5829860942921787 0.8124821314108704
vn 0 0.5829860942921787 -0.8124821314108704
vn 0 -0.5000001748438415 -0.8660253028382763
vn 0 0.5000001748438415 0.8660253028382763
vn 0 -0.7431447078750747 -0.6691307369694431
vn 0 0.7431447078750747 0.6691307369694431
vn 0 -0.4942939121489038 0.8692948454998061
vn 0 0.4942939121489038 -0.8692948454998061
vn 0 -0.7400565780664828 -0.6725446165575393
vn 0 0.7400565780664828 0.6725446165575393
vn 0 -0.8090171162905556 -0.5877850844899977
vn 0 0.8090171162905556 0.5877850844899977
vn 0 -0.4001170246101989 0.9164640563694146
vn 0 0.4001170246101989 -0.9164640563694146
vn 0 -0.6652112116882019 -0.7466552376058943
vn 0 0.6652112116882019 0.7466552376058943
vn 0 -0.4032790266627935 -0.915077060500322
vn 0 0.4032790266627935 0.915077060500322
vn 0 -0.8660253028382761 -0.500000174843842
vn 0 0.8660253028382761 0.500000174843842
vn 0 -0.40327902666279397 0.9150770605003218
vn 0 0.40327902666279397 -0.9150770605003218
vn 0 -0.5829860942921783 -0.8124821314108707
vn 0 0.5829860942921783 0.8124821314108707
vn 0 -0.913545249309273 -0.40673711099979315
vn 0 0.913545249309273 0.40673711099979315
vn 0 -0.500000174843842 0.8660253028382761
vn 0 0.500000174843842 -0.8660253028382761
vn 0 -0.40011702461019844 -0.9164640563694149
vn 0 0.40011702461019844 0.9164640563694149
vn 0 -0.9510565608316643 -0.309016857305628
vn 0 0.9510565608316643 0.309016857305628
vn 0 -0.5877850844899977 0.8090171162905556
vn 0 0.5877850844899977 -0.8090171162905556
vn 0 -0.49429391214890345 -0.8692948454998063
vn 0 0.49429391214890345 0.8692948454998063
vn 0 -0.9781475551151175 -0.20791190543669727
vn 0 0.9781475551151175 0.20791190543669727
vn 0 -0.6691307369694431 0.7431447078750747
vn 0 0.6691307369694431 -0.7431447078750747
vn 0 -0.4478270903874135 -0.8941201804652119
vn 0 0.4478270903874135 0.8941201804652119
vn 0 -0.9945219446707676 -0.10452799418468994
vn 0 0.9945219446707676 0.10452799418468994
vn 0 -0.7431447078750749 0.6691307369694429
vn 0 0.7431447078750749 -0.6691307369694429
vn 0 -0.8090171162905558 0.5877850844899972
vn 0 0.8090171162905558 -0.5877850844899972
vn 0 -0.9945219446707676 0.1045279941846895
vn 0 0.9945219446707676 -0.1045279941846895
vn 0 -0.8660253028382763 0.5000001748438415
vn 0 0.8660253028382763 -0.5000001748438415
vn 0 -0.9781475551151175 0.20791190543669683
vn 0 0.9781475551151175 -0.20791190543669683
vn 0 -0.9135452493092733 0.4067371109997927
vn 0 0.9135452493092733 -0.4067371109997927
vn 0 -0.9510565608316646 0.30901685730562756
vn 0 0.9510565608316646 -0.30901685730562756
usemtl material_0_0
f 1/1/1 2/2/1 3/3/1
f 2/2/1 1/1/1 4/4/1
f 3/3/2 2/2/2 1/1/2
f 4/4/2 1/1/2 2/2/2
f 2/5/3 5/6/4 3/7/3
f 3/7/5 5/6/6 2/5/5
f 5/8/7 1/9/7 3/10/7
f 3/10/8 1/9/8 5/8/8
f 1/7/5 6/11/5 4/12/5
f 4/12/3 6/11/3 1/7/3
f 4/13/8 7/14/8 2/15/8
f 2/15/7 7/14/7 4/13/7
f 5/6/4 2/5/3 7/16/4
f 7/16/6 2/5/5 5/6/6
f 8/17/7 1/9/7 5/8/7
f 5/8/8 1/9/8 8/17/8
f 6/11/5 1/7/5 9/3/5
f 9/3/3 1/7/3 6/11/3
f 6/1/8 10/18/8 4/13/8
f 4/13/7 10/18/7 6/1/7
f 4/13/8 11/19/8 7/14/8
f 7/14/7 11/19/7 4/13/7
f 7/20/4 8/21/9 5/22/4
f 5/22/6 8/21/10 7/20/6
f 12/23/7 1/9/7 8/17/7
f 8/17/8 1/9/8 12/23/8
f 1/9/7 13/3/7 9/1/7
f 9/1/8 13/3/8 1/9/8
f 13/3/2 6/24/2 9/1/2
f 9/1/1 6/24/1 13/3/1
f 10/18/8 6/1/8 14/3/8
f 14/3/7 6/1/7 10/18/7
f 4/13/8 10/18/8 15/25/8
f 15/25/7 10/18/7 4/13/7
f 4/13/8 16/26/8 11/19/8
f 11/19/7 16/26/7 4/13/7
f 8/21/9 7/20/4 11/27/9
f 11/27/10 7/20/6 8/21/10
f 17/28/7 1/9/7 12/23/7
f 12/23/8 1/9/8 17/28/8
f 11/29/9 12/30/11 8/31/9
f 8/31/10 12/30/12 11/29/10
f 13/3/7 1/9/7 18/32/7
f 18/32/8 1/9/8 13/3/8
f 6/24/2 13/3/2 14/11/2
f 14/11/1 13/3/1 6/24/1
f 13/3/3 10/33/13 14/2/3
f 14/2/5 10/33/14 13/3/5
f 18/34/13 15/35/15 10/36/13
f 10/36/14 15/35/16 18/34/14
f 4/13/8 15/25/8 19/37/8
f 19/37/7 15/25/7 4/13/7
f 4/13/8 20/38/8 16/26/8
f 16/26/7 20/38/7 4/13/7
f 12/30/11 11/29/9 16/39/11
f 16/39/12 11/29/10 12/30/12
f 21/40/7 1/9/7 17/28/7
f 17/28/8 1/9/8 21/40/8
f 16/41/11 17/42/17 12/43/11
f 12/43/12 17/42/18 16/41/12
f 18/32/7 1/9/7 22/44/7
f 22/44/8 1/9/8 18/32/8
f 10/33/13 13/3/3 18/45/13
f 18/45/14 13/3/5 10/33/14
f 15/35/15 18/34/13 22/46/15
f 22/46/16 18/34/14 15/35/16
f 22/47/15 19/48/19 15/49/15
f 15/49/16 19/48/20 22/47/16
f 4/13/8 19/37/8 23/50/8
f 23/50/7 19/37/7 4/13/7
f 4/13/8 24/51/8 20/38/8
f 20/38/7 24/51/7 4/13/7
f 17/42/17 16/41/11 20/52/17
f 20/52/18 16/41/12 17/42/18
f 25/53/7 1/9/7 21/40/7
f 21/40/8 1/9/8 25/53/8
f 20/54/17 21/55/21 17/56/17
f 17/56/18 21/55/22 20/54/18
f 22/44/7 1/9/7 26/57/7
f 26/57/8 1/9/8 22/44/8
f 19/48/19 22/47/15 26/58/19
f 26/58/20 22/47/16 19/48/20
f 26/59/19 23/60/23 19/61/19
f 19/61/20 23/60/24 26/59/20
f 4/13/8 23/50/8 27/62/8
f 27/62/7 23/50/7 4/13/7
f 4/13/8 28/63/8 24/51/8
f 24/51/7 28/63/7 4/13/7
f 21/55/21 20/54/17 24/64/21
f 24/64/22 20/54/18 21/55/22
f 29/65/7 1/9/7 25/53/7
f 25/53/8 1/9/8 29/65/8
f 24/66/21 25/67/25 21/68/21
f 21/68/22 25/67/26 24/66/22
f 26/57/7 1/9/7 30/69/7
f 30/69/8 1/9/8 26/57/8
f 23/60/23 26/59/19 30/70/23
f 30/70/24 26/59/20 23/60/24
f 30/71/23 27/72/27 23/73/23
f 23/73/24 27/72/28 30/71/24
f 4/13/8 27/62/8 31/74/8
f 31/74/7 27/62/7 4/13/7
f 4/13/8 32/75/8 28/63/8
f 28/63/7 32/75/7 4/13/7
f 25/67/25 24/66/21 28/76/25
f 28/76/26 24/66/22 25/67/26
f 33/77/7 1/9/7 29/65/7
f 29/65/8 1/9/8 33/77/8
f 28/78/25 29/79/29 25/80/25
f 25/80/26 29/79/30 28/78/26
f 30/69/7 1/9/7 34/81/7
f 34/81/8 1/9/8 30/69/8
f 27/72/27 30/71/23 34/82/27
f 34/82/28 30/71/24 27/72/28
f 34/83/27 31/84/31 27/85/27
f 27/85/28 31/84/32 34/83/28
f 4/13/8 31/74/8 35/86/8
f 35/86/7 31/74/7 4/13/7
f 4/13/8 36/87/8 32/75/8
f 32/75/7 36/87/7 4/13/7
f 29/79/29 28/78/25 32/88/29
f 32/88/30 28/78/26 29/79/30
f 37/89/7 1/9/7 33/77/7
f 33/77/8 1/9/8 37/89/8
f 32/90/29 33/91/33 29/92/29
f 29/92/30 33/91/34 32/90/30
f 34/81/7 1/9/7 38/93/7
f 38/93/8 1/9/8 34/81/8
f 31/84/31 34/83/27 38/94/31
f 38/94/32 34/83/28 31/84/32
f 35/86/8 31/74/8 39/95/8
f 39/95/7 31/74/7 35/86/7
f 4/13/8 35/86/8 40/96/8
f 40/96/7 35/86/7 4/13/7
f 4/13/8 41/97/8 36/87/8
f 36/87/7 41/97/7 4/13/7
f 33/91/33 32/90/29 36/98/33
f 36/98/34 32/90/30 33/91/34
f 42/99/7 1/9/7 37/89/7
f 37/89/8 1/9/8 42/99/8
f 33/100/33 41/101/35 37/102/35
f 37/102/36 41/101/36 33/100/34
f 38/93/7 1/9/7 43/103/7
f 43/103/8 1/9/8 38/93/8
f 38/104/31 39/105/37 31/106/31
f 31/106/32 39/105/38 38/104/32
f 35/86/8 39/95/8 44/107/8
f 44/107/7 39/95/7 35/86/7
f 35/108/39 45/109/40 40/110/40
f 40/110/41 45/109/41 35/108/42
f 4/13/8 40/96/8 46/111/8
f 46/111/7 40/96/7 4/13/7
f 4/13/8 47/112/8 41/97/8
f 41/97/7 47/112/7 4/13/7
f 41/101/35 33/100/33 36/113/33
f 36/113/34 33/100/34 41/101/36
f 48/114/7 1/9/7 42/99/7
f 42/99/8 1/9/8 48/114/8
f 37/115/35 47/116/43 42/117/43
f 42/117/44 47/116/44 37/115/36
f 47/116/43 37/115/35 41/118/35
f 41/118/36 37/115/36 47/116/44
f 43/103/7 1/9/7 45/119/7
f 45/119/8 1/9/8 43/103/8
f 38/93/7 43/103/7 49/120/7
f 49/120/8 43/103/8 38/93/8
f 39/105/37 38/104/31 49/121/37
f 49/121/38 38/104/32 39/105/38
f 44/107/8 39/95/8 50/122/8
f 50/122/7 39/95/7 44/107/7
f 44/123/45 43/124/39 35/125/39
f 35/125/42 43/124/42 44/123/46
f 45/109/40 35/108/39 43/126/39
f 43/126/42 35/108/42 45/109/41
f 45/127/40 46/128/47 40/129/40
f 40/129/41 46/128/48 45/127/41
f 4/13/8 46/111/8 51/130/8
f 51/130/7 46/111/7 4/13/7
f 4/13/8 52/131/8 47/112/8
f 47/112/7 52/131/7 4/13/7
f 53/132/7 1/9/7 48/114/7
f 48/114/8 1/9/8 53/132/8
f 42/133/43 52/134/49 48/135/49
f 48/135/50 52/134/50 42/133/44
f 52/134/49 42/133/43 47/136/43
f 47/136/44 42/133/44 52/134/50
f 45/119/7 1/9/7 54/137/7
f 54/137/8 1/9/8 45/119/8
f 49/120/7 43/103/7 55/138/7
f 55/138/8 43/103/8 49/120/8
f 49/139/37 50/140/51 39/141/37
f 39/141/38 50/140/52 49/139/38
f 44/107/8 50/122/8 56/142/8
f 56/142/7 50/122/7 44/107/7
f 43/124/39 44/123/45 55/143/45
f 55/143/46 44/123/46 43/124/42
f 46/128/47 45/127/40 54/144/47
f 54/144/48 45/127/41 46/128/48
f 54/145/47 51/146/53 46/147/47
f 46/147/48 51/146/54 54/145/48
f 4/13/8 51/130/8 57/148/8
f 57/148/7 51/130/7 4/13/7
f 4/13/8 58/149/8 52/131/8
f 52/131/7 58/149/7 4/13/7
f 59/150/7 1/9/7 53/132/7
f 53/132/8 1/9/8 59/150/8
f 48/151/49 58/152/55 53/153/55
f 53/153/56 58/152/56 48/151/50
f 58/152/55 48/151/49 52/154/49
f 52/154/50 48/151/50 58/152/56
f 54/137/7 1/9/7 60/155/7
f 60/155/8 1/9/8 54/137/8
f 49/120/7 55/138/7 61/156/7
f 61/156/8 55/138/8 49/120/8
f 50/140/51 49/139/37 61/157/51
f 61/157/52 49/139/38 50/140/52
f 50/158/51 62/159/57 56/160/57
f 56/160/58 62/159/58 50/158/52
f 44/107/8 56/142/8 63/161/8
f 63/161/7 56/142/7 44/107/7
f 63/162/59 55/163/45 44/164/45
f 44/164/46 55/163/46 63/162/60
f 51/146/53 54/145/47 60/165/53
f 60/165/54 54/145/48 51/146/54
f 60/166/53 57/167/61 51/168/53
f 51/168/54 57/167/62 60/166/54
f 4/13/8 57/148/8 64/169/8
f 64/169/7 57/148/7 4/13/7
f 4/13/8 65/170/8 58/149/8
f 58/149/7 65/170/7 4/13/7
f 66/171/7 1/9/7 59/150/7
f 59/150/8 1/9/8 66/171/8
f 53/172/55 65/173/63 59/174/63
f 59/174/64 65/173/64 53/172/56
f 65/173/63 53/172/55 58/175/55
f 58/175/56 53/172/56 65/173/64
f 60/155/7 1/9/7 67/176/7
f 67/176/8 1/9/8 60/155/8
f 61/156/7 55/138/7 62/177/7
f 62/177/8 55/138/8 61/156/8
f 62/159/57 50/158/51 61/178/51
f 61/178/52 50/158/52 62/159/58
f 68/179/65 56/180/57 62/181/57
f 62/181/58 56/180/58 68/179/66
f 63/161/8 56/142/8 69/182/8
f 69/182/7 56/142/7 63/161/7
f 55/163/45 63/162/59 70/183/59
f 70/183/60 63/162/60 55/163/46
f 57/167/61 60/166/53 67/184/61
f 67/184/62 60/166/54 57/167/62
f 67/185/61 64/186/67 57/187/61
f 57/187/62 64/186/68 67/185/62
f 4/13/8 64/169/8 71/188/8
f 71/188/7 64/169/7 4/13/7
f 4/13/8 72/189/8 65/170/8
f 65/170/7 72/189/7 4/13/7
f 73/190/7 1/9/7 66/171/7
f 66/171/8 1/9/8 73/190/8
f 59/191/63 72/192/69 66/193/69
f 66/193/70 72/192/70 59/191/64
f 72/192/69 59/191/63 65/194/63
f 65/194/64 59/191/64 72/192/70
f 67/176/7 1/9/7 74/195/7
f 74/195/8 1/9/8 67/176/8
f 62/177/7 55/138/7 70/196/7
f 70/196/8 55/138/8 62/177/8
f 56/180/57 68/179/65 69/197/65
f 69/197/66 68/179/66 56/180/58
f 62/177/7 70/196/7 68/198/7
f 68/198/8 70/196/8 62/177/8
f 63/161/8 69/182/8 75/199/8
f 75/199/7 69/182/7 63/161/7
f 76/200/71 70/201/59 63/202/59
f 63/202/60 70/201/60 76/200/72
f 64/186/67 67/185/61 74/203/67
f 74/203/68 67/185/62 64/186/68
f 74/204/67 71/205/73 64/206/67
f 64/206/68 71/205/74 74/204/68
f 4/13/8 71/188/8 77/207/8
f 77/207/7 71/188/7 4/13/7
f 4/13/8 78/208/8 72/189/8
f 72/189/7 78/208/7 4/13/7
f 79/209/7 1/9/7 73/190/7
f 73/190/8 1/9/8 79/209/8
f 66/210/69 78/211/75 73/212/75
f 73/212/76 78/211/76 66/210/70
f 78/211/75 66/210/69 72/213/69
f 72/213/70 66/210/70 78/211/76
f 74/195/7 1/9/7 80/214/7
f 80/214/8 1/9/8 74/195/8
f 81/215/77 69/216/65 68/217/65
f 68/217/66 69/216/66 81/215/78
f 68/198/7 70/196/7 81/218/7
f 81/218/8 70/196/8 68/198/8
f 69/216/65 81/215/77 75/219/77
f 75/219/78 81/215/78 69/216/66
f 63/161/8 75/199/8 82/220/8
f 82/220/7 75/199/7 63/161/7
f 70/201/59 76/200/71 83/221/71
f 83/221/72 76/200/72 70/201/60
f 63/161/8 82/220/8 76/222/8
f 76/222/7 82/220/7 63/161/7
f 71/205/73 74/204/67 80/223/73
f 80/223/74 74/204/68 71/205/74
f 80/224/73 77/225/79 71/226/73
f 71/226/74 77/225/80 80/224/74
f 4/13/8 77/207/8 84/227/8
f 84/227/7 77/207/7 4/13/7
f 4/13/8 85/228/8 78/208/8
f 78/208/7 85/228/7 4/13/7
f 86/229/7 1/9/7 79/209/7
f 79/209/8 1/9/8 86/229/8
f 73/230/75 85/231/81 79/232/81
f 79/232/82 85/231/82 73/230/76
f 85/231/81 73/230/75 78/233/75
f 78/233/76 73/230/76 85/231/82
f 80/214/7 1/9/7 87/234/7
f 87/234/8 1/9/8 80/214/8
f 81/218/7 70/196/7 88/235/7
f 88/235/8 70/196/8 81/218/8
f 88/236/83 75/237/77 81/238/77
f 81/238/78 75/237/78 88/236/84
f 75/237/77 88/236/83 82/239/83
f 82/239/84 88/236/84 75/237/78
f 82/239/83 83/240/71 76/241/71
f 76/241/72 83/240/72 82/239/84
f 88/235/7 70/196/7 83/242/7
f 83/242/8 70/196/8 88/235/8
f 77/225/79 80/224/73 87/243/79
f 87/243/80 80/224/74 77/225/80
f 87/244/79 84/245/85 77/246/79
f 77/246/80 84/245/86 87/244/80
f 4/13/8 84/227/8 89/247/8
f 89/247/7 84/227/7 4/13/7
f 4/13/8 90/248/8 85/228/8
f 85/228/7 90/248/7 4/13/7
f 91/249/7 1/9/7 86/229/7
f 86/229/8 1/9/8 91/249/8
f 79/250/81 90/251/87 86/252/87
f 86/252/88 90/251/88 79/250/82
f 90/251/87 79/250/81 85/253/81
f 85/253/82 79/250/82 90/251/88
f 87/234/7 1/9/7 92/254/7
f 92/254/8 1/9/8 87/234/8
f 83/240/71 82/239/83 88/236/83
f 88/236/84 82/239/84 83/240/72
f 84/245/85 87/244/79 92/255/85
f 92/255/86 87/244/80 84/245/86
f 92/256/85 89/257/3 84/258/85
f 84/258/86 89/257/5 92/256/86
f 4/13/8 89/247/8 93/259/8
f 93/259/7 89/247/7 4/13/7
f 4/13/8 94/260/8 90/248/8
f 90/248/7 94/260/7 4/13/7
f 95/261/7 1/9/7 91/249/7
f 91/249/8 1/9/8 95/261/8
f 90/262/87 91/263/89 86/264/87
f 86/264/88 91/263/90 90/262/88
f 92/254/7 1/9/7 96/265/7
f 96/265/8 1/9/8 92/254/8
f 89/257/3 92/256/85 96/266/3
f 96/266/5 92/256/86 89/257/5
f 96/267/3 93/268/91 89/269/3
f 89/269/5 93/268/92 96/267/5
f 4/13/8 93/259/8 97/270/8
f 97/270/7 93/259/7 4/13/7
f 4/13/8 98/271/8 94/260/8
f 94/260/7 98/271/7 4/13/7
f 91/263/89 90/262/87 94/272/89
f 94/272/90 90/262/88 91/263/90
f 99/273/7 1/9/7 95/261/7
f 95/261/8 1/9/8 99/273/8
f 94/274/89 95/275/93 91/276/89
f 91/276/90 95/275/94 94/274/90
f 96/265/7 1/9/7 100/277/7
f 100/277/8 1/9/8 96/265/8
f 93/268/91 96/267/3 100/278/91
f 100/278/92 96/267/5 93/268/92
f 100/279/91 97/280/95 93/281/91
f 93/281/92 97/280/96 100/279/92
f 4/13/8 97/270/8 101/282/8
f 101/282/7 97/270/7 4/13/7
f 4/13/8 102/283/8 98/271/8
f 98/271/7 102/283/7 4/13/7
f 95/275/93 94/274/89 98/284/93
f 98/284/94 94/274/90 95/275/94
f 103/285/7 1/9/7 99/273/7
f 99/273/8 1/9/8 103/285/8
f 98/286/93 99/287/97 95/288/93
f 95/288/94 99/287/98 98/286/94
f 100/277/7 1/9/7 104/289/7
f 104/289/8 1/9/8 100/277/8
f 97/280/95 100/279/91 104/290/95
f 104/290/96 100/279/92 97/280/96
f 104/291/95 101/292/99 97/293/95
f 97/293/96 101/292/100 104/291/96
f 4/13/8 101/282/8 102/283/8
f 102/283/7 101/282/7 4/13/7
f 99/287/97 98/286/93 102/294/97
f 102/294/98 98/286/94 99/287/98
f 104/289/7 1/9/7 103/285/7
f 103/285/8 1/9/8 104/289/8
f 102/295/97 103/296/99 99/297/97
f 99/297/98 103/296/100 102/295/98
f 101/292/99 104/291/95 103/298/99
f 103/298/100 104/291/96 101/292/100
f 103/296/99 102/295/97 101/299/99
f 101/299/100 102/295/98 103/296/100
