# SSTK version 0.8.0
# 57
mtllib original-57.mtl
o #ID336
v -0.062859 0.091864 -0.708468
v -0.071164 0.091864 -0.459321
v -0.062859 0.091864 -0.459321
v -0.071164 0.091864 -0.708468
v -0.071164 0.091864 -0.708468
v -0.062859 0.091864 -0.708468
v -0.071164 0.091864 -0.459321
v -0.062859 0.091864 -0.459321
v -0.071164 0.091864 -0.459321
v -0.062859 -0.032709 -0.459321
v -0.062859 0.091864 -0.459321
v 0.045105 0.091864 -0.459321
v 0.05341 -0.041014 -0.459321
v 0.05341 0.091864 -0.459321
v 0.045105 -0.032709 -0.459321
v -0.071164 -0.041014 -0.459321
v -0.071164 0.091864 -0.459321
v -0.062859 -0.032709 -0.459321
v -0.071164 -0.041014 -0.459321
v 0.045105 -0.032709 -0.459321
v 0.05341 -0.041014 -0.459321
v 0.045105 0.091864 -0.459321
v 0.05341 0.091864 -0.459321
v -0.062859 0.091864 -0.459321
v -0.062859 0.091864 -0.708468
v -0.062859 -0.032709 -0.459321
v -0.062859 -0.032709 -0.708468
v -0.062859 0.091864 -0.459321
v -0.062859 0.091864 -0.459321
v -0.062859 0.091864 -0.708468
v -0.062859 -0.032709 -0.459321
v -0.062859 -0.032709 -0.708468
v -0.033792 -0.032709 -0.708468
v -0.033792 0.026256 -0.708468
v 0.016038 0.026256 -0.708468
v -0.033792 -0.031879 -0.708468
v 0.05341 -0.041014 -0.708468
v 0.045105 -0.032709 -0.708468
v 0.05341 0.091864 -0.708468
v -0.071164 -0.041014 -0.708468
v 0.016038 -0.032709 -0.708468
v 0.016038 -0.031879 -0.708468
v -0.062859 -0.032709 -0.708468
v -0.062859 0.091864 -0.708468
v -0.071164 0.091864 -0.708468
v 0.045105 0.091864 -0.708468
v 0.045105 -0.032709 -0.708468
v 0.05341 0.091864 -0.708468
v 0.045105 0.091864 -0.708468
v -0.071164 0.091864 -0.708468
v -0.071164 -0.041014 -0.708468
v -0.062859 0.091864 -0.708468
v -0.062859 -0.032709 -0.708468
v -0.033792 -0.032709 -0.708468
v 0.016038 0.026256 -0.708468
v 0.016038 -0.031879 -0.708468
v 0.016038 -0.032709 -0.708468
v 0.05341 -0.041014 -0.708468
v -0.033792 -0.031879 -0.708468
v -0.033792 0.026256 -0.708468
v -0.071164 -0.041014 -0.708468
v 0.05341 -0.041014 -0.459321
v -0.071164 -0.041014 -0.459321
v 0.05341 -0.041014 -0.708468
v 0.05341 -0.041014 -0.708468
v -0.071164 -0.041014 -0.708468
v 0.05341 -0.041014 -0.459321
v -0.071164 -0.041014 -0.459321
v 0.05341 0.091864 -0.708468
v 0.05341 -0.041014 -0.459321
v 0.05341 -0.041014 -0.708468
v 0.05341 0.091864 -0.459321
v 0.05341 0.091864 -0.459321
v 0.05341 0.091864 -0.708468
v 0.05341 -0.041014 -0.459321
v 0.05341 -0.041014 -0.708468
v 0.05341 0.091864 -0.708468
v 0.045105 0.091864 -0.459321
v 0.05341 0.091864 -0.459321
v 0.045105 0.091864 -0.708468
v 0.045105 0.091864 -0.708468
v 0.05341 0.091864 -0.708468
v 0.045105 0.091864 -0.459321
v 0.05341 0.091864 -0.459321
v 0.045105 0.091864 -0.459321
v 0.045105 -0.032709 -0.708468
v 0.045105 -0.032709 -0.459321
v 0.045105 0.091864 -0.708468
v 0.045105 0.091864 -0.708468
v 0.045105 0.091864 -0.459321
v 0.045105 -0.032709 -0.708468
v 0.045105 -0.032709 -0.459321
v 0.045105 -0.032709 -0.708468
v 0.016038 -0.032709 -0.700163
v 0.045105 -0.032709 -0.459321
v 0.016038 -0.032709 -0.708468
v -0.062859 -0.032709 -0.708468
v -0.062859 -0.032709 -0.459321
v -0.033792 -0.032709 -0.700163
v -0.033792 -0.032709 -0.708468
v -0.033792 -0.032709 -0.708468
v -0.033792 -0.032709 -0.700163
v -0.062859 -0.032709 -0.708468
v 0.016038 -0.032709 -0.700163
v 0.045105 -0.032709 -0.459321
v -0.062859 -0.032709 -0.459321
v 0.016038 -0.032709 -0.708468
v 0.045105 -0.032709 -0.708468
v -0.033792 -0.031879 -0.700163
v -0.033792 -0.032709 -0.708468
v -0.033792 -0.032709 -0.700163
v -0.033792 -0.031879 -0.708468
v -0.033792 -0.031879 -0.708468
v -0.033792 -0.031879 -0.700163
v -0.033792 -0.032709 -0.708468
v -0.033792 -0.032709 -0.700163
v -0.033792 0.026256 -0.700163
v -0.033792 0.026256 -0.708468
v -0.033792 0.026256 -0.708468
v -0.033792 0.026256 -0.700163
v 0.016038 0.026256 -0.708468
v -0.033792 0.026256 -0.700163
v 0.016038 0.026256 -0.700163
v -0.033792 0.026256 -0.708468
v -0.033792 0.026256 -0.708468
v 0.016038 0.026256 -0.708468
v -0.033792 0.026256 -0.700163
v 0.016038 0.026256 -0.700163
v 0.016038 0.026256 -0.708468
v 0.016038 -0.031879 -0.700163
v 0.016038 -0.031879 -0.708468
v 0.016038 0.026256 -0.700163
v 0.016038 0.026256 -0.700163
v 0.016038 0.026256 -0.708468
v 0.016038 -0.031879 -0.700163
v 0.016038 -0.031879 -0.708468
v 0.016038 -0.032709 -0.700163
v 0.016038 -0.032709 -0.708468
v 0.016038 -0.032709 -0.700163
v 0.016038 -0.032709 -0.708468
v -0.033792 -0.031879 -0.700163
v 0.016038 -0.032709 -0.700163
v 0.016038 -0.031879 -0.700163
v -0.033792 -0.032709 -0.700163
v -0.033792 -0.032709 -0.700163
v -0.033792 -0.031879 -0.700163
v 0.016038 -0.032709 -0.700163
v 0.016038 -0.031879 -0.700163
v -0.033792 0.026256 -0.700163
v 0.016038 -0.031879 -0.700163
v 0.016038 0.026256 -0.700163
v -0.033792 -0.031879 -0.700163
v -0.033792 -0.031879 -0.700163
v -0.033792 0.026256 -0.700163
v 0.016038 -0.031879 -0.700163
v 0.016038 0.026256 -0.700163
vn 0.0 1.0 0.0
vn 0.0 -1.0 0.0
vn 0.0 0.0 1.0
vn 0.0 0.0 -1.0
vn 1.0 0.0 0.0
vn -1.0 0.0 0.0
usemtl material_0_0
f 1//1 2//1 3//1
f 2//1 1//1 4//1
f 5//2 6//2 7//2
f 8//2 7//2 6//2
f 9//3 10//3 11//3
f 12//3 13//3 14//3
f 13//3 12//3 15//3
f 13//3 15//3 16//3
f 16//3 15//3 10//3
f 16//3 10//3 9//3
f 17//4 18//4 19//4
f 18//4 20//4 19//4
f 19//4 20//4 21//4
f 20//4 22//4 21//4
f 23//4 21//4 22//4
f 24//4 18//4 17//4
f 25//5 26//5 27//5
f 26//5 25//5 28//5
f 29//6 30//6 31//6
f 32//6 31//6 30//6
f 33//4 34//4 35//4
f 34//4 33//4 36//4
f 37//4 38//4 39//4
f 38//4 37//4 40//4
f 38//4 40//4 41//4
f 41//4 40//4 42//4
f 42//4 40//4 33//4
f 42//4 33//4 35//4
f 33//4 40//4 43//4
f 43//4 40//4 44//4
f 44//4 40//4 45//4
f 46//4 39//4 38//4
f 47//3 48//3 49//3
f 50//3 51//3 52//3
f 52//3 51//3 53//3
f 53//3 51//3 54//3
f 55//3 54//3 56//3
f 54//3 51//3 56//3
f 56//3 51//3 57//3
f 57//3 51//3 47//3
f 51//3 58//3 47//3
f 48//3 47//3 58//3
f 59//3 54//3 60//3
f 55//3 60//3 54//3
f 61//2 62//2 63//2
f 62//2 61//2 64//2
f 65//1 66//1 67//1
f 68//1 67//1 66//1
f 69//5 70//5 71//5
f 70//5 69//5 72//5
f 73//6 74//6 75//6
f 76//6 75//6 74//6
f 77//1 78//1 79//1
f 78//1 77//1 80//1
f 81//2 82//2 83//2
f 84//2 83//2 82//2
f 85//6 86//6 87//6
f 86//6 85//6 88//6
f 89//5 90//5 91//5
f 92//5 91//5 90//5
f 93//1 94//1 95//1
f 94//1 93//1 96//1
f 95//1 97//1 98//1
f 97//1 95//1 99//1
f 99//1 95//1 94//1
f 97//1 99//1 100//1
f 101//2 102//2 103//2
f 104//2 105//2 102//2
f 102//2 105//2 103//2
f 106//2 103//2 105//2
f 107//2 108//2 104//2
f 105//2 104//2 108//2
f 109//6 110//6 111//6
f 110//6 109//6 112//6
f 113//5 114//5 115//5
f 116//5 115//5 114//5
f 117//6 112//6 109//6
f 112//6 117//6 118//6
f 119//5 120//5 113//5
f 114//5 113//5 120//5
f 121//1 122//1 123//1
f 122//1 121//1 124//1
f 125//2 126//2 127//2
f 128//2 127//2 126//2
f 129//5 130//5 131//5
f 130//5 129//5 132//5
f 133//6 134//6 135//6
f 136//6 135//6 134//6
f 131//5 137//5 138//5
f 137//5 131//5 130//5
f 135//6 136//6 139//6
f 140//6 139//6 136//6
f 141//3 142//3 143//3
f 142//3 141//3 144//3
f 145//4 146//4 147//4
f 148//4 147//4 146//4
f 149//3 150//3 151//3
f 150//3 149//3 152//3
f 153//4 154//4 155//4
f 156//4 155//4 154//4
