# SSTK version 0.8.0
# 87
mtllib original-87.mtl
o #ID539
v 0.060884 0.217778 -0.048943
v 0.065037 0.215037 -0.050694
v 0.065037 0.217778 -0.048943
v 0.060884 0.215037 -0.050694
v 0.060884 0.215037 -0.050694
v 0.060884 0.217778 -0.048943
v 0.065037 0.215037 -0.050694
v 0.065037 0.217778 -0.048943
v 0.060884 0.211344 -0.05598
v 0.060884 0.210789 -0.062404
v 0.060884 0.210643 -0.059155
v 0.060884 0.212842 -0.053094
v 0.060884 0.21177 -0.065505
v 0.060884 0.215037 -0.050694
v 0.060884 0.21352 -0.068245
v 0.060884 0.217778 -0.048943
v 0.060884 0.21592 -0.07044
v 0.060884 0.220878 -0.047962
v 0.060884 0.218807 -0.071938
v 0.060884 0.224127 -0.047817
v 0.060884 0.221982 -0.072639
v 0.060884 0.227303 -0.048517
v 0.060884 0.225231 -0.072494
v 0.060884 0.230189 -0.050016
v 0.060884 0.228331 -0.071512
v 0.060884 0.232589 -0.05221
v 0.060884 0.231072 -0.069762
v 0.060884 0.234339 -0.054951
v 0.060884 0.233267 -0.067362
v 0.060884 0.23532 -0.058051
v 0.060884 0.234765 -0.064476
v 0.060884 0.235466 -0.0613
v 0.060884 0.235466 -0.0613
v 0.060884 0.23532 -0.058051
v 0.060884 0.234765 -0.064476
v 0.060884 0.233267 -0.067362
v 0.060884 0.234339 -0.054951
v 0.060884 0.231072 -0.069762
v 0.060884 0.232589 -0.05221
v 0.060884 0.228331 -0.071512
v 0.060884 0.230189 -0.050016
v 0.060884 0.225231 -0.072494
v 0.060884 0.227303 -0.048517
v 0.060884 0.221982 -0.072639
v 0.060884 0.224127 -0.047817
v 0.060884 0.218807 -0.071938
v 0.060884 0.220878 -0.047962
v 0.060884 0.21592 -0.07044
v 0.060884 0.217778 -0.048943
v 0.060884 0.21352 -0.068245
v 0.060884 0.215037 -0.050694
v 0.060884 0.21177 -0.065505
v 0.060884 0.212842 -0.053094
v 0.060884 0.210789 -0.062404
v 0.060884 0.211344 -0.05598
v 0.060884 0.210643 -0.059155
v 0.060884 0.212842 -0.053094
v 0.065037 0.212842 -0.053094
v 0.065037 0.212842 -0.053094
v 0.060884 0.212842 -0.053094
v 0.065037 0.21352 -0.068245
v 0.065037 0.214913 -0.061672
v 0.065037 0.214816 -0.059516
v 0.065037 0.21592 -0.07044
v 0.065037 0.215564 -0.06373
v 0.065037 0.216726 -0.06555
v 0.065037 0.218807 -0.071938
v 0.065037 0.218319 -0.067007
v 0.065037 0.220235 -0.068001
v 0.065037 0.221982 -0.072639
v 0.065037 0.222343 -0.068466
v 0.065037 0.224499 -0.06837
v 0.065037 0.225231 -0.072494
v 0.065037 0.226557 -0.067718
v 0.065037 0.228331 -0.071512
v 0.065037 0.228377 -0.066557
v 0.065037 0.229833 -0.064963
v 0.065037 0.231072 -0.069762
v 0.065037 0.230828 -0.063048
v 0.065037 0.231293 -0.06094
v 0.065037 0.232589 -0.05221
v 0.065037 0.234339 -0.054951
v 0.065037 0.233267 -0.067362
v 0.065037 0.23532 -0.058051
v 0.065037 0.234765 -0.064476
v 0.065037 0.235466 -0.0613
v 0.065037 0.210789 -0.062404
v 0.065037 0.211344 -0.05598
v 0.065037 0.210643 -0.059155
v 0.065037 0.212842 -0.053094
v 0.065037 0.21177 -0.065505
v 0.065037 0.215037 -0.050694
v 0.065037 0.215281 -0.057408
v 0.065037 0.217778 -0.048943
v 0.065037 0.216276 -0.055492
v 0.065037 0.217733 -0.053899
v 0.065037 0.220878 -0.047962
v 0.065037 0.219552 -0.052737
v 0.065037 0.22161 -0.052086
v 0.065037 0.224127 -0.047817
v 0.065037 0.223766 -0.051989
v 0.065037 0.227303 -0.048517
v 0.065037 0.225874 -0.052454
v 0.065037 0.22779 -0.053449
v 0.065037 0.230189 -0.050016
v 0.065037 0.229383 -0.054906
v 0.065037 0.230545 -0.056725
v 0.065037 0.231196 -0.058783
v 0.065037 0.231293 -0.06094
v 0.065037 0.231196 -0.058783
v 0.065037 0.232589 -0.05221
v 0.065037 0.230545 -0.056725
v 0.065037 0.230189 -0.050016
v 0.065037 0.229383 -0.054906
v 0.065037 0.22779 -0.053449
v 0.065037 0.227303 -0.048517
v 0.065037 0.225874 -0.052454
v 0.065037 0.223766 -0.051989
v 0.065037 0.224127 -0.047817
v 0.065037 0.22161 -0.052086
v 0.065037 0.220878 -0.047962
v 0.065037 0.219552 -0.052737
v 0.065037 0.217733 -0.053899
v 0.065037 0.217778 -0.048943
v 0.065037 0.216276 -0.055492
v 0.065037 0.215281 -0.057408
v 0.065037 0.215037 -0.050694
v 0.065037 0.214816 -0.059516
v 0.065037 0.21352 -0.068245
v 0.065037 0.21177 -0.065505
v 0.065037 0.212842 -0.053094
v 0.065037 0.210789 -0.062404
v 0.065037 0.211344 -0.05598
v 0.065037 0.210643 -0.059155
v 0.065037 0.235466 -0.0613
v 0.065037 0.234765 -0.064476
v 0.065037 0.23532 -0.058051
v 0.065037 0.233267 -0.067362
v 0.065037 0.234339 -0.054951
v 0.065037 0.231072 -0.069762
v 0.065037 0.230828 -0.063048
v 0.065037 0.229833 -0.064963
v 0.065037 0.228331 -0.071512
v 0.065037 0.228377 -0.066557
v 0.065037 0.226557 -0.067718
v 0.065037 0.225231 -0.072494
v 0.065037 0.224499 -0.06837
v 0.065037 0.221982 -0.072639
v 0.065037 0.222343 -0.068466
v 0.065037 0.220235 -0.068001
v 0.065037 0.218807 -0.071938
v 0.065037 0.218319 -0.067007
v 0.065037 0.216726 -0.06555
v 0.065037 0.21592 -0.07044
v 0.065037 0.215564 -0.06373
v 0.065037 0.214913 -0.061672
v 0.060884 0.220878 -0.047962
v 0.065037 0.220878 -0.047962
v 0.060884 0.220878 -0.047962
v 0.065037 0.220878 -0.047962
v 0.060884 0.21352 -0.068245
v 0.065037 0.21592 -0.07044
v 0.065037 0.21352 -0.068245
v 0.060884 0.21592 -0.07044
v 0.060884 0.21592 -0.07044
v 0.060884 0.21352 -0.068245
v 0.065037 0.21592 -0.07044
v 0.065037 0.21352 -0.068245
v 0.065037 0.21177 -0.065505
v 0.060884 0.21177 -0.065505
v 0.065037 0.21177 -0.065505
v 0.060884 0.21177 -0.065505
v 0.065037 0.210789 -0.062404
v 0.060884 0.210789 -0.062404
v 0.065037 0.210789 -0.062404
v 0.060884 0.210789 -0.062404
v 0.065037 0.210643 -0.059155
v 0.060884 0.210643 -0.059155
v 0.065037 0.210643 -0.059155
v 0.060884 0.210643 -0.059155
v 0.065037 0.211344 -0.05598
v 0.060884 0.211344 -0.05598
v 0.065037 0.211344 -0.05598
v 0.060884 0.211344 -0.05598
v 0.060884 0.224127 -0.047817
v 0.065037 0.224127 -0.047817
v 0.060884 0.224127 -0.047817
v 0.065037 0.224127 -0.047817
v 0.060884 0.227303 -0.048517
v 0.065037 0.227303 -0.048517
v 0.060884 0.227303 -0.048517
v 0.065037 0.227303 -0.048517
v 0.060884 0.230189 -0.050016
v 0.065037 0.230189 -0.050016
v 0.060884 0.230189 -0.050016
v 0.065037 0.230189 -0.050016
v 0.060884 0.232589 -0.05221
v 0.065037 0.232589 -0.05221
v 0.060884 0.232589 -0.05221
v 0.065037 0.232589 -0.05221
v 0.065037 0.234339 -0.054951
v 0.060884 0.234339 -0.054951
v 0.060884 0.234339 -0.054951
v 0.065037 0.234339 -0.054951
v 0.065037 0.23532 -0.058051
v 0.060884 0.23532 -0.058051
v 0.060884 0.23532 -0.058051
v 0.065037 0.23532 -0.058051
v 0.065037 0.235466 -0.0613
v 0.060884 0.235466 -0.0613
v 0.060884 0.235466 -0.0613
v 0.065037 0.235466 -0.0613
v 0.065037 0.234765 -0.064476
v 0.060884 0.234765 -0.064476
v 0.060884 0.234765 -0.064476
v 0.065037 0.234765 -0.064476
v 0.065037 0.233267 -0.067362
v 0.060884 0.233267 -0.067362
v 0.060884 0.233267 -0.067362
v 0.065037 0.233267 -0.067362
v 0.065037 0.231072 -0.069762
v 0.060884 0.231072 -0.069762
v 0.060884 0.231072 -0.069762
v 0.065037 0.231072 -0.069762
v 0.060884 0.228331 -0.071512
v 0.065037 0.228331 -0.071512
v 0.060884 0.228331 -0.071512
v 0.065037 0.228331 -0.071512
v 0.060884 0.225231 -0.072494
v 0.065037 0.225231 -0.072494
v 0.060884 0.225231 -0.072494
v 0.065037 0.225231 -0.072494
v 0.060884 0.221982 -0.072639
v 0.065037 0.221982 -0.072639
v 0.060884 0.221982 -0.072639
v 0.065037 0.221982 -0.072639
v 0.060884 0.218807 -0.071938
v 0.065037 0.218807 -0.071938
v 0.060884 0.218807 -0.071938
v 0.065037 0.218807 -0.071938
vt -0.0328084 0.03086732
vt 0 0.005173185
vt 0 0.03086732
vt -0.0328084 0.005173185
vt -0.07305295 0.003326394
vt -0.1240016 0.003381116
vt -0.09853085 0
vt -0.04930412 0.01313361
vt -0.1477293 0.01323933
vt -0.02890281 0.0287533
vt -0.168097 0.02890281
vt -0.01323933 0.04912102
vt -0.1837167 0.04930412
vt -0.003381116 0.07284873
vt -0.1935239 0.07305295
vt 0 0.09831943
vt -0.1968503 0.09853085
vt -0.003326394 0.1237973
vt -0.1934692 0.1240016
vt -0.01313361 0.1475462
vt -0.183611 0.1477293
vt -0.0287533 0.1679475
vt -0.1679475 0.168097
vt -0.04912102 0.183611
vt -0.1475462 0.1837167
vt -0.07284873 0.1934692
vt -0.1237973 0.1935239
vt -0.09831943 0.1968503
vt -0.0328084 -0.03116376
vt 0 -0.005469632
vt -0.0328084 -0.005469632
vt 0 -0.03116376
vt 0.168097 0.02890281
vt 0.1154025 0.03533583
vt 0.09849531 0.03309148
vt 0.1837167 0.04930412
vt 0.1311527 0.04187962
vt 0.1446726 0.05227689
vt 0.1935239 0.07305295
vt 0.1550408 0.06581908
vt 0.1615508 0.08158333
vt 0.1968503 0.09853085
vt 0.1637588 0.09849531
vt 0.1615144 0.1154025
vt 0.1934692 0.1240016
vt 0.1549707 0.1311527
vt 0.183611 0.1477293
vt 0.1445734 0.1446726
vt 0.1310312 0.1550408
vt 0.1679475 0.168097
vt 0.115267 0.1615508
vt 0.09835497 0.1637588
vt 0.0287533 0.1679475
vt 0.04912102 0.183611
vt 0.1475462 0.1837167
vt 0.07284873 0.1934692
vt 0.1237973 0.1935239
vt 0.09831943 0.1968503
vt 0.1240016 0.003381116
vt 0.07305295 0.003326394
vt 0.09853085 0
vt 0.04930412 0.01313361
vt 0.1477293 0.01323933
vt 0.02890281 0.0287533
vt 0.08158333 0.03529951
vt 0.01323933 0.04912102
vt 0.06581908 0.04180945
vt 0.05227689 0.05217765
vt 0.003381116 0.07284873
vt 0.04187962 0.06569754
vt 0.03533583 0.08144776
vt 0.03309148 0.09835497
vt 0.003326394 0.1237973
vt 0.03529951 0.115267
vt 0.04180945 0.1310312
vt 0.01313361 0.1475462
vt 0.05217765 0.1445734
vt 0.06569754 0.1549707
vt 0.08144776 0.1615144
vt -0.0328084 0.06597622
vt 0 0.04028208
vt 0 0.06597622
vt -0.0328084 0.04028208
vt 0.0328084 0.1251367
vt 0 0.1508308
vt 0 0.1251367
vt 0.0328084 0.1508308
vt 0.0328084 0.1508698
vt 0 0.1251757
vt 0.0328084 0.1251757
vt 0 0.1508698
vt 0.0328084 0.1415028
vt 0 0.1158087
vt 0.0328084 0.1158087
vt 0 0.1415028
vt 0.0328084 0.1233682
vt 0 0.09767404
vt 0.0328084 0.09767404
vt 0 0.1233682
vt -0.0328084 -0.09770167
vt 0 -0.07200753
vt -0.0328084 -0.07200753
vt 0 -0.09770167
vt -0.0328084 -0.06625246
vt 0 -0.04055833
vt -0.0328084 -0.04055833
vt 0 -0.06625246
vt -0.0328084 0.09746445
vt 0 0.07177032
vt 0 0.09746445
vt -0.0328084 0.07177032
vt -0.0328084 0.1231861
vt 0 0.09749202
vt 0 0.1231861
vt -0.0328084 0.09749202
vt -0.0328084 0.1413884
vt 0 0.1156943
vt 0 0.1413884
vt -0.0328084 0.1156943
vt -0.0328084 0.1508308
vt -0.0328084 0.1251367
vt -0.0328084 0.1251757
vt -0.0328084 0.1508698
vt -0.0328084 0.1158087
vt -0.0328084 0.1415028
vt -0.0328084 0.09767404
vt -0.0328084 0.1233682
vt 0.0328084 -0.07200753
vt 0.0328084 -0.09770167
vt 0.0328084 -0.04055833
vt 0.0328084 -0.06625246
vt 0.0328084 -0.005469632
vt 0.0328084 -0.03116376
vt 0.0328084 0.005173185
vt 0.0328084 0.03086732
vt 0.0328084 0.04028208
vt 0.0328084 0.06597622
vt 0.0328084 0.07177032
vt 0.0328084 0.09746445
vt 0.0328084 0.09749202
vt 0.0328084 0.1231861
vt 0.0328084 0.1156943
vt 0.0328084 0.1413884
vn 0.0 -0.42359145758722 0.9058533419153093
vn 0.0 -0.6436099916911455 0.7653536297655635
vn 0.0 0.6436099916911455 -0.7653536297655635
vn 0.0 0.42359145758722 -0.9058533419153093
vn -1.0 0.0 0.0
vn 1.0 0.0 0.0
vn 0.0 -0.8197675935473918 0.5726963353903343
vn 0.0 0.8197675935473918 -0.5726963353903343
vn 0.0 -0.174705858194531 0.984620669655331
vn 0.0 0.174705858194531 -0.984620669655331
vn 0.0 -0.7653536297655635 -0.6436099916911455
vn 0.0 -0.5726963353903343 -0.8197675935473918
vn 0.0 0.5726963353903343 0.8197675935473918
vn 0.0 0.7653536297655635 0.6436099916911455
vn 0.0 -0.9058533419153093 -0.42359145758722
vn 0.0 0.9058533419153093 0.42359145758722
vn 0.0 -0.984620669655331 -0.174705858194531
vn 0.0 0.984620669655331 0.174705858194531
vn 0.0 -0.9962877339749402 0.08608571966986546
vn 0.0 0.9962877339749402 -0.08608571966986546
vn 0.0 -0.9400594447984336 0.34101061603014743
vn 0.0 0.9400594447984336 -0.34101061603014743
vn 0.0 0.08608571966986546 0.9962877339749402
vn 0.0 -0.08608571966986546 -0.9962877339749402
vn 0.0 0.34101061603014743 0.9400594447984336
vn 0.0 -0.34101061603014743 -0.9400594447984336
usemtl material_0_0
f 1/1/1 2/2/2 3/3/1
f 2/2/2 1/1/1 4/4/2
f 5/4/3 6/1/4 7/2/3
f 8/3/4 7/2/3 6/1/4
f 9/5/5 10/6/5 11/7/5
f 10/6/5 9/5/5 12/8/5
f 10/6/5 12/8/5 13/9/5
f 13/9/5 12/8/5 14/10/5
f 13/9/5 14/10/5 15/11/5
f 15/11/5 14/10/5 16/12/5
f 15/11/5 16/12/5 17/13/5
f 17/13/5 16/12/5 18/14/5
f 17/13/5 18/14/5 19/15/5
f 19/15/5 18/14/5 20/16/5
f 19/15/5 20/16/5 21/17/5
f 21/17/5 20/16/5 22/18/5
f 21/17/5 22/18/5 23/19/5
f 23/19/5 22/18/5 24/20/5
f 23/19/5 24/20/5 25/21/5
f 25/21/5 24/20/5 26/22/5
f 25/21/5 26/22/5 27/23/5
f 27/23/5 26/22/5 28/24/5
f 27/23/5 28/24/5 29/25/5
f 29/25/5 28/24/5 30/26/5
f 29/25/5 30/26/5 31/27/5
f 31/27/5 30/26/5 32/28/5
f 33/28/6 34/26/6 35/27/6
f 35/27/6 34/26/6 36/25/6
f 34/26/6 37/24/6 36/25/6
f 36/25/6 37/24/6 38/23/6
f 37/24/6 39/22/6 38/23/6
f 38/23/6 39/22/6 40/21/6
f 39/22/6 41/20/6 40/21/6
f 40/21/6 41/20/6 42/19/6
f 41/20/6 43/18/6 42/19/6
f 42/19/6 43/18/6 44/17/6
f 43/18/6 45/16/6 44/17/6
f 44/17/6 45/16/6 46/15/6
f 45/16/6 47/14/6 46/15/6
f 46/15/6 47/14/6 48/13/6
f 47/14/6 49/12/6 48/13/6
f 48/13/6 49/12/6 50/11/6
f 49/12/6 51/10/6 50/11/6
f 50/11/6 51/10/6 52/9/6
f 51/10/6 53/8/6 52/9/6
f 52/9/6 53/8/6 54/6/6
f 53/8/6 55/5/6 54/6/6
f 56/7/6 54/6/6 55/5/6
f 57/29/7 2/30/2 4/31/2
f 2/30/2 57/29/7 58/32/7
f 59/32/8 60/29/8 7/30/3
f 5/31/3 7/30/3 60/29/8
f 61/33/6 62/34/6 63/35/6
f 62/34/6 61/33/6 64/36/6
f 62/34/6 64/36/6 65/37/6
f 65/37/6 64/36/6 66/38/6
f 66/38/6 64/36/6 67/39/6
f 66/38/6 67/39/6 68/40/6
f 68/40/6 67/39/6 69/41/6
f 69/41/6 67/39/6 70/42/6
f 69/41/6 70/42/6 71/43/6
f 71/43/6 70/42/6 72/44/6
f 72/44/6 70/42/6 73/45/6
f 72/44/6 73/45/6 74/46/6
f 74/46/6 73/45/6 75/47/6
f 74/46/6 75/47/6 76/48/6
f 76/48/6 75/47/6 77/49/6
f 77/49/6 75/47/6 78/50/6
f 77/49/6 78/50/6 79/51/6
f 79/51/6 78/50/6 80/52/6
f 80/52/6 78/50/6 81/53/6
f 81/53/6 78/50/6 82/54/6
f 82/54/6 78/50/6 83/55/6
f 82/54/6 83/55/6 84/56/6
f 84/56/6 83/55/6 85/57/6
f 84/56/6 85/57/6 86/58/6
f 87/59/6 88/60/6 89/61/6
f 88/60/6 87/59/6 90/62/6
f 90/62/6 87/59/6 91/63/6
f 90/62/6 91/63/6 92/64/6
f 92/64/6 91/63/6 61/33/6
f 92/64/6 61/33/6 63/35/6
f 92/64/6 63/35/6 93/65/6
f 92/64/6 93/65/6 94/66/6
f 94/66/6 93/65/6 95/67/6
f 94/66/6 95/67/6 96/68/6
f 94/66/6 96/68/6 97/69/6
f 97/69/6 96/68/6 98/70/6
f 97/69/6 98/70/6 99/71/6
f 97/69/6 99/71/6 100/16/6
f 100/16/6 99/71/6 101/72/6
f 100/16/6 101/72/6 102/73/6
f 102/73/6 101/72/6 103/74/6
f 102/73/6 103/74/6 104/75/6
f 102/73/6 104/75/6 105/76/6
f 105/76/6 104/75/6 106/77/6
f 105/76/6 106/77/6 107/78/6
f 105/76/6 107/78/6 81/53/6
f 81/53/6 107/78/6 108/79/6
f 81/53/6 108/79/6 80/52/6
f 109/52/5 110/79/5 111/53/5
f 110/79/5 112/78/5 111/53/5
f 111/53/5 112/78/5 113/76/5
f 112/78/5 114/77/5 113/76/5
f 114/77/5 115/75/5 113/76/5
f 113/76/5 115/75/5 116/73/5
f 115/75/5 117/74/5 116/73/5
f 117/74/5 118/72/5 116/73/5
f 116/73/5 118/72/5 119/16/5
f 118/72/5 120/71/5 119/16/5
f 119/16/5 120/71/5 121/69/5
f 120/71/5 122/70/5 121/69/5
f 122/70/5 123/68/5 121/69/5
f 121/69/5 123/68/5 124/66/5
f 123/68/5 125/67/5 124/66/5
f 125/67/5 126/65/5 124/66/5
f 124/66/5 126/65/5 127/64/5
f 126/65/5 128/35/5 127/64/5
f 128/35/5 129/33/5 127/64/5
f 129/33/5 130/63/5 127/64/5
f 127/64/5 130/63/5 131/62/5
f 130/63/5 132/59/5 131/62/5
f 131/62/5 132/59/5 133/60/5
f 134/61/5 133/60/5 132/59/5
f 135/58/5 136/57/5 137/56/5
f 136/57/5 138/55/5 137/56/5
f 137/56/5 138/55/5 139/54/5
f 138/55/5 140/50/5 139/54/5
f 139/54/5 140/50/5 111/53/5
f 111/53/5 140/50/5 109/52/5
f 109/52/5 140/50/5 141/51/5
f 141/51/5 140/50/5 142/49/5
f 140/50/5 143/47/5 142/49/5
f 142/49/5 143/47/5 144/48/5
f 144/48/5 143/47/5 145/46/5
f 143/47/5 146/45/5 145/46/5
f 145/46/5 146/45/5 147/44/5
f 146/45/5 148/42/5 147/44/5
f 147/44/5 148/42/5 149/43/5
f 149/43/5 148/42/5 150/41/5
f 148/42/5 151/39/5 150/41/5
f 150/41/5 151/39/5 152/40/5
f 152/40/5 151/39/5 153/38/5
f 151/39/5 154/36/5 153/38/5
f 153/38/5 154/36/5 155/37/5
f 155/37/5 154/36/5 156/34/5
f 154/36/5 129/33/5 156/34/5
f 128/35/5 156/34/5 129/33/5
f 157/80/9 3/81/1 158/82/9
f 3/81/1 157/80/9 1/83/1
f 6/83/4 159/80/10 8/81/4
f 160/82/10 8/81/4 159/80/10
f 161/84/11 162/85/12 163/86/11
f 162/85/12 161/84/11 164/87/12
f 165/87/13 166/84/14 167/85/13
f 168/86/14 167/85/13 166/84/14
f 161/88/11 169/89/15 170/90/15
f 169/89/15 161/88/11 163/91/11
f 168/91/14 166/88/14 171/89/16
f 172/90/16 171/89/16 166/88/14
f 170/92/15 173/93/17 174/94/17
f 173/93/17 170/92/15 169/95/15
f 171/95/16 172/92/16 175/93/18
f 176/94/18 175/93/18 172/92/16
f 174/96/17 177/97/19 178/98/19
f 177/97/19 174/96/17 173/99/17
f 175/99/18 176/96/18 179/97/20
f 180/98/20 179/97/20 176/96/18
f 178/100/19 181/101/21 182/102/21
f 181/101/21 178/100/19 177/103/19
f 179/103/20 180/100/20 183/101/22
f 184/102/22 183/101/22 180/100/20
f 182/104/21 58/105/7 57/106/7
f 58/105/7 182/104/21 181/107/21
f 183/107/22 184/104/22 59/105/8
f 60/106/8 59/105/8 184/104/22
f 185/108/23 158/109/9 186/110/23
f 158/109/9 185/108/23 157/111/9
f 159/111/10 187/108/24 160/109/10
f 188/110/24 160/109/10 187/108/24
f 189/112/25 186/113/23 190/114/25
f 186/113/23 189/112/25 185/115/23
f 187/115/24 191/112/26 188/113/24
f 192/114/26 188/113/24 191/112/26
f 193/116/13 190/117/25 194/118/13
f 190/117/25 193/116/13 189/119/25
f 191/119/26 195/116/12 192/117/26
f 196/118/12 192/117/26 195/116/12
f 197/120/14 194/86/13 198/85/14
f 194/86/13 197/120/14 193/121/13
f 195/121/12 199/120/11 196/86/12
f 200/85/11 196/86/12 199/120/11
f 201/91/16 197/122/14 198/89/14
f 197/122/14 201/91/16 202/123/16
f 203/123/15 204/91/15 199/122/11
f 200/89/11 199/122/11 204/91/15
f 205/95/18 202/124/16 201/93/16
f 202/124/16 205/95/18 206/125/18
f 207/125/17 208/95/17 203/124/15
f 204/93/15 203/124/15 208/95/17
f 209/99/20 206/126/18 205/97/18
f 206/126/18 209/99/20 210/127/20
f 211/127/19 212/99/19 207/126/17
f 208/97/17 207/126/17 212/99/19
f 213/103/22 210/128/20 209/101/20
f 210/128/20 213/103/22 214/129/22
f 215/129/21 216/103/21 211/128/19
f 212/101/19 211/128/19 216/103/21
f 217/107/8 214/130/22 213/105/22
f 214/130/22 217/107/8 218/131/8
f 219/131/7 220/107/7 215/130/21
f 216/105/21 215/130/21 220/107/7
f 221/32/3 218/132/8 217/30/8
f 218/132/8 221/32/3 222/133/3
f 223/133/2 224/32/2 219/132/7
f 220/30/7 219/132/7 224/32/2
f 225/134/4 221/3/3 226/2/4
f 221/3/3 225/134/4 222/135/3
f 223/135/2 227/134/1 224/3/2
f 228/2/1 224/3/2 227/134/1
f 229/136/10 226/82/4 230/81/10
f 226/82/4 229/136/10 225/137/4
f 227/137/1 231/136/9 228/82/1
f 232/81/9 228/82/1 231/136/9
f 233/138/24 230/110/10 234/109/24
f 230/110/10 233/138/24 229/139/10
f 231/139/9 235/138/23 232/110/9
f 236/109/23 232/110/9 235/138/23
f 237/140/26 234/114/24 238/113/26
f 234/114/24 237/140/26 233/141/24
f 235/141/23 239/140/25 236/114/23
f 240/113/25 236/114/23 239/140/25
f 164/142/12 238/118/26 162/117/12
f 238/118/26 164/142/12 237/143/26
f 239/143/25 165/142/13 240/118/25
f 167/117/13 240/118/25 165/142/13
