# Blender v2.93.4 OBJ File: ''
# www.blender.org
mtllib original-19-bottom.mtl
o #ID114.003
v 0.440400 -0.182167 0.809155
v -0.436985 -0.185677 0.809155
v 0.440400 -0.185677 0.809155
v -0.436985 -0.182167 0.809155
v -0.436985 -0.182167 0.809155
v 0.440400 -0.182167 0.809155
v -0.436985 -0.185677 0.809155
v 0.440400 -0.185677 0.809155
v 0.440400 -0.185677 -0.068230
v 0.440400 -0.182167 0.809155
v 0.440400 -0.185677 0.809155
v 0.440400 -0.185677 -0.068230
v 0.440400 -0.182167 0.809155
v 0.440400 -0.185677 0.809155
v 0.440400 -0.182167 0.809155
v -0.433475 -0.182167 0.805645
v -0.436985 -0.182167 0.809155
v 0.436890 -0.182167 0.805645
v 0.436890 -0.182167 0.805645
v 0.440400 -0.182167 0.809155
v -0.433475 -0.182167 0.805645
v -0.436985 -0.182167 0.809155
v -0.436985 -0.182167 0.809155
v -0.436985 -0.185677 0.809155
v -0.436985 -0.185677 -0.068230
v -0.436985 -0.185677 -0.068230
v -0.436985 -0.185677 0.809155
v -0.436985 -0.182167 0.809155
v 0.440400 -0.185677 -0.068230
v -0.436985 -0.185677 0.809155
v -0.436985 -0.185677 -0.068230
v 0.440400 -0.185677 0.809155
v 0.440400 -0.185677 0.809155
v 0.440400 -0.185677 -0.068230
v -0.436985 -0.185677 0.809155
v -0.436985 -0.185677 -0.068230
v 0.440400 -0.185677 -0.068230
v -0.436985 -0.185677 -0.068230
v 0.440400 -0.185677 -0.068230
v -0.436985 -0.185677 -0.068230
v 0.436890 -0.182167 0.805645
v 0.440400 -0.182167 0.809155
v 0.436890 -0.182167 0.805645
v 0.440400 -0.182167 0.809155
v -0.433475 -0.182167 -0.064721
v 0.436890 -0.182167 -0.064721
v 0.436890 -0.182167 -0.064721
v -0.433475 -0.182167 -0.064721
v -0.436985 -0.182167 0.809155
v -0.433475 -0.182167 0.805645
v -0.436985 -0.182167 0.809155
v -0.433475 -0.182167 0.805645
v 0.436890 -0.182167 0.805645
v 0.436890 -0.182167 -0.064721
v 0.436890 -0.182167 -0.064721
v 0.436890 -0.182167 0.805645
v -0.433475 -0.182167 -0.064721
v -0.433475 -0.182167 0.805645
v -0.433475 -0.182167 -0.064721
v -0.433475 -0.182167 0.805645
v -0.433475 -0.182167 -0.064721
v 0.436890 -0.182167 -0.064721
v -0.433475 -0.182167 -0.064721
v 0.436890 -0.182167 -0.064721
vn 0.0000 -0.0000 1.0000
vn 0.0000 0.0000 -1.0000
vn 1.0000 -0.0000 0.0000
vn -1.0000 0.0000 0.0000
vn 0.0000 1.0000 -0.0000
vn 0.0000 -1.0000 0.0000
usemtl material_0_0.003
s 1
f 1//1 2//1 3//1
f 2//1 1//1 4//1
f 5//2 6//2 7//2
f 8//2 7//2 6//2
f 9//3 10//3 11//3
f 14//4 13//4 12//4
f 15//5 16//5 17//5
f 16//5 15//5 18//5
f 19//6 20//6 21//6
f 22//6 21//6 20//6
f 29//6 30//6 31//6
f 30//6 29//6 32//6
f 33//5 34//5 35//5
f 36//5 35//5 34//5
f 18//5 45//5 16//5
f 45//5 18//5 46//5
f 47//6 19//6 48//6
f 21//6 48//6 19//6
l 39 40
l 43 44
l 51 52
l 55 56
l 57 58
l 63 64
l 23 24
l 24 25
l 26 27
l 27 28
l 37 38
l 41 42
l 49 50
l 53 54
l 59 60
l 61 62
