# SSTK version 0.8.0
# 79
mtllib original-79.mtl
o #ID313
v -0.093211 0.239227 0.714731
v -0.093246 0.238374 0.714731
v -0.093352 0.238672 0.714731
v -0.092975 0.238260 0.714731
v -0.092791 0.240312 0.714731
v -0.092769 0.238346 0.714731
v -0.091782 0.242627 0.714731
v -0.092624 0.238602 0.714731
v -0.091971 0.239971 0.714731
v -0.091250 0.241077 0.714731
v -0.091151 0.242083 0.714731
v -0.090844 0.244556 0.714731
v -0.090728 0.243065 0.714731
v -0.088836 0.248195 0.714731
v -0.089915 0.244644 0.714731
v -0.088029 0.247862 0.714731
v -0.088424 0.248808 0.714731
v -0.088108 0.248966 0.714731
v -0.087836 0.248800 0.714731
v -0.087819 0.248232 0.714731
v -0.087749 0.248519 0.714731
v -0.090459 0.241922 0.714731
v -0.089853 0.243214 0.714731
v -0.089599 0.242504 0.714731
v -0.089139 0.243648 0.714731
v -0.089231 0.241689 0.714731
v -0.088591 0.242609 0.714731
v -0.088661 0.243793 0.714731
v -0.088371 0.243670 0.714731
v -0.088308 0.243043 0.714731
v -0.088214 0.243346 0.714731
v -0.090802 0.240209 0.714731
v -0.090835 0.238927 0.714731
v -0.090940 0.239374 0.714731
v -0.090616 0.238683 0.714731
v -0.090388 0.241154 0.714731
v -0.090292 0.238602 0.714731
v -0.090029 0.239926 0.714731
v -0.089695 0.240856 0.714731
v -0.089910 0.238679 0.714731
v -0.089972 0.239749 0.714731
v -0.089801 0.239690 0.714731
v -0.089485 0.238909 0.714731
v -0.089523 0.239795 0.714731
v -0.089165 0.240110 0.714731
v -0.088867 0.239455 0.714731
v -0.088205 0.241373 0.714731
v -0.088275 0.240198 0.714731
v -0.087775 0.241007 0.714731
v -0.087988 0.241630 0.714731
v -0.087793 0.241715 0.714731
v -0.087655 0.241662 0.714731
v -0.087609 0.241505 0.714731
vn 0 0 -1
vn 0 0 1
usemtl material_0_2
f 1//1 2//1 3//1
f 3//2 2//2 1//2
f 2//1 1//1 4//1
f 4//2 1//2 2//2
f 4//1 1//1 5//1
f 5//2 1//2 4//2
f 4//1 5//1 6//1
f 6//2 5//2 4//2
f 6//1 5//1 7//1
f 7//2 5//2 6//2
f 6//1 7//1 8//1
f 8//2 7//2 6//2
f 8//1 7//1 9//1
f 9//2 7//2 8//2
f 9//1 7//1 10//1
f 10//2 7//2 9//2
f 10//1 7//1 11//1
f 11//2 7//2 10//2
f 11//1 7//1 12//1
f 12//2 7//2 11//2
f 11//1 12//1 13//1
f 13//2 12//2 11//2
f 13//1 12//1 14//1
f 14//2 12//2 13//2
f 13//1 14//1 15//1
f 15//2 14//2 13//2
f 15//1 14//1 16//1
f 16//2 14//2 15//2
f 16//1 14//1 17//1
f 17//2 14//2 16//2
f 16//1 17//1 18//1
f 18//2 17//2 16//2
f 16//1 18//1 19//1
f 19//2 18//2 16//2
f 16//1 19//1 20//1
f 20//2 19//2 16//2
f 20//1 19//1 21//1
f 21//2 19//2 20//2
f 11//1 22//1 10//1
f 10//2 22//2 11//2
f 22//1 11//1 23//1
f 23//2 11//2 22//2
f 22//1 23//1 24//1
f 24//2 23//2 22//2
f 24//1 23//1 25//1
f 25//2 23//2 24//2
f 24//1 25//1 26//1
f 26//2 25//2 24//2
f 26//1 25//1 27//1
f 27//2 25//2 26//2
f 27//1 25//1 28//1
f 28//2 25//2 27//2
f 27//1 28//1 29//1
f 29//2 28//2 27//2
f 27//1 29//1 30//1
f 30//2 29//2 27//2
f 30//1 29//1 31//1
f 31//2 29//2 30//2
f 32//1 33//1 34//1
f 34//2 33//2 32//2
f 33//1 32//1 35//1
f 35//2 32//2 33//2
f 35//1 32//1 36//1
f 36//2 32//2 35//2
f 35//1 36//1 37//1
f 37//2 36//2 35//2
f 37//1 36//1 24//1
f 24//2 36//2 37//2
f 37//1 24//1 38//1
f 38//2 24//2 37//2
f 38//1 24//1 39//1
f 39//2 24//2 38//2
f 39//1 24//1 26//1
f 26//2 24//2 39//2
f 38//1 40//1 37//1
f 37//2 40//2 38//2
f 40//1 38//1 41//1
f 41//2 38//2 40//2
f 40//1 41//1 42//1
f 42//2 41//2 40//2
f 40//1 42//1 43//1
f 43//2 42//2 40//2
f 43//1 42//1 44//1
f 44//2 42//2 43//2
f 43//1 44//1 45//1
f 45//2 44//2 43//2
f 43//1 45//1 46//1
f 46//2 45//2 43//2
f 46//1 45//1 47//1
f 47//2 45//2 46//2
f 46//1 47//1 48//1
f 48//2 47//2 46//2
f 48//1 47//1 49//1
f 49//2 47//2 48//2
f 49//1 47//1 50//1
f 50//2 47//2 49//2
f 49//1 50//1 51//1
f 51//2 50//2 49//2
f 49//1 51//1 52//1
f 52//2 51//2 49//2
f 49//1 52//1 53//1
f 53//2 52//2 49//2
