# SSTK version 0.8.0
# 222
mtllib original-222.mtl
o #ID1074
v 0.375691 0.267829 -0.207521
v 0.375714 0.265683 -0.207625
v 0.375674 0.266892 -0.207392
v 0.375747 0.268660 -0.207908
v 0.375824 0.264693 -0.208325
v 0.375843 0.269386 -0.208554
v 0.375988 0.264034 -0.209385
v 0.375979 0.270007 -0.209457
v 0.376189 0.263814 -0.210697
v 0.376149 0.270503 -0.210586
v 0.376350 0.270858 -0.211910
v 0.376365 0.263988 -0.211852
v 0.376508 0.264509 -0.212801
v 0.376842 0.271142 -0.215141
v 0.376628 0.266888 -0.213647
v 0.376602 0.265287 -0.213435
v 0.376672 0.267465 -0.213946
v 0.376808 0.267657 -0.214843
v 0.376956 0.267515 -0.215807
v 0.377363 0.270840 -0.218552
v 0.377078 0.267089 -0.216599
v 0.377161 0.266453 -0.217128
v 0.377191 0.265680 -0.217304
v 0.377209 0.260230 -0.217301
v 0.377211 0.259425 -0.217301
v 0.376435 0.257740 -0.212176
v 0.376521 0.251588 -0.212602
v 0.376314 0.251683 -0.211245
v 0.376456 0.257004 -0.212296
v 0.376513 0.256477 -0.212659
v 0.376777 0.251739 -0.214280
v 0.376607 0.256162 -0.213263
v 0.376736 0.256056 -0.214110
v 0.376948 0.256267 -0.215505
v 0.377013 0.252192 -0.215841
v 0.377098 0.256898 -0.216502
v 0.377231 0.252949 -0.217284
v 0.377186 0.257951 -0.217101
v 0.377430 0.254007 -0.218610
v 0.377568 0.270462 -0.219885
v 0.377529 0.252949 -0.219239
v 0.377665 0.252192 -0.220111
v 0.377735 0.269934 -0.220968
v 0.377837 0.251739 -0.221228
v 0.377875 0.269132 -0.221870
v 0.378045 0.251588 -0.222590
v 0.377977 0.268047 -0.222515
v 0.378041 0.266678 -0.222901
v 0.378091 0.257443 -0.223025
v 0.378116 0.256564 -0.223169
v 0.378276 0.251777 -0.224106
v 0.378066 0.265025 -0.223029
v 0.378184 0.256271 -0.223604
v 0.378267 0.256271 -0.224147
v 0.378459 0.252344 -0.225323
v 0.378305 0.256271 -0.224400
v 0.378423 0.256127 -0.225170
v 0.378523 0.255694 -0.225813
v 0.378579 0.253209 -0.226124
v 0.378591 0.255055 -0.226247
v 0.378616 0.254289 -0.226391
v 0.375573 0.258904 -0.206551
v 0.375568 0.255951 -0.206450
v 0.375548 0.257151 -0.206344
v 0.375620 0.254877 -0.206768
v 0.375662 0.260318 -0.207168
v 0.375704 0.253929 -0.207299
v 0.375816 0.261393 -0.208197
v 0.375821 0.253107 -0.208043
v 0.375964 0.252442 -0.208966
v 0.376033 0.262130 -0.209637
v 0.376128 0.251967 -0.210033
v 0.376527 0.262935 -0.212891
v 0.376452 0.258237 -0.212299
v 0.376507 0.258665 -0.212669
v 0.376731 0.259315 -0.214147
v 0.376854 0.263406 -0.215048
v 0.377056 0.263942 -0.216381
v 0.377159 0.264660 -0.217073
v 0.376631 0.266229 -0.213647
v 0.376630 0.266376 -0.213647
vn -0.9885557680140977 -0.003370638077551744 -0.15081820952725603
vn 0.9885557680140977 0.003370638077551744 0.15081820952725603
usemtl material_0_2
f 1//1 2//1 3//1
f 3//2 2//2 1//2
f 2//1 1//1 4//1
f 4//2 1//2 2//2
f 2//1 4//1 5//1
f 5//2 4//2 2//2
f 5//1 4//1 6//1
f 6//2 4//2 5//2
f 5//1 6//1 7//1
f 7//2 6//2 5//2
f 7//1 6//1 8//1
f 8//2 6//2 7//2
f 7//1 8//1 9//1
f 9//2 8//2 7//2
f 9//1 8//1 10//1
f 10//2 8//2 9//2
f 9//1 10//1 11//1
f 11//2 10//2 9//2
f 9//1 11//1 12//1
f 12//2 11//2 9//2
f 12//1 11//1 13//1
f 13//2 11//2 12//2
f 13//1 11//1 14//1
f 14//2 11//2 13//2
f 13//1 14//1 15//1
f 15//2 14//2 13//2
f 13//1 15//1 16//1
f 16//2 15//2 13//2
f 15//1 14//1 17//1
f 17//2 14//2 15//2
f 17//1 14//1 18//1
f 18//2 14//2 17//2
f 18//1 14//1 19//1
f 19//2 14//2 18//2
f 19//1 14//1 20//1
f 20//2 14//2 19//2
f 19//1 20//1 21//1
f 21//2 20//2 19//2
f 21//1 20//1 22//1
f 22//2 20//2 21//2
f 22//1 20//1 23//1
f 23//2 20//2 22//2
f 23//1 20//1 24//1
f 24//2 20//2 23//2
f 24//1 20//1 25//1
f 25//2 20//2 24//2
f 26//1 27//1 28//1
f 28//2 27//2 26//2
f 27//1 26//1 29//1
f 29//2 26//2 27//2
f 27//1 29//1 30//1
f 30//2 29//2 27//2
f 27//1 30//1 31//1
f 31//2 30//2 27//2
f 31//1 30//1 32//1
f 32//2 30//2 31//2
f 31//1 32//1 33//1
f 33//2 32//2 31//2
f 31//1 33//1 34//1
f 34//2 33//2 31//2
f 31//1 34//1 35//1
f 35//2 34//2 31//2
f 35//1 34//1 36//1
f 36//2 34//2 35//2
f 35//1 36//1 37//1
f 37//2 36//2 35//2
f 37//1 36//1 38//1
f 38//2 36//2 37//2
f 37//1 38//1 25//1
f 25//2 38//2 37//2
f 37//1 25//1 39//1
f 39//2 25//2 37//2
f 39//1 25//1 20//1
f 20//2 25//2 39//2
f 39//1 20//1 40//1
f 40//2 20//2 39//2
f 39//1 40//1 41//1
f 41//2 40//2 39//2
f 41//1 40//1 42//1
f 42//2 40//2 41//2
f 42//1 40//1 43//1
f 43//2 40//2 42//2
f 42//1 43//1 44//1
f 44//2 43//2 42//2
f 44//1 43//1 45//1
f 45//2 43//2 44//2
f 44//1 45//1 46//1
f 46//2 45//2 44//2
f 46//1 45//1 47//1
f 47//2 45//2 46//2
f 46//1 47//1 48//1
f 48//2 47//2 46//2
f 46//1 48//1 49//1
f 49//2 48//2 46//2
f 46//1 49//1 50//1
f 50//2 49//2 46//2
f 46//1 50//1 51//1
f 51//2 50//2 46//2
f 49//1 48//1 52//1
f 52//2 48//2 49//2
f 51//1 50//1 53//1
f 53//2 50//2 51//2
f 51//1 53//1 54//1
f 54//2 53//2 51//2
f 51//1 54//1 55//1
f 55//2 54//2 51//2
f 55//1 54//1 56//1
f 56//2 54//2 55//2
f 55//1 56//1 57//1
f 57//2 56//2 55//2
f 55//1 57//1 58//1
f 58//2 57//2 55//2
f 55//1 58//1 59//1
f 59//2 58//2 55//2
f 59//1 58//1 60//1
f 60//2 58//2 59//2
f 59//1 60//1 61//1
f 61//2 60//2 59//2
f 62//1 63//1 64//1
f 64//2 63//2 62//2
f 63//1 62//1 65//1
f 65//2 62//2 63//2
f 65//1 62//1 66//1
f 66//2 62//2 65//2
f 65//1 66//1 67//1
f 67//2 66//2 65//2
f 67//1 66//1 68//1
f 68//2 66//2 67//2
f 67//1 68//1 69//1
f 69//2 68//2 67//2
f 69//1 68//1 70//1
f 70//2 68//2 69//2
f 70//1 68//1 71//1
f 71//2 68//2 70//2
f 70//1 71//1 72//1
f 72//2 71//2 70//2
f 72//1 71//1 73//1
f 73//2 71//2 72//2
f 72//1 73//1 28//1
f 28//2 73//2 72//2
f 28//1 73//1 26//1
f 26//2 73//2 28//2
f 26//1 73//1 74//1
f 74//2 73//2 26//2
f 74//1 73//1 75//1
f 75//2 73//2 74//2
f 75//1 73//1 76//1
f 76//2 73//2 75//2
f 76//1 73//1 77//1
f 77//2 73//2 76//2
f 76//1 77//1 24//1
f 24//2 77//2 76//2
f 24//1 77//1 78//1
f 78//2 77//2 24//2
f 24//1 78//1 79//1
f 79//2 78//2 24//2
f 24//1 79//1 23//1
f 23//2 79//2 24//2
f 15//1 80//1 16//1
f 16//2 80//2 15//2
f 80//1 15//1 81//1
f 81//2 15//2 80//2
