# SSTK version 0.8.0
# 27
mtllib original-27.mtl
o #ID42
v -0.220378 0.195383 -0.254962
v -0.206885 0.195466 -0.258319
v -0.220378 0.195383 -0.258319
v -0.206885 0.195466 -0.254962
v -0.206885 0.195466 -0.254962
v -0.220378 0.195383 -0.254962
v -0.206885 0.195466 -0.258319
v -0.220378 0.195383 -0.258319
v -0.206885 0.195466 -0.254962
v 0.189733 0.197891 -0.258319
v -0.206885 0.195466 -0.258319
v 0.189733 0.197891 -0.254962
v 0.189733 0.197891 -0.254962
v -0.206885 0.195466 -0.254962
v 0.189733 0.197891 -0.258319
v -0.206885 0.195466 -0.258319
vt 46.1095 4451.423
vt 46.11346 4451.426
vt 46.1095 4451.426
vt 46.11346 4451.423
vt 46.22967 4451.426
vt 46.22967 4451.423
vn -0.006113956952693676 0.9999813095905246 0
vn -0.006113956952698586 0.9999813095905246 0
vn 0.006113956952693676 -0.9999813095905246 0
vn 0.006113956952698586 -0.9999813095905246 0
usemtl material_0_0
f 5//3 6//3 7//3
f 8//3 7//3 6//3
f 13//4 14//4 15//4
f 16//4 15//4 14//4
usemtl material_1_0
f 1/1/1 2/2/1 3/3/1
f 2/2/1 1/1/1 4/4/1
f 9/4/2 10/5/2 11/2/2
f 10/5/2 9/4/2 12/6/2
