# SSTK version 0.8.0
# 129
mtllib original-129.mtl
o #ID609
v 0.014443 0.236991 0.714857
v 0.014399 0.237792 0.714857
v 0.014422 0.240390 0.714857
v 0.014948 0.243039 0.714857
v 0.013111 0.242765 0.714857
v 0.013111 0.243102 0.714857
v 0.013392 0.242696 0.714857
v 0.014187 0.242519 0.714857
v 0.014324 0.242399 0.714857
v 0.014410 0.242021 0.714857
v 0.014576 0.236405 0.714857
v 0.014799 0.235959 0.714857
v 0.015114 0.235575 0.714857
v 0.015514 0.242107 0.714857
v 0.015549 0.242349 0.714857
v 0.015629 0.242490 0.714857
v 0.016808 0.243102 0.714857
v 0.015480 0.239177 0.714857
v 0.015908 0.242590 0.714857
v 0.016539 0.242708 0.714857
v 0.016808 0.242765 0.714857
v 0.020710 0.243039 0.714857
v 0.019005 0.242765 0.714857
v 0.019005 0.243102 0.714857
v 0.019251 0.242708 0.714857
v 0.020109 0.242464 0.714857
v 0.020218 0.242198 0.714857
v 0.020258 0.239377 0.714857
v 0.020332 0.235909 0.714857
v 0.020578 0.236290 0.714857
v 0.020743 0.236745 0.714857
v 0.020985 0.242164 0.714857
v 0.021110 0.242462 0.714857
v 0.022209 0.243102 0.714857
v 0.020847 0.237323 0.714857
v 0.020910 0.239498 0.714857
v 0.021970 0.242702 0.714857
v 0.022209 0.242765 0.714857
v 0.015548 0.235260 0.714857
v 0.015557 0.237226 0.714857
v 0.016130 0.235017 0.714857
v 0.015690 0.236748 0.714857
v 0.015935 0.236345 0.714857
v 0.016292 0.236021 0.714857
v 0.016830 0.234863 0.714857
v 0.016762 0.235781 0.714857
v 0.017305 0.235633 0.714857
v 0.017620 0.234811 0.714857
v 0.017883 0.235584 0.714857
v 0.018354 0.234866 0.714857
v 0.018697 0.235677 0.714857
v 0.019056 0.235029 0.714857
v 0.019340 0.235956 0.714857
v 0.019548 0.235241 0.714857
v 0.019803 0.236390 0.714857
v 0.019980 0.235547 0.714857
v 0.020078 0.236949 0.714857
v 0.020213 0.237866 0.714857
vn 0 0 -1
vn 0 0 1
usemtl material_0_2
f 1//1 2//1 3//1
f 3//2 2//2 1//2
f 4//1 5//1 6//1
f 6//2 5//2 4//2
f 5//1 4//1 7//1
f 7//2 4//2 5//2
f 7//1 4//1 8//1
f 8//2 4//2 7//2
f 8//1 4//1 9//1
f 9//2 4//2 8//2
f 9//1 4//1 10//1
f 10//2 4//2 9//2
f 10//1 4//1 3//1
f 3//2 4//2 10//2
f 3//1 4//1 1//1
f 1//2 4//2 3//2
f 1//1 4//1 11//1
f 11//2 4//2 1//2
f 11//1 4//1 12//1
f 12//2 4//2 11//2
f 12//1 4//1 13//1
f 13//2 4//2 12//2
f 13//1 4//1 14//1
f 14//2 4//2 13//2
f 14//1 4//1 15//1
f 15//2 4//2 14//2
f 15//1 4//1 16//1
f 16//2 4//2 15//2
f 16//1 4//1 17//1
f 17//2 4//2 16//2
f 13//1 14//1 18//1
f 18//2 14//2 13//2
f 16//1 17//1 19//1
f 19//2 17//2 16//2
f 19//1 17//1 20//1
f 20//2 17//2 19//2
f 20//1 17//1 21//1
f 21//2 17//2 20//2
f 22//1 23//1 24//1
f 24//2 23//2 22//2
f 23//1 22//1 25//1
f 25//2 22//2 23//2
f 25//1 22//1 26//1
f 26//2 22//2 25//2
f 26//1 22//1 27//1
f 27//2 22//2 26//2
f 27//1 22//1 28//1
f 28//2 22//2 27//2
f 28//1 22//1 29//1
f 29//2 22//2 28//2
f 29//1 22//1 30//1
f 30//2 22//2 29//2
f 30//1 22//1 31//1
f 31//2 22//2 30//2
f 31//1 22//1 32//1
f 32//2 22//2 31//2
f 32//1 22//1 33//1
f 33//2 22//2 32//2
f 33//1 22//1 34//1
f 34//2 22//2 33//2
f 31//1 32//1 35//1
f 35//2 32//2 31//2
f 35//1 32//1 36//1
f 36//2 32//2 35//2
f 33//1 34//1 37//1
f 37//2 34//2 33//2
f 37//1 34//1 38//1
f 38//2 34//2 37//2
f 18//1 39//1 13//1
f 13//2 39//2 18//2
f 39//1 18//1 40//1
f 40//2 18//2 39//2
f 39//1 40//1 41//1
f 41//2 40//2 39//2
f 41//1 40//1 42//1
f 42//2 40//2 41//2
f 41//1 42//1 43//1
f 43//2 42//2 41//2
f 41//1 43//1 44//1
f 44//2 43//2 41//2
f 41//1 44//1 45//1
f 45//2 44//2 41//2
f 45//1 44//1 46//1
f 46//2 44//2 45//2
f 45//1 46//1 47//1
f 47//2 46//2 45//2
f 45//1 47//1 48//1
f 48//2 47//2 45//2
f 48//1 47//1 49//1
f 49//2 47//2 48//2
f 48//1 49//1 50//1
f 50//2 49//2 48//2
f 50//1 49//1 51//1
f 51//2 49//2 50//2
f 50//1 51//1 52//1
f 52//2 51//2 50//2
f 52//1 51//1 53//1
f 53//2 51//2 52//2
f 52//1 53//1 54//1
f 54//2 53//2 52//2
f 54//1 53//1 55//1
f 55//2 53//2 54//2
f 54//1 55//1 56//1
f 56//2 55//2 54//2
f 56//1 55//1 57//1
f 57//2 55//2 56//2
f 56//1 57//1 29//1
f 29//2 57//2 56//2
f 29//1 57//1 58//1
f 58//2 57//2 29//2
f 29//1 58//1 28//1
f 28//2 58//2 29//2
