# SSTK version 0.8.0
# 187
mtllib original-187.mtl
o #ID734
v -0.011832 0.222088 0.714731
v -0.011832 0.221669 0.714731
v -0.011806 0.221866 0.714731
v -0.011908 0.221469 0.714731
v -0.011910 0.222293 0.714731
v -0.012104 0.221190 0.714731
v -0.012040 0.222483 0.714731
v -0.012221 0.222655 0.714731
v -0.012490 0.220755 0.714731
v -0.012442 0.222800 0.714731
v -0.012687 0.222903 0.714731
v -0.012661 0.222310 0.714731
v -0.012692 0.222444 0.714731
v -0.012785 0.222554 0.714731
v -0.013255 0.222985 0.714731
v -0.012923 0.222627 0.714731
v -0.013088 0.222651 0.714731
v -0.013333 0.222605 0.714731
v -0.013764 0.222924 0.714731
v -0.013520 0.222464 0.714731
v -0.013647 0.222230 0.714731
v -0.013715 0.221903 0.714731
v -0.013980 0.221903 0.714731
v -0.014264 0.222741 0.714731
v -0.012844 0.220299 0.714731
v -0.012755 0.222039 0.714731
v -0.013162 0.221585 0.714731
v -0.012933 0.220108 0.714731
v -0.012962 0.219941 0.714731
v -0.013128 0.219308 0.714731
v -0.013387 0.219483 0.714731
v -0.013471 0.221260 0.714731
v -0.013598 0.219690 0.714731
v -0.013693 0.220953 0.714731
v -0.013749 0.219911 0.714731
v -0.013825 0.220664 0.714731
v -0.013840 0.220145 0.714731
v -0.013870 0.220393 0.714731
v -0.011489 0.220266 0.714731
v -0.011310 0.219265 0.714731
v -0.011078 0.219408 0.714731
v -0.011564 0.219164 0.714731
v -0.011688 0.220226 0.714731
v -0.011763 0.219919 0.714731
v -0.012136 0.219082 0.714731
v -0.011939 0.219707 0.714731
v -0.012184 0.219583 0.714731
v -0.012503 0.219107 0.714731
v -0.012470 0.219542 0.714731
v -0.012681 0.219572 0.714731
v -0.012833 0.219182 0.714731
v -0.012836 0.219662 0.714731
v -0.012931 0.219792 0.714731
v -0.012962 0.219941 0.714731
v -0.012931 0.219792 0.714731
v -0.013128 0.219308 0.714731
v -0.012836 0.219662 0.714731
v -0.012833 0.219182 0.714731
v -0.012681 0.219572 0.714731
v -0.012503 0.219107 0.714731
v -0.012470 0.219542 0.714731
v -0.012184 0.219583 0.714731
v -0.012136 0.219082 0.714731
v -0.011939 0.219707 0.714731
v -0.011763 0.219919 0.714731
v -0.011564 0.219164 0.714731
v -0.011688 0.220226 0.714731
v -0.011489 0.220266 0.714731
v -0.011310 0.219265 0.714731
v -0.011078 0.219408 0.714731
v -0.013870 0.220393 0.714731
v -0.013825 0.220664 0.714731
v -0.013840 0.220145 0.714731
v -0.013749 0.219911 0.714731
v -0.013693 0.220953 0.714731
v -0.013598 0.219690 0.714731
v -0.013471 0.221260 0.714731
v -0.013387 0.219483 0.714731
v -0.013162 0.221585 0.714731
v -0.012933 0.220108 0.714731
v -0.012844 0.220299 0.714731
v -0.012755 0.222039 0.714731
v -0.012661 0.222310 0.714731
v -0.012490 0.220755 0.714731
v -0.014264 0.222741 0.714731
v -0.013764 0.222924 0.714731
v -0.013980 0.221903 0.714731
v -0.013715 0.221903 0.714731
v -0.013647 0.222230 0.714731
v -0.013520 0.222464 0.714731
v -0.013333 0.222605 0.714731
v -0.013255 0.222985 0.714731
v -0.013088 0.222651 0.714731
v -0.012923 0.222627 0.714731
v -0.012785 0.222554 0.714731
v -0.012687 0.222903 0.714731
v -0.012692 0.222444 0.714731
v -0.012442 0.222800 0.714731
v -0.012221 0.222655 0.714731
v -0.012104 0.221190 0.714731
v -0.012040 0.222483 0.714731
v -0.011910 0.222293 0.714731
v -0.011908 0.221469 0.714731
v -0.011832 0.222088 0.714731
v -0.011832 0.221669 0.714731
v -0.011806 0.221866 0.714731
vn 0 0 1
vn 0 0 -1
usemtl material_0_0
f 1//1 2//1 3//1
f 2//1 1//1 4//1
f 4//1 1//1 5//1
f 4//1 5//1 6//1
f 6//1 5//1 7//1
f 6//1 7//1 8//1
f 6//1 8//1 9//1
f 9//1 8//1 10//1
f 9//1 10//1 11//1
f 9//1 11//1 12//1
f 12//1 11//1 13//1
f 13//1 11//1 14//1
f 14//1 11//1 15//1
f 14//1 15//1 16//1
f 16//1 15//1 17//1
f 17//1 15//1 18//1
f 18//1 15//1 19//1
f 18//1 19//1 20//1
f 20//1 19//1 21//1
f 21//1 19//1 22//1
f 22//1 19//1 23//1
f 23//1 19//1 24//1
f 12//1 25//1 9//1
f 25//1 12//1 26//1
f 25//1 26//1 27//1
f 25//1 27//1 28//1
f 28//1 27//1 29//1
f 29//1 27//1 30//1
f 30//1 27//1 31//1
f 31//1 27//1 32//1
f 31//1 32//1 33//1
f 33//1 32//1 34//1
f 33//1 34//1 35//1
f 35//1 34//1 36//1
f 35//1 36//1 37//1
f 37//1 36//1 38//1
f 39//1 40//1 41//1
f 40//1 39//1 42//1
f 42//1 39//1 43//1
f 42//1 43//1 44//1
f 42//1 44//1 45//1
f 45//1 44//1 46//1
f 45//1 46//1 47//1
f 45//1 47//1 48//1
f 48//1 47//1 49//1
f 48//1 49//1 50//1
f 48//1 50//1 51//1
f 51//1 50//1 52//1
f 51//1 52//1 30//1
f 30//1 52//1 53//1
f 30//1 53//1 29//1
usemtl material_1_0
f 54//2 55//2 56//2
f 55//2 57//2 56//2
f 56//2 57//2 58//2
f 57//2 59//2 58//2
f 58//2 59//2 60//2
f 59//2 61//2 60//2
f 61//2 62//2 60//2
f 60//2 62//2 63//2
f 62//2 64//2 63//2
f 64//2 65//2 63//2
f 63//2 65//2 66//2
f 65//2 67//2 66//2
f 67//2 68//2 66//2
f 66//2 68//2 69//2
f 70//2 69//2 68//2
f 71//2 72//2 73//2
f 73//2 72//2 74//2
f 72//2 75//2 74//2
f 74//2 75//2 76//2
f 75//2 77//2 76//2
f 76//2 77//2 78//2
f 77//2 79//2 78//2
f 78//2 79//2 56//2
f 56//2 79//2 54//2
f 54//2 79//2 80//2
f 80//2 79//2 81//2
f 79//2 82//2 81//2
f 82//2 83//2 81//2
f 84//2 81//2 83//2
f 85//2 86//2 87//2
f 87//2 86//2 88//2
f 88//2 86//2 89//2
f 89//2 86//2 90//2
f 90//2 86//2 91//2
f 86//2 92//2 91//2
f 91//2 92//2 93//2
f 93//2 92//2 94//2
f 94//2 92//2 95//2
f 92//2 96//2 95//2
f 95//2 96//2 97//2
f 97//2 96//2 83//2
f 83//2 96//2 84//2
f 96//2 98//2 84//2
f 98//2 99//2 84//2
f 84//2 99//2 100//2
f 99//2 101//2 100//2
f 101//2 102//2 100//2
f 100//2 102//2 103//2
f 102//2 104//2 103//2
f 103//2 104//2 105//2
f 106//2 105//2 104//2
