# SSTK version 0.8.0
# 7
mtllib original-7.mtl
o 3dw.1065a548dee0058d89cf6a343602477f/Model/Group1/mesh1/mesh1-geometry/material_3/component_1#mesh1-geometry
v -0.651038 0.136173 0.102167
v -0.655473 0.136667 0.102167
v -0.646465 0.136208 0.102167
v -0.659472 0.137671 0.102167
v -0.642070 0.136776 0.102167
v -0.655473 0.136667 0.102167
v -0.642070 0.136776 0.102167
v -0.646465 0.136208 0.102167
v -0.655473 0.136667 0.102167
v -0.662765 0.139099 0.102167
v -0.638151 0.137837 0.102167
v -0.659472 0.137671 0.102167
v -0.638151 0.137837 0.102167
v -0.642070 0.136776 0.102167
v -0.659472 0.137671 0.102167
v -0.666380 0.142846 0.102167
v -0.632758 0.141119 0.102167
v -0.665117 0.140867 0.102167
v -0.666460 0.144906 0.102167
v -0.631651 0.143121 0.102167
v -0.666380 0.142846 0.102167
v -0.634973 0.139318 0.102167
v -0.638151 0.137837 0.102167
v -0.662765 0.139099 0.102167
v -0.665117 0.140867 0.102167
v -0.634973 0.139318 0.102167
v -0.662765 0.139099 0.102167
v -0.632758 0.141119 0.102167
v -0.634973 0.139318 0.102167
v -0.665117 0.140867 0.102167
v -0.631651 0.143121 0.102167
v -0.632758 0.141119 0.102167
v -0.666380 0.142846 0.102167
v -0.631731 0.145181 0.102167
v -0.631651 0.143121 0.102167
v -0.666460 0.144906 0.102167
v -0.665353 0.146902 0.102167
v -0.631731 0.145181 0.102167
v -0.666460 0.144906 0.102167
v -0.638639 0.150356 0.102167
v -0.635346 0.148922 0.102167
v -0.659959 0.150184 0.102167
v -0.642638 0.151355 0.102167
v -0.638639 0.150356 0.102167
v -0.656041 0.151246 0.102167
v -0.632993 0.147161 0.102167
v -0.631731 0.145181 0.102167
v -0.665353 0.146902 0.102167
v -0.663138 0.148704 0.102167
v -0.632993 0.147161 0.102167
v -0.665353 0.146902 0.102167
v -0.635346 0.148922 0.102167
v -0.632993 0.147161 0.102167
v -0.663138 0.148704 0.102167
v -0.659959 0.150184 0.102167
v -0.635346 0.148922 0.102167
v -0.663138 0.148704 0.102167
v -0.656041 0.151246 0.102167
v -0.638639 0.150356 0.102167
v -0.659959 0.150184 0.102167
v -0.647073 0.151854 0.102167
v -0.642638 0.151355 0.102167
v -0.651646 0.151814 0.102167
v -0.651646 0.151814 0.102167
v -0.642638 0.151355 0.102167
v -0.656041 0.151246 0.102167
v -0.646465 0.136208 0.102167
v -0.655473 0.136667 0.102167
v -0.651038 0.136173 0.102167
v -0.655473 0.136667 0.102167
v -0.642070 0.136776 0.102167
v -0.659472 0.137671 0.102167
v -0.655473 0.136667 0.102167
v -0.646465 0.136208 0.102167
v -0.642070 0.136776 0.102167
v -0.659472 0.137671 0.102167
v -0.638151 0.137837 0.102167
v -0.662765 0.139099 0.102167
v -0.659472 0.137671 0.102167
v -0.642070 0.136776 0.102167
v -0.638151 0.137837 0.102167
v -0.665117 0.140867 0.102167
v -0.632758 0.141119 0.102167
v -0.666380 0.142846 0.102167
v -0.666380 0.142846 0.102167
v -0.631651 0.143121 0.102167
v -0.666460 0.144906 0.102167
v -0.662765 0.139099 0.102167
v -0.638151 0.137837 0.102167
v -0.634973 0.139318 0.102167
v -0.662765 0.139099 0.102167
v -0.634973 0.139318 0.102167
v -0.665117 0.140867 0.102167
v -0.665117 0.140867 0.102167
v -0.634973 0.139318 0.102167
v -0.632758 0.141119 0.102167
v -0.666380 0.142846 0.102167
v -0.632758 0.141119 0.102167
v -0.631651 0.143121 0.102167
v -0.666460 0.144906 0.102167
v -0.631651 0.143121 0.102167
v -0.631731 0.145181 0.102167
v -0.666460 0.144906 0.102167
v -0.631731 0.145181 0.102167
v -0.665353 0.146902 0.102167
v -0.659959 0.150184 0.102167
v -0.635346 0.148922 0.102167
v -0.638639 0.150356 0.102167
v -0.656041 0.151246 0.102167
v -0.638639 0.150356 0.102167
v -0.642638 0.151355 0.102167
v -0.665353 0.146902 0.102167
v -0.631731 0.145181 0.102167
v -0.632993 0.147161 0.102167
v -0.665353 0.146902 0.102167
v -0.632993 0.147161 0.102167
v -0.663138 0.148704 0.102167
v -0.663138 0.148704 0.102167
v -0.632993 0.147161 0.102167
v -0.635346 0.148922 0.102167
v -0.663138 0.148704 0.102167
v -0.635346 0.148922 0.102167
v -0.659959 0.150184 0.102167
v -0.659959 0.150184 0.102167
v -0.638639 0.150356 0.102167
v -0.656041 0.151246 0.102167
v -0.651646 0.151814 0.102167
v -0.642638 0.151355 0.102167
v -0.647073 0.151854 0.102167
v -0.656041 0.151246 0.102167
v -0.642638 0.151355 0.102167
v -0.651646 0.151814 0.102167
vn 0 0 -1
vn 0 0 1
usemtl material_0_0
f 1//1 2//1 3//1
f 4//1 5//1 6//1
f 7//1 8//1 9//1
f 10//1 11//1 12//1
f 13//1 14//1 15//1
f 16//1 17//1 18//1
f 19//1 20//1 21//1
f 22//1 23//1 24//1
f 25//1 26//1 27//1
f 28//1 29//1 30//1
f 31//1 32//1 33//1
f 34//1 35//1 36//1
f 37//1 38//1 39//1
f 40//1 41//1 42//1
f 43//1 44//1 45//1
f 46//1 47//1 48//1
f 49//1 50//1 51//1
f 52//1 53//1 54//1
f 55//1 56//1 57//1
f 58//1 59//1 60//1
f 61//1 62//1 63//1
f 64//1 65//1 66//1
usemtl material_1_0
f 67//2 68//2 69//2
f 70//2 71//2 72//2
f 73//2 74//2 75//2
f 76//2 77//2 78//2
f 79//2 80//2 81//2
f 82//2 83//2 84//2
f 85//2 86//2 87//2
f 88//2 89//2 90//2
f 91//2 92//2 93//2
f 94//2 95//2 96//2
f 97//2 98//2 99//2
f 100//2 101//2 102//2
f 103//2 104//2 105//2
f 106//2 107//2 108//2
f 109//2 110//2 111//2
f 112//2 113//2 114//2
f 115//2 116//2 117//2
f 118//2 119//2 120//2
f 121//2 122//2 123//2
f 124//2 125//2 126//2
f 127//2 128//2 129//2
f 130//2 131//2 132//2
