# SSTK version 0.8.0
# 44
mtllib original-44.mtl
o Group12/mesh17/mesh17-geometry#mesh17-geometry
v 0.241393 0.271602 -0.878935
v 0.242718 0.26954 -0.875083
v 0.239603 0.271121 -0.877767
v 0.243534 0.271778 -0.879058
v 0.238646 0.270463 -0.875866
v 0.236577 0.274493 -0.880254
v 0.243873 0.273551 -0.880709
v 0.245454 0.271602 -0.878101
v 0.238777 0.269806 -0.873741
v 0.234697 0.273201 -0.876519
v 0.240469 0.274327 -0.881502
v 0.247314 0.274327 -0.880097
v 0.246638 0.271121 -0.876323
v 0.239961 0.269324 -0.871963
v 0.237582 0.274763 -0.88091
v 0.233361 0.274814 -0.8767
v 0.249735 0.274763 -0.878415
v 0.246769 0.270463 -0.874198
v 0.241881 0.269148 -0.871006
v 0.234954 0.271909 -0.872345
v 0.236342 0.274912 -0.880437
v 0.250399 0.274493 -0.877417
v 0.245812 0.269806 -0.872297
v 0.244023 0.269324 -0.871129
v 0.237281 0.270963 -0.86885
v 0.233044 0.273977 -0.871595
v 0.250688 0.274912 -0.877492
v 0.250657 0.273201 -0.873243
v 0.241053 0.270616 -0.866972
v 0.248776 0.271909 -0.869508
v 0.245261 0.270963 -0.867212
v 0.23603 0.272675 -0.867358
v 0.251956 0.274814 -0.872883
v 0.240835 0.271522 -0.865908
v 0.250236 0.273977 -0.868066
v 0.245823 0.272675 -0.865348
vt 2.946523 0.750598
vt 2.94456 0.748609
vt 2.945921 0.750114
vt 2.946581 0.750753
vt 2.944935 0.74943
vt 2.947092 0.753088
vt 2.94738 0.752341
vt 2.946077 0.750537
vt 2.943829 0.74873
vt 2.945154 0.751744
vt 2.947768 0.753042
vt 2.947016 0.752938
vt 2.945148 0.750008
vt 2.9429 0.748201
vt 2.94743 0.753359
vt 2.945175 0.753092
vt 2.946095 0.753176
vt 2.944042 0.749308
vt 2.942397 0.747985
vt 2.942982 0.750368
vt 2.94717 0.753448
vt 2.945574 0.752879
vt 2.943056 0.748624
vt 2.942454 0.74814
vt 2.941156 0.749329
vt 2.942482 0.752025
vt 2.945594 0.753232
vt 2.943401 0.751504
vt 2.940167 0.748905
vt 2.941463 0.75016
vt 2.94028 0.749209
vt 2.940276 0.750637
vt 2.943132 0.752812
vt 2.939555 0.749576
vt 2.940593 0.751766
vt 2.9392 0.750489
vn -0.014393997618599873 -0.9910458360374261 -0.1327439780383071
vn 0.011313998364516178 -0.9984158556750049 -0.055115992032763475
vn -0.049216008946265655 -0.9928321804725824 -0.1089130197977204
vn 0.02782199197469171 -0.990381714322455 -0.13553596090438666
vn -0.06719997879326946 -0.9952066859362068 -0.07104797757893144
vn -0.11442406359502445 -0.979399544334258 -0.16638409247355898
vn 0.03660498964660937 -0.9832907218851082 -0.17832394956268294
vn 0.06552299342915775 -0.9910459006149488 -0.1163389883331778
vn -0.06400199931041069 -0.9975079892523503 -0.029690999680094324
vn -0.1499909570219725 -0.9848127178142662 -0.08744497494373905
vn -0.028094013791130218 -0.984368483218732 -0.1738660853494913
vn 0.09431603973530851 -0.9843684147140083 -0.14873906266370593
vn 0.0881410171157089 -0.9928321927936344 -0.08071801567426974
vn -0.04104600231983824 -0.9991480564698514 0.004288000242349204
vn -0.08535995217078378 -0.9757574532598339 -0.20152188708248178
vn -0.19459891199139728 -0.9761635585237856 -0.09610395653637081
vn 0.15784492301983885 -0.9757575241280504 -0.1515989260659798
vn 0.08975496850615367 -0.9952066507949853 -0.03882998637506496
vn -0.0045920006756810265 -0.9997391471046281 0.022373003292031065
vn -0.14178299202761366 -0.9898929443388161 -0.003088999826307089
vn -0.15013094727019244 -0.9687106597641739 -0.19763693058488244
vn 0.17071708835473712 -0.9793995068888358 -0.10785305581941744
vn 0.07052299938214777 -0.9975079912608324 -0.002076999981803403
vn 0.03603800151956016 -0.9991480421295778 0.02011100084799042
vn -0.0943330274774228 -0.993415289363041 0.06501801893851634
vn -0.1830459864833359 -0.9830409274093114 0.01116699917539531
vn 0.21584794055883086 -0.9687107332321161 -0.1225119662621081
vn 0.1723099590880203 -0.9848127661734708 -0.021285994946013603
vn -0.02074300169289888 -0.9946650811776044 0.10105000824699463
vn 0.13153498698467925 -0.9898929020505971 0.05301499475419303
vn 0.0610920162268662 -0.9934152638645404 0.09692202574380192
vn -0.12229603814530227 -0.9877423080862575 0.09699903025492373
vn 0.2167219116030511 -0.9761636018405191 -0.011671995239204211
vn -0.029204003422914054 -0.9893971159642747 0.14226901667492564
vn 0.16384499157550012 -0.9830409494544932 0.08237299576458658
vn 0.0741940237016925 -0.9877423155397658 0.1373330438718032
vn 0.049216008946265655 0.9928321804725824 0.1089130197977204
vn -0.011313998364516178 0.9984158556750049 0.055115992032763475
vn 0.014393997618599873 0.9910458360374261 0.1327439780383071
vn -0.02782199197469171 0.990381714322455 0.13553596090438666
vn 0.06719997879326946 0.9952066859362068 0.07104797757893144
vn 0.11442406359502445 0.979399544334258 0.16638409247355898
vn -0.03660498964660937 0.9832907218851082 0.17832394956268294
vn -0.06552299342915775 0.9910459006149488 0.1163389883331778
vn 0.06400199931041069 0.9975079892523503 0.029690999680094324
vn 0.1499909570219725 0.9848127178142662 0.08744497494373905
vn 0.028094013791130218 0.984368483218732 0.1738660853494913
vn -0.09431603973530851 0.9843684147140083 0.14873906266370593
vn -0.0881410171157089 0.9928321927936344 0.08071801567426974
vn 0.04104600231983824 0.9991480564698514 -0.004288000242349204
vn 0.08535995217078378 0.9757574532598339 0.20152188708248178
vn 0.19459891199139728 0.9761635585237856 0.09610395653637081
vn -0.15784492301983885 0.9757575241280504 0.1515989260659798
vn -0.08975496850615367 0.9952066507949853 0.03882998637506496
vn 0.0045920006756810265 0.9997391471046281 -0.022373003292031065
vn 0.14178299202761366 0.9898929443388161 0.003088999826307089
vn 0.15013094727019244 0.9687106597641739 0.19763693058488244
vn -0.17071708835473712 0.9793995068888358 0.10785305581941744
vn -0.07052299938214777 0.9975079912608324 0.002076999981803403
vn -0.03603800151956016 0.9991480421295778 -0.02011100084799042
vn 0.0943330274774228 0.993415289363041 -0.06501801893851634
vn 0.1830459864833359 0.9830409274093114 -0.01116699917539531
vn -0.21584794055883086 0.9687107332321161 0.1225119662621081
vn -0.1723099590880203 0.9848127661734708 0.021285994946013603
vn 0.02074300169289888 0.9946650811776044 -0.10105000824699463
vn -0.13153498698467925 0.9898929020505971 -0.05301499475419303
vn -0.0610920162268662 0.9934152638645404 -0.09692202574380192
vn 0.12229603814530227 0.9877423080862575 -0.09699903025492373
vn -0.2167219116030511 0.9761636018405191 0.011671995239204211
vn 0.029204003422914054 0.9893971159642747 -0.14226901667492564
vn -0.16384499157550012 0.9830409494544932 -0.08237299576458658
vn -0.0741940237016925 0.9877423155397658 -0.1373330438718032
usemtl material_0_0
f 1/1/1 2/2/2 3/3/3
f 1/1/1 4/4/4 2/2/2
f 3/3/3 2/2/2 5/5/5
f 6/6/6 1/1/1 3/3/3
f 1/1/1 7/7/7 4/4/4
f 4/4/4 8/8/8 2/2/2
f 5/5/5 2/2/2 9/9/9
f 10/10/10 3/3/3 5/5/5
f 1/1/1 6/6/6 11/11/11
f 3/3/3 10/10/10 6/6/6
f 7/7/7 1/1/1 11/11/11
f 12/12/12 4/4/4 7/7/7
f 4/4/4 12/12/12 8/8/8
f 8/8/8 13/13/13 2/2/2
f 9/9/9 2/2/2 14/14/14
f 9/9/9 10/10/10 5/5/5
f 11/11/11 6/6/6 15/15/15
f 16/16/16 6/6/6 10/10/10
f 17/17/17 8/8/8 12/12/12
f 17/17/17 13/13/13 8/8/8
f 2/2/2 13/13/13 18/18/18
f 2/2/2 19/19/19 14/14/14
f 14/14/14 20/20/20 9/9/9
f 10/10/10 9/9/9 20/20/20
f 15/15/15 6/6/6 21/21/21
f 6/6/6 16/16/16 21/21/21
f 20/20/20 16/16/16 10/10/10
f 13/13/13 17/17/17 22/22/22
f 22/22/22 18/18/18 13/13/13
f 2/2/2 18/18/18 23/23/23
f 2/2/2 24/24/24 19/19/19
f 19/19/19 25/25/25 14/14/14
f 20/20/20 14/14/14 25/25/25
f 16/16/16 20/20/20 26/26/26
f 17/17/17 27/27/27 22/22/22
f 18/18/18 22/22/22 28/28/28
f 28/28/28 23/23/23 18/18/18
f 2/2/2 23/23/23 24/24/24
f 24/24/24 29/29/29 19/19/19
f 25/25/25 19/19/19 29/29/29
f 25/25/25 26/26/26 20/20/20
f 27/27/27 28/28/28 22/22/22
f 23/23/23 28/28/28 30/30/30
f 30/30/30 24/24/24 23/23/23
f 29/29/29 24/24/24 31/31/31
f 29/29/29 32/32/32 25/25/25
f 26/26/26 25/25/25 32/32/32
f 28/28/28 27/27/27 33/33/33
f 33/33/33 30/30/30 28/28/28
f 24/24/24 30/30/30 31/31/31
f 31/31/31 34/34/34 29/29/29
f 32/32/32 29/29/29 34/34/34
f 30/30/30 33/33/33 35/35/35
f 35/35/35 31/31/31 30/30/30
f 34/34/34 31/31/31 36/36/36
f 31/31/31 35/35/35 36/36/36
usemtl material_1_0
f 3//37 2//38 1//39
f 2//38 4//40 1//39
f 5//41 2//38 3//37
f 3//37 1//39 6//42
f 4//40 7//43 1//39
f 2//38 8//44 4//40
f 9//45 2//38 5//41
f 5//41 3//37 10//46
f 11//47 6//42 1//39
f 6//42 10//46 3//37
f 11//47 1//39 7//43
f 7//43 4//40 12//48
f 8//44 12//48 4//40
f 2//38 13//49 8//44
f 14//50 2//38 9//45
f 5//41 10//46 9//45
f 15//51 6//42 11//47
f 10//46 6//42 16//52
f 12//48 8//44 17//53
f 8//44 13//49 17//53
f 18//54 13//49 2//38
f 14//50 19//55 2//38
f 9//45 20//56 14//50
f 20//56 9//45 10//46
f 21//57 6//42 15//51
f 21//57 16//52 6//42
f 10//46 16//52 20//56
f 22//58 17//53 13//49
f 13//49 18//54 22//58
f 23//59 18//54 2//38
f 19//55 24//60 2//38
f 14//50 25//61 19//55
f 25//61 14//50 20//56
f 26//62 20//56 16//52
f 22//58 27//63 17//53
f 28//64 22//58 18//54
f 18//54 23//59 28//64
f 24//60 23//59 2//38
f 19//55 29//65 24//60
f 29//65 19//55 25//61
f 20//56 26//62 25//61
f 22//58 28//64 27//63
f 30//66 28//64 23//59
f 23//59 24//60 30//66
f 31//67 24//60 29//65
f 25//61 32//68 29//65
f 32//68 25//61 26//62
f 33//69 27//63 28//64
f 28//64 30//66 33//69
f 31//67 30//66 24//60
f 29//65 34//70 31//67
f 34//70 29//65 32//68
f 35//71 33//69 30//66
f 30//66 31//67 35//71
f 36//72 31//67 34//70
f 36//72 35//71 31//67
