# SSTK version 0.8.0
# 45
mtllib original-45.mtl
o mesh99/mesh99-geometry#mesh99-geometry
v 0.276285 -0.171809 0.253638
v 0.276285 -0.165929 0.249019
v 0.276285 -0.161563 0.253638
v 0.276285 -0.168501 0.246297
v 0.276285 -0.165619 0.246297
v 0.266869 -0.171809 0.253638
v 0.276285 -0.171873 0.242485
v 0.276285 -0.156746 0.245974
v 0.266869 -0.161563 0.253638
v 0.276285 -0.177372 0.247348
v 0.266869 -0.171873 0.242485
v 0.266869 -0.168501 0.246297
v 0.266869 -0.156746 0.245974
v 0.276285 -0.164087 0.243859
v 0.266869 -0.177372 0.247348
v 0.266869 -0.165619 0.246297
v 0.266869 -0.156746 -0.273196
v 0.276285 -0.156746 -0.273196
v 0.266869 -0.164087 0.243859
v 0.276285 -0.164087 -0.275140
v 0.266869 -0.132119 -0.316446
v 0.266869 -0.164087 -0.275140
v 0.276285 -0.132119 -0.316446
v 0.276285 -0.138498 -0.320078
v 0.266869 -0.138498 -0.320078
vn 1 0 0
vn -1 0 0
vn 0 0.000012999999998679455 1
vn 0 -0.000012999999998679455 -1
vn 0 -0.7491182876539866 0.662436254368946
vn 0 0.7491182876539866 -0.662436254368946
vn 0 0.7491210928423284 -0.6624330820986489
vn 0 -0.7491210928423284 0.6624330820986489
vn 0 0 -1
vn 0 0 1
vn 0 0.8467079353843329 0.5320579593965307
vn 0 -0.8467079353843329 -0.5320579593965307
vn 0 -0.662429909818123 -0.749123898015778
vn 0 0.662429909818123 0.749123898015778
vn 0 1 0
vn 0 -1 0
vn 0 -0.8467445363969087 -0.5319997087235895
vn 0 0.8467445363969087 0.5319997087235895
vn 0 0.8689898483612847 0.4948299136521878
vn 0 -0.8689898483612847 -0.4948299136521878
vn 0 0.49481396125681076 -0.8689989319586897
vn 0 -0.49481396125681076 0.8689989319586897
vn 0 -0.8689880686357219 -0.4948330390836472
vn 0 0.8689880686357219 0.4948330390836472
usemtl material_0_0
f 1//1 2//1 3//1
f 2//1 1//1 4//1
f 3//2 2//2 1//2
f 4//2 1//2 2//2
f 2//1 5//1 3//1
f 3//2 5//2 2//2
f 3//3 6//3 1//3
f 1//4 6//4 3//4
f 7//1 4//1 1//1
f 1//2 4//2 7//2
f 5//1 2//1 4//1
f 4//2 2//2 5//2
f 8//1 3//1 5//1
f 5//2 3//2 8//2
f 6//3 3//3 9//3
f 9//4 3//4 6//4
f 1//5 6//5 10//5
f 10//6 6//6 1//6
f 7//7 11//7 4//7
f 4//8 11//8 7//8
f 7//1 1//1 10//1
f 10//2 1//2 7//2
f 5//9 4//9 12//9
f 12//10 4//10 5//10
f 13//11 3//11 8//11
f 8//12 3//12 13//12
f 14//1 8//1 5//1
f 5//2 8//2 14//2
f 3//11 13//11 9//11
f 9//12 13//12 3//12
f 9//2 15//2 6//2
f 6//1 15//1 9//1
f 10//5 6//5 15//5
f 15//6 6//6 10//6
f 7//13 15//13 11//13
f 11//14 15//14 7//14
f 4//7 11//7 12//7
f 12//8 11//8 4//8
f 7//13 10//13 15//13
f 15//14 10//14 7//14
f 5//9 12//9 16//9
f 16//10 12//10 5//10
f 8//15 17//15 13//15
f 13//16 17//16 8//16
f 14//1 18//1 8//1
f 8//2 18//2 14//2
f 5//17 16//17 14//17
f 14//18 16//18 5//18
f 15//2 9//2 13//2
f 13//1 9//1 15//1
f 11//2 15//2 12//2
f 12//1 15//1 11//1
f 12//2 15//2 16//2
f 16//1 15//1 12//1
f 17//15 8//15 18//15
f 18//16 8//16 17//16
f 17//2 19//2 13//2
f 13//1 19//1 17//1
f 18//1 14//1 20//1
f 20//2 14//2 18//2
f 14//17 16//17 19//17
f 19//18 16//18 14//18
f 15//2 13//2 16//2
f 16//1 13//1 15//1
f 18//19 21//19 17//19
f 17//20 21//20 18//20
f 19//2 17//2 22//2
f 22//1 17//1 19//1
f 16//2 13//2 19//2
f 19//1 13//1 16//1
f 20//16 14//16 19//16
f 19//15 14//15 20//15
f 20//1 23//1 18//1
f 18//2 23//2 20//2
f 21//19 18//19 23//19
f 23//20 18//20 21//20
f 21//2 22//2 17//2
f 17//1 22//1 21//1
f 20//16 19//16 22//16
f 22//15 19//15 20//15
f 23//1 20//1 24//1
f 24//2 20//2 23//2
f 23//21 24//21 21//21
f 21//22 24//22 23//22
f 22//2 21//2 25//2
f 25//1 21//1 22//1
f 20//23 22//23 24//23
f 24//24 22//24 20//24
f 21//21 24//21 25//21
f 25//22 24//22 21//22
f 24//23 22//23 25//23
f 25//24 22//24 24//24
