# SSTK version 0.8.0
# 125
mtllib original-125.mtl
o mesh209/mesh209-geometry#mesh209-geometry
v -0.355789 0.570011 0.194613
v -0.355789 0.584609 0.263309
v -0.355789 0.564083 0.263309
v -0.355789 0.584609 0.194613
v -0.368204 0.564083 0.263309
v -0.355866 0.570095 0.193642
v -0.355866 0.584609 0.193642
v -0.368204 0.584609 0.263309
v -0.368128 0.570095 0.193642
v -0.356093 0.570177 0.192695
v -0.356093 0.584609 0.192695
v -0.368204 0.584609 0.194613
v -0.368204 0.570011 0.194613
v -0.367900 0.570177 0.192695
v -0.356466 0.570255 0.191795
v -0.356466 0.584609 0.191795
v -0.368128 0.584609 0.193642
v -0.367527 0.570255 0.191795
v -0.356975 0.570326 0.190964
v -0.356975 0.584609 0.190964
v -0.367900 0.584609 0.192695
v -0.367019 0.570326 0.190964
v -0.357607 0.570390 0.190224
v -0.357607 0.584609 0.190224
v -0.367527 0.584609 0.191795
v -0.366386 0.570390 0.190224
v -0.358348 0.570445 0.189591
v -0.358348 0.584609 0.189591
v -0.367019 0.584609 0.190964
v -0.365645 0.570445 0.189591
v -0.359178 0.570489 0.189082
v -0.359178 0.584609 0.189082
v -0.366386 0.584609 0.190224
v -0.364815 0.570489 0.189082
v -0.360078 0.570521 0.188709
v -0.360078 0.584609 0.188709
v -0.365645 0.584609 0.189591
v -0.363915 0.570521 0.188709
v -0.361026 0.570541 0.188482
v -0.361026 0.584609 0.188482
v -0.364815 0.584609 0.189082
v -0.362968 0.570541 0.188482
v -0.361997 0.570547 0.188405
v -0.361997 0.584609 0.188405
v -0.363915 0.584609 0.188709
v -0.362968 0.584609 0.188482
vn 0.999229028957158 0 -0.03926000113773522
vn 1 0 0
vn -1 0 0
vn -0.999229028957158 0 0.03926000113773522
vn 0 0 1
vn 0 0 -1
vn 0 -0.996297292495991 -0.08597502524080977
vn 0 0.996297292495991 0.08597502524080977
vn 0.9876884041127931 0 -0.15643406400501036
vn -0.9876884041127931 0 0.15643406400501036
vn 0 1 0
vn 0 -1 0
vn -0.999229028957158 0 -0.03926000113773522
vn 0.999229028957158 0 0.03926000113773522
vn 0.9510565608316645 0 -0.3090168573056278
vn -0.9510565608316645 0 0.3090168573056278
vn -0.9952128683477769 -0.000028999996163699562 -0.09773098707160836
vn 0.9952128683477769 0.000028999996163699562 0.09773098707160836
vn -0.9877435055179454 0.005235997378766155 -0.15599792190465187
vn 0.9877435055179454 -0.005235997378766155 0.15599792190465187
vn -0.9724208860176926 -0.000029999996483498834 -0.23323297266159873
vn 0.9724208860176926 0.000029999996483498834 0.23323297266159873
vn 0.8910068244052928 0 -0.4539899105301741
vn -0.8910068244052928 0 0.4539899105301741
vn -0.9876742154823885 -0.005295001155218435 -0.15643403412945156
vn 0.9876742154823885 0.005295001155218435 0.15643403412945156
vn -0.9510565608316645 0 -0.3090168573056278
vn -0.8910068244052928 0 -0.4539899105301741
vn 0.8910068244052928 0 0.4539899105301741
vn 0.9510565608316645 0 0.3090168573056278
vn 0.8090171162905557 0 -0.5877850844899974
vn -0.8090171162905557 0 0.5877850844899974
vn -0.8090171162905557 0 -0.5877850844899974
vn 0.8090171162905557 0 0.5877850844899974
vn 0.7071067811865476 0 -0.7071067811865476
vn -0.7071067811865476 0 0.7071067811865476
vn -0.7071067811865476 0 -0.7071067811865476
vn 0.7071067811865476 0 0.7071067811865476
vn 0.5877850844899974 0 -0.8090171162905557
vn -0.5877850844899974 0 0.8090171162905557
vn -0.5877850844899974 0 -0.8090171162905557
vn 0.5877850844899974 0 0.8090171162905557
vn 0.4539899105301741 0 -0.8910068244052928
vn -0.4539899105301741 0 0.8910068244052928
vn -0.4539899105301741 0 -0.8910068244052928
vn 0.4539899105301741 0 0.8910068244052928
vn 0.3090168573056278 0 -0.9510565608316645
vn -0.3090168573056278 0 0.9510565608316645
vn -0.3090168573056278 0 -0.9510565608316645
vn 0.3090168573056278 0 0.9510565608316645
vn 0.15643406400501036 0 -0.9876884041127931
vn -0.15643406400501036 0 0.9876884041127931
vn -0.15643406400501036 0 -0.9876884041127931
vn 0.15643406400501036 0 0.9876884041127931
usemtl material_0_0
f 1//1 2//2 3//2
f 2//2 1//1 4//1
f 3//3 2//3 1//4
f 4//4 1//4 2//3
f 2//5 5//5 3//5
f 3//6 5//6 2//6
f 3//7 6//7 1//7
f 1//8 6//8 3//8
f 1//1 7//9 4//1
f 4//4 7//10 1//4
f 7//11 2//11 4//11
f 4//12 2//12 7//12
f 5//5 2//5 8//5
f 8//6 2//6 5//6
f 5//7 9//7 3//7
f 3//8 9//8 5//8
f 3//7 10//7 6//7
f 6//8 10//8 3//8
f 7//9 1//1 6//9
f 6//10 1//4 7//10
f 11//11 2//11 7//11
f 7//12 2//12 11//12
f 2//11 12//11 8//11
f 8//12 12//12 2//12
f 8//3 13//13 5//3
f 5//2 13//14 8//2
f 9//7 5//7 13//7
f 13//8 5//8 9//8
f 3//7 9//7 14//7
f 14//8 9//8 3//8
f 3//7 15//7 10//7
f 10//8 15//8 3//8
f 10//15 7//9 6//9
f 6//10 7//10 10//16
f 16//11 2//11 11//11
f 11//12 2//12 16//12
f 7//9 10//15 11//15
f 11//16 10//16 7//10
f 12//11 2//11 17//11
f 17//12 2//12 12//12
f 13//13 8//3 12//17
f 12//18 8//2 13//14
f 9//19 13//13 12//17
f 12//18 13//14 9//20
f 14//21 9//19 12//17
f 12//18 9//20 14//22
f 3//7 14//7 18//7
f 18//8 14//8 3//8
f 3//7 19//7 15//7
f 15//8 19//8 3//8
f 15//23 11//15 10//15
f 10//16 11//16 15//24
f 20//11 2//11 16//11
f 16//12 2//12 20//12
f 11//15 15//23 16//23
f 16//24 15//24 11//16
f 17//11 2//11 21//11
f 21//12 2//12 17//12
f 14//21 12//17 17//25
f 17//26 12//18 14//22
f 21//27 18//28 14//21
f 14//22 18//29 21//30
f 3//7 18//7 22//7
f 22//8 18//8 3//8
f 3//7 23//7 19//7
f 19//8 23//8 3//8
f 19//31 16//23 15//23
f 15//24 16//24 19//32
f 24//11 2//11 20//11
f 20//12 2//12 24//12
f 16//23 19//31 20//31
f 20//32 19//32 16//24
f 21//11 2//11 25//11
f 25//12 2//12 21//12
f 21//27 14//21 17//25
f 17//26 14//22 21//30
f 18//28 21//27 25//28
f 25//29 21//30 18//29
f 25//28 22//33 18//28
f 18//29 22//34 25//29
f 3//7 22//7 26//7
f 26//8 22//8 3//8
f 3//7 27//7 23//7
f 23//8 27//8 3//8
f 23//35 20//31 19//31
f 19//32 20//32 23//36
f 28//11 2//11 24//11
f 24//12 2//12 28//12
f 20//31 23//35 24//35
f 24//36 23//36 20//32
f 25//11 2//11 29//11
f 29//12 2//12 25//12
f 22//33 25//28 29//33
f 29//34 25//29 22//34
f 29//33 26//37 22//33
f 22//34 26//38 29//34
f 3//7 26//7 30//7
f 30//8 26//8 3//8
f 3//7 31//7 27//7
f 27//8 31//8 3//8
f 27//39 24//35 23//35
f 23//36 24//36 27//40
f 32//11 2//11 28//11
f 28//12 2//12 32//12
f 24//35 27//39 28//39
f 28//40 27//40 24//36
f 29//11 2//11 33//11
f 33//12 2//12 29//12
f 26//37 29//33 33//37
f 33//38 29//34 26//38
f 33//37 30//41 26//37
f 26//38 30//42 33//38
f 3//7 30//7 34//7
f 34//8 30//8 3//8
f 3//7 35//7 31//7
f 31//8 35//8 3//8
f 31//43 28//39 27//39
f 27//40 28//40 31//44
f 36//11 2//11 32//11
f 32//12 2//12 36//12
f 28//39 31//43 32//43
f 32//44 31//44 28//40
f 33//11 2//11 37//11
f 37//12 2//12 33//12
f 30//41 33//37 37//41
f 37//42 33//38 30//42
f 37//41 34//45 30//41
f 30//42 34//46 37//42
f 3//7 34//7 38//7
f 38//8 34//8 3//8
f 3//7 39//7 35//7
f 35//8 39//8 3//8
f 35//47 32//43 31//43
f 31//44 32//44 35//48
f 40//11 2//11 36//11
f 36//12 2//12 40//12
f 32//43 35//47 36//47
f 36//48 35//48 32//44
f 37//11 2//11 41//11
f 41//12 2//12 37//12
f 34//45 37//41 41//45
f 41//46 37//42 34//46
f 41//45 38//49 34//45
f 34//46 38//50 41//46
f 3//7 38//7 42//7
f 42//8 38//8 3//8
f 3//7 43//7 39//7
f 39//8 43//8 3//8
f 39//51 36//47 35//47
f 35//48 36//48 39//52
f 44//11 2//11 40//11
f 40//12 2//12 44//12
f 36//47 39//51 40//51
f 40//52 39//52 36//48
f 41//11 2//11 45//11
f 45//12 2//12 41//12
f 38//49 41//45 45//49
f 45//50 41//46 38//50
f 45//49 42//53 38//49
f 38//50 42//54 45//50
f 3//7 42//7 43//7
f 43//8 42//8 3//8
f 43//6 40//51 39//51
f 39//52 40//52 43//5
f 46//11 2//11 44//11
f 44//12 2//12 46//12
f 40//51 43//6 44//6
f 44//5 43//5 40//52
f 45//11 2//11 46//11
f 46//12 2//12 45//12
f 42//53 45//49 46//53
f 46//54 45//50 42//54
f 46//53 43//6 42//53
f 42//54 43//5 46//54
f 43//6 46//53 44//6
f 44//5 46//54 43//5
