# SSTK version 0.8.0
# 170
mtllib original-170.mtl
o Group10/mesh76/mesh76-geometry/material_0/component_1#mesh76-geometry
v 0.374450 0.036335 0.412844
v -0.396221 -0.204758 0.412844
v 0.374450 -0.204758 0.412844
v 0.374450 -0.204758 0.412844
v -0.396221 -0.204758 0.412844
v 0.374450 0.036335 0.412844
v -0.396221 -0.204758 0.412844
v 0.374450 0.036335 0.412844
v -0.396221 0.036335 0.412844
v -0.396221 0.036335 0.412844
v 0.374450 0.036335 0.412844
v -0.396221 -0.204758 0.412844
vn 0 0 1
vn 0 0 -1
usemtl material_0_0
f 1//1 2//1 3//1
f 4//2 5//2 6//2
f 7//1 8//1 9//1
f 10//2 11//2 12//2
