mtllib new-7.mtl
v -0.730717 0.034503 0.023978
v -0.730717 -0.017976 -0.289584
v -0.730717 0.034503 -0.289584
v -0.730717 -0.017976 0.023978
v -0.759581 0.047623 -0.289584
v -0.730717 0.034503 0.044969
v -0.759581 -0.017976 0.358531
v -0.759581 -0.017976 -0.289584
v -0.730717 0.034503 0.358531
v -0.730717 0.050247 0.358531
v -0.730717 -0.017976 0.044969
v -0.730717 -0.017976 0.358531
v -0.759581 0.047623 0.358531
v -0.730717 -0.017976 0.387394
v -0.730717 0.050247 0.384770
v -0.730717 0.050047 0.385774
v -0.730717 0.049478 0.386626
v -0.730717 0.048627 0.387194
v -0.746461 0.047623 0.387394
v -0.730717 0.047623 0.387394
vn 1.000000 0.000000 0.000000
vn 0.000000 0.000000 -1.000000
vn 0.000000 -1.000000 0.000000
vn -1.000000 0.000000 0.000000
vn 0.000000 0.000000 1.000000
vn 0.000000 1.000000 0.000000
vt -0.225153 1.705630
vt -0.032698 1.671551
vt -0.033335 1.710220
vt -0.224515 1.666961
vt -0.389911 1.647499
vt -0.373052 1.696257
vt -0.390549 1.686168
vt 0.062651 1.804142
vt 0.058585 2.050655
vt 0.058840 2.035187
vt -0.237995 1.705323
vt -0.224579 1.670828
vt -0.428888 1.644663
vt -0.032761 1.675418
vt -0.372254 1.647922
vt 0.377257 1.263544
vt -0.237357 1.666654
vt -0.237421 1.670521
vt -0.032411 1.654150
vt -0.027348 1.659924
vt -0.424623 1.698772
vt -0.423825 1.650436
vt -0.429812 1.700732
vt -0.429238 1.665931
vt -0.028145 1.708259
vt -0.429175 1.662064
vt 0.023585 1.696078
vt 0.041880 1.657832
vt 0.023394 1.707678
vt 0.985495 1.433756
vt 0.967679 1.443000
vt 0.984698 1.482092
vt 0.967041 1.481669
vt 0.024223 1.657409
vt 0.039445 1.708062
vt 0.040062 1.707930
vt 0.040590 1.707523
vt 0.040948 1.706904
vt 0.417195 1.276105
vt 0.041082 1.706167
vt 0.417386 1.264505
vt -0.076389 1.541667
vt -0.076389 1.402778
vt -0.906250 1.541667
vt -0.906250 1.402778
vt 3.909722 1.541667
vt 3.986111 1.576389
vt 3.909722 1.402778
vt -3.909722 0.906250
vt -3.909722 0.961806
vt -3.909722 0.076389
vt -0.961806 1.541667
vt -3.909722 1.402778
vt -3.909722 1.541667
vt -3.986111 1.791667
vt 3.986111 1.402778
vt -3.909722 1.791667
vt 1.791667 1.583333
vt -0.961806 1.402778
vt -3.986111 0.076389
vt -3.986111 1.402778
vt 0.076389 1.402778
vt 0.076389 1.576389
vt 1.791667 1.402778
vt -1.791667 1.541667
vt 1.791667 1.541667
vt 1.791667 1.576389
vt -1.791667 1.402778
vt 1.868056 1.402778
vt -3.986111 1.576389
vt 1.861111 1.583333
vt 1.863769 1.582805
vt 1.866022 1.581299
vt 1.867527 1.579046
vt -3.951389 1.576389
vt -3.909722 1.576389
vt 1.868056 1.576389
usemtl material-0
f 1/1/1 2/2/1 3/3/1
f 2/2/1 1/1/1 4/4/1
f 2/5/2 5/6/2 3/7/2
f 3/8/3 6/9/3 1/10/3
f 4/4/1 1/1/1 6/11/1
f 4/12/3 7/13/3 2/14/3
f 5/6/2 2/5/2 8/15/2
f 4/4/1 6/11/1 11/17/1
f 11/18/3 7/13/3 4/12/3
f 2/14/3 7/13/3 8/19/3
f 7/20/4 5/21/4 8/22/4
f 11/17/1 6/11/1 9/23/1
f 7/13/3 11/18/3 12/24/3
f 5/21/4 7/20/4 13/25/4
f 11/17/1 9/23/1 12/26/1
f 9/27/4 14/28/4 10/29/4
f 9/31/5 7/32/5 12/33/5
f 7/32/5 9/31/5 13/30/5
f 14/28/4 9/27/4 12/34/4
f 10/29/4 14/28/4 15/35/4
f 15/35/4 14/28/4 16/36/4
f 16/36/4 14/28/4 17/37/4
f 17/37/4 14/28/4 18/38/4
f 18/38/4 14/28/4 20/40/4
f 19/39/5 14/16/5 20/41/5
usemtl material-1
f 3/42/4 2/43/4 1/44/4
f 4/45/4 1/44/4 2/43/4
f 3/46/5 5/47/5 2/48/5
f 1/49/6 6/50/6 3/51/6
f 6/52/4 1/44/4 4/45/4
f 6/52/1 4/45/1 1/44/1
f 1/44/4 4/45/4 6/52/4
f 2/51/6 7/55/6 4/49/6
f 8/56/5 2/48/5 5/47/5
f 11/59/4 6/52/4 4/45/4
f 4/45/1 6/52/1 11/59/1
f 11/59/4 6/52/4 4/45/4
f 4/49/6 7/55/6 11/50/6
f 8/60/6 7/55/6 2/51/6
f 8/62/1 5/63/1 7/64/1
f 9/65/4 6/52/4 11/59/4
f 12/57/6 11/50/6 7/55/6
f 13/67/1 7/64/1 5/63/1
f 12/68/4 9/65/4 11/59/4
f 10/58/1 14/69/1 9/66/1
f 12/53/2 7/61/2 9/54/2
f 13/70/2 9/54/2 7/61/2
f 12/64/1 9/66/1 14/69/1
f 15/71/1 14/69/1 10/58/1
f 16/72/1 14/69/1 15/71/1
f 17/73/1 14/69/1 16/72/1
f 18/74/1 14/69/1 17/73/1
f 20/77/1 14/69/1 18/74/1
f 20/76/2 14/53/2 19/75/2