# SSTK version 0.8.0
# 71
mtllib original-71.mtl
o RB_11_CR1/RB_11_CR/mesh49/mesh49-geometry#mesh49-geometry
v 0.660631 0.371295 0.295504
v 0.660152 0.206614 0.295025
v 0.660631 0.206614 0.295504
v 0.660152 0.371295 0.295025
v 0.661235 0.371295 0.295812
v 0.659845 0.206614 0.294422
v 0.661235 0.206614 0.295812
v 0.659845 0.371295 0.294422
v 0.661904 0.371295 0.295918
v 0.659739 0.206614 0.293753
v 0.661904 0.206614 0.295918
v 0.659739 0.371295 0.293753
v 0.664747 0.371295 0.295918
v 0.659739 0.206614 0.293037
v 0.664747 0.206614 0.295918
v 0.659739 0.371295 0.293037
v 0.665451 0.371295 0.295887
v 0.657538 0.206614 0.293037
v 0.665451 0.206614 0.295887
v 0.657538 0.371295 0.293037
v 0.666095 0.371295 0.295603
v 0.657538 0.371295 0.294209
v 0.666095 0.206614 0.295603
v 0.657538 0.206614 0.294209
v 0.666593 0.206614 0.295105
v 0.657489 0.371295 0.294514
v 0.666593 0.371295 0.295105
v 0.657489 0.206614 0.294514
v 0.666877 0.206614 0.294461
v 0.657349 0.371295 0.294790
v 0.666877 0.371295 0.294461
v 0.657349 0.206614 0.294790
v 0.666907 0.206614 0.293757
v 0.657130 0.371295 0.295009
v 0.666907 0.371295 0.293757
v 0.657130 0.206614 0.295009
v 0.666907 0.206614 0.280647
v 0.656855 0.206614 0.295149
v 0.666907 0.371295 0.280647
v 0.656855 0.371295 0.295149
v 0.666801 0.206614 0.279978
v 0.656549 0.206614 0.295197
v 0.666801 0.371295 0.279978
v 0.656549 0.371295 0.295197
v 0.666494 0.206614 0.279375
v 0.629679 0.206614 0.295183
v 0.666494 0.371295 0.279375
v 0.629679 0.371295 0.295183
v 0.666015 0.206614 0.278896
v 0.625325 0.206614 0.295534
v 0.666015 0.371295 0.278896
v 0.625325 0.371295 0.295534
v 0.665411 0.371295 0.278588
v 0.620999 0.206614 0.296141
v 0.665411 0.206614 0.278588
v 0.620999 0.371295 0.296141
v 0.664742 0.371295 0.278482
v 0.616717 0.206614 0.297005
v 0.664742 0.206614 0.278482
v 0.616717 0.371295 0.297005
v 0.597720 0.371295 0.278482
v 0.612494 0.206614 0.298120
v 0.597720 0.206614 0.278482
v 0.612494 0.371295 0.298120
v 0.597720 0.371295 0.279702
v 0.608345 0.206614 0.299484
v 0.597720 0.206614 0.279702
v 0.608345 0.371295 0.299484
v 0.564763 0.371295 0.279702
v 0.604283 0.206614 0.301092
v 0.564763 0.206614 0.279702
v 0.604283 0.371295 0.301092
v 0.603205 0.206614 0.301531
v 0.603205 0.371295 0.301531
v 0.602051 0.206614 0.301681
v 0.602051 0.371295 0.301681
v 0.600714 0.206614 0.301469
v 0.600714 0.371295 0.301469
v 0.599508 0.206614 0.300855
v 0.599508 0.371295 0.300855
v 0.598550 0.206614 0.299899
v 0.598550 0.371295 0.299899
v 0.597934 0.206614 0.298694
v 0.597934 0.371295 0.298694
v 0.597720 0.206614 0.297358
v 0.597720 0.371295 0.297358
v 0.597720 0.206614 0.288349
v 0.597720 0.371295 0.288349
v 0.564763 0.371295 0.288349
v 0.564763 0.206614 0.288349
vt 1.266606 0.239053
vt 1.266283 0.065634
vt 1.266606 0.065634
vt 1.266283 0.239053
vt 1.267013 0.239053
vt 1.266076 0.065634
vt 1.267013 0.065634
vt 1.266076 0.239053
vt 1.267463 0.239053
vt 1.266005 0.065634
vt 1.267463 0.065634
vt 1.266005 0.239053
vt 1.269378 0.239053
vt 1.269378 0.065634
vt 1.269852 0.239053
vt 1.264523 0.065634
vt 1.269852 0.065634
vt 1.264523 0.239053
vt 1.270286 0.239053
vt 1.270286 0.065634
vt 1.270622 0.065634
vt 1.26449 0.239053
vt 1.270622 0.239053
vt 1.26449 0.065634
vt 1.270813 0.065634
vt 1.264395 0.239053
vt 1.270813 0.239053
vt 1.264395 0.065634
vt 1.270833 0.065634
vt 1.264248 0.239053
vt 1.270833 0.239053
vt 1.264248 0.065634
vt 1.264062 0.065634
vt 1.264062 0.239053
vt 1.270762 0.065634
vt 1.263857 0.065634
vt 1.270762 0.239053
vt 1.263857 0.239053
vt 1.270555 0.065634
vt 1.245758 0.065634
vt 1.270555 0.239053
vt 1.245758 0.239053
vt 1.270232 0.065634
vt 1.242826 0.065634
vt 1.270232 0.239053
vt 1.242826 0.239053
vt 1.269826 0.239053
vt 1.239912 0.065634
vt 1.269826 0.065634
vt 1.239912 0.239053
vt 1.269375 0.239053
vt 1.237028 0.065634
vt 1.269375 0.065634
vt 1.237028 0.239053
vt 1.224233 0.239053
vt 1.234184 0.065634
vt 1.224233 0.065634
vt 1.234184 0.239053
vt 1.231389 0.065634
vt 1.231389 0.239053
vt 1.202035 0.239053
vt 1.228653 0.065634
vt 1.202035 0.065634
vt 1.228653 0.239053
vt 1.227927 0.065634
vt 1.227927 0.239053
vt 1.22715 0.065634
vt 1.22715 0.239053
vt 1.226249 0.065634
vt 1.226249 0.239053
vt 1.225437 0.065634
vt 1.225437 0.239053
vt 1.224792 0.065634
vt 1.224792 0.239053
vt 1.224377 0.065634
vt 1.224377 0.239053
vn -0.5877850844899976 0 0.8090171162905558
vn -0.8090171162905558 0 0.5877850844899976
vn -0.3090168573056277 0 0.9510565608316643
vn -0.9510565608316643 0 0.3090168573056277
vn -0.07845902669294229 0 0.9969173391662901
vn -0.9969173391662901 0 0.07845902669294229
vn 0.021816999584026178 0 0.9997619809380384
vn -1 0 0
vn 0.22709892866994097 0 0.973871694114253
vn 0 0 1
vn 0.5646550209052232 0 0.8253270305560833
vn 0.9969173391662901 0 0.07845902669294229
vn 1 0 0
vn 0.825413159960959 0 0.5645291094029293
vn 0.9510565608316643 0 0.3090168573056277
vn 0.9739063898859709 0 0.22695009085540196
vn 0.8090171162905558 0 0.5877850844899976
vn 0.9997636366974577 0 0.02174099209957493
vn 0.5877850844899976 0 0.8090171162905558
vn 0.9969173391662901 0 -0.07845902669294229
vn 0.3090168573056277 0 0.9510565608316643
vn 0.9510565608316643 0 -0.3090168573056277
vn 0.0781989820359364 0 0.9969377709809891
vn 0.8090171162905558 0 -0.5877850844899976
vn 0.03986100934051182 0 0.9992052341407923
vn 0.5877850844899976 0 -0.8090171162905558
vn 0.1097099606472636 0 0.9939636434672929
vn 0.3090168573056277 0 -0.9510565608316643
vn 0.16845602892247075 0 0.9857091692379003
vn 0.07845902669294229 0 -0.9969173391662901
vn 0.22660990705641887 0 0.9739856005218358
vn 0 0 -1
vn 0.28396609531153205 0 0.9588343218270411
vn 0.3403228707096643 0 0.9403086427721129
vn 0.37257296118944916 0 0.9280029033308705
vn 0.2549120630856452 0 0.9669642393043396
vn -0.014007998363389612 0 0.9999018831774701
vn -0.3086658501740957 0 0.9511705383033596
vn -0.587187803660579 0 0.8094507293419813
vn -0.8083652857628375 0 0.5886812081029645
vn -0.9505991634831077 0 0.3104210533859069
vn -0.9968518313959845 0 0.07928698658967773
vn -0.021816999584026178 0 -0.9997619809380384
vn -0.22709892866994097 0 -0.973871694114253
vn -0.5646550209052232 0 -0.8253270305560833
vn -0.9969173391662901 0 -0.07845902669294229
vn -0.825413159960959 0 -0.5645291094029293
vn -0.9510565608316643 0 -0.3090168573056277
vn -0.9739063898859709 0 -0.22695009085540196
vn -0.8090171162905558 0 -0.5877850844899976
vn -0.9997636366974577 0 -0.02174099209957493
vn -0.5877850844899976 0 -0.8090171162905558
vn -0.3090168573056277 0 -0.9510565608316643
vn -0.0781989820359364 0 -0.9969377709809891
vn -0.03986100934051182 0 -0.9992052341407923
vn -0.1097099606472636 0 -0.9939636434672929
vn -0.16845602892247075 0 -0.9857091692379003
vn -0.22660990705641887 0 -0.9739856005218358
vn -0.28396609531153205 0 -0.9588343218270411
vn -0.3403228707096643 0 -0.9403086427721129
vn -0.37257296118944916 0 -0.9280029033308705
vn -0.2549120630856452 0 -0.9669642393043396
vn 0.014007998363389612 0 -0.9999018831774701
vn 0.3086658501740957 0 -0.9511705383033596
vn 0.587187803660579 0 -0.8094507293419813
vn 0.8083652857628375 0 -0.5886812081029645
vn 0.9505991634831077 0 -0.3104210533859069
vn 0.9968518313959845 0 -0.07928698658967773
usemtl material_0_0
f 1/1/1 2/2/2 3/3/1
f 2/2/2 1/1/1 4/4/2
f 3/3/1 5/5/3 1/1/1
f 4/4/2 6/6/4 2/2/2
f 5/5/3 3/3/1 7/7/3
f 6/6/4 4/4/2 8/8/4
f 7/7/3 9/9/5 5/5/3
f 8/8/4 10/10/6 6/6/4
f 9/9/5 7/7/3 11/11/5
f 10/10/6 8/8/4 12/12/6
f 11/11/5 13/13/7 9/9/5
f 12/12/6 14/10/8 10/10/6
f 13/13/7 11/11/5 15/14/7
f 14/10/8 12/12/6 16/12/8
f 15/14/7 17/15/9 13/13/7
f 16/12/10 18/16/10 14/10/10
f 17/15/9 15/14/7 19/17/9
f 18/16/10 16/12/10 20/18/10
f 19/17/9 21/19/11 17/15/9
f 22/18/12 18/16/13 20/18/13
f 21/19/11 19/17/9 23/20/11
f 18/16/13 22/18/12 24/16/12
f 25/21/14 21/19/11 23/20/11
f 26/22/15 24/16/12 22/18/12
f 21/19/11 25/21/14 27/23/14
f 24/16/12 26/22/15 28/24/15
f 29/25/16 27/23/14 25/21/14
f 30/26/17 28/24/15 26/22/15
f 27/23/14 29/25/16 31/27/16
f 28/24/15 30/26/17 32/28/17
f 33/29/18 31/27/16 29/25/16
f 34/30/19 32/28/17 30/26/17
f 31/27/16 33/29/18 35/31/18
f 32/28/17 34/30/19 36/32/19
f 37/29/20 35/31/18 33/29/18
f 34/30/19 38/33/21 36/32/19
f 35/31/18 37/29/20 39/31/20
f 38/33/21 34/30/19 40/34/21
f 41/35/22 39/31/20 37/29/20
f 40/34/21 42/36/23 38/33/21
f 39/31/20 41/35/22 43/37/22
f 42/36/23 40/34/21 44/38/23
f 45/39/24 43/37/22 41/35/22
f 44/38/23 46/40/25 42/36/23
f 43/37/22 45/39/24 47/41/24
f 46/40/25 44/38/23 48/42/25
f 49/43/26 47/41/24 45/39/24
f 48/42/25 50/44/27 46/40/25
f 47/41/24 49/43/26 51/45/26
f 50/44/27 48/42/25 52/46/27
f 49/43/26 53/47/28 51/45/26
f 52/46/27 54/48/29 50/44/27
f 53/47/28 49/43/26 55/49/28
f 54/48/29 52/46/27 56/50/29
f 55/49/28 57/51/30 53/47/28
f 56/50/29 58/52/31 54/48/29
f 57/51/30 55/49/28 59/53/30
f 58/52/31 56/50/29 60/54/31
f 59/53/30 61/55/32 57/51/30
f 60/54/31 62/56/33 58/52/31
f 61/55/32 59/53/30 63/57/32
f 62/56/33 60/54/31 64/58/33
f 63/57/8 65/55/8 61/55/8
f 64/58/33 66/59/34 62/56/33
f 65/55/8 63/57/8 67/57/8
f 66/59/34 64/58/33 68/60/34
f 67/57/32 69/61/32 65/55/32
f 68/60/34 70/62/35 66/59/34
f 69/61/32 67/57/32 71/63/32
f 70/62/35 68/60/34 72/64/35
f 72/64/35 73/65/36 70/62/35
f 73/65/36 72/64/35 74/66/36
f 74/66/36 75/67/37 73/65/36
f 75/67/37 74/66/36 76/68/37
f 76/68/37 77/69/38 75/67/37
f 77/69/38 76/68/37 78/70/38
f 78/70/38 79/71/39 77/69/38
f 79/71/39 78/70/38 80/72/39
f 80/72/39 81/73/40 79/71/39
f 81/73/40 80/72/39 82/74/40
f 82/74/40 83/75/41 81/73/40
f 83/75/41 82/74/40 84/76/41
f 84/76/41 85/57/42 83/75/41
f 85/57/42 84/76/41 86/55/42
f 86/55/42 87/57/8 85/57/42
f 87/57/8 86/55/42 88/55/8
f 89/61/10 87/57/10 88/55/10
f 87/57/10 89/61/10 90/63/10
usemtl material_1_0
f 3//26 2//24 1//26
f 4//24 1//26 2//24
f 1//26 5//28 3//26
f 2//24 6//22 4//24
f 7//28 3//26 5//28
f 8//22 4//24 6//22
f 5//28 9//30 7//28
f 6//22 10//20 8//22
f 11//30 7//28 9//30
f 12//20 8//22 10//20
f 9//30 13//43 11//30
f 10//20 14//13 12//20
f 15//43 11//30 13//43
f 16//13 12//20 14//13
f 13//43 17//44 15//43
f 14//32 18//32 16//32
f 19//44 15//43 17//44
f 20//32 16//32 18//32
f 17//44 21//45 19//44
f 20//8 18//8 22//46
f 23//45 19//44 21//45
f 24//46 22//46 18//8
f 23//45 21//45 25//47
f 22//46 24//46 26//48
f 27//47 25//47 21//45
f 28//48 26//48 24//46
f 25//47 27//47 29//49
f 26//48 28//48 30//50
f 31//49 29//49 27//47
f 32//50 30//50 28//48
f 29//49 31//49 33//51
f 30//50 32//50 34//52
f 35//51 33//51 31//49
f 36//52 34//52 32//50
f 33//51 35//51 37//6
f 36//52 38//53 34//52
f 39//6 37//6 35//51
f 40//53 34//52 38//53
f 37//6 39//6 41//4
f 38//53 42//54 40//53
f 43//4 41//4 39//6
f 44//54 40//53 42//54
f 41//4 43//4 45//2
f 42//54 46//55 44//54
f 47//2 45//2 43//4
f 48//55 44//54 46//55
f 45//2 47//2 49//1
f 46//55 50//56 48//55
f 51//1 49//1 47//2
f 52//56 48//55 50//56
f 51//1 53//3 49//1
f 50//56 54//57 52//56
f 55//3 49//1 53//3
f 56//57 52//56 54//57
f 53//3 57//5 55//3
f 54//57 58//58 56//57
f 59//5 55//3 57//5
f 60//58 56//57 58//58
f 57//5 61//10 59//5
f 58//58 62//59 60//58
f 63//10 59//5 61//10
f 64//59 60//58 62//59
f 61//13 65//13 63//13
f 62//59 66//60 64//59
f 67//13 63//13 65//13
f 68//60 64//59 66//60
f 65//10 69//10 67//10
f 66//60 70//61 68//60
f 71//10 67//10 69//10
f 72//61 68//60 70//61
f 70//61 73//62 72//61
f 74//62 72//61 73//62
f 73//62 75//63 74//62
f 76//63 74//62 75//63
f 75//63 77//64 76//63
f 78//64 76//63 77//64
f 77//64 79//65 78//64
f 80//65 78//64 79//65
f 79//65 81//66 80//65
f 82//66 80//65 81//66
f 81//66 83//67 82//66
f 84//67 82//66 83//67
f 83//67 85//68 84//67
f 86//68 84//67 85//68
f 85//68 87//13 86//68
f 88//13 86//68 87//13
f 88//32 87//32 89//32
f 90//32 89//32 87//32
