# SSTK version 0.8.0
# 30
mtllib original-30.mtl
o DF_21_CL1/DF_21_CL/mesh25/mesh25-geometry#mesh25-geometry
v -0.790343 0.377559 -0.196607
v -0.790650 0.200351 -0.197210
v -0.790343 0.200351 -0.196607
v -0.790650 0.377559 -0.197210
v -0.789864 0.200351 -0.196127
v -0.790756 0.200351 -0.197879
v -0.789864 0.377559 -0.196127
v -0.790756 0.377559 -0.197879
v -0.789260 0.200351 -0.195820
v -0.790756 0.200351 -0.200722
v -0.789260 0.377559 -0.195820
v -0.790756 0.377559 -0.200722
v -0.788591 0.200351 -0.195714
v -0.790726 0.200351 -0.201426
v -0.788591 0.377559 -0.195714
v -0.790726 0.377559 -0.201426
v -0.787875 0.200351 -0.195714
v -0.790442 0.200351 -0.202070
v -0.787875 0.377559 -0.195714
v -0.790442 0.377559 -0.202070
v -0.787875 0.377559 -0.193513
v -0.789944 0.200351 -0.202568
v -0.787875 0.200351 -0.193513
v -0.789944 0.377559 -0.202568
v -0.789048 0.377559 -0.193513
v -0.789299 0.200351 -0.202852
v -0.789048 0.200351 -0.193513
v -0.789299 0.377559 -0.202852
v -0.789353 0.377559 -0.193465
v -0.788596 0.200351 -0.202883
v -0.789353 0.200351 -0.193465
v -0.788596 0.377559 -0.202883
v -0.789629 0.200351 -0.193324
v -0.775486 0.377559 -0.202883
v -0.789629 0.377559 -0.193324
v -0.775486 0.200351 -0.202883
v -0.789847 0.377559 -0.193106
v -0.774817 0.200351 -0.202777
v -0.789847 0.200351 -0.193106
v -0.774817 0.377559 -0.202777
v -0.789988 0.377559 -0.192830
v -0.774213 0.200351 -0.202469
v -0.789988 0.200351 -0.192830
v -0.774213 0.377559 -0.202469
v -0.790036 0.377559 -0.192525
v -0.773734 0.200351 -0.201990
v -0.790036 0.200351 -0.192525
v -0.773734 0.377559 -0.201990
v -0.790022 0.377559 -0.165654
v -0.773427 0.200351 -0.201387
v -0.790022 0.200351 -0.165654
v -0.773427 0.377559 -0.201387
v -0.790372 0.377559 -0.161300
v -0.773321 0.200351 -0.200717
v -0.790372 0.200351 -0.161300
v -0.773321 0.377559 -0.200717
v -0.790980 0.377559 -0.156975
v -0.773321 0.200351 -0.133696
v -0.790980 0.200351 -0.156975
v -0.773321 0.377559 -0.133696
v -0.791843 0.377559 -0.152693
v -0.774541 0.377559 -0.133696
v -0.791843 0.200351 -0.152693
v -0.774541 0.200351 -0.133696
v -0.792959 0.377559 -0.148469
v -0.774541 0.200351 -0.092909
v -0.792959 0.200351 -0.148469
v -0.774541 0.377559 -0.092909
v -0.794323 0.377559 -0.144320
v -0.794323 0.200351 -0.144320
v -0.795931 0.377559 -0.140258
v -0.795931 0.200351 -0.140258
v -0.796370 0.377559 -0.139180
v -0.796370 0.200351 -0.139180
v -0.796519 0.377559 -0.138026
v -0.796519 0.200351 -0.138026
v -0.796308 0.377559 -0.136689
v -0.796308 0.200351 -0.136689
v -0.795694 0.377559 -0.135483
v -0.795694 0.200351 -0.135483
v -0.794738 0.377559 -0.134525
v -0.794738 0.200351 -0.134525
v -0.793533 0.200351 -0.133910
v -0.793533 0.377559 -0.133910
v -0.792197 0.200351 -0.133696
v -0.792197 0.377559 -0.133696
v -0.783188 0.200351 -0.133696
v -0.783188 0.377559 -0.133696
v -0.783188 0.377559 -0.092909
v -0.783188 0.200351 -0.092909
vt 0.51204 0.959418
vt 0.511633 0.824436
vt 0.51204 0.824436
vt 0.511633 0.959418
vt 0.512362 0.824436
vt 0.511183 0.824436
vt 0.512362 0.959418
vt 0.511183 0.959418
vt 0.512569 0.824436
vt 0.509268 0.824436
vt 0.512569 0.959418
vt 0.509268 0.959418
vt 0.512641 0.824436
vt 0.508794 0.824436
vt 0.512641 0.959418
vt 0.508794 0.959418
vt 0.50836 0.824436
vt 0.50836 0.959418
vt 0.514123 0.959418
vt 0.508024 0.824436
vt 0.514123 0.824436
vt 0.508024 0.959418
vt 0.507833 0.824436
vt 0.507833 0.959418
vt 0.514156 0.959418
vt 0.507813 0.824436
vt 0.514156 0.824436
vt 0.507813 0.959418
vt 0.51425 0.824436
vt 0.51425 0.959418
vt 0.514398 0.959418
vt 0.507884 0.824436
vt 0.514398 0.824436
vt 0.507884 0.959418
vt 0.514583 0.959418
vt 0.508091 0.824436
vt 0.514583 0.824436
vt 0.508091 0.959418
vt 0.514789 0.959418
vt 0.508414 0.824436
vt 0.514789 0.824436
vt 0.508414 0.959418
vt 0.532887 0.959418
vt 0.50882 0.824436
vt 0.532887 0.824436
vt 0.50882 0.959418
vt 0.53582 0.959418
vt 0.509271 0.824436
vt 0.53582 0.824436
vt 0.509271 0.959418
vt 0.538733 0.959418
vt 0.554413 0.824436
vt 0.538733 0.824436
vt 0.554413 0.959418
vt 0.541617 0.959418
vt 0.541617 0.824436
vt 0.544462 0.959418
vt 0.581884 0.824436
vt 0.544462 0.824436
vt 0.581884 0.959418
vt 0.547257 0.959418
vt 0.547257 0.824436
vt 0.549992 0.959418
vt 0.549992 0.824436
vt 0.550719 0.959418
vt 0.550719 0.824436
vt 0.551496 0.959418
vt 0.551496 0.824436
vt 0.552396 0.959418
vt 0.552396 0.824436
vt 0.553209 0.959418
vt 0.553209 0.824436
vt 0.553854 0.959418
vt 0.553854 0.824436
vt 0.554269 0.824436
vt 0.554269 0.959418
vn -0.8090171162905556 0 0.5877850844899977
vn -0.9510565608316643 0 0.309016857305628
vn -0.5877850844899972 0 0.8090171162905558
vn -0.9969173391662902 0 0.07845902669294252
vn -0.30901685730562756 0 0.9510565608316646
vn -0.9997619809380383 0 -0.021816999584025956
vn -0.07845902669294208 0 0.9969173391662902
vn -0.9738716941142531 0 -0.22709892866994077
vn 0 0 1
vn -0.8253270305560834 0 -0.564655020905223
vn -1 0 0
vn -0.5645291094029296 0 -0.8254131599609588
vn 0 0 -1
vn -0.07845902669294252 0 -0.9969173391662902
vn -0.22695009085540216 0 -0.9739063898859708
vn -0.309016857305628 0 -0.9510565608316643
vn -0.021740992099575147 0 -0.9997636366974576
vn -0.5877850844899977 0 -0.8090171162905556
vn 0.07845902669294208 0 -0.9969173391662902
vn -0.8090171162905558 0 -0.5877850844899972
vn 0.30901685730562756 0 -0.9510565608316646
vn -0.9510565608316646 0 -0.30901685730562756
vn 0.5877850844899972 0 -0.8090171162905558
vn -0.9969377709809892 0 -0.0781989820359362
vn 0.8090171162905556 0 -0.5877850844899977
vn -0.9992052341407924 0 -0.03986100934051161
vn 0.9510565608316643 0 -0.309016857305628
vn -0.993963643467293 0 -0.10970996064726339
vn 0.9969173391662902 0 -0.07845902669294252
vn -0.9857091692379004 0 -0.16845602892247055
vn 1 0 0
vn -0.9739856005218359 0 -0.22660990705641867
vn -0.9588343218270411 0 -0.28396609531153183
vn -0.9403086427721129 0 -0.3403228707096641
vn -0.9280029033308705 0 -0.37257296118944894
vn -0.9669642393043396 0 -0.25491206308564496
vn -0.9999018831774702 0 0.014007998363389836
vn -0.9511705383033594 0 0.3086658501740959
vn -0.8094507293419811 0 0.5871878036605792
vn -0.5886812081029644 0 0.8083652857628377
vn -0.3104210533859067 0 0.9505991634831077
vn -0.0792869865896775 0 0.9968518313959844
vn 0.9997619809380383 0 0.021816999584025956
vn 0.9738716941142531 0 0.22709892866994077
vn 0.8253270305560834 0 0.564655020905223
vn 0.5645291094029296 0 0.8254131599609588
vn 0.07845902669294252 0 0.9969173391662902
vn 0.22695009085540216 0 0.9739063898859708
vn 0.309016857305628 0 0.9510565608316643
vn 0.021740992099575147 0 0.9997636366974576
vn 0.5877850844899977 0 0.8090171162905556
vn 0.8090171162905558 0 0.5877850844899972
vn 0.9510565608316646 0 0.30901685730562756
vn 0.9969377709809892 0 0.0781989820359362
vn 0.9992052341407924 0 0.03986100934051161
vn 0.993963643467293 0 0.10970996064726339
vn 0.9857091692379004 0 0.16845602892247055
vn 0.9739856005218359 0 0.22660990705641867
vn 0.9588343218270411 0 0.28396609531153183
vn 0.9403086427721129 0 0.3403228707096641
vn 0.9280029033308705 0 0.37257296118944894
vn 0.9669642393043396 0 0.25491206308564496
vn 0.9999018831774702 0 -0.014007998363389836
vn 0.9511705383033594 0 -0.3086658501740959
vn 0.8094507293419811 0 -0.5871878036605792
vn 0.5886812081029644 0 -0.8083652857628377
vn 0.3104210533859067 0 -0.9505991634831077
vn 0.0792869865896775 0 -0.9968518313959844
usemtl material_0_0
f 1/1/1 2/2/2 3/3/1
f 2/2/2 1/1/1 4/4/2
f 5/5/3 1/1/1 3/3/1
f 4/4/2 6/6/4 2/2/2
f 1/1/1 5/5/3 7/7/3
f 6/6/4 4/4/2 8/8/4
f 9/9/5 7/7/3 5/5/3
f 8/8/4 10/10/6 6/6/4
f 7/7/3 9/9/5 11/11/5
f 10/10/6 8/8/4 12/12/6
f 13/13/7 11/11/5 9/9/5
f 12/12/6 14/14/8 10/10/6
f 11/11/5 13/13/7 15/15/7
f 14/14/8 12/12/6 16/16/8
f 17/13/9 15/15/7 13/13/7
f 16/16/8 18/17/10 14/14/8
f 15/15/7 17/13/9 19/15/9
f 18/17/10 16/16/8 20/18/10
f 17/13/11 21/19/11 19/15/11
f 20/18/10 22/20/12 18/17/10
f 21/19/11 17/13/11 23/21/11
f 22/20/12 20/18/10 24/22/12
f 23/21/13 25/19/14 21/19/13
f 24/22/12 26/23/15 22/20/12
f 25/19/14 23/21/13 27/21/14
f 26/23/15 24/22/12 28/24/15
f 27/21/14 29/25/16 25/19/14
f 28/24/15 30/26/17 26/23/15
f 29/25/16 27/21/14 31/27/16
f 30/26/17 28/24/15 32/28/17
f 33/29/18 29/25/16 31/27/16
f 34/28/19 30/26/17 32/28/17
f 29/25/16 33/29/18 35/30/18
f 30/26/17 34/28/19 36/26/19
f 33/29/18 37/31/20 35/30/18
f 34/28/19 38/32/21 36/26/19
f 37/31/20 33/29/18 39/33/20
f 38/32/21 34/28/19 40/34/21
f 39/33/20 41/35/22 37/31/20
f 40/34/21 42/36/23 38/32/21
f 41/35/22 39/33/20 43/37/22
f 42/36/23 40/34/21 44/38/23
f 43/37/22 45/39/24 41/35/22
f 44/38/23 46/40/25 42/36/23
f 45/39/24 43/37/22 47/41/24
f 46/40/25 44/38/23 48/42/25
f 47/41/24 49/43/26 45/39/24
f 48/42/25 50/44/27 46/40/25
f 49/43/26 47/41/24 51/45/26
f 50/44/27 48/42/25 52/46/27
f 51/45/26 53/47/28 49/43/26
f 52/46/27 54/48/29 50/44/27
f 53/47/28 51/45/26 55/49/28
f 54/48/29 52/46/27 56/50/29
f 55/49/28 57/51/30 53/47/28
f 56/50/29 58/52/31 54/48/29
f 57/51/30 55/49/28 59/53/30
f 58/52/31 56/50/29 60/54/31
f 59/53/30 61/55/32 57/51/30
f 62/54/9 58/52/9 60/54/9
f 61/55/32 59/53/30 63/56/32
f 58/52/9 62/54/9 64/52/9
f 63/56/32 65/57/33 61/55/32
f 62/54/31 66/58/31 64/52/31
f 65/57/33 63/56/32 67/59/33
f 66/58/31 62/54/31 68/60/31
f 67/59/33 69/61/34 65/57/33
f 69/61/34 67/59/33 70/62/34
f 70/62/34 71/63/35 69/61/34
f 71/63/35 70/62/34 72/64/35
f 72/64/35 73/65/36 71/63/35
f 73/65/36 72/64/35 74/66/36
f 74/66/36 75/67/37 73/65/36
f 75/67/37 74/66/36 76/68/37
f 76/68/37 77/69/38 75/67/37
f 77/69/38 76/68/37 78/70/38
f 78/70/38 79/71/39 77/69/38
f 79/71/39 78/70/38 80/72/39
f 80/72/39 81/73/40 79/71/39
f 81/73/40 80/72/39 82/74/40
f 83/75/41 81/73/40 82/74/40
f 81/73/40 83/75/41 84/76/41
f 85/52/42 84/76/41 83/75/41
f 84/76/41 85/52/42 86/54/42
f 87/52/9 86/54/42 85/52/42
f 86/54/42 87/52/9 88/54/9
f 87/52/11 89/60/11 88/54/11
f 89/60/11 87/52/11 90/58/11
usemtl material_1_0
f 3//25 2//27 1//25
f 4//27 1//25 2//27
f 3//25 1//25 5//23
f 2//27 6//29 4//27
f 7//23 5//23 1//25
f 8//29 4//27 6//29
f 5//23 7//23 9//21
f 6//29 10//43 8//29
f 11//21 9//21 7//23
f 12//43 8//29 10//43
f 9//21 11//21 13//19
f 10//43 14//44 12//43
f 15//19 13//19 11//21
f 16//44 12//43 14//44
f 13//19 15//19 17//13
f 14//44 18//45 16//44
f 19//13 17//13 15//19
f 20//45 16//44 18//45
f 19//31 21//31 17//31
f 18//45 22//46 20//45
f 23//31 17//31 21//31
f 24//46 20//45 22//46
f 21//9 25//47 23//9
f 22//46 26//48 24//46
f 27//47 23//9 25//47
f 28//48 24//46 26//48
f 25//47 29//49 27//47
f 26//48 30//50 28//48
f 31//49 27//47 29//49
f 32//50 28//48 30//50
f 31//49 29//49 33//51
f 32//50 30//50 34//7
f 35//51 33//51 29//49
f 36//7 34//7 30//50
f 35//51 37//52 33//51
f 36//7 38//5 34//7
f 39//52 33//51 37//52
f 40//5 34//7 38//5
f 37//52 41//53 39//52
f 38//5 42//3 40//5
f 43//53 39//52 41//53
f 44//3 40//5 42//3
f 41//53 45//54 43//53
f 42//3 46//1 44//3
f 47//54 43//53 45//54
f 48//1 44//3 46//1
f 45//54 49//55 47//54
f 46//1 50//2 48//1
f 51//55 47//54 49//55
f 52//2 48//1 50//2
f 49//55 53//56 51//55
f 50//2 54//4 52//2
f 55//56 51//55 53//56
f 56//4 52//2 54//4
f 53//56 57//57 55//56
f 54//4 58//11 56//4
f 59//57 55//56 57//57
f 60//11 56//4 58//11
f 57//57 61//58 59//57
f 60//13 58//13 62//13
f 63//58 59//57 61//58
f 64//13 62//13 58//13
f 61//58 65//59 63//58
f 64//11 66//11 62//11
f 67//59 63//58 65//59
f 68//11 62//11 66//11
f 65//59 69//60 67//59
f 70//60 67//59 69//60
f 69//60 71//61 70//60
f 72//61 70//60 71//61
f 71//61 73//62 72//61
f 74//62 72//61 73//62
f 73//62 75//63 74//62
f 76//63 74//62 75//63
f 75//63 77//64 76//63
f 78//64 76//63 77//64
f 77//64 79//65 78//64
f 80//65 78//64 79//65
f 79//65 81//66 80//65
f 82//66 80//65 81//66
f 82//66 81//66 83//67
f 84//67 83//67 81//66
f 83//67 84//67 85//68
f 86//68 85//68 84//67
f 85//68 86//68 87//13
f 88//13 87//13 86//68
f 88//31 89//31 87//31
f 90//31 87//31 89//31
