# SSTK version 0.8.0
# 77
mtllib original-77.mtl
o mesh4/mesh4-geometry/material_3#mesh4-geometry
v 0.575905 -0.019765 0.118592
v 0.575905 -0.019765 0.143315
v 0.574154 -0.019204 0.118592
v 0.574154 -0.019204 0.118592
v 0.574154 -0.019204 0.143315
v 0.529665 -0.019204 0.118592
v 0.574154 -0.019204 0.143315
v 0.574154 -0.019204 0.118592
v 0.575905 -0.019765 0.143315
v 0.575905 -0.019765 0.143315
v 0.575905 -0.019765 0.118592
v 0.577591 -0.020493 0.143315
v 0.577591 -0.020493 0.118592
v 0.577591 -0.020493 0.143315
v 0.575905 -0.019765 0.118592
v 0.529665 -0.019204 0.143315
v 0.529665 -0.019204 0.118592
v 0.574154 -0.019204 0.143315
v 0.577591 -0.020493 0.143315
v 0.577591 -0.020493 0.118592
v 0.579244 -0.021385 0.143315
v 0.579244 -0.021385 0.118592
v 0.579244 -0.021385 0.143315
v 0.577591 -0.020493 0.118592
v 0.588564 -0.032425 0.118592
v 0.589126 -0.034176 0.118592
v 0.588564 -0.032425 0.143315
v 0.589126 -0.034176 0.118592
v 0.589126 -0.122922 0.118592
v 0.589126 -0.034176 0.143315
v 0.579244 -0.021385 0.143315
v 0.579244 -0.021385 0.118592
v 0.580764 -0.022377 0.143315
v 0.580764 -0.022377 0.118592
v 0.580764 -0.022377 0.143315
v 0.579244 -0.021385 0.118592
v 0.587837 -0.030739 0.118592
v 0.588564 -0.032425 0.118592
v 0.587837 -0.030739 0.143315
v 0.589126 -0.034176 0.143315
v 0.588564 -0.032425 0.143315
v 0.589126 -0.034176 0.118592
v 0.588564 -0.032425 0.143315
v 0.587837 -0.030739 0.143315
v 0.588564 -0.032425 0.118592
v 0.589126 -0.122922 0.143315
v 0.589126 -0.034176 0.143315
v 0.589126 -0.122922 0.118592
v 0.580764 -0.022377 0.143315
v 0.580764 -0.022377 0.118592
v 0.582218 -0.023500 0.143315
v 0.582218 -0.023500 0.118592
v 0.582218 -0.023500 0.143315
v 0.580764 -0.022377 0.118592
v 0.587837 -0.030739 0.118592
v 0.587837 -0.030739 0.143315
v 0.586978 -0.029119 0.118592
v 0.589126 -0.122922 0.118592
v 0.588994 -0.125037 0.118592
v 0.589126 -0.122922 0.143315
v 0.582218 -0.023500 0.143315
v 0.582218 -0.023500 0.118592
v 0.583607 -0.024756 0.143315
v 0.583607 -0.024756 0.118592
v 0.583607 -0.024756 0.143315
v 0.582218 -0.023500 0.118592
v 0.586978 -0.029119 0.118592
v 0.586978 -0.029119 0.143315
v 0.585953 -0.027566 0.118592
v 0.586978 -0.029119 0.143315
v 0.586978 -0.029119 0.118592
v 0.587837 -0.030739 0.143315
v 0.588994 -0.125037 0.143315
v 0.589126 -0.122922 0.143315
v 0.588994 -0.125037 0.118592
v 0.583607 -0.024756 0.143315
v 0.583607 -0.024756 0.118592
v 0.584830 -0.026112 0.143315
v 0.584830 -0.026112 0.118592
v 0.584830 -0.026112 0.143315
v 0.583607 -0.024756 0.118592
v 0.585953 -0.027566 0.118592
v 0.585953 -0.027566 0.143315
v 0.584830 -0.026112 0.118592
v 0.585953 -0.027566 0.143315
v 0.585953 -0.027566 0.118592
v 0.586978 -0.029119 0.143315
v 0.588994 -0.125037 0.118592
v 0.588598 -0.127120 0.118592
v 0.588994 -0.125037 0.143315
v 0.584830 -0.026112 0.143315
v 0.584830 -0.026112 0.118592
v 0.585953 -0.027566 0.143315
v 0.588598 -0.127120 0.143315
v 0.588994 -0.125037 0.143315
v 0.588598 -0.127120 0.118592
v 0.588598 -0.127120 0.118592
v 0.587903 -0.129169 0.118592
v 0.588598 -0.127120 0.143315
v 0.587903 -0.129169 0.143315
v 0.588598 -0.127120 0.143315
v 0.587903 -0.129169 0.118592
v 0.587903 -0.129169 0.118592
v 0.586945 -0.131086 0.118592
v 0.587903 -0.129169 0.143315
v 0.586945 -0.131086 0.143315
v 0.587903 -0.129169 0.143315
v 0.586945 -0.131086 0.118592
v 0.585755 -0.132838 0.118592
v 0.585755 -0.132838 0.143315
v 0.586945 -0.131086 0.118592
v 0.586945 -0.131086 0.143315
v 0.586945 -0.131086 0.118592
v 0.585755 -0.132838 0.143315
v 0.585755 -0.132838 0.143315
v 0.585755 -0.132838 0.118592
v 0.584367 -0.134457 0.143315
v 0.584367 -0.134457 0.118592
v 0.584367 -0.134457 0.143315
v 0.585755 -0.132838 0.118592
v 0.577062 -0.138688 0.118592
v 0.577062 -0.138688 0.143315
v 0.579078 -0.137994 0.118592
v 0.574947 -0.139085 0.118592
v 0.574947 -0.139085 0.143315
v 0.577062 -0.138688 0.118592
v 0.584367 -0.134457 0.143315
v 0.584367 -0.134457 0.118592
v 0.582747 -0.135846 0.143315
v 0.582747 -0.135846 0.118592
v 0.582747 -0.135846 0.143315
v 0.584367 -0.134457 0.118592
v 0.579078 -0.137994 0.118592
v 0.579078 -0.137994 0.143315
v 0.580995 -0.137035 0.118592
v 0.579078 -0.137994 0.143315
v 0.579078 -0.137994 0.118592
v 0.577062 -0.138688 0.143315
v 0.577062 -0.138688 0.143315
v 0.577062 -0.138688 0.118592
v 0.574947 -0.139085 0.143315
v 0.574947 -0.139085 0.143315
v 0.574947 -0.139085 0.118592
v 0.572832 -0.139217 0.143315
v 0.572832 -0.139217 0.118592
v 0.572832 -0.139217 0.143315
v 0.574947 -0.139085 0.118592
v 0.582747 -0.135846 0.143315
v 0.582747 -0.135846 0.118592
v 0.580995 -0.137035 0.143315
v 0.580995 -0.137035 0.118592
v 0.580995 -0.137035 0.143315
v 0.582747 -0.135846 0.118592
v 0.580995 -0.137035 0.143315
v 0.580995 -0.137035 0.118592
v 0.579078 -0.137994 0.143315
v 0.574154 -0.019204 0.118592
v 0.575905 -0.019765 0.143315
v 0.575905 -0.019765 0.118592
v 0.529665 -0.019204 0.118592
v 0.574154 -0.019204 0.143315
v 0.574154 -0.019204 0.118592
v 0.575905 -0.019765 0.143315
v 0.574154 -0.019204 0.118592
v 0.574154 -0.019204 0.143315
v 0.577591 -0.020493 0.143315
v 0.575905 -0.019765 0.118592
v 0.575905 -0.019765 0.143315
v 0.575905 -0.019765 0.118592
v 0.577591 -0.020493 0.143315
v 0.577591 -0.020493 0.118592
v 0.574154 -0.019204 0.143315
v 0.529665 -0.019204 0.118592
v 0.529665 -0.019204 0.143315
v 0.579244 -0.021385 0.143315
v 0.577591 -0.020493 0.118592
v 0.577591 -0.020493 0.143315
v 0.577591 -0.020493 0.118592
v 0.579244 -0.021385 0.143315
v 0.579244 -0.021385 0.118592
v 0.588564 -0.032425 0.143315
v 0.589126 -0.034176 0.118592
v 0.588564 -0.032425 0.118592
v 0.589126 -0.034176 0.143315
v 0.589126 -0.122922 0.118592
v 0.589126 -0.034176 0.118592
v 0.580764 -0.022377 0.143315
v 0.579244 -0.021385 0.118592
v 0.579244 -0.021385 0.143315
v 0.579244 -0.021385 0.118592
v 0.580764 -0.022377 0.143315
v 0.580764 -0.022377 0.118592
v 0.587837 -0.030739 0.143315
v 0.588564 -0.032425 0.118592
v 0.587837 -0.030739 0.118592
v 0.589126 -0.034176 0.118592
v 0.588564 -0.032425 0.143315
v 0.589126 -0.034176 0.143315
v 0.588564 -0.032425 0.118592
v 0.587837 -0.030739 0.143315
v 0.588564 -0.032425 0.143315
v 0.589126 -0.122922 0.118592
v 0.589126 -0.034176 0.143315
v 0.589126 -0.122922 0.143315
v 0.582218 -0.023500 0.143315
v 0.580764 -0.022377 0.118592
v 0.580764 -0.022377 0.143315
v 0.580764 -0.022377 0.118592
v 0.582218 -0.023500 0.143315
v 0.582218 -0.023500 0.118592
v 0.586978 -0.029119 0.118592
v 0.587837 -0.030739 0.143315
v 0.587837 -0.030739 0.118592
v 0.589126 -0.122922 0.143315
v 0.588994 -0.125037 0.118592
v 0.589126 -0.122922 0.118592
v 0.583607 -0.024756 0.143315
v 0.582218 -0.023500 0.118592
v 0.582218 -0.023500 0.143315
v 0.582218 -0.023500 0.118592
v 0.583607 -0.024756 0.143315
v 0.583607 -0.024756 0.118592
v 0.585953 -0.027566 0.118592
v 0.586978 -0.029119 0.143315
v 0.586978 -0.029119 0.118592
v 0.587837 -0.030739 0.143315
v 0.586978 -0.029119 0.118592
v 0.586978 -0.029119 0.143315
v 0.588994 -0.125037 0.118592
v 0.589126 -0.122922 0.143315
v 0.588994 -0.125037 0.143315
v 0.584830 -0.026112 0.143315
v 0.583607 -0.024756 0.118592
v 0.583607 -0.024756 0.143315
v 0.583607 -0.024756 0.118592
v 0.584830 -0.026112 0.143315
v 0.584830 -0.026112 0.118592
v 0.584830 -0.026112 0.118592
v 0.585953 -0.027566 0.143315
v 0.585953 -0.027566 0.118592
v 0.586978 -0.029119 0.143315
v 0.585953 -0.027566 0.118592
v 0.585953 -0.027566 0.143315
v 0.588994 -0.125037 0.143315
v 0.588598 -0.127120 0.118592
v 0.588994 -0.125037 0.118592
v 0.585953 -0.027566 0.143315
v 0.584830 -0.026112 0.118592
v 0.584830 -0.026112 0.143315
v 0.588598 -0.127120 0.118592
v 0.588994 -0.125037 0.143315
v 0.588598 -0.127120 0.143315
v 0.588598 -0.127120 0.143315
v 0.587903 -0.129169 0.118592
v 0.588598 -0.127120 0.118592
v 0.587903 -0.129169 0.118592
v 0.588598 -0.127120 0.143315
v 0.587903 -0.129169 0.143315
v 0.587903 -0.129169 0.143315
v 0.586945 -0.131086 0.118592
v 0.587903 -0.129169 0.118592
v 0.586945 -0.131086 0.118592
v 0.587903 -0.129169 0.143315
v 0.586945 -0.131086 0.143315
v 0.586945 -0.131086 0.118592
v 0.585755 -0.132838 0.143315
v 0.585755 -0.132838 0.118592
v 0.585755 -0.132838 0.143315
v 0.586945 -0.131086 0.118592
v 0.586945 -0.131086 0.143315
v 0.584367 -0.134457 0.143315
v 0.585755 -0.132838 0.118592
v 0.585755 -0.132838 0.143315
v 0.585755 -0.132838 0.118592
v 0.584367 -0.134457 0.143315
v 0.584367 -0.134457 0.118592
v 0.579078 -0.137994 0.118592
v 0.577062 -0.138688 0.143315
v 0.577062 -0.138688 0.118592
v 0.577062 -0.138688 0.118592
v 0.574947 -0.139085 0.143315
v 0.574947 -0.139085 0.118592
v 0.582747 -0.135846 0.143315
v 0.584367 -0.134457 0.118592
v 0.584367 -0.134457 0.143315
v 0.584367 -0.134457 0.118592
v 0.582747 -0.135846 0.143315
v 0.582747 -0.135846 0.118592
v 0.580995 -0.137035 0.118592
v 0.579078 -0.137994 0.143315
v 0.579078 -0.137994 0.118592
v 0.577062 -0.138688 0.143315
v 0.579078 -0.137994 0.118592
v 0.579078 -0.137994 0.143315
v 0.574947 -0.139085 0.143315
v 0.577062 -0.138688 0.118592
v 0.577062 -0.138688 0.143315
v 0.572832 -0.139217 0.143315
v 0.574947 -0.139085 0.118592
v 0.574947 -0.139085 0.143315
v 0.574947 -0.139085 0.118592
v 0.572832 -0.139217 0.143315
v 0.572832 -0.139217 0.118592
v 0.580995 -0.137035 0.143315
v 0.582747 -0.135846 0.118592
v 0.582747 -0.135846 0.143315
v 0.582747 -0.135846 0.118592
v 0.580995 -0.137035 0.143315
v 0.580995 -0.137035 0.118592
v 0.579078 -0.137994 0.143315
v 0.580995 -0.137035 0.118592
v 0.580995 -0.137035 0.143315
vt 60.49280548095703 120.43217468261719
vt 62.80723190307617 120.43217468261719
vt 60.49280548095703 120.26383209228516
vt -120.47975158691406 62.91251754760742
vt -120.47975158691406 65.31952667236328
vt -116.4209976196289 62.91251754760742
vt 62.80723190307617 120.26383209228516
vt 62.80723190307617 118.4045181274414
vt 60.49280548095703 118.4045181274414
vt 62.80723190307617 118.56898498535156
vt 60.49280548095703 118.56898498535156
vt -116.4209976196289 65.31952667236328
vt 62.80723190307617 116.15477752685547
vt 60.49280548095703 116.15477752685547
vt 62.80723190307617 116.3145751953125
vt 60.49280548095703 116.3145751953125
vt 60.49280548095703 53.56842041015625
vt 60.49280548095703 53.667877197265625
vt 62.80723190307617 53.56842041015625
vt 60.49280548095703 -19.858015060424805
vt 60.49280548095703 -15.659919738769531
vt 62.80723190307617 -19.858015060424805
vt 62.80723190307617 113.43480682373047
vt 60.49280548095703 113.43480682373047
vt 62.80723190307617 113.58919525146484
vt 60.49280548095703 113.58919525146484
vt 60.49280548095703 67.34173583984375
vt 60.49280548095703 67.44747161865234
vt 62.80723190307617 67.34173583984375
vt 62.80723190307617 53.667877197265625
vt 62.80723190307617 67.44747161865234
vt 62.80723190307617 -15.659919738769531
vt 62.80723190307617 110.13973236083984
vt 60.49280548095703 110.13973236083984
vt 62.80723190307617 110.28807067871094
vt 60.49280548095703 110.28807067871094
vt 60.49280548095703 78.74778747558594
vt 62.80723190307617 78.74778747558594
vt 60.49280548095703 78.6351089477539
vt 60.49280548095703 -32.04420852661133
vt 60.49280548095703 -31.94256019592285
vt 62.80723190307617 -32.04420852661133
vt 62.80723190307617 106.132568359375
vt 60.49280548095703 106.132568359375
vt 62.80723190307617 106.2742919921875
vt 60.49280548095703 106.2742919921875
vt 60.49280548095703 87.92143249511719
vt 62.80723190307617 87.92143249511719
vt 60.49280548095703 87.80146026611328
vt 62.80723190307617 78.6351089477539
vt 62.80723190307617 -31.94256019592285
vt 62.80723190307617 101.23548889160156
vt 60.49280548095703 101.23548889160156
vt 62.80723190307617 101.37018585205078
vt 60.49280548095703 101.37018585205078
vt 60.49280548095703 95.34783172607422
vt 62.80723190307617 95.34783172607422
vt 60.49280548095703 95.22044372558594
vt 62.80723190307617 87.80146026611328
vt 60.49280548095703 -61.4067268371582
vt 60.49280548095703 -61.300079345703125
vt 62.80723190307617 -61.4067268371582
vt 62.80723190307617 95.22044372558594
vt 62.80723190307617 -61.300079345703125
vt 60.49280548095703 -84.06986999511719
vt 60.49280548095703 -83.95416259765625
vt 62.80723190307617 -84.06986999511719
vt 62.80723190307617 -83.95416259765625
vt 60.49280548095703 -99.95677947998047
vt 60.49280548095703 -99.8293685913086
vt 62.80723190307617 -99.95677947998047
vt 62.80723190307617 -99.8293685913086
vt 60.49280548095703 -110.39290618896484
vt 62.80723190307617 -110.39290618896484
vt 60.49280548095703 -110.53333282470703
vt 62.80723190307617 -110.53333282470703
vt 62.80723190307617 -117.39324188232422
vt 60.49280548095703 -117.39324188232422
vt 62.80723190307617 -117.23959350585938
vt 60.49280548095703 -117.23959350585938
vt 60.49280548095703 -126.30150604248047
vt 62.80723190307617 -126.30150604248047
vt 60.49280548095703 -126.49606323242188
vt 60.49280548095703 -126.2325668334961
vt 62.80723190307617 -126.2325668334961
vt 60.49280548095703 -126.43223571777344
vt 62.80723190307617 -121.74793243408203
vt 60.49280548095703 -121.74793243408203
vt 62.80723190307617 -121.58169555664062
vt 60.49280548095703 -121.58169555664062
vt 60.49280548095703 -125.69681549072266
vt 62.80723190307617 -125.69681549072266
vt 60.49280548095703 -125.8839111328125
vt 62.80723190307617 -126.49606323242188
vt 62.80723190307617 -126.43223571777344
vt 62.80723190307617 -125.79426574707031
vt 60.49280548095703 -125.79426574707031
vt 62.80723190307617 -125.59201049804688
vt 60.49280548095703 -125.59201049804688
vt 62.80723190307617 -124.40693664550781
vt 60.49280548095703 -124.40693664550781
vt 62.80723190307617 -124.2293930053711
vt 60.49280548095703 -124.2293930053711
vt 62.80723190307617 -125.8839111328125
vt 0 0
vn -0.09401101450768447 -0.995571157251573 0
vn -0.08217201448080372 -0.9966181616026104 0
vn 0 -1 0
vn -0.11853497978961057 -0.9929498771671593 0
vn -0.14489794008751472 -0.9894466064211828 0
vn -0.5495209879157877 -0.8354799122899704 0
vn -0.5996056688415108 -0.8002955965723693 0
vn -1 0 0
vn -0.17368099835777698 -0.9848019652749714 0
vn -0.46140999630321966 -0.8871870238633243 0
vn -0.20562305319221374 -0.978631268658381 0
vn -0.3902231387592994 -0.9207203169132527 0
vn -0.9669434636267799 0.25499085895272 0
vn -0.8860351468622014 0.46361807398426286 0
vn -0.2416960062869933 -0.9703520188802193 0
vn -0.331903171696285 -0.9433134604244477 0
vn -0.283199954651394 -0.9590608873713119 0
vn -0.6839741994708828 0.7295061990539662 0
vn -0.5179138666382056 0.8554327716097058 0
vn -0.39787402424801216 0.9174400584390744 0
vn -0.3098558416554003 0.9507835491803712 0
vn -0.24238104254756493 0.9701811326827355 0
vn -0.06667498180429177 0.9977747475264132 0
vn -0.10277703919694843 0.9947044185153241 0
vn -0.03281098670042511 0.99946157462493 0
vn -0.18814696809559012 0.9821408852076351 0
vn -0.14259599978461235 0.9897809761989906 0
vn -0.01628800443429185 0.9998673416566561 0
vn 0.08217201448080372 0.9966181616026104 0
vn 0.09401101450768447 0.995571157251573 0
vn 0 1 0
vn 0.11853497978961057 0.9929498771671593 0
vn 0.14489794008751472 0.9894466064211828 0
vn 0.5495209879157877 0.8354799122899704 0
vn 0.5996056688415108 0.8002955965723693 0
vn 1 0 0
vn 0.17368099835777698 0.9848019652749714 0
vn 0.46140999630321966 0.8871870238633243 0
vn 0.20562305319221374 0.978631268658381 0
vn 0.3902231387592994 0.9207203169132527 0
vn 0.9669434636267799 -0.25499085895272 0
vn 0.8860351468622014 -0.46361807398426286 0
vn 0.2416960062869933 0.9703520188802193 0
vn 0.331903171696285 0.9433134604244477 0
vn 0.283199954651394 0.9590608873713119 0
vn 0.6839741994708828 -0.7295061990539662 0
vn 0.5179138666382056 -0.8554327716097058 0
vn 0.39787402424801216 -0.9174400584390744 0
vn 0.3098558416554003 -0.9507835491803712 0
vn 0.24238104254756493 -0.9701811326827355 0
vn 0.10277703919694843 -0.9947044185153241 0
vn 0.06667498180429177 -0.9977747475264132 0
vn 0.03281098670042511 -0.99946157462493 0
vn 0.18814696809559012 -0.9821408852076351 0
vn 0.14259599978461235 -0.9897809761989906 0
vn 0.01628800443429185 -0.9998673416566561 0
usemtl material_0_0
f 1/1/1 2/2/1 3/3/2
f 4/4/3 5/5/3 6/6/3
f 7/7/2 8/3/2 9/2/1
f 10/8/1 11/9/1 12/10/4
f 13/11/4 14/10/4 15/9/1
f 16/12/3 17/6/3 18/5/3
f 19/13/4 20/14/4 21/15/5
f 22/16/5 23/15/5 24/14/4
f 25/17/6 26/18/7 27/19/6
f 28/20/8 29/21/8 30/22/8
f 31/23/5 32/24/5 33/25/9
f 34/26/9 35/25/9 36/24/5
f 37/27/10 38/28/6 39/29/10
f 40/30/7 41/19/6 42/18/7
f 43/31/6 44/29/10 45/28/6
f 46/32/8 47/22/8 48/21/8
f 49/33/9 50/34/9 51/35/11
f 52/36/11 53/35/11 54/34/9
f 55/37/10 56/38/10 57/39/12
f 58/40/13 59/41/14 60/42/13
f 61/43/11 62/44/11 63/45/15
f 64/46/15 65/45/15 66/44/11
f 67/47/12 68/48/12 69/49/16
f 70/50/12 71/39/12 72/38/10
f 73/51/14 74/42/13 75/41/14
f 76/52/15 77/53/15 78/54/17
f 79/55/17 80/54/17 81/53/15
f 82/56/16 83/57/16 84/58/17
f 85/59/16 86/49/16 87/48/12
f 88/60/14 89/61/18 90/62/14
f 91/63/17 92/58/17 93/57/16
f 94/64/18 95/62/14 96/61/18
f 97/65/18 98/66/19 99/67/18
f 100/68/19 101/67/18 102/66/19
f 103/69/19 104/70/20 105/71/19
f 106/72/20 107/71/19 108/70/20
f 109/73/21 110/74/21 111/75/20
f 112/76/20 113/75/20 114/74/21
f 115/77/21 116/78/21 117/79/22
f 118/80/22 119/79/22 120/78/21
f 121/81/23 122/82/23 123/83/24
f 124/84/25 125/85/25 126/86/23
f 127/87/22 128/88/22 129/89/26
f 130/90/26 131/89/26 132/88/22
f 133/91/24 134/92/24 135/93/27
f 136/94/24 137/83/24 138/82/23
f 139/95/23 140/86/23 141/85/25
f 142/96/25 143/97/25 144/98/28
f 145/99/28 146/98/28 147/97/25
f 148/100/26 149/101/26 150/102/27
f 151/103/27 152/102/27 153/101/26
f 154/104/27 155/93/27 156/92/24
usemtl material_1_0
f 157/105/29 158/105/30 159/105/30
f 160/105/31 161/105/31 162/105/31
f 163/105/30 164/105/29 165/105/29
f 166/105/32 167/105/30 168/105/30
f 169/105/30 170/105/32 171/105/32
f 172/105/31 173/105/31 174/105/31
f 175/105/33 176/105/32 177/105/32
f 178/105/32 179/105/33 180/105/33
f 181/105/34 182/105/35 183/105/34
f 184/105/36 185/105/36 186/105/36
f 187/105/37 188/105/33 189/105/33
f 190/105/33 191/105/37 192/105/37
f 193/105/38 194/105/34 195/105/38
f 196/105/35 197/105/34 198/105/35
f 199/105/34 200/105/38 201/105/34
f 202/105/36 203/105/36 204/105/36
f 205/105/39 206/105/37 207/105/37
f 208/105/37 209/105/39 210/105/39
f 211/105/40 212/105/38 213/105/38
f 214/105/41 215/105/42 216/105/41
f 217/105/43 218/105/39 219/105/39
f 220/105/39 221/105/43 222/105/43
f 223/105/44 224/105/40 225/105/40
f 226/105/38 227/105/40 228/105/40
f 229/105/42 230/105/41 231/105/42
f 232/105/45 233/105/43 234/105/43
f 235/105/43 236/105/45 237/105/45
f 238/105/45 239/105/44 240/105/44
f 241/105/40 242/105/44 243/105/44
f 244/105/42 245/105/46 246/105/42
f 247/105/44 248/105/45 249/105/45
f 250/105/46 251/105/42 252/105/46
f 253/105/46 254/105/47 255/105/46
f 256/105/47 257/105/46 258/105/47
f 259/105/47 260/105/48 261/105/47
f 262/105/48 263/105/47 264/105/48
f 265/105/48 266/105/49 267/105/49
f 268/105/49 269/105/48 270/105/48
f 271/105/50 272/105/49 273/105/49
f 274/105/49 275/105/50 276/105/50
f 277/105/51 278/105/52 279/105/52
f 280/105/52 281/105/53 282/105/53
f 283/105/54 284/105/50 285/105/50
f 286/105/50 287/105/54 288/105/54
f 289/105/55 290/105/51 291/105/51
f 292/105/52 293/105/51 294/105/51
f 295/105/53 296/105/52 297/105/52
f 298/105/56 299/105/53 300/105/53
f 301/105/53 302/105/56 303/105/56
f 304/105/55 305/105/54 306/105/54
f 307/105/54 308/105/55 309/105/55
f 310/105/51 311/105/55 312/105/55
