# SSTK version 0.8.0
# 214
mtllib original-214.mtl
o Group9/mesh100/mesh100-geometry/material_1/component_22#mesh100-geometry
v 0.204462 -0.429549 0.863594
v 0.207371 -0.429285 0.863594
v 0.204462 -0.428954 0.830938
v 0.207371 -0.429285 0.863594
v 0.210180 -0.430012 0.863594
v 0.207371 -0.428690 0.830938
v 0.201785 -0.430739 0.863527
v 0.204462 -0.429549 0.863594
v 0.201785 -0.430144 0.830872
v 0.207371 -0.428690 0.830938
v 0.204462 -0.428954 0.830938
v 0.207371 -0.429285 0.863594
v 0.204462 -0.428954 0.830938
v 0.201785 -0.430144 0.830872
v 0.204462 -0.429549 0.863594
v 0.210213 -0.429417 0.830872
v 0.207371 -0.428690 0.830938
v 0.210180 -0.430012 0.863594
v 0.210180 -0.430012 0.863594
v 0.212626 -0.431632 0.863527
v 0.210213 -0.429417 0.830872
v 0.199670 -0.432755 0.863527
v 0.201785 -0.430739 0.863527
v 0.199670 -0.432160 0.830872
v 0.201785 -0.430144 0.830872
v 0.199670 -0.432160 0.830872
v 0.201785 -0.430739 0.863527
v 0.207371 -0.428690 0.830938
v 0.215204 -0.439068 0.830739
v 0.204462 -0.428954 0.830938
v 0.204462 -0.428954 0.830938
v 0.215204 -0.439068 0.830739
v 0.201785 -0.430144 0.830872
v 0.210213 -0.429417 0.830872
v 0.215204 -0.439068 0.830739
v 0.207371 -0.428690 0.830938
v 0.212626 -0.431037 0.830872
v 0.210213 -0.429417 0.830872
v 0.212626 -0.431632 0.863527
v 0.214378 -0.433978 0.863461
v 0.214378 -0.433350 0.830806
v 0.212626 -0.431632 0.863527
v 0.199670 -0.432755 0.863527
v 0.199670 -0.432160 0.830872
v 0.198348 -0.435367 0.863461
v 0.201785 -0.430144 0.830872
v 0.200066 -0.443035 0.830673
v 0.199670 -0.432160 0.830872
v 0.215204 -0.439068 0.830739
v 0.200066 -0.443035 0.830673
v 0.201785 -0.430144 0.830872
v 0.212626 -0.431037 0.830872
v 0.215204 -0.439068 0.830739
v 0.210213 -0.429417 0.830872
v 0.212626 -0.431037 0.830872
v 0.212626 -0.431632 0.863527
v 0.214378 -0.433350 0.830806
v 0.214378 -0.433350 0.830806
v 0.214378 -0.433978 0.863461
v 0.215270 -0.436160 0.830806
v 0.198348 -0.435367 0.863461
v 0.198348 -0.434772 0.830806
v 0.197951 -0.438275 0.863395
v 0.198348 -0.434772 0.830806
v 0.198348 -0.435367 0.863461
v 0.199670 -0.432160 0.830872
v 0.200066 -0.443035 0.830673
v 0.198546 -0.440523 0.830673
v 0.199670 -0.432160 0.830872
v 0.214378 -0.433350 0.830806
v 0.215204 -0.439068 0.830739
v 0.212626 -0.431037 0.830872
v 0.215270 -0.436755 0.863461
v 0.215270 -0.436160 0.830806
v 0.214378 -0.433978 0.863461
v 0.215270 -0.436160 0.830806
v 0.215204 -0.439068 0.830739
v 0.214378 -0.433350 0.830806
v 0.197951 -0.437680 0.830739
v 0.197951 -0.438275 0.863395
v 0.198348 -0.434772 0.830806
v 0.199670 -0.432160 0.830872
v 0.198546 -0.440523 0.830673
v 0.198348 -0.434772 0.830806
v 0.200066 -0.443035 0.830673
v 0.200066 -0.443630 0.863329
v 0.198546 -0.440523 0.830673
v 0.215270 -0.436160 0.830806
v 0.215270 -0.436755 0.863461
v 0.215204 -0.439068 0.830739
v 0.197951 -0.438275 0.863395
v 0.197951 -0.437680 0.830739
v 0.198546 -0.441118 0.863329
v 0.197951 -0.437680 0.830739
v 0.198348 -0.434772 0.830806
v 0.198546 -0.440523 0.830673
v 0.198546 -0.441118 0.863329
v 0.198546 -0.440523 0.830673
v 0.200066 -0.443630 0.863329
v 0.215204 -0.439663 0.863395
v 0.215204 -0.439068 0.830739
v 0.215270 -0.436755 0.863461
v 0.198546 -0.440523 0.830673
v 0.198546 -0.441118 0.863329
v 0.197951 -0.437680 0.830739
v 0.204462 -0.428954 0.830938
v 0.207371 -0.429285 0.863594
v 0.204462 -0.429549 0.863594
v 0.207371 -0.428690 0.830938
v 0.210180 -0.430012 0.863594
v 0.207371 -0.429285 0.863594
v 0.201785 -0.430144 0.830872
v 0.204462 -0.429549 0.863594
v 0.201785 -0.430739 0.863527
v 0.207371 -0.429285 0.863594
v 0.204462 -0.428954 0.830938
v 0.207371 -0.428690 0.830938
v 0.204462 -0.429549 0.863594
v 0.201785 -0.430144 0.830872
v 0.204462 -0.428954 0.830938
v 0.210180 -0.430012 0.863594
v 0.207371 -0.428690 0.830938
v 0.210213 -0.429417 0.830872
v 0.210213 -0.429417 0.830872
v 0.212626 -0.431632 0.863527
v 0.210180 -0.430012 0.863594
v 0.199670 -0.432160 0.830872
v 0.201785 -0.430739 0.863527
v 0.199670 -0.432755 0.863527
v 0.201785 -0.430739 0.863527
v 0.199670 -0.432160 0.830872
v 0.201785 -0.430144 0.830872
v 0.204462 -0.428954 0.830938
v 0.215204 -0.439068 0.830739
v 0.207371 -0.428690 0.830938
v 0.201785 -0.430144 0.830872
v 0.215204 -0.439068 0.830739
v 0.204462 -0.428954 0.830938
v 0.207371 -0.428690 0.830938
v 0.215204 -0.439068 0.830739
v 0.210213 -0.429417 0.830872
v 0.212626 -0.431632 0.863527
v 0.210213 -0.429417 0.830872
v 0.212626 -0.431037 0.830872
v 0.212626 -0.431632 0.863527
v 0.214378 -0.433350 0.830806
v 0.214378 -0.433978 0.863461
v 0.198348 -0.435367 0.863461
v 0.199670 -0.432160 0.830872
v 0.199670 -0.432755 0.863527
v 0.199670 -0.432160 0.830872
v 0.200066 -0.443035 0.830673
v 0.201785 -0.430144 0.830872
v 0.201785 -0.430144 0.830872
v 0.200066 -0.443035 0.830673
v 0.215204 -0.439068 0.830739
v 0.210213 -0.429417 0.830872
v 0.215204 -0.439068 0.830739
v 0.212626 -0.431037 0.830872
v 0.214378 -0.433350 0.830806
v 0.212626 -0.431632 0.863527
v 0.212626 -0.431037 0.830872
v 0.215270 -0.436160 0.830806
v 0.214378 -0.433978 0.863461
v 0.214378 -0.433350 0.830806
v 0.197951 -0.438275 0.863395
v 0.198348 -0.434772 0.830806
v 0.198348 -0.435367 0.863461
v 0.199670 -0.432160 0.830872
v 0.198348 -0.435367 0.863461
v 0.198348 -0.434772 0.830806
v 0.199670 -0.432160 0.830872
v 0.198546 -0.440523 0.830673
v 0.200066 -0.443035 0.830673
v 0.212626 -0.431037 0.830872
v 0.215204 -0.439068 0.830739
v 0.214378 -0.433350 0.830806
v 0.214378 -0.433978 0.863461
v 0.215270 -0.436160 0.830806
v 0.215270 -0.436755 0.863461
v 0.214378 -0.433350 0.830806
v 0.215204 -0.439068 0.830739
v 0.215270 -0.436160 0.830806
v 0.198348 -0.434772 0.830806
v 0.197951 -0.438275 0.863395
v 0.197951 -0.437680 0.830739
v 0.198348 -0.434772 0.830806
v 0.198546 -0.440523 0.830673
v 0.199670 -0.432160 0.830872
v 0.198546 -0.440523 0.830673
v 0.200066 -0.443630 0.863329
v 0.200066 -0.443035 0.830673
v 0.215204 -0.439068 0.830739
v 0.215270 -0.436755 0.863461
v 0.215270 -0.436160 0.830806
v 0.198546 -0.441118 0.863329
v 0.197951 -0.437680 0.830739
v 0.197951 -0.438275 0.863395
v 0.198546 -0.440523 0.830673
v 0.198348 -0.434772 0.830806
v 0.197951 -0.437680 0.830739
v 0.200066 -0.443630 0.863329
v 0.198546 -0.440523 0.830673
v 0.198546 -0.441118 0.863329
v 0.215270 -0.436755 0.863461
v 0.215204 -0.439068 0.830739
v 0.215204 -0.439663 0.863395
v 0.197951 -0.437680 0.830739
v 0.198546 -0.441118 0.863329
v 0.198546 -0.440523 0.830673
vt 74.47924041748047 5.71999979019165
vt 74.94621276855469 5.71999979019165
vt 74.47924041748047 2.2750000953674316
vt 72.2966079711914 5.71999979019165
vt 72.76358032226562 5.71999979019165
vt 72.2966079711914 2.2750000953674316
vt 68.23709869384766 5.71999979019165
vt 68.70407104492188 5.71999979019165
vt 68.23709869384766 2.2750000953674316
vt 74.94621276855469 2.2750000953674316
vt 68.70407104492188 2.2750000953674316
vt 72.76358032226562 2.2750000953674316
vt 61.9353141784668 5.71999979019165
vt 62.402286529541016 5.71999979019165
vt 61.9353141784668 2.2750000953674316
vt 54.27406311035156 5.71999979019165
vt 54.74103546142578 5.71999979019165
vt 54.27406311035156 2.2750000953674316
vt 54.74103546142578 2.2750000953674316
vt 75.01569366455078 3.6392579078674316
vt 76.30359649658203 1.9439059495925903
vt 74.55154418945312 3.5859200954437256
vt 74.13053894042969 3.3757948875427246
vt 75.47064971923828 3.5297939777374268
vt 62.402286529541016 2.2750000953674316
vt 45.03070068359375 5.71999979019165
vt 45.03070068359375 2.2750000953674316
vt 44.56372833251953 5.71999979019165
vt 34.6316032409668 5.71999979019165
vt 34.6316032409668 2.2750000953674316
vt 34.16463088989258 5.71999979019165
vt 73.90010070800781 1.2285079956054688
vt 73.80015563964844 3.032576084136963
vt 75.8651123046875 3.2698709964752197
vt 44.56372833251953 2.2750000953674316
vt 22.140708923339844 2.2750000953674316
vt 22.140708923339844 5.71999979019165
vt 22.607681274414062 2.2750000953674316
vt 10.643362998962402 5.71999979019165
vt 10.643362998962402 2.2750000953674316
vt 10.176389694213867 5.71999979019165
vt 34.16463088989258 2.2750000953674316
vt 73.65060424804688 1.6390360593795776
vt 76.15460205078125 2.8887999057769775
vt 22.607681274414062 5.71999979019165
vt 76.30647277832031 2.429548978805542
vt 10.176389694213867 2.2750000953674316
vt 73.59764862060547 2.594965934753418
vt -38.484283447265625 2.2750000953674316
vt -38.484283447265625 5.71999979019165
vt -38.01730728149414 2.2750000953674316
vt -2.805277109146118 2.2750000953674316
vt -2.805277109146118 5.71999979019165
vt -2.338304042816162 2.2750000953674316
vt -14.518718719482422 5.71999979019165
vt -14.518718719482422 2.2750000953674316
vt -14.985692024230957 5.71999979019165
vt 73.54585266113281 2.1123108863830566
vt -38.01730728149414 5.71999979019165
vt -2.338304042816162 5.71999979019165
vt -14.985692024230957 2.2750000953674316
vt 2.8151729106903076 0
vt 3.2843680381774902 3.375
vt 2.8151729106903076 3.375
vt 3.2843680381774902 0
vt 3.75356388092041 3.375
vt 2.3459770679473877 0
vt 2.3459770679473877 3.375
vt 3.75356388092041 0
vt 4.222758769989014 3.375
vt 1.876781940460205 0
vt 1.876781940460205 3.375
vt 74.55154418945312 3.513056993484497
vt 76.30359649658203 1.9044079780578613
vt 75.01569366455078 3.5653109550476074
vt 74.13053894042969 3.3072009086608887
vt 75.47064971923828 3.458070993423462
vt 4.222758769989014 0
vt 4.691955089569092 0
vt 4.691955089569092 3.375
vt 1.4075859785079956 3.375
vt 73.80015563964844 2.9709560871124268
vt 73.90010070800781 1.2035460472106934
vt 75.8651123046875 3.203429937362671
vt 5.161149978637695 0
vt 0.9383909702301025 3.375
vt 1.4075859785079956 0
vt 73.65060424804688 1.6057319641113281
vt 76.15460205078125 2.8301010131835938
vt 5.161149978637695 3.375
vt 76.30647277832031 2.3801820278167725
vt 0.9383909702301025 0
vt 73.59764862060547 2.5422379970550537
vt 0.46919500827789307 0
vt 0 3.375
vt 0 0
vt 5.630345821380615 0
vt 0.46919500827789307 3.375
vt 73.54585266113281 2.069390058517456
vt 5.630345821380615 3.375
vn -0.2534021042546202 0.9671984323933062 0.01773600674509274
vn 0.08111397105650879 0.9965366548393798 0.01830899399155926
vn 0.40648404671955923 0.9135030785849892 0.01681800161250188
vn -0.5593446735751996 0.8287964888052701 0.015162990704641654
vn 0.6860172733856369 0.7274612948831044 0.013430006088361847
vn -0.8022137411724777 0.5969378017508714 0.010879996088897273
vn 0.00010300003932064134 0.01836100762282291 -0.9998314171849504
vn 0.8881941993554971 0.4593890915367843 0.008528001422092025
vn -0.9546234266069383 0.2977671513908678 0.005370002401793824
vn 0.9902163676434435 0.13951504703737888 0.002664000972708538
vn -0.9993877001527561 -0.03498099139039832 -0.000744999818407757
vn -0.8571455995890691 -0.5149857231880525 -0.009545994844644665
vn -0.9314587354053219 -0.36378387827034053 -0.006775997912400653
vn 0.9995881236773785 -0.02869500352151714 -0.000424000045095805
vn 0.2534021042546202 -0.9671984323933062 -0.01773600674509274
vn -0.08111397105650879 -0.9965366548393798 -0.01830899399155926
vn -0.40648404671955923 -0.9135030785849892 -0.01681800161250188
vn 0.5593446735751996 -0.8287964888052701 -0.015162990704641654
vn -0.6860172733856369 -0.7274612948831044 -0.013430006088361847
vn 0.8022137411724777 -0.5969378017508714 -0.010879996088897273
vn -0.00010300003932064134 -0.01836100762282291 0.9998314171849504
vn -0.8881941993554971 -0.4593890915367843 -0.008528001422092025
vn 0.9546234266069383 -0.2977671513908678 -0.005370002401793824
vn -0.9902163676434435 -0.13951504703737888 -0.002664000972708538
vn 0.9993877001527561 0.03498099139039832 0.000744999818407757
vn 0.9314587354053219 0.36378387827034053 0.006775997912400653
vn 0.8571455995890691 0.5149857231880525 0.009545994844644665
vn -0.9995881236773785 0.02869500352151714 0.000424000045095805
usemtl material_0_0
f 1/1/1 2/2/2 3/3/1
f 4/4/2 5/5/3 6/6/2
f 7/7/4 8/8/1 9/9/4
f 10/10/2 11/3/1 12/2/2
f 13/11/1 14/9/4 15/8/1
f 16/12/3 17/6/2 18/5/3
f 19/13/3 20/14/5 21/15/3
f 22/16/6 23/17/4 24/18/6
f 25/19/4 26/18/6 27/17/4
f 28/20/7 29/21/7 30/22/7
f 31/22/7 32/21/7 33/23/7
f 34/24/7 35/21/7 36/20/7
f 37/25/5 38/15/3 39/14/5
f 40/26/8 41/27/8 42/28/5
f 43/29/6 44/30/6 45/31/9
f 46/23/7 47/32/7 48/33/7
f 49/21/7 50/32/7 51/23/7
f 52/34/7 53/21/7 54/24/7
f 55/35/5 56/28/5 57/27/8
f 58/36/8 59/37/8 60/38/10
f 61/39/9 62/40/9 63/41/11
f 64/42/9 65/31/9 66/30/6
f 67/32/7 68/43/7 69/33/7
f 70/44/7 71/21/7 72/34/7
f 73/45/10 74/38/10 75/37/8
f 76/46/7 77/21/7 78/44/7
f 79/47/11 80/41/11 81/40/9
f 82/33/7 83/43/7 84/48/7
f 85/49/12 86/50/12 87/51/13
f 88/52/10 89/53/10 90/54/14
f 91/55/11 92/56/11 93/57/13
f 94/58/7 95/48/7 96/43/7
f 97/59/13 98/51/13 99/50/12
f 100/60/14 101/54/14 102/53/10
f 103/61/13 104/57/13 105/56/11
usemtl material_1_0
f 106/62/15 107/63/16 108/64/15
f 109/65/16 110/66/17 111/63/16
f 112/67/18 113/64/15 114/68/18
f 115/63/16 116/62/15 117/65/16
f 118/64/15 119/67/18 120/62/15
f 121/66/17 122/65/16 123/69/17
f 124/69/17 125/70/19 126/66/17
f 127/71/20 128/68/18 129/72/20
f 130/68/18 131/71/20 132/67/18
f 133/73/21 134/74/21 135/75/21
f 136/76/21 137/74/21 138/73/21
f 139/75/21 140/74/21 141/77/21
f 142/70/19 143/69/17 144/78/19
f 145/70/19 146/79/22 147/80/22
f 148/81/23 149/71/20 150/72/20
f 151/82/21 152/83/21 153/76/21
f 154/76/21 155/83/21 156/74/21
f 157/77/21 158/74/21 159/84/21
f 160/79/22 161/70/19 162/78/19
f 163/85/24 164/80/22 165/79/22
f 166/86/25 167/87/23 168/81/23
f 169/71/20 170/81/23 171/87/23
f 172/82/21 173/88/21 174/83/21
f 175/84/21 176/74/21 177/89/21
f 178/80/22 179/85/24 180/90/24
f 181/89/21 182/74/21 183/91/21
f 184/87/23 185/86/25 186/92/25
f 187/93/21 188/88/21 189/82/21
f 190/94/26 191/95/27 192/96/27
f 193/97/28 194/90/24 195/85/24
f 196/98/26 197/92/25 198/86/25
f 199/88/21 200/93/21 201/99/21
f 202/95/27 203/94/26 204/98/26
f 205/90/24 206/97/28 207/100/28
f 208/92/25 209/98/26 210/94/26
