# SSTK version 0.8.0
# 4
mtllib original-4.mtl
o draw_back1/draw_back/mesh6/mesh6-geometry#mesh6-geometry
v -0.556843 0.029081 -0.202476
v -0.576118 0.039226 -0.202476
v -0.576118 0.029081 -0.202476
v -0.556843 0.039226 -0.202476
v -0.576118 0.039362 -0.222765
v -0.576118 0.034153 -0.222765
v -0.018164 0.039226 -0.202476
v 0.001110 0.039362 -0.202476
v -0.576118 0.039362 -0.202476
v -0.556843 0.034153 -0.222765
v -0.018164 0.029081 -0.202476
v -0.556843 -0.006425 -0.202476
v -0.018164 -0.006425 -0.202476
v 0.001110 0.029081 -0.202476
v 0.001110 0.039226 -0.202476
v 0.001110 0.039362 -0.222765
v -0.556843 -0.011498 -0.222765
v -0.018164 -0.011498 -0.222765
v -0.018164 0.034153 -0.222765
v 0.001110 0.034153 -0.222765
v -0.576118 -0.011498 -0.222765
v -0.556843 -0.013526 -0.202476
v 0.001110 -0.006425 -0.202476
v 0.001110 -0.011498 -0.222765
v -0.576118 -0.006425 -0.202476
v 0.001110 -0.014405 -0.222765
v -0.018164 -0.013526 -0.202476
v -0.576118 -0.014405 -0.202476
v -0.576118 -0.014405 -0.222765
v -0.566988 -0.013526 -0.202476
v -0.009034 -0.013526 -0.202476
v 0.001110 -0.014405 -0.202476
v -0.008020 -0.013526 -0.202476
v -0.566988 -0.014405 -0.202476
v -0.008020 -0.014405 -0.202476
vt 0.019138 0.057094
vt 0 0.070413
vt 0 0.057094
vt 0.019138 0.070413
vt -0.020145 0.070591
vt 0 0.041305
vt -0.019138 0.013847
vt 0 0.013847
vt 0.553992 0.070413
vt 0.57313 0.070591
vt 0 0.070591
vt -0.020145 0.063753
vt -0.019138 0.041305
vt 0.553992 0.057094
vt 0.57313 0
vt 0 0.026638
vt 0 0
vt -0.019138 0.063753
vt 0 0.063753
vt 0 0.010477
vt 0.553992 0.010477
vt 0.57313 0.057094
vt 0.57313 0.070413
vt 0.57313 0.026638
vt -0.57313 0.070591
vt -0.020145 0.003817
vt 0.019138 0.010477
vt 0.020145 0.003817
vt -0.553992 0.041305
vt -0.57313 0.013847
vt -0.553992 0.013847
vt 0.020145 0.063753
vt 0.020145 0.070591
vt -0.57313 0.063753
vt -0.553992 0.003817
vt -0.019138 0.003817
vt 0 -0.024917
vt -0.019138 0.002541
vt -0.019138 -0.024917
vt 0.019138 0.001153
vt -0.57313 0.002541
vt -0.553992 -0.024917
vt -0.553992 0.002541
vt -0.57313 0.041305
vt -0.553992 0.063753
vt -0.57313 0.003817
vt 0 0.002541
vt -0.57313 0
vt 0 0.003817
vt 0.553992 0.001153
vt -0.57313 -0.024917
vt 0.57313 0.010477
vt 0.009065 0.001153
vt 0.020145 0
vt 0.563058 0.001153
vt -0.020145 0
vt -0.57313 0.026638
vt 0.564065 0.001153
vt 0.009065 0
vt -0.009065 0
vt 0.564065 0
vt -0.564065 0
vn 0 0 1
vn 0 0 -1
vn -1 0 0
vn 1 0 0
vn 0 -0.9701424413218079 -0.24253586033030822
vn 0 0.9701424413218079 0.24253586033030822
vn 0 1 0
vn 0 -1 0
vn 0 0.9701424413218079 -0.24253586033030777
vn 0 -0.9701424413218079 0.24253586033030777
usemtl material_0_0
f 1/1/1 2/2/1 3/3/1
f 2/2/1 1/1/1 4/4/1
f 3/3/2 2/2/2 1/1/2
f 4/4/2 1/1/2 2/2/2
f 2/2/3 5/5/3 3/3/3
f 3/3/4 5/5/4 2/2/4
f 6/6/5 1/7/5 3/8/5
f 3/8/6 1/7/6 6/6/6
f 1/1/1 7/9/1 4/4/1
f 4/4/2 7/9/2 1/1/2
f 4/4/1 8/10/1 2/2/1
f 2/2/2 8/10/2 4/4/2
f 5/5/3 2/2/3 9/11/3
f 9/11/4 2/2/4 5/5/4
f 3/3/3 5/5/3 6/12/3
f 6/12/4 5/5/4 3/3/4
f 1/7/5 6/6/5 10/13/5
f 10/13/6 6/6/6 1/7/6
f 1/1/1 11/14/1 7/9/1
f 7/9/2 11/14/2 1/1/2
f 7/9/1 8/10/1 4/4/1
f 4/4/2 8/10/2 7/9/2
f 2/2/1 8/10/1 9/11/1
f 9/11/2 8/10/2 2/2/2
f 8/15/7 5/16/7 9/17/7
f 9/17/8 5/16/8 8/15/8
f 5/11/2 10/18/2 6/19/2
f 6/19/1 10/18/1 5/11/1
f 10/12/3 12/20/3 1/3/3
f 1/3/4 12/20/4 10/12/4
f 1/1/1 13/21/1 11/14/1
f 11/14/2 13/21/2 1/1/2
f 14/22/1 7/9/1 11/14/1
f 11/14/2 7/9/2 14/22/2
f 8/10/1 7/9/1 15/23/1
f 15/23/2 7/9/2 8/10/2
f 5/16/7 8/15/7 16/24/7
f 16/24/8 8/15/8 5/16/8
f 16/25/2 10/18/2 5/11/2
f 5/11/1 10/18/1 16/25/1
f 12/20/3 10/12/3 17/26/3
f 17/26/4 10/12/4 12/20/4
f 12/27/1 13/21/1 1/1/1
f 1/1/2 13/21/2 12/27/2
f 18/28/4 11/3/4 13/20/4
f 13/20/3 11/3/3 18/28/3
f 7/9/1 14/22/1 15/23/1
f 15/23/2 14/22/2 7/9/2
f 19/29/5 14/30/5 11/31/5
f 11/31/6 14/30/6 19/29/6
f 15/2/4 20/32/4 8/11/4
f 8/11/3 20/32/3 15/2/3
f 8/11/4 20/32/4 16/33/4
f 16/33/3 20/32/3 8/11/3
f 20/34/2 10/18/2 16/25/2
f 16/25/1 10/18/1 20/34/1
f 18/35/2 17/36/2 10/18/2
f 10/18/1 17/36/1 18/35/1
f 21/37/9 12/38/9 17/39/9
f 17/39/10 12/38/10 21/37/10
f 22/40/1 13/21/1 12/27/1
f 12/27/2 13/21/2 22/40/2
f 11/3/4 18/28/4 19/32/4
f 19/32/3 18/28/3 11/3/3
f 23/41/9 18/42/9 13/43/9
f 13/43/10 18/42/10 23/41/10
f 20/32/4 15/2/4 14/3/4
f 14/3/3 15/2/3 20/32/3
f 14/30/5 19/29/5 20/44/5
f 20/44/6 19/29/6 14/30/6
f 19/45/2 10/18/2 20/34/2
f 20/34/1 10/18/1 19/45/1
f 24/46/2 17/36/2 18/35/2
f 18/35/1 17/36/1 24/46/1
f 18/35/2 10/18/2 19/45/2
f 19/45/1 10/18/1 18/35/1
f 12/38/9 21/37/9 25/47/9
f 25/47/10 21/37/10 12/38/10
f 26/48/2 21/49/2 17/36/2
f 17/36/1 21/49/1 26/48/1
f 22/40/1 27/50/1 13/21/1
f 13/21/2 27/50/2 22/40/2
f 25/20/1 22/40/1 12/27/1
f 12/27/2 22/40/2 25/20/2
f 18/42/9 23/41/9 24/51/9
f 24/51/10 23/41/10 18/42/10
f 27/50/1 23/52/1 13/21/1
f 13/21/2 23/52/2 27/50/2
f 17/36/2 24/46/2 26/48/2
f 26/48/1 24/46/1 17/36/1
f 21/26/3 28/17/3 25/20/3
f 25/20/4 28/17/4 21/26/4
f 21/49/2 26/48/2 29/17/2
f 29/17/1 26/48/1 21/49/1
f 30/53/1 27/50/1 22/40/1
f 22/40/2 27/50/2 30/53/2
f 25/20/1 30/53/1 22/40/1
f 22/40/2 30/53/2 25/20/2
f 23/20/4 26/54/4 24/28/4
f 24/28/3 26/54/3 23/20/3
f 31/55/1 23/52/1 27/50/1
f 27/50/2 23/52/2 31/55/2
f 28/17/3 21/26/3 29/56/3
f 29/56/4 21/26/4 28/17/4
f 28/17/1 30/53/1 25/20/1
f 25/20/2 30/53/2 28/17/2
f 26/57/8 28/17/8 29/16/8
f 29/16/7 28/17/7 26/57/7
f 30/53/1 31/55/1 27/50/1
f 27/50/2 31/55/2 30/53/2
f 26/54/4 23/20/4 32/17/4
f 32/17/3 23/20/3 26/54/3
f 33/58/1 23/52/1 31/55/1
f 31/55/2 23/52/2 33/58/2
f 30/53/1 28/17/1 34/59/1
f 34/59/2 28/17/2 30/53/2
f 28/17/8 26/57/8 34/60/8
f 34/60/7 26/57/7 28/17/7
f 30/53/1 33/58/1 31/55/1
f 31/55/2 33/58/2 30/53/2
f 23/52/1 35/61/1 32/15/1
f 32/15/2 35/61/2 23/52/2
f 35/62/8 26/57/8 32/48/8
f 32/48/7 26/57/7 35/62/7
f 35/61/1 23/52/1 33/58/1
f 33/58/2 23/52/2 35/61/2
f 34/59/1 33/58/1 30/53/1
f 30/53/2 33/58/2 34/59/2
f 34/60/8 26/57/8 35/62/8
f 35/62/7 26/57/7 34/60/7
f 33/58/1 34/59/1 35/61/1
f 35/61/2 34/59/2 33/58/2
