# SSTK version 0.8.0
# 597
mtllib original-597.mtl
o #ID3586
v 0.329953 0.333521 0.510112
v 0.329765 0.333463 0.510122
v 0.328917 0.333473 0.510122
v 0.330126 0.333603 0.510093
v 0.330285 0.333709 0.510074
v 0.329399 0.333849 0.510050
v 0.330435 0.333834 0.510050
v 0.329250 0.333863 0.510045
v 0.329110 0.333892 0.510040
v 0.328980 0.333945 0.510030
v 0.328859 0.334017 0.510016
v 0.328748 0.334109 0.509996
v 0.328647 0.334220 0.509977
vn 0.0014668507493306362 -0.22634644246643634 -0.9740457567956792
vn -0.001803418458266624 -0.15869180723553597 -0.9873265204572316
vn -0.00105643271838264 -0.1909575691445239 -0.9815977234775587
vn -0.0014668507493306362 0.22634644246643634 0.9740457567956792
vn 0.001803418458266624 0.15869180723553597 0.9873265204572316
vn 0.00105643271838264 0.1909575691445239 0.9815977234775587
vn -0.004270773632291456 -0.178929940752354 -0.9838525482992565
vn 0.004270773632291456 0.178929940752354 0.9838525482992565
vn -0.0028993760514799145 -0.18415152440293805 -0.9828935902113647
vn 0.0028993760514799145 0.18415152440293805 0.9828935902113647
vn 0.0009589771143475009 -0.1904417646385274 -0.9816980261996343
vn -0.0009589771143475009 0.1904417646385274 0.9816980261996343
vn -0.002552413826038955 -0.18611396386179926 -0.982524848357185
vn 0.002552413826038955 0.18611396386179926 0.982524848357185
vn 0.006190460158889066 -0.19931993923393487 -0.9799149146873934
vn -0.006190460158889066 0.19931993923393487 0.9799149146873934
vn -0.00523597638743217 -0.18977967730801337 -0.981812741123345
vn 0.00523597638743217 0.18977967730801337 0.981812741123345
vn 0.0002765319931523862 -0.19065830504224207 -0.9816564237290336
vn -0.0002765319931523862 0.19065830504224207 0.9816564237290336
vn 0.011246083691376352 -0.190275104364551 -0.981666394586606
vn -0.011246083691376352 0.190275104364551 0.981666394586606
vn -0.02502562355034879 -0.1999363016739054 -0.9794892513136003
vn 0.02502562355034879 0.1999363016739054 0.9794892513136003
vn -0.03408962776178882 -0.20219413577762188 -0.9787519750867445
vn 0.03408962776178882 0.20219413577762188 0.9787519750867445
usemtl material_0_2
f 1//1 2//2 3//3
f 3//6 2//5 1//4
f 4//7 1//1 3//3
f 3//6 1//4 4//8
f 5//9 4//7 3//3
f 3//6 4//8 5//10
f 6//11 5//9 3//3
f 3//6 5//10 6//12
f 5//9 6//11 7//13
f 7//14 6//12 5//10
f 8//15 6//11 3//3
f 3//6 6//12 8//16
f 9//17 8//15 3//3
f 3//6 8//16 9//18
f 10//19 9//17 3//3
f 3//6 9//18 10//20
f 11//21 10//19 3//3
f 3//6 10//20 11//22
f 12//23 11//21 3//3
f 3//6 11//22 12//24
f 13//25 12//23 3//3
f 3//6 12//24 13//26
