# SSTK version 0.8.0
# 199
mtllib original-199.mtl
o #ID1198
v -0.243484 0.342078 0.508475
v -0.242612 0.341702 0.508548
v -0.242781 0.341721 0.508543
v -0.242969 0.341731 0.508543
v -0.243147 0.341712 0.508543
v -0.243316 0.341664 0.508553
v -0.243465 0.341587 0.508567
v -0.244443 0.340926 0.508698
v -0.244361 0.341187 0.508644
v -0.244241 0.341423 0.508601
v -0.244087 0.341644 0.508558
vn -0.0006404534244630691 -0.18419804339522058 -0.9828889411468538
vn 0.008399485587993595 -0.1703769339685713 -0.9853431630723004
vn 0.005878278330370987 -0.1751943317681338 -0.9845163238667948
vn 0.0006404534244630691 0.18419804339522058 0.9828889411468538
vn -0.008399485587993595 0.1703769339685713 0.9853431630723004
vn -0.005878278330370987 0.1751943317681338 0.9845163238667948
vn -0.004482422787059042 -0.19780639588276674 -0.9802308593560133
vn 0.004482422787059042 0.19780639588276674 0.9802308593560133
vn 0.010657471590236781 -0.17215205001762407 -0.9850127359450905
vn -0.010657471590236781 0.17215205001762407 0.9850127359450905
vn -0.0021187302903369946 -0.18429306821013514 -0.9828690533289016
vn 0.0021187302903369946 0.18429306821013514 0.9828690533289016
vn -0.004725296002823178 -0.18386036204628484 -0.982941014937262
vn 0.004725296002823178 0.18386036204628484 0.982941014937262
vn 0.009601872730286854 -0.19716841609969768 -0.9803226100283557
vn -0.009601872730286854 0.19716841609969768 0.9803226100283557
vn 0.018291525531498043 -0.2036118713836221 -0.9788808027157287
vn -0.018291525531498043 0.2036118713836221 0.9788808027157287
vn -0.009772328300715743 -0.17729152507973214 -0.9841098600941287
vn 0.009772328300715743 0.17729152507973214 0.9841098600941287
vn 0.009547244005997293 -0.19880530775545308 -0.9799924998387229
vn -0.009547244005997293 0.19880530775545308 0.9799924998387229
usemtl material_0_2
f 1//1 2//2 3//3
f 3//6 2//5 1//4
f 1//1 3//3 4//7
f 4//8 3//6 1//4
f 1//1 4//7 5//9
f 5//10 4//8 1//4
f 1//1 5//9 6//11
f 6//12 5//10 1//4
f 1//1 6//11 7//13
f 7//14 6//12 1//4
f 1//1 7//13 8//15
f 8//16 7//14 1//4
f 1//1 8//15 9//17
f 9//18 8//16 1//4
f 1//1 9//17 10//19
f 10//20 9//18 1//4
f 1//1 10//19 11//21
f 11//22 10//20 1//4
