# SSTK version 0.8.0
# 505
mtllib original-505.mtl
o #ID3034
v 0.112663 0.368245 0.503473
v 0.113149 0.365181 0.504062
v 0.112663 0.365181 0.504062
v 0.113149 0.368245 0.503473
v 0.111530 0.368679 0.503391
v 0.111530 0.368245 0.503473
v 0.114335 0.368245 0.503473
v 0.114335 0.368679 0.503391
vn 0 -0.18687430413502787 -0.9823838325491973
vn 0 -0.18877637976121986 -0.9820201008351345
vn 0 0.18687430413502787 0.9823838325491973
vn 0 0.18877637976121986 0.9820201008351345
vn 0 -0.18592300351200428 -0.9825643168592452
vn 0 0.18592300351200428 0.9825643168592452
usemtl material_0_2
f 1//1 2//2 3//2
f 3//4 2//4 1//3
f 2//2 1//1 4//1
f 4//3 1//3 2//4
f 5//5 1//1 6//5
f 6//6 1//3 5//6
f 1//1 5//5 4//1
f 4//3 5//6 1//3
f 4//1 5//5 7//5
f 7//6 5//6 4//3
f 7//5 5//5 8//5
f 8//6 5//6 7//6
