# SSTK version 0.8.0
# 395
mtllib original-395.mtl
o #ID2374
v -0.164531 0.339250 0.509016
v -0.163394 0.338816 0.509098
v -0.164531 0.338816 0.509098
v -0.162912 0.338816 0.509098
v -0.161727 0.338816 0.509098
v -0.161727 0.339250 0.509016
v -0.162912 0.335752 0.509683
v -0.163394 0.335752 0.509683
vn 0 -0.18592300351250357 -0.9825643168591508
vn 0 -0.18638257694200783 -0.982477244017619
vn 0 0.18592300351250357 0.9825643168591508
vn 0 0.18638257694200783 0.982477244017619
vn 0 -0.18730160146539704 -0.9823024534676158
vn 0 0.18730160146539704 0.9823024534676158
usemtl material_0_2
f 1//1 2//2 3//1
f 3//3 2//4 1//3
f 2//2 1//1 4//2
f 4//4 1//3 2//4
f 4//2 1//1 5//1
f 5//3 1//3 4//4
f 5//1 1//1 6//1
f 6//3 1//3 5//3
f 2//2 7//5 8//5
f 8//6 7//6 2//4
f 7//5 2//2 4//2
f 4//4 2//4 7//6
