# SSTK version 0.8.0
# 357
mtllib original-357.mtl
o #ID2146
v -0.165056 0.367387 0.503637
v -0.164878 0.366631 0.503782
v -0.165109 0.367223 0.503671
v -0.165172 0.367074 0.503700
v -0.165022 0.367570 0.503604
v -0.165253 0.366944 0.503724
v -0.164998 0.367768 0.503565
v -0.165345 0.366828 0.503744
v -0.165451 0.366737 0.503763
v -0.165571 0.366665 0.503778
v -0.165706 0.366616 0.503787
vn 0.01018863973543893 -0.1858434317580926 -0.9825265444214301
vn -0.002571411210754605 -0.18650981622600699 -0.9824497321979004
vn -0.021972829115838963 -0.1925018070945075 -0.9810505843461871
vn -0.01018863973543893 0.1858434317580926 0.9825265444214301
vn 0.002571411210754605 0.18650981622600699 0.9824497321979004
vn 0.021972829115838963 0.1925018070945075 0.9810505843461871
vn -0.005632960939807883 -0.18562358717832994 -0.9826047799772295
vn 0.005632960939807883 0.18562358717832994 0.9826047799772295
vn -0.01486822970912977 -0.18899299137726167 -0.9818658691265273
vn 0.01486822970912977 0.18899299137726167 0.9818658691265273
vn 0.004063691276370963 -0.17726781287949073 -0.9841542607386973
vn -0.004063691276370963 0.17726781287949073 0.9841542607386973
vn -0.018552126418066656 -0.18952820298754236 -0.9816999943351741
vn 0.018552126418066656 0.18952820298754236 0.9816999943351741
vn 0.0009748164921800356 -0.1895188854091756 -0.9818765919432393
vn -0.0009748164921800356 0.1895188854091756 0.9818765919432393
vn -0.003054849723245559 -0.19571651193281867 -0.9806557575673631
vn 0.003054849723245559 0.19571651193281867 0.9806557575673631
vn -0.002498564625928588 -0.19024422648098477 -0.9817336153282425
vn 0.002498564625928588 0.19024422648098477 0.9817336153282425
vn -0.002460702514643609 -0.18948609707837027 -0.9818803205875658
vn 0.002460702514643609 0.18948609707837027 0.9818803205875658
usemtl material_0_2
f 1//1 2//2 3//3
f 3//6 2//5 1//4
f 3//3 2//2 4//7
f 4//8 2//5 3//6
f 5//9 2//2 1//1
f 1//4 2//5 5//10
f 4//7 2//2 6//11
f 6//12 2//5 4//8
f 7//13 2//2 5//9
f 5//10 2//5 7//14
f 6//11 2//2 8//15
f 8//16 2//5 6//12
f 8//15 2//2 9//17
f 9//18 2//5 8//16
f 9//17 2//2 10//19
f 10//20 2//5 9//18
f 10//19 2//2 11//21
f 11//22 2//5 10//20
