# SSTK version 0.8.0
# 403
mtllib original-403.mtl
o #ID2422
v -0.096957 0.366207 0.503864
v -0.097415 0.365846 0.503932
v -0.097444 0.366043 0.503893
v -0.097439 0.365634 0.503975
v -0.097521 0.366202 0.503864
v -0.097516 0.365460 0.504004
v -0.097656 0.366327 0.503840
v -0.097863 0.364752 0.504144
v -0.098460 0.366915 0.503729
v -0.097641 0.365325 0.504033
v -0.096914 0.365899 0.503922
v -0.097844 0.366414 0.503826
v -0.097988 0.366886 0.503734
v -0.097815 0.365229 0.504053
v -0.096952 0.365537 0.503990
v -0.098085 0.366467 0.503816
v -0.097603 0.366804 0.503748
v -0.098041 0.365171 0.504062
v -0.097063 0.365243 0.504048
v -0.098379 0.366486 0.503811
v -0.097299 0.366660 0.503778
v -0.098282 0.364718 0.504149
v -0.097256 0.365012 0.504091
v -0.098316 0.365152 0.504067
vn 0.0009963942197881814 -0.1871068829684638 -0.9823390563061128
vn 0.01257972472491121 -0.19910963266317047 -0.9798964765252414
vn 0.0037363450460172714 -0.1848174443204283 -0.9827657665998355
vn -0.0009963942197881814 0.1871068829684638 0.9823390563061128
vn -0.01257972472491121 0.19910963266317047 0.9798964765252414
vn -0.0037363450460172714 0.1848174443204283 0.9827657665998355
vn -0.05241819837934341 -0.14726740325933818 -0.9877067603372548
vn 0.05241819837934341 0.14726740325933818 0.9877067603372548
vn 0.001577876509217585 -0.1846115515810735 -0.9828102997672289
vn -0.001577876509217585 0.1846115515810735 0.9828102997672289
vn 0.02502553573528524 -0.20392900698758928 -0.9786657665772404
vn -0.02502553573528524 0.20392900698758928 0.9786657665772404
vn 0.0006299117028894625 -0.18555891456258694 -0.9826329388116404
vn -0.0006299117028894625 0.18555891456258694 0.9826329388116404
vn 0.001373196772340596 -0.18918409858107177 -0.9819406759955978
vn -0.001373196772340596 0.18918409858107177 0.9819406759955978
vn -0.00005486723205182456 -0.18972169291694188 -0.981837907307676
vn 0.00005486723205182456 0.18972169291694188 0.981837907307676
vn -0.031486197345477224 -0.17824427745957164 -0.9834823826229105
vn 0.031486197345477224 0.17824427745957164 0.9834823826229105
vn -0.006201917668733415 -0.18512936496433638 -0.9826945885905407
vn 0.006201917668733415 0.18512936496433638 0.9826945885905407
vn -0.023936579492226155 -0.21766376020042394 -0.9757302535320019
vn 0.023936579492226155 0.21766376020042394 0.9757302535320019
vn -0.0017822003759545397 -0.19094900699136957 -0.9815983396944138
vn 0.0017822003759545397 0.19094900699136957 0.9815983396944138
vn -0.0007172353077433989 -0.18869653733412523 -0.9820351838766391
vn 0.0007172353077433989 0.18869653733412523 0.9820351838766391
vn -0.007176900760341091 -0.1848501341104085 -0.9827405150978767
vn 0.007176900760341091 0.1848501341104085 0.9827405150978767
vn -0.0014829246387982034 -0.191830524421098 -0.9814269462547084
vn 0.0014829246387982034 0.191830524421098 0.9814269462547084
vn -0.003665048594870146 -0.1942177607722098 -0.9809515935149021
vn 0.003665048594870146 0.1942177607722098 0.9809515935149021
vn 0.002536130752768311 -0.1887258841504419 -0.9820265315623803
vn -0.002536130752768311 0.1887258841504419 0.9820265315623803
vn -0.0008272913867939378 -0.19139575465110328 -0.9815125983350881
vn 0.0008272913867939378 0.19139575465110328 0.9815125983350881
vn 0.003974162516421976 -0.18741776650261596 -0.9822722569794303
vn -0.003974162516421976 0.18741776650261596 0.9822722569794303
vn 0.006797221938407401 -0.183315009527153 -0.9830307243702914
vn -0.006797221938407401 0.183315009527153 0.9830307243702914
vn 0.0009855253851480024 -0.18898085606028417 -0.9819802771860732
vn -0.0009855253851480024 0.18898085606028417 0.9819802771860732
vn -0.01022194249765762 -0.17663860911136436 -0.9842226951573394
vn 0.01022194249765762 0.17663860911136436 0.9842226951573394
vn -0.004339123448670261 -0.18624706433364038 -0.9824933603006171
vn 0.004339123448670261 0.18624706433364038 0.9824933603006171
usemtl material_0_2
f 1//1 2//2 3//3
f 3//6 2//5 1//4
f 1//1 4//7 2//2
f 2//5 4//8 1//4
f 1//1 3//3 5//9
f 5//10 3//6 1//4
f 1//1 6//11 4//7
f 4//8 6//12 1//4
f 7//13 1//1 5//9
f 5//10 1//4 7//14
f 1//1 8//15 6//11
f 6//12 8//16 1//4
f 9//17 1//1 7//13
f 7//14 1//4 9//18
f 6//11 8//15 10//19
f 10//20 8//16 6//12
f 1//1 11//21 8//15
f 8//16 11//22 1//4
f 9//17 7//13 12//23
f 12//24 7//14 9//18
f 9//17 13//25 1//1
f 1//4 13//26 9//18
f 10//19 8//15 14//27
f 14//28 8//16 10//20
f 11//21 15//29 8//15
f 8//16 15//30 11//22
f 9//17 12//23 16//31
f 16//32 12//24 9//18
f 13//25 17//33 1//1
f 1//4 17//34 13//26
f 14//27 8//15 18//35
f 18//36 8//16 14//28
f 15//29 19//37 8//15
f 8//16 19//38 15//30
f 9//17 16//31 20//39
f 20//40 16//32 9//18
f 17//33 21//41 1//1
f 1//4 21//42 17//34
f 18//35 8//15 22//43
f 22//44 8//16 18//36
f 19//37 23//45 8//15
f 8//16 23//46 19//38
f 18//35 22//43 24//47
f 24//48 22//44 18//36
