# SSTK version 0.8.0
# 574
mtllib original-574.mtl
o #ID3448
v 0.331355 0.369787 0.503179
v 0.331591 0.369772 0.503184
v 0.332608 0.369151 0.503299
v 0.332121 0.369021 0.503328
v 0.331808 0.369734 0.503188
v 0.332261 0.368756 0.503377
v 0.332005 0.369671 0.503203
v 0.332348 0.368418 0.503440
v 0.332189 0.369580 0.503217
v 0.332372 0.368004 0.503522
v 0.332367 0.367792 0.503560
vn 0.0029270152935697118 -0.18066064022378187 -0.9835411357210253
vn 0.006510203131859787 -0.1728240986549107 -0.9849311895656974
vn -0.0062212739850120175 -0.18969496136182457 -0.9818233636372375
vn -0.0029270152935697118 0.18066064022378187 0.9835411357210253
vn -0.006510203131859787 0.1728240986549107 0.9849311895656974
vn 0.0062212739850120175 0.18969496136182457 0.9818233636372375
vn -0.007271410850585536 -0.19197548522341218 -0.9813727832263729
vn 0.007271410850585536 0.19197548522341218 0.9813727832263729
vn -0.01122007319596071 -0.20187261742943777 -0.9793475155886521
vn 0.01122007319596071 0.20187261742943777 0.9793475155886521
vn -0.008501672861876646 -0.18476964275353608 -0.9827450842793771
vn 0.008501672861876646 0.18476964275353608 0.9827450842793771
vn 0.01826614814765079 -0.16184676124542507 -0.9866468333229547
vn -0.01826614814765079 0.16184676124542507 0.9866468333229547
vn 0.0116164767653208 -0.19193627994885926 -0.9813386377326401
vn -0.0116164767653208 0.19193627994885926 0.9813386377326401
vn -0.03070406173029958 -0.21650861063901217 -0.9757977670154951
vn 0.03070406173029958 0.21650861063901217 0.9757977670154951
vn -0.056609574250991494 -0.1786918622885209 -0.9822752030133824
vn 0.056609574250991494 0.1786918622885209 0.9822752030133824
vn -0.06285433185750193 -0.17737870906114817 -0.9821334565824278
vn 0.06285433185750193 0.17737870906114817 0.9821334565824278
usemtl material_0_2
f 1//1 2//2 3//3
f 3//6 2//5 1//4
f 1//1 3//3 4//7
f 4//8 3//6 1//4
f 2//2 5//9 3//3
f 3//6 5//10 2//5
f 3//3 6//11 4//7
f 4//8 6//12 3//6
f 5//9 7//13 3//3
f 3//6 7//14 5//10
f 3//3 8//15 6//11
f 6//12 8//16 3//6
f 7//13 9//17 3//3
f 3//6 9//18 7//14
f 3//3 10//19 8//15
f 8//16 10//20 3//6
f 3//3 11//21 10//19
f 10//20 11//22 3//6
