# SSTK version 0.8.0
# 121
mtllib original-121.mtl
o #ID730
v -0.249011 0.366612 0.503787
v -0.249093 0.366510 0.503806
v -0.249714 0.366173 0.503869
v -0.248948 0.366722 0.503768
v -0.248905 0.366833 0.503744
v -0.248871 0.367084 0.503695
v -0.248881 0.366958 0.503719
v -0.248876 0.367204 0.503676
v -0.248886 0.367310 0.503652
v -0.248905 0.367416 0.503633
v -0.248934 0.367513 0.503613
v -0.248972 0.367599 0.503599
v -0.249016 0.367681 0.503584
vn -0.010126764722073649 -0.16832389898287214 -0.9856797216476899
vn 0.003393703062709056 -0.18931045307837838 -0.981911419189522
vn 0.000669547155401278 -0.18779772704506018 -0.9822074961143983
vn 0.010126764722073649 0.16832389898287214 0.9856797216476899
vn -0.003393703062709056 0.18931045307837838 0.981911419189522
vn -0.000669547155401278 0.18779772704506018 0.9822074961143983
vn 0.025422564151565408 -0.21578139366070465 -0.976110692176765
vn -0.025422564151565408 0.21578139366070465 0.976110692176765
vn 0.007450325197864212 -0.19569056201137638 -0.9806373930225777
vn -0.007450325197864212 0.19569056201137638 0.9806373930225777
vn -0.023860845960455634 -0.1661527901073613 -0.9858112955173473
vn 0.023860845960455634 0.1661527901073613 0.9858112955173473
vn 0.002370690293378243 -0.18969422899738603 -0.9818403532716609
vn -0.002370690293378243 0.18969422899738603 0.9818403532716609
vn 0.025528621872377765 -0.2041320508902072 -0.9786104410155528
vn -0.025528621872377765 0.2041320508902072 0.9786104410155528
vn 0.003370745667960422 -0.19003331051587039 -0.9817718568832683
vn -0.003370745667960422 0.19003331051587039 0.9817718568832683
vn 0.00538294499279681 -0.19040686965671688 -0.9816905051444342
vn -0.00538294499279681 0.19040686965671688 0.9816905051444342
vn -0.013709060413881358 -0.17995282835046295 -0.9835797076146078
vn 0.013709060413881358 0.17995282835046295 0.9835797076146078
vn -0.01562604753052148 -0.17846410360659568 -0.9838223367877292
vn 0.01562604753052148 0.17846410360659568 0.9838223367877292
vn -0.01291246616620998 -0.17983597959541295 -0.9836118587433078
vn 0.01291246616620998 0.17983597959541295 0.9836118587433078
usemtl material_0_2
f 1//1 2//2 3//3
f 3//6 2//5 1//4
f 4//7 1//1 3//3
f 3//6 1//4 4//8
f 5//9 4//7 3//3
f 3//6 4//8 5//10
f 6//11 5//9 3//3
f 3//6 5//10 6//12
f 5//9 6//11 7//13
f 7//14 6//12 5//10
f 8//15 6//11 3//3
f 3//6 6//12 8//16
f 9//17 8//15 3//3
f 3//6 8//16 9//18
f 10//19 9//17 3//3
f 3//6 9//18 10//20
f 11//21 10//19 3//3
f 3//6 10//20 11//22
f 12//23 11//21 3//3
f 3//6 11//22 12//24
f 13//25 12//23 3//3
f 3//6 12//24 13//26
