# SSTK version 0.8.0
# 518
mtllib original-518.mtl
o #ID3112
v 0.107647 0.362222 0.504627
v 0.108139 0.362979 0.504482
v 0.107681 0.361639 0.504738
v 0.108105 0.363711 0.504342
v 0.108230 0.363711 0.504342
v 0.108654 0.361668 0.504734
v 0.107026 0.363711 0.504342
v 0.108384 0.361668 0.504734
v 0.107146 0.362979 0.504482
v 0.107613 0.361639 0.504738
v 0.107151 0.363711 0.504342
v 0.106905 0.361668 0.504734
v 0.106635 0.361668 0.504734
vn 0.0006027860714371756 -0.18733351457104938 -0.9822961829139979
vn 0.00008784207732227822 -0.18770861871143307 -0.9822247536817706
vn 0.00001111728900483455 -0.18761725605370907 -0.9822422130550503
vn -0.0006027860714371756 0.18733351457104938 0.9822961829139979
vn -0.00008784207732227822 0.18770861871143307 0.9822247536817706
vn -0.00001111728900483455 0.18761725605370907 0.9822422130550503
vn -0.000743049426986385 -0.18755415421690183 -0.982253982997031
vn 0.000743049426986385 0.18755415421690183 0.982253982997031
vn -0.0004222152656063827 -0.18760692624700362 -0.9822440954052211
vn 0.0004222152656063827 0.18760692624700362 0.9822440954052211
vn 0.0001242626119893153 -0.18818148210086239 -0.9821342649317993
vn -0.0001242626119893153 0.18818148210086239 0.9821342649317993
vn -0.00010072103257587433 -0.1878566344872328 -0.9821964542465035
vn 0.00010072103257587433 0.1878566344872328 0.9821964542465035
vn 0 -0.18822863457406158 -0.9821252369868032
vn 0 0.18822863457406158 0.9821252369868032
vn -0.0008040098561994594 -0.1878448550786566 -0.9821983832142208
vn -0.0001372041960640966 -0.18773575343976517 -0.9822195620406938
vn 0.0008040098561994594 0.1878448550786566 0.9821983832142208
vn 0.0001372041960640966 0.18773575343976517 0.9822195620406938
vn 0 -0.1878876443505172 -0.9821905279020021
vn 0 0.1878876443505172 0.9821905279020021
vn -0.0001043388744918851 -0.18804066242589948 -0.9821612384877689
vn 0.0001043388744918851 0.18804066242589948 0.9821612384877689
vn 0 -0.18804659796312564 -0.982160107617131
vn 0 0.18804659796312564 0.982160107617131
usemtl material_0_2
f 1//1 2//2 3//3
f 3//6 2//5 1//4
f 2//2 1//1 4//7
f 4//8 1//4 2//5
f 2//2 4//7 5//9
f 5//10 4//8 2//5
f 5//9 6//11 2//2
f 2//5 6//12 5//10
f 7//13 1//1 3//3
f 3//6 1//4 7//14
f 2//2 6//11 8//15
f 8//16 6//12 2//5
f 9//17 3//3 10//18
f 10//20 3//6 9//19
f 3//3 9//17 7//13
f 7//14 9//19 3//6
f 11//21 1//1 7//13
f 7//14 1//4 11//22
f 7//13 9//17 12//23
f 12//24 9//19 7//14
f 7//13 12//23 13//25
f 13//26 12//24 7//14
