# SSTK version 0.8.0
# 461
mtllib original-461.mtl
o #ID2770
v 0.107512 0.341736 0.508543
v 0.107136 0.340204 0.508833
v 0.107127 0.340464 0.508785
v 0.107165 0.339958 0.508881
v 0.107136 0.340710 0.508736
v 0.107218 0.339727 0.508925
v 0.107165 0.340941 0.508693
v 0.107295 0.339515 0.508963
v 0.107387 0.339322 0.509002
v 0.107662 0.340854 0.508712
v 0.107690 0.341023 0.508678
v 0.107739 0.341182 0.508644
v 0.107796 0.341326 0.508620
v 0.107869 0.341452 0.508596
v 0.107955 0.341562 0.508572
v 0.108052 0.341654 0.508558
v 0.108158 0.341726 0.508543
v 0.108278 0.341774 0.508533
vn -0.002815723128145937 -0.18568921552197587 -0.9826044916150642
vn 0.01707096669962642 -0.18983953293698316 -0.9816667121942194
vn -0.008716704001218257 -0.18392377216547778 -0.9829018593449584
vn 0.002815723128145937 0.18568921552197587 0.9826044916150642
vn -0.01707096669962642 0.18983953293698316 0.9816667121942194
vn 0.008716704001218257 0.18392377216547778 0.9829018593449584
vn -0.002626806782178368 -0.18629372108026618 -0.9824905848771259
vn 0.002626806782178368 0.18629372108026618 0.9824905848771259
vn 0.023611895846311404 -0.19321633146150458 -0.9808720240842334
vn -0.023611895846311404 0.19321633146150458 0.9808720240842334
vn -0.01389672416585538 -0.1845664525639898 -0.9827217844565178
vn 0.01389672416585538 0.1845664525639898 0.9827217844565178
vn -0.00017918187501842067 -0.18486026733978153 -0.9827647986435616
vn 0.00017918187501842067 0.18486026733978153 0.9827647986435616
vn 0.014880297518665419 -0.18721931611255016 -0.9822054288284631
vn -0.014880297518665419 0.18721931611255016 0.9822054288284631
vn 0.01558925413085386 -0.1874754920357765 -0.982145567134316
vn -0.01558925413085386 0.1874754920357765 0.982145567134316
vn -0.00151412685559555 -0.18664137045533724 -0.9824269470318995
vn 0.00151412685559555 0.18664137045533724 0.9824269470318995
vn -0.00791818304961874 -0.1881808656630451 -0.9821024713213482
vn 0.00791818304961874 0.1881808656630451 0.9821024713213482
vn -0.0267247005165016 -0.19046084451226308 -0.9813309620561143
vn 0.0267247005165016 0.19046084451226308 0.9813309620561143
vn 0.01204762173244334 -0.17733712478617397 -0.9840764192801111
vn -0.01204762173244334 0.17733712478617397 0.9840764192801111
vn -0.00851582685255215 -0.19406881718397878 -0.9809509543753087
vn 0.00851582685255215 0.19406881718397878 0.9809509543753087
vn -0.004424452064796172 -0.17618626812538088 -0.984346901832874
vn 0.004424452064796172 0.17618626812538088 0.984346901832874
vn -0.001456737963667203 -0.18308486761807138 -0.9830960325236687
vn 0.001456737963667203 0.18308486761807138 0.9830960325236687
vn -0.002833103539712491 -0.18983210267658754 -0.9818124802210036
vn 0.002833103539712491 0.18983210267658754 0.9818124802210036
vn -0.0028255200834959074 -0.1893239731928003 -0.9819106118230669
vn 0.0028255200834959074 0.1893239731928003 0.9819106118230669
usemtl material_0_2
f 1//1 2//2 3//3
f 3//6 2//5 1//4
f 1//1 4//7 2//2
f 2//5 4//8 1//4
f 1//1 3//3 5//9
f 5//10 3//6 1//4
f 1//1 6//11 4//7
f 4//8 6//12 1//4
f 1//1 5//9 7//13
f 7//14 5//10 1//4
f 1//1 8//15 6//11
f 6//12 8//16 1//4
f 1//1 9//17 8//15
f 8//16 9//18 1//4
f 1//1 10//19 9//17
f 9//18 10//20 1//4
f 10//19 1//1 11//21
f 11//22 1//4 10//20
f 1//1 12//23 11//21
f 11//22 12//24 1//4
f 1//1 13//25 12//23
f 12//24 13//26 1//4
f 1//1 14//27 13//25
f 13//26 14//28 1//4
f 1//1 15//29 14//27
f 14//28 15//30 1//4
f 1//1 16//31 15//29
f 15//30 16//32 1//4
f 1//1 17//33 16//31
f 16//32 17//34 1//4
f 18//35 17//33 1//1
f 1//4 17//34 18//36
