# SSTK version 0.8.0
# 45
mtllib original-45.mtl
o #ID274
v -0.317167 0.344256 0.508060
v -0.316681 0.340758 0.508727
v -0.317167 0.340758 0.508727
v -0.316681 0.342280 0.508437
v -0.316681 0.342685 0.508360
v -0.316681 0.343822 0.508142
v -0.316599 0.343832 0.508142
v -0.316165 0.342256 0.508442
v -0.316531 0.343837 0.508137
v -0.316787 0.344270 0.508056
v -0.316276 0.344289 0.508051
vn -0.0033508564322209636 -0.18924621045103948 -0.9819239500038135
vn 0.00013136822448740472 -0.1870870090804012 -0.9823433380319426
vn 0 -0.18710464666978147 -0.982339987577914
vn 0.0033508564322209636 0.18924621045103948 0.9819239500038135
vn -0.00013136822448740472 0.1870870090804012 0.9823433380319426
vn 0 0.18710464666978147 0.982339987577914
vn 0.001024113782665358 -0.1870859931696396 -0.9823430064649973
vn -0.001024113782665358 0.1870859931696396 0.9823430064649973
vn -0.001128406556781494 -0.18757303776864978 -0.9822500100284465
vn 0.001128406556781494 0.18757303776864978 0.9822500100284465
vn 0.008865150158535914 -0.17630204470240138 -0.9842961943167409
vn -0.008865150158535914 0.17630204470240138 0.9842961943167409
vn -0.03435440536729167 -0.23409412636937907 -0.9716067696507764
vn 0.03435440536729167 0.23409412636937907 0.9716067696507764
vn 0.0005180329651751444 -0.18733776935301358 -0.9822954198283141
vn -0.0005180329651751444 0.18733776935301358 0.9822954198283141
vn -0.01834113909439782 -0.20904405720623315 -0.9777342096722795
vn 0.01834113909439782 0.20904405720623315 0.9777342096722795
vn -0.004224528593978093 -0.18811195563571068 -0.9821385062734619
vn 0.004224528593978093 0.18811195563571068 0.9821385062734619
vn -0.002484037806765721 -0.18712379690694297 -0.98233319916783
vn 0.002484037806765721 0.18712379690694297 0.98233319916783
usemtl material_0_2
f 1//1 2//2 3//3
f 3//6 2//5 1//4
f 1//1 4//7 2//2
f 2//5 4//8 1//4
f 1//1 5//9 4//7
f 4//8 5//10 1//4
f 5//9 1//1 6//11
f 6//12 1//4 5//10
f 1//1 7//13 6//11
f 6//12 7//14 1//4
f 5//9 8//15 4//7
f 4//8 8//16 5//10
f 1//1 9//17 7//13
f 7//14 9//18 1//4
f 10//19 9//17 1//1
f 1//4 9//18 10//20
f 11//21 9//17 10//19
f 10//20 9//18 11//22
