# SSTK version 0.8.0
# 525
mtllib original-525.mtl
o #ID3154
v 0.102521 0.337255 0.509398
v 0.102665 0.337221 0.509403
v 0.102665 0.336759 0.509494
v 0.102366 0.337284 0.509393
v 0.102795 0.337173 0.509412
v 0.102193 0.337298 0.509388
v 0.102916 0.337115 0.509422
v 0.102005 0.337303 0.509388
v 0.102752 0.336711 0.509499
v 0.101788 0.337289 0.509388
v 0.101581 0.337245 0.509398
vn -0.0077831667356259475 -0.1929763984059016 -0.9811725291577685
vn -0.007519852693886654 -0.194440127829845 -0.9808855634093997
vn -0.02002322413071982 -0.18240174471260048 -0.9830201798646914
vn 0.0077831667356259475 0.1929763984059016 0.9811725291577685
vn 0.007519852693886654 0.194440127829845 0.9808855634093997
vn 0.02002322413071982 0.18240174471260048 0.9830201798646914
vn 0.007152626657641494 -0.18551263200878151 -0.9826158472653852
vn -0.007152626657641494 0.18551263200878151 0.9826158472653852
vn -0.00530055498555218 -0.19264754158090663 -0.981253702586481
vn 0.00530055498555218 0.19264754158090663 0.981253702586481
vn -0.0007487929079133106 -0.193629049707794 -0.9810745284729583
vn 0.0007487929079133106 0.193629049707794 0.9810745284729583
vn -0.01596755945366477 -0.187975227513534 -0.9820439658621852
vn 0.01596755945366477 0.187975227513534 0.9820439658621852
vn 0.00810394577155498 -0.18187265012417034 -0.9832886988060743
vn -0.00810394577155498 0.18187265012417034 0.9832886988060743
vn -0.0400389313156499 -0.17153095779245886 -0.9843647771522009
vn 0.0400389313156499 0.17153095779245886 0.9843647771522009
vn -0.0003464771329415172 -0.19692437314119338 -0.9804186203946478
vn 0.0003464771329415172 0.19692437314119338 0.9804186203946478
vn -0.0035106133482376307 -0.2019533456408815 -0.9793888511609543
vn 0.0035106133482376307 0.2019533456408815 0.9793888511609543
usemtl material_0_2
f 1//1 2//2 3//3
f 3//6 2//5 1//4
f 4//7 1//1 3//3
f 3//6 1//4 4//8
f 2//2 5//9 3//3
f 3//6 5//10 2//5
f 6//11 4//7 3//3
f 3//6 4//8 6//12
f 5//9 7//13 3//3
f 3//6 7//14 5//10
f 8//15 6//11 3//3
f 3//6 6//12 8//16
f 7//13 9//17 3//3
f 3//6 9//18 7//14
f 8//15 3//3 10//19
f 10//20 3//6 8//16
f 10//19 3//3 11//21
f 11//22 3//6 10//20
