# SSTK version 0.8.0
# 54
mtllib original-54.mtl
o #ID328
v -0.321402 0.338151 0.509224
v -0.321542 0.338079 0.509238
v -0.322120 0.338127 0.509229
v -0.321663 0.337973 0.509258
v -0.321764 0.337843 0.509287
v -0.321850 0.337689 0.509316
v -0.321913 0.337510 0.509350
v -0.321961 0.337313 0.509388
v -0.321990 0.337096 0.509427
v -0.322130 0.335530 0.509726
v -0.322265 0.335752 0.509683
v -0.322371 0.335993 0.509639
v -0.322448 0.336258 0.509586
v -0.322491 0.336547 0.509533
v -0.322511 0.336855 0.509475
v -0.322491 0.337149 0.509417
v -0.322448 0.337424 0.509364
vn -0.00004691254869140423 -0.19665740367775997 -0.9804722654812503
vn 0.0002836712218873013 -0.19284190520409963 -0.9812297993476814
vn 0.002595526790637974 -0.19214775322880465 -0.9813625752848952
vn 0.00004691254869140423 0.19665740367775997 0.9804722654812503
vn -0.0002836712218873013 0.19284190520409963 0.9812297993476814
vn -0.002595526790637974 0.19214775322880465 0.9813625752848952
vn -0.002578682318373167 -0.19197401600097766 -0.9813966209326163
vn 0.002578682318373167 0.19197401600097766 0.9813966209326163
vn 0.0002827046305201406 -0.1992972425026019 -0.9799390436190155
vn -0.0002827046305201406 0.1992972425026019 0.9799390436190155
vn 0.008508194905668488 -0.18938201957987646 -0.9818666209212403
vn 0.002271489838370434 -0.19139992141340817 -0.9815095060247023
vn -0.008508194905668488 0.18938201957987646 0.9818666209212403
vn -0.002271489838370434 0.19139992141340817 0.9815095060247023
vn 0.046024772746209044 -0.18317172100056078 -0.9820029739870203
vn -0.046024772746209044 0.18317172100056078 0.9820029739870203
vn 0.007287207770744729 -0.18762876051300978 -0.9822129834365139
vn -0.007287207770744729 0.18762876051300978 0.9822129834365139
vn 0.007090451124852818 -0.18812321351796998 -0.9821198409758954
vn -0.007090451124852818 0.18812321351796998 0.9821198409758954
vn 0.003221557430095387 -0.1878678566293397 -0.9821890296746458
vn -0.003221557430095387 0.1878678566293397 0.9821890296746458
vn -0.015671890172520173 -0.18702358400024058 -0.982230406211356
vn 0.015671890172520173 0.18702358400024058 0.982230406211356
vn 0.01506264461646707 -0.19026045723823226 -0.9816180902716986
vn -0.01506264461646707 0.19026045723823226 0.9816180902716986
vn -0.021478080660652994 -0.1840927117762631 -0.9826741909310512
vn 0.021478080660652994 0.1840927117762631 0.9826741909310512
vn -0.01355397107215774 -0.18607779889465018 -0.9824415212249008
vn 0.01355397107215774 0.18607779889465018 0.9824415212249008
vn 0.014439213273013311 -0.19429993131521492 -0.9808358913757995
vn -0.014439213273013311 0.19429993131521492 0.9808358913757995
vn 0.0036402036239597 -0.19037115422041526 -0.9817054408315985
vn -0.0036402036239597 0.19037115422041526 0.9817054408315985
usemtl material_0_2
f 1//1 2//2 3//3
f 3//6 2//5 1//4
f 3//3 2//2 4//7
f 4//8 2//5 3//6
f 3//3 4//7 5//9
f 5//10 4//8 3//6
f 3//3 6//11 7//12
f 7//14 6//13 3//6
f 6//11 3//3 5//9
f 5//10 3//6 6//13
f 3//3 7//12 8//15
f 8//16 7//14 3//6
f 3//3 8//15 9//17
f 9//18 8//16 3//6
f 3//3 9//17 10//19
f 10//20 9//18 3//6
f 3//3 10//19 11//21
f 11//22 10//20 3//6
f 3//3 11//21 12//23
f 12//24 11//22 3//6
f 3//3 12//23 13//25
f 13//26 12//24 3//6
f 3//3 13//25 14//27
f 14//28 13//26 3//6
f 3//3 14//27 15//29
f 15//30 14//28 3//6
f 3//3 15//29 16//31
f 16//32 15//30 3//6
f 3//3 16//31 17//33
f 17//34 16//32 3//6
