# SSTK version 0.8.0
# 184
mtllib original-184.mtl
o #ID1108
v -0.238252 0.362025 0.504661
v -0.238286 0.361769 0.504714
v -0.238517 0.361124 0.504835
v -0.238242 0.362304 0.504608
v -0.238252 0.362574 0.504560
v -0.238286 0.362825 0.504511
v -0.238344 0.363051 0.504468
v -0.238869 0.361543 0.504753
v -0.238931 0.361394 0.504782
v -0.239013 0.361264 0.504811
v -0.239105 0.361153 0.504830
v -0.239211 0.361056 0.504849
v -0.239331 0.360984 0.504864
vn -0.00744206383765225 -0.18738188241849854 -0.9822589504947951
vn 0.09073686022887834 -0.2143797601295976 -0.972526678627677
vn 0.0017943122621995008 -0.19094726214619714 -0.9815986570500069
vn 0.00744206383765225 0.18738188241849854 0.9822589504947951
vn -0.09073686022887834 0.2143797601295976 0.972526678627677
vn -0.0017943122621995008 0.19094726214619714 0.9815986570500069
vn -0.045162638839986384 -0.17841373110876158 -0.9829185503412067
vn 0.045162638839986384 0.17841373110876158 0.9829185503412067
vn 0.004461234362617153 -0.18725654181439028 -0.9823009136388284
vn -0.004461234362617153 0.18725654181439028 0.9823009136388284
vn 0.004662232204113994 -0.1874584207825581 -0.9822614743888636
vn -0.004662232204113994 0.1874584207825581 0.9822614743888636
vn 0.004975299535595463 -0.18746966081881947 -0.9822577933857322
vn -0.004975299535595463 0.18746966081881947 0.9822577933857322
vn 0.004292875592516439 -0.18884680403673737 -0.9819971770958699
vn -0.004292875592516439 0.18884680403673737 0.9819971770958699
vn -0.004887867617800253 -0.20030167673890328 -0.9797220764307266
vn 0.004887867617800253 0.20030167673890328 0.9797220764307266
vn -0.004830661058060635 -0.18654252231460486 -0.9824350116329564
vn 0.004830661058060635 0.18654252231460486 0.9824350116329564
vn -0.001136221533171911 -0.18842125775587465 -0.9820876430473616
vn 0.001136221533171911 0.18842125775587465 0.9820876430473616
vn -0.001666163438208645 -0.19378641925525808 -0.9810423271254011
vn 0.001666163438208645 0.19378641925525808 0.9810423271254011
vn -0.0017074787272559177 -0.19337874154855383 -0.9811226971350187
vn 0.0017074787272559177 0.19337874154855383 0.9811226971350187
usemtl material_0_2
f 1//1 2//2 3//3
f 3//6 2//5 1//4
f 4//7 1//1 3//3
f 3//6 1//4 4//8
f 5//9 4//7 3//3
f 3//6 4//8 5//10
f 6//11 5//9 3//3
f 3//6 5//10 6//12
f 7//13 6//11 3//3
f 3//6 6//12 7//14
f 7//13 3//3 8//15
f 8//16 3//6 7//14
f 8//15 3//3 9//17
f 9//18 3//6 8//16
f 9//17 3//3 10//19
f 10//20 3//6 9//18
f 10//19 3//3 11//21
f 11//22 3//6 10//20
f 11//21 3//3 12//23
f 12//24 3//6 11//22
f 3//3 13//25 12//23
f 12//24 13//26 3//6
