# SSTK version 0.8.0
# 206
mtllib original-206.mtl
o #ID1240
v -0.239461 0.340445 0.508789
v -0.240343 0.340103 0.508852
v -0.240859 0.340127 0.508847
v -0.240584 0.340507 0.508775
v -0.240517 0.340507 0.508775
v -0.239553 0.340363 0.508804
v -0.240791 0.340522 0.508775
v -0.240651 0.340512 0.508775
v -0.240719 0.340517 0.508775
vn -0.00135424580443136 -0.1778566990505203 -0.9840554662320381
vn 0.0004996301292054384 -0.18148428977163875 -0.9833937171529101
vn -0.002652572889896028 -0.1839972165681709 -0.982923185275548
vn 0.00135424580443136 0.1778566990505203 0.9840554662320381
vn -0.0004996301292054384 0.18148428977163875 0.9833937171529101
vn 0.002652572889896028 0.1839972165681709 0.982923185275548
vn -0.002484505107761336 -0.18516981357711287 -0.9827033974573338
vn 0.002484505107761336 0.18516981357711287 0.9827033974573338
vn 0.002174665694333177 -0.1884142667038292 -0.9820872338705845
vn -0.002174665694333177 0.1884142667038292 0.9820872338705845
vn -0.004968178454980185 -0.16783267711315006 -0.9858029771185887
vn 0.004968178454980185 0.16783267711315006 0.9858029771185887
vn -0.012434021515411148 -0.17822097505386766 -0.9839119265258466
vn 0.012434021515411148 0.17822097505386766 0.9839119265258466
usemtl material_0_2
f 1//1 2//2 3//3
f 3//6 2//5 1//4
f 4//7 1//1 3//3
f 3//6 1//4 4//8
f 1//1 4//7 5//9
f 5//10 4//8 1//4
f 1//1 6//11 2//2
f 2//5 6//12 1//4
f 7//13 4//7 3//3
f 3//6 4//8 7//14
f 4//7 7//13 8//13
f 8//14 7//14 4//8
f 8//13 7//13 9//13
f 9//14 7//14 8//14
