# SSTK version 0.8.0
# 604
mtllib original-604.mtl
o #ID3628
v 0.333918 0.334706 0.509885
v 0.333966 0.334547 0.509914
v 0.333860 0.333776 0.510064
v 0.333885 0.334880 0.509852
v 0.334024 0.334393 0.509943
v 0.334097 0.334253 0.509972
v 0.334183 0.334133 0.509996
v 0.334280 0.334032 0.510016
v 0.334390 0.333950 0.510030
v 0.334511 0.333897 0.510040
v 0.334636 0.333863 0.510045
vn 0.004799924194619565 -0.18905752823284835 -0.9819542819022745
vn -0.023521331984516523 -0.1874562511904697 -0.9819912936636911
vn 0.000021343817355540508 -0.18678337921686408 -0.982401124181345
vn -0.004799924194619565 0.18905752823284835 0.9819542819022745
vn 0.023521331984516523 0.1874562511904697 0.9819912936636911
vn -0.000021343817355540508 0.18678337921686408 0.982401124181345
vn 0.008480690734526942 -0.18927359777509992 -0.981887765006742
vn -0.008480690734526942 0.18927359777509992 0.981887765006742
vn -0.006411974478595207 -0.19048956325005117 -0.9816682804675367
vn 0.006411974478595207 0.19048956325005117 0.9816682804675367
vn 0.01156815207532095 -0.19455877831074786 -0.9808226443347398
vn -0.01156815207532095 0.19455877831074786 0.9808226443347398
vn 0.003959145430308841 -0.1898623350681615 -0.981802739296406
vn -0.003959145430308841 0.1898623350681615 0.981802739296406
vn -0.002077137574459953 -0.18265168331812798 -0.9831754920056494
vn 0.002077137574459953 0.18265168331812798 0.9831754920056494
vn -0.0028823928474424297 -0.18290242348971728 -0.9831268459832948
vn 0.0028823928474424297 0.18290242348971728 0.9831268459832948
vn -0.005691528268545617 -0.16723240650130453 -0.9859010745109018
vn 0.005691528268545617 0.16723240650130453 0.9859010745109018
vn -0.006427158034748896 -0.16338819281717398 -0.9865409216487345
vn 0.006427158034748896 0.16338819281717398 0.9865409216487345
usemtl material_0_2
f 1//1 2//2 3//3
f 3//6 2//5 1//4
f 4//7 1//1 3//3
f 3//6 1//4 4//8
f 2//2 5//9 3//3
f 3//6 5//10 2//5
f 5//9 6//11 3//3
f 3//6 6//12 5//10
f 6//11 7//13 3//3
f 3//6 7//14 6//12
f 7//13 8//15 3//3
f 3//6 8//16 7//14
f 8//15 9//17 3//3
f 3//6 9//18 8//16
f 9//17 10//19 3//3
f 3//6 10//20 9//18
f 10//19 11//21 3//3
f 3//6 11//22 10//20
