# SSTK version 0.8.0
# 57
mtllib original-57.mtl
o #ID346
v -0.318348 0.338445 0.509171
v -0.318883 0.337896 0.509272
v -0.318728 0.338118 0.509234
v -0.319003 0.337660 0.509321
v -0.319085 0.337400 0.509369
v -0.319138 0.337115 0.509422
v -0.319157 0.336812 0.509480
v -0.319138 0.336503 0.509543
v -0.319090 0.336214 0.509596
v -0.319013 0.335954 0.509644
v -0.318545 0.337453 0.509359
v -0.318463 0.337641 0.509325
v -0.318362 0.337804 0.509291
v -0.318242 0.337949 0.509263
v -0.318107 0.338060 0.509243
v -0.317957 0.338137 0.509229
v -0.317794 0.338185 0.509219
v -0.317611 0.338199 0.509214
v -0.317423 0.338195 0.509219
vn -0.001456530123617799 -0.1834882100683877 -0.9830208315625353
vn 0.0377063404856446 -0.21675333654087664 -0.9754979359207164
vn -0.03553544982064285 -0.1478158114003187 -0.9883763036951614
vn 0.001456530123617799 0.1834882100683877 0.9830208315625353
vn -0.0377063404856446 0.21675333654087664 0.9754979359207164
vn 0.03553544982064285 0.1478158114003187 0.9883763036951614
vn -0.005935337879689267 -0.1823999276040837 -0.9832065084072008
vn 0.005935337879689267 0.1823999276040837 0.9832065084072008
vn -0.00464532374014598 -0.18279639508744527 -0.9831398165624176
vn 0.00464532374014598 0.18279639508744527 0.9831398165624176
vn 0.002791938129905477 -0.1871274685802536 -0.9823316729008716
vn -0.002791938129905477 0.1871274685802536 0.9823316729008716
vn 0.022517229584257042 -0.1965924280522608 -0.9802267041885598
vn -0.022517229584257042 0.1965924280522608 0.9802267041885598
vn -0.007746220419448528 -0.1850008824751015 -0.9827078251202882
vn 0.007746220419448528 0.1850008824751015 0.9827078251202882
vn -0.008314407410278092 -0.18441481829076894 -0.9828133319324674
vn 0.008314407410278092 0.18441481829076894 0.9828133319324674
vn -0.007152955888723093 -0.1847760605315417 -0.982754619768586
vn 0.007152955888723093 0.1847760605315417 0.982754619768586
vn -0.0014613515286534809 -0.186057454518834 -0.982537779461778
vn 0.0014613515286534809 0.186057454518834 0.982537779461778
vn 0.03134529232761803 -0.1927268154905923 -0.9807516746046124
vn -0.03134529232761803 0.1927268154905923 0.9807516746046124
vn -0.02688489831861415 -0.18429620280430828 -0.9825029831376141
vn 0.02688489831861415 0.18429620280430828 0.9825029831376141
vn -0.007233684336193927 -0.18326377313907238 -0.9830371627083865
vn 0.007233684336193927 0.18326377313907238 0.9830371627083865
vn 0.003528400750474139 -0.18227537774214078 -0.9832411896666575
vn -0.003528400750474139 0.18227537774214078 0.9832411896666575
vn -0.001572324570944377 -0.18650681628533516 -0.9824524086562931
vn 0.001572324570944377 0.18650681628533516 0.9824524086562931
vn -0.008022157650382269 -0.19892529605330428 -0.9799818220644388
vn 0.008022157650382269 0.19892529605330428 0.9799818220644388
vn 0.01843177878202812 -0.12044421678461137 -0.992548971171736
vn -0.01843177878202812 0.12044421678461137 0.992548971171736
vn 0.02244232293487981 -0.10863903070188964 -0.9938279041913847
vn -0.02244232293487981 0.10863903070188964 0.9938279041913847
usemtl material_0_2
f 1//1 2//2 3//3
f 3//6 2//5 1//4
f 1//1 4//7 2//2
f 2//5 4//8 1//4
f 1//1 5//9 4//7
f 4//8 5//10 1//4
f 1//1 6//11 5//9
f 5//10 6//12 1//4
f 1//1 7//13 6//11
f 6//12 7//14 1//4
f 1//1 8//15 7//13
f 7//14 8//16 1//4
f 1//1 9//17 8//15
f 8//16 9//18 1//4
f 1//1 10//19 9//17
f 9//18 10//20 1//4
f 1//1 11//21 10//19
f 10//20 11//22 1//4
f 1//1 12//23 11//21
f 11//22 12//24 1//4
f 1//1 13//25 12//23
f 12//24 13//26 1//4
f 1//1 14//27 13//25
f 13//26 14//28 1//4
f 1//1 15//29 14//27
f 14//28 15//30 1//4
f 1//1 16//31 15//29
f 15//30 16//32 1//4
f 1//1 17//33 16//31
f 16//32 17//34 1//4
f 1//1 18//35 17//33
f 17//34 18//36 1//4
f 1//1 19//37 18//35
f 18//36 19//38 1//4
