# SSTK version 0.8.0
# 81
mtllib original-81.mtl
o #ID490
v -0.320044 0.369271 0.503280
v -0.319557 0.366207 0.503864
v -0.320044 0.366207 0.503864
v -0.319557 0.369271 0.503280
v -0.321176 0.369705 0.503198
v -0.321176 0.369271 0.503280
v -0.318372 0.369271 0.503280
v -0.318372 0.369705 0.503198
vn 0 -0.1865131531637965 -0.9824524638357309
vn 0 -0.18727179487261902 -0.9823081364038412
vn 0 0.1865131531637965 0.9824524638357309
vn 0 0.18727179487261902 0.9823081364038412
vn 0 -0.18651315316139738 -0.9824524638361862
vn 0 0.18651315316139738 0.9824524638361862
vn 0 -0.18613379059618312 -0.9825244078384495
vn 0 0.18613379059618312 0.9825244078384495
usemtl material_0_2
f 1//1 2//2 3//2
f 3//4 2//4 1//3
f 2//2 1//1 4//5
f 4//6 1//3 2//4
f 5//7 1//1 6//7
f 6//8 1//3 5//8
f 1//1 5//7 4//5
f 4//6 5//8 1//3
f 4//5 5//7 7//7
f 7//8 5//8 4//6
f 7//7 5//7 8//7
f 8//8 5//8 7//8
