# SSTK version 0.8.0
# 56
mtllib original-56.mtl
o #ID340
v -0.318637 0.337024 0.509441
v -0.318646 0.336783 0.509485
v -0.319013 0.335954 0.509644
v -0.318603 0.337250 0.509398
v -0.318637 0.336556 0.509533
v -0.318598 0.336344 0.509572
v -0.318540 0.336152 0.509610
v -0.318459 0.335973 0.509644
v -0.318357 0.335819 0.509673
v -0.318232 0.335684 0.509697
v -0.318097 0.335578 0.509716
v -0.317162 0.335082 0.509813
v -0.317403 0.335034 0.509823
v -0.317659 0.335015 0.509827
v -0.317924 0.335034 0.509823
v -0.318169 0.335097 0.509808
v -0.318386 0.335193 0.509789
v -0.318584 0.335333 0.509765
vn 0.007614980138486659 -0.1888528508774827 -0.9819758717977433
vn -0.01913861983451243 -0.18061305180394377 -0.9833680077920453
vn 0.005292091834030803 -0.18621412851359262 -0.9824949323563676
vn -0.007614980138486659 0.1888528508774827 0.9819758717977433
vn 0.01913861983451243 0.18061305180394377 0.9833680077920453
vn -0.005292091834030803 0.18621412851359262 0.9824949323563676
vn 0.011253341829456968 -0.19007968096162534 -0.9817041698919262
vn -0.011253341829456968 0.19007968096162534 0.9817041698919262
vn 0.03186489648135789 -0.20052116556262298 -0.9791710221067816
vn -0.03186489648135789 0.20052116556262298 0.9791710221067816
vn 0.0016479747899372115 -0.18436679701548633 -0.9828561279950093
vn -0.0016479747899372115 0.18436679701548633 0.9828561279950093
vn 0.008638619850080537 -0.18878269731568986 -0.9819808895499436
vn -0.008638619850080537 0.18878269731568986 0.9819808895499436
vn 0.006305793950980845 -0.18129157609109098 -0.9834091729290794
vn -0.006305793950980845 0.18129157609109098 0.9834091729290794
vn 0.00816221245892425 -0.1711586924501992 -0.9852096631106059
vn -0.00816221245892425 0.1711586924501992 0.9852096631106059
vn 0.008758625216153797 -0.16837561494935852 -0.9856839953934263
vn -0.0031980131774381137 -0.19647655646243176 -0.9805033072215421
vn -0.008758625216153797 0.16837561494935852 0.9856839953934263
vn 0.0031980131774381137 0.19647655646243176 0.9805033072215421
vn -0.001090542223305797 -0.19250077060733564 -0.9812962162534008
vn 0.001090542223305797 0.19250077060733564 0.9812962162534008
vn -0.001381114414631905 -0.19290471647757332 -0.9812165219174006
vn 0.001381114414631905 0.19290471647757332 0.9812165219174006
vn -0.0021027521310239034 -0.19453083894015122 -0.9808941487921704
vn 0.0021027521310239034 0.19453083894015122 0.9808941487921704
vn 0.0055970266825720386 -0.18418887154962849 -0.9828749324759427
vn -0.0055970266825720386 0.18418887154962849 0.9828749324759427
vn 0.01262904383800093 -0.17598549714954098 -0.9843117453554878
vn -0.01262904383800093 0.17598549714954098 0.9843117453554878
vn 0.003776846579970427 -0.18389949431494929 -0.9829377963129798
vn -0.003776846579970427 0.18389949431494929 0.9829377963129798
vn -0.028930077029387442 -0.20974305844686975 -0.9773284504589164
vn 0.028930077029387442 0.20974305844686975 0.9773284504589164
usemtl material_0_2
f 1//1 2//2 3//3
f 3//6 2//5 1//4
f 4//7 1//1 3//3
f 3//6 1//4 4//8
f 2//2 5//9 3//3
f 3//6 5//10 2//5
f 5//9 6//11 3//3
f 3//6 6//12 5//10
f 6//11 7//13 3//3
f 3//6 7//14 6//12
f 7//13 8//15 3//3
f 3//6 8//16 7//14
f 8//15 9//17 3//3
f 3//6 9//18 8//16
f 3//3 10//19 11//20
f 11//22 10//21 3//6
f 10//19 3//3 9//17
f 9//18 3//6 10//21
f 3//3 11//20 12//23
f 12//24 11//22 3//6
f 3//3 12//23 13//25
f 13//26 12//24 3//6
f 3//3 13//25 14//27
f 14//28 13//26 3//6
f 3//3 14//27 15//29
f 15//30 14//28 3//6
f 3//3 15//29 16//31
f 16//32 15//30 3//6
f 3//3 16//31 17//33
f 17//34 16//32 3//6
f 3//3 17//33 18//35
f 18//36 17//34 3//6
