# SSTK version 0.8.0
# 22
mtllib original-22.mtl
o #ID132
v 0.225126 0.328313 0.511097
v 0.241286 0.327975 0.511160
v 0.226827 0.327975 0.511160
v 0.242987 0.328313 0.511097
v 0.244432 0.329272 0.510914
v 0.226962 0.329315 0.510904
v 0.225661 0.329570 0.510856
v 0.241146 0.329315 0.510904
v 0.224659 0.330235 0.510730
v 0.242447 0.329570 0.510856
v 0.223676 0.329272 0.510914
v 0.223984 0.331218 0.510542
v 0.243449 0.330235 0.510730
v 0.222703 0.330693 0.510644
v 0.222356 0.332365 0.510325
v 0.244129 0.331218 0.510542
v 0.223719 0.332495 0.510296
v 0.244389 0.332495 0.510296
v 0.223676 0.346949 0.507534
v 0.244432 0.346949 0.507534
v 0.222356 0.343856 0.508128
v 0.223719 0.343721 0.508152
v 0.244389 0.343721 0.508152
v 0.245410 0.345523 0.507809
v 0.222703 0.345523 0.507809
v 0.223984 0.344998 0.507911
v 0.244129 0.344998 0.507911
v 0.245752 0.343856 0.508128
v 0.224659 0.345981 0.507722
v 0.243449 0.345981 0.507722
v 0.245410 0.330693 0.510644
v 0.245752 0.332365 0.510325
v 0.225661 0.346645 0.507592
v 0.242447 0.346645 0.507592
v 0.226962 0.346906 0.507544
v 0.241146 0.346906 0.507544
v 0.225126 0.347908 0.507350
v 0.226827 0.348245 0.507288
v 0.241286 0.348245 0.507288
v 0.242987 0.347908 0.507350
vn -0.00037882038000223566 -0.18780385008271214 -0.9822064805269969
vn 0 -0.18272796137729935 -0.9831635124082342
vn 0.00037882038000223566 0.18780385008271214 0.9822064805269969
vn 0 0.18272796137729935 0.9831635124082342
vn 0 -0.1876128434237105 -0.9822430559604228
vn 0 0.1876128434237105 0.9822430559604228
vn 0.00030744460287451494 -0.1876778234873065 -0.9822305941319908
vn -0.00030744460287451494 0.1876778234873065 0.9822305941319908
vn -0.00004821035658457201 -0.18919308563237203 -0.9819399034689769
vn 0.00004821035658457201 0.18919308563237203 0.9819399034689769
vn -0.001058499239136648 -0.18815081751899798 -0.9821395773749745
vn 0.001058499239136648 0.18815081751899798 0.9821395773749745
vn 0.00002527342618758573 -0.2151050131569978 -0.976590923916448
vn -0.00002527342618758573 0.2151050131569978 0.976590923916448
vn -0.000045728384927093767 -0.187636442434973 -0.9822385470848014
vn 0.000045728384927093767 0.187636442434973 0.9822385470848014
vn 0.0004479695251574051 -0.18761009056951009 -0.9822434796117533
vn -0.0004479695251574051 0.18761009056951009 0.9822434796117533
vn 0.00003258029095714734 -0.18752801555404017 -0.9822592541284039
vn -0.00003258029095714734 0.18752801555404017 0.9822592541284039
vn -0.001010097482064727 -0.1879986764903173 -0.9821687621488303
vn 0.001010097482064727 0.1879986764903173 0.9821687621488303
vn 0.000020718103988498677 -0.18706688667915689 -0.982347178689351
vn -0.000020718103988498677 0.18706688667915689 0.982347178689351
vn -0.0008879654114201727 -0.18743977887888286 -0.9822756949101733
vn 0.0008879654114201727 0.18743977887888286 0.9822756949101733
vn -0.0023397472859185285 -0.18818686305248625 -0.9821304547549184
vn 0.0023397472859185285 0.18818686305248625 0.9821304547549184
vn -0.004301453015390744 -0.18822113307681432 -0.9821172549982189
vn 0.004301453015390744 0.18822113307681432 0.9821172549982189
vn -0.0028038882610887583 -0.18882908675639337 -0.9820059644449038
vn 0.0028038882610887583 0.18882908675639337 0.9820059644449038
vn 0.03596215640189848 -0.18771443355807324 -0.9815650843122413
vn -0.03596215640189848 0.18771443355807324 0.9815650843122413
vn 0.0003736308832965658 -0.1889579126543099 -0.9819851157962064
vn -0.0003736308832965658 0.1889579126543099 0.9819851157962064
vn -0.0004590316281801158 -0.18898762699921268 -0.9819793613570352
vn 0.0004590316281801158 0.18898762699921268 0.9819793613570352
vn -0.002021841327335019 -0.18773213488031207 -0.9822181823255601
vn 0.002021841327335019 0.18773213488031207 0.9822181823255601
vn 0.03547388555140783 -0.18748411282551858 -0.9816268694783745
vn -0.03547388555140783 0.18748411282551858 0.9816268694783745
vn -0.03543477888223601 -0.18748385895406677 -0.9816283304169957
vn 0.03543477888223601 0.18748385895406677 0.9816283304169957
vn 0.002416095952138617 -0.1877868102527703 -0.9822068399148115
vn -0.002416095952138617 0.1877868102527703 0.9822068399148115
vn -0.003962340597370785 -0.18693207801285286 -0.9823648497716044
vn 0.003962340597370785 0.18693207801285286 0.9823648497716044
vn 0.00871381438322163 -0.18820324030711874 -0.9820914467486189
vn -0.00871381438322163 0.18820324030711874 0.9820914467486189
vn -0.008859369417679393 -0.18820170428595026 -0.9820904388483704
vn 0.008859369417679393 0.18820170428595026 0.9820904388483704
vn 0.00035970178385628736 -0.18766897190823964 -0.9822322676421963
vn -0.00035970178385628736 0.18766897190823964 0.9822322676421963
vn 0.0005662409794514867 -0.19039431406169405 -0.9817075351366771
vn -0.0005662409794514867 0.19039431406169405 0.9817075351366771
vn -0.0005626093678012529 -0.1903978121473419 -0.9817068587924833
vn 0.0005626093678012529 0.1903978121473419 0.9817068587924833
vn 0.0016255359730106443 -0.1877753232480713 -0.9822106625423503
vn -0.0016255359730106443 0.1877753232480713 0.9822106625423503
vn 0.0002485253828158545 -0.1862961958921792 -0.9824935957202148
vn -0.0002485253828158545 0.1862961958921792 0.9824935957202148
vn -0.0002485222059093612 -0.18629613980548446 -0.9824936063559336
vn 0.0002485222059093612 0.18629613980548446 0.9824936063559336
vn 0.000030177881175356846 -0.21681856248830317 -0.9762119186169574
vn -0.000030177881175356846 0.21681856248830317 0.9762119186169574
vn -0.000030176995511759962 -0.21681856253845416 -0.9762119186058463
vn 0.000030176995511759962 0.21681856253845416 0.9762119186058463
vn 0.00001931873734808774 -0.18752377221832578 -0.9822600645856452
vn -0.00001931873734808774 0.18752377221832578 0.9822600645856452
vn 0.00020733832272210203 -0.1838357867799191 -0.9829569474345395
vn -0.00020733832272210203 0.1838357867799191 0.9829569474345395
vn -0.0001018351113135138 -0.1867934917451655 -0.9823991963918022
vn 0.0001018351113135138 0.1867934917451655 0.9823991963918022
vn -0.0015133040469815428 -0.19009917711142266 -0.9817637255329926
vn 0.0015133040469815428 0.19009917711142266 0.9817637255329926
usemtl material_0_2
f 1//1 2//2 3//2
f 3//4 2//4 1//3
f 2//2 1//1 4//5
f 4//6 1//3 2//4
f 5//7 4//5 1//1
f 1//3 4//6 5//8
f 6//9 5//7 1//1
f 1//3 5//8 6//10
f 7//11 6//9 1//1
f 1//3 6//10 7//12
f 8//13 5//7 6//9
f 6//10 5//8 8//14
f 9//15 7//11 1//1
f 1//3 7//12 9//16
f 10//17 5//7 8//13
f 8//14 5//8 10//18
f 11//19 9//15 1//1
f 1//3 9//16 11//20
f 9//15 11//19 12//21
f 12//22 11//20 9//16
f 13//23 5//7 10//17
f 10//18 5//8 13//24
f 14//25 12//21 11//19
f 11//20 12//22 14//26
f 12//21 14//25 15//27
f 15//28 14//26 12//22
f 16//29 5//7 13//23
f 13//24 5//8 16//30
f 17//31 12//21 15//27
f 15//28 12//22 17//32
f 18//33 5//7 16//29
f 16//30 5//8 18//34
f 19//35 17//31 15//27
f 15//28 17//32 19//36
f 20//37 5//7 18//33
f 18//34 5//8 20//38
f 19//35 15//27 21//39
f 21//40 15//28 19//36
f 19//35 22//41 17//31
f 17//32 22//42 19//36
f 20//37 18//33 23//43
f 23//44 18//34 20//38
f 20//37 24//45 5//7
f 5//8 24//46 20//38
f 19//35 21//39 25//47
f 25//48 21//40 19//36
f 19//35 26//49 22//41
f 22//42 26//50 19//36
f 20//37 23//43 27//51
f 27//52 23//44 20//38
f 24//45 28//53 5//7
f 5//8 28//54 24//46
f 19//35 29//55 26//49
f 26//50 29//56 19//36
f 20//37 27//51 30//57
f 30//58 27//52 20//38
f 28//53 31//59 5//7
f 5//8 31//60 28//54
f 31//59 28//53 32//59
f 32//60 28//54 31//60
f 19//35 33//61 29//55
f 29//56 33//62 19//36
f 20//37 30//57 34//63
f 34//64 30//58 20//38
f 19//35 35//65 33//61
f 33//62 35//66 19//36
f 20//37 34//63 36//67
f 36//68 34//64 20//38
f 19//35 36//67 35//65
f 35//66 36//68 19//36
f 36//67 19//35 20//37
f 20//38 19//36 36//68
f 37//69 20//37 19//35
f 19//36 20//38 37//70
f 38//71 20//37 37//69
f 37//70 20//38 38//72
f 39//73 20//37 38//71
f 38//72 20//38 39//74
f 39//73 40//75 20//37
f 20//38 40//76 39//74
