# SSTK version 0.8.0
# 117
mtllib original-117.mtl
o mesh8/mesh8-geometry#mesh8-geometry
v -0.733179 0.470013 0.013941
v -0.743132 0.470013 0.015251
v -0.743305 0.470013 0.013941
v -0.742626 0.470013 0.016472
v -0.741822 0.470013 0.017520
v -0.740773 0.470013 0.018325
v -0.739552 0.470013 0.018831
v -0.738242 0.470013 0.019004
v -0.736932 0.470013 0.018831
v -0.735711 0.470013 0.018325
v -0.734662 0.470013 0.017520
v -0.733857 0.470013 0.016472
v -0.733352 0.470013 0.015251
vn 0 -1 0
vn 0 1 0
usemtl material_0_0
f 1//1 2//1 3//1
f 2//1 1//1 4//1
f 3//2 2//2 1//2
f 4//2 1//2 2//2
f 4//1 1//1 5//1
f 5//2 1//2 4//2
f 5//1 1//1 6//1
f 6//2 1//2 5//2
f 6//1 1//1 7//1
f 7//2 1//2 6//2
f 7//1 1//1 8//1
f 8//2 1//2 7//2
f 8//1 1//1 9//1
f 9//2 1//2 8//2
f 9//1 1//1 10//1
f 10//2 1//2 9//2
f 10//1 1//1 11//1
f 11//2 1//2 10//2
f 11//1 1//1 12//1
f 12//2 1//2 11//2
f 12//1 1//1 13//1
f 13//2 1//2 12//2
