# SSTK version 0.8.0
# 28
mtllib original-28.mtl
o Component_11_2/Component_11_1_2/mesh5/mesh5-geometry#mesh5-geometry
v 0.853066 0.034111 -0.231701
v 0.853066 0.034183 -0.231266
v 0.853066 0.034183 -0.232136
v 0.853121 0.034111 -0.231701
v 0.853066 0.034395 -0.232542
v 0.853121 0.034183 -0.232136
v 0.853121 0.034183 -0.231266
v 0.853121 0.034395 -0.232542
v 0.853066 0.034395 -0.230861
v 0.853121 0.034731 -0.232890
v 0.853066 0.034731 -0.232890
v 0.853121 0.034395 -0.230861
v 0.853121 0.034731 -0.230513
v 0.853066 0.034731 -0.230513
v 0.853066 0.035169 -0.233157
v 0.853121 0.035169 -0.230246
v 0.853121 0.035169 -0.233157
v 0.853066 0.035169 -0.230246
v 0.853066 0.035679 -0.233325
v 0.853121 0.035679 -0.230078
v 0.853121 0.035679 -0.233325
v 0.853066 0.035679 -0.230078
v 0.853066 0.036226 -0.233382
v 0.853121 0.036226 -0.233382
v 0.853121 0.036226 -0.230020
v 0.853066 0.036226 -0.230020
v 0.853066 0.036774 -0.233325
v 0.853121 0.036774 -0.230078
v 0.853121 0.036774 -0.233325
v 0.853066 0.036774 -0.230078
v 0.853066 0.037284 -0.233157
v 0.853121 0.037284 -0.233157
v 0.853121 0.037284 -0.230246
v 0.853066 0.037284 -0.230246
v 0.853066 0.037722 -0.232890
v 0.853121 0.037722 -0.230513
v 0.853121 0.037722 -0.232890
v 0.853066 0.037722 -0.230513
v 0.853121 0.038058 -0.232542
v 0.853121 0.038058 -0.230861
v 0.853066 0.038058 -0.232542
v 0.853066 0.038058 -0.230861
v 0.853121 0.038269 -0.232136
v 0.853066 0.038269 -0.231266
v 0.853066 0.038269 -0.232136
v 0.853121 0.038269 -0.231266
v 0.853121 0.038341 -0.231701
v 0.853066 0.038341 -0.231701
vt -0.005506 0
vt -0.006931 0.000188
vt -0.004081 0.000188
vt 0.002753 0.005459
vt 0 0.005459
vt 0.002753 0.006896
vt -0.002753 0.000738
vt -0.002753 -0.004022
vt 0 -0.004022
vt -0.002753 -0.005459
vt 0 -0.005459
vt 0 0.006896
vt -0.002753 -0.002261
vt 0 -0.002261
vt -0.002753 -0.003698
vt -0.008259 0.000738
vt 0 -0.003698
vt 0.005506 0
vt 0.004081 0.000188
vt 0.006931 0.000188
vt 0.002753 0.006475
vt 0 0.006475
vt 0.002753 0.007913
vt 0 -0.001735
vt -0.002753 -0.001735
vt 0 -0.000298
vt -0.001613 0.001613
vt 0.002753 0.000738
vt 0.008259 0.000738
vt 0 0.007913
vt -0.002753 -0.000298
vt 0.001613 0.001613
vt 0.009399 0.001613
vt -0.009399 0.001613
vt 0.002753 0.007001
vt 0 0.007001
vt 0.002753 0.008439
vt -0.002753 0.000298
vt -0.002753 0.001735
vt 0 0.000298
vt 0.010274 0.002753
vt -0.000738 0.002753
vt 0 0.008439
vt 0 0.001735
vt 0.000738 0.002753
vt -0.010274 0.002753
vt -0.002753 0.002261
vt -0.002753 0.003698
vt 0 0.002261
vt 0.010824 0.004081
vt -0.000188 0.004081
vt 0 0.003698
vt 0.000188 0.004081
vt -0.010824 0.004081
vt -0.002753 0.004022
vt -0.002753 0.005459
vt 0 0.004022
vt 0 0.005506
vt 0.011012 0.005506
vt -0.011012 0.005506
vt -0.002753 0.006896
vt 0.010824 0.006931
vt -0.000188 0.006931
vt 0.002753 0.004022
vt 0.000188 0.006931
vt -0.010824 0.006931
vt -0.002753 0.006475
vt -0.002753 0.007913
vt 0.000738 0.008259
vt -0.000738 0.008259
vt 0.002753 0.002261
vt 0.010274 0.008259
vt -0.010274 0.008259
vt -0.002753 0.007001
vt -0.002753 0.008439
vt 0.002753 0.003698
vt 0.009399 0.009399
vt -0.001613 0.009399
vt 0.002753 0.000298
vt 0.001613 0.009399
vt -0.009399 0.009399
vt 0.002753 0.001735
vt 0.008259 0.010274
vt -0.002753 0.010274
vt 0.002753 0.010274
vt 0.002753 -0.001735
vt 0.002753 -0.000298
vt -0.008259 0.010274
vt 0.004081 0.010824
vt 0.002753 -0.003698
vt 0.002753 -0.002261
vt -0.004081 0.010824
vt 0.006931 0.010824
vt -0.006931 0.010824
vt 0.005506 0.011012
vt 0.002753 -0.005459
vt 0.002753 -0.004022
vt -0.005506 0.011012
vn -1 0 0
vn 1 0 0
vn 0 -1 0
vn 0 -0.9475948967625727 0.31947443032194156
vn 0 0.9475948967625727 -0.31947443032194156
vn 0 1 0
vn 0 -0.9475948967625727 -0.31947443032194156
vn 0 0.9475948967625727 0.31947443032194156
vn 0 -0.8090558473917143 -0.5877317719855503
vn 0 0.8090558473917143 0.5877317719855503
vn 0 -0.8090558473917143 0.5877317719855503
vn 0 0.8090558473917143 -0.5877317719855503
vn 0 -0.6221930424591992 -0.7828638565647064
vn 0 0.6221930424591992 0.7828638565647064
vn 0 -0.6221930424591992 0.7828638565647064
vn 0 0.6221930424591992 -0.7828638565647064
vn 0 -0.4170488875177959 -0.9088840549928076
vn 0 0.4170488875177959 0.9088840549928076
vn 0 -0.4170488875177959 0.9088840549928076
vn 0 0.4170488875177959 -0.9088840549928076
vn 0 -0.2082860736563964 -0.9780679483148409
vn 0 0.2082860736563964 0.9780679483148409
vn 0 -0.2082860736563964 0.9780679483148409
vn 0 0.2082860736563964 -0.9780679483148409
vn 0 0 -1
vn 0 0 1
usemtl material_0_0
f 1/1/1 2/2/1 3/3/1
f 3/3/2 2/2/2 1/1/2
f 1/4/3 4/5/3 2/6/4
f 2/6/5 4/5/6 1/4/6
f 5/7/1 3/3/1 2/2/1
f 2/2/2 3/3/2 5/7/2
f 3/8/7 6/9/7 1/10/3
f 1/10/6 6/9/8 3/8/8
f 4/11/3 1/10/3 6/9/7
f 6/9/8 1/10/6 4/11/6
f 7/12/4 2/6/4 4/5/3
f 4/5/6 2/6/5 7/12/5
f 5/13/9 8/14/9 3/15/7
f 3/15/8 8/14/10 5/13/10
f 9/16/1 5/7/1 2/2/1
f 2/2/2 5/7/2 9/16/2
f 6/17/7 3/15/7 8/14/9
f 8/14/10 3/15/8 6/17/8
f 4/18/2 6/19/2 7/20/2
f 7/20/1 6/19/1 4/18/1
f 2/21/4 7/22/4 9/23/11
f 9/23/12 7/22/5 2/21/5
f 8/24/9 5/25/9 10/26/13
f 10/26/14 5/25/10 8/24/10
f 11/27/1 5/7/1 9/16/1
f 9/16/2 5/7/2 11/27/2
f 8/28/2 12/29/2 6/19/2
f 6/19/1 12/29/1 8/28/1
f 12/29/2 7/20/2 6/19/2
f 6/19/1 7/20/1 12/29/1
f 12/30/11 9/23/11 7/22/4
f 7/22/5 9/23/12 12/30/12
f 11/31/13 10/26/13 5/25/9
f 5/25/10 10/26/14 11/31/14
f 10/32/2 13/33/2 8/28/2
f 8/28/1 13/33/1 10/32/1
f 14/34/1 11/27/1 9/16/1
f 9/16/2 11/27/2 14/34/2
f 13/33/2 12/29/2 8/28/2
f 8/28/1 12/29/1 13/33/1
f 9/35/11 12/36/11 14/37/15
f 14/37/16 12/36/12 9/35/12
f 11/38/13 15/39/17 10/40/13
f 10/40/14 15/39/18 11/38/14
f 16/41/2 13/33/2 10/32/2
f 10/32/1 13/33/1 16/41/1
f 15/42/1 11/27/1 14/34/1
f 14/34/2 11/27/2 15/42/2
f 13/43/15 14/37/15 12/36/11
f 12/36/12 14/37/16 13/43/16
f 17/44/17 10/40/13 15/39/17
f 15/39/18 10/40/14 17/44/18
f 13/36/15 16/43/19 14/35/15
f 14/35/16 16/43/20 13/36/16
f 17/45/2 16/41/2 10/32/2
f 10/32/1 16/41/1 17/45/1
f 18/46/1 15/42/1 14/34/1
f 14/34/2 15/42/2 18/46/2
f 15/47/17 19/48/21 17/49/17
f 17/49/18 19/48/22 15/47/18
f 18/37/19 14/35/15 16/43/19
f 16/43/20 14/35/16 18/37/20
f 20/50/2 16/41/2 17/45/2
f 17/45/1 16/41/1 20/50/1
f 19/51/1 15/42/1 18/46/1
f 18/46/2 15/42/2 19/51/2
f 21/52/21 17/49/17 19/48/21
f 19/48/22 17/49/18 21/52/22
f 16/22/19 20/30/23 18/21/19
f 18/21/20 20/30/24 16/22/20
f 21/53/2 20/50/2 17/45/2
f 17/45/1 20/50/1 21/53/1
f 22/54/1 19/51/1 18/46/1
f 18/46/2 19/51/2 22/54/2
f 19/55/21 23/56/25 21/57/21
f 21/57/22 23/56/26 19/55/22
f 22/23/23 18/21/19 20/30/23
f 20/30/24 18/21/20 22/23/24
f 24/58/2 20/50/2 21/53/2
f 21/53/1 20/50/1 24/58/1
f 23/58/1 19/51/1 22/54/1
f 22/54/2 19/51/2 23/58/2
f 24/5/25 21/57/21 23/56/25
f 23/56/26 21/57/22 24/5/26
f 20/5/23 25/12/26 22/4/23
f 22/4/24 25/12/25 20/5/24
f 25/59/2 20/50/2 24/58/2
f 24/58/1 20/50/1 25/59/1
f 26/60/1 23/58/1 22/54/1
f 22/54/2 23/58/2 26/60/2
f 23/56/25 27/61/24 24/5/25
f 24/5/26 27/61/23 23/56/26
f 26/6/26 22/4/23 25/12/26
f 25/12/25 22/4/24 26/6/25
f 28/62/2 25/59/2 24/58/2
f 24/58/1 25/59/1 28/62/1
f 27/63/1 23/58/1 26/60/1
f 26/60/2 23/58/2 27/63/2
f 29/12/24 24/5/25 27/61/24
f 27/61/23 24/5/26 29/12/23
f 25/57/26 28/5/22 26/64/26
f 26/64/25 28/5/21 25/57/25
f 29/65/2 28/62/2 24/58/2
f 24/58/1 28/62/1 29/65/1
f 30/66/1 27/63/1 26/60/1
f 26/60/2 27/63/2 30/66/2
f 27/67/24 31/68/20 29/22/24
f 29/22/23 31/68/19 27/67/23
f 30/4/22 26/64/26 28/5/22
f 28/5/21 26/64/25 30/4/21
f 32/69/2 28/62/2 29/65/2
f 29/65/1 28/62/1 32/69/1
f 31/70/1 27/63/1 30/66/1
f 30/66/2 27/63/2 31/70/2
f 32/30/20 29/22/24 31/68/20
f 31/68/19 29/22/23 32/30/19
f 28/49/22 33/52/18 30/71/22
f 30/71/21 33/52/17 28/49/21
f 33/72/2 28/62/2 32/69/2
f 32/69/1 28/62/1 33/72/1
f 34/73/1 31/70/1 30/66/1
f 30/66/2 31/70/2 34/73/2
f 31/74/20 35/75/16 32/36/20
f 32/36/19 35/75/15 31/74/19
f 34/76/18 30/71/22 33/52/18
f 33/52/17 30/71/21 34/76/17
f 36/77/2 33/72/2 32/69/2
f 32/69/1 33/72/1 36/77/1
f 35/78/1 31/70/1 34/73/1
f 34/73/2 31/70/2 35/78/2
f 37/43/16 32/36/20 35/75/16
f 35/75/15 32/36/19 37/43/15
f 33/40/18 36/44/14 34/79/18
f 34/79/17 36/44/13 33/40/17
f 37/80/2 36/77/2 32/69/2
f 32/69/1 36/77/1 37/80/1
f 38/81/1 35/78/1 34/73/1
f 34/73/2 35/78/2 38/81/2
f 37/36/16 35/74/16 39/43/12
f 39/43/11 35/74/15 37/36/15
f 38/82/14 34/79/18 36/44/14
f 36/44/13 34/79/17 38/82/13
f 40/83/2 36/77/2 37/80/2
f 37/80/1 36/77/1 40/83/1
f 41/84/1 35/78/1 38/81/1
f 38/81/2 35/78/2 41/84/2
f 41/75/12 39/43/12 35/74/16
f 35/74/15 39/43/11 41/75/11
f 39/85/2 40/83/2 37/80/2
f 37/80/1 40/83/1 39/85/1
f 38/86/14 36/24/14 42/87/10
f 42/87/9 36/24/13 38/86/13
f 40/26/10 42/87/10 36/24/14
f 36/24/13 42/87/9 40/26/9
f 42/88/1 41/84/1 38/81/1
f 38/81/2 41/84/2 42/88/2
f 39/22/12 41/67/12 43/30/5
f 43/30/4 41/67/11 39/22/11
f 43/89/2 40/83/2 39/85/2
f 39/85/1 40/83/1 43/89/1
f 42/90/10 40/17/10 44/91/8
f 44/91/7 40/17/9 42/90/9
f 45/92/1 41/84/1 42/88/1
f 42/88/2 41/84/2 45/92/2
f 45/68/5 43/30/5 41/67/12
f 41/67/11 43/30/4 45/68/4
f 46/93/2 40/83/2 43/89/2
f 43/89/1 40/83/1 46/93/1
f 46/14/8 44/91/8 40/17/10
f 40/17/9 44/91/7 46/14/7
f 44/94/1 45/92/1 42/88/1
f 42/88/2 45/92/2 44/94/2
f 43/5/5 45/56/5 47/12/6
f 47/12/3 45/56/4 43/5/4
f 47/95/2 46/93/2 43/89/2
f 43/89/1 46/93/1 47/95/1
f 44/96/8 46/11/8 48/97/6
f 48/97/3 46/11/7 44/96/7
f 48/98/1 45/92/1 44/94/1
f 44/94/2 45/92/2 48/98/2
f 48/61/6 47/12/6 45/56/5
f 45/56/4 47/12/3 48/61/3
f 47/9/6 48/97/6 46/11/8
f 46/11/7 48/97/3 47/9/3
