# SSTK version 0.8.0
# 3
mtllib original-3.mtl
o group_1/ID18#ID18
v 0.476487 -0.650374 0.396517
v 0.476487 -0.643688 0.401736
v 0.476487 -0.650374 0.401736
v 0.476487 -0.643688 0.396517
v 0.476487 -0.643688 0.396517
v 0.476487 -0.650374 0.396517
v 0.476487 -0.643688 0.401736
v 0.476487 -0.650374 0.401736
v 0.495185 -0.645646 0.396517
v 0.476487 -0.643688 0.401736
v 0.476487 -0.643688 0.396517
v 0.495185 -0.645646 0.401736
v 0.495185 -0.645646 0.401736
v 0.495185 -0.645646 0.396517
v 0.476487 -0.643688 0.401736
v 0.476487 -0.643688 0.396517
v 0.495185 -0.645646 0.396517
v 0.495185 0.553163 0.401736
v 0.495185 -0.645646 0.401736
v 0.495185 0.553163 0.396517
v 0.495185 0.553163 0.396517
v 0.495185 -0.645646 0.396517
v 0.495185 0.553163 0.401736
v 0.495185 -0.645646 0.401736
v 0.495185 0.553163 0.401736
v -0.489837 0.553163 0.396517
v -0.489837 0.553163 0.401736
v 0.495185 0.553163 0.396517
v 0.495185 0.553163 0.396517
v 0.495185 0.553163 0.401736
v -0.489837 0.553163 0.396517
v -0.489837 0.553163 0.401736
v -0.489837 0.553163 0.396517
v -0.489837 -0.645646 0.401736
v -0.489837 0.553163 0.401736
v -0.489837 -0.645646 0.396517
v -0.489837 -0.645646 0.396517
v -0.489837 0.553163 0.396517
v -0.489837 -0.645646 0.401736
v -0.489837 0.553163 0.401736
v -0.471144 -0.643688 0.396517
v -0.489837 -0.645646 0.401736
v -0.489837 -0.645646 0.396517
v -0.471144 -0.643688 0.401736
v -0.471144 -0.643688 0.401736
v -0.471144 -0.643688 0.396517
v -0.489837 -0.645646 0.401736
v -0.489837 -0.645646 0.396517
v -0.471144 -0.643688 0.396517
v -0.471144 -0.650374 0.401736
v -0.471144 -0.643688 0.401736
v -0.471144 -0.650374 0.396517
v -0.471144 -0.650374 0.396517
v -0.471144 -0.643688 0.396517
v -0.471144 -0.650374 0.401736
v -0.471144 -0.643688 0.401736
vn 1 0 0
vn -1 0 0
vn -0.10415910493791404 -0.9945606471495505 0
vn 0.10415910493791404 0.9945606471495505 0
vn 0 1 0
vn 0 -1 0
vn 0.10417879837463367 -0.9945585844831956 0
vn -0.10417879837463367 0.9945585844831956 0
usemtl material_0_0
f 1//1 2//1 3//1
f 2//1 1//1 4//1
f 5//2 6//2 7//2
f 8//2 7//2 6//2
f 9//3 10//3 11//3
f 10//3 9//3 12//3
f 13//4 14//4 15//4
f 16//4 15//4 14//4
f 17//1 18//1 19//1
f 18//1 17//1 20//1
f 21//2 22//2 23//2
f 24//2 23//2 22//2
f 25//5 26//5 27//5
f 26//5 25//5 28//5
f 29//6 30//6 31//6
f 32//6 31//6 30//6
f 33//2 34//2 35//2
f 34//2 33//2 36//2
f 37//1 38//1 39//1
f 40//1 39//1 38//1
f 41//7 42//7 43//7
f 42//7 41//7 44//7
f 45//8 46//8 47//8
f 48//8 47//8 46//8
f 49//2 50//2 51//2
f 50//2 49//2 52//2
f 53//1 54//1 55//1
f 56//1 55//1 54//1
