# SSTK version 0.8.0
# 144
mtllib original-144.mtl
o mesh115/mesh115-geometry/material_0#mesh115-geometry
v 0.039738 -0.296154 0.326989
v 0.039738 0.247251 0.364116
v 0.039738 -0.296154 0.364116
v 0.039738 0.247251 0.364116
v 0.039738 -0.296154 0.326989
v 0.039738 0.247251 0.326989
v 0.039738 -0.296154 0.364116
v 0.039738 0.247251 0.364116
v 0.039738 -0.296154 0.326989
v 0.039738 0.247251 0.326989
v 0.039738 -0.296154 0.326989
v 0.039738 0.247251 0.364116
vt 1 1.84375
vt 0.65625 6.875
vt 0.65625 1.84375
vt 1 6.875
vt 0 0
vn 1 0 0
vn -1 0 0
usemtl material_0_0
f 1/1/1 2/2/1 3/3/1
f 4/2/1 5/1/1 6/4/1
usemtl material_1_0
f 7/5/2 8/5/2 9/5/2
f 10/5/2 11/5/2 12/5/2
