# SSTK version 0.8.0
# 150
mtllib original-150.mtl
o mesh128/mesh128-geometry/material_1/component_2#mesh128-geometry
v 0.665751 -0.324350 -0.359495
v 0.665751 -0.216344 -0.345994
v 0.665751 -0.324350 -0.345994
v -0.766931 0.452437 -0.345994
v -0.766931 -0.396615 0.349024
v -0.766931 0.452437 0.349024
v 0.665751 -0.432356 -0.359495
v 0.665751 -0.324350 -0.345994
v 0.665751 -0.432356 -0.345994
v 0.665751 -0.216344 -0.345994
v 0.665751 -0.324350 -0.359495
v 0.665751 -0.216344 -0.359495
v 0.665751 -0.324350 -0.345994
v 0.665751 -0.432356 -0.359495
v 0.665751 -0.324350 -0.359495
v 0.665751 -0.216344 -0.345994
v -0.073819 -0.216344 -0.359495
v -0.073819 -0.216344 -0.345994
v -0.766931 -0.396615 0.349024
v -0.766931 0.452437 -0.345994
v -0.766931 -0.499365 0.349024
v 0.046916 -0.432356 -0.345994
v 0.665751 -0.432356 -0.359495
v 0.665751 -0.432356 -0.345994
v -0.073819 -0.216344 -0.359495
v 0.665751 -0.216344 -0.345994
v 0.665751 -0.216344 -0.359495
v -0.073819 -0.216344 -0.359495
v -0.073819 -0.324350 -0.345994
v -0.073819 -0.216344 -0.345994
v -0.766931 -0.499365 0.349024
v -0.766931 0.452437 -0.345994
v -0.766931 -0.499365 -0.345994
v -0.766931 -0.499365 0.349024
v 0.046916 -0.396615 0.349024
v -0.766931 -0.396615 0.349024
v 0.735537 -0.499365 0.349024
v -0.766931 -0.499365 0.349024
v 0.046916 -0.499365 0.349024
v 0.735537 -0.499365 -0.345994
v -0.766931 -0.526367 -0.345994
v 0.735537 -0.526367 -0.345994
v -0.073819 -0.432356 -0.345994
v 0.665751 -0.432356 -0.359495
v 0.046916 -0.432356 -0.345994
v -0.073819 -0.324350 -0.345994
v -0.073819 -0.216344 -0.359495
v -0.073819 -0.324350 -0.359495
v -0.766931 -0.499365 0.349024
v -0.766931 -0.526367 -0.345994
v -0.766931 -0.499365 -0.345994
v 0.046916 -0.396615 0.349024
v -0.766931 -0.499365 0.349024
v 0.046916 -0.499365 0.349024
v 0.046916 -0.396615 0.349024
v 0.046916 -0.390659 -0.345994
v 0.046916 -0.499365 0.349024
v 0.735537 -0.526367 0.349024
v -0.766931 -0.499365 0.349024
v 0.735537 -0.499365 0.349024
v -0.766931 -0.499365 -0.345994
v 0.735537 -0.499365 -0.345994
v 0.046916 -0.499365 -0.345994
v 0.735537 -0.526367 -0.345994
v 0.743975 -0.526367 -0.355442
v 0.735537 -0.526367 0.349024
v -0.766931 -0.526367 -0.345994
v 0.735537 -0.499365 -0.345994
v -0.766931 -0.499365 -0.345994
v -0.766931 -0.526367 -0.345994
v 0.743975 -0.526367 -0.355442
v 0.735537 -0.526367 -0.345994
v 0.046916 -0.499365 0.349024
v 0.046916 -0.390659 -0.345994
v 0.046916 -0.499365 -0.345994
v 0.046916 -0.499365 -0.345994
v 0.046916 -0.390659 -0.345994
v 0.046916 -0.432356 -0.345994
v 0.046916 -0.390659 -0.345994
v -0.073819 -0.326531 -0.345994
v 0.046916 -0.432356 -0.345994
v 0.665751 -0.432356 -0.359495
v -0.073819 -0.432356 -0.345994
v -0.073819 -0.432356 -0.359495
v -0.073819 -0.432356 -0.345994
v 0.046916 -0.432356 -0.345994
v -0.073819 -0.326531 -0.345994
v -0.073819 -0.324350 -0.359495
v -0.073819 -0.326531 -0.345994
v -0.073819 -0.324350 -0.345994
v -0.766931 -0.526367 -0.345994
v -0.766931 -0.499365 0.349024
v -0.766931 -0.526367 0.349024
v 0.046916 -0.390659 -0.345994
v 0.046916 -0.396615 0.349024
v 0.046916 -0.390659 0.349024
v -0.766931 -0.499365 0.349024
v 0.735537 -0.526367 0.349024
v -0.766931 -0.526367 0.349024
v 0.743975 -0.499365 0.358472
v -0.774773 -0.526367 0.358472
v 0.743975 -0.526367 0.358472
v 0.743975 -0.526367 0.358472
v 0.735537 -0.526367 0.349024
v 0.743975 -0.526367 -0.355442
v -0.766931 -0.526367 -0.345994
v -0.774773 -0.526367 -0.355442
v 0.743975 -0.526367 -0.355442
v 0.046916 -0.329906 -0.345994
v -0.073819 -0.326531 -0.345994
v 0.046916 -0.390659 -0.345994
v -0.073819 -0.432356 -0.345994
v -0.073819 -0.324350 -0.359495
v -0.073819 -0.432356 -0.359495
v -0.073819 -0.326531 -0.345994
v -0.073819 -0.324350 -0.359495
v -0.073819 -0.432356 -0.345994
v 0.046916 -0.326531 -0.345994
v -0.073819 -0.326531 -0.345994
v 0.046916 -0.329906 -0.345994
v -0.766931 -0.526367 0.349024
v -0.774773 -0.526367 0.358472
v -0.766931 -0.526367 -0.345994
v -0.774773 -0.526367 0.358472
v 0.743975 -0.499365 0.358472
v -0.774773 -0.499365 0.358472
v -0.774773 -0.499365 -0.355442
v -0.774773 -0.526367 0.358472
v -0.774773 -0.499365 0.358472
v 0.743975 -0.526367 0.358472
v -0.766931 -0.526367 0.349024
v 0.735537 -0.526367 0.349024
v 0.743975 -0.526367 -0.355442
v -0.774773 -0.499365 -0.355442
v 0.743975 -0.499365 -0.355442
v -0.774773 -0.526367 0.358472
v -0.766931 -0.526367 0.349024
v 0.743975 -0.526367 0.358472
v -0.774773 -0.526367 -0.355442
v -0.766931 -0.526367 -0.345994
v -0.774773 -0.526367 0.358472
v -0.774773 -0.499365 -0.355442
v 0.743975 -0.526367 -0.355442
v -0.774773 -0.526367 -0.355442
v -0.774773 -0.526367 0.358472
v -0.774773 -0.499365 -0.355442
v -0.774773 -0.526367 -0.355442
v 0.665751 -0.324350 -0.345994
v 0.665751 -0.216344 -0.345994
v 0.665751 -0.324350 -0.359495
v -0.766931 0.452437 0.349024
v -0.766931 -0.396615 0.349024
v -0.766931 0.452437 -0.345994
v 0.665751 -0.432356 -0.345994
v 0.665751 -0.324350 -0.345994
v 0.665751 -0.432356 -0.359495
v 0.665751 -0.216344 -0.359495
v 0.665751 -0.324350 -0.359495
v 0.665751 -0.216344 -0.345994
v 0.665751 -0.324350 -0.359495
v 0.665751 -0.432356 -0.359495
v 0.665751 -0.324350 -0.345994
v -0.073819 -0.216344 -0.345994
v -0.073819 -0.216344 -0.359495
v 0.665751 -0.216344 -0.345994
v -0.766931 -0.499365 0.349024
v -0.766931 0.452437 -0.345994
v -0.766931 -0.396615 0.349024
v 0.735537 -0.499365 0.349024
v 0.735537 -0.526367 -0.345994
v 0.735537 -0.499365 -0.345994
v 0.735537 -0.499365 -0.345994
v 0.735537 -0.526367 -0.345994
v 0.735537 -0.499365 0.349024
v 0.665751 -0.432356 -0.345994
v 0.665751 -0.432356 -0.359495
v 0.046916 -0.432356 -0.345994
v 0.665751 -0.216344 -0.359495
v 0.665751 -0.216344 -0.345994
v -0.073819 -0.216344 -0.359495
v -0.073819 -0.216344 -0.345994
v -0.073819 -0.324350 -0.345994
v -0.073819 -0.216344 -0.359495
v -0.766931 -0.499365 -0.345994
v -0.766931 0.452437 -0.345994
v -0.766931 -0.499365 0.349024
v -0.766931 -0.396615 0.349024
v 0.046916 -0.396615 0.349024
v -0.766931 -0.499365 0.349024
v 0.046916 -0.499365 0.349024
v -0.766931 -0.499365 0.349024
v 0.735537 -0.499365 0.349024
v 0.735537 -0.526367 -0.345994
v 0.735537 -0.499365 0.349024
v 0.735537 -0.526367 0.349024
v 0.735537 -0.526367 0.349024
v 0.735537 -0.499365 0.349024
v 0.735537 -0.526367 -0.345994
v 0.735537 -0.526367 -0.345994
v -0.766931 -0.526367 -0.345994
v 0.735537 -0.499365 -0.345994
v 0.046916 -0.432356 -0.345994
v 0.665751 -0.432356 -0.359495
v -0.073819 -0.432356 -0.345994
v -0.073819 -0.324350 -0.359495
v -0.073819 -0.216344 -0.359495
v -0.073819 -0.324350 -0.345994
v -0.766931 -0.499365 -0.345994
v -0.766931 -0.526367 -0.345994
v -0.766931 -0.499365 0.349024
v 0.046916 -0.499365 0.349024
v -0.766931 -0.499365 0.349024
v 0.046916 -0.396615 0.349024
v 0.046916 -0.499365 0.349024
v 0.046916 -0.390659 -0.345994
v 0.046916 -0.396615 0.349024
v 0.735537 -0.499365 0.349024
v -0.766931 -0.499365 0.349024
v 0.735537 -0.526367 0.349024
v 0.046916 -0.499365 -0.345994
v 0.735537 -0.499365 -0.345994
v -0.766931 -0.499365 -0.345994
v 0.735537 -0.526367 0.349024
v 0.743975 -0.526367 -0.355442
v 0.735537 -0.526367 -0.345994
v -0.766931 -0.499365 -0.345994
v 0.735537 -0.499365 -0.345994
v -0.766931 -0.526367 -0.345994
v 0.735537 -0.526367 -0.345994
v 0.743975 -0.526367 -0.355442
v -0.766931 -0.526367 -0.345994
v 0.046916 -0.499365 -0.345994
v 0.046916 -0.390659 -0.345994
v 0.046916 -0.499365 0.349024
v 0.046916 -0.432356 -0.345994
v 0.046916 -0.390659 -0.345994
v 0.046916 -0.499365 -0.345994
v 0.046916 -0.432356 -0.345994
v -0.073819 -0.326531 -0.345994
v 0.046916 -0.390659 -0.345994
v -0.073819 -0.432356 -0.359495
v -0.073819 -0.432356 -0.345994
v 0.665751 -0.432356 -0.359495
v -0.073819 -0.326531 -0.345994
v 0.046916 -0.432356 -0.345994
v -0.073819 -0.432356 -0.345994
v -0.073819 -0.324350 -0.345994
v -0.073819 -0.326531 -0.345994
v -0.073819 -0.324350 -0.359495
v -0.766931 -0.526367 0.349024
v -0.766931 -0.499365 0.349024
v -0.766931 -0.526367 -0.345994
v 0.046916 -0.390659 0.349024
v 0.046916 -0.396615 0.349024
v 0.046916 -0.390659 -0.345994
v -0.766931 -0.526367 0.349024
v 0.735537 -0.526367 0.349024
v -0.766931 -0.499365 0.349024
v 0.743975 -0.526367 0.358472
v -0.774773 -0.526367 0.358472
v 0.743975 -0.499365 0.358472
v 0.743975 -0.526367 -0.355442
v 0.735537 -0.526367 0.349024
v 0.743975 -0.526367 0.358472
v 0.743975 -0.526367 -0.355442
v -0.774773 -0.526367 -0.355442
v -0.766931 -0.526367 -0.345994
v 0.046916 -0.390659 -0.345994
v -0.073819 -0.326531 -0.345994
v 0.046916 -0.329906 -0.345994
v -0.073819 -0.432356 -0.359495
v -0.073819 -0.324350 -0.359495
v -0.073819 -0.432356 -0.345994
v -0.073819 -0.432356 -0.345994
v -0.073819 -0.324350 -0.359495
v -0.073819 -0.326531 -0.345994
v 0.046916 -0.329906 -0.345994
v -0.073819 -0.326531 -0.345994
v 0.046916 -0.326531 -0.345994
v -0.766931 -0.526367 -0.345994
v -0.774773 -0.526367 0.358472
v -0.766931 -0.526367 0.349024
v -0.774773 -0.499365 0.358472
v 0.743975 -0.499365 0.358472
v -0.774773 -0.526367 0.358472
v -0.774773 -0.499365 0.358472
v -0.774773 -0.526367 0.358472
v -0.774773 -0.499365 -0.355442
v 0.735537 -0.526367 0.349024
v -0.766931 -0.526367 0.349024
v 0.743975 -0.526367 0.358472
v 0.743975 -0.499365 -0.355442
v -0.774773 -0.499365 -0.355442
v 0.743975 -0.526367 -0.355442
v 0.743975 -0.526367 0.358472
v -0.766931 -0.526367 0.349024
v -0.774773 -0.526367 0.358472
v -0.774773 -0.526367 0.358472
v -0.766931 -0.526367 -0.345994
v -0.774773 -0.526367 -0.355442
v -0.774773 -0.526367 -0.355442
v 0.743975 -0.526367 -0.355442
v -0.774773 -0.499365 -0.355442
v -0.774773 -0.526367 -0.355442
v -0.774773 -0.499365 -0.355442
v -0.774773 -0.526367 0.358472
vt 1.0380899906158447 0.3117370009422302
vt 1.0172569751739502 0.4784039855003357
vt 1.0172569751739502 0.3117370009422302
vt -1.0172569751739502 1.5104169845581055
vt 0.05524300038814545 0.20022299885749817
vt 0.05524300038814545 1.5104169845581055
vt 1.0380899906158447 0.14507099986076355
vt 1.0172569751739502 0.14507099986076355
vt 1.0380899906158447 0.4784039855003357
vt 4.214737892150879 1.0172569751739502
vt 3.0734879970550537 1.0380899906158447
vt 3.0734879970550537 1.0172569751739502
vt 0.05524300038814545 0.04166699945926666
vt -3.259798049926758 1.0172569751739502
vt -4.214737892150879 1.0380899906158447
vt -4.214737892150879 1.0172569751739502
vt 4.214737892150879 1.0380899906158447
vt -1.0380899906158447 0.4784039855003357
vt -1.0172569751739502 0.3117370009422302
vt -1.0172569751739502 0.4784039855003357
vt -1.0172569751739502 0.04166699945926666
vt 2.00393009185791 0.04166699945926666
vt 3.259798049926758 0.20022299885749817
vt 2.00393009185791 0.20022299885749817
vt -4.32242488861084 0.04166699945926666
vt -2.00393009185791 0.04166699945926666
vt -3.259798049926758 0.04166699945926666
vt 4.32242488861084 0.04166699945926666
vt 2.00393009185791 0
vt 4.32242488861084 0
vt -3.0734879970550537 1.0172569751739502
vt -1.0380899906158447 0.3117370009422302
vt -0.05524300038814545 0.04166699945926666
vt 1.0172569751739502 0
vt 1.0172569751739502 0.04166699945926666
vt 3.259798049926758 0.04166699945926666
vt -1.0172569751739502 0.20941300690174103
vt -4.32242488861084 0
vt -4.32242488861084 1.0172569751739502
vt -4.335445880889893 1.0318360328674316
vt -4.32242488861084 -0.05524300038814545
vt -2.00393009185791 1.0172569751739502
vt -1.0172569751739502 0.14507099986076355
vt -3.259798049926758 0.20941300690174103
vt -3.0734879970550537 0.30837199091911316
vt -3.259798049926758 0.14507099986076355
vt -3.0734879970550537 1.0380899906158447
vt -3.0734879970550537 0.14507099986076355
vt -1.0172569751739502 0.30837199091911316
vt -0.05524300038814545 0
vt 0.05524300038814545 0.20941300690174103
vt -2.00393009185791 0
vt 4.335445880889893 0.04166699945926666
vt 1.9918290376663208 0
vt 4.335445880889893 0
vt -4.335445880889893 -0.06982199847698212
vt -1.9918290376663208 1.0318360328674316
vt -3.259798049926758 0.30316299200057983
vt -1.0380899906158447 0.14507099986076355
vt -3.259798049926758 0.30837199091911316
vt -2.00393009185791 -0.05524300038814545
vt -1.9918290376663208 -0.06982199847698212
vt 1.9918290376663208 0.04166699945926666
vt -1.0318360328674316 0.04166699945926666
vt 0.06982199847698212 0
vt 0.06982199847698212 0.04166699945926666
vt -4.335445880889893 0
vt -1.9918290376663208 0.04166699945926666
vt -4.335445880889893 0.04166699945926666
vt -1.9918290376663208 0
vt -1.0318360328674316 0
vt 0 0
vn 1 0 0
vn -1 0 0
vn 0 1 0
vn 0 -1 0
vn 0 0 1
vn 0 0 -1
usemtl material_0_0
f 1/1/1 2/2/1 3/3/1
f 4/4/2 5/5/2 6/6/2
f 7/7/1 8/3/1 9/8/1
f 10/2/1 11/1/1 12/9/1
f 13/3/1 14/7/1 15/1/1
f 16/10/3 17/11/3 18/12/3
f 19/5/2 20/4/2 21/13/2
f 22/14/4 23/15/4 24/16/4
f 25/11/3 26/10/3 27/17/3
f 28/18/2 29/19/2 30/20/2
f 31/13/2 32/4/2 33/21/2
f 34/22/5 35/23/5 36/24/5
f 37/25/6 38/26/6 39/27/6
f 40/28/5 41/29/5 42/30/5
f 43/31/4 44/15/4 45/14/4
f 46/19/2 47/18/2 48/32/2
f 49/33/1 50/34/1 51/35/1
f 52/23/5 53/22/5 54/36/5
f 55/5/2 56/37/2 57/13/2
f 58/38/6 59/26/6 60/25/6
f 61/22/5 62/28/5 63/36/5
f 64/39/4 65/40/4 66/41/4
f 67/29/5 68/28/5 69/22/5
f 70/42/4 71/40/4 72/39/4
f 73/13/2 74/37/2 75/21/2
f 76/21/2 77/37/2 78/43/2
f 79/44/5 80/45/5 81/46/5
f 82/15/4 83/31/4 84/47/4
f 85/48/5 86/46/5 87/45/5
f 88/32/2 89/49/2 90/19/2
f 91/34/1 92/33/1 93/50/1
f 94/37/2 95/5/2 96/51/2
f 97/26/6 98/38/6 99/52/6
f 100/53/5 101/54/5 102/55/5
f 103/56/4 104/41/4 105/40/4
f 106/42/4 107/57/4 108/40/4
f 109/58/5 110/45/5 111/44/5
f 112/43/2 113/32/2 114/59/2
f 115/49/2 116/32/2 117/43/2
f 118/60/5 119/45/5 120/58/5
f 121/61/4 122/62/4 123/42/4
f 124/54/5 125/53/5 126/63/5
f 127/64/2 128/65/2 129/66/2
f 130/56/4 131/61/4 132/41/4
f 133/67/6 134/68/6 135/69/6
f 136/62/4 137/61/4 138/56/4
f 139/57/4 140/42/4 141/62/4
f 142/68/6 143/67/6 144/70/6
f 145/65/2 146/64/2 147/71/2
usemtl material_1_0
f 148/72/2 149/72/2 150/72/2
f 151/72/1 152/72/1 153/72/1
f 154/72/2 155/72/2 156/72/2
f 157/72/2 158/72/2 159/72/2
f 160/72/2 161/72/2 162/72/2
f 163/72/4 164/72/4 165/72/4
f 166/72/1 167/72/1 168/72/1
f 169/72/1 170/72/1 171/72/1
f 172/72/2 173/72/2 174/72/2
f 175/72/3 176/72/3 177/72/3
f 178/72/4 179/72/4 180/72/4
f 181/72/1 182/72/1 183/72/1
f 184/72/1 185/72/1 186/72/1
f 187/72/6 188/72/6 189/72/6
f 190/72/5 191/72/5 192/72/5
f 193/72/1 194/72/1 195/72/1
f 196/72/2 197/72/2 198/72/2
f 199/72/6 200/72/6 201/72/6
f 202/72/3 203/72/3 204/72/3
f 205/72/1 206/72/1 207/72/1
f 208/72/2 209/72/2 210/72/2
f 211/72/6 212/72/6 213/72/6
f 214/72/1 215/72/1 216/72/1
f 217/72/5 218/72/5 219/72/5
f 220/72/6 221/72/6 222/72/6
f 223/72/3 224/72/3 225/72/3
f 226/72/6 227/72/6 228/72/6
f 229/72/3 230/72/3 231/72/3
f 232/72/1 233/72/1 234/72/1
f 235/72/1 236/72/1 237/72/1
f 238/72/6 239/72/6 240/72/6
f 241/72/3 242/72/3 243/72/3
f 244/72/6 245/72/6 246/72/6
f 247/72/1 248/72/1 249/72/1
f 250/72/2 251/72/2 252/72/2
f 253/72/1 254/72/1 255/72/1
f 256/72/5 257/72/5 258/72/5
f 259/72/6 260/72/6 261/72/6
f 262/72/3 263/72/3 264/72/3
f 265/72/3 266/72/3 267/72/3
f 268/72/6 269/72/6 270/72/6
f 271/72/1 272/72/1 273/72/1
f 274/72/1 275/72/1 276/72/1
f 277/72/6 278/72/6 279/72/6
f 280/72/3 281/72/3 282/72/3
f 283/72/6 284/72/6 285/72/6
f 286/72/1 287/72/1 288/72/1
f 289/72/3 290/72/3 291/72/3
f 292/72/5 293/72/5 294/72/5
f 295/72/3 296/72/3 297/72/3
f 298/72/3 299/72/3 300/72/3
f 301/72/5 302/72/5 303/72/5
f 304/72/1 305/72/1 306/72/1
