# SSTK version 0.8.0
# 17
mtllib original-17.mtl
o Radius_1_1/Radius_1/mesh4/mesh4-geometry#mesh4-geometry
v -0.187466 0.456512 -0.297420
v -0.177513 0.456512 -0.298730
v -0.177341 0.456512 -0.297420
v -0.178019 0.456512 -0.299951
v -0.177341 0.503765 -0.297420
v -0.178823 0.456512 -0.301000
v -0.177513 0.503765 -0.298730
v -0.179872 0.456512 -0.301804
v -0.178019 0.503765 -0.299951
v -0.181093 0.456512 -0.302310
v -0.179872 0.503765 -0.301804
v -0.178823 0.503765 -0.301000
v -0.182403 0.456512 -0.302483
v -0.181093 0.503765 -0.302310
v -0.183714 0.456512 -0.302310
v -0.182403 0.503765 -0.302483
v -0.184935 0.456512 -0.301804
v -0.183714 0.503765 -0.302310
v -0.185983 0.456512 -0.301000
v -0.184935 0.503765 -0.301804
v -0.186788 0.456512 -0.299951
v -0.185983 0.503765 -0.301000
v -0.187294 0.456512 -0.298730
v -0.187294 0.503765 -0.298730
v -0.186788 0.503765 -0.299951
v -0.187466 0.503765 -0.297420
vn 0 -1 0
vn 0 1 0
vn 0.965925849201117 0 -0.2588189595935754
vn 0.9914448886106773 0 -0.1305259853353411
vn -0.9914448886106773 0 0.1305259853353411
vn -0.965925849201117 0 0.2588189595935754
vn 0.8659813904983754 0 -0.5000762255001733
vn -0.8659813904983754 0 0.5000762255001733
vn 0.7071257809253957 0 -0.7070877809371685
vn -0.7071257809253957 0 0.7070877809371685
vn 0.5000991033142342 0 -0.8659681788982198
vn -0.5000991033142342 0 0.8659681788982198
vn 0.2588189595935754 0 -0.965925849201117
vn -0.2588189595935754 0 0.965925849201117
vn 0 0 -1
vn 0 0 1
vn -0.2588189595935754 0 -0.965925849201117
vn 0.2588189595935754 0 0.965925849201117
vn -0.5000991033142342 0 -0.8659681788982198
vn 0.5000991033142342 0 0.8659681788982198
vn -0.7071257809253957 0 -0.7070877809371685
vn 0.7071257809253957 0 0.7070877809371685
vn -0.8659813904983754 0 -0.5000762255001733
vn 0.8659813904983754 0 0.5000762255001733
vn -0.9914448886106773 0 -0.1305259853353411
vn -0.965925849201117 0 -0.2588189595935754
vn 0.965925849201117 0 0.2588189595935754
vn 0.9914448886106773 0 0.1305259853353411
usemtl material_0_0
f 1//1 2//1 3//1
f 2//1 1//1 4//1
f 3//2 2//2 1//2
f 4//2 1//2 2//2
f 2//3 5//4 3//4
f 3//5 5//5 2//6
f 4//1 1//1 6//1
f 6//2 1//2 4//2
f 4//7 7//3 2//3
f 2//6 7//6 4//8
f 5//4 2//3 7//3
f 7//6 2//6 5//5
f 6//1 1//1 8//1
f 8//2 1//2 6//2
f 6//9 9//7 4//7
f 4//8 9//8 6//10
f 7//3 4//7 9//7
f 9//8 4//8 7//6
f 8//1 1//1 10//1
f 10//2 1//2 8//2
f 11//11 6//9 8//11
f 8//12 6//10 11//12
f 9//7 6//9 12//9
f 12//10 6//10 9//8
f 10//1 1//1 13//1
f 13//2 1//2 10//2
f 14//13 8//11 10//13
f 10//14 8//12 14//14
f 6//9 11//11 12//9
f 12//10 11//12 6//10
f 8//11 14//13 11//11
f 11//12 14//14 8//12
f 13//1 1//1 15//1
f 15//2 1//2 13//2
f 16//15 10//13 13//15
f 13//16 10//14 16//16
f 10//13 16//15 14//13
f 14//14 16//16 10//14
f 15//1 1//1 17//1
f 17//2 1//2 15//2
f 18//17 13//15 15//17
f 15//18 13//16 18//18
f 13//15 18//17 16//15
f 16//16 18//18 13//16
f 17//1 1//1 19//1
f 19//2 1//2 17//2
f 20//19 15//17 17//19
f 17//20 15//18 20//20
f 15//17 20//19 18//17
f 18//18 20//20 15//18
f 19//1 1//1 21//1
f 21//2 1//2 19//2
f 22//21 17//19 19//21
f 19//22 17//20 22//22
f 17//19 22//21 20//19
f 20//20 22//22 17//20
f 21//1 1//1 23//1
f 23//2 1//2 21//2
f 21//23 22//21 19//21
f 19//22 22//22 21//24
f 1//25 24//26 23//26
f 23//27 24//27 1//28
f 23//26 25//23 21//23
f 21//24 25//24 23//27
f 22//21 21//23 25//23
f 25//24 21//24 22//22
f 24//26 1//25 26//25
f 26//28 1//28 24//27
f 25//23 23//26 24//26
f 24//27 23//27 25//24
