# SSTK version 0.8.0
# 33
mtllib original-33.mtl
o TB2BT1/TB2BT/mesh26/mesh26-geometry#mesh26-geometry
v 0.652726 -0.209521 0.419384
v 0.121567 -0.228491 0.419384
v 0.652726 -0.228491 0.419384
v 0.121567 -0.209521 0.419384
v 0.652726 -0.228491 -0.377355
v 0.121567 -0.209521 -0.377355
v 0.121567 -0.228491 -0.377355
v 0.652726 -0.209521 -0.377355
vt 2.115449 0.077584
vt 1.900322 0.065173
vt 2.115449 0.065173
vt 1.900322 0.077584
vt 2.115449 -0.29624
vt 2.636726 0.065173
vt 1.900322 0.438997
vt 1.379046 0.077584
vt 1.900322 -0.29624
vt 2.636726 0.077584
vt 2.115449 0.438997
vt 1.379046 0.065173
vt 1.186101 0.077584
vt 0.970974 0.065173
vt 1.186101 0.065173
vt 0.970974 0.077584
vn 0 0 1
vn 0 -1 0
vn 1 0 0
vn 0 1 0
vn -1 0 0
vn 0 0 -1
usemtl material_0_0
f 1/1/1 2/2/1 3/3/1
f 2/2/1 1/1/1 4/4/1
f 2/2/2 5/5/2 3/3/2
f 5/6/3 1/1/3 3/3/3
f 1/1/4 6/7/4 4/4/4
f 6/8/5 2/2/5 4/4/5
f 5/5/2 2/2/2 7/9/2
f 1/1/3 5/6/3 8/10/3
f 6/7/4 1/1/4 8/11/4
f 2/2/5 6/8/5 7/12/5
f 6/13/6 5/14/6 7/15/6
f 5/14/6 6/13/6 8/16/6
usemtl material_1_0
f 3//6 2//6 1//6
f 4//6 1//6 2//6
f 3//4 5//4 2//4
f 3//5 1//5 5//5
f 4//2 6//2 1//2
f 4//3 2//3 6//3
f 7//4 2//4 5//4
f 8//5 5//5 1//5
f 8//2 1//2 6//2
f 7//3 6//3 2//3
f 7//1 5//1 6//1
f 8//1 6//1 5//1
