# SSTK version 0.8.0
# 31
mtllib original-31.mtl
o TB2R1/TB2R/mesh24/mesh24-geometry#mesh24-geometry
v 0.652726 -0.162096 -0.377354
v 0.652726 -0.237976 0.419384
v 0.652726 -0.162096 0.419384
v 0.652726 -0.237976 -0.377354
v 0.671696 -0.162096 0.419384
v 0.671696 -0.237976 -0.377354
v 0.671696 -0.237976 0.419384
v 0.671696 -0.162096 -0.377354
vt -1.602825 -0.380509
vt -1.644492 -0.741922
vt -1.602825 -0.741922
vt -1.644492 -0.380509
vt -1.644492 -0.922629
vt -1.602825 -0.931234
vt -1.602825 -0.922629
vt -1.59422 -0.741922
vt -1.644492 -0.370093
vt -2.005905 -0.931234
vt -2.005905 -0.922629
vt -1.644492 -0.931234
vt -1.59422 -0.380509
vt -1.602825 -0.370093
vt -1.644492 -1.368734
vt -1.602825 -1.368734
vn -1 0 0
vn 0 0 1
vn 0 1 0
vn 0 0 -1
vn 0 -1 0
vn 1 0 0
usemtl material_0_0
f 1/1/1 2/2/1 3/3/1
f 2/2/1 1/1/1 4/4/1
f 2/5/2 5/6/2 3/7/2
f 5/8/3 1/1/3 3/3/3
f 1/1/4 6/9/4 4/4/4
f 6/10/5 2/5/5 4/11/5
f 5/6/2 2/5/2 7/12/2
f 1/1/3 5/8/3 8/13/3
f 6/9/4 1/1/4 8/14/4
f 2/5/5 6/10/5 7/12/5
f 6/15/6 5/6/6 7/12/6
f 5/6/6 6/15/6 8/16/6
usemtl material_1_0
f 3//6 2//6 1//6
f 4//6 1//6 2//6
f 3//4 5//4 2//4
f 3//5 1//5 5//5
f 4//2 6//2 1//2
f 4//3 2//3 6//3
f 7//4 2//4 5//4
f 8//5 5//5 1//5
f 8//2 1//2 6//2
f 7//3 6//3 2//3
f 7//1 5//1 6//1
f 8//1 6//1 5//1
