# SSTK version 0.8.0
# 4
mtllib original-4.mtl
o pan1/pan/mesh7/mesh7-geometry#mesh7-geometry
v 0.482953 0.025982 0.543769
v 0.311271 0.025982 -0.507783
v 0.311271 0.025982 0.543769
v 0.482953 0.025982 -0.507783
v 0.282658 0.040289 -0.507783
v 0.282658 0.040289 0.543769
v 0.025135 0.040289 -0.507783
v 0.025135 0.040289 0.543769
v -0.003479 0.025982 -0.507783
v -0.003479 0.025982 0.543769
v -0.346843 0.025982 -0.507783
v -0.346843 0.025982 0.543769
v -0.375456 0.040289 -0.507783
v -0.375456 0.040289 0.543769
v -0.632979 0.040289 -0.507783
v -0.632979 0.040289 0.543769
v -0.661593 0.025982 -0.507783
v -0.661593 0.025982 0.543769
v -0.833275 0.025982 -0.507783
v -0.833275 0.025982 0.543769
vn 0 1 0
vn 0 -1 0
vn 0.4472139954999092 0.8944269909998285 0
vn -0.4472139954999092 -0.8944269909998285 0
vn -0.4472139954999092 0.8944269909998285 0
vn 0.4472139954999092 -0.8944269909998285 0
usemtl material_0_0
f 1//1 2//1 3//1
f 2//1 1//1 4//1
f 3//2 2//2 1//2
f 4//2 1//2 2//2
f 5//3 3//3 2//3
f 2//4 3//4 5//4
f 3//3 5//3 6//3
f 6//4 5//4 3//4
f 7//1 6//1 5//1
f 5//2 6//2 7//2
f 6//1 7//1 8//1
f 8//2 7//2 6//2
f 9//5 8//5 7//5
f 7//6 8//6 9//6
f 8//5 9//5 10//5
f 10//6 9//6 8//6
f 11//1 10//1 9//1
f 9//2 10//2 11//2
f 10//1 11//1 12//1
f 12//2 11//2 10//2
f 13//3 12//3 11//3
f 11//4 12//4 13//4
f 12//3 13//3 14//3
f 14//4 13//4 12//4
f 15//1 14//1 13//1
f 13//2 14//2 15//2
f 14//1 15//1 16//1
f 16//2 15//2 14//2
f 17//5 16//5 15//5
f 15//6 16//6 17//6
f 16//5 17//5 18//5
f 18//6 17//6 16//6
f 19//1 18//1 17//1
f 17//2 18//2 19//2
f 18//1 19//1 20//1
f 20//2 19//2 18//2
