# SSTK version 0.8.0
# 46
mtllib original-46.mtl
o DF_41_CR1/DF_41_CR/mesh29/mesh29-geometry#mesh29-geometry
v 0.142995 0.620770 0.601083
v 0.120509 -0.318550 0.601083
v 0.142995 -0.318550 0.601083
v 0.120509 0.620770 0.601083
v 0.143417 0.620770 0.600872
v 0.143417 -0.318550 0.600872
v 0.143629 -0.318550 0.600660
v 0.143629 0.620770 0.600660
v 0.143945 -0.318550 0.599919
v 0.143945 0.620770 0.599919
v 0.143945 -0.318550 0.596742
v 0.143945 0.620770 0.596742
v 0.148592 0.620770 0.595259
v 0.148592 -0.318550 0.595259
v 0.152287 0.620770 0.592400
v 0.152287 -0.318550 0.592400
v 0.154822 -0.318550 0.588270
v 0.154822 0.620770 0.588270
v 0.155666 -0.318550 0.585834
v 0.155666 0.620770 0.585834
v 0.155666 -0.318550 0.569315
v 0.155666 0.620770 0.569315
v 0.154927 -0.318550 0.567726
v 0.154927 0.620770 0.567726
v 0.154399 -0.318550 0.567091
v 0.154399 0.620770 0.567091
v 0.153766 0.620770 0.566561
v 0.153766 -0.318550 0.566561
v 0.153026 0.620770 0.566138
v 0.153026 -0.318550 0.566138
v 0.152182 0.620770 0.565926
v 0.152182 -0.318550 0.565926
v 0.120509 -0.318550 0.565926
v 0.120509 0.620770 0.565926
vt 0.463323 0.609792
vt 0.453329 0.015229
vt 0.463323 0.015229
vt 0.453329 0.609792
vt 0.463511 0.609792
vt 0.463511 0.015229
vt 0.463605 0.015229
vt 0.463605 0.609792
vt 0.463745 0.015229
vt 0.463745 0.609792
vt 0.46581 0.609792
vt 0.46581 0.015229
vt 0.467453 0.609792
vt 0.467453 0.015229
vt 0.468579 0.015229
vt 0.468579 0.609792
vt 0.468954 0.015229
vt 0.468954 0.609792
vt 0.468626 0.015229
vt 0.468626 0.609792
vt 0.468391 0.015229
vt 0.468391 0.609792
vt 0.46811 0.609792
vt 0.46811 0.015229
vt 0.467781 0.609792
vt 0.467781 0.015229
vt 0.467406 0.609792
vt 0.467406 0.015229
vn 0.23030889896293244 0 0.9731175730909817
vn 0 0 1
vn 0.5857521623693505 0 0.8104902246663006
vn 0.8287560581637597 0 0.5596100392745532
vn 0.9796814039418299 0 0.20056008269485004
vn 1 0 0
vn 0.3039900644876991 0 0.9526752020981571
vn 0.4650287724947268 0 0.8852955668882836
vn 0.7442661561303099 0 0.6678831401068701
vn 0.9038478859253655 0 0.4278539460005569
vn 0.9861001493429067 0 0.1661520251633938
vn 0.9763822868494415 0 -0.21605006347292538
vn 0.8448912257021598 0 -0.5349381429020572
vn 0.708098584064076 0 -0.7061135852300611
vn 0.5714399290454513 0 -0.8206438981022948
vn 0.3737169228390486 0 -0.9275428084911835
vn 0.12251705044977514 0 -0.9924664086754207
vn 0 0 -1
vn -0.23030889896293244 0 -0.9731175730909817
vn -0.5857521623693505 0 -0.8104902246663006
vn -0.8287560581637597 0 -0.5596100392745532
vn -0.9796814039418299 0 -0.20056008269485004
vn -1 0 0
vn -0.3039900644876991 0 -0.9526752020981571
vn -0.4650287724947268 0 -0.8852955668882836
vn -0.7442661561303099 0 -0.6678831401068701
vn -0.9038478859253655 0 -0.4278539460005569
vn -0.9861001493429067 0 -0.1661520251633938
vn -0.9763822868494415 0 0.21605006347292538
vn -0.8448912257021598 0 0.5349381429020572
vn -0.708098584064076 0 0.7061135852300611
vn -0.5714399290454513 0 0.8206438981022948
vn -0.3737169228390486 0 0.9275428084911835
vn -0.12251705044977514 0 0.9924664086754207
usemtl material_0_0
f 1/1/1 2/2/2 3/3/1
f 2/2/2 1/1/1 4/4/2
f 3/3/1 5/5/3 1/1/1
f 5/5/3 3/3/1 6/6/3
f 7/7/4 5/5/3 6/6/3
f 5/5/3 7/7/4 8/8/4
f 9/9/5 8/8/4 7/7/4
f 8/8/4 9/9/5 10/10/5
f 11/9/6 10/10/5 9/9/5
f 10/10/5 11/9/6 12/10/6
f 11/9/7 13/11/8 12/10/7
f 13/11/8 11/9/7 14/12/8
f 14/12/8 15/13/9 13/11/8
f 15/13/9 14/12/8 16/14/9
f 17/15/10 15/13/9 16/14/9
f 15/13/9 17/15/10 18/16/10
f 19/17/11 18/16/10 17/15/10
f 18/16/10 19/17/11 20/18/11
f 21/17/12 20/18/11 19/17/11
f 20/18/11 21/17/12 22/18/12
f 23/19/13 22/18/12 21/17/12
f 22/18/12 23/19/13 24/20/13
f 25/21/14 24/20/13 23/19/13
f 24/20/13 25/21/14 26/22/14
f 25/21/14 27/23/15 26/22/14
f 27/23/15 25/21/14 28/24/15
f 28/24/15 29/25/16 27/23/15
f 29/25/16 28/24/15 30/26/16
f 30/26/16 31/27/17 29/25/16
f 31/27/17 30/26/16 32/28/17
f 33/2/18 31/27/17 32/28/17
f 31/27/17 33/2/18 34/4/18
usemtl material_1_0
f 3//19 2//18 1//19
f 4//18 1//19 2//18
f 1//19 5//20 3//19
f 6//20 3//19 5//20
f 6//20 5//20 7//21
f 8//21 7//21 5//20
f 7//21 8//21 9//22
f 10//22 9//22 8//21
f 9//22 10//22 11//23
f 12//23 11//23 10//22
f 12//24 13//25 11//24
f 14//25 11//24 13//25
f 13//25 15//26 14//25
f 16//26 14//25 15//26
f 16//26 15//26 17//27
f 18//27 17//27 15//26
f 17//27 18//27 19//28
f 20//28 19//28 18//27
f 19//28 20//28 21//29
f 22//29 21//29 20//28
f 21//29 22//29 23//30
f 24//30 23//30 22//29
f 23//30 24//30 25//31
f 26//31 25//31 24//30
f 26//31 27//32 25//31
f 28//32 25//31 27//32
f 27//32 29//33 28//32
f 30//33 28//32 29//33
f 29//33 31//34 30//33
f 32//34 30//33 31//34
f 32//34 31//34 33//2
f 34//2 33//2 31//34
