mtllib new-11.mtl
v 0.808297 -0.336348 0.376353
v 0.550506 -0.333993 0.389767
v 0.550506 -0.333993 0.376353
v 0.808297 -0.336348 0.389767
v 0.550506 0.233670 0.376353
v 0.808297 0.231316 0.376353
v 0.808297 0.231316 0.389767
v 0.550506 0.233670 0.389767
vn -0.009131 -0.999958 0.000000
vn 0.009131 0.999958 0.000000
vn -1.000000 0.000000 0.000000
vn 1.000000 0.000000 0.000000
vn 0.000000 0.000000 -1.000000
vn 0.000000 0.000000 1.000000
vt 0.000000 -1.995329
vt 0.050000 -1.514855
vt 0.000000 -1.514855
vt 0.050000 -1.995329
vt 0.050000 -0.004363
vt 0.000000 1.053609
vt 0.000000 -0.004363
vt -3.029757 -0.004363
vt -3.990665 1.049221
vt -3.990665 -0.008750
vt 0.000000 1.049221
vt -0.050000 -0.008750
vt 0.000000 -0.008750
vt 3.990665 1.049221
vt 3.029757 -0.004363
vt 3.990665 -0.008750
vt 0.050000 1.053609
vt -3.029757 1.053609
vt -0.050000 1.049221
vt 3.029757 1.053609
vt -0.050000 -1.985668
vt 0.000000 -1.505194
vt -0.050000 -1.505194
vt 0.000000 -1.985668
usemtl material-0
f 1/1/1 2/2/1 3/3/1
f 2/2/1 1/1/1 4/4/1
f 3/3/2 2/2/2 1/1/2
f 4/4/2 1/1/2 2/2/2
f 2/5/3 5/6/3 3/7/3
f 3/7/4 5/6/4 2/5/4
f 3/8/5 6/9/5 1/10/5
f 1/10/6 6/9/6 3/8/6
f 6/11/4 4/12/4 1/13/4
f 1/13/3 4/12/3 6/11/3
f 7/14/6 2/15/6 4/16/6
f 4/16/5 2/15/5 7/14/5
f 5/6/3 2/5/3 8/17/3
f 8/17/4 2/5/4 5/6/4
f 6/9/5 3/8/5 5/18/5
f 5/18/6 3/8/6 6/9/6
f 4/12/4 6/11/4 7/19/4
f 7/19/3 6/11/3 4/12/3
f 2/15/6 7/14/6 8/20/6
f 8/20/5 7/14/5 2/15/5
f 7/21/2 5/22/2 8/23/2
f 8/23/1 5/22/1 7/21/1
f 5/22/2 7/21/2 6/24/2
f 6/24/1 7/21/1 5/22/1