# SSTK version 0.8.0
# 3
mtllib original-3.mtl
o Group3/mesh5/mesh5-geometry#mesh5-geometry
v 0.536133 -0.353647 0.376353
v -0.725629 -0.353647 0.389767
v -0.725629 -0.353647 0.376353
v 0.536133 -0.353647 0.389767
v -0.725629 0.240844 0.376353
v -0.648498 -0.265533 0.376353
v 0.536133 0.240844 0.376353
v 0.367715 -0.265533 0.389767
v -0.725629 0.240844 0.389767
v 0.367715 -0.265533 0.376353
v 0.536133 0.240844 0.389767
v -0.648498 -0.265533 0.389767
v -0.648498 0.160360 0.376353
v 0.367715 0.160360 0.376353
v 0.367715 0.160360 0.389767
v -0.648498 0.160360 0.389767
vn 0 -1 0
vn 0 1 0
vn -1 0 0
vn 1 0 0
vn 0 0 -1
vn 0 0 1
usemtl material_0_0
f 1//1 2//1 3//1
f 2//1 1//1 4//1
f 3//2 2//2 1//2
f 4//2 1//2 2//2
f 2//3 5//3 3//3
f 3//4 5//4 2//4
f 3//5 6//5 1//5
f 1//6 6//6 3//6
f 7//4 4//4 1//4
f 1//3 4//3 7//3
f 4//6 8//6 2//6
f 2//5 8//5 4//5
f 5//3 2//3 9//3
f 9//4 2//4 5//4
f 6//5 3//5 5//5
f 5//6 3//6 6//6
f 10//5 1//5 6//5
f 6//6 1//6 10//6
f 4//4 7//4 11//4
f 11//3 7//3 4//3
f 1//5 10//5 7//5
f 7//6 10//6 1//6
f 8//6 4//6 11//6
f 11//5 4//5 8//5
f 12//6 2//6 8//6
f 8//5 2//5 12//5
f 2//6 12//6 9//6
f 9//5 12//5 2//5
f 11//2 5//2 9//2
f 9//1 5//1 11//1
f 6//5 5//5 13//5
f 13//6 5//6 6//6
f 6//2 8//2 10//2
f 10//1 8//1 6//1
f 5//2 11//2 7//2
f 7//1 11//1 5//1
f 7//5 10//5 14//5
f 14//6 10//6 7//6
f 8//6 11//6 15//6
f 15//5 11//5 8//5
f 8//2 6//2 12//2
f 12//1 6//1 8//1
f 9//6 12//6 16//6
f 16//5 12//5 9//5
f 9//6 16//6 11//6
f 11//5 16//5 9//5
f 13//5 5//5 14//5
f 14//6 5//6 13//6
f 13//4 12//4 6//4
f 6//3 12//3 13//3
f 8//3 14//3 10//3
f 10//4 14//4 8//4
f 7//5 14//5 5//5
f 5//6 14//6 7//6
f 15//6 11//6 16//6
f 16//5 11//5 15//5
f 14//3 8//3 15//3
f 15//4 8//4 14//4
f 12//4 13//4 16//4
f 16//3 13//3 12//3
f 14//1 16//1 13//1
f 13//2 16//2 14//2
f 16//1 14//1 15//1
f 15//2 14//2 16//2
