# SSTK version 0.8.0
# 47
mtllib original-47.mtl
o _7085_86_87_88_TB_c1/_7085_86_87_88_TB_c/mesh23/mesh23-geometry#mesh23-geometry
v -0.567808 -0.411648 0.268573
v -0.567808 -0.403381 0.268573
v -0.566700 -0.407514 0.268572
v -0.570833 -0.414673 0.268574
v -0.566677 -0.407514 0.312321
v -0.567785 -0.411648 0.311214
v -0.570833 -0.400355 0.268574
v -0.567785 -0.403381 0.311214
v -0.569929 -0.413790 0.309073
v -0.574967 -0.415781 0.268576
v -0.570812 -0.400355 0.308836
v -0.569929 -0.401238 0.309073
v -0.570812 -0.414673 0.308836
v -0.574967 -0.399247 0.268576
v -0.574946 -0.399247 0.307731
v -0.574946 -0.415781 0.307731
v -0.579100 -0.414673 0.268578
v -0.579100 -0.400355 0.268578
v -0.579079 -0.414673 0.308841
v -0.582126 -0.411648 0.268580
v -0.579079 -0.400355 0.308841
v -0.579963 -0.413790 0.309078
v -0.582104 -0.411648 0.311221
v -0.582126 -0.403381 0.268580
v -0.579963 -0.401238 0.309078
v -0.583211 -0.407514 0.312329
v -0.583234 -0.407514 0.268581
v -0.582104 -0.403381 0.311221
vn -0.0005219999288816891 0 -0.999999863758028
vn 0.8660251553520109 0.5000002259345918 -0.0004520651310937484
vn 0.999999863758028 0 -0.0005219999288816891
vn 0.8660251553520111 -0.5000002259345914 -0.0004520651310937484
vn 0.5000000556320908 -0.8660253323355449 -0.00026100002903995057
vn 0.7071066366801156 -0.7071068293553603 -0.0003691096643470193
vn 0.5000000556320905 0.8660253323355451 -0.00026100002903995057
vn 0.7071066366801154 0.7071068293553605 -0.0003691096643470193
vn 0 -1 0
vn 0 1 0
vn -0.5000000556320905 -0.8660253323355451 0.00026100002903995057
vn -0.5000000556320908 0.8660253323355449 0.00026100002903995057
vn -0.7071066366801154 -0.7071068293553605 0.0003691096643470193
vn -0.8660251553520109 -0.5000002259345918 0.0004520651310937484
vn -0.7071066366801156 0.7071068293553603 0.0003691096643470193
vn -0.999999863758028 0 0.0005219999288816891
vn -0.8660251553520111 0.5000002259345914 0.0004520651310937484
vn 0.0005219999288816891 0 0.999999863758028
usemtl material_0_0
f 1//1 2//1 3//1
f 2//1 1//1 4//1
f 2//2 5//3 3//3
f 3//3 6//4 1//4
f 6//4 4//5 1//4
f 2//1 4//1 7//1
f 5//3 2//2 8//2
f 6//4 3//3 5//3
f 4//5 6//4 9//6
f 7//1 4//1 10//1
f 11//7 2//2 7//7
f 2//2 12//8 8//2
f 4//5 9//6 13//5
f 13//5 10//9 4//5
f 7//1 10//1 14//1
f 2//2 11//7 12//8
f 7//7 15//10 11//7
f 10//9 13//5 16//9
f 14//1 10//1 17//1
f 15//10 7//7 14//10
f 16//9 17//11 10//9
f 14//1 17//1 18//1
f 18//12 15//10 14//10
f 17//11 16//9 19//11
f 18//1 17//1 20//1
f 15//10 18//12 21//12
f 22//13 17//11 19//11
f 17//11 23//14 20//14
f 18//1 20//1 24//1
f 18//12 25//15 21//12
f 23//14 17//11 22//13
f 26//16 20//14 23//14
f 24//1 20//1 27//1
f 28//17 18//12 24//17
f 18//12 28//17 25//15
f 20//14 26//16 27//16
f 26//16 24//17 27//16
f 24//17 26//16 28//17
usemtl material_1_0
f 3//18 2//18 1//18
f 4//18 1//18 2//18
f 3//16 5//16 2//14
f 1//17 6//17 3//16
f 1//17 4//12 6//17
f 7//18 4//18 2//18
f 8//14 2//14 5//16
f 5//16 3//16 6//17
f 9//15 6//17 4//12
f 10//18 4//18 7//18
f 7//11 2//14 11//11
f 8//14 12//13 2//14
f 13//12 9//15 4//12
f 4//12 10//10 13//12
f 14//18 10//18 7//18
f 12//13 11//11 2//14
f 11//11 15//9 7//11
f 16//10 13//12 10//10
f 17//18 10//18 14//18
f 14//9 7//11 15//9
f 10//10 17//7 16//10
f 18//18 17//18 14//18
f 14//9 15//9 18//5
f 19//7 16//10 17//7
f 20//18 17//18 18//18
f 21//5 18//5 15//9
f 19//7 17//7 22//8
f 20//2 23//2 17//7
f 24//18 20//18 18//18
f 21//5 25//6 18//5
f 22//8 17//7 23//2
f 23//2 20//2 26//3
f 27//18 20//18 24//18
f 24//4 18//5 28//4
f 25//6 28//4 18//5
f 27//3 26//3 20//2
f 27//3 24//4 26//3
f 28//4 26//3 24//4
