# SSTK version 0.8.0
# 31
mtllib original-31.mtl
o TB_11_TC1/TB_11_TC/mesh20/mesh20-geometry#mesh20-geometry
v 0.639734 -0.652916 0.268594
v 0.602318 0.597005 0.268574
v 0.602318 -0.652916 0.268574
v 0.639734 0.597005 0.268594
v 0.596255 0.597005 0.269062
v 0.640159 -0.652916 0.268526
v 0.596255 -0.652916 0.269062
v 0.640159 0.597005 0.268526
v 0.590232 0.597005 0.269908
v 0.640543 -0.652916 0.268331
v 0.590232 -0.652916 0.269908
v 0.640543 0.597005 0.268331
v 0.584269 0.597005 0.271110
v 0.640847 -0.652916 0.268026
v 0.584269 -0.652916 0.271110
v 0.640847 0.597005 0.268026
v 0.578388 0.597005 0.272663
v 0.641043 0.597005 0.267642
v 0.578388 -0.652916 0.272663
v 0.641043 -0.652916 0.267642
v 0.572610 0.597005 0.274563
v 0.641110 0.597005 0.267217
v 0.572610 -0.652916 0.274563
v 0.641110 -0.652916 0.267217
v 0.566955 0.597005 0.276802
v 0.641110 0.597005 0.265585
v 0.566955 -0.652916 0.276802
v 0.641110 -0.652916 0.265585
v 0.565454 0.597005 0.277413
v 0.644175 -0.652916 0.265585
v 0.565454 -0.652916 0.277413
v 0.644175 0.597005 0.265585
v 0.563846 0.597005 0.277621
v 0.644175 0.597005 0.266582
v 0.563846 -0.652916 0.277621
v 0.644175 -0.652916 0.266582
v 0.561985 0.597005 0.277327
v 0.644322 0.597005 0.267513
v 0.561985 -0.652916 0.277327
v 0.644322 -0.652916 0.267513
v 0.560306 0.597005 0.276472
v 0.644751 0.597005 0.268354
v 0.560306 -0.652916 0.276472
v 0.644751 -0.652916 0.268354
v 0.558972 0.597005 0.275141
v 0.645418 -0.652916 0.269021
v 0.558972 -0.652916 0.275141
v 0.645418 0.597005 0.269021
v 0.558114 -0.652916 0.273463
v 0.646258 -0.652916 0.269449
v 0.558114 0.597005 0.273463
v 0.646258 0.597005 0.269449
v 0.557816 -0.652916 0.271602
v 0.647190 -0.652916 0.269597
v 0.557816 0.597005 0.271602
v 0.647190 0.597005 0.269597
v 0.557816 -0.652916 0.259057
v 0.651149 -0.652916 0.269597
v 0.557816 0.597005 0.259057
v 0.651149 0.597005 0.269597
v 0.518466 0.597005 0.259057
v 0.652128 -0.652916 0.269554
v 0.518466 -0.652916 0.259057
v 0.652128 0.597005 0.269554
v 0.653026 -0.652916 0.269159
v 0.653026 0.597005 0.269159
v 0.653719 0.597005 0.268465
v 0.653719 -0.652916 0.268465
v 0.654114 0.597005 0.267568
v 0.654114 -0.652916 0.267568
v 0.654157 0.597005 0.266588
v 0.654157 -0.652916 0.266588
v 0.654157 0.597005 0.248333
v 0.654157 -0.652916 0.248333
v 0.654009 0.597005 0.247402
v 0.654009 -0.652916 0.247402
v 0.653581 0.597005 0.246561
v 0.653581 -0.652916 0.246561
v 0.652914 0.597005 0.245894
v 0.652914 -0.652916 0.245894
v 0.652074 0.597005 0.245466
v 0.652074 -0.652916 0.245466
v 0.651142 0.597005 0.245318
v 0.651142 -0.652916 0.245318
v 0.557816 0.597005 0.245318
v 0.557816 -0.652916 0.245318
v 0.557816 0.597005 0.247017
v 0.557816 -0.652916 0.247017
v 0.518466 -0.652916 0.247017
v 0.518466 0.597005 0.247017
vt 0.640532 -0.091401
vt 0.65863 -0.432971
vt 0.65863 -0.091401
vt 0.640532 -0.432971
vt 0.661562 -0.432971
vt 0.640326 -0.091401
vt 0.661562 -0.091401
vt 0.640326 -0.432971
vt 0.664476 -0.432971
vt 0.64014 -0.091401
vt 0.664476 -0.091401
vt 0.64014 -0.432971
vt 0.66736 -0.432971
vt 0.639993 -0.091401
vt 0.66736 -0.091401
vt 0.639993 -0.432971
vt 0.670204 -0.432971
vt 0.639898 -0.432971
vt 0.670204 -0.091401
vt 0.639898 -0.091401
vt 0.672999 -0.432971
vt 0.639866 -0.432971
vt 0.672999 -0.091401
vt 0.639866 -0.091401
vt 0.675735 -0.432971
vt 0.675735 -0.091401
vt 0.676461 -0.432971
vt 0.638383 -0.091401
vt 0.676461 -0.091401
vt 0.638383 -0.432971
vt 0.677238 -0.432971
vt 0.677238 -0.091401
vt 0.678139 -0.432971
vt 0.638312 -0.432971
vt 0.678139 -0.091401
vt 0.638312 -0.091401
vt 0.678951 -0.432971
vt 0.638105 -0.432971
vt 0.678951 -0.091401
vt 0.638105 -0.091401
vt 0.679596 -0.432971
vt 0.637782 -0.091401
vt 0.679596 -0.091401
vt 0.637782 -0.432971
vt 0.680011 -0.091401
vt 0.637376 -0.091401
vt 0.680011 -0.432971
vt 0.637376 -0.432971
vt 0.680155 -0.091401
vt 0.636925 -0.091401
vt 0.680155 -0.432971
vt 0.636925 -0.432971
vt 0.63501 -0.091401
vt 0.63501 -0.432971
vt 0.576611 0.246866
vt 0.918181 0.2659
vt 0.576611 0.2659
vt 0.634536 -0.091401
vt 0.918181 0.246866
vt 0.634536 -0.432971
vt 0.634102 -0.091401
vt 0.634102 -0.432971
vt 0.633767 -0.432971
vt 0.633767 -0.091401
vt 0.633576 -0.432971
vt 0.633576 -0.091401
vt 0.633555 -0.432971
vt 0.633555 -0.091401
vt 0.633626 -0.432971
vt 0.633626 -0.091401
vt 0.633833 -0.432971
vt 0.633833 -0.091401
vt 0.634156 -0.432971
vt 0.634156 -0.091401
vt 0.634563 -0.432971
vt 0.634563 -0.091401
vt 0.635013 -0.432971
vt 0.635013 -0.091401
vn 0.0781989820359362 0 0.9969377709809892
vn 0.03986100934051161 0 0.9992052341407924
vn 0.10970996064726339 0 0.993963643467293
vn 0.30901685730562756 0 0.9510565608316646
vn 0.16845602892247055 0 0.9857091692379004
vn 0.5877850844899972 0 0.8090171162905558
vn 0.22660990705641867 0 0.9739856005218359
vn 0.8090171162905556 0 0.5877850844899977
vn 0.28396609531153183 0 0.9588343218270411
vn 0.9510565608316643 0 0.309016857305628
vn 0.3403228707096641 0 0.9403086427721129
vn 0.9969173391662902 0 0.07845902669294252
vn 0.37257296118944894 0 0.9280029033308705
vn 1 0 0
vn 0.25491206308564496 0 0.9669642393043396
vn 0 0 1
vn -0.014007998363389836 0 0.9999018831774702
vn -1 0 0
vn -0.9969173391662902 0 0.07845902669294208
vn -0.3086658501740959 0 0.9511705383033594
vn -0.9510565608316646 0 0.30901685730562756
vn -0.5871878036605792 0 0.8094507293419811
vn -0.8090171162905558 0 0.5877850844899972
vn -0.8083652857628377 0 0.5886812081029644
vn -0.5877850844899977 0 0.8090171162905556
vn -0.9505991634831077 0 0.3104210533859067
vn -0.309016857305628 0 0.9510565608316643
vn -0.9968518313959844 0 0.0792869865896775
vn -0.07845902669294252 0 0.9969173391662902
vn 0.021816999584025956 0 0.9997619809380383
vn 0.22709892866994077 0 0.9738716941142531
vn 0.564655020905223 0 0.8253270305560834
vn 0.8254131599609588 0 0.5645291094029296
vn 0.9739063898859708 0 0.22695009085540216
vn 0.9997636366974576 0 0.021740992099575147
vn 0.9969173391662902 0 -0.07845902669294208
vn 0.9510565608316646 0 -0.30901685730562756
vn 0.8090171162905558 0 -0.5877850844899972
vn 0.5877850844899977 0 -0.8090171162905556
vn 0.309016857305628 0 -0.9510565608316643
vn 0.07845902669294252 0 -0.9969173391662902
vn 0 0 -1
vn -0.03986100934051161 0 -0.9992052341407924
vn -0.0781989820359362 0 -0.9969377709809892
vn -0.10970996064726339 0 -0.993963643467293
vn -0.30901685730562756 0 -0.9510565608316646
vn -0.16845602892247055 0 -0.9857091692379004
vn -0.5877850844899972 0 -0.8090171162905558
vn -0.22660990705641867 0 -0.9739856005218359
vn -0.8090171162905556 0 -0.5877850844899977
vn -0.28396609531153183 0 -0.9588343218270411
vn -0.9510565608316643 0 -0.309016857305628
vn -0.3403228707096641 0 -0.9403086427721129
vn -0.9969173391662902 0 -0.07845902669294252
vn -0.37257296118944894 0 -0.9280029033308705
vn -0.25491206308564496 0 -0.9669642393043396
vn 0.014007998363389836 0 -0.9999018831774702
vn 0.3086658501740959 0 -0.9511705383033594
vn 0.5871878036605792 0 -0.8094507293419811
vn 0.8083652857628377 0 -0.5886812081029644
vn 0.9505991634831077 0 -0.3104210533859067
vn 0.9968518313959844 0 -0.0792869865896775
vn -0.021816999584025956 0 -0.9997619809380383
vn -0.22709892866994077 0 -0.9738716941142531
vn -0.564655020905223 0 -0.8253270305560834
vn -0.8254131599609588 0 -0.5645291094029296
vn -0.9739063898859708 0 -0.22695009085540216
vn -0.9997636366974576 0 -0.021740992099575147
usemtl material_0_0
f 1/1/1 2/2/2 3/3/2
f 2/2/2 1/1/1 4/4/1
f 5/5/3 3/3/2 2/2/2
f 6/6/4 4/4/1 1/1/1
f 3/3/2 5/5/3 7/7/3
f 4/4/1 6/6/4 8/8/4
f 9/9/5 7/7/3 5/5/3
f 10/10/6 8/8/4 6/6/4
f 7/7/3 9/9/5 11/11/5
f 8/8/4 10/10/6 12/12/6
f 13/13/7 11/11/5 9/9/5
f 14/14/8 12/12/6 10/10/6
f 11/11/5 13/13/7 15/15/7
f 12/12/6 14/14/8 16/16/8
f 17/17/9 15/15/7 13/13/7
f 14/14/8 18/18/10 16/16/8
f 15/15/7 17/17/9 19/19/9
f 18/18/10 14/14/8 20/20/10
f 21/21/11 19/19/9 17/17/9
f 20/20/10 22/22/12 18/18/10
f 19/19/9 21/21/11 23/23/11
f 22/22/12 20/20/10 24/24/12
f 25/25/13 23/23/11 21/21/11
f 24/24/12 26/22/14 22/22/12
f 23/23/11 25/25/13 27/26/13
f 26/22/14 24/24/12 28/24/14
f 29/27/15 27/26/13 25/25/13
f 30/28/16 26/22/16 28/24/16
f 27/26/13 29/27/15 31/29/15
f 26/22/16 30/28/16 32/30/16
f 33/31/17 31/29/15 29/27/15
f 30/28/18 34/30/19 32/30/18
f 31/29/15 33/31/17 35/32/17
f 34/30/19 30/28/18 36/28/19
f 37/33/20 35/32/17 33/31/17
f 36/28/19 38/34/21 34/30/19
f 35/32/17 37/33/20 39/35/20
f 38/34/21 36/28/19 40/36/21
f 41/37/22 39/35/20 37/33/20
f 40/36/21 42/38/23 38/34/21
f 39/35/20 41/37/22 43/39/22
f 42/38/23 40/36/21 44/40/23
f 45/41/24 43/39/22 41/37/22
f 46/42/25 42/38/23 44/40/23
f 43/39/22 45/41/24 47/43/24
f 42/38/23 46/42/25 48/44/25
f 45/41/24 49/45/26 47/43/24
f 50/46/27 48/44/25 46/42/25
f 49/45/26 45/41/24 51/47/26
f 48/44/25 50/46/27 52/48/27
f 51/47/26 53/49/28 49/45/26
f 54/50/29 52/48/27 50/46/27
f 53/49/28 51/47/26 55/51/28
f 52/48/27 54/50/29 56/52/29
f 55/51/28 57/49/18 53/49/28
f 58/53/30 56/52/29 54/50/29
f 57/49/18 55/51/28 59/51/18
f 56/52/29 58/53/30 60/54/30
f 61/55/16 57/56/16 59/57/16
f 62/58/31 60/54/30 58/53/30
f 57/56/16 61/55/16 63/59/16
f 60/54/30 62/58/31 64/60/31
f 65/61/32 64/60/31 62/58/31
f 64/60/31 65/61/32 66/62/32
f 65/61/32 67/63/33 66/62/32
f 67/63/33 65/61/32 68/64/33
f 68/64/33 69/65/34 67/63/33
f 69/65/34 68/64/33 70/66/34
f 70/66/34 71/67/35 69/65/34
f 71/67/35 70/66/34 72/68/35
f 72/68/35 73/67/36 71/67/35
f 73/67/36 72/68/35 74/68/36
f 74/68/36 75/69/37 73/67/36
f 75/69/37 74/68/36 76/70/37
f 76/70/37 77/71/38 75/69/37
f 77/71/38 76/70/37 78/72/38
f 78/72/38 79/73/39 77/71/38
f 79/73/39 78/72/38 80/74/39
f 80/74/39 81/75/40 79/73/39
f 81/75/40 80/74/39 82/76/40
f 82/76/40 83/77/41 81/75/40
f 83/77/41 82/76/40 84/78/41
f 84/78/41 85/51/42 83/77/41
f 85/51/42 84/78/41 86/49/42
f 86/49/18 87/51/18 85/51/18
f 87/51/18 86/49/18 88/49/18
f 89/59/42 87/57/42 88/56/42
f 87/57/42 89/59/42 90/55/42
usemtl material_1_0
f 3//43 2//43 1//44
f 4//44 1//44 2//43
f 2//43 3//43 5//45
f 1//44 4//44 6//46
f 7//45 5//45 3//43
f 8//46 6//46 4//44
f 5//45 7//45 9//47
f 6//46 8//46 10//48
f 11//47 9//47 7//45
f 12//48 10//48 8//46
f 9//47 11//47 13//49
f 10//48 12//48 14//50
f 15//49 13//49 11//47
f 16//50 14//50 12//48
f 13//49 15//49 17//51
f 16//50 18//52 14//50
f 19//51 17//51 15//49
f 20//52 14//50 18//52
f 17//51 19//51 21//53
f 18//52 22//54 20//52
f 23//53 21//53 19//51
f 24//54 20//52 22//54
f 21//53 23//53 25//55
f 22//54 26//18 24//54
f 27//55 25//55 23//53
f 28//18 24//54 26//18
f 25//55 27//55 29//56
f 28//42 26//42 30//42
f 31//56 29//56 27//55
f 32//42 30//42 26//42
f 29//56 31//56 33//57
f 32//14 34//36 30//14
f 35//57 33//57 31//56
f 36//36 30//14 34//36
f 33//57 35//57 37//58
f 34//36 38//37 36//36
f 39//58 37//58 35//57
f 40//37 36//36 38//37
f 37//58 39//58 41//59
f 38//37 42//38 40//37
f 43//59 41//59 39//58
f 44//38 40//37 42//38
f 41//59 43//59 45//60
f 44//38 42//38 46//39
f 47//60 45//60 43//59
f 48//39 46//39 42//38
f 47//60 49//61 45//60
f 46//39 48//39 50//40
f 51//61 45//60 49//61
f 52//40 50//40 48//39
f 49//61 53//62 51//61
f 50//40 52//40 54//41
f 55//62 51//61 53//62
f 56//41 54//41 52//40
f 53//62 57//14 55//62
f 54//41 56//41 58//63
f 59//14 55//62 57//14
f 60//63 58//63 56//41
f 59//42 57//42 61//42
f 58//63 60//63 62//64
f 63//42 61//42 57//42
f 64//64 62//64 60//63
f 62//64 64//64 65//65
f 66//65 65//65 64//64
f 66//65 67//66 65//65
f 68//66 65//65 67//66
f 67//66 69//67 68//66
f 70//67 68//66 69//67
f 69//67 71//68 70//67
f 72//68 70//67 71//68
f 71//68 73//19 72//68
f 74//19 72//68 73//19
f 73//19 75//21 74//19
f 76//21 74//19 75//21
f 75//21 77//23 76//21
f 78//23 76//21 77//23
f 77//23 79//25 78//23
f 80//25 78//23 79//25
f 79//25 81//27 80//25
f 82//27 80//25 81//27
f 81//27 83//29 82//27
f 84//29 82//27 83//29
f 83//29 85//16 84//29
f 86//16 84//29 85//16
f 85//14 87//14 86//14
f 88//14 86//14 87//14
f 88//16 87//16 89//16
f 90//16 89//16 87//16
