# SSTK version 0.8.0
# 3
mtllib original-3.mtl
o Box040_1/Box040/mesh3/mesh3-geometry#mesh3-geometry
v -0.636837 0.497486 -0.500224
v 0.643373 -0.663491 -0.500224
v -0.636837 -0.663491 -0.500224
v 0.643373 0.497486 -0.500224
v 0.643373 -0.664890 -0.498825
v -0.638236 -0.663491 -0.498825
v -0.636837 0.498885 -0.498825
v 0.644772 -0.663491 -0.498825
v -0.636837 -0.664890 -0.498825
v -0.638236 0.497486 -0.498825
v 0.643373 0.498885 -0.498825
v 0.644772 0.497486 -0.498825
v -0.636837 -0.664890 0.379832
v 0.644772 -0.663491 0.379832
v -0.638236 -0.663491 0.379832
v 0.643373 0.498885 0.379832
v -0.638236 0.497486 0.379832
v 0.644772 0.497486 0.379832
v 0.643373 -0.664890 0.379832
v -0.636837 0.498885 0.379832
v 0.643373 -0.663491 0.381231
v 0.643373 0.497486 0.381231
v -0.636837 -0.663491 0.381231
v -0.636837 0.497486 0.381231
v 0.576365 -0.403848 0.381231
v -0.569829 -0.403848 0.381231
v -0.569829 0.304813 0.381231
v 0.576365 0.304813 0.381231
v -0.569829 -0.403848 -0.437643
v 0.576365 0.304813 -0.437643
v 0.576365 -0.403848 -0.437643
v -0.569829 0.304813 -0.437643
vt 0.998157 0.909629
vt 0.001589 0.088085
vt 0.998157 0.088085
vt 0.001589 0.909629
vt 0.001589 0.087095
vt 0.999246 0.088085
vt 0.998157 0.910619
vt 0.0005 0.088085
vt 0.998157 0.087095
vt 0.999246 0.909629
vt 0.001589 0.910619
vt 0.0005 0.909629
vt 0.001589 0.998073
vt 0.998157 0.101828
vt 0.998157 0.998073
vt 0.101827 0.088085
vt 0.998073 0.087095
vt 0.998073 0.088085
vt 0.898172 0.088085
vt 0.001927 0.909629
vt 0.001927 0.088085
vt 0.898172 0.087095
vt 0.001927 0.087095
vt 0.001844 0.998073
vt 0.998411 0.101827
vt 0.998411 0.998072
vt 0.898172 0.909629
vt 0.001927 0.910619
vt 0.101827 0.909629
vt 0.998072 0.909629
vt 0.001589 0.101827
vt 0.101827 0.087095
vt 0.898173 0.909629
vt 0.001843 0.101827
vt 0.101827 0.910619
vt 0.998072 0.910619
vt 0.898172 0.910619
vt 0.998411 0.088085
vt 0.001843 0.087095
vt 0.998411 0.087095
vt 0.9995 0.088085
vt 0.998411 0.909629
vt 0.9995 0.909629
vt 0.001843 0.088085
vt 0.000754 0.909629
vt 0.000754 0.088085
vt 0.001843 0.909629
vt 0.998411 0.910619
vt 0.001843 0.910619
vt 0.946249 0.271817
vt 0.998411 0.909628
vt 0.054005 0.271817
vt 0.001843 0.909628
vt 0.054005 0.773287
vt 0.946249 0.773287
vt 0.946249 0.1004
vt 0.054005 0.935666
vt 0.054005 0.1004
vt 0.064335 0.773287
vt 0.8996 0.271817
vt 0.8996 0.773287
vt 0.935666 0.271817
vt 0.1004 0.773287
vt 0.1004 0.271817
vt 0.945995 0.1004
vt 0.053751 0.935665
vt 0.053751 0.1004
vt 0.946249 0.935665
vt 0.064335 0.271817
vt 0.935666 0.773287
vt 0.945995 0.935666
vn 0 0 -1
vn 0 -0.7071067811865474 -0.7071067811865477
vn -0.7071067811865475 0 -0.7071067811865475
vn 0 0.7071067811865477 -0.7071067811865474
vn 0.7071067811865475 0 -0.7071067811865475
vn 0.5773502691896257 -0.5773502691896256 -0.5773502691896258
vn -0.5773502691896257 -0.5773502691896256 -0.5773502691896258
vn -0.5773502691896257 0.5773502691896258 -0.5773502691896256
vn 0 -1 0
vn 0.7071067811865475 -0.7071067811865475 0
vn -1 0 0
vn -0.7071067811865475 -0.7071067811865475 0
vn 0 1 0
vn 0.5773502691896257 0.5773502691896258 -0.5773502691896256
vn -0.7071067811865475 0.7071067811865475 0
vn 1 0 0
vn 0.7071067811865475 0.7071067811865475 0
vn 0 -0.7071067811865477 0.7071067811865474
vn 0.5773502691896257 -0.5773502691896258 0.5773502691896256
vn 0.7071067811865475 0 0.7071067811865475
vn -0.7071067811865475 0 0.7071067811865475
vn -0.5773502691896257 -0.5773502691896258 0.5773502691896256
vn 0 0.7071067811865474 0.7071067811865477
vn -0.5773502691896257 0.5773502691896256 0.5773502691896258
vn 0.5773502691896257 0.5773502691896256 0.5773502691896258
vn 0 0 1
usemtl material_0_0
f 1/1/1 2/2/1 3/3/1
f 2/2/1 1/1/1 4/4/1
f 5/5/2 3/3/2 2/2/2
f 6/6/3 1/1/3 3/3/3
f 7/7/4 4/4/4 1/1/4
f 4/4/5 8/8/5 2/2/5
f 3/3/2 5/5/2 9/9/2
f 2/2/6 8/8/6 5/5/6
f 1/1/3 6/6/3 10/10/3
f 3/3/7 9/9/7 6/6/7
f 4/4/4 7/7/4 11/11/4
f 1/1/8 10/10/8 7/7/8
f 8/8/5 4/4/5 12/12/5
f 5/13/9 13/14/9 9/15/9
f 14/16/10 5/17/10 8/18/10
f 15/19/11 10/20/11 6/21/11
f 13/22/12 6/21/12 9/23/12
f 7/24/13 16/25/13 11/26/13
f 4/4/14 11/11/14 12/12/14
f 17/27/15 7/28/15 10/20/15
f 18/29/16 8/18/16 12/30/16
f 13/14/9 5/13/9 19/31/9
f 5/17/10 14/16/10 19/32/10
f 8/18/16 18/29/16 14/16/16
f 10/20/11 15/19/11 17/33/11
f 6/21/12 13/22/12 15/19/12
f 16/25/13 7/24/13 20/34/13
f 16/35/17 12/30/17 11/36/17
f 7/28/15 17/27/15 20/37/15
f 12/30/17 16/35/17 18/29/17
f 21/38/18 13/39/18 19/40/18
f 14/41/19 21/38/19 19/40/19
f 22/42/20 14/41/20 18/43/20
f 23/44/21 17/45/21 15/46/21
f 13/39/22 23/44/22 15/46/22
f 24/47/23 16/48/23 20/49/23
f 17/45/24 24/47/24 20/49/24
f 16/48/25 22/42/25 18/43/25
f 13/39/18 21/38/18 23/44/18
f 14/41/20 22/42/20 21/38/20
f 17/45/21 23/44/21 24/47/21
f 16/48/23 24/47/23 22/42/23
f 21/38/26 25/50/26 23/44/26
f 25/50/26 21/38/26 22/51/26
f 23/44/26 26/52/26 24/53/26
f 24/53/26 27/54/26 22/51/26
f 26/52/26 23/44/26 25/50/26
f 25/50/26 22/51/26 28/55/26
f 24/53/26 26/52/26 27/54/26
f 28/55/26 22/51/26 27/54/26
f 25/56/13 29/57/13 26/58/13
f 30/59/11 25/60/11 28/61/11
f 29/62/16 27/63/16 26/64/16
f 27/65/9 30/66/9 28/67/9
f 29/57/13 25/56/13 31/68/13
f 25/60/11 30/59/11 31/69/11
f 27/63/16 29/62/16 32/70/16
f 30/66/9 27/65/9 32/71/9
f 30/55/26 29/52/26 31/50/26
f 29/52/26 30/55/26 32/54/26
usemtl material_1_0
f 3//26 2//26 1//26
f 4//26 1//26 2//26
f 2//23 3//23 5//23
f 3//20 1//20 6//20
f 1//18 4//18 7//18
f 2//21 8//21 4//21
f 9//23 5//23 3//23
f 5//24 8//24 2//24
f 10//20 6//20 1//20
f 6//25 9//25 3//25
f 11//18 7//18 4//18
f 7//19 10//19 1//19
f 12//21 4//21 8//21
f 9//13 13//13 5//13
f 8//15 5//15 14//15
f 6//16 10//16 15//16
f 9//17 6//17 13//17
f 11//9 16//9 7//9
f 12//22 11//22 4//22
f 10//10 7//10 17//10
f 12//11 8//11 18//11
f 19//13 5//13 13//13
f 19//15 14//15 5//15
f 14//11 18//11 8//11
f 17//16 15//16 10//16
f 15//17 13//17 6//17
f 20//9 7//9 16//9
f 11//12 12//12 16//12
f 20//10 17//10 7//10
f 18//12 16//12 12//12
f 19//4 13//4 21//4
f 19//8 21//8 14//8
f 18//3 14//3 22//3
f 15//5 17//5 23//5
f 15//14 23//14 13//14
f 20//2 16//2 24//2
f 20//6 24//6 17//6
f 18//7 22//7 16//7
f 23//4 21//4 13//4
f 21//3 22//3 14//3
f 24//5 23//5 17//5
f 22//2 24//2 16//2
f 23//1 25//1 21//1
f 22//1 21//1 25//1
f 24//1 26//1 23//1
f 22//1 27//1 24//1
f 25//1 23//1 26//1
f 28//1 22//1 25//1
f 27//1 26//1 24//1
f 27//1 22//1 28//1
f 26//9 29//9 25//9
f 28//16 25//16 30//16
f 26//11 27//11 29//11
f 28//13 30//13 27//13
f 31//9 25//9 29//9
f 31//16 30//16 25//16
f 32//11 29//11 27//11
f 32//13 27//13 30//13
f 31//1 29//1 30//1
f 32//1 30//1 29//1
