# SSTK version 0.8.0
# 56
mtllib original-56.mtl
o mesh53/mesh53-geometry#mesh53-geometry
v 0.021940 0.552577 0.185429
v 0.022320 0.567799 0.189286
v 0.022320 0.552577 0.189286
v 0.021940 0.567799 0.185429
v 0.021940 0.567799 0.193143
v 0.020815 0.552577 0.181721
v 0.021940 0.552577 0.193143
v 0.020815 0.567799 0.181721
v 0.020815 0.567799 0.196851
v 0.018988 0.552577 0.178303
v 0.020815 0.552577 0.196851
v 0.018988 0.567799 0.178303
v 0.018988 0.567799 0.200269
v 0.016530 0.552577 0.175308
v 0.018988 0.552577 0.200269
v 0.016530 0.567799 0.175308
v 0.017427 0.567799 0.189286
v 0.016530 0.567799 0.203264
v 0.013534 0.567799 0.172849
v 0.017141 0.567799 0.186384
v 0.017141 0.567799 0.192188
v 0.016530 0.552577 0.203264
v 0.013534 0.552577 0.172849
v 0.014920 0.567799 0.181022
v 0.016294 0.567799 0.183593
v 0.017141 0.547731 0.192188
v 0.017427 0.547731 0.189286
v 0.013534 0.552577 0.205723
v 0.016294 0.567799 0.194979
v 0.010117 0.567799 0.171022
v 0.013070 0.567799 0.178768
v 0.017141 0.547731 0.186384
v 0.016294 0.547731 0.194979
v 0.013534 0.567799 0.205723
v 0.014920 0.567799 0.197550
v 0.010117 0.552577 0.171022
v 0.010816 0.567799 0.176918
v 0.014920 0.547731 0.181022
v 0.016294 0.547731 0.183593
v 0.010117 0.552577 0.207550
v 0.014920 0.547731 0.197550
v 0.006408 0.567799 0.169897
v 0.008244 0.567799 0.175543
v 0.010816 0.547731 0.176918
v 0.013070 0.547731 0.178768
v 0.013070 0.567799 0.199804
v 0.010117 0.567799 0.207550
v 0.013070 0.547731 0.199804
v 0.006408 0.552577 0.169897
v 0.008244 0.547731 0.175543
v 0.010816 0.567799 0.201654
v 0.006408 0.552577 0.208675
v 0.002552 0.567799 0.169517
v 0.005454 0.567799 0.174697
v 0.005454 0.547731 0.174697
v 0.008244 0.567799 0.203029
v 0.006408 0.567799 0.208675
v 0.002552 0.552577 0.169517
v 0.010816 0.547731 0.201654
v 0.002552 0.552577 0.209055
v -0.001305 0.567799 0.169897
v 0.002552 0.567799 0.174411
v 0.002552 0.547731 0.174411
v 0.005454 0.567799 0.203876
v 0.008244 0.547731 0.203029
v 0.002552 0.567799 0.209055
v -0.001305 0.552577 0.169897
v -0.000351 0.567799 0.174697
v 0.002552 0.567799 0.204161
v -0.001305 0.552577 0.208675
v -0.005014 0.567799 0.171022
v -0.003141 0.567799 0.175543
v -0.000351 0.547731 0.174697
v 0.005454 0.547731 0.203876
v -0.000351 0.567799 0.203876
v -0.001305 0.567799 0.208675
v -0.005014 0.552577 0.171022
v -0.003141 0.547731 0.175543
v 0.002552 0.547731 0.204161
v -0.005014 0.552577 0.207550
v -0.008431 0.567799 0.172849
v -0.005713 0.567799 0.176918
v -0.005713 0.547731 0.176918
v -0.003141 0.567799 0.203029
v -0.000351 0.547731 0.203876
v -0.005014 0.567799 0.207550
v -0.008431 0.552577 0.172849
v -0.007967 0.567799 0.178768
v -0.008431 0.552577 0.205723
v -0.011427 0.567799 0.175308
v -0.009817 0.567799 0.181022
v -0.007967 0.547731 0.178768
v -0.005713 0.567799 0.201654
v -0.003141 0.547731 0.203029
v -0.008431 0.567799 0.205723
v -0.011427 0.552577 0.175308
v -0.011191 0.567799 0.183593
v -0.007967 0.567799 0.199804
v -0.011427 0.552577 0.203264
v -0.013885 0.552577 0.178303
v -0.012038 0.567799 0.186384
v -0.009817 0.547731 0.181022
v -0.005713 0.547731 0.201654
v -0.009817 0.567799 0.197550
v -0.011427 0.567799 0.203264
v -0.013885 0.567799 0.178303
v -0.012324 0.567799 0.189286
v -0.011191 0.547731 0.183593
v -0.007967 0.547731 0.199804
v -0.011191 0.567799 0.194979
v -0.009817 0.547731 0.197550
v -0.013885 0.567799 0.200269
v -0.015712 0.552577 0.181721
v -0.012038 0.547731 0.186384
v -0.011191 0.547731 0.194979
v -0.012038 0.567799 0.192188
v -0.013885 0.552577 0.200269
v -0.015712 0.567799 0.181721
v -0.012324 0.547731 0.189286
v -0.012038 0.547731 0.192188
v -0.015712 0.567799 0.196851
v -0.016837 0.552577 0.185429
v -0.015712 0.552577 0.196851
v -0.016837 0.567799 0.185429
v -0.016837 0.567799 0.193143
v -0.017217 0.552577 0.189286
v -0.016837 0.552577 0.193143
v -0.017217 0.567799 0.189286
vn 0.9807857520868168 0 -0.19508795068762494
vn 1 0 9.999999999995e-7
vn 0.9807857520868168 0 0.19508795068762494
vn 0.9238789002829841 0 -0.3826849586956666
vn 0 1 0
vn 0.9238804609420926 0 0.38268119092715597
vn 0.8314703015489732 0 -0.555569201488041
vn 0.8314690690111041 0 0.5555710461118432
vn 0.7071067811865475 0 -0.7071067811865475
vn 0.7071067811865475 0 0.7071067811865475
vn 0.555569201488041 0 -0.8314703015489732
vn -1 0 9.999999999995e-7
vn -0.9807853313461202 0 -0.19509006590875128
vn -0.9807855607469484 0 0.1950889126277918
vn 0.5555710461118432 0 0.8314690690111041
vn 0.3826849586956666 0 -0.9238789002829841
vn -0.9238792538372458 0 0.3826841051430464
vn -0.9238797538373538 0 -0.38268289803626016
vn -0.7071067811865475 0 0.7071067811865475
vn -0.8314682984107 0 0.5555721993926758
vn 0.38268787290402084 0 0.9238776931673347
vn -0.8314703015489732 0 -0.555569201488041
vn 0.1950889126277918 0 -0.9807855607469484
vn -0.5555721993926758 0 0.8314682984107
vn -0.7071062811861719 0 -0.7071072811865696
vn -0.38268616580264414 0 0.9238784002796424
vn 0.19509295172679128 0 0.980784757317592
vn 9.999999999995e-7 0 -1
vn -0.19509006590875128 0 0.9807853313461202
vn -0.5555740440111886 0 -0.8314670658667449
vn -0.3826890800107278 0 -0.9238771931596444
vn -9.999999999995e-7 0 1
vn -0.19508795068762494 0 -0.9807857520868168
vn 0 0 1
vn -0.19509006590875128 0 -0.9807853313461202
vn -0.19508698874689506 0 0.9807859434258164
vn -0.3826849586956666 0 -0.9238789002829841
vn 0.19509006590875128 0 0.9807853313461202
vn 0 0 -1
vn 0.38268289803626016 0 0.9238797538373538
vn 0.19509006590875128 0 -0.9807853313461202
vn -0.38268119092715597 0 0.9238804609420926
vn -0.5555721993926758 0 -0.8314682984107
vn 0.555569201488041 0 0.8314703015489732
vn 0.38268289803626016 0 -0.9238797538373538
vn -0.5555710461118432 0 0.8314690690111041
vn 0.707110781173996 0 0.7071027811764716
vn 0.8314718427383406 0 0.5555668949220319
vn -0.8314706102058378 0 -0.5555687395488803
vn 0.9238792538372458 0 0.3826841051430464
vn 0.707110781173996 0 -0.7071027811764716
vn 0.8314718427383406 0 -0.5555668949220319
vn -0.8314706102058378 0 0.5555687395488803
vn -0.9238789002829841 0 -0.3826849586956666
vn 1 0 0
vn 0.9238784002796424 0 -0.38268616580264414
vn 0.9807853313461202 0 -0.19509006590875128
vn -0.9238789002829841 0 0.3826849586956666
vn -0.980784757317592 0 -0.19509295172679128
vn -0.9807845659730116 0 0.19509391366501191
vn -1 0 -9.999999999995e-7
vn -0.9807857520868168 0 0.19508795068762494
vn -0.9807857520868168 0 -0.19508795068762494
vn 0 -1 0
vn -0.9238804609420926 0 -0.38268119092715597
vn -0.8314703015489732 0 0.555569201488041
vn -0.8314690690111041 0 -0.5555710461118432
vn -0.7071067811865475 0 -0.7071067811865475
vn -0.555569201488041 0 0.8314703015489732
vn 0.9807853313461202 0 0.19509006590875128
vn 1 0 -9.999999999995e-7
vn 0.9807855607469484 0 -0.1950889126277918
vn -0.5555710461118432 0 -0.8314690690111041
vn -0.3826849586956666 0 0.9238789002829841
vn 0.9238792538372458 0 -0.3826841051430464
vn 0.9238797538373538 0 0.38268289803626016
vn 0.8314682984107 0 -0.5555721993926758
vn -0.38268787290402084 0 -0.9238776931673347
vn 0.8314703015489732 0 0.555569201488041
vn -0.1950889126277918 0 0.9807855607469484
vn 0.5555721993926758 0 -0.8314682984107
vn 0.7071062811861719 0 0.7071072811865696
vn 0.38268616580264414 0 -0.9238784002796424
vn -0.19509295172679128 0 -0.980784757317592
vn 0.5555740440111886 0 0.8314670658667449
vn 0.3826890800107278 0 0.9238771931596444
vn 0.19508795068762494 0 0.9807857520868168
vn 0.19508698874689506 0 -0.9807859434258164
vn 0.3826849586956666 0 0.9238789002829841
vn -0.38268289803626016 0 -0.9238797538373538
vn 0.38268119092715597 0 -0.9238804609420926
vn 0.5555721993926758 0 0.8314682984107
vn -0.555569201488041 0 -0.8314703015489732
vn -0.38268289803626016 0 0.9238797538373538
vn 0.5555710461118432 0 -0.8314690690111041
vn -0.707110781173996 0 -0.7071027811764716
vn -0.8314718427383406 0 -0.5555668949220319
vn 0.8314706102058378 0 0.5555687395488803
vn -0.9238792538372458 0 -0.3826841051430464
vn -0.707110781173996 0 0.7071027811764716
vn -0.8314718427383406 0 0.5555668949220319
vn 0.8314706102058378 0 -0.5555687395488803
vn 0.9238789002829841 0 0.3826849586956666
vn -1 0 0
vn -0.9238784002796424 0 0.38268616580264414
vn -0.9807853313461202 0 0.19509006590875128
vn 0.980784757317592 0 0.19509295172679128
vn 0.9807845659730116 0 -0.19509391366501191
usemtl material_0_0
f 1//1 2//2 3//2
f 2//2 1//1 4//1
f 5//3 3//2 2//2
f 6//4 4//1 1//1
f 4//5 5//5 2//5
f 3//2 5//3 7//3
f 4//1 6//4 8//4
f 8//5 5//5 4//5
f 9//6 7//3 5//3
f 10//7 8//4 6//4
f 8//5 9//5 5//5
f 7//3 9//6 11//6
f 8//4 10//7 12//7
f 8//5 13//5 9//5
f 13//8 11//6 9//6
f 14//9 12//7 10//7
f 12//5 13//5 8//5
f 11//6 13//8 15//8
f 12//7 14//9 16//9
f 17//5 13//5 12//5
f 18//10 15//8 13//8
f 14//9 19//11 16//9
f 16//5 20//5 12//5
f 21//5 13//5 17//5
f 12//5 20//5 17//5
f 15//8 18//10 22//10
f 21//5 18//5 13//5
f 19//11 14//9 23//11
f 19//5 24//5 16//5
f 16//5 25//5 20//5
f 17//12 26//13 21//13
f 20//14 27//12 17//12
f 18//10 28//15 22//10
f 29//5 18//5 21//5
f 23//11 30//16 19//11
f 19//5 31//5 24//5
f 16//5 24//5 25//5
f 25//17 32//14 20//14
f 26//13 17//12 27//12
f 33//18 21//13 26//13
f 27//12 20//14 32//14
f 28//15 18//10 34//15
f 35//5 18//5 29//5
f 21//13 33//18 29//18
f 30//16 23//11 36//16
f 30//5 37//5 19//5
f 19//5 37//5 31//5
f 31//19 38//20 24//20
f 24//20 39//17 25//17
f 32//14 25//17 39//17
f 35//5 34//5 18//5
f 34//15 40//21 28//15
f 29//18 41//22 35//22
f 41//22 29//18 33//18
f 36//16 42//23 30//16
f 30//5 43//5 37//5
f 44//24 31//19 37//24
f 38//20 31//19 45//19
f 39//17 24//20 38//20
f 46//5 34//5 35//5
f 40//21 34//15 47//21
f 48//25 35//22 41//22
f 42//23 36//16 49//23
f 42//5 43//5 30//5
f 50//26 37//24 43//26
f 31//19 44//24 45//19
f 37//24 50//26 44//24
f 51//5 34//5 46//5
f 35//22 48//25 46//25
f 51//5 47//5 34//5
f 47//21 52//27 40//21
f 49//23 53//28 42//23
f 42//5 54//5 43//5
f 43//26 55//29 50//26
f 48//25 51//30 46//25
f 56//5 47//5 51//5
f 52//27 47//21 57//27
f 53//28 49//23 58//28
f 53//5 54//5 42//5
f 55//29 43//26 54//29
f 51//30 48//25 59//30
f 56//5 57//5 47//5
f 59//30 56//31 51//30
f 57//27 60//32 52//27
f 58//28 61//33 53//28
f 53//5 62//5 54//5
f 54//29 63//34 55//29
f 64//5 57//5 56//5
f 56//31 59//30 65//31
f 60//32 57//27 66//32
f 61//33 58//28 67//33
f 61//5 68//5 53//5
f 53//5 68//5 62//5
f 63//34 54//29 62//34
f 69//5 57//5 64//5
f 65//31 64//35 56//31
f 69//5 66//5 57//5
f 66//32 70//36 60//32
f 67//33 71//37 61//33
f 61//5 72//5 68//5
f 73//38 62//34 68//38
f 62//34 73//38 63//34
f 74//35 69//39 64//35
f 64//35 65//31 74//35
f 75//5 66//5 69//5
f 70//36 66//32 76//36
f 71//37 67//33 77//37
f 71//5 72//5 61//5
f 78//40 68//38 72//40
f 68//38 78//40 73//38
f 69//39 74//35 79//39
f 75//5 76//5 66//5
f 79//39 75//41 69//39
f 76//36 80//42 70//36
f 77//37 81//43 71//37
f 71//5 82//5 72//5
f 72//40 83//44 78//40
f 84//5 76//5 75//5
f 75//41 79//39 85//41
f 80//42 76//36 86//42
f 81//43 77//37 87//43
f 81//5 88//5 71//5
f 71//5 88//5 82//5
f 83//44 72//40 82//44
f 84//5 86//5 76//5
f 85//41 84//45 75//41
f 86//42 89//46 80//42
f 87//43 90//25 81//43
f 81//5 91//5 88//5
f 92//47 82//44 88//47
f 82//44 92//47 83//44
f 93//5 86//5 84//5
f 84//45 85//41 94//45
f 89//46 86//42 95//46
f 90//25 87//43 96//25
f 90//5 97//5 81//5
f 81//5 97//5 91//5
f 91//48 92//47 88//47
f 98//5 86//5 93//5
f 94//45 93//11 84//45
f 98//5 95//5 86//5
f 95//46 99//19 89//46
f 100//49 90//25 96//25
f 90//5 101//5 97//5
f 97//50 102//48 91//48
f 92//47 91//48 102//48
f 103//11 98//51 93//11
f 93//11 94//45 103//11
f 104//5 95//5 98//5
f 99//19 95//46 105//19
f 90//25 100//49 106//49
f 90//5 107//5 101//5
f 101//3 108//50 97//50
f 102//48 97//50 108//50
f 98//51 103//11 109//51
f 110//5 95//5 104//5
f 98//51 111//52 104//52
f 110//5 105//5 95//5
f 112//53 99//19 105//19
f 113//54 106//49 100//49
f 107//5 90//5 106//5
f 107//55 114//3 101//3
f 108//50 101//3 114//3
f 111//52 98//51 109//51
f 104//52 115//56 110//56
f 115//56 104//52 111//52
f 116//5 105//5 110//5
f 99//19 112//53 117//53
f 106//5 112//5 105//5
f 106//49 113//54 118//54
f 106//5 105//5 107//5
f 114//3 107//55 119//55
f 120//57 110//56 115//56
f 107//5 105//5 116//5
f 110//56 120//57 116//57
f 121//58 117//53 112//53
f 118//5 112//5 106//5
f 122//59 118//54 113//54
f 116//57 119//55 107//55
f 119//55 116//57 120//57
f 117//53 121//58 123//58
f 118//5 121//5 112//5
f 118//54 122//59 124//59
f 125//60 123//58 121//58
f 124//5 121//5 118//5
f 126//12 124//59 122//59
f 123//58 125//60 127//60
f 124//5 125//5 121//5
f 124//59 126//12 128//12
f 128//12 127//60 125//60
f 125//5 124//5 128//5
f 127//60 128//12 126//12
usemtl material_1_0
f 3//61 2//61 1//62
f 4//62 1//62 2//61
f 2//61 3//61 5//63
f 1//62 4//62 6//58
f 2//64 5//64 4//64
f 7//63 5//63 3//61
f 8//58 6//58 4//62
f 4//64 5//64 8//64
f 5//63 7//63 9//65
f 6//58 8//58 10//66
f 5//64 9//64 8//64
f 11//65 9//65 7//63
f 12//66 10//66 8//58
f 9//64 13//64 8//64
f 9//65 11//65 13//67
f 10//66 12//66 14//19
f 8//64 13//64 12//64
f 15//67 13//67 11//65
f 16//19 14//19 12//66
f 12//64 13//64 17//64
f 13//67 15//67 18//68
f 16//19 19//69 14//19
f 12//64 20//64 16//64
f 17//64 13//64 21//64
f 17//64 20//64 12//64
f 22//68 18//68 15//67
f 13//64 18//64 21//64
f 23//69 14//19 19//69
f 16//64 24//64 19//64
f 20//64 25//64 16//64
f 21//70 26//70 17//71
f 17//71 27//71 20//72
f 22//68 28//73 18//68
f 21//64 18//64 29//64
f 19//69 30//74 23//69
f 24//64 31//64 19//64
f 25//64 24//64 16//64
f 20//72 32//72 25//75
f 27//71 17//71 26//70
f 26//70 21//70 33//76
f 32//72 20//72 27//71
f 34//73 18//68 28//73
f 29//64 18//64 35//64
f 29//76 33//76 21//70
f 36//74 23//69 30//74
f 19//64 37//64 30//64
f 31//64 37//64 19//64
f 24//77 38//77 31//9
f 25//75 39//75 24//77
f 39//75 25//75 32//72
f 18//64 34//64 35//64
f 28//73 40//78 34//73
f 35//79 41//79 29//76
f 33//76 29//76 41//79
f 30//74 42//80 36//74
f 37//64 43//64 30//64
f 37//81 31//9 44//81
f 45//9 31//9 38//77
f 38//77 24//77 39//75
f 35//64 34//64 46//64
f 47//78 34//73 40//78
f 41//79 35//79 48//82
f 49//80 36//74 42//80
f 30//64 43//64 42//64
f 43//83 37//81 50//83
f 45//9 44//81 31//9
f 44//81 50//83 37//81
f 46//64 34//64 51//64
f 46//82 48//82 35//79
f 34//64 47//64 51//64
f 40//78 52//84 47//78
f 42//80 53//32 49//80
f 43//64 54//64 42//64
f 50//83 55//41 43//83
f 46//82 51//85 48//82
f 51//64 47//64 56//64
f 57//84 47//78 52//84
f 58//32 49//80 53//32
f 42//64 54//64 53//64
f 54//41 43//83 55//41
f 59//85 48//82 51//85
f 47//64 57//64 56//64
f 51//85 56//86 59//85
f 52//84 60//28 57//84
f 53//32 61//87 58//32
f 54//64 62//64 53//64
f 55//41 63//39 54//41
f 56//64 57//64 64//64
f 65//86 59//85 56//86
f 66//28 57//84 60//28
f 67//87 58//32 61//87
f 53//64 68//64 61//64
f 62//64 68//64 53//64
f 62//39 54//41 63//39
f 64//64 57//64 69//64
f 56//86 64//38 65//86
f 57//64 66//64 69//64
f 60//28 70//88 66//28
f 61//87 71//89 67//87
f 68//64 72//64 61//64
f 68//35 62//39 73//35
f 63//39 73//35 62//39
f 64//38 69//34 74//38
f 74//38 65//86 64//38
f 69//64 66//64 75//64
f 76//88 66//28 70//88
f 77//89 67//87 71//89
f 61//64 72//64 71//64
f 72//90 68//35 78//90
f 73//35 78//90 68//35
f 79//34 74//38 69//34
f 66//64 76//64 75//64
f 69//34 75//29 79//34
f 70//88 80//91 76//88
f 71//89 81//92 77//89
f 72//64 82//64 71//64
f 78//90 83//93 72//90
f 75//64 76//64 84//64
f 85//29 79//34 75//29
f 86//91 76//88 80//91
f 87//92 77//89 81//92
f 71//64 88//64 81//64
f 82//64 88//64 71//64
f 82//93 72//90 83//93
f 76//64 86//64 84//64
f 75//29 84//94 85//29
f 80//91 89//95 86//91
f 81//92 90//82 87//92
f 88//64 91//64 81//64
f 88//96 82//93 92//96
f 83//93 92//96 82//93
f 84//64 86//64 93//64
f 94//94 85//29 84//94
f 95//95 86//91 89//95
f 96//82 87//92 90//82
f 81//64 97//64 90//64
f 91//64 97//64 81//64
f 88//96 92//96 91//97
f 93//64 86//64 98//64
f 84//94 93//69 94//94
f 86//64 95//64 98//64
f 89//95 99//9 95//95
f 96//82 90//82 100//98
f 97//64 101//64 90//64
f 91//97 102//97 97//99
f 102//97 91//97 92//96
f 93//69 98//100 103//69
f 103//69 94//94 93//69
f 98//64 95//64 104//64
f 105//9 95//95 99//9
f 106//98 100//98 90//82
f 101//64 107//64 90//64
f 97//99 108//99 101//63
f 108//99 97//99 102//97
f 109//100 103//69 98//100
f 104//64 95//64 110//64
f 104//101 111//101 98//100
f 95//64 105//64 110//64
f 105//9 99//9 112//102
f 100//98 106//98 113//103
f 106//64 90//64 107//64
f 101//63 114//63 107//104
f 114//63 101//63 108//99
f 109//100 98//100 111//101
f 110//105 115//105 104//101
f 111//101 104//101 115//105
f 110//64 105//64 116//64
f 117//102 112//102 99//9
f 105//64 112//64 106//64
f 118//103 113//103 106//98
f 107//64 105//64 106//64
f 119//104 107//104 114//63
f 115//105 110//105 120//106
f 116//64 105//64 107//64
f 116//106 120//106 110//105
f 112//102 117//102 121//4
f 106//64 112//64 118//64
f 113//103 118//103 122//107
f 107//104 119//104 116//106
f 120//106 116//106 119//104
f 123//4 121//4 117//102
f 112//64 121//64 118//64
f 124//107 122//107 118//103
f 121//4 123//4 125//108
f 118//64 121//64 124//64
f 122//107 124//107 126//71
f 127//108 125//108 123//4
f 121//64 125//64 124//64
f 128//71 126//71 124//107
f 125//108 127//108 128//71
f 128//64 124//64 125//64
f 126//71 128//71 127//108
