# SSTK version 0.8.0
# 73
mtllib original-73.mtl
o mesh70/mesh70-geometry#mesh70-geometry
v -0.514291 -0.773527 -0.290114
v -0.525538 -0.679592 -0.291221
v -0.525538 -0.773527 -0.291221
v -0.514291 -0.679592 -0.290114
v -0.536352 -0.773527 -0.294502
v -0.514291 -0.773527 -0.405410
v -0.503044 -0.773527 -0.291221
v -0.525538 -0.679592 -0.404302
v -0.536352 -0.679592 -0.294502
v -0.536352 -0.773527 -0.401022
v -0.525538 -0.773527 -0.404302
v -0.503044 -0.773527 -0.404302
v -0.503044 -0.679592 -0.291221
v -0.536352 -0.679592 -0.401022
v -0.514291 -0.679592 -0.405410
v -0.546319 -0.679592 -0.299829
v -0.546319 -0.773527 -0.395695
v -0.492230 -0.679592 -0.294502
v -0.492230 -0.773527 -0.294502
v -0.546319 -0.679592 -0.395695
v -0.546319 -0.773527 -0.299829
v -0.503044 -0.679592 -0.404302
v -0.492230 -0.773527 -0.401022
v -0.555054 -0.773527 -0.306998
v -0.555054 -0.679592 -0.388525
v -0.482263 -0.679592 -0.299829
v -0.492230 -0.679592 -0.401022
v -0.482263 -0.773527 -0.299829
v -0.555054 -0.679592 -0.306998
v -0.555054 -0.773527 -0.388525
v -0.482263 -0.773527 -0.395695
v -0.562224 -0.679592 -0.315734
v -0.562224 -0.679592 -0.379790
v -0.562224 -0.773527 -0.315734
v -0.562224 -0.773527 -0.379790
v -0.473528 -0.773527 -0.306998
v -0.482263 -0.679592 -0.395695
v -0.473528 -0.679592 -0.306998
v -0.473528 -0.773527 -0.388525
v -0.567551 -0.679592 -0.325701
v -0.567551 -0.679592 -0.369823
v -0.567551 -0.773527 -0.369823
v -0.567551 -0.773527 -0.325701
v -0.466358 -0.773527 -0.315734
v -0.473528 -0.679592 -0.388525
v -0.466358 -0.679592 -0.315734
v -0.466358 -0.773527 -0.379789
v -0.570832 -0.679592 -0.336515
v -0.570832 -0.679592 -0.359008
v -0.570832 -0.773527 -0.359008
v -0.570832 -0.773527 -0.336515
v -0.466358 -0.679592 -0.379789
v -0.461031 -0.773527 -0.325701
v -0.461031 -0.773527 -0.369823
v -0.461031 -0.679592 -0.325701
v -0.461031 -0.679592 -0.369823
v -0.571939 -0.679592 -0.347762
v -0.571939 -0.773527 -0.347762
v -0.457750 -0.773527 -0.336515
v -0.457751 -0.679592 -0.359008
v -0.457751 -0.679592 -0.336515
v -0.457750 -0.773527 -0.359008
v -0.456643 -0.773527 -0.347762
v -0.456643 -0.679592 -0.347762
vt 0.097238 0.01022
vt 0.088483 0.076692
vt 0.088484 0.01022
vt 0.097238 0.076692
vt 0.088484 0.076692
vt 0.080066 0.01022
vt 0.911516 0.786313
vt 0.902762 0.902788
vt 0.902762 0.785183
vt 0.105993 0.01022
vt 0.088484 0.901658
vt 0.088483 0.786313
vt 0.097238 0.785183
vt 0.080066 0.076692
vt 0.919935 0.78966
vt 0.919935 0.898312
vt 0.911516 0.901658
vt 0.894007 0.901658
vt 0.105993 0.076692
vt 0.894007 0.786313
vt 0.080065 0.898312
vt 0.097238 0.902788
vt 0.080065 0.789659
vt 0.072306 0.076692
vt 0.080065 0.01022
vt 0.080065 0.076692
vt 0.927693 0.892878
vt 0.911516 0.076692
vt 0.902762 0.01022
vt 0.911516 0.01022
vt 0.902762 0.076692
vt 0.894007 0.01022
vt 0.114412 0.076692
vt 0.105993 0.786313
vt 0.885589 0.789659
vt 0.919935 0.076692
vt 0.072307 0.892878
vt 0.072306 0.01022
vt 0.072307 0.795093
vt 0.927693 0.795093
vt 0.927693 0.076692
vt 0.919935 0.01022
vt 0.927693 0.01022
vt 0.894007 0.076692
vt 0.114412 0.01022
vt 0.105993 0.901658
vt 0.114411 0.789659
vt 0.885588 0.898312
vt 0.072307 0.076692
vt 0.065506 0.01022
vt 0.072307 0.01022
vt 0.065506 0.885565
vt 0.934494 0.802406
vt 0.927692 0.01022
vt 0.934493 0.076692
vt 0.927692 0.076692
vt 0.885588 0.01022
vt 0.12217 0.076692
vt 0.114412 0.898312
vt 0.87783 0.795093
vt 0.065506 0.076692
vt 0.065506 0.802406
vt 0.934494 0.885565
vt 0.934493 0.01022
vt 0.885588 0.076692
vt 0.122171 0.01022
vt 0.12217 0.795093
vt 0.87783 0.892878
vt 0.059925 0.076692
vt 0.059926 0.876654
vt 0.940074 0.811317
vt 0.940074 0.01022
vt 0.934494 0.076692
vt 0.934494 0.01022
vt 0.87783 0.01022
vt 0.12897 0.01022
vt 0.12217 0.01022
vt 0.12217 0.892878
vt 0.87103 0.802406
vt 0.059925 0.01022
vt 0.059926 0.811317
vt 0.940075 0.076692
vt 0.940074 0.876654
vt 0.87783 0.076692
vt 0.12897 0.076692
vt 0.12897 0.802406
vt 0.87103 0.885565
vt 0.178517 0.076692
vt 0.188683 0.01022
vt 0.188683 0.076692
vt 0.055779 0.866488
vt 0.133512 0.01022
vt 0.123346 0.076692
vt 0.123346 0.01022
vt 0.944221 0.821483
vt 0.877829 0.076692
vt 0.871029 0.01022
vt 0.877829 0.01022
vt 0.134552 0.01022
vt 0.128971 0.076691
vt 0.128971 0.01022
vt 0.12897 0.885565
vt 0.865449 0.811317
vt 0.178517 0.01022
vt 0.055779 0.821483
vt 0.133512 0.076692
vt 0.944221 0.866488
vt 0.871029 0.076692
vt 0.134552 0.076691
vt 0.134551 0.811317
vt 0.865449 0.876654
vt 0.167486 0.076692
vt 0.053225 0.855457
vt 0.144543 0.01022
vt 0.946775 0.832514
vt 0.865449 0.076692
vt 0.87103 0.01022
vt 0.87103 0.076692
vt 0.821486 0.01022
vt 0.811319 0.076691
vt 0.811319 0.01022
vt 0.134551 0.876654
vt 0.865449 0.01022
vt 0.861302 0.866488
vt 0.167486 0.01022
vt 0.053225 0.832514
vt 0.144543 0.076692
vt 0.946775 0.855457
vt 0.821486 0.076691
vt 0.861302 0.821483
vt 0.138698 0.821483
vt 0.866488 0.076692
vt 0.876654 0.01022
vt 0.876654 0.076692
vt 0.866488 0.01022
vt 0.156014 0.076692
vt 0.052363 0.843986
vt 0.156014 0.01022
vt 0.947637 0.843986
vt 0.832517 0.01022
vt 0.858748 0.832514
vt 0.138698 0.866488
vt 0.855453 0.076692
vt 0.866484 0.01022
vt 0.866484 0.076692
vt 0.832517 0.076691
vt 0.858748 0.855457
vt 0.141252 0.832514
vt 0.855453 0.01022
vt 0.141252 0.855457
vt 0.84399 0.01022
vt 0.832518 0.076691
vt 0.832518 0.01022
vt 0.857886 0.843985
vt 0.843981 0.076692
vt 0.142114 0.843985
vt 0.84399 0.076691
vt 0.843981 0.01022
vn 0 0 1
vn -0.19509102784866092 0 0.9807851400041463
vn -0.3826841051430464 0 0.9238792538372458
vn 9.999999999995e-7 -1 0
vn 0.19508910396827864 0 0.9807855226872256
vn -9.999999999995e-7 1 0
vn -0.5555710461118432 0 0.8314690690111041
vn -0.19509006590875128 0 -0.9807853313461202
vn 0 0 -1
vn 0.19509006590875128 0 -0.9807853313461202
vn 0.38268119092715597 0 0.9238804609420926
vn -0.38268289803626016 0 -0.9238797538373538
vn -0.555569201488041 0 -0.8314703015489732
vn -0.7071067811865475 0 0.7071067811865475
vn -0.7071062811861719 0 -0.7071072811865696
vn 0.3826841051430464 0 -0.9238792538372458
vn 0.555569201488041 0 0.8314703015489732
vn -0.8314690690111041 0 0.5555710461118432
vn -0.8314690690111041 0 -0.5555710461118432
vn 0.5555717374521371 0 -0.8314686070708945
vn 0.70710578118615 0 0.707107781185531
vn -0.9238792538372458 0 0.3826841051430464
vn -0.9238792538372458 0 -0.3826841051430464
vn 0.707108281185553 0 -0.7071052811843601
vn 0.8314690690111041 0 0.5555710461118432
vn -0.9807855226872256 0 0.19508910396827864
vn -0.9807855226872256 0 -0.19508910396827864
vn 0.8314698396094834 0 -0.555569892830578
vn 0.9238792538372458 0 0.3826841051430464
vn 0.9238801073899822 0 -0.382682044482198
vn -1 0 0
vn 0.980784757317592 0 0.19509295172679128
vn 0.9807855607469484 0 -0.1950889126277918
vn 1 0 0
vn 0.19509102784866092 0 -0.9807851400041463
vn -0.19508910396827864 0 -0.9807855226872256
vn 0.5555710461118432 0 -0.8314690690111041
vn 0.19509006590875128 0 0.9807853313461202
vn -0.19509006590875128 0 0.9807853313461202
vn -0.38268119092715597 0 -0.9238804609420926
vn 0.38268289803626016 0 0.9238797538373538
vn 0.7071067811865475 0 -0.7071067811865475
vn 0.7071062811861719 0 0.7071072811865696
vn 0.8314690690111041 0 -0.5555710461118432
vn -0.5555717374521371 0 0.8314686070708945
vn -0.70710578118615 0 -0.707107781185531
vn 0.9238792538372458 0 -0.3826841051430464
vn -0.707108281185553 0 0.7071052811843601
vn 0.9807855226872256 0 -0.19508910396827864
vn 0.9807855226872256 0 0.19508910396827864
vn -0.8314698396094834 0 0.555569892830578
vn -0.9238801073899822 0 0.382682044482198
vn -0.980784757317592 0 -0.19509295172679128
vn -0.9807855607469484 0 0.1950889126277918
usemtl material_0_0
f 1/1/1 2/2/2 3/3/2
f 2/2/2 1/1/1 4/4/1
f 2/5/2 5/6/3 3/3/2
f 3/7/4 6/8/4 1/9/4
f 7/10/5 4/4/1 1/1/1
f 8/11/6 2/12/6 4/13/6
f 5/6/3 2/5/2 9/14/3
f 5/15/4 10/16/4 3/7/4
f 3/7/4 11/17/4 6/8/4
f 1/9/4 6/8/4 12/18/4
f 4/4/1 7/10/5 13/19/5
f 1/9/4 12/18/4 7/20/4
f 14/21/6 2/12/6 8/11/6
f 8/11/6 4/13/6 15/22/6
f 14/21/6 9/23/6 2/12/6
f 16/24/7 5/25/3 9/26/3
f 5/15/4 17/27/4 10/16/4
f 3/7/4 10/16/4 11/17/4
f 8/28/8 6/29/9 11/30/8
f 15/31/9 12/32/10 6/29/9
f 7/10/5 18/33/11 13/19/5
f 15/22/6 4/13/6 13/34/6
f 7/20/4 12/18/4 19/35/4
f 11/30/8 14/36/12 8/28/8
f 6/29/9 8/28/8 15/31/9
f 20/37/6 9/23/6 14/21/6
f 5/25/3 16/24/7 21/38/7
f 20/37/6 16/39/6 9/23/6
f 21/40/4 17/27/4 5/15/4
f 20/41/13 10/42/12 17/43/13
f 14/36/12 11/30/8 10/42/12
f 12/32/10 15/31/9 22/44/10
f 18/33/11 7/10/5 19/45/11
f 22/46/6 13/34/6 18/47/6
f 15/22/6 13/34/6 22/46/6
f 19/35/4 12/18/4 23/48/4
f 10/42/12 20/41/13 14/36/12
f 16/49/7 24/50/14 21/51/7
f 25/52/6 16/39/6 20/37/6
f 24/53/4 17/27/4 21/40/4
f 17/54/13 25/55/15 20/56/13
f 22/44/10 23/57/16 12/32/10
f 19/45/11 26/58/17 18/33/11
f 22/46/6 18/47/6 27/59/6
f 19/35/4 23/48/4 28/60/4
f 24/50/14 16/49/7 29/61/14
f 25/52/6 29/62/6 16/39/6
f 24/53/4 30/63/4 17/27/4
f 25/55/15 17/54/13 30/64/15
f 23/57/16 22/44/10 27/65/16
f 26/58/17 19/45/11 28/66/17
f 27/59/6 18/47/6 26/67/6
f 28/60/4 23/48/4 31/68/4
f 32/69/18 24/50/14 29/61/14
f 33/70/6 29/62/6 25/52/6
f 34/71/4 30/63/4 24/53/4
f 35/72/19 25/73/15 30/74/15
f 27/65/16 31/75/20 23/57/16
f 36/76/21 26/58/17 28/77/17
f 27/59/6 26/67/6 37/78/6
f 28/60/4 31/68/4 36/79/4
f 24/50/14 32/69/18 34/80/18
f 33/70/6 32/81/6 29/62/6
f 25/73/15 35/72/19 33/82/19
f 34/71/4 35/83/4 30/63/4
f 31/75/20 27/65/16 37/84/20
f 26/58/17 36/76/21 38/85/21
f 37/78/6 26/67/6 38/86/6
f 36/79/4 31/68/4 39/87/4
f 40/88/22 34/89/18 32/90/18
f 41/91/6 32/81/6 33/70/6
f 42/92/23 33/93/19 35/94/19
f 43/95/4 35/83/4 34/71/4
f 37/96/20 39/97/24 31/98/20
f 44/99/25 38/100/21 36/101/21
f 37/78/6 38/86/6 45/102/6
f 36/79/4 39/87/4 44/103/4
f 34/89/18 40/88/22 43/104/22
f 41/91/6 40/105/6 32/81/6
f 33/93/19 42/92/23 41/106/23
f 43/95/4 42/107/4 35/83/4
f 39/97/24 37/96/20 45/108/24
f 38/100/21 44/99/25 46/109/25
f 45/102/6 38/86/6 46/110/6
f 44/103/4 39/87/4 47/111/4
f 48/112/26 43/104/22 40/88/22
f 49/113/6 40/105/6 41/91/6
f 50/114/27 41/106/23 42/92/23
f 51/115/4 42/107/4 43/95/4
f 52/116/28 39/117/24 45/118/24
f 53/119/29 46/120/25 44/121/25
f 45/102/6 46/110/6 52/122/6
f 39/117/24 52/116/28 47/123/28
f 44/103/4 47/111/4 54/124/4
f 43/104/22 48/112/26 51/125/26
f 49/113/6 48/126/6 40/105/6
f 41/106/23 50/114/27 49/127/27
f 51/115/4 50/128/4 42/107/4
f 46/120/25 53/119/29 55/129/29
f 44/103/4 54/124/4 53/130/4
f 52/122/6 46/110/6 55/131/6
f 56/132/30 47/133/28 52/134/28
f 47/133/28 56/132/30 54/135/30
f 57/136/31 51/125/26 48/112/26
f 48/126/6 49/113/6 57/137/6
f 58/138/31 49/127/27 50/114/27
f 50/128/4 51/115/4 58/139/4
f 59/140/32 55/129/29 53/119/29
f 53/130/4 54/124/4 59/141/4
f 52/122/6 55/131/6 56/142/6
f 60/143/33 54/144/30 56/145/30
f 51/125/26 57/136/31 58/138/31
f 49/127/27 58/138/31 57/136/31
f 55/129/29 59/140/32 61/146/32
f 59/141/4 54/124/4 62/147/4
f 56/142/6 55/131/6 61/148/6
f 54/144/30 60/143/33 62/149/33
f 56/142/6 61/148/6 60/150/6
f 63/151/34 61/152/32 59/153/32
f 59/141/4 62/147/4 63/154/4
f 64/155/34 62/149/33 60/143/33
f 60/150/6 61/148/6 64/156/6
f 61/152/32 63/151/34 64/157/34
f 62/149/33 64/155/34 63/158/34
usemtl material_1_0
f 3//35 2//35 1//9
f 4//9 1//9 2//35
f 3//35 5//16 2//35
f 1//6 6//6 3//6
f 1//9 4//9 7//36
f 4//4 2//4 8//4
f 9//16 2//35 5//16
f 3//6 10//6 5//6
f 6//6 11//6 3//6
f 12//6 6//6 1//6
f 13//36 7//36 4//9
f 7//6 12//6 1//6
f 8//4 2//4 14//4
f 15//4 4//4 8//4
f 2//4 9//4 14//4
f 9//16 5//16 16//37
f 10//6 17//6 5//6
f 11//6 10//6 3//6
f 11//38 6//1 8//38
f 6//1 12//39 15//1
f 13//36 18//40 7//36
f 13//4 4//4 15//4
f 19//6 12//6 7//6
f 8//38 14//41 11//38
f 15//1 8//38 6//1
f 14//4 9//4 20//4
f 21//37 16//37 5//16
f 9//4 16//4 20//4
f 5//6 17//6 21//6
f 17//17 10//41 20//17
f 10//41 11//38 14//41
f 22//39 15//1 12//39
f 19//40 7//36 18//40
f 18//4 13//4 22//4
f 22//4 13//4 15//4
f 23//6 12//6 19//6
f 14//41 20//17 10//41
f 21//37 24//42 16//37
f 20//4 16//4 25//4
f 21//6 17//6 24//6
f 20//17 25//43 17//17
f 12//39 23//3 22//39
f 18//40 26//13 19//40
f 27//4 18//4 22//4
f 28//6 23//6 19//6
f 29//42 16//37 24//42
f 16//4 29//4 25//4
f 17//6 30//6 24//6
f 30//43 17//17 25//43
f 27//3 22//39 23//3
f 28//13 19//40 26//13
f 26//4 18//4 27//4
f 31//6 23//6 28//6
f 29//42 24//42 32//44
f 25//4 29//4 33//4
f 24//6 30//6 34//6
f 30//43 25//43 35//25
f 23//3 31//45 27//3
f 28//13 26//13 36//46
f 37//4 26//4 27//4
f 36//6 31//6 28//6
f 34//44 32//44 24//42
f 29//4 32//4 33//4
f 33//25 35//25 25//43
f 30//6 35//6 34//6
f 37//45 27//3 31//45
f 38//46 36//46 26//13
f 38//4 26//4 37//4
f 39//6 31//6 36//6
f 32//44 34//44 40//47
f 33//4 32//4 41//4
f 35//25 33//25 42//29
f 34//6 35//6 43//6
f 31//45 39//48 37//45
f 36//46 38//46 44//19
f 45//4 38//4 37//4
f 44//6 39//6 36//6
f 43//47 40//47 34//44
f 32//4 40//4 41//4
f 41//29 42//29 33//25
f 35//6 42//6 43//6
f 45//48 37//45 39//48
f 46//19 44//19 38//46
f 46//4 38//4 45//4
f 47//6 39//6 44//6
f 40//47 43//47 48//49
f 41//4 40//4 49//4
f 42//29 41//29 50//50
f 43//6 42//6 51//6
f 45//48 39//48 52//51
f 44//19 46//19 53//23
f 52//4 46//4 45//4
f 47//51 52//51 39//48
f 54//6 47//6 44//6
f 51//49 48//49 43//47
f 40//4 48//4 49//4
f 49//50 50//50 41//29
f 42//6 50//6 51//6
f 55//23 53//23 46//19
f 53//6 54//6 44//6
f 55//4 46//4 52//4
f 52//51 47//51 56//52
f 54//52 56//52 47//51
f 48//49 51//49 57//34
f 57//4 49//4 48//4
f 50//50 49//50 58//34
f 58//6 51//6 50//6
f 53//23 55//23 59//53
f 59//6 54//6 53//6
f 56//4 55//4 52//4
f 56//52 54//52 60//54
f 58//34 57//34 51//49
f 57//34 58//34 49//50
f 61//53 59//53 55//23
f 62//6 54//6 59//6
f 61//4 55//4 56//4
f 62//54 60//54 54//52
f 60//4 61//4 56//4
f 59//53 61//53 63//31
f 63//6 62//6 59//6
f 60//54 62//54 64//31
f 64//4 61//4 60//4
f 64//31 63//31 61//53
f 63//31 64//31 62//54
