# SSTK version 0.8.0
# 12
mtllib original-12.mtl
o mesh10/mesh10-geometry#mesh10-geometry
v 0.509000 -0.756915 0.310979
v 0.497535 -0.664909 0.309850
v 0.497535 -0.756915 0.309850
v 0.508999 -0.664909 0.310979
v 0.486512 -0.756915 0.306506
v 0.497703 -0.757769 0.309009
v 0.520464 -0.756915 0.309850
v 0.486512 -0.664909 0.306506
v 0.486840 -0.757769 0.305714
v 0.509000 -0.757769 0.310122
v 0.520464 -0.664909 0.309850
v 0.520296 -0.757769 0.309009
v 0.476352 -0.664909 0.301076
v 0.476829 -0.757769 0.300363
v 0.497703 -0.757769 0.195422
v 0.486840 -0.757769 0.198717
v 0.531487 -0.664909 0.306506
v 0.531159 -0.757769 0.305714
v 0.476352 -0.756915 0.301076
v 0.476829 -0.757769 0.204068
v 0.509000 -0.757769 0.194309
v 0.531487 -0.756915 0.306506
v 0.520296 -0.757769 0.195422
v 0.467447 -0.756915 0.293768
v 0.468054 -0.757769 0.293161
v 0.468054 -0.757769 0.211270
v 0.497535 -0.756915 0.194581
v 0.509000 -0.756915 0.193452
v 0.486512 -0.756915 0.197925
v 0.541647 -0.756915 0.301076
v 0.541170 -0.757768 0.300363
v 0.531159 -0.757769 0.198717
v 0.467447 -0.664909 0.293768
v 0.476352 -0.756915 0.203355
v 0.520464 -0.756915 0.194581
v 0.541647 -0.664909 0.301076
v 0.460139 -0.664909 0.284863
v 0.460852 -0.757769 0.284386
v 0.460852 -0.757769 0.220045
v 0.467447 -0.756915 0.210663
v 0.486512 -0.664909 0.197925
v 0.497535 -0.664909 0.194581
v 0.508999 -0.664909 0.193452
v 0.476352 -0.664909 0.203355
v 0.550552 -0.664909 0.293768
v 0.549945 -0.757768 0.293161
v 0.541170 -0.757768 0.204068
v 0.531487 -0.756915 0.197925
v 0.460139 -0.756915 0.284863
v 0.467447 -0.664909 0.210663
v 0.520464 -0.664909 0.194581
v 0.550552 -0.756915 0.293768
v 0.454709 -0.664909 0.274703
v 0.455501 -0.757769 0.274375
v 0.455501 -0.757769 0.230056
v 0.460139 -0.756915 0.219568
v 0.557860 -0.756915 0.284863
v 0.557147 -0.757768 0.284386
v 0.549945 -0.757768 0.211270
v 0.541647 -0.756915 0.203355
v 0.531487 -0.664909 0.197925
v 0.454709 -0.756915 0.274703
v 0.460139 -0.664909 0.219568
v 0.557860 -0.664909 0.284863
v 0.451365 -0.664909 0.263680
v 0.452206 -0.757769 0.263512
v 0.454709 -0.756915 0.229728
v 0.563290 -0.756915 0.274703
v 0.562498 -0.757768 0.274375
v 0.557147 -0.757768 0.220045
v 0.550552 -0.756915 0.210663
v 0.541647 -0.664909 0.203355
v 0.451365 -0.756915 0.263680
v 0.452206 -0.757769 0.240919
v 0.454709 -0.664909 0.229728
v 0.563290 -0.664909 0.274703
v 0.450236 -0.664909 0.252215
v 0.451093 -0.757769 0.252215
v 0.451365 -0.756915 0.240751
v 0.566634 -0.756915 0.263680
v 0.565793 -0.757768 0.263512
v 0.562498 -0.757768 0.230056
v 0.557860 -0.756915 0.219568
v 0.550552 -0.664909 0.210663
v 0.450236 -0.756915 0.252215
v 0.451365 -0.664909 0.240751
v 0.566634 -0.664909 0.263680
v 0.557860 -0.664909 0.219568
v 0.567763 -0.756915 0.252216
v 0.566906 -0.757768 0.252216
v 0.565793 -0.757768 0.240919
v 0.563290 -0.756915 0.229728
v 0.563290 -0.664909 0.229728
v 0.567763 -0.664909 0.252216
v 0.566634 -0.756915 0.240751
v 0.566634 -0.664909 0.240751
vt 0.893809 0.021975
vt 0.884885 0.087082
vt 0.884885 0.021975
vt 0.893809 0.087082
vt 0.876304 0.021975
vt 0.885015 0.021371
vt 0.902734 0.021975
vt 0.876304 0.087082
vt 0.876559 0.021368
vt 0.884885 0.021972
vt 0.876304 0.021972
vt 0.893809 0.021371
vt 0.885015 0.021368
vt 0.902733 0.087082
vt 0.902603 0.021371
vt 0.868395 0.087082
vt 0.868766 0.021371
vt 0.876559 0.021371
vt 0.114985 0.174068
vt 0.114985 0.289929
vt 0.106191 0.172933
vt 0.123441 0.177429
vt 0.123441 0.286568
vt 0.902733 0.021975
vt 0.911315 0.087082
vt 0.911061 0.021375
vt 0.902736 0.021979
vt 0.902605 0.021375
vt 0.868395 0.021975
vt 0.131234 0.182888
vt 0.131234 0.281109
vt 0.106191 0.291064
vt 0.097397 0.174068
vt 0.911315 0.021975
vt 0.911317 0.021979
vt 0.097397 0.289929
vt 0.088941 0.177429
vt 0.861463 0.021975
vt 0.861935 0.021371
vt 0.138065 0.273764
vt 0.123439 0.021368
vt 0.115113 0.021972
vt 0.114983 0.021368
vt 0.114986 0.021374
vt 0.106192 0.021978
vt 0.106192 0.021374
vt 0.131234 0.021372
vt 0.123697 0.021976
vt 0.123441 0.021372
vt 0.919223 0.021975
vt 0.918852 0.021371
vt 0.911059 0.021371
vt 0.088941 0.286568
vt 0.861463 0.087082
vt 0.138065 0.190233
vt 0.138064 0.021371
vt 0.131604 0.021975
vt 0.131233 0.021371
vt 0.123694 0.021972
vt 0.115116 0.021978
vt 0.097266 0.021972
vt 0.10619 0.021368
vt 0.10619 0.021972
vt 0.097396 0.021368
vt 0.131605 0.021976
vt 0.919223 0.087082
vt 0.081148 0.182888
vt 0.097266 0.021978
vt 0.088941 0.021374
vt 0.097397 0.021374
vt 0.855775 0.087082
vt 0.138536 0.189615
vt 0.14367 0.199185
vt 0.138064 0.190234
vt 0.14367 0.264813
vt 0.138536 0.021975
vt 0.123696 0.087082
vt 0.115115 0.021975
vt 0.123696 0.021975
vt 0.115115 0.087082
vt 0.106191 0.021975
vt 0.106191 0.087082
vt 0.097266 0.021975
vt 0.131605 0.087082
vt 0.131605 0.021975
vt 0.926155 0.087082
vt 0.92568 0.021368
vt 0.91922 0.021972
vt 0.918849 0.021368
vt 0.081148 0.281109
vt 0.088685 0.021978
vt 0.855775 0.021975
vt 0.144225 0.198699
vt 0.14367 0.199184
vt 0.143671 0.264814
vt 0.138537 0.274383
vt 0.138537 0.087082
vt 0.138537 0.021975
vt 0.097266 0.087082
vt 0.926155 0.021975
vt 0.926152 0.021972
vt 0.074317 0.190233
vt 0.088685 0.021975
vt 0.081148 0.021371
vt 0.088941 0.021371
vt 0.79094 0.087082
vt 0.801303 0.021975
vt 0.801303 0.087082
vt 0.144225 0.198698
vt 0.147836 0.209395
vt 0.147836 0.254602
vt 0.144226 0.2653
vt 0.144225 0.021975
vt 0.931844 0.021975
vt 0.068708 0.199182
vt 0.073842 0.189613
vt 0.074314 0.190231
vt 0.074317 0.273764
vt 0.080777 0.021975
vt 0.088685 0.087082
vt 0.79094 0.021975
vt 0.148453 0.209061
vt 0.144225 0.265299
vt 0.144226 0.087082
vt 0.931844 0.087082
vt 0.068153 0.198696
vt 0.068711 0.199184
vt 0.080776 0.021976
vt 0.074317 0.021372
vt 0.081147 0.021372
vt 0.779696 0.087082
vt 0.79094 0.021976
vt 0.779525 0.021372
vt 0.790605 0.021372
vt 0.150401 0.220475
vt 0.148453 0.254936
vt 0.745063 0.021975
vt 0.734701 0.087082
vt 0.734701 0.021975
vt 0.20906 0.021975
vt 0.198698 0.087082
vt 0.198698 0.021975
vt 0.064546 0.209395
vt 0.068156 0.198698
vt 0.068711 0.264813
vt 0.073845 0.021976
vt 0.080777 0.087082
vt 0.779695 0.021975
vt 0.779696 0.021976
vt 0.150401 0.243522
vt 0.756478 0.021371
vt 0.745398 0.021371
vt 0.745063 0.087082
vt 0.20906 0.087082
vt 0.063929 0.20906
vt 0.064545 0.209395
vt 0.073845 0.274381
vt 0.068711 0.264812
vt 0.074317 0.273763
vt 0.073845 0.021975
vt 0.768001 0.087082
vt 0.779695 0.087082
vt 0.768002 0.021371
vt 0.779525 0.021371
vt 0.151267 0.231998
vt 0.756308 0.021975
vt 0.220305 0.021975
vt 0.220475 0.021371
vt 0.209395 0.021371
vt 0.064545 0.254602
vt 0.068156 0.265298
vt 0.073845 0.087082
vt 0.768001 0.021975
vt 0.768001 0.021371
vt 0.756308 0.087082
vt 0.220305 0.087082
vt 0.06198 0.220475
vt 0.068157 0.265298
vt 0.064546 0.254601
vt 0.068712 0.264812
vt 0.068156 0.087082
vt 0.068156 0.021975
vt 0.231998 0.021975
vt 0.231998 0.021371
vt 0.06198 0.243521
vt 0.063929 0.254935
vt 0.254936 0.087082
vt 0.265299 0.021975
vt 0.265299 0.087082
vt 0.231998 0.087082
vt 0.061114 0.231998
vt 0.254937 0.021976
vt 0.243522 0.021372
vt 0.254602 0.021372
vt 0.254936 0.021975
vt 0.243692 0.021975
vt 0.243521 0.021371
vt 0.243693 0.021976
vt 0.243692 0.087082
vn 0 0 1
vn -0.1950919897880076 0 0.9807849486613035
vn -0.38268581224730697 0 0.9238785467282046
vn -0.1376149496658964 -0.7088197407417849 0.6918357469538574
vn 0.0000010000002693991088 -0.7088241909565541 0.7053851900300903
vn 0.19508795068762494 0 0.9807857520868168
vn -0.2699459086441112 -0.7088107601221768 0.6517027794488274
vn 0.1376129875415528 -0.7088199358287622 0.6918359373663657
vn -0.555569201488041 0 0.8314703015489732
vn -0.3919000280815976 -0.7088070507895713 0.5865210420271667
vn 9.999999999995e-7 -1 0
vn 0.382682044482198 0 0.9238801073899822
vn 0.26994295133117985 -0.7088108722063731 0.6517038825023623
vn -0.7071062811861719 0 0.7071072811865696
vn -0.49879393333594596 -0.7088069052676093 0.49879593333567845
vn -0.26994405438482433 -0.7088111428020687 -0.6517031312966882
vn -0.13761505655635947 -0.7088152913054239 -0.6918402843291194
vn 9.999995914537503e-7 -0.7088157104158813 -0.7053937118139268
vn -0.3918999801573207 -0.7088079641116359 -0.5865199703033218
vn 0.5555687395488803 0 0.8314706102058378
vn 0.3918969714240496 -0.7088129483154884 0.5865159572330174
vn -0.4987921166642475 -0.7088101657861098 -0.49879311666448156
vn 0.1376170186805482 -0.7088150962166939 -0.6918400939124564
vn 0.2699459086441112 -0.7088107601221766 -0.6517027794488278
vn -0.8314703015489732 0 0.555569201488041
vn -0.5865229556134107 -0.7088049463594157 0.3919009703419153
vn -0.3826841051430464 0 -0.9238792538372458
vn -0.19509006590875128 0 -0.9807853313461202
vn 0 0 -1
vn 0.1950919897880076 0 -0.9807849486613035
vn -0.555569892830578 0 -0.8314698396094834
vn 0.70710578118615 0 0.707107781185531
vn 0.4987871297340505 -0.7088171843626648 0.49878812973431047
vn -0.586517028961625 -0.7088120350004303 -0.3918970193514836
vn -0.7071062811861719 0 -0.7071072811865696
vn 0.39190087449552863 -0.7088067730078568 -0.5865208121693795
vn 0.38268581224730697 0 -0.9238785467282046
vn -0.9238797538368918 -9.99999733640079e-7 0.38268289803606875
vn -0.65170692830768 -0.7088069220262813 0.2699459703040551
vn -0.8314703015489732 0 -0.555569201488041
vn 0.8314690690111041 0 0.5555710461118432
vn 0.5865169849819395 -0.7088109818505407 0.39189898996523037
vn -0.6517018080666771 -0.7088127912468667 -0.2699429204988524
vn 0.4987939726246911 -0.7088089610984387 -0.49879297262474614
vn 0.5555710461118432 0 -0.8314690690111041
vn -0.9807853313456301 -0.0000010000003378804901 0.19509006590865377
vn -0.6918431291387588 -0.7088121323061762 0.13761702568745865
vn -0.9238801073899822 0 -0.382682044482198
vn 0.9238789002825221 9.999998919815444e-7 0.38268495869547525
vn 0.6517057151691469 -0.7088076902124772 0.2699468820185261
vn -0.6918412008647066 -0.7088142057925392 -0.1376160399545525
vn 0.5865149294789155 -0.7088149147738717 -0.39189495287953363
vn 0.7071067811865475 0 -0.7071067811865475
vn -1 0 0
vn -0.7053942118083991 -0.7088152128356215 0
vn -0.9807851400041463 0 -0.19509102784866092
vn 0.9807849486608131 9.99999947611685e-7 0.19509198978791004
vn 0.6918450574061921 -0.7088100588138716 0.13761801141892363
vn 0.651699048245934 -0.708816052474363 -0.26994101998400455
vn 0.8314698396094834 0 -0.555569892830578
vn 1 9.999999999989998e-7 9.999999999990002e-7
vn 0.7053987238636116 -0.7088107225279456 9.999996083813423e-7
vn 0.9238804609416308 0.0000010000004990043457 -0.3826811909269647
vn 0.6918433195562765 -0.7088123273941103 -0.13761506356317416
vn 0.9807857520863266 9.99999747272914e-7 -0.19508795068752743
vn 0.1376149496658964 0.7088197407417849 -0.6918357469538574
vn -0.0000010000002693991088 0.7088241909565541 -0.7053851900300903
vn -0.19508795068762494 0 -0.9807857520868168
vn 0.2699459086441112 0.7088107601221768 -0.6517027794488274
vn -0.1376129875415528 0.7088199358287622 -0.6918359373663657
vn 0.555569201488041 0 -0.8314703015489732
vn 0.3919000280815976 0.7088070507895713 -0.5865210420271667
vn -9.999999999995e-7 1 0
vn -0.382682044482198 0 -0.9238801073899822
vn -0.26994295133117985 0.7088108722063731 -0.6517038825023623
vn 0.7071062811861719 0 -0.7071072811865696
vn 0.49879393333594596 0.7088069052676093 -0.49879593333567845
vn 0.13761505655635947 0.7088152913054239 0.6918402843291194
vn 0.26994405438482433 0.7088111428020687 0.6517031312966882
vn -9.999995914537503e-7 0.7088157104158813 0.7053937118139268
vn 0.3918999801573207 0.7088079641116359 0.5865199703033218
vn -0.5555687395488803 0 -0.8314706102058378
vn -0.3918969714240496 0.7088129483154884 -0.5865159572330174
vn 0.4987921166642475 0.7088101657861098 0.49879311666448156
vn -0.1376170186805482 0.7088150962166939 0.6918400939124564
vn -0.2699459086441112 0.7088107601221766 0.6517027794488278
vn 0.8314703015489732 0 -0.555569201488041
vn 0.5865229556134107 0.7088049463594157 -0.3919009703419153
vn 0.3826841051430464 0 0.9238792538372458
vn 0.19509006590875128 0 0.9807853313461202
vn 0.555569892830578 0 0.8314698396094834
vn -0.70710578118615 0 -0.707107781185531
vn -0.4987871297340505 0.7088171843626648 -0.49878812973431047
vn 0.586517028961625 0.7088120350004303 0.3918970193514836
vn 0.7071062811861719 0 0.7071072811865696
vn -0.39190087449552863 0.7088067730078568 0.5865208121693795
vn 0.9238797538368918 9.99999733640079e-7 -0.38268289803606875
vn 0.65170692830768 0.7088069220262813 -0.2699459703040551
vn 0.8314703015489732 0 0.555569201488041
vn -0.8314690690111041 0 -0.5555710461118432
vn -0.5865169849819395 0.7088109818505407 -0.39189898996523037
vn 0.6517018080666771 0.7088127912468667 0.2699429204988524
vn -0.4987939726246911 0.7088089610984387 0.49879297262474614
vn -0.5555710461118432 0 0.8314690690111041
vn 0.9807853313456301 0.0000010000003378804901 -0.19509006590865377
vn 0.6918431291387588 0.7088121323061762 -0.13761702568745865
vn 0.9238801073899822 0 0.382682044482198
vn -0.9238789002825221 -9.999998919815444e-7 -0.38268495869547525
vn -0.6517057151691469 0.7088076902124772 -0.2699468820185261
vn 0.6918412008647066 0.7088142057925392 0.1376160399545525
vn -0.5865149294789155 0.7088149147738717 0.39189495287953363
vn -0.7071067811865475 0 0.7071067811865475
vn 1 0 0
vn 0.7053942118083991 0.7088152128356215 0
vn 0.9807851400041463 0 0.19509102784866092
vn -0.9807849486608131 -9.99999947611685e-7 -0.19509198978791004
vn -0.6918450574061921 0.7088100588138716 -0.13761801141892363
vn -0.651699048245934 0.708816052474363 0.26994101998400455
vn -0.8314698396094834 0 0.555569892830578
vn -1 -9.999999999989998e-7 -9.999999999990002e-7
vn -0.7053987238636116 0.7088107225279456 -9.999996083813423e-7
vn -0.9238804609416308 -0.0000010000004990043457 0.3826811909269647
vn -0.6918433195562765 0.7088123273941103 0.13761506356317416
vn -0.9807857520863266 -9.99999747272914e-7 0.19508795068752743
usemtl material_0_0
f 1/1/1 2/2/2 3/3/2
f 2/2/2 1/1/1 4/4/1
f 2/2/2 5/5/3 3/3/2
f 6/6/4 1/1/5 3/3/4
f 7/7/6 4/4/1 1/1/1
f 5/5/3 2/2/2 8/8/3
f 9/9/7 3/10/4 5/11/7
f 1/1/5 6/6/4 10/12/5
f 3/10/4 9/9/7 6/13/4
f 4/4/1 7/7/6 11/14/6
f 1/1/5 12/15/8 7/7/8
f 13/16/9 5/5/3 8/8/3
f 5/5/7 14/17/10 9/18/7
f 6/19/11 15/20/11 10/21/11
f 12/15/8 1/1/5 10/12/5
f 9/22/11 16/23/11 6/19/11
f 7/24/6 17/25/12 11/14/6
f 18/26/13 7/27/8 12/28/8
f 5/5/3 13/16/9 19/29/9
f 14/17/10 5/5/7 19/29/10
f 14/30/11 20/31/11 9/22/11
f 6/19/11 16/23/11 15/20/11
f 10/21/11 15/20/11 21/32/11
f 10/21/11 21/32/11 12/33/11
f 9/22/11 20/31/11 16/23/11
f 17/25/12 7/24/6 22/34/12
f 7/27/8 18/26/13 22/35/13
f 12/33/11 23/36/11 18/37/11
f 13/16/9 24/38/14 19/29/9
f 19/29/10 25/39/15 14/17/10
f 14/30/11 26/40/11 20/31/11
f 16/41/16 27/42/17 15/43/17
f 15/44/17 28/45/18 21/46/18
f 12/33/11 21/32/11 23/36/11
f 20/47/19 29/48/16 16/49/16
f 30/50/20 17/25/12 22/34/12
f 31/51/21 22/34/13 18/52/13
f 18/37/11 23/36/11 32/53/11
f 24/38/14 13/16/9 33/54/14
f 25/39/15 19/29/10 24/38/15
f 25/55/11 26/40/11 14/30/11
f 26/56/22 34/57/19 20/58/19
f 27/42/17 16/41/16 29/59/16
f 28/45/18 15/44/17 27/60/17
f 35/61/23 21/62/18 28/63/18
f 21/62/18 35/61/23 23/64/23
f 29/48/16 20/47/19 34/65/19
f 17/25/12 30/50/20 36/66/20
f 22/34/13 31/51/21 30/50/21
f 18/37/11 32/53/11 31/67/11
f 35/68/23 32/69/24 23/70/23
f 37/71/25 24/38/14 33/54/14
f 24/72/15 38/73/26 25/74/15
f 25/55/11 39/75/11 26/40/11
f 34/57/19 26/56/22 40/76/22
f 41/77/27 27/78/28 29/79/27
f 42/80/28 28/81/29 27/78/28
f 43/82/29 35/83/30 28/81/29
f 44/84/31 29/79/27 34/85/31
f 30/50/20 45/86/32 36/66/20
f 46/87/33 30/88/21 31/89/21
f 31/67/11 32/53/11 47/90/11
f 32/69/24 35/68/23 48/91/24
f 24/38/14 37/71/25 49/92/25
f 38/73/26 24/72/15 49/93/26
f 38/94/11 39/75/11 25/55/11
f 39/95/34 40/96/22 26/40/22
f 50/97/35 34/85/31 40/98/35
f 27/78/28 41/77/27 42/80/28
f 29/79/27 44/84/31 41/77/27
f 28/81/29 42/80/28 43/82/29
f 35/83/30 43/82/29 51/99/30
f 34/85/31 50/97/35 44/84/31
f 45/86/32 30/50/20 52/100/32
f 30/88/21 46/87/33 52/101/33
f 31/67/11 47/90/11 46/102/11
f 48/103/24 47/104/36 32/105/24
f 51/99/30 48/103/37 35/83/30
f 53/106/38 49/107/25 37/108/25
f 49/109/26 54/110/39 38/94/26
f 38/94/11 55/111/11 39/75/11
f 40/96/22 39/95/34 56/112/34
f 56/113/40 50/97/35 40/98/35
f 57/114/41 45/86/32 52/100/32
f 58/115/42 52/116/33 46/117/33
f 46/102/11 47/90/11 59/118/11
f 47/104/36 48/103/24 60/119/36
f 48/103/37 51/99/30 61/120/37
f 49/107/25 53/106/38 62/121/38
f 54/110/39 49/109/26 62/122/39
f 54/110/11 55/111/11 38/94/11
f 55/111/43 56/123/34 39/75/34
f 50/97/35 56/113/40 63/124/40
f 45/86/32 57/114/41 64/125/41
f 52/116/33 58/115/42 57/126/42
f 46/102/11 59/118/11 58/127/11
f 60/128/36 59/129/44 47/130/36
f 61/120/37 60/119/45 48/103/37
f 65/131/46 62/121/38 53/106/38
f 62/132/39 66/133/47 54/134/39
f 66/135/11 55/111/11 54/110/11
f 56/123/34 55/111/43 67/136/43
f 67/137/48 63/138/40 56/139/40
f 68/140/49 64/141/41 57/142/41
f 69/143/50 57/144/42 58/127/42
f 58/127/11 59/118/11 70/145/11
f 59/129/44 60/128/36 71/146/44
f 60/119/45 61/120/37 72/147/45
f 62/121/38 65/131/46 73/148/46
f 66/133/47 62/132/39 73/149/47
f 66/135/11 74/150/11 55/111/11
f 74/151/51 67/137/43 55/152/43
f 63/138/40 67/137/48 75/153/48
f 64/141/41 68/140/49 76/154/49
f 57/144/42 69/143/50 68/155/50
f 58/127/11 70/145/11 69/156/11
f 71/157/44 70/158/52 59/159/44
f 72/147/45 71/160/53 60/119/45
f 77/161/54 73/148/46 65/162/46
f 73/148/47 78/163/55 66/164/47
f 74/150/11 66/135/11 78/165/11
f 67/137/43 74/151/51 79/166/51
f 79/166/56 75/153/48 67/137/48
f 80/167/57 76/154/49 68/140/49
f 81/168/58 68/140/50 69/169/50
f 69/156/11 70/145/11 82/170/11
f 70/158/52 71/157/44 83/171/52
f 71/160/53 72/147/45 84/172/53
f 73/148/46 77/161/54 85/173/54
f 78/163/55 73/148/47 85/173/55
f 78/174/55 79/166/51 74/151/51
f 75/153/48 79/166/56 86/175/56
f 76/154/49 80/167/57 87/176/57
f 68/140/50 81/168/58 80/167/58
f 69/156/11 82/170/11 81/177/11
f 83/178/52 82/179/59 70/180/52
f 71/160/53 88/181/60 83/182/60
f 88/181/60 71/160/53 84/172/53
f 86/175/56 85/173/54 77/161/54
f 79/166/51 78/174/55 85/173/55
f 85/173/54 86/175/56 79/166/56
f 89/183/61 87/176/57 80/167/57
f 90/184/62 80/167/58 81/168/58
f 81/177/11 82/170/11 91/185/11
f 82/179/59 83/178/52 92/186/59
f 93/187/63 83/188/60 88/189/60
f 87/176/57 89/183/61 94/190/61
f 80/167/58 90/184/62 89/183/62
f 81/177/11 91/185/11 90/191/11
f 92/192/59 91/193/64 82/194/59
f 83/188/60 93/187/63 92/195/63
f 95/196/65 94/190/61 89/183/61
f 90/184/62 95/196/64 89/183/62
f 95/196/64 90/184/62 91/197/64
f 91/193/64 92/192/59 95/198/64
f 96/199/65 92/195/63 93/187/63
f 94/190/61 95/196/65 96/199/65
f 92/195/63 96/199/65 95/196/65
usemtl material_1_0
f 3//30 2//30 1//29
f 4//29 1//29 2//30
f 3//30 5//37 2//30
f 3//66 1//67 6//66
f 1//29 4//29 7//68
f 8//37 2//30 5//37
f 5//69 3//66 9//69
f 10//67 6//66 1//67
f 6//66 9//69 3//66
f 11//68 7//68 4//29
f 7//70 12//70 1//67
f 8//37 5//37 13//71
f 9//69 14//72 5//69
f 10//73 15//73 6//73
f 10//67 1//67 12//70
f 6//73 16//73 9//73
f 11//68 17//74 7//68
f 12//70 7//70 18//75
f 19//71 13//71 5//37
f 19//72 5//69 14//72
f 9//73 20//73 14//73
f 15//73 16//73 6//73
f 21//73 15//73 10//73
f 12//73 21//73 10//73
f 16//73 20//73 9//73
f 22//74 7//68 17//74
f 22//75 18//75 7//70
f 18//73 23//73 12//73
f 19//71 24//76 13//71
f 14//72 25//77 19//72
f 20//73 26//73 14//73
f 15//78 27//78 16//79
f 21//80 28//80 15//78
f 23//73 21//73 12//73
f 16//79 29//79 20//81
f 22//74 17//74 30//82
f 18//75 22//75 31//83
f 32//73 23//73 18//73
f 33//76 13//71 24//76
f 24//77 19//72 25//77
f 14//73 26//73 25//73
f 20//81 34//81 26//84
f 29//79 16//79 27//78
f 27//78 15//78 28//80
f 28//80 21//80 35//85
f 23//85 35//85 21//80
f 34//81 20//81 29//79
f 36//82 30//82 17//74
f 30//83 31//83 22//75
f 31//73 32//73 18//73
f 23//85 32//86 35//85
f 33//76 24//76 37//87
f 25//77 38//88 24//77
f 26//73 39//73 25//73
f 40//84 26//84 34//81
f 29//89 27//90 41//89
f 27//90 28//1 42//90
f 28//1 35//2 43//1
f 34//91 29//89 44//91
f 36//82 45//92 30//82
f 31//83 30//83 46//93
f 47//73 32//73 31//73
f 48//86 35//85 32//86
f 49//87 37//87 24//76
f 49//88 24//77 38//88
f 25//73 39//73 38//73
f 26//84 40//84 39//94
f 40//95 34//91 50//95
f 42//90 41//89 27//90
f 41//89 44//91 29//89
f 43//1 42//90 28//1
f 51//2 43//1 35//2
f 44//91 50//95 34//91
f 52//92 30//82 45//92
f 52//93 46//93 30//83
f 46//73 47//73 31//73
f 32//86 47//96 48//86
f 35//2 48//3 51//2
f 37//87 49//87 53//97
f 38//88 54//98 49//88
f 39//73 55//73 38//73
f 56//94 39//94 40//84
f 40//95 50//95 56//99
f 52//92 45//92 57//100
f 46//93 52//93 58//101
f 59//73 47//73 46//73
f 60//96 48//86 47//96
f 61//3 51//2 48//3
f 62//97 53//97 49//87
f 62//98 49//88 54//98
f 38//73 55//73 54//73
f 39//94 56//94 55//102
f 63//99 56//99 50//95
f 64//100 57//100 45//92
f 57//101 58//101 52//93
f 58//73 59//73 46//73
f 47//96 59//103 60//96
f 48//3 60//104 61//3
f 53//97 62//97 65//105
f 54//98 66//106 62//98
f 54//73 55//73 66//73
f 67//102 55//102 56//94
f 56//99 63//99 67//107
f 57//100 64//100 68//108
f 58//101 57//101 69//109
f 70//73 59//73 58//73
f 71//103 60//96 59//103
f 72//104 61//3 60//104
f 73//105 65//105 62//97
f 73//106 62//98 66//106
f 55//73 74//73 66//73
f 55//102 67//102 74//110
f 75//107 67//107 63//99
f 76//108 68//108 64//100
f 68//109 69//109 57//101
f 69//73 70//73 58//73
f 59//103 70//111 71//103
f 60//104 71//112 72//104
f 65//105 73//105 77//113
f 66//106 78//114 73//106
f 78//73 66//73 74//73
f 79//110 74//110 67//102
f 67//107 75//107 79//115
f 68//108 76//108 80//116
f 69//109 68//109 81//117
f 82//73 70//73 69//73
f 83//111 71//103 70//111
f 84//112 72//104 71//112
f 85//113 77//113 73//105
f 85//114 73//106 78//114
f 74//110 79//110 78//114
f 86//115 79//115 75//107
f 87//116 80//116 76//108
f 80//117 81//117 68//109
f 81//73 82//73 69//73
f 70//111 82//118 83//111
f 83//119 88//119 71//112
f 84//112 71//112 88//119
f 77//113 85//113 86//115
f 85//114 78//114 79//110
f 79//115 86//115 85//113
f 80//116 87//116 89//120
f 81//117 80//117 90//121
f 91//73 82//73 81//73
f 92//118 83//111 82//118
f 88//119 83//119 93//122
f 94//120 89//120 87//116
f 89//121 90//121 80//117
f 90//73 91//73 81//73
f 82//118 91//123 92//118
f 92//122 93//122 83//119
f 89//120 94//120 95//124
f 89//121 95//123 90//121
f 91//123 90//121 95//123
f 95//123 92//118 91//123
f 93//122 92//122 96//124
f 96//124 95//124 94//120
f 95//124 96//124 92//122
