mtllib new-18.mtl
v 0.519855 0.187700 0.288185
v 0.519855 0.109875 0.277445
v 0.519855 0.187700 0.277445
v 0.519855 0.109875 0.288185
v 0.508848 0.187700 0.277445
v 0.019771 0.109875 0.288185
v 0.508848 0.109875 0.277445
v 0.492062 0.180720 0.277445
v 0.042511 0.187700 0.277445
v 0.019771 0.187700 0.288185
v 0.031517 0.109875 0.277445
v 0.042511 0.109875 0.277445
v 0.019771 0.109875 0.277445
v 0.492062 0.116790 0.277445
v 0.019771 0.187700 0.277445
v 0.486625 0.180720 0.277445
v 0.053683 0.116790 0.277445
v 0.486625 0.116790 0.277445
v 0.487220 0.122349 0.277445
v 0.059347 0.180785 0.277445
v 0.053683 0.180785 0.277445
v 0.059347 0.116790 0.277445
v 0.486625 0.116913 0.277445
v 0.487220 0.116913 0.277445
v 0.486625 0.122459 0.277445
v 0.059347 0.122459 0.277445
v 0.059347 0.116913 0.277445
v 0.486625 0.122349 0.277445
vn 1.000000 0.000000 0.000000
vn -1.000000 0.000000 0.000000
vn 0.000000 0.000000 -1.000000
vn 0.000000 0.000000 1.000000
vn 0.000000 1.000000 0.000000
vn 0.000000 -1.000000 0.000000
vt 0.000000 0.312293
vt -0.058335 0.304243
vt 0.000000 0.304243
vt -0.058335 0.312293
vt -0.058335 0.374851
vt 0.000000 0.366601
vt 0.000000 0.374851
vt -0.366601 0.304243
vt -0.374851 0.312293
vt -0.374851 0.304243
vt 0.058335 0.000000
vt 0.058335 0.374851
vt 0.374851 0.312293
vt 0.366601 0.304243
vt 0.374851 0.304243
vt -0.005232 0.354018
vt -0.017045 0.304243
vt 0.000000 0.000000
vt 0.008804 0.304243
vt 0.017045 0.304243
vt -0.058335 0.000000
vt -0.058335 0.366601
vt -0.053152 0.354018
vt 0.000000 0.017045
vt 0.058335 0.304243
vt 0.058335 0.312293
vt -0.058335 0.017045
vt -0.005232 0.349943
vt -0.058335 0.008804
vt -0.053152 0.025420
vt -0.048985 0.350388
vt -0.005183 0.029665
vt -0.005183 0.025420
vt -0.053152 0.029665
vt -0.053061 0.350388
vt -0.053152 0.349943
vt -0.053061 0.349943
vt -0.048903 0.349943
vt -0.048903 0.029665
vt 0.053152 0.304243
vt -0.053061 0.029665
vt 0.053061 0.304243
vt 0.048903 0.304243
vt -0.048985 0.349943
vt 0.048985 0.304243
vt 0.048985 0.349943
vt 0.053061 0.029665
vt 0.053061 0.349943
usemtl material-0
f 1/1/1 2/2/1 3/3/1
f 2/2/1 1/1/1 4/4/1
f 3/3/2 2/2/2 1/1/2
f 4/4/2 1/1/2 2/2/2
f 2/5/3 5/6/3 3/7/3
f 3/7/4 5/6/4 2/5/4
f 5/8/5 1/9/5 3/10/5
f 3/10/6 1/9/6 5/8/6
f 1/7/4 6/11/4 4/12/4
f 4/12/3 6/11/3 1/7/3
f 4/13/6 7/14/6 2/15/6
f 2/15/5 7/14/5 4/13/5
f 5/6/3 2/5/3 8/16/3
f 8/16/4 2/5/4 5/6/4
f 9/17/5 1/9/5 5/8/5
f 5/8/6 1/9/6 9/17/6
f 6/11/4 1/7/4 10/18/4
f 10/18/3 1/7/3 6/11/3
f 6/1/6 11/19/6 4/13/6
f 4/13/5 11/19/5 6/1/5
f 4/13/6 12/20/6 7/14/6
f 7/14/5 12/20/5 4/13/5
f 13/21/3 2/5/3 7/22/3
f 7/22/4 2/5/4 13/21/4
f 8/16/3 2/5/3 14/23/3
f 14/23/4 2/5/4 8/16/4
f 5/6/3 8/16/3 9/24/3
f 9/24/4 8/16/4 5/6/4
f 15/3/5 1/9/5 9/17/5
f 9/17/6 1/9/6 15/3/6
f 1/9/5 15/3/5 10/1/5
f 10/1/6 15/3/6 1/9/6
f 10/1/2 13/25/2 6/26/2
f 6/26/1 13/25/1 10/1/1
f 11/19/6 6/1/6 13/3/6
f 13/3/5 6/1/5 11/19/5
f 4/13/6 11/19/6 12/20/6
f 12/20/5 11/19/5 4/13/5
f 13/21/3 7/22/3 12/27/3
f 12/27/4 7/22/4 13/21/4
f 13/21/3 14/23/3 2/5/3
f 2/5/4 14/23/4 13/21/4
f 9/24/3 8/16/3 15/18/3
f 15/18/4 8/16/4 9/24/4
f 13/25/2 10/1/2 15/3/2
f 15/3/1 10/1/1 13/25/1
f 13/21/3 12/27/3 11/29/3
f 11/29/4 12/27/4 13/21/4
f 13/21/3 17/30/3 14/23/3
f 14/23/4 17/30/4 13/21/4
f 16/28/3 20/32/3 8/16/3
f 8/16/4 20/32/4 16/28/4
f 15/18/3 8/16/3 20/32/3
f 20/32/4 8/16/4 15/18/4
f 15/18/3 21/33/3 13/21/3
f 13/21/4 21/33/4 15/18/4
f 22/34/3 14/23/3 17/30/3
f 17/30/4 14/23/4 22/34/4
f 22/34/3 18/36/3 14/23/3
f 14/23/4 18/36/4 22/34/4
f 23/37/3 14/23/3 18/36/3
f 18/36/4 14/23/4 23/37/4
f 19/31/3 14/23/3 24/35/3
f 24/35/4 14/23/4 19/31/4
f 20/32/3 16/28/3 26/39/3
f 26/39/4 16/28/4 20/32/4
f 21/33/3 15/18/3 20/32/3
f 20/32/4 15/18/4 21/33/4
f 17/30/3 27/41/3 22/34/3
f 22/34/4 27/41/4 17/30/4
f 22/34/3 23/37/3 18/36/3
f 18/36/4 23/37/4 22/34/4
f 24/35/3 14/23/3 23/37/3
f 23/37/4 14/23/4 24/35/4
f 23/42/2 25/43/2 18/40/2
f 18/40/1 25/43/1 23/42/1
f 24/35/3 28/44/3 19/31/3
f 19/31/4 28/44/4 24/35/4
f 26/39/3 16/28/3 25/38/3
f 25/38/4 16/28/4 26/39/4
f 23/37/3 22/34/3 27/41/3
f 27/41/4 22/34/4 23/37/4
f 28/44/3 24/35/3 23/37/3
f 23/37/4 24/35/4 28/44/4
f 25/43/2 23/42/2 28/45/2
f 28/45/1 23/42/1 25/43/1
f 28/46/4 27/47/4 23/48/4
f 23/48/3 27/47/3 28/46/3