# SSTK version 0.8.0
# 11
mtllib original-11.mtl
o B1/B/mesh21/mesh21-geometry#mesh21-geometry
v 0.254642 -0.242484 0.358626
v -0.214112 -0.242484 0.378658
v -0.214112 -0.242484 0.358626
v 0.254642 -0.242484 0.378658
v -0.214112 -0.222451 0.358626
v 0.254642 -0.222451 0.378658
v -0.214112 -0.222451 0.378658
v 0.254642 -0.222451 0.358626
vt -0.038641 0.007291
vt 0.038641 0
vt 0.038641 0.007291
vt -0.038641 0
vt 0 -0.003645
vt -0.007291 0.003645
vt -0.007291 -0.003645
vt 0.038641 0.003645
vt -0.038641 -0.003645
vt 0.038641 -0.003645
vt 0.007291 -0.003645
vt 0 0.003645
vt -0.038641 0.003645
vt 0.007291 0.003645
vn 0 -1 0
vn -1 0 0
vn 0 0 -1
vn 1 0 0
vn 0 0 1
vn 0 1 0
usemtl material_0_0
f 1/1/1 2/2/1 3/3/1
f 2/2/1 1/1/1 4/4/1
f 2/5/2 5/6/2 3/7/2
f 5/8/3 1/9/3 3/10/3
f 1/11/4 6/12/4 4/5/4
f 6/8/5 2/9/5 4/10/5
f 5/6/2 2/5/2 7/12/2
f 1/9/3 5/8/3 8/13/3
f 6/12/4 1/11/4 8/14/4
f 2/9/5 6/8/5 7/13/5
f 6/2/6 5/1/6 7/4/6
f 5/1/6 6/2/6 8/3/6
usemtl material_1_0
f 3//6 2//6 1//6
f 4//6 1//6 2//6
f 3//4 5//4 2//4
f 3//5 1//5 5//5
f 4//2 6//2 1//2
f 4//3 2//3 6//3
f 7//4 2//4 5//4
f 8//5 5//5 1//5
f 8//2 1//2 6//2
f 7//3 6//3 2//3
f 7//1 5//1 6//1
f 8//1 6//1 5//1
