# SSTK version 0.8.0
# 255
mtllib original-255.mtl
o #ID1534
v -0.205595 0.366578 0.503792
v -0.204897 0.366414 0.503826
v -0.205007 0.366332 0.503840
v -0.204795 0.366510 0.503806
v -0.205133 0.366265 0.503855
v -0.204718 0.366612 0.503787
v -0.205272 0.366212 0.503864
v -0.205508 0.366592 0.503792
v -0.204656 0.366722 0.503768
v -0.205422 0.366173 0.503869
v -0.205581 0.366149 0.503874
v -0.205687 0.366573 0.503792
vn 0.006532038496958776 -0.18785245895723918 -0.9821755373337258
vn 0.002246062020248771 -0.19300899446815895 -0.9811944166472776
vn 0.002377439783982661 -0.18730561630379808 -0.982298810892657
vn -0.006532038496958776 0.18785245895723918 0.9821755373337258
vn -0.002246062020248771 0.19300899446815895 0.9811944166472776
vn -0.002377439783982661 0.18730561630379808 0.982298810892657
vn 0.001637153434960132 -0.1909313301596993 -0.9816020308108976
vn -0.001637153434960132 0.1909313301596993 0.9816020308108976
vn -0.001449852811641342 -0.19860920302981327 -0.9800776920217534
vn 0.001449852811641342 0.19860920302981327 0.9800776920217534
vn 0.001468699087172474 -0.17737208200187476 -0.9841427678184256
vn -0.001468699087172474 0.17737208200187476 0.9841427678184256
vn 0.008149325422193252 -0.18708060486511136 -0.9823107633424707
vn -0.008149325422193252 0.18708060486511136 0.9823107633424707
vn 0.00129160881133021 -0.17288075705015868 -0.9849419148297235
vn -0.00129160881133021 0.17288075705015868 0.9849419148297235
vn 0.007770846014350049 -0.1844565387243388 -0.9828099507402526
vn -0.007770846014350049 0.1844565387243388 0.9828099507402526
vn 0.00038989129910883775 -0.18803239957166765 -0.9821627485789183
vn -0.00038989129910883775 0.18803239957166765 0.9821627485789183
vn 0.009879718719293055 -0.18771465566914394 -0.9821739149483876
vn -0.009879718719293055 0.18771465566914394 0.9821739149483876
usemtl material_0_2
f 1//1 2//2 3//3
f 3//6 2//5 1//4
f 1//1 4//7 2//2
f 2//5 4//8 1//4
f 1//1 3//3 5//9
f 5//10 3//6 1//4
f 6//11 4//7 1//1
f 1//4 4//8 6//12
f 1//1 5//9 7//13
f 7//14 5//10 1//4
f 8//15 6//11 1//1
f 1//4 6//12 8//16
f 6//11 8//15 9//15
f 9//16 8//16 6//12
f 1//1 7//13 10//17
f 10//18 7//14 1//4
f 1//1 10//17 11//19
f 11//20 10//18 1//4
f 1//1 11//19 12//21
f 12//22 11//20 1//4
