# SSTK version 0.8.0
# 96
mtllib original-96.mtl
o #ID580
v -0.314965 0.362309 0.504608
v -0.315259 0.361851 0.504695
v -0.315293 0.362280 0.504613
v -0.314763 0.361895 0.504690
v -0.314382 0.362039 0.504661
v -0.314108 0.362275 0.504618
v -0.313944 0.362603 0.504555
vn 0.003398987390467609 -0.1899794678175742 -0.9817821798609255
vn 0.005201570623066695 -0.18958162298668899 -0.9818511862236488
vn 0.002267756967804231 -0.18776608629769878 -0.9822111555642098
vn -0.003398987390467609 0.1899794678175742 0.9817821798609255
vn -0.005201570623066695 0.18958162298668899 0.9818511862236488
vn -0.002267756967804231 0.18776608629769878 0.9822111555642098
vn 0.0025285487986232724 -0.19306223021854943 -0.98118325592318
vn -0.0025285487986232724 0.19306223021854943 0.98118325592318
vn 0.002319921222823766 -0.1879159918949828 -0.9821823649178621
vn -0.002319921222823766 0.1879159918949828 0.9821823649178621
vn 0.003517072453382049 -0.1883582025329865 -0.9820940982105025
vn -0.003517072453382049 0.1883582025329865 0.9820940982105025
vn 0.003466176967543275 -0.189585639927046 -0.9818580705736863
vn -0.003466176967543275 0.189585639927046 0.9818580705736863
usemtl material_0_2
f 1//1 2//2 3//3
f 3//6 2//5 1//4
f 1//1 4//7 2//2
f 2//5 4//8 1//4
f 1//1 5//9 4//7
f 4//8 5//10 1//4
f 1//1 6//11 5//9
f 5//10 6//12 1//4
f 7//13 6//11 1//1
f 1//4 6//12 7//14
