# SSTK version 0.8.0
# 319
mtllib original-319.mtl
o #ID1918
v -0.176879 0.369753 0.503188
v -0.176711 0.369739 0.503188
v -0.176508 0.369228 0.503285
v -0.177063 0.369758 0.503184
v -0.176561 0.369714 0.503193
v -0.177207 0.369753 0.503188
v -0.176436 0.369676 0.503203
v -0.177342 0.369729 0.503188
v -0.176330 0.369628 0.503208
v -0.177467 0.369695 0.503198
v -0.176243 0.369570 0.503222
v -0.176561 0.369247 0.503285
v -0.176619 0.369271 0.503280
v -0.177583 0.369647 0.503208
vn 0.010550088717056625 -0.17368598050709652 -0.9847445738887575
vn -0.010158716712694952 -0.1897304573089327 -0.9817836594912824
vn 0.0009167719918376075 -0.18603854215754684 -0.9825420196414043
vn -0.010550088717056625 0.17368598050709652 0.9847445738887575
vn 0.010158716712694952 0.1897304573089327 0.9817836594912824
vn -0.0009167719918376075 0.18603854215754684 0.9825420196414043
vn -0.013922677986431282 -0.20187140914264867 -0.9793130721114915
vn 0.013922677986431282 0.20187140914264867 0.9793130721114915
vn 0.00876460367613911 -0.18432286299540898 -0.9828266703237025
vn -0.00876460367613911 0.18432286299540898 0.9828266703237025
vn 0.014433129197384086 -0.16228705246362735 -0.9866380275380832
vn -0.014433129197384086 0.16228705246362735 0.9866380275380832
vn -0.003984169935527417 -0.17960233926538088 -0.9837312265656346
vn 0.003984169935527417 0.17960233926538088 0.9837312265656346
vn -0.00662269873905372 -0.19990920542019644 -0.9797920439816183
vn 0.00662269873905372 0.19990920542019644 0.9797920439816183
vn -0.005038761195042942 -0.18757416434683852 -0.9822375190121809
vn 0.005038761195042942 0.18757416434683852 0.9822375190121809
vn -0.006593056925454161 -0.19599521485184998 -0.9805826876686916
vn 0.006593056925454161 0.19599521485184998 0.9805826876686916
vn 0.02896906180310674 -0.2020964592256783 -0.9789370841002457
vn -0.02896906180310674 0.2020964592256783 0.9789370841002457
vn -0.003290375576149193 -0.1894615083905022 -0.9818826356886873
vn 0.003290375576149193 0.1894615083905022 0.9818826356886873
usemtl material_0_2
f 1//1 2//2 3//3
f 3//6 2//5 1//4
f 4//7 1//1 3//3
f 3//6 1//4 4//8
f 2//2 5//9 3//3
f 3//6 5//10 2//5
f 4//7 3//3 6//11
f 6//12 3//6 4//8
f 5//9 7//13 3//3
f 3//6 7//14 5//10
f 6//11 3//3 8//15
f 8//16 3//6 6//12
f 7//13 9//17 3//3
f 3//6 9//18 7//14
f 8//15 3//3 10//19
f 10//20 3//6 8//16
f 9//17 11//21 3//3
f 3//6 11//22 9//18
f 12//23 10//19 3//3
f 3//6 10//20 12//24
f 10//19 12//23 13//23
f 13//24 12//24 10//20
f 10//19 13//23 14//23
f 14//24 13//24 10//20
