# SSTK version 0.8.0
# 639
mtllib original-639.mtl
o #ID3838
v -0.011933 0.363432 0.504907
v -0.011051 0.362752 0.505038
v -0.011933 0.362078 0.505173
v -0.014453 0.362078 0.505173
v -0.015334 0.362752 0.505038
v -0.014453 0.363432 0.504907
vn -0.001012336787945177 -0.19245067679946598 -0.9813061256171058
vn -0.0032068781547952684 -0.19248732179851075 -0.9812942203433874
vn -0.001174909765890112 -0.19248817872572446 -0.9812985889309612
vn 0.001012336787945177 0.19245067679946598 0.9813061256171058
vn 0.0032068781547952684 0.19248732179851075 0.9812942203433874
vn 0.001174909765890112 0.19248817872572446 0.9812985889309612
vn 0.001055261125653317 -0.1943791736139711 -0.9809259010185766
vn -0.001055261125653317 0.1943791736139711 0.9809259010185766
vn 0.0008597330028513215 -0.19262546915860818 -0.9812719752905358
vn -0.0008597330028513215 0.19262546915860818 0.9812719752905358
vn 0 -0.1884753786314796 -0.982077915264222
vn 0 0.1884753786314796 0.982077915264222
usemtl material_0_2
f 1//1 2//2 3//3
f 3//6 2//5 1//4
f 1//1 3//3 4//7
f 4//8 3//6 1//4
f 1//1 4//7 5//9
f 5//10 4//8 1//4
f 1//1 5//9 6//11
f 6//12 5//10 1//4
