# SSTK version 0.8.0
# 553
mtllib original-553.mtl
o #ID3322
v 0.232604 0.359654 0.505115
v 0.234054 0.358450 0.505347
v 0.233673 0.358435 0.505352
v 0.233510 0.358440 0.505347
v 0.233346 0.358455 0.505347
v 0.233182 0.358479 0.505342
v 0.233023 0.358517 0.505332
v 0.232859 0.358561 0.505327
v 0.232700 0.358618 0.505313
v 0.232551 0.358681 0.505303
v 0.232406 0.358744 0.505289
v 0.232276 0.358816 0.505274
v 0.232156 0.358888 0.505265
v 0.232045 0.358970 0.505245
v 0.231949 0.359052 0.505231
v 0.232430 0.359818 0.505086
vn -0.003180524513950163 -0.18534040608612457 -0.9826692312958856
vn -0.005140719703352852 -0.19482172841658654 -0.9808251970344692
vn 0.0027756805143693813 -0.18813076125751982 -0.982140067539426
vn 0.003180524513950163 0.18534040608612457 0.9826692312958856
vn 0.005140719703352852 0.19482172841658654 0.9808251970344692
vn -0.0027756805143693813 0.18813076125751982 0.982140067539426
vn 0.012716240951846152 -0.1782362142100861 -0.9839055590655594
vn -0.012716240951846152 0.1782362142100861 0.9839055590655594
vn -0.01240867491659927 -0.1969689166779039 -0.9803312045678986
vn 0.01240867491659927 0.1969689166779039 0.9803312045678986
vn 0.004991851749847521 -0.1871251504616004 -0.982323398622282
vn -0.004991851749847521 0.1871251504616004 0.982323398622282
vn 0.003770193003139603 -0.18632253055732867 -0.982481399442978
vn -0.003770193003139603 0.18632253055732867 0.982481399442978
vn -0.007925615126805539 -0.19235955263864707 -0.9812925084466513
vn 0.007925615126805539 0.19235955263864707 0.9812925084466513
vn 0.008891248297285395 -0.1867810748812989 -0.9823613264832357
vn -0.008891248297285395 0.1867810748812989 0.9823613264832357
vn -0.003762620802185085 -0.1896505806130257 -0.9818444377587732
vn 0.003762620802185085 0.1896505806130257 0.9818444377587732
vn 0.010816032651338578 -0.18966492761590034 -0.9817892995292525
vn -0.010816032651338578 0.18966492761590034 0.9817892995292525
vn -0.009560947753893363 -0.18309914697168347 -0.9830479594894083
vn 0.009560947753893363 0.18309914697168347 0.9830479594894083
vn -0.004149561466231379 -0.18932225201152106 -0.9819062409583331
vn 0.004149561466231379 0.18932225201152106 0.9819062409583331
vn 0.006820202072883828 -0.19245310939857438 -0.9812824697947607
vn -0.006820202072883828 0.19245310939857438 0.9812824697947607
vn -0.006947776619389619 -0.18162066682269598 -0.9833441217513461
vn 0.006947776619389619 0.18162066682269598 0.9833441217513461
usemtl material_0_2
f 1//1 2//2 3//3
f 3//6 2//5 1//4
f 1//1 3//3 4//7
f 4//8 3//6 1//4
f 1//1 4//7 5//9
f 5//10 4//8 1//4
f 1//1 5//9 6//11
f 6//12 5//10 1//4
f 1//1 6//11 7//13
f 7//14 6//12 1//4
f 1//1 7//13 8//15
f 8//16 7//14 1//4
f 1//1 8//15 9//17
f 9//18 8//16 1//4
f 1//1 9//17 10//19
f 10//20 9//18 1//4
f 1//1 10//19 11//21
f 11//22 10//20 1//4
f 1//1 11//21 12//23
f 12//24 11//22 1//4
f 1//1 12//23 13//25
f 13//26 12//24 1//4
f 1//1 13//25 14//27
f 14//28 13//26 1//4
f 15//29 1//1 14//27
f 14//28 1//4 15//30
f 1//1 15//29 16//29
f 16//30 15//30 1//4
