# SSTK version 0.8.0
# 32
mtllib original-32.mtl
o #ID196
v -0.328721 0.344232 0.508065
v -0.328552 0.343817 0.508142
v -0.328707 0.343740 0.508157
v -0.328389 0.343865 0.508133
v -0.328841 0.343629 0.508181
v -0.328210 0.343880 0.508133
v -0.328962 0.343485 0.508205
v -0.328018 0.343875 0.508133
v -0.329063 0.343316 0.508239
v -0.327854 0.343856 0.508137
v -0.329140 0.343133 0.508273
v -0.329689 0.341895 0.508509
v -0.329198 0.342926 0.508311
v -0.329738 0.342184 0.508456
v -0.329232 0.342704 0.508355
v -0.329752 0.342492 0.508398
v -0.329352 0.341191 0.508644
v -0.329738 0.342796 0.508340
v -0.329497 0.341399 0.508606
v -0.329685 0.343075 0.508282
v -0.329598 0.343335 0.508234
v -0.329477 0.343576 0.508191
v -0.329323 0.343793 0.508147
v -0.329145 0.343981 0.508113
vn -0.001116834828937077 -0.18349976986747768 -0.9830191183993053
vn -0.0022753507427298865 -0.18402329805504156 -0.982919248235552
vn -0.016667732269557253 -0.1839453219318436 -0.9827951491742218
vn 0.001116834828937077 0.18349976986747768 0.9830191183993053
vn 0.0022753507427298865 0.18402329805504156 0.982919248235552
vn 0.016667732269557253 0.1839453219318436 0.9827951491742218
vn 0.007892418873060053 -0.17447290177014144 -0.9846303449885336
vn -0.007892418873060053 0.17447290177014144 0.9846303449885336
vn 0.026690428021599488 -0.1940124354686558 -0.98063591405554
vn -0.026690428021599488 0.1940124354686558 0.98063591405554
vn -0.0009220493132071487 -0.1898988819646988 -0.9818032208409287
vn 0.0009220493132071487 0.1898988819646988 0.9818032208409287
vn -0.03668579175058503 -0.1726429423492687 -0.9843010551353787
vn 0.03668579175058503 0.1726429423492687 0.9843010551353787
vn 0.0068592605762263755 -0.1730629985178078 -0.9848868712133251
vn -0.0068592605762263755 0.1730629985178078 0.9848868712133251
vn -0.007571941269488073 -0.18377377043019308 -0.9829394014929312
vn 0.007571941269488073 0.18377377043019308 0.9829394014929312
vn 0.008763440151182965 -0.16942310898643168 -0.9855044455800738
vn -0.008763440151182965 0.16942310898643168 0.9855044455800738
vn -0.006308919146442814 -0.18419613422478334 -0.9828692597064215
vn -0.001762152607539304 -0.18740273517961098 -0.9822815836945069
vn 0.006308919146442814 0.18419613422478334 0.9828692597064215
vn 0.001762152607539304 0.18740273517961098 0.9822815836945069
vn -0.024690994352975268 -0.17710016315740446 -0.9838830657184227
vn 0.024690994352975268 0.17710016315740446 0.9838830657184227
vn -0.009974470238267353 -0.18278578468811116 -0.9831021650161377
vn 0.009974470238267353 0.18278578468811116 0.9831021650161377
vn 0.01097355207889897 -0.19342310050037084 -0.9810540685138588
vn -0.01097355207889897 0.19342310050037084 0.9810540685138588
vn -0.004965048150915595 -0.18526242565036585 -0.9826765398334295
vn 0.004965048150915595 0.18526242565036585 0.9826765398334295
vn -0.005323516212462408 -0.19119580690854737 -0.9815374794656213
vn 0.005323516212462408 0.19119580690854737 0.9815374794656213
vn 0.003269194317824704 -0.19045032001563802 -0.9816913914130312
vn -0.003269194317824704 0.19045032001563802 0.9816913914130312
vn -0.026532600180129103 -0.20092440489316923 -0.979247366422809
vn 0.026532600180129103 0.20092440489316923 0.979247366422809
vn 0.025198918875027912 -0.20482975005915435 -0.9784731922634539
vn -0.025198918875027912 0.20482975005915435 0.9784731922634539
vn -0.006157124069600826 -0.17951017245905657 -0.9837368488609702
vn 0.006157124069600826 0.17951017245905657 0.9837368488609702
vn -0.013945084678555677 -0.17262376516038877 -0.9848891157461122
vn 0.013945084678555677 0.17262376516038877 0.9848891157461122
vn 0.01769779823214584 -0.20735562629545867 -0.9781055322312374
vn -0.01769779823214584 0.20735562629545867 0.9781055322312374
vn -0.01718382350566466 -0.1610672626588268 -0.9867938250259366
vn 0.01718382350566466 0.1610672626588268 0.9867938250259366
usemtl material_0_2
f 1//1 2//2 3//3
f 3//6 2//5 1//4
f 1//1 4//7 2//2
f 2//5 4//8 1//4
f 1//1 3//3 5//9
f 5//10 3//6 1//4
f 1//1 6//11 4//7
f 4//8 6//12 1//4
f 1//1 5//9 7//13
f 7//14 5//10 1//4
f 1//1 8//15 6//11
f 6//12 8//16 1//4
f 1//1 7//13 9//17
f 9//18 7//14 1//4
f 1//1 10//19 8//15
f 8//16 10//20 1//4
f 1//1 11//21 12//22
f 12//24 11//23 1//4
f 11//21 1//1 9//17
f 9//18 1//4 11//23
f 11//21 13//25 12//22
f 12//24 13//26 11//23
f 1//1 12//22 14//27
f 14//28 12//24 1//4
f 13//25 15//29 12//22
f 12//24 15//30 13//26
f 1//1 14//27 16//31
f 16//32 14//28 1//4
f 15//29 17//33 12//22
f 12//24 17//34 15//30
f 1//1 16//31 18//35
f 18//36 16//32 1//4
f 12//22 17//33 19//37
f 19//38 17//34 12//24
f 1//1 18//35 20//39
f 20//40 18//36 1//4
f 1//1 20//39 21//41
f 21//42 20//40 1//4
f 1//1 21//41 22//43
f 22//44 21//42 1//4
f 1//1 22//43 23//45
f 23//46 22//44 1//4
f 1//1 23//45 24//47
f 24//48 23//46 1//4
