# SSTK version 0.8.0
# 619
mtllib original-619.mtl
o #ID3718
v 0.339936 0.340372 0.508804
v 0.340047 0.340363 0.508804
v 0.339763 0.339987 0.508876
v 0.339994 0.340368 0.508804
v 0.340278 0.339963 0.508881
v 0.341232 0.338460 0.509166
v 0.341786 0.338460 0.509166
v 0.340755 0.340069 0.508862
v 0.340847 0.340093 0.508852
v 0.340933 0.340131 0.508847
v 0.341020 0.340184 0.508838
v 0.341097 0.340242 0.508828
v 0.341174 0.340315 0.508813
v 0.340105 0.340363 0.508804
vn -0.01550183204478272 -0.17811605019503557 -0.9838873745841924
vn -0.005228260363926537 -0.1856934291232435 -0.9825938202909775
vn -0.002612263224313476 -0.1875486265775574 -0.9822518458876617
vn 0.01550183204478272 0.17811605019503557 0.9838873745841924
vn 0.005228260363926537 0.1856934291232435 0.9825938202909775
vn 0.002612263224313476 0.1875486265775574 0.9822518458876617
vn -0.05068911577307036 -0.21779697535061077 -0.9746769162498258
vn 0.05068911577307036 0.21779697535061077 0.9746769162498258
vn -0.0002680631566876732 -0.18710978912879972 -0.9823389715135605
vn 0.0002680631566876732 0.18710978912879972 0.9823389715135605
vn 0.0007457639834457365 -0.18629081791139898 -0.9824943638504919
vn -0.0007457639834457365 0.18629081791139898 0.9824943638504919
vn -0.013301899337560829 -0.22407605496678248 -0.9744808777315934
vn 0.013301899337560829 0.22407605496678248 0.9744808777315934
vn 0.0020277617309897426 -0.17030278108809316 -0.9853896949613504
vn -0.0020277617309897426 0.17030278108809316 0.9853896949613504
vn 0.0031213594689172347 -0.17331195848062286 -0.9848620320444263
vn -0.0031213594689172347 0.17331195848062286 0.9848620320444263
vn 0.002769454931187131 -0.1717879830570881 -0.9851300518188255
vn -0.002769454931187131 0.1717879830570881 0.9851300518188255
vn 0.000856930182573828 -0.189681752590233 -0.9818452517606631
vn -0.000856930182573828 0.189681752590233 0.9818452517606631
vn 0.000013357111039394618 -0.19675828755375058 -0.9804520264146039
vn -0.000013357111039394618 0.19675828755375058 0.9804520264146039
usemtl material_0_2
f 1//1 2//2 3//3
f 3//6 2//5 1//4
f 2//2 1//1 4//1
f 4//4 1//4 2//5
f 2//2 5//7 3//3
f 3//6 5//8 2//5
f 2//2 6//9 5//7
f 5//8 6//10 2//5
f 2//2 7//11 6//9
f 6//10 7//12 2//5
f 2//2 8//13 7//11
f 7//12 8//14 2//5
f 2//2 9//15 8//13
f 8//14 9//16 2//5
f 2//2 10//17 9//15
f 9//16 10//18 2//5
f 2//2 11//19 10//17
f 10//18 11//20 2//5
f 2//2 12//21 11//19
f 11//20 12//22 2//5
f 2//2 13//23 12//21
f 12//22 13//24 2//5
f 13//23 2//2 14//23
f 14//24 2//5 13//24
