# SSTK version 0.8.0
# 455
mtllib original-455.mtl
o #ID2734
v 0.102554 0.340888 0.508702
v 0.102275 0.340502 0.508775
v 0.102183 0.340570 0.508765
v 0.102376 0.340445 0.508789
v 0.102492 0.340387 0.508799
v 0.102776 0.340257 0.508823
v 0.102896 0.340194 0.508833
v 0.103002 0.340136 0.508847
v 0.103089 0.340083 0.508857
vn -0.002025808928490019 -0.18719952865860204 -0.9823198219359022
vn 0.001464213339593408 -0.18566962212576635 -0.982611137479609
vn -0.02096376515570377 -0.16990282462508444 -0.9852378143041985
vn 0.002025808928490019 0.18719952865860204 0.9823198219359022
vn -0.001464213339593408 0.18566962212576635 0.982611137479609
vn 0.02096376515570377 0.16990282462508444 0.9852378143041985
vn 0.004942979481823065 -0.19433413110973186 -0.9809229390934171
vn -0.004942979481823065 0.19433413110973186 0.9809229390934171
vn -0.00648138316592201 -0.18842577657376436 -0.9820660458415361
vn 0.00648138316592201 0.18842577657376436 0.9820660458415361
vn -0.018220269565609133 -0.19402921738973092 -0.9808265313377718
vn 0.018220269565609133 0.19402921738973092 0.9808265313377718
vn 0.031799730937843274 -0.16942666009147941 -0.9850296360833654
vn -0.031799730937843274 0.16942666009147941 0.9850296360833654
vn -0.0009432341870705889 -0.18975364789740898 -0.9818312805257807
vn 0.0009432341870705889 0.18975364789740898 0.9818312805257807
vn -0.010243412014357718 -0.19508627589640293 -0.9807325922325497
vn 0.010243412014357718 0.19508627589640293 0.9807325922325497
usemtl material_0_2
f 1//1 2//2 3//3
f 3//6 2//5 1//4
f 1//1 4//7 2//2
f 2//5 4//8 1//4
f 1//1 5//9 4//7
f 4//8 5//10 1//4
f 1//1 6//11 5//9
f 5//10 6//12 1//4
f 1//1 7//13 6//11
f 6//12 7//14 1//4
f 1//1 8//15 7//13
f 7//14 8//16 1//4
f 1//1 9//17 8//15
f 8//16 9//18 1//4
