# SSTK version 0.8.0
# 52
mtllib original-52.mtl
o #ID316
v -0.320116 0.338339 0.509190
v -0.320709 0.338151 0.509224
v -0.321075 0.338209 0.509214
v -0.320424 0.337992 0.509258
v -0.321248 0.338195 0.509219
v -0.322120 0.338127 0.509229
v -0.320222 0.337722 0.509306
v -0.321956 0.338310 0.509195
v -0.320097 0.337342 0.509378
v -0.321769 0.338455 0.509166
v -0.321561 0.338556 0.509147
v -0.321330 0.338619 0.509137
v -0.321075 0.338638 0.509132
v -0.320795 0.338619 0.509137
v -0.320540 0.338566 0.509147
vn -0.0004036258507735947 -0.18726503159173713 -0.9823093428391679
vn 0.0003527694054525869 -0.17823054520514967 -0.9839886931817975
vn 0.00165269665127616 -0.19525454517973878 -0.9807512075855079
vn 0.0004036258507735947 0.18726503159173713 0.9823093428391679
vn -0.0003527694054525869 0.17823054520514967 0.9839886931817975
vn -0.00165269665127616 0.19525454517973878 0.9807512075855079
vn -0.001563782186270949 -0.1900555302605729 -0.9817720967733022
vn 0.001563782186270949 0.1900555302605729 0.9817720967733022
vn 0.001959835543470877 -0.19743660410650496 -0.9803136979577167
vn 0.0003215082391377843 -0.18247559941470118 -0.9832103296094369
vn -0.001959835543470877 0.19743660410650496 0.9803136979577167
vn -0.0003215082391377843 0.18247559941470118 0.9832103296094369
vn 0.0007325816793285945 -0.18492927213500027 -0.9827515594654134
vn -0.0007325816793285945 0.18492927213500027 0.9827515594654134
vn 0.0003109893604674257 -0.18522031292031316 -0.9826969720963421
vn -0.0003109893604674257 0.18522031292031316 0.9826969720963421
vn 0.0038308906369308253 -0.18544226250933876 -0.9826476945234977
vn -0.0038308906369308253 0.18544226250933876 0.9826476945234977
vn 0.000606417905631245 -0.19564066540395544 -0.980675462269563
vn -0.000606417905631245 0.19564066540395544 0.980675462269563
vn 0.0015347323034326811 -0.1862680059716392 -0.982497773304401
vn -0.0015347323034326811 0.1862680059716392 0.982497773304401
vn 0.003504902122968019 -0.17177659672094647 -0.985129695258486
vn -0.003504902122968019 0.17177659672094647 0.985129695258486
vn -0.0028097408877677706 -0.19901061265526268 -0.9799933068173071
vn 0.0028097408877677706 0.19901061265526268 0.9799933068173071
vn 0.004609063125261557 -0.17566879949934985 -0.9844385351151003
vn -0.004609063125261557 0.17566879949934985 0.9844385351151003
vn -0.002918258667587609 -0.19333946825926568 -0.9811275828247688
vn 0.002918258667587609 0.19333946825926568 0.9811275828247688
usemtl material_0_2
f 1//1 2//2 3//3
f 3//6 2//5 1//4
f 1//1 4//7 2//2
f 2//5 4//8 1//4
f 1//1 5//9 6//10
f 6//12 5//11 1//4
f 5//9 1//1 3//3
f 3//6 1//4 5//11
f 1//1 7//13 4//7
f 4//8 7//14 1//4
f 1//1 6//10 8//15
f 8//16 6//12 1//4
f 1//1 9//17 7//13
f 7//14 9//18 1//4
f 10//19 1//1 8//15
f 8//16 1//4 10//20
f 11//21 1//1 10//19
f 10//20 1//4 11//22
f 12//23 1//1 11//21
f 11//22 1//4 12//24
f 13//25 1//1 12//23
f 12//24 1//4 13//26
f 13//25 14//27 1//1
f 1//4 14//28 13//26
f 14//27 15//29 1//1
f 1//4 15//30 14//28
