# SSTK version 0.8.0
# 82
mtllib original-82.mtl
o #ID496
v -0.317442 0.367069 0.503700
v -0.317403 0.366963 0.503719
v -0.317500 0.366327 0.503840
v -0.317346 0.366867 0.503739
v -0.317268 0.366780 0.503753
v -0.317182 0.366708 0.503768
v -0.317081 0.366650 0.503778
v -0.316975 0.366607 0.503787
v -0.316854 0.366583 0.503792
v -0.316724 0.366573 0.503792
vn -0.015175139005364036 -0.18420385186521326 -0.9827709072383992
vn -0.009217677523761372 -0.1850889683035106 -0.9826785375866361
vn -0.002405073398433656 -0.1854886130306327 -0.9826434704703025
vn 0.015175139005364036 0.18420385186521326 0.9827709072383992
vn 0.009217677523761372 0.1850889683035106 0.9826785375866361
vn 0.002405073398433656 0.1854886130306327 0.9826434704703025
vn 0.004677584651033361 -0.1859163238168927 -0.9825544467052423
vn -0.004677584651033361 0.1859163238168927 0.9825544467052423
vn -0.008380113371648052 -0.18423897326593192 -0.9828457531219197
vn 0.008380113371648052 0.18423897326593192 0.9828457531219197
vn -0.002104050254475959 -0.18520357558485587 -0.9826979233534134
vn 0.002104050254475959 0.18520357558485587 0.9826979233534134
vn 0.0016333390028401144 -0.19266183899711173 -0.9812638523852557
vn -0.0016333390028401144 0.19266183899711173 0.9812638523852557
vn 0.002819077426771359 -0.19160754224589588 -0.9814675759070949
vn -0.002819077426771359 0.19160754224589588 0.9814675759070949
vn -0.009360562907466962 -0.16285788685854932 -0.9866051330446358
vn 0.009360562907466962 0.16285788685854932 0.9866051330446358
vn -0.011647630742001548 -0.157243015017499 -0.9874912490378356
vn 0.011647630742001548 0.157243015017499 0.9874912490378356
usemtl material_0_2
f 1//1 2//2 3//3
f 3//6 2//5 1//4
f 2//2 4//7 3//3
f 3//6 4//8 2//5
f 4//7 5//9 3//3
f 3//6 5//10 4//8
f 5//9 6//11 3//3
f 3//6 6//12 5//10
f 6//11 7//13 3//3
f 3//6 7//14 6//12
f 7//13 8//15 3//3
f 3//6 8//16 7//14
f 8//15 9//17 3//3
f 3//6 9//18 8//16
f 9//17 10//19 3//3
f 3//6 10//20 9//18
