# SSTK version 0.8.0
# 469
mtllib original-469.mtl
o #ID2818
v 0.112687 0.341755 0.508538
v 0.112817 0.341500 0.508587
v 0.112822 0.340830 0.508712
v 0.112475 0.341953 0.508500
v 0.112171 0.342092 0.508471
v 0.111786 0.342179 0.508456
v 0.112248 0.341490 0.508587
v 0.112330 0.341331 0.508616
v 0.112359 0.341138 0.508654
v 0.112330 0.340926 0.508698
v 0.112258 0.340753 0.508727
v 0.112133 0.340613 0.508756
vn 0.007806202597672938 -0.183529332009549 -0.9829832386633724
vn 0.0027136128010340987 -0.18425173119678476 -0.9828753409545656
vn -0.0013932758401386707 -0.18718770795503786 -0.9823231753211225
vn -0.007806202597672938 0.183529332009549 0.9829832386633724
vn -0.0027136128010340987 0.18425173119678476 0.9828753409545656
vn 0.0013932758401386707 0.18718770795503786 0.9823231753211225
vn 0.009295367645447052 -0.18318686765444314 -0.9830341640346429
vn -0.009295367645447052 0.18318686765444314 0.9830341640346429
vn -0.0024979226640507394 -0.18909546280721162 -0.9819555317467746
vn 0.0024979226640507394 0.18909546280721162 0.9819555317467746
vn -0.005100912543854625 -0.19016643018858626 -0.9817386156816637
vn 0.005100912543854625 0.19016643018858626 0.9817386156816637
vn 0.006210575424261924 -0.1816558292943156 -0.9833425590486227
vn -0.006210575424261924 0.1816558292943156 0.9833425590486227
vn 0.01685576238223119 -0.17331157926860585 -0.9847227933616319
vn -0.01685576238223119 0.17331157926860585 0.9847227933616319
vn -0.009685741231018029 -0.19858988756003856 -0.980034817226254
vn 0.009685741231018029 0.19858988756003856 0.980034817226254
vn -0.006469965713111929 -0.1805290802260561 -0.9835483672582683
vn 0.006469965713111929 0.1805290802260561 0.9835483672582683
vn 0.001367339050992143 -0.19334640673562428 -0.9811296027469267
vn -0.001367339050992143 0.19334640673562428 0.9811296027469267
vn 0.003211846301485689 -0.20633725790725524 -0.9784756614462368
vn -0.003211846301485689 0.20633725790725524 0.9784756614462368
usemtl material_0_2
f 1//1 2//2 3//3
f 3//6 2//5 1//4
f 4//7 1//1 3//3
f 3//6 1//4 4//8
f 5//9 4//7 3//3
f 3//6 4//8 5//10
f 6//11 5//9 3//3
f 3//6 5//10 6//12
f 6//11 3//3 7//13
f 7//14 3//6 6//12
f 7//13 3//3 8//15
f 8//16 3//6 7//14
f 8//15 3//3 9//17
f 9//18 3//6 8//16
f 9//17 3//3 10//19
f 10//20 3//6 9//18
f 10//19 3//3 11//21
f 11//22 3//6 10//20
f 3//3 12//23 11//21
f 11//22 12//24 3//6
