# SSTK version 0.8.0
# 187
mtllib original-187.mtl
o #ID1126
v -0.240179 0.364029 0.504280
v -0.240815 0.363576 0.504366
v -0.240680 0.363730 0.504338
v -0.240936 0.363398 0.504400
v -0.241032 0.363205 0.504439
v -0.241104 0.363003 0.504478
v -0.241162 0.362781 0.504516
v -0.241191 0.362550 0.504565
v -0.241201 0.362304 0.504608
v -0.241191 0.362039 0.504661
v -0.241162 0.361798 0.504704
v -0.240531 0.363162 0.504444
vn -0.0042453208613716905 -0.18522162227289987 -0.9826876044264421
vn -0.0033992325803037077 -0.18386839332070018 -0.9829449929449405
vn -0.0087915051703482 -0.1765472725823355 -0.9842528994016619
vn 0.0042453208613716905 0.18522162227289987 0.9826876044264421
vn 0.0033992325803037077 0.18386839332070018 0.9829449929449405
vn 0.0087915051703482 0.1765472725823355 0.9842528994016619
vn 0.011740665929024261 -0.20143392313276068 -0.9794317390073124
vn -0.011740665929024261 0.20143392313276068 0.9794317390073124
vn -0.0021177558921481134 -0.18787060852721 -0.9821915035071304
vn 0.0021177558921481134 0.18787060852721 0.9821915035071304
vn -0.02582467480224172 -0.1669072029137731 -0.9856343499426443
vn 0.02582467480224172 0.1669072029137731 0.9856343499426443
vn 0.02103518712772663 -0.20222184262958876 -0.9791138071061991
vn -0.02103518712772663 0.20222184262958876 0.9791138071061991
vn -0.01600053548652399 -0.17860303398627217 -0.9837911054258637
vn 0.01600053548652399 0.17860303398627217 0.9837911054258637
vn 0.008724718143682144 -0.1920341696589603 -0.9813494571133704
vn -0.008724718143682144 0.1920341696589603 0.9813494571133704
vn -0.012358976272785238 -0.18218755511008106 -0.9831861219873376
vn 0.012358976272785238 0.18218755511008106 0.9831861219873376
vn -0.0181596894129204 -0.17935338016916239 -0.9836170955724195
vn 0.0181596894129204 0.17935338016916239 0.9836170955724195
vn -0.03206758074172893 -0.17336240972869754 -0.9843358904146653
vn 0.03206758074172893 0.17336240972869754 0.9843358904146653
usemtl material_0_2
f 1//1 2//2 3//3
f 3//6 2//5 1//4
f 1//1 4//7 2//2
f 2//5 4//8 1//4
f 1//1 5//9 4//7
f 4//8 5//10 1//4
f 1//1 6//11 5//9
f 5//10 6//12 1//4
f 1//1 7//13 6//11
f 6//12 7//14 1//4
f 1//1 8//15 7//13
f 7//14 8//16 1//4
f 1//1 9//17 8//15
f 8//16 9//18 1//4
f 1//1 10//19 9//17
f 9//18 10//20 1//4
f 1//1 11//21 10//19
f 10//20 11//22 1//4
f 1//1 12//23 11//21
f 11//22 12//24 1//4
