# SSTK version 0.8.0
# 162
mtllib original-162.mtl
o #ID976
v -0.251776 0.364019 0.504284
v -0.251444 0.363456 0.504391
v -0.251632 0.363542 0.504371
v -0.251873 0.363595 0.504362
v -0.252167 0.363615 0.504362
v -0.252253 0.364044 0.504275
vn 0.003399854638189164 -0.1850060363569244 -0.9827315032601426
vn 0.021428547482397944 -0.17294056462212 -0.9846991309333916
vn 0.014638521790536855 -0.17495592858702713 -0.9844674381268479
vn -0.003399854638189164 0.1850060363569244 0.9827315032601426
vn -0.021428547482397944 0.17294056462212 0.9846991309333916
vn -0.014638521790536855 0.17495592858702713 0.9844674381268479
vn -0.006113380959189305 -0.17797004216965742 -0.9840169158420896
vn 0.006113380959189305 0.17797004216965742 0.9840169158420896
vn -0.0004082382529206442 -0.18718361237844616 -0.9823248589944594
vn 0.0004082382529206442 0.18718361237844616 0.9823248589944594
vn 0.009870409194747309 -0.19672917169588752 -0.9804081843937137
vn -0.009870409194747309 0.19672917169588752 0.9804081843937137
usemtl material_0_2
f 1//1 2//2 3//3
f 3//6 2//5 1//4
f 1//1 3//3 4//7
f 4//8 3//6 1//4
f 1//1 4//7 5//9
f 5//10 4//8 1//4
f 6//11 1//1 5//9
f 5//10 1//4 6//12
