# SSTK version 0.8.0
# 528
mtllib original-528.mtl
o #ID3172
v 0.102752 0.333873 0.510045
v 0.102574 0.333791 0.510059
v 0.101745 0.333699 0.510079
v 0.102911 0.333974 0.510026
v 0.103060 0.334099 0.510001
v 0.102020 0.334118 0.509996
v 0.101875 0.334128 0.509996
v 0.101735 0.334157 0.509987
v 0.101605 0.334210 0.509977
v 0.101485 0.334282 0.509967
v 0.101374 0.334374 0.509948
vn -0.0015726926884774015 -0.18259081650375641 -0.9831877340397404
vn -0.004715717481373235 -0.1649480712156887 -0.9862909792808915
vn -0.0006309215159552809 -0.19168022426450299 -0.9814572296152035
vn 0.0015726926884774015 0.18259081650375641 0.9831877340397404
vn 0.004715717481373235 0.1649480712156887 0.9862909792808915
vn 0.0006309215159552809 0.19168022426450299 0.9814572296152035
vn 0.00010299258566404063 -0.1899078303343795 -0.9818019175832852
vn -0.00010299258566404063 0.1899078303343795 0.9818019175832852
vn 0.0005641142600429958 -0.19153067589890796 -0.9814864655026116
vn -0.0005641142600429958 0.19153067589890796 0.9814864655026116
vn -0.003488724407062986 -0.18989872171637937 -0.9817974863954871
vn 0.003488724407062986 0.18989872171637937 0.9817974863954871
vn 0.005593660979964488 -0.18957305559380289 -0.9818506849565621
vn -0.005593660979964488 0.18957305559380289 0.9818506849565621
vn 0.006889693016122364 -0.19626974093786306 -0.9805257370014965
vn -0.006889693016122364 0.19626974093786306 0.9805257370014965
vn -0.03456269568536462 -0.20375053724044198 -0.9784125605495834
vn 0.03456269568536462 0.20375053724044198 0.9784125605495834
vn 0.011362595485997381 -0.1823015035667837 -0.9831770202873497
vn -0.011362595485997381 0.1823015035667837 0.9831770202873497
vn 0.024327637726485732 -0.17666658833816776 -0.9839700618451768
vn -0.024327637726485732 0.17666658833816776 0.9839700618451768
usemtl material_0_2
f 1//1 2//2 3//3
f 3//6 2//5 1//4
f 4//7 1//1 3//3
f 3//6 1//4 4//8
f 5//9 4//7 3//3
f 3//6 4//8 5//10
f 6//11 5//9 3//3
f 3//6 5//10 6//12
f 7//13 6//11 3//3
f 3//6 6//12 7//14
f 8//15 7//13 3//3
f 3//6 7//14 8//16
f 9//17 8//15 3//3
f 3//6 8//16 9//18
f 10//19 9//17 3//3
f 3//6 9//18 10//20
f 11//21 10//19 3//3
f 3//6 10//20 11//22
