# SSTK version 0.8.0
# 436
mtllib original-436.mtl
o #ID2620
v -0.094563 0.336311 0.509576
v -0.093695 0.335742 0.509688
v -0.093854 0.335718 0.509692
v -0.094028 0.335713 0.509692
v -0.094182 0.335718 0.509692
v -0.094327 0.335737 0.509688
v -0.094466 0.335766 0.509683
v -0.094596 0.335810 0.509673
v -0.094722 0.335863 0.509663
v -0.094837 0.335930 0.509649
v -0.094659 0.336369 0.509567
v -0.094611 0.336340 0.509572
vn -0.003292564355592187 -0.18571053687461242 -0.9825989800084812
vn -0.0003111483071519206 -0.19225280707281797 -0.9813453833178983
vn 0.0010204270597507592 -0.19071979766799754 -0.9816439871491568
vn 0.003292564355592187 0.18571053687461242 0.9825989800084812
vn 0.0003111483071519206 0.19225280707281797 0.9813453833178983
vn -0.0010204270597507592 0.19071979766799754 0.9816439871491568
vn 0.002168645173550986 -0.1885317456137469 -0.9820647014702976
vn -0.002168645173550986 0.1885317456137469 0.9820647014702976
vn -0.002220089609554686 -0.19326740546350607 -0.9811436088501673
vn 0.002220089609554686 0.19326740546350607 0.9811436088501673
vn 0.003385270626417078 -0.18889775208560497 -0.9819909262308848
vn -0.003385270626417078 0.18889775208560497 0.9819909262308848
vn 0.0002146093800539467 -0.19140029327831237 -0.981512038477262
vn -0.0002146093800539467 0.19140029327831237 0.981512038477262
vn 0.004385797869201983 -0.18931232028409428 -0.9819071290940417
vn -0.004385797869201983 0.18931232028409428 0.9819071290940417
vn 0.001915932895011818 -0.1908802609172026 -0.9816114583649288
vn -0.001915932895011818 0.1908802609172026 0.9816114583649288
vn 0.006825542509078144 -0.191646864815646 -0.9814402127362575
vn -0.006825542509078144 0.191646864815646 0.9814402127362575
vn -0.009370711195729998 -0.18036338277074979 -0.9835554076548907
vn 0.009370711195729998 0.18036338277074979 0.9835554076548907
usemtl material_0_2
f 1//1 2//2 3//3
f 3//6 2//5 1//4
f 1//1 3//3 4//7
f 4//8 3//6 1//4
f 1//1 4//7 5//9
f 5//10 4//8 1//4
f 1//1 5//9 6//11
f 6//12 5//10 1//4
f 1//1 6//11 7//13
f 7//14 6//12 1//4
f 1//1 7//13 8//15
f 8//16 7//14 1//4
f 1//1 8//15 9//17
f 9//18 8//16 1//4
f 1//1 9//17 10//19
f 10//20 9//18 1//4
f 11//21 1//1 10//19
f 10//20 1//4 11//22
f 1//1 11//21 12//21
f 12//22 11//22 1//4
