# SSTK version 0.8.0
# 61
mtllib original-61.mtl
o #ID370
v -0.315047 0.336687 0.509504
v -0.313506 0.335077 0.509813
v -0.314045 0.335077 0.509813
v -0.314725 0.337062 0.509436
v -0.313655 0.338575 0.509147
v -0.314199 0.338575 0.509147
v -0.315524 0.336672 0.509509
v -0.315524 0.336026 0.509634
v -0.316011 0.338575 0.509147
v -0.315524 0.335077 0.509813
v -0.316011 0.335077 0.509813
v -0.315524 0.338575 0.509147
vn 0.0006632767940584665 -0.1857024201046761 -0.9826058066341563
vn 0.001379091604757857 -0.18737212875599701 -0.9822880348817203
vn 0 -0.18864673096738757 -0.9820450146990809
vn -0.0006632767940584665 0.1857024201046761 0.9826058066341563
vn -0.001379091604757857 0.18737212875599701 0.9822880348817203
vn 0 0.18864673096738757 0.9820450146990809
vn 0.05500698886655433 -0.22221985173753966 -0.9734436648669406
vn -0.05500698886655433 0.22221985173753966 0.9734436648669406
vn 0.0015534900716852671 -0.1869434429474675 -0.9823694497527619
vn -0.0015534900716852671 0.1869434429474675 0.9823694497527619
vn -0.0003955342472579157 -0.18566656507873977 -0.9826127264413591
vn 0.0003955342472579157 0.18566656507873977 0.9826127264413591
vn -0.0015720333374555347 -0.1876362300306522 -0.9822373307358411
vn 0.0015720333374555347 0.1876362300306522 0.9822373307358411
vn -0.000050326522211480864 -0.18778908949836057 -0.9822093744882593
vn 0.000050326522211480864 0.18778908949836057 0.9822093744882593
vn 0.000810322748579593 -0.18721952987330368 -0.9823177647844216
vn -0.000810322748579593 0.18721952987330368 0.9823177647844216
usemtl material_0_2
f 1//1 2//2 3//3
f 3//6 2//5 1//4
f 4//7 2//2 1//1
f 1//4 2//5 4//8
f 5//9 4//7 1//1
f 1//4 4//8 5//10
f 5//9 1//1 6//11
f 6//12 1//4 5//10
f 6//11 1//1 7//13
f 7//14 1//4 6//12
f 1//1 8//15 7//13
f 7//14 8//16 1//4
f 9//17 10//17 11//17
f 11//18 10//18 9//18
f 10//17 9//17 8//15
f 8//16 9//18 10//18
f 8//15 9//17 7//13
f 7//14 9//18 8//16
f 7//13 9//17 12//17
f 12//18 9//18 7//14
