# Blender v2.93.4 OBJ File: ''
# www.blender.org
mtllib new-3-left.mtl
o new-3
v -0.422590 -0.724178 -0.497696
v -0.444406 0.770810 -0.497696
v -0.444406 0.770810 0.391273
v -0.422590 -0.724178 0.391273
v -0.444406 -0.712658 0.391273
v -0.422590 -0.690842 0.391273
v -0.444406 -0.745994 0.391273
v -0.422590 0.792626 0.391273
v -0.444406 -0.745994 -0.497696
v -0.422590 0.792626 -0.497696
v -0.444216 0.770810 0.449735
v -0.444406 0.770810 0.446834
v -0.443649 0.770810 0.452586
v -0.442714 0.770810 0.455339
v -0.422400 0.792626 0.449735
v -0.422590 0.792626 0.446834
v -0.421833 0.792626 0.452586
v -0.420898 0.792626 0.455339
vt 0.000000 0.000000
vt 0.000000 0.000000
vt 0.000000 0.000000
vt 0.000000 0.000000
vt 0.000000 0.000000
vt 0.000000 0.000000
vt 0.000000 0.032407
vt 0.000000 0.032407
vt 0.000000 0.032407
vt 0.000000 0.032407
vt 0.000000 0.032407
vt 0.000000 0.032407
vt 0.000000 0.032407
vt 0.000000 0.032407
vt 0.000000 0.032407
vt 0.000000 0.032407
vt 0.000079 0.008051
vt 0.000079 0.008051
vt 0.000000 0.009259
vt 0.000000 0.009259
vn -0.6876 0.6876 0.2335
vn -0.7002 0.7002 0.1393
vn 0.7412 0.0000 -0.6713
vn 0.5595 0.0000 -0.8289
vn 1.0000 0.0000 0.0000
vn -0.9573 0.0000 -0.2890
vn -1.0000 0.0000 0.0000
vn -0.2195 0.0000 -0.9756
vn -0.3922 0.3922 -0.8321
vn -0.7071 0.7071 0.0000
vn -0.6325 0.6325 -0.4472
vn -0.5547 -0.0000 0.8321
vn -0.5665 -0.0000 0.8241
vn -0.3204 -0.7735 -0.5469
vn 0.7173 -0.2971 -0.6303
vn 0.8886 -0.4587 -0.0000
vn 0.0629 -0.9980 -0.0000
vn 0.8944 -0.0000 0.4472
vn 0.2233 -0.0000 0.9747
vn -0.3566 -0.3861 0.8507
vn -0.3807 -0.3810 -0.8425
vn 0.3783 0.3815 -0.8434
vn 0.4023 0.3739 0.8356
vn -0.9261 -0.3762 0.0299
vn -0.3894 0.9210 0.0129
usemtl material-0.002
s off
f 13/1/1 14/2/1 18/3/1 17/4/1
f 11/5/2 13/1/2 17/4/2 15/6/2
s 1
f 5/7/3 7/8/4 2/9/5
f 6/10/6 10/11/7 4/12/8
f 7/8/4 5/7/3 6/10/6 4/12/8
usemtl material-1.002
f 2/9/9 3/13/10 8/14/10 10/11/11
f 3/13/12 2/9/7 5/7/13
f 9/15/14 2/9/9 10/11/11 1/16/15
f 1/16/15 10/11/5 4/12/16
f 9/15/14 7/8/17 2/9/7
f 8/14/18 6/10/19 10/11/5
f 7/8/17 9/15/14 1/16/15 4/12/16
f 3/13/12 5/7/13 6/10/19 8/14/18
usemtl material-2.002
f 11/17/20 3/13/21 8/14/22 15/18/23
f 12/19/24 11/17/20 15/18/23 16/20/25
f 11/17/20 12/19/24 3/13/21
f 15/18/23 8/14/22 16/20/25
f 3/13/21 12/19/24 16/20/25 8/14/22
