mtllib new-0.mtl
v -0.603247 -0.364938 0.360605
v -0.484624 -0.364938 0.296609
v -0.492764 -0.364938 0.294990
v -0.476341 -0.364938 0.297152
v -0.500624 -0.364938 0.292322
v -0.484624 -0.396665 0.296609
v -0.476341 -0.396665 0.297152
v -0.468059 -0.364938 0.296609
v -0.508068 -0.364938 0.288651
v -0.492764 -0.396665 0.294990
v -0.468059 -0.396665 0.296609
v -0.459919 -0.364938 0.294990
v -0.539794 -0.364938 0.233699
v -0.514969 -0.364938 0.284039
v -0.500624 -0.396665 0.292322
v -0.492764 -0.396665 0.172408
v -0.484624 -0.396665 0.170789
v -0.476341 -0.396665 0.170246
v -0.459919 -0.396665 0.294990
v -0.452059 -0.364938 0.292322
v -0.539252 -0.364938 0.241981
v -0.521209 -0.364938 0.278567
v -0.508068 -0.396665 0.288651
v -0.500624 -0.396665 0.175076
v -0.468059 -0.396665 0.170789
v -0.452059 -0.396665 0.292322
v -0.444615 -0.364938 0.288651
v -0.537632 -0.364938 0.250122
v -0.539794 -0.396665 0.233699
v -0.539252 -0.364938 0.225416
v -0.526682 -0.364938 0.272326
v -0.514969 -0.396665 0.284039
v -0.508068 -0.396665 0.178747
v -0.492764 -0.364938 0.172408
v -0.484624 -0.364938 0.170789
v -0.476341 -0.364938 0.170246
v -0.468059 -0.364938 0.170789
v -0.459919 -0.396665 0.172408
v -0.444615 -0.396665 0.288651
v -0.437714 -0.364938 0.284039
v -0.534964 -0.364938 0.257981
v -0.539252 -0.396665 0.241981
v -0.539252 -0.396665 0.225416
v -0.531293 -0.364938 0.265425
v -0.526682 -0.396665 0.272326
v -0.521209 -0.396665 0.278567
v -0.514969 -0.396665 0.183358
v -0.500624 -0.364938 0.175076
v -0.459919 -0.364938 0.172408
v -0.452059 -0.396665 0.175076
v -0.437714 -0.396665 0.284039
v -0.537632 -0.396665 0.250122
v -0.537632 -0.364938 0.217276
v -0.537632 -0.396665 0.217276
v -0.531293 -0.396665 0.265425
v -0.521209 -0.396665 0.188831
v -0.508068 -0.364938 0.178747
v -0.452059 -0.364938 0.175076
v -0.444615 -0.396665 0.178747
v -0.431473 -0.396665 0.278567
v -0.426001 -0.364938 0.272326
v -0.534964 -0.396665 0.257981
v -0.526682 -0.396665 0.195071
v -0.531293 -0.396665 0.201972
v -0.514969 -0.364938 0.183358
v -0.444615 -0.364938 0.178747
v -0.437714 -0.396665 0.183358
v -0.421390 -0.364938 0.265425
v -0.534964 -0.364938 0.209416
v -0.531293 -0.364938 0.201972
v -0.534964 -0.396665 0.209416
v -0.526682 -0.364938 0.195071
v -0.437714 -0.364938 0.183358
v -0.431473 -0.396665 0.188831
v -0.426001 -0.396665 0.272326
v -0.417719 -0.364938 0.257981
v -0.431473 -0.364938 0.188831
v -0.421390 -0.396665 0.265425
v -0.415051 -0.364938 0.250122
v -0.426001 -0.396665 0.195071
v -0.417719 -0.396665 0.257981
v -0.413431 -0.364938 0.241981
v -0.412889 -0.364938 0.233699
v -0.426001 -0.364938 0.195071
v -0.421390 -0.396665 0.201972
v -0.415051 -0.396665 0.250122
v -0.417719 -0.396665 0.209416
v -0.413431 -0.396665 0.241981
v -0.421390 -0.364938 0.201972
v -0.415051 -0.396665 0.217276
v -0.412889 -0.396665 0.233699
v -0.417719 -0.364938 0.209416
v -0.413431 -0.396665 0.225416
v -0.413431 -0.364938 0.225416
v -0.415051 -0.364938 0.217276
vn -1.000000 0.000000 0.000000
vn 1.000000 0.000000 0.000000
vn 0.000000 0.000000 -1.000000
vn 0.000000 0.000000 1.000000
vn 0.000000 -1.000000 0.000000
vn 0.000000 1.000000 0.000000
vn 0.130526 0.000000 -0.991445
vn 0.258819 0.000000 -0.965926
vn -0.130526 0.000000 0.991445
vn -0.258819 0.000000 0.965926
vn 0.382683 0.000000 -0.923880
vn 0.500000 0.000000 -0.866025
vn -0.382683 0.000000 0.923880
vn -0.500000 0.000000 0.866025
vn -0.130526 0.000000 -0.991445
vn 0.130526 0.000000 0.991445
vn 0.608761 0.000000 -0.793353
vn -0.608761 0.000000 0.793353
vn 0.991445 0.000000 0.130526
vn 0.965926 0.000000 0.258819
vn -0.965926 0.000000 -0.258819
vn -0.991445 0.000000 -0.130526
vn -0.258819 0.000000 -0.965926
vn 0.258819 0.000000 0.965926
vn 0.707107 0.000000 -0.707107
vn -0.707107 0.000000 0.707107
vn 0.923880 0.000000 0.382683
vn -0.923880 0.000000 -0.382683
vn -0.382683 0.000000 -0.923880
vn 0.382683 0.000000 0.923880
vn 0.793353 0.000000 -0.608761
vn -0.793353 0.000000 0.608761
vn -0.991445 0.000000 0.130526
vn 0.991445 0.000000 -0.130526
vn 0.866025 0.000000 0.500000
vn -0.866025 0.000000 -0.500000
vn -0.500000 0.000000 -0.866025
vn 0.500000 0.000000 0.866025
vn 0.866025 0.000000 -0.500000
vn -0.866025 0.000000 0.500000
vn 0.608761 0.000000 0.793353
vn -0.608761 0.000000 -0.793353
vn -0.965926 0.000000 0.258819
vn 0.965926 0.000000 -0.258819
vn 0.793353 0.000000 0.608761
vn -0.793353 0.000000 -0.608761
vn 0.923880 0.000000 -0.382683
vn -0.923880 0.000000 0.382683
vn 0.707107 0.000000 0.707107
vn -0.707107 0.000000 -0.707107
usemtl material-0
f 2//5 1//5 3//5
f 3//6 1//6 2//6
f 3//5 1//5 5//5
f 5//6 1//6 3//6
f 5//5 1//5 9//5
f 9//6 1//6 5//6
f 9//5 1//5 14//5
f 14//6 1//6 9//6
f 14//5 1//5 22//5
f 22//6 1//6 14//6
f 28//5 1//5 21//5
f 21//6 1//6 28//6
f 22//5 1//5 31//5
f 31//6 1//6 22//6
f 41//5 1//5 28//5
f 28//6 1//6 41//6
f 31//5 1//5 44//5
f 44//6 1//6 31//6
f 44//5 1//5 41//5
f 41//6 1//6 44//6
usemtl material-3
f 6//7 3//8 2//7
f 2//9 3//10 6//9
f 7//3 2//7 4//3
f 4//4 2//9 7//4
f 10//8 5//11 3//8
f 3//10 5//13 10//10
f 3//8 6//7 10//8
f 10//10 6//9 3//10
f 2//7 7//3 6//7
f 6//9 7//4 2//9
f 4//3 11//15 7//3
f 7//4 11//16 4//4
f 11//15 4//3 8//15
f 8//16 4//4 11//16
f 15//11 9//12 5//11
f 5//13 9//14 15//13
f 5//11 10//8 15//11
f 15//13 10//10 5//13
f 16//6 10//6 6//6
f 6//5 10//5 16//5
f 17//6 6//6 7//6
f 7//5 6//5 17//5
f 18//6 7//6 11//6
f 11//5 7//5 18//5
f 8//15 19//23 11//15
f 11//16 19//24 8//16
f 19//23 8//15 12//23
f 12//24 8//16 19//24
f 23//12 14//17 9//12
f 9//14 14//18 23//14
f 9//12 15//11 23//12
f 23//14 15//13 9//14
f 24//6 15//6 10//6
f 10//5 15//5 24//5
f 24//6 10//6 16//6
f 16//5 10//5 24//5
f 16//6 6//6 17//6
f 17//5 6//5 16//5
f 17//6 7//6 18//6
f 18//5 7//5 17//5
f 18//6 11//6 25//6
f 25//5 11//5 18//5
f 25//6 11//6 19//6
f 19//5 11//5 25//5
f 12//23 26//29 19//23
f 19//24 26//30 12//24
f 26//29 12//23 20//29
f 20//30 12//24 26//30
f 21//34 29//2 13//2
f 13//1 29//1 21//33
f 14//17 23//12 32//17
f 32//18 23//14 14//18
f 33//6 23//6 15//6
f 15//5 23//5 33//5
f 33//6 15//6 24//6
f 24//5 15//5 33//5
f 34//24 24//30 16//24
f 16//23 24//29 34//23
f 35//16 16//24 17//16
f 17//15 16//23 35//15
f 36//4 17//16 18//4
f 18//3 17//15 36//3
f 37//9 18//4 25//9
f 25//7 18//3 37//7
f 38//6 19//6 26//6
f 26//5 19//5 38//5
f 20//29 39//37 26//29
f 26//30 39//38 20//30
f 28//44 42//34 21//34
f 21//33 42//33 28//43
f 29//2 21//34 42//34
f 42//33 21//33 29//1
f 43//19 13//2 29//2
f 29//1 13//1 43//22
f 13//2 43//19 30//19
f 30//22 43//22 13//1
f 22//25 32//17 46//25
f 46//26 32//18 22//26
f 47//6 32//6 23//6
f 23//5 32//5 47//5
f 47//6 23//6 33//6
f 33//5 23//5 47//5
f 48//30 33//38 24//30
f 24//29 33//37 48//29
f 16//24 35//16 34//24
f 34//23 35//15 16//23
f 49//10 25//9 38//10
f 38//8 25//7 49//8
f 38//6 26//6 50//6
f 50//5 26//5 38//5
f 50//6 26//6 39//6
f 39//5 26//5 50//5
f 27//37 51//42 39//37
f 39//38 51//41 27//38
f 41//47 52//44 28//44
f 28//43 52//43 41//48
f 42//34 28//44 52//44
f 52//43 28//43 42//33
f 42//6 43//6 29//6
f 29//5 43//5 42//5
f 54//20 30//19 43//19
f 43//22 30//22 54//21
f 45//31 22//25 46//25
f 46//26 22//26 45//32
f 55//39 31//31 45//31
f 45//32 31//32 55//40
f 56//6 46//6 32//6
f 32//5 46//5 56//5
f 56//6 32//6 47//6
f 47//5 32//5 56//5
f 57//38 47//41 33//38
f 33//37 47//42 57//37
f 58//13 38//10 50//13
f 50//11 38//8 58//11
f 50//6 39//6 59//6
f 59//5 39//5 50//5
f 59//6 39//6 51//6
f 51//5 39//5 59//5
f 40//42 60//50 51//42
f 51//41 60//49 40//41
f 44//39 62//47 41//47
f 41//48 62//48 44//40
f 52//44 41//47 62//47
f 62//48 41//48 52//43
f 43//6 42//6 52//6
f 52//5 42//5 43//5
f 30//19 54//20 53//20
f 53//21 54//21 30//22
f 43//6 52//6 54//6
f 54//5 52//5 43//5
f 62//47 44//39 55//39
f 55//40 44//40 62//48
f 63//6 45//6 46//6
f 46//5 45//5 63//5
f 64//6 55//6 45//6
f 45//5 55//5 64//5
f 63//6 46//6 56//6
f 56//5 46//5 63//5
f 65//41 56//49 47//41
f 47//42 56//50 65//42
f 66//14 50//13 59//14
f 59//12 50//11 66//12
f 59//6 51//6 67//6
f 67//5 51//5 59//5
f 67//6 51//6 60//6
f 60//5 51//5 67//5
f 54//6 52//6 62//6
f 62//5 52//5 54//5
f 71//27 53//20 54//20
f 54//21 53//21 71//28
f 71//6 62//6 55//6
f 55//5 62//5 71//5
f 64//6 45//6 63//6
f 63//5 45//5 64//5
f 71//6 55//6 64//6
f 64//5 55//5 71//5
f 56//49 72//45 63//45
f 63//46 72//46 56//50
f 73//18 59//14 67//18
f 67//17 59//12 73//17
f 67//6 60//6 74//6
f 74//5 60//5 67//5
f 60//50 61//46 75//46
f 75//45 61//45 60//49
f 54//6 62//6 71//6
f 71//5 62//5 54//5
f 53//20 71//27 69//27
f 69//28 71//28 53//21
f 63//45 70//35 64//35
f 64//36 70//36 63//46
f 64//35 69//27 71//27
f 71//28 69//28 64//36
f 67//18 77//26 73//18
f 73//17 77//25 67//17
f 74//6 60//6 75//6
f 75//5 60//5 74//5
f 77//26 67//18 74//26
f 74//25 67//17 77//25
f 75//46 68//36 78//36
f 78//35 68//35 75//45
f 69//27 64//35 70//35
f 70//36 64//36 69//28
f 74//6 75//6 80//6
f 80//5 75//5 74//5
f 80//32 77//26 74//26
f 74//25 77//25 80//31
f 80//6 75//6 78//6
f 78//5 75//5 80//5
f 78//36 76//28 81//28
f 81//27 76//27 78//35
f 80//6 78//6 85//6
f 85//5 78//5 80//5
f 85//6 78//6 81//6
f 81//5 78//5 85//5
f 81//28 79//21 86//21
f 86//20 79//20 81//27
f 85//40 84//32 80//32
f 80//31 84//31 85//39
f 85//6 81//6 87//6
f 87//5 81//5 85//5
f 87//6 81//6 86//6
f 86//5 81//5 87//5
f 86//21 82//22 88//22
f 88//19 82//19 86//20
f 84//32 85//40 89//40
f 89//39 85//39 84//31
f 87//48 89//40 85//40
f 85//39 89//39 87//47
f 87//6 86//6 90//6
f 90//5 86//5 87//5
f 90//6 86//6 88//6
f 88//5 86//5 90//5
f 88//22 83//1 91//1
f 91//2 83//2 88//19
f 90//43 92//48 87//48
f 87//47 92//47 90//44
f 90//6 88//6 93//6
f 93//5 88//5 90//5
f 93//6 88//6 91//6
f 91//5 88//5 93//5
f 92//48 90//43 95//43
f 95//44 90//44 92//47
f 93//33 95//43 90//43
f 90//44 95//44 93//34
f 91//1 94//33 93//33
f 93//34 94//34 91//2