mtllib new-8.mtl
v 0.242614 -0.322948 -0.261616
v 0.684760 -0.322948 -0.261616
v 0.702246 -0.405382 -0.279102
v 0.242614 -0.405382 -0.261616
v 0.684760 -0.405382 -0.261616
vn 0.000000 0.000000 -1.000000
vn 0.000000 0.000000 1.000000
vn 0.000000 -1.000000 0.000000
vn 0.000000 1.000000 0.000000
vt 0.012153 0.057292
vt 0.012153 0.000000
vt -0.319444 0.291667
vt -0.012153 0.291667
vt 0.319444 0.057292
vt 0.319444 0.000000
vt -0.331597 0.303819
usemtl material-0
f 4/2/2 2/5/2 1/1/2
f 1/1/1 2/5/1 4/2/1
f 2/5/2 4/2/2 5/6/2
f 5/6/1 4/2/1 2/5/1
f 4/4/3 3/7/3 5/3/3
f 5/3/4 3/7/4 4/4/4