# SSTK version 0.8.0
# 10
mtllib original-10.mtl
o mesh9/mesh9-geometry#mesh9-geometry
v -0.514291 -0.773527 0.309864
v -0.525538 -0.679592 0.308756
v -0.525538 -0.773527 0.308756
v -0.514291 -0.679592 0.309864
v -0.536352 -0.773527 0.305475
v -0.514291 -0.773527 0.194567
v -0.503044 -0.773527 0.308756
v -0.525538 -0.679592 0.195675
v -0.536352 -0.679592 0.305475
v -0.536352 -0.773527 0.198955
v -0.525538 -0.773527 0.195675
v -0.503044 -0.773527 0.195675
v -0.503044 -0.679592 0.308756
v -0.536352 -0.679592 0.198955
v -0.514291 -0.679592 0.194567
v -0.546319 -0.679592 0.300148
v -0.546319 -0.773527 0.204283
v -0.492230 -0.679592 0.305476
v -0.492230 -0.773527 0.305476
v -0.546319 -0.679592 0.204283
v -0.546319 -0.773527 0.300148
v -0.503044 -0.679592 0.195675
v -0.492230 -0.773527 0.198955
v -0.555054 -0.773527 0.292979
v -0.555054 -0.679592 0.211452
v -0.482263 -0.679592 0.300148
v -0.492230 -0.679592 0.198955
v -0.482263 -0.773527 0.300148
v -0.555054 -0.679592 0.292979
v -0.555054 -0.773527 0.211452
v -0.482263 -0.773527 0.204283
v -0.562224 -0.679592 0.284243
v -0.562224 -0.679592 0.220188
v -0.562224 -0.773527 0.284243
v -0.562224 -0.773527 0.220188
v -0.473528 -0.773527 0.292979
v -0.482263 -0.679592 0.204283
v -0.473528 -0.679592 0.292979
v -0.473528 -0.773527 0.211452
v -0.567551 -0.679592 0.274276
v -0.567551 -0.679592 0.230154
v -0.567551 -0.773527 0.230154
v -0.567551 -0.773527 0.274276
v -0.466358 -0.773527 0.284243
v -0.473528 -0.679592 0.211452
v -0.466358 -0.679592 0.284243
v -0.466358 -0.773527 0.220188
v -0.570832 -0.679592 0.263462
v -0.570832 -0.679592 0.240969
v -0.570832 -0.773527 0.240969
v -0.570832 -0.773527 0.263462
v -0.466358 -0.679592 0.220188
v -0.461031 -0.773527 0.274277
v -0.461031 -0.773527 0.230154
v -0.461031 -0.679592 0.274277
v -0.461031 -0.679592 0.230154
v -0.571939 -0.679592 0.252215
v -0.571939 -0.773527 0.252215
v -0.457750 -0.773527 0.263462
v -0.457751 -0.679592 0.240969
v -0.457751 -0.679592 0.263462
v -0.457750 -0.773527 0.240969
v -0.456643 -0.773527 0.252216
v -0.456643 -0.679592 0.252216
vt 0.097238 0.01022
vt 0.088483 0.076692
vt 0.088483 0.01022
vt 0.097238 0.076692
vt 0.088484 0.076692
vt 0.080066 0.01022
vt 0.088484 0.01022
vt 0.911517 0.174326
vt 0.902762 0.290801
vt 0.902762 0.173197
vt 0.105993 0.01022
vt 0.088483 0.289671
vt 0.088483 0.174326
vt 0.097238 0.173197
vt 0.080066 0.076692
vt 0.919935 0.177673
vt 0.919935 0.286325
vt 0.911517 0.289671
vt 0.894007 0.289671
vt 0.105993 0.076692
vt 0.894007 0.174326
vt 0.080065 0.286325
vt 0.097238 0.290801
vt 0.080065 0.177673
vt 0.072307 0.076692
vt 0.080065 0.01022
vt 0.080065 0.076692
vt 0.927693 0.280891
vt 0.911517 0.076692
vt 0.902762 0.01022
vt 0.911517 0.01022
vt 0.902762 0.076692
vt 0.894007 0.01022
vt 0.114411 0.076692
vt 0.105993 0.174326
vt 0.885589 0.177673
vt 0.919935 0.076692
vt 0.072307 0.280891
vt 0.072307 0.01022
vt 0.072307 0.183107
vt 0.927693 0.183107
vt 0.927693 0.076692
vt 0.919935 0.01022
vt 0.927693 0.01022
vt 0.894007 0.076692
vt 0.114411 0.01022
vt 0.105993 0.289671
vt 0.114411 0.177672
vt 0.885588 0.286325
vt 0.065506 0.01022
vt 0.065506 0.273578
vt 0.934494 0.190419
vt 0.934493 0.076692
vt 0.885589 0.01022
vt 0.122169 0.076692
vt 0.114411 0.286325
vt 0.87783 0.183106
vt 0.065506 0.076692
vt 0.065506 0.190419
vt 0.934494 0.273578
vt 0.934493 0.01022
vt 0.885589 0.076692
vt 0.122169 0.01022
vt 0.12217 0.183106
vt 0.87783 0.280891
vt 0.059925 0.076692
vt 0.059925 0.264668
vt 0.940075 0.19933
vt 0.940075 0.01022
vt 0.934494 0.076692
vt 0.934494 0.01022
vt 0.87783 0.01022
vt 0.12897 0.01022
vt 0.12217 0.076692
vt 0.12217 0.01022
vt 0.12217 0.280891
vt 0.87103 0.190419
vt 0.059925 0.01022
vt 0.059925 0.19933
vt 0.940075 0.076692
vt 0.940075 0.264668
vt 0.87783 0.076692
vt 0.12897 0.076692
vt 0.12897 0.190419
vt 0.87103 0.273578
vt 0.790504 0.076692
vt 0.80067 0.01022
vt 0.80067 0.076692
vt 0.055778 0.254501
vt 0.745499 0.01022
vt 0.735332 0.076692
vt 0.735332 0.01022
vt 0.944222 0.209496
vt 0.877828 0.076692
vt 0.871028 0.01022
vt 0.877828 0.01022
vt 0.134551 0.01022
vt 0.128971 0.076692
vt 0.128971 0.01022
vt 0.12897 0.273578
vt 0.865449 0.19933
vt 0.790504 0.01022
vt 0.055778 0.209496
vt 0.745499 0.076692
vt 0.944222 0.254501
vt 0.871028 0.076692
vt 0.134551 0.076692
vt 0.134551 0.19933
vt 0.865449 0.264667
vt 0.779473 0.076692
vt 0.053225 0.243471
vt 0.75653 0.01022
vt 0.946775 0.220527
vt 0.865449 0.076692
vt 0.87103 0.01022
vt 0.87103 0.076692
vt 0.209498 0.01022
vt 0.199332 0.076691
vt 0.199332 0.01022
vt 0.134551 0.264667
vt 0.865449 0.01022
vt 0.861302 0.254501
vt 0.779473 0.01022
vt 0.053225 0.220527
vt 0.75653 0.076692
vt 0.946775 0.24347
vt 0.209498 0.076691
vt 0.861302 0.209496
vt 0.138698 0.209496
vt 0.254501 0.076692
vt 0.264667 0.01022
vt 0.264667 0.076692
vt 0.254501 0.01022
vt 0.768001 0.076692
vt 0.052362 0.231999
vt 0.768001 0.01022
vt 0.947638 0.231999
vt 0.22053 0.01022
vt 0.209499 0.076691
vt 0.209499 0.01022
vt 0.858748 0.220527
vt 0.138698 0.254501
vt 0.243466 0.076692
vt 0.254497 0.01022
vt 0.254497 0.076692
vt 0.22053 0.076691
vt 0.858748 0.24347
vt 0.141252 0.220527
vt 0.243466 0.01022
vt 0.141252 0.24347
vt 0.232003 0.01022
vt 0.220531 0.076691
vt 0.220531 0.01022
vt 0.857886 0.231999
vt 0.231994 0.076692
vt 0.142114 0.231999
vt 0.232003 0.076691
vt 0.231994 0.01022
vn 9.999999999995e-7 0 1
vn -0.19508910396827864 0 0.9807855226872256
vn -0.3826841051430464 0 0.9238792538372458
vn 9.999999999995e-7 -1 0
vn 0.19508602680560228 0 0.9807861347639475
vn -9.999999999995e-7 1 0
vn -0.5555710461118432 0 0.8314690690111041
vn -0.19509006590875128 0 -0.9807853313461202
vn 0 0 -1
vn 0.19509102784866092 0 -0.9807851400041463
vn 0.3826799838200994 0 0.9238809609378519
vn -0.382682044482198 0 -0.9238801073899822
vn -0.555569892830578 0 -0.8314698396094834
vn -0.7071067811865475 0 0.7071067811865475
vn -0.70710578118615 0 -0.707107781185531
vn 0.38268289803626016 0 -0.9238797538373538
vn 0.555569892830578 0 0.8314698396094834
vn -0.8314690690111041 0 0.5555710461118432
vn -0.8314703015489732 0 -0.555569201488041
vn 0.5555717374521371 0 -0.8314686070708945
vn 0.70710578118615 0 0.707107781185531
vn -0.9238792538372458 0 0.3826841051430464
vn -0.9238797538373538 0 -0.38268289803626016
vn 0.707107781185531 0 -0.70710578118615
vn 0.8314690690111041 0 0.5555710461118432
vn -0.9807853313461202 0 0.19509006590875128
vn -0.9807853313461202 0 -0.19509006590875128
vn 0.8314698396094834 0 -0.555569892830578
vn 0.9238792538372458 0 0.3826841051430464
vn 0.9238806073868567 0 -0.38268083737560327
vn -1 0 0
vn 0.980784757317592 0 0.19509295172679128
vn 0.9807855607469484 0 -0.1950889126277918
vn 1 0 0
vn 0.19508910396827864 0 -0.9807855226872256
vn -9.999999999995e-7 0 -1
vn 0.3826841051430464 0 -0.9238792538372458
vn -0.19508602680560228 0 -0.9807861347639475
vn 0.5555710461118432 0 -0.8314690690111041
vn 0.19509006590875128 0 0.9807853313461202
vn 0 0 1
vn -0.19509102784866092 0 0.9807851400041463
vn -0.3826799838200994 0 -0.9238809609378519
vn 0.382682044482198 0 0.9238801073899822
vn 0.7071067811865475 0 -0.7071067811865475
vn -0.38268289803626016 0 0.9238797538373538
vn 0.8314690690111041 0 -0.5555710461118432
vn 0.8314703015489732 0 0.555569201488041
vn -0.5555717374521371 0 0.8314686070708945
vn 0.9238792538372458 0 -0.3826841051430464
vn 0.9238797538373538 0 0.38268289803626016
vn -0.707107781185531 0 0.70710578118615
vn -0.8314690690111041 0 -0.5555710461118432
vn 0.9807853313461202 0 -0.19509006590875128
vn 0.9807853313461202 0 0.19509006590875128
vn -0.8314698396094834 0 0.555569892830578
vn -0.9238792538372458 0 -0.3826841051430464
vn -0.9238806073868567 0 0.38268083737560327
vn -0.980784757317592 0 -0.19509295172679128
vn -0.9807855607469484 0 0.1950889126277918
usemtl material_0_0
f 1/1/1 2/2/2 3/3/2
f 2/2/2 1/1/1 4/4/1
f 2/5/2 5/6/3 3/7/2
f 3/8/4 6/9/4 1/10/4
f 7/11/5 4/4/1 1/1/1
f 8/12/6 2/13/6 4/14/6
f 5/6/3 2/5/2 9/15/3
f 5/16/4 10/17/4 3/8/4
f 3/8/4 11/18/4 6/9/4
f 1/10/4 6/9/4 12/19/4
f 4/4/1 7/11/5 13/20/5
f 1/10/4 12/19/4 7/21/4
f 14/22/6 2/13/6 8/12/6
f 8/12/6 4/14/6 15/23/6
f 14/22/6 9/24/6 2/13/6
f 16/25/7 5/26/3 9/27/3
f 5/16/4 17/28/4 10/17/4
f 3/8/4 10/17/4 11/18/4
f 8/29/8 6/30/9 11/31/8
f 15/32/9 12/33/10 6/30/9
f 7/11/5 18/34/11 13/20/5
f 15/23/6 4/14/6 13/35/6
f 7/21/4 12/19/4 19/36/4
f 11/31/8 14/37/12 8/29/8
f 6/30/9 8/29/8 15/32/9
f 20/38/6 9/24/6 14/22/6
f 5/26/3 16/25/7 21/39/7
f 20/38/6 16/40/6 9/24/6
f 21/41/4 17/28/4 5/16/4
f 20/42/13 10/43/12 17/44/13
f 14/37/12 11/31/8 10/43/12
f 12/33/10 15/32/9 22/45/10
f 18/34/11 7/11/5 19/46/11
f 22/47/6 13/35/6 18/48/6
f 15/23/6 13/35/6 22/47/6
f 19/36/4 12/19/4 23/49/4
f 10/43/12 20/42/13 14/37/12
f 16/25/7 24/50/14 21/39/7
f 25/51/6 16/40/6 20/38/6
f 24/52/4 17/28/4 21/41/4
f 17/44/13 25/53/15 20/42/13
f 22/45/10 23/54/16 12/33/10
f 19/46/11 26/55/17 18/34/11
f 22/47/6 18/48/6 27/56/6
f 19/36/4 23/49/4 28/57/4
f 24/50/14 16/25/7 29/58/14
f 25/51/6 29/59/6 16/40/6
f 24/52/4 30/60/4 17/28/4
f 25/53/15 17/44/13 30/61/15
f 23/54/16 22/45/10 27/62/16
f 26/55/17 19/46/11 28/63/17
f 27/56/6 18/48/6 26/64/6
f 28/57/4 23/49/4 31/65/4
f 32/66/18 24/50/14 29/58/14
f 33/67/6 29/59/6 25/51/6
f 34/68/4 30/60/4 24/52/4
f 35/69/19 25/70/15 30/71/15
f 27/62/16 31/72/20 23/54/16
f 36/73/21 26/74/17 28/75/17
f 27/56/6 26/64/6 37/76/6
f 28/57/4 31/65/4 36/77/4
f 24/50/14 32/66/18 34/78/18
f 33/67/6 32/79/6 29/59/6
f 25/70/15 35/69/19 33/80/19
f 34/68/4 35/81/4 30/60/4
f 31/72/20 27/62/16 37/82/20
f 26/74/17 36/73/21 38/83/21
f 37/76/6 26/64/6 38/84/6
f 36/77/4 31/65/4 39/85/4
f 40/86/22 34/87/18 32/88/18
f 41/89/6 32/79/6 33/67/6
f 42/90/23 33/91/19 35/92/19
f 43/93/4 35/81/4 34/68/4
f 37/94/20 39/95/24 31/96/20
f 44/97/25 38/98/21 36/99/21
f 37/76/6 38/84/6 45/100/6
f 36/77/4 39/85/4 44/101/4
f 34/87/18 40/86/22 43/102/22
f 41/89/6 40/103/6 32/79/6
f 33/91/19 42/90/23 41/104/23
f 43/93/4 42/105/4 35/81/4
f 39/95/24 37/94/20 45/106/24
f 38/98/21 44/97/25 46/107/25
f 45/100/6 38/84/6 46/108/6
f 44/101/4 39/85/4 47/109/4
f 48/110/26 43/102/22 40/86/22
f 49/111/6 40/103/6 41/89/6
f 50/112/27 41/104/23 42/90/23
f 51/113/4 42/105/4 43/93/4
f 52/114/28 39/115/24 45/116/24
f 53/117/29 46/118/25 44/119/25
f 45/100/6 46/108/6 52/120/6
f 39/115/24 52/114/28 47/121/28
f 44/101/4 47/109/4 54/122/4
f 43/102/22 48/110/26 51/123/26
f 49/111/6 48/124/6 40/103/6
f 41/104/23 50/112/27 49/125/27
f 51/113/4 50/126/4 42/105/4
f 46/118/25 53/117/29 55/127/29
f 44/101/4 54/122/4 53/128/4
f 52/120/6 46/108/6 55/129/6
f 56/130/30 47/131/28 52/132/28
f 47/131/28 56/130/30 54/133/30
f 57/134/31 51/123/26 48/110/26
f 48/124/6 49/111/6 57/135/6
f 58/136/31 49/125/27 50/112/27
f 50/126/4 51/113/4 58/137/4
f 59/138/32 55/139/29 53/140/29
f 53/128/4 54/122/4 59/141/4
f 52/120/6 55/129/6 56/142/6
f 60/143/33 54/144/30 56/145/30
f 51/123/26 57/134/31 58/136/31
f 49/125/27 58/136/31 57/134/31
f 55/139/29 59/138/32 61/146/32
f 59/141/4 54/122/4 62/147/4
f 56/142/6 55/129/6 61/148/6
f 54/144/30 60/143/33 62/149/33
f 56/142/6 61/148/6 60/150/6
f 63/151/34 61/152/32 59/153/32
f 59/141/4 62/147/4 63/154/4
f 64/155/34 62/149/33 60/143/33
f 60/150/6 61/148/6 64/156/6
f 61/152/32 63/151/34 64/157/34
f 62/149/33 64/155/34 63/158/34
usemtl material_1_0
f 3//35 2//35 1//36
f 4//36 1//36 2//35
f 3//35 5//37 2//35
f 1//6 6//6 3//6
f 1//36 4//36 7//38
f 4//4 2//4 8//4
f 9//37 2//35 5//37
f 3//6 10//6 5//6
f 6//6 11//6 3//6
f 12//6 6//6 1//6
f 13//38 7//38 4//36
f 7//6 12//6 1//6
f 8//4 2//4 14//4
f 15//4 4//4 8//4
f 2//4 9//4 14//4
f 9//37 5//37 16//39
f 10//6 17//6 5//6
f 11//6 10//6 3//6
f 11//40 6//41 8//40
f 6//41 12//42 15//41
f 13//38 18//43 7//38
f 13//4 4//4 15//4
f 19//6 12//6 7//6
f 8//40 14//44 11//40
f 15//41 8//40 6//41
f 14//4 9//4 20//4
f 21//39 16//39 5//37
f 9//4 16//4 20//4
f 5//6 17//6 21//6
f 17//17 10//44 20//17
f 10//44 11//40 14//44
f 22//42 15//41 12//42
f 19//43 7//38 18//43
f 18//4 13//4 22//4
f 22//4 13//4 15//4
f 23//6 12//6 19//6
f 14//44 20//17 10//44
f 21//39 24//45 16//39
f 20//4 16//4 25//4
f 21//6 17//6 24//6
f 20//17 25//21 17//17
f 12//42 23//46 22//42
f 18//43 26//13 19//43
f 27//4 18//4 22//4
f 28//6 23//6 19//6
f 29//45 16//39 24//45
f 16//4 29//4 25//4
f 17//6 30//6 24//6
f 30//21 17//17 25//21
f 27//46 22//42 23//46
f 28//13 19//43 26//13
f 26//4 18//4 27//4
f 31//6 23//6 28//6
f 29//45 24//45 32//47
f 25//4 29//4 33//4
f 24//6 30//6 34//6
f 30//21 25//21 35//48
f 23//46 31//49 27//46
f 28//13 26//13 36//15
f 37//4 26//4 27//4
f 36//6 31//6 28//6
f 34//47 32//47 24//45
f 29//4 32//4 33//4
f 33//48 35//48 25//21
f 30//6 35//6 34//6
f 37//49 27//46 31//49
f 38//15 36//15 26//13
f 38//4 26//4 37//4
f 39//6 31//6 36//6
f 32//47 34//47 40//50
f 33//4 32//4 41//4
f 35//48 33//48 42//51
f 34//6 35//6 43//6
f 31//49 39//52 37//49
f 36//15 38//15 44//53
f 45//4 38//4 37//4
f 44//6 39//6 36//6
f 43//50 40//50 34//47
f 32//4 40//4 41//4
f 41//51 42//51 33//48
f 35//6 42//6 43//6
f 45//52 37//49 39//52
f 46//53 44//53 38//15
f 46//4 38//4 45//4
f 47//6 39//6 44//6
f 40//50 43//50 48//54
f 41//4 40//4 49//4
f 42//51 41//51 50//55
f 43//6 42//6 51//6
f 45//52 39//52 52//56
f 44//53 46//53 53//57
f 52//4 46//4 45//4
f 47//56 52//56 39//52
f 54//6 47//6 44//6
f 51//54 48//54 43//50
f 40//4 48//4 49//4
f 49//55 50//55 41//51
f 42//6 50//6 51//6
f 55//57 53//57 46//53
f 53//6 54//6 44//6
f 55//4 46//4 52//4
f 52//56 47//56 56//58
f 54//58 56//58 47//56
f 48//54 51//54 57//34
f 57//4 49//4 48//4
f 50//55 49//55 58//34
f 58//6 51//6 50//6
f 53//57 55//57 59//59
f 59//6 54//6 53//6
f 56//4 55//4 52//4
f 56//58 54//58 60//60
f 58//34 57//34 51//54
f 57//34 58//34 49//55
f 61//59 59//59 55//57
f 62//6 54//6 59//6
f 61//4 55//4 56//4
f 62//60 60//60 54//58
f 60//4 61//4 56//4
f 59//59 61//59 63//31
f 63//6 62//6 59//6
f 60//60 62//60 64//31
f 64//4 61//4 60//4
f 64//31 63//31 61//59
f 63//31 64//31 62//60
