mtllib new-4.mtl
v 0.225128 0.169158 -0.279102
v 0.242614 0.169158 -0.261616
v 0.702246 0.169158 -0.279102
v 0.242614 -0.305462 -0.261616
v 0.684760 0.169158 -0.261616
v 0.702246 -0.405382 -0.279102
v 0.225128 -0.405382 -0.279102
v 0.684760 -0.305462 -0.261616
vn 0.000000 0.000000 -1.000000
vn 0.000000 0.000000 1.000000
vn 0.000000 -1.000000 0.000000
vn 0.000000 1.000000 0.000000
vt 0.000000 0.000000
vt 0.000000 0.399306
vt 0.000000 0.303819
vt 0.012153 0.291667
vt 0.331597 0.303819
vt 0.012153 0.399306
vt 0.319444 0.291667
vt -0.331597 0.000000
vt -0.331597 0.399306
vt 0.012153 0.069444
vt 0.319444 0.399306
vt 0.319444 0.069444
usemtl material-0
f 1/3/4 2/4/4 3/5/4
f 3/5/3 2/4/3 1/3/3
f 3/5/4 2/4/4 5/7/4
f 5/7/3 2/4/3 3/5/3
f 6/8/1 1/2/1 3/9/1
f 3/9/2 1/2/2 6/8/2
f 4/10/2 5/11/2 2/6/2
f 2/6/1 5/11/1 4/10/1
f 1/2/1 6/8/1 7/1/1
f 7/1/2 6/8/2 1/2/2
f 5/11/2 4/10/2 8/12/2
f 8/12/1 4/10/1 5/11/1