# SSTK version 0.8.0
# 54
mtllib original-54.mtl
o #ID242
v -0.356921 0.540373 0.546834
v -0.359404 0.530347 0.548689
v -0.360837 0.530347 0.548689
v -0.358285 0.533383 0.548127
v -0.357895 0.534464 0.547927
v -0.356775 0.537405 0.547383
v -0.356226 0.539320 0.547029
v -0.355468 0.540373 0.546834
v -0.356461 0.538359 0.547207
v -0.355502 0.537241 0.547414
v -0.354438 0.534464 0.547927
v -0.351295 0.530347 0.548689
v -0.354021 0.533383 0.548127
v -0.352832 0.530347 0.548689
v -0.354438 0.534464 0.547927
v -0.357895 0.534464 0.547927
v -0.354021 0.533383 0.548127
v -0.358285 0.533383 0.548127
v -0.352832 0.530347 0.548689
v -0.351295 0.530347 0.548689
v -0.355468 0.540373 0.546834
v -0.355502 0.537241 0.547414
v -0.356226 0.539320 0.547029
v -0.356461 0.538359 0.547207
v -0.356775 0.537405 0.547383
v -0.356921 0.540373 0.546834
v -0.359404 0.530347 0.548689
v -0.360837 0.530347 0.548689
v -0.360837 0.530347 0.548689
v -0.356921 0.540373 0.546834
v -0.355468 0.540373 0.546834
v -0.351295 0.530347 0.548689
v -0.352832 0.530347 0.548689
v -0.354021 0.533383 0.548127
v -0.358285 0.533383 0.548127
v -0.359404 0.530347 0.548689
v -0.357895 0.534464 0.547927
v -0.354438 0.534464 0.547927
v -0.355502 0.537241 0.547414
v -0.356226 0.539320 0.547029
v -0.356461 0.538359 0.547207
v -0.356775 0.537405 0.547383
v -0.360837 0.530818 0.551239
v -0.356921 0.540373 0.546834
v -0.360837 0.530347 0.548689
v -0.356921 0.540845 0.549383
v -0.356921 0.540845 0.549383
v -0.360837 0.530818 0.551239
v -0.356921 0.540373 0.546834
v -0.360837 0.530347 0.548689
v -0.360837 0.530818 0.551239
v -0.356921 0.540845 0.549383
v -0.356921 0.540845 0.549383
v -0.355468 0.540373 0.546834
v -0.356921 0.540373 0.546834
v -0.355468 0.540845 0.549383
v -0.355468 0.540845 0.549383
v -0.356921 0.540845 0.549383
v -0.355468 0.540373 0.546834
v -0.356921 0.540373 0.546834
v -0.355468 0.540845 0.549383
v -0.355468 0.540373 0.546834
v -0.351295 0.530818 0.551239
v -0.351295 0.530347 0.548689
v -0.355468 0.540845 0.549383
v -0.355468 0.540845 0.549383
v -0.355468 0.540373 0.546834
v -0.351295 0.530818 0.551239
v -0.351295 0.530347 0.548689
v -0.351295 0.530818 0.551239
v -0.351295 0.530818 0.551239
v -0.352832 0.530347 0.548689
v -0.351295 0.530347 0.548689
v -0.352832 0.530818 0.551239
v -0.352832 0.530818 0.551239
v -0.351295 0.530818 0.551239
v -0.352832 0.530347 0.548689
v -0.351295 0.530347 0.548689
v -0.352832 0.530818 0.551239
v -0.352832 0.530818 0.551239
v -0.354021 0.533383 0.548127
v -0.352832 0.530347 0.548689
v -0.354021 0.533855 0.550677
v -0.354021 0.533855 0.550677
v -0.352832 0.530818 0.551239
v -0.354021 0.533383 0.548127
v -0.352832 0.530347 0.548689
v -0.354021 0.533855 0.550677
v -0.354021 0.533855 0.550677
v -0.358285 0.533383 0.548127
v -0.354021 0.533383 0.548127
v -0.358285 0.533855 0.550677
v -0.358285 0.533855 0.550677
v -0.354021 0.533855 0.550677
v -0.358285 0.533383 0.548127
v -0.354021 0.533383 0.548127
v -0.358285 0.533855 0.550677
v -0.358285 0.533383 0.548127
v -0.359404 0.530818 0.551239
v -0.359404 0.530347 0.548689
v -0.358285 0.533855 0.550677
v -0.358285 0.533855 0.550677
v -0.358285 0.533383 0.548127
v -0.359404 0.530818 0.551239
v -0.359404 0.530347 0.548689
v -0.359404 0.530818 0.551239
v -0.359404 0.530818 0.551239
v -0.360837 0.530347 0.548689
v -0.359404 0.530347 0.548689
v -0.360837 0.530818 0.551239
v -0.360837 0.530818 0.551239
v -0.359404 0.530818 0.551239
v -0.360837 0.530347 0.548689
v -0.359404 0.530347 0.548689
v -0.354021 0.533855 0.550677
v -0.357895 0.534936 0.550477
v -0.358285 0.533855 0.550677
v -0.354438 0.534936 0.550477
v -0.359404 0.530818 0.551239
v -0.356921 0.540845 0.549383
v -0.360837 0.530818 0.551239
v -0.356775 0.537876 0.549933
v -0.356226 0.539791 0.549578
v -0.355468 0.540845 0.549383
v -0.356461 0.538831 0.549756
v -0.355502 0.537712 0.549963
v -0.351295 0.530818 0.551239
v -0.352832 0.530818 0.551239
v -0.352832 0.530818 0.551239
v -0.354021 0.533855 0.550677
v -0.351295 0.530818 0.551239
v -0.354438 0.534936 0.550477
v -0.355468 0.540845 0.549383
v -0.355502 0.537712 0.549963
v -0.356226 0.539791 0.549578
v -0.356461 0.538831 0.549756
v -0.356775 0.537876 0.549933
v -0.356921 0.540845 0.549383
v -0.357895 0.534936 0.550477
v -0.358285 0.533855 0.550677
v -0.359404 0.530818 0.551239
v -0.360837 0.530818 0.551239
v -0.357895 0.534936 0.550477
v -0.354438 0.534936 0.550477
v -0.356775 0.537876 0.549933
v -0.356461 0.538831 0.549756
v -0.356226 0.539791 0.549578
v -0.355502 0.537712 0.549963
vn 0 -0.1819322926165965 -0.9833110600940422
vn -0.9335260059569112 0.35252654110382714 -0.06522448941546968
vn 0 0.9833110600940422 -0.18193229261659644
vn 0.9254866227658946 0.3724588523822041 -0.06891236727547857
vn 0 -0.9833110600940422 0.18193229261659644
vn -0.9331829948267489 -0.35340355199408086 0.06538675404198395
vn 0.9401021384207409 -0.3352037589732127 0.06201942685142298
vn 0 0.1819322926165965 0.9833110600940422
vn 0.9335260059569112 -0.35252654110382714 0.06522448941546968
vn -0.9254866227658946 -0.3724588523822041 0.06891236727547857
vn 0.9331829948267489 0.35340355199408086 -0.06538675404198395
vn -0.9401021384207409 0.3352037589732127 -0.06201942685142298
usemtl material_0_0
f 1//1 2//1 3//1
f 2//1 1//1 4//1
f 4//1 1//1 5//1
f 5//1 1//1 6//1
f 6//1 1//1 7//1
f 7//1 1//1 8//1
f 6//1 7//1 9//1
f 7//1 8//1 10//1
f 10//1 8//1 11//1
f 11//1 8//1 12//1
f 11//1 12//1 13//1
f 13//1 12//1 14//1
f 5//1 13//1 4//1
f 13//1 5//1 11//1
f 43//2 44//2 45//2
f 44//2 43//2 46//2
f 53//3 54//3 55//3
f 54//3 53//3 56//3
f 62//4 63//4 64//4
f 63//4 62//4 65//4
f 71//5 72//5 73//5
f 72//5 71//5 74//5
f 80//6 81//6 82//6
f 81//6 80//6 83//6
f 89//5 90//5 91//5
f 90//5 89//5 92//5
f 98//7 99//7 100//7
f 99//7 98//7 101//7
f 107//5 108//5 109//5
f 108//5 107//5 110//5
f 115//8 116//8 117//8
f 116//8 115//8 118//8
f 119//8 120//8 121//8
f 120//8 119//8 117//8
f 120//8 117//8 116//8
f 120//8 116//8 122//8
f 120//8 122//8 123//8
f 120//8 123//8 124//8
f 123//8 122//8 125//8
f 124//8 123//8 126//8
f 124//8 126//8 118//8
f 124//8 118//8 127//8
f 127//8 118//8 115//8
f 127//8 115//8 128//8
usemtl material_1_0
f 15//8 16//8 17//8
f 18//8 17//8 16//8
f 19//8 20//8 17//8
f 17//8 20//8 15//8
f 20//8 21//8 15//8
f 15//8 21//8 22//8
f 22//8 21//8 23//8
f 24//8 23//8 25//8
f 21//8 26//8 23//8
f 23//8 26//8 25//8
f 25//8 26//8 16//8
f 16//8 26//8 18//8
f 18//8 26//8 27//8
f 28//8 27//8 26//8
f 47//9 48//9 49//9
f 50//9 49//9 48//9
f 57//5 58//5 59//5
f 60//5 59//5 58//5
f 66//10 67//10 68//10
f 69//10 68//10 67//10
f 75//3 76//3 77//3
f 78//3 77//3 76//3
f 84//11 85//11 86//11
f 87//11 86//11 85//11
f 93//3 94//3 95//3
f 96//3 95//3 94//3
f 102//12 103//12 104//12
f 105//12 104//12 103//12
f 111//3 112//3 113//3
f 114//3 113//3 112//3
f 129//1 130//1 131//1
f 130//1 132//1 131//1
f 131//1 132//1 133//1
f 132//1 134//1 133//1
f 134//1 135//1 133//1
f 136//1 137//1 135//1
f 133//1 135//1 138//1
f 135//1 137//1 138//1
f 137//1 139//1 138//1
f 139//1 140//1 138//1
f 140//1 141//1 138//1
f 142//1 138//1 141//1
f 132//1 130//1 139//1
f 140//1 139//1 130//1
usemtl material_2_0
