# SSTK version 0.8.0
# 25
mtllib original-25.mtl
o #ID65
v -0.055674 0.535995 0.551348
v -0.091362 0.500652 0.551394
v -0.055846 0.500480 0.551499
v -0.091189 0.536167 0.551243
v -0.091189 0.536167 0.551243
v -0.055674 0.535995 0.551348
v -0.091362 0.500652 0.551394
v -0.055846 0.500480 0.551499
v -0.091189 0.536167 0.551243
v -0.091362 0.500652 0.551394
v -0.055846 0.500480 0.551499
v -0.055674 0.535995 0.551348
vn -0.0029316687318262763 0.004264949581933273 0.999986607672078
vn 0.0029316687318262763 -0.004264949581933273 -0.999986607672078
usemtl material_0_0
f 1//1 2//1 3//1
f 2//1 1//1 4//1
usemtl material_1_0
f 5//2 6//2 7//2
f 8//2 7//2 6//2
usemtl material_2_0
