# SSTK version 0.8.0
# 50
mtllib original-50.mtl
o #ID210
v -0.387420 0.540373 0.546834
v -0.388770 0.530347 0.548689
v -0.388770 0.540373 0.546834
v -0.387420 0.530347 0.548689
v -0.387420 0.530347 0.548689
v -0.387420 0.540373 0.546834
v -0.388770 0.530347 0.548689
v -0.388770 0.540373 0.546834
v -0.388770 0.530347 0.548689
v -0.388770 0.540373 0.546834
v -0.387420 0.540373 0.546834
v -0.387420 0.530347 0.548689
v -0.388770 0.530818 0.551239
v -0.388770 0.540373 0.546834
v -0.388770 0.530347 0.548689
v -0.388770 0.540845 0.549383
v -0.388770 0.540845 0.549383
v -0.388770 0.530818 0.551239
v -0.388770 0.540373 0.546834
v -0.388770 0.530347 0.548689
v -0.388770 0.530818 0.551239
v -0.388770 0.540845 0.549383
v -0.388770 0.540845 0.549383
v -0.387420 0.540373 0.546834
v -0.388770 0.540373 0.546834
v -0.387420 0.540845 0.549383
v -0.387420 0.540845 0.549383
v -0.388770 0.540845 0.549383
v -0.387420 0.540373 0.546834
v -0.388770 0.540373 0.546834
v -0.387420 0.540845 0.549383
v -0.387420 0.540373 0.546834
v -0.387420 0.530818 0.551239
v -0.387420 0.530347 0.548689
v -0.387420 0.540845 0.549383
v -0.387420 0.540845 0.549383
v -0.387420 0.540373 0.546834
v -0.387420 0.530818 0.551239
v -0.387420 0.530347 0.548689
v -0.387420 0.530818 0.551239
v -0.387420 0.530818 0.551239
v -0.388770 0.530347 0.548689
v -0.387420 0.530347 0.548689
v -0.388770 0.530818 0.551239
v -0.388770 0.530818 0.551239
v -0.387420 0.530818 0.551239
v -0.388770 0.530347 0.548689
v -0.387420 0.530347 0.548689
v -0.387420 0.530818 0.551239
v -0.388770 0.540845 0.549383
v -0.388770 0.530818 0.551239
v -0.387420 0.540845 0.549383
v -0.387420 0.540845 0.549383
v -0.387420 0.530818 0.551239
v -0.388770 0.540845 0.549383
v -0.388770 0.530818 0.551239
vn 0 -0.1819322926165965 -0.9833110600940422
vn -1 0 0
vn 0 0.9833110600940422 -0.18193229261659644
vn 1 0 0
vn 0 -0.9833110600940422 0.18193229261659644
vn 0 0.1819322926165965 0.9833110600940422
usemtl material_0_0
f 1//1 2//1 3//1
f 2//1 1//1 4//1
f 13//2 14//2 15//2
f 14//2 13//2 16//2
f 23//3 24//3 25//3
f 24//3 23//3 26//3
f 32//4 33//4 34//4
f 33//4 32//4 35//4
f 41//5 42//5 43//5
f 42//5 41//5 44//5
f 49//6 50//6 51//6
f 50//6 49//6 52//6
usemtl material_1_0
f 5//6 6//6 7//6
f 8//6 7//6 6//6
f 17//4 18//4 19//4
f 20//4 19//4 18//4
f 27//5 28//5 29//5
f 30//5 29//5 28//5
f 36//2 37//2 38//2
f 39//2 38//2 37//2
f 45//3 46//3 47//3
f 48//3 47//3 46//3
f 53//1 54//1 55//1
f 56//1 55//1 54//1
usemtl material_2_0
