# Blender 3.4.1
# www.blender.org
mtllib countertop.mtl
o Counter
v 0.173775 -0.335732 0.284864
v 0.173775 -0.335732 0.326133
v 0.173775 0.328354 0.284864
v 0.173775 0.328354 0.326133
v 0.821667 -0.335732 0.284864
v 0.821667 -0.335732 0.326133
v 0.821667 0.328354 0.284864
v 0.821667 0.328354 0.326133
v 0.173775 -0.288816 -0.503063
v 0.173775 -0.288816 0.282578
v 0.173775 0.328354 -0.503063
v 0.173775 0.328354 0.282578
v 0.821667 -0.288816 -0.503063
v 0.821667 -0.288816 0.282578
v 0.821667 0.328354 -0.503063
v 0.821667 0.328354 0.282578
v 0.173775 -0.288816 0.097974
v 0.173775 0.328354 0.097974
v 0.821667 0.328354 0.097974
v 0.821667 -0.288816 0.097974
v 0.802459 -0.288816 0.117182
v 0.802459 -0.288816 0.263370
v 0.192983 -0.288816 0.263370
v 0.192983 -0.288816 0.117182
v 0.802459 -0.288816 -0.424731
v 0.802459 -0.288816 0.078766
v 0.192983 -0.288816 0.078766
v 0.192983 -0.288816 -0.424731
v 0.802459 0.309456 0.263370
v 0.802459 0.309456 0.117182
v 0.192983 0.309456 0.117182
v 0.192983 0.309456 0.263370
v 0.802459 0.309456 0.078766
v 0.802459 0.309456 -0.424731
v 0.192983 0.309456 -0.424731
v 0.192983 0.309456 0.078766
v 0.213989 -0.313039 0.140176
v 0.213989 -0.313039 0.242364
v 0.173775 -0.291833 0.099962
v 0.173775 -0.291833 0.282578
v 0.781452 -0.313039 0.140176
v 0.781452 -0.313039 0.242364
v 0.821667 -0.291833 0.099962
v 0.821667 -0.291833 0.282578
v 0.173775 -0.313039 0.099962
v 0.173775 -0.313039 0.282578
v 0.821667 -0.313039 0.282578
v 0.821667 -0.313039 0.099962
v 0.223566 -0.304351 0.149753
v 0.223566 -0.304351 0.232787
v 0.771876 -0.304351 0.232787
v 0.771876 -0.304351 0.149753
v 0.213989 -0.308522 0.140176
v 0.213989 -0.308522 0.242364
v 0.781452 -0.308522 0.242364
v 0.781452 -0.308522 0.140176
v 0.468132 -0.320797 0.056160
v 0.483710 -0.320797 0.056160
v 0.468132 -0.320797 -0.065951
v 0.483710 -0.320797 -0.065951
v 0.468132 -0.320797 -0.058779
v 0.468132 -0.320797 0.048988
v 0.483710 -0.320797 0.048988
v 0.483710 -0.320797 -0.058779
v 0.468132 -0.328252 0.041892
v 0.468132 -0.328252 -0.051683
v 0.483710 -0.328252 -0.051683
v 0.483710 -0.328252 0.041892
v 0.483710 -0.304490 0.056160
v 0.468132 -0.304490 0.056160
v 0.468132 -0.304490 0.048988
v 0.483710 -0.304490 -0.058779
v 0.483710 -0.304490 -0.065951
v 0.468132 -0.304490 -0.065951
v 0.468132 -0.304490 -0.058779
v 0.483710 -0.304490 0.048988
v 0.468132 -0.328252 0.047903
v 0.468132 -0.322211 0.056160
v 0.468132 -0.327443 0.052032
v 0.468132 -0.325231 0.055054
v 0.483710 -0.322211 0.056160
v 0.483710 -0.328252 0.047903
v 0.483710 -0.325231 0.055054
v 0.483710 -0.327443 0.052032
v 0.468132 -0.322211 -0.065951
v 0.468132 -0.328252 -0.057694
v 0.468132 -0.325231 -0.064845
v 0.468132 -0.327443 -0.061823
v 0.483710 -0.328252 -0.057694
v 0.483710 -0.322211 -0.065951
v 0.483710 -0.327443 -0.061822
v 0.483710 -0.325231 -0.064845
v 0.538767 -0.312201 -0.406822
v 0.538767 -0.312201 0.057392
v 0.498553 -0.290995 -0.447037
v 0.498553 -0.290995 0.097606
v 0.780447 -0.312201 -0.406822
v 0.780447 -0.312201 0.057392
v 0.820661 -0.290995 -0.447037
v 0.820661 -0.290995 0.097606
v 0.498553 -0.312201 -0.447037
v 0.498553 -0.312201 0.097606
v 0.820661 -0.312201 0.097606
v 0.820661 -0.312201 -0.447037
v 0.548344 -0.303513 -0.397246
v 0.548344 -0.303513 0.047815
v 0.770871 -0.303513 0.047815
v 0.770871 -0.303513 -0.397246
v 0.538767 -0.307684 -0.406822
v 0.538767 -0.307684 0.057392
v 0.780447 -0.307684 0.057392
v 0.780447 -0.307684 -0.406822
v 0.511425 -0.320797 0.056160
v 0.527003 -0.320797 0.056160
v 0.511425 -0.320797 -0.065951
v 0.527003 -0.320797 -0.065951
v 0.511425 -0.320797 -0.058779
v 0.511425 -0.320797 0.048988
v 0.527003 -0.320797 0.048988
v 0.527003 -0.320797 -0.058779
v 0.511425 -0.328252 0.041892
v 0.511425 -0.328252 -0.051683
v 0.527003 -0.328252 -0.051683
v 0.527003 -0.328252 0.041892
v 0.527003 -0.304490 0.056160
v 0.511425 -0.304490 0.056160
v 0.511425 -0.304490 0.048988
v 0.527003 -0.304490 -0.058779
v 0.527003 -0.304490 -0.065951
v 0.511425 -0.304490 -0.065951
v 0.511425 -0.304490 -0.058779
v 0.527003 -0.304490 0.048988
v 0.511425 -0.328252 0.047903
v 0.511425 -0.322211 0.056160
v 0.511425 -0.327443 0.052032
v 0.511425 -0.325231 0.055054
v 0.527003 -0.322211 0.056160
v 0.527003 -0.328252 0.047903
v 0.527003 -0.325231 0.055054
v 0.527003 -0.327443 0.052032
v 0.511425 -0.322211 -0.065951
v 0.511425 -0.328252 -0.057694
v 0.511425 -0.325231 -0.064845
v 0.511425 -0.327443 -0.061823
v 0.527003 -0.328252 -0.057694
v 0.527003 -0.322211 -0.065951
v 0.527003 -0.327443 -0.061822
v 0.527003 -0.325231 -0.064845
v 0.558450 -0.320797 0.202084
v 0.558450 -0.320797 0.186506
v 0.436339 -0.320797 0.202084
v 0.436339 -0.320797 0.186506
v 0.443511 -0.320797 0.202084
v 0.551279 -0.320797 0.202084
v 0.551279 -0.320797 0.186506
v 0.443511 -0.320797 0.186506
v 0.544182 -0.328252 0.202084
v 0.450607 -0.328252 0.202084
v 0.450607 -0.328252 0.186506
v 0.544182 -0.328252 0.186506
v 0.558450 -0.303620 0.186506
v 0.558450 -0.303620 0.202084
v 0.551279 -0.303620 0.202084
v 0.443511 -0.303620 0.186506
v 0.436339 -0.303620 0.186506
v 0.436339 -0.303620 0.202084
v 0.443511 -0.303620 0.202084
v 0.551279 -0.303620 0.186506
v 0.550193 -0.328252 0.202084
v 0.558450 -0.322211 0.202084
v 0.554322 -0.327443 0.202084
v 0.557344 -0.325231 0.202084
v 0.558450 -0.322211 0.186506
v 0.550193 -0.328252 0.186506
v 0.557344 -0.325231 0.186506
v 0.554322 -0.327443 0.186506
v 0.436339 -0.322211 0.202084
v 0.444596 -0.328252 0.202084
v 0.437445 -0.325231 0.202084
v 0.440468 -0.327443 0.202084
v 0.444596 -0.328252 0.186506
v 0.436339 -0.322211 0.186506
v 0.440468 -0.327443 0.186506
v 0.437445 -0.325231 0.186506
v 0.215330 -0.312201 -0.406822
v 0.215330 -0.312201 0.057392
v 0.175116 -0.290995 -0.447037
v 0.175116 -0.290995 0.097606
v 0.457010 -0.312201 -0.406822
v 0.457010 -0.312201 0.057392
v 0.497224 -0.290995 -0.447037
v 0.497224 -0.290995 0.097606
v 0.175116 -0.312201 -0.447037
v 0.175116 -0.312201 0.097606
v 0.497224 -0.312201 0.097606
v 0.497224 -0.312201 -0.447037
v 0.224906 -0.303513 -0.397246
v 0.224906 -0.303513 0.047815
v 0.447433 -0.303513 0.047815
v 0.447433 -0.303513 -0.397246
v 0.215330 -0.307684 -0.406822
v 0.215330 -0.307684 0.057392
v 0.457010 -0.307684 0.057392
v 0.457010 -0.307684 -0.406822
vn -1.0000 -0.0000 -0.0000
vn -0.0000 1.0000 -0.0000
vn 1.0000 -0.0000 -0.0000
vn -0.0000 -1.0000 -0.0000
vn -0.0000 -0.0000 -1.0000
vn -0.0000 -0.0000 1.0000
vn 0.3993 -0.9168 -0.0000
vn -0.3993 -0.9168 -0.0000
vn -0.0000 -0.9168 0.3993
vn -0.0000 -0.9168 -0.3993
vn -0.7071 -0.7071 -0.0000
vn 0.7071 -0.7071 -0.0000
vn 0.6860 -0.7242 0.0703
vn -0.6860 -0.7242 0.0703
vn 0.9045 0.3015 0.3015
vn 0.7071 -0.0000 -0.7071
vn 0.5774 0.5774 -0.5774
vn 0.5774 0.5774 0.5774
vn -0.6860 -0.7242 -0.0703
vn 0.6860 -0.7242 -0.0703
vn 0.9045 0.3015 -0.3015
vn 0.7071 -0.0000 0.7071
vn 0.6698 -0.1297 0.7311
vn 0.6473 -0.4582 0.6091
vn 0.6613 -0.6872 0.3008
vn -0.7071 -0.0000 -0.7071
vn 0.6698 -0.1297 -0.7311
vn -0.6698 -0.1297 -0.7311
vn -0.9045 0.3015 0.3015
vn -0.6473 -0.4583 -0.6091
vn -0.6613 -0.6872 -0.3008
vn -0.6698 -0.1297 0.7311
vn -0.7071 -0.0000 0.7071
vn -0.9045 0.3015 -0.3015
vn 0.6613 -0.6872 -0.3008
vn 0.6473 -0.4583 -0.6091
vn -0.5774 0.5774 0.5774
vn -0.5774 0.5774 -0.5774
vn -0.6613 -0.6872 0.3008
vn -0.6473 -0.4582 0.6091
vn -0.0000 -0.7071 0.7071
vn -0.0000 -0.7071 -0.7071
vn 0.0703 -0.7242 -0.6860
vn 0.0703 -0.7242 0.6860
vn 0.3015 0.3015 -0.9045
vn -0.0703 -0.7242 0.6860
vn -0.0703 -0.7242 -0.6860
vn -0.3015 0.3015 -0.9045
vn 0.7311 -0.1297 -0.6698
vn 0.6091 -0.4582 -0.6473
vn 0.3008 -0.6872 -0.6613
vn -0.7311 -0.1297 -0.6698
vn -0.7311 -0.1297 0.6698
vn 0.3015 0.3015 0.9045
vn -0.6090 -0.4583 0.6473
vn -0.3008 -0.6872 0.6613
vn 0.7311 -0.1297 0.6698
vn -0.3015 0.3015 0.9045
vn -0.3008 -0.6872 -0.6613
vn -0.6090 -0.4583 -0.6473
vn 0.3008 -0.6872 0.6613
vn 0.6091 -0.4582 0.6473
vt 0.537944 0.458891
vt 0.490278 0.460121
vt 0.518070 0.460121
vt 0.537944 0.486683
vt 0.537944 0.961689
vt 0.490278 0.907336
vt 0.518070 0.907336
vt 0.537944 0.933897
vt 0.974252 0.458891
vt 0.053970 0.460121
vt 0.026178 0.460121
vt 0.974252 0.486683
vt 0.974252 0.961689
vt 0.053970 0.907336
vt 0.026178 0.907336
vt 0.974252 0.933897
vt 0.419539 0.021871
vt 0.319163 0.427348
vt 0.128961 0.033988
vt 0.419539 0.143406
vt 0.128961 0.346469
vt 0.223642 0.238499
vt 0.219977 0.346668
vt 0.128961 0.129461
vt 0.324066 0.021871
vt 0.324066 0.143406
vt 0.128961 0.250996
vt 0.345177 0.238698
vt 0.419588 0.143604
vt 0.028736 0.033988
vt 0.223642 0.238698
vt 0.028736 0.346469
vt 0.124257 0.375226
vt 0.323868 0.238499
vt 0.345177 0.334171
vt 0.028736 0.129461
vt 0.223642 0.334171
vt 0.028736 0.250996
vt 0.419539 0.114848
vt 0.219977 0.375226
vt 0.223642 0.024842
vt 0.319163 0.334370
vt 0.128961 0.222439
vt 0.324066 0.114848
vt 0.252199 0.334171
vt 0.028736 0.222439
vt 0.252199 0.238698
vt 0.124257 0.346668
vt 0.419588 0.236583
vt 0.323868 0.024842
vt 0.121285 0.349640
vt 0.320896 0.027813
vt 0.320896 0.235528
vt 0.121285 0.372254
vt 0.226613 0.235528
vt 0.217005 0.349640
vt 0.217005 0.372254
vt 0.226613 0.027813
vt 0.031707 0.021871
vt 0.129160 0.284859
vt 0.416616 0.155723
vt 0.320896 0.021871
vt 0.129160 0.021871
vt 0.416616 0.233611
vt 0.226613 0.021871
vt 0.316192 0.337341
vt 0.223443 0.021871
vt 0.316191 0.415230
vt 0.125990 0.021871
vt 0.223443 0.284859
vt 0.320896 0.142978
vt 0.028736 0.372254
vt 0.028736 0.349640
vt 0.320896 0.120363
vt 0.124455 0.372254
vt 0.226613 0.120363
vt 0.226613 0.142978
vt 0.124455 0.349639
vt 0.129160 0.114420
vt 0.324067 0.233612
vt 0.129160 0.192309
vt 0.324066 0.155723
vt 0.223642 0.415230
vt 0.223443 0.192309
vt 0.223642 0.337341
vt 0.223443 0.114420
vt 0.846889 0.031941
vt 0.788632 0.030827
vt 0.865382 0.011367
vt 0.980566 0.096289
vt 0.980566 0.011367
vt 0.950305 0.011367
vt 0.865188 0.306297
vt 0.848560 0.286642
vt 0.790303 0.285529
vt 0.865382 0.312658
vt 0.478974 0.306297
vt 0.980566 0.397581
vt 0.950305 0.312658
vt 0.563897 0.306297
vt 0.970704 0.096289
vt 0.865188 0.014857
vt 0.970704 0.011367
vt 0.865188 0.316158
vt 0.772005 0.011367
vt 0.563897 0.316158
vt 0.772005 0.302613
vt 0.478974 0.316158
vt 0.970704 0.397581
vt 0.865188 0.306102
vt 0.837898 0.040299
vt 0.798663 0.039331
vt 0.799294 0.277171
vt 0.838529 0.278138
vt 0.843563 0.034989
vt 0.793515 0.033298
vt 0.793629 0.282480
vt 0.843677 0.284172
vt 0.858013 0.421457
vt 0.854120 0.376379
vt 0.673940 0.355399
vt 0.858013 0.408372
vt 0.674689 0.376379
vt 0.667665 0.421457
vt 0.853372 0.355399
vt 0.667665 0.408372
vt 0.845849 0.403483
vt 0.680713 0.376379
vt 0.678465 0.403483
vt 0.848096 0.376379
vt 0.679964 0.355399
vt 0.678465 0.390397
vt 0.847347 0.355399
vt 0.845849 0.390397
vt 0.840570 0.421457
vt 0.842136 0.367820
vt 0.686674 0.367820
vt 0.685108 0.421457
vt 0.841387 0.346840
vt 0.685108 0.408372
vt 0.685925 0.346840
vt 0.840570 0.408372
vt 0.662945 0.390397
vt 0.673940 0.364896
vt 0.867510 0.408372
vt 0.662945 0.403483
vt 0.867510 0.421457
vt 0.854120 0.385876
vt 0.668969 0.403483
vt 0.848096 0.385876
vt 0.847347 0.364896
vt 0.855345 0.390397
vt 0.853372 0.364896
vt 0.861369 0.390397
vt 0.658168 0.408372
vt 0.861369 0.403483
vt 0.674689 0.385876
vt 0.658168 0.421457
vt 0.855345 0.403483
vt 0.680713 0.385876
vt 0.679964 0.364896
vt 0.668969 0.390397
vt 0.845619 0.421457
vt 0.847185 0.367820
vt 0.856390 0.421457
vt 0.854120 0.374756
vt 0.849209 0.421457
vt 0.850652 0.368749
vt 0.852800 0.421457
vt 0.853191 0.371288
vt 0.673940 0.353776
vt 0.856390 0.408372
vt 0.680876 0.346840
vt 0.845619 0.408372
vt 0.674870 0.350308
vt 0.852800 0.408372
vt 0.677408 0.347770
vt 0.849209 0.408372
vt 0.674689 0.374756
vt 0.669289 0.421457
vt 0.681625 0.367820
vt 0.680059 0.421457
vt 0.675618 0.371288
vt 0.672879 0.421457
vt 0.678157 0.368749
vt 0.676469 0.421457
vt 0.846436 0.346840
vt 0.680059 0.408372
vt 0.853372 0.353776
vt 0.669289 0.408372
vt 0.849904 0.347770
vt 0.676469 0.408372
vt 0.852442 0.350308
vt 0.672879 0.408372
vt 0.604429 0.246334
vt 0.603109 0.032834
vt 0.771810 0.011367
vt 0.960602 0.161862
vt 0.960602 0.416319
vt 0.771810 0.265830
vt 0.950500 0.011367
vt 0.478856 0.243784
vt 0.477535 0.030285
vt 0.621317 0.011367
vt 0.950500 0.416319
vt 0.960602 0.011367
vt 0.621317 0.265830
vt 0.950500 0.161858
vt 0.970510 0.161862
vt 0.621123 0.265252
vt 0.970509 0.416319
vt 0.960407 0.011367
vt 0.621123 0.016020
vt 0.960407 0.161858
vt 0.460841 0.011367
vt 0.960407 0.416319
vt 0.970510 0.011367
vt 0.460841 0.260598
vt 0.594979 0.237830
vt 0.594380 0.041073
vt 0.486985 0.038789
vt 0.487584 0.235545
vt 0.600237 0.243999
vt 0.600180 0.035732
vt 0.481726 0.032619
vt 0.481784 0.240886
vt 0.858013 0.421457
vt 0.854120 0.376379
vt 0.673940 0.355399
vt 0.858013 0.408372
vt 0.674689 0.376379
vt 0.667665 0.421457
vt 0.853372 0.355399
vt 0.667665 0.408372
vt 0.845849 0.403483
vt 0.680713 0.376379
vt 0.678465 0.403483
vt 0.848096 0.376379
vt 0.679964 0.355399
vt 0.678465 0.390397
vt 0.847347 0.355399
vt 0.845849 0.390397
vt 0.840570 0.421457
vt 0.842136 0.367820
vt 0.686674 0.367820
vt 0.685108 0.421457
vt 0.841387 0.346840
vt 0.685108 0.408372
vt 0.685925 0.346840
vt 0.840570 0.408372
vt 0.662945 0.390397
vt 0.673940 0.364896
vt 0.867510 0.408372
vt 0.662945 0.403483
vt 0.867510 0.421457
vt 0.854120 0.385876
vt 0.668969 0.403483
vt 0.848096 0.385876
vt 0.847347 0.364896
vt 0.855345 0.390397
vt 0.853372 0.364896
vt 0.861369 0.390397
vt 0.658168 0.408372
vt 0.861369 0.403483
vt 0.674689 0.385876
vt 0.658168 0.421457
vt 0.855345 0.403483
vt 0.680713 0.385876
vt 0.679964 0.364896
vt 0.668969 0.390397
vt 0.845619 0.421457
vt 0.847185 0.367820
vt 0.856390 0.421457
vt 0.854120 0.374756
vt 0.849209 0.421457
vt 0.850652 0.368749
vt 0.852800 0.421457
vt 0.853191 0.371288
vt 0.673940 0.353776
vt 0.856390 0.408372
vt 0.680876 0.346840
vt 0.845619 0.408372
vt 0.674870 0.350308
vt 0.852800 0.408372
vt 0.677408 0.347770
vt 0.849209 0.408372
vt 0.674689 0.374756
vt 0.669289 0.421457
vt 0.681625 0.367820
vt 0.680059 0.421457
vt 0.675618 0.371288
vt 0.672879 0.421457
vt 0.678157 0.368749
vt 0.676469 0.421457
vt 0.846436 0.346840
vt 0.680059 0.408372
vt 0.853372 0.353776
vt 0.669289 0.408372
vt 0.849904 0.347770
vt 0.676469 0.408372
vt 0.852442 0.350308
vt 0.672879 0.408372
vt 0.858013 0.421457
vt 0.854120 0.376379
vt 0.673940 0.355399
vt 0.858013 0.408372
vt 0.674689 0.376379
vt 0.667665 0.421457
vt 0.853372 0.355399
vt 0.667665 0.408372
vt 0.845849 0.403483
vt 0.680713 0.376379
vt 0.678465 0.403483
vt 0.848096 0.376379
vt 0.679964 0.355399
vt 0.678465 0.390397
vt 0.847347 0.355399
vt 0.845849 0.390397
vt 0.840570 0.421457
vt 0.842136 0.367820
vt 0.686674 0.367820
vt 0.685108 0.421457
vt 0.841387 0.346840
vt 0.685108 0.408372
vt 0.685925 0.346840
vt 0.840570 0.408372
vt 0.662945 0.390397
vt 0.673940 0.364896
vt 0.867510 0.408372
vt 0.662945 0.403483
vt 0.867510 0.421457
vt 0.854120 0.385876
vt 0.668969 0.403483
vt 0.848096 0.385876
vt 0.847347 0.364896
vt 0.855345 0.390397
vt 0.853372 0.364896
vt 0.861369 0.390397
vt 0.658168 0.408372
vt 0.861369 0.403483
vt 0.674689 0.385876
vt 0.658168 0.421457
vt 0.855345 0.403483
vt 0.680713 0.385876
vt 0.679964 0.364896
vt 0.668969 0.390397
vt 0.845619 0.421457
vt 0.847185 0.367820
vt 0.856390 0.421457
vt 0.854120 0.374756
vt 0.849209 0.421457
vt 0.850652 0.368749
vt 0.852800 0.421457
vt 0.853191 0.371288
vt 0.673940 0.353776
vt 0.856390 0.408372
vt 0.680876 0.346840
vt 0.845619 0.408372
vt 0.674870 0.350308
vt 0.852800 0.408372
vt 0.677408 0.347770
vt 0.849209 0.408372
vt 0.674689 0.374756
vt 0.669289 0.421457
vt 0.681625 0.367820
vt 0.680059 0.421457
vt 0.675618 0.371288
vt 0.672879 0.421457
vt 0.678157 0.368749
vt 0.676469 0.421457
vt 0.846436 0.346840
vt 0.680059 0.408372
vt 0.853372 0.353776
vt 0.669289 0.408372
vt 0.849904 0.347770
vt 0.676469 0.408372
vt 0.852442 0.350308
vt 0.672879 0.408372
vt 0.604429 0.246334
vt 0.603109 0.032834
vt 0.771810 0.011367
vt 0.960602 0.161862
vt 0.960602 0.416319
vt 0.771810 0.265830
vt 0.950500 0.011367
vt 0.478856 0.243784
vt 0.477535 0.030285
vt 0.621317 0.011367
vt 0.950500 0.416319
vt 0.960602 0.011367
vt 0.621317 0.265830
vt 0.950500 0.161858
vt 0.970510 0.161862
vt 0.621123 0.265252
vt 0.970509 0.416319
vt 0.960407 0.011367
vt 0.621123 0.016020
vt 0.960407 0.161858
vt 0.460841 0.011367
vt 0.960407 0.416319
vt 0.970510 0.011367
vt 0.460841 0.260598
vt 0.594979 0.237830
vt 0.594380 0.041073
vt 0.486985 0.038789
vt 0.487584 0.235545
vt 0.600237 0.243999
vt 0.600180 0.035732
vt 0.481726 0.032619
vt 0.481784 0.240886
s 1
usemtl Counter_Shader.001
f 1/2/1 2/3/1 4/7/1 3/6/1
f 3/5/2 4/8/2 8/16/2 7/13/2
f 7/14/3 8/15/3 6/11/3 5/10/3
f 5/9/4 6/12/4 2/4/4 1/1/4
f 3/6/5 7/14/5 5/10/5 1/2/5
f 8/16/6 4/8/6 2/4/6 6/12/6
f 17/39/1 10/20/1 12/26/1 18/44/1
f 18/43/2 12/27/2 16/38/2 19/46/2
f 19/45/3 16/37/3 14/31/3 20/47/3
f 27/66/3 28/68/3 35/83/3 36/85/3
f 11/24/5 15/36/5 13/30/5 9/19/5
f 16/38/6 12/27/6 10/21/6 14/32/6
f 22/53/5 23/55/5 32/77/5 29/71/5
f 15/35/3 19/45/3 20/47/3 13/28/3
f 11/24/2 18/43/2 19/46/2 15/36/2
f 9/17/1 17/39/1 18/44/1 11/25/1
f 20/48/4 14/33/4 22/54/4 21/51/4
f 14/34/4 10/22/4 23/55/4 22/53/4
f 10/23/4 17/40/4 24/57/4 23/56/4
f 17/41/4 20/50/4 21/52/4 24/58/4
f 13/29/4 20/49/4 26/64/4 25/61/4
f 20/50/4 17/41/4 27/65/4 26/62/4
f 17/42/4 9/18/4 28/68/4 27/66/4
f 9/19/4 13/30/4 25/59/4 28/69/4
f 30/74/4 29/71/4 32/77/4 31/76/4
f 34/81/4 33/79/4 36/86/4 35/84/4
f 21/51/1 22/54/1 29/72/1 30/73/1
f 28/70/6 25/60/6 34/81/6 35/84/6
f 23/56/3 24/57/3 31/75/3 32/78/3
f 24/58/6 21/52/6 30/74/6 31/76/6
f 26/63/5 27/67/5 36/86/5 33/79/5
f 25/61/1 26/64/1 33/80/1 34/82/1
f 45/101/1 46/103/1 40/91/1 39/90/1
f 39/89/2 40/92/2 44/99/2 43/96/2
f 43/97/3 44/100/3 47/106/3 48/108/3
f 37/87/6 41/94/6 56/118/6 53/115/6
f 39/90/5 43/98/5 48/109/5 45/101/5
f 44/100/6 40/93/6 46/104/6 47/106/6
f 37/87/4 38/88/4 46/105/4 45/102/4
f 42/95/4 41/94/4 48/110/4 47/107/4
f 41/94/4 37/87/4 45/102/4 48/110/4
f 38/88/4 42/95/4 47/107/4 46/105/4
f 52/114/4 51/113/4 50/112/4 49/111/4
f 38/88/3 37/87/3 53/115/3 54/116/3
f 42/95/5 38/88/5 54/116/5 55/117/5
f 41/94/1 42/95/1 55/117/1 56/118/1
f 49/111/7 50/112/7 54/116/7 53/115/7
f 51/113/8 52/114/8 56/118/8 55/117/8
f 52/114/9 49/111/9 53/115/9 56/118/9
f 50/112/10 51/113/10 55/117/10 54/116/10
f 65/135/11 68/142/12 82/174/13 77/163/14
f 64/133/15 60/125/16 73/153/17 72/151/18
f 86/182/19 89/188/20 67/140/12 66/138/11
f 63/131/21 58/121/22 81/171/23 83/175/24 84/177/25 82/173/13 68/141/12
f 59/124/26 60/126/16 90/190/27 85/180/28
f 61/128/29 59/123/26 85/179/28 87/183/30 88/185/31 86/181/19 66/137/11
f 64/133/15 63/131/21 68/141/12 67/139/12
f 78/165/32 81/172/23 58/122/22 57/119/33
f 62/130/34 61/128/29 66/137/11 65/136/11
f 60/125/16 64/133/15 67/139/12 89/187/20 91/191/35 92/193/36 90/189/27
f 66/138/11 67/140/12 68/142/12 65/135/11
f 61/127/29 64/134/15 72/152/18 75/159/37
f 62/129/34 63/132/21 64/134/15 61/127/29
f 75/159/37 72/152/18 73/154/17 74/156/38
f 70/146/37 69/143/18 76/162/17 71/149/38
f 58/121/22 63/131/21 76/161/17 69/144/18
f 57/119/33 58/122/22 69/145/18 70/147/37
f 59/123/26 61/128/29 75/160/37 74/157/38
f 60/126/16 59/124/26 74/158/38 73/155/17
f 63/132/21 62/129/34 71/149/38 76/162/17
f 62/130/34 57/120/33 70/148/37 71/150/38
f 77/163/14 82/174/13 84/178/25 79/167/39
f 79/167/39 84/178/25 83/176/24 80/169/40
f 80/169/40 83/176/24 81/172/23 78/165/32
f 89/188/20 86/182/19 88/186/31 91/192/35
f 91/192/35 88/186/31 87/184/30 92/194/36
f 92/194/36 87/184/30 85/180/28 90/190/27
f 57/120/33 62/130/34 65/136/11 77/164/14 79/168/39 80/170/40 78/166/32
f 101/209/1 102/211/1 96/199/1 95/198/1
f 95/197/2 96/200/2 100/207/2 99/204/2
f 99/205/3 100/208/3 103/214/3 104/216/3
f 93/195/6 97/202/6 112/226/6 109/223/6
f 95/198/5 99/206/5 104/217/5 101/209/5
f 100/208/6 96/201/6 102/212/6 103/214/6
f 93/195/4 94/196/4 102/213/4 101/210/4
f 98/203/4 97/202/4 104/218/4 103/215/4
f 97/202/4 93/195/4 101/210/4 104/218/4
f 94/196/4 98/203/4 103/215/4 102/213/4
f 108/222/4 107/221/4 106/220/4 105/219/4
f 94/196/3 93/195/3 109/223/3 110/224/3
f 98/203/5 94/196/5 110/224/5 111/225/5
f 97/202/1 98/203/1 111/225/1 112/226/1
f 105/219/7 106/220/7 110/224/7 109/223/7
f 107/221/8 108/222/8 112/226/8 111/225/8
f 108/222/9 105/219/9 109/223/9 112/226/9
f 106/220/10 107/221/10 111/225/10 110/224/10
f 121/243/11 124/250/12 138/282/13 133/271/14
f 120/241/15 116/233/16 129/261/17 128/259/18
f 142/290/19 145/296/20 123/248/12 122/246/11
f 119/239/21 114/229/22 137/279/23 139/283/24 140/285/25 138/281/13 124/249/12
f 115/232/26 116/234/16 146/298/27 141/288/28
f 117/236/29 115/231/26 141/287/28 143/291/30 144/293/31 142/289/19 122/245/11
f 120/241/15 119/239/21 124/249/12 123/247/12
f 134/273/32 137/280/23 114/230/22 113/227/33
f 118/238/34 117/236/29 122/245/11 121/244/11
f 116/233/16 120/241/15 123/247/12 145/295/20 147/299/35 148/301/36 146/297/27
f 122/246/11 123/248/12 124/250/12 121/243/11
f 117/235/29 120/242/15 128/260/18 131/267/37
f 118/237/34 119/240/21 120/242/15 117/235/29
f 131/267/37 128/260/18 129/262/17 130/264/38
f 126/254/37 125/251/18 132/270/17 127/257/38
f 114/229/22 119/239/21 132/269/17 125/252/18
f 113/227/33 114/230/22 125/253/18 126/255/37
f 115/231/26 117/236/29 131/268/37 130/265/38
f 116/234/16 115/232/26 130/266/38 129/263/17
f 119/240/21 118/237/34 127/257/38 132/270/17
f 118/238/34 113/228/33 126/256/37 127/258/38
f 133/271/14 138/282/13 140/286/25 135/275/39
f 135/275/39 140/286/25 139/284/24 136/277/40
f 136/277/40 139/284/24 137/280/23 134/273/32
f 145/296/20 142/290/19 144/294/31 147/300/35
f 147/300/35 144/294/31 143/292/30 148/302/36
f 148/302/36 143/292/30 141/288/28 146/298/27
f 113/228/33 118/238/34 121/244/11 133/272/14 135/276/39 136/278/40 134/274/32
f 157/319/41 160/326/42 174/358/43 169/347/44
f 156/317/45 152/309/26 165/337/38 164/335/17
f 178/366/46 181/372/47 159/324/42 158/322/41
f 155/315/48 150/305/16 173/355/49 175/359/50 176/361/51 174/357/43 160/325/42
f 151/308/33 152/310/26 182/374/52 177/364/53
f 153/312/54 151/307/33 177/363/53 179/367/55 180/369/56 178/365/46 158/321/41
f 156/317/45 155/315/48 160/325/42 159/323/42
f 170/349/57 173/356/49 150/306/16 149/303/22
f 154/314/58 153/312/54 158/321/41 157/320/41
f 152/309/26 156/317/45 159/323/42 181/371/47 183/375/59 184/377/60 182/373/52
f 158/322/41 159/324/42 160/326/42 157/319/41
f 153/311/54 156/318/45 164/336/17 167/343/18
f 154/313/58 155/316/48 156/318/45 153/311/54
f 167/343/18 164/336/17 165/338/38 166/340/37
f 162/330/18 161/327/17 168/346/38 163/333/37
f 150/305/16 155/315/48 168/345/38 161/328/17
f 149/303/22 150/306/16 161/329/17 162/331/18
f 151/307/33 153/312/54 167/344/18 166/341/37
f 152/310/26 151/308/33 166/342/37 165/339/38
f 155/316/48 154/313/58 163/333/37 168/346/38
f 154/314/58 149/304/22 162/332/18 163/334/37
f 169/347/44 174/358/43 176/362/51 171/351/61
f 171/351/61 176/362/51 175/360/50 172/353/62
f 172/353/62 175/360/50 173/356/49 170/349/57
f 181/372/47 178/366/46 180/370/56 183/376/59
f 183/376/59 180/370/56 179/368/55 184/378/60
f 184/378/60 179/368/55 177/364/53 182/374/52
f 149/304/22 154/314/58 157/320/41 169/348/44 171/352/61 172/354/62 170/350/57
f 193/393/1 194/395/1 188/383/1 187/382/1
f 187/381/2 188/384/2 192/391/2 191/388/2
f 191/389/3 192/392/3 195/398/3 196/400/3
f 185/379/6 189/386/6 204/410/6 201/407/6
f 187/382/5 191/390/5 196/401/5 193/393/5
f 192/392/6 188/385/6 194/396/6 195/398/6
f 185/379/4 186/380/4 194/397/4 193/394/4
f 190/387/4 189/386/4 196/402/4 195/399/4
f 189/386/4 185/379/4 193/394/4 196/402/4
f 186/380/4 190/387/4 195/399/4 194/397/4
f 200/406/4 199/405/4 198/404/4 197/403/4
f 186/380/3 185/379/3 201/407/3 202/408/3
f 190/387/5 186/380/5 202/408/5 203/409/5
f 189/386/1 190/387/1 203/409/1 204/410/1
f 197/403/7 198/404/7 202/408/7 201/407/7
f 199/405/8 200/406/8 204/410/8 203/409/8
f 200/406/9 197/403/9 201/407/9 204/410/9
f 198/404/10 199/405/10 203/409/10 202/408/10
