# SSTK version 0.8.0
# 18
mtllib original-18.mtl
o Washer_M8_8/Washer_M8_1_2/mesh5/mesh5-geometry#mesh5-geometry
v 0.315518 -0.169627 0.541572
v 0.313109 -0.169627 0.541572
v 0.315518 -0.170366 0.535963
v 0.313109 -0.167462 0.546800
v 0.313109 -0.170366 0.535963
v 0.315518 -0.157034 0.540779
v 0.315518 -0.167462 0.546800
v 0.313109 -0.151185 0.545268
v 0.315518 -0.169627 0.530353
v 0.313109 -0.157034 0.540779
v 0.315518 -0.157996 0.538456
v 0.315518 -0.155503 0.542774
v 0.313109 -0.164018 0.551289
v 0.315518 -0.151185 0.545268
v 0.313109 -0.148692 0.545596
v 0.313109 -0.153508 0.544305
v 0.313109 -0.169627 0.530353
v 0.315518 -0.158325 0.535963
v 0.313109 -0.155503 0.542774
v 0.313109 -0.157996 0.538456
v 0.315518 -0.153508 0.544305
v 0.315518 -0.164018 0.551289
v 0.313109 -0.129921 0.546800
v 0.315518 -0.148692 0.545596
v 0.315518 -0.167462 0.525126
v 0.313109 -0.158325 0.535963
v 0.315518 -0.157996 0.533470
v 0.313109 -0.159529 0.554733
v 0.315518 -0.129921 0.546800
v 0.313109 -0.133366 0.551289
v 0.313109 -0.146198 0.545268
v 0.315518 -0.146198 0.545268
v 0.313109 -0.167462 0.525126
v 0.315518 -0.155503 0.529151
v 0.313109 -0.157996 0.533470
v 0.315518 -0.157034 0.531146
v 0.315518 -0.159529 0.554733
v 0.313109 -0.137854 0.554733
v 0.315518 -0.133366 0.551289
v 0.313109 -0.127756 0.541572
v 0.315518 -0.164018 0.520637
v 0.313109 -0.155503 0.529151
v 0.315518 -0.153508 0.527620
v 0.313109 -0.157034 0.531146
v 0.313109 -0.154301 0.556898
v 0.315518 -0.137854 0.554733
v 0.315518 -0.127756 0.541572
v 0.313109 -0.143875 0.544305
v 0.315518 -0.143875 0.544305
v 0.313109 -0.164018 0.520637
v 0.315518 -0.133366 0.520637
v 0.313109 -0.153508 0.527620
v 0.315518 -0.151185 0.526658
v 0.315518 -0.154301 0.556898
v 0.313109 -0.143082 0.556898
v 0.315518 -0.143082 0.556898
v 0.313109 -0.141880 0.542774
v 0.315518 -0.127017 0.535963
v 0.315518 -0.159529 0.517192
v 0.313109 -0.129921 0.525126
v 0.315518 -0.137854 0.517192
v 0.315518 -0.129921 0.525126
v 0.313109 -0.151185 0.526658
v 0.315518 -0.148692 0.526330
v 0.313109 -0.148692 0.557637
v 0.315518 -0.141880 0.542774
v 0.313109 -0.140349 0.540779
v 0.315518 -0.140349 0.540779
v 0.313109 -0.127017 0.535963
v 0.313109 -0.159529 0.517192
v 0.313109 -0.148692 0.526330
v 0.313109 -0.133366 0.520637
v 0.313109 -0.137854 0.517192
v 0.315518 -0.148692 0.557637
v 0.315518 -0.139387 0.538456
v 0.315518 -0.127756 0.530353
v 0.315518 -0.154301 0.515027
v 0.315518 -0.143082 0.515027
v 0.313109 -0.146198 0.526658
v 0.313109 -0.143082 0.515027
v 0.313109 -0.127756 0.530353
v 0.315518 -0.146198 0.526658
v 0.313109 -0.139387 0.538456
v 0.315518 -0.139059 0.535963
v 0.313109 -0.154301 0.515027
v 0.313109 -0.143875 0.527620
v 0.313109 -0.141880 0.529151
v 0.315518 -0.143875 0.527620
v 0.313109 -0.139059 0.535963
v 0.315518 -0.139387 0.533470
v 0.315518 -0.148692 0.514288
v 0.313109 -0.148692 0.514288
v 0.313109 -0.140349 0.531146
v 0.315518 -0.141880 0.529151
v 0.315518 -0.140349 0.531146
v 0.313109 -0.139387 0.533470
vn 0 -0.965925849201117 0.2588189595935752
vn 0 -1 0
vn 0 -0.8660253028382762 0.5000001748438414
vn 1 0 0
vn -1 0 0
vn 0 -0.965925849201117 -0.25881895959357565
vn 0 -0.7071067811865477 0.7071067811865474
vn 0 0.8660253028382762 -0.5000001748438414
vn 0 0.965925849201117 -0.2588189595935752
vn 0 0.7071067811865477 -0.7071067811865474
vn 0 0 -1
vn 0 0.25881895959357565 -0.965925849201117
vn 0 0.5000001748438418 -0.866025302838276
vn 0 -0.866025302838276 -0.5000001748438418
vn 0 1 0
vn 0 -0.5000001748438418 0.866025302838276
vn 0 -0.2588189595935752 -0.965925849201117
vn 0 0.965925849201117 0.25881895959357565
vn 0 0.866025302838276 0.5000001748438418
vn 0 0.7071067811865474 0.7071067811865477
vn 0 -0.7071067811865474 -0.7071067811865477
vn 0 -0.25881895959357565 0.965925849201117
vn 0 0.5000001748438414 0.8660253028382762
vn 0 -0.5000001748438414 -0.8660253028382762
vn 0 0.2588189595935752 0.965925849201117
vn 0 0 1
usemtl material_0_0
f 1//1 2//1 3//2
f 2//1 1//1 4//3
f 5//2 3//2 2//1
f 3//4 6//4 1//4
f 7//3 4//3 1//1
f 2//5 4//5 8//5
f 3//2 5//2 9//6
f 5//5 2//5 10//5
f 11//4 6//4 3//4
f 6//4 12//4 1//4
f 4//3 7//3 13//7
f 1//4 14//4 7//4
f 8//5 4//5 15//5
f 16//5 2//5 8//5
f 17//6 9//6 5//2
f 9//4 18//4 3//4
f 10//5 2//5 19//5
f 20//5 5//5 10//5
f 6//8 11//9 10//8
f 18//4 11//4 3//4
f 12//10 6//8 19//10
f 12//4 21//4 1//4
f 22//7 13//7 7//3
f 4//5 13//5 23//5
f 21//4 14//4 1//4
f 24//4 7//4 14//4
f 15//5 4//5 23//5
f 15//11 24//11 8//12
f 19//5 2//5 16//5
f 8//12 14//12 16//13
f 9//6 17//6 25//14
f 17//5 5//5 26//5
f 27//4 18//4 9//4
f 10//8 19//10 6//8
f 26//5 5//5 20//5
f 20//9 10//8 11//9
f 11//9 18//15 20//9
f 12//10 19//10 21//13
f 13//7 22//7 28//16
f 7//4 29//4 22//4
f 23//5 13//5 30//5
f 21//13 16//13 14//12
f 24//4 29//4 7//4
f 14//12 8//12 24//11
f 15//5 23//5 31//5
f 24//11 15//11 32//17
f 16//13 21//13 19//10
f 33//14 25//14 17//6
f 25//4 34//4 9//4
f 35//5 17//5 26//5
f 18//15 27//18 26//15
f 36//4 27//4 9//4
f 26//15 20//9 18//15
f 37//16 28//16 22//7
f 13//5 28//5 38//5
f 29//4 39//4 22//4
f 30//5 13//5 38//5
f 23//19 30//20 29//19
f 32//4 29//4 24//4
f 40//5 31//5 23//5
f 31//17 32//17 15//11
f 25//14 33//14 41//21
f 33//5 17//5 42//5
f 43//4 34//4 25//4
f 34//4 36//4 9//4
f 44//5 17//5 35//5
f 35//18 26//15 27//18
f 27//18 36//19 35//18
f 28//16 37//16 45//22
f 22//4 46//4 37//4
f 28//5 45//5 38//5
f 39//20 29//19 30//20
f 39//4 46//4 22//4
f 38//23 46//23 30//20
f 29//19 47//18 23//19
f 47//4 29//4 32//4
f 48//5 31//5 40//5
f 40//18 23//19 47//18
f 32//17 31//17 49//24
f 50//21 41//21 33//14
f 41//4 51//4 25//4
f 42//5 17//5 44//5
f 52//5 33//5 42//5
f 43//23 52//23 34//20
f 53//4 43//4 25//4
f 36//19 34//20 44//19
f 44//19 35//18 36//19
f 54//22 45//22 37//16
f 37//4 46//4 54//4
f 38//5 45//5 55//5
f 39//20 30//20 46//23
f 46//23 38//23 56//25
f 49//4 47//4 32//4
f 48//24 49//24 31//17
f 57//5 48//5 40//5
f 47//18 58//15 40//18
f 41//21 50//21 59//24
f 50//5 33//5 60//5
f 61//4 51//4 41//4
f 51//4 62//4 25//4
f 42//20 44//19 34//20
f 63//5 33//5 52//5
f 42//20 34//20 52//23
f 43//23 53//25 52//23
f 64//4 53//4 25//4
f 45//22 54//22 65//26
f 46//4 56//4 54//4
f 65//5 55//5 45//5
f 55//25 56//25 38//23
f 66//4 47//4 49//4
f 49//24 48//24 66//21
f 57//21 66//21 48//24
f 67//5 57//5 40//5
f 58//4 47//4 68//4
f 69//15 40//18 58//15
f 70//24 59//24 50//21
f 59//4 61//4 41//4
f 33//5 71//5 60//5
f 72//5 50//5 60//5
f 61//13 73//13 51//10
f 62//8 51//10 60//8
f 62//4 64//4 25//4
f 71//5 33//5 63//5
f 63//25 52//23 53//25
f 64//26 71//26 53//25
f 74//26 65//26 54//22
f 74//4 54//4 56//4
f 65//26 74//26 55//25
f 56//25 55//25 74//26
f 68//4 47//4 66//4
f 66//21 57//21 68//14
f 67//14 68//14 57//21
f 69//5 67//5 40//5
f 75//4 58//4 68//4
f 58//15 76//9 69//15
f 59//24 70//24 77//17
f 70//5 50//5 73//5
f 78//4 61//4 59//4
f 71//5 79//5 60//5
f 73//5 50//5 72//5
f 72//10 60//8 51//10
f 73//13 61//13 80//12
f 72//10 51//10 73//13
f 60//8 81//9 62//8
f 64//4 62//4 82//4
f 63//25 53//25 71//26
f 71//26 64//26 79//22
f 68//14 67//14 75//6
f 83//5 67//5 69//5
f 84//4 58//4 75//4
f 76//4 58//4 84//4
f 81//9 69//15 76//9
f 85//17 77//17 70//24
f 77//4 78//4 59//4
f 80//5 70//5 73//5
f 78//12 80//12 61//13
f 79//5 86//5 60//5
f 60//5 87//5 81//5
f 76//9 62//8 81//9
f 82//4 62//4 88//4
f 82//22 79//22 64//26
f 83//6 75//6 67//14
f 89//5 83//5 69//5
f 75//6 83//6 84//2
f 90//4 76//4 84//4
f 81//5 89//5 69//5
f 77//17 85//17 91//11
f 85//5 70//5 80//5
f 91//4 78//4 77//4
f 80//12 78//12 92//11
f 79//22 82//22 86//16
f 86//5 87//5 60//5
f 87//5 93//5 81//5
f 62//4 76//4 94//4
f 88//4 62//4 94//4
f 88//16 86//16 82//22
f 89//2 84//2 83//6
f 95//4 76//4 90//4
f 84//2 89//2 90//1
f 96//5 89//5 81//5
f 92//11 91//11 85//17
f 92//5 85//5 80//5
f 91//11 92//11 78//12
f 86//16 88//16 87//7
f 87//7 94//7 93//3
f 93//5 96//5 81//5
f 94//4 76//4 95//4
f 94//7 87//7 88//16
f 90//1 96//1 95//3
f 96//1 90//1 89//2
f 95//3 93//3 94//7
f 93//3 95//3 96//1
usemtl material_1_0
f 3//15 2//9 1//9
f 4//8 1//9 2//9
f 2//9 3//15 5//15
f 1//5 6//5 3//5
f 1//9 4//8 7//8
f 8//4 4//4 2//4
f 9//18 5//15 3//15
f 10//4 2//4 5//4
f 3//5 6//5 11//5
f 1//5 12//5 6//5
f 13//10 7//8 4//8
f 7//5 14//5 1//5
f 15//4 4//4 8//4
f 8//4 2//4 16//4
f 5//15 9//18 17//18
f 3//5 18//5 9//5
f 19//4 2//4 10//4
f 10//4 5//4 20//4
f 10//3 11//1 6//3
f 3//5 11//5 18//5
f 19//7 6//3 12//7
f 1//5 21//5 12//5
f 7//8 13//10 22//10
f 23//4 13//4 4//4
f 1//5 14//5 21//5
f 14//5 7//5 24//5
f 23//4 4//4 15//4
f 8//22 24//26 15//26
f 16//4 2//4 19//4
f 16//16 14//22 8//22
f 25//19 17//18 9//18
f 26//4 5//4 17//4
f 9//5 18//5 27//5
f 6//3 19//7 10//3
f 20//4 5//4 26//4
f 11//1 10//3 20//1
f 20//1 18//2 11//1
f 21//16 19//7 12//7
f 28//13 22//10 13//10
f 22//5 29//5 7//5
f 30//4 13//4 23//4
f 14//22 16//16 21//16
f 7//5 29//5 24//5
f 24//26 8//22 14//22
f 31//4 23//4 15//4
f 32//25 15//26 24//26
f 19//7 21//16 16//16
f 17//18 25//19 33//19
f 9//5 34//5 25//5
f 26//4 17//4 35//4
f 26//2 27//6 18//2
f 9//5 27//5 36//5
f 18//2 20//1 26//2
f 22//10 28//13 37//13
f 38//4 28//4 13//4
f 22//5 39//5 29//5
f 38//4 13//4 30//4
f 29//14 30//21 23//14
f 24//5 29//5 32//5
f 23//4 31//4 40//4
f 15//26 32//25 31//25
f 41//20 33//19 25//19
f 42//4 17//4 33//4
f 25//5 34//5 43//5
f 9//5 36//5 34//5
f 35//4 17//4 44//4
f 27//6 26//2 35//6
f 35//6 36//14 27//6
f 45//12 37//13 28//13
f 37//5 46//5 22//5
f 38//4 45//4 28//4
f 30//21 29//14 39//21
f 22//5 46//5 39//5
f 30//21 46//24 38//24
f 23//14 47//6 29//14
f 32//5 29//5 47//5
f 40//4 31//4 48//4
f 47//6 23//14 40//6
f 49//23 31//25 32//25
f 33//19 41//20 50//20
f 25//5 51//5 41//5
f 44//4 17//4 42//4
f 42//4 33//4 52//4
f 34//21 52//24 43//24
f 25//5 43//5 53//5
f 44//14 34//21 36//14
f 36//14 35//6 44//14
f 37//13 45//12 54//12
f 54//5 46//5 37//5
f 55//4 45//4 38//4
f 46//24 30//21 39//21
f 56//17 38//24 46//24
f 32//5 47//5 49//5
f 31//25 49//23 48//23
f 40//4 48//4 57//4
f 40//6 58//2 47//6
f 59//23 50//20 41//20
f 60//4 33//4 50//4
f 41//5 51//5 61//5
f 25//5 62//5 51//5
f 34//21 44//14 42//21
f 52//4 33//4 63//4
f 52//24 34//21 42//21
f 52//24 53//17 43//24
f 25//5 53//5 64//5
f 65//11 54//12 45//12
f 54//5 56//5 46//5
f 45//4 55//4 65//4
f 38//24 56//17 55//17
f 49//5 47//5 66//5
f 66//20 48//23 49//23
f 48//23 66//20 57//20
f 40//4 57//4 67//4
f 68//5 47//5 58//5
f 58//2 40//6 69//2
f 50//20 59//23 70//23
f 41//5 61//5 59//5
f 60//4 71//4 33//4
f 60//4 50//4 72//4
f 51//7 73//16 61//16
f 60//3 51//7 62//3
f 25//5 64//5 62//5
f 63//4 33//4 71//4
f 53//17 52//24 63//17
f 53//17 71//11 64//11
f 54//12 65//11 74//11
f 56//5 54//5 74//5
f 55//17 74//11 65//11
f 74//11 55//17 56//17
f 66//5 47//5 68//5
f 68//19 57//20 66//20
f 57//20 68//19 67//19
f 40//4 67//4 69//4
f 68//5 58//5 75//5
f 69//2 76//1 58//2
f 77//25 70//23 59//23
f 73//4 50//4 70//4
f 59//5 61//5 78//5
f 60//4 79//4 71//4
f 72//4 50//4 73//4
f 51//7 60//3 72//7
f 80//22 61//16 73//16
f 73//16 51//7 72//7
f 62//3 81//1 60//3
f 82//5 62//5 64//5
f 71//11 53//17 63//17
f 79//12 64//11 71//11
f 75//18 67//19 68//19
f 69//4 67//4 83//4
f 75//5 58//5 84//5
f 84//5 58//5 76//5
f 76//1 69//2 81//1
f 70//23 77//25 85//25
f 59//5 78//5 77//5
f 73//4 70//4 80//4
f 61//16 80//22 78//22
f 60//4 86//4 79//4
f 81//4 87//4 60//4
f 81//1 62//3 76//1
f 88//5 62//5 82//5
f 64//11 79//12 82//12
f 67//19 75//18 83//18
f 69//4 83//4 89//4
f 84//15 83//18 75//18
f 84//5 76//5 90//5
f 69//4 89//4 81//4
f 91//26 85//25 77//25
f 80//4 70//4 85//4
f 77//5 78//5 91//5
f 92//26 78//22 80//22
f 86//13 82//12 79//12
f 60//4 87//4 86//4
f 81//4 93//4 87//4
f 94//5 76//5 62//5
f 94//5 62//5 88//5
f 82//12 86//13 88//13
f 83//18 84//15 89//15
f 90//5 76//5 95//5
f 90//9 89//15 84//15
f 81//4 89//4 96//4
f 85//25 91//26 92//26
f 80//4 85//4 92//4
f 78//22 92//26 91//26
f 87//10 88//13 86//13
f 93//8 94//10 87//10
f 81//4 96//4 93//4
f 95//5 76//5 94//5
f 88//13 87//10 94//10
f 95//8 96//9 90//9
f 89//15 90//9 96//9
f 94//10 93//8 95//8
f 96//9 95//8 93//8
