# SSTK version 0.8.0
# 190
mtllib original-190.mtl
o mesh57/mesh57-geometry/material_2#mesh57-geometry
v -0.473278 0.287572 0.173261
v -0.450339 0.287572 0.168435
v -0.464023 0.162882 0.034573
v -0.497009 0.287572 0.174980
v -0.473278 0.287572 0.173261
v -0.464023 0.162882 0.034573
v -0.464023 0.162882 0.034573
v -0.450339 0.287572 0.168435
v -0.473278 0.287572 0.173261
v -0.464023 0.162882 0.034573
v -0.473278 0.287572 0.173261
v -0.497009 0.287572 0.174980
vt 57.14202880859375 40.514984130859375
vt 56.075706481933594 40.514984130859375
vt 55.4411506652832 31.85993194580078
vt 54.906192779541016 45.99280548095703
vt 53.82451629638672 45.99280548095703
vt 52.936279296875 37.207271575927734
vt 18.480382919311523 10.619976997375488
vt 18.69190216064453 13.504995346069336
vt 19.04734230041504 13.504995346069336
vt 17.64542579650879 12.402422904968262
vt 17.941505432128906 15.330936431884766
vt 18.302064895629883 15.330936431884766
vn -0.139168976720371 0.731611943009298 -0.6673649382195356
vn -0.04975400398384969 0.7409170684496424 -0.6697510259548416
vn 0.139168976720371 -0.731611943009298 0.6673649382195356
vn 0.04975400398384969 -0.7409170684496424 0.6697510259548416
usemtl material_0_0
f 1/1/1 2/2/1 3/3/1
f 4/4/2 5/5/2 6/6/2
usemtl material_1_0
f 7/7/3 8/8/3 9/9/3
f 10/10/4 11/11/4 12/12/4
