# SSTK version 0.8.0
# 204
mtllib original-204.mtl
o Group9/mesh100/mesh100-geometry/material_1/component_12#mesh100-geometry
v -0.017352 0.294910 0.844159
v -0.017352 0.294315 0.876815
v -0.014477 0.290200 0.844093
v -0.014510 0.289589 0.876748
v -0.014477 0.290200 0.844093
v -0.017352 0.294315 0.876815
v -0.014477 0.290200 0.844093
v -0.015072 0.274120 0.843828
v -0.017352 0.294910 0.844159
v -0.013122 0.284267 0.876682
v -0.013122 0.284862 0.844027
v -0.014510 0.289589 0.876748
v -0.014477 0.290200 0.844093
v -0.014510 0.289589 0.876748
v -0.013122 0.284862 0.844027
v -0.015072 0.274120 0.843828
v -0.018278 0.269625 0.843696
v -0.017352 0.294910 0.844159
v -0.013320 0.279342 0.843894
v -0.015072 0.274120 0.843828
v -0.014477 0.290200 0.844093
v -0.013122 0.284862 0.844027
v -0.013122 0.284267 0.876682
v -0.013320 0.279342 0.843894
v -0.013122 0.284862 0.844027
v -0.013320 0.279342 0.843894
v -0.014477 0.290200 0.844093
v -0.018278 0.269625 0.843696
v -0.022608 0.266237 0.843630
v -0.017352 0.294910 0.844159
v -0.015072 0.274120 0.843828
v -0.015072 0.273525 0.876484
v -0.018278 0.269625 0.843696
v -0.013320 0.279342 0.843894
v -0.013320 0.278747 0.876550
v -0.015072 0.274120 0.843828
v -0.013320 0.278747 0.876550
v -0.013320 0.279342 0.843894
v -0.013122 0.284267 0.876682
v -0.049975 0.276318 0.843828
v -0.017352 0.294910 0.844159
v -0.047364 0.271459 0.843762
v -0.022608 0.266237 0.843630
v -0.027764 0.264237 0.843630
v -0.017352 0.294910 0.844159
v -0.022608 0.266237 0.843630
v -0.018278 0.269625 0.843696
v -0.022641 0.265642 0.876286
v -0.018278 0.269030 0.876352
v -0.018278 0.269625 0.843696
v -0.015072 0.273525 0.876484
v -0.015072 0.273525 0.876484
v -0.015072 0.274120 0.843828
v -0.013320 0.278747 0.876550
v -0.043497 0.267543 0.843696
v -0.047364 0.271459 0.843762
v -0.017352 0.294910 0.844159
v -0.047364 0.271459 0.843762
v -0.047397 0.270864 0.876418
v -0.049975 0.276318 0.843828
v -0.027764 0.264237 0.843630
v -0.033251 0.263775 0.843630
v -0.017352 0.294910 0.844159
v -0.027764 0.264237 0.843630
v -0.022608 0.266237 0.843630
v -0.027764 0.263626 0.876286
v -0.018278 0.269030 0.876352
v -0.022641 0.265642 0.876286
v -0.018278 0.269625 0.843696
v -0.022641 0.265642 0.876286
v -0.027764 0.263626 0.876286
v -0.022608 0.266237 0.843630
v -0.049975 0.275723 0.876484
v -0.049975 0.276318 0.843828
v -0.047397 0.270864 0.876418
v -0.047364 0.271459 0.843762
v -0.043497 0.267543 0.843696
v -0.047397 0.270864 0.876418
v -0.038638 0.264915 0.843630
v -0.043497 0.267543 0.843696
v -0.017352 0.294910 0.844159
v -0.033251 0.263775 0.843630
v -0.038638 0.264915 0.843630
v -0.017352 0.294910 0.844159
v -0.033251 0.263775 0.843630
v -0.027764 0.264237 0.843630
v -0.033251 0.263180 0.876286
v -0.027764 0.263626 0.876286
v -0.033251 0.263180 0.876286
v -0.027764 0.264237 0.843630
v -0.043497 0.266948 0.876352
v -0.047397 0.270864 0.876418
v -0.043497 0.267543 0.843696
v -0.043497 0.267543 0.843696
v -0.038638 0.264915 0.843630
v -0.043497 0.266948 0.876352
v -0.038638 0.264915 0.843630
v -0.033251 0.263775 0.843630
v -0.038638 0.264320 0.876286
v -0.033251 0.263180 0.876286
v -0.038638 0.264320 0.876286
v -0.033251 0.263775 0.843630
v -0.038638 0.264320 0.876286
v -0.043497 0.266948 0.876352
v -0.038638 0.264915 0.843630
v -0.014477 0.290200 0.844093
v -0.017352 0.294315 0.876815
v -0.017352 0.294910 0.844159
v -0.017352 0.294315 0.876815
v -0.014477 0.290200 0.844093
v -0.014510 0.289589 0.876748
v -0.017352 0.294910 0.844159
v -0.015072 0.274120 0.843828
v -0.014477 0.290200 0.844093
v -0.014510 0.289589 0.876748
v -0.013122 0.284862 0.844027
v -0.013122 0.284267 0.876682
v -0.013122 0.284862 0.844027
v -0.014510 0.289589 0.876748
v -0.014477 0.290200 0.844093
v -0.017352 0.294910 0.844159
v -0.018278 0.269625 0.843696
v -0.015072 0.274120 0.843828
v -0.014477 0.290200 0.844093
v -0.015072 0.274120 0.843828
v -0.013320 0.279342 0.843894
v -0.013320 0.279342 0.843894
v -0.013122 0.284267 0.876682
v -0.013122 0.284862 0.844027
v -0.014477 0.290200 0.844093
v -0.013320 0.279342 0.843894
v -0.013122 0.284862 0.844027
v -0.017352 0.294910 0.844159
v -0.022608 0.266237 0.843630
v -0.018278 0.269625 0.843696
v -0.018278 0.269625 0.843696
v -0.015072 0.273525 0.876484
v -0.015072 0.274120 0.843828
v -0.015072 0.274120 0.843828
v -0.013320 0.278747 0.876550
v -0.013320 0.279342 0.843894
v -0.013122 0.284267 0.876682
v -0.013320 0.279342 0.843894
v -0.013320 0.278747 0.876550
v -0.047364 0.271459 0.843762
v -0.017352 0.294910 0.844159
v -0.049975 0.276318 0.843828
v -0.017352 0.294910 0.844159
v -0.027764 0.264237 0.843630
v -0.022608 0.266237 0.843630
v -0.022641 0.265642 0.876286
v -0.018278 0.269625 0.843696
v -0.022608 0.266237 0.843630
v -0.015072 0.273525 0.876484
v -0.018278 0.269625 0.843696
v -0.018278 0.269030 0.876352
v -0.013320 0.278747 0.876550
v -0.015072 0.274120 0.843828
v -0.015072 0.273525 0.876484
v -0.017352 0.294910 0.844159
v -0.047364 0.271459 0.843762
v -0.043497 0.267543 0.843696
v -0.049975 0.276318 0.843828
v -0.047397 0.270864 0.876418
v -0.047364 0.271459 0.843762
v -0.017352 0.294910 0.844159
v -0.033251 0.263775 0.843630
v -0.027764 0.264237 0.843630
v -0.027764 0.263626 0.876286
v -0.022608 0.266237 0.843630
v -0.027764 0.264237 0.843630
v -0.018278 0.269625 0.843696
v -0.022641 0.265642 0.876286
v -0.018278 0.269030 0.876352
v -0.022608 0.266237 0.843630
v -0.027764 0.263626 0.876286
v -0.022641 0.265642 0.876286
v -0.047397 0.270864 0.876418
v -0.049975 0.276318 0.843828
v -0.049975 0.275723 0.876484
v -0.047397 0.270864 0.876418
v -0.043497 0.267543 0.843696
v -0.047364 0.271459 0.843762
v -0.017352 0.294910 0.844159
v -0.043497 0.267543 0.843696
v -0.038638 0.264915 0.843630
v -0.017352 0.294910 0.844159
v -0.038638 0.264915 0.843630
v -0.033251 0.263775 0.843630
v -0.033251 0.263180 0.876286
v -0.027764 0.264237 0.843630
v -0.033251 0.263775 0.843630
v -0.027764 0.264237 0.843630
v -0.033251 0.263180 0.876286
v -0.027764 0.263626 0.876286
v -0.043497 0.267543 0.843696
v -0.047397 0.270864 0.876418
v -0.043497 0.266948 0.876352
v -0.043497 0.266948 0.876352
v -0.038638 0.264915 0.843630
v -0.043497 0.267543 0.843696
v -0.038638 0.264320 0.876286
v -0.033251 0.263775 0.843630
v -0.038638 0.264915 0.843630
v -0.033251 0.263775 0.843630
v -0.038638 0.264320 0.876286
v -0.033251 0.263180 0.876286
v -0.038638 0.264915 0.843630
v -0.043497 0.266948 0.876352
v -0.038638 0.264320 0.876286
vt -80.17568969726562 2.2750000953674316
vt -80.17568969726562 5.71999979019165
vt -79.29499816894531 2.2750000953674316
vt -79.29499816894531 5.71999979019165
vt 37.003204345703125 122.20079040527344
vt 36.96675109863281 119.52993774414062
vt 36.53062057495117 122.97367858886719
vt -102.08206176757812 5.71999979019165
vt -102.08206176757812 2.2750000953674316
vt -102.96276092529297 5.71999979019165
vt -102.96276092529297 2.2750000953674316
vt 36.473262786865234 118.77131652832031
vt 37.23079299926758 120.40373229980469
vt -117.17028045654297 2.2750000953674316
vt -117.17028045654297 5.71999979019165
vt -116.28958892822266 2.2750000953674316
vt 37.24329376220703 121.3195571899414
vt 35.791622161865234 118.19133758544922
vt -115.90836334228516 2.2750000953674316
vt -115.90836334228516 5.71999979019165
vt -115.02767181396484 2.2750000953674316
vt -121.60930633544922 2.2750000953674316
vt -121.60930633544922 5.71999979019165
vt -120.7286148071289 2.2750000953674316
vt -116.28958892822266 5.71999979019165
vt 31.386058807373047 119.76253509521484
vt 31.81959342956543 118.96527099609375
vt 34.9788818359375 117.83854675292969
vt -99.66383361816406 2.2750000953674316
vt -100.5445327758789 2.2750000953674316
vt -99.66383361816406 5.71999979019165
vt -115.02767181396484 5.71999979019165
vt -120.7286148071289 5.71999979019165
vt 32.45441818237305 118.33042907714844
vt 83.90643310546875 2.2750000953674316
vt 83.90643310546875 5.71999979019165
vt 84.78712463378906 2.2750000953674316
vt 34.10304641723633 117.74246978759766
vt -75.9228286743164 2.2750000953674316
vt -76.80352020263672 2.2750000953674316
vt -75.9228286743164 5.71999979019165
vt -100.5445327758789 5.71999979019165
vt -76.80352020263672 5.71999979019165
vt 84.78712463378906 5.71999979019165
vt 56.349327087402344 2.2750000953674316
vt 55.468631744384766 2.2750000953674316
vt 56.349327087402344 5.71999979019165
vt 33.23741149902344 117.9111328125
vt -45.79139709472656 2.2750000953674316
vt -46.67209243774414 2.2750000953674316
vt -45.79139709472656 5.71999979019165
vt -46.67209243774414 5.71999979019165
vt 55.468631744384766 5.71999979019165
vt 23.23280906677246 2.2750000953674316
vt 22.352115631103516 2.2750000953674316
vt 23.23280906677246 5.71999979019165
vt -11.791085243225098 2.2750000953674316
vt -12.67177963256836 2.2750000953674316
vt -11.791085243225098 5.71999979019165
vt -12.67177963256836 5.71999979019165
vt 22.352115631103516 5.71999979019165
vt 0.8837950229644775 0
vt 0 3.375
vt 0 0
vt 0.8837950229644775 3.375
vt 36.53062057495117 120.47493743896484
vt 36.96675109863281 117.1011734008789
vt 37.003204345703125 119.71775817871094
vt 1.767590045928955 0
vt 1.767590045928955 3.375
vt 36.473262786865234 116.35796356201172
vt 37.23079299926758 117.95720672607422
vt 2.6513850688934326 0
vt 37.24329376220703 118.85443115234375
vt 35.791622161865234 115.7897720336914
vt 4.418975830078125 0
vt 3.53518009185791 3.375
vt 3.53518009185791 0
vt 2.6513850688934326 3.375
vt 31.81959342956543 116.54798126220703
vt 31.386058807373047 117.32904052734375
vt 34.9788818359375 115.44415283203125
vt 5.302771091461182 3.375
vt 5.302771091461182 0
vt 4.418975830078125 3.375
vt 32.45441818237305 115.92604064941406
vt 10.605541229248047 0
vt 9.721746444702148 3.375
vt 9.721746444702148 0
vt 34.10304641723633 115.35002136230469
vt 6.18656587600708 3.375
vt 6.18656587600708 0
vt 10.605541229248047 3.375
vt 8.837950706481934 0
vt 33.23741149902344 115.5152587890625
vt 7.070361137390137 3.375
vt 7.070361137390137 0
vt 8.837950706481934 3.375
vt 7.954155921936035 0
vt 7.954155921936035 3.375
vn 0.8557201203393981 0.517350100707628 0.009589001206243843
vn 0.9215646082700985 0.3881578301432656 0.007222996777790693
vn 0.00010300003932064134 0.01836100762282291 -0.9998314171849504
vn 0.9941301064051198 0.10817101098185204 0.0020890002654813905
vn 0.9835021043994907 -0.1808680243672048 -0.0032200005089626778
vn 0.8905700743983791 -0.45477105776371446 -0.008260000395754617
vn 0.7231113651642185 -0.6906163853633496 -0.012608006900435642
vn 0.4951391012221095 -0.8686681924425816 -0.015901002468381605
vn -0.8037139678684421 -0.5949140120992201 -0.011007999871627733
vn -0.8813261624700908 -0.4724270870325591 -0.0087660015784939
vn 0.2257319136012514 -0.9740256572209034 -0.017863993319083886
vn -0.5997668611013296 -0.8000387690151044 -0.0147539959826116
vn -0.06256602587893521 -0.9978724516910756 -0.018332009212254204
vn -0.34562792317896546 -0.9382128002932169 -0.017264995944267957
vn -0.9215646082700985 -0.3881578301432656 -0.007222996777790693
vn -0.8557201203393981 -0.517350100707628 -0.009589001206243843
vn -0.00010300003932064134 -0.01836100762282291 0.9998314171849504
vn -0.9941301064051198 -0.10817101098185204 -0.0020890002654813905
vn -0.9835021043994907 0.1808680243672048 0.0032200005089626778
vn -0.7231113651642185 0.6906163853633496 0.012608006900435642
vn -0.8905700743983791 0.45477105776371446 0.008260000395754617
vn -0.4951391012221095 0.8686681924425816 0.015901002468381605
vn 0.8813261624700908 0.4724270870325591 0.0087660015784939
vn 0.8037139678684421 0.5949140120992201 0.011007999871627733
vn -0.2257319136012514 0.9740256572209034 0.017863993319083886
vn 0.5997668611013296 0.8000387690151044 0.0147539959826116
vn 0.06256602587893521 0.9978724516910756 0.018332009212254204
vn 0.34562792317896546 0.9382128002932169 0.017264995944267957
usemtl material_0_0
f 1/1/1 2/2/1 3/3/2
f 4/4/2 5/3/2 6/2/1
f 7/5/3 8/6/3 9/7/3
f 10/8/4 11/9/4 12/10/2
f 13/11/2 14/10/2 15/9/4
f 16/6/3 17/12/3 18/7/3
f 19/13/3 20/6/3 21/5/3
f 22/14/4 23/15/4 24/16/5
f 25/17/3 26/13/3 27/5/3
f 28/12/3 29/18/3 30/7/3
f 31/19/6 32/20/6 33/21/7
f 34/22/5 35/23/5 36/24/6
f 37/25/5 38/16/5 39/15/4
f 40/26/3 41/7/3 42/27/3
f 43/18/3 44/28/3 45/7/3
f 46/29/8 47/30/7 48/31/8
f 49/32/7 50/21/7 51/20/6
f 52/33/6 53/24/6 54/23/5
f 55/34/3 56/27/3 57/7/3
f 58/35/9 59/36/9 60/37/10
f 61/28/3 62/38/3 63/7/3
f 64/39/11 65/40/8 66/41/11
f 67/42/7 68/31/8 69/30/7
f 70/43/8 71/41/11 72/40/8
f 73/44/10 74/37/10 75/36/9
f 76/45/9 77/46/12 78/47/9
f 79/48/3 80/34/3 81/7/3
f 82/38/3 83/48/3 84/7/3
f 85/49/13 86/50/11 87/51/13
f 88/52/11 89/51/13 90/50/11
f 91/53/12 92/47/9 93/46/12
f 94/54/12 95/55/14 96/56/12
f 97/57/14 98/58/13 99/59/14
f 100/60/13 101/59/14 102/58/13
f 103/61/14 104/56/12 105/55/14
usemtl material_1_0
f 106/62/15 107/63/16 108/64/16
f 109/63/16 110/62/15 111/65/15
f 112/66/17 113/67/17 114/68/17
f 115/65/15 116/69/18 117/70/18
f 118/69/18 119/65/15 120/62/15
f 121/66/17 122/71/17 123/67/17
f 124/68/17 125/67/17 126/72/17
f 127/73/19 128/70/18 129/69/18
f 130/68/17 131/72/17 132/74/17
f 133/66/17 134/75/17 135/71/17
f 136/76/20 137/77/21 138/78/21
f 139/78/21 140/79/19 141/73/19
f 142/70/18 143/73/19 144/79/19
f 145/80/17 146/66/17 147/81/17
f 148/66/17 149/82/17 150/75/17
f 151/83/22 152/76/20 153/84/22
f 154/77/21 155/76/20 156/85/20
f 157/79/19 158/78/21 159/77/21
f 160/66/17 161/80/17 162/86/17
f 163/87/23 164/88/24 165/89/24
f 166/66/17 167/90/17 168/82/17
f 169/91/25 170/84/22 171/92/25
f 172/76/20 173/83/22 174/85/20
f 175/84/22 176/91/25 177/83/22
f 178/88/24 179/87/23 180/93/23
f 181/88/24 182/94/26 183/89/24
f 184/66/17 185/86/17 186/95/17
f 187/66/17 188/95/17 189/90/17
f 190/96/27 191/92/25 192/97/27
f 193/92/25 194/96/27 195/91/25
f 196/94/26 197/88/24 198/98/26
f 199/98/26 200/99/28 201/94/26
f 202/100/28 203/97/27 204/99/28
f 205/97/27 206/100/28 207/96/27
f 208/99/28 209/98/26 210/100/28
