mtllib new-2.mtl
v 0.242614 -0.322948 -0.261616
v 0.242614 -0.405382 -0.261616
v 0.225128 -0.405382 -0.279102
v 0.242614 -0.365414 -0.229142
v 0.225128 -0.405382 -0.229142
v 0.242614 -0.405382 -0.229142
v 0.225128 -0.365414 -0.229142
vn -1.000000 0.000000 0.000000
vn 1.000000 0.000000 0.000000
vn 0.000000 0.000000 -1.000000
vn 0.000000 0.000000 1.000000
vn 0.000000 -1.000000 0.000000
vn 0.000000 1.000000 0.000000
vt 0.000000 0.000000
vt 0.000000 0.027778
vt 0.012153 0.000000
vt 0.000000 0.303819
vt 0.291667 0.057292
vt 0.012153 0.027778
vt -0.012153 0.291667
vt 0.269097 0.000000
vt 0.269097 0.027778
vt 0.291667 0.000000
vt 0.000000 0.269097
vt -0.012153 0.269097
usemtl material-0
f 1/5/2 4/9/2 2/10/2
f 2/10/1 4/9/1 1/5/1
f 2/10/2 4/9/2 6/8/2
f 6/8/1 4/9/1 2/10/1
f 3/4/5 2/7/5 5/11/5
f 5/11/6 2/7/6 3/4/6
f 4/6/4 5/1/4 6/3/4
f 6/3/3 5/1/3 4/6/3
f 5/11/5 2/7/5 6/12/5
f 6/12/6 2/7/6 5/11/6
f 5/1/4 4/6/4 7/2/4
f 7/2/3 4/6/3 5/1/3