# Blender v2.93.4 OBJ File: ''
# www.blender.org
mtllib original-4-back.mtl
o mesh6/mesh6-geometry#mesh6-geometry.003
v 0.489892 -0.595342 -0.569090
v -0.471574 -0.595342 -0.569090
v -0.471574 0.735816 -0.569090
v 0.489892 0.735816 -0.569090
v 0.491815 0.735816 -0.569090
v 0.403360 -0.526551 -0.514286
v -0.385042 -0.526551 -0.514286
v -0.471574 0.753684 -0.569090
v 0.441819 -0.490815 -0.514286
v 0.441819 0.675959 -0.514286
v 0.413313 -0.525334 -0.514286
v -0.394997 -0.525334 -0.514286
v 0.491815 0.780486 -0.569090
v 0.440507 -0.500064 -0.514286
v 0.440507 0.685208 -0.514286
v 0.422589 -0.521763 -0.514286
v -0.404272 -0.521763 -0.514286
v -0.471574 0.780486 -0.569090
v 0.436665 -0.508683 -0.514286
v -0.422191 -0.500064 -0.514286
v -0.423501 -0.490815 -0.514286
v 0.436665 0.693827 -0.514286
v -0.423501 0.684893 -0.514286
v 0.430554 -0.516084 -0.514286
v -0.412238 -0.516084 -0.514286
v -0.473497 0.753684 -0.569090
v -0.473497 0.780486 -0.569090
v -0.394657 0.711695 -0.514286
v 0.403360 0.711695 -0.514286
v -0.418349 -0.508683 -0.514286
v 0.430554 0.701228 -0.514286
v -0.422518 0.691829 -0.514286
v -0.402124 0.710781 -0.514286
v 0.413313 0.710476 -0.514286
v -0.419638 0.698294 -0.514286
v -0.409079 0.708103 -0.514286
v 0.422589 0.706907 -0.514286
v -0.415053 0.703843 -0.514286
vt -2.371593 0.266618
vt -0.128407 0.266618
vt -0.125000 0.292500
vt -2.375000 3.582500
vt -0.125000 3.557500
vt -0.128407 3.583382
vt -2.300882 0.195907
vt -0.175000 0.205897
vt -2.325000 0.205897
vt 2.500000 3.775000
vt 2.505000 3.850000
vt 2.500000 3.850000
vt -2.361603 0.242500
vt -2.375000 0.292500
vt -2.500000 2.650000
vt 0.000000 0.000000
vt -2.500000 2.650000
vt -2.372444 3.601911
vt -0.138397 3.607500
vt -0.154289 0.221789
vt -2.345711 0.221789
vt -0.138397 0.242500
vt 0.000000 0.000000
vt 0.000000 0.000000
vt -2.319411 3.654944
vt -0.225000 3.657500
vt -2.300000 3.657500
vt 0.000000 0.000000
vt 0.000000 0.000000
vt -2.337500 3.647452
vt -0.175000 3.644103
vt -0.199118 3.654093
vt -2.353033 3.635533
vt -0.154289 3.628211
vt 0.000000 0.000000
vt 0.000000 0.000000
vt -2.500000 2.650000
vt -2.500000 2.650000
vt -2.500000 2.650000
vt -2.500000 2.650000
vt -2.500000 2.650000
vt -2.500000 2.650000
vt -2.500000 2.650000
vt -2.500000 2.650000
vt -2.500000 2.650000
vt -2.500000 2.650000
vt -2.500000 2.650000
vt -2.500000 2.650000
vt -2.500000 2.650000
vt -2.500000 2.650000
vt -2.500000 2.650000
vt -2.500000 2.650000
vt -2.500000 2.650000
vt -2.500000 2.650000
vt -2.500000 2.650000
vt -2.500000 2.650000
vt -2.500000 2.650000
vt -2.500000 2.650000
vt -2.500000 2.650000
vt -2.500000 2.650000
vt -2.500000 2.650000
vt -2.500000 2.650000
vt -2.500000 2.650000
vt -2.500000 2.650000
vt -2.500000 2.650000
vt -2.500000 2.650000
vt -2.500000 2.650000
vn 0.0000 0.0000 1.0000
vn 0.0000 0.0000 -1.0000
vn 0.7281 0.0009 0.6855
vn 0.0049 -0.4975 0.8675
vn 0.0004 0.6005 0.7996
vn -0.6818 0.0019 0.7315
usemtl material_0_0.007
s 1
f 20/1/1 14/2/1 9/3/1
f 23/4/1 10/5/1 15/6/1
f 12/7/1 16/8/1 17/9/1
f 8/10/2 27/11/2 18/12/2
f 30/13/1 14/2/1 20/1/1
f 20/1/1 9/3/1 21/14/1
f 21/14/1 10/5/1 23/4/1
f 2/15/2 13/16/2 1/17/2
f 32/18/1 15/6/1 22/19/1
f 23/4/1 15/6/1 32/18/1
f 17/9/1 16/8/1 24/20/1
f 25/21/1 24/20/1 19/22/1
f 1/17/3 13/16/3 22/23/3 9/24/3
f 33/25/1 29/26/1 28/27/1
f 2/15/4 1/17/4 9/24/4 30/28/4
f 13/16/5 27/29/5 36/30/5 37/31/5
f 36/30/1 37/31/1 34/32/1
f 38/33/1 31/34/1 37/31/1
f 38/33/1 37/31/1 36/30/1
f 2/15/2 27/29/2 13/16/2
f 38/35/1 21/14/1 9/3/1
f 27/29/6 2/36/6 30/28/6 36/30/6
usemtl material_1_0.008
f 2/15/1 1/17/1 3/37/1
f 4/38/1 3/37/1 1/17/1
f 8/39/1 3/37/1 4/38/1
f 5/40/1 8/39/1 4/38/1
f 13/41/1 8/39/1 5/40/1
f 6/42/2 7/43/2 11/44/2
f 12/45/2 11/44/2 7/43/2
f 18/46/1 8/39/1 13/41/1
f 10/47/2 9/48/2 21/49/2
f 16/50/2 11/44/2 12/45/2
f 26/51/1 8/39/1 27/52/1
f 14/53/2 19/54/2 30/55/2
f 25/56/2 24/57/2 17/58/2
f 30/55/2 19/54/2 25/56/2
f 31/59/2 22/60/2 35/61/2
f 35/61/2 22/60/2 32/62/2
f 29/63/2 34/64/2 33/65/2
f 38/66/2 31/59/2 35/61/2
f 33/65/2 34/64/2 36/67/2
l 9 35
