# Blender v2.93.4 OBJ File: ''
# www.blender.org
mtllib new-2-back.mtl
o new-2
v -0.502741 -0.635909 -0.519983
v 0.515998 -0.744421 -0.519983
v -0.502741 -0.744421 -0.519983
v 0.515998 -0.635909 -0.519983
v -0.502741 0.687499 -0.519983
v 0.515998 0.687499 -0.519983
v -0.502741 -0.635909 -0.491480
v 0.515998 -0.744421 -0.491480
v -0.502741 -0.744421 -0.491480
v 0.515998 -0.635909 -0.491480
v -0.502741 0.687499 -0.491479
v 0.515998 0.687499 -0.491479
vt 0.000000 0.000000
vt 0.000000 0.000000
vt 0.000000 0.000000
vt 0.000000 0.000000
vt 0.000000 0.000000
vt 0.000000 0.000000
vt 0.000000 0.000000
vt 1.994332 1.075295
vt 1.994332 1.075295
vt 1.994332 1.075295
vt 1.994332 1.075295
vt 1.994332 1.075295
vt 1.994332 1.075295
vt 1.994332 1.075295
vt 1.994332 1.075295
vt 1.994332 1.075295
vt 1.994332 1.075295
vt 1.994332 1.075295
vt 1.994332 1.075295
vt 0.000000 0.000000
vn 0.0000 0.0000 1.0000
vn 1.0000 0.0000 0.0000
vn 0.0000 0.0000 -1.0000
vn -0.9986 0.0530 0.0000
vn -0.1059 -0.9944 0.0000
vn 0.0000 1.0000 0.0000
vn 0.7924 0.6100 0.0000
vn -0.3222 0.9467 0.0000
vn -0.7071 -0.7071 0.0000
vn 0.0000 -1.0000 0.0000
vn -1.0000 0.0000 0.0000
usemtl material-0
s off
f 1/1/1 3/2/1 2/3/1
f 5/4/1 1/1/1 4/5/1
f 5/4/1 4/5/1 6/6/1
f 11/7/2 1/1/2 5/4/2
s 1
f 7/8/3 8/9/3 9/10/3
f 2/11/4 8/9/4 7/8/5 1/12/5
f 3/13/6 9/10/6 8/9/4 2/11/4
f 1/12/2 7/8/2 9/10/2 3/13/2
f 10/14/3 11/15/3 12/16/3
f 5/17/7 11/15/7 10/14/8 4/18/8
f 6/19/9 12/16/9 11/15/10 5/17/10
f 4/18/8 10/14/8 12/16/9 6/19/9
f 2/11/3 1/12/3 4/5/3
f 10/20/1 7/8/1 8/9/1
f 10/14/1 11/15/1 7/8/1
f 7/8/11 11/15/11 1/12/11
