# SSTK version 0.8.0
# 12
mtllib original-12.mtl
o Component_10_2/Component_10/mesh7/mesh7-geometry#mesh7-geometry
v 0.187316 -0.537718 0.274881
v 0.176667 -0.537718 -0.246933
v 0.176667 -0.537718 0.274881
v 0.187316 -0.537718 -0.246933
v 0.176667 -0.420576 0.274881
v 0.187316 -0.420576 0.274881
v 0.187316 -0.420576 -0.246933
v 0.176667 -0.420576 -0.246933
vn 0 1 0
vn 0 -1 0
vn 1 0 0
vn -1 0 0
vn 0 0 1
vn 0 0 -1
usemtl material_0_0
f 1//1 2//1 3//1
f 2//1 1//1 4//1
f 3//2 2//2 1//2
f 4//2 1//2 2//2
f 2//3 5//3 3//3
f 3//4 5//4 2//4
f 6//5 3//5 1//5
f 1//6 3//6 6//6
f 1//4 7//4 4//4
f 4//3 7//3 1//3
f 8//6 4//6 2//6
f 2//5 4//5 8//5
f 5//3 2//3 8//3
f 8//4 2//4 5//4
f 3//5 6//5 5//5
f 5//6 6//6 3//6
f 7//4 1//4 6//4
f 6//3 1//3 7//3
f 4//6 8//6 7//6
f 7//5 8//5 4//5
f 8//2 6//2 5//2
f 5//1 6//1 8//1
f 6//2 8//2 7//2
f 7//1 8//1 6//1
