# SSTK version 0.8.0
# 34
mtllib original-34.mtl
o Component_35_22/Component_35_1_2/mesh15/mesh15-geometry#mesh15-geometry
v -0.104912 0.266344 -0.237174
v -0.104912 0.308789 -0.237174
v -0.103375 0.266849 -0.235059
v -0.107399 0.266537 -0.236367
v -0.103375 0.308789 -0.235059
v -0.104912 0.236972 -0.222282
v -0.107399 0.237165 -0.221474
v -0.107399 0.308789 -0.236367
v -0.104912 0.267355 -0.232944
v -0.104871 0.308789 -0.237581
v -0.103375 0.237478 -0.220167
v -0.107399 0.267162 -0.233752
v -0.107399 0.308789 -0.233752
v -0.104912 0.308789 -0.232944
v -0.103039 0.308789 -0.235059
v -0.103375 0.210638 -0.220167
v -0.107399 0.210638 -0.221474
v -0.107399 0.237790 -0.218860
v -0.107836 0.308789 -0.236618
v -0.104871 0.308789 -0.232537
v -0.104912 0.237984 -0.218052
v -0.101168 0.313447 -0.235059
v -0.104912 0.210638 -0.218052
v -0.104912 0.210638 -0.222282
v -0.104293 0.313447 -0.239360
v -0.107836 0.308789 -0.233501
v -0.104293 0.313447 -0.230758
v -0.107399 0.210638 -0.218860
v -0.109350 0.313447 -0.237717
v -0.109350 0.313447 -0.232401
v -0.105691 0.316105 -0.235059
vn 0.3168591056551021 -0.22050207352532597 -0.9224853075981647
vn 0.26286598362266117 -0.5257309672453844 -0.8090169495958188
vn 1 0 0
vn -1 0 0
vn -0.26286598362266117 0.5257309672453844 0.8090169495958188
vn -0.3168591056551021 0.22050207352532597 0.9224853075981647
vn -0.658339959493002 -0.17499298923285653 -0.7320969549548079
vn 0.658339959493002 0.17499298923285653 0.7320969549548079
vn 0.8506509114634071 -0.5257309452814002 0
vn -0.8506509114634071 0.5257309452814002 0
vn -0.6881910217323846 -0.5257310166020598 -0.5000000157895008
vn 0.6881910217323846 0.5257310166020598 0.5000000157895008
vn 0.3168591056551021 0.22050207352532597 0.9224853075981647
vn -0.3168591056551021 -0.22050207352532597 -0.9224853075981647
vn 0.21296002594140773 -0.724617088268149 -0.6554220798392625
vn -0.21296002594140773 0.724617088268149 0.6554220798392625
vn -0.658339959493002 0.17499298923285653 0.7320969549548079
vn 0.658339959493002 -0.17499298923285653 -0.7320969549548079
vn -0.6881910217323846 -0.52573101660206 0.5000000157895006
vn 0.6881910217323846 0.52573101660206 -0.5000000157895006
vn 0.2628659836226611 -0.5257309672453847 0.8090169495958184
vn -0.2628659836226611 0.5257309672453847 -0.8090169495958184
vn 0.6891519049683709 -0.7246169000778725 0
vn -0.6891519049683709 0.7246169000778725 0
vn -0.5575352207162506 -0.7246172868604612 -0.4050731603597871
vn 0.5575352207162506 0.7246172868604612 0.4050731603597871
vn 0.21296002594140773 -0.7246170882681492 0.6554220798392623
vn -0.21296002594140773 0.7246170882681492 -0.6554220798392623
vn 0.9279564039877125 0.37268876062767625 0
vn -0.9279564039877125 -0.37268876062767625 0
vn 0.2867539951598794 0.3726889937093828 -0.8825389851036246
vn -0.2867539951598794 -0.3726889937093828 0.8825389851036246
vn -0.5575352207162506 -0.7246172868604615 0.40507316035978674
vn 0.5575352207162506 0.7246172868604615 -0.40507316035978674
vn 0.2867539951598794 0.37268899370938235 0.8825389851036248
vn -0.2867539951598794 -0.37268899370938235 -0.8825389851036248
vn -0.7507326881716063 0.3726888451979437 -0.545438773443598
vn 0.7507326881716063 -0.3726888451979437 0.545438773443598
vn -0.7507326881716063 0.3726888451979435 0.5454387734435983
vn 0.7507326881716063 -0.3726888451979435 -0.5454387734435983
vn 0 1 0
vn 0 -1 0
usemtl material_0_0
f 1//1 2//2 3//3
f 3//4 2//5 1//6
f 1//1 4//7 2//2
f 2//5 4//8 1//6
f 5//9 3//3 2//2
f 2//5 3//4 5//10
f 1//1 3//3 6//1
f 6//6 3//4 1//6
f 4//7 1//1 7//7
f 7//8 1//6 4//8
f 8//11 2//2 4//7
f 4//8 2//5 8//12
f 3//3 5//9 9//13
f 9//14 5//10 3//4
f 5//9 2//2 10//15
f 10//16 2//5 5//10
f 11//3 6//1 3//3
f 3//4 6//6 11//4
f 6//1 7//7 1//1
f 1//6 7//8 6//6
f 7//7 12//17 4//7
f 4//8 12//18 7//8
f 2//2 8//11 10//15
f 10//16 8//12 2//5
f 8//11 4//7 13//19
f 13//20 4//8 8//12
f 14//21 9//13 5//9
f 5//10 9//14 14//22
f 3//3 9//13 11//3
f 11//4 9//14 3//4
f 15//23 5//9 10//15
f 10//16 5//10 15//24
f 11//3 16//9 6//1
f 6//6 16//10 11//4
f 7//7 6//1 17//11
f 17//12 6//6 7//8
f 18//17 12//17 7//7
f 7//8 12//18 18//18
f 12//17 13//19 4//7
f 4//8 13//20 12//18
f 10//15 8//11 19//25
f 19//26 8//12 10//16
f 13//19 19//25 8//11
f 8//12 19//26 13//20
f 14//21 13//19 9//13
f 9//14 13//20 14//22
f 5//9 20//27 14//21
f 14//22 20//28 5//10
f 21//13 11//3 9//13
f 9//14 11//4 21//14
f 15//23 20//27 5//9
f 5//10 20//28 15//24
f 15//23 10//15 22//29
f 22//30 10//16 15//24
f 16//9 11//3 23//21
f 23//22 11//4 16//10
f 24//2 6//1 16//9
f 16//10 6//6 24//5
f 24//2 17//11 6//1
f 6//6 17//12 24//5
f 17//11 18//17 7//7
f 7//8 18//18 17//12
f 18//17 21//13 12//17
f 12//18 21//14 18//18
f 12//17 9//13 13//19
f 13//20 9//14 12//18
f 10//15 19//25 25//31
f 25//32 19//26 10//16
f 19//25 13//19 26//33
f 26//34 13//20 19//26
f 14//21 20//27 13//19
f 13//20 20//28 14//22
f 21//13 23//21 11//3
f 11//4 23//22 21//14
f 9//13 12//17 21//13
f 21//14 12//18 9//14
f 20//27 15//23 27//35
f 27//36 15//24 20//28
f 25//31 22//29 10//15
f 10//16 22//30 25//32
f 22//29 27//35 15//23
f 15//24 27//36 22//30
f 16//9 23//21 24//2
f 24//5 23//22 16//10
f 24//2 23//21 17//11
f 17//12 23//22 24//5
f 28//19 18//17 17//11
f 17//12 18//18 28//20
f 21//13 18//17 23//21
f 23//22 18//18 21//14
f 29//37 25//31 19//25
f 19//26 25//32 29//38
f 20//27 26//33 13//19
f 13//20 26//34 20//28
f 26//33 30//39 19//25
f 19//26 30//40 26//34
f 27//35 30//39 20//27
f 20//28 30//40 27//36
f 25//31 31//41 22//29
f 22//30 31//42 25//32
f 31//41 27//35 22//29
f 22//30 27//36 31//42
f 28//19 17//11 23//21
f 23//22 17//12 28//20
f 28//19 23//21 18//17
f 18//18 23//22 28//20
f 29//37 31//41 25//31
f 25//32 31//42 29//38
f 29//37 19//25 30//39
f 30//40 19//26 29//38
f 26//33 20//27 30//39
f 30//40 20//28 26//34
f 31//41 30//39 27//35
f 27//36 30//40 31//42
f 29//37 30//39 31//41
f 31//42 30//40 29//38
