# SSTK version 0.8.0
# 237
mtllib original-237.mtl
o mesh153/mesh153-geometry#mesh153-geometry
v -0.514496 0.037576 -0.319259
v -0.514496 -0.008039 -0.347892
v -0.514496 -0.001633 -0.347892
v -0.514496 -0.001117 -0.339594
v -0.514496 0.027172 -0.318700
v -0.514496 -0.008039 -0.319259
v -0.514496 0.037576 -0.311305
v -0.514496 -0.001117 -0.318700
v -0.514496 -0.026052 -0.319259
v -0.514496 -0.026052 -0.311305
v -0.514496 -0.001117 -0.311305
v -0.514496 -0.008039 -0.311305
v -0.514496 -0.001117 -0.302793
v -0.514496 -0.008039 -0.302793
vn 1 0 0
vn -1 0 0
usemtl material_0_0
f 1//1 2//1 3//1
f 2//1 1//1 4//1
f 4//1 1//1 5//1
f 4//1 6//1 2//1
f 5//1 1//1 7//1
f 6//1 4//1 8//1
f 5//1 7//1 8//1
f 6//1 8//1 9//1
f 10//1 8//1 7//1
f 9//1 8//1 10//1
f 10//1 7//1 11//1
f 10//1 11//1 12//1
f 13//1 12//1 11//1
f 12//1 13//1 14//1
usemtl material_1_0
f 3//2 2//2 1//2
f 4//2 1//2 2//2
f 5//2 1//2 4//2
f 2//2 6//2 4//2
f 7//2 1//2 5//2
f 8//2 4//2 6//2
f 8//2 7//2 5//2
f 9//2 8//2 6//2
f 7//2 8//2 10//2
f 10//2 8//2 9//2
f 11//2 7//2 10//2
f 12//2 11//2 10//2
f 11//2 12//2 13//2
f 14//2 13//2 12//2
