# SSTK version 0.8.0
# 101
mtllib original-101.mtl
o Component_55_1/Component_55/mesh83/mesh83-geometry#mesh83-geometry
v -0.412433 -0.286896 -0.428443
v -0.407866 -0.285386 -0.428442
v -0.412433 -0.122625 -0.428443
v -0.385043 -0.316112 -0.428442
v -0.407866 -0.122625 -0.428442
v -0.413844 -0.287363 -0.432787
v -0.389611 -0.317622 -0.428443
v -0.406453 -0.284918 -0.432785
v -0.410148 -0.122625 -0.435471
v -0.406453 -0.122625 -0.432785
v -0.413844 -0.122625 -0.432787
v -0.391022 -0.318089 -0.432787
v -0.389611 -0.360310 -0.428443
v -0.383631 -0.315645 -0.432785
v -0.410148 -0.286140 -0.435471
v -0.387326 -0.316867 -0.435471
v -0.391022 -0.358900 -0.432787
v -0.385043 -0.364878 -0.428442
v -0.423815 -0.360310 -0.428443
v -0.383631 -0.366290 -0.432785
v -0.387326 -0.362595 -0.435471
v -0.423815 -0.358900 -0.432787
v -0.423815 -0.364878 -0.428442
v -0.423815 -0.366290 -0.432785
v -0.423815 -0.362595 -0.435471
v -0.426475 -0.360310 -0.428443
v -0.423815 -0.357765 -0.428797
v -0.423815 -0.359806 -0.426756
v -0.426475 -0.358900 -0.432787
v -0.423815 -0.357018 -0.431585
v -0.423815 -0.357765 -0.434374
v -0.426475 -0.362595 -0.435471
v -0.423815 -0.367424 -0.428797
v -0.426475 -0.366290 -0.432785
v -0.426475 -0.364878 -0.428442
v -0.423815 -0.367424 -0.434374
v -0.423815 -0.326352 -0.431585
v -0.426475 -0.357765 -0.428797
v -0.426475 -0.357018 -0.431585
v -0.423815 -0.359806 -0.436415
v -0.423815 -0.368172 -0.431585
v -0.423815 -0.365383 -0.426756
v -0.423815 -0.365383 -0.436415
v -0.423815 -0.362595 -0.426008
v -0.426475 -0.359806 -0.426756
v -0.426475 -0.357765 -0.434374
v -0.423815 -0.331207 -0.449707
v -0.426475 -0.367424 -0.428797
v -0.423815 -0.398838 -0.431585
v -0.426475 -0.367424 -0.434374
v -0.423815 -0.393982 -0.449707
v -0.426475 -0.368172 -0.431585
v -0.423815 -0.331207 -0.413464
v -0.426475 -0.362595 -0.426008
v -0.426475 -0.333179 -0.431585
v -0.428637 -0.326352 -0.431585
v -0.426475 -0.337120 -0.446293
v -0.423815 -0.362595 -0.437162
v -0.426475 -0.359806 -0.436415
v -0.426475 -0.365383 -0.426756
v -0.426475 -0.365383 -0.436415
v -0.428637 -0.331207 -0.413464
v -0.428637 -0.331207 -0.449707
v -0.426475 -0.362595 -0.437162
v -0.426475 -0.392010 -0.431585
v -0.426475 -0.388069 -0.446293
v -0.428637 -0.393982 -0.449707
v -0.423815 -0.393982 -0.413464
v -0.428637 -0.344473 -0.400198
v -0.426475 -0.337120 -0.416878
v -0.428637 -0.337120 -0.446293
v -0.428637 -0.344473 -0.462973
v -0.428637 -0.337120 -0.416878
v -0.423815 -0.380716 -0.462973
v -0.428637 -0.398838 -0.431585
v -0.428637 -0.380716 -0.462973
v -0.423815 -0.344473 -0.400198
v -0.428637 -0.347887 -0.406111
v -0.428637 -0.333179 -0.431585
v -0.426475 -0.347887 -0.457060
v -0.428637 -0.347887 -0.457060
v -0.423815 -0.344473 -0.462973
v -0.428637 -0.392010 -0.431585
v -0.428637 -0.377302 -0.457060
v -0.423815 -0.380716 -0.400198
v -0.428637 -0.393982 -0.413464
v -0.428637 -0.362595 -0.402170
v -0.423815 -0.362595 -0.395343
v -0.426475 -0.388069 -0.416878
v -0.426475 -0.377302 -0.457060
v -0.428637 -0.362595 -0.467828
v -0.428637 -0.362595 -0.461001
v -0.426475 -0.347887 -0.406111
v -0.423815 -0.362595 -0.467828
v -0.428637 -0.388069 -0.446293
v -0.428637 -0.388069 -0.416878
v -0.428637 -0.380716 -0.400198
v -0.428637 -0.362595 -0.395343
v -0.426475 -0.362595 -0.461001
v -0.428637 -0.377302 -0.406111
v -0.426475 -0.362595 -0.402170
v -0.426475 -0.377302 -0.406111
vn -0.5392382500825812 -0.17835408271529232 0.823050381706164
vn 0.5389348485102858 0.1782539498944258 0.8232707685860289
vn -0.5001360741899408 0.5257310779866909 0.6880921020712462
vn 0.5001360741899408 -0.5257310779866909 -0.6880921020712462
vn -0.5389348485102858 -0.1782539498944258 -0.8232707685860289
vn 0.5392382500825812 0.17835408271529232 -0.823050381706164
vn 0.49986394327619277 0.5257309403408448 0.6882899218938966
vn -0.49986394327619277 -0.5257309403408448 -0.6882899218938966
vn -0.8982052680985938 -0.29708308867411615 -0.32398909670509
vn 0.8982052680985938 0.29708308867411615 0.32398909670509
vn 0.8983317269750205 0.29712490969647415 -0.32359990165007657
vn -0.8983317269750205 -0.29712490969647415 0.32359990165007657
vn 0.0001679999801435795 0.5257309378622871 -0.850650899459024
vn -0.0001679999801435795 -0.5257309378622871 0.850650899459024
vn 0.8090689297898105 0.5257309543775955 -0.2627059772026389
vn -0.8090689297898105 -0.5257309543775955 0.2627059772026389
vn -0.8089651592808064 0.525731103513573 -0.2630250517881911
vn 0.8089651592808064 -0.525731103513573 0.2630250517881911
vn -0.3232299874830807 0.32322998748308046 0.8894069655581608
vn 0.3232299874830807 -0.32322998748308046 -0.8894069655581608
vn 0.00017799999687031506 0.00005899999896285457 -0.9999999824175004
vn -0.00017799999687031506 -0.00005899999896285457 0.9999999824175004
vn -0.6424451327272508 0.6424451327272509 -0.41776608630922885
vn 0.6424451327272508 -0.6424451327272509 0.41776608630922885
vn 0.32301799525664227 -0.3230179952566425 0.8895609869372416
vn -0.32301799525664227 0.3230179952566425 -0.8895609869372416
vn 0 0.5879449556613086 0.8089009389983558
vn 0 -0.5879449556613086 -0.8089009389983558
vn 0.6425952260438347 -0.6425952260438346 -0.4173041467938538
vn -0.6425952260438347 0.6425952260438346 0.4173041467938538
vn 0.000098999999029701 -0.00009899999902947895 -0.9999999901990001
vn -0.000098999999029701 0.00009899999902947895 0.9999999901990001
vn 0 0.9509954655212033 -0.3092048262205976
vn 0 -0.9509954655212033 0.3092048262205976
vn 0 -0.5876258449946062 0.8091327865649588
vn 0 0.5876258449946062 -0.8091327865649588
vn 0 -0.9511175236236298 -0.30882917002131416
vn 0 0.9511175236236298 0.30882917002131416
vn 0 -0.00019699999617709156 -0.9999999805955005
vn 0 0.00019699999617709156 0.9999999805955005
vn -0.525731077986691 0.5001360741899407 0.6880921020712462
vn 0.525731077986691 -0.5001360741899407 -0.6880921020712462
vn -1 0 0
vn 1 0 0
vn -0.5257311035135729 0.8089651592808065 -0.263025051788191
vn 0.5257311035135729 -0.8089651592808065 0.263025051788191
vn -0.5257309378622869 -0.0001679999801433906 -0.8506508994590241
vn 0.5257309378622869 0.0001679999801433906 0.8506508994590241
vn -0.5257309543775954 -0.8090689297898104 -0.26270597720263916
vn 0.5257309543775954 0.8090689297898104 0.26270597720263916
vn -0.5257309403408449 -0.49986394327619293 0.6882899218938964
vn 0.5257309403408449 0.49986394327619293 -0.6882899218938964
vn 0 -0.8660253028382761 -0.500000174843842
vn 0 -0.5000001748438415 -0.8660253028382763
vn 0 0.8660253028382761 0.500000174843842
vn 0 0.5000001748438415 0.8660253028382763
vn 0 -1 0
vn 0 1 0
vn 0 -0.8660253028382763 0.5000001748438415
vn 0 0.8660253028382763 -0.5000001748438415
vn 0 -0.500000174843842 0.8660253028382761
vn 0 0.500000174843842 -0.8660253028382761
vn 0 0 -1
vn 0 0 1
usemtl material_0_0
f 1//1 2//2 3//3
f 3//4 2//5 1//6
f 2//2 1//1 4//2
f 4//5 1//6 2//5
f 5//7 3//3 2//2
f 2//5 3//4 5//8
f 1//1 3//3 6//9
f 6//10 3//4 1//6
f 7//1 4//2 1//1
f 1//6 4//5 7//6
f 2//2 4//2 8//11
f 8//12 4//5 2//5
f 3//3 5//7 9//13
f 9//14 5//8 3//4
f 5//7 2//2 10//15
f 10//16 2//5 5//8
f 11//17 6//9 3//3
f 3//4 6//10 11//18
f 6//9 12//9 1//1
f 1//6 12//10 6//10
f 7//1 13//19 4//2
f 4//5 13//20 7//6
f 7//1 1//1 12//9
f 12//10 1//6 7//6
f 14//11 8//11 4//2
f 4//5 8//12 14//12
f 8//11 10//15 2//2
f 2//5 10//16 8//12
f 10//15 9//13 5//7
f 5//8 9//14 10//16
f 11//17 3//3 9//13
f 9//14 3//4 11//18
f 6//9 11//17 15//21
f 15//22 11//18 6//10
f 12//9 6//9 16//21
f 16//22 6//10 12//10
f 13//19 7//1 17//23
f 17//24 7//6 13//20
f 18//25 4//2 13//19
f 13//20 4//5 18//26
f 12//9 17//23 7//1
f 7//6 17//24 12//10
f 8//11 14//11 15//21
f 15//22 14//12 8//12
f 4//2 18//25 14//11
f 14//12 18//26 4//5
f 10//15 8//11 9//13
f 9//14 8//12 10//16
f 9//13 15//21 11//17
f 11//18 15//22 9//14
f 15//21 16//21 6//9
f 6//10 16//22 15//22
f 12//9 16//21 17//23
f 17//24 16//22 12//10
f 13//19 17//23 19//27
f 19//28 17//24 13//20
f 13//19 19//27 18//25
f 18//26 19//28 13//20
f 16//21 15//21 14//11
f 14//12 15//22 16//22
f 15//21 9//13 8//11
f 8//12 9//14 15//22
f 20//29 14//11 18//25
f 18//26 14//12 20//30
f 21//31 17//23 16//21
f 16//22 17//24 21//32
f 22//33 19//27 17//23
f 17//24 19//28 22//34
f 23//35 18//25 19//27
f 19//28 18//26 23//36
f 16//21 14//11 21//31
f 21//32 14//12 16//22
f 20//29 21//31 14//11
f 14//12 21//32 20//30
f 20//29 18//25 24//37
f 24//38 18//26 20//30
f 21//31 25//39 17//23
f 17//24 25//40 21//32
f 19//27 22//33 26//41
f 26//42 22//34 19//28
f 22//43 19//43 27//43
f 27//44 19//44 22//44
f 22//33 17//23 25//39
f 25//40 17//24 22//34
f 23//35 24//37 18//25
f 18//26 24//38 23//36
f 23//43 28//43 19//43
f 19//44 28//44 23//44
f 19//27 26//41 23//35
f 23//36 26//42 19//28
f 20//29 24//37 21//31
f 21//32 24//38 20//30
f 25//39 21//31 24//37
f 24//38 21//32 25//40
f 29//45 26//41 22//33
f 22//34 26//42 29//46
f 27//43 19//43 28//43
f 28//44 19//44 27//44
f 30//43 22//43 27//43
f 27//44 22//44 30//44
f 25//43 22//43 31//43
f 31//44 22//44 25//44
f 25//39 32//47 22//33
f 22//34 32//48 25//40
f 24//43 33//43 23//43
f 23//44 33//44 24//44
f 24//37 23//35 34//49
f 34//50 23//36 24//38
f 23//43 33//43 28//43
f 28//44 33//44 23//44
f 35//51 23//35 26//41
f 26//42 23//36 35//52
f 25//43 36//43 24//43
f 24//44 36//44 25//44
f 24//37 34//49 25//39
f 25//40 34//50 24//38
f 29//45 34//49 26//41
f 26//42 34//50 29//46
f 29//45 22//33 32//47
f 32//48 22//34 29//46
f 27//44 37//44 28//44
f 28//43 37//43 27//43
f 27//53 28//54 38//53
f 38//55 28//56 27//55
f 31//43 22//43 30//43
f 30//44 22//44 31//44
f 30//44 37//44 27//44
f 27//43 37//43 30//43
f 30//57 27//53 39//57
f 39//58 27//55 30//58
f 40//43 25//43 31//43
f 31//44 25//44 40//44
f 32//47 25//39 34//49
f 34//50 25//40 32//48
f 41//43 33//43 24//43
f 24//44 33//44 41//44
f 35//51 34//49 23//35
f 23//36 34//50 35//52
f 33//43 42//43 28//43
f 28//44 42//44 33//44
f 35//51 26//41 34//49
f 34//50 26//42 35//52
f 43//43 36//43 25//43
f 25//44 36//44 43//44
f 36//43 41//43 24//43
f 24//44 41//44 36//44
f 32//47 34//49 29//45
f 29//46 34//50 32//48
f 28//44 37//44 44//44
f 44//43 37//43 28//43
f 45//54 38//53 28//54
f 28//56 38//55 45//56
f 38//53 39//57 27//53
f 27//55 39//58 38//55
f 31//59 30//57 46//59
f 46//60 30//58 31//60
f 31//44 47//44 30//44
f 30//43 47//43 31//43
f 47//44 37//44 30//44
f 30//43 37//43 47//43
f 39//57 46//59 30//57
f 30//58 46//60 39//58
f 43//43 25//43 40//43
f 40//44 25//44 43//44
f 31//59 46//59 40//61
f 40//62 46//60 31//60
f 40//44 47//44 31//44
f 31//43 47//43 40//43
f 33//60 41//58 48//60
f 48//59 41//57 33//59
f 41//44 33//44 49//44
f 49//43 33//43 41//43
f 33//60 48//60 42//62
f 42//61 48//59 33//59
f 33//44 42//44 49//44
f 49//43 42//43 33//43
f 44//43 28//43 42//43
f 42//44 28//44 44//44
f 36//55 43//56 50//55
f 50//53 43//54 36//53
f 43//44 36//44 51//44
f 51//43 36//43 43//43
f 41//58 36//55 52//58
f 52//57 36//53 41//57
f 36//44 41//44 49//44
f 49//43 41//43 36//43
f 53//44 44//44 37//44
f 37//43 44//43 53//43
f 44//63 54//63 28//54
f 28//56 54//64 44//64
f 38//43 45//43 55//43
f 55//44 45//44 38//44
f 45//54 28//54 54//63
f 54//64 28//56 45//56
f 39//43 38//43 55//43
f 55//44 38//44 39//44
f 37//58 47//60 56//58
f 56//57 47//59 37//57
f 46//43 39//43 57//43
f 57//44 39//44 46//44
f 58//43 43//43 40//43
f 40//44 43//44 58//44
f 59//61 40//61 46//59
f 46//60 40//62 59//62
f 58//44 47//44 40//44
f 40//43 47//43 58//43
f 52//58 48//60 41//58
f 41//57 48//59 52//57
f 60//62 42//62 48//60
f 48//59 42//61 60//61
f 42//44 44//44 49//44
f 49//43 44//43 42//43
f 42//62 60//62 44//63
f 44//64 60//61 42//61
f 61//56 50//55 43//56
f 43//54 50//53 61//54
f 50//55 52//58 36//55
f 36//53 52//57 50//53
f 51//44 36//44 49//44
f 49//43 36//43 51//43
f 58//44 43//44 51//44
f 51//43 43//43 58//43
f 44//44 53//44 49//44
f 49//43 53//43 44//43
f 53//55 37//58 62//55
f 62//53 37//57 53//53
f 54//63 44//63 60//62
f 60//61 44//64 54//64
f 45//43 54//43 55//43
f 55//44 54//44 45//44
f 57//43 39//43 55//43
f 55//44 39//44 57//44
f 63//60 56//58 47//60
f 47//59 56//57 63//59
f 56//58 62//55 37//58
f 37//57 62//53 56//57
f 59//43 46//43 57//43
f 57//44 46//44 59//44
f 58//64 64//64 43//56
f 43//54 64//63 58//63
f 40//61 59//61 58//64
f 58//63 59//62 40//62
f 51//44 47//44 58//44
f 58//43 47//43 51//43
f 52//43 65//43 48//43
f 48//44 65//44 52//44
f 48//43 65//43 60//43
f 60//44 65//44 48//44
f 61//43 66//43 50//43
f 50//44 66//44 61//44
f 61//56 43//56 64//64
f 64//63 43//54 61//54
f 50//43 65//43 52//43
f 52//44 65//44 50//44
f 51//53 49//57 67//53
f 67//55 49//58 51//55
f 49//44 53//44 68//44
f 68//43 53//43 49//43
f 62//55 69//56 53//55
f 53//53 69//54 62//53
f 60//43 65//43 54//43
f 54//44 65//44 60//44
f 70//43 55//43 54//43
f 54//44 55//44 70//44
f 57//59 55//57 71//59
f 71//60 55//58 57//60
f 63//43 71//43 56//43
f 56//44 71//44 63//44
f 63//60 47//60 72//62
f 72//61 47//59 63//59
f 56//43 73//43 62//43
f 62//44 73//44 56//44
f 64//43 59//43 57//43
f 57//44 59//44 64//44
f 64//64 58//64 59//61
f 59//62 58//63 64//63
f 74//44 47//44 51//44
f 51//43 47//43 74//43
f 64//43 66//43 61//43
f 61//44 66//44 64//44
f 66//43 65//43 50//43
f 50//44 65//44 66//44
f 75//57 67//53 49//57
f 49//58 67//55 75//58
f 67//53 76//54 51//53
f 51//55 76//56 67//55
f 53//44 77//44 68//44
f 68//43 77//43 53//43
f 49//57 68//59 75//57
f 75//58 68//60 49//58
f 62//43 78//43 69//43
f 69//44 78//44 62//44
f 77//56 53//55 69//56
f 69//54 53//53 77//54
f 54//43 65//43 70//43
f 70//44 65//44 54//44
f 55//57 70//53 79//57
f 79//58 70//55 55//58
f 79//57 71//59 55//57
f 55//58 71//60 79//58
f 57//59 71//59 80//61
f 80//62 71//60 57//60
f 81//43 71//43 63//43
f 63//44 71//44 81//44
f 71//43 79//43 56//43
f 56//44 79//44 71//44
f 82//62 72//62 47//60
f 47//59 72//61 82//61
f 72//43 81//43 63//43
f 63//44 81//44 72//44
f 79//43 73//43 56//43
f 56//44 73//44 79//44
f 73//43 78//43 62//43
f 62//44 78//44 73//44
f 66//43 64//43 57//43
f 57//44 64//44 66//44
f 82//44 47//44 74//44
f 74//43 47//43 82//43
f 74//54 51//53 76//54
f 76//56 51//55 74//56
f 65//58 66//55 83//58
f 83//57 66//53 65//57
f 67//43 75//43 83//43
f 83//44 75//44 67//44
f 76//43 67//43 84//43
f 84//44 67//44 76//44
f 68//44 77//44 85//44
f 85//43 77//43 68//43
f 86//59 75//57 68//59
f 68//60 75//58 86//60
f 87//43 69//43 78//43
f 78//44 69//44 87//44
f 77//56 69//56 88//64
f 88//63 69//54 77//54
f 65//43 89//43 70//43
f 70//44 89//44 65//44
f 73//53 79//57 70//53
f 70//55 79//58 73//55
f 81//61 80//61 71//59
f 71//60 80//62 81//62
f 80//43 90//43 57//43
f 57//44 90//44 80//44
f 72//62 82//62 91//63
f 91//64 82//61 72//61
f 92//43 81//43 72//43
f 72//44 81//44 92//44
f 78//54 73//53 93//54
f 93//56 73//55 78//56
f 90//43 66//43 57//43
f 57//44 66//44 90//44
f 94//44 82//44 74//44
f 74//43 82//43 94//43
f 74//54 76//54 94//63
f 94//64 76//56 74//56
f 95//55 83//58 66//55
f 66//53 83//57 95//53
f 83//58 96//60 65//58
f 65//57 96//59 83//57
f 83//43 75//43 96//43
f 96//44 75//44 83//44
f 95//43 67//43 83//43
f 83//44 67//44 95//44
f 84//43 67//43 95//43
f 95//44 67//44 84//44
f 92//43 76//43 84//43
f 84//44 76//44 92//44
f 88//44 85//44 77//44
f 77//43 85//43 88//43
f 85//61 97//61 68//59
f 68//60 97//62 85//62
f 75//43 86//43 96//43
f 96//44 86//44 75//44
f 86//59 68//59 97//61
f 97//62 68//60 86//60
f 87//43 97//43 69//43
f 69//44 97//44 87//44
f 78//54 93//54 87//63
f 87//64 93//56 78//56
f 98//64 88//64 69//56
f 69//54 88//63 98//63
f 89//60 65//58 96//60
f 96//59 65//57 89//59
f 70//43 89//43 93//43
f 93//44 89//44 70//44
f 70//53 93//54 73//53
f 73//55 93//56 70//55
f 80//61 81//61 99//64
f 99//63 81//62 80//62
f 99//43 90//43 80//43
f 80//44 90//44 99//44
f 94//63 91//63 82//62
f 82//61 91//64 94//64
f 91//43 76//43 72//43
f 72//44 76//44 91//44
f 92//64 99//64 81//61
f 81//62 99//63 92//63
f 76//43 92//43 72//43
f 72//44 92//44 76//44
f 66//55 90//56 95//55
f 95//53 90//54 66//53
f 91//63 94//63 76//54
f 76//56 94//64 91//64
f 84//56 95//55 90//56
f 90//54 95//53 84//54
f 84//56 90//56 92//64
f 92//63 90//54 84//54
f 88//64 98//64 85//61
f 85//62 98//63 88//63
f 97//61 85//61 98//64
f 98//63 85//62 97//62
f 96//43 86//43 100//43
f 100//44 86//44 96//44
f 86//43 97//43 100//43
f 100//44 97//44 86//44
f 100//43 97//43 87//43
f 87//44 97//44 100//44
f 98//43 69//43 97//43
f 97//44 69//44 98//44
f 101//63 87//63 93//54
f 93//56 87//64 101//64
f 89//60 96//60 102//62
f 102//61 96//59 89//59
f 89//43 102//43 93//43
f 93//44 102//44 89//44
f 99//64 92//64 90//56
f 90//54 92//63 99//63
f 100//62 102//62 96//60
f 96//59 102//61 100//61
f 87//63 101//63 100//62
f 100//61 101//64 87//64
f 101//43 93//43 102//43
f 102//44 93//44 101//44
f 102//62 100//62 101//63
f 101//64 100//61 102//61
