# SSTK version 0.8.0
# 75
mtllib original-75.mtl
o Component_40_2/Component_40/mesh38/mesh38-geometry#mesh38-geometry
v -0.029219 0.179070 -0.125074
v -0.031706 0.163375 -0.125882
v -0.029219 0.163040 -0.125074
v -0.031706 0.179405 -0.125882
v -0.029219 0.153009 -0.135104
v -0.027683 0.163916 -0.127189
v -0.029219 0.184787 -0.119357
v -0.031706 0.180488 -0.128496
v -0.031706 0.153817 -0.135439
v -0.027683 0.179946 -0.127189
v -0.031706 0.185595 -0.119692
v -0.027683 0.186902 -0.120233
v -0.031706 0.188209 -0.120775
v -0.031706 0.164458 -0.128496
v -0.029219 0.153009 -0.326034
v -0.027683 0.155125 -0.135981
v -0.029219 0.164792 -0.129304
v -0.031706 0.185595 -0.051774
v -0.029219 0.184787 -0.052108
v -0.029219 0.180822 -0.129304
v -0.031706 0.156432 -0.136522
v -0.031706 0.153817 -0.325700
v -0.029219 0.189017 -0.121109
v -0.027683 0.186902 -0.051232
v -0.029219 0.162211 -0.335236
v -0.027683 0.155125 -0.325158
v -0.029219 0.157240 -0.136857
v -0.031706 0.179405 -0.045584
v -0.031706 0.188209 -0.050691
v -0.029219 0.179070 -0.046392
v -0.029219 0.189017 -0.050356
v -0.031706 0.156432 -0.324617
v -0.031706 0.162546 -0.334428
v -0.027683 0.163087 -0.333121
v -0.027683 0.179946 -0.044276
v -0.031706 0.163629 -0.331813
v -0.029219 0.179910 -0.335236
v -0.027683 0.180786 -0.333121
v -0.029219 0.163963 -0.331005
v -0.029219 0.157240 -0.324282
v -0.031706 0.162546 -0.045584
v -0.031706 0.180488 -0.042969
v -0.029219 0.180822 -0.042161
v -0.029219 0.162211 -0.046392
v -0.031706 0.180245 -0.334428
v -0.029219 0.181663 -0.331005
v -0.031706 0.163629 -0.042969
v -0.027683 0.163087 -0.044276
v -0.031706 0.181328 -0.331813
v -0.029219 0.185627 -0.340953
v -0.027683 0.187742 -0.340077
v -0.029219 0.189858 -0.339200
v -0.031706 0.152988 -0.036026
v -0.029219 0.163963 -0.042161
v -0.029219 0.152180 -0.036361
v -0.031706 0.189050 -0.339535
v -0.031706 0.186435 -0.340618
v -0.031706 0.155603 -0.034943
v -0.029219 0.156411 -0.034609
v -0.027683 0.154295 -0.035485
v -0.029219 0.185627 -0.387795
v -0.027683 0.187742 -0.387795
v -0.029219 0.189858 -0.387795
v -0.031706 0.189050 -0.387795
v -0.031706 0.152988 0.068753
v -0.027683 0.154295 0.068753
v -0.031706 0.186435 -0.387795
v -0.029219 0.152180 0.068753
v -0.031706 0.155603 0.068753
v -0.029219 0.156411 0.068753
vn -0.3090168573056278 0 0.9510565608316645
vn 0.3090168573056278 0 -0.9510565608316645
vn -0.30901679662205284 -0.6724985573982465 0.6724985573982463
vn 0.30901679662205284 0.6724985573982465 -0.6724985573982463
vn 0.8090171162905557 0 0.5877850844899974
vn -0.8090171162905557 0 -0.5877850844899974
vn -1 0 0
vn 1 0 0
vn 0.8090169544737859 -0.41562697661121617 0.41562697661121595
vn -0.8090169544737859 0.41562697661121617 -0.41562697661121595
vn -0.3090168573056278 -0.9510565608316645 0
vn 0.3090168573056278 0.9510565608316645 0
vn 0.8090171162905557 0 -0.5877850844899974
vn -0.8090171162905557 0 0.5877850844899974
vn 0.8090171162905557 -0.5877850844899974 0
vn -0.8090171162905557 0.5877850844899974 0
vn -0.30901679662205284 0.6724985573982465 -0.6724985573982463
vn 0.30901679662205284 -0.6724985573982465 0.6724985573982463
vn -0.3090168573056278 0 -0.9510565608316645
vn 0.3090168573056278 0 0.9510565608316645
vn 0.8090169544737859 0.41562697661121617 -0.41562697661121595
vn -0.8090169544737859 -0.41562697661121617 0.41562697661121595
vn -0.30901679662205284 -0.6724985573982463 -0.6724985573982465
vn 0.30901679662205284 0.6724985573982463 0.6724985573982465
vn 0.8090171162905557 0.5877850844899974 0
vn -0.8090171162905557 -0.5877850844899974 0
vn 0.8090169544737859 -0.41562697661121595 -0.41562697661121617
vn -0.8090169544737859 0.41562697661121595 0.41562697661121617
vn -0.3090168573056278 0.9510565608316645 0
vn 0.3090168573056278 -0.9510565608316645 0
vn 0.8090169544737859 0.41562697661121595 0.41562697661121617
vn -0.8090169544737859 -0.41562697661121595 -0.41562697661121617
vn -0.30901679662205284 0.6724985573982463 0.6724985573982465
vn 0.30901679662205284 -0.6724985573982463 -0.6724985573982465
vn 0 0 -1
vn 0 0 1
usemtl material_0_0
f 1//1 2//1 3//1
f 2//1 1//1 4//1
f 3//2 2//2 1//2
f 4//2 1//2 2//2
f 2//3 5//3 3//3
f 3//4 5//4 2//4
f 6//5 1//5 3//5
f 3//6 1//6 6//6
f 7//3 4//3 1//3
f 1//4 4//4 7//4
f 4//7 8//7 2//7
f 2//8 8//8 4//8
f 5//3 2//3 9//3
f 9//4 2//4 5//4
f 5//9 6//9 3//9
f 3//10 6//10 5//10
f 1//5 6//5 10//5
f 10//6 6//6 1//6
f 4//3 7//3 11//3
f 11//4 7//4 4//4
f 1//9 12//9 7//9
f 7//10 12//10 1//10
f 4//7 13//7 8//7
f 8//8 13//8 4//8
f 2//7 8//7 14//7
f 14//8 8//8 2//8
f 2//7 14//7 9//7
f 9//8 14//8 2//8
f 9//11 15//11 5//11
f 5//12 15//12 9//12
f 6//9 5//9 16//9
f 16//10 5//10 6//10
f 17//13 10//13 6//13
f 6//14 10//14 17//14
f 12//9 1//9 10//9
f 10//10 1//10 12//10
f 7//11 18//11 11//11
f 11//12 18//12 7//12
f 11//7 13//7 4//7
f 4//8 13//8 11//8
f 12//15 19//15 7//15
f 7//16 19//16 12//16
f 13//17 20//17 8//17
f 8//18 20//18 13//18
f 8//19 17//19 14//19
f 14//20 17//20 8//20
f 9//7 14//7 21//7
f 21//8 14//8 9//8
f 15//11 9//11 22//11
f 22//12 9//12 15//12
f 15//15 16//15 5//15
f 5//16 16//16 15//16
f 16//21 17//21 6//21
f 6//22 17//22 16//22
f 10//13 17//13 20//13
f 20//14 17//14 10//14
f 10//21 23//21 12//21
f 12//22 23//22 10//22
f 18//11 7//11 19//11
f 19//12 7//12 18//12
f 18//7 13//7 11//7
f 11//8 13//8 18//8
f 19//15 12//15 24//15
f 24//16 12//16 19//16
f 20//17 13//17 23//17
f 23//18 13//18 20//18
f 17//19 8//19 20//19
f 20//20 8//20 17//20
f 17//17 21//17 14//17
f 14//18 21//18 17//18
f 9//7 21//7 22//7
f 22//8 21//8 9//8
f 22//23 25//23 15//23
f 15//24 25//24 22//24
f 16//15 15//15 26//15
f 26//16 15//16 16//16
f 17//21 16//21 27//21
f 27//22 16//22 17//22
f 23//21 10//21 20//21
f 20//22 10//22 23//22
f 23//25 24//25 12//25
f 12//26 24//26 23//26
f 19//23 28//23 18//23
f 18//24 28//24 19//24
f 18//7 29//7 13//7
f 13//8 29//8 18//8
f 24//27 30//27 19//27
f 19//28 30//28 24//28
f 13//29 31//29 23//29
f 23//30 31//30 13//30
f 21//17 17//17 27//17
f 27//18 17//18 21//18
f 22//7 21//7 32//7
f 32//8 21//8 22//8
f 25//23 22//23 33//23
f 33//24 22//24 25//24
f 34//27 15//27 25//27
f 25//28 15//28 34//28
f 15//27 34//27 26//27
f 26//28 34//28 15//28
f 26//25 27//25 16//25
f 16//26 27//26 26//26
f 24//25 23//25 31//25
f 31//26 23//26 24//26
f 28//23 19//23 30//23
f 30//24 19//24 28//24
f 28//7 29//7 18//7
f 18//8 29//8 28//8
f 31//29 13//29 29//29
f 29//30 13//30 31//30
f 30//27 24//27 35//27
f 35//28 24//28 30//28
f 27//29 32//29 21//29
f 21//30 32//30 27//30
f 22//7 32//7 36//7
f 36//8 32//8 22//8
f 22//7 36//7 33//7
f 33//8 36//8 22//8
f 33//19 37//19 25//19
f 25//20 37//20 33//20
f 25//13 38//13 34//13
f 34//14 38//14 25//14
f 39//31 26//31 34//31
f 34//32 26//32 39//32
f 27//25 26//25 40//25
f 40//26 26//26 27//26
f 31//31 35//31 24//31
f 24//32 35//32 31//32
f 30//19 41//19 28//19
f 28//20 41//20 30//20
f 28//7 42//7 29//7
f 29//8 42//8 28//8
f 29//33 43//33 31//33
f 31//34 43//34 29//34
f 35//13 44//13 30//13
f 30//14 44//14 35//14
f 32//29 27//29 40//29
f 40//30 27//30 32//30
f 40//33 36//33 32//33
f 32//34 36//34 40//34
f 33//7 36//7 45//7
f 45//8 36//8 33//8
f 37//19 33//19 45//19
f 45//20 33//20 37//20
f 38//13 25//13 37//13
f 37//14 25//14 38//14
f 46//5 34//5 38//5
f 38//6 34//6 46//6
f 26//31 39//31 40//31
f 40//32 39//32 26//32
f 34//5 46//5 39//5
f 39//6 46//6 34//6
f 35//31 31//31 43//31
f 43//32 31//32 35//32
f 41//19 30//19 44//19
f 44//20 30//20 41//20
f 41//7 47//7 28//7
f 28//8 47//8 41//8
f 42//7 28//7 47//7
f 47//8 28//8 42//8
f 43//33 29//33 42//33
f 42//34 29//34 43//34
f 44//13 35//13 48//13
f 48//14 35//14 44//14
f 36//33 40//33 39//33
f 39//34 40//34 36//34
f 49//7 45//7 36//7
f 36//8 45//8 49//8
f 45//23 50//23 37//23
f 37//24 50//24 45//24
f 37//27 51//27 38//27
f 38//28 51//28 37//28
f 38//31 52//31 46//31
f 46//32 52//32 38//32
f 49//1 39//1 46//1
f 46//2 39//2 49//2
f 43//5 48//5 35//5
f 35//6 48//6 43//6
f 44//23 53//23 41//23
f 41//24 53//24 44//24
f 53//7 47//7 41//7
f 41//8 47//8 53//8
f 54//1 42//1 47//1
f 47//2 42//2 54//2
f 42//1 54//1 43//1
f 43//2 54//2 42//2
f 48//27 55//27 44//27
f 44//28 55//28 48//28
f 39//1 49//1 36//1
f 36//2 49//2 39//2
f 45//7 49//7 56//7
f 56//8 49//8 45//8
f 50//23 45//23 57//23
f 57//24 45//24 50//24
f 51//27 37//27 50//27
f 50//28 37//28 51//28
f 52//31 38//31 51//31
f 51//32 38//32 52//32
f 56//33 46//33 52//33
f 52//34 46//34 56//34
f 46//33 56//33 49//33
f 49//34 56//34 46//34
f 48//5 43//5 54//5
f 54//6 43//6 48//6
f 53//23 44//23 55//23
f 55//24 44//24 53//24
f 53//7 58//7 47//7
f 47//8 58//8 53//8
f 47//33 59//33 54//33
f 54//34 59//34 47//34
f 55//27 48//27 60//27
f 60//28 48//28 55//28
f 45//7 56//7 57//7
f 57//8 56//8 45//8
f 57//11 61//11 50//11
f 50//12 61//12 57//12
f 50//15 62//15 51//15
f 51//16 62//16 50//16
f 51//25 63//25 52//25
f 52//26 63//26 51//26
f 52//29 64//29 56//29
f 56//30 64//30 52//30
f 54//31 60//31 48//31
f 48//32 60//32 54//32
f 55//11 65//11 53//11
f 53//12 65//12 55//12
f 65//7 58//7 53//7
f 53//8 58//8 65//8
f 59//33 47//33 58//33
f 58//34 47//34 59//34
f 60//31 54//31 59//31
f 59//32 54//32 60//32
f 66//15 55//15 60//15
f 60//16 55//16 66//16
f 57//7 56//7 64//7
f 64//8 56//8 57//8
f 61//11 57//11 67//11
f 67//12 57//12 61//12
f 62//15 50//15 61//15
f 61//16 50//16 62//16
f 63//25 51//25 62//25
f 62//26 51//26 63//26
f 64//29 52//29 63//29
f 63//30 52//30 64//30
f 65//11 55//11 68//11
f 68//12 55//12 65//12
f 58//7 65//7 69//7
f 69//8 65//8 58//8
f 58//29 70//29 59//29
f 59//30 70//30 58//30
f 70//25 60//25 59//25
f 59//26 60//26 70//26
f 55//15 66//15 68//15
f 68//16 66//16 55//16
f 60//25 70//25 66//25
f 66//26 70//26 60//26
f 57//7 64//7 67//7
f 67//8 64//8 57//8
f 67//35 62//35 61//35
f 61//36 62//36 67//36
f 62//35 64//35 63//35
f 63//36 64//36 62//36
f 66//36 65//36 68//36
f 68//35 65//35 66//35
f 65//36 66//36 69//36
f 69//35 66//35 65//35
f 70//29 58//29 69//29
f 69//30 58//30 70//30
f 69//36 66//36 70//36
f 70//35 66//35 69//35
f 62//35 67//35 64//35
f 64//36 67//36 62//36
