# SSTK version 0.8.0
# 59
mtllib original-59.mtl
o mesh32/mesh32-geometry#mesh32-geometry
v -0.413359 0.147886 0.242290
v -0.418300 0.147869 0.276758
v -0.418300 0.147886 0.242290
v -0.413359 0.147869 0.276758
v -0.418300 0.230837 0.224708
v -0.413359 0.196715 0.190138
v -0.413359 0.230837 0.224708
v -0.413359 0.182020 0.276826
v -0.418300 0.182020 0.276826
v -0.418300 0.196715 0.190138
v -0.418300 0.230904 0.190176
v -0.413359 0.230904 0.190176
vn 0 -0.999999878968022 -0.0004919999404524889
vn 0 0.999999878968022 0.0004919999404524889
vn -1 0 0
vn 1 0 0
vn 0 -0.7299802527834455 -0.6834682366768898
vn 0 0.7299802527834455 0.6834682366768898
vn 0 -0.0019910000357536055 0.9999980179574646
vn 0 0.0019910000357536055 -0.9999980179574646
vn 0 0.729847264383935 0.683610247634781
vn 0 -0.729847264383935 -0.683610247634781
vn 0 0.0011180004192923828 -0.9999993750373358
vn 0 -0.0011180004192923828 0.9999993750373358
vn 0 0.9999980674198718 0.001966000132547955
vn 0 -0.9999980674198718 -0.001966000132547955
usemtl material_0_0
f 1//1 2//1 3//1
f 2//1 1//1 4//1
f 3//2 2//2 1//2
f 4//2 1//2 2//2
f 2//3 5//3 3//3
f 3//4 5//4 2//4
f 3//5 6//5 1//5
f 1//6 6//6 3//6
f 7//4 4//4 1//4
f 1//3 4//3 7//3
f 8//7 2//7 4//7
f 4//8 2//8 8//8
f 5//3 2//3 9//3
f 9//4 2//4 5//4
f 3//3 5//3 10//3
f 10//4 5//4 3//4
f 6//5 3//5 10//5
f 10//6 3//6 6//6
f 7//4 1//4 6//4
f 6//3 1//3 7//3
f 4//4 7//4 8//4
f 8//3 7//3 4//3
f 2//7 8//7 9//7
f 9//8 8//8 2//8
f 8//9 5//9 9//9
f 9//10 5//10 8//10
f 10//3 5//3 11//3
f 11//4 5//4 10//4
f 11//11 6//11 10//11
f 10//12 6//12 11//12
f 7//4 6//4 12//4
f 12//3 6//3 7//3
f 5//9 8//9 7//9
f 7//10 8//10 5//10
f 7//13 11//13 5//13
f 5//14 11//14 7//14
f 6//11 11//11 12//11
f 12//12 11//12 6//12
f 11//13 7//13 12//13
f 12//14 7//14 11//14
