# SSTK version 0.8.0
# 236
mtllib original-236.mtl
o mesh152/mesh152-geometry#mesh152-geometry
v -0.514496 0.038167 -0.390744
v -0.514496 0.027688 -0.399181
v -0.514496 0.035168 -0.399181
v -0.514496 0.031525 -0.390787
v -0.514496 0.032804 -0.383575
v -0.514496 0.039167 -0.382371
v -0.514496 0.032041 -0.378582
v -0.514496 0.038866 -0.378120
v -0.514496 0.029751 -0.374783
v -0.514496 0.037963 -0.374310
v -0.514496 0.026129 -0.372381
v -0.514496 0.036458 -0.370941
v -0.514496 0.021368 -0.371580
v -0.514496 0.006536 -0.369232
v -0.514496 0.017190 -0.372166
v -0.514496 0.034352 -0.368012
v -0.514496 0.012995 -0.373923
v -0.514496 0.011437 -0.365325
v -0.514496 0.000689 -0.375492
v -0.514496 0.031748 -0.365642
v -0.514496 0.008785 -0.376852
v -0.514496 0.028752 -0.363949
v -0.514496 -0.002106 -0.378760
v -0.514496 0.016187 -0.363277
v -0.514496 0.004558 -0.380952
v -0.514496 0.025364 -0.362933
v -0.514496 -0.006378 -0.383317
v -0.514496 0.021583 -0.362595
v -0.514496 0.000216 -0.385810
v -0.514496 -0.010554 -0.386799
v -0.514496 -0.014632 -0.389207
v -0.514496 -0.018615 -0.390540
v -0.514496 -0.009586 -0.395183
v -0.514496 -0.014197 -0.398450
v -0.514496 -0.026052 -0.400772
v -0.514496 -0.018615 -0.400772
v -0.514496 -0.026052 -0.362896
v -0.514496 -0.018615 -0.362896
vn 1 0 0
vn -1 0 0
usemtl material_0_0
f 1//1 2//1 3//1
f 2//1 1//1 4//1
f 4//1 1//1 5//1
f 5//1 1//1 6//1
f 5//1 6//1 7//1
f 7//1 6//1 8//1
f 7//1 8//1 9//1
f 9//1 8//1 10//1
f 9//1 10//1 11//1
f 11//1 10//1 12//1
f 11//1 12//1 13//1
f 14//1 13//1 12//1
f 14//1 15//1 13//1
f 14//1 12//1 16//1
f 14//1 17//1 15//1
f 14//1 16//1 18//1
f 19//1 17//1 14//1
f 18//1 16//1 20//1
f 19//1 21//1 17//1
f 18//1 20//1 22//1
f 23//1 21//1 19//1
f 18//1 22//1 24//1
f 23//1 25//1 21//1
f 24//1 22//1 26//1
f 27//1 25//1 23//1
f 24//1 26//1 28//1
f 27//1 29//1 25//1
f 30//1 29//1 27//1
f 31//1 29//1 30//1
f 32//1 29//1 31//1
f 29//1 32//1 33//1
f 32//1 34//1 33//1
f 35//1 34//1 32//1
f 34//1 35//1 36//1
f 35//1 32//1 37//1
f 37//1 32//1 38//1
usemtl material_1_0
f 3//2 2//2 1//2
f 4//2 1//2 2//2
f 5//2 1//2 4//2
f 6//2 1//2 5//2
f 7//2 6//2 5//2
f 8//2 6//2 7//2
f 9//2 8//2 7//2
f 10//2 8//2 9//2
f 11//2 10//2 9//2
f 12//2 10//2 11//2
f 13//2 12//2 11//2
f 12//2 13//2 14//2
f 13//2 15//2 14//2
f 16//2 12//2 14//2
f 15//2 17//2 14//2
f 18//2 16//2 14//2
f 14//2 17//2 19//2
f 20//2 16//2 18//2
f 17//2 21//2 19//2
f 22//2 20//2 18//2
f 19//2 21//2 23//2
f 24//2 22//2 18//2
f 21//2 25//2 23//2
f 26//2 22//2 24//2
f 23//2 25//2 27//2
f 28//2 26//2 24//2
f 25//2 29//2 27//2
f 27//2 29//2 30//2
f 30//2 29//2 31//2
f 31//2 29//2 32//2
f 33//2 32//2 29//2
f 33//2 34//2 32//2
f 32//2 34//2 35//2
f 36//2 35//2 34//2
f 37//2 32//2 35//2
f 38//2 32//2 37//2
