# SSTK version 0.8.0
# 238
mtllib original-238.mtl
o mesh154/mesh154-geometry#mesh154-geometry
v -0.514496 0.016174 -0.220023
v -0.514496 0.005246 -0.223258
v -0.514496 0.011867 -0.223258
v -0.514496 0.009328 -0.219687
v -0.514496 -0.026052 -0.223258
v -0.514496 0.019251 -0.216336
v -0.514496 0.016155 -0.225329
v -0.514496 0.012243 -0.216196
v -0.514496 0.019218 -0.228148
v -0.514496 0.021097 -0.212198
v -0.514496 0.021056 -0.231714
v -0.514496 0.013992 -0.212786
v -0.514496 -0.026052 -0.231770
v -0.514496 0.014575 -0.209457
v -0.514496 0.006579 -0.231770
v -0.514496 0.021712 -0.207609
v -0.514496 0.010096 -0.232173
v -0.514496 0.014075 -0.206692
v -0.514496 0.012608 -0.233382
v -0.514496 0.020804 -0.202116
v -0.514496 0.014116 -0.235398
v -0.514496 0.012576 -0.204717
v -0.514496 0.021669 -0.236026
v -0.514496 0.010077 -0.203532
v -0.514496 0.014618 -0.238219
v -0.514496 0.006579 -0.203137
v -0.514496 0.021056 -0.240664
v -0.514496 -0.026052 -0.203137
v -0.514496 0.014032 -0.241478
v -0.514496 -0.026052 -0.194625
v -0.514496 0.012275 -0.244850
v -0.514496 0.018079 -0.198021
v -0.514496 0.019218 -0.244861
v -0.514496 0.013721 -0.195474
v -0.514496 0.009346 -0.248335
v -0.514496 0.007911 -0.194625
v -0.514496 0.016155 -0.248618
v -0.514496 0.005246 -0.251933
v -0.514496 0.011867 -0.251933
v -0.514496 -0.026052 -0.251933
v -0.514496 0.020637 -0.251933
v -0.514496 -0.026052 -0.260403
v -0.514496 0.020637 -0.260403
vn 1 0 0
vn -1 0 0
usemtl material_0_0
f 1//1 2//1 3//1
f 2//1 1//1 4//1
f 5//1 3//1 2//1
f 4//1 1//1 6//1
f 5//1 7//1 3//1
f 4//1 6//1 8//1
f 5//1 9//1 7//1
f 8//1 6//1 10//1
f 5//1 11//1 9//1
f 8//1 10//1 12//1
f 13//1 11//1 5//1
f 12//1 10//1 14//1
f 15//1 11//1 13//1
f 14//1 10//1 16//1
f 17//1 11//1 15//1
f 14//1 16//1 18//1
f 19//1 11//1 17//1
f 18//1 16//1 20//1
f 21//1 11//1 19//1
f 18//1 20//1 22//1
f 21//1 23//1 11//1
f 22//1 20//1 24//1
f 25//1 23//1 21//1
f 24//1 20//1 26//1
f 25//1 27//1 23//1
f 26//1 20//1 28//1
f 29//1 27//1 25//1
f 28//1 20//1 30//1
f 31//1 27//1 29//1
f 30//1 20//1 32//1
f 31//1 33//1 27//1
f 30//1 32//1 34//1
f 35//1 33//1 31//1
f 30//1 34//1 36//1
f 35//1 37//1 33//1
f 38//1 37//1 35//1
f 37//1 38//1 39//1
f 40//1 39//1 38//1
f 40//1 41//1 39//1
f 42//1 41//1 40//1
f 41//1 42//1 43//1
usemtl material_1_0
f 3//2 2//2 1//2
f 4//2 1//2 2//2
f 2//2 3//2 5//2
f 6//2 1//2 4//2
f 3//2 7//2 5//2
f 8//2 6//2 4//2
f 7//2 9//2 5//2
f 10//2 6//2 8//2
f 9//2 11//2 5//2
f 12//2 10//2 8//2
f 5//2 11//2 13//2
f 14//2 10//2 12//2
f 13//2 11//2 15//2
f 16//2 10//2 14//2
f 15//2 11//2 17//2
f 18//2 16//2 14//2
f 17//2 11//2 19//2
f 20//2 16//2 18//2
f 19//2 11//2 21//2
f 22//2 20//2 18//2
f 11//2 23//2 21//2
f 24//2 20//2 22//2
f 21//2 23//2 25//2
f 26//2 20//2 24//2
f 23//2 27//2 25//2
f 28//2 20//2 26//2
f 25//2 27//2 29//2
f 30//2 20//2 28//2
f 29//2 27//2 31//2
f 32//2 20//2 30//2
f 27//2 33//2 31//2
f 34//2 32//2 30//2
f 31//2 33//2 35//2
f 36//2 34//2 30//2
f 33//2 37//2 35//2
f 35//2 37//2 38//2
f 39//2 38//2 37//2
f 38//2 39//2 40//2
f 39//2 41//2 40//2
f 40//2 41//2 42//2
f 43//2 42//2 41//2
