# SSTK version 0.8.0
# 131
mtllib original-131.mtl
o mesh201/mesh201-geometry#mesh201-geometry
v 0.065405 0.227735 -0.398339
v 0.061678 0.227758 -0.4136
v 0.067591 0.227722 -0.398339
v 0.061439 0.22776 -0.409425
v 0.067614 0.231602 -0.398339
v 0.061462 0.23164 -0.409425
v 0.060637 0.227765 -0.411924
v 0.061702 0.231638 -0.4136
v 0.065428 0.231616 -0.398339
v 0.060661 0.231645 -0.411924
v 0.059607 0.227771 -0.4136
v 0.05963 0.231651 -0.4136
v 0.059838 0.23165 -0.409425
v 0.059815 0.22777 -0.409425
v 0.055693 0.227795 -0.398339
v 0.053632 0.227807 -0.398339
v 0.055716 0.231675 -0.398339
v 0.053655 0.231687 -0.398339
vn -0.006114001891192305 -0.9999813093157663 0.0
vn 0.006114001891192305 0.9999813093157663 0.0
vn 0.9324400684764002 -0.005701046898555574 -0.36127969326269443
vn -0.9324400684764002 0.005701046898555574 0.36127969326269443
vn 0.0 0.0 1.0
vn 0.0 0.0 -1.0
vn -0.9415443473045236 0.005756711516938468 0.33683987639739027
vn -0.9469896108000699 0.0057900044905167345 0.3212120061341608
vn 0.9469896108000699 -0.0057900044905167345 -0.3212120061341608
vn 0.9415443473045236 -0.005756711516938468 -0.33683987639739027
vn -0.9521759405539908 0.005821714313118835 0.30549482135149114
vn 0.9521759405539908 -0.005821714313118835 -0.30549482135149114
vn 0.9437357947891195 -0.005770110281435812 0.3306500498428649
vn 0.9498460873334451 -0.005807469319873548 0.3126638509285075
vn -0.9498460873334451 0.005807469319873548 -0.3126638509285075
vn -0.9437357947891195 0.005770110281435812 -0.3306500498428649
vn -0.9311504285653365 0.005693161890324174 -0.36459082173071866
vn 0.9311504285653365 -0.005693161890324174 0.36459082173071866
vn 0.9372845934781792 -0.005730666887196234 0.3485179339509979
vn -0.9372845934781792 0.005730666887196234 -0.3485179339509979
usemtl material_0_0
f 1//1 2//1 3//1
f 2//1 1//1 4//1
f 3//2 2//2 1//2
f 4//2 1//2 2//2
f 2//3 5//3 3//3
f 3//4 5//4 2//4
f 5//5 1//5 3//5
f 3//6 1//6 5//6
f 1//7 6//8 4//8
f 4//9 6//9 1//10
f 2//1 4//1 7//1
f 7//2 4//2 2//2
f 5//3 2//3 8//3
f 8//4 2//4 5//4
f 1//5 5//5 9//5
f 9//6 5//6 1//6
f 6//8 1//7 9//7
f 9//10 1//10 6//9
f 10//11 4//8 6//8
f 6//9 4//9 10//12
f 4//8 10//11 7//11
f 7//12 10//12 4//9
f 2//1 7//1 11//1
f 11//2 7//2 2//2
f 2//6 12//6 8//6
f 8//5 12//5 2//5
f 8//2 9//2 5//2
f 5//1 9//1 8//1
f 9//2 8//2 6//2
f 6//1 8//1 9//1
f 6//2 8//2 10//2
f 10//1 8//1 6//1
f 13//13 7//14 10//14
f 10//15 7//15 13//16
f 11//1 7//1 14//1
f 14//2 7//2 11//2
f 12//6 2//6 11//6
f 11//5 2//5 12//5
f 10//2 8//2 12//2
f 12//1 8//1 10//1
f 7//14 13//13 14//13
f 14//16 13//16 7//15
f 10//2 12//2 13//2
f 13//1 12//1 10//1
f 11//1 14//1 15//1
f 15//2 14//2 11//2
f 16//17 12//17 11//17
f 11//18 12//18 16//18
f 17//19 14//13 13//13
f 13//16 14//16 17//20
f 13//2 12//2 17//2
f 17//1 12//1 13//1
f 14//13 17//19 15//19
f 15//20 17//20 14//16
f 11//1 15//1 16//1
f 16//2 15//2 11//2
f 12//17 16//17 18//17
f 18//18 16//18 12//18
f 17//2 12//2 18//2
f 18//1 12//1 17//1
f 17//5 16//5 15//5
f 15//6 16//6 17//6
f 16//5 17//5 18//5
f 18//6 17//6 16//6
