# SSTK version 0.8.0
# 134
mtllib original-134.mtl
o Group_27/mesh133/mesh133-geometry#mesh133-geometry
v 0.619234 0.228488 0.455520
v 0.617509 0.233493 0.463068
v 0.617509 0.228488 0.463068
v 0.619234 0.233493 0.455520
v 0.614675 0.233493 0.470274
v 0.619814 0.228488 0.425831
v 0.619814 0.228488 0.447798
v 0.619814 0.233493 0.425831
v 0.614675 0.228488 0.470274
v 0.619814 0.233493 0.447798
v 0.610797 0.233493 0.476976
v 0.610797 0.228488 0.476976
v 0.605963 0.233493 0.483024
v 0.605963 0.228488 0.483024
v -0.651466 0.233493 0.425831
v 0.600279 0.233493 0.488283
v 0.600279 0.228488 0.488283
v -0.651466 0.228488 0.425831
v -0.650886 0.233493 0.455520
v 0.593874 0.233493 0.492634
v 0.593874 0.228488 0.492634
v -0.650886 0.228488 0.455520
v -0.651466 0.228488 0.447798
v -0.651466 0.233493 0.447798
v -0.649160 0.233493 0.463068
v 0.586891 0.233493 0.495980
v 0.586891 0.228488 0.495980
v -0.649160 0.228488 0.463068
v -0.646326 0.233493 0.470274
v 0.579487 0.233493 0.498247
v 0.579487 0.228488 0.498247
v -0.646326 0.228488 0.470274
v -0.642449 0.233493 0.476976
v 0.571828 0.233493 0.499382
v 0.571828 0.228488 0.499382
v -0.642449 0.228488 0.476976
v -0.637614 0.233493 0.483024
v 0.337262 0.233493 0.520977
v 0.337262 0.228488 0.520977
v -0.637614 0.228488 0.483024
v -0.631931 0.233493 0.488283
v 0.101953 0.233493 0.531787
v 0.101953 0.228488 0.531787
v -0.631931 0.228488 0.488283
v -0.625526 0.233493 0.492634
v -0.133604 0.233493 0.531787
v -0.133604 0.228488 0.531787
v -0.625526 0.228488 0.492634
v -0.618543 0.233493 0.495980
v -0.368914 0.233493 0.520977
v -0.368914 0.228488 0.520977
v -0.618543 0.228488 0.495980
v -0.611139 0.233493 0.498247
v -0.603479 0.233493 0.499382
v -0.603479 0.228488 0.499382
v -0.611139 0.228488 0.498247
vn 0.9748420011829706 0 0.2228970002704855
vn 0.9554212447039535 0 0.29524607561887745
vn 0.9006341620961512 0 0.4345780782153696
vn 0 -1 0
vn 0.9992983148644589 0 0.03745501180153298
vn 0.997194202530163 0 0.07485801520366442
vn 0 1 0
vn 0.8655758195014932 0 0.5007778955727962
vn 1 0 0
vn 0 0 -1
vn 0.7321776688068282 0 0.6811136919051023
vn 0.7811102145909238 0 0.6243931715367499
vn 0.679136768783512 0 0.7340117501009711
vn -0.9992983148644589 0 0.03745501180153298
vn -1 0 0
vn 0.49844202111076463 0 0.8669230367172256
vn 0.5619399979534146 0 0.8271779969874178
vn -0.997194202530163 0 0.07485801520366442
vn -0.9748420011829706 0 0.2228970002704855
vn -0.9554212447039535 0 0.29524607561887745
vn 0.3634280977498149 0 0.9316222505747439
vn -0.9006341620961512 0 0.4345780782153696
vn 0.292668033361231 0 0.9562141089988525
vn -0.8655758195014932 0 0.5007778955727962
vn 0.11919904538498559 0 0.9928703780349721
vn 0.14662893573951644 0 0.9891915664844181
vn -0.7321776688068282 0 0.6811136919051023
vn -0.7811102145909238 0 0.6243931715367499
vn 0.09167797303728288 0 0.9957887071360947
vn -0.679136768783512 0 0.7340117501009711
vn 0.04588698335271021 0 0.9989466375932141
vn -0.5619399979534146 0 0.8271779969874178
vn -0.49844202111076463 0 0.8669230367172256
vn 0 0 1
vn -0.3634280977498149 0 0.9316222505747439
vn -0.04588698335271021 0 0.9989466375932141
vn -0.292668033361231 0 0.9562141089988525
vn -0.11919904538498559 0 0.9928703780349721
vn -0.09167797303728288 0 0.9957887071360947
vn -0.14662893573951644 0 0.9891915664844181
vn -0.9554212447039535 0 -0.29524607561887745
vn -0.9748420011829706 0 -0.2228970002704855
vn -0.9006341620961512 0 -0.4345780782153696
vn -0.997194202530163 0 -0.07485801520366442
vn -0.9992983148644589 0 -0.03745501180153298
vn -0.8655758195014932 0 -0.5007778955727962
vn -0.7811102145909238 0 -0.6243931715367499
vn -0.7321776688068282 0 -0.6811136919051023
vn -0.679136768783512 0 -0.7340117501009711
vn 0.9992983148644589 0 -0.03745501180153298
vn -0.49844202111076463 0 -0.8669230367172256
vn -0.5619399979534146 0 -0.8271779969874178
vn 0.997194202530163 0 -0.07485801520366442
vn 0.9554212447039535 0 -0.29524607561887745
vn 0.9748420011829706 0 -0.2228970002704855
vn -0.3634280977498149 0 -0.9316222505747439
vn 0.9006341620961512 0 -0.4345780782153696
vn -0.292668033361231 0 -0.9562141089988525
vn 0.8655758195014932 0 -0.5007778955727962
vn -0.11919904538498559 0 -0.9928703780349721
vn -0.14662893573951644 0 -0.9891915664844181
vn 0.7811102145909238 0 -0.6243931715367499
vn 0.7321776688068282 0 -0.6811136919051023
vn -0.09167797303728288 0 -0.9957887071360947
vn 0.679136768783512 0 -0.7340117501009711
vn -0.04588698335271021 0 -0.9989466375932141
vn 0.5619399979534146 0 -0.8271779969874178
vn 0.49844202111076463 0 -0.8669230367172256
vn 0.3634280977498149 0 -0.9316222505747439
vn 0.04588698335271021 0 -0.9989466375932141
vn 0.292668033361231 0 -0.9562141089988525
vn 0.11919904538498559 0 -0.9928703780349721
vn 0.09167797303728288 0 -0.9957887071360947
vn 0.14662893573951644 0 -0.9891915664844181
usemtl material_0_0
f 1//1 2//2 3//2
f 2//2 1//1 4//1
f 5//3 3//2 2//2
f 3//4 6//4 1//4
f 7//5 4//6 1//6
f 8//7 2//7 4//7
f 3//2 5//3 9//3
f 8//7 5//7 2//7
f 9//4 6//4 3//4
f 1//4 6//4 7//4
f 4//6 7//5 10//5
f 8//7 4//7 10//7
f 11//8 9//3 5//3
f 8//7 11//7 5//7
f 12//4 6//4 9//4
f 6//9 10//5 7//5
f 10//5 6//9 8//9
f 9//3 11//8 12//8
f 8//7 13//7 11//7
f 14//4 6//4 12//4
f 6//10 15//10 8//10
f 13//11 12//12 11//12
f 8//7 16//7 13//7
f 17//4 6//4 14//4
f 12//12 13//11 14//11
f 15//10 6//10 18//10
f 15//7 19//7 8//7
f 8//7 20//7 16//7
f 17//13 13//11 16//13
f 21//4 6//4 17//4
f 13//11 17//13 14//11
f 22//4 18//4 6//4
f 23//14 15//15 18//15
f 19//7 15//7 24//7
f 8//7 19//7 25//7
f 8//7 26//7 20//7
f 21//16 16//17 20//16
f 16//17 21//16 17//17
f 27//4 6//4 21//4
f 18//4 22//4 23//4
f 22//4 6//4 28//4
f 15//15 23//14 24//14
f 24//14 22//18 19//18
f 19//19 28//20 25//20
f 8//7 25//7 29//7
f 8//7 30//7 26//7
f 27//21 20//16 26//21
f 20//16 27//21 21//16
f 31//4 6//4 27//4
f 22//18 24//14 23//14
f 28//4 6//4 32//4
f 28//20 19//19 22//19
f 28//20 29//22 25//20
f 8//7 29//7 33//7
f 8//7 34//7 30//7
f 31//23 26//21 30//23
f 26//21 31//23 27//21
f 35//4 6//4 31//4
f 32//4 6//4 36//4
f 29//22 28//20 32//22
f 29//22 36//24 33//24
f 8//7 33//7 37//7
f 8//7 38//7 34//7
f 35//25 30//26 34//25
f 30//26 35//25 31//26
f 39//4 6//4 35//4
f 36//4 6//4 40//4
f 36//24 29//22 32//22
f 40//27 33//28 36//28
f 33//28 40//27 37//27
f 8//7 37//7 41//7
f 8//7 42//7 38//7
f 39//29 34//25 38//29
f 34//25 39//29 35//25
f 43//4 6//4 39//4
f 40//4 6//4 44//4
f 40//27 41//30 37//27
f 8//7 41//7 45//7
f 8//7 46//7 42//7
f 43//31 38//31 42//31
f 38//31 43//31 39//31
f 47//4 6//4 43//4
f 44//4 6//4 48//4
f 41//30 40//27 44//30
f 44//32 45//33 41//32
f 8//7 45//7 49//7
f 8//7 50//7 46//7
f 47//34 42//34 46//34
f 42//34 47//34 43//34
f 51//4 6//4 47//4
f 48//4 6//4 52//4
f 45//33 44//32 48//33
f 48//33 49//35 45//33
f 8//7 49//7 53//7
f 8//7 54//7 50//7
f 51//36 46//36 50//36
f 46//36 51//36 47//36
f 55//4 6//4 51//4
f 52//4 6//4 56//4
f 49//35 48//33 52//35
f 52//35 53//37 49//35
f 8//7 53//7 54//7
f 55//38 50//39 54//38
f 50//39 55//38 51//39
f 56//4 6//4 55//4
f 53//37 52//35 56//37
f 56//40 54//38 53//40
f 54//38 56//40 55//38
usemtl material_1_0
f 3//41 2//41 1//42
f 4//42 1//42 2//41
f 2//41 3//41 5//43
f 1//7 6//7 3//7
f 1//44 4//44 7//45
f 4//4 2//4 8//4
f 9//43 5//43 3//41
f 2//4 5//4 8//4
f 3//7 6//7 9//7
f 7//7 6//7 1//7
f 10//45 7//45 4//44
f 10//4 4//4 8//4
f 5//43 9//43 11//46
f 5//4 11//4 8//4
f 9//7 6//7 12//7
f 7//45 10//45 6//15
f 8//15 6//15 10//45
f 12//46 11//46 9//43
f 11//4 13//4 8//4
f 12//7 6//7 14//7
f 8//34 15//34 6//34
f 11//47 12//47 13//48
f 13//4 16//4 8//4
f 14//7 6//7 17//7
f 14//48 13//48 12//47
f 18//34 6//34 15//34
f 8//4 19//4 15//4
f 16//4 20//4 8//4
f 16//49 13//48 17//49
f 17//7 6//7 21//7
f 14//48 17//49 13//48
f 6//7 18//7 22//7
f 18//9 15//9 23//50
f 24//4 15//4 19//4
f 25//4 19//4 8//4
f 20//4 26//4 8//4
f 20//51 16//52 21//51
f 17//52 21//51 16//52
f 21//7 6//7 27//7
f 23//7 22//7 18//7
f 28//7 6//7 22//7
f 24//50 23//50 15//9
f 19//53 22//53 24//50
f 25//54 28//54 19//55
f 29//4 25//4 8//4
f 26//4 30//4 8//4
f 26//56 20//51 27//56
f 21//51 27//56 20//51
f 27//7 6//7 31//7
f 23//50 24//50 22//53
f 32//7 6//7 28//7
f 22//55 19//55 28//54
f 25//54 29//57 28//54
f 33//4 29//4 8//4
f 30//4 34//4 8//4
f 30//58 26//56 31//58
f 27//56 31//58 26//56
f 31//7 6//7 35//7
f 36//7 6//7 32//7
f 32//57 28//54 29//57
f 33//59 36//59 29//57
f 37//4 33//4 8//4
f 34//4 38//4 8//4
f 34//60 30//61 35//60
f 31//61 35//60 30//61
f 35//7 6//7 39//7
f 40//7 6//7 36//7
f 32//57 29//57 36//59
f 36//62 33//62 40//63
f 37//63 40//63 33//62
f 41//4 37//4 8//4
f 38//4 42//4 8//4
f 38//64 34//60 39//64
f 35//60 39//64 34//60
f 39//7 6//7 43//7
f 44//7 6//7 40//7
f 37//63 41//65 40//63
f 45//4 41//4 8//4
f 42//4 46//4 8//4
f 42//66 38//66 43//66
f 39//66 43//66 38//66
f 43//7 6//7 47//7
f 48//7 6//7 44//7
f 44//65 40//63 41//65
f 41//67 45//68 44//67
f 49//4 45//4 8//4
f 46//4 50//4 8//4
f 46//10 42//10 47//10
f 43//10 47//10 42//10
f 47//7 6//7 51//7
f 52//7 6//7 48//7
f 48//68 44//67 45//68
f 45//68 49//69 48//68
f 53//4 49//4 8//4
f 50//4 54//4 8//4
f 50//70 46//70 51//70
f 47//70 51//70 46//70
f 51//7 6//7 55//7
f 56//7 6//7 52//7
f 52//69 48//68 49//69
f 49//69 53//71 52//69
f 54//4 53//4 8//4
f 54//72 50//73 55//72
f 51//73 55//72 50//73
f 55//7 6//7 56//7
f 56//71 52//69 53//71
f 53//74 54//72 56//74
f 55//72 56//74 54//72
