# SSTK version 0.8.0
# 119
mtllib original-119.mtl
o Group_95/mesh118/mesh118-geometry#mesh118-geometry
v 0.032225 0.372995 0.530087
v 0.034334 0.372995 0.530087
v 0.033280 0.372912 0.530087
v 0.031197 0.373242 0.530087
v 0.033280 0.372912 0.530630
v 0.032225 0.372995 0.530629
v 0.035363 0.373242 0.530087
v 0.034334 0.372995 0.530629
v 0.031197 0.373242 0.530629
v 0.030219 0.373646 0.530087
v 0.035363 0.373242 0.530629
v 0.036340 0.373646 0.530087
v 0.036340 0.373647 0.530629
v 0.030219 0.373647 0.530629
v 0.029318 0.374199 0.530086
v 0.037242 0.374199 0.530086
v 0.037242 0.374199 0.530629
v 0.029318 0.374199 0.530629
v 0.028513 0.374886 0.530086
v 0.033280 0.374538 0.530086
v 0.038046 0.374886 0.530086
v 0.038046 0.374886 0.530628
v 0.028513 0.374886 0.530628
v 0.032480 0.374601 0.530086
v 0.033280 0.374539 0.530628
v 0.027826 0.375691 0.530628
v 0.031699 0.374789 0.530086
v 0.034080 0.374601 0.530086
v 0.038733 0.375691 0.530628
v 0.034080 0.374602 0.530628
v 0.032480 0.374602 0.530628
v 0.027826 0.375690 0.530085
v 0.030958 0.375096 0.530628
v 0.030958 0.375096 0.530086
v 0.034860 0.374789 0.530086
v 0.038733 0.375690 0.530085
v 0.035601 0.375096 0.530628
v 0.034860 0.374789 0.530628
v 0.031699 0.374789 0.530628
v 0.027274 0.376592 0.530627
v 0.030274 0.375515 0.530628
v 0.035601 0.375096 0.530086
v 0.039285 0.376592 0.530627
v 0.036285 0.375515 0.530628
v 0.027274 0.376592 0.530085
v 0.029663 0.376037 0.530627
v 0.030274 0.375515 0.530085
v 0.036285 0.375515 0.530085
v 0.039285 0.376592 0.530085
v 0.036896 0.376037 0.530627
v 0.026869 0.377570 0.530626
v 0.029663 0.376036 0.530085
v 0.029142 0.376647 0.530627
v 0.036896 0.376036 0.530085
v 0.039690 0.377570 0.530626
v 0.037417 0.376647 0.530627
v 0.026869 0.377569 0.530084
v 0.029142 0.376646 0.530085
v 0.037417 0.376646 0.530085
v 0.039690 0.377569 0.530084
v 0.026622 0.378598 0.530625
v 0.028723 0.377331 0.530626
v 0.039937 0.378598 0.530625
v 0.037836 0.377331 0.530626
v 0.026622 0.378598 0.530083
v 0.028416 0.378072 0.530626
v 0.028723 0.377331 0.530084
v 0.037836 0.377331 0.530084
v 0.039937 0.378598 0.530083
v 0.038143 0.378072 0.530626
v 0.026539 0.379653 0.530625
v 0.028416 0.378072 0.530084
v 0.028229 0.378853 0.530625
v 0.038143 0.378072 0.530084
v 0.040020 0.379653 0.530625
v 0.038331 0.378853 0.530625
v 0.026539 0.379652 0.530082
v 0.028229 0.378852 0.530083
v 0.038331 0.378852 0.530083
v 0.040020 0.379652 0.530082
v 0.026622 0.380707 0.530624
v 0.028166 0.379653 0.530625
v 0.039937 0.380707 0.530624
v 0.038394 0.379653 0.530625
v 0.026622 0.380707 0.530082
v 0.028229 0.380453 0.530624
v 0.028166 0.379652 0.530082
v 0.038394 0.379652 0.530082
v 0.039937 0.380707 0.530082
v 0.026869 0.381736 0.530623
v 0.028416 0.381233 0.530623
v 0.038331 0.380452 0.530082
v 0.039690 0.381736 0.530623
v 0.038331 0.380453 0.530624
v 0.026869 0.381735 0.530081
v 0.028229 0.380452 0.530082
v 0.038143 0.381233 0.530081
v 0.039690 0.381735 0.530081
v 0.038143 0.381233 0.530623
v 0.027274 0.382713 0.530622
v 0.028416 0.381233 0.530081
v 0.028723 0.381974 0.530623
v 0.039285 0.382713 0.530622
v 0.037836 0.381974 0.530623
v 0.027274 0.382712 0.530080
v 0.028723 0.381974 0.530081
v 0.037836 0.381974 0.530081
v 0.039285 0.382712 0.530080
v 0.027826 0.383615 0.530622
v 0.029142 0.382659 0.530622
v 0.038733 0.383615 0.530622
v 0.037417 0.382659 0.530622
v 0.027826 0.383614 0.530080
v 0.029663 0.383269 0.530622
v 0.029142 0.382658 0.530080
v 0.037417 0.382658 0.530080
v 0.038733 0.383614 0.530080
v 0.036896 0.383269 0.530622
v 0.028513 0.384419 0.530621
v 0.029663 0.383268 0.530080
v 0.030274 0.383790 0.530622
v 0.036896 0.383268 0.530080
v 0.038046 0.384419 0.530621
v 0.036285 0.383790 0.530622
v 0.028513 0.384419 0.530079
v 0.030274 0.383790 0.530079
v 0.036285 0.383790 0.530079
v 0.038046 0.384419 0.530079
v 0.029318 0.385105 0.530078
v 0.030958 0.384209 0.530621
v 0.030958 0.384209 0.530079
v 0.037242 0.385105 0.530078
v 0.035601 0.384209 0.530621
v 0.035601 0.384209 0.530079
v 0.029318 0.385106 0.530621
v 0.031699 0.384516 0.530079
v 0.031699 0.384516 0.530621
v 0.037242 0.385106 0.530621
v 0.034860 0.384516 0.530079
v 0.034860 0.384516 0.530621
v 0.030219 0.385658 0.530078
v 0.032480 0.384703 0.530079
v 0.036340 0.385658 0.530078
v 0.034080 0.384703 0.530079
v 0.032480 0.384704 0.530621
v 0.030219 0.385659 0.530620
v 0.033280 0.384766 0.530079
v 0.036340 0.385659 0.530620
v 0.034080 0.384704 0.530621
v 0.033280 0.384767 0.530621
v 0.031197 0.386063 0.530078
v 0.035363 0.386063 0.530078
v 0.035363 0.386063 0.530620
v 0.031197 0.386063 0.530620
v 0.032225 0.386310 0.530078
v 0.034334 0.386310 0.530078
v 0.032225 0.386310 0.530620
v 0.034334 0.386310 0.530620
v 0.033280 0.386393 0.530078
v 0.033280 0.386393 0.530620
vn 0 -0.0007239998102481405 -0.9999997379121031
vn 0.07845900624321875 -0.996917079327686 0.0007220000574514914
vn -0.07845900624321875 -0.996917079327686 0.0007220000574514914
vn -0.2334449439100734 -0.9723697663682582 0.0007039998308494131
vn 0.2334449439100734 -0.9723697663682582 0.0007039998308494131
vn 0 0.0007239998102481405 0.9999997379121031
vn -0.382683165952313 -0.9238794006445465 0.0006690002901148441
vn 0.382683165952313 -0.9238794006445465 0.0006690002901148441
vn -0.5224988549308256 -0.8526397632688657 0.000616999828692917
vn 0.5224988549308256 -0.8526397632688657 0.000616999828692917
vn -0.6494479051676237 -0.7604058889655402 0.0005499999196888487
vn 0.6494479051676237 -0.7604058889655402 0.0005499999196888487
vn -0.7604059199900934 -0.6494479316650923 0.00046999995054646356
vn 0.07845900624321875 0.996917079327686 -0.0007220000574514914
vn 0.7604059199900934 -0.6494479316650923 0.00046999995054646356
vn 0.2334449439100734 0.9723697663682582 -0.0007039998308494131
vn -0.07845900624321875 0.996917079327686 -0.0007220000574514914
vn -0.8526403101530851 -0.5224981900618862 0.000378000137499727
vn 0.382683165952313 0.9238794006445465 -0.0006690002901148441
vn -0.2334449439100734 0.9723697663682582 -0.0007039998308494131
vn 0.8526403101530851 -0.5224981900618862 0.000378000137499727
vn 0.5224988549308256 0.8526397632688657 -0.000616999828692917
vn -0.382683165952313 0.9238794006445465 -0.0006690002901148441
vn -0.5224988549308256 0.8526397632688657 -0.000616999828692917
vn -0.9238797183931899 -0.38268288335483075 0.00027699991556786067
vn 0.6494479051676237 0.7604058889655402 -0.0005499999196888487
vn 0.9238797183931899 -0.38268288335483075 0.00027699991556786067
vn -0.6494479051676237 0.7604058889655402 -0.0005499999196888487
vn 0.7604059199900934 0.6494479316650923 -0.00046999995054646356
vn -0.7604059199900934 0.6494479316650923 -0.00046999995054646356
vn -0.9723699934433091 -0.2334449984258804 0.00016899999886038115
vn 0.9723699934433091 -0.2334449984258804 0.00016899999886038115
vn 0.8526403101530851 0.5224981900618862 -0.000378000137499727
vn -0.8526403101530851 0.5224981900618862 -0.000378000137499727
vn -0.996917337546797 -0.07845902656548553 0.000057000019299650883
vn 0.9238797183931899 0.38268288335483075 -0.00027699991556786067
vn 0.996917337546797 -0.07845902656548553 0.000057000019299650883
vn -0.9238797183931899 0.38268288335483075 -0.00027699991556786067
vn 0.9723699934433091 0.2334449984258804 -0.00016899999886038115
vn -0.9723699934433091 0.2334449984258804 -0.00016899999886038115
vn -0.996917337546797 0.07845902656548553 -0.000057000019299650883
vn 0.996917337546797 0.07845902656548553 -0.000057000019299650883
usemtl material_0_0
f 1//1 2//1 3//1
f 2//1 1//1 4//1
f 2//2 5//2 3//2
f 5//3 1//3 3//3
f 6//4 4//4 1//4
f 2//1 4//1 7//1
f 5//2 2//2 8//2
f 1//3 5//3 6//3
f 4//4 6//4 9//4
f 7//1 4//1 10//1
f 7//5 8//5 2//5
f 8//6 6//6 5//6
f 6//6 11//6 9//6
f 9//7 10//7 4//7
f 7//1 10//1 12//1
f 8//5 7//5 11//5
f 6//6 8//6 11//6
f 9//6 11//6 13//6
f 10//7 9//7 14//7
f 12//1 10//1 15//1
f 12//8 11//8 7//8
f 11//8 12//8 13//8
f 9//6 13//6 14//6
f 14//9 15//9 10//9
f 12//1 15//1 16//1
f 16//10 13//10 12//10
f 14//6 13//6 17//6
f 15//9 14//9 18//9
f 16//1 15//1 19//1
f 13//10 16//10 17//10
f 14//6 17//6 18//6
f 18//11 19//11 15//11
f 16//1 19//1 20//1
f 21//12 17//12 16//12
f 18//6 17//6 22//6
f 19//11 18//11 23//11
f 20//1 19//1 24//1
f 20//1 21//1 16//1
f 17//12 21//12 22//12
f 18//6 22//6 25//6
f 25//6 23//6 18//6
f 26//13 19//13 23//13
f 24//1 19//1 27//1
f 24//14 25//14 20//14
f 21//1 20//1 28//1
f 21//15 29//15 22//15
f 25//6 22//6 30//6
f 23//6 25//6 31//6
f 19//13 26//13 32//13
f 23//6 33//6 26//6
f 27//1 19//1 34//1
f 27//16 31//16 24//16
f 25//14 24//14 31//14
f 30//17 20//17 25//17
f 20//17 30//17 28//17
f 21//1 28//1 35//1
f 29//15 21//15 36//15
f 37//6 22//6 29//6
f 30//6 22//6 38//6
f 23//6 31//6 39//6
f 40//18 32//18 26//18
f 34//1 19//1 32//1
f 23//6 39//6 33//6
f 26//6 33//6 41//6
f 34//19 39//19 27//19
f 31//16 27//16 39//16
f 30//20 35//20 28//20
f 21//1 35//1 42//1
f 21//1 42//1 36//1
f 36//21 43//21 29//21
f 38//6 22//6 37//6
f 37//6 29//6 44//6
f 35//20 30//20 38//20
f 32//18 40//18 45//18
f 26//6 46//6 40//6
f 34//1 32//1 47//1
f 39//19 34//19 33//19
f 33//22 47//22 41//22
f 26//6 41//6 46//6
f 38//23 42//23 35//23
f 36//1 42//1 48//1
f 43//21 36//21 49//21
f 50//6 29//6 43//6
f 42//23 38//23 37//23
f 44//6 29//6 50//6
f 48//24 37//24 44//24
f 51//25 45//25 40//25
f 52//1 32//1 45//1
f 40//6 46//6 53//6
f 47//1 32//1 52//1
f 47//22 33//22 34//22
f 52//26 41//26 47//26
f 41//26 52//26 46//26
f 37//24 48//24 42//24
f 36//1 48//1 54//1
f 36//1 54//1 49//1
f 49//27 55//27 43//27
f 50//6 43//6 56//6
f 54//28 44//28 50//28
f 44//28 54//28 48//28
f 45//25 51//25 57//25
f 40//6 53//6 51//6
f 52//1 45//1 58//1
f 52//29 53//29 46//29
f 49//1 54//1 59//1
f 55//27 49//27 60//27
f 56//6 43//6 55//6
f 56//30 54//30 50//30
f 61//31 57//31 51//31
f 58//1 45//1 57//1
f 51//6 53//6 62//6
f 53//29 52//29 58//29
f 54//30 56//30 59//30
f 49//1 59//1 60//1
f 60//32 63//32 55//32
f 56//6 55//6 64//6
f 57//31 61//31 65//31
f 51//6 66//6 61//6
f 58//1 57//1 67//1
f 58//33 62//33 53//33
f 51//6 62//6 66//6
f 64//34 59//34 56//34
f 60//1 59//1 68//1
f 63//32 60//32 69//32
f 70//6 55//6 63//6
f 64//6 55//6 70//6
f 71//35 65//35 61//35
f 72//1 57//1 65//1
f 61//6 66//6 73//6
f 67//1 57//1 72//1
f 62//33 58//33 67//33
f 67//36 66//36 62//36
f 59//34 64//34 68//34
f 60//1 68//1 74//1
f 60//1 74//1 69//1
f 69//37 75//37 63//37
f 70//6 63//6 76//6
f 70//38 68//38 64//38
f 65//35 71//35 77//35
f 61//6 73//6 71//6
f 72//1 65//1 78//1
f 72//39 73//39 66//39
f 66//36 67//36 72//36
f 68//38 70//38 74//38
f 69//1 74//1 79//1
f 75//37 69//37 80//37
f 76//6 63//6 75//6
f 76//40 74//40 70//40
f 81//41 77//41 71//41
f 78//1 65//1 77//1
f 71//6 73//6 82//6
f 73//39 72//39 78//39
f 74//40 76//40 79//40
f 69//1 79//1 80//1
f 80//42 83//42 75//42
f 76//6 75//6 84//6
f 77//41 81//41 85//41
f 71//6 86//6 81//6
f 78//1 77//1 87//1
f 78//42 82//42 73//42
f 71//6 82//6 86//6
f 84//41 79//41 76//41
f 80//1 79//1 88//1
f 83//42 80//42 89//42
f 84//6 75//6 83//6
f 90//40 85//40 81//40
f 87//1 77//1 85//1
f 81//6 86//6 91//6
f 82//42 78//42 87//42
f 87//37 86//37 82//37
f 79//41 84//41 88//41
f 80//1 88//1 92//1
f 80//1 92//1 89//1
f 89//39 93//39 83//39
f 84//6 83//6 94//6
f 85//40 90//40 95//40
f 81//6 91//6 90//6
f 87//1 85//1 96//1
f 96//32 91//32 86//32
f 86//37 87//37 96//37
f 94//35 88//35 84//35
f 88//35 94//35 92//35
f 89//1 92//1 97//1
f 93//39 89//39 98//39
f 99//6 83//6 93//6
f 94//6 83//6 99//6
f 100//38 95//38 90//38
f 101//1 85//1 95//1
f 90//6 91//6 102//6
f 96//1 85//1 101//1
f 91//32 96//32 101//32
f 99//31 92//31 94//31
f 92//31 99//31 97//31
f 89//1 97//1 98//1
f 98//36 103//36 93//36
f 99//6 93//6 104//6
f 95//38 100//38 105//38
f 90//6 102//6 100//6
f 101//1 95//1 106//1
f 101//27 102//27 91//27
f 104//25 97//25 99//25
f 98//1 97//1 107//1
f 103//36 98//36 108//36
f 104//6 93//6 103//6
f 109//34 105//34 100//34
f 106//1 95//1 105//1
f 100//6 102//6 110//6
f 102//27 101//27 106//27
f 97//25 104//25 107//25
f 98//1 107//1 108//1
f 108//33 111//33 103//33
f 104//6 103//6 112//6
f 105//34 109//34 113//34
f 100//6 114//6 109//6
f 106//1 105//1 115//1
f 106//21 110//21 102//21
f 100//6 110//6 114//6
f 112//18 107//18 104//18
f 108//1 107//1 116//1
f 111//33 108//33 117//33
f 118//6 103//6 111//6
f 112//6 103//6 118//6
f 119//30 113//30 109//30
f 120//1 105//1 113//1
f 109//6 114//6 121//6
f 115//1 105//1 120//1
f 110//21 106//21 115//21
f 115//15 114//15 110//15
f 107//18 112//18 116//18
f 108//1 116//1 122//1
f 108//1 122//1 117//1
f 117//29 123//29 111//29
f 118//6 111//6 124//6
f 118//13 116//13 112//13
f 113//30 119//30 125//30
f 109//6 121//6 119//6
f 120//1 113//1 126//1
f 114//12 126//12 121//12
f 114//15 115//15 120//15
f 116//13 118//13 122//13
f 117//1 122//1 127//1
f 123//29 117//29 128//29
f 124//6 111//6 123//6
f 127//11 118//11 124//11
f 119//28 129//28 125//28
f 126//1 113//1 125//1
f 119//6 121//6 130//6
f 126//12 114//12 120//12
f 131//10 121//10 126//10
f 118//11 127//11 122//11
f 117//1 127//1 128//1
f 132//26 123//26 128//26
f 124//6 123//6 133//6
f 124//9 134//9 127//9
f 129//28 119//28 135//28
f 136//1 125//1 129//1
f 126//1 125//1 131//1
f 121//10 131//10 130//10
f 119//6 130//6 137//6
f 128//1 127//1 134//1
f 123//26 132//26 138//26
f 128//1 139//1 132//1
f 133//6 123//6 140//6
f 134//9 124//9 133//9
f 119//6 137//6 135//6
f 135//24 141//24 129//24
f 131//1 125//1 136//1
f 136//1 129//1 142//1
f 136//8 130//8 131//8
f 130//8 136//8 137//8
f 128//1 134//1 139//1
f 143//22 138//22 132//22
f 140//6 123//6 138//6
f 132//1 139//1 144//1
f 139//7 133//7 140//7
f 133//7 139//7 134//7
f 135//6 137//6 145//6
f 141//24 135//24 146//24
f 132//1 129//1 141//1
f 142//1 129//1 147//1
f 142//5 137//5 136//5
f 138//22 143//22 148//22
f 132//1 141//1 143//1
f 140//6 138//6 149//6
f 140//4 144//4 139//4
f 132//1 144//1 147//1
f 137//5 142//5 145//5
f 135//6 145//6 150//6
f 135//6 148//6 146//6
f 146//23 151//23 141//23
f 132//1 147//1 129//1
f 147//2 145//2 142//2
f 152//19 148//19 143//19
f 135//6 138//6 148//6
f 143//1 141//1 151//1
f 149//6 138//6 150//6
f 144//4 140//4 149//4
f 144//3 150//3 147//3
f 145//2 147//2 150//2
f 135//6 150//6 138//6
f 146//6 148//6 153//6
f 151//23 146//23 154//23
f 148//19 152//19 153//19
f 143//1 151//1 152//1
f 150//3 144//3 149//3
f 146//6 153//6 154//6
f 154//20 155//20 151//20
f 156//16 153//16 152//16
f 152//1 151//1 155//1
f 154//6 153//6 157//6
f 155//20 154//20 157//20
f 153//16 156//16 158//16
f 152//1 155//1 156//1
f 157//6 153//6 158//6
f 157//17 159//17 155//17
f 159//14 158//14 156//14
f 156//1 155//1 159//1
f 157//6 158//6 160//6
f 159//17 157//17 160//17
f 158//14 159//14 160//14
usemtl material_1_0
f 3//6 2//6 1//6
f 4//6 1//6 2//6
f 3//17 5//17 2//17
f 3//14 1//14 5//14
f 1//16 4//16 6//16
f 7//6 4//6 2//6
f 8//17 2//17 5//17
f 6//14 5//14 1//14
f 9//16 6//16 4//16
f 10//6 4//6 7//6
f 2//20 8//20 7//20
f 5//1 6//1 8//1
f 9//1 11//1 6//1
f 4//19 10//19 9//19
f 12//6 10//6 7//6
f 11//20 7//20 8//20
f 11//1 8//1 6//1
f 13//1 11//1 9//1
f 14//19 9//19 10//19
f 15//6 10//6 12//6
f 7//23 11//23 12//23
f 13//23 12//23 11//23
f 14//1 13//1 9//1
f 10//22 15//22 14//22
f 16//6 15//6 12//6
f 12//24 13//24 16//24
f 17//1 13//1 14//1
f 18//22 14//22 15//22
f 19//6 15//6 16//6
f 17//24 16//24 13//24
f 18//1 17//1 14//1
f 15//26 19//26 18//26
f 20//6 19//6 16//6
f 16//28 17//28 21//28
f 22//1 17//1 18//1
f 23//26 18//26 19//26
f 24//6 19//6 20//6
f 16//6 21//6 20//6
f 22//28 21//28 17//28
f 25//1 22//1 18//1
f 18//1 23//1 25//1
f 23//29 19//29 26//29
f 27//6 19//6 24//6
f 20//3 25//3 24//3
f 28//6 20//6 21//6
f 22//30 29//30 21//30
f 30//1 22//1 25//1
f 31//1 25//1 23//1
f 32//29 26//29 19//29
f 26//1 33//1 23//1
f 34//6 19//6 27//6
f 24//4 31//4 27//4
f 31//3 24//3 25//3
f 25//2 20//2 30//2
f 28//2 30//2 20//2
f 35//6 28//6 21//6
f 36//30 21//30 29//30
f 29//1 22//1 37//1
f 38//1 22//1 30//1
f 39//1 31//1 23//1
f 26//33 32//33 40//33
f 32//6 19//6 34//6
f 33//1 39//1 23//1
f 41//1 33//1 26//1
f 27//7 39//7 34//7
f 39//4 27//4 31//4
f 28//5 35//5 30//5
f 42//6 35//6 21//6
f 36//6 42//6 21//6
f 29//34 43//34 36//34
f 37//1 22//1 38//1
f 44//1 29//1 37//1
f 38//5 30//5 35//5
f 45//33 40//33 32//33
f 40//1 46//1 26//1
f 47//6 32//6 34//6
f 33//7 34//7 39//7
f 41//9 47//9 33//9
f 46//1 41//1 26//1
f 35//8 42//8 38//8
f 48//6 42//6 36//6
f 49//34 36//34 43//34
f 43//1 29//1 50//1
f 37//8 38//8 42//8
f 50//1 29//1 44//1
f 44//10 37//10 48//10
f 40//36 45//36 51//36
f 45//6 32//6 52//6
f 53//1 46//1 40//1
f 52//6 32//6 47//6
f 34//9 33//9 47//9
f 47//11 41//11 52//11
f 46//11 52//11 41//11
f 42//10 48//10 37//10
f 54//6 48//6 36//6
f 49//6 54//6 36//6
f 43//38 55//38 49//38
f 56//1 43//1 50//1
f 50//12 44//12 54//12
f 48//12 54//12 44//12
f 57//36 51//36 45//36
f 51//1 53//1 40//1
f 58//6 45//6 52//6
f 46//13 53//13 52//13
f 59//6 54//6 49//6
f 60//38 49//38 55//38
f 55//1 43//1 56//1
f 50//15 54//15 56//15
f 51//39 57//39 61//39
f 57//6 45//6 58//6
f 62//1 53//1 51//1
f 58//13 52//13 53//13
f 59//15 56//15 54//15
f 60//6 59//6 49//6
f 55//40 63//40 60//40
f 64//1 55//1 56//1
f 65//39 61//39 57//39
f 61//1 66//1 51//1
f 67//6 57//6 58//6
f 53//18 62//18 58//18
f 66//1 62//1 51//1
f 56//21 59//21 64//21
f 68//6 59//6 60//6
f 69//40 60//40 63//40
f 63//1 55//1 70//1
f 70//1 55//1 64//1
f 61//42 65//42 71//42
f 65//6 57//6 72//6
f 73//1 66//1 61//1
f 72//6 57//6 67//6
f 67//18 58//18 62//18
f 62//25 66//25 67//25
f 68//21 64//21 59//21
f 74//6 68//6 60//6
f 69//6 74//6 60//6
f 63//41 75//41 69//41
f 76//1 63//1 70//1
f 64//27 68//27 70//27
f 77//42 71//42 65//42
f 71//1 73//1 61//1
f 78//6 65//6 72//6
f 66//31 73//31 72//31
f 72//25 67//25 66//25
f 74//27 70//27 68//27
f 79//6 74//6 69//6
f 80//41 69//41 75//41
f 75//1 63//1 76//1
f 70//32 74//32 76//32
f 71//37 77//37 81//37
f 77//6 65//6 78//6
f 82//1 73//1 71//1
f 78//31 72//31 73//31
f 79//32 76//32 74//32
f 80//6 79//6 69//6
f 75//35 83//35 80//35
f 84//1 75//1 76//1
f 85//37 81//37 77//37
f 81//1 86//1 71//1
f 87//6 77//6 78//6
f 73//35 82//35 78//35
f 86//1 82//1 71//1
f 76//37 79//37 84//37
f 88//6 79//6 80//6
f 89//35 80//35 83//35
f 83//1 75//1 84//1
f 81//32 85//32 90//32
f 85//6 77//6 87//6
f 91//1 86//1 81//1
f 87//35 78//35 82//35
f 82//41 86//41 87//41
f 88//37 84//37 79//37
f 92//6 88//6 80//6
f 89//6 92//6 80//6
f 83//31 93//31 89//31
f 94//1 83//1 84//1
f 95//32 90//32 85//32
f 90//1 91//1 81//1
f 96//6 85//6 87//6
f 86//40 91//40 96//40
f 96//41 87//41 86//41
f 84//42 88//42 94//42
f 92//42 94//42 88//42
f 97//6 92//6 89//6
f 98//31 89//31 93//31
f 93//1 83//1 99//1
f 99//1 83//1 94//1
f 90//27 95//27 100//27
f 95//6 85//6 101//6
f 102//1 91//1 90//1
f 101//6 85//6 96//6
f 101//40 96//40 91//40
f 94//39 92//39 99//39
f 97//39 99//39 92//39
f 98//6 97//6 89//6
f 93//25 103//25 98//25
f 104//1 93//1 99//1
f 105//27 100//27 95//27
f 100//1 102//1 90//1
f 106//6 95//6 101//6
f 91//38 102//38 101//38
f 99//36 97//36 104//36
f 107//6 97//6 98//6
f 108//25 98//25 103//25
f 103//1 93//1 104//1
f 100//21 105//21 109//21
f 105//6 95//6 106//6
f 110//1 102//1 100//1
f 106//38 101//38 102//38
f 107//36 104//36 97//36
f 108//6 107//6 98//6
f 103//18 111//18 108//18
f 112//1 103//1 104//1
f 113//21 109//21 105//21
f 109//1 114//1 100//1
f 115//6 105//6 106//6
f 102//34 110//34 106//34
f 114//1 110//1 100//1
f 104//33 107//33 112//33
f 116//6 107//6 108//6
f 117//18 108//18 111//18
f 111//1 103//1 118//1
f 118//1 103//1 112//1
f 109//15 113//15 119//15
f 113//6 105//6 120//6
f 121//1 114//1 109//1
f 120//6 105//6 115//6
f 115//34 106//34 110//34
f 110//30 114//30 115//30
f 116//33 112//33 107//33
f 122//6 116//6 108//6
f 117//6 122//6 108//6
f 111//13 123//13 117//13
f 124//1 111//1 118//1
f 112//29 116//29 118//29
f 125//15 119//15 113//15
f 119//1 121//1 109//1
f 126//6 113//6 120//6
f 121//28 126//28 114//28
f 120//30 115//30 114//30
f 122//29 118//29 116//29
f 127//6 122//6 117//6
f 128//13 117//13 123//13
f 123//1 111//1 124//1
f 124//26 118//26 127//26
f 125//12 129//12 119//12
f 125//6 113//6 126//6
f 130//1 121//1 119//1
f 120//28 114//28 126//28
f 126//24 121//24 131//24
f 122//26 127//26 118//26
f 128//6 127//6 117//6
f 128//11 123//11 132//11
f 133//1 123//1 124//1
f 127//22 134//22 124//22
f 135//12 119//12 129//12
f 129//6 125//6 136//6
f 131//6 125//6 126//6
f 130//24 131//24 121//24
f 137//1 130//1 119//1
f 134//6 127//6 128//6
f 138//11 132//11 123//11
f 132//6 139//6 128//6
f 140//1 123//1 133//1
f 133//22 124//22 134//22
f 135//1 137//1 119//1
f 129//10 141//10 135//10
f 136//6 125//6 131//6
f 142//6 129//6 136//6
f 131//23 130//23 136//23
f 137//23 136//23 130//23
f 139//6 134//6 128//6
f 132//9 138//9 143//9
f 138//1 123//1 140//1
f 144//6 139//6 132//6
f 140//19 133//19 139//19
f 134//19 139//19 133//19
f 145//1 137//1 135//1
f 146//10 135//10 141//10
f 141//6 129//6 132//6
f 147//6 129//6 142//6
f 136//20 137//20 142//20
f 148//9 143//9 138//9
f 143//6 141//6 132//6
f 149//1 138//1 140//1
f 139//16 144//16 140//16
f 147//6 144//6 132//6
f 145//20 142//20 137//20
f 150//1 145//1 135//1
f 146//1 148//1 135//1
f 141//8 151//8 146//8
f 129//6 147//6 132//6
f 142//17 145//17 147//17
f 143//7 148//7 152//7
f 148//1 138//1 135//1
f 151//6 141//6 143//6
f 150//1 138//1 149//1
f 149//16 140//16 144//16
f 147//14 150//14 144//14
f 150//17 147//17 145//17
f 138//1 150//1 135//1
f 153//1 148//1 146//1
f 154//8 146//8 151//8
f 153//7 152//7 148//7
f 152//6 151//6 143//6
f 149//14 144//14 150//14
f 154//1 153//1 146//1
f 151//5 155//5 154//5
f 152//4 153//4 156//4
f 155//6 151//6 152//6
f 157//1 153//1 154//1
f 157//5 154//5 155//5
f 158//4 156//4 153//4
f 156//6 155//6 152//6
f 158//1 153//1 157//1
f 155//2 159//2 157//2
f 156//3 158//3 159//3
f 159//6 155//6 156//6
f 160//1 158//1 157//1
f 160//2 157//2 159//2
f 160//3 159//3 158//3
