# SSTK version 0.8.0
# 11
mtllib original-11.mtl
o mesh17/mesh17-geometry#mesh17-geometry
v 0.371208 0.258690 0.607083
v 0.369070 0.255905 0.522476
v 0.369070 0.255905 0.607083
v 0.371208 0.258690 0.522476
v 0.367727 0.252661 0.522476
v 0.371208 0.239670 0.607083
v 0.373993 0.260828 0.522476
v 0.374586 0.272063 0.522476
v 0.367727 0.252661 0.607083
v 0.368873 0.269696 0.522476
v 0.369070 0.242455 0.607083
v 0.373993 0.260828 0.607083
v 0.367268 0.249180 0.522476
v 0.371208 0.239670 0.522476
v 0.373993 0.237532 0.607083
v 0.377237 0.262171 0.522476
v 0.374586 0.272063 0.515707
v 0.367268 0.249180 0.607083
v 0.367727 0.245699 0.607083
v 0.363967 0.265931 0.522476
v 0.369070 0.242455 0.522476
v 0.377237 0.236189 0.607083
v 0.377237 0.262171 0.607083
v 0.380718 0.272870 0.522476
v 0.368873 0.269696 0.515707
v 0.380718 0.272870 0.515707
v 0.367727 0.245699 0.522476
v 0.368873 0.228664 0.522476
v 0.374586 0.226297 0.522476
v 0.373993 0.237532 0.522476
v 0.380718 0.262630 0.522476
v 0.363967 0.265931 0.515707
v 0.363967 0.232429 0.522476
v 0.377237 0.236189 0.522476
v 0.380718 0.262630 0.607083
v 0.380718 0.262630 0.583393
v 0.384199 0.262171 0.522476
v 0.386849 0.272063 0.515707
v 0.360202 0.261025 0.515707
v 0.360202 0.261025 0.522476
v 0.363967 0.232429 0.515707
v 0.368873 0.228664 0.515707
v 0.380718 0.235731 0.583393
v 0.380718 0.235731 0.607083
v 0.386849 0.272063 0.522476
v 0.360202 0.237335 0.522476
v 0.374586 0.226297 0.515707
v 0.380718 0.225490 0.522476
v 0.380718 0.235731 0.522476
v 0.384199 0.236189 0.607083
v 0.384199 0.262171 0.607083
v 0.387443 0.260828 0.522476
v 0.392563 0.269696 0.515707
v 0.357835 0.255311 0.515707
v 0.357835 0.255311 0.522476
v 0.360202 0.237335 0.515707
v 0.392563 0.269696 0.522476
v 0.357835 0.243049 0.522476
v 0.380718 0.225490 0.515707
v 0.386849 0.226297 0.522476
v 0.384199 0.236189 0.522476
v 0.387443 0.237532 0.607083
v 0.387443 0.260828 0.607083
v 0.390228 0.258690 0.522476
v 0.397469 0.265931 0.515707
v 0.357028 0.249180 0.515707
v 0.357028 0.249180 0.522476
v 0.357835 0.243049 0.515707
v 0.392365 0.255905 0.522476
v 0.397469 0.265931 0.522476
v 0.386849 0.226297 0.515707
v 0.387443 0.237532 0.522476
v 0.390228 0.239670 0.607083
v 0.390228 0.258690 0.607083
v 0.392365 0.255905 0.607083
v 0.393709 0.252661 0.522476
v 0.401234 0.261025 0.522476
v 0.392563 0.228664 0.522476
v 0.393709 0.252661 0.607083
v 0.394167 0.249180 0.522476
v 0.401234 0.261025 0.515707
v 0.401234 0.237335 0.522476
v 0.392563 0.228664 0.515707
v 0.390228 0.239670 0.522476
v 0.393709 0.245699 0.607083
v 0.394167 0.249180 0.607083
v 0.397469 0.232429 0.522476
v 0.403601 0.255311 0.522476
v 0.403601 0.243049 0.522476
v 0.392365 0.242455 0.522476
v 0.392365 0.242455 0.607083
v 0.393709 0.245699 0.522476
v 0.403601 0.255311 0.515707
v 0.401234 0.237335 0.515707
v 0.403601 0.243049 0.515707
v 0.397469 0.232429 0.515707
v 0.404408 0.249180 0.522476
v 0.404408 0.249180 0.515707
vt -0.104723 0.019685
vt -0.103966 0.001458
vt -0.103966 0.019685
vt -0.104723 0.001458
vt -0.119468 0.001458
vt -0.120225 0.019685
vt -0.120225 0.001458
vt 0.002594 0.129056
vt 0.003055 0.125558
vt 0.003055 0.129656
vt -0.081353 0.019685
vt -0.082109 0.001458
vt -0.081353 0.001458
vt 0.003783 0.132537
vt -0.119468 0.019685
vt 0.002552 0.132027
vt 0.002305 0.128357
vt 0.002594 0.126158
vt 0.003655 0.130116
vt -0.082109 0.019685
vt -0.126803 0.001458
vt -0.12756 0.019685
vt -0.12756 0.001458
vt 0.002206 0.127607
vt -0.098509 0.019685
vt -0.097752 0.001458
vt -0.097752 0.019685
vt 0.003655 0.125098
vt -0.05317 0.019685
vt -0.053926 0.001458
vt -0.05317 0.001458
vt 0.004354 0.130406
vt -0.054214 0
vt -0.052882 0.001458
vt -0.054214 0.001458
vt -0.126803 0.019685
vt 0.002305 0.126857
vt 0.001495 0.131216
vt -0.098509 0.001458
vt -0.074012 0.001458
vt -0.073255 0.019685
vt -0.074012 0.019685
vt 0.004354 0.124808
vt -0.053926 0.019685
vt 0.005104 0.132711
vt -0.052882 0
vt -0.02105 0.001458
vt -0.022382 0
vt -0.02105 0
vt -0.125471 0.001458
vt -0.126227 0.019685
vt -0.126227 0.001458
vt -0.116319 0.019685
vt -0.115562 0.001458
vt -0.115562 0.019685
vt -0.082397 0
vt -0.081065 0.001458
vt -0.082397 0.001458
vt 0.002552 0.123187
vt 0.003783 0.122677
vt -0.073255 0.001458
vt -0.044496 0.001458
vt -0.04374 0.019685
vt -0.044496 0.019685
vt -0.021338 0.019685
vt -0.022094 0.001458
vt -0.021338 0.001458
vt 0.005104 0.130505
vt -0.022382 0.001458
vt -0.125471 0.019685
vt -0.116319 0.001458
vt -0.081065 0
vt 0.001495 0.123998
vt -0.04374 0.001458
vt -0.022094 0.014582
vt 0.005853 0.130406
vt 0.012262 0.001458
vt 0.01093 0
vt 0.012262 0
vt -0.103678 0
vt -0.10501 0.001458
vt -0.10501 0
vt 0.000684 0.130159
vt -0.0743 0
vt -0.072967 0.001458
vt -0.0743 0.001458
vt -0.044784 0
vt -0.043452 0.001458
vt -0.044784 0.001458
vt -0.011974 0.001458
vt -0.011218 0.014582
vt -0.011974 0.019685
vt 0.005104 0.12471
vt -0.022094 0.019685
vt 0.011974 0.014582
vt 0.011218 0.001458
vt 0.011974 0.001458
vt 0.006424 0.132537
vt 0.01093 0.001458
vt -0.103678 0.001458
vt 0.000684 0.125055
vt -0.072967 0
vt -0.098797 0.001458
vt -0.097465 0
vt -0.097465 0.001458
vt -0.043452 0
vt 0.005104 0.122504
vt -0.011218 0.001458
vt -0.011218 0.019685
vt 0.005853 0.124808
vt 0.011218 0.019685
vt 0.011974 0.019685
vt 0.006552 0.130116
vt 0.044784 0.001458
vt 0.043452 0
vt 0.044784 0
vt -0.11918 0
vt -0.120513 0.001458
vt -0.120513 0
vt 0.000174 0.128928
vt -0.098797 0
vt -0.012262 0
vt -0.01093 0.001458
vt -0.012262 0.001458
vt 0.021338 0.001458
vt 0.022094 0.019685
vt 0.021338 0.014582
vt 0.021338 0.019685
vt 0.044496 0.019685
vt 0.04374 0.001458
vt 0.044496 0.001458
vt 0.007655 0.132027
vt 0.043452 0.001458
vt -0.11918 0.001458
vt 0.000174 0.126286
vt -0.116607 0.001458
vt -0.115274 0
vt -0.115274 0.001458
vt -0.01093 0
vt 0.006424 0.122677
vt 0.022094 0.001458
vt 0.006552 0.125098
vt 0.04374 0.019685
vt 0.007152 0.129656
vt 0.0743 0.001458
vt 0.072967 0
vt 0.0743 0
vt -0.126515 0
vt -0.127848 0.001458
vt -0.127848 0
vt 0 0.127607
vt -0.116607 0
vt 0.02105 0
vt 0.022382 0.001458
vt 0.02105 0.001458
vt 0.05317 0.001458
vt 0.053926 0.019685
vt 0.05317 0.019685
vt 0.074012 0.019685
vt 0.073255 0.001458
vt 0.074012 0.001458
vt 0.007613 0.129056
vt 0.072967 0.001458
vt -0.126515 0.001458
vt -0.125183 0
vt -0.125183 0.001458
vt 0.022382 0
vt 0.053926 0.001458
vt 0.007152 0.125558
vt 0.073255 0.019685
vt 0.098509 0.001458
vt 0.097752 0.019685
vt 0.097752 0.001458
vt 0.007902 0.128357
vt 0.008712 0.131216
vt 0.097465 0.001458
vt 0.098797 0
vt 0.098797 0.001458
vt 0.052882 0
vt 0.054214 0.001458
vt 0.052882 0.001458
vt 0.007655 0.123187
vt 0.081353 0.001458
vt 0.082109 0.019685
vt 0.081353 0.019685
vt 0.098509 0.019685
vt 0.115562 0.019685
vt 0.116319 0.001458
vt 0.116319 0.019685
vt 0.115562 0.001458
vt 0.008001 0.127607
vt 0.097465 0
vt 0.009523 0.125055
vt 0.009523 0.130159
vt 0.054214 0
vt 0.082109 0.001458
vt 0.007902 0.126857
vt 0.125471 0.019685
vt 0.126227 0.001458
vt 0.126227 0.019685
vt 0.125471 0.001458
vt 0.008712 0.123998
vt 0.115274 0.001458
vt 0.116607 0
vt 0.116607 0.001458
vt 0.010033 0.126286
vt 0.081065 0
vt 0.082397 0.001458
vt 0.081065 0.001458
vt 0.007613 0.126158
vt 0.104723 0.001458
vt 0.103966 0.019685
vt 0.103966 0.001458
vt 0.126803 0.019685
vt 0.12756 0.001458
vt 0.12756 0.019685
vt 0.115274 0
vt 0.010033 0.128928
vt 0.103678 0.001458
vt 0.10501 0
vt 0.10501 0.001458
vt 0.11918 0.001458
vt 0.120513 0
vt 0.120513 0.001458
vt 0.082397 0
vt 0.104723 0.019685
vt 0.119468 0.019685
vt 0.120225 0.001458
vt 0.120225 0.019685
vt 0.126803 0.001458
vt 0.125183 0.001458
vt 0.126515 0
vt 0.126515 0.001458
vt 0.010207 0.127607
vt 0.103678 0
vt 0.11918 0
vt 0.127848 0
vt 0.119468 0.001458
vt 0.125183 0
vt 0.127848 0.001458
vn -0.7071067811865476 0.7071067811865476 0
vn -0.8660253028382762 0.5000001748438417 0
vn -0.965925849201117 0.2588189595935754 0
vn 0 0 1
vn -0.5000001748438417 0.8660253028382762 0
vn -1 0 0
vn -0.8660253028382762 -0.5000001748438417 0
vn -0.7071067811865476 -0.7071067811865476 0
vn -0.2588189595935754 0.965925849201117 0
vn -0.5000001748438417 -0.8660253028382762 0
vn 0 1 0
vn -0.965925849201117 -0.2588189595935754 0
vn -0.2588189595935754 -0.965925849201117 0
vn 0.2588189595935754 0.965925849201117 0
vn 0 -1 0
vn 0.5000001748438417 0.8660253028382762 0
vn 0.2588189595935754 -0.965925849201117 0
vn 0.7071067811865476 0.7071067811865476 0
vn 0.5000001748438417 -0.8660253028382762 0
vn 0.8660253028382762 0.5000001748438417 0
vn 0.7071067811865476 -0.7071067811865476 0
vn 0.965925849201117 0.2588189595935754 0
vn 1 0 0
vn 0.8660253028382762 -0.5000001748438417 0
vn 0.965925849201117 -0.2588189595935754 0
vn 0 0 -1
usemtl material_0_0
f 1/1/1 2/2/2 3/3/2
f 2/2/2 1/1/1 4/4/1
f 5/5/3 3/6/2 2/7/2
f 3/8/4 6/9/4 1/10/4
f 1/11/1 7/12/5 4/13/1
f 8/14/4 2/8/4 4/10/4
f 3/6/2 5/5/3 9/15/3
f 10/16/4 5/17/4 2/8/4
f 3/8/4 11/18/4 6/9/4
f 1/10/4 6/9/4 12/19/4
f 7/12/5 1/11/1 12/20/5
f 8/14/4 4/10/4 7/19/4
f 10/16/4 2/8/4 8/14/4
f 13/21/6 9/22/3 5/23/3
f 9/17/4 11/18/4 3/8/4
f 10/16/4 13/24/4 5/17/4
f 11/25/7 14/26/8 6/27/8
f 12/19/4 6/9/4 15/28/4
f 12/29/5 16/30/9 7/31/5
f 8/14/4 7/19/4 16/32/4
f 17/33/9 10/34/5 8/35/9
f 9/22/3 13/21/6 18/36/6
f 9/17/4 19/37/4 11/18/4
f 13/24/4 10/16/4 20/38/4
f 14/26/8 11/25/7 21/39/7
f 14/40/8 15/41/10 6/42/8
f 12/19/4 15/28/4 22/43/4
f 16/30/9 12/29/5 23/44/9
f 8/14/4 16/32/4 24/45/4
f 10/34/5 17/33/9 25/46/5
f 8/47/9 26/48/11 17/49/9
f 27/50/12 18/51/6 13/52/6
f 19/37/4 9/17/4 18/24/4
f 19/53/12 21/54/7 11/55/7
f 25/56/5 20/57/1 10/58/5
f 20/38/4 28/59/4 13/24/4
f 21/18/4 29/60/4 14/9/4
f 15/41/10 14/40/8 30/61/10
f 30/62/10 22/63/13 15/64/10
f 12/19/4 22/43/4 23/32/4
f 23/65/9 31/66/11 16/67/9
f 24/45/4 16/32/4 31/68/4
f 26/48/11 8/47/9 24/69/11
f 18/51/6 27/50/12 19/70/12
f 13/24/4 28/59/4 27/37/4
f 21/54/7 19/53/12 27/71/12
f 20/57/1 25/56/5 32/72/1
f 20/38/4 33/73/4 28/59/4
f 21/18/4 28/59/4 29/60/4
f 14/9/4 29/60/4 30/28/4
f 22/63/13 30/62/10 34/74/13
f 23/32/4 22/43/4 35/68/4
f 31/66/11 23/65/9 36/75/11
f 24/45/4 31/68/4 37/76/4
f 24/77/11 38/78/14 26/79/11
f 27/37/4 28/59/4 21/18/4
f 39/80/2 20/81/1 32/82/1
f 40/83/4 33/73/4 20/38/4
f 41/84/8 28/85/10 33/86/8
f 42/87/10 29/88/13 28/89/10
f 30/28/4 29/60/4 34/43/4
f 34/90/13 43/91/15 22/92/13
f 35/68/4 22/43/4 44/93/4
f 36/75/11 23/65/9 35/94/11
f 36/95/11 37/96/14 31/97/11
f 24/45/4 37/76/4 45/98/4
f 38/78/14 24/77/11 45/99/14
f 20/81/1 39/80/2 40/100/2
f 40/83/4 46/101/4 33/73/4
f 28/85/10 41/84/8 42/102/10
f 46/103/7 41/104/8 33/105/8
f 29/88/13 42/87/10 47/106/13
f 34/43/4 29/60/4 48/107/4
f 43/91/15 34/90/13 49/108/15
f 22/92/13 43/91/15 44/109/15
f 35/68/4 44/93/4 50/110/4
f 51/111/14 36/95/11 35/112/11
f 37/96/14 36/95/11 51/111/14
f 45/98/4 37/76/4 52/113/4
f 45/114/14 53/115/16 38/116/14
f 54/117/3 40/118/2 39/119/2
f 55/120/4 46/101/4 40/83/4
f 41/104/8 46/103/7 56/121/7
f 47/122/13 48/123/15 29/124/13
f 34/43/4 48/107/4 49/93/4
f 49/125/15 50/126/17 43/127/15
f 43/127/15 50/126/17 44/128/15
f 35/68/4 50/110/4 51/76/4
f 51/129/14 52/130/16 37/131/14
f 45/98/4 52/113/4 57/132/4
f 53/115/16 45/114/14 57/133/16
f 40/118/2 54/117/3 55/134/3
f 55/120/4 58/135/4 46/101/4
f 58/136/12 56/137/7 46/138/7
f 48/123/15 47/122/13 59/139/15
f 49/93/4 48/107/4 60/140/4
f 50/126/17 49/125/15 61/141/17
f 51/76/4 50/110/4 62/142/4
f 52/130/16 51/129/14 63/143/16
f 57/132/4 52/113/4 64/144/4
f 57/145/16 65/146/18 53/147/16
f 66/148/6 55/149/3 54/150/3
f 58/135/4 55/120/4 67/151/4
f 56/137/7 58/136/12 68/152/12
f 59/153/15 60/154/17 48/155/15
f 49/93/4 60/140/4 61/110/4
f 61/156/17 62/157/19 50/158/17
f 51/76/4 62/142/4 63/113/4
f 63/159/16 64/160/18 52/161/16
f 57/132/4 64/144/4 69/162/4
f 65/146/18 57/145/16 70/163/18
f 55/149/3 66/148/6 67/164/6
f 67/164/6 68/165/12 58/166/12
f 60/154/17 59/153/15 71/167/17
f 61/110/4 60/140/4 72/142/4
f 62/157/19 61/156/17 72/168/19
f 63/113/4 62/142/4 73/169/4
f 64/160/18 63/159/16 74/170/18
f 64/171/18 75/172/20 69/173/20
f 57/132/4 69/162/4 76/174/4
f 57/132/4 76/174/4 70/175/4
f 77/176/20 65/177/18 70/178/18
f 68/165/12 67/164/6 66/148/6
f 71/179/17 78/180/19 60/181/17
f 72/142/4 60/140/4 78/182/4
f 72/183/19 73/184/21 62/185/19
f 63/113/4 73/169/4 74/144/4
f 75/172/20 64/171/18 74/186/18
f 79/187/22 69/188/20 75/189/20
f 69/188/20 79/187/22 76/190/22
f 70/175/4 76/174/4 80/191/4
f 65/177/18 77/176/20 81/192/20
f 70/175/4 82/193/4 77/194/4
f 78/180/19 71/179/17 83/195/19
f 72/142/4 78/182/4 84/169/4
f 73/184/21 72/183/19 84/196/21
f 74/144/4 73/169/4 75/162/4
f 75/162/4 85/197/4 79/174/4
f 86/198/23 76/199/22 79/200/22
f 76/199/22 86/198/23 80/201/23
f 70/175/4 80/191/4 87/202/4
f 88/203/22 81/204/20 77/205/20
f 70/175/4 87/202/4 82/193/4
f 77/194/4 82/193/4 89/206/4
f 83/207/19 87/208/21 78/209/19
f 84/169/4 78/182/4 90/210/4
f 90/211/24 73/212/21 84/213/21
f 75/162/4 73/169/4 91/210/4
f 75/162/4 91/210/4 85/197/4
f 79/174/4 85/197/4 86/191/4
f 85/214/25 80/215/23 86/216/23
f 92/197/4 87/202/4 80/191/4
f 81/204/20 88/203/22 93/217/22
f 77/194/4 89/206/4 88/218/4
f 87/219/21 94/220/24 82/221/24
f 82/222/24 95/223/25 89/224/25
f 87/208/21 83/207/19 96/225/21
f 92/197/4 78/182/4 87/202/4
f 90/210/4 78/182/4 92/197/4
f 73/212/21 90/211/24 91/226/24
f 91/227/24 92/228/25 85/229/25
f 80/215/23 85/214/25 92/230/25
f 97/231/23 93/232/22 88/233/22
f 88/218/4 89/206/4 97/234/4
f 94/220/24 87/219/21 96/235/21
f 95/223/25 82/222/24 94/236/24
f 98/237/23 89/233/25 95/232/25
f 92/228/25 91/227/24 90/238/24
f 93/232/22 97/231/23 98/239/23
f 89/233/25 98/237/23 97/240/23
usemtl material_1_0
f 3//24 2//24 1//21
f 4//21 1//21 2//24
f 2//24 3//24 5//25
f 1//26 6//26 3//26
f 4//21 7//19 1//21
f 4//26 2//26 8//26
f 9//25 5//25 3//24
f 2//26 5//26 10//26
f 6//26 11//26 3//26
f 12//26 6//26 1//26
f 12//19 1//21 7//19
f 7//26 4//26 8//26
f 8//26 2//26 10//26
f 5//25 9//25 13//23
f 3//26 11//26 9//26
f 5//26 13//26 10//26
f 6//18 14//18 11//20
f 15//26 6//26 12//26
f 7//19 16//17 12//19
f 16//26 7//26 8//26
f 8//17 10//19 17//17
f 18//23 13//23 9//25
f 11//26 19//26 9//26
f 20//26 10//26 13//26
f 21//20 11//20 14//18
f 6//18 15//16 14//18
f 22//26 15//26 12//26
f 23//17 12//19 16//17
f 24//26 16//26 8//26
f 25//19 17//17 10//19
f 17//17 26//15 8//17
f 13//23 18//23 27//22
f 18//26 9//26 19//26
f 11//20 21//20 19//22
f 10//19 20//21 25//19
f 13//26 28//26 20//26
f 14//26 29//26 21//26
f 30//16 14//18 15//16
f 15//16 22//14 30//16
f 23//26 22//26 12//26
f 16//17 31//15 23//17
f 31//26 16//26 24//26
f 24//15 8//17 26//15
f 19//22 27//22 18//23
f 27//26 28//26 13//26
f 27//22 19//22 21//20
f 32//21 25//19 20//21
f 28//26 33//26 20//26
f 29//26 28//26 21//26
f 30//26 29//26 14//26
f 34//14 30//16 22//14
f 35//26 22//26 23//26
f 36//15 23//17 31//15
f 37//26 31//26 24//26
f 26//15 38//13 24//15
f 21//26 28//26 27//26
f 32//21 20//21 39//24
f 20//26 33//26 40//26
f 33//18 28//16 41//18
f 28//16 29//14 42//16
f 34//26 29//26 30//26
f 22//14 43//11 34//14
f 44//26 22//26 35//26
f 35//15 23//17 36//15
f 31//15 37//13 36//15
f 45//26 37//26 24//26
f 45//13 24//15 38//13
f 40//24 39//24 20//21
f 33//26 46//26 40//26
f 42//16 41//18 28//16
f 33//18 41//18 46//20
f 47//14 42//16 29//14
f 48//26 29//26 34//26
f 49//11 34//14 43//11
f 44//11 43//11 22//14
f 50//26 44//26 35//26
f 35//15 36//15 51//13
f 51//13 36//15 37//13
f 52//26 37//26 45//26
f 38//13 53//10 45//13
f 39//24 40//24 54//25
f 40//26 46//26 55//26
f 56//20 46//20 41//18
f 29//14 48//11 47//14
f 49//26 48//26 34//26
f 43//11 50//9 49//11
f 44//11 50//9 43//11
f 51//26 50//26 35//26
f 37//13 52//10 51//13
f 57//26 52//26 45//26
f 57//10 45//13 53//10
f 55//25 54//25 40//24
f 46//26 58//26 55//26
f 46//20 56//20 58//22
f 59//11 47//14 48//11
f 60//26 48//26 49//26
f 61//9 49//11 50//9
f 62//26 50//26 51//26
f 63//10 51//13 52//10
f 64//26 52//26 57//26
f 53//10 65//8 57//10
f 54//25 55//25 66//23
f 67//26 55//26 58//26
f 68//22 58//22 56//20
f 48//11 60//9 59//11
f 61//26 60//26 49//26
f 50//9 62//5 61//9
f 63//26 62//26 51//26
f 52//10 64//8 63//10
f 69//26 64//26 57//26
f 70//8 57//10 65//8
f 67//23 66//23 55//25
f 58//22 68//22 67//23
f 71//9 59//11 60//9
f 72//26 60//26 61//26
f 72//5 61//9 62//5
f 73//26 62//26 63//26
f 74//8 63//10 64//8
f 69//7 75//7 64//8
f 76//26 69//26 57//26
f 70//26 76//26 57//26
f 70//8 65//8 77//7
f 66//23 67//23 68//22
f 60//9 78//5 71//9
f 78//26 60//26 72//26
f 62//5 73//1 72//5
f 74//26 73//26 63//26
f 74//8 64//8 75//7
f 75//7 69//7 79//12
f 76//12 79//12 69//7
f 80//26 76//26 70//26
f 81//7 77//7 65//8
f 77//26 82//26 70//26
f 83//5 71//9 78//5
f 84//26 78//26 72//26
f 84//1 72//5 73//1
f 75//26 73//26 74//26
f 79//26 85//26 75//26
f 79//12 76//12 86//6
f 80//6 86//6 76//12
f 87//26 80//26 70//26
f 77//7 81//7 88//12
f 82//26 87//26 70//26
f 89//26 82//26 77//26
f 78//5 87//1 83//5
f 90//26 78//26 84//26
f 84//1 73//1 90//2
f 91//26 73//26 75//26
f 85//26 91//26 75//26
f 86//26 85//26 79//26
f 86//6 80//6 85//3
f 80//26 87//26 92//26
f 93//12 88//12 81//7
f 88//26 89//26 77//26
f 82//2 94//2 87//1
f 89//3 95//3 82//2
f 96//1 83//5 87//1
f 87//26 78//26 92//26
f 92//26 78//26 90//26
f 91//2 90//2 73//1
f 85//3 92//3 91//2
f 92//3 85//3 80//6
f 88//12 93//12 97//6
f 97//26 89//26 88//26
f 96//1 87//1 94//2
f 94//2 82//2 95//3
f 95//3 89//3 98//6
f 90//2 91//2 92//3
f 98//6 97//6 93//12
f 97//6 98//6 89//3
