mtllib new-0.mtl
v 0.018461 0.927586 -0.056996
v -0.004803 0.940955 -0.064315
v 0.017902 0.940955 -0.054911
v 0.004273 0.927586 -0.058864
v 0.031682 0.927586 -0.051520
v -0.005460 0.954395 -0.062728
v 0.017454 0.954395 -0.053237
v 0.004273 0.940955 -0.056705
v 0.030602 0.940955 -0.049650
v -0.009915 0.927586 -0.056996
v 0.043035 0.927586 -0.042808
v -0.005955 0.967891 -0.061534
v 0.017116 0.967891 -0.051978
v 0.004273 0.954395 -0.054972
v 0.029736 0.954395 -0.048150
v -0.009356 0.940955 -0.054911
v 0.041508 0.940955 -0.041282
v -0.023136 0.927586 -0.051520
v 0.051746 0.927586 -0.031455
v -0.034489 0.927586 -0.042808
v 0.004273 0.967891 -0.053668
v 0.029084 0.967891 -0.047020
v -0.008908 0.954395 -0.053237
v 0.040283 0.954395 -0.040056
v -0.022056 0.940955 -0.049650
v 0.049877 0.940955 -0.030376
v -0.032962 0.940955 -0.041282
v 0.057223 0.927586 -0.018234
v -0.041331 0.940955 -0.030376
v -0.008570 0.967891 -0.051978
v 0.039361 0.967891 -0.039134
v -0.021190 0.954395 -0.048150
v 0.048376 0.954395 -0.029509
v -0.031737 0.954395 -0.040056
v 0.055137 0.940955 -0.017675
v -0.039830 0.954395 -0.029509
v 0.059091 0.927586 -0.004046
v -0.046592 0.940955 -0.017675
v -0.044918 0.954395 -0.017227
v -0.020538 0.967891 -0.047020
v 0.047247 0.967891 -0.028857
v -0.030815 0.967891 -0.039134
v 0.053464 0.954395 -0.017227
v -0.038701 0.967891 -0.028857
v 0.056932 0.940955 -0.004046
v -0.043658 0.967891 -0.016889
v -0.045349 0.967891 -0.004046
v -0.048386 0.940955 -0.004046
v -0.046653 0.954395 -0.004046
v -0.043658 0.967891 0.008797
v 0.052204 0.967891 -0.016889
v 0.055199 0.954395 -0.004046
v 0.055137 0.940955 0.009583
v 0.051746 0.927586 0.023363
v -0.046592 0.940955 0.009583
v -0.044918 0.954395 0.009134
v -0.038701 0.967891 0.020765
v 0.053895 0.967891 -0.004046
v 0.053464 0.954395 0.009134
v 0.049877 0.940955 0.022283
v 0.043035 0.927586 0.034716
v -0.043201 0.927586 0.023363
v -0.041331 0.940955 0.022283
v -0.039830 0.954395 0.021417
v 0.031682 0.927586 0.043427
v -0.030815 0.967891 0.031042
v 0.052204 0.967891 0.008797
v 0.048376 0.954395 0.021417
v 0.041508 0.940955 0.033189
v 0.030602 0.940955 0.041558
v -0.034489 0.927586 0.034716
v -0.032962 0.940955 0.033189
v -0.031737 0.954395 0.031964
v 0.017902 0.940955 0.046818
v -0.020538 0.967891 0.038928
v 0.047247 0.967891 0.020765
v 0.040283 0.954395 0.031964
v 0.029736 0.954395 0.040057
v 0.017454 0.954395 0.045145
v -0.023136 0.927586 0.043427
v -0.022056 0.940955 0.041558
v -0.021190 0.954395 0.040057
v 0.004273 0.927586 0.050771
v 0.004273 0.940955 0.048613
v 0.004273 0.954395 0.046880
v -0.008570 0.967891 0.043885
v 0.039361 0.967891 0.031042
v 0.029084 0.967891 0.038928
v 0.017116 0.967891 0.043885
v 0.004273 0.967891 0.045576
v -0.009356 0.940955 0.046818
v -0.008908 0.954395 0.045145
vn 0.296274 0.175014 -0.938931
vn -0.296274 -0.175014 0.938931
vn 0.378781 0.142450 -0.914458
vn -0.378781 -0.142450 0.914458
vn 0.297803 0.143519 -0.943777
vn -0.297803 -0.143519 0.943777
vn -0.000000 0.175178 -0.984537
vn 0.000000 -0.175178 0.984537
vn 0.492268 0.175178 -0.852634
vn -0.492268 -0.175178 0.852634
vn 0.380315 0.111080 -0.918162
vn -0.380315 -0.111080 0.918162
vn 0.299027 0.111921 -0.947658
vn -0.299027 -0.111921 0.947658
vn 0.000000 0.143654 -0.989628
vn -0.000000 -0.143654 0.989628
vn 0.494814 0.143654 -0.857043
vn -0.494814 -0.143654 0.857043
vn -0.254817 0.175178 -0.950989
vn 0.254817 -0.175178 0.950989
vn 0.696173 0.175178 -0.696173
vn -0.696173 -0.175178 0.696173
vn -0.018268 0.998860 0.044102
vn 0.018268 -0.998860 -0.044102
vn -0.014256 0.998877 0.045178
vn 0.014256 -0.998877 -0.045178
vn 0.000000 0.112027 -0.993705
vn -0.000000 -0.112027 0.993705
vn 0.496852 0.112027 -0.860574
vn -0.496852 -0.112027 0.860574
vn -0.256135 0.143654 -0.955907
vn 0.256135 -0.143654 0.955907
vn 0.699772 0.143654 -0.699773
vn -0.699772 -0.143654 0.699773
vn -0.492269 0.175178 -0.852634
vn 0.492269 -0.175178 0.852634
vn 0.852634 0.175178 -0.492269
vn -0.852634 -0.175178 0.492269
vn -0.696173 0.175178 -0.696173
vn 0.696173 -0.175178 0.696173
vn -0.000000 0.998879 0.047328
vn 0.000000 -0.998879 -0.047328
vn -0.023664 0.998879 0.040987
vn 0.023664 -0.998879 -0.040987
vn -0.257190 0.112027 -0.959845
vn 0.257190 -0.112027 0.959845
vn 0.702656 0.112027 -0.702655
vn -0.702656 -0.112027 0.702655
vn -0.494814 0.143654 -0.857043
vn 0.494814 -0.143654 0.857043
vn 0.857043 0.143654 -0.494814
vn -0.857043 -0.143654 0.494814
vn -0.699773 0.143654 -0.699772
vn 0.699773 -0.143654 0.699772
vn 0.950989 0.175178 -0.254817
vn -0.950989 -0.175178 0.254817
vn -0.857043 0.143654 -0.494814
vn 0.857043 -0.143654 0.494814
vn 0.012249 0.998879 0.045716
vn -0.012249 -0.998879 -0.045716
vn -0.033466 0.998879 0.033467
vn 0.033466 -0.998879 -0.033467
vn -0.496853 0.112027 -0.860574
vn 0.496853 -0.112027 0.860574
vn 0.860574 0.112027 -0.496853
vn -0.860574 -0.112027 0.496853
vn -0.702655 0.112027 -0.702656
vn 0.702655 -0.112027 0.702656
vn 0.955907 0.143654 -0.256135
vn -0.955907 -0.143654 0.256135
vn -0.860574 0.112027 -0.496852
vn 0.860574 -0.112027 0.496852
vn 0.984537 0.175178 -0.000000
vn -0.984537 -0.175178 0.000000
vn -0.955907 0.143654 -0.256134
vn 0.955907 -0.143654 0.256134
vn -0.959845 0.112027 -0.257190
vn 0.959845 -0.112027 0.257190
vn 0.023664 0.998879 0.040987
vn -0.023664 -0.998879 -0.040987
vn -0.040987 0.998879 0.023664
vn 0.040987 -0.998879 -0.023664
vn 0.033467 0.998879 0.033466
vn -0.033467 -0.998879 -0.033466
vn 0.959845 0.112027 -0.257190
vn -0.959845 -0.112027 0.257190
vn 0.040987 0.998879 0.023664
vn -0.040987 -0.998879 -0.023664
vn 0.989628 0.143654 0.000000
vn -0.989628 -0.143654 -0.000000
vn 0.045716 0.998879 0.012249
vn -0.045716 -0.998879 -0.012249
vn 0.047328 0.998879 0.000000
vn -0.047328 -0.998879 -0.000000
vn -0.989628 0.143654 -0.000000
vn 0.989628 -0.143654 0.000000
vn -0.993705 0.112027 -0.000000
vn 0.993705 -0.112027 0.000000
vn 0.045716 0.998879 -0.012249
vn -0.045716 -0.998879 0.012249
vn -0.045716 0.998879 0.012249
vn 0.045716 -0.998879 -0.012249
vn 0.993705 0.112027 0.000000
vn -0.993705 -0.112027 -0.000000
vn 0.955907 0.143654 0.256134
vn -0.955907 -0.143654 -0.256134
vn 0.852634 0.175178 0.492268
vn -0.852634 -0.175178 -0.492268
vn -0.955907 0.143654 0.256135
vn 0.955907 -0.143654 -0.256135
vn -0.959845 0.112027 0.257190
vn 0.959845 -0.112027 -0.257190
vn 0.040987 0.998879 -0.023664
vn -0.040987 -0.998879 0.023664
vn -0.047328 0.998879 -0.000000
vn 0.047328 -0.998879 0.000000
vn 0.959845 0.112027 0.257190
vn -0.959845 -0.112027 -0.257190
vn 0.857043 0.143654 0.494814
vn -0.857043 -0.143654 -0.494814
vn 0.696173 0.175178 0.696173
vn -0.696173 -0.175178 -0.696173
vn -0.852634 0.175178 0.492269
vn 0.852634 -0.175178 -0.492269
vn -0.857043 0.143654 0.494814
vn 0.857043 -0.143654 -0.494814
vn -0.860574 0.112027 0.496853
vn 0.860574 -0.112027 -0.496853
vn 0.492269 0.175178 0.852634
vn -0.492269 -0.175178 -0.852634
vn 0.033466 0.998879 -0.033467
vn -0.033466 -0.998879 0.033467
vn -0.045716 0.998879 -0.012249
vn 0.045716 -0.998879 0.012249
vn 0.860574 0.112027 0.496852
vn -0.860574 -0.112027 -0.496852
vn 0.699773 0.143654 0.699772
vn -0.699773 -0.143654 -0.699772
vn 0.494814 0.143654 0.857043
vn -0.494814 -0.143654 -0.857043
vn -0.696173 0.175178 0.696173
vn 0.696173 -0.175178 -0.696173
vn -0.699772 0.143654 0.699773
vn 0.699772 -0.143654 -0.699773
vn -0.702656 0.112027 0.702655
vn 0.702656 -0.112027 -0.702655
vn 0.256135 0.143654 0.955907
vn -0.256135 -0.143654 -0.955907
vn 0.023664 0.998879 -0.040987
vn -0.023664 -0.998879 0.040987
vn -0.040987 0.998879 -0.023664
vn 0.040987 -0.998879 0.023664
vn 0.702655 0.112027 0.702656
vn -0.702655 -0.112027 -0.702656
vn 0.496853 0.112027 0.860574
vn -0.496853 -0.112027 -0.860574
vn 0.257190 0.112027 0.959845
vn -0.257190 -0.112027 -0.959845
vn -0.492268 0.175178 0.852634
vn 0.492268 -0.175178 -0.852634
vn -0.494814 0.143654 0.857043
vn 0.494814 -0.143654 -0.857043
vn -0.496852 0.112027 0.860574
vn 0.496852 -0.112027 -0.860574
vn 0.000000 0.175178 0.984537
vn -0.000000 -0.175178 -0.984537
vn -0.000000 0.143654 0.989628
vn 0.000000 -0.143654 -0.989628
vn -0.000000 0.112027 0.993705
vn 0.000000 -0.112027 -0.993705
vn 0.012249 0.998879 -0.045716
vn -0.012249 -0.998879 0.045716
vn -0.033467 0.998879 -0.033466
vn 0.033467 -0.998879 0.033466
vn -0.023664 0.998879 -0.040987
vn 0.023664 -0.998879 0.040987
vn -0.012249 0.998879 -0.045716
vn 0.012249 -0.998879 0.045716
vn 0.000000 0.998879 -0.047328
vn -0.000000 -0.998879 0.047328
vn -0.256134 0.143654 0.955907
vn 0.256134 -0.143654 -0.955907
vn -0.257190 0.112027 0.959845
vn 0.257190 -0.112027 -0.959845
usemtl material-0
f 1//1 2//3 3//5
f 3//6 2//4 1//2
f 6//11 3//5 2//3
f 2//4 3//6 6//12
f 3//5 6//11 7//13
f 7//14 6//12 3//6
f 3//5 4//7 8//15
f 8//16 4//8 3//6
f 5//9 3//5 9//17
f 9//18 3//6 5//10
f 12//23 7//13 6//11
f 6//12 7//14 12//24
f 8//15 7//13 3//5
f 3//6 7//14 8//16
f 7//13 9//17 3//5
f 3//6 9//18 7//14
f 10//19 8//15 4//7
f 4//8 8//16 10//20
f 7//13 12//23 13//25
f 13//26 12//24 7//14
f 7//13 8//15 14//27
f 14//28 8//16 7//14
f 9//17 7//13 15//29
f 15//30 7//14 9//18
f 8//15 10//19 16//31
f 16//32 10//20 8//16
f 11//21 9//17 17//33
f 17//34 9//18 11//22
f 14//27 13//25 7//13
f 7//14 13//26 14//28
f 13//25 15//29 7//13
f 7//14 15//30 13//26
f 16//31 14//27 8//15
f 8//16 14//28 16//32
f 15//29 17//33 9//17
f 9//18 17//34 15//30
f 18//35 16//31 10//19
f 10//20 16//32 18//36
f 17//33 19//37 11//21
f 11//22 19//38 17//34
f 13//25 14//27 21//41
f 21//42 14//28 13//26
f 15//29 13//25 22//43
f 22//44 13//26 15//30
f 14//27 16//31 23//45
f 23//46 16//32 14//28
f 17//33 15//29 24//47
f 24//48 15//30 17//34
f 16//31 18//35 25//49
f 25//50 18//36 16//32
f 23//45 21//41 14//27
f 14//28 21//42 23//46
f 22//43 24//47 15//29
f 15//30 24//48 22//44
f 25//49 23//45 16//31
f 16//32 23//46 25//50
f 24//47 26//51 17//33
f 17//34 26//52 24//48
f 18//35 27//53 25//49
f 25//50 27//54 18//36
f 20//39 29//57 27//53
f 27//54 29//58 20//40
f 21//41 23//45 30//59
f 30//60 23//46 21//42
f 24//47 22//43 31//61
f 31//62 22//44 24//48
f 23//45 25//49 32//63
f 32//64 25//50 23//46
f 26//51 24//47 33//65
f 33//66 24//48 26//52
f 34//67 25//49 27//53
f 27//54 25//50 34//68
f 28//55 26//51 35//69
f 35//70 26//52 28//56
f 36//71 27//53 29//57
f 29//58 27//54 36//72
f 32//63 30//59 23//45
f 23//46 30//60 32//64
f 31//61 33//65 24//47
f 24//48 33//66 31//62
f 25//49 34//67 32//63
f 32//64 34//68 25//50
f 33//65 35//69 26//51
f 26//52 35//70 33//66
f 27//53 36//71 34//67
f 34//68 36//72 27//54
f 29//57 39//77 36//71
f 36//72 39//78 29//58
f 30//59 32//63 40//79
f 40//80 32//64 30//60
f 33//65 31//61 41//81
f 41//82 31//62 33//66
f 42//83 32//63 34//67
f 34//68 32//64 42//84
f 35//69 33//65 43//85
f 43//86 33//66 35//70
f 44//87 34//67 36//71
f 36//72 34//68 44//88
f 37//73 35//69 45//89
f 45//90 35//70 37//74
f 39//77 29//57 38//75
f 38//76 29//58 39//78
f 46//91 36//71 39//77
f 39//78 36//72 46//92
f 32//63 42//83 40//79
f 40//80 42//84 32//64
f 41//81 43//85 33//65
f 33//66 43//86 41//82
f 34//67 44//87 42//83
f 42//84 44//88 34//68
f 43//85 45//89 35//69
f 35//70 45//90 43//86
f 36//71 46//91 44//87
f 44//88 46//92 36//72
f 38//75 49//97 39//77
f 39//78 49//98 38//76
f 39//77 47//93 46//91
f 46//92 47//94 39//78
f 43//85 41//81 51//101
f 51//102 41//82 43//86
f 45//89 43//85 52//103
f 52//104 43//86 45//90
f 49//97 38//75 48//95
f 48//96 38//76 49//98
f 47//93 39//77 49//97
f 49//98 39//78 47//94
f 49//97 50//99 47//93
f 47//94 50//100 49//98
f 51//101 52//103 43//85
f 43//86 52//104 51//102
f 52//103 53//105 45//89
f 45//90 53//106 52//104
f 48//95 56//111 49//97
f 49//98 56//112 48//96
f 50//99 49//97 56//111
f 56//112 49//98 50//100
f 52//103 51//101 58//115
f 58//116 51//102 52//104
f 53//105 52//103 59//117
f 59//118 52//104 53//106
f 54//107 53//105 60//119
f 60//120 53//106 54//108
f 56//111 48//95 55//109
f 55//110 48//96 56//112
f 56//111 57//113 50//99
f 50//100 57//114 56//112
f 58//115 59//117 52//103
f 52//104 59//118 58//116
f 59//117 60//119 53//105
f 53//106 60//120 59//118
f 60//119 61//121 54//107
f 54//108 61//122 60//120
f 55//109 64//127 56//111
f 56//112 64//128 55//110
f 57//113 56//111 64//127
f 64//128 56//112 57//114
f 59//117 58//115 67//133
f 67//134 58//116 59//118
f 60//119 59//117 68//135
f 68//136 59//118 60//120
f 61//121 60//119 69//137
f 69//138 60//120 61//122
f 64//127 55//109 63//125
f 63//126 55//110 64//128
f 61//121 70//139 65//129
f 65//130 70//140 61//122
f 64//127 66//131 57//113
f 57//114 66//132 64//128
f 67//133 68//135 59//117
f 59//118 68//136 67//134
f 68//135 69//137 60//119
f 60//120 69//138 68//136
f 70//139 61//121 69//137
f 69//138 61//122 70//140
f 62//123 72//143 63//125
f 63//126 72//144 62//124
f 63//125 73//145 64//127
f 64//128 73//146 63//126
f 74//147 65//129 70//139
f 70//140 65//130 74//148
f 66//131 64//127 73//145
f 73//146 64//128 66//132
f 68//135 67//133 76//151
f 76//152 67//134 68//136
f 69//137 68//135 77//153
f 77//154 68//136 69//138
f 69//137 78//155 70//139
f 70//140 78//156 69//138
f 73//145 63//125 72//143
f 72//144 63//126 73//146
f 70//139 79//157 74//147
f 74//148 79//158 70//140
f 73//145 75//149 66//131
f 66//132 75//150 73//146
f 76//151 77//153 68//135
f 68//136 77//154 76//152
f 78//155 69//137 77//153
f 77//154 69//138 78//156
f 79//157 70//139 78//155
f 78//156 70//140 79//158
f 71//141 81//161 72//143
f 72//144 81//162 71//142
f 72//143 82//163 73//145
f 73//146 82//164 72//144
f 85//169 74//147 79//157
f 79//158 74//148 85//170
f 75//149 73//145 82//163
f 82//164 73//146 75//150
f 77//153 76//151 87//173
f 87//174 76//152 77//154
f 77//153 88//175 78//155
f 78//156 88//176 77//154
f 78//155 89//177 79//157
f 79//158 89//178 78//156
f 82//163 72//143 81//161
f 81//162 72//144 82//164
f 74//147 85//169 84//167
f 84//168 85//170 74//148
f 79//157 90//179 85//169
f 85//170 90//180 79//158
f 82//163 86//171 75//149
f 75//150 86//172 82//164
f 88//175 77//153 87//173
f 87//174 77//154 88//176
f 89//177 78//155 88//175
f 88//176 78//156 89//178
f 90//179 79//157 89//177
f 89//178 79//158 90//180
f 80//159 91//181 81//161
f 81//162 91//182 80//160
f 81//161 92//183 82//163
f 82//164 92//184 81//162
f 91//181 83//165 84//167
f 84//168 83//166 91//182
f 92//183 84//167 85//169
f 85//170 84//168 92//184
f 86//171 85//169 90//179
f 90//180 85//170 86//172
f 86//171 82//163 92//183
f 92//184 82//164 86//172
f 92//183 81//161 91//181
f 91//182 81//162 92//184
f 84//167 92//183 91//181
f 91//182 92//184 84//168
f 85//169 86//171 92//183
f 92//184 86//172 85//170