# SSTK version 0.8.0
# 84
mtllib original-84.mtl
o #ID523
v -0.007006 0.311172 -0.098842
v -0.019883 0.311172 -0.098842
v -0.013445 0.311462 -0.098046
v -0.001006 0.310322 -0.101178
v -0.025883 0.310322 -0.101178
v 0.004147 0.30897 -0.104893
v -0.031036 0.30897 -0.104893
v 0.0081 0.307208 -0.109734
v -0.034989 0.307208 -0.109734
v 0.010585 0.305155 -0.115373
v -0.037475 0.305155 -0.115373
v 0.011433 0.302953 -0.121423
v -0.038322 0.302953 -0.121423
v 0.010585 0.300751 -0.127473
v -0.037475 0.300751 -0.127473
v 0.0081 0.298699 -0.133112
v -0.034989 0.298699 -0.133112
v 0.004147 0.296937 -0.137953
v -0.031036 0.296937 -0.137953
v -0.001006 0.295584 -0.141668
v -0.025883 0.295584 -0.141668
v -0.007006 0.294734 -0.144004
v -0.019883 0.294734 -0.144004
v -0.013445 0.294445 -0.1448
v -0.013445 0.294445 -0.1448
v -0.007006 0.294734 -0.144004
v -0.019883 0.294734 -0.144004
v -0.025883 0.295584 -0.141668
v -0.001006 0.295584 -0.141668
v -0.031036 0.296937 -0.137953
v 0.004147 0.296937 -0.137953
v -0.034989 0.298699 -0.133112
v 0.0081 0.298699 -0.133112
v -0.037475 0.300751 -0.127473
v 0.010585 0.300751 -0.127473
v -0.038322 0.302953 -0.121423
v 0.011433 0.302953 -0.121423
v -0.037475 0.305155 -0.115373
v 0.010585 0.305155 -0.115373
v -0.034989 0.307208 -0.109734
v 0.0081 0.307208 -0.109734
v -0.031036 0.30897 -0.104893
v 0.004147 0.30897 -0.104893
v -0.025883 0.310322 -0.101178
v -0.001006 0.310322 -0.101178
v -0.019883 0.311172 -0.098842
v -0.007006 0.311172 -0.098842
v -0.013445 0.311462 -0.098046
v -0.019883 0.311172 -0.098842
v -0.013445 0.319266 -0.100886
v -0.013445 0.311462 -0.098046
v -0.019883 0.318976 -0.101683
v -0.019883 0.318976 -0.101683
v -0.019883 0.311172 -0.098842
v -0.013445 0.319266 -0.100886
v -0.013445 0.311462 -0.098046
v -0.007006 0.318976 -0.101683
v -0.007006 0.311172 -0.098842
v -0.007006 0.318976 -0.101683
v -0.007006 0.311172 -0.098842
v -0.001006 0.318126 -0.104018
v -0.001006 0.310322 -0.101178
v -0.001006 0.318126 -0.104018
v -0.001006 0.310322 -0.101178
v 0.004147 0.316774 -0.107733
v 0.004147 0.30897 -0.104893
v 0.004147 0.316774 -0.107733
v 0.004147 0.30897 -0.104893
v 0.0081 0.315012 -0.112575
v 0.0081 0.307208 -0.109734
v 0.0081 0.315012 -0.112575
v 0.0081 0.307208 -0.109734
v 0.010585 0.305155 -0.115373
v 0.010585 0.312959 -0.118213
v 0.010585 0.312959 -0.118213
v 0.010585 0.305155 -0.115373
v 0.011433 0.302953 -0.121423
v 0.011433 0.310757 -0.124264
v 0.011433 0.310757 -0.124264
v 0.011433 0.302953 -0.121423
v 0.010585 0.300751 -0.127473
v 0.010585 0.308555 -0.130314
v 0.010585 0.308555 -0.130314
v 0.010585 0.300751 -0.127473
v 0.0081 0.298699 -0.133112
v 0.0081 0.306503 -0.135952
v 0.0081 0.306503 -0.135952
v 0.0081 0.298699 -0.133112
v 0.004147 0.304741 -0.140794
v 0.004147 0.296937 -0.137953
v 0.004147 0.304741 -0.140794
v 0.004147 0.296937 -0.137953
v -0.001006 0.303388 -0.144509
v -0.001006 0.295584 -0.141668
v -0.001006 0.295584 -0.141668
v -0.001006 0.303388 -0.144509
v -0.007006 0.302538 -0.146844
v -0.007006 0.294734 -0.144004
v -0.007006 0.294734 -0.144004
v -0.007006 0.302538 -0.146844
v -0.013445 0.302249 -0.147641
v -0.013445 0.294445 -0.1448
v -0.013445 0.294445 -0.1448
v -0.013445 0.302249 -0.147641
v -0.019883 0.302538 -0.146844
v -0.019883 0.294734 -0.144004
v -0.019883 0.294734 -0.144004
v -0.019883 0.302538 -0.146844
v -0.025883 0.303388 -0.144509
v -0.025883 0.295584 -0.141668
v -0.025883 0.295584 -0.141668
v -0.025883 0.303388 -0.144509
v -0.031036 0.304741 -0.140794
v -0.031036 0.296937 -0.137953
v -0.031036 0.296937 -0.137953
v -0.031036 0.304741 -0.140794
v -0.034989 0.298699 -0.133112
v -0.034989 0.306503 -0.135952
v -0.034989 0.306503 -0.135952
v -0.034989 0.298699 -0.133112
v -0.037475 0.300751 -0.127473
v -0.037475 0.308555 -0.130314
v -0.037475 0.308555 -0.130314
v -0.037475 0.300751 -0.127473
v -0.038322 0.310757 -0.124264
v -0.038322 0.302953 -0.121423
v -0.038322 0.310757 -0.124264
v -0.038322 0.302953 -0.121423
v -0.037475 0.305155 -0.115373
v -0.037475 0.312959 -0.118213
v -0.037475 0.312959 -0.118213
v -0.037475 0.305155 -0.115373
v -0.034989 0.315012 -0.112575
v -0.034989 0.307208 -0.109734
v -0.034989 0.315012 -0.112575
v -0.034989 0.307208 -0.109734
v -0.031036 0.30897 -0.104893
v -0.031036 0.316774 -0.107733
v -0.031036 0.316774 -0.107733
v -0.031036 0.30897 -0.104893
v -0.025883 0.318126 -0.104018
v -0.025883 0.310322 -0.101178
v -0.025883 0.318126 -0.104018
v -0.025883 0.310322 -0.101178
vn 0.0 0.93969263435217 -0.34202010605266936
vn 0.0 -0.93969263435217 0.34202010605266936
vn 0.25881900104387257 -0.3303660575841102 -0.9076733953878918
vn 0.0 -0.34202010605266936 -0.93969263435217
vn -0.25881900104387257 0.3303660575841102 0.9076733953878918
vn 0.0 0.34202010605266936 0.93969263435217
vn -0.25881900104387245 -0.3303660575841103 -0.9076733953878918
vn 0.25881900104387245 0.3303660575841103 0.9076733953878918
vn -0.49999998836177406 -0.2961981027448065 -0.8137976994122084
vn 0.49999998836177406 0.2961981027448065 0.8137976994122084
vn -0.707106768668932 -0.24184474057326083 -0.6644630457441809
vn 0.707106768668932 0.24184474057326083 0.6644630457441809
vn -0.8660253951728861 -0.1710100581277857 -0.46984633119220776
vn 0.8660253951728861 0.1710100581277857 0.46984633119220776
vn -0.9659258335127823 -0.08852130803380265 -0.24321032497947354
vn 0.9659258335127823 0.08852130803380265 0.24321032497947354
vn -1.0 0.0 0.0
vn 1.0 0.0 0.0
vn -0.9659258335127825 0.08852130803380226 0.2432103249794736
vn 0.9659258335127825 -0.08852130803380226 -0.2432103249794736
vn -0.8660253951728861 0.17101005812778536 0.46984633119220776
vn 0.8660253951728861 -0.17101005812778536 -0.46984633119220776
vn -0.707106768668932 0.24184474057326052 0.6644630457441809
vn 0.707106768668932 -0.24184474057326052 -0.6644630457441809
vn -0.4999999883617741 0.29619810274480624 0.8137976994122083
vn 0.4999999883617741 -0.29619810274480624 -0.8137976994122083
vn 0.0 0.3420201060526693 0.93969263435217
vn 0.0 -0.3420201060526693 -0.93969263435217
usemtl material_0_0
f 1//1 2//1 3//1
f 2//1 1//1 4//1
f 2//1 4//1 5//1
f 5//1 4//1 6//1
f 5//1 6//1 7//1
f 7//1 6//1 8//1
f 7//1 8//1 9//1
f 9//1 8//1 10//1
f 9//1 10//1 11//1
f 11//1 10//1 12//1
f 11//1 12//1 13//1
f 13//1 12//1 14//1
f 13//1 14//1 15//1
f 15//1 14//1 16//1
f 15//1 16//1 17//1
f 17//1 16//1 18//1
f 17//1 18//1 19//1
f 19//1 18//1 20//1
f 19//1 20//1 21//1
f 21//1 20//1 22//1
f 21//1 22//1 23//1
f 23//1 22//1 24//1
f 25//2 26//2 27//2
f 27//2 26//2 28//2
f 26//2 29//2 28//2
f 28//2 29//2 30//2
f 29//2 31//2 30//2
f 30//2 31//2 32//2
f 31//2 33//2 32//2
f 32//2 33//2 34//2
f 33//2 35//2 34//2
f 34//2 35//2 36//2
f 35//2 37//2 36//2
f 36//2 37//2 38//2
f 37//2 39//2 38//2
f 38//2 39//2 40//2
f 39//2 41//2 40//2
f 40//2 41//2 42//2
f 41//2 43//2 42//2
f 42//2 43//2 44//2
f 43//2 45//2 44//2
f 44//2 45//2 46//2
f 45//2 47//2 46//2
f 48//2 46//2 47//2
f 49//3 50//4 51//4
f 50//4 49//3 52//3
f 53//5 54//5 55//6
f 56//6 55//6 54//5
f 51//4 57//7 58//7
f 57//7 51//4 50//4
f 55//6 56//6 59//8
f 60//8 59//8 56//6
f 58//7 61//9 62//9
f 61//9 58//7 57//7
f 59//8 60//8 63//10
f 64//10 63//10 60//8
f 62//9 65//11 66//11
f 65//11 62//9 61//9
f 63//10 64//10 67//12
f 68//12 67//12 64//10
f 66//11 69//13 70//13
f 69//13 66//11 65//11
f 67//12 68//12 71//14
f 72//14 71//14 68//12
f 69//13 73//15 70//13
f 73//15 69//13 74//15
f 75//16 71//14 76//16
f 72//14 76//16 71//14
f 74//15 77//17 73//15
f 77//17 74//15 78//17
f 79//18 75//16 80//18
f 76//16 80//18 75//16
f 78//17 81//19 77//17
f 81//19 78//17 82//19
f 83//20 79//18 84//20
f 80//18 84//20 79//18
f 82//19 85//21 81//19
f 85//21 82//19 86//21
f 87//22 83//20 88//22
f 84//20 88//22 83//20
f 85//21 89//23 90//23
f 89//23 85//21 86//21
f 87//22 88//22 91//24
f 92//24 91//24 88//22
f 93//25 90//23 89//23
f 90//23 93//25 94//25
f 95//26 96//26 92//24
f 91//24 92//24 96//26
f 97//5 94//25 93//25
f 94//25 97//5 98//5
f 99//3 100//3 95//26
f 96//26 95//26 100//3
f 101//27 98//5 97//5
f 98//5 101//27 102//27
f 103//28 104//28 99//3
f 100//3 99//3 104//28
f 105//8 102//27 101//27
f 102//27 105//8 106//8
f 107//7 108//7 103//28
f 104//28 103//28 108//7
f 109//10 106//8 105//8
f 106//8 109//10 110//10
f 111//9 112//9 107//7
f 108//7 107//7 112//9
f 113//12 110//10 109//10
f 110//10 113//12 114//12
f 115//11 116//11 111//9
f 112//9 111//9 116//11
f 113//12 117//14 114//12
f 117//14 113//12 118//14
f 119//13 116//11 120//13
f 115//11 120//13 116//11
f 118//14 121//16 117//14
f 121//16 118//14 122//16
f 123//15 119//13 124//15
f 120//13 124//15 119//13
f 121//16 125//18 126//18
f 125//18 121//16 122//16
f 123//15 124//15 127//17
f 128//17 127//17 124//15
f 125//18 129//20 126//18
f 129//20 125//18 130//20
f 131//19 127//17 132//19
f 128//17 132//19 127//17
f 129//20 133//22 134//22
f 133//22 129//20 130//20
f 131//19 132//19 135//21
f 136//21 135//21 132//19
f 133//22 137//24 134//22
f 137//24 133//22 138//24
f 139//23 135//21 140//23
f 136//21 140//23 135//21
f 137//24 141//26 142//26
f 141//26 137//24 138//24
f 139//23 140//23 143//25
f 144//25 143//25 140//23
f 142//26 52//3 49//3
f 52//3 142//26 141//26
f 143//25 144//25 53//5
f 54//5 53//5 144//25
