# SSTK version 0.8.0
# 42
mtllib original-42.mtl
o #ID104
v 0.430897 0.685487 -0.134804
v 0.431183 0.683159 -0.134574
v 0.431183 0.684574 -0.133546
v 0.430897 0.684072 -0.135832
v 0.430897 0.684072 -0.135832
v 0.430897 0.685487 -0.134804
v 0.431183 0.683159 -0.134574
v 0.431183 0.684574 -0.133546
v 0.431183 0.684574 -0.133546
v 0.430916 0.681977 -0.132946
v 0.430916 0.683392 -0.131918
v 0.431183 0.683159 -0.134574
v 0.431183 0.683159 -0.134574
v 0.431183 0.684574 -0.133546
v 0.430916 0.681977 -0.132946
v 0.430916 0.683392 -0.131918
v 0.430540 0.685877 -0.135341
v 0.430897 0.684072 -0.135832
v 0.430897 0.685487 -0.134804
v 0.430540 0.684462 -0.136368
v 0.430540 0.684462 -0.136368
v 0.430540 0.685877 -0.135341
v 0.430897 0.684072 -0.135832
v 0.430897 0.685487 -0.134804
v 0.430916 0.683392 -0.131918
v 0.430581 0.681508 -0.132300
v 0.430581 0.682923 -0.131273
v 0.430916 0.681977 -0.132946
v 0.430916 0.681977 -0.132946
v 0.430916 0.683392 -0.131918
v 0.430581 0.681508 -0.132300
v 0.430581 0.682923 -0.131273
v 0.430039 0.686222 -0.135815
v 0.430540 0.684462 -0.136368
v 0.430540 0.685877 -0.135341
v 0.430039 0.684807 -0.136843
v 0.430039 0.684807 -0.136843
v 0.430039 0.686222 -0.135815
v 0.430540 0.684462 -0.136368
v 0.430540 0.685877 -0.135341
v 0.430581 0.682923 -0.131273
v 0.430113 0.681121 -0.131767
v 0.430113 0.682536 -0.130740
v 0.430581 0.681508 -0.132300
v 0.430581 0.681508 -0.132300
v 0.430581 0.682923 -0.131273
v 0.430113 0.681121 -0.131767
v 0.430113 0.682536 -0.130740
v 0.430039 0.686222 -0.135815
v 0.429405 0.685089 -0.137232
v 0.430039 0.684807 -0.136843
v 0.429405 0.686504 -0.136204
v 0.429405 0.686504 -0.136204
v 0.430039 0.686222 -0.135815
v 0.429405 0.685089 -0.137232
v 0.430039 0.684807 -0.136843
v 0.429519 0.682233 -0.130322
v 0.430113 0.681121 -0.131767
v 0.429519 0.680818 -0.131350
v 0.430113 0.682536 -0.130740
v 0.430113 0.682536 -0.130740
v 0.429519 0.682233 -0.130322
v 0.430113 0.681121 -0.131767
v 0.429519 0.680818 -0.131350
v 0.429405 0.686504 -0.136204
v 0.428648 0.685290 -0.137509
v 0.429405 0.685089 -0.137232
v 0.428648 0.686705 -0.136481
v 0.428648 0.686705 -0.136481
v 0.429405 0.686504 -0.136204
v 0.428648 0.685290 -0.137509
v 0.429405 0.685089 -0.137232
v 0.428806 0.682017 -0.130024
v 0.429519 0.680818 -0.131350
v 0.428806 0.680601 -0.131052
v 0.429519 0.682233 -0.130322
v 0.429519 0.682233 -0.130322
v 0.428806 0.682017 -0.130024
v 0.429519 0.680818 -0.131350
v 0.428806 0.680601 -0.131052
v 0.428648 0.686705 -0.136481
v 0.426767 0.685451 -0.137731
v 0.428648 0.685290 -0.137509
v 0.426767 0.686867 -0.136703
v 0.426767 0.686867 -0.136703
v 0.428648 0.686705 -0.136481
v 0.426767 0.685451 -0.137731
v 0.428648 0.685290 -0.137509
v 0.427974 0.681887 -0.129845
v 0.428806 0.680601 -0.131052
v 0.427974 0.680472 -0.130873
v 0.428806 0.682017 -0.130024
v 0.428806 0.682017 -0.130024
v 0.427974 0.681887 -0.129845
v 0.428806 0.680601 -0.131052
v 0.427974 0.680472 -0.130873
v 0.426767 0.686867 -0.136703
v 0.425304 0.685439 -0.137715
v 0.426767 0.685451 -0.137731
v 0.425304 0.686855 -0.136687
v 0.425304 0.686855 -0.136687
v 0.426767 0.686867 -0.136703
v 0.425304 0.685439 -0.137715
v 0.426767 0.685451 -0.137731
v 0.427024 0.681843 -0.129786
v 0.427974 0.680472 -0.130873
v 0.427024 0.680428 -0.130813
v 0.427974 0.681887 -0.129845
v 0.427974 0.681887 -0.129845
v 0.427024 0.681843 -0.129786
v 0.427974 0.680472 -0.130873
v 0.427024 0.680428 -0.130813
v 0.425304 0.686855 -0.136687
v 0.424409 0.685420 -0.137687
v 0.425304 0.685439 -0.137715
v 0.424409 0.686835 -0.136660
v 0.424409 0.686835 -0.136660
v 0.425304 0.686855 -0.136687
v 0.424409 0.685420 -0.137687
v 0.425304 0.685439 -0.137715
v 0.425927 0.681907 -0.129874
v 0.427024 0.680428 -0.130813
v 0.425927 0.680492 -0.130901
v 0.427024 0.681843 -0.129786
v 0.427024 0.681843 -0.129786
v 0.425927 0.681907 -0.129874
v 0.427024 0.680428 -0.130813
v 0.425927 0.680492 -0.130901
v 0.424409 0.685420 -0.137687
v 0.424409 0.682854 -0.131178
v 0.424409 0.681439 -0.132206
v 0.424409 0.686835 -0.136660
v 0.424409 0.686835 -0.136660
v 0.424409 0.685420 -0.137687
v 0.424409 0.682854 -0.131178
v 0.424409 0.681439 -0.132206
v 0.425100 0.682098 -0.130137
v 0.425927 0.680492 -0.130901
v 0.425100 0.680683 -0.131164
v 0.425927 0.681907 -0.129874
v 0.425927 0.681907 -0.129874
v 0.425100 0.682098 -0.130137
v 0.425927 0.680492 -0.130901
v 0.425100 0.680683 -0.131164
v 0.424409 0.681439 -0.132206
v 0.424582 0.682415 -0.130572
v 0.424582 0.680999 -0.131600
v 0.424409 0.682854 -0.131178
v 0.424409 0.682854 -0.131178
v 0.424409 0.681439 -0.132206
v 0.424582 0.682415 -0.130572
v 0.424582 0.680999 -0.131600
v 0.424582 0.680999 -0.131600
v 0.425100 0.682098 -0.130137
v 0.425100 0.680683 -0.131164
v 0.424582 0.682415 -0.130572
v 0.424582 0.682415 -0.130572
v 0.424582 0.680999 -0.131600
v 0.425100 0.682098 -0.130137
v 0.425100 0.680683 -0.131164
vn -0.9834732670533896 -0.1063825977689162 0.14650281868711407
vn 0.9834732670533896 0.1063825977689162 -0.14650281868711407
vn -0.9912715683077348 0.07746352680693447 -0.10667745722201798
vn 0.9912715683077348 -0.07746352680693447 0.10667745722201798
vn -0.8800557253167535 -0.27902237627787985 0.38425048324426136
vn 0.8800557253167535 0.27902237627787985 -0.38425048324426136
vn -0.9222056410387863 0.22721546510329863 -0.31290555772330564
vn 0.9222056410387863 -0.22721546510329863 0.31290555772330564
vn -0.7606107635766955 -0.3814590270896627 0.5253192143669259
vn 0.7606107635766955 0.3814590270896627 -0.5253192143669259
vn -0.8150762591427462 0.34041421264820515 -0.4687951104789488
vn 0.8150762591427462 -0.34041421264820515 0.4687951104789488
vn -0.6038269254045087 -0.46836576050004686 0.6450012081754193
vn 0.6038269254045087 0.46836576050004686 -0.6450012081754193
vn -0.655299093863672 0.4438368548999345 -0.6112216814004433
vn 0.655299093863672 -0.4438368548999345 0.6112216814004433
vn -0.41284270753408425 -0.5351654249083371 0.7369931253536937
vn 0.41284270753408425 0.5351654249083371 -0.7369931253536937
vn -0.45899230977130573 0.5220259968422676 -0.7188984060294187
vn 0.45899230977130573 -0.5220259968422676 0.7188984060294187
vn -0.14428870155117407 -0.5814272052945245 0.8007016769984157
vn 0.14428870155117407 0.5814272052945245 -0.8007016769984157
vn -0.25686618814829854 0.5678608695914361 -0.782019049750721
vn 0.25686618814829854 -0.5678608695914361 0.782019049750721
vn 0.01388754916543852 -0.5875191499172489 0.809091085390694
vn -0.01388754916543852 0.5875191499172489 -0.809091085390694
vn -0.0773080446878712 0.585817349100747 -0.8067474820035769
vn 0.0773080446878712 -0.585817349100747 0.8067474820035769
vn 0.037851637975719894 -0.587154739294885 0.8085892440702576
vn -0.037851637975719894 0.587154739294885 -0.8085892440702576
vn 0.09828721665735918 0.5847308242481494 -0.8052511944827088
vn -0.09828721665735918 -0.5847308242481494 0.8052511944827088
vn 1 0 0
vn -1 0 0
vn 0.3661242773031028 0.5467780536285298 -0.7529852413158425
vn -0.3661242773031028 -0.5467780536285298 0.7529852413158425
vn 0.974391196225699 0.13212200627950374 -0.18194936706273546
vn -0.974391196225699 -0.13212200627950374 0.18194936706273546
vn 0.7205717565537159 0.4074135377608707 -0.5610619866879809
vn -0.7205717565537159 -0.4074135377608707 0.5610619866879809
usemtl material_0_0
f 1//1 2//1 3//1
f 2//1 1//1 4//1
f 5//2 6//2 7//2
f 8//2 7//2 6//2
f 9//3 10//3 11//3
f 10//3 9//3 12//3
f 13//4 14//4 15//4
f 16//4 15//4 14//4
f 17//5 18//5 19//5
f 18//5 17//5 20//5
f 21//6 22//6 23//6
f 24//6 23//6 22//6
f 25//7 26//7 27//7
f 26//7 25//7 28//7
f 29//8 30//8 31//8
f 32//8 31//8 30//8
f 33//9 34//9 35//9
f 34//9 33//9 36//9
f 37//10 38//10 39//10
f 40//10 39//10 38//10
f 41//11 42//11 43//11
f 42//11 41//11 44//11
f 45//12 46//12 47//12
f 48//12 47//12 46//12
f 49//13 50//13 51//13
f 50//13 49//13 52//13
f 53//14 54//14 55//14
f 56//14 55//14 54//14
f 57//15 58//15 59//15
f 58//15 57//15 60//15
f 61//16 62//16 63//16
f 64//16 63//16 62//16
f 65//17 66//17 67//17
f 66//17 65//17 68//17
f 69//18 70//18 71//18
f 72//18 71//18 70//18
f 73//19 74//19 75//19
f 74//19 73//19 76//19
f 77//20 78//20 79//20
f 80//20 79//20 78//20
f 81//21 82//21 83//21
f 82//21 81//21 84//21
f 85//22 86//22 87//22
f 88//22 87//22 86//22
f 89//23 90//23 91//23
f 90//23 89//23 92//23
f 93//24 94//24 95//24
f 96//24 95//24 94//24
f 97//25 98//25 99//25
f 98//25 97//25 100//25
f 101//26 102//26 103//26
f 104//26 103//26 102//26
f 105//27 106//27 107//27
f 106//27 105//27 108//27
f 109//28 110//28 111//28
f 112//28 111//28 110//28
f 113//29 114//29 115//29
f 114//29 113//29 116//29
f 117//30 118//30 119//30
f 120//30 119//30 118//30
f 121//31 122//31 123//31
f 122//31 121//31 124//31
f 125//32 126//32 127//32
f 128//32 127//32 126//32
f 129//33 130//33 131//33
f 130//33 129//33 132//33
f 133//34 134//34 135//34
f 136//34 135//34 134//34
f 137//35 138//35 139//35
f 138//35 137//35 140//35
f 141//36 142//36 143//36
f 144//36 143//36 142//36
f 145//37 146//37 147//37
f 146//37 145//37 148//37
f 149//38 150//38 151//38
f 152//38 151//38 150//38
f 153//39 154//39 155//39
f 154//39 153//39 156//39
f 157//40 158//40 159//40
f 160//40 159//40 158//40
