# SSTK version 0.8.0
# 137
mtllib original-137.mtl
o #ID657
v -0.034083 0.224226 0.714857
v -0.034089 0.221840 0.714857
v -0.034100 0.222126 0.714857
v -0.033445 0.228695 0.714857
v -0.035387 0.228420 0.714857
v -0.035387 0.228758 0.714857
v -0.035086 0.228346 0.714857
v -0.034494 0.228213 0.714857
v -0.034222 0.228100 0.714857
v -0.034100 0.227808 0.714857
v -0.033453 0.220701 0.714857
v -0.032984 0.221743 0.714857
v -0.032955 0.221415 0.714857
v -0.032867 0.221233 0.714857
v -0.031680 0.220638 0.714857
v -0.033001 0.225084 0.714857
v -0.032607 0.221132 0.714857
v -0.032063 0.221045 0.714857
v -0.031680 0.220976 0.714857
v -0.035136 0.221033 0.714857
v -0.035387 0.220638 0.714857
v -0.035387 0.220976 0.714857
v -0.034497 0.221160 0.714857
v -0.034206 0.221276 0.714857
v -0.034118 0.221473 0.714857
v -0.032973 0.227585 0.714857
v -0.032943 0.227919 0.714857
v -0.032853 0.228108 0.714857
v -0.031674 0.228758 0.714857
v -0.032572 0.228229 0.714857
v -0.031971 0.228357 0.714857
v -0.031674 0.228420 0.714857
v -0.032973 0.227384 0.714857
vn 0 0 -1
vn 0 0 1
usemtl material_0_2
f 1//1 2//1 3//1
f 3//2 2//2 1//2
f 4//1 5//1 6//1
f 6//2 5//2 4//2
f 5//1 4//1 7//1
f 7//2 4//2 5//2
f 7//1 4//1 8//1
f 8//2 4//2 7//2
f 8//1 4//1 9//1
f 9//2 4//2 8//2
f 9//1 4//1 10//1
f 10//2 4//2 9//2
f 10//1 4//1 1//1
f 1//2 4//2 10//2
f 1//1 4//1 11//1
f 11//2 4//2 1//2
f 11//1 4//1 12//1
f 12//2 4//2 11//2
f 11//1 12//1 13//1
f 13//2 12//2 11//2
f 11//1 13//1 14//1
f 14//2 13//2 11//2
f 11//1 14//1 15//1
f 15//2 14//2 11//2
f 12//1 4//1 16//1
f 16//2 4//2 12//2
f 15//1 14//1 17//1
f 17//2 14//2 15//2
f 15//1 17//1 18//1
f 18//2 17//2 15//2
f 15//1 18//1 19//1
f 19//2 18//2 15//2
f 20//1 21//1 22//1
f 22//2 21//2 20//2
f 21//1 20//1 11//1
f 11//2 20//2 21//2
f 11//1 20//1 23//1
f 23//2 20//2 11//2
f 11//1 23//1 24//1
f 24//2 23//2 11//2
f 11//1 24//1 25//1
f 25//2 24//2 11//2
f 11//1 25//1 2//1
f 2//2 25//2 11//2
f 11//1 2//1 1//1
f 1//2 2//2 11//2
f 4//1 26//1 16//1
f 16//2 26//2 4//2
f 26//1 4//1 27//1
f 27//2 4//2 26//2
f 27//1 4//1 28//1
f 28//2 4//2 27//2
f 28//1 4//1 29//1
f 29//2 4//2 28//2
f 28//1 29//1 30//1
f 30//2 29//2 28//2
f 30//1 29//1 31//1
f 31//2 29//2 30//2
f 31//1 29//1 32//1
f 32//2 29//2 31//2
f 33//1 16//1 26//1
f 26//2 16//2 33//2
