# SSTK version 0.8.0
# 103
mtllib original-103.mtl
o #ID453
v -0.018788 0.271729 0.714857
v -0.021220 0.271454 0.714857
v -0.021220 0.271792 0.714857
v -0.020940 0.271397 0.714857
v -0.020415 0.271287 0.714857
v -0.020053 0.271151 0.714857
v -0.019941 0.271014 0.714857
v -0.019910 0.270304 0.714857
v -0.019887 0.267615 0.714857
v -0.019326 0.263736 0.714857
v -0.018823 0.267953 0.714857
v -0.018788 0.271134 0.714857
v -0.017804 0.271740 0.714857
v -0.017592 0.271203 0.714857
v -0.016963 0.271763 0.714857
v -0.016846 0.271098 0.714857
v -0.016439 0.271730 0.714857
v -0.016549 0.270967 0.714857
v -0.016302 0.270784 0.714857
v -0.015985 0.271632 0.714857
v -0.016108 0.270556 0.714857
v -0.015969 0.270290 0.714857
v -0.015598 0.271467 0.714857
v -0.015859 0.269644 0.714857
v -0.015710 0.267941 0.714857
v -0.015286 0.268297 0.714857
v -0.015281 0.271237 0.714857
v -0.014975 0.268727 0.714857
v -0.015035 0.270947 0.714857
v -0.014860 0.270612 0.714857
v -0.014784 0.269229 0.714857
v -0.014755 0.270229 0.714857
v -0.014720 0.269800 0.714857
v -0.016643 0.268151 0.714857
v -0.016706 0.267534 0.714857
v -0.016995 0.268006 0.714857
v -0.016134 0.267724 0.714857
v -0.016359 0.268354 0.714857
v -0.016140 0.268609 0.714857
v -0.015984 0.268908 0.714857
v -0.015890 0.269253 0.714857
v -0.017901 0.267890 0.714857
v -0.018823 0.267466 0.714857
v -0.017793 0.267392 0.714857
v -0.017414 0.267919 0.714857
v -0.016534 0.265664 0.714857
v -0.014801 0.265051 0.714857
v -0.016425 0.265521 0.714857
v -0.015887 0.264751 0.714857
v -0.015189 0.263673 0.714857
v -0.014216 0.263736 0.714857
v -0.014354 0.264508 0.714857
v -0.013982 0.264302 0.714857
v -0.012900 0.263673 0.714857
v -0.012900 0.264010 0.714857
v -0.018674 0.264325 0.714857
v -0.017501 0.263673 0.714857
v -0.018777 0.264582 0.714857
v -0.018391 0.264206 0.714857
v -0.017816 0.264079 0.714857
v -0.017501 0.264010 0.714857
v -0.020974 0.264062 0.714857
v -0.021220 0.263673 0.714857
v -0.021220 0.264010 0.714857
v -0.020332 0.264203 0.714857
v -0.020044 0.264316 0.714857
v -0.019956 0.264456 0.714857
v -0.019915 0.264674 0.714857
vn 0 0 -1
vn 0 0 1
usemtl material_0_2
f 1//1 2//1 3//1
f 3//2 2//2 1//2
f 2//1 1//1 4//1
f 4//2 1//2 2//2
f 4//1 1//1 5//1
f 5//2 1//2 4//2
f 5//1 1//1 6//1
f 6//2 1//2 5//2
f 6//1 1//1 7//1
f 7//2 1//2 6//2
f 7//1 1//1 8//1
f 8//2 1//2 7//2
f 8//1 1//1 9//1
f 9//2 1//2 8//2
f 9//1 1//1 10//1
f 10//2 1//2 9//2
f 10//1 1//1 11//1
f 11//2 1//2 10//2
f 11//1 1//1 12//1
f 12//2 1//2 11//2
f 12//1 1//1 13//1
f 13//2 1//2 12//2
f 12//1 13//1 14//1
f 14//2 13//2 12//2
f 14//1 13//1 15//1
f 15//2 13//2 14//2
f 14//1 15//1 16//1
f 16//2 15//2 14//2
f 16//1 15//1 17//1
f 17//2 15//2 16//2
f 16//1 17//1 18//1
f 18//2 17//2 16//2
f 18//1 17//1 19//1
f 19//2 17//2 18//2
f 19//1 17//1 20//1
f 20//2 17//2 19//2
f 19//1 20//1 21//1
f 21//2 20//2 19//2
f 21//1 20//1 22//1
f 22//2 20//2 21//2
f 22//1 20//1 23//1
f 23//2 20//2 22//2
f 22//1 23//1 24//1
f 24//2 23//2 22//2
f 24//1 23//1 25//1
f 25//2 23//2 24//2
f 25//1 23//1 26//1
f 26//2 23//2 25//2
f 26//1 23//1 27//1
f 27//2 23//2 26//2
f 26//1 27//1 28//1
f 28//2 27//2 26//2
f 28//1 27//1 29//1
f 29//2 27//2 28//2
f 28//1 29//1 30//1
f 30//2 29//2 28//2
f 28//1 30//1 31//1
f 31//2 30//2 28//2
f 31//1 30//1 32//1
f 32//2 30//2 31//2
f 31//1 32//1 33//1
f 33//2 32//2 31//2
f 34//1 35//1 36//1
f 36//2 35//2 34//2
f 35//1 34//1 37//1
f 37//2 34//2 35//2
f 37//1 34//1 38//1
f 38//2 34//2 37//2
f 37//1 38//1 39//1
f 39//2 38//2 37//2
f 37//1 39//1 40//1
f 40//2 39//2 37//2
f 37//1 40//1 25//1
f 25//2 40//2 37//2
f 25//1 40//1 41//1
f 41//2 40//2 25//2
f 25//1 41//1 24//1
f 24//2 41//2 25//2
f 42//1 43//1 11//1
f 11//2 43//2 42//2
f 43//1 42//1 44//1
f 44//2 42//2 43//2
f 44//1 42//1 45//1
f 45//2 42//2 44//2
f 44//1 45//1 46//1
f 46//2 45//2 44//2
f 46//1 45//1 36//1
f 36//2 45//2 46//2
f 46//1 36//1 35//1
f 35//2 36//2 46//2
f 46//1 35//1 47//1
f 47//2 35//2 46//2
f 46//1 47//1 48//1
f 48//2 47//2 46//2
f 48//1 47//1 49//1
f 49//2 47//2 48//2
f 49//1 47//1 50//1
f 50//2 47//2 49//2
f 50//1 47//1 51//1
f 51//2 47//2 50//2
f 51//1 47//1 52//1
f 52//2 47//2 51//2
f 51//1 52//1 53//1
f 53//2 52//2 51//2
f 51//1 53//1 54//1
f 54//2 53//2 51//2
f 54//1 53//1 55//1
f 55//2 53//2 54//2
f 10//1 56//1 57//1
f 57//2 56//2 10//2
f 56//1 10//1 58//1
f 58//2 10//2 56//2
f 58//1 10//1 43//1
f 43//2 10//2 58//2
f 43//1 10//1 11//1
f 11//2 10//2 43//2
f 57//1 56//1 59//1
f 59//2 56//2 57//2
f 57//1 59//1 60//1
f 60//2 59//2 57//2
f 57//1 60//1 61//1
f 61//2 60//2 57//2
f 62//1 63//1 64//1
f 64//2 63//2 62//2
f 63//1 62//1 10//1
f 10//2 62//2 63//2
f 10//1 62//1 65//1
f 65//2 62//2 10//2
f 10//1 65//1 66//1
f 66//2 65//2 10//2
f 10//1 66//1 67//1
f 67//2 66//2 10//2
f 10//1 67//1 68//1
f 68//2 67//2 10//2
f 10//1 68//1 9//1
f 9//2 68//2 10//2
