# SSTK version 0.8.0
# 179
mtllib original-179.mtl
o #ID235
v -0.023975 0.235736 0.714731
v -0.025945 0.234114 0.714731
v -0.023975 0.226919 0.714731
v -0.030402 0.235736 0.714731
v -0.030402 0.234114 0.714731
v -0.030079 0.232352 0.714731
v -0.025945 0.230755 0.714731
v -0.025945 0.232352 0.714731
v -0.030079 0.230755 0.714731
v -0.025945 0.228541 0.714731
v -0.030481 0.226919 0.714731
v -0.030481 0.228541 0.714731
v -0.030481 0.228541 0.714731
v -0.025945 0.228541 0.714731
v -0.030481 0.226919 0.714731
v -0.025945 0.230755 0.714731
v -0.025945 0.232352 0.714731
v -0.025945 0.234114 0.714731
v -0.023975 0.226919 0.714731
v -0.030079 0.230755 0.714731
v -0.030079 0.232352 0.714731
v -0.030402 0.234114 0.714731
v -0.030402 0.235736 0.714731
v -0.023975 0.235736 0.714731
vn 0 0 1
vn 0 0 -1
usemtl material_0_0
f 1//1 2//1 3//1
f 2//1 1//1 4//1
f 2//1 4//1 5//1
f 6//1 7//1 8//1
f 7//1 6//1 9//1
f 3//1 10//1 11//1
f 10//1 3//1 2//1
f 10//1 2//1 8//1
f 10//1 8//1 7//1
f 11//1 10//1 12//1
f 13//2 14//2 15//2
f 16//2 17//2 14//2
f 17//2 18//2 14//2
f 18//2 19//2 14//2
f 15//2 14//2 19//2
f 20//2 21//2 16//2
f 17//2 16//2 21//2
f 22//2 23//2 18//2
f 23//2 24//2 18//2
f 19//2 18//2 24//2
