# SSTK version 0.8.0
# 152
mtllib original-152.mtl
o #ID806
v -0.016552 0.291398 0.714606
v -0.016552 0.290659 0.714606
v -0.016482 0.291026 0.714606
v -0.016762 0.291709 0.714606
v -0.016762 0.290348 0.714606
v -0.017070 0.291918 0.714606
v -0.017070 0.290134 0.714606
v -0.017436 0.291988 0.714606
v -0.017436 0.290063 0.714606
v -0.017808 0.291918 0.714606
v -0.017808 0.290134 0.714606
v -0.018118 0.291709 0.714606
v -0.018118 0.290348 0.714606
v -0.018328 0.291398 0.714606
v -0.018328 0.290659 0.714606
v -0.018398 0.291026 0.714606
v -0.018398 0.291026 0.714606
v -0.018328 0.291398 0.714606
v -0.018328 0.290659 0.714606
v -0.018118 0.290348 0.714606
v -0.018118 0.291709 0.714606
v -0.017808 0.290134 0.714606
v -0.017808 0.291918 0.714606
v -0.017436 0.290063 0.714606
v -0.017436 0.291988 0.714606
v -0.017070 0.290134 0.714606
v -0.017070 0.291918 0.714606
v -0.016762 0.290348 0.714606
v -0.016762 0.291709 0.714606
v -0.016552 0.290659 0.714606
v -0.016552 0.291398 0.714606
v -0.016482 0.291026 0.714606
vn 0 0 1
vn 0 0 -1
usemtl material_0_0
f 1//1 2//1 3//1
f 2//1 1//1 4//1
f 2//1 4//1 5//1
f 5//1 4//1 6//1
f 5//1 6//1 7//1
f 7//1 6//1 8//1
f 7//1 8//1 9//1
f 9//1 8//1 10//1
f 9//1 10//1 11//1
f 11//1 10//1 12//1
f 11//1 12//1 13//1
f 13//1 12//1 14//1
f 13//1 14//1 15//1
f 15//1 14//1 16//1
usemtl material_1_0
f 17//2 18//2 19//2
f 19//2 18//2 20//2
f 18//2 21//2 20//2
f 20//2 21//2 22//2
f 21//2 23//2 22//2
f 22//2 23//2 24//2
f 23//2 25//2 24//2
f 24//2 25//2 26//2
f 25//2 27//2 26//2
f 26//2 27//2 28//2
f 27//2 29//2 28//2
f 28//2 29//2 30//2
f 29//2 31//2 30//2
f 32//2 30//2 31//2
