# SSTK version 0.8.0
# 34
mtllib original-34.mtl
o RB_31_CR1/RB_31_CR/mesh22/mesh22-geometry#mesh22-geometry
v -0.783156 0.078090 0.208281
v 0.766729 0.077069 0.209053
v 0.766729 0.078090 0.208281
v -0.783156 0.077069 0.209053
v 0.766729 0.078090 0.189779
v 0.766729 0.009746 0.209053
v -0.783156 0.078090 0.189779
v -0.783156 0.009746 0.209053
v -0.783156 0.077069 0.189008
v 0.766729 0.008727 0.208281
v 0.766729 0.077069 0.189008
v -0.783156 0.008727 0.208281
v -0.783156 0.009746 0.189008
v -0.783156 0.008727 0.194019
v 0.766729 0.009746 0.189008
v 0.766729 0.008727 0.194019
v -0.783156 0.008727 0.189779
v 0.766729 0.004361 0.194019
v 0.766729 0.008727 0.189779
v -0.783156 0.004361 0.194019
v 0.766729 0.008727 0.190163
v -0.783156 0.008727 0.190163
v -0.783156 0.004361 0.190163
v 0.766729 0.004361 0.190163
vt -3.268563 -0.701104
vt -2.540369 -0.705459
vt -2.540369 -0.701104
vt -3.268563 -0.705459
vt -2.540369 -0.638123
vt -2.540369 -0.934627
vt -3.268563 -0.638123
vt -3.268563 -0.934627
vt -3.268563 -0.63377
vt -2.540369 -0.938979
vt -2.540369 -0.63377
vt -3.268563 -0.938979
vt -3.268563 -0.404602
vt -3.268563 -0.987527
vt -2.540369 -0.404602
vt -2.540369 -0.987527
vt -0.708844 0.250972
vt -0.706669 1.707361
vt -0.708844 1.707361
vt -0.706669 0.250972
vt -0.03215 0.250972
vt -0.032804 1.707361
vt -0.032804 0.250972
vt -0.03215 1.707361
vt 0.756102 0.774754
vt 0.748749 0.007826
vt 0.756102 0.007826
vt 0.748749 0.774754
vn 0 0.8953241847944832 0.44541509193346174
vn 0 0.3181339268177524 0.9480457819153656
vn 0 0.8951868959569091 -0.4456909481995726
vn 0 -0.3183548696641104 0.9479716118962356
vn 0 0.31784100857900566 -0.9481440255918298
vn 0 -0.8954281407523604 0.4452060699819476
vn 0 -0.31806197443672407 -0.9480699238017273
vn 0 -1 0
vn 0 -0.8952905174519705 -0.4454827598915394
vn 0 -0.8953241847944832 -0.44541509193346174
vn 0 -0.3181339268177524 -0.9480457819153656
vn 0 -0.8951868959569091 0.4456909481995726
vn 0 0.3183548696641104 -0.9479716118962356
vn 0 -0.31784100857900566 0.9481440255918298
vn 0 0.8954281407523604 -0.4452060699819476
vn 0 0.31806197443672407 0.9480699238017273
vn 0 1 0
vn 0 0.8952905174519705 0.4454827598915394
vn 0 -9.999999999995e-7 1
vn 0 9.999999999995e-7 -1
vn 0 0 -1
vn 0 0 1
usemtl material_0_0
f 1/1/1 2/2/2 3/3/1
f 2/2/2 1/1/1 4/4/2
f 5/5/3 1/1/1 3/3/1
f 4/4/2 6/6/4 2/2/2
f 1/1/1 5/5/3 7/7/3
f 6/6/4 4/4/2 8/8/4
f 5/5/3 9/9/5 7/7/3
f 8/8/4 10/10/6 6/6/4
f 9/9/5 5/5/3 11/11/5
f 10/10/6 8/8/4 12/12/6
f 11/11/5 13/13/7 9/9/5
f 14/14/8 10/10/6 12/12/6
f 13/13/7 11/11/5 15/15/7
f 10/10/6 14/14/8 16/16/8
f 15/17/7 17/18/9 13/19/7
f 17/18/9 15/17/7 19/20/9
f 21/21/8 17/22/9 19/23/9
f 17/22/9 21/21/8 22/24/8
usemtl material_1_0
f 3//10 2//11 1//10
f 4//11 1//10 2//11
f 3//10 1//10 5//12
f 2//11 6//13 4//11
f 7//12 5//12 1//10
f 8//13 4//11 6//13
f 7//12 9//14 5//12
f 6//13 10//15 8//13
f 11//14 5//12 9//14
f 12//15 8//13 10//15
f 9//14 13//16 11//14
f 12//15 10//15 14//17
f 15//16 11//14 13//16
f 16//17 14//17 10//15
f 13//16 17//18 15//16
f 19//18 15//16 17//18
f 19//18 17//18 21//17
f 22//17 21//17 17//18
usemtl material_2_0
f 14/25/19 18/26/19 16/27/19
f 16/27/20 18/26/20 14/25/20
f 18/26/19 14/25/19 20/28/19
f 20/28/20 14/25/20 18/26/20
f 21/27/21 23/28/21 22/25/21
f 22/25/22 23/28/22 21/27/22
f 23/28/21 21/27/21 24/26/21
f 24/26/22 21/27/22 23/28/22
