# SSTK version 0.8.0
# 18
mtllib original-18.mtl
o Group_10/mesh73/mesh73-geometry#mesh73-geometry
v 0.162060 -0.004903 0.507124
v 0.161029 -0.004214 0.513015
v 0.161029 -0.004214 0.507124
v 0.162060 -0.004903 0.513015
v 0.160339 -0.003182 0.507124
v 0.163277 -0.005145 0.507124
v 0.160339 -0.003182 0.513015
v 0.163277 -0.005145 0.513015
v 0.160097 -0.001965 0.513015
v 0.394238 -0.005145 0.507124
v 0.160097 -0.001965 0.507124
v 0.394238 -0.005145 0.513015
v 0.160097 0.054180 0.507124
v 0.397176 -0.003182 0.507124
v 0.395455 -0.004903 0.507124
v 0.157563 -0.005264 0.513015
v 0.160097 0.054180 0.513015
v 0.397418 0.054180 0.507124
v 0.396486 -0.004214 0.507124
v 0.397418 -0.001965 0.507124
v 0.395455 -0.004903 0.513015
v 0.158611 -0.006631 0.513015
v 0.156679 0.054180 0.513015
v 0.160339 0.055396 0.507124
v 0.397176 -0.003182 0.513015
v 0.397418 -0.001965 0.513015
v 0.396486 -0.004214 0.513015
v 0.397537 -0.007679 0.513015
v 0.158611 -0.006631 0.503589
v 0.156679 -0.001965 0.513015
v 0.159978 0.059893 0.513015
v 0.160339 0.055396 0.513015
v 0.397176 0.055396 0.507124
v 0.159978 -0.007679 0.513015
v 0.157563 -0.005264 0.503589
v 0.156679 -0.001965 0.503589
v 0.156904 0.055887 0.513015
v 0.161029 0.056428 0.507124
v 0.397418 0.054180 0.513015
v 0.397176 0.055396 0.513015
v 0.161569 -0.008338 0.513015
v 0.399952 -0.005264 0.503589
v 0.156904 -0.003673 0.513015
v 0.159978 -0.007679 0.503589
v 0.156679 0.054180 0.503589
v 0.156904 -0.003673 0.503589
v 0.157563 0.057478 0.513015
v 0.161029 0.056428 0.513015
v 0.400836 -0.001965 0.513015
v 0.396486 0.056428 0.507124
v 0.396486 0.056428 0.513015
v 0.394238 -0.008563 0.513015
v 0.398904 -0.006631 0.503589
v 0.397537 -0.007679 0.503589
v 0.400836 -0.001965 0.503589
v 0.156904 0.055887 0.503589
v 0.158611 0.058845 0.513015
v 0.162060 0.057117 0.513015
v 0.400611 -0.003673 0.513015
v 0.400836 0.054180 0.513015
v 0.162060 0.057117 0.507124
v 0.163277 -0.008563 0.513015
v 0.161569 -0.008338 0.503589
v 0.399952 -0.005264 0.513015
v 0.400611 -0.003673 0.503589
v 0.400836 0.054180 0.503589
v 0.400611 0.055887 0.503589
v 0.157563 0.057478 0.503589
v 0.158611 0.058845 0.503589
v 0.159978 0.059893 0.503589
v 0.399952 0.057478 0.513015
v 0.395455 0.057117 0.507124
v 0.163277 -0.008563 0.503589
v 0.398904 -0.006631 0.513015
v 0.395946 -0.008338 0.503589
v 0.161569 0.060553 0.503589
v 0.163277 0.057359 0.513015
v 0.394238 0.057359 0.507124
v 0.395455 0.057117 0.513015
v 0.394238 -0.008563 0.503589
v 0.395946 -0.008338 0.513015
v 0.399952 0.057478 0.503589
v 0.161569 0.060553 0.513015
v 0.163277 0.057359 0.507124
v 0.400611 0.055887 0.513015
v 0.163277 0.060777 0.503589
v 0.394238 0.057359 0.513015
v 0.398904 0.058845 0.503589
v 0.163277 0.060777 0.513015
v 0.398904 0.058845 0.513015
v 0.397537 0.059893 0.503589
v 0.394238 0.060777 0.503589
v 0.395946 0.060553 0.513015
v 0.397537 0.059893 0.513015
v 0.395946 0.060553 0.503589
v 0.394238 0.060777 0.513015
vn -0.5555698928305779 -0.8314698396094833 0
vn 0.5555698928305779 0.8314698396094833 0
vn -0.8314698396094833 -0.5555698928305779 0
vn 0.8314698396094833 0.5555698928305779 0
vn -0.19509006590875128 -0.9807853313461203 0
vn 0.19509006590875128 0.9807853313461203 0
vn -0.9807853313461203 -0.19509006590875128 0
vn 0.9807853313461203 0.19509006590875128 0
vn 0 -1 0
vn 0 1 0
vn 0 0 -1
vn 0 0 1
vn -1 0 0
vn 1 0 0
vn 0.19509006590875128 -0.9807853313461203 0
vn -0.19509006590875128 0.9807853313461203 0
vn -0.9807853313461203 0.19509006590875128 0
vn 0.9807853313461203 -0.19509006590875128 0
vn 0.8314698396094833 -0.5555698928305779 0
vn -0.8314698396094833 0.5555698928305779 0
vn 0.5555698928305779 -0.8314698396094833 0
vn -0.5555698928305779 0.8314698396094833 0
vn 0.7933534213778813 0.6087613233345314 0
vn -0.7933534213778813 -0.6087613233345314 0
vn 0.6087613233345314 0.7933534213778813 0
vn -0.6087613233345314 -0.7933534213778813 0
vn 0.9238797538373538 0.38268289803626016 0
vn -0.9238797538373538 -0.38268289803626016 0
vn 0.9914448886106773 0.1305259853353411 0
vn -0.9914448886106773 -0.1305259853353411 0
vn 0.9914448886106773 -0.1305259853353411 0
vn -0.9914448886106773 0.1305259853353411 0
vn 0.38268289803626016 0.9238797538373538 0
vn -0.38268289803626016 -0.9238797538373538 0
vn 0.9238797538373538 -0.38268289803626016 0
vn -0.9238797538373538 0.38268289803626016 0
vn -0.7933534213778813 0.6087613233345314 0
vn 0.7933534213778813 -0.6087613233345314 0
vn 0.6087613233345314 -0.7933534213778813 0
vn -0.6087613233345314 0.7933534213778813 0
vn 0.1305259853353411 0.9914448886106773 0
vn -0.1305259853353411 -0.9914448886106773 0
vn 0.38268289803626016 -0.9238797538373538 0
vn -0.38268289803626016 0.9238797538373538 0
vn -0.1305259853353411 0.9914448886106773 0
vn 0.1305259853353411 -0.9914448886106773 0
usemtl material_0_0
f 1//1 2//1 3//1
f 2//1 1//1 4//1
f 3//2 2//2 1//2
f 4//2 1//2 2//2
f 2//3 5//3 3//3
f 3//4 5//4 2//4
f 6//5 4//5 1//5
f 1//6 4//6 6//6
f 5//3 2//3 7//3
f 7//4 2//4 5//4
f 4//5 6//5 8//5
f 8//6 6//6 4//6
f 9//7 5//7 7//7
f 7//8 5//8 9//8
f 10//9 8//9 6//9
f 6//10 8//10 10//10
f 5//7 9//7 11//7
f 11//8 9//8 5//8
f 8//9 10//9 12//9
f 12//10 10//10 8//10
f 5//11 10//11 6//11
f 6//12 10//12 5//12
f 9//13 13//13 11//13
f 11//14 13//14 9//14
f 14//11 5//11 11//11
f 11//12 5//12 14//12
f 15//15 12//15 10//15
f 10//16 12//16 15//16
f 12//11 16//11 8//11
f 8//12 16//12 12//12
f 10//11 5//11 15//11
f 15//12 5//12 10//12
f 13//13 9//13 17//13
f 17//14 9//14 13//14
f 18//11 11//11 13//11
f 13//12 11//12 18//12
f 19//11 5//11 14//11
f 14//12 5//12 19//12
f 14//11 11//11 20//11
f 20//12 11//12 14//12
f 12//15 15//15 21//15
f 21//16 15//16 12//16
f 12//11 22//11 16//11
f 16//12 22//12 12//12
f 15//11 5//11 19//11
f 19//12 5//12 15//12
f 9//11 23//11 17//11
f 17//12 23//12 9//12
f 17//17 24//17 13//17
f 13//18 24//18 17//18
f 20//11 11//11 18//11
f 18//12 11//12 20//12
f 18//11 13//11 24//11
f 24//12 13//12 18//12
f 25//19 19//19 14//19
f 14//20 19//20 25//20
f 26//18 14//18 20//18
f 20//17 14//17 26//17
f 15//21 27//21 21//21
f 21//22 27//22 15//22
f 28//11 22//11 12//11
f 12//12 22//12 28//12
f 29//23 16//23 22//23
f 22//24 16//24 29//24
f 27//21 15//21 19//21
f 19//22 15//22 27//22
f 9//11 30//11 23//11
f 23//12 30//12 9//12
f 17//11 23//11 31//11
f 31//12 23//12 17//12
f 24//17 17//17 32//17
f 32//18 17//18 24//18
f 18//14 26//14 20//14
f 20//13 26//13 18//13
f 18//11 24//11 33//11
f 33//12 24//12 18//12
f 19//19 25//19 27//19
f 27//20 25//20 19//20
f 14//18 26//18 25//18
f 25//17 26//17 14//17
f 28//11 34//11 22//11
f 22//12 34//12 28//12
f 16//23 29//23 35//23
f 35//24 29//24 16//24
f 34//25 29//25 22//25
f 22//26 29//26 34//26
f 30//11 9//11 16//11
f 16//12 9//12 30//12
f 36//14 23//14 30//14
f 30//13 23//13 36//13
f 31//11 23//11 37//11
f 37//12 23//12 31//12
f 32//20 38//20 24//20
f 24//19 38//19 32//19
f 26//14 18//14 39//14
f 39//13 18//13 26//13
f 33//11 24//11 38//11
f 38//12 24//12 33//12
f 40//8 18//8 33//8
f 33//7 18//7 40//7
f 28//11 41//11 34//11
f 34//12 41//12 28//12
f 29//12 42//12 35//12
f 35//11 42//11 29//11
f 35//27 43//27 16//27
f 16//28 43//28 35//28
f 29//25 34//25 44//25
f 44//26 34//26 29//26
f 23//14 36//14 45//14
f 45//13 36//13 23//13
f 30//29 46//29 36//29
f 36//30 46//30 30//30
f 45//31 37//31 23//31
f 23//32 37//32 45//32
f 31//11 37//11 47//11
f 47//12 37//12 31//12
f 38//20 32//20 48//20
f 48//19 32//19 38//19
f 18//8 40//8 39//8
f 39//7 40//7 18//7
f 49//11 26//11 39//11
f 39//12 26//12 49//12
f 33//11 38//11 50//11
f 50//12 38//12 33//12
f 33//4 51//4 40//4
f 40//3 51//3 33//3
f 52//11 41//11 28//11
f 28//12 41//12 52//12
f 41//33 44//33 34//33
f 34//34 44//34 41//34
f 29//12 53//12 42//12
f 42//11 53//11 29//11
f 35//12 42//12 46//12
f 46//11 42//11 35//11
f 43//27 35//27 46//27
f 46//28 35//28 43//28
f 44//12 54//12 29//12
f 29//11 54//11 44//11
f 36//12 55//12 45//12
f 45//11 55//11 36//11
f 46//29 30//29 43//29
f 43//30 30//30 46//30
f 46//12 55//12 36//12
f 36//11 55//11 46//11
f 37//31 45//31 56//31
f 56//32 45//32 37//32
f 56//35 47//35 37//35
f 37//36 47//36 56//36
f 31//11 47//11 57//11
f 57//12 47//12 31//12
f 58//22 38//22 48//22
f 48//21 38//21 58//21
f 59//11 26//11 49//11
f 49//12 26//12 59//12
f 49//11 39//11 60//11
f 60//12 39//12 49//12
f 50//11 38//11 61//11
f 61//12 38//12 50//12
f 51//4 33//4 50//4
f 50//3 33//3 51//3
f 41//11 52//11 62//11
f 62//12 52//12 41//12
f 44//33 41//33 63//33
f 63//34 41//34 44//34
f 29//12 54//12 53//12
f 53//11 54//11 29//11
f 53//37 64//37 42//37
f 42//38 64//38 53//38
f 46//12 42//12 65//12
f 65//11 42//11 46//11
f 63//12 54//12 44//12
f 44//11 54//11 63//11
f 45//12 55//12 66//12
f 66//11 55//11 45//11
f 46//12 65//12 55//12
f 55//11 65//11 46//11
f 45//12 67//12 56//12
f 56//11 67//11 45//11
f 47//35 56//35 68//35
f 68//36 56//36 47//36
f 47//38 69//38 57//38
f 57//37 69//37 47//37
f 57//39 70//39 31//39
f 31//40 70//40 57//40
f 38//22 58//22 61//22
f 61//21 58//21 38//21
f 64//11 26//11 59//11
f 59//12 26//12 64//12
f 55//32 59//32 49//32
f 49//31 59//31 55//31
f 60//11 39//11 71//11
f 71//12 39//12 60//12
f 66//13 49//13 60//13
f 60//14 49//14 66//14
f 50//11 61//11 72//11
f 72//12 61//12 50//12
f 72//2 51//2 50//2
f 50//1 51//1 72//1
f 52//10 73//10 62//10
f 62//9 73//9 52//9
f 62//41 63//41 41//41
f 41//42 63//42 62//42
f 54//40 74//40 53//40
f 53//39 74//39 54//39
f 64//37 53//37 74//37
f 74//38 53//38 64//38
f 64//36 65//36 42//36
f 42//35 65//35 64//35
f 63//12 75//12 54//12
f 54//11 75//11 63//11
f 49//13 66//13 55//13
f 55//14 66//14 49//14
f 45//12 66//12 67//12
f 67//11 66//11 45//11
f 59//32 55//32 65//32
f 65//31 55//31 59//31
f 56//12 67//12 68//12
f 68//11 67//11 56//11
f 69//38 47//38 68//38
f 68//37 47//37 69//37
f 70//39 57//39 69//39
f 69//40 57//40 70//40
f 76//43 31//43 70//43
f 70//44 31//44 76//44
f 77//16 61//16 58//16
f 58//15 61//15 77//15
f 74//11 26//11 64//11
f 64//12 26//12 74//12
f 65//36 64//36 59//36
f 59//35 64//35 65//35
f 60//30 67//30 66//30
f 66//29 67//29 60//29
f 72//11 61//11 78//11
f 78//12 61//12 72//12
f 51//2 72//2 79//2
f 79//1 72//1 51//1
f 73//10 52//10 80//10
f 80//9 52//9 73//9
f 63//41 62//41 73//41
f 73//42 62//42 63//42
f 74//40 54//40 28//40
f 28//39 54//39 74//39
f 73//12 75//12 63//12
f 63//11 75//11 73//11
f 81//44 54//44 75//44
f 75//43 54//43 81//43
f 68//12 67//12 82//12
f 82//11 67//11 68//11
f 31//43 76//43 83//43
f 83//44 76//44 31//44
f 61//16 77//16 84//16
f 84//15 77//15 61//15
f 26//11 74//11 28//11
f 28//12 74//12 26//12
f 67//30 60//30 85//30
f 85//29 60//29 67//29
f 78//11 61//11 84//11
f 84//12 61//12 78//12
f 78//6 79//6 72//6
f 72//5 79//5 78//5
f 81//45 80//45 52//45
f 52//46 80//46 81//46
f 75//12 73//12 80//12
f 80//11 73//11 75//11
f 54//44 81//44 28//44
f 28//43 81//43 54//43
f 80//45 81//45 75//45
f 75//46 81//46 80//46
f 67//28 71//28 82//28
f 82//27 71//27 67//27
f 68//12 82//12 86//12
f 86//11 82//11 68//11
f 86//46 83//46 76//46
f 76//45 83//45 86//45
f 83//11 32//11 31//11
f 31//12 32//12 83//12
f 87//10 84//10 77//10
f 77//9 84//9 87//9
f 71//28 67//28 85//28
f 85//27 67//27 71//27
f 84//10 87//10 78//10
f 78//9 87//9 84//9
f 79//6 78//6 87//6
f 87//5 78//5 79//5
f 71//24 88//24 82//24
f 82//23 88//23 71//23
f 86//12 82//12 88//12
f 88//11 82//11 86//11
f 83//46 86//46 89//46
f 89//45 86//45 83//45
f 77//11 71//11 87//11
f 87//12 71//12 77//12
f 88//24 71//24 90//24
f 90//23 71//23 88//23
f 86//12 88//12 91//12
f 91//11 88//11 86//11
f 92//9 89//9 86//9
f 86//10 89//10 92//10
f 93//11 83//11 89//11
f 89//12 83//12 93//12
f 71//11 77//11 83//11
f 83//12 77//12 71//12
f 71//11 83//11 90//11
f 90//12 83//12 71//12
f 94//26 88//26 90//26
f 90//25 88//25 94//25
f 88//26 94//26 91//26
f 91//25 94//25 88//25
f 86//12 91//12 95//12
f 95//11 91//11 86//11
f 89//9 92//9 96//9
f 96//10 92//10 89//10
f 86//12 95//12 92//12
f 92//11 95//11 86//11
f 94//11 83//11 93//11
f 93//12 83//12 94//12
f 93//11 89//11 96//11
f 96//12 89//12 93//12
f 90//11 83//11 94//11
f 94//12 83//12 90//12
f 93//34 91//34 94//34
f 94//33 91//33 93//33
f 91//34 93//34 95//34
f 95//33 93//33 91//33
f 95//42 96//42 92//42
f 92//41 96//41 95//41
f 96//42 95//42 93//42
f 93//41 95//41 96//41
