# SSTK version 0.8.0
# 41
mtllib original-41.mtl
o mesh72/mesh72-geometry#mesh72-geometry
v 0.395752 -0.290627 0.217930
v 0.395968 -0.293324 0.217930
v 0.395859 -0.295375 0.217930
v 0.396326 -0.290223 0.217930
v 0.395859 -0.295375 0.219123
v 0.395738 -0.299486 0.217930
v 0.395752 -0.290627 0.219123
v 0.396105 -0.292568 0.217930
v 0.395968 -0.293324 0.219123
v 0.395971 -0.297083 0.219123
v 0.395282 -0.291191 0.217930
v 0.395971 -0.297083 0.217930
v 0.396326 -0.290223 0.219123
v 0.396296 -0.291990 0.217930
v 0.395738 -0.299486 0.219123
v 0.395273 -0.298923 0.217930
v 0.396306 -0.299888 0.217930
v 0.397005 -0.289981 0.217930
v 0.395282 -0.291191 0.219123
v 0.396555 -0.291563 0.217930
v 0.396105 -0.292568 0.219123
v 0.396111 -0.297726 0.219123
v 0.396306 -0.299888 0.219123
v 0.394916 -0.291917 0.217930
v 0.395273 -0.298923 0.219123
v 0.396111 -0.297726 0.217930
v 0.397005 -0.289981 0.219123
v 0.396296 -0.291990 0.219123
v 0.394911 -0.298199 0.217930
v 0.394911 -0.298199 0.219123
v 0.396307 -0.298229 0.217930
v 0.396977 -0.300129 0.219123
v 0.396555 -0.291563 0.219123
v 0.397788 -0.289901 0.217930
v 0.396894 -0.291258 0.217930
v 0.394916 -0.291917 0.219123
v 0.396307 -0.298229 0.219123
v 0.394655 -0.292804 0.217930
v 0.396977 -0.300129 0.217930
v 0.396894 -0.291258 0.219123
v 0.397788 -0.289901 0.219123
v 0.397315 -0.291076 0.217930
v 0.394653 -0.297314 0.217930
v 0.394653 -0.297314 0.219123
v 0.394655 -0.292804 0.219123
v 0.396567 -0.298608 0.219123
v 0.396567 -0.298608 0.217930
v 0.397752 -0.300209 0.219123
v 0.397315 -0.291076 0.219123
v 0.398575 -0.289981 0.217930
v 0.397817 -0.291015 0.217930
v 0.394499 -0.293853 0.217930
v 0.396899 -0.298879 0.217930
v 0.397752 -0.300209 0.217930
v 0.397304 -0.299041 0.219123
v 0.396899 -0.298879 0.219123
v 0.397817 -0.291015 0.219123
v 0.398575 -0.289981 0.219123
v 0.394498 -0.296269 0.217930
v 0.394498 -0.296269 0.219123
v 0.394499 -0.293853 0.219123
v 0.397304 -0.299041 0.217930
v 0.398547 -0.300128 0.219123
v 0.397781 -0.299096 0.219123
v 0.399256 -0.290221 0.217930
v 0.398309 -0.291069 0.217930
v 0.398309 -0.291069 0.219123
v 0.394446 -0.295062 0.217930
v 0.397781 -0.299096 0.217930
v 0.398547 -0.300128 0.217930
v 0.399256 -0.290221 0.219123
v 0.398721 -0.291234 0.217930
v 0.394446 -0.295062 0.219123
v 0.399236 -0.299885 0.219123
v 0.398271 -0.299036 0.219123
v 0.398271 -0.299036 0.217930
v 0.398721 -0.291234 0.219123
v 0.399833 -0.290620 0.217930
v 0.399053 -0.291508 0.217930
v 0.399236 -0.299885 0.217930
v 0.398684 -0.298856 0.219123
v 0.399053 -0.291508 0.219123
v 0.399833 -0.290620 0.219123
v 0.399306 -0.291892 0.217930
v 0.398684 -0.298856 0.217930
v 0.399819 -0.299479 0.219123
v 0.399022 -0.298557 0.219123
v 0.399306 -0.291892 0.219123
v 0.400305 -0.291180 0.219123
v 0.399492 -0.292412 0.217930
v 0.399022 -0.298557 0.217930
v 0.399819 -0.299479 0.217930
v 0.399284 -0.298138 0.219123
v 0.399492 -0.292412 0.219123
v 0.400305 -0.291180 0.217930
v 0.400296 -0.298912 0.219123
v 0.399625 -0.293094 0.217930
v 0.399284 -0.298138 0.217930
v 0.400296 -0.298912 0.217930
v 0.399480 -0.297580 0.219123
v 0.399625 -0.293094 0.219123
v 0.400672 -0.291900 0.219123
v 0.400667 -0.298182 0.219123
v 0.399732 -0.294946 0.217930
v 0.399480 -0.297580 0.217930
v 0.399620 -0.296861 0.219123
v 0.399732 -0.294946 0.219123
v 0.400672 -0.291900 0.217930
v 0.400667 -0.298182 0.217930
v 0.399620 -0.296861 0.217930
v 0.400934 -0.292780 0.219123
v 0.400932 -0.297290 0.219123
v 0.400932 -0.297290 0.217930
v 0.400934 -0.292780 0.217930
v 0.401092 -0.293819 0.219123
v 0.401091 -0.296235 0.219123
v 0.401091 -0.296235 0.217930
v 0.401092 -0.293819 0.217930
v 0.401144 -0.295019 0.219123
v 0.401144 -0.295019 0.217930
vn 0 0 -1
vn 0 0 1
vn 0.9932988744087882 -0.11557398538699956 0
vn 0.9999811438762973 0.006141000883561129 0
vn -0.9999811438762973 -0.006141000883561129 0
vn -0.9932988744087882 0.11557398538699956 0
vn -0.6775217549089207 0.7355027339345084 0
vn -0.45936483629870895 0.8882476834601148 0
vn 0.6775217549089207 -0.7355027339345084 0
vn 0.45936483629870895 -0.8882476834601148 0
vn 0.9902434633582956 0.13934806520424964 0
vn -0.9902434633582956 -0.13934806520424964 0
vn -0.836290927043237 0.5482859521683581 0
vn 0.836290927043237 -0.5482859521683581 0
vn 0.9691471081093351 -0.24648302749542977 0
vn -0.9691471081093351 0.24648302749542977 0
vn -0.22068291104218474 0.9753456068358267 0
vn 0.22068291104218474 -0.9753456068358267 0
vn 0.9079451303146501 -0.4190890601505999 0
vn -0.9079451303146501 0.4190890601505999 0
vn 0.9574783564170759 0.288505107394748 0
vn -0.9574783564170759 -0.288505107394748 0
vn -0.6803932177741725 -0.7328472345631848 0
vn -0.838272884515344 -0.5452509248835115 0
vn 0.838272884515344 0.5452509248835115 0
vn 0.6803932177741725 0.7328472345631848 0
vn -0.4622078115930414 -0.8867716385306712 0
vn 0.4622078115930414 0.8867716385306712 0
vn -0.9300211299811574 0.36750605136320064 0
vn 0.9300211299811574 -0.36750605136320064 0
vn 0.7696690639556535 -0.6384430530514276 0
vn -0.7696690639556535 0.6384430530514276 0
vn -0.9310192424090462 -0.36497009502709354 0
vn 0.9310192424090462 0.36497009502709354 0
vn -0.2223459616742299 -0.9749678319448092 0
vn 0.2223459616742299 0.9749678319448092 0
vn -0.0006499998626875435 0.999999788750067 0
vn 0.0006499998626875435 -0.999999788750067 0
vn 0.8840881882471499 0.4673200995055448 0
vn -0.8840881882471499 -0.4673200995055448 0
vn 0.5400870873725955 -0.8416091361513288 0
vn -0.5400870873725955 0.8416091361513288 0
vn -0.9764952218861048 0.215539048976297 0
vn 0.9764952218861048 -0.215539048976297 0
vn -0.9768575545310775 -0.21389090246095815 0
vn 0.9768575545310775 0.21389090246095815 0
vn 0.7355669912493273 0.6774519919406925 0
vn -0.7355669912493273 -0.6774519919406925 0
vn -0.000897999637924823 -0.9999995967982439 0
vn 0.000897999637924823 0.9999995967982439 0
vn 0.21807690769318927 0.975931586911181 0
vn -0.21807690769318927 -0.975931586911181 0
vn 0.2623248942798099 -0.9649796111012329 0
vn -0.2623248942798099 0.9649796111012329 0
vn 0.004914999613265729 -0.9999879213164534 0
vn -0.004914999613265729 0.9999879213164534 0
vn -0.9954227143988307 0.09556997257959306 0
vn 0.9954227143988307 -0.09556997257959306 0
vn -0.9954956748388121 -0.09480696903296773 0
vn 0.9954956748388121 0.09480696903296773 0
vn 0.5077722165483939 0.861491367398148 0
vn -0.5077722165483939 -0.861491367398148 0
vn 0.21875093875390197 -0.9757807267999745 0
vn -0.21875093875390197 0.9757807267999745 0
vn 0.4548862742062111 0.8905495368247585 0
vn -0.4548862742062111 -0.8905495368247585 0
vn -0.242993009861507 -0.9700280393671337 0
vn 0.242993009861507 0.9700280393671337 0
vn 0.24482506755777295 0.9695672675453375 0
vn -0.24482506755777295 -0.9695672675453375 0
vn -0.004269999502585652 0.9999908835105688 0
vn 0.004269999502585652 -0.9999908835105688 0
vn -0.9999999848620004 0.00017399999736598807 0
vn 0.9999999848620004 -0.00017399999736598807 0
vn 0.4560480728926775 -0.8899551422464365 0
vn -0.4560480728926775 0.8899551422464365 0
vn -0.2623010269124802 0.9649860990090263 0
vn 0.2623010269124802 -0.9649860990090263 0
vn 0.6729662072450225 0.7396732277879531 0
vn -0.6729662072450225 -0.7396732277879531 0
vn -0.5096291139334618 -0.8603941923510376 0
vn 0.5096291139334618 0.8603941923510376 0
vn -0.744006911599708 -0.6681719206101556 0
vn 0.744006911599708 0.6681719206101556 0
vn 0.6741518183993671 -0.7385928010404831 0
vn -0.6741518183993671 0.7385928010404831 0
vn -0.5371138471653508 0.843509759981019 0
vn 0.5371138471653508 -0.843509759981019 0
vn 0.8331228879978824 0.5530879256448001 0
vn -0.8331228879978824 -0.5530879256448001 0
vn -0.894597925753743 -0.44687196291230996 0
vn 0.894597925753743 0.44687196291230996 0
vn -0.7633010097511703 0.6460430082531995 0
vn 0.7633010097511703 -0.6460430082531995 0
vn -0.9641956513083477 -0.2651919040960171 0
vn 0.9641956513083477 0.2651919040960171 0
vn 0.8339500049620024 -0.551840003283448 0
vn -0.8339500049620024 0.551840003283448 0
vn -0.9013040552567 0.4331870265576144 0
vn 0.9013040552567 -0.4331870265576144 0
vn 0.9284172996885106 0.3715391199309896 0
vn -0.9284172996885106 -0.3715391199309896 0
vn -0.9921928602903254 -0.1247129824392909 0
vn 0.9921928602903254 0.1247129824392909 0
vn -0.9651310919528691 0.26176702493985454 0
vn 0.9651310919528691 -0.26176702493985454 0
vn 0.9288372179456413 -0.3704880869326316 0
vn -0.9288372179456413 0.3704880869326316 0
vn -0.999999890488018 0.0004679999487483924 0
vn 0.999999890488018 -0.0004679999487483924 0
vn -0.9921500618560936 0.12505300779649253 0
vn 0.9921500618560936 -0.12505300779649253 0
vn 0.9759110036684495 0.2181690008200973 0
vn -0.9759110036684495 -0.2181690008200973 0
vn 0.9760641037629402 -0.21748302312007772 0
vn -0.9760641037629402 0.21748302312007772 0
vn 0.9953051162546304 0.09678701130501395 0
vn -0.9953051162546304 -0.09678701130501395 0
vn 0.9953358936005893 -0.0964699896875516 0
vn -0.9953358936005893 0.0964699896875516 0
vn 0.9999999973355 0.0000729999998054915 0
vn -0.9999999973355 -0.0000729999998054915 0
usemtl material_0_0
f 1//1 2//1 3//1
f 2//1 1//1 4//1
f 3//2 2//2 1//2
f 4//2 1//2 2//2
f 2//3 5//4 3//4
f 3//5 5//5 2//6
f 6//1 1//1 3//1
f 3//2 1//2 6//2
f 7//7 4//8 1//7
f 1//9 4//10 7//9
f 2//1 4//1 8//1
f 8//2 4//2 2//2
f 5//4 2//3 9//3
f 9//6 2//6 5//5
f 10//11 3//4 5//4
f 5//5 3//5 10//12
f 6//1 11//1 1//1
f 1//2 11//2 6//2
f 6//1 3//1 12//1
f 12//2 3//2 6//2
f 4//8 7//7 13//8
f 13//10 7//9 4//10
f 11//13 7//7 1//7
f 1//9 7//9 11//14
f 8//1 4//1 14//1
f 14//2 4//2 8//2
f 8//15 9//3 2//3
f 2//6 9//6 8//16
f 9//2 7//2 5//2
f 5//1 7//1 9//1
f 3//4 10//11 12//11
f 12//12 10//12 3//5
f 5//2 15//2 10//2
f 10//1 15//1 5//1
f 16//1 11//1 6//1
f 6//2 11//2 16//2
f 6//1 12//1 17//1
f 17//2 12//2 6//2
f 7//2 9//2 13//2
f 13//1 9//1 7//1
f 13//8 18//17 4//8
f 4//10 18//18 13//10
f 7//7 11//13 19//13
f 19//14 11//14 7//9
f 14//1 4//1 20//1
f 20//2 4//2 14//2
f 14//19 21//15 8//15
f 8//16 21//16 14//20
f 9//3 8//15 21//15
f 21//16 8//16 9//6
f 7//2 15//2 5//2
f 5//1 15//1 7//1
f 22//21 12//11 10//11
f 10//12 12//12 22//22
f 10//2 15//2 23//2
f 23//1 15//1 10//1
f 16//1 24//1 11//1
f 11//2 24//2 16//2
f 6//23 25//24 16//24
f 16//25 25//25 6//26
f 17//1 12//1 26//1
f 26//2 12//2 17//2
f 23//27 6//23 17//27
f 17//28 6//26 23//28
f 13//2 9//2 21//2
f 21//1 9//1 13//1
f 18//17 13//8 27//17
f 27//18 13//10 18//18
f 20//1 4//1 18//1
f 18//2 4//2 20//2
f 24//29 19//13 11//13
f 11//14 19//14 24//30
f 19//2 15//2 7//2
f 7//1 15//1 19//1
f 20//31 28//19 14//19
f 14//20 28//20 20//32
f 21//15 14//19 28//19
f 28//20 14//20 21//16
f 12//11 22//21 26//21
f 26//22 22//22 12//12
f 10//2 23//2 22//2
f 22//1 23//1 10//1
f 6//23 23//27 15//23
f 15//26 23//28 6//26
f 29//1 24//1 16//1
f 16//2 24//2 29//2
f 25//24 6//23 15//23
f 15//26 6//26 25//25
f 30//33 16//24 25//24
f 25//25 16//25 30//34
f 17//1 26//1 31//1
f 31//2 26//2 17//2
f 17//27 32//35 23//27
f 23//28 32//36 17//28
f 13//2 21//2 28//2
f 28//1 21//1 13//1
f 13//2 33//2 27//2
f 27//1 33//1 13//1
f 27//17 34//37 18//17
f 18//18 34//38 27//18
f 20//1 18//1 35//1
f 35//2 18//2 20//2
f 19//13 24//29 36//29
f 36//30 24//30 19//14
f 19//2 25//2 15//2
f 15//1 25//1 19//1
f 28//19 20//31 33//31
f 33//32 20//32 28//20
f 37//39 26//21 22//21
f 22//22 26//22 37//40
f 22//2 23//2 37//2
f 37//1 23//1 22//1
f 29//1 38//1 24//1
f 24//2 38//2 29//2
f 16//24 30//33 29//33
f 29//34 30//34 16//25
f 36//2 30//2 25//2
f 25//1 30//1 36//1
f 26//21 37//39 31//39
f 31//40 37//40 26//22
f 17//1 31//1 39//1
f 39//2 31//2 17//2
f 32//35 17//27 39//35
f 39//36 17//28 32//36
f 37//2 23//2 32//2
f 32//1 23//1 37//1
f 13//2 28//2 33//2
f 33//1 28//1 13//1
f 27//2 33//2 40//2
f 40//1 33//1 27//1
f 34//37 27//17 41//37
f 41//38 27//18 34//38
f 42//1 18//1 34//1
f 34//2 18//2 42//2
f 35//1 18//1 42//1
f 42//2 18//2 35//2
f 40//41 20//31 35//41
f 35//42 20//32 40//42
f 38//43 36//29 24//29
f 24//30 36//30 38//44
f 36//2 25//2 19//2
f 19//1 25//1 36//1
f 20//31 40//41 33//31
f 33//32 40//42 20//32
f 43//1 38//1 29//1
f 29//2 38//2 43//2
f 44//45 29//33 30//33
f 30//34 29//34 44//46
f 45//2 30//2 36//2
f 36//1 30//1 45//1
f 46//47 31//39 37//39
f 37//40 31//40 46//48
f 39//1 31//1 47//1
f 47//2 31//2 39//2
f 39//35 48//49 32//35
f 32//36 48//50 39//36
f 37//2 32//2 46//2
f 46//1 32//1 37//1
f 27//2 40//2 49//2
f 49//1 40//1 27//1
f 27//2 49//2 41//2
f 41//1 49//1 27//1
f 41//37 50//51 34//37
f 34//38 50//52 41//38
f 42//1 34//1 51//1
f 51//2 34//2 42//2
f 49//53 35//41 42//53
f 42//54 35//42 49//54
f 35//41 49//53 40//41
f 40//42 49//54 35//42
f 36//29 38//43 45//43
f 45//44 38//44 36//30
f 43//1 52//1 38//1
f 38//2 52//2 43//2
f 29//33 44//45 43//45
f 43//46 44//46 29//34
f 45//2 44//2 30//2
f 30//1 44//1 45//1
f 31//39 46//47 47//47
f 47//48 46//48 31//40
f 39//1 47//1 53//1
f 53//2 47//2 39//2
f 48//49 39//35 54//49
f 54//50 39//36 48//50
f 55//2 32//2 48//2
f 48//1 32//1 55//1
f 46//2 32//2 56//2
f 56//1 32//1 46//1
f 41//2 49//2 57//2
f 57//1 49//1 41//1
f 50//51 41//37 58//51
f 58//52 41//38 50//52
f 51//1 34//1 50//1
f 50//2 34//2 51//2
f 57//55 42//53 51//55
f 51//56 42//54 57//56
f 42//53 57//55 49//53
f 49//54 57//56 42//54
f 52//57 45//43 38//43
f 38//44 45//44 52//58
f 59//1 52//1 43//1
f 43//2 52//2 59//2
f 60//59 43//45 44//45
f 44//46 43//46 60//60
f 61//2 44//2 45//2
f 45//1 44//1 61//1
f 46//47 53//61 47//47
f 47//48 53//62 46//48
f 39//1 53//1 62//1
f 62//2 53//2 39//2
f 39//1 62//1 54//1
f 54//2 62//2 39//2
f 54//49 63//63 48//49
f 48//50 63//64 54//50
f 56//2 32//2 55//2
f 55//1 32//1 56//1
f 55//2 48//2 64//2
f 64//1 48//1 55//1
f 53//61 46//47 56//61
f 56//62 46//48 53//62
f 41//2 57//2 58//2
f 58//1 57//1 41//1
f 58//51 65//65 50//51
f 50//52 65//66 58//52
f 51//1 50//1 66//1
f 66//2 50//2 51//2
f 51//55 67//67 57//55
f 57//56 67//68 51//56
f 45//43 52//57 61//57
f 61//58 52//58 45//44
f 52//1 59//1 68//1
f 68//2 59//2 52//2
f 43//45 60//59 59//59
f 59//60 60//60 43//46
f 61//2 60//2 44//2
f 44//1 60//1 61//1
f 56//61 62//69 53//61
f 53//62 62//70 56//62
f 54//1 62//1 69//1
f 69//2 62//2 54//2
f 63//63 54//49 70//63
f 70//64 54//50 63//64
f 64//2 48//2 63//2
f 63//1 48//1 64//1
f 62//69 56//61 55//69
f 55//70 56//62 62//70
f 69//71 55//69 64//71
f 64//72 55//70 69//72
f 58//2 57//2 67//2
f 67//1 57//1 58//1
f 65//65 58//51 71//65
f 71//66 58//52 65//66
f 72//1 50//1 65//1
f 65//2 50//2 72//2
f 66//1 50//1 72//1
f 72//2 50//2 66//2
f 67//67 51//55 66//67
f 66//68 51//56 67//68
f 68//73 61//57 52//57
f 52//58 61//58 68//74
f 59//59 73//73 68//73
f 68//74 73//74 59//60
f 73//73 59//59 60//59
f 60//60 59//60 73//74
f 60//2 61//2 73//2
f 73//1 61//1 60//1
f 55//69 69//71 62//69
f 62//70 69//72 55//70
f 54//1 69//1 70//1
f 70//2 69//2 54//2
f 70//63 74//75 63//63
f 63//64 74//76 70//64
f 64//2 63//2 75//2
f 75//1 63//1 64//1
f 64//71 76//77 69//71
f 69//72 76//78 64//72
f 58//2 67//2 77//2
f 77//1 67//1 58//1
f 58//2 77//2 71//2
f 71//1 77//1 58//1
f 71//65 78//79 65//65
f 65//66 78//80 71//66
f 72//1 65//1 79//1
f 79//2 65//2 72//2
f 77//81 66//67 72//81
f 72//82 66//68 77//82
f 66//67 77//81 67//67
f 67//68 77//82 66//68
f 61//57 68//73 73//73
f 73//74 68//74 61//58
f 70//1 69//1 76//1
f 76//2 69//2 70//2
f 74//75 70//63 80//75
f 80//76 70//64 74//76
f 81//2 63//2 74//2
f 74//1 63//1 81//1
f 75//2 63//2 81//2
f 81//1 63//1 75//1
f 76//77 64//71 75//77
f 75//78 64//72 76//78
f 71//2 77//2 82//2
f 82//1 77//1 71//1
f 78//79 71//65 83//79
f 83//80 71//66 78//80
f 84//1 65//1 78//1
f 78//2 65//2 84//2
f 79//1 65//1 84//1
f 84//2 65//2 79//2
f 82//83 72//81 79//83
f 79//84 72//82 82//84
f 72//81 82//83 77//81
f 77//82 82//84 72//82
f 70//1 76//1 85//1
f 85//2 76//2 70//2
f 70//1 85//1 80//1
f 80//2 85//2 70//2
f 80//75 86//85 74//75
f 74//76 86//86 80//76
f 81//2 74//2 87//2
f 87//1 74//1 81//1
f 85//87 75//77 81//87
f 81//88 75//78 85//88
f 75//77 85//87 76//77
f 76//78 85//88 75//78
f 71//2 82//2 88//2
f 88//1 82//1 71//1
f 71//2 88//2 83//2
f 83//1 88//1 71//1
f 89//89 78//79 83//79
f 83//80 78//80 89//90
f 84//1 78//1 90//1
f 90//2 78//2 84//2
f 84//91 82//83 79//83
f 79//84 82//84 84//92
f 80//1 85//1 91//1
f 91//2 85//2 80//2
f 86//85 80//75 92//85
f 92//86 80//76 86//86
f 93//2 74//2 86//2
f 86//1 74//1 93//1
f 87//2 74//2 93//2
f 93//1 74//1 87//1
f 91//93 81//87 87//93
f 87//94 81//88 91//94
f 81//87 91//93 85//87
f 85//88 91//94 81//88
f 82//83 84//91 88//91
f 88//92 84//92 82//84
f 83//2 88//2 94//2
f 94//1 88//1 83//1
f 78//79 89//89 95//89
f 95//90 89//90 78//80
f 83//2 96//2 89//2
f 89//1 96//1 83//1
f 90//1 78//1 97//1
f 97//2 78//2 90//2
f 90//95 88//91 84//91
f 84//92 88//92 90//96
f 80//1 91//1 98//1
f 98//2 91//2 80//2
f 80//1 98//1 92//1
f 92//2 98//2 80//2
f 99//97 86//85 92//85
f 92//86 86//86 99//98
f 93//2 86//2 100//2
f 100//1 86//1 93//1
f 93//99 91//93 87//93
f 87//94 91//94 93//100
f 88//91 90//95 94//95
f 94//96 90//96 88//92
f 83//2 94//2 101//2
f 101//1 94//1 83//1
f 102//101 95//89 89//89
f 89//90 95//90 102//102
f 99//1 78//1 95//1
f 95//2 78//2 99//2
f 83//2 86//2 96//2
f 96//1 86//1 83//1
f 89//2 96//2 103//2
f 103//1 96//1 89//1
f 97//1 78//1 104//1
f 104//2 78//2 97//2
f 97//103 94//95 90//95
f 90//96 94//96 97//104
f 91//93 93//99 98//99
f 98//100 93//100 91//94
f 92//1 98//1 105//1
f 105//2 98//2 92//2
f 86//85 99//97 96//97
f 96//98 99//98 86//86
f 92//1 78//1 99//1
f 99//2 78//2 92//2
f 100//2 86//2 106//2
f 106//1 86//1 100//1
f 100//105 98//99 93//99
f 93//100 98//100 100//106
f 94//95 97//103 101//103
f 101//104 97//104 94//96
f 83//2 101//2 107//2
f 107//1 101//1 83//1
f 95//89 102//101 108//101
f 108//102 102//102 95//90
f 89//2 103//2 102//2
f 102//1 103//1 89//1
f 99//1 95//1 109//1
f 109//2 95//2 99//2
f 83//2 107//2 86//2
f 86//1 107//1 83//1
f 96//97 109//107 103//107
f 103//108 109//108 96//98
f 104//1 78//1 92//1
f 92//2 78//2 104//2
f 104//109 101//103 97//103
f 97//104 101//104 104//110
f 98//99 100//105 105//105
f 105//106 100//106 98//100
f 92//1 105//1 110//1
f 110//2 105//2 92//2
f 109//107 96//97 99//97
f 99//98 96//98 109//108
f 106//2 86//2 107//2
f 107//1 86//1 106//1
f 106//111 105//105 100//105
f 100//106 105//106 106//112
f 101//103 104//109 107//109
f 107//110 104//110 101//104
f 111//113 108//101 102//101
f 102//102 108//102 111//114
f 109//1 95//1 108//1
f 108//2 95//2 109//2
f 102//2 103//2 112//2
f 112//1 103//1 102//1
f 113//115 103//107 109//107
f 109//108 103//108 113//116
f 92//1 110//1 104//1
f 104//2 110//2 92//2
f 105//105 106//111 110//111
f 110//112 106//112 105//106
f 107//109 110//111 106//111
f 106//112 110//112 107//110
f 110//111 107//109 104//109
f 104//110 107//110 110//112
f 108//101 111//113 114//113
f 114//114 111//114 108//102
f 102//2 112//2 111//2
f 111//1 112//1 102//1
f 109//1 108//1 113//1
f 113//2 108//2 109//2
f 103//107 113//115 112//115
f 112//116 113//116 103//108
f 115//117 114//113 111//113
f 111//114 114//114 115//118
f 113//1 108//1 114//1
f 114//2 108//2 113//2
f 111//2 112//2 116//2
f 116//1 112//1 111//1
f 117//119 112//115 113//115
f 113//116 112//116 117//120
f 114//113 115//117 118//117
f 118//118 115//118 114//114
f 111//2 116//2 115//2
f 115//1 116//1 111//1
f 113//1 114//1 117//1
f 117//2 114//2 113//2
f 112//115 117//119 116//119
f 116//120 117//120 112//116
f 119//121 118//117 115//117
f 115//118 118//118 119//122
f 117//1 114//1 118//1
f 118//2 114//2 117//2
f 115//2 116//2 119//2
f 119//1 116//1 115//1
f 120//121 116//119 117//119
f 117//120 116//120 120//122
f 118//117 119//121 120//121
f 120//122 119//122 118//118
f 117//1 118//1 120//1
f 120//2 118//2 117//2
f 116//119 120//121 119//121
f 119//122 120//122 116//120
