# SSTK version 0.8.0
# 90
mtllib original-90.mtl
o mesh200/mesh200-geometry#mesh200-geometry
v -0.679927 -0.091734 -0.179356
v -0.676753 -0.100827 -0.179356
v -0.673704 -0.101020 -0.179356
v -0.682962 -0.091734 -0.179356
v -0.680865 -0.110569 -0.179356
v -0.679927 -0.091734 -0.181616
v -0.676753 -0.100827 -0.181616
v -0.684149 -0.110569 -0.179356
v -0.673704 -0.101020 -0.181616
v -0.682962 -0.091734 -0.181616
v -0.684149 -0.110569 -0.181616
v -0.680865 -0.110569 -0.181616
vn 0 0 1
vn 0 0 -1
vn 0.8307185210036853 0.5566926790083103 0
vn -0.8307185210036853 -0.5566926790083103 0
vn 0 1 0
vn 0 -1 0
vn -0.8258292875368783 -0.5639201963454861 0
vn 0.8258292875368783 0.5639201963454861 0
vn 0.8 -0.6 0
vn -0.8 0.6 0
vn -0.796466151469956 0.604683114997134 0
vn 0.796466151469956 -0.604683114997134 0
usemtl material_0_0
f 1//1 2//1 3//1
f 2//1 1//1 4//1
f 3//2 2//2 1//2
f 4//2 1//2 2//2
f 2//1 5//1 3//1
f 3//2 5//2 2//2
f 3//3 6//3 1//3
f 1//4 6//4 3//4
f 6//5 4//5 1//5
f 1//6 4//6 6//6
f 4//7 7//7 2//7
f 2//8 7//8 4//8
f 5//1 2//1 8//1
f 8//2 2//2 5//2
f 5//9 9//9 3//9
f 3//10 9//10 5//10
f 6//3 3//3 9//3
f 9//4 3//4 6//4
f 4//5 6//5 10//5
f 10//6 6//6 4//6
f 7//7 4//7 10//7
f 10//8 4//8 7//8
f 11//11 2//11 7//11
f 7//12 2//12 11//12
f 2//11 11//11 8//11
f 8//12 11//12 2//12
f 11//6 5//6 8//6
f 8//5 5//5 11//5
f 9//9 5//9 12//9
f 12//10 5//10 9//10
f 7//2 6//2 9//2
f 9//1 6//1 7//1
f 6//2 7//2 10//2
f 10//1 7//1 6//1
f 7//2 12//2 11//2
f 11//1 12//1 7//1
f 5//6 11//6 12//6
f 12//5 11//5 5//5
f 12//2 7//2 9//2
f 9//1 7//1 12//1
