# SSTK version 0.8.0
# 14
mtllib original-14.mtl
o Cylinder03_2/Cylinder03_1_2/mesh12/mesh12-geometry#mesh12-geometry
v -0.667109 0.159120 -0.185801
v -0.667109 0.152627 -0.186946
v -0.672609 0.159120 -0.185801
v -0.667109 0.164829 -0.182504
v -0.672609 0.152627 -0.186946
v -0.672609 0.164829 -0.182504
v -0.667109 0.133932 -0.171259
v -0.667109 0.146134 -0.185801
v -0.678110 0.157842 -0.182289
v -0.678110 0.162427 -0.179642
v -0.672609 0.169067 -0.177454
v -0.667109 0.140425 -0.182504
v -0.667109 0.146134 -0.150123
v -0.672609 0.146134 -0.185801
v -0.678110 0.152627 -0.183209
v -0.678110 0.165831 -0.175586
v -0.667109 0.169067 -0.177454
v -0.667109 0.136187 -0.177454
v -0.667109 0.136187 -0.158470
v -0.667109 0.169067 -0.158470
v -0.678110 0.147412 -0.182289
v -0.678110 0.167642 -0.170610
v -0.667109 0.171322 -0.171259
v -0.672609 0.171322 -0.171259
v -0.672609 0.136187 -0.177454
v -0.672609 0.140425 -0.182504
v -0.667109 0.133932 -0.164666
v -0.667109 0.140425 -0.153420
v -0.667109 0.159120 -0.150123
v -0.678110 0.167642 -0.165315
v -0.672609 0.133932 -0.171259
v -0.672609 0.133932 -0.164666
v -0.672609 0.136187 -0.158470
v -0.672609 0.140425 -0.153420
v -0.667109 0.171322 -0.164666
v -0.667109 0.152627 -0.148979
v -0.667109 0.164829 -0.153420
v -0.678110 0.139423 -0.175586
v -0.678110 0.162427 -0.156282
v -0.672609 0.171322 -0.164666
v -0.678110 0.142826 -0.179642
v -0.672609 0.146134 -0.150123
v -0.672609 0.169067 -0.158470
v -0.672609 0.152627 -0.148979
v -0.672609 0.159120 -0.150123
v -0.672609 0.164829 -0.153420
v -0.678110 0.165831 -0.160339
v -0.678110 0.137612 -0.170610
v -0.678110 0.137612 -0.165315
v -0.678110 0.139423 -0.160339
v -0.678110 0.142826 -0.156282
v -0.678110 0.147412 -0.153635
v -0.678110 0.152627 -0.152715
v -0.678110 0.157842 -0.153635
vn 0 0.17364294287755813 -0.9848086760324671
vn 1 0 0
vn 0 0.5000028578529572 -0.8660237537959772
vn 0 -0.17364294287755921 -0.984808676032467
vn -0.5560757630528312 0.1443199385044209 -0.8185056512299054
vn -0.5560762532257837 0.4155681892412769 -0.7197793277728253
vn 0 0.7660440678408653 -0.6427880569253133
vn -0.5560736053266206 0.14432389756607747 -0.8185064190648662
vn -0.5560760221379428 0.41556901654421813 -0.7197790286551238
vn -0.5560758666216048 0.6366838472872589 -0.5342408718588699
vn -0.5560762206661022 0.636683252653155 -0.5342412120013798
vn 0 -0.5000028578529582 -0.8660237537959766
vn -0.5560739263410625 -0.14431998088301629 -0.818506891578538
vn -1 0 0
vn -0.5560759901196418 0.7810079861230501 -0.28426399494919785
vn 0 0.9396927112094515 -0.3420198948889234
vn 0 -0.9396930326026506 -0.34201901186634937
vn 0 -0.7660449734205383 -0.6427869776972203
vn -0.5560759774427784 -0.14432299414553834 -0.8185049667973467
vn -0.5560761481918107 0.7810082081352004 -0.284263075754841
vn 0 -1 0
vn 0 -0.9396916300467668 0.342022865346822
vn 0 -0.7660440678408653 0.6427880569253133
vn 0 -0.5000028578529572 0.8660237537959772
vn -0.5560762532257837 -0.4155681892412777 -0.7197793277728248
vn -0.5560757444276464 0.8311316180119961 0
vn 0 1 0
vn -0.5560758666216048 -0.6366838472872595 -0.5342408718588694
vn -0.5560761481918108 -0.7810082081352009 -0.28426307575484017
vn 0 0.939692711209452 0.3420198948889224
vn 0 -0.17364294287755813 0.9848086760324671
vn 0 0.17364294287755921 0.984808676032467
vn 0 0.5000028578529582 0.8660237537959766
vn 0 0.766044067840866 0.6427880569253125
vn -0.5560760221379428 -0.4155690165442189 -0.7197790286551232
vn -0.5560768544788767 -0.636683833384638 -0.5342398601934533
vn -0.5560759901196418 -0.7810079861230504 -0.28426399494919696
vn -0.5560757444276464 -0.8311316180119961 0
vn -0.5560761082733116 -0.7810071520695269 0.2842660553493074
vn -0.5560731431560445 -0.6366851639088861 0.5342421375358483
vn -0.5560762532257837 -0.4155681892412769 0.7197793277728253
vn -0.5560729600063999 0.6366829542088088 0.534244961576302
vn -0.5560741742589375 0.7810092447476391 0.28426408908084605
vn -0.5560762065995875 -0.8311313087911036 0.0000010000003719925777
vn -0.5560748650400905 -0.7810088104484035 0.2842639310088685
vn -0.5560760375148369 -0.6366810429527326 0.5342440360419741
vn -0.5560760221379428 -0.41556901654421813 0.7197790286551238
vn -0.5560748650400905 0.7810088104484039 0.28426393100886765
vn -0.5560762206661022 0.6366832526531556 0.5342412120013792
vn -0.5560757630528312 -0.1443199385044209 0.8185056512299054
vn -0.556073846088234 0.14432096005441775 0.818506773451271
vn -0.5560762532257837 0.4155681892412777 0.7197793277728248
vn -0.5560760221379428 0.4155690165442189 0.7197790286551232
vn -0.5560729145443893 -0.14432397782072534 0.818506874214329
vn -0.5560759774427784 0.14432299414553834 0.8185049667973467
vn 0.5560757630528312 -0.1443199385044209 0.8185056512299054
vn 0.5560762532257837 -0.4155681892412769 0.7197793277728253
vn 0.5560736053266206 -0.14432389756607747 0.8185064190648662
vn 0.5560760221379428 -0.41556901654421813 0.7197790286551238
vn 0.5560758666216048 -0.6366838472872589 0.5342408718588699
vn 0.5560762206661022 -0.636683252653155 0.5342412120013798
vn 0.5560739263410625 0.14431998088301629 0.818506891578538
vn 0.5560759901196418 -0.7810079861230501 0.28426399494919785
vn 0 -0.9396927112094515 0.3420198948889234
vn 0 0.9396930326026506 0.34201901186634937
vn 0 0.7660449734205383 0.6427869776972203
vn 0.5560759774427784 0.14432299414553834 0.8185049667973467
vn 0.5560761481918107 -0.7810082081352004 0.284263075754841
vn 0 0.9396916300467668 -0.342022865346822
vn 0.5560762532257837 0.4155681892412777 0.7197793277728248
vn 0.5560757444276464 -0.8311316180119961 0
vn 0.5560758666216048 0.6366838472872595 0.5342408718588694
vn 0.5560761481918108 0.7810082081352009 0.28426307575484017
vn 0 -0.939692711209452 -0.3420198948889224
vn 0 -0.766044067840866 -0.6427880569253125
vn 0.5560760221379428 0.4155690165442189 0.7197790286551232
vn 0.5560768544788767 0.636683833384638 0.5342398601934533
vn 0.5560759901196418 0.7810079861230504 0.28426399494919696
vn 0.5560757444276464 0.8311316180119961 0
vn 0.5560761082733116 0.7810071520695269 -0.2842660553493074
vn 0.5560731431560445 0.6366851639088861 -0.5342421375358483
vn 0.5560762532257837 0.4155681892412769 -0.7197793277728253
vn 0.5560729600063999 -0.6366829542088088 -0.534244961576302
vn 0.5560741742589375 -0.7810092447476391 -0.28426408908084605
vn 0.5560762065995875 0.8311313087911036 -0.0000010000003719925777
vn 0.5560748650400905 0.7810088104484035 -0.2842639310088685
vn 0.5560760375148369 0.6366810429527326 -0.5342440360419741
vn 0.5560760221379428 0.41556901654421813 -0.7197790286551238
vn 0.5560748650400905 -0.7810088104484039 -0.28426393100886765
vn 0.5560762206661022 -0.6366832526531556 -0.5342412120013792
vn 0.5560757630528312 0.1443199385044209 -0.8185056512299054
vn 0.556073846088234 -0.14432096005441775 -0.818506773451271
vn 0.5560762532257837 -0.4155681892412777 -0.7197793277728248
vn 0.5560760221379428 -0.4155690165442189 -0.7197790286551232
vn 0.5560729145443893 0.14432397782072534 -0.818506874214329
vn 0.5560759774427784 -0.14432299414553834 -0.8185049667973467
usemtl material_0_0
f 1//1 2//1 3//1
f 2//2 1//2 4//2
f 3//1 2//1 5//1
f 6//3 1//3 3//3
f 4//3 1//3 6//3
f 7//2 2//2 4//2
f 2//4 8//4 5//4
f 3//5 5//5 9//5
f 6//6 3//6 10//6
f 4//7 6//7 11//7
f 7//2 12//2 2//2
f 13//2 7//2 4//2
f 12//2 8//2 2//2
f 5//4 8//4 14//4
f 9//8 5//8 15//8
f 10//9 3//9 9//9
f 6//10 10//10 16//10
f 11//11 6//11 16//11
f 17//7 4//7 11//7
f 7//2 18//2 12//2
f 19//2 7//2 13//2
f 13//2 4//2 20//2
f 8//12 12//12 14//12
f 5//13 14//13 15//13
f 15//14 21//14 9//14
f 10//14 9//14 16//14
f 11//15 16//15 22//15
f 4//2 17//2 23//2
f 17//16 11//16 24//16
f 25//17 18//17 7//17
f 26//18 12//18 18//18
f 27//2 7//2 19//2
f 28//2 19//2 13//2
f 20//2 4//2 23//2
f 29//2 13//2 20//2
f 14//12 12//12 26//12
f 15//19 14//19 21//19
f 9//14 21//14 16//14
f 16//14 30//14 22//14
f 24//20 11//20 22//20
f 23//16 17//16 24//16
f 25//18 26//18 18//18
f 31//17 25//17 7//17
f 31//21 7//21 27//21
f 32//22 27//22 19//22
f 33//23 19//23 28//23
f 28//24 13//24 34//24
f 35//2 20//2 23//2
f 36//2 13//2 29//2
f 37//2 29//2 20//2
f 14//25 26//25 21//25
f 21//14 38//14 16//14
f 16//14 39//14 30//14
f 24//26 22//26 30//26
f 23//27 24//27 40//27
f 41//28 26//28 25//28
f 38//29 25//29 31//29
f 32//21 31//21 27//21
f 33//22 32//22 19//22
f 34//23 33//23 28//23
f 34//24 13//24 42//24
f 20//30 35//30 43//30
f 35//27 23//27 40//27
f 13//31 36//31 42//31
f 36//32 29//32 44//32
f 29//33 37//33 45//33
f 37//34 20//34 46//34
f 21//35 26//35 41//35
f 41//14 38//14 21//14
f 38//14 39//14 16//14
f 39//14 47//14 30//14
f 24//26 30//26 40//26
f 41//36 25//36 38//36
f 38//37 31//37 48//37
f 48//38 31//38 32//38
f 49//39 32//39 33//39
f 50//40 33//40 34//40
f 34//41 42//41 51//41
f 35//30 40//30 43//30
f 20//34 43//34 46//34
f 42//31 36//31 44//31
f 44//32 29//32 45//32
f 45//33 37//33 46//33
f 38//14 51//14 39//14
f 43//42 47//42 39//42
f 40//43 30//43 47//43
f 48//14 49//14 38//14
f 49//44 48//44 32//44
f 50//45 49//45 33//45
f 51//46 50//46 34//46
f 51//47 42//47 52//47
f 40//48 47//48 43//48
f 43//49 39//49 46//49
f 42//50 44//50 52//50
f 44//51 45//51 53//51
f 45//52 46//52 54//52
f 38//14 49//14 51//14
f 51//14 53//14 39//14
f 49//14 50//14 51//14
f 51//14 52//14 53//14
f 54//53 46//53 39//53
f 52//54 44//54 53//54
f 53//55 45//55 54//55
f 53//14 54//14 39//14
usemtl material_1_0
f 3//31 2//31 1//31
f 4//14 1//14 2//14
f 5//31 2//31 3//31
f 3//24 1//24 6//24
f 6//24 1//24 4//24
f 4//14 2//14 7//14
f 5//32 8//32 2//32
f 9//56 5//56 3//56
f 10//57 3//57 6//57
f 11//23 6//23 4//23
f 2//14 12//14 7//14
f 4//14 7//14 13//14
f 2//14 8//14 12//14
f 14//32 8//32 5//32
f 15//58 5//58 9//58
f 9//59 3//59 10//59
f 16//60 10//60 6//60
f 16//61 6//61 11//61
f 11//23 4//23 17//23
f 12//14 18//14 7//14
f 13//14 7//14 19//14
f 20//14 4//14 13//14
f 14//33 12//33 8//33
f 15//62 14//62 5//62
f 9//2 21//2 15//2
f 16//2 9//2 10//2
f 22//63 16//63 11//63
f 23//14 17//14 4//14
f 24//64 11//64 17//64
f 7//65 18//65 25//65
f 18//66 12//66 26//66
f 19//14 7//14 27//14
f 13//14 19//14 28//14
f 23//14 4//14 20//14
f 20//14 13//14 29//14
f 26//33 12//33 14//33
f 21//67 14//67 15//67
f 16//2 21//2 9//2
f 22//2 30//2 16//2
f 22//68 11//68 24//68
f 24//64 17//64 23//64
f 18//66 26//66 25//66
f 7//65 25//65 31//65
f 27//27 7//27 31//27
f 19//69 27//69 32//69
f 28//7 19//7 33//7
f 34//3 13//3 28//3
f 23//14 20//14 35//14
f 29//14 13//14 36//14
f 20//14 29//14 37//14
f 21//70 26//70 14//70
f 16//2 38//2 21//2
f 30//2 39//2 16//2
f 30//71 22//71 24//71
f 40//21 24//21 23//21
f 25//72 26//72 41//72
f 31//73 25//73 38//73
f 27//27 31//27 32//27
f 19//69 32//69 33//69
f 28//7 33//7 34//7
f 42//3 13//3 34//3
f 43//74 35//74 20//74
f 40//21 23//21 35//21
f 42//1 36//1 13//1
f 44//4 29//4 36//4
f 45//12 37//12 29//12
f 46//75 20//75 37//75
f 41//76 26//76 21//76
f 21//2 38//2 41//2
f 16//2 39//2 38//2
f 30//2 47//2 39//2
f 40//71 30//71 24//71
f 38//77 25//77 41//77
f 48//78 31//78 38//78
f 32//79 31//79 48//79
f 33//80 32//80 49//80
f 34//81 33//81 50//81
f 51//82 42//82 34//82
f 43//74 40//74 35//74
f 46//75 43//75 20//75
f 44//1 36//1 42//1
f 45//4 29//4 44//4
f 46//12 37//12 45//12
f 39//2 51//2 38//2
f 39//83 47//83 43//83
f 47//84 30//84 40//84
f 38//2 49//2 48//2
f 32//85 48//85 49//85
f 33//86 49//86 50//86
f 34//87 50//87 51//87
f 52//88 42//88 51//88
f 43//89 47//89 40//89
f 46//90 39//90 43//90
f 52//91 44//91 42//91
f 53//92 45//92 44//92
f 54//93 46//93 45//93
f 51//2 49//2 38//2
f 39//2 53//2 51//2
f 51//2 50//2 49//2
f 53//2 52//2 51//2
f 39//94 46//94 54//94
f 53//95 44//95 52//95
f 54//96 45//96 53//96
f 39//2 54//2 53//2
