# SSTK version 0.8.0
# 31
mtllib original-31.mtl
o Washer_M8_14/Washer_M8/mesh1/mesh1-geometry#mesh1-geometry
v -0.443083 -0.170366 -0.391215
v -0.440674 -0.169627 -0.385606
v -0.443083 -0.169627 -0.385606
v -0.440674 -0.170366 -0.391215
v -0.440674 -0.167462 -0.380378
v -0.443083 -0.157034 -0.386399
v -0.443083 -0.169627 -0.396825
v -0.440674 -0.157034 -0.386399
v -0.443083 -0.167462 -0.380378
v -0.440674 -0.151185 -0.381911
v -0.443083 -0.155503 -0.384404
v -0.443083 -0.157996 -0.388722
v -0.440674 -0.169627 -0.396825
v -0.443083 -0.158325 -0.391215
v -0.440674 -0.155503 -0.384404
v -0.440674 -0.157996 -0.388722
v -0.440674 -0.164018 -0.375889
v -0.443083 -0.151185 -0.381911
v -0.440674 -0.148692 -0.381582
v -0.440674 -0.153508 -0.382873
v -0.443083 -0.153508 -0.382873
v -0.443083 -0.167462 -0.402052
v -0.440674 -0.158325 -0.391215
v -0.443083 -0.157996 -0.393709
v -0.443083 -0.164018 -0.375889
v -0.440674 -0.129921 -0.380378
v -0.443083 -0.148692 -0.381582
v -0.440674 -0.167462 -0.402052
v -0.443083 -0.155503 -0.398027
v -0.440674 -0.157996 -0.393709
v -0.443083 -0.157034 -0.396032
v -0.440674 -0.159529 -0.372445
v -0.443083 -0.129921 -0.380378
v -0.440674 -0.133366 -0.375889
v -0.440674 -0.146198 -0.381911
v -0.443083 -0.146198 -0.381911
v -0.443083 -0.164018 -0.406541
v -0.440674 -0.155503 -0.398027
v -0.443083 -0.153508 -0.399558
v -0.440674 -0.157034 -0.396032
v -0.443083 -0.159529 -0.372445
v -0.440674 -0.137854 -0.372445
v -0.443083 -0.133366 -0.375889
v -0.440674 -0.127756 -0.385606
v -0.440674 -0.164018 -0.406541
v -0.443083 -0.133366 -0.406541
v -0.440674 -0.153508 -0.399558
v -0.443083 -0.151185 -0.400520
v -0.440674 -0.154301 -0.370280
v -0.443083 -0.137854 -0.372445
v -0.443083 -0.127756 -0.385606
v -0.440674 -0.143875 -0.382873
v -0.443083 -0.143875 -0.382873
v -0.443083 -0.159529 -0.409986
v -0.440674 -0.129921 -0.402052
v -0.443083 -0.129921 -0.402052
v -0.443083 -0.137854 -0.409986
v -0.440674 -0.151185 -0.400520
v -0.443083 -0.148692 -0.400848
v -0.443083 -0.154301 -0.370280
v -0.440674 -0.143082 -0.370280
v -0.443083 -0.143082 -0.370280
v -0.440674 -0.141880 -0.384404
v -0.443083 -0.127017 -0.391215
v -0.440674 -0.159529 -0.409986
v -0.440674 -0.148692 -0.400848
v -0.440674 -0.133366 -0.406541
v -0.440674 -0.137854 -0.409986
v -0.440674 -0.148692 -0.369541
v -0.443083 -0.141880 -0.384404
v -0.440674 -0.140349 -0.386399
v -0.440674 -0.127017 -0.391215
v -0.443083 -0.140349 -0.386399
v -0.443083 -0.154301 -0.412151
v -0.443083 -0.143082 -0.412151
v -0.440674 -0.146198 -0.400520
v -0.443083 -0.146198 -0.400520
v -0.440674 -0.127756 -0.396825
v -0.440674 -0.143082 -0.412151
v -0.443083 -0.148692 -0.369541
v -0.443083 -0.127756 -0.396825
v -0.443083 -0.139387 -0.388722
v -0.440674 -0.154301 -0.412151
v -0.440674 -0.143875 -0.399558
v -0.443083 -0.143875 -0.399558
v -0.440674 -0.141880 -0.398027
v -0.440674 -0.139387 -0.388722
v -0.443083 -0.139059 -0.391215
v -0.443083 -0.148692 -0.412890
v -0.440674 -0.148692 -0.412890
v -0.443083 -0.141880 -0.398027
v -0.440674 -0.140349 -0.396032
v -0.440674 -0.139059 -0.391215
v -0.443083 -0.139387 -0.393709
v -0.443083 -0.140349 -0.396032
v -0.440674 -0.139387 -0.393709
vn 0 -1 0
vn 0 -0.965925849201117 0.2588189595935752
vn 0 -0.8660253028382762 0.5000001748438414
vn -1 0 0
vn 0 -0.965925849201117 -0.25881895959357565
vn 1 0 0
vn 0 -0.7071067811865477 0.7071067811865474
vn 0 0.7071067811865477 -0.7071067811865474
vn 0 0.8660253028382762 -0.5000001748438414
vn 0 0.965925849201117 -0.2588189595935752
vn 0 -0.866025302838276 -0.5000001748438418
vn 0 0.25881895959357565 -0.965925849201117
vn 0 0 -1
vn 0 0.5000001748438418 -0.866025302838276
vn 0 1 0
vn 0 0.965925849201117 0.25881895959357565
vn 0 -0.5000001748438418 0.866025302838276
vn 0 -0.2588189595935752 -0.965925849201117
vn 0 -0.7071067811865474 -0.7071067811865477
vn 0 0.866025302838276 0.5000001748438418
vn 0 0.7071067811865474 0.7071067811865477
vn 0 0.5000001748438414 0.8660253028382762
vn 0 -0.25881895959357565 0.965925849201117
vn 0 -0.5000001748438414 -0.8660253028382762
vn 0 0.2588189595935752 0.965925849201117
vn 0 0 1
usemtl material_0_0
f 1//1 2//2 3//2
f 2//2 1//1 4//1
f 5//3 3//2 2//2
f 3//4 6//4 1//4
f 7//5 4//1 1//1
f 8//6 2//6 4//6
f 3//2 5//3 9//3
f 10//6 5//6 2//6
f 3//4 11//4 6//4
f 1//4 6//4 12//4
f 4//1 7//5 13//5
f 1//4 14//4 7//4
f 15//6 2//6 8//6
f 8//6 4//6 16//6
f 17//7 9//3 5//3
f 9//4 18//4 3//4
f 19//6 5//6 10//6
f 10//6 2//6 20//6
f 3//4 21//4 11//4
f 15//8 6//9 11//8
f 8//9 12//10 6//9
f 1//4 12//4 14//4
f 22//11 13//5 7//5
f 23//6 4//6 13//6
f 7//4 14//4 24//4
f 20//6 2//6 15//6
f 6//9 15//8 8//9
f 16//6 4//6 23//6
f 12//10 8//9 16//10
f 9//3 17//7 25//7
f 26//6 17//6 5//6
f 18//4 9//4 27//4
f 3//4 18//4 21//4
f 26//6 5//6 19//6
f 10//12 27//13 19//13
f 20//14 18//12 10//12
f 21//14 15//8 11//8
f 16//10 14//15 12//10
f 13//5 22//11 28//11
f 7//4 29//4 22//4
f 23//6 13//6 30//6
f 23//15 24//16 14//15
f 7//4 24//4 31//4
f 15//8 21//14 20//14
f 14//15 16//10 23//15
f 32//17 25//7 17//7
f 25//4 33//4 9//4
f 34//6 17//6 26//6
f 9//4 33//4 27//4
f 27//13 10//12 18//12
f 18//12 20//14 21//14
f 35//6 26//6 19//6
f 36//18 19//13 27//13
f 37//19 28//11 22//11
f 38//6 13//6 28//6
f 7//4 31//4 29//4
f 22//4 29//4 39//4
f 30//6 13//6 40//6
f 24//16 23//15 30//16
f 30//16 31//20 24//16
f 25//7 32//17 41//17
f 42//6 32//6 17//6
f 25//4 43//4 33//4
f 42//6 17//6 34//6
f 33//20 34//21 26//20
f 27//4 33//4 36//4
f 26//6 35//6 44//6
f 19//13 36//18 35//18
f 28//11 37//19 45//19
f 22//4 46//4 37//4
f 40//6 13//6 38//6
f 38//6 28//6 47//6
f 40//20 29//21 31//20
f 29//21 47//22 39//22
f 22//4 39//4 48//4
f 31//20 30//16 40//20
f 49//23 41//17 32//17
f 41//4 50//4 25//4
f 42//6 49//6 32//6
f 25//4 50//4 43//4
f 34//21 33//20 43//21
f 34//21 50//22 42//22
f 26//20 51//16 33//20
f 36//4 33//4 51//4
f 44//6 35//6 52//6
f 51//16 26//20 44//16
f 53//24 35//18 36//18
f 54//24 45//19 37//19
f 55//6 28//6 45//6
f 22//4 56//4 46//4
f 37//4 46//4 57//4
f 29//21 40//20 38//21
f 47//6 28//6 58//6
f 47//22 29//21 38//21
f 47//22 48//25 39//22
f 22//4 48//4 59//4
f 41//17 49//23 60//23
f 60//4 50//4 41//4
f 61//6 49//6 42//6
f 50//22 34//21 43//21
f 62//25 42//22 50//22
f 36//4 51//4 53//4
f 35//18 53//24 52//24
f 44//6 52//6 63//6
f 44//16 64//15 51//16
f 45//19 54//24 65//24
f 37//4 57//4 54//4
f 55//6 66//6 28//6
f 55//6 45//6 67//6
f 22//4 59//4 56//4
f 55//9 46//8 56//9
f 46//8 68//14 57//14
f 58//6 28//6 66//6
f 48//25 47//22 58//25
f 48//25 66//26 59//26
f 69//26 60//23 49//23
f 60//4 62//4 50//4
f 49//6 61//6 69//6
f 42//22 62//25 61//25
f 53//4 51//4 70//4
f 70//19 52//24 53//24
f 52//24 70//19 63//19
f 44//6 63//6 71//6
f 64//15 44//16 72//15
f 73//4 51//4 64//4
f 74//18 65//24 54//24
f 68//6 45//6 65//6
f 54//4 57//4 75//4
f 55//6 76//6 66//6
f 67//6 45//6 68//6
f 46//8 55//9 67//8
f 77//4 56//4 59//4
f 56//9 78//10 55//9
f 68//14 46//8 67//8
f 79//12 57//14 68//14
f 66//26 48//25 58//25
f 76//23 59//26 66//26
f 60//23 69//26 80//26
f 62//4 60//4 80//4
f 61//25 80//26 69//26
f 80//26 61//25 62//25
f 70//4 51//4 73//4
f 73//11 63//19 70//19
f 63//19 73//11 71//11
f 44//6 71//6 72//6
f 72//15 81//10 64//15
f 73//4 64//4 82//4
f 65//24 74//18 83//18
f 54//4 75//4 74//4
f 68//6 65//6 79//6
f 57//14 79//12 75//12
f 55//6 84//6 76//6
f 85//4 56//4 77//4
f 59//26 76//23 77//23
f 78//10 56//9 81//10
f 78//6 86//6 55//6
f 82//5 71//11 73//11
f 72//6 71//6 87//6
f 81//10 72//15 78//10
f 88//4 64//4 81//4
f 82//4 64//4 88//4
f 89//13 83//18 74//18
f 79//6 65//6 83//6
f 74//4 75//4 89//4
f 90//13 75//12 79//12
f 55//6 86//6 84//6
f 84//17 77//23 76//23
f 91//4 56//4 85//4
f 77//23 84//17 85//17
f 91//4 81//4 56//4
f 78//6 92//6 86//6
f 71//11 82//5 87//5
f 72//6 87//6 93//6
f 72//6 93//6 78//6
f 88//4 81//4 94//4
f 88//1 87//5 82//5
f 83//18 89//13 90//13
f 79//6 83//6 90//6
f 75//12 90//13 89//13
f 86//7 85//17 84//17
f 85//17 86//7 91//7
f 95//4 81//4 91//4
f 78//6 96//6 92//6
f 92//3 91//7 86//7
f 87//5 88//1 93//1
f 78//6 93//6 96//6
f 94//4 81//4 95//4
f 94//2 93//1 88//1
f 91//7 92//3 95//3
f 96//2 95//3 92//3
f 93//1 94//2 96//2
f 95//3 96//2 94//2
usemtl material_1_0
f 3//10 2//10 1//15
f 4//15 1//15 2//10
f 2//10 3//10 5//9
f 1//6 6//6 3//6
f 1//15 4//15 7//16
f 4//4 2//4 8//4
f 9//9 5//9 3//10
f 2//4 5//4 10//4
f 6//6 11//6 3//6
f 12//6 6//6 1//6
f 13//16 7//16 4//15
f 7//6 14//6 1//6
f 8//4 2//4 15//4
f 16//4 4//4 8//4
f 5//9 9//9 17//8
f 3//6 18//6 9//6
f 10//4 5//4 19//4
f 20//4 2//4 10//4
f 11//6 21//6 3//6
f 11//7 6//3 15//7
f 6//3 12//2 8//3
f 14//6 12//6 1//6
f 7//16 13//16 22//20
f 13//4 4//4 23//4
f 24//6 14//6 7//6
f 15//4 2//4 20//4
f 8//3 15//7 6//3
f 23//4 4//4 16//4
f 16//2 8//3 12//2
f 25//8 17//8 9//9
f 5//4 17//4 26//4
f 27//6 9//6 18//6
f 21//6 18//6 3//6
f 19//4 5//4 26//4
f 19//26 27//26 10//23
f 10//23 18//23 20//17
f 11//7 15//7 21//17
f 12//2 14//1 16//2
f 28//20 22//20 13//16
f 22//6 29//6 7//6
f 30//4 13//4 23//4
f 14//1 24//5 23//1
f 31//6 24//6 7//6
f 20//17 21//17 15//7
f 23//1 16//2 14//1
f 17//8 25//8 32//14
f 9//6 33//6 25//6
f 26//4 17//4 34//4
f 27//6 33//6 9//6
f 18//23 10//23 27//26
f 21//17 20//17 18//23
f 19//4 26//4 35//4
f 27//26 19//26 36//25
f 22//20 28//20 37//21
f 28//4 13//4 38//4
f 29//6 31//6 7//6
f 39//6 29//6 22//6
f 40//4 13//4 30//4
f 30//5 23//1 24//5
f 24//5 31//11 30//5
f 41//14 32//14 25//8
f 17//4 32//4 42//4
f 33//6 43//6 25//6
f 34//4 17//4 42//4
f 26//11 34//19 33//11
f 36//6 33//6 27//6
f 44//4 35//4 26//4
f 35//25 36//25 19//26
f 45//21 37//21 28//20
f 37//6 46//6 22//6
f 38//4 13//4 40//4
f 47//4 28//4 38//4
f 31//11 29//19 40//11
f 39//24 47//24 29//19
f 48//6 39//6 22//6
f 40//11 30//5 31//11
f 32//14 41//14 49//12
f 25//6 50//6 41//6
f 32//4 49//4 42//4
f 43//6 50//6 25//6
f 43//19 33//11 34//19
f 42//24 50//24 34//19
f 33//11 51//5 26//11
f 51//6 33//6 36//6
f 52//4 35//4 44//4
f 44//5 26//11 51//5
f 36//25 35//25 53//22
f 37//21 45//21 54//22
f 45//4 28//4 55//4
f 46//6 56//6 22//6
f 57//6 46//6 37//6
f 38//19 40//11 29//19
f 58//4 28//4 47//4
f 38//19 29//19 47//24
f 39//24 48//18 47//24
f 59//6 48//6 22//6
f 60//12 49//12 41//14
f 41//6 50//6 60//6
f 42//4 49//4 61//4
f 43//19 34//19 50//24
f 50//24 42//24 62//18
f 53//6 51//6 36//6
f 52//22 53//22 35//25
f 63//4 52//4 44//4
f 51//5 64//1 44//5
f 65//22 54//22 45//21
f 54//6 57//6 37//6
f 28//4 66//4 55//4
f 67//4 45//4 55//4
f 56//6 59//6 22//6
f 56//3 46//7 55//3
f 57//17 68//17 46//7
f 66//4 28//4 58//4
f 58//18 47//24 48//18
f 59//13 66//13 48//18
f 49//12 60//12 69//13
f 50//6 62//6 60//6
f 69//4 61//4 49//4
f 61//18 62//18 42//24
f 70//6 51//6 53//6
f 53//22 52//22 70//21
f 63//21 70//21 52//22
f 71//4 63//4 44//4
f 72//1 44//5 64//1
f 64//6 51//6 73//6
f 54//22 65//22 74//25
f 65//4 45//4 68//4
f 75//6 57//6 54//6
f 66//4 76//4 55//4
f 68//4 45//4 67//4
f 67//7 55//3 46//7
f 59//6 56//6 77//6
f 55//3 78//2 56//3
f 67//7 46//7 68//17
f 68//17 57//17 79//23
f 58//18 48//18 66//13
f 66//13 59//13 76//12
f 80//13 69//13 60//12
f 80//6 60//6 62//6
f 69//13 80//13 61//18
f 62//18 61//18 80//13
f 73//6 51//6 70//6
f 70//21 63//21 73//20
f 71//20 73//20 63//21
f 72//4 71//4 44//4
f 64//1 81//2 72//1
f 82//6 64//6 73//6
f 83//25 74//25 65//22
f 74//6 75//6 54//6
f 79//4 65//4 68//4
f 75//23 79//23 57//17
f 76//4 84//4 55//4
f 77//6 56//6 85//6
f 77//12 76//12 59//13
f 81//2 56//3 78//2
f 55//4 86//4 78//4
f 73//20 71//20 82//16
f 87//4 71//4 72//4
f 78//2 72//1 81//2
f 81//6 64//6 88//6
f 88//6 64//6 82//6
f 74//25 83//25 89//26
f 83//4 65//4 79//4
f 89//6 75//6 74//6
f 79//23 75//23 90//26
f 84//4 86//4 55//4
f 76//12 77//12 84//14
f 85//6 56//6 91//6
f 85//14 84//14 77//12
f 56//6 81//6 91//6
f 86//4 92//4 78//4
f 87//16 82//16 71//20
f 93//4 87//4 72//4
f 78//4 93//4 72//4
f 94//6 81//6 88//6
f 82//16 87//16 88//15
f 90//26 89//26 83//25
f 90//4 83//4 79//4
f 89//26 90//26 75//23
f 84//14 85//14 86//8
f 91//8 86//8 85//14
f 91//6 81//6 95//6
f 92//4 96//4 78//4
f 86//8 91//8 92//9
f 93//15 88//15 87//16
f 96//4 93//4 78//4
f 95//6 81//6 94//6
f 88//15 93//15 94//10
f 95//9 92//9 91//8
f 92//9 95//9 96//10
f 96//10 94//10 93//15
f 94//10 96//10 95//9
