# SSTK version 0.8.0
# 38
mtllib original-38.mtl
o #ID342
v 0.629528 0.206415 0.527270
v 0.629528 0.225969 0.535650
v 0.629528 0.206415 0.535650
v 0.629528 0.225969 0.527270
v 0.629528 0.225969 0.527270
v 0.629528 0.206415 0.527270
v 0.629528 0.225969 0.535650
v 0.629528 0.206415 0.535650
v 0.629528 0.225969 0.535650
v 0.607181 0.225969 0.527270
v 0.607181 0.225969 0.535650
v 0.629528 0.225969 0.527270
v 0.629528 0.225969 0.527270
v 0.629528 0.225969 0.535650
v 0.607181 0.225969 0.527270
v 0.607181 0.225969 0.535650
v 0.629528 0.206415 0.527270
v 0.607181 0.206415 0.535650
v 0.607181 0.206415 0.527270
v 0.629528 0.206415 0.535650
v 0.629528 0.206415 0.535650
v 0.629528 0.206415 0.527270
v 0.607181 0.206415 0.535650
v 0.607181 0.206415 0.527270
v 0.607181 0.225969 0.527270
v 0.607181 0.206415 0.535650
v 0.607181 0.225969 0.535650
v 0.607181 0.206415 0.527270
v 0.607181 0.206415 0.527270
v 0.607181 0.225969 0.527270
v 0.607181 0.206415 0.535650
v 0.607181 0.225969 0.535650
vt -0.01239428 0.1770504
vt -0.01458151 0.1821539
vt -0.01458151 0.1770504
vt -0.01239428 0.1821539
vt 0.3570238 -0.01458151
vt 0.3511912 -0.01239428
vt 0.3511912 -0.01458151
vt 0.3570238 -0.01239428
vt -0.3570238 -0.01239428
vt -0.3511912 -0.01458151
vt -0.3511912 -0.01239428
vt -0.3570238 -0.01458151
vt 0.01239428 0.1821539
vt 0.01458151 0.1770504
vt 0.01458151 0.1821539
vt 0.01239428 0.1770504
vt -0.1673228 2.459078
vt -0.1673228 2.39018
vt -0.1968504 2.459078
vt -0.1968504 2.39018
vt 4.819821 -0.1673228
vt 4.819821 -0.1968504
vt 4.741081 -0.1673228
vt 4.741081 -0.1968504
vt -4.819821 -0.1968504
vt -4.819821 -0.1673228
vt -4.741081 -0.1968504
vt -4.741081 -0.1673228
vt 0.1673228 2.39018
vt 0.1673228 2.459078
vt 0.1968504 2.39018
vt 0.1968504 2.459078
vn 1 0 0
vn 0 1 0
vn 0 -1 0
vn -1 0 0
usemtl material_0_0
f 5/17/4 6/18/4 7/19/4
f 8/20/4 7/19/4 6/18/4
f 13/21/3 14/22/3 15/23/3
f 16/24/3 15/23/3 14/22/3
f 21/25/2 22/26/2 23/27/2
f 24/28/2 23/27/2 22/26/2
f 29/29/1 30/30/1 31/31/1
f 32/32/1 31/31/1 30/30/1
usemtl material_1_0
f 1/1/1 2/2/1 3/3/1
f 2/2/1 1/1/1 4/4/1
f 9/5/2 10/6/2 11/7/2
f 10/6/2 9/5/2 12/8/2
f 17/9/3 18/10/3 19/11/3
f 18/10/3 17/9/3 20/12/3
f 25/13/4 26/14/4 27/15/4
f 26/14/4 25/13/4 28/16/4
