# SSTK version 0.8.0
# 5
mtllib original-5.mtl
o #ID49
v -0.089628 -0.441230 -0.085843
v -0.089628 -0.441230 -0.025111
v -0.093626 -0.441230 -0.055477
v -0.077908 -0.441230 -0.114140
v -0.077908 -0.441230 0.003186
v -0.059262 -0.441230 -0.138439
v -0.059262 -0.441230 0.027485
v -0.034963 -0.441230 -0.157084
v -0.034963 -0.441230 0.046130
v -0.006666 -0.441230 -0.168805
v -0.006666 -0.441230 0.057851
v 0.023699 -0.441230 -0.172803
v 0.023699 -0.441230 0.061849
v 0.054065 -0.441230 -0.168805
v 0.054065 -0.441230 0.057851
v 0.082363 -0.441230 -0.157084
v 0.082363 -0.441230 0.046130
v 0.106662 -0.441230 -0.138439
v 0.106662 -0.441230 0.027485
v 0.125306 -0.441230 -0.114140
v 0.125306 -0.441230 0.003186
v 0.137027 -0.441230 -0.085843
v 0.137027 -0.441230 -0.025111
v 0.141025 -0.441230 -0.055477
vt -2.285941 1.992921
vt -2.285941 1.778937
vt -2.271855 1.885929
vt -2.327238 2.092622
vt -2.327238 1.679236
vt -2.392933 2.178237
vt -2.392933 1.593621
vt -2.478548 2.243932
vt -2.478548 1.527926
vt -2.578249 2.285229
vt -2.578249 1.486629
vt -2.685241 2.299315
vt -2.685241 1.472543
vt -2.792233 2.285229
vt -2.792233 1.486629
vt -2.891934 2.243932
vt -2.891934 1.527926
vt -2.977549 2.178237
vt -2.977549 1.593621
vt -3.043244 2.092622
vt -3.043244 1.679236
vt -3.084541 1.992921
vt -3.084541 1.778937
vt -3.098627 1.885929
vn 0 -1 0
vn 0 1 0
usemtl material_0_2
f 1/1/1 2/2/1 3/3/1
f 3/3/2 2/2/2 1/1/2
f 2/2/1 1/1/1 4/4/1
f 4/4/2 1/1/2 2/2/2
f 2/2/1 4/4/1 5/5/1
f 5/5/2 4/4/2 2/2/2
f 5/5/1 4/4/1 6/6/1
f 6/6/2 4/4/2 5/5/2
f 5/5/1 6/6/1 7/7/1
f 7/7/2 6/6/2 5/5/2
f 7/7/1 6/6/1 8/8/1
f 8/8/2 6/6/2 7/7/2
f 7/7/1 8/8/1 9/9/1
f 9/9/2 8/8/2 7/7/2
f 9/9/1 8/8/1 10/10/1
f 10/10/2 8/8/2 9/9/2
f 9/9/1 10/10/1 11/11/1
f 11/11/2 10/10/2 9/9/2
f 11/11/1 10/10/1 12/12/1
f 12/12/2 10/10/2 11/11/2
f 11/11/1 12/12/1 13/13/1
f 13/13/2 12/12/2 11/11/2
f 13/13/1 12/12/1 14/14/1
f 14/14/2 12/12/2 13/13/2
f 13/13/1 14/14/1 15/15/1
f 15/15/2 14/14/2 13/13/2
f 15/15/1 14/14/1 16/16/1
f 16/16/2 14/14/2 15/15/2
f 15/15/1 16/16/1 17/17/1
f 17/17/2 16/16/2 15/15/2
f 17/17/1 16/16/1 18/18/1
f 18/18/2 16/16/2 17/17/2
f 17/17/1 18/18/1 19/19/1
f 19/19/2 18/18/2 17/17/2
f 19/19/1 18/18/1 20/20/1
f 20/20/2 18/18/2 19/19/2
f 19/19/1 20/20/1 21/21/1
f 21/21/2 20/20/2 19/19/2
f 21/21/1 20/20/1 22/22/1
f 22/22/2 20/20/2 21/21/2
f 21/21/1 22/22/1 23/23/1
f 23/23/2 22/22/2 21/21/2
f 23/23/1 22/22/1 24/24/1
f 24/24/2 22/22/2 23/23/2
