# SSTK version 0.8.0
# 39
mtllib original-39.mtl
o #ID350
v -0.667325 -0.488719 0.454705
v -0.659804 -0.516654 0.460476
v -0.667325 -0.516654 0.454705
v -0.659804 -0.488719 0.460476
v -0.659804 -0.488719 0.460476
v -0.667325 -0.488719 0.454705
v -0.659804 -0.516654 0.460476
v -0.667325 -0.516654 0.454705
v -0.673096 -0.516654 0.447183
v -0.673096 -0.488719 0.447183
v -0.673096 -0.488719 0.447183
v -0.673096 -0.516654 0.447183
v -0.651046 -0.516654 0.464104
v -0.651046 -0.488719 0.464104
v -0.651046 -0.488719 0.464104
v -0.651046 -0.516654 0.464104
v -0.676724 -0.516654 0.438425
v -0.676724 -0.488719 0.438425
v -0.676724 -0.488719 0.438425
v -0.676724 -0.516654 0.438425
v -0.641647 -0.516654 0.465341
v -0.641647 -0.488719 0.465341
v -0.641647 -0.488719 0.465341
v -0.641647 -0.516654 0.465341
v -0.677962 -0.516654 0.429026
v -0.677962 -0.488719 0.429026
v -0.677962 -0.488719 0.429026
v -0.677962 -0.516654 0.429026
v -0.632248 -0.516654 0.464104
v -0.632248 -0.488719 0.464104
v -0.632248 -0.488719 0.464104
v -0.632248 -0.516654 0.464104
v -0.676724 -0.516654 0.419627
v -0.676724 -0.488719 0.419627
v -0.676724 -0.488719 0.419627
v -0.676724 -0.516654 0.419627
v -0.623489 -0.516654 0.460476
v -0.623489 -0.488719 0.460476
v -0.623489 -0.488719 0.460476
v -0.623489 -0.516654 0.460476
v -0.673096 -0.516654 0.410868
v -0.673096 -0.488719 0.410868
v -0.673096 -0.488719 0.410868
v -0.673096 -0.516654 0.410868
v -0.615968 -0.516654 0.454705
v -0.615968 -0.488719 0.454705
v -0.615968 -0.488719 0.454705
v -0.615968 -0.516654 0.454705
v -0.667325 -0.516654 0.403347
v -0.667325 -0.488719 0.403347
v -0.667325 -0.488719 0.403347
v -0.667325 -0.516654 0.403347
v -0.610197 -0.488719 0.447183
v -0.610197 -0.516654 0.447183
v -0.610197 -0.516654 0.447183
v -0.610197 -0.488719 0.447183
v -0.659804 -0.488719 0.397576
v -0.659804 -0.516654 0.397576
v -0.659804 -0.488719 0.397576
v -0.659804 -0.516654 0.397576
v -0.606569 -0.488719 0.438425
v -0.606569 -0.516654 0.438425
v -0.606569 -0.516654 0.438425
v -0.606569 -0.488719 0.438425
v -0.651046 -0.488719 0.393948
v -0.651046 -0.516654 0.393948
v -0.651046 -0.488719 0.393948
v -0.651046 -0.516654 0.393948
v -0.605332 -0.488719 0.429026
v -0.605332 -0.516654 0.429026
v -0.605332 -0.516654 0.429026
v -0.605332 -0.488719 0.429026
v -0.641647 -0.488719 0.392711
v -0.641647 -0.516654 0.392711
v -0.641647 -0.488719 0.392711
v -0.641647 -0.516654 0.392711
v -0.606569 -0.488719 0.419627
v -0.606569 -0.516654 0.419627
v -0.606569 -0.516654 0.419627
v -0.606569 -0.488719 0.419627
v -0.632248 -0.488719 0.393948
v -0.632248 -0.516654 0.393948
v -0.632248 -0.488719 0.393948
v -0.632248 -0.516654 0.393948
v -0.610197 -0.488719 0.410868
v -0.610197 -0.516654 0.410868
v -0.610197 -0.516654 0.410868
v -0.610197 -0.488719 0.410868
v -0.623489 -0.488719 0.397576
v -0.623489 -0.516654 0.397576
v -0.623489 -0.488719 0.397576
v -0.623489 -0.516654 0.397576
v -0.615968 -0.488719 0.403347
v -0.615968 -0.516654 0.403347
v -0.615968 -0.516654 0.403347
v -0.615968 -0.488719 0.403347
vn 0.7071067811865476 0 -0.7071067811865476
vn 0.5000000016387101 0 -0.866025402838329
vn -0.5000000016387101 0 0.866025402838329
vn -0.7071067811865476 0 0.7071067811865476
vn 0.866025402838329 0 -0.5000000016387101
vn -0.866025402838329 0 0.5000000016387101
vn 0.25881900959356163 0 -0.9659258358036645
vn -0.25881900959356163 0 0.9659258358036645
vn 0.9659258358036645 0 -0.25881900959356163
vn -0.9659258358036645 0 0.25881900959356163
vn 0 0 -1
vn 0 0 1
vn 1 0 0
vn -1 0 0
vn -0.25881900959356163 0 -0.9659258358036645
vn 0.25881900959356163 0 0.9659258358036645
vn 0.9659258358036645 0 0.25881900959356163
vn -0.9659258358036645 0 -0.25881900959356163
vn -0.5000000016387101 0 -0.866025402838329
vn 0.5000000016387101 0 0.866025402838329
vn 0.866025402838329 0 0.5000000016387101
vn -0.866025402838329 0 -0.5000000016387101
vn -0.7071067811865476 0 -0.7071067811865476
vn 0.7071067811865476 0 0.7071067811865476
usemtl material_0_0
f 1//1 2//2 3//1
f 2//2 1//1 4//2
f 5//3 6//4 7//3
f 8//4 7//3 6//4
f 9//5 1//1 3//1
f 1//1 9//5 10//5
f 11//6 12//6 6//4
f 8//4 6//4 12//6
f 4//2 13//7 2//2
f 13//7 4//2 14//7
f 15//8 5//3 16//8
f 7//3 16//8 5//3
f 17//9 10//5 9//5
f 10//5 17//9 18//9
f 19//10 20//10 11//6
f 12//6 11//6 20//10
f 14//7 21//11 13//7
f 21//11 14//7 22//11
f 23//12 15//8 24//12
f 16//8 24//12 15//8
f 25//13 18//9 17//9
f 18//9 25//13 26//13
f 27//14 28//14 19//10
f 20//10 19//10 28//14
f 22//11 29//15 21//11
f 29//15 22//11 30//15
f 31//16 23//12 32//16
f 24//12 32//16 23//12
f 33//17 26//13 25//13
f 26//13 33//17 34//17
f 35//18 36//18 27//14
f 28//14 27//14 36//18
f 30//15 37//19 29//15
f 37//19 30//15 38//19
f 39//20 31//16 40//20
f 32//16 40//20 31//16
f 41//21 34//17 33//17
f 34//17 41//21 42//21
f 43//22 44//22 35//18
f 36//18 35//18 44//22
f 38//19 45//23 37//19
f 45//23 38//19 46//23
f 47//24 39//20 48//24
f 40//20 48//24 39//20
f 49//24 42//21 41//21
f 42//21 49//24 50//24
f 51//23 52//23 43//22
f 44//22 43//22 52//23
f 53//22 45//23 46//23
f 45//23 53//22 54//22
f 55//21 56//21 48//24
f 47//24 48//24 56//21
f 57//20 49//24 58//20
f 49//24 57//20 50//24
f 51//23 59//19 52//23
f 60//19 52//23 59//19
f 61//18 54//22 53//22
f 54//22 61//18 62//18
f 63//17 64//17 55//21
f 56//21 55//21 64//17
f 65//16 58//20 66//16
f 58//20 65//16 57//20
f 59//19 67//15 60//19
f 68//15 60//19 67//15
f 69//14 62//18 61//18
f 62//18 69//14 70//14
f 71//13 72//13 63//17
f 64//17 63//17 72//13
f 73//12 66//16 74//12
f 66//16 73//12 65//16
f 67//15 75//11 68//15
f 76//11 68//15 75//11
f 77//10 70//14 69//14
f 70//14 77//10 78//10
f 79//9 80//9 71//13
f 72//13 71//13 80//9
f 81//8 74//12 82//8
f 74//12 81//8 73//12
f 75//11 83//7 76//11
f 84//7 76//11 83//7
f 85//6 78//10 77//10
f 78//10 85//6 86//6
f 87//5 88//5 79//9
f 80//9 79//9 88//5
f 89//3 82//8 90//3
f 82//8 89//3 81//8
f 83//7 91//2 84//7
f 92//2 84//7 91//2
f 93//4 86//6 85//6
f 86//6 93//4 94//4
f 95//1 96//1 87//5
f 88//5 87//5 96//1
f 93//4 90//3 94//4
f 90//3 93//4 89//3
f 91//2 96//1 92//2
f 95//1 92//2 96//1
