# SSTK version 0.8.0
# 114
mtllib original-114.mtl
o mesh50/mesh50-geometry/material_3/component_7#mesh50-geometry
v -0.164974 0.205289 0.686735
v -0.162841 0.207877 0.686735
v -0.164974 0.205289 0.860105
v -0.162841 0.207877 0.860105
v -0.164974 0.205289 0.860105
v -0.162841 0.207877 0.686735
v -0.164974 0.205289 0.860105
v -0.162841 0.207877 0.686735
v -0.164974 0.205289 0.686735
v -0.162841 0.207877 0.686735
v -0.164974 0.205289 0.860105
v -0.162841 0.207877 0.860105
vn 0.7716090573614374 -0.6360970543854089 0
vn 0.6819799259639708 -0.7313708912598155 0
vn -0.7716090573614374 0.6360970543854089 0
vn -0.6819799259639708 0.7313708912598155 0
usemtl material_0_0
f 1//1 2//2 3//1
f 4//2 5//1 6//2
usemtl material_1_0
f 7//3 8//4 9//3
f 10//4 11//3 12//4
