# SSTK version 0.8.0
# 89
mtllib original-89.mtl
o mesh50/mesh50-geometry/material_2/component_6#mesh50-geometry
v 0.055324 -0.372870 0.686735
v 0.055324 -0.372870 0.860105
v 0.139562 -0.364761 0.686735
v 0.139562 -0.364761 0.860105
v 0.139562 -0.364761 0.686735
v 0.055324 -0.372870 0.860105
v 0.139562 -0.364761 0.686735
v 0.055324 -0.372870 0.860105
v 0.055324 -0.372870 0.686735
v 0.055324 -0.372870 0.860105
v 0.139562 -0.364761 0.686735
v 0.139562 -0.364761 0.860105
vn -0.09582096087468542 0.9953985852195352 0
vn -0.22492690483985606 0.9743756398223234 0
vn 0.22492690483985606 -0.9743756398223234 0
vn 0.09582096087468542 -0.9953985852195352 0
usemtl material_0_0
f 1//1 2//1 3//2
f 4//2 5//2 6//1
usemtl material_1_0
f 7//3 8//4 9//4
f 10//4 11//3 12//3
