# SSTK version 0.8.0
# 70
mtllib original-70.mtl
o Group_3_1/Group_3/runner2_1_1/runner2_1/mesh77/mesh77-geometry#mesh77-geometry
v -0.541626 0.055457 0.219134
v -0.572060 0.055457 0.208989
v -0.572060 0.055457 0.219134
v -0.541626 0.055457 0.208989
v -0.572060 0.045312 0.219134
v -0.541626 0.045312 0.208989
v -0.526409 0.061544 0.208989
v -0.572060 0.045312 0.208989
v -0.541626 0.045312 0.219134
v -0.577132 0.061544 0.208989
v -0.526409 0.039225 0.208989
v -0.577132 0.061544 -0.308386
v -0.577132 0.039225 0.208989
v -0.526409 0.039225 -0.346935
v -0.526409 0.061544 -0.308386
v -0.577132 0.039225 -0.346935
v -0.526409 0.050385 -0.308386
v -0.577132 0.050385 -0.308386
v -0.526409 0.050385 -0.346935
v -0.577132 0.050385 -0.346935
vt 0.035254 0
vt 0.005036 0.013319
vt 0.005036 0
vt 0.035254 0.013319
vt -0.010073 0.021311
vt 0 0.007991
vt 0 0.021311
vt 0.005036 0.007991
vt 0.035254 0.021311
vt 0.005036 0.021311
vt 0.010073 0.007991
vt 0.010073 0.021311
vt 0.050363 0.029302
vt -0.010073 0.007991
vt 0.035254 0.007991
vt 0 0.029302
vt -0.035254 0.013319
vt -0.005036 0
vt -0.005036 0.013319
vt -0.035254 0
vt 0.050363 0
vt 0.050363 0.013319
vt 0 0.692594
vt 0 0.013319
vt 0 0
vt 0.56205 0
vt 0.010073 0.029302
vt 0.010073 0
vt 0.050363 0.692594
vt -0.523775 0.029302
vt -0.010073 0
vt -0.010073 0.029302
vt 0 0.743207
vt -0.050363 0.013319
vt 0.523775 0.014651
vt -0.050363 0.743207
vt 0.523775 0.029302
vt -0.050363 0.029302
vt 0 0.014651
vt -0.523775 0.014651
vt -0.56205 0
vt 0.56205 0.014651
vt -0.050363 0.014651
vt -0.050363 0
vt -0.56205 0.014651
vt 0.050363 0.743207
vn 0 1 0
vn 0 -1 0
vn -1 0 0
vn 1 0 0
vn 0 0 1
vn 0 0 -1
usemtl material_0_0
f 1/1/1 2/2/1 3/3/1
f 2/2/1 1/1/1 4/4/1
f 3/3/2 2/2/2 1/1/2
f 4/4/2 1/1/2 2/2/2
f 2/5/3 5/6/3 3/7/3
f 3/7/4 5/6/4 2/5/4
f 5/8/5 1/9/5 3/10/5
f 3/10/6 1/9/6 5/8/6
f 1/7/4 6/11/4 4/12/4
f 4/12/3 6/11/3 1/7/3
f 4/9/5 7/13/5 2/10/5
f 2/10/6 7/13/6 4/9/6
f 5/6/3 2/5/3 8/14/3
f 8/14/4 2/5/4 5/6/4
f 1/9/5 5/8/5 9/15/5
f 9/15/6 5/8/6 1/9/6
f 6/11/4 1/7/4 9/6/4
f 9/6/3 1/7/3 6/11/3
f 6/15/5 7/13/5 4/9/5
f 4/9/6 7/13/6 6/15/6
f 10/16/5 2/10/5 7/13/5
f 7/13/6 2/10/6 10/16/6
f 10/16/5 8/8/5 2/10/5
f 2/10/6 8/8/6 10/16/6
f 6/17/2 5/18/2 8/19/2
f 8/19/1 5/18/1 6/17/1
f 5/18/2 6/17/2 9/20/2
f 9/20/1 6/17/1 5/18/1
f 6/15/5 11/21/5 7/13/5
f 7/13/6 11/21/6 6/15/6
f 7/22/1 12/23/1 10/24/1
f 10/24/2 12/23/2 7/22/2
f 13/25/5 8/8/5 10/16/5
f 10/16/6 8/8/6 13/25/6
f 8/8/5 13/25/5 6/15/5
f 6/15/6 13/25/6 8/8/6
f 11/21/5 6/15/5 13/25/5
f 13/25/6 6/15/6 11/21/6
f 14/26/4 7/27/4 11/28/4
f 11/28/3 7/27/3 14/26/3
f 12/23/1 7/22/1 15/29/1
f 15/29/2 7/22/2 12/23/2
f 12/30/3 13/31/3 10/32/3
f 10/32/4 13/31/4 12/30/4
f 16/33/2 11/34/2 13/24/2
f 13/24/1 11/34/1 16/33/1
f 7/27/4 14/26/4 17/35/4
f 17/35/3 14/26/3 7/27/3
f 11/34/2 16/33/2 14/36/2
f 14/36/1 16/33/1 11/34/1
f 15/37/4 7/27/4 17/35/4
f 17/35/3 7/27/3 15/37/3
f 15/38/6 18/39/6 12/16/6
f 12/16/5 18/39/5 15/38/5
f 13/31/3 12/30/3 18/40/3
f 18/40/4 12/30/4 13/31/4
f 18/40/3 16/41/3 13/31/3
f 13/31/4 16/41/4 18/40/4
f 17/35/4 14/26/4 19/42/4
f 19/42/3 14/26/3 17/35/3
f 16/25/6 19/43/6 14/44/6
f 14/44/5 19/43/5 16/25/5
f 18/39/6 15/38/6 17/43/6
f 17/43/5 15/38/5 18/39/5
f 16/41/3 18/40/3 20/45/3
f 20/45/4 18/40/4 16/41/4
f 20/33/1 17/29/1 19/46/1
f 19/46/2 17/29/2 20/33/2
f 19/43/6 16/25/6 20/39/6
f 20/39/5 16/25/5 19/43/5
f 17/29/1 20/33/1 18/23/1
f 18/23/2 20/33/2 17/29/2
