# SSTK version 0.8.0
# 61
mtllib original-61.mtl
o runner2/runner/mesh62/mesh62-geometry#mesh62-geometry
v 0.594570 0.055457 0.219134
v 0.564136 0.055457 0.208989
v 0.564136 0.055457 0.219134
v 0.594570 0.055457 0.208989
v 0.564136 0.045312 0.219134
v 0.594570 0.045312 0.208989
v 0.599642 0.061544 0.208989
v 0.564136 0.045312 0.208989
v 0.594570 0.045312 0.219134
v 0.548919 0.061544 0.208989
v 0.599642 0.039225 0.208989
v 0.599642 0.061544 -0.308386
v 0.548919 0.039225 0.208989
v 0.599642 0.039225 -0.346935
v 0.548919 0.061544 -0.308386
v 0.599642 0.050385 -0.308386
v 0.548919 0.050385 -0.308386
v 0.548919 0.039225 -0.346935
v 0.599642 0.050385 -0.346935
v 0.548919 0.050385 -0.346935
vt 0.045327 0
vt 0.015109 0.013319
vt 0.015109 0
vt 0.045327 0.013319
vt -0.010073 0.021311
vt 0 0.007991
vt 0 0.021311
vt 0.015109 0.007991
vt 0.045327 0.021311
vt 0.015109 0.021311
vt 0.010073 0.007991
vt 0.010073 0.021311
vt 0.050363 0.029302
vt -0.010073 0.007991
vt 0.045327 0.007991
vt 0 0.029302
vt -0.045327 0.013319
vt -0.015109 0
vt -0.015109 0.013319
vt -0.045327 0
vt 0.050363 0
vt 0.050363 0.692594
vt 0 0.013319
vt 0.050363 0.013319
vt 0 0
vt 0.56205 0
vt 0.010073 0.029302
vt 0.010073 0
vt 0 0.692594
vt 0.523775 0.029302
vt 0.523775 0.014651
vt -0.523775 0.029302
vt -0.010073 0
vt -0.010073 0.029302
vt -0.050363 0.743207
vt -0.050363 0.013319
vt -0.050363 0.014651
vt -0.050363 0.029302
vt -0.523775 0.014651
vt 0 0.743207
vt 0.56205 0.014651
vt 0 0.014651
vt -0.56205 0
vt -0.050363 0
vt 0.050363 0.743207
vt -0.56205 0.014651
vn 0 1 0
vn 0 -1 0
vn -1 0 0
vn 1 0 0
vn 0 0 1
vn 0 0 -1
usemtl material_0_0
f 1/1/1 2/2/1 3/3/1
f 2/2/1 1/1/1 4/4/1
f 3/3/2 2/2/2 1/1/2
f 4/4/2 1/1/2 2/2/2
f 2/5/3 5/6/3 3/7/3
f 3/7/4 5/6/4 2/5/4
f 5/8/5 1/9/5 3/10/5
f 3/10/6 1/9/6 5/8/6
f 1/7/4 6/11/4 4/12/4
f 4/12/3 6/11/3 1/7/3
f 4/9/5 7/13/5 2/10/5
f 2/10/6 7/13/6 4/9/6
f 5/6/3 2/5/3 8/14/3
f 8/14/4 2/5/4 5/6/4
f 1/9/5 5/8/5 9/15/5
f 9/15/6 5/8/6 1/9/6
f 6/11/4 1/7/4 9/6/4
f 9/6/3 1/7/3 6/11/3
f 6/15/5 7/13/5 4/9/5
f 4/9/6 7/13/6 6/15/6
f 10/16/5 2/10/5 7/13/5
f 7/13/6 2/10/6 10/16/6
f 10/16/5 8/8/5 2/10/5
f 2/10/6 8/8/6 10/16/6
f 6/17/2 5/18/2 8/19/2
f 8/19/1 5/18/1 6/17/1
f 5/18/2 6/17/2 9/20/2
f 9/20/1 6/17/1 5/18/1
f 6/15/5 11/21/5 7/13/5
f 7/13/6 11/21/6 6/15/6
f 12/22/1 10/23/1 7/24/1
f 7/24/2 10/23/2 12/22/2
f 13/25/5 8/8/5 10/16/5
f 10/16/6 8/8/6 13/25/6
f 8/8/5 13/25/5 6/15/5
f 6/15/6 13/25/6 8/8/6
f 11/21/5 6/15/5 13/25/5
f 13/25/6 6/15/6 11/21/6
f 14/26/4 7/27/4 11/28/4
f 11/28/3 7/27/3 14/26/3
f 10/23/1 12/22/1 15/29/1
f 15/29/2 12/22/2 10/23/2
f 12/30/4 7/27/4 16/31/4
f 16/31/3 7/27/3 12/30/3
f 15/32/3 13/33/3 10/34/3
f 10/34/4 13/33/4 15/32/4
f 13/23/2 14/35/2 11/36/2
f 11/36/1 14/35/1 13/23/1
f 7/27/4 14/26/4 16/31/4
f 16/31/3 14/26/3 7/27/3
f 16/37/6 15/16/6 12/38/6
f 12/38/5 15/16/5 16/37/5
f 13/33/3 15/32/3 17/39/3
f 17/39/4 15/32/4 13/33/4
f 14/35/2 13/23/2 18/40/2
f 18/40/1 13/23/1 14/35/1
f 16/31/4 14/26/4 19/41/4
f 19/41/3 14/26/3 16/31/3
f 15/16/6 16/37/6 17/42/6
f 17/42/5 16/37/5 15/16/5
f 13/33/3 17/39/3 18/43/3
f 18/43/4 17/39/4 13/33/4
f 20/42/6 14/44/6 18/25/6
f 18/25/5 14/44/5 20/42/5
f 14/44/6 20/42/6 19/37/6
f 19/37/5 20/42/5 14/44/5
f 19/45/1 17/29/1 16/22/1
f 16/22/2 17/29/2 19/45/2
f 18/43/3 17/39/3 20/46/3
f 20/46/4 17/39/4 18/43/4
f 17/29/1 19/45/1 20/40/1
f 20/40/2 19/45/2 17/29/2
