mtllib new-0.mtl
v -0.934515 0.225429 -0.180044
v -0.875043 0.225429 -0.180044
v -0.934515 0.225429 0.139915
v -0.934515 -0.361976 -0.180044
v -0.875043 0.225429 0.139915
v -0.875043 -0.361976 -0.180044
v -0.934515 -0.361976 0.139915
v -0.875043 -0.361976 0.139915
vn 0.000000 1.000000 0.000000
vn 1.000000 0.000000 0.000000
vn 0.000000 0.000000 -1.000000
vn -1.000000 0.000000 0.000000
vn 0.000000 0.000000 1.000000
vn 0.000000 -1.000000 0.000000
vt 1.264834 0.415977
vt -1.264834 0.415977
vt -0.152818 0.415977
vt -0.195091 0.415977
vt -1.492265 0.152818
vt -1.264834 0.152818
vt -0.152818 -0.001557
vt 1.264834 -0.001557
vt 1.492265 0.415977
vt -1.492265 0.195091
vt -1.492265 -0.001557
vt -1.492265 0.415977
vt -1.264834 0.195091
vt -0.195091 -0.001557
vt 1.492265 -0.001557
vt 0.152818 0.415977
vt 0.195091 -0.001557
vt 0.195091 0.415977
vt -1.264834 -0.001557
vt 0.152818 -0.001557
usemtl material-0
f 1/3/3 2/4/3 4/7/3
f 4/8/4 3/9/4 1/1/4
f 6/14/3 4/7/3 2/4/3
f 3/9/4 4/8/4 7/15/4
f 3/16/5 8/17/5 5/18/5
f 6/13/6 7/5/6 4/6/6
f 2/2/2 8/11/2 6/19/2
f 8/17/5 3/16/5 7/20/5
f 8/11/2 2/2/2 5/12/2
f 7/5/6 6/13/6 8/10/6
usemtl material-1
f 4//5 2//5 1//5
f 1//2 3//2 4//2
f 2//5 4//5 6//5
f 7//2 4//2 3//2
f 5//3 8//3 3//3
f 4//1 7//1 6//1
f 6//4 8//4 2//4
f 7//3 3//3 8//3
f 5//4 2//4 8//4
f 8//1 6//1 7//1