# SSTK version 0.8.0
# 12
mtllib original-12.mtl
o Group1/mesh15/mesh15-geometry#mesh15-geometry
v 0.590461 0.329079 0.455784
v 0.590461 0.337010 0.455784
v 0.586495 0.333044 0.455784
v 0.614256 0.329079 0.455784
v 0.582530 0.329079 0.455784
v 0.590461 0.305284 0.455784
v 0.614256 0.273557 0.455784
v 0.614256 0.337010 0.455784
v 0.574598 0.329079 0.455784
v 0.586495 0.301318 0.455784
v 0.614256 0.297352 0.455784
v 0.618222 0.333044 0.455784
v 0.634085 0.364771 0.455784
v 0.582530 0.273557 0.455784
v 0.582530 0.305284 0.455784
v 0.590461 0.297352 0.455784
v 0.618222 0.269591 0.455784
v 0.614256 0.305284 0.455784
v 0.618222 0.301318 0.455784
v 0.570632 0.333044 0.455784
v 0.574598 0.305284 0.455784
v 0.582530 0.297352 0.455784
v 0.590461 0.273557 0.455784
v 0.614256 0.265626 0.455784
v 0.622188 0.305284 0.455784
v 0.622188 0.329079 0.455784
v 0.566666 0.337010 0.455784
v 0.574598 0.297352 0.455784
v 0.586495 0.269591 0.455784
v 0.622188 0.273557 0.455784
v 0.634085 0.237865 0.455784
v 0.622188 0.297352 0.455784
v 0.542872 0.337010 0.455784
v 0.566666 0.329079 0.455784
v 0.570632 0.301318 0.455784
v 0.574598 0.273557 0.455784
v 0.590461 0.265626 0.455784
v 0.511145 0.329079 0.455784
v 0.507179 0.333044 0.455784
v 0.523042 0.322790 0.455784
v 0.542872 0.329079 0.455784
v 0.566666 0.305284 0.455784
v 0.570632 0.269591 0.455784
v 0.503213 0.337010 0.455784
v 0.511145 0.305284 0.455784
v 0.517434 0.317181 0.455784
v 0.538906 0.333044 0.455784
v 0.566666 0.297352 0.455784
v 0.566666 0.265626 0.455784
v 0.479419 0.337010 0.455784
v 0.503213 0.329079 0.455784
v 0.507179 0.301318 0.455784
v 0.517434 0.285455 0.455784
v 0.523042 0.311573 0.455784
v 0.528651 0.317181 0.455784
v 0.542872 0.305284 0.455784
v 0.566666 0.273557 0.455784
v 0.542872 0.265626 0.455784
v 0.455624 0.337010 0.455784
v 0.511145 0.297352 0.455784
v 0.523042 0.291063 0.455784
v 0.538906 0.269591 0.455784
v 0.538906 0.301318 0.455784
v 0.542872 0.297352 0.455784
v 0.511145 0.273557 0.455784
v 0.542872 0.273557 0.455784
v 0.431829 0.337010 0.455784
v 0.459590 0.333044 0.455784
v 0.479419 0.329079 0.455784
v 0.503213 0.305284 0.455784
v 0.523042 0.279846 0.455784
v 0.528651 0.285455 0.455784
v 0.507179 0.269591 0.455784
v 0.412000 0.364771 0.455784
v 0.455624 0.329079 0.455784
v 0.463555 0.329079 0.455784
v 0.475453 0.333044 0.455784
v 0.503213 0.273557 0.455784
v 0.503213 0.297352 0.455784
v 0.503213 0.265626 0.455784
v 0.427863 0.333044 0.455784
v 0.431829 0.329079 0.455784
v 0.459590 0.301318 0.455784
v 0.463555 0.305284 0.455784
v 0.479419 0.305284 0.455784
v 0.479419 0.265626 0.455784
v 0.423897 0.297352 0.455784
v 0.455624 0.305284 0.455784
v 0.471487 0.273557 0.455784
v 0.471487 0.329079 0.455784
v 0.475453 0.301318 0.455784
v 0.479419 0.297352 0.455784
v 0.455624 0.265626 0.455784
v 0.479419 0.273557 0.455784
v 0.423897 0.273557 0.455784
v 0.427863 0.301318 0.455784
v 0.431829 0.305284 0.455784
v 0.455624 0.297352 0.455784
v 0.431829 0.265626 0.455784
v 0.459590 0.269591 0.455784
v 0.475453 0.269591 0.455784
v 0.412000 0.237865 0.455784
v 0.427863 0.269591 0.455784
v 0.471487 0.297352 0.455784
v 0.471487 0.305284 0.455784
v 0.431829 0.273557 0.455784
v 0.455624 0.273557 0.455784
v 0.431829 0.297352 0.455784
vn 0 0 1
vn 0 0 -1
usemtl material_0_0
f 1//1 2//1 3//1
f 2//1 1//1 4//1
f 3//2 2//2 1//2
f 4//2 1//2 2//2
f 3//1 6//1 1//1
f 1//2 6//2 3//2
f 2//1 4//1 8//1
f 8//2 4//2 2//2
f 5//1 10//1 3//1
f 3//2 10//2 5//2
f 3//1 10//1 6//1
f 6//2 10//2 3//2
f 8//1 4//1 12//1
f 12//2 4//2 8//2
f 10//1 5//1 15//1
f 15//2 5//2 10//2
f 17//1 11//1 7//1
f 7//2 11//2 17//2
f 4//1 19//1 12//1
f 12//2 19//2 4//2
f 10//1 23//1 16//1
f 16//2 23//2 10//2
f 11//1 17//1 19//1
f 19//2 17//2 11//2
f 7//1 24//1 17//1
f 17//2 24//2 7//2
f 19//1 4//1 18//1
f 18//2 4//2 19//2
f 12//1 19//1 25//1
f 25//2 19//2 12//2
f 20//1 21//1 9//1
f 9//2 21//2 20//2
f 29//1 22//1 14//1
f 14//2 22//2 29//2
f 22//1 29//1 10//1
f 10//2 29//2 22//2
f 10//1 29//1 23//1
f 23//2 29//2 10//2
f 23//1 24//1 7//1
f 7//2 24//2 23//2
f 19//1 17//1 30//1
f 30//2 17//2 19//2
f 12//1 25//1 26//1
f 26//2 25//2 12//2
f 27//1 34//1 20//1
f 20//2 34//2 27//2
f 20//1 35//1 21//1
f 21//2 35//2 20//2
f 37//1 23//1 29//1
f 29//2 23//2 37//2
f 23//1 37//1 24//1
f 24//2 37//2 23//2
f 19//1 30//1 32//1
f 32//2 30//2 19//2
f 33//1 34//1 27//1
f 27//2 34//2 33//2
f 34//1 35//1 20//1
f 20//2 35//2 34//2
f 35//1 36//1 28//1
f 28//2 36//2 35//2
f 33//1 41//1 34//1
f 34//2 41//2 33//2
f 35//1 34//1 42//1
f 42//2 34//2 35//2
f 35//1 43//1 36//1
f 36//2 43//2 35//2
f 39//1 45//1 38//1
f 38//2 45//2 39//2
f 41//1 33//1 47//1
f 47//2 33//2 41//2
f 42//1 48//1 35//1
f 35//2 48//2 42//2
f 48//1 43//1 35//1
f 35//2 43//2 48//2
f 44//1 51//1 39//1
f 39//2 51//2 44//2
f 39//1 52//1 45//1
f 45//2 52//2 39//2
f 54//1 40//1 46//1
f 46//2 40//2 54//2
f 56//1 48//1 42//1
f 42//2 48//2 56//2
f 43//1 48//1 57//1
f 57//2 48//2 43//2
f 57//1 49//1 43//1
f 43//2 49//2 57//2
f 50//1 51//1 44//1
f 44//2 51//2 50//2
f 51//1 52//1 39//1
f 39//2 52//2 51//2
f 40//1 54//1 55//1
f 55//2 54//2 40//2
f 56//1 64//1 48//1
f 48//2 64//2 56//2
f 66//1 58//1 49//1
f 49//2 58//2 66//2
f 66//1 49//1 57//1
f 57//2 49//2 66//2
f 50//1 69//1 51//1
f 51//2 69//2 50//2
f 52//1 51//1 70//1
f 70//2 51//2 52//2
f 52//1 65//1 60//1
f 60//2 65//2 52//2
f 71//1 61//1 53//1
f 53//2 61//2 71//2
f 64//1 56//1 63//1
f 63//2 56//2 64//2
f 58//1 66//1 62//1
f 62//2 66//2 58//2
f 67//1 75//1 59//1
f 59//2 75//2 67//2
f 59//1 75//1 68//1
f 68//2 75//2 59//2
f 69//1 50//1 77//1
f 77//2 50//2 69//2
f 52//1 73//1 65//1
f 65//2 73//2 52//2
f 61//1 71//1 72//1
f 72//2 71//2 61//2
f 67//1 82//1 75//1
f 75//2 82//2 67//2
f 75//1 83//1 68//1
f 68//2 83//2 75//2
f 68//1 84//1 76//1
f 76//2 84//2 68//2
f 77//1 85//1 69//1
f 69//2 85//2 77//2
f 79//1 73//1 52//1
f 52//2 73//2 79//2
f 78//1 80//1 73//1
f 73//2 80//2 78//2
f 82//1 67//1 81//1
f 81//2 67//2 82//2
f 83//1 75//1 88//1
f 88//2 75//2 83//2
f 68//1 83//1 84//1
f 84//2 83//2 68//2
f 77//1 91//1 85//1
f 85//2 91//2 77//2
f 73//1 79//1 78//1
f 78//2 79//2 73//2
f 94//1 86//1 80//1
f 80//2 86//2 94//2
f 94//1 80//1 78//1
f 78//2 80//2 94//2
f 88//1 98//1 83//1
f 83//2 98//2 88//2
f 90//1 91//1 77//1
f 77//2 91//2 90//2
f 86//1 94//1 101//1
f 101//2 94//2 86//2
f 103//1 87//1 95//1
f 95//2 87//2 103//2
f 87//1 103//1 96//1
f 96//2 103//2 87//2
f 97//1 98//1 88//1
f 88//2 98//2 97//2
f 91//1 90//1 105//1
f 105//2 90//2 91//2
f 91//1 94//1 92//1
f 92//2 94//2 91//2
f 106//1 99//1 93//1
f 93//2 99//2 106//2
f 107//1 93//1 100//1
f 100//2 93//2 107//2
f 91//1 101//1 94//1
f 94//2 101//2 91//2
f 96//1 103//1 106//1
f 106//2 103//2 96//2
f 108//1 97//1 96//1
f 96//2 97//2 108//2
f 97//1 108//1 98//1
f 98//2 108//2 97//2
f 101//1 104//1 89//1
f 89//2 104//2 101//2
f 99//1 106//1 103//1
f 103//2 106//2 99//2
f 106//1 93//1 107//1
f 107//2 93//2 106//2
f 104//1 101//1 91//1
f 91//2 101//2 104//2
f 96//1 106//1 108//1
f 108//2 106//2 96//2
usemtl material_1_0
f 2//1 5//1 3//1
f 3//2 5//2 2//2
f 1//1 7//1 4//1
f 4//2 7//2 1//2
f 2//1 9//1 5//1
f 5//2 9//2 2//2
f 6//1 7//1 1//1
f 1//2 7//2 6//2
f 4//1 7//1 11//1
f 11//2 7//2 4//2
f 13//1 2//1 8//1
f 8//2 2//2 13//2
f 13//1 9//1 2//1
f 2//2 9//2 13//2
f 5//1 9//1 14//1
f 14//2 9//2 5//2
f 6//1 10//1 16//1
f 16//2 10//2 6//2
f 16//1 7//1 6//1
f 6//2 7//2 16//2
f 4//1 11//1 18//1
f 18//2 11//2 4//2
f 13//1 8//1 12//1
f 12//2 8//2 13//2
f 13//1 20//1 9//1
f 9//2 20//2 13//2
f 21//1 14//1 9//1
f 9//2 14//2 21//2
f 5//1 14//1 22//1
f 22//2 14//2 5//2
f 5//1 22//1 15//1
f 15//2 22//2 5//2
f 10//1 15//1 22//1
f 22//2 15//2 10//2
f 7//1 16//1 23//1
f 23//2 16//2 7//2
f 19//1 18//1 11//1
f 11//2 18//2 19//2
f 13//1 12//1 26//1
f 26//2 12//2 13//2
f 13//1 27//1 20//1
f 20//2 27//2 13//2
f 28//1 14//1 21//1
f 21//2 14//2 28//2
f 24//1 31//1 17//1
f 17//2 31//2 24//2
f 25//1 19//1 32//1
f 32//2 19//2 25//2
f 13//1 26//1 31//1
f 31//2 26//2 13//2
f 13//1 33//1 27//1
f 27//2 33//2 13//2
f 36//1 14//1 28//1
f 28//2 14//2 36//2
f 21//1 35//1 28//1
f 28//2 35//2 21//2
f 14//1 37//1 29//1
f 29//2 37//2 14//2
f 17//1 31//1 30//1
f 30//2 31//2 17//2
f 37//1 31//1 24//1
f 24//2 31//2 37//2
f 32//1 31//1 25//1
f 25//2 31//2 32//2
f 25//1 31//1 26//1
f 26//2 31//2 25//2
f 13//1 38//1 33//1
f 33//2 38//2 13//2
f 36//1 37//1 14//1
f 14//2 37//2 36//2
f 30//1 31//1 32//1
f 32//2 31//2 30//2
f 36//1 31//1 37//1
f 37//2 31//2 36//2
f 13//1 39//1 38//1
f 38//2 39//2 13//2
f 33//1 38//1 40//1
f 40//2 38//2 33//2
f 43//1 31//1 36//1
f 36//2 31//2 43//2
f 13//1 44//1 39//1
f 39//2 44//2 13//2
f 40//1 38//1 46//1
f 46//2 38//2 40//2
f 33//1 40//1 47//1
f 47//2 40//2 33//2
f 41//1 42//1 34//1
f 34//2 42//2 41//2
f 49//1 31//1 43//1
f 43//2 31//2 49//2
f 13//1 50//1 44//1
f 44//2 50//2 13//2
f 45//1 53//1 38//1
f 38//2 53//2 45//2
f 46//1 38//1 53//1
f 53//2 38//2 46//2
f 47//1 40//1 55//1
f 55//2 40//2 47//2
f 47//1 56//1 41//1
f 41//2 56//2 47//2
f 41//1 56//1 42//1
f 42//2 56//2 41//2
f 58//1 31//1 49//1
f 49//2 31//2 58//2
f 13//1 59//1 50//1
f 50//2 59//2 13//2
f 45//1 52//1 60//1
f 60//2 52//2 45//2
f 60//1 53//1 45//1
f 45//2 53//2 60//2
f 61//1 46//1 53//1
f 53//2 46//2 61//2
f 46//1 61//1 54//1
f 54//2 61//2 46//2
f 47//1 55//1 62//1
f 62//2 55//2 47//2
f 56//1 47//1 63//1
f 63//2 47//2 56//2
f 64//1 57//1 48//1
f 48//2 57//2 64//2
f 65//1 31//1 58//1
f 58//2 31//2 65//2
f 13//1 67//1 59//1
f 59//2 67//2 13//2
f 50//1 59//1 68//1
f 68//2 59//2 50//2
f 65//1 53//1 60//1
f 60//2 53//2 65//2
f 54//1 72//1 55//1
f 55//2 72//2 54//2
f 54//1 61//1 72//1
f 72//2 61//2 54//2
f 72//1 62//1 55//1
f 55//2 62//2 72//2
f 47//1 62//1 63//1
f 63//2 62//2 47//2
f 64//1 66//1 57//1
f 57//2 66//2 64//2
f 73//1 31//1 65//1
f 65//2 31//2 73//2
f 65//1 58//1 71//1
f 71//2 58//2 65//2
f 74//1 67//1 13//1
f 13//2 67//2 74//2
f 50//1 68//1 76//1
f 76//2 68//2 50//2
f 69//1 78//1 51//1
f 51//2 78//2 69//2
f 51//1 79//1 70//1
f 70//2 79//2 51//2
f 52//1 70//1 79//1
f 79//2 70//2 52//2
f 65//1 71//1 53//1
f 53//2 71//2 65//2
f 71//1 62//1 72//1
f 72//2 62//2 71//2
f 66//1 63//1 62//1
f 62//2 63//2 66//2
f 63//1 66//1 64//1
f 64//2 66//2 63//2
f 80//1 31//1 73//1
f 73//2 31//2 80//2
f 71//1 58//1 62//1
f 62//2 58//2 71//2
f 67//1 74//1 81//1
f 81//2 74//2 67//2
f 50//1 76//1 77//1
f 77//2 76//2 50//2
f 85//1 78//1 69//1
f 69//2 78//2 85//2
f 51//1 78//1 79//1
f 79//2 78//2 51//2
f 86//1 31//1 80//1
f 80//2 31//2 86//2
f 81//1 74//1 87//1
f 87//2 74//2 81//2
f 82//1 88//1 75//1
f 75//2 88//2 82//2
f 84//1 89//1 76//1
f 76//2 89//2 84//2
f 77//1 76//1 90//1
f 90//2 76//2 77//2
f 92//1 78//1 85//1
f 85//2 78//2 92//2
f 93//1 31//1 86//1
f 86//2 31//2 93//2
f 87//1 74//1 95//1
f 95//2 74//2 87//2
f 81//1 87//1 96//1
f 96//2 87//2 81//2
f 81//1 97//1 82//1
f 82//2 97//2 81//2
f 82//1 97//1 88//1
f 88//2 97//2 82//2
f 83//1 89//1 84//1
f 84//2 89//2 83//2
f 90//1 76//1 89//1
f 89//2 76//2 90//2
f 85//1 91//1 92//1
f 92//2 91//2 85//2
f 78//1 92//1 94//1
f 94//2 92//2 78//2
f 99//1 31//1 93//1
f 93//2 31//2 99//2
f 93//1 86//1 100//1
f 100//2 86//2 93//2
f 102//1 95//1 74//1
f 74//2 95//2 102//2
f 97//1 81//1 96//1
f 96//2 81//2 97//2
f 98//1 100//1 83//1
f 83//2 100//2 98//2
f 100//1 89//1 83//1
f 83//2 89//2 100//2
f 90//1 89//1 104//1
f 104//2 89//2 90//2
f 99//1 102//1 31//1
f 31//2 102//2 99//2
f 100//1 86//1 101//1
f 101//2 86//2 100//2
f 95//1 102//1 99//1
f 99//2 102//2 95//2
f 95//1 99//1 103//1
f 103//2 99//2 95//2
f 98//1 107//1 100//1
f 100//2 107//2 98//2
f 100//1 101//1 89//1
f 89//2 101//2 100//2
f 90//1 104//1 105//1
f 105//2 104//2 90//2
f 91//1 105//1 104//1
f 104//2 105//2 91//2
f 108//1 107//1 98//1
f 98//2 107//2 108//2
f 107//1 108//1 106//1
f 106//2 108//2 107//2
