# SSTK version 0.8.0
# 28
mtllib original-28.mtl
o Arrow2/Arrow/mesh52/mesh52-geometry#mesh52-geometry
v -0.678159 0.029693 -0.156001
v -0.730584 0.053487 -0.156427
v -0.730584 0.053487 -0.156001
v -0.678159 0.029693 -0.156427
v -0.678159 0.077440 -0.156427
v -0.678159 0.024476 -0.156427
v -0.742047 0.053473 -0.156427
v -0.678159 0.077440 -0.156001
v -0.678159 0.082663 -0.156427
v -0.678159 0.024476 -0.156001
v -0.678159 0.082663 -0.156001
v -0.742047 0.053473 -0.156001
vn 0.41329687381301883 0.91059633982154 0
vn 0.41557303729434225 -0.9095598114879281 0
vn 1 0 0
vn 0 0 -1
vn -0.41329687381301883 -0.91059633982154 0
vn -0.41557303729434225 0.9095598114879281 0
vn -1 0 0
vn 0 0 1
usemtl material_0_0
f 1//1 2//1 3//1
f 2//1 1//1 4//1
f 5//2 3//2 2//2
f 1//3 6//3 4//3
f 4//4 7//4 2//4
f 3//2 5//2 8//2
f 2//4 9//4 5//4
f 6//3 1//3 10//3
f 7//4 4//4 6//4
f 2//4 7//4 9//4
f 5//3 11//3 8//3
f 11//3 5//3 9//3
f 12//5 6//5 10//5
f 6//5 12//5 7//5
f 7//6 11//6 9//6
f 11//6 7//6 12//6
usemtl material_1_0
f 3//5 2//5 1//5
f 4//5 1//5 2//5
f 2//6 3//6 5//6
f 4//7 6//7 1//7
f 2//8 7//8 4//8
f 8//6 5//6 3//6
f 5//8 9//8 2//8
f 10//7 1//7 6//7
f 6//8 4//8 7//8
f 9//8 7//8 2//8
f 8//7 11//7 5//7
f 9//7 5//7 11//7
f 10//1 6//1 12//1
f 7//1 12//1 6//1
f 9//2 11//2 7//2
f 12//2 7//2 11//2
