mtllib new-3.mtl
v -0.436913 0.405774 0.406416
v 0.427433 0.405774 0.406416
v -0.116125 0.431727 0.406416
v 0.106645 0.431727 0.406416
v -0.116125 0.565388 0.406416
v 0.106645 0.565388 0.406416
vn 0.000000 0.000000 1.000000
vn 0.000000 0.000000 -1.000000
vt -19.646538 9.566805
vt -19.810579 9.468380
vt -19.646538 9.468380
vt -19.810579 9.566805
usemtl material-1
f 6/1/1 3/2/1 4/3/1
f 4/3/2 3/2/2 6/1/2
f 3/2/1 6/1/1 5/4/1
f 5/4/2 6/1/2 3/2/2
usemtl material-2
f 3//1 1//1 2//1
usemtl material-3
f 2//2 1//2 3//2