mtllib new-13.mtl
v 0.444097 0.288172 -0.282066
v -0.455411 0.288172 -0.313121
v -0.455411 0.288172 -0.282066
v 0.444097 0.288172 -0.313121
v -0.455411 -0.277233 -0.282066
v 0.444097 -0.277233 -0.313121
v 0.444097 -0.277233 -0.282066
v -0.455411 -0.277233 -0.313121
vn 0.000000 1.000000 0.000000
vn 0.000000 -1.000000 0.000000
vn 0.000000 0.000000 1.000000
vn 0.000000 0.000000 -1.000000
vt 0.459318 0.000000
vt 0.000000 0.015857
vt 0.000000 0.000000
vt 0.459318 0.288714
vt 0.000000 0.288714
vt -0.459318 0.000000
vt -0.459318 0.288714
vt -0.459318 0.015857
usemtl material-0
f 5/3/3 1/4/3 3/5/3
f 3/5/4 1/4/4 5/3/4
f 6/6/4 2/5/4 4/7/4
f 4/7/3 2/5/3 6/6/3
f 1/4/3 5/3/3 7/1/3
f 7/1/4 5/3/4 1/4/4
f 2/5/4 6/6/4 8/3/4
f 8/3/3 6/6/3 2/5/3
f 5/3/2 6/8/2 7/6/2
f 7/6/1 6/8/1 5/3/1
f 6/8/2 5/3/2 8/2/2
f 8/2/1 5/3/1 6/8/1