# SSTK version 0.8.0
# 2
mtllib original-2.mtl
o bottom2/bottom12/mesh3/mesh3-geometry#mesh3-geometry
v -0.525264 0.812082 0.214609
v -0.525264 0.812082 -0.194267
v -0.499709 0.786528 0.191737
v -0.525264 0.837637 0.214609
v -0.499709 0.786528 -0.194267
v 0.000434 0.812082 0.273020
v -0.525264 0.837637 -0.194267
v -0.477825 0.786528 0.094137
v -0.477825 0.786528 -0.194267
v 0.000434 0.786528 0.247308
v 0.000434 0.837637 0.273020
v -0.485106 0.815733 -0.194267
v 0.526131 0.837637 -0.194267
v 0.526131 0.812082 0.214609
v -0.463183 0.786528 0.094137
v 0.500576 0.786528 0.191737
v 0.526131 0.837637 0.214609
v 0.485974 0.815733 -0.194267
v -0.485106 0.815733 0.094137
v -0.463183 0.786528 -0.150459
v -0.455901 0.815733 0.094137
v 0.500576 0.786528 -0.194267
v 0.464050 0.786528 0.094137
v 0.526131 0.812082 -0.194267
v -0.455901 0.815733 -0.194267
v 0.464050 0.786528 -0.150459
v 0.478692 0.786528 -0.194267
v 0.478692 0.786528 0.094137
v 0.456768 0.815733 -0.194267
v 0.460409 0.801130 -0.150459
v -0.459542 0.801130 -0.150459
v 0.485974 0.815733 0.094137
v -0.459542 0.801130 -0.194267
v 0.456768 0.815733 0.094137
v 0.460409 0.801130 -0.194267
vn -0.7071067811865476 -0.7071067811865476 0
vn 0.7071067811865476 0.7071067811865476 0
vn -1 0 0
vn 1 0 0
vn -0.0780869832682258 -0.7071068484875248 0.7027818494142464
vn 0.0780869832682258 0.7071068484875248 -0.7027818494142464
vn -0.11043196509908727 0 0.9938836858930497
vn 0.11043196509908727 0 -0.9938836858930497
vn 0 -1 0
vn 0 1 0
vn 0 0 -1
vn 0 0 1
vn 0.0780869832682258 -0.7071068484875248 0.7027818494142464
vn -0.0780869832682258 0.7071068484875248 -0.7027818494142464
vn 0.11043196509908727 0 0.9938836858930497
vn -0.11043196509908727 0 -0.9938836858930497
vn 0.9702957177895314 0.24192192963701695 0
vn -0.9702957177895314 -0.24192192963701695 0
vn 0.7071067811865476 -0.7071067811865476 0
vn -0.7071067811865476 0.7071067811865476 0
vn -0.9702957177895314 0.24192192963701695 0
vn 0.9702957177895314 -0.24192192963701695 0
usemtl material_0_0
f 1//1 2//1 3//1
f 3//2 2//2 1//2
f 1//3 4//3 2//3
f 2//4 4//4 1//4
f 5//1 3//1 2//1
f 2//2 3//2 5//2
f 1//5 3//5 6//5
f 6//6 3//6 1//6
f 1//7 6//7 4//7
f 4//8 6//8 1//8
f 7//3 2//3 4//3
f 4//4 2//4 7//4
f 5//9 8//9 3//9
f 3//10 8//10 5//10
f 5//11 2//11 9//11
f 9//12 2//12 5//12
f 10//5 6//5 3//5
f 3//6 6//6 10//6
f 11//7 4//7 6//7
f 6//8 4//8 11//8
f 2//11 7//11 12//11
f 12//12 7//12 2//12
f 7//10 4//10 13//10
f 13//9 4//9 7//9
f 8//9 5//9 9//9
f 9//10 5//10 8//10
f 10//9 3//9 8//9
f 8//10 3//10 10//10
f 9//11 2//11 12//11
f 12//12 2//12 9//12
f 6//13 10//13 14//13
f 14//14 10//14 6//14
f 11//10 13//10 4//10
f 4//9 13//9 11//9
f 6//15 14//15 11//15
f 11//16 14//16 6//16
f 13//11 12//11 7//11
f 7//12 12//12 13//12
f 9//17 12//17 8//17
f 8//18 12//18 9//18
f 15//9 10//9 8//9
f 8//10 10//10 15//10
f 16//13 14//13 10//13
f 10//14 14//14 16//14
f 17//10 13//10 11//10
f 11//9 13//9 17//9
f 17//15 11//15 14//15
f 14//16 11//16 17//16
f 12//11 13//11 18//11
f 18//12 13//12 12//12
f 19//17 8//17 12//17
f 12//18 8//18 19//18
f 20//9 10//9 15//9
f 15//10 10//10 20//10
f 15//11 8//11 21//11
f 21//12 8//12 15//12
f 16//19 22//19 14//19
f 14//20 22//20 16//20
f 10//9 23//9 16//9
f 16//10 23//10 10//10
f 17//4 14//4 13//4
f 13//3 14//3 17//3
f 24//11 18//11 13//11
f 13//12 18//12 24//12
f 25//11 12//11 18//11
f 18//12 12//12 25//12
f 19//11 21//11 8//11
f 8//12 21//12 19//12
f 19//9 12//9 21//9
f 21//10 12//10 19//10
f 26//9 10//9 20//9
f 20//10 10//10 26//10
f 15//21 21//21 20//21
f 20//22 21//22 15//22
f 22//9 16//9 27//9
f 27//10 16//10 22//10
f 24//19 14//19 22//19
f 22//20 14//20 24//20
f 23//9 10//9 26//9
f 26//10 10//10 23//10
f 28//9 16//9 23//9
f 23//10 16//10 28//10
f 24//4 13//4 14//4
f 14//3 13//3 24//3
f 27//11 18//11 24//11
f 24//12 18//12 27//12
f 25//9 21//9 12//9
f 12//10 21//10 25//10
f 29//11 25//11 18//11
f 18//12 25//12 29//12
f 26//11 20//11 30//11
f 30//12 20//12 26//12
f 31//21 20//21 21//21
f 21//22 20//22 31//22
f 27//9 16//9 28//9
f 28//10 16//10 27//10
f 22//11 27//11 24//11
f 24//12 27//12 22//12
f 30//17 23//17 26//17
f 26//18 23//18 30//18
f 28//11 23//11 32//11
f 32//12 23//12 28//12
f 18//21 27//21 32//21
f 32//22 27//22 18//22
f 25//21 31//21 21//21
f 21//22 31//22 25//22
f 25//11 29//11 33//11
f 33//12 29//12 25//12
f 18//9 32//9 29//9
f 29//10 32//10 18//10
f 31//11 30//11 20//11
f 20//12 30//12 31//12
f 28//21 32//21 27//21
f 27//22 32//22 28//22
f 30//17 29//17 23//17
f 23//18 29//18 30//18
f 34//11 32//11 23//11
f 23//12 32//12 34//12
f 33//21 31//21 25//21
f 25//22 31//22 33//22
f 35//11 33//11 29//11
f 29//12 33//12 35//12
f 34//9 29//9 32//9
f 32//10 29//10 34//10
f 31//9 33//9 30//9
f 30//10 33//10 31//10
f 35//17 29//17 30//17
f 30//18 29//18 35//18
f 34//17 23//17 29//17
f 29//18 23//18 34//18
f 35//9 30//9 33//9
f 33//10 30//10 35//10
