# SSTK version 0.8.0
# 39
mtllib original-39.mtl
o DF_41_TL1/DF_41_TL/mesh22/mesh22-geometry#mesh22-geometry
v -0.137314 0.642752 0.600872
v -0.159800 0.642328 0.601083
v -0.137314 0.642328 0.601083
v -0.160222 0.642752 0.600872
v -0.159800 0.620770 0.601083
v -0.137314 0.642963 0.600660
v -0.160222 0.620770 0.600872
v -0.137314 0.620770 0.601083
v -0.160433 0.642963 0.600660
v -0.160433 0.620770 0.600660
v -0.137314 0.643281 0.599919
v -0.160750 0.643281 0.599919
v -0.160750 0.620770 0.599919
v -0.160750 0.643281 0.596742
v -0.137314 0.643281 0.596742
v -0.160750 0.620770 0.596742
v -0.137314 0.647940 0.595259
v -0.165396 0.620770 0.595259
v -0.165396 0.647940 0.595259
v -0.137314 0.651647 0.592400
v -0.169092 0.620770 0.592400
v -0.169092 0.651647 0.592400
v -0.137314 0.654188 0.588270
v -0.171626 0.620770 0.588270
v -0.171626 0.654188 0.588270
v -0.137314 0.655036 0.585834
v -0.172471 0.620770 0.585834
v -0.172471 0.655036 0.585834
v -0.172471 0.655036 0.569315
v -0.172471 0.620770 0.569315
v -0.137314 0.655036 0.569315
v -0.171732 0.654294 0.567726
v -0.171732 0.620770 0.567726
v -0.137314 0.654294 0.567726
v -0.171204 0.653765 0.567091
v -0.171204 0.620770 0.567091
v -0.137314 0.653765 0.567091
v -0.137314 0.653129 0.566561
v -0.170570 0.620770 0.566561
v -0.170570 0.653129 0.566561
v -0.137314 0.652388 0.566138
v -0.169831 0.620770 0.566138
v -0.169831 0.652388 0.566138
v -0.137314 0.651541 0.565926
v -0.168987 0.620770 0.565926
v -0.168987 0.651541 0.565926
v -0.137314 0.620770 0.565926
vt 0.359579 0.619562
vt 0.349586 0.619373
vt 0.359579 0.619373
vt 0.349398 0.619562
vt 0.349586 0.609792
vt 0.359579 0.619656
vt 0.349398 0.609792
vt 0.359579 0.609792
vt 0.349304 0.619656
vt 0.349304 0.609792
vt 0.359579 0.619797
vt 0.349164 0.619797
vt 0.349164 0.609792
vt 0.359579 0.621868
vt 0.347099 0.609792
vt 0.347099 0.621868
vt 0.359579 0.623515
vt 0.345456 0.609792
vt 0.345456 0.623515
vt 0.359579 0.624645
vt 0.34433 0.609792
vt 0.34433 0.624645
vt 0.359579 0.625021
vt 0.343954 0.609792
vt 0.343954 0.625021
vt 0.344283 0.624692
vt 0.344283 0.609792
vt 0.359579 0.624692
vt 0.344518 0.624456
vt 0.344518 0.609792
vt 0.359579 0.624456
vt 0.359579 0.624174
vt 0.344799 0.609792
vt 0.344799 0.624174
vt 0.359579 0.623845
vt 0.345128 0.609792
vt 0.345128 0.623845
vt 0.359579 0.623468
vt 0.345503 0.609792
vt 0.345503 0.623468
vn 0 0.5847101851590341 0.8112422568945039
vn -0.15676206046329516 0.1564050603255996 0.9751733761254189
vn 0 0.22975299345089079 0.9732489722575384
vn -0.23030889896293244 0 0.9731175730909817
vn 0 0.8280670695038123 0.5606290470564013
vn -0.5857521623693505 0 0.8104902246663006
vn 0 0 1
vn -0.8287560581637597 0 0.5596100392745532
vn 0 0.9795777088499564 0.2010659402391903
vn -0.9796814039418299 0 0.20056008269485004
vn 0 1 0
vn -1 0 0
vn 0 0.464051983394364 0.8858079683022485
vn 0 0.30320390493164306 0.952925701214005
vn -0.3039900644876991 0 0.9526752020981571
vn -0.4650287724947268 0 0.8852955668882836
vn 0 0.7433792176090585 0.6688701957980667
vn -0.7442661561303099 0 0.6678831401068701
vn 0 0.9033857397178933 0.42882887644648543
vn -0.9038478859253655 0 0.4278539460005569
vn 0 0.9860266023981641 0.16658793282567882
vn -0.9861001493429067 0 0.1661520251633938
vn 0 0.9762639869414931 -0.21658399710297227
vn -0.9763822868494415 0 -0.21605006347292538
vn 0 0.8442230431427534 -0.5359920273910691
vn -0.8448912257021598 0 -0.5349381429020572
vn 0 0.7071067811865478 -0.7071067811865476
vn -0.708098584064076 0 -0.7061135852300611
vn 0 0.5703581035257089 -0.8213961490916283
vn -0.5714399290454513 0 -0.8206438981022948
vn 0 0.3728348815076877 -0.9278977051007017
vn -0.3737169228390486 0 -0.9275428084911835
vn 0 0.1221829501766746 -0.992507595278809
vn -0.12251705044977514 0 -0.9924664086754207
vn -0.0821549833732297 0.08193498341775415 -0.9932457989839558
vn 0 0 -1
vn 0 -0.22975299345089079 -0.9732489722575384
vn 0.15676206046329516 -0.1564050603255996 -0.9751733761254189
vn 0 -0.5847101851590341 -0.8112422568945039
vn 0.23030889896293244 0 -0.9731175730909817
vn 0 -0.8280670695038123 -0.5606290470564013
vn 0.5857521623693505 0 -0.8104902246663006
vn 0.8287560581637597 0 -0.5596100392745532
vn 0 -0.9795777088499564 -0.2010659402391903
vn 0.9796814039418299 0 -0.20056008269485004
vn 0 -1 0
vn 1 0 0
vn 0 -0.30320390493164306 -0.952925701214005
vn 0 -0.464051983394364 -0.8858079683022485
vn 0.3039900644876991 0 -0.9526752020981571
vn 0.4650287724947268 0 -0.8852955668882836
vn 0 -0.7433792176090585 -0.6688701957980667
vn 0.7442661561303099 0 -0.6678831401068701
vn 0 -0.9033857397178933 -0.42882887644648543
vn 0.9038478859253655 0 -0.4278539460005569
vn 0 -0.9860266023981641 -0.16658793282567882
vn 0.9861001493429067 0 -0.1661520251633938
vn 0 -0.9762639869414931 0.21658399710297227
vn 0.9763822868494415 0 0.21605006347292538
vn 0 -0.8442230431427534 0.5359920273910691
vn 0.8448912257021598 0 0.5349381429020572
vn 0 -0.7071067811865478 0.7071067811865476
vn 0.708098584064076 0 0.7061135852300611
vn 0 -0.5703581035257089 0.8213961490916283
vn 0.5714399290454513 0 0.8206438981022948
vn 0 -0.3728348815076877 0.9278977051007017
vn 0.3737169228390486 0 0.9275428084911835
vn 0 -0.1221829501766746 0.992507595278809
vn 0.12251705044977514 0 0.9924664086754207
vn 0.0821549833732297 -0.08193498341775415 0.9932457989839558
usemtl material_0_0
f 1/1/1 2/2/2 3/3/3
f 2/2/2 1/1/1 4/4/1
f 5/5/4 3/3/3 2/2/2
f 6/6/5 4/4/1 1/1/1
f 7/7/6 2/2/2 4/4/6
f 3/3/3 5/5/4 8/8/7
f 2/2/2 7/7/6 5/5/4
f 4/4/1 6/6/5 9/9/5
f 4/4/6 10/10/8 7/7/6
f 11/11/9 9/9/5 6/6/5
f 10/10/8 4/4/6 9/9/8
f 9/9/5 11/11/9 12/12/9
f 9/9/8 13/13/10 10/10/8
f 11/11/9 14/12/11 12/12/9
f 13/13/10 9/9/8 12/12/10
f 14/12/11 11/11/9 15/11/11
f 16/13/12 12/12/10 14/12/12
f 12/12/10 16/13/12 13/13/10
f 17/14/13 14/12/14 15/11/14
f 14/12/15 18/15/16 16/13/15
f 14/12/14 17/14/13 19/16/13
f 18/15/16 14/12/15 19/16/16
f 20/17/17 19/16/13 17/14/13
f 19/16/16 21/18/18 18/15/16
f 19/16/13 20/17/17 22/19/17
f 21/18/18 19/16/16 22/19/18
f 23/20/19 22/19/17 20/17/17
f 22/19/18 24/21/20 21/18/18
f 22/19/17 23/20/19 25/22/19
f 24/21/20 22/19/18 25/22/20
f 26/23/21 25/22/19 23/20/19
f 25/22/20 27/24/22 24/21/20
f 25/22/19 26/23/21 28/25/21
f 27/24/22 25/22/20 28/25/22
f 26/23/21 29/25/23 28/25/21
f 28/25/22 30/24/24 27/24/22
f 29/25/23 26/23/21 31/23/23
f 30/24/24 28/25/22 29/25/24
f 31/23/23 32/26/25 29/25/23
f 29/25/24 33/27/26 30/24/24
f 32/26/25 31/23/23 34/28/25
f 33/27/26 29/25/24 32/26/26
f 34/28/25 35/29/27 32/26/25
f 32/26/26 36/30/28 33/27/26
f 35/29/27 34/28/25 37/31/27
f 36/30/28 32/26/26 35/29/28
f 38/32/29 35/29/27 37/31/27
f 35/29/28 39/33/30 36/30/28
f 35/29/27 38/32/29 40/34/29
f 39/33/30 35/29/28 40/34/30
f 41/35/31 40/34/29 38/32/29
f 40/34/30 42/36/32 39/33/30
f 40/34/29 41/35/31 43/37/31
f 42/36/32 40/34/30 43/37/32
f 44/38/33 43/37/31 41/35/31
f 43/37/32 45/39/34 42/36/32
f 43/37/31 44/38/33 46/40/35
f 45/39/34 43/37/32 46/40/35
f 47/8/36 46/40/35 44/38/33
f 46/40/35 47/8/36 45/39/34
usemtl material_1_0
f 3//37 2//38 1//39
f 4//39 1//39 2//38
f 2//38 3//37 5//40
f 1//39 4//39 6//41
f 4//42 2//38 7//42
f 8//36 5//40 3//37
f 5//40 7//42 2//38
f 9//41 6//41 4//39
f 7//42 10//43 4//42
f 6//41 9//41 11//44
f 9//43 4//42 10//43
f 12//44 11//44 9//41
f 10//43 13//45 9//43
f 12//44 14//46 11//44
f 12//45 9//43 13//45
f 15//46 11//44 14//46
f 14//47 12//45 16//47
f 13//45 16//47 12//45
f 15//48 14//48 17//49
f 16//50 18//51 14//50
f 19//49 17//49 14//48
f 19//51 14//50 18//51
f 17//49 19//49 20//52
f 18//51 21//53 19//51
f 22//52 20//52 19//49
f 22//53 19//51 21//53
f 20//52 22//52 23//54
f 21//53 24//55 22//53
f 25//54 23//54 22//52
f 25//55 22//53 24//55
f 23//54 25//54 26//56
f 24//55 27//57 25//55
f 28//56 26//56 25//54
f 28//57 25//55 27//57
f 28//56 29//58 26//56
f 27//57 30//59 28//57
f 31//58 26//56 29//58
f 29//59 28//57 30//59
f 29//58 32//60 31//58
f 30//59 33//61 29//59
f 34//60 31//58 32//60
f 32//61 29//59 33//61
f 32//60 35//62 34//60
f 33//61 36//63 32//61
f 37//62 34//60 35//62
f 35//63 32//61 36//63
f 37//62 35//62 38//64
f 36//63 39//65 35//63
f 40//64 38//64 35//62
f 40//65 35//63 39//65
f 38//64 40//64 41//66
f 39//65 42//67 40//65
f 43//66 41//66 40//64
f 43//67 40//65 42//67
f 41//66 43//66 44//68
f 42//67 45//69 43//67
f 46//70 44//68 43//66
f 46//70 43//67 45//69
f 44//68 46//70 47//7
f 45//69 47//7 46//70
