# SSTK version 0.8.0
# 40
mtllib original-40.mtl
o Group8/mesh42/mesh42-geometry/material_1#mesh42-geometry
v -0.643834 -0.205314 0.388785
v -0.001448 -0.205314 0.392175
v -0.001448 -0.205314 0.388785
v -0.001448 -0.205314 0.388785
v -0.001448 -0.205314 0.392175
v -0.643834 -0.205314 0.388785
v -0.001448 -0.205314 0.388785
v -0.643834 -0.205314 0.348106
v -0.643834 -0.205314 0.388785
v -0.643834 -0.205314 0.388785
v -0.643834 -0.205314 0.348106
v -0.001448 -0.205314 0.388785
v -0.001448 -0.205314 0.392175
v -0.001448 0.092997 0.388785
v -0.001448 -0.205314 0.388785
v -0.001448 -0.205314 0.388785
v -0.001448 0.092997 0.388785
v -0.001448 -0.205314 0.392175
v -0.001448 0.092997 0.348106
v -0.001448 -0.205314 0.388785
v -0.001448 0.092997 0.388785
v -0.001448 0.092997 0.388785
v -0.001448 -0.205314 0.388785
v -0.001448 0.092997 0.348106
v -0.643834 0.092997 0.388785
v -0.001448 0.092997 0.348106
v -0.001448 0.092997 0.388785
v -0.001448 0.092997 0.388785
v -0.001448 0.092997 0.348106
v -0.643834 0.092997 0.388785
v -0.001448 0.092997 0.388785
v -0.643834 0.092997 0.392175
v -0.643834 0.092997 0.388785
v -0.643834 0.092997 0.388785
v -0.643834 0.092997 0.392175
v -0.001448 0.092997 0.388785
v -0.643834 -0.205314 0.348106
v -0.643834 0.092997 0.388785
v -0.643834 -0.205314 0.388785
v -0.643834 -0.205314 0.388785
v -0.643834 0.092997 0.388785
v -0.643834 -0.205314 0.348106
v -0.643834 0.092997 0.392175
v -0.643834 -0.205314 0.388785
v -0.643834 0.092997 0.388785
v -0.643834 0.092997 0.388785
v -0.643834 -0.205314 0.388785
v -0.643834 0.092997 0.392175
v -0.001448 -0.205314 0.392175
v -0.643834 -0.205314 0.388785
v -0.643834 -0.205314 0.392175
v -0.643834 -0.205314 0.392175
v -0.643834 -0.205314 0.388785
v -0.001448 -0.205314 0.392175
v -0.643834 -0.205314 0.348106
v -0.001448 -0.205314 0.388785
v -0.001448 -0.205314 0.348106
v -0.001448 -0.205314 0.348106
v -0.001448 -0.205314 0.388785
v -0.643834 -0.205314 0.348106
v -0.001448 0.092997 0.388785
v -0.001448 -0.205314 0.392175
v -0.001448 0.092997 0.392175
v -0.001448 0.092997 0.392175
v -0.001448 -0.205314 0.392175
v -0.001448 0.092997 0.388785
v -0.001448 -0.205314 0.388785
v -0.001448 0.092997 0.348106
v -0.001448 -0.205314 0.348106
v -0.001448 -0.205314 0.348106
v -0.001448 0.092997 0.348106
v -0.001448 -0.205314 0.388785
v -0.001448 0.092997 0.348106
v -0.643834 0.092997 0.388785
v -0.643834 0.092997 0.348106
v -0.643834 0.092997 0.348106
v -0.643834 0.092997 0.388785
v -0.001448 0.092997 0.348106
v -0.643834 0.092997 0.392175
v -0.001448 0.092997 0.388785
v -0.001448 0.092997 0.392175
v -0.001448 0.092997 0.392175
v -0.001448 0.092997 0.388785
v -0.643834 0.092997 0.392175
v -0.643834 0.092997 0.388785
v -0.643834 -0.205314 0.348106
v -0.643834 0.092997 0.348106
v -0.643834 0.092997 0.348106
v -0.643834 -0.205314 0.348106
v -0.643834 0.092997 0.388785
v -0.643834 -0.205314 0.388785
v -0.643834 0.092997 0.392175
v -0.643834 -0.205314 0.392175
v -0.643834 -0.205314 0.392175
v -0.643834 0.092997 0.392175
v -0.643834 -0.205314 0.388785
v -0.643834 -0.205314 0.392175
v -0.779430 -0.368030 0.392175
v -0.001448 -0.205314 0.392175
v -0.001448 -0.205314 0.392175
v -0.779430 -0.368030 0.392175
v -0.643834 -0.205314 0.392175
v -0.001448 -0.205314 0.348106
v -0.643834 -0.205314 0.341326
v -0.643834 -0.205314 0.348106
v -0.643834 -0.205314 0.348106
v -0.643834 -0.205314 0.341326
v -0.001448 -0.205314 0.348106
v -0.001448 -0.205314 0.392175
v 0.134148 0.255712 0.392175
v -0.001448 0.092997 0.392175
v -0.001448 0.092997 0.392175
v 0.134148 0.255712 0.392175
v -0.001448 -0.205314 0.392175
v -0.001448 0.092997 0.341326
v -0.001448 -0.205314 0.348106
v -0.001448 0.092997 0.348106
v -0.001448 0.092997 0.348106
v -0.001448 -0.205314 0.348106
v -0.001448 0.092997 0.341326
v -0.643834 0.092997 0.348106
v -0.001448 0.092997 0.341326
v -0.001448 0.092997 0.348106
v -0.001448 0.092997 0.348106
v -0.001448 0.092997 0.341326
v -0.643834 0.092997 0.348106
v -0.001448 0.092997 0.392175
v 0.134148 0.255712 0.392175
v -0.643834 0.092997 0.392175
v -0.643834 0.092997 0.392175
v 0.134148 0.255712 0.392175
v -0.001448 0.092997 0.392175
v -0.643834 -0.205314 0.341326
v -0.643834 0.092997 0.348106
v -0.643834 -0.205314 0.348106
v -0.643834 -0.205314 0.348106
v -0.643834 0.092997 0.348106
v -0.643834 -0.205314 0.341326
v -0.779430 0.255712 0.392175
v -0.643834 -0.205314 0.392175
v -0.643834 0.092997 0.392175
v -0.643834 0.092997 0.392175
v -0.643834 -0.205314 0.392175
v -0.779430 0.255712 0.392175
v -0.779430 -0.368030 0.392175
v -0.643834 -0.205314 0.392175
v -0.779430 0.255712 0.392175
v -0.779430 0.255712 0.392175
v -0.643834 -0.205314 0.392175
v -0.779430 -0.368030 0.392175
v 0.134148 -0.368030 0.392175
v -0.001448 -0.205314 0.392175
v -0.779430 -0.368030 0.392175
v -0.779430 -0.368030 0.392175
v -0.001448 -0.205314 0.392175
v 0.134148 -0.368030 0.392175
v -0.643834 -0.205314 0.341326
v -0.001448 -0.205314 0.348106
v -0.001448 -0.205314 0.341326
v -0.001448 -0.205314 0.341326
v -0.001448 -0.205314 0.348106
v -0.643834 -0.205314 0.341326
v -0.001448 -0.205314 0.392175
v 0.134148 -0.368030 0.392175
v 0.134148 0.255712 0.392175
v 0.134148 0.255712 0.392175
v 0.134148 -0.368030 0.392175
v -0.001448 -0.205314 0.392175
v -0.001448 -0.205314 0.348106
v -0.001448 0.092997 0.341326
v -0.001448 -0.205314 0.341326
v -0.001448 -0.205314 0.341326
v -0.001448 0.092997 0.341326
v -0.001448 -0.205314 0.348106
v -0.001448 0.092997 0.341326
v -0.643834 0.092997 0.348106
v -0.643834 0.092997 0.341326
v -0.643834 0.092997 0.341326
v -0.643834 0.092997 0.348106
v -0.001448 0.092997 0.341326
v -0.779430 0.255712 0.392175
v -0.643834 0.092997 0.392175
v 0.134148 0.255712 0.392175
v 0.134148 0.255712 0.392175
v -0.643834 0.092997 0.392175
v -0.779430 0.255712 0.392175
v -0.643834 0.092997 0.348106
v -0.643834 -0.205314 0.341326
v -0.643834 0.092997 0.341326
v -0.643834 0.092997 0.341326
v -0.643834 -0.205314 0.341326
v -0.643834 0.092997 0.348106
v -0.779430 0.255712 0.341326
v -0.779430 -0.368030 0.392175
v -0.779430 0.255712 0.392175
v -0.779430 0.255712 0.392175
v -0.779430 -0.368030 0.392175
v -0.779430 0.255712 0.341326
v -0.779430 -0.368030 0.392175
v 0.134148 -0.368030 0.341326
v 0.134148 -0.368030 0.392175
v 0.134148 -0.368030 0.392175
v 0.134148 -0.368030 0.341326
v -0.779430 -0.368030 0.392175
v -0.001448 -0.205314 0.341326
v 0.134148 -0.368030 0.341326
v -0.643834 -0.205314 0.341326
v -0.643834 -0.205314 0.341326
v 0.134148 -0.368030 0.341326
v -0.001448 -0.205314 0.341326
v 0.134148 -0.368030 0.341326
v 0.134148 0.255712 0.392175
v 0.134148 -0.368030 0.392175
v 0.134148 -0.368030 0.392175
v 0.134148 0.255712 0.392175
v 0.134148 -0.368030 0.341326
v 0.134148 0.255712 0.341326
v -0.001448 -0.205314 0.341326
v -0.001448 0.092997 0.341326
v -0.001448 0.092997 0.341326
v -0.001448 -0.205314 0.341326
v 0.134148 0.255712 0.341326
v -0.643834 0.092997 0.341326
v -0.779430 0.255712 0.341326
v -0.001448 0.092997 0.341326
v -0.001448 0.092997 0.341326
v -0.779430 0.255712 0.341326
v -0.643834 0.092997 0.341326
v 0.134148 0.255712 0.392175
v -0.779430 0.255712 0.341326
v -0.779430 0.255712 0.392175
v -0.779430 0.255712 0.392175
v -0.779430 0.255712 0.341326
v 0.134148 0.255712 0.392175
v -0.643834 -0.205314 0.341326
v -0.779430 0.255712 0.341326
v -0.643834 0.092997 0.341326
v -0.643834 0.092997 0.341326
v -0.779430 0.255712 0.341326
v -0.643834 -0.205314 0.341326
v -0.779430 -0.368030 0.392175
v -0.779430 0.255712 0.341326
v -0.779430 -0.368030 0.341326
v -0.779430 -0.368030 0.341326
v -0.779430 0.255712 0.341326
v -0.779430 -0.368030 0.392175
v 0.134148 -0.368030 0.341326
v -0.779430 -0.368030 0.392175
v -0.779430 -0.368030 0.341326
v -0.779430 -0.368030 0.341326
v -0.779430 -0.368030 0.392175
v 0.134148 -0.368030 0.341326
v 0.134148 -0.368030 0.341326
v -0.001448 -0.205314 0.341326
v 0.134148 0.255712 0.341326
v 0.134148 0.255712 0.341326
v -0.001448 -0.205314 0.341326
v 0.134148 -0.368030 0.341326
v -0.779430 -0.368030 0.341326
v -0.643834 -0.205314 0.341326
v 0.134148 -0.368030 0.341326
v 0.134148 -0.368030 0.341326
v -0.643834 -0.205314 0.341326
v -0.779430 -0.368030 0.341326
v 0.134148 0.255712 0.392175
v 0.134148 -0.368030 0.341326
v 0.134148 0.255712 0.341326
v 0.134148 0.255712 0.341326
v 0.134148 -0.368030 0.341326
v 0.134148 0.255712 0.392175
v 0.134148 0.255712 0.341326
v -0.001448 0.092997 0.341326
v -0.779430 0.255712 0.341326
v -0.779430 0.255712 0.341326
v -0.001448 0.092997 0.341326
v 0.134148 0.255712 0.341326
v -0.779430 0.255712 0.341326
v 0.134148 0.255712 0.392175
v 0.134148 0.255712 0.341326
v 0.134148 0.255712 0.341326
v 0.134148 0.255712 0.392175
v -0.779430 0.255712 0.341326
v -0.643834 -0.205314 0.341326
v -0.779430 -0.368030 0.341326
v -0.779430 0.255712 0.341326
v -0.779430 0.255712 0.341326
v -0.779430 -0.368030 0.341326
v -0.643834 -0.205314 0.341326
vn 0 1 0
vn 0 -1 0
vn -1 0 0
vn 1 0 0
vn 0 0 1
vn 0 0 -1
usemtl material_0_0
f 1//1 2//1 3//1
f 4//2 5//2 6//2
f 7//1 8//1 9//1
f 10//2 11//2 12//2
f 13//3 14//3 15//3
f 16//4 17//4 18//4
f 19//3 20//3 21//3
f 22//4 23//4 24//4
f 25//2 26//2 27//2
f 28//1 29//1 30//1
f 31//2 32//2 33//2
f 34//1 35//1 36//1
f 37//4 38//4 39//4
f 40//3 41//3 42//3
f 43//4 44//4 45//4
f 46//3 47//3 48//3
f 49//1 50//1 51//1
f 52//2 53//2 54//2
f 55//1 56//1 57//1
f 58//2 59//2 60//2
f 61//3 62//3 63//3
f 64//4 65//4 66//4
f 67//3 68//3 69//3
f 70//4 71//4 72//4
f 73//2 74//2 75//2
f 76//1 77//1 78//1
f 79//2 80//2 81//2
f 82//1 83//1 84//1
f 85//4 86//4 87//4
f 88//3 89//3 90//3
f 91//4 92//4 93//4
f 94//3 95//3 96//3
f 97//5 98//5 99//5
f 100//6 101//6 102//6
f 103//1 104//1 105//1
f 106//2 107//2 108//2
f 109//5 110//5 111//5
f 112//6 113//6 114//6
f 115//3 116//3 117//3
f 118//4 119//4 120//4
f 121//2 122//2 123//2
f 124//1 125//1 126//1
f 127//5 128//5 129//5
f 130//6 131//6 132//6
f 133//4 134//4 135//4
f 136//3 137//3 138//3
f 139//5 140//5 141//5
f 142//6 143//6 144//6
f 145//5 146//5 147//5
f 148//6 149//6 150//6
f 151//5 152//5 153//5
f 154//6 155//6 156//6
f 157//1 158//1 159//1
f 160//2 161//2 162//2
f 163//5 164//5 165//5
f 166//6 167//6 168//6
f 169//3 170//3 171//3
f 172//4 173//4 174//4
f 175//2 176//2 177//2
f 178//1 179//1 180//1
f 181//5 182//5 183//5
f 184//6 185//6 186//6
f 187//4 188//4 189//4
f 190//3 191//3 192//3
f 193//3 194//3 195//3
f 196//4 197//4 198//4
f 199//2 200//2 201//2
f 202//1 203//1 204//1
f 205//6 206//6 207//6
f 208//5 209//5 210//5
f 211//4 212//4 213//4
f 214//3 215//3 216//3
f 217//6 218//6 219//6
f 220//5 221//5 222//5
f 223//6 224//6 225//6
f 226//5 227//5 228//5
f 229//1 230//1 231//1
f 232//2 233//2 234//2
f 235//6 236//6 237//6
f 238//5 239//5 240//5
f 241//3 242//3 243//3
f 244//4 245//4 246//4
f 247//2 248//2 249//2
f 250//1 251//1 252//1
f 253//6 254//6 255//6
f 256//5 257//5 258//5
f 259//6 260//6 261//6
f 262//5 263//5 264//5
f 265//4 266//4 267//4
f 268//3 269//3 270//3
f 271//6 272//6 273//6
f 274//5 275//5 276//5
f 277//1 278//1 279//1
f 280//2 281//2 282//2
f 283//6 284//6 285//6
f 286//5 287//5 288//5
