# SSTK version 0.8.0
# 79
mtllib original-79.mtl
o group_8/ID503#ID503
v 0.03597 0.179896 -0.209343
v -0.054554 0.179896 -0.201038
v 0.03597 0.179896 -0.201038
v -0.054554 0.179896 -0.209343
v -0.054554 0.179896 -0.209343
v 0.03597 0.179896 -0.209343
v -0.054554 0.179896 -0.201038
v 0.03597 0.179896 -0.201038
v 0.03597 0.177972 -0.24783
v 0.03597 0.175744 -0.246715
v 0.03597 0.17382 -0.256134
v 0.03597 0.204811 -0.217648
v 0.03597 0.179896 -0.209343
v 0.03597 0.204811 -0.209343
v 0.03597 0.171591 -0.201038
v 0.03597 0.171591 -0.25502
v 0.03597 0.179896 -0.201038
v 0.03597 0.163287 -0.151209
v 0.03597 0.163287 -0.234258
v 0.03597 0.171591 -0.151209
v 0.03597 0.171591 -0.201038
v 0.03597 0.171591 -0.25502
v 0.03597 0.171591 -0.151209
v 0.03597 0.163287 -0.151209
v 0.03597 0.163287 -0.234258
v 0.03597 0.179896 -0.209343
v 0.03597 0.175744 -0.246715
v 0.03597 0.179896 -0.201038
v 0.03597 0.17382 -0.256134
v 0.03597 0.204811 -0.209343
v 0.03597 0.204811 -0.217648
v 0.03597 0.177972 -0.24783
v -0.054554 0.204811 -0.209343
v 0.03597 0.179896 -0.209343
v 0.03597 0.204811 -0.209343
v -0.054554 0.179896 -0.209343
v -0.054554 0.179896 -0.209343
v -0.054554 0.204811 -0.209343
v 0.03597 0.179896 -0.209343
v 0.03597 0.204811 -0.209343
v -0.054554 0.171591 -0.151209
v -0.054554 0.163287 -0.234258
v -0.054554 0.163287 -0.151209
v -0.054554 0.171591 -0.25502
v -0.054554 0.171591 -0.201038
v -0.054554 0.179896 -0.201038
v -0.054554 0.17382 -0.256134
v -0.054554 0.175744 -0.246715
v -0.054554 0.179896 -0.209343
v -0.054554 0.204811 -0.217648
v -0.054554 0.204811 -0.209343
v -0.054554 0.177972 -0.24783
v -0.054554 0.175744 -0.246715
v -0.054554 0.17382 -0.256134
v -0.054554 0.177972 -0.24783
v -0.054554 0.204811 -0.209343
v -0.054554 0.179896 -0.209343
v -0.054554 0.204811 -0.217648
v -0.054554 0.179896 -0.201038
v -0.054554 0.171591 -0.25502
v -0.054554 0.171591 -0.201038
v -0.054554 0.171591 -0.151209
v -0.054554 0.163287 -0.234258
v -0.054554 0.163287 -0.151209
v -0.054554 0.179896 -0.201038
v 0.03597 0.171591 -0.201038
v 0.03597 0.179896 -0.201038
v -0.054554 0.171591 -0.201038
v -0.054554 0.171591 -0.201038
v -0.054554 0.179896 -0.201038
v 0.03597 0.171591 -0.201038
v 0.03597 0.179896 -0.201038
v 0.03597 0.171591 -0.201038
v -0.054554 0.171591 -0.151209
v 0.03597 0.171591 -0.151209
v -0.054554 0.171591 -0.201038
v -0.054554 0.171591 -0.201038
v 0.03597 0.171591 -0.201038
v -0.054554 0.171591 -0.151209
v 0.03597 0.171591 -0.151209
v -0.054554 0.171591 -0.151209
v 0.03597 0.163287 -0.151209
v 0.03597 0.171591 -0.151209
v -0.054554 0.163287 -0.151209
v -0.054554 0.163287 -0.151209
v -0.054554 0.171591 -0.151209
v 0.03597 0.163287 -0.151209
v 0.03597 0.171591 -0.151209
v -0.054554 0.163287 -0.234258
v 0.03597 0.163287 -0.151209
v -0.054554 0.163287 -0.151209
v 0.03597 0.163287 -0.234258
v 0.03597 0.163287 -0.234258
v -0.054554 0.163287 -0.234258
v 0.03597 0.163287 -0.151209
v -0.054554 0.163287 -0.151209
v -0.054554 0.171591 -0.25502
v 0.03597 0.163287 -0.234258
v -0.054554 0.163287 -0.234258
v 0.03597 0.171591 -0.25502
v 0.03597 0.171591 -0.25502
v -0.054554 0.171591 -0.25502
v 0.03597 0.163287 -0.234258
v -0.054554 0.163287 -0.234258
v -0.054554 0.171591 -0.25502
v 0.03597 0.17382 -0.256134
v 0.03597 0.171591 -0.25502
v -0.054554 0.17382 -0.256134
v -0.054554 0.17382 -0.256134
v -0.054554 0.171591 -0.25502
v 0.03597 0.17382 -0.256134
v 0.03597 0.171591 -0.25502
v 0.03597 0.17382 -0.256134
v -0.054554 0.177972 -0.24783
v 0.03597 0.177972 -0.24783
v -0.054554 0.17382 -0.256134
v -0.054554 0.17382 -0.256134
v 0.03597 0.17382 -0.256134
v -0.054554 0.177972 -0.24783
v 0.03597 0.177972 -0.24783
v -0.054554 0.177972 -0.24783
v 0.03597 0.175744 -0.246715
v 0.03597 0.177972 -0.24783
v -0.054554 0.175744 -0.246715
v -0.054554 0.175744 -0.246715
v -0.054554 0.177972 -0.24783
v 0.03597 0.175744 -0.246715
v 0.03597 0.177972 -0.24783
v 0.03597 0.175744 -0.246715
v 0.027665 0.204811 -0.217648
v 0.03597 0.204811 -0.217648
v 0.03597 0.204811 -0.217648
v 0.027665 0.204811 -0.217648
v 0.03597 0.175744 -0.246715
v 0.03597 0.204811 -0.217648
v -0.054554 0.204811 -0.209343
v 0.03597 0.204811 -0.209343
v -0.054554 0.204811 -0.217648
v 0.027665 0.204811 -0.217648
v -0.001402 0.204811 -0.217648
v -0.017182 0.204811 -0.217648
v -0.046249 0.204811 -0.217648
v -0.046249 0.204811 -0.217648
v -0.017182 0.204811 -0.217648
v -0.054554 0.204811 -0.217648
v -0.001402 0.204811 -0.217648
v 0.027665 0.204811 -0.217648
v 0.03597 0.204811 -0.217648
v -0.054554 0.204811 -0.209343
v 0.03597 0.204811 -0.209343
v -0.054554 0.175744 -0.246715
v -0.054554 0.204811 -0.217648
v -0.046249 0.184081 -0.23841
v -0.046249 0.184081 -0.23841
v -0.054554 0.204811 -0.217648
v -0.054554 0.175744 -0.246715
v -0.054554 0.175744 -0.246715
v 0.027665 0.184081 -0.23841
v 0.03597 0.175744 -0.246715
v -0.001402 0.184081 -0.23841
v -0.017182 0.184081 -0.23841
v -0.046249 0.184081 -0.23841
v -0.046249 0.184081 -0.23841
v -0.054554 0.175744 -0.246715
v -0.017182 0.184081 -0.23841
v -0.001402 0.184081 -0.23841
v 0.027665 0.184081 -0.23841
v 0.03597 0.175744 -0.246715
v 0.03597 0.175744 -0.246715
v 0.027665 0.184081 -0.23841
v 0.027665 0.204811 -0.217648
v 0.027665 0.204811 -0.217648
v 0.027665 0.184081 -0.23841
v 0.03597 0.175744 -0.246715
v -0.001402 0.184081 -0.217648
v 0.027665 0.204811 -0.217648
v 0.027665 0.184081 -0.217648
v -0.001402 0.204811 -0.217648
v -0.001402 0.204811 -0.217648
v -0.001402 0.184081 -0.217648
v 0.027665 0.204811 -0.217648
v 0.027665 0.184081 -0.217648
v -0.001402 0.184081 -0.23841
v -0.017182 0.204811 -0.217648
v -0.001402 0.204811 -0.217648
v -0.017182 0.184081 -0.23841
v -0.017182 0.184081 -0.23841
v -0.001402 0.184081 -0.23841
v -0.017182 0.204811 -0.217648
v -0.001402 0.204811 -0.217648
v -0.017182 0.204811 -0.217648
v -0.001402 0.184081 -0.217648
v -0.001402 0.204811 -0.217648
v -0.017182 0.184081 -0.217648
v -0.017182 0.184081 -0.217648
v -0.017182 0.204811 -0.217648
v -0.001402 0.184081 -0.217648
v -0.001402 0.204811 -0.217648
v -0.046249 0.204811 -0.217648
v -0.046249 0.184081 -0.217648
v -0.046249 0.184081 -0.217648
v -0.046249 0.204811 -0.217648
v -0.046249 0.184081 -0.23841
v -0.054554 0.204811 -0.217648
v -0.046249 0.204811 -0.217648
v -0.046249 0.204811 -0.217648
v -0.054554 0.204811 -0.217648
v -0.046249 0.184081 -0.23841
v -0.046249 0.184081 -0.23841
v -0.017182 0.184081 -0.217648
v -0.046249 0.184081 -0.217648
v -0.017182 0.184081 -0.23841
v -0.017182 0.184081 -0.23841
v -0.046249 0.184081 -0.23841
v -0.017182 0.184081 -0.217648
v -0.046249 0.184081 -0.217648
v -0.001402 0.184081 -0.217648
v -0.001402 0.184081 -0.23841
v -0.001402 0.184081 -0.23841
v -0.001402 0.184081 -0.217648
v 0.027665 0.184081 -0.23841
v -0.001402 0.184081 -0.217648
v 0.027665 0.184081 -0.217648
v -0.001402 0.184081 -0.23841
v -0.001402 0.184081 -0.23841
v 0.027665 0.184081 -0.23841
v -0.001402 0.184081 -0.217648
v 0.027665 0.184081 -0.217648
v 0.027665 0.204811 -0.217648
v 0.027665 0.184081 -0.23841
v 0.027665 0.184081 -0.217648
v 0.027665 0.184081 -0.217648
v 0.027665 0.184081 -0.23841
v 0.027665 0.204811 -0.217648
v -0.001402 0.204811 -0.217648
v -0.001402 0.184081 -0.23841
v -0.001402 0.184081 -0.217648
v -0.001402 0.184081 -0.217648
v -0.001402 0.184081 -0.23841
v -0.001402 0.204811 -0.217648
v -0.017182 0.204811 -0.217648
v -0.017182 0.184081 -0.23841
v -0.017182 0.184081 -0.217648
v -0.017182 0.184081 -0.217648
v -0.017182 0.184081 -0.23841
v -0.017182 0.204811 -0.217648
v -0.046249 0.204811 -0.217648
v -0.046249 0.184081 -0.23841
v -0.046249 0.184081 -0.217648
v -0.046249 0.184081 -0.217648
v -0.046249 0.184081 -0.23841
v -0.046249 0.204811 -0.217648
vn 0.0 1.0 0.0
vn 0.0 -1.0 0.0
vn 1.0 0.0 0.0
vn -1.0 0.0 0.0
vn 0.0 0.0 1.0
vn 0.0 0.0 -1.0
vn 0.0 -0.9284766839887075 -0.3713906935954827
vn 0.0 0.9284766839887075 0.3713906935954827
vn 0.0 -0.44721359549995787 -0.8944271909999157
vn 0.0 0.44721359549995787 0.8944271909999157
vn 0.0 0.8944271909999157 -0.44721359549995787
vn 0.0 -0.8944271909999157 0.44721359549995787
vn 0.0 0.7071067811865476 -0.7071067811865476
vn 0.0 -0.7071067811865476 0.7071067811865476
vn -0.002757106975030929 0.7071040935962429 -0.7071040935962429
vn 0.002757106975030929 -0.7071040935962429 0.7071040935962429
vn 0.0 0.7057295926724626 -0.7084812926438919
vn 0.0 -0.7057295926724626 0.7084812926438919
vn 0.0038629472183732308 0.7076531400038119 -0.7065494399414194
vn -0.0038629472183732308 -0.7076531400038119 0.7065494399414194
vn 0.0 0.7076584158576877 -0.7065547158329551
vn 0.0 -0.7076584158576877 0.7065547158329551
usemtl material_0_0
f 1//1 2//1 3//1
f 2//1 1//1 4//1
f 5//2 6//2 7//2
f 8//2 7//2 6//2
f 9//3 10//3 11//3
f 12//3 13//3 10//3
f 13//3 12//3 14//3
f 11//3 15//3 16//3
f 15//3 11//3 17//3
f 17//3 11//3 10//3
f 17//3 10//3 13//3
f 16//3 18//3 19//3
f 18//3 16//3 20//3
f 20//3 16//3 15//3
f 21//4 22//4 23//4
f 23//4 22//4 24//4
f 25//4 24//4 22//4
f 26//4 27//4 28//4
f 27//4 29//4 28//4
f 28//4 29//4 21//4
f 22//4 21//4 29//4
f 30//4 31//4 26//4
f 27//4 26//4 31//4
f 29//4 27//4 32//4
f 33//5 34//5 35//5
f 34//5 33//5 36//5
f 37//6 38//6 39//6
f 40//6 39//6 38//6
f 41//4 42//4 43//4
f 42//4 41//4 44//4
f 44//4 41//4 45//4
f 44//4 45//4 46//4
f 44//4 46//4 47//4
f 47//4 46//4 48//4
f 48//4 46//4 49//4
f 48//4 49//4 50//4
f 50//4 49//4 51//4
f 52//4 47//4 48//4
f 53//3 54//3 55//3
f 56//3 57//3 58//3
f 58//3 57//3 53//3
f 57//3 59//3 53//3
f 53//3 59//3 54//3
f 54//3 59//3 60//3
f 59//3 61//3 60//3
f 61//3 62//3 60//3
f 60//3 62//3 63//3
f 64//3 63//3 62//3
f 65//5 66//5 67//5
f 66//5 65//5 68//5
f 69//6 70//6 71//6
f 72//6 71//6 70//6
f 73//1 74//1 75//1
f 74//1 73//1 76//1
f 77//2 78//2 79//2
f 80//2 79//2 78//2
f 81//5 82//5 83//5
f 82//5 81//5 84//5
f 85//6 86//6 87//6
f 88//6 87//6 86//6
f 89//2 90//2 91//2
f 90//2 89//2 92//2
f 93//1 94//1 95//1
f 96//1 95//1 94//1
f 97//7 98//7 99//7
f 98//7 97//7 100//7
f 101//8 102//8 103//8
f 104//8 103//8 102//8
f 105//9 106//9 107//9
f 106//9 105//9 108//9
f 109//10 110//10 111//10
f 112//10 111//10 110//10
f 113//11 114//11 115//11
f 114//11 113//11 116//11
f 117//12 118//12 119//12
f 120//12 119//12 118//12
f 121//10 122//10 123//10
f 122//10 121//10 124//10
f 125//9 126//9 127//9
f 128//9 127//9 126//9
f 129//13 130//13 131//13
f 132//14 133//14 134//14
f 135//1 136//1 137//1
f 136//1 135//1 138//1
f 138//1 135//1 139//1
f 138//1 139//1 140//1
f 138//1 140//1 141//1
f 138//1 141//1 142//1
f 143//2 144//2 145//2
f 144//2 146//2 145//2
f 146//2 147//2 145//2
f 147//2 148//2 145//2
f 145//2 148//2 149//2
f 150//2 149//2 148//2
f 151//15 152//15 153//15
f 154//16 155//16 156//16
f 157//17 158//17 159//17
f 158//17 157//17 160//17
f 160//17 157//17 161//17
f 161//17 157//17 162//17
f 163//18 164//18 165//18
f 165//18 164//18 166//18
f 166//18 164//18 167//18
f 168//18 167//18 164//18
f 169//19 170//19 171//19
f 172//20 173//20 174//20
f 175//6 176//6 177//6
f 176//6 175//6 178//6
f 179//5 180//5 181//5
f 182//5 181//5 180//5
f 183//21 184//21 185//21
f 184//21 183//21 186//21
f 187//22 188//22 189//22
f 190//22 189//22 188//22
f 191//5 192//5 193//5
f 192//5 191//5 194//5
f 195//6 196//6 197//6
f 198//6 197//6 196//6
f 199//5 194//5 191//5
f 194//5 199//5 200//5
f 201//6 202//6 195//6
f 196//6 195//6 202//6
f 203//21 204//21 205//21
f 206//22 207//22 208//22
f 209//2 210//2 211//2
f 210//2 209//2 212//2
f 213//1 214//1 215//1
f 216//1 215//1 214//1
f 212//2 217//2 210//2
f 217//2 212//2 218//2
f 219//1 213//1 220//1
f 215//1 220//1 213//1
f 221//1 222//1 223//1
f 222//1 221//1 224//1
f 225//2 226//2 227//2
f 228//2 227//2 226//2
f 229//4 230//4 231//4
f 232//3 233//3 234//3
f 235//4 236//4 237//4
f 238//3 239//3 240//3
f 241//4 242//4 243//4
f 244//3 245//3 246//3
f 247//4 248//4 249//4
f 250//3 251//3 252//3
