mtllib new-0.mtl
v 0.036590 0.751206 0.459291
v -0.082995 0.751206 0.454601
v 0.153315 0.751206 0.432871
v -0.197292 0.751206 0.419119
v -0.082995 0.885686 0.454601
v 0.036590 0.885686 0.459291
v -0.298511 0.751206 0.355265
v 0.259224 0.751206 0.377140
v -0.197292 0.885686 0.419119
v 0.153315 0.885686 0.432871
v -0.298511 0.885686 0.355265
v -0.379754 0.751206 0.267388
v 0.347101 0.751206 0.295897
v 0.259224 0.885686 0.377140
v -0.379754 0.885686 0.267388
v 0.347101 0.885686 0.295897
v -0.435484 0.751206 0.161479
v 0.410955 0.751206 0.194678
v 0.410955 0.885686 0.194678
v -0.435484 0.885686 0.161479
v 0.446437 0.751206 0.080381
v -0.461905 0.751206 0.044754
v 0.446437 0.885686 0.080381
v -0.461905 0.885686 0.044754
v 0.451127 0.751206 -0.039204
v 0.451127 0.885686 -0.039204
v -0.457215 0.751206 -0.074831
v -0.457215 0.885686 -0.074831
v 0.424707 0.751206 -0.155929
v 0.424707 0.885686 -0.155929
v -0.421733 0.751206 -0.189128
v -0.421733 0.885686 -0.189128
v 0.368976 0.751206 -0.261838
v 0.368976 0.885686 -0.261838
v -0.357878 0.751206 -0.290347
v -0.357878 0.885686 -0.290347
v 0.287733 0.751206 -0.349714
v 0.287733 0.885686 -0.349714
v -0.270002 0.885686 -0.371590
v -0.270002 0.751206 -0.371590
v 0.186514 0.751206 -0.413569
v -0.164093 0.885686 -0.427320
v 0.186514 0.885686 -0.413569
v -0.164093 0.751206 -0.427320
v 0.072217 0.751206 -0.449051
v -0.047368 0.885686 -0.453741
v 0.072217 0.885686 -0.449051
v -0.047368 0.751206 -0.453741
vn 0.000000 -1.000000 0.000000
vn -0.039192 0.000000 0.999232
vn 0.039192 0.000000 -0.999232
vn 0.220764 0.000000 0.975327
vn -0.220764 0.000000 -0.975327
vn -0.296477 0.000000 0.955040
vn 0.296477 0.000000 -0.955040
vn -0.533557 0.000000 0.845764
vn 0.533557 0.000000 -0.845764
vn 0.465675 0.000000 0.884956
vn -0.465675 0.000000 -0.884956
vn 0.000000 1.000000 0.000000
vn -0.734276 0.000000 0.678851
vn 0.734276 0.000000 -0.678851
vn 0.678851 0.000000 0.734276
vn -0.678851 0.000000 -0.734276
vn -0.884956 0.000000 0.465675
vn 0.884956 0.000000 -0.465675
vn 0.845764 0.000000 0.533557
vn -0.845764 0.000000 -0.533557
vn -0.975327 0.000000 0.220764
vn 0.975327 0.000000 -0.220764
vn 0.955040 0.000000 0.296477
vn -0.955040 0.000000 -0.296477
vn 0.999232 0.000000 0.039192
vn -0.999232 0.000000 -0.039192
usemtl material-2
f 1//2 5//2 2//2
f 2//3 5//3 1//3
f 3//4 6//4 1//4
f 1//5 6//5 3//5
f 5//2 1//2 6//2
f 6//3 1//3 5//3
f 9//6 2//6 5//6
f 5//7 2//7 9//7
f 2//6 9//6 4//6
f 4//7 9//7 2//7
f 6//4 3//4 10//4
f 10//5 3//5 6//5
f 4//8 11//8 7//8
f 7//9 11//9 4//9
f 8//10 10//10 3//10
f 3//11 10//11 8//11
f 10//12 5//12 6//12
f 6//1 5//1 10//1
f 5//12 10//12 9//12
f 9//1 10//1 5//1
f 11//8 4//8 9//8
f 9//9 4//9 11//9
f 11//13 12//13 7//13
f 7//14 12//14 11//14
f 10//10 8//10 14//10
f 14//11 8//11 10//11
f 9//12 10//12 14//12
f 14//1 10//1 9//1
f 9//12 14//12 11//12
f 11//1 14//1 9//1
f 12//13 11//13 15//13
f 15//14 11//14 12//14
f 13//15 14//15 8//15
f 8//16 14//16 13//16
f 11//12 14//12 16//12
f 16//1 14//1 11//1
f 11//12 16//12 15//12
f 15//1 16//1 11//1
f 15//17 17//17 12//17
f 12//18 17//18 15//18
f 14//15 13//15 16//15
f 16//16 13//16 14//16
f 15//12 16//12 19//12
f 19//1 16//1 15//1
f 17//17 15//17 20//17
f 20//18 15//18 17//18
f 19//19 13//19 18//19
f 18//20 13//20 19//20
f 13//19 19//19 16//19
f 16//20 19//20 13//20
f 15//12 19//12 20//12
f 20//1 19//1 15//1
f 20//21 22//21 17//21
f 17//22 22//22 20//22
f 23//23 18//23 21//23
f 21//24 18//24 23//24
f 18//23 23//23 19//23
f 19//24 23//24 18//24
f 20//12 19//12 23//12
f 23//1 19//1 20//1
f 22//21 20//21 24//21
f 24//22 20//22 22//22
f 21//25 26//25 23//25
f 23//26 26//26 21//26
f 20//12 23//12 24//12
f 24//1 23//1 20//1
f 24//26 27//26 22//26
f 22//25 27//25 24//25
f 26//25 21//25 25//25
f 25//26 21//26 26//26
f 24//12 23//12 26//12
f 26//1 23//1 24//1
f 27//26 24//26 28//26
f 28//25 24//25 27//25
f 25//22 30//22 26//22
f 26//21 30//21 25//21
f 24//12 26//12 28//12
f 28//1 26//1 24//1
f 28//24 31//24 27//24
f 27//23 31//23 28//23
f 30//22 25//22 29//22
f 29//21 25//21 30//21
f 28//12 26//12 30//12
f 30//1 26//1 28//1
f 31//24 28//24 32//24
f 32//23 28//23 31//23
f 29//18 34//18 30//18
f 30//17 34//17 29//17
f 28//12 30//12 32//12
f 32//1 30//1 28//1
f 32//20 35//20 31//20
f 31//19 35//19 32//19
f 34//18 29//18 33//18
f 33//17 29//17 34//17
f 32//12 30//12 34//12
f 34//1 30//1 32//1
f 35//20 32//20 36//20
f 36//19 32//19 35//19
f 33//14 38//14 34//14
f 34//13 38//13 33//13
f 32//12 34//12 36//12
f 36//1 34//1 32//1
f 39//16 35//16 36//16
f 36//15 35//15 39//15
f 38//14 33//14 37//14
f 37//13 33//13 38//13
f 36//12 34//12 38//12
f 38//1 34//1 36//1
f 35//16 39//16 40//16
f 40//15 39//15 35//15
f 36//12 38//12 39//12
f 39//1 38//1 36//1
f 41//9 38//9 37//9
f 37//8 38//8 41//8
f 42//11 40//11 39//11
f 39//10 40//10 42//10
f 39//12 38//12 43//12
f 43//1 38//1 39//1
f 38//9 41//9 43//9
f 43//8 41//8 38//8
f 40//11 42//11 44//11
f 44//10 42//10 40//10
f 39//12 43//12 42//12
f 42//1 43//1 39//1
f 45//7 43//7 41//7
f 41//6 43//6 45//6
f 46//5 44//5 42//5
f 42//4 44//4 46//4
f 42//12 43//12 47//12
f 47//1 43//1 42//1
f 43//7 45//7 47//7
f 47//6 45//6 43//6
f 44//5 46//5 48//5
f 48//4 46//4 44//4
f 42//12 47//12 46//12
f 46//1 47//1 42//1
f 48//3 47//3 45//3
f 45//2 47//2 48//2
f 47//3 48//3 46//3
f 46//2 48//2 47//2