# SSTK version 0.8.0
# 1
mtllib original-1.mtl
o #ID461
v -0.136996 -0.028490 -0.474850
v 0.077821 -0.033053 -0.471903
v 0.097155 -0.029601 -0.471638
v 0.058384 -0.035866 -0.472170
v 0.038864 -0.038036 -0.472437
v 0.019283 -0.039562 -0.472706
v -0.000337 -0.040440 -0.472975
v -0.019976 -0.040671 -0.473245
v -0.039611 -0.040254 -0.473514
v -0.059222 -0.039189 -0.473783
v -0.078787 -0.037478 -0.474051
v -0.098286 -0.035123 -0.474319
v -0.117695 -0.032126 -0.474585
v -0.131598 -0.029522 -0.474776
v -0.136996 -0.028490 -0.474850
v 0.097155 -0.029607 -0.015658
v -0.136996 -0.028490 -0.015409
v 0.097155 -0.029601 -0.471638
v 0.097155 -0.029601 -0.015409
v -0.136996 -0.028484 -0.015160
vn -0.013714840646716226 0 0.9999059471500484
vn -0.004756552940622611 -0.9999886875168597 -0.00000651396191868438
vn -0.004749861121536363 -0.9999168255852225 0.011990860306814349
vn -0.004749851094749836 -0.9999166199462959 0.012008000239535098
vn -0.004742475104517493 -0.9997006220319982 0.02400365052900676
usemtl material_0_0
f 1//1 2//1 3//1
f 2//1 1//1 4//1
f 4//1 1//1 5//1
f 5//1 1//1 6//1
f 6//1 1//1 7//1
f 7//1 1//1 8//1
f 8//1 1//1 9//1
f 9//1 1//1 10//1
f 10//1 1//1 11//1
f 11//1 1//1 12//1
f 12//1 1//1 13//1
f 13//1 1//1 14//1
f 15//2 16//3 17//4
f 16//3 15//2 18//2
f 17//4 19//5 20//5
f 19//5 17//4 16//3
