# SSTK version 0.8.0
# 1
mtllib original-1.mtl
o Group1/mesh1/mesh1-geometry#mesh1-geometry
v 0.115489 0.384615 0.430274
v 0.101032 0.367402 0.430274
v 0.107127 0.376960 0.430274
v 0.125547 0.389844 0.430274
v 0.107127 0.376960 0.445640
v 0.115489 0.384615 0.445640
v 0.125547 0.389844 0.445640
v 0.097617 0.356592 0.430274
v 0.101032 0.367402 0.445640
v 0.136616 0.392293 0.445640
v 0.136616 0.392293 0.430274
v 0.120129 0.377981 0.445640
v 0.097117 0.345266 0.430274
v 0.097617 0.356592 0.445640
v 0.147941 0.391792 0.430274
v 0.113326 0.371753 0.445640
v 0.128312 0.382236 0.445640
v 0.147941 0.391792 0.445640
v 0.120129 0.377981 0.457669
v 0.128312 0.382236 0.457669
v 0.099566 0.334197 0.430274
v 0.097117 0.345266 0.445640
v 0.108367 0.363977 0.445640
v 0.158751 0.388379 0.430274
v 0.113326 0.371753 0.457669
v 0.129456 0.382488 0.457669
v 0.137318 0.384227 0.445640
v 0.099566 0.334197 0.445640
v 0.158751 0.388379 0.445640
v 0.108367 0.363977 0.457669
v 0.137318 0.384227 0.457669
v 0.129923 0.380209 0.457669
v 0.146531 0.383821 0.445640
v 0.104796 0.324140 0.430274
v 0.104796 0.324140 0.445640
v 0.105182 0.345968 0.445640
v 0.105589 0.355182 0.445640
v 0.168309 0.382283 0.430274
v 0.115232 0.369932 0.457669
v 0.121901 0.376037 0.457669
v 0.107175 0.336962 0.445640
v 0.155326 0.381042 0.445640
v 0.168309 0.382283 0.445640
v 0.108007 0.362836 0.457669
v 0.130234 0.380278 0.457669
v 0.130607 0.380360 0.457669
v 0.129923 0.380209 0.473193
v 0.146531 0.383821 0.457669
v 0.112450 0.315778 0.430274
v 0.112450 0.315778 0.445640
v 0.111430 0.328780 0.445640
v 0.105589 0.355182 0.457669
v 0.107175 0.336962 0.457669
v 0.175964 0.373921 0.430274
v 0.107147 0.360112 0.457669
v 0.121901 0.376037 0.473193
v 0.130234 0.380278 0.473193
v 0.130607 0.380360 0.473193
v 0.171548 0.339420 0.457669
v 0.111430 0.328780 0.457669
v 0.105182 0.345968 0.457669
v 0.155326 0.381042 0.457669
v 0.163103 0.376084 0.445640
v 0.175964 0.373921 0.445640
v 0.110371 0.362310 0.457669
v 0.115232 0.369932 0.473193
v 0.110371 0.362310 0.473193
v 0.152897 0.318923 0.473193
v 0.122008 0.309683 0.430274
v 0.122008 0.309683 0.445640
v 0.117657 0.321977 0.445640
v 0.117657 0.321977 0.457669
v 0.152897 0.318923 0.457669
v 0.181194 0.363863 0.430274
v 0.171548 0.339420 0.473193
v 0.110164 0.361656 0.473193
v 0.163103 0.376084 0.457669
v 0.125433 0.317018 0.445640
v 0.110164 0.361656 0.457669
v 0.169330 0.369281 0.445640
v 0.181194 0.363863 0.445640
v 0.170389 0.335750 0.473193
v 0.169330 0.369281 0.457669
v 0.132818 0.306268 0.430274
v 0.132818 0.306268 0.445640
v 0.134228 0.314240 0.445640
v 0.125433 0.317018 0.457669
v 0.173585 0.361098 0.445640
v 0.183642 0.352794 0.430274
v 0.170389 0.335750 0.457669
v 0.158859 0.322023 0.473193
v 0.173585 0.361098 0.457669
v 0.134228 0.314240 0.457669
v 0.158859 0.322023 0.457669
v 0.175576 0.352093 0.445640
v 0.183642 0.352794 0.445640
v 0.165527 0.328128 0.473193
v 0.175170 0.342878 0.457669
v 0.175576 0.352093 0.457669
v 0.144143 0.305768 0.430274
v 0.144143 0.305768 0.445640
v 0.143442 0.313833 0.445640
v 0.143442 0.313833 0.457669
v 0.152447 0.315826 0.457669
v 0.183142 0.341468 0.445640
v 0.165527 0.328128 0.457669
v 0.173705 0.338239 0.457669
v 0.183142 0.341468 0.430274
v 0.154138 0.316705 0.457669
v 0.175170 0.342878 0.445640
v 0.155212 0.308216 0.430274
v 0.152447 0.315826 0.445640
v 0.179728 0.330658 0.445640
v 0.172393 0.334084 0.445640
v 0.172393 0.334084 0.457669
v 0.179728 0.330658 0.430274
v 0.155212 0.308216 0.445640
v 0.160630 0.320079 0.445640
v 0.167433 0.326308 0.445640
v 0.160630 0.320079 0.457669
v 0.165271 0.313446 0.430274
v 0.173632 0.321101 0.445640
v 0.165271 0.313446 0.445640
v 0.167433 0.326308 0.457669
v 0.173632 0.321101 0.430274
vn 0 0 -1
vn 0 0 1
vn -0.9061026747214307 0.4230578481279711 0
vn -0.7657327983940666 0.6431588306659496 0
vn 0.7657327983940666 -0.6431588306659496 0
vn 0.9061026747214307 -0.4230578481279711 0
vn -0.5731790885730849 0.8194301266261376 0
vn 0.5731790885730849 -0.8194301266261376 0
vn -0.341565049631284 0.9398581365665665 0
vn 0.341565049631284 -0.9398581365665665 0
vn -0.08667298400458895 0.9962368161455089 0
vn 0.08667298400458895 -0.9962368161455089 0
vn -0.9847233689734537 0.17412606524461358 0
vn 0.9847233689734537 -0.17412606524461358 0
vn 0.17412606524461358 0.9847233689734537 0
vn -0.17412606524461358 -0.9847233689734537 0
vn -0.9962368161455089 -0.08667298400458895 0
vn 0.9962368161455089 0.08667298400458895 0
vn 0.4230578481279711 0.9061026747214307 0
vn -0.4230578481279711 -0.9061026747214307 0
vn -0.21596597560048938 0.9764008896876982 0
vn 0.21596597560048938 -0.9764008896876982 0
vn -0.9398581365665665 -0.341565049631284 0
vn 0.9398581365665665 0.341565049631284 0
vn -0.8194301266261376 -0.5731790885730849 0
vn 0.8194301266261376 0.5731790885730849 0
vn 0.6431588306659496 0.7657327983940666 0
vn -0.6431588306659496 -0.7657327983940666 0
vn -0.9535710876021959 0.30116802766755507 0
vn 0.9535710876021959 -0.30116802766755507 0
vn 0.7071067811865476 0.7071067811865476 0
vn -0.7071067811865476 -0.7071067811865476 0
vn 0.46131873128514655 -0.8872344831922748 0
vn -0.46131873128514655 0.8872344831922748 0
usemtl material_0_0
f 1//1 2//1 3//1
f 2//1 1//1 4//1
f 3//2 2//2 1//2
f 4//2 1//2 2//2
f 2//3 5//4 3//4
f 3//5 5//5 2//6
f 3//4 6//7 1//7
f 1//8 6//8 3//5
f 1//7 7//9 4//9
f 4//10 7//10 1//8
f 2//1 4//1 8//1
f 8//2 4//2 2//2
f 5//4 2//3 9//3
f 9//6 2//6 5//5
f 6//7 3//4 5//4
f 5//5 3//5 6//8
f 7//9 1//7 6//7
f 6//8 1//8 7//10
f 10//11 4//9 7//9
f 7//10 4//10 10//12
f 8//1 4//1 11//1
f 11//2 4//2 8//2
f 8//13 9//3 2//3
f 2//6 9//6 8//14
f 9//2 6//2 5//2
f 5//1 6//1 9//1
f 6//2 9//2 7//2
f 7//1 9//1 6//1
f 4//9 10//11 11//11
f 11//12 10//12 4//10
f 7//2 12//2 10//2
f 10//1 12//1 7//1
f 8//1 11//1 13//1
f 13//2 11//2 8//2
f 9//3 8//13 14//13
f 14//14 8//14 9//6
f 7//2 9//2 14//2
f 14//1 9//1 7//1
f 10//11 15//15 11//11
f 11//12 15//16 10//12
f 7//2 16//2 12//2
f 12//1 16//1 7//1
f 10//2 12//2 17//2
f 17//1 12//1 10//1
f 13//1 11//1 15//1
f 15//2 11//2 13//2
f 13//17 14//13 8//13
f 8//14 14//14 13//18
f 7//2 14//2 16//2
f 16//1 14//1 7//1
f 15//15 10//11 18//15
f 18//16 10//12 15//16
f 16//4 19//7 12//7
f 12//8 19//8 16//5
f 12//7 20//9 17//9
f 17//10 20//10 12//8
f 10//2 17//2 18//2
f 18//1 17//1 10//1
f 13//1 15//1 21//1
f 21//2 15//2 13//2
f 14//13 13//17 22//17
f 22//18 13//18 14//14
f 14//2 23//2 16//2
f 16//1 23//1 14//1
f 18//15 24//19 15//15
f 15//16 24//20 18//16
f 19//7 16//4 25//4
f 25//5 16//5 19//8
f 20//9 12//7 19//7
f 19//8 12//8 20//10
f 26//21 17//9 20//9
f 20//10 17//10 26//22
f 18//2 17//2 27//2
f 27//1 17//1 18//1
f 21//1 15//1 24//1
f 24//2 15//2 21//2
f 28//23 13//17 21//23
f 21//24 13//18 28//24
f 13//17 28//23 22//17
f 22//18 28//24 13//18
f 23//2 14//2 22//2
f 22//1 14//1 23//1
f 23//3 25//4 16//4
f 16//5 25//5 23//6
f 24//19 18//15 29//19
f 29//20 18//16 24//20
f 30//2 19//2 25//2
f 25//1 19//1 30//1
f 19//2 30//2 20//2
f 20//1 30//1 19//1
f 31//11 17//9 26//21
f 26//22 17//10 31//12
f 20//2 32//2 26//2
f 26//1 32//1 20//1
f 17//9 31//11 27//11
f 27//12 31//12 17//10
f 18//2 27//2 33//2
f 33//1 27//1 18//1
f 21//1 24//1 34//1
f 34//2 24//2 21//2
f 21//23 35//25 28//23
f 28//24 35//26 21//24
f 36//2 22//2 28//2
f 28//1 22//1 36//1
f 23//2 22//2 37//2
f 37//1 22//1 23//1
f 25//4 23//3 30//3
f 30//6 23//6 25//5
f 18//2 33//2 29//2
f 29//1 33//1 18//1
f 29//19 38//27 24//19
f 24//20 38//28 29//20
f 20//2 30//2 39//2
f 39//1 30//1 20//1
f 26//2 32//2 31//2
f 31//1 32//1 26//1
f 20//2 40//2 32//2
f 32//1 40//1 20//1
f 31//11 33//15 27//11
f 27//12 33//16 31//12
f 34//1 24//1 38//1
f 38//2 24//2 34//2
f 35//25 21//23 34//25
f 34//26 21//24 35//26
f 41//2 28//2 35//2
f 35//1 28//1 41//1
f 37//2 22//2 36//2
f 36//1 22//1 37//1
f 36//2 28//2 41//2
f 41//1 28//1 36//1
f 37//13 30//3 23//3
f 23//6 30//6 37//14
f 29//2 33//2 42//2
f 42//1 33//1 29//1
f 38//27 29//19 43//27
f 43//28 29//20 38//28
f 39//2 30//2 44//2
f 44//1 30//1 39//1
f 20//2 39//2 40//2
f 40//1 39//1 20//1
f 31//2 32//2 45//2
f 31//2 45//2 46//2
f 45//1 32//1 31//1
f 46//1 45//1 31//1
f 40//7 47//9 32//9
f 32//10 47//10 40//8
f 33//15 31//11 48//15
f 48//16 31//12 33//16
f 34//1 38//1 49//1
f 49//2 38//2 34//2
f 34//25 50//28 35//25
f 35//26 50//27 34//26
f 41//2 35//2 51//2
f 51//1 35//1 41//1
f 36//17 52//13 37//13
f 37//14 52//14 36//18
f 53//23 36//17 41//23
f 41//24 36//18 53//24
f 30//3 37//13 44//29
f 44//30 37//14 30//6
f 48//15 42//19 33//15
f 33//16 42//20 48//16
f 29//2 42//2 43//2
f 43//1 42//1 29//1
f 43//27 54//26 38//27
f 38//28 54//25 43//28
f 55//2 39//2 44//2
f 44//1 39//1 55//1
f 39//4 56//7 40//7
f 40//8 56//8 39//5
f 32//9 57//21 45//21
f 45//22 57//22 32//10
f 45//21 58//21 46//21
f 46//22 58//22 45//22
f 31//2 46//2 59//2
f 59//1 46//1 31//1
f 47//9 40//7 56//7
f 56//8 40//8 47//10
f 57//21 32//9 47//9
f 47//10 32//10 57//22
f 58//21 45//21 57//21
f 57//22 45//22 58//22
f 31//2 59//2 48//2
f 48//1 59//1 31//1
f 49//1 38//1 54//1
f 54//2 38//2 49//2
f 50//28 34//25 49//28
f 49//27 34//26 50//27
f 51//2 35//2 50//2
f 50//1 35//1 51//1
f 60//25 41//23 51//25
f 51//26 41//24 60//26
f 52//13 36//17 61//17
f 61//18 36//18 52//14
f 55//29 37//13 52//13
f 52//14 37//14 55//30
f 36//17 53//23 61//17
f 61//18 53//24 36//18
f 41//23 60//25 53//23
f 53//24 60//26 41//24
f 44//29 37//13 55//29
f 55//30 37//14 44//30
f 42//19 48//15 62//19
f 62//20 48//16 42//20
f 43//2 42//2 63//2
f 63//1 42//1 43//1
f 54//26 43//27 64//26
f 64//25 43//28 54//25
f 39//2 55//2 65//2
f 65//1 55//1 39//1
f 56//7 39//4 66//4
f 66//5 39//5 56//8
f 58//31 59//31 46//31
f 46//32 59//32 58//32
f 56//2 67//2 47//2
f 47//1 67//1 56//1
f 57//2 68//2 58//2
f 57//1 68//1 47//1
f 58//1 68//1 57//1
f 48//2 59//2 62//2
f 62//1 59//1 48//1
f 49//1 54//1 69//1
f 69//2 54//2 49//2
f 49//28 70//20 50//28
f 50//27 70//19 49//27
f 51//2 50//2 71//2
f 71//1 50//1 51//1
f 51//25 72//28 60//25
f 60//26 72//27 51//26
f 73//2 52//2 61//2
f 61//1 52//1 73//1
f 65//2 55//2 52//2
f 52//1 55//1 65//1
f 73//2 61//2 53//2
f 53//1 61//1 73//1
f 73//2 53//2 60//2
f 60//1 53//1 73//1
f 62//19 63//27 42//19
f 42//20 63//28 62//20
f 43//2 63//2 64//2
f 64//1 63//1 43//1
f 64//26 74//24 54//26
f 54//25 74//23 64//25
f 65//3 66//4 39//4
f 39//5 66//5 65//6
f 67//2 56//2 66//2
f 66//1 56//1 67//1
f 59//31 58//31 75//31
f 75//32 58//32 59//32
f 47//2 67//2 76//2
f 47//2 76//2 68//2
f 76//1 67//1 47//1
f 68//1 76//1 47//1
f 47//2 68//2 57//2
f 58//2 68//2 75//2
f 75//1 68//1 58//1
f 62//2 59//2 77//2
f 77//1 59//1 62//1
f 69//1 54//1 74//1
f 74//2 54//2 69//2
f 70//20 49//28 69//20
f 69//19 49//27 70//19
f 78//2 50//2 70//2
f 70//1 50//1 78//1
f 71//2 50//2 78//2
f 78//1 50//1 71//1
f 72//28 51//25 71//28
f 71//27 51//26 72//27
f 73//2 60//2 72//2
f 72//1 60//1 73//1
f 79//2 52//2 73//2
f 73//1 52//1 79//1
f 65//2 52//2 79//2
f 63//27 62//19 77//27
f 77//28 62//20 63//28
f 64//2 63//2 80//2
f 80//1 63//1 64//1
f 74//24 64//26 81//24
f 81//23 64//25 74//23
f 66//4 65//3 67//3
f 67//6 65//6 66//5
f 82//6 59//30 75//30
f 75//29 59//29 82//3
f 67//3 79//29 76//29
f 76//30 79//30 67//6
f 79//32 68//32 76//32
f 76//31 68//31 79//31
f 75//2 68//2 82//2
f 82//1 68//1 75//1
f 77//2 59//2 83//2
f 83//1 59//1 77//1
f 69//1 74//1 84//1
f 84//2 74//2 69//2
f 69//20 85//16 70//20
f 70//19 85//15 69//19
f 78//2 70//2 86//2
f 86//1 70//1 78//1
f 87//20 71//28 78//20
f 78//19 71//27 87//19
f 71//28 87//20 72//28
f 72//27 87//19 71//27
f 73//2 72//2 87//2
f 87//1 72//1 73//1
f 79//1 52//1 65//1
f 68//32 79//32 73//32
f 73//31 79//31 68//31
f 79//29 67//3 65//3
f 65//6 67//6 79//30
f 77//27 80//26 63//27
f 63//28 80//25 77//28
f 64//2 80//2 88//2
f 88//1 80//1 64//1
f 64//2 88//2 81//2
f 81//1 88//1 64//1
f 81//24 89//18 74//24
f 74//23 89//17 81//23
f 59//30 82//6 90//6
f 90//3 82//3 59//29
f 82//2 68//2 91//2
f 91//1 68//1 82//1
f 83//2 59//2 92//2
f 92//1 59//1 83//1
f 80//26 77//27 83//26
f 83//25 77//28 80//25
f 84//1 74//1 89//1
f 89//2 74//2 84//2
f 85//16 69//20 84//16
f 84//15 69//19 85//15
f 86//2 70//2 85//2
f 85//1 70//1 86//1
f 93//16 78//20 86//16
f 86//15 78//19 93//15
f 78//20 93//16 87//20
f 87//19 93//15 78//19
f 73//2 87//2 93//2
f 93//1 87//1 73//1
f 94//8 68//33 73//33
f 73//34 68//34 94//7
f 83//26 88//24 80//26
f 80//25 88//23 83//25
f 81//2 88//2 95//2
f 95//1 88//1 81//1
f 89//18 81//24 96//18
f 96//17 81//23 89//17
f 97//5 90//6 82//6
f 82//3 90//3 97//4
f 98//2 59//2 90//2
f 90//1 59//1 98//1
f 68//33 94//8 91//8
f 91//7 94//7 68//34
f 82//2 91//2 97//2
f 97//1 91//1 82//1
f 92//2 59//2 99//2
f 99//1 59//1 92//1
f 88//24 83//26 92//24
f 92//23 83//25 88//23
f 84//1 89//1 100//1
f 100//2 89//2 84//2
f 84//16 101//12 85//16
f 85//15 101//11 84//15
f 86//2 85//2 102//2
f 102//1 85//1 86//1
f 86//16 103//12 93//16
f 93//15 103//11 86//15
f 73//2 93//2 103//2
f 103//1 93//1 73//1
f 73//2 104//2 94//2
f 94//1 104//1 73//1
f 92//24 95//18 88//24
f 88//23 95//17 92//23
f 81//2 95//2 96//2
f 96//1 95//1 81//1
f 105//14 89//18 96//18
f 96//17 89//17 105//13
f 90//6 97//5 106//5
f 106//4 97//4 90//3
f 99//2 59//2 98//2
f 98//1 59//1 99//1
f 98//2 90//2 107//2
f 107//1 90//1 98//1
f 106//5 91//8 94//8
f 94//7 91//7 106//4
f 91//8 106//5 97//5
f 97//4 106//4 91//7
f 95//18 92//24 99//18
f 99//17 92//23 95//17
f 100//1 89//1 108//1
f 108//2 89//2 100//2
f 101//12 84//16 100//12
f 100//11 84//15 101//11
f 102//2 85//2 101//2
f 101//1 85//1 102//1
f 103//12 86//16 102//12
f 102//11 86//15 103//11
f 73//2 103//2 104//2
f 104//1 103//1 73//1
f 94//2 104//2 109//2
f 109//1 104//1 94//1
f 96//2 95//2 110//2
f 110//1 95//1 96//1
f 89//18 105//14 108//14
f 108//13 105//13 89//17
f 96//2 110//2 105//2
f 105//1 110//1 96//1
f 107//2 90//2 106//2
f 106//1 90//1 107//1
f 98//14 95//18 99//18
f 99//17 95//17 98//13
f 107//30 110//14 98//14
f 98//13 110//13 107//29
f 94//2 109//2 106//2
f 106//1 109//1 94//1
f 100//1 108//1 111//1
f 111//2 108//2 100//2
f 111//10 101//12 100//12
f 100//11 101//11 111//9
f 102//2 101//2 112//2
f 112//1 101//1 102//1
f 112//10 103//12 102//12
f 102//11 103//11 112//9
f 103//12 112//10 104//10
f 104//9 112//9 103//11
f 112//10 109//33 104//10
f 104//9 109//34 112//9
f 95//18 98//14 110//14
f 110//13 98//13 95//17
f 113//6 108//14 105//14
f 105//13 108//13 113//3
f 105//2 110//2 114//2
f 114//1 110//1 105//1
f 107//2 106//2 115//2
f 115//1 106//1 107//1
f 110//14 107//30 114//6
f 114//3 107//29 110//13
f 115//2 106//2 109//2
f 109//1 106//1 115//1
f 111//1 108//1 116//1
f 116//2 108//2 111//2
f 101//12 111//10 117//10
f 117//9 111//9 101//11
f 112//2 101//2 118//2
f 118//1 101//1 112//1
f 118//8 109//33 112//10
f 112//9 109//34 118//7
f 108//14 113//6 116//6
f 116//3 113//3 108//13
f 105//2 117//2 113//2
f 113//1 117//1 105//1
f 105//2 114//2 119//2
f 119//1 114//1 105//1
f 114//6 107//30 115//6
f 115//3 107//29 114//3
f 115//2 109//2 120//2
f 120//1 109//1 115//1
f 111//1 116//1 121//1
f 121//2 116//2 111//2
f 121//8 117//10 111//10
f 111//9 117//9 121//7
f 118//2 101//2 117//2
f 117//1 101//1 118//1
f 109//33 118//8 120//8
f 120//7 118//7 109//34
f 122//5 116//6 113//6
f 113//3 116//3 122//4
f 119//2 117//2 105//2
f 105//1 117//1 119//1
f 113//2 117//2 123//2
f 123//1 117//1 113//1
f 114//6 124//5 119//5
f 119//4 124//4 114//3
f 124//5 114//6 115//6
f 115//3 114//3 124//4
f 115//2 120//2 124//2
f 124//1 120//1 115//1
f 121//1 116//1 125//1
f 125//2 116//2 121//2
f 117//10 121//8 123//8
f 123//7 121//7 117//9
f 118//2 117//2 119//2
f 119//1 117//1 118//1
f 119//5 120//8 118//8
f 118//7 120//7 119//4
f 116//6 122//5 125//5
f 125//4 122//4 116//3
f 113//2 123//2 122//2
f 122//1 123//1 113//1
f 120//8 119//5 124//5
f 124//4 119//4 120//7
f 125//5 123//8 121//8
f 121//7 123//7 125//4
f 123//8 125//5 122//5
f 122//4 125//4 123//7
