# SSTK version 0.8.0
# 124
mtllib original-124.mtl
o Group54/mesh117/mesh117-geometry#mesh117-geometry
v -0.285394 0.166807 0.434312
v -0.297036 0.166807 0.434312
v -0.285394 0.170519 0.433905
v -0.297036 0.163203 0.435288
v -0.297036 0.170519 0.433905
v -0.285394 0.147769 0.397684
v -0.285394 0.163203 0.435288
v -0.297036 0.177908 0.434822
v -0.285394 0.174249 0.434076
v -0.297036 0.174249 0.434076
v -0.285394 0.194009 0.397684
v -0.297036 0.159792 0.436808
v -0.297036 0.181408 0.436123
v -0.226799 0.194009 0.397684
v -0.285394 0.159792 0.436808
v -0.285394 0.181408 0.436123
v -0.285394 0.177908 0.434822
v -0.285394 0.190145 0.442991
v -0.226799 0.147769 0.397684
v -0.285394 0.156657 0.438837
v -0.297036 0.156657 0.438837
v -0.297036 0.184665 0.437950
v -0.285394 0.184665 0.437950
v -0.285394 0.187601 0.440257
v -0.226799 0.190145 0.442991
v -0.226799 0.151508 0.444215
v -0.285394 0.153874 0.441326
v -0.297036 0.190145 0.442991
v -0.297036 0.193689 0.450515
v -0.285394 0.151508 0.444215
v -0.297036 0.153874 0.441326
v -0.297036 0.187601 0.440257
v -0.226799 0.193689 0.450515
v -0.226799 0.148447 0.451948
v -0.297036 0.151508 0.444215
v -0.297036 0.194357 0.458806
v -0.297036 0.148447 0.451948
v -0.226799 0.194357 0.458806
v -0.226799 0.148305 0.460265
v -0.297036 0.148305 0.460265
v -0.297036 0.192062 0.466801
v -0.226799 0.192062 0.466801
v -0.226799 0.151102 0.468098
v -0.297036 0.151102 0.468098
v -0.297036 0.187098 0.473475
v -0.226799 0.187098 0.473475
v -0.226799 0.156478 0.474445
v -0.297036 0.156478 0.474445
v -0.226799 0.180102 0.477974
v -0.297036 0.180102 0.477974
v -0.297036 0.163744 0.478492
v -0.226799 0.171970 0.479721
v -0.226799 0.163744 0.478492
v -0.297036 0.171970 0.479721
vt 0.417526 0.076894
vt 0.380026 0.076894
vt 0.417526 0.088921
vt 0.380026 0.097394
vt 0.417526 0.097394
vt 0.380026 0.085367
vt 0.380026 0.088921
vt 0.147565 0.073275
vt 0.264227 0
vt 0.146254 0.061319
vt 0.417526 0.085367
vt 0.143112 0.04971
vt 0.144613 0.097074
vt 0.417526 0.066431
vt 0.380026 0.066431
vt 0.417526 0.078459
vt 0.147013 0.085289
vt 0.264227 0.148932
vt 0.380026 0.103674
vt 0.417526 0.103674
vt 0.380026 0.091647
vt 0.140421 0.108347
vt 0.380026 0.078459
vt 0.417526 0.148932
vt 0.60625 0.148932
vt 0.417526 0
vt 0.138215 0.038725
vt 0.417526 0.091647
vt 0.380026 0.05261
vt 0.417526 0.05261
vt 0.380026 0.040583
vt 0.380026 0.066257
vt 0.417526 0.066257
vt 0.380026 0.05423
vt 0.417526 0.05423
vt -0.417526 0.275927
vt -0.417526 0.129472
vt -0.60625 0.275927
vt 0.60625 0
vt 0.13168 0.028628
vt 0.380026 0.10761
vt 0.417526 0.10761
vt 0.380026 0.095583
vt 0.134538 0.118837
vt 0.417526 0.025817
vt 0.380026 0.025817
vt 0.417526 0.037844
vt 0.417526 0.040583
vt 0.118302 0.136487
vt 0.127105 0.128293
vt -0.60625 0.129472
vt -0.60625 -0.263378
vt -0.60625 -0.113028
vt -0.417526 -0.263378
vt -0.264227 0.148932
vt -0.118302 0.136487
vt -0.264227 0
vt 0.123664 0.019662
vt 0.417526 0.095583
vt 0.380026 0.037844
vt 0.417526 0.006394
vt 0.417526 -0.005633
vt 0.380026 0.006394
vt 0.417526 -0.048863
vt 0.380026 -0.022074
vt 0.60625 -0.048863
vt -0.114359 0.012041
vt -0.417526 -0.113028
vt 0.114359 0.012041
vt 0.417526 0.09708
vt 0.380026 0.09708
vt 0.417526 0.109108
vt 0.380026 0.109108
vt 0.417526 0.010287
vt 0.380026 0.010287
vt 0.417526 0.022315
vt 0.380026 -0.005633
vt 0.380026 -0.048863
vt 0.60625 -0.022074
vt -0.094066 0.147903
vt 0.60625 0.110765
vt 0.60625 0.083976
vt 0.417526 0.110765
vt 0.417526 0.108131
vt 0.417526 0.096104
vt 0.380026 0.108131
vt 0.380026 0.022315
vt 0.094066 0.147903
vt 0.380026 -0.081895
vt 0.380026 -0.055106
vt 0.60625 -0.081895
vt -0.08945 0.002183
vt 0.380026 0.083976
vt 0.380026 0.096104
vt 0.08945 0.002183
vt 0.067363 0.150052
vt 0.60625 -0.055106
vt -0.067363 0.150052
vt 0.380026 0.110765
vt 0.60625 0.089474
vt 0.60625 0.062685
vt 0.380026 0.089474
vt 0.062664 0.001728
vt -0.380026 0.106151
vt -0.380026 0.079362
vt -0.60625 0.106151
vt -0.062664 0.001728
vt 0.380026 0.062685
vt 0.041613 0.14266
vt -0.60625 0.079362
vt -0.041613 0.14266
vt -0.60625 -0.058436
vt -0.60625 -0.031646
vt -0.380026 -0.058436
vt 0.037434 0.010734
vt -0.380026 0.118523
vt -0.380026 0.091734
vt -0.60625 0.118523
vt -0.037434 0.010734
vt -0.380026 -0.031646
vt 0.020117 0.126674
vt -0.60625 0.091734
vt -0.020117 0.126674
vt -0.60625 -0.021626
vt -0.60625 0.005163
vt -0.380026 -0.021626
vt 0.016992 0.028049
vt -0.60625 0.117426
vt -0.380026 0.117426
vt -0.60625 0.090637
vt -0.016992 0.028049
vt -0.380026 0.005163
vt 0.005627 0.104141
vt -0.380026 0.090637
vt -0.005627 0.104141
vt -0.380026 0.016237
vt -0.60625 0.016237
vt -0.380026 0.043027
vt 0.003958 0.051454
vt -0.60625 0.103
vt -0.380026 0.103
vt -0.60625 0.076211
vt -0.003958 0.051454
vt -0.60625 0.043027
vt 0 0.07795
vt -0.380026 0.076211
vt -0.380026 0.050305
vt -0.60625 0.050305
vt -0.380026 0.077094
vt -0.60625 0.077094
vn 0 -0.18566000848503367 -0.982614044907428
vn 0 -0.031662987389109346 -0.9994986019147786
vn 0 0.031662987389109346 0.9994986019147786
vn 0 0.18566000848503367 0.982614044907428
vn 0 -0.33520088603004194 -0.9421466796654726
vn 0 0.33520088603004194 0.9421466796654726
vn -1 0 0
vn 1 0 0
vn 0 0.1230940019165123 -0.9923950154510943
vn 0 -0.1230940019165123 0.9923950154510943
vn 0 -0.4766972811804507 -0.8790675185190079
vn 0 0.4766972811804507 0.8790675185190079
vn 0 0 -1
vn 0 0 1
vn 0 0.42010195884408363 -0.9074769110976676
vn 0 0.2748969157049356 -0.9614737051713445
vn 0 -0.2748969157049356 0.9614737051713445
vn 0 -0.42010195884408363 0.9074769110976676
vn 0 0.9963830830415589 0.08497500708207252
vn 0 -0.9963830830415589 -0.08497500708207252
vn 0 -0.606753207779941 -0.7948902722066434
vn 0 0.606753207779941 0.7948902722066434
vn 0 0.5552250858863873 -0.8317001286536234
vn 0 -0.5552250858863873 0.8317001286536234
vn 0 -0.9967877184747925 0.08008897738027286
vn 0 0.9967877184747925 -0.08008897738027286
vn 0 0.7319959643162957 -0.6813089667872104
vn 0 0.6770218896952024 -0.7359628800921535
vn 0 -0.7319959643162957 0.6813089667872104
vn 0 -0.6770218896952024 0.7359628800921535
vn 0 0.9046651929859136 -0.4261230909018656
vn 0 0.9663222367929447 -0.2573350630588067
vn 0 -0.9046651929859136 0.4261230909018656
vn 0 -0.9663222367929447 0.2573350630588067
vn 0 -0.7222461296388583 -0.6916361241445458
vn 0 0.7222461296388583 0.6916361241445458
vn 0 -0.9298221972315808 -0.36800907806117406
vn 0 -0.9806723759736798 -0.19565707501170881
vn 0 0.9298221972315808 0.36800907806117406
vn 0 0.9806723759736798 0.19565707501170881
vn 0 -0.7736500942812613 -0.6336130772155795
vn 0 0.7736500942812613 0.6336130772155795
vn 0 0.9950425649928591 0.09944995652302469
vn 0 -0.9950425649928591 -0.09944995652302469
vn 0 -0.9867528123344342 0.16223096914610582
vn 0 0.9867528123344342 -0.16223096914610582
vn 0 0.8962772739180614 0.44349413553958983
vn 0 -0.8962772739180614 -0.44349413553958983
vn 0 -0.8664101156705236 0.49933306666371496
vn 0 0.8664101156705236 -0.49933306666371496
vn 0 0.6826802333097642 0.7307172497266818
vn 0 -0.6826802333097642 -0.7307172497266818
vn 0 -0.6350620824421774 0.7724611002789753
vn 0 0.6350620824421774 -0.7724611002789753
vn 0 0.381618045732346 0.92432011076868
vn 0 -0.381618045732346 -0.92432011076868
vn 0 -0.3223498645903598 0.9466206023526937
vn 0 0.3223498645903598 -0.9466206023526937
usemtl material_0_0
f 1/1/1 2/2/1 3/3/2
f 3/3/3 2/2/4 1/1/4
f 2/4/1 1/5/1 4/6/5
f 4/6/6 1/5/4 2/4/4
f 5/7/2 3/3/2 2/2/1
f 2/2/4 3/3/3 5/7/3
f 3/8/7 6/9/7 1/10/7
f 1/10/8 6/9/8 3/8/8
f 7/11/5 4/6/5 1/5/1
f 1/5/4 4/6/6 7/11/6
f 2/10/7 4/12/7 8/13/7
f 8/13/8 4/12/8 2/10/8
f 3/14/2 5/15/2 9/16/9
f 9/16/10 5/15/3 3/14/3
f 5/8/7 2/10/7 10/17/7
f 10/17/8 2/10/8 5/8/8
f 6/9/7 3/8/7 11/18/7
f 11/18/8 3/8/8 6/9/8
f 1/10/7 6/9/7 7/12/7
f 7/12/8 6/9/8 1/10/8
f 4/19/5 7/20/5 12/21/11
f 12/21/12 7/20/6 4/19/6
f 8/13/7 4/12/7 13/22/7
f 13/22/8 4/12/8 8/13/8
f 10/17/7 2/10/7 8/13/7
f 8/13/8 2/10/8 10/17/8
f 10/23/9 9/16/9 5/15/2
f 5/15/3 9/16/10 10/23/10
f 3/8/7 9/17/7 11/18/7
f 11/18/8 9/17/8 3/8/8
f 11/24/13 14/25/13 6/26/13
f 6/26/14 14/25/14 11/24/14
f 7/12/7 6/9/7 15/27/7
f 15/27/8 6/9/8 7/12/8
f 15/28/11 12/21/11 7/20/5
f 7/20/6 12/21/12 15/28/12
f 4/12/7 12/27/7 13/22/7
f 13/22/8 12/27/8 4/12/8
f 13/29/15 16/30/15 8/31/16
f 8/31/17 16/30/18 13/29/18
f 8/32/16 17/33/16 10/34/9
f 10/34/10 17/33/17 8/32/17
f 9/35/9 10/34/9 17/33/16
f 17/33/17 10/34/10 9/35/10
f 9/17/7 17/13/7 11/18/7
f 11/18/8 17/13/8 9/17/8
f 11/36/19 18/37/19 14/38/19
f 14/38/20 18/37/20 11/36/20
f 19/39/13 6/26/13 14/25/13
f 14/25/14 6/26/14 19/39/14
f 15/27/7 6/9/7 20/40/7
f 20/40/8 6/9/8 15/27/8
f 12/41/11 15/42/11 21/43/21
f 21/43/22 15/42/12 12/41/12
f 13/22/7 12/27/7 22/44/7
f 22/44/8 12/27/8 13/22/8
f 16/45/15 13/46/15 23/47/23
f 23/47/24 13/46/18 16/45/18
f 17/48/16 8/31/16 16/30/15
f 16/30/18 8/31/17 17/48/17
f 17/13/7 16/22/7 11/18/7
f 11/18/8 16/22/8 17/13/8
f 18/49/7 11/18/7 24/50/7
f 24/50/8 11/18/8 18/49/8
f 25/51/19 14/38/19 18/37/19
f 18/37/20 14/38/20 25/51/20
f 19/52/25 26/53/25 6/54/25
f 6/54/26 26/53/26 19/52/26
f 14/55/8 25/56/8 19/57/8
f 19/57/7 25/56/7 14/55/7
f 20/40/7 6/9/7 27/58/7
f 27/58/8 6/9/8 20/40/8
f 20/59/21 21/43/21 15/42/11
f 15/42/12 21/43/22 20/59/22
f 12/27/7 21/40/7 22/44/7
f 22/44/8 21/40/8 12/27/8
f 22/60/23 23/47/23 13/46/15
f 13/46/18 23/47/24 22/60/24
f 16/22/7 23/44/7 11/18/7
f 11/18/8 23/44/8 16/22/8
f 23/44/7 24/50/7 11/18/7
f 11/18/8 24/50/8 23/44/8
f 18/61/27 24/62/28 28/63/27
f 28/63/29 24/62/30 18/61/29
f 18/64/31 29/65/32 25/66/31
f 25/66/33 29/65/34 18/64/33
f 19/57/8 25/56/8 26/67/8
f 26/67/7 25/56/7 19/57/7
f 30/68/25 6/54/25 26/53/25
f 26/53/26 6/54/26 30/68/26
f 30/69/7 27/58/7 6/9/7
f 6/9/8 27/58/8 30/69/8
f 27/70/35 31/71/35 20/72/21
f 20/72/22 31/71/36 27/70/36
f 21/73/21 20/72/21 31/71/35
f 31/71/36 20/72/22 21/73/22
f 22/44/7 21/40/7 32/50/7
f 32/50/8 21/40/8 22/44/8
f 23/74/23 22/75/23 24/76/28
f 24/76/30 22/75/24 23/74/24
f 32/77/28 28/63/27 24/62/28
f 24/62/30 28/63/29 32/77/30
f 28/78/31 29/65/32 18/64/31
f 18/64/33 29/65/34 28/78/33
f 33/79/32 25/66/31 29/65/32
f 29/65/34 25/66/33 33/79/34
f 25/56/8 33/80/8 26/67/8
f 26/67/7 33/80/7 25/56/7
f 26/81/37 34/82/38 30/83/37
f 30/83/39 34/82/40 26/81/39
f 27/84/35 30/85/41 31/86/35
f 31/86/36 30/85/42 27/84/36
f 21/40/7 31/58/7 32/50/7
f 32/50/8 31/58/8 21/40/8
f 32/87/28 24/76/28 22/75/23
f 22/75/24 24/76/30 32/87/30
f 32/50/7 31/58/7 28/49/7
f 28/49/8 31/58/8 32/50/8
f 28/49/7 35/69/7 29/88/7
f 29/88/8 35/69/8 28/49/8
f 29/89/32 36/90/43 33/91/32
f 33/91/34 36/90/44 29/89/34
f 26/67/8 33/80/8 34/92/8
f 34/92/7 33/80/7 26/67/7
f 37/93/38 30/83/37 34/82/38
f 34/82/40 30/83/39 37/93/40
f 35/94/41 31/86/35 30/85/41
f 30/85/42 31/86/36 35/94/42
f 31/58/7 35/69/7 28/49/7
f 28/49/8 35/69/8 31/58/8
f 35/69/7 37/95/7 29/88/7
f 29/88/8 37/95/8 35/69/8
f 29/88/7 37/95/7 36/96/7
f 36/96/8 37/95/8 29/88/8
f 38/97/43 33/91/32 36/90/43
f 36/90/44 33/91/34 38/97/44
f 33/80/8 38/98/8 34/92/8
f 34/92/7 38/98/7 33/80/7
f 35/99/37 30/83/37 37/93/38
f 37/93/40 30/83/39 35/99/39
f 34/100/38 39/101/45 37/102/38
f 37/102/40 39/101/46 34/100/40
f 37/95/7 40/103/7 36/96/7
f 36/96/8 40/103/8 37/95/8
f 36/104/43 41/105/47 38/106/43
f 38/106/44 41/105/48 36/104/44
f 34/92/8 38/98/8 39/107/8
f 39/107/7 38/98/7 34/92/7
f 40/108/45 37/102/38 39/101/45
f 39/101/46 37/102/40 40/108/46
f 36/96/7 40/103/7 41/109/7
f 41/109/8 40/103/8 36/96/8
f 42/110/47 38/106/43 41/105/47
f 41/105/48 38/106/44 42/110/48
f 38/98/8 42/111/8 39/107/8
f 39/107/7 42/111/7 38/98/7
f 39/112/45 43/113/49 40/114/45
f 40/114/46 43/113/50 39/112/46
f 40/103/7 44/115/7 41/109/7
f 41/109/8 44/115/8 40/103/8
f 41/116/47 45/117/51 42/118/47
f 42/118/48 45/117/52 41/116/48
f 39/107/8 42/111/8 43/119/8
f 43/119/7 42/111/7 39/107/7
f 44/120/49 40/114/45 43/113/49
f 43/113/50 40/114/46 44/120/50
f 41/109/7 44/115/7 45/121/7
f 45/121/8 44/115/8 41/109/8
f 46/122/51 42/118/47 45/117/51
f 45/117/52 42/118/48 46/122/52
f 42/111/8 46/123/8 43/119/8
f 43/119/7 46/123/7 42/111/7
f 43/124/49 47/125/53 44/126/49
f 44/126/50 47/125/54 43/124/50
f 44/115/7 48/127/7 45/121/7
f 45/121/8 48/127/8 44/115/8
f 46/128/51 45/129/51 49/130/55
f 49/130/56 45/129/52 46/128/52
f 43/119/8 46/123/8 47/131/8
f 47/131/7 46/123/7 43/119/7
f 48/132/53 44/126/49 47/125/53
f 47/125/54 44/126/50 48/132/54
f 45/121/7 48/127/7 50/133/7
f 50/133/8 48/127/8 45/121/8
f 50/134/55 49/130/55 45/129/51
f 45/129/52 49/130/56 50/134/56
f 46/123/8 49/135/8 47/131/8
f 47/131/7 49/135/7 46/123/7
f 48/136/53 47/137/53 51/138/57
f 51/138/58 47/137/54 48/136/54
f 48/127/7 51/139/7 50/133/7
f 50/133/8 51/139/8 48/127/8
f 49/140/55 50/141/55 52/142/3
f 52/142/2 50/141/56 49/140/56
f 47/131/8 49/135/8 53/143/8
f 53/143/7 49/135/7 47/131/7
f 53/144/57 51/138/57 47/137/53
f 47/137/54 51/138/58 53/144/58
f 54/145/7 50/133/7 51/139/7
f 51/139/8 50/133/8 54/145/8
f 54/146/3 52/142/3 50/141/55
f 50/141/56 52/142/2 54/146/2
f 52/145/8 53/143/8 49/135/8
f 49/135/7 53/143/7 52/145/7
f 51/147/57 53/148/57 54/149/3
f 54/149/2 53/148/58 51/147/58
f 52/150/3 54/149/3 53/148/57
f 53/148/58 54/149/2 52/150/2
