# SSTK version 0.8.0
# 50
mtllib original-50.mtl
o Group12/mesh47/mesh47-geometry#mesh47-geometry
v -0.746893 0.496051 0.330382
v -0.748446 0.493438 0.329495
v -0.748446 0.494764 0.330895
v -0.746893 0.493991 0.328208
v -0.748446 0.267044 0.329495
v -0.746893 0.496051 0.446278
v 0.732603 0.496051 0.330382
v -0.748446 0.265559 0.330928
v -0.748446 0.494764 0.445745
v 0.732603 0.496051 0.446278
v 0.732603 0.493991 0.328208
v -0.746893 0.266524 0.328207
v -0.748446 0.265559 0.427253
v -0.746893 0.264272 0.330382
v -0.748446 0.430150 0.445733
v -0.748446 0.493458 0.447052
v 0.732603 0.493991 0.448338
v 0.734155 0.493354 0.329688
v 0.732603 0.266524 0.328207
v 0.734155 0.494571 0.445665
v -0.748446 0.267042 0.428675
v -0.748446 0.431512 0.447052
v -0.748446 0.430150 0.428675
v -0.746893 0.493991 0.448338
v 0.734155 0.493379 0.446858
v 0.734155 0.494571 0.330972
v 0.734155 0.267123 0.329688
v 0.732603 0.264272 0.330382
v -0.746893 0.264272 0.427802
v -0.746893 0.428862 0.446278
v 0.732603 0.430992 0.448338
v 0.734155 0.431591 0.446858
v 0.734155 0.430342 0.445651
v -0.746893 0.428862 0.429962
v -0.746893 0.266524 0.429962
v -0.746893 0.430992 0.448338
v 0.734155 0.265752 0.331010
v 0.734155 0.430342 0.428482
v 0.732603 0.264272 0.427802
v 0.732603 0.428862 0.446278
v 0.734155 0.265752 0.427171
v 0.732603 0.428862 0.429962
v 0.734155 0.267119 0.428482
v 0.732603 0.266524 0.429962
vt -0.057758 0.094904
vt -0.057564 0.09292
vt -0.056886 0.093927
vt -0.058812 0.093341
vt -0.074789 0.001745
vt -0.073908 0.14505
vt -0.074789 0.144215
vt -0.073908 0.092588
vt -0.001297 0.093857
vt -0.074231 0.093857
vt -0.93203 0.046439
vt -0.000977 0.044554
vt -0.000977 0.046439
vt -0.049008 0.144563
vt -0.047739 0.001745
vt -0.047739 0.144215
vt -0.073887 0.00081
vt -0.001632 0.092588
vt 0.93203 0.001297
vt 0.000977 0.074231
vt 0.000977 0.001297
vt -0.93203 0.044554
vt 0.93203 0.074231
vt -0.049008 0.001417
vt -0.01327 0.00081
vt -0.056493 0.027679
vt -0.056711 0.025615
vt -0.055811 0.026573
vt -0.00164 0.104388
vt -0.001632 0.14505
vt -0.000616 0.121276
vt -0.000353 0.123222
vt -0.001242 0.122256
vt 0.000977 0.104056
vt 0.93203 0.102222
vt 0.93203 0.104056
vt -0.485058 -0.29582
vt -0.485276 -0.297815
vt -0.483949 -0.297344
vt -0.93203 0.001417
vt -0.000977 0.144563
vt -0.93203 0.144563
vt 0.001683 -0.575239
vt 0.074231 -0.57389
vt 0.001297 -0.57389
vt -0.000977 0.001417
vt -0.057745 0.027292
vt -0.012375 0.001743
vt -0.074231 -0.000752
vt -0.01327 0.000517
vt -0.073887 0.000517
vt -0.00081 0.105245
vt -0.012375 0.104388
vt 0.000634 0.121676
vt -0.00081 0.144228
vt 0.000977 0.102222
vt 0.556514 -0.25937
vt 0.556226 -0.257412
vt 0.555184 -0.258921
vt -0.485931 -0.296915
vt -0.623724 0.001794
vt -0.622375 0.144563
vt -0.623725 0.144163
vt -0.622375 0.001417
vt 0.07386 -0.575239
vt 0.557117 -0.258496
vt -0.93203 0.051561
vt -0.000977 0.053531
vt -0.93203 0.053531
vt -0.000977 0.051561
vt -0.009108 -0.004914
vt -0.009335 -0.002854
vt -0.01001 -0.003957
vt -0.012924 -0.000752
vt -0.00034 0.086639
vt -0.000612 0.088614
vt -0.001239 0.087598
vt -0.012375 0.066632
vt -0.001297 0.065363
vt -0.00164 0.066632
vt -0.000517 0.105245
vt 0.000752 0.144563
vt -0.000517 0.144228
vt 0.000977 0.144563
vt 0.93203 0.104917
vt 0.93203 0.144563
vt 0.674544 0.144563
vt 0.675894 0.105294
vt 0.675894 0.144178
vt 0.07386 0.144928
vt 0.074668 0.001794
vt 0.074668 0.144163
vt -0.502332 0.398578
vt -0.502093 0.396503
vt -0.501 0.398142
vt 0.001683 0.144928
vt 0.001692 0.104509
vt 0.000931 0.105294
vt 0.000931 0.144177
vt -0.93203 0.074231
vt -0.000977 0.012924
vt -0.000977 0.074231
vt -0.007899 0.001743
vt -0.00663 0.103577
vt -0.007899 0.104387
vt -0.008082 -0.003239
vt 0.00064 0.088226
vt -0.011564 0.065363
vt 0.000752 0.104917
vt 0.000977 0.104917
vt 0.674544 0.104917
vt 0.073835 0.000931
vt -0.502997 0.39758
vt 0.012496 0.104509
vt -0.93203 0.012924
vt -0.00663 0.001417
vt 0.93203 -0.008947
vt 0.000977 -0.006983
vt 0.000977 -0.008947
vt 0.93203 0.073533
vt 0.000977 0.075398
vt 0.000977 0.073533
vt -0.000977 0.011564
vt -0.93203 0.001297
vt -0.000977 0.001297
vt 0.93203 0.075398
vt 0.56201 0.463701
vt 0.562306 0.465688
vt 0.560974 0.465252
vt 0.013321 0.000931
vt 0.073835 0.675894
vt 0.012923 0.674544
vt 0.07423 0.674544
vt 0.562913 0.464779
vt 0.001693 0.74737
vt 0.011566 0.74602
vt 0.012497 0.74737
vt 0.012496 0.001792
vt 0.93203 0.001417
vt 0.000977 0.103577
vt 0.000977 0.001417
vt 0.93203 -0.006983
vt -0.93203 0.011564
vt 0.013321 0.675894
vt 0.001298 0.74602
vt 0.682525 0.103578
vt 0.683875 0.001792
vt 0.683875 0.104509
vt 0.93203 0.103577
vt 0.572775 0.368435
vt 0.573023 0.370506
vt 0.571691 0.370073
vt 0.573681 0.369511
vt 0.682525 0.001417
vn -0.6383180294890171 0.5587760258143356 -0.5294520244596251
vn 0.6383180294890171 -0.5587760258143356 0.5294520244596251
vn -1 0 0
vn 1 0 0
vn -0.6383178912775569 0.7697728688872926 0
vn 0.6383178912775569 -0.7697728688872926 0
vn 0 0.7258986554141753 -0.6878016734989034
vn 0 -0.7258986554141753 0.6878016734989034
vn -0.6383178912775569 0 -0.7697728688872926
vn 0.6383178912775569 0 0.7697728688872926
vn 0 1 0
vn 0 -1 0
vn -0.6383179603310933 -0.5346879667712826 -0.5537679655855372
vn 0.6383179603310933 0.5346879667712826 0.5537679655855372
vn -0.638318036004649 0.5443110307021366 0.5443120307021933
vn 0.638318036004649 -0.5443110307021366 -0.5443120307021933
vn 0 0.7071067811865476 0.7071067811865478
vn 0 -0.7071067811865476 -0.7071067811865478
vn 0.6900768974114508 0.5253599218986865 -0.49778592599790517
vn -0.6900768974114508 -0.5253599218986865 0.49778592599790517
vn 0 0 -1
vn 0 0 1
vn 0.6900769780469265 0.7237359769761497 0
vn -0.6900769780469265 -0.7237359769761497 0
vn -0.6383172987268207 -0.7697733602470889 0
vn 0.6383172987268207 0.7697733602470889 0
vn 0.6900761953129833 0.5117591448437229 0.5117591448437231
vn -0.6900761953129833 -0.5117591448437229 -0.5117591448437231
vn 0.6900769780469265 0 -0.7237359769761497
vn -0.6900769780469265 0 0.7237359769761497
vn 0 -0.6946051677798146 -0.719391173766801
vn 0 0.6946051677798146 0.719391173766801
vn -0.6383172802296456 -0.5328982339493038 0.5554912438679308
vn 0.6383172802296456 0.5328982339493038 -0.5554912438679308
vn -0.6383182490332111 -0.535281208834384 0.5531942158229567
vn 0.6383182490332111 0.535281208834384 -0.5531942158229567
vn -0.6383178912775569 -0.7697728688872926 0
vn 0.6383178912775569 0.7697728688872926 0
vn -0.6383178912775569 0 0.7697728688872926
vn 0.6383178912775569 0 -0.7697728688872926
vn 0.6900769780469265 0 0.7237359769761497
vn -0.6900769780469265 0 -0.7237359769761497
vn 0.6900766418675677 -0.5027107391057617 -0.5206497297958765
vn -0.6900766418675677 0.5027107391057617 0.5206497297958765
vn 0 -0.692271833248004 0.7216368261746678
vn 0 0.692271833248004 -0.7216368261746678
vn 0 -0.6953801152370117 0.7186421190919445
vn 0 0.6953801152370117 -0.7186421190919445
vn 0.6900769439761056 -0.5032749591416242 0.5201039577753618
vn -0.6900769439761056 0.5032749591416242 -0.5201039577753618
vn 0.6900769780465814 -0.7237359769757877 -9.99999968347703e-7
vn -0.6900769780465814 0.7237359769757877 9.99999968347703e-7
vn 0.6900769780465814 -0.7237359769757877 9.999999680262998e-7
vn -0.6900769780465814 0.7237359769757877 -9.999999680262998e-7
vn 0.6900759548190035 0 0.7237369526151339
vn -0.6900759548190035 0 -0.7237369526151339
vn 0.6900758600678115 -0.5010158984050086 0.5222818940927327
vn -0.6900758600678115 0.5010158984050086 -0.5222818940927327
usemtl material_0_0
f 1/1/1 2/2/1 3/3/1
f 2/2/1 1/1/1 4/4/1
f 3/3/2 2/2/2 1/1/2
f 4/4/2 1/1/2 2/2/2
f 5/5/3 3/6/3 2/7/3
f 2/7/4 3/6/4 5/5/4
f 3/8/5 6/9/5 1/10/5
f 1/10/6 6/9/6 3/8/6
f 7/11/7 4/12/7 1/13/7
f 1/13/8 4/12/8 7/11/8
f 4/14/9 5/15/9 2/16/9
f 2/16/10 5/15/10 4/14/10
f 8/17/3 3/6/3 5/5/3
f 5/5/4 3/6/4 8/17/4
f 6/9/5 3/8/5 9/18/5
f 9/18/6 3/8/6 6/9/6
f 10/19/11 1/20/11 6/21/11
f 6/21/12 1/20/12 10/19/12
f 4/12/7 7/11/7 11/22/7
f 11/22/8 7/11/8 4/12/8
f 1/20/11 10/19/11 7/23/11
f 7/23/12 10/19/12 1/20/12
f 5/15/9 4/14/9 12/24/9
f 12/24/10 4/14/10 5/15/10
f 13/25/3 3/6/3 8/17/3
f 8/17/4 3/6/4 13/25/4
f 5/26/13 14/27/13 8/28/13
f 8/28/14 14/27/14 5/26/14
f 15/29/3 9/30/3 3/6/3
f 3/6/4 9/30/4 15/29/4
f 16/31/15 6/32/15 9/33/15
f 9/33/16 6/32/16 16/31/16
f 6/34/17 17/35/17 10/36/17
f 10/36/18 17/35/18 6/34/18
f 7/37/19 18/38/19 11/39/19
f 11/39/20 18/38/20 7/37/20
f 19/40/21 4/41/21 11/42/21
f 11/42/22 4/41/22 19/40/22
f 20/43/23 7/44/23 10/45/23
f 10/45/24 7/44/24 20/43/24
f 4/41/21 19/40/21 12/46/21
f 12/46/22 19/40/22 4/41/22
f 14/27/13 5/26/13 12/47/13
f 12/47/14 5/26/14 14/27/14
f 21/48/3 3/6/3 13/25/3
f 13/25/4 3/6/4 21/48/4
f 14/49/25 13/50/25 8/51/25
f 8/51/26 13/50/26 14/49/26
f 22/52/3 9/30/3 15/29/3
f 15/29/4 9/30/4 22/52/4
f 15/29/3 3/6/3 23/53/3
f 23/53/4 3/6/4 15/29/4
f 6/32/15 16/31/15 24/54/15
f 24/54/16 16/31/16 6/32/16
f 9/30/3 22/52/3 16/55/3
f 16/55/4 22/52/4 9/30/4
f 17/35/17 6/34/17 24/56/17
f 24/56/18 6/34/18 17/35/18
f 25/57/27 10/58/27 17/59/27
f 17/59/28 10/58/28 25/57/28
f 18/38/19 7/37/19 26/60/19
f 26/60/20 7/37/20 18/38/20
f 27/61/29 11/62/29 18/63/29
f 18/63/30 11/62/30 27/61/30
f 11/62/29 27/61/29 19/64/29
f 19/64/30 27/61/30 11/62/30
f 7/44/23 20/43/23 26/65/23
f 26/65/24 20/43/24 7/44/24
f 10/58/27 25/57/27 20/66/27
f 20/66/28 25/57/28 10/58/28
f 28/67/31 12/68/31 19/69/31
f 19/69/32 12/68/32 28/67/32
f 12/68/31 28/67/31 14/70/31
f 14/70/32 28/67/32 12/68/32
f 23/53/3 3/6/3 21/48/3
f 21/48/4 3/6/4 23/53/4
f 29/71/33 21/72/33 13/73/33
f 13/73/34 21/72/34 29/71/34
f 13/50/25 14/49/25 29/74/25
f 29/74/26 14/49/26 13/50/26
f 30/75/35 22/76/35 15/77/35
f 15/77/36 22/76/36 30/75/36
f 23/78/37 30/79/37 15/80/37
f 15/80/38 30/79/38 23/78/38
f 22/81/39 24/82/39 16/83/39
f 16/83/40 24/82/40 22/81/40
f 24/84/22 31/85/22 17/86/22
f 17/86/21 31/85/21 24/84/21
f 17/87/41 32/88/41 25/89/41
f 25/89/42 32/88/42 17/87/42
f 26/90/4 27/91/4 18/92/4
f 18/92/3 27/91/3 26/90/3
f 27/93/43 28/94/43 19/95/43
f 19/95/44 28/94/44 27/93/44
f 20/96/4 33/97/4 26/90/4
f 26/90/3 33/97/3 20/96/3
f 32/98/4 20/96/4 25/99/4
f 25/99/3 20/96/3 32/98/3
f 28/100/12 29/101/12 14/102/12
f 14/102/11 29/101/11 28/100/11
f 21/103/39 34/104/39 23/105/39
f 23/105/40 34/104/40 21/103/40
f 21/72/33 29/71/33 35/106/33
f 35/106/34 29/71/34 21/72/34
f 22/76/35 30/75/35 36/107/35
f 36/107/36 30/75/36 22/76/36
f 30/79/37 23/78/37 34/108/37
f 34/108/38 23/78/38 30/79/38
f 24/82/39 22/81/39 36/109/39
f 36/109/40 22/81/40 24/82/40
f 31/85/22 24/84/22 36/110/22
f 36/110/21 24/84/21 31/85/21
f 32/88/41 17/87/41 31/111/41
f 31/111/42 17/87/42 32/88/42
f 26/90/4 37/112/4 27/91/4
f 27/91/3 37/112/3 26/90/3
f 28/94/43 27/93/43 37/113/43
f 37/113/44 27/93/44 28/94/44
f 20/96/4 32/98/4 33/97/4
f 33/97/3 32/98/3 20/96/3
f 26/90/4 33/97/4 38/114/4
f 38/114/3 33/97/3 26/90/3
f 29/101/12 28/100/12 39/115/12
f 39/115/11 28/100/11 29/101/11
f 34/104/39 21/103/39 35/116/39
f 35/116/40 21/103/40 34/104/40
f 39/117/45 35/118/45 29/119/45
f 29/119/46 35/118/46 39/117/46
f 40/120/47 36/121/47 30/122/47
f 30/122/48 36/121/48 40/120/48
f 34/123/12 40/124/12 30/125/12
f 30/125/11 40/124/11 34/123/11
f 36/121/47 40/120/47 31/126/47
f 31/126/48 40/120/48 36/121/48
f 40/127/49 32/128/49 31/129/49
f 31/129/50 32/128/50 40/127/50
f 26/90/4 41/130/4 37/112/4
f 37/112/3 41/130/3 26/90/3
f 37/131/51 39/132/51 28/133/51
f 28/133/52 39/132/52 37/131/52
f 32/128/49 40/127/49 33/134/49
f 33/134/50 40/127/50 32/128/50
f 33/135/53 42/136/53 38/137/53
f 38/137/54 42/136/54 33/135/54
f 26/90/4 38/114/4 43/138/4
f 43/138/3 38/114/3 26/90/3
f 44/139/22 34/140/22 35/141/22
f 35/141/21 34/140/21 44/139/21
f 35/118/45 39/117/45 44/142/45
f 44/142/46 39/117/46 35/118/46
f 40/124/12 34/123/12 42/143/12
f 42/143/11 34/123/11 40/124/11
f 26/90/4 43/138/4 41/130/4
f 41/130/3 43/138/3 26/90/3
f 39/132/51 37/131/51 41/144/51
f 41/144/52 37/131/52 39/132/52
f 42/136/53 33/135/53 40/145/53
f 40/145/54 33/135/54 42/136/54
f 42/146/55 43/147/55 38/148/55
f 38/148/56 43/147/56 42/146/56
f 34/140/22 44/139/22 42/149/22
f 42/149/21 44/139/21 34/140/21
f 39/150/57 43/151/57 44/152/57
f 44/152/58 43/151/58 39/150/58
f 43/151/57 39/150/57 41/153/57
f 41/153/58 39/150/58 43/151/58
f 43/147/55 42/146/55 44/154/55
f 44/154/56 42/146/56 43/147/56
