mtllib new-1.mtl
v 0.818187 -0.407672 0.161507
v 0.818187 0.457136 0.316363
v 0.818187 -0.407672 0.316363
v 0.818187 0.457136 -0.396009
v 0.534144 0.268623 0.316363
v 0.534144 -0.407672 0.316363
v 0.818187 -0.475767 0.079793
v -0.810091 0.457136 -0.396009
v -0.810091 0.268623 0.316363
v -0.810091 -0.407672 0.316363
v -0.810091 -0.407672 0.161507
v 0.818187 -0.475767 -0.396009
v -0.810091 0.457136 0.316363
v 0.508702 -0.382230 0.316363
v -0.784649 0.243181 0.316363
v -0.810091 -0.475767 0.079793
v -0.810091 -0.475767 -0.396009
v 0.508702 0.243181 0.316363
v -0.784649 -0.382230 0.316363
v 0.508702 -0.382230 -0.370567
v -0.784649 -0.382230 -0.370567
v -0.784649 0.243181 -0.370567
v 0.508702 0.243181 -0.370567
vn 1.000000 0.000000 0.000000
vn -1.000000 0.000000 0.000000
vn 0.000000 0.000000 1.000000
vn 0.000000 0.000000 -1.000000
vn 0.000000 -1.000000 0.000000
vn 0.000000 1.000000 0.000000
usemtl material-0
f 1//1 2//1 3//1
f 2//1 1//1 4//1
f 3//2 2//2 1//2
f 4//2 1//2 2//2
f 5//3 3//3 2//3
f 2//4 3//4 5//4
f 6//5 1//5 3//5
f 3//6 1//6 6//6
f 4//1 1//1 7//1
f 7//2 1//2 4//2
f 8//6 2//6 4//6
f 4//5 2//5 8//5
f 3//3 5//3 6//3
f 6//4 5//4 3//4
f 5//3 2//3 9//3
f 9//4 2//4 5//4
f 10//5 1//5 6//5
f 6//6 1//6 10//6
f 4//1 7//1 12//1
f 12//2 7//2 4//2
f 2//6 8//6 13//6
f 13//5 8//5 2//5
f 12//4 8//4 4//4
f 4//3 8//3 12//3
f 9//3 2//3 13//3
f 13//4 2//4 9//4
f 1//5 10//5 11//5
f 11//6 10//6 1//6
f 8//2 9//2 13//2
f 13//1 9//1 8//1
f 8//4 12//4 17//4
f 17//3 12//3 8//3
f 11//2 10//2 9//2
f 9//1 10//1 11//1
f 11//2 8//2 16//2
f 16//1 8//1 11//1
f 9//2 8//2 11//2
f 11//1 8//1 9//1
f 16//2 8//2 17//2
f 17//1 8//1 16//1
usemtl material-2
f 14//3 6//3 5//3
f 5//4 6//4 14//4
f 9//3 15//3 5//3
f 5//4 15//4 9//4
f 6//3 14//3 10//3
f 10//4 14//4 6//4
f 14//3 5//3 18//3
f 18//4 5//4 14//4
f 9//3 19//3 15//3
f 15//4 19//4 9//4
f 18//3 5//3 15//3
f 15//4 5//4 18//4
f 19//3 10//3 14//3
f 14//4 10//4 19//4
f 18//2 20//2 14//2
f 14//1 20//1 18//1
f 10//3 19//3 9//3
f 9//4 19//4 10//4
f 21//1 15//1 19//1
f 19//2 15//2 21//2
f 22//5 18//5 15//5
f 15//6 18//6 22//6
f 14//6 21//6 19//6
f 19//5 21//5 14//5
f 20//2 18//2 23//2
f 23//1 18//1 20//1
f 21//6 14//6 20//6
f 20//5 14//5 21//5
f 15//1 21//1 22//1
f 22//2 21//2 15//2
f 18//5 22//5 23//5
f 23//6 22//6 18//6
f 23//3 21//3 20//3
f 20//4 21//4 23//4
f 21//3 23//3 22//3
f 22//4 23//4 21//4