# SSTK version 0.8.0
# 26
mtllib original-26.mtl
o LB_11_TC1/LB_11_TC/mesh17/mesh17-geometry#mesh17-geometry
v 0.589775 0.469938 0.306437
v -0.056377 0.467870 0.305868
v 0.589775 0.467870 0.305868
v -0.056377 0.469938 0.306437
v -0.056377 0.465944 0.304871
v -0.056377 0.469940 0.309446
v 0.589775 0.465944 0.304871
v 0.589775 0.469940 0.309446
v -0.056377 0.462876 0.301878
v -0.056377 0.553355 0.309446
v 0.589775 0.462876 0.301878
v 0.589775 0.553355 0.309446
v 0.589775 0.461531 0.300025
v 0.589775 0.553925 0.309374
v -0.056377 0.461531 0.300025
v -0.056377 0.553925 0.309374
v 0.589775 0.460532 0.298029
v 0.589775 0.554211 0.309231
v -0.056377 0.460532 0.298029
v -0.056377 0.554211 0.309231
v 0.589775 0.460526 0.290267
v -0.056377 0.554567 0.308875
v -0.056377 0.460526 0.290267
v 0.589775 0.554567 0.308875
v -0.056377 0.434756 0.290987
v -0.056377 0.554709 0.308660
v 0.589775 0.434756 0.290987
v 0.589775 0.554709 0.308660
v 0.589775 0.422067 0.296273
v -0.056377 0.554923 0.308161
v -0.056377 0.422067 0.296273
v 0.589775 0.554923 0.308161
v -0.056377 0.404946 0.298995
v -0.056377 0.554921 0.304881
v 0.589775 0.404946 0.298995
v 0.589775 0.554921 0.304881
v -0.056377 0.402950 0.299709
v 0.589775 0.557416 0.304380
v 0.589775 0.402950 0.299709
v -0.056377 0.557416 0.304380
v -0.056377 0.402095 0.300280
v -0.056377 0.559697 0.303451
v 0.589775 0.402095 0.300280
v 0.589775 0.559697 0.303451
v 0.589775 0.401382 0.300994
v -0.056377 0.561764 0.302095
v -0.056377 0.401382 0.300994
v 0.589775 0.561764 0.302095
v 0.589775 0.400741 0.301921
v -0.056377 0.565042 0.298385
v -0.056377 0.400741 0.301921
v 0.589775 0.565042 0.298385
v 0.589775 0.399887 0.303847
v -0.056377 0.566893 0.293677
v -0.056377 0.399887 0.303847
v 0.589775 0.566893 0.293677
v 0.589775 0.399889 0.307056
v -0.056377 0.566881 0.276776
v -0.056377 0.399889 0.307056
v 0.589775 0.566881 0.276776
v 0.589775 0.399105 0.308626
v -0.056377 0.566666 0.275921
v -0.056377 0.399105 0.308626
v 0.589775 0.566666 0.275921
v -0.056377 0.398607 0.308983
v -0.056377 0.566309 0.275136
v 0.589775 0.398607 0.308983
v 0.589775 0.566309 0.275136
v -0.056377 0.397537 0.309483
v -0.056377 0.565025 0.273925
v 0.589775 0.397537 0.309483
v 0.589775 0.565025 0.273925
v -0.056377 0.391768 0.309483
v -0.056377 0.564240 0.273498
v 0.589775 0.391768 0.309483
v 0.589775 0.564240 0.273498
v 0.589775 0.563313 0.273213
v -0.056377 0.563313 0.273213
v 0.589775 0.460515 0.273213
v -0.056377 0.460515 0.273213
v -0.056377 0.460519 0.279132
v 0.589775 0.460519 0.279132
v 0.589775 0.391768 0.279132
v -0.056377 0.391768 0.279132
vt 0.784918 -0.82424
vt 0.78581 -1.013049
vt 0.78581 -0.82424
vt 0.784918 -1.013049
vt 0.786641 -1.013049
vt 0.784918 -0.842367
vt 0.784917 -0.994933
vt 0.784918 -0.994933
vt 0.786641 -0.82424
vt 0.784917 -0.842367
vt 0.787964 -1.013049
vt 0.784917 -0.82424
vt 0.748944 -1.013049
vt 0.784917 -1.013049
vt 0.787964 -0.82424
vt 0.748944 -0.82424
vt 0.788543 -0.82424
vt 0.748698 -0.82424
vt 0.788543 -1.013049
vt 0.748698 -1.013049
vt 0.788975 -0.82424
vt 0.748575 -0.82424
vt 0.788975 -1.013049
vt 0.748575 -1.013049
vt 0.788977 -0.82424
vt 0.748422 -1.013049
vt 0.788977 -1.013049
vt 0.748422 -0.82424
vt 0.075523 0.247714
vt 0.264332 0.258827
vt 0.075523 0.258827
vt 0.74836 -1.013049
vt 0.264332 0.247714
vt 0.74836 -0.82424
vt 0.264332 0.242241
vt 0.748268 -1.013049
vt 0.075523 0.242241
vt 0.748268 -0.82424
vt 0.075523 0.234858
vt 0.748269 -1.013049
vt 0.264332 0.234858
vt 0.748269 -0.82424
vt 0.075523 0.233997
vt 0.747193 -0.82424
vt 0.264332 0.233997
vt 0.747193 -1.013049
vt 0.075523 0.233628
vt 0.746209 -1.013049
vt 0.264332 0.233628
vt 0.746209 -0.82424
vt 0.264332 0.233321
vt 0.745318 -1.013049
vt 0.075523 0.233321
vt 0.745318 -0.82424
vt 0.264332 0.233044
vt 0.743904 -1.013049
vt 0.075523 0.233044
vt 0.743904 -0.82424
vt 0.264332 0.232676
vt 0.743106 -1.013049
vt 0.075523 0.232676
vt 0.743106 -0.82424
vt 0.264332 0.232677
vt 0.743111 -1.013049
vt 0.075523 0.232677
vt 0.743111 -0.82424
vt 0.264332 0.232339
vt 0.743204 -1.013049
vt 0.075523 0.232339
vt 0.743204 -0.82424
vt 0.075523 0.232124
vt 0.743358 -1.013049
vt 0.264332 0.232124
vt 0.743358 -0.82424
vt 0.075523 0.231663
vt 0.743912 -1.013049
vt 0.264332 0.231663
vt 0.743912 -0.82424
vt 0.075523 0.229174
vt 0.74425 -1.013049
vt 0.264332 0.229174
vt 0.74425 -0.82424
vt 0.74465 -0.82424
vt 0.74465 -1.013049
vt 0.788982 -0.82424
vt 0.788982 -1.013049
vt 0.788982 -0.807206
vt 0.78898 -0.994933
vt 0.788982 -0.994933
vt 0.78898 -0.807206
vt 0.075523 0.258824
vt 0.264332 0.258824
vn 0 -0.2652683639547584 0.9641746185648976
vn 0 -0.3644837313462245 0.9312097559540135
vn 0 -0.5853530547901957 0.8107785155316994
vn 0 -0.9999997500925883 0.000706975785321245
vn 0 -0.7566179495830192 0.653857230875967
vn 0 0 1
vn 0 0.06248611409697276 0.9980458333889582
vn 0 -0.8546520281313882 0.5192012238149143
vn 0 0.2904569804736311 0.9568880511816108
vn 0 -0.9730911142538625 0.2304206660874323
vn 0 0.5852862284248569 0.8108267575852478
vn 0 -0.9999997591984623 0.0006939762368891926
vn 0 0.7737925489867885 0.6334390982032357
vn 0 0.20974378447063258 0.9777563831936548
vn 0 0.02792195231500535 0.9996101062809031
vn 0 0.8796172201569932 0.47568219012622687
vn 0 0.27267570486085385 0.9621060024647161
vn 0 0.9797183624844547 0.20037946554170383
vn 0 0.24806995339295307 0.9687421216317674
vn 0 0.9999997591984623 -0.0006939762368891926
vn 0 0.449513126278955 0.8932737258550261
vn 0 0.2881960262905517 0.9575714335914244
vn 0 0.19680252042412866 0.9804431487621863
vn 0 0.6345380537719681 0.7728916213255795
vn 0 0.46501423924472474 0.8853032007734127
vn 0 0.7682065745906619 0.6402020452604642
vn 0 0.6548508523716569 0.755758136673443
vn 0 0.8721698383155781 0.4892032022918272
vn 0 0.853020032430503 0.5218781699518229
vn 0 0.9783607555641896 0.20690633622938695
vn 0 0.9825783298556123 0.18584893246439532
vn 0 0.9734098026636545 0.2290706355653318
vn 0 0.99242304332 -0.12286782771527131
vn 0 0.7607121187939593 0.6490894178154542
vn 0 0.9439207555054013 -0.33017208744246124
vn 0 0.5047970884246092 0.8632380317838396
vn 0 0.8133133538738645 -0.5818259090230048
vn 0 0.42352564754966937 0.9058841128243905
vn 0 0.5870530469295824 -0.8095484667953449
vn 0 0.3877982069272295 -0.9217442978961278
vn 0 0.1483580022158632 -0.9889337203162393
vn 0 0 -1
vn 0 0.3644837313462245 -0.9312097559540135
vn 0 0.2652683639547584 -0.9641746185648976
vn 0 0.5853530547901957 -0.8107785155316994
vn 0 0.9999997500925883 -0.000706975785321245
vn 0 0.7566179495830192 -0.653857230875967
vn 0 -0.06248611409697276 -0.9980458333889582
vn 0 0.8546520281313882 -0.5192012238149143
vn 0 -0.2904569804736311 -0.9568880511816108
vn 0 0.9730911142538625 -0.2304206660874323
vn 0 -0.5852862284248569 -0.8108267575852478
vn 0 -0.7737925489867885 -0.6334390982032357
vn 0 -0.02792195231500535 -0.9996101062809031
vn 0 -0.20974378447063258 -0.9777563831936548
vn 0 -0.8796172201569932 -0.47568219012622687
vn 0 -0.27267570486085385 -0.9621060024647161
vn 0 -0.9797183624844547 -0.20037946554170383
vn 0 -0.24806995339295307 -0.9687421216317674
vn 0 -0.449513126278955 -0.8932737258550261
vn 0 -0.19680252042412866 -0.9804431487621863
vn 0 -0.2881960262905517 -0.9575714335914244
vn 0 -0.6345380537719681 -0.7728916213255795
vn 0 -0.46501423924472474 -0.8853032007734127
vn 0 -0.7682065745906619 -0.6402020452604642
vn 0 -0.6548508523716569 -0.755758136673443
vn 0 -0.8721698383155781 -0.4892032022918272
vn 0 -0.853020032430503 -0.5218781699518229
vn 0 -0.9783607555641896 -0.20690633622938695
vn 0 -0.9825783298556123 -0.18584893246439532
vn 0 -0.9734098026636545 -0.2290706355653318
vn 0 -0.99242304332 0.12286782771527131
vn 0 -0.7607121187939593 -0.6490894178154542
vn 0 -0.9439207555054013 0.33017208744246124
vn 0 -0.5047970884246092 -0.8632380317838396
vn 0 -0.8133133538738645 0.5818259090230048
vn 0 -0.42352564754966937 -0.9058841128243905
vn 0 -0.5870530469295824 0.8095484667953449
vn 0 -0.3877982069272295 0.9217442978961278
vn 0 -0.1483580022158632 0.9889337203162393
usemtl material_0_0
f 1/1/1 2/2/2 3/3/2
f 2/2/2 1/1/1 4/4/1
f 5/5/3 3/3/2 2/2/2
f 1/6/4 6/7/4 4/8/4
f 3/3/2 5/5/3 7/9/3
f 6/7/4 1/6/4 8/10/4
f 9/11/5 7/9/3 5/5/3
f 8/12/6 10/13/7 6/14/6
f 7/9/3 9/11/5 11/15/5
f 10/13/7 8/12/6 12/16/7
f 9/11/5 13/17/8 11/15/5
f 14/18/9 10/13/7 12/16/7
f 13/17/8 9/11/5 15/19/8
f 10/13/7 14/18/9 16/20/9
f 15/19/8 17/21/10 13/17/8
f 18/22/11 16/20/9 14/18/9
f 17/21/10 15/19/8 19/23/10
f 16/20/9 18/22/11 20/24/11
f 19/23/10 21/25/12 17/21/10
f 18/22/11 22/26/13 20/24/11
f 21/25/12 19/23/10 23/27/12
f 22/26/13 18/22/11 24/28/13
f 25/29/14 21/30/15 23/31/15
f 24/28/13 26/32/16 22/26/13
f 21/30/15 25/29/14 27/33/14
f 26/32/16 24/28/13 28/34/16
f 25/29/14 29/35/17 27/33/14
f 28/34/16 30/36/18 26/32/16
f 29/35/17 25/29/14 31/37/17
f 30/36/18 28/34/16 32/38/18
f 33/39/19 29/35/17 31/37/17
f 32/38/18 34/40/20 30/36/18
f 29/35/17 33/39/19 35/41/19
f 34/40/20 32/38/18 36/42/20
f 37/43/21 35/41/19 33/39/19
f 38/44/22 34/40/23 36/42/23
f 35/41/19 37/43/21 39/45/21
f 34/40/23 38/44/22 40/46/22
f 41/47/24 39/45/21 37/43/21
f 38/44/22 42/48/25 40/46/22
f 39/45/21 41/47/24 43/49/24
f 42/48/25 38/44/22 44/50/25
f 41/47/24 45/51/26 43/49/24
f 44/50/25 46/52/27 42/48/25
f 45/51/26 41/47/24 47/53/26
f 46/52/27 44/50/25 48/54/27
f 47/53/26 49/55/28 45/51/26
f 48/54/27 50/56/29 46/52/27
f 49/55/28 47/53/26 51/57/28
f 50/56/29 48/54/27 52/58/29
f 51/57/28 53/59/30 49/55/28
f 52/58/29 54/60/31 50/56/29
f 53/59/30 51/57/28 55/61/30
f 54/60/31 52/58/29 56/62/31
f 55/61/30 57/63/32 53/59/30
f 56/62/31 58/64/33 54/60/31
f 57/63/32 55/61/30 59/65/32
f 58/64/33 56/62/31 60/66/33
f 59/65/32 61/67/34 57/63/32
f 60/66/33 62/68/35 58/64/33
f 61/67/34 59/65/32 63/69/34
f 62/68/35 60/66/33 64/70/35
f 65/71/36 61/67/34 63/69/34
f 64/70/35 66/72/37 62/68/35
f 61/67/34 65/71/36 67/73/36
f 66/72/37 64/70/35 68/74/37
f 69/75/38 67/73/36 65/71/36
f 68/74/37 70/76/39 66/72/37
f 67/73/36 69/75/38 71/77/38
f 70/76/39 68/74/37 72/78/39
f 73/79/6 71/77/6 69/75/6
f 72/78/39 74/80/40 70/76/39
f 71/77/6 73/79/6 75/81/6
f 74/80/40 72/78/39 76/82/40
f 77/83/41 74/80/40 76/82/40
f 74/80/40 77/83/41 78/84/41
f 79/85/42 78/84/41 77/83/41
f 78/84/41 79/85/42 80/86/42
f 79/87/12 81/88/12 80/89/12
f 81/88/12 79/87/12 82/90/12
f 83/81/42 81/91/42 82/92/42
f 81/91/42 83/81/42 84/79/42
usemtl material_1_0
f 3//43 2//43 1//44
f 4//44 1//44 2//43
f 2//43 3//43 5//45
f 4//46 6//46 1//46
f 7//45 5//45 3//43
f 8//46 1//46 6//46
f 5//45 7//45 9//47
f 6//42 10//48 8//42
f 11//47 9//47 7//45
f 12//48 8//42 10//48
f 11//47 13//49 9//47
f 12//48 10//48 14//50
f 15//49 9//47 13//49
f 16//50 14//50 10//48
f 13//49 17//51 15//49
f 14//50 16//50 18//52
f 19//51 15//49 17//51
f 20//52 18//52 16//50
f 17//51 21//20 19//51
f 20//52 22//53 18//52
f 23//20 19//51 21//20
f 24//53 18//52 22//53
f 23//54 21//54 25//55
f 22//53 26//56 24//53
f 27//55 25//55 21//54
f 28//56 24//53 26//56
f 27//55 29//57 25//55
f 26//56 30//58 28//56
f 31//57 25//55 29//57
f 32//58 28//56 30//58
f 31//57 29//57 33//59
f 30//58 34//12 32//58
f 35//59 33//59 29//57
f 36//12 32//58 34//12
f 33//59 35//59 37//60
f 36//61 34//61 38//62
f 39//60 37//60 35//59
f 40//62 38//62 34//61
f 37//60 39//60 41//63
f 40//62 42//64 38//62
f 43//63 41//63 39//60
f 44//64 38//62 42//64
f 43//63 45//65 41//63
f 42//64 46//66 44//64
f 47//65 41//63 45//65
f 48//66 44//64 46//66
f 45//65 49//67 47//65
f 46//66 50//68 48//66
f 51//67 47//65 49//67
f 52//68 48//66 50//68
f 49//67 53//69 51//67
f 50//68 54//70 52//68
f 55//69 51//67 53//69
f 56//70 52//68 54//70
f 53//69 57//71 55//69
f 54//70 58//72 56//70
f 59//71 55//69 57//71
f 60//72 56//70 58//72
f 57//71 61//73 59//71
f 58//72 62//74 60//72
f 63//73 59//71 61//73
f 64//74 60//72 62//74
f 63//73 61//73 65//75
f 62//74 66//76 64//74
f 67//75 65//75 61//73
f 68//76 64//74 66//76
f 65//75 67//75 69//77
f 66//76 70//78 68//76
f 71//77 69//77 67//75
f 72//78 68//76 70//78
f 69//42 71//42 73//42
f 70//78 74//79 72//78
f 75//42 73//42 71//42
f 76//79 72//78 74//79
f 76//79 74//79 77//80
f 78//80 77//80 74//79
f 77//80 78//80 79//6
f 80//6 79//6 78//80
f 80//20 81//20 79//20
f 82//20 79//20 81//20
f 82//6 81//6 83//6
f 84//6 83//6 81//6
