# Blender v2.93.4 OBJ File: ''
# www.blender.org
mtllib new-1-fixed-double.mtl
o new-1
v -0.473899 0.111796 0.503272
v -0.473899 0.583633 0.503272
v -0.473899 0.111796 0.518284
v -0.473899 0.583633 0.518284
v -0.473899 0.216553 0.539531
v -0.473899 0.469157 0.539531
v -0.420281 0.583633 0.503272
v -0.420281 0.111796 0.503272
v -0.420281 0.583633 0.518284
v -0.473899 0.347715 0.548310
v -0.420281 0.111796 0.518284
v -0.420281 0.347715 0.548310
v -0.420281 0.469157 0.539531
v -0.420281 0.216553 0.539531
vt 0.000000 0.000000
vt 0.000000 0.000000
vt 0.000000 0.000000
vt 0.000000 0.000000
vt 0.000000 0.000000
vt 0.000000 0.000000
vt 0.000000 0.000000
vt 0.000000 0.000000
vt 0.000000 0.000000
vt 0.000000 0.000000
vt 1.009636 1.596704
vt 1.009636 1.596704
vt 1.009636 1.596704
vt 1.009636 1.596704
vt 1.009636 1.596704
vt 1.009636 1.596704
vt 1.009636 1.596704
vt 1.009636 1.596704
vt 1.009636 1.596704
vt 1.009636 1.596704
vt 1.009636 1.596704
vt 1.009636 1.596704
vt 1.009636 1.596704
vt 1.009636 1.596704
vt 1.027406 1.836932
vt 1.079991 1.917827
vt 0.000000 0.000000
vt 1.079991 1.836932
vt 1.079991 1.844924
vt 1.027406 1.759736
vt 1.079991 1.759736
vt 0.973718 1.670089
vt 0.973718 1.847045
vt 0.967568 1.761972
vn 0.0000 -0.1825 -0.9832
vn 0.0000 0.0721 0.9974
vn 0.0000 1.0000 0.0000
vn 0.0000 -0.1988 0.9800
vn 0.0000 -0.0668 0.9978
vn -1.0000 -0.0000 0.0000
vn -0.9997 0.0236 0.0046
vn 1.0000 0.0000 0.0000
vn 0.9997 -0.0240 -0.0017
vn 0.9998 -0.0175 0.0097
vn 0.9997 0.0230 -0.0070
vn -0.9997 -0.0152 -0.0215
vn -0.9997 -0.0264 -0.0005
vn -0.0000 0.0172 -0.9999
vn 0.0000 0.1146 -0.9934
vn -0.0000 -0.1121 -0.9937
vn 0.0000 -0.0225 -0.9997
vn -0.9994 -0.0214 -0.0290
vn -0.0138 0.0999 -0.9949
vn 0.0046 0.0903 -0.9959
vn -0.9997 -0.0263 0.0019
vn -0.0156 -0.1701 -0.9853
vn -0.0204 -0.1988 -0.9798
vn 0.0236 0.2029 -0.9789
vn -0.0346 0.1890 -0.9814
vn 0.0000 0.1988 -0.9800
vn -0.0123 0.1655 -0.9861
vn 0.0000 -1.0000 0.0000
vn -0.0213 -0.9997 -0.0155
vn 0.0000 -0.0000 1.0000
vn -0.0006 0.2218 0.9751
vn 0.0000 0.1825 0.9832
vn 0.0151 0.1695 0.9854
vn -0.0012 0.1215 0.9926
vn -0.0131 0.9997 -0.0229
vn -0.0053 -0.2217 0.9751
vn -0.0103 -0.0323 0.9994
vn -0.0496 -0.0667 0.9965
vn 0.0496 -0.0667 0.9965
vn 0.0000 0.1173 0.9931
vn 0.0000 0.1429 0.9897
vn -0.0000 0.1121 0.9937
vn 0.0000 0.0225 0.9997
usemtl material-1
s 1
f 4/1/1 9/2/1 13/3/1
f 6/4/2 12/5/2 13/3/2
f 9/2/3 2/6/3 4/1/3
f 5/7/4 11/8/4 14/9/4
f 5/7/5 14/9/5 10/10/5
f 10/11/6 3/12/6 5/13/7
f 3/12/6 10/11/6 1/14/6
f 1/14/8 2/15/8 3/12/8
f 2/15/8 4/16/8 3/12/8
f 3/12/8 4/16/8 5/13/9
f 4/16/8 6/17/10 5/13/11
f 7/18/6 8/19/6 9/20/12
f 10/11/8 5/13/8 6/17/8
f 8/19/6 11/21/6 9/20/13
f 10/11/14 12/22/14 5/13/15
f 6/17/16 13/23/16 10/11/17
f 11/21/6 14/24/18 13/23/6
f 14/24/19 5/13/20 12/22/14
f 9/20/21 11/21/6 13/23/6
f 6/25/22 4/16/1 9/26/23
f 5/13/24 14/24/25 3/12/26
f 14/24/27 11/21/26 3/12/26
f 2/15/28 7/27/28 4/16/28
f 9/26/29 4/16/28 7/27/28
f 3/12/3 11/21/3 1/14/3
f 11/21/3 8/19/3 1/14/3
f 7/27/30 2/15/30 8/19/30
f 1/14/30 8/19/30 2/15/30
f 13/23/31 4/16/32 6/17/33
f 12/22/34 6/17/2 10/11/2
f 7/27/3 2/15/3 9/20/35
f 11/21/4 5/13/36 3/12/4
f 14/24/37 12/22/38 10/11/39
f 9/26/40 6/25/41 13/28/41
f 13/29/42 10/30/43 12/31/43
f 14/32/8 13/33/8 12/34/8
