# SSTK version 0.8.0
# 147
mtllib original-147.mtl
o mesh28/mesh28-geometry/material_2#mesh28-geometry
v 0.085197 0.582099 0.505597
v 0.082293 0.589110 0.505597
v 0.099359 0.585893 0.488518
v 0.077673 0.595131 0.505597
v 0.088040 0.605498 0.488518
v 0.082293 0.589110 0.505597
v 0.085197 0.582099 0.505597
v 0.099359 0.585893 0.488518
v 0.086188 0.574574 0.505597
v 0.094990 0.596441 0.488518
v 0.099359 0.585893 0.488518
v 0.082293 0.589110 0.505597
v 0.094990 0.596441 0.488518
v 0.082293 0.589110 0.505597
v 0.088040 0.605498 0.488518
v 0.088040 0.605498 0.488518
v 0.077673 0.595131 0.505597
v 0.078982 0.612448 0.488518
v 0.071652 0.599751 0.505597
v 0.078982 0.612448 0.488518
v 0.077673 0.595131 0.505597
v 0.086188 0.574574 0.505597
v 0.100849 0.574574 0.488518
v 0.085197 0.567050 0.505597
v 0.100849 0.574574 0.488518
v 0.086188 0.574574 0.505597
v 0.099359 0.585893 0.488518
v 0.085197 0.567050 0.505597
v 0.099359 0.563255 0.488518
v 0.082293 0.560039 0.505597
v 0.071652 0.599751 0.505597
v 0.064640 0.602655 0.505597
v 0.078982 0.612448 0.488518
v 0.099359 0.563255 0.488518
v 0.085197 0.567050 0.505597
v 0.100849 0.574574 0.488518
v 0.094990 0.552708 0.488518
v 0.082293 0.560039 0.505597
v 0.099359 0.563255 0.488518
v 0.068435 0.616817 0.488518
v 0.078982 0.612448 0.488518
v 0.064640 0.602655 0.505597
v 0.077673 0.554018 0.505597
v 0.082293 0.560039 0.505597
v 0.088040 0.543651 0.488518
v 0.094990 0.552708 0.488518
v 0.088040 0.543651 0.488518
v 0.082293 0.560039 0.505597
v 0.064640 0.602655 0.505597
v 0.057116 0.603646 0.505597
v 0.068435 0.616817 0.488518
v 0.088040 0.543651 0.488518
v 0.078982 0.536701 0.488518
v 0.077673 0.554018 0.505597
v 0.057116 0.618307 0.488518
v 0.068435 0.616817 0.488518
v 0.057116 0.603646 0.505597
v 0.071652 0.549398 0.505597
v 0.077673 0.554018 0.505597
v 0.078982 0.536701 0.488518
v 0.057116 0.603646 0.505597
v 0.049592 0.602655 0.505597
v 0.057116 0.618307 0.488518
v 0.064640 0.546493 0.505597
v 0.071652 0.549398 0.505597
v 0.068435 0.532332 0.488518
v 0.078982 0.536701 0.488518
v 0.068435 0.532332 0.488518
v 0.071652 0.549398 0.505597
v 0.045797 0.616817 0.488518
v 0.057116 0.618307 0.488518
v 0.049592 0.602655 0.505597
v 0.057116 0.545503 0.505597
v 0.064640 0.546493 0.505597
v 0.057116 0.530842 0.488518
v 0.068435 0.532332 0.488518
v 0.057116 0.530842 0.488518
v 0.064640 0.546493 0.505597
v 0.045797 0.616817 0.488518
v 0.049592 0.602655 0.505597
v 0.035250 0.612448 0.488518
v 0.049592 0.546493 0.505597
v 0.057116 0.545503 0.505597
v 0.045797 0.532332 0.488518
v 0.042580 0.549398 0.505597
v 0.049592 0.546493 0.505597
v 0.035250 0.536701 0.488518
v 0.057116 0.530842 0.488518
v 0.045797 0.532332 0.488518
v 0.057116 0.545503 0.505597
v 0.042580 0.599751 0.505597
v 0.035250 0.612448 0.488518
v 0.049592 0.602655 0.505597
v 0.045797 0.532332 0.488518
v 0.035250 0.536701 0.488518
v 0.049592 0.546493 0.505597
v 0.042580 0.549398 0.505597
v 0.035250 0.536701 0.488518
v 0.036559 0.554018 0.505597
v 0.042580 0.599751 0.505597
v 0.036559 0.595131 0.505597
v 0.035250 0.612448 0.488518
v 0.026192 0.543651 0.488518
v 0.036559 0.554018 0.505597
v 0.035250 0.536701 0.488518
v 0.026192 0.605498 0.488518
v 0.035250 0.612448 0.488518
v 0.036559 0.595131 0.505597
v 0.036559 0.554018 0.505597
v 0.026192 0.543651 0.488518
v 0.031939 0.560039 0.505597
v 0.036559 0.595131 0.505597
v 0.031939 0.589110 0.505597
v 0.026192 0.605498 0.488518
v 0.019242 0.552708 0.488518
v 0.031939 0.560039 0.505597
v 0.026192 0.543651 0.488518
v 0.019242 0.596441 0.488518
v 0.026192 0.605498 0.488518
v 0.031939 0.589110 0.505597
v 0.019242 0.552708 0.488518
v 0.014873 0.563255 0.488518
v 0.031939 0.560039 0.505597
v 0.019242 0.596441 0.488518
v 0.031939 0.589110 0.505597
v 0.014873 0.585893 0.488518
v 0.029035 0.582099 0.505597
v 0.014873 0.585893 0.488518
v 0.031939 0.589110 0.505597
v 0.029035 0.567050 0.505597
v 0.031939 0.560039 0.505597
v 0.014873 0.563255 0.488518
v 0.014873 0.585893 0.488518
v 0.029035 0.582099 0.505597
v 0.013383 0.574574 0.488518
v 0.028044 0.574574 0.505597
v 0.013383 0.574574 0.488518
v 0.029035 0.582099 0.505597
v 0.014873 0.563255 0.488518
v 0.013383 0.574574 0.488518
v 0.029035 0.567050 0.505597
v 0.028044 0.574574 0.505597
v 0.029035 0.567050 0.505597
v 0.013383 0.574574 0.488518
v 0.099359 0.585893 0.488518
v 0.082293 0.589110 0.505597
v 0.085197 0.582099 0.505597
v 0.082293 0.589110 0.505597
v 0.088040 0.605498 0.488518
v 0.077673 0.595131 0.505597
v 0.086188 0.574574 0.505597
v 0.099359 0.585893 0.488518
v 0.085197 0.582099 0.505597
v 0.082293 0.589110 0.505597
v 0.099359 0.585893 0.488518
v 0.094990 0.596441 0.488518
v 0.088040 0.605498 0.488518
v 0.082293 0.589110 0.505597
v 0.094990 0.596441 0.488518
v 0.078982 0.612448 0.488518
v 0.077673 0.595131 0.505597
v 0.088040 0.605498 0.488518
v 0.077673 0.595131 0.505597
v 0.078982 0.612448 0.488518
v 0.071652 0.599751 0.505597
v 0.085197 0.567050 0.505597
v 0.100849 0.574574 0.488518
v 0.086188 0.574574 0.505597
v 0.099359 0.585893 0.488518
v 0.086188 0.574574 0.505597
v 0.100849 0.574574 0.488518
v 0.082293 0.560039 0.505597
v 0.099359 0.563255 0.488518
v 0.085197 0.567050 0.505597
v 0.078982 0.612448 0.488518
v 0.064640 0.602655 0.505597
v 0.071652 0.599751 0.505597
v 0.100849 0.574574 0.488518
v 0.085197 0.567050 0.505597
v 0.099359 0.563255 0.488518
v 0.099359 0.563255 0.488518
v 0.082293 0.560039 0.505597
v 0.094990 0.552708 0.488518
v 0.064640 0.602655 0.505597
v 0.078982 0.612448 0.488518
v 0.068435 0.616817 0.488518
v 0.088040 0.543651 0.488518
v 0.082293 0.560039 0.505597
v 0.077673 0.554018 0.505597
v 0.082293 0.560039 0.505597
v 0.088040 0.543651 0.488518
v 0.094990 0.552708 0.488518
v 0.068435 0.616817 0.488518
v 0.057116 0.603646 0.505597
v 0.064640 0.602655 0.505597
v 0.077673 0.554018 0.505597
v 0.078982 0.536701 0.488518
v 0.088040 0.543651 0.488518
v 0.057116 0.603646 0.505597
v 0.068435 0.616817 0.488518
v 0.057116 0.618307 0.488518
v 0.078982 0.536701 0.488518
v 0.077673 0.554018 0.505597
v 0.071652 0.549398 0.505597
v 0.057116 0.618307 0.488518
v 0.049592 0.602655 0.505597
v 0.057116 0.603646 0.505597
v 0.068435 0.532332 0.488518
v 0.071652 0.549398 0.505597
v 0.064640 0.546493 0.505597
v 0.071652 0.549398 0.505597
v 0.068435 0.532332 0.488518
v 0.078982 0.536701 0.488518
v 0.049592 0.602655 0.505597
v 0.057116 0.618307 0.488518
v 0.045797 0.616817 0.488518
v 0.057116 0.530842 0.488518
v 0.064640 0.546493 0.505597
v 0.057116 0.545503 0.505597
v 0.064640 0.546493 0.505597
v 0.057116 0.530842 0.488518
v 0.068435 0.532332 0.488518
v 0.035250 0.612448 0.488518
v 0.049592 0.602655 0.505597
v 0.045797 0.616817 0.488518
v 0.045797 0.532332 0.488518
v 0.057116 0.545503 0.505597
v 0.049592 0.546493 0.505597
v 0.035250 0.536701 0.488518
v 0.049592 0.546493 0.505597
v 0.042580 0.549398 0.505597
v 0.057116 0.545503 0.505597
v 0.045797 0.532332 0.488518
v 0.057116 0.530842 0.488518
v 0.049592 0.602655 0.505597
v 0.035250 0.612448 0.488518
v 0.042580 0.599751 0.505597
v 0.049592 0.546493 0.505597
v 0.035250 0.536701 0.488518
v 0.045797 0.532332 0.488518
v 0.036559 0.554018 0.505597
v 0.035250 0.536701 0.488518
v 0.042580 0.549398 0.505597
v 0.035250 0.612448 0.488518
v 0.036559 0.595131 0.505597
v 0.042580 0.599751 0.505597
v 0.035250 0.536701 0.488518
v 0.036559 0.554018 0.505597
v 0.026192 0.543651 0.488518
v 0.036559 0.595131 0.505597
v 0.035250 0.612448 0.488518
v 0.026192 0.605498 0.488518
v 0.031939 0.560039 0.505597
v 0.026192 0.543651 0.488518
v 0.036559 0.554018 0.505597
v 0.026192 0.605498 0.488518
v 0.031939 0.589110 0.505597
v 0.036559 0.595131 0.505597
v 0.026192 0.543651 0.488518
v 0.031939 0.560039 0.505597
v 0.019242 0.552708 0.488518
v 0.031939 0.589110 0.505597
v 0.026192 0.605498 0.488518
v 0.019242 0.596441 0.488518
v 0.031939 0.560039 0.505597
v 0.014873 0.563255 0.488518
v 0.019242 0.552708 0.488518
v 0.014873 0.585893 0.488518
v 0.031939 0.589110 0.505597
v 0.019242 0.596441 0.488518
v 0.031939 0.589110 0.505597
v 0.014873 0.585893 0.488518
v 0.029035 0.582099 0.505597
v 0.014873 0.563255 0.488518
v 0.031939 0.560039 0.505597
v 0.029035 0.567050 0.505597
v 0.013383 0.574574 0.488518
v 0.029035 0.582099 0.505597
v 0.014873 0.585893 0.488518
v 0.029035 0.582099 0.505597
v 0.013383 0.574574 0.488518
v 0.028044 0.574574 0.505597
v 0.029035 0.567050 0.505597
v 0.013383 0.574574 0.488518
v 0.014873 0.563255 0.488518
v 0.013383 0.574574 0.488518
v 0.029035 0.567050 0.505597
v 0.028044 0.574574 0.505597
vt -18.60318374633789 9.048632621765137
vt -18.614500045776367 9.090822219848633
vt -18.475563049316406 9.071464538574219
vt -19.022470474243164 8.922521591186523
vt -18.911693572998047 8.989873886108398
vt -19.003032684326172 8.883405685424805
vt -18.388317108154297 8.293235778808594
vt -18.260541915893555 8.315184593200684
vt -18.384605407714844 8.249713897705078
vt -18.49258804321289 9.134929656982422
vt -18.882450103759766 8.931031227111816
vt -19.32630729675293 7.417373180389404
vt -19.432126998901367 7.342471122741699
vt -19.368688583374023 7.467586040496826
vt -19.46030044555664 7.375850200653076
vt -18.384605407714844 6.9664387702941895
vt -18.254959106445312 6.9664387702941895
vt -18.388317108154297 6.922916889190674
vt -18.254959106445312 8.249713897705078
vt -18.60318374633789 5.578835964202881
vt -18.475563049316406 5.556004047393799
vt -18.614500045776367 5.536647796630859
vt -19.459739685058594 4.167656898498535
vt -19.496536254882812 4.19119119644165
vt -19.380859375 4.270545959472656
vt -18.260541915893555 6.900968074798584
vt -18.49258804321289 5.492539882659912
vt -19.436214447021484 4.305950164794922
vt -19.022470474243164 4.624927997589111
vt -19.003032684326172 4.66404390335083
vt -18.911693572998047 4.5575761795043945
vt -18.882450103759766 4.616418838500977
vt -18.272375106811523 -0.2223680019378662
vt -18.3151798248291 -0.21366600692272186
vt -18.235849380493164 -0.09797400236129761
vt -19.32630729675293 4.764437198638916
vt -19.368688583374023 4.7142229080200195
vt -19.432126998901367 4.839338779449463
vt -18.300241470336914 -0.08488400280475616
vt -19.46030044555664 4.805959224700928
vt -15.352994918823242 -4.119262218475342
vt -15.39579963684082 -4.127963066101074
vt -15.367934226989746 -3.9904799461364746
vt -19.496536254882812 6.670070171356201
vt -19.459739685058594 6.693604946136475
vt -19.436214447021484 6.555312156677246
vt -19.380859375 6.5907158851623535
vt -15.432326316833496 -4.00356912612915
vt -18.3151798248291 10.233573913574219
vt -18.272375106811523 10.24227523803711
vt -18.300241470336914 10.104791641235352
vt -18.235849380493164 10.117880821228027
vt -11.623895645141602 -5.537775039672852
vt -11.56357479095459 -5.652534008026123
vt -11.679250717163086 -5.573178768157959
vt -15.39579963684082 14.147871017456055
vt -15.352994918823242 14.139169692993164
vt -15.432326316833496 14.023476600646973
vt -11.600373268127441 16.537330627441406
vt -11.56357479095459 16.513795852661133
vt -11.679250717163086 16.43444061279297
vt -15.367934226989746 14.010387420654297
vt -11.600373268127441 -5.67606782913208
vt -11.623895645141602 16.399036407470703
vt -8.232794761657715 16.795063018798828
vt -8.324405670166016 16.703327178955078
vt -8.260969161987305 16.82844352722168
vt -8.232794761657715 -4.613254070281982
vt -8.260969161987305 -4.646634101867676
vt -8.324405670166016 -4.521518230438232
vt -8.366787910461426 16.753541946411133
vt -8.366787910461426 -4.571732044219971
vt -5.879042148590088 15.405479431152344
vt -5.989820957183838 15.338128089904785
vt -5.8984808921813965 15.444595336914062
vt -5.879042148590088 -1.8580290079116821
vt -5.8984808921813965 -1.8971450328826904
vt -5.989820957183838 -1.7906780242919922
vt -6.0190629959106445 15.396970748901367
vt -6.0190629959106445 -1.8495210409164429
vt -4.570321083068848 12.801752090454102
vt -4.587346076965332 12.865216255187988
vt -4.448409080505371 12.84585952758789
vt -4.570321083068848 1.8257180452346802
vt -4.448409080505371 1.7816100120544434
vt -4.587346076965332 1.7622530460357666
vt -4.459726810455322 1.739421010017395
vt -4.459726810455322 12.88804817199707
vt -3.910106897354126 5.7433319091796875
vt -3.7823328971862793 5.721383094787598
vt -3.9156899452209473 5.677861213684082
vt -3.786043882369995 5.677861213684082
vt -3.910106897354126 9.472821235656738
vt -3.9156899452209473 9.538291931152344
vt -3.7823328971862793 9.494770050048828
vt -3.786043882369995 9.538291931152344
vt 0.2517490088939667 -0.035794999450445175
vt 0.23158399760723114 -0.032986000180244446
vt 0.2332260012626648 -0.0391089990735054
vt 0.25164899230003357 -0.0748870000243187
vt 0.26490700244903564 -0.05943400040268898
vt 0.2488279938697815 -0.06920900195837021
vt 0.22400300204753876 0.008183999918401241
vt 0.2420099973678589 0.017687000334262848
vt 0.2234639972448349 0.014500999823212624
vt 0.2492779940366745 -0.026583999395370483
vt 0.2691510021686554 -0.06797400116920471
vt 0.28845301270484924 -0.07057200372219086
vt 0.279244989156723 -0.08873199671506882
vt 0.29460400342941284 -0.07785999774932861
vt 0.2751559913158417 -0.0838870033621788
vt 0.2234639972448349 0.05820300057530403
vt 0.24281999468803406 0.06452000141143799
vt 0.22400300204753876 0.06452000141143799
vt 0.24281999468803406 0.008183999918401241
vt 0.23158399760723114 0.10287699848413467
vt 0.2517490088939667 0.10568699985742569
vt 0.2332260012626648 0.10900100320577621
vt 0.32352399826049805 -0.0541130006313324
vt 0.30673399567604065 -0.06563100218772888
vt 0.3120749890804291 -0.06904599815607071
vt 0.2420099973678589 0.05501699820160866
vt 0.2492779940366745 0.09647499769926071
vt 0.3154889941215515 -0.04897399991750717
vt 0.26490700244903564 0.12416499853134155
vt 0.25164899230003357 0.13961799442768097
vt 0.2488279938697815 0.13394099473953247
vt 0.2691510021686554 0.13270600140094757
vt 0.3419800102710724 0.0073899999260902405
vt 0.33046600222587585 -0.009402000345289707
vt 0.33667901158332825 -0.010665000416338444
vt 0.279244989156723 0.1469379961490631
vt 0.28845301270484924 0.12877799570560455
vt 0.29460400342941284 0.1360660046339035
vt 0.33263400197029114 0.009290000423789024
vt 0.2751559913158417 0.1420930027961731
vt 0.33263400197029114 0.08646299690008163
vt 0.3285900056362152 0.06650800257921219
vt 0.3348029851913452 0.06777100265026093
vt 0.3154889941215515 0.1008709967136383
vt 0.3120749890804291 0.12094300240278244
vt 0.30673399567604065 0.11752700060606003
vt 0.32352399826049805 0.10600899904966354
vt 0.3232879936695099 0.0845630019903183
vt 0.33263400197029114 0.038586001843214035
vt 0.33667901158332825 0.05854099988937378
vt 0.33046600222587585 0.05727799981832504
vt 0.3419800102710724 0.04048600047826767
vt 0.2902109920978546 0.14039500057697296
vt 0.3070000112056732 0.12887699902057648
vt 0.29824501276016235 0.1455339938402176
vt 0.3232879936695099 -0.03668700158596039
vt 0.3348029851913452 -0.019895000383257866
vt 0.3285900056362152 -0.01863200031220913
vt 0.2902109920978546 -0.08849900215864182
vt 0.3070000112056732 -0.07698100060224533
vt 0.3016589879989624 -0.07356499880552292
vt 0.33263400197029114 -0.038586001843214035
vt 0.3016589879989624 0.12546099722385406
vt 0.29824501276016235 -0.09363699704408646
vt 0.26795899868011475 -0.08996199816465378
vt 0.2587510049343109 -0.10812100023031235
vt 0.2720479965209961 -0.09480699896812439
vt 0.2587510049343109 0.16632699966430664
vt 0.26795899868011475 0.14816799759864807
vt 0.2720479965209961 0.15301300585269928
vt 0.2526000142097473 -0.100832998752594
vt 0.2526000142097473 0.15903900563716888
vt 0.2403939962387085 -0.07340099662542343
vt 0.22713600099086761 -0.08885399997234344
vt 0.24321499466896057 -0.07907799631357193
vt 0.22713600099086761 0.15358500182628632
vt 0.2403939962387085 0.1381320059299469
vt 0.24321499466896057 0.14381000399589539
vt 0.22289200127124786 -0.08031299710273743
vt 0.22289200127124786 0.14504499733448029
vt 0.22413000464439392 -0.04154900088906288
vt 0.2039639949798584 -0.03874000161886215
vt 0.20643499493598938 -0.047951001673936844
vt 0.2039639949798584 0.10863199830055237
vt 0.22413000464439392 0.1114410012960434
vt 0.20643499493598938 0.11784300208091736
vt 0.22248700261116028 0.10531800240278244
vt 0.22248700261116028 -0.03542599827051163
vt 0.19526299834251404 0.05900299921631813
vt 0.2146179974079132 0.06532000005245209
vt 0.1960729956626892 0.06850600242614746
vt 0.21408000588417053 0.05900299921631813
vt 0.2146179974079132 0.00738399988040328
vt 0.19526299834251404 0.01370100025087595
vt 0.1960729956626892 0.00419900007545948
vt 0.21408000588417053 0.01370100025087595
vn -0.73370511612271 -0.19659603197010925 -0.6504051066750388
vn -0.6578220342986085 -0.379794013933032 -0.6504050108754361
vn -0.5371097313218295 -0.5371097313218294 -0.6504046994285823
vn -0.7595877809053806 0 -0.6504047994128269
vn -0.3797940139330322 -0.6578220342986084 -0.6504050108754361
vn -0.73370511612271 0.19659603197010952 -0.6504051066750388
vn -0.6578220342986085 0.37979401393303236 -0.6504050108754359
vn -0.1965960319701094 -0.7337051161227099 -0.6504051066750389
vn -0.5371097313218295 0.5371097313218296 -0.650404699428582
vn 0 -0.7595877809053805 -0.6504047994128271
vn -0.3797940139330322 0.6578220342986086 -0.6504050108754359
vn 0.1965960319701094 -0.7337051161227099 -0.6504051066750389
vn -0.1965960319701094 0.7337051161227102 -0.6504051066750387
vn 0 0.7595877809053807 -0.6504047994128267
vn 0.3797940139330322 -0.6578220342986084 -0.6504050108754361
vn 0.1965960319701094 0.7337051161227102 -0.6504051066750387
vn 0.3797940139330322 0.6578220342986086 -0.6504050108754359
vn 0.5371097313218295 0.5371097313218296 -0.650404699428582
vn 0.5371097313218295 -0.5371097313218294 -0.6504046994285823
vn 0.6578220342986085 0.37979401393303236 -0.6504050108754359
vn 0.6578220342986085 -0.379794013933032 -0.6504050108754361
vn 0.73370511612271 0.19659603197010952 -0.6504051066750388
vn 0.73370511612271 -0.19659603197010925 -0.6504051066750388
vn 0.7595877809053806 0 -0.6504047994128269
vn 0.73370511612271 0.19659603197010925 0.6504051066750388
vn 0.6578220342986085 0.379794013933032 0.6504050108754361
vn 0.5371097313218295 0.5371097313218294 0.6504046994285823
vn 0.7595877809053806 0 0.6504047994128269
vn 0.3797940139330322 0.6578220342986084 0.6504050108754361
vn 0.73370511612271 -0.19659603197010952 0.6504051066750388
vn 0.6578220342986085 -0.37979401393303236 0.6504050108754359
vn 0.1965960319701094 0.7337051161227099 0.6504051066750389
vn 0.5371097313218295 -0.5371097313218296 0.650404699428582
vn 0 0.7595877809053805 0.6504047994128271
vn 0.3797940139330322 -0.6578220342986086 0.6504050108754359
vn -0.1965960319701094 0.7337051161227099 0.6504051066750389
vn 0.1965960319701094 -0.7337051161227102 0.6504051066750387
vn 0 -0.7595877809053807 0.6504047994128267
vn -0.3797940139330322 0.6578220342986084 0.6504050108754361
vn -0.1965960319701094 -0.7337051161227102 0.6504051066750387
vn -0.3797940139330322 -0.6578220342986086 0.6504050108754359
vn -0.5371097313218295 -0.5371097313218296 0.650404699428582
vn -0.5371097313218295 0.5371097313218294 0.6504046994285823
vn -0.6578220342986085 -0.37979401393303236 0.6504050108754359
vn -0.6578220342986085 0.379794013933032 0.6504050108754361
vn -0.73370511612271 -0.19659603197010952 0.6504051066750388
vn -0.73370511612271 0.19659603197010925 0.6504051066750388
vn -0.7595877809053806 0 0.6504047994128269
usemtl material_0_0
f 1/1/1 2/2/2 3/3/1
f 4/4/3 5/5/3 6/6/2
f 7/7/1 8/8/1 9/9/4
f 10/10/2 11/3/1 12/2/2
f 13/11/2 14/6/2 15/5/3
f 16/12/3 17/13/3 18/14/5
f 19/15/5 20/14/5 21/13/3
f 22/16/4 23/17/4 24/18/6
f 25/19/4 26/9/4 27/8/1
f 28/20/6 29/21/6 30/22/7
f 31/23/5 32/24/8 33/25/5
f 34/26/6 35/18/6 36/17/4
f 37/27/7 38/22/7 39/21/6
f 40/28/8 41/25/5 42/24/8
f 43/29/9 44/30/7 45/31/9
f 46/32/7 47/31/9 48/30/7
f 49/33/8 50/34/10 51/35/8
f 52/36/9 53/37/11 54/38/9
f 55/39/10 56/35/8 57/34/10
f 58/40/11 59/38/9 60/37/11
f 61/41/10 62/42/12 63/43/10
f 64/44/13 65/45/11 66/46/13
f 67/47/11 68/46/13 69/45/11
f 70/48/12 71/43/10 72/42/12
f 73/49/14 74/50/13 75/51/14
f 76/52/13 77/51/14 78/50/13
f 79/53/12 80/54/12 81/55/15
f 82/56/16 83/57/14 84/58/16
f 85/59/17 86/60/16 87/61/17
f 88/62/14 89/58/16 90/57/14
f 91/63/15 92/55/15 93/54/12
f 94/64/16 95/61/17 96/60/16
f 97/65/17 98/66/17 99/67/18
f 100/68/15 101/69/19 102/70/15
f 103/71/18 104/67/18 105/66/17
f 106/72/19 107/70/15 108/69/19
f 109/73/18 110/74/18 111/75/20
f 112/76/19 113/77/21 114/78/19
f 115/79/20 116/75/20 117/74/18
f 118/80/21 119/78/19 120/77/21
f 121/81/20 122/82/22 123/83/20
f 124/84/21 125/85/21 126/86/23
f 127/87/23 128/86/23 129/85/21
f 130/88/22 131/83/20 132/82/22
f 133/89/23 134/90/23 135/91/24
f 136/92/24 137/91/24 138/90/23
f 139/93/22 140/94/24 141/95/22
f 142/96/24 143/95/22 144/94/24
usemtl material_1_0
f 145/97/25 146/98/26 147/99/25
f 148/100/26 149/101/27 150/102/27
f 151/103/28 152/104/25 153/105/25
f 154/98/26 155/97/25 156/106/26
f 157/101/27 158/100/26 159/107/26
f 160/108/29 161/109/27 162/110/27
f 163/109/27 164/108/29 165/111/29
f 166/112/30 167/113/28 168/114/28
f 169/104/25 170/103/28 171/115/28
f 172/116/31 173/117/30 174/118/30
f 175/119/29 176/120/32 177/121/29
f 178/113/28 179/112/30 180/122/30
f 181/117/30 182/116/31 183/123/31
f 184/120/32 185/119/29 186/124/32
f 187/125/33 188/126/31 189/127/33
f 190/126/31 191/125/33 192/128/31
f 193/129/32 194/130/34 195/131/32
f 196/132/33 197/133/35 198/134/33
f 199/130/34 200/129/32 201/135/34
f 202/133/35 203/132/33 204/136/35
f 205/137/34 206/138/36 207/139/34
f 208/140/37 209/141/35 210/142/37
f 211/141/35 212/140/37 213/143/35
f 214/138/36 215/137/34 216/144/36
f 217/145/38 218/146/37 219/147/38
f 220/146/37 221/145/38 222/148/37
f 223/149/39 224/150/36 225/151/36
f 226/152/40 227/153/38 228/154/40
f 229/155/41 230/156/40 231/157/41
f 232/153/38 233/152/40 234/158/38
f 235/150/36 236/149/39 237/159/39
f 238/156/40 239/155/41 240/160/40
f 241/161/42 242/162/41 243/163/41
f 244/164/39 245/165/43 246/166/39
f 247/162/41 248/161/42 249/167/42
f 250/165/43 251/164/39 252/168/43
f 253/169/44 254/170/42 255/171/42
f 256/172/43 257/173/45 258/174/43
f 259/170/42 260/169/44 261/175/44
f 262/173/45 263/172/43 264/176/45
f 265/177/44 266/178/46 267/179/44
f 268/180/47 269/181/45 270/182/45
f 271/181/45 272/180/47 273/183/47
f 274/178/46 275/177/44 276/184/46
f 277/185/48 278/186/47 279/187/47
f 280/186/47 281/185/48 282/188/48
f 283/189/46 284/190/48 285/191/46
f 286/190/48 287/189/46 288/192/48
