# Blender v2.93.4 OBJ File: ''
# www.blender.org
mtllib original-7-fixed.mtl
o Display_Door1/Display_Door/mesh3/mesh3-geometry#mesh3-geometry
v -0.225239 -0.055920 0.268666
v -0.211857 -0.055920 0.268666
v -0.225239 0.086811 0.268666
v -0.211857 0.086811 0.268666
v -0.252001 0.086811 0.268666
v -0.211857 -0.055920 0.273126
v -0.211857 0.086811 0.273126
v -0.252001 -0.055920 0.268666
v -0.252001 -0.055920 0.273126
v -0.252001 0.086811 0.273126
vn 0.0000 0.0000 -1.0000
vn 0.0000 0.8073 -0.5902
vn 0.0000 0.0302 -0.9995
vn 0.0000 -1.0000 0.0000
vn -0.4775 -0.0000 0.8787
vn 0.0000 0.0000 1.0000
vn -0.8702 0.0000 0.4926
vn -1.0000 0.0000 0.0000
vn 0.0000 1.0000 0.0000
vn 1.0000 0.0000 0.0000
usemtl material_0_0.001
s 1
f 1//1 5//1 3//2
f 3//2 4//3 1//1
f 6//4 1//4 2//4
f 4//5 1//6 2//7
f 4//5 2//7 7//8
f 5//1 1//1 8//1
f 5//9 7//9 3//9
f 3//2 7//9 4//3
f 6//9 1//9 9//9
f 2//10 7//10 6//10
f 8//9 9//9 1//9
f 9//8 5//8 8//8
f 7//9 5//9 10//9
f 6//1 9//1 7//1
f 10//10 9//10 5//10
f 9//6 7//6 10//6
