# SSTK version 0.8.0
# 13
mtllib original-13.mtl
o #ID91
v -0.352377 0.188382 0.282284
v 0.326700 0.188382 0.267359
v -0.352377 0.188382 0.267359
v 0.326700 0.188382 0.282284
v -0.352377 0.188382 0.282284
v -0.352377 -0.759139 0.267359
v -0.352377 -0.759139 0.282284
v -0.352377 0.188382 0.267359
v 0.326700 0.188382 0.267359
v 0.326700 -0.759139 0.282284
v 0.326700 -0.759139 0.267359
v 0.326700 0.188382 0.282284
vn 0 1 0
vn 0 -1 0
vn -1 0 0
vn 1 0 0
usemtl material_0_2
f 1//1 2//1 3//1
f 3//2 2//2 1//2
f 2//1 1//1 4//1
f 4//2 1//2 2//2
f 5//3 6//3 7//3
f 7//4 6//4 5//4
f 6//3 5//3 8//3
f 8//4 5//4 6//4
f 9//4 10//4 11//4
f 11//3 10//3 9//3
f 10//4 9//4 12//4
f 12//3 9//3 10//3
