# SSTK version 0.8.0
# 35
mtllib original-35.mtl
o TB2B1/TB2B/mesh28/mesh28-geometry#mesh28-geometry
v 0.634146 -0.133252 -0.385249
v 0.072349 -0.208158 -0.385249
v 0.634146 -0.208158 -0.385249
v 0.072349 -0.133252 -0.385249
v 0.634146 -0.208158 -0.403976
v 0.072349 -0.133252 -0.403976
v 0.072349 -0.208158 -0.403976
v 0.634146 -0.133252 -0.403976
vt -1.602825 -0.931234
vt -1.644492 -0.698897
vt -1.644492 -0.931234
vt -1.602825 -0.698897
vt -1.653097 -0.931234
vt -1.644492 -0.941651
vt -1.59422 -0.698897
vt -1.602825 -0.68848
vt -1.653097 -0.698897
vt -1.602825 -0.941651
vt -1.59422 -0.931234
vt -1.644492 -0.68848
vt -1.602825 -0.001886
vt -1.644492 0.230451
vt -1.644492 -0.001886
vt -1.602825 0.230451
vn 0 0 1
vn 0 -1 0
vn 1 0 0
vn 0 1 0
vn -1 0 0
vn 0 0 -1
usemtl material_0_0
f 1/1/1 2/2/1 3/3/1
f 2/2/1 1/1/1 4/4/1
f 2/2/2 5/5/2 3/3/2
f 5/6/3 1/1/3 3/3/3
f 1/1/4 6/7/4 4/4/4
f 6/8/5 2/2/5 4/4/5
f 5/5/2 2/2/2 7/9/2
f 1/1/3 5/6/3 8/10/3
f 6/7/4 1/1/4 8/11/4
f 2/2/5 6/8/5 7/12/5
f 6/13/6 5/14/6 7/15/6
f 5/14/6 6/13/6 8/16/6
usemtl material_1_0
f 3//6 2//6 1//6
f 4//6 1//6 2//6
f 3//4 5//4 2//4
f 3//5 1//5 5//5
f 4//2 6//2 1//2
f 4//3 2//3 6//3
f 7//4 2//4 5//4
f 8//5 5//5 1//5
f 8//2 1//2 6//2
f 7//3 6//3 2//3
f 7//1 5//1 6//1
f 8//1 6//1 5//1
