# SSTK version 0.8.0
# 39
mtllib original-39.mtl
o mesh72/mesh72-geometry#mesh72-geometry
v -0.487698 0.222592 -0.152171
v -0.487581 0.139929 -0.152171
v -0.487581 0.220714 -0.152171
v -0.487695 0.137966 -0.152171
v -0.487581 0.220714 -0.156001
v -0.487698 0.222592 -0.156001
v -0.488036 0.136032 -0.152171
v -0.487581 0.139929 -0.156001
v -0.488049 0.224437 -0.156001
v -0.488049 0.224437 -0.152171
v -0.487695 0.137966 -0.156001
v -0.488036 0.136032 -0.156001
v -0.488599 0.134155 -0.152171
v -0.488627 0.226219 -0.156001
v -0.488599 0.134155 -0.156001
v -0.488627 0.226219 -0.152171
v -0.489375 0.132364 -0.152171
v -0.489422 0.227906 -0.156001
v -0.489375 0.132364 -0.156001
v -0.489422 0.227906 -0.152171
v -0.490353 0.130684 -0.152171
v -0.490421 0.229471 -0.156001
v -0.490353 0.130684 -0.156001
v -0.490421 0.229471 -0.152171
v -0.491518 0.129142 -0.152171
v -0.491606 0.230885 -0.156001
v -0.491518 0.129142 -0.156001
v -0.491606 0.230885 -0.152171
v -0.492854 0.127758 -0.152171
v -0.492958 0.232126 -0.152171
v -0.492854 0.127758 -0.156001
v -0.492958 0.232126 -0.156001
v -0.494340 0.126555 -0.152171
v -0.494453 0.233171 -0.152171
v -0.494340 0.126555 -0.156001
v -0.494453 0.233171 -0.156001
v -0.495955 0.125549 -0.152171
v -0.495955 0.125549 -0.156001
v -0.496066 0.234004 -0.152171
v -0.496066 0.234004 -0.156001
v -0.497675 0.124755 -0.152171
v -0.497675 0.124755 -0.156001
v -0.497768 0.234608 -0.152171
v -0.497768 0.234608 -0.156001
v -0.499474 0.124186 -0.152171
v -0.499474 0.124186 -0.156001
v -0.499531 0.234975 -0.152171
v -0.499531 0.234975 -0.156001
v -0.501325 0.123849 -0.152171
v -0.501325 0.123849 -0.156001
v -0.501325 0.235098 -0.152171
v -0.501325 0.235098 -0.156001
v -0.613936 0.235098 -0.152171
v -0.612238 0.123849 -0.156001
v -0.520608 0.151971 -0.156001
v -0.612238 0.123849 -0.152171
v -0.613936 0.235098 -0.156001
v -0.557590 0.193393 -0.156001
v -0.614221 0.123988 -0.152171
v -0.614221 0.123988 -0.156001
v -0.527224 0.151971 -0.156001
v -0.615703 0.234974 -0.152171
v -0.557572 0.185961 -0.156001
v -0.594328 0.151971 -0.156001
v -0.615703 0.234974 -0.156001
v -0.616168 0.124402 -0.152171
v -0.616168 0.124402 -0.156001
v -0.587719 0.151971 -0.156001
v -0.617439 0.234603 -0.152171
v -0.617439 0.234603 -0.156001
v -0.618044 0.125084 -0.152171
v -0.618044 0.125084 -0.156001
v -0.619111 0.233991 -0.152171
v -0.619111 0.233991 -0.156001
v -0.619818 0.126021 -0.152171
v -0.619818 0.126021 -0.156001
v -0.620690 0.233151 -0.152171
v -0.620690 0.233151 -0.156001
v -0.621456 0.127197 -0.152171
v -0.621456 0.127197 -0.156001
v -0.622147 0.232097 -0.152171
v -0.622147 0.232097 -0.156001
v -0.622930 0.128591 -0.152171
v -0.622930 0.128591 -0.156001
v -0.623456 0.230848 -0.152171
v -0.623456 0.230848 -0.156001
v -0.624214 0.130178 -0.152171
v -0.624593 0.229426 -0.156001
v -0.624593 0.229426 -0.152171
v -0.624214 0.130178 -0.156001
v -0.625283 0.131930 -0.152171
v -0.625537 0.227858 -0.156001
v -0.625283 0.131930 -0.156001
v -0.625537 0.227858 -0.152171
v -0.626121 0.133816 -0.152171
v -0.626273 0.226172 -0.156001
v -0.626121 0.133816 -0.156001
v -0.626273 0.226172 -0.152171
v -0.626711 0.135801 -0.152171
v -0.626786 0.224398 -0.156001
v -0.626711 0.135801 -0.156001
v -0.626786 0.224398 -0.152171
v -0.627043 0.137851 -0.152171
v -0.627067 0.222567 -0.156001
v -0.627043 0.137851 -0.156001
v -0.627067 0.222567 -0.152171
v -0.627111 0.139929 -0.152171
v -0.627111 0.220714 -0.156001
v -0.627111 0.139929 -0.156001
v -0.627111 0.220714 -0.152171
vn 0 0 1
vn 1 0 0
vn 0.9980445710941498 0.06250627256119765 0
vn 0.992171761164969 0.12488072848443676 0
vn 0.993241440205373 -0.11606653892813525 0
vn 0.9983115620477219 -0.058086358827505874 0
vn 0.9687190147639438 0.24816017092751574 0
vn 0.9729895991875156 -0.23084895467148603 0
vn 0 0 -1
vn 0.9297496842016528 0.3681922388195149 0
vn 0.9393223459743107 -0.3430357566687723 0
vn 0.8754816328914912 0.4832513946898121 0
vn 0.8923951531328392 -0.4512547957252271 0
vn 0.806294928425397 0.5915137262950743 0
vn 0.8324746750522614 -0.5540630969453136 0
vn 0.7228007955666619 0.6910564448206824 0
vn 0.75998328047688 -0.6499426231565367 0
vn 0.6259145023657714 0.7798916820483526 0
vn 0.67555357938161 -0.7373108987290874 0
vn 0.5169226915279757 0.8560320852535104 0
vn 0.5800706585519285 -0.8145661612706068 0
vn 0.474720035092053 -0.8801368577000965 0
vn 0.3975262280000173 0.9175908118829865 0
vn 0.36100310210114694 -0.9325646145299257 0
vn 0.2698510833471376 0.962902068133814 0
vn 0.24073327190178662 -0.970591310387364 0
vn 0.13640707453210288 0.9906528705947373 0
vn 0.1788757273274504 -0.9838716756635876 0
vn 0.0684333829955523 0.9976556881468597 0
vn 0 -1 0
vn 0 1 0
vn -0.06984914986745801 -0.9975575653879797 0
vn -0.13921088336820306 -0.9902627580353836 0
vn -0.07027473806475167 0.9975276743980241 0
vn -0.14005314484205356 0.9901439878218979 0
vn -0.2752726094601382 -0.9613662103907159 0
vn -0.27689970659777857 0.9608988253120431 0
vn -0.40520999884130676 -0.9142236361192091 0
vn -0.40751355824430185 0.9131991567270897 0
vn -0.5263751836009263 -0.8502524131627569 0
vn -0.5292013756859025 0.8484962604349818 0
vn -0.6365381811760339 -0.7712451905231609 0
vn -0.6397047004210208 0.7686207753237301 0
vn -0.7339315795178045 -0.6792234069777784 0
vn -0.7372361211425308 0.6756351838697535 0
vn -0.8172358169477589 -0.5763034092366008 0
vn -0.8204643551485926 0.5716976840346688 0
vn -0.8855241481091204 -0.4645933524229727 0
vn -0.8884616525580207 0.4589508600426314 0
vn -0.9381892108971351 -0.34612281715629595 0
vn -0.9406208893770301 0.3394588965803735 0
vn -0.9748611481352845 -0.22281324434681807 0
vn -0.976576373444595 0.21517106410900785 0
vn -0.9953348004586664 -0.09648126759069153 0
vn -0.9961263431545117 0.0879335457810022 0
vn -0.999464937457066 -0.032708390268296264 0
vn -0.99971796693085 0.023748401959874404 0
vn -1 0 0
vn -0.992171761164969 -0.12488072848443676 0
vn -0.9980445710941498 -0.06250627256119765 0
vn -0.9983115620477219 0.058086358827505874 0
vn -0.993241440205373 0.11606653892813525 0
vn -0.9687190147639438 -0.24816017092751574 0
vn -0.9729895991875156 0.23084895467148603 0
vn -0.9297496842016528 -0.3681922388195149 0
vn -0.9393223459743107 0.3430357566687723 0
vn -0.8754816328914912 -0.4832513946898121 0
vn -0.8923951531328392 0.4512547957252271 0
vn -0.806294928425397 -0.5915137262950743 0
vn -0.8324746750522614 0.5540630969453136 0
vn -0.7228007955666619 -0.6910564448206824 0
vn -0.75998328047688 0.6499426231565367 0
vn -0.6259145023657714 -0.7798916820483526 0
vn -0.67555357938161 0.7373108987290874 0
vn -0.5169226915279757 -0.8560320852535104 0
vn -0.5800706585519285 0.8145661612706068 0
vn -0.474720035092053 0.8801368577000965 0
vn -0.3975262280000173 -0.9175908118829865 0
vn -0.36100310210114694 0.9325646145299257 0
vn -0.2698510833471376 -0.962902068133814 0
vn -0.24073327190178662 0.970591310387364 0
vn -0.13640707453210288 -0.9906528705947373 0
vn -0.1788757273274504 0.9838716756635876 0
vn -0.0684333829955523 -0.9976556881468597 0
vn 0.06984914986745801 0.9975575653879797 0
vn 0.13921088336820306 0.9902627580353836 0
vn 0.07027473806475167 -0.9975276743980241 0
vn 0.14005314484205356 -0.9901439878218979 0
vn 0.2752726094601382 0.9613662103907159 0
vn 0.27689970659777857 -0.9608988253120431 0
vn 0.40520999884130676 0.9142236361192091 0
vn 0.40751355824430185 -0.9131991567270897 0
vn 0.5263751836009263 0.8502524131627569 0
vn 0.5292013756859025 -0.8484962604349818 0
vn 0.6365381811760339 0.7712451905231609 0
vn 0.6397047004210208 -0.7686207753237301 0
vn 0.7339315795178045 0.6792234069777784 0
vn 0.7372361211425308 -0.6756351838697535 0
vn 0.8172358169477589 0.5763034092366008 0
vn 0.8204643551485926 -0.5716976840346688 0
vn 0.8855241481091204 0.4645933524229727 0
vn 0.8884616525580207 -0.4589508600426314 0
vn 0.9381892108971351 0.34612281715629595 0
vn 0.9406208893770301 -0.3394588965803735 0
vn 0.9748611481352845 0.22281324434681807 0
vn 0.976576373444595 -0.21517106410900785 0
vn 0.9953348004586664 0.09648126759069153 0
vn 0.9961263431545117 -0.0879335457810022 0
vn 0.999464937457066 0.032708390268296264 0
vn 0.99971796693085 -0.023748401959874404 0
usemtl material_0_0
f 1//1 2//1 3//1
f 2//1 1//1 4//1
f 2//2 5//2 3//2
f 3//3 6//4 1//4
f 4//1 1//1 7//1
f 4//5 8//6 2//6
f 5//2 2//2 8//2
f 6//4 3//3 5//3
f 9//7 1//4 6//4
f 7//1 1//1 10//1
f 7//8 11//5 4//5
f 8//6 4//5 11//5
f 11//9 5//9 8//9
f 5//9 11//9 6//9
f 1//4 9//7 10//7
f 6//9 12//9 9//9
f 7//1 10//1 13//1
f 11//5 7//8 12//8
f 6//9 11//9 12//9
f 14//10 10//7 9//7
f 9//9 12//9 15//9
f 13//1 10//1 16//1
f 13//11 12//8 7//8
f 10//7 14//10 16//10
f 9//9 15//9 14//9
f 12//8 13//11 15//11
f 13//1 16//1 17//1
f 18//12 16//10 14//10
f 14//9 15//9 19//9
f 17//13 15//11 13//11
f 17//1 16//1 20//1
f 16//10 18//12 20//12
f 14//9 19//9 18//9
f 15//11 17//13 19//13
f 17//1 20//1 21//1
f 22//14 20//12 18//12
f 18//9 19//9 23//9
f 21//15 19//13 17//13
f 21//1 20//1 24//1
f 20//12 22//14 24//14
f 18//9 23//9 22//9
f 19//13 21//15 23//15
f 21//1 24//1 25//1
f 26//16 24//14 22//14
f 22//9 23//9 27//9
f 25//17 23//15 21//15
f 25//1 24//1 28//1
f 24//14 26//16 28//16
f 22//9 27//9 26//9
f 23//15 25//17 27//17
f 25//1 28//1 29//1
f 26//16 30//18 28//16
f 26//9 27//9 31//9
f 29//19 27//17 25//17
f 29//1 28//1 30//1
f 30//18 26//16 32//18
f 27//17 29//19 31//19
f 26//9 31//9 32//9
f 29//1 30//1 33//1
f 32//18 34//20 30//18
f 29//19 35//21 31//19
f 32//9 31//9 35//9
f 33//1 30//1 34//1
f 35//21 29//19 33//21
f 34//20 32//18 36//20
f 32//9 35//9 36//9
f 33//1 34//1 37//1
f 33//21 38//22 35//21
f 36//20 39//23 34//20
f 36//9 35//9 38//9
f 37//1 34//1 39//1
f 38//22 33//21 37//22
f 39//23 36//20 40//23
f 36//9 38//9 40//9
f 37//1 39//1 41//1
f 37//22 42//24 38//22
f 40//23 43//25 39//23
f 40//9 38//9 42//9
f 41//1 39//1 43//1
f 42//24 37//22 41//24
f 43//25 40//23 44//25
f 40//9 42//9 44//9
f 41//1 43//1 45//1
f 41//24 46//26 42//24
f 44//25 47//27 43//25
f 44//9 42//9 46//9
f 45//1 43//1 47//1
f 46//26 41//24 45//26
f 47//27 44//25 48//27
f 44//9 46//9 48//9
f 45//1 47//1 49//1
f 45//26 50//28 46//26
f 48//27 51//29 47//27
f 48//9 46//9 50//9
f 49//1 47//1 51//1
f 50//28 45//26 49//28
f 51//29 48//27 52//29
f 48//9 50//9 52//9
f 49//1 51//1 53//1
f 49//30 54//30 50//30
f 52//31 53//31 51//31
f 52//9 50//9 55//9
f 49//1 53//1 56//1
f 54//30 49//30 56//30
f 55//9 50//9 54//9
f 53//31 52//31 57//31
f 58//9 52//9 55//9
f 56//1 53//1 59//1
f 56//32 60//33 54//32
f 55//9 54//9 61//9
f 52//9 58//9 57//9
f 57//34 62//35 53//34
f 59//1 53//1 62//1
f 60//33 56//32 59//33
f 57//9 54//9 60//9
f 61//9 54//9 63//9
f 57//9 58//9 64//9
f 62//35 57//34 65//35
f 59//1 62//1 66//1
f 59//33 67//36 60//33
f 57//9 64//9 54//9
f 57//9 60//9 65//9
f 63//9 54//9 68//9
f 65//35 69//37 62//35
f 66//1 62//1 69//1
f 67//36 59//33 66//36
f 65//9 60//9 67//9
f 68//9 54//9 64//9
f 69//37 65//35 70//37
f 66//1 69//1 71//1
f 66//36 72//38 67//36
f 65//9 67//9 70//9
f 70//37 73//39 69//37
f 71//1 69//1 73//1
f 72//38 66//36 71//38
f 70//9 67//9 72//9
f 73//39 70//37 74//39
f 71//1 73//1 75//1
f 71//38 76//40 72//38
f 70//9 72//9 74//9
f 74//39 77//41 73//39
f 75//1 73//1 77//1
f 76//40 71//38 75//40
f 74//9 72//9 76//9
f 77//41 74//39 78//41
f 75//1 77//1 79//1
f 75//40 80//42 76//40
f 74//9 76//9 78//9
f 78//41 81//43 77//41
f 79//1 77//1 81//1
f 80//42 75//40 79//42
f 78//9 76//9 80//9
f 81//43 78//41 82//43
f 79//1 81//1 83//1
f 79//42 84//44 80//42
f 78//9 80//9 82//9
f 82//43 85//45 81//43
f 83//1 81//1 85//1
f 84//44 79//42 83//44
f 82//9 80//9 84//9
f 85//45 82//43 86//45
f 83//1 85//1 87//1
f 87//46 84//44 83//44
f 82//9 84//9 86//9
f 88//47 85//45 86//45
f 87//1 85//1 89//1
f 84//44 87//46 90//46
f 86//9 84//9 90//9
f 85//45 88//47 89//47
f 86//9 90//9 88//9
f 87//1 89//1 91//1
f 91//48 90//46 87//46
f 92//49 89//47 88//47
f 88//9 90//9 93//9
f 91//1 89//1 94//1
f 90//46 91//48 93//48
f 89//47 92//49 94//49
f 88//9 93//9 92//9
f 91//1 94//1 95//1
f 95//50 93//48 91//48
f 96//51 94//49 92//49
f 92//9 93//9 97//9
f 95//1 94//1 98//1
f 93//48 95//50 97//50
f 94//49 96//51 98//51
f 92//9 97//9 96//9
f 95//1 98//1 99//1
f 99//52 97//50 95//50
f 100//53 98//51 96//51
f 96//9 97//9 101//9
f 99//1 98//1 102//1
f 97//50 99//52 101//52
f 98//51 100//53 102//53
f 96//9 101//9 100//9
f 99//1 102//1 103//1
f 103//54 101//52 99//52
f 104//55 102//53 100//53
f 100//9 101//9 105//9
f 103//1 102//1 106//1
f 101//52 103//54 105//54
f 102//53 104//55 106//55
f 100//9 105//9 104//9
f 103//1 106//1 107//1
f 107//56 105//54 103//54
f 108//57 106//55 104//55
f 104//9 105//9 109//9
f 107//1 106//1 110//1
f 105//54 107//56 109//56
f 106//55 108//57 110//57
f 104//9 109//9 108//9
f 110//58 109//58 107//58
f 109//58 110//58 108//58
usemtl material_1_0
f 3//9 2//9 1//9
f 4//9 1//9 2//9
f 3//58 5//58 2//58
f 1//59 6//59 3//60
f 7//9 1//9 4//9
f 2//61 8//61 4//62
f 8//58 2//58 5//58
f 5//60 3//60 6//59
f 6//59 1//59 9//63
f 10//9 1//9 7//9
f 4//62 11//62 7//64
f 11//62 4//62 8//61
f 8//1 5//1 11//1
f 6//1 11//1 5//1
f 10//63 9//63 1//59
f 9//1 12//1 6//1
f 13//9 10//9 7//9
f 12//64 7//64 11//62
f 12//1 11//1 6//1
f 9//63 10//63 14//65
f 15//1 12//1 9//1
f 16//9 10//9 13//9
f 7//64 12//64 13//66
f 16//65 14//65 10//63
f 14//1 15//1 9//1
f 15//66 13//66 12//64
f 17//9 16//9 13//9
f 14//65 16//65 18//67
f 19//1 15//1 14//1
f 13//66 15//66 17//68
f 20//9 16//9 17//9
f 20//67 18//67 16//65
f 18//1 19//1 14//1
f 19//68 17//68 15//66
f 21//9 20//9 17//9
f 18//67 20//67 22//69
f 23//1 19//1 18//1
f 17//68 19//68 21//70
f 24//9 20//9 21//9
f 24//69 22//69 20//67
f 22//1 23//1 18//1
f 23//70 21//70 19//68
f 25//9 24//9 21//9
f 22//69 24//69 26//71
f 27//1 23//1 22//1
f 21//70 23//70 25//72
f 28//9 24//9 25//9
f 28//71 26//71 24//69
f 26//1 27//1 22//1
f 27//72 25//72 23//70
f 29//9 28//9 25//9
f 28//71 30//73 26//71
f 31//1 27//1 26//1
f 25//72 27//72 29//74
f 30//9 28//9 29//9
f 32//73 26//71 30//73
f 31//74 29//74 27//72
f 32//1 31//1 26//1
f 33//9 30//9 29//9
f 30//73 34//75 32//73
f 31//74 35//76 29//74
f 35//1 31//1 32//1
f 34//9 30//9 33//9
f 33//76 29//74 35//76
f 36//75 32//73 34//75
f 36//1 35//1 32//1
f 37//9 34//9 33//9
f 35//76 38//77 33//76
f 34//75 39//78 36//75
f 38//1 35//1 36//1
f 39//9 34//9 37//9
f 37//77 33//76 38//77
f 40//78 36//75 39//78
f 40//1 38//1 36//1
f 41//9 39//9 37//9
f 38//77 42//79 37//77
f 39//78 43//80 40//78
f 42//1 38//1 40//1
f 43//9 39//9 41//9
f 41//79 37//77 42//79
f 44//80 40//78 43//80
f 44//1 42//1 40//1
f 45//9 43//9 41//9
f 42//79 46//81 41//79
f 43//80 47//82 44//80
f 46//1 42//1 44//1
f 47//9 43//9 45//9
f 45//81 41//79 46//81
f 48//82 44//80 47//82
f 48//1 46//1 44//1
f 49//9 47//9 45//9
f 46//81 50//83 45//81
f 47//82 51//84 48//82
f 50//1 46//1 48//1
f 51//9 47//9 49//9
f 49//83 45//81 50//83
f 52//84 48//82 51//84
f 52//1 50//1 48//1
f 53//9 51//9 49//9
f 50//31 54//31 49//31
f 51//30 53//30 52//30
f 55//1 50//1 52//1
f 56//9 53//9 49//9
f 56//31 49//31 54//31
f 54//1 50//1 55//1
f 57//30 52//30 53//30
f 55//1 52//1 58//1
f 59//9 53//9 56//9
f 54//85 60//86 56//85
f 61//1 54//1 55//1
f 57//1 58//1 52//1
f 53//87 62//88 57//87
f 62//9 53//9 59//9
f 59//86 56//85 60//86
f 60//1 54//1 57//1
f 63//1 54//1 61//1
f 64//1 58//1 57//1
f 65//88 57//87 62//88
f 66//9 62//9 59//9
f 60//86 67//89 59//86
f 54//1 64//1 57//1
f 65//1 60//1 57//1
f 68//1 54//1 63//1
f 62//88 69//90 65//88
f 69//9 62//9 66//9
f 66//89 59//86 67//89
f 67//1 60//1 65//1
f 64//1 54//1 68//1
f 70//90 65//88 69//90
f 71//9 69//9 66//9
f 67//89 72//91 66//89
f 70//1 67//1 65//1
f 69//90 73//92 70//90
f 73//9 69//9 71//9
f 71//91 66//89 72//91
f 72//1 67//1 70//1
f 74//92 70//90 73//92
f 75//9 73//9 71//9
f 72//91 76//93 71//91
f 74//1 72//1 70//1
f 73//92 77//94 74//92
f 77//9 73//9 75//9
f 75//93 71//91 76//93
f 76//1 72//1 74//1
f 78//94 74//92 77//94
f 79//9 77//9 75//9
f 76//93 80//95 75//93
f 78//1 76//1 74//1
f 77//94 81//96 78//94
f 81//9 77//9 79//9
f 79//95 75//93 80//95
f 80//1 76//1 78//1
f 82//96 78//94 81//96
f 83//9 81//9 79//9
f 80//95 84//97 79//95
f 82//1 80//1 78//1
f 81//96 85//98 82//96
f 85//9 81//9 83//9
f 83//97 79//95 84//97
f 84//1 80//1 82//1
f 86//98 82//96 85//98
f 87//9 85//9 83//9
f 83//97 84//97 87//99
f 86//1 84//1 82//1
f 86//98 85//98 88//100
f 89//9 85//9 87//9
f 90//99 87//99 84//97
f 90//1 84//1 86//1
f 89//100 88//100 85//98
f 88//1 90//1 86//1
f 91//9 89//9 87//9
f 87//99 90//99 91//101
f 88//100 89//100 92//102
f 93//1 90//1 88//1
f 94//9 89//9 91//9
f 93//101 91//101 90//99
f 94//102 92//102 89//100
f 92//1 93//1 88//1
f 95//9 94//9 91//9
f 91//101 93//101 95//103
f 92//102 94//102 96//104
f 97//1 93//1 92//1
f 98//9 94//9 95//9
f 97//103 95//103 93//101
f 98//104 96//104 94//102
f 96//1 97//1 92//1
f 99//9 98//9 95//9
f 95//103 97//103 99//105
f 96//104 98//104 100//106
f 101//1 97//1 96//1
f 102//9 98//9 99//9
f 101//105 99//105 97//103
f 102//106 100//106 98//104
f 100//1 101//1 96//1
f 103//9 102//9 99//9
f 99//105 101//105 103//107
f 100//106 102//106 104//108
f 105//1 101//1 100//1
f 106//9 102//9 103//9
f 105//107 103//107 101//105
f 106//108 104//108 102//106
f 104//1 105//1 100//1
f 107//9 106//9 103//9
f 103//107 105//107 107//109
f 104//108 106//108 108//110
f 109//1 105//1 104//1
f 110//9 106//9 107//9
f 109//109 107//109 105//107
f 110//110 108//110 106//108
f 108//1 109//1 104//1
f 107//2 109//2 110//2
f 108//2 110//2 109//2
