# SSTK version 0.8.0
# 15
mtllib original-15.mtl
o #ID39
v 0.014072 0.036014 0.218191
v 0.006269 0.036014 0.217978
v 0.010184 0.036014 0.217571
v 0.002591 0.036014 0.219384
v 0.017667 0.036014 0.219797
v -0.000596 0.036014 0.221695
v 0.020724 0.036014 0.222278
v -0.003078 0.036014 0.224751
v 0.023034 0.036014 0.225466
v -0.004683 0.036014 0.228346
v 0.024441 0.036014 0.229143
v -0.005304 0.036014 0.232234
v 0.024848 0.036014 0.233059
v -0.004897 0.036014 0.23615
v 0.024227 0.036014 0.236947
v -0.00349 0.036014 0.239827
v 0.022622 0.036014 0.240541
v -0.00118 0.036014 0.243015
v 0.020141 0.036014 0.243598
v 0.001877 0.036014 0.245496
v 0.016953 0.036014 0.245908
v 0.005472 0.036014 0.247102
v 0.013276 0.036014 0.247315
v 0.00936 0.036014 0.247722
v 0.00936 0.036014 0.247722
v 0.013276 0.036014 0.247315
v 0.005472 0.036014 0.247102
v 0.016953 0.036014 0.245908
v 0.001877 0.036014 0.245496
v 0.020141 0.036014 0.243598
v -0.00118 0.036014 0.243015
v 0.022622 0.036014 0.240541
v -0.00349 0.036014 0.239827
v 0.024227 0.036014 0.236947
v -0.004897 0.036014 0.23615
v 0.024848 0.036014 0.233059
v -0.005304 0.036014 0.232234
v 0.024441 0.036014 0.229143
v -0.004683 0.036014 0.228346
v 0.023034 0.036014 0.225466
v -0.003078 0.036014 0.224751
v 0.020724 0.036014 0.222278
v -0.000596 0.036014 0.221695
v 0.017667 0.036014 0.219797
v 0.002591 0.036014 0.219384
v 0.014072 0.036014 0.218191
v 0.006269 0.036014 0.217978
v 0.010184 0.036014 0.217571
v 0.014072 -0.049421 0.218191
v 0.017667 0.036014 0.219797
v 0.014072 0.036014 0.218191
v 0.017667 -0.049421 0.219797
v 0.017667 -0.049421 0.219797
v 0.014072 -0.049421 0.218191
v 0.017667 0.036014 0.219797
v 0.014072 0.036014 0.218191
v 0.020724 -0.049421 0.222278
v 0.020724 0.036014 0.222278
v 0.020724 0.036014 0.222278
v 0.020724 -0.049421 0.222278
v 0.023034 0.036014 0.225466
v 0.023034 -0.049421 0.225466
v 0.023034 0.036014 0.225466
v 0.023034 -0.049421 0.225466
v 0.024441 0.036014 0.229143
v 0.024441 -0.049421 0.229143
v 0.024441 0.036014 0.229143
v 0.024441 -0.049421 0.229143
v 0.024848 0.036014 0.233059
v 0.024848 -0.049421 0.233059
v 0.024848 0.036014 0.233059
v 0.024848 -0.049421 0.233059
v 0.024227 0.036014 0.236947
v 0.024227 -0.049421 0.236947
v 0.024227 0.036014 0.236947
v 0.024227 -0.049421 0.236947
v 0.022622 0.036014 0.240541
v 0.022622 -0.049421 0.240541
v 0.022622 0.036014 0.240541
v 0.022622 -0.049421 0.240541
v 0.020141 0.036014 0.243598
v 0.020141 -0.049421 0.243598
v 0.020141 0.036014 0.243598
v 0.020141 -0.049421 0.243598
v 0.016953 0.036014 0.245908
v 0.016953 -0.049421 0.245908
v 0.016953 0.036014 0.245908
v 0.016953 -0.049421 0.245908
v 0.013276 -0.049421 0.247315
v 0.013276 0.036014 0.247315
v 0.013276 -0.049421 0.247315
v 0.013276 0.036014 0.247315
v 0.00936 -0.049421 0.247722
v 0.00936 0.036014 0.247722
v 0.00936 -0.049421 0.247722
v 0.00936 0.036014 0.247722
v 0.005472 0.036014 0.247102
v 0.005472 -0.049421 0.247102
v 0.005472 0.036014 0.247102
v 0.005472 -0.049421 0.247102
v 0.001877 -0.049421 0.245496
v 0.001877 0.036014 0.245496
v 0.001877 -0.049421 0.245496
v 0.001877 0.036014 0.245496
v -0.00118 0.036014 0.243015
v -0.00118 -0.049421 0.243015
v -0.00118 0.036014 0.243015
v -0.00118 -0.049421 0.243015
v -0.00349 0.036014 0.239827
v -0.00349 -0.049421 0.239827
v -0.00349 0.036014 0.239827
v -0.00349 -0.049421 0.239827
v -0.004897 0.036014 0.23615
v -0.004897 -0.049421 0.23615
v -0.004897 0.036014 0.23615
v -0.004897 -0.049421 0.23615
v -0.005304 0.036014 0.232234
v -0.005304 -0.049421 0.232234
v -0.005304 0.036014 0.232234
v -0.005304 -0.049421 0.232234
v -0.004683 0.036014 0.228346
v -0.004683 -0.049421 0.228346
v -0.004683 0.036014 0.228346
v -0.004683 -0.049421 0.228346
v -0.003078 0.036014 0.224751
v -0.003078 -0.049421 0.224751
v -0.003078 0.036014 0.224751
v -0.003078 -0.049421 0.224751
v -0.000596 0.036014 0.221695
v -0.000596 -0.049421 0.221695
v -0.000596 0.036014 0.221695
v -0.000596 -0.049421 0.221695
v 0.002591 -0.049421 0.219384
v 0.002591 0.036014 0.219384
v 0.002591 0.036014 0.219384
v 0.002591 -0.049421 0.219384
v 0.006269 -0.049421 0.217978
v 0.006269 0.036014 0.217978
v 0.006269 0.036014 0.217978
v 0.006269 -0.049421 0.217978
v 0.010184 -0.049421 0.217571
v 0.010184 0.036014 0.217571
v 0.010184 0.036014 0.217571
v 0.010184 -0.049421 0.217571
v 0.017667 -0.050407 0.219797
v 0.014072 -0.049421 0.218191
v 0.014072 -0.050407 0.218191
v 0.017667 -0.049421 0.219797
v 0.017667 -0.049421 0.219797
v 0.017667 -0.050407 0.219797
v 0.014072 -0.049421 0.218191
v 0.014072 -0.050407 0.218191
v 0.014072 -0.049421 0.218191
v 0.006269 -0.049421 0.217978
v 0.010184 -0.049421 0.217571
v 0.002591 -0.049421 0.219384
v 0.017667 -0.049421 0.219797
v -0.000596 -0.049421 0.221695
v 0.020724 -0.049421 0.222278
v -0.003078 -0.049421 0.224751
v 0.023034 -0.049421 0.225466
v -0.004683 -0.049421 0.228346
v 0.024441 -0.049421 0.229143
v -0.005304 -0.049421 0.232234
v 0.024848 -0.049421 0.233059
v -0.004897 -0.049421 0.23615
v 0.024227 -0.049421 0.236947
v -0.00349 -0.049421 0.239827
v 0.022622 -0.049421 0.240541
v -0.00118 -0.049421 0.243015
v 0.020141 -0.049421 0.243598
v 0.001877 -0.049421 0.245496
v 0.016953 -0.049421 0.245908
v 0.005472 -0.049421 0.247102
v 0.013276 -0.049421 0.247315
v 0.00936 -0.049421 0.247722
v 0.00936 -0.049421 0.247722
v 0.013276 -0.049421 0.247315
v 0.005472 -0.049421 0.247102
v 0.016953 -0.049421 0.245908
v 0.001877 -0.049421 0.245496
v 0.020141 -0.049421 0.243598
v -0.00118 -0.049421 0.243015
v 0.022622 -0.049421 0.240541
v -0.00349 -0.049421 0.239827
v 0.024227 -0.049421 0.236947
v -0.004897 -0.049421 0.23615
v 0.024848 -0.049421 0.233059
v -0.005304 -0.049421 0.232234
v 0.024441 -0.049421 0.229143
v -0.004683 -0.049421 0.228346
v 0.023034 -0.049421 0.225466
v -0.003078 -0.049421 0.224751
v 0.020724 -0.049421 0.222278
v -0.000596 -0.049421 0.221695
v 0.017667 -0.049421 0.219797
v 0.002591 -0.049421 0.219384
v 0.014072 -0.049421 0.218191
v 0.006269 -0.049421 0.217978
v 0.010184 -0.049421 0.217571
v 0.020724 -0.049421 0.222278
v 0.020724 -0.050407 0.222278
v 0.020724 -0.050407 0.222278
v 0.020724 -0.049421 0.222278
v 0.023034 -0.049421 0.225466
v 0.023034 -0.050407 0.225466
v 0.023034 -0.049421 0.225466
v 0.023034 -0.050407 0.225466
v 0.024441 -0.049421 0.229143
v 0.024441 -0.050407 0.229143
v 0.024441 -0.049421 0.229143
v 0.024441 -0.050407 0.229143
v 0.024848 -0.049421 0.233059
v 0.024848 -0.050407 0.233059
v 0.024848 -0.049421 0.233059
v 0.024848 -0.050407 0.233059
v 0.024227 -0.049421 0.236947
v 0.024227 -0.050407 0.236947
v 0.024227 -0.049421 0.236947
v 0.024227 -0.050407 0.236947
v 0.022622 -0.049421 0.240541
v 0.022622 -0.050407 0.240541
v 0.022622 -0.049421 0.240541
v 0.022622 -0.050407 0.240541
v 0.020141 -0.049421 0.243598
v 0.020141 -0.050407 0.243598
v 0.020141 -0.049421 0.243598
v 0.020141 -0.050407 0.243598
v 0.016953 -0.050407 0.245908
v 0.016953 -0.050407 0.245908
v 0.013276 -0.049421 0.247315
v 0.013276 -0.050407 0.247315
v 0.013276 -0.049421 0.247315
v 0.013276 -0.050407 0.247315
v 0.00936 -0.050407 0.247722
v 0.00936 -0.049421 0.247722
v 0.00936 -0.050407 0.247722
v 0.00936 -0.049421 0.247722
v 0.005472 -0.049421 0.247102
v 0.005472 -0.050407 0.247102
v 0.005472 -0.049421 0.247102
v 0.005472 -0.050407 0.247102
v 0.001877 -0.049421 0.245496
v 0.001877 -0.050407 0.245496
v 0.001877 -0.049421 0.245496
v 0.001877 -0.050407 0.245496
v -0.00118 -0.050407 0.243015
v -0.00118 -0.049421 0.243015
v -0.00118 -0.050407 0.243015
v -0.00118 -0.049421 0.243015
v -0.00349 -0.049421 0.239827
v -0.00349 -0.050407 0.239827
v -0.00349 -0.049421 0.239827
v -0.00349 -0.050407 0.239827
v -0.004897 -0.049421 0.23615
v -0.004897 -0.050407 0.23615
v -0.004897 -0.049421 0.23615
v -0.004897 -0.050407 0.23615
v -0.005304 -0.049421 0.232234
v -0.005304 -0.050407 0.232234
v -0.005304 -0.049421 0.232234
v -0.005304 -0.050407 0.232234
v -0.004683 -0.049421 0.228346
v -0.004683 -0.050407 0.228346
v -0.004683 -0.049421 0.228346
v -0.004683 -0.050407 0.228346
v -0.003078 -0.049421 0.224751
v -0.003078 -0.050407 0.224751
v -0.003078 -0.049421 0.224751
v -0.003078 -0.050407 0.224751
v -0.000596 -0.049421 0.221695
v -0.000596 -0.050407 0.221695
v -0.000596 -0.049421 0.221695
v -0.000596 -0.050407 0.221695
v 0.002591 -0.049421 0.219384
v 0.002591 -0.050407 0.219384
v 0.002591 -0.050407 0.219384
v 0.002591 -0.049421 0.219384
v 0.006269 -0.050407 0.217978
v 0.006269 -0.049421 0.217978
v 0.006269 -0.049421 0.217978
v 0.006269 -0.050407 0.217978
v 0.010184 -0.050407 0.217571
v 0.010184 -0.049421 0.217571
v 0.010184 -0.049421 0.217571
v 0.010184 -0.050407 0.217571
vn 0.0 -1.0 0.0
vn 0.0 1.0 0.0
vn -0.2851349908494821 0.0 0.9584873692403388
vn -0.5234940997923558 0.0 0.8520292996620427
vn 0.5234940997923558 0.0 -0.8520292996620427
vn 0.2851349908494821 0.0 -0.9584873692403388
vn -0.7261778709543308 0.0 0.6875068725010939
vn 0.7261778709543308 0.0 -0.6875068725010939
vn -0.8793738169057682 0.0 0.47613200915353326
vn 0.8793738169057682 0.0 -0.47613200915353326
vn -0.9726419148688452 0.0 0.23230950355133193
vn 0.9726419148688452 0.0 -0.23230950355133193
vn -0.9996260684507368 0.0 -0.027344529136977345
vn 0.9996260684507368 0.0 0.027344529136977345
vn -0.9584873692403388 0.0 -0.2851349908494821
vn 0.9584873692403388 0.0 0.2851349908494821
vn -0.8520292996620427 0.0 -0.5234940997923558
vn 0.8520292996620427 0.0 0.5234940997923558
vn -0.6875068725010939 0.0 -0.7261778709543308
vn 0.6875068725010939 0.0 0.7261778709543308
vn -0.47613200915353326 0.0 -0.8793738169057682
vn 0.47613200915353326 0.0 0.8793738169057682
vn -0.23230950355133193 0.0 -0.9726419148688452
vn 0.23230950355133193 0.0 0.9726419148688452
vn 0.027344529136977345 0.0 -0.9996260684507368
vn -0.027344529136977345 0.0 0.9996260684507368
usemtl material_0_0
f 1//1 2//1 3//1
f 2//1 1//1 4//1
f 4//1 1//1 5//1
f 4//1 5//1 6//1
f 6//1 5//1 7//1
f 6//1 7//1 8//1
f 8//1 7//1 9//1
f 8//1 9//1 10//1
f 10//1 9//1 11//1
f 10//1 11//1 12//1
f 12//1 11//1 13//1
f 12//1 13//1 14//1
f 14//1 13//1 15//1
f 14//1 15//1 16//1
f 16//1 15//1 17//1
f 16//1 17//1 18//1
f 18//1 17//1 19//1
f 18//1 19//1 20//1
f 20//1 19//1 21//1
f 20//1 21//1 22//1
f 22//1 21//1 23//1
f 22//1 23//1 24//1
f 25//2 26//2 27//2
f 26//2 28//2 27//2
f 27//2 28//2 29//2
f 28//2 30//2 29//2
f 29//2 30//2 31//2
f 30//2 32//2 31//2
f 31//2 32//2 33//2
f 32//2 34//2 33//2
f 33//2 34//2 35//2
f 34//2 36//2 35//2
f 35//2 36//2 37//2
f 36//2 38//2 37//2
f 37//2 38//2 39//2
f 38//2 40//2 39//2
f 39//2 40//2 41//2
f 40//2 42//2 41//2
f 41//2 42//2 43//2
f 42//2 44//2 43//2
f 43//2 44//2 45//2
f 44//2 46//2 45//2
f 45//2 46//2 47//2
f 48//2 47//2 46//2
f 49//3 50//4 51//3
f 50//4 49//3 52//4
f 53//5 54//6 55//5
f 56//6 55//5 54//6
f 57//7 50//4 52//4
f 50//4 57//7 58//7
f 59//8 60//8 55//5
f 53//5 55//5 60//8
f 61//9 57//7 62//9
f 57//7 61//9 58//7
f 59//8 63//10 60//8
f 64//10 60//8 63//10
f 65//11 62//9 66//11
f 62//9 65//11 61//9
f 63//10 67//12 64//10
f 68//12 64//10 67//12
f 69//13 66//11 70//13
f 66//11 69//13 65//11
f 67//12 71//14 68//12
f 72//14 68//12 71//14
f 73//15 70//13 74//15
f 70//13 73//15 69//13
f 71//14 75//16 72//14
f 76//16 72//14 75//16
f 77//17 74//15 78//17
f 74//15 77//17 73//15
f 75//16 79//18 76//16
f 80//18 76//16 79//18
f 81//19 78//17 82//19
f 78//17 81//19 77//17
f 79//18 83//20 80//18
f 84//20 80//18 83//20
f 85//21 82//19 86//21
f 82//19 85//21 81//19
f 83//20 87//22 84//20
f 88//22 84//20 87//22
f 85//21 89//23 90//23
f 89//23 85//21 86//21
f 88//22 87//22 91//24
f 92//24 91//24 87//22
f 90//23 93//25 94//25
f 93//25 90//23 89//23
f 91//24 92//24 95//26
f 96//26 95//26 92//24
f 97//6 93//25 98//6
f 93//25 97//6 94//25
f 96//26 99//3 95//26
f 100//3 95//26 99//3
f 97//6 101//5 102//5
f 101//5 97//6 98//6
f 100//3 99//3 103//4
f 104//4 103//4 99//3
f 105//8 101//5 106//8
f 101//5 105//8 102//5
f 104//4 107//7 103//4
f 108//7 103//4 107//7
f 109//10 106//8 110//10
f 106//8 109//10 105//8
f 107//7 111//9 108//7
f 112//9 108//7 111//9
f 113//12 110//10 114//12
f 110//10 113//12 109//10
f 111//9 115//11 112//9
f 116//11 112//9 115//11
f 117//14 114//12 118//14
f 114//12 117//14 113//12
f 115//11 119//13 116//11
f 120//13 116//11 119//13
f 121//16 118//14 122//16
f 118//14 121//16 117//14
f 119//13 123//15 120//13
f 124//15 120//13 123//15
f 125//18 122//16 126//18
f 122//16 125//18 121//16
f 123//15 127//17 124//15
f 128//17 124//15 127//17
f 129//20 126//18 130//20
f 126//18 129//20 125//18
f 127//17 131//19 128//17
f 132//19 128//17 131//19
f 133//22 129//20 130//20
f 129//20 133//22 134//22
f 135//21 136//21 131//19
f 132//19 131//19 136//21
f 137//24 134//22 133//22
f 134//22 137//24 138//24
f 139//23 140//23 135//21
f 136//21 135//21 140//23
f 141//26 138//24 137//24
f 138//24 141//26 142//26
f 143//25 144//25 139//23
f 140//23 139//23 144//25
f 141//26 51//3 142//26
f 51//3 141//26 49//3
f 54//6 144//25 56//6
f 143//25 56//6 144//25
f 145//4 146//3 147//3
f 146//3 145//4 148//4
f 149//5 150//5 151//6
f 152//6 151//6 150//5
f 153//1 154//1 155//1
f 154//1 153//1 156//1
f 156//1 153//1 157//1
f 156//1 157//1 158//1
f 158//1 157//1 159//1
f 158//1 159//1 160//1
f 160//1 159//1 161//1
f 160//1 161//1 162//1
f 162//1 161//1 163//1
f 162//1 163//1 164//1
f 164//1 163//1 165//1
f 164//1 165//1 166//1
f 166//1 165//1 167//1
f 166//1 167//1 168//1
f 168//1 167//1 169//1
f 168//1 169//1 170//1
f 170//1 169//1 171//1
f 170//1 171//1 172//1
f 172//1 171//1 173//1
f 172//1 173//1 174//1
f 174//1 173//1 175//1
f 174//1 175//1 176//1
f 177//2 178//2 179//2
f 178//2 180//2 179//2
f 179//2 180//2 181//2
f 180//2 182//2 181//2
f 181//2 182//2 183//2
f 182//2 184//2 183//2
f 183//2 184//2 185//2
f 184//2 186//2 185//2
f 185//2 186//2 187//2
f 186//2 188//2 187//2
f 187//2 188//2 189//2
f 188//2 190//2 189//2
f 189//2 190//2 191//2
f 190//2 192//2 191//2
f 191//2 192//2 193//2
f 192//2 194//2 193//2
f 193//2 194//2 195//2
f 194//2 196//2 195//2
f 195//2 196//2 197//2
f 196//2 198//2 197//2
f 197//2 198//2 199//2
f 200//2 199//2 198//2
f 145//4 201//7 148//4
f 201//7 145//4 202//7
f 203//8 150//5 204//8
f 149//5 204//8 150//5
f 205//9 202//7 206//9
f 202//7 205//9 201//7
f 204//8 207//10 203//8
f 208//10 203//8 207//10
f 209//11 206//9 210//11
f 206//9 209//11 205//9
f 207//10 211//12 208//10
f 212//12 208//10 211//12
f 213//13 210//11 214//13
f 210//11 213//13 209//11
f 211//12 215//14 212//12
f 216//14 212//12 215//14
f 217//15 214//13 218//15
f 214//13 217//15 213//13
f 215//14 219//16 216//14
f 220//16 216//14 219//16
f 221//17 218//15 222//17
f 218//15 221//17 217//15
f 219//16 223//18 220//16
f 224//18 220//16 223//18
f 225//19 222//17 226//19
f 222//17 225//19 221//17
f 223//18 227//20 224//18
f 228//20 224//18 227//20
f 225//19 229//21 86//21
f 229//21 225//19 226//19
f 228//20 227//20 230//22
f 88//22 230//22 227//20
f 231//23 229//21 232//23
f 229//21 231//23 86//21
f 88//22 233//24 230//22
f 234//24 230//22 233//24
f 231//23 235//25 236//25
f 235//25 231//23 232//23
f 234//24 233//24 237//26
f 238//26 237//26 233//24
f 239//6 235//25 240//6
f 235//25 239//6 236//25
f 238//26 241//3 237//26
f 242//3 237//26 241//3
f 243//5 240//6 244//5
f 240//6 243//5 239//6
f 241//3 245//4 242//3
f 246//4 242//3 245//4
f 243//5 247//8 248//8
f 247//8 243//5 244//5
f 246//4 245//4 249//7
f 250//7 249//7 245//4
f 251//10 247//8 252//10
f 247//8 251//10 248//8
f 250//7 253//9 249//7
f 254//9 249//7 253//9
f 255//12 252//10 256//12
f 252//10 255//12 251//10
f 253//9 257//11 254//9
f 258//11 254//9 257//11
f 259//14 256//12 260//14
f 256//12 259//14 255//12
f 257//11 261//13 258//11
f 262//13 258//11 261//13
f 263//16 260//14 264//16
f 260//14 263//16 259//14
f 261//13 265//15 262//13
f 266//15 262//13 265//15
f 267//18 264//16 268//18
f 264//16 267//18 263//16
f 265//15 269//17 266//15
f 270//17 266//15 269//17
f 271//20 268//18 272//20
f 268//18 271//20 267//18
f 269//17 273//19 270//17
f 274//19 270//17 273//19
f 272//20 275//22 271//20
f 275//22 272//20 276//22
f 277//21 274//19 278//21
f 273//19 278//21 274//19
f 279//24 275//22 276//22
f 275//22 279//24 280//24
f 281//23 282//23 278//21
f 277//21 278//21 282//23
f 283//26 280//24 279//24
f 280//24 283//26 284//26
f 285//25 286//25 281//23
f 282//23 281//23 286//25
f 147//3 284//26 283//26
f 284//26 147//3 146//3
f 151//6 152//6 285//25
f 286//25 285//25 152//6
