# SSTK version 0.8.0
# 11
mtllib original-11.mtl
o #ID13
v 0.016105 0.051658 0.236832
v 0.022457 0.057552 0.233164
v 0.016105 0.057552 0.236832
v 0.022457 0.051658 0.233164
v 0.022457 0.051658 0.233164
v 0.016105 0.051658 0.236832
v 0.022457 0.057552 0.233164
v 0.016105 0.057552 0.236832
v 0.016105 0.057552 0.236832
v 0.016105 0.051658 0.244157
v 0.016105 0.051658 0.236832
v 0.016105 0.057552 0.244157
v 0.016105 0.057552 0.244157
v 0.016105 0.057552 0.236832
v 0.016105 0.051658 0.244157
v 0.016105 0.051658 0.236832
v 0.016105 0.051658 0.244157
v 0.009761 0.051658 0.240495
v 0.016105 0.051658 0.236832
v 0.016105 0.051658 0.229498
v 0.009753 0.051658 0.225832
v 0.016105 0.051658 0.222164
v 0.003409 0.051658 0.229496
v -0.002943 0.051658 0.233164
v 0.022457 0.051658 0.233164
v 0.003409 0.051658 0.23683
v 0.003409 0.051658 0.244163
v 0.003409 0.051658 0.222171
v 0.009753 0.051658 0.225832
v 0.003409 0.051658 0.222171
v 0.003409 0.051658 0.229496
v 0.003409 0.051658 0.244163
v 0.009761 0.051658 0.240495
v 0.003409 0.051658 0.23683
v 0.016105 0.051658 0.236832
v -0.002943 0.051658 0.233164
v 0.022457 0.051658 0.233164
v 0.016105 0.051658 0.229498
v 0.016105 0.051658 0.222164
v 0.016105 0.051658 0.244157
v 0.022457 0.057552 0.233164
v 0.016105 0.051658 0.229498
v 0.016105 0.057552 0.229498
v 0.022457 0.051658 0.233164
v 0.022457 0.051658 0.233164
v 0.022457 0.057552 0.233164
v 0.016105 0.051658 0.229498
v 0.016105 0.057552 0.229498
v 0.009761 0.051658 0.240495
v 0.016105 0.057552 0.244157
v 0.009761 0.057552 0.240495
v 0.016105 0.051658 0.244157
v 0.016105 0.051658 0.244157
v 0.009761 0.051658 0.240495
v 0.016105 0.057552 0.244157
v 0.009761 0.057552 0.240495
v 0.009761 0.051658 0.240495
v 0.003409 0.057552 0.244163
v 0.003409 0.051658 0.244163
v 0.009761 0.057552 0.240495
v 0.009761 0.057552 0.240495
v 0.009761 0.051658 0.240495
v 0.003409 0.057552 0.244163
v 0.003409 0.051658 0.244163
v 0.003409 0.057552 0.244163
v 0.003409 0.051658 0.23683
v 0.003409 0.051658 0.244163
v 0.003409 0.057552 0.23683
v 0.003409 0.057552 0.23683
v 0.003409 0.057552 0.244163
v 0.003409 0.051658 0.23683
v 0.003409 0.051658 0.244163
v 0.003409 0.051658 0.23683
v -0.002943 0.057552 0.233164
v -0.002943 0.051658 0.233164
v 0.003409 0.057552 0.23683
v 0.003409 0.057552 0.23683
v 0.003409 0.051658 0.23683
v -0.002943 0.057552 0.233164
v -0.002943 0.051658 0.233164
v 0.003409 0.057552 0.229496
v -0.002943 0.051658 0.233164
v -0.002943 0.057552 0.233164
v 0.003409 0.051658 0.229496
v 0.003409 0.051658 0.229496
v 0.003409 0.057552 0.229496
v -0.002943 0.051658 0.233164
v -0.002943 0.057552 0.233164
v 0.003409 0.057552 0.229496
v 0.003409 0.051658 0.222171
v 0.003409 0.051658 0.229496
v 0.003409 0.057552 0.222171
v 0.003409 0.057552 0.222171
v 0.003409 0.057552 0.229496
v 0.003409 0.051658 0.222171
v 0.003409 0.051658 0.229496
v 0.009753 0.057552 0.225832
v 0.003409 0.051658 0.222171
v 0.003409 0.057552 0.222171
v 0.009753 0.051658 0.225832
v 0.009753 0.051658 0.225832
v 0.009753 0.057552 0.225832
v 0.003409 0.051658 0.222171
v 0.003409 0.057552 0.222171
v 0.016105 0.057552 0.222164
v 0.009753 0.051658 0.225832
v 0.009753 0.057552 0.225832
v 0.016105 0.051658 0.222164
v 0.016105 0.051658 0.222164
v 0.016105 0.057552 0.222164
v 0.009753 0.051658 0.225832
v 0.009753 0.057552 0.225832
v 0.016105 0.057552 0.222164
v 0.016105 0.051658 0.229498
v 0.016105 0.051658 0.222164
v 0.016105 0.057552 0.229498
v 0.016105 0.057552 0.229498
v 0.016105 0.057552 0.222164
v 0.016105 0.051658 0.229498
v 0.016105 0.051658 0.222164
vn 0.5000762022622449 0.0 0.8659814039175266
vn -0.5000762022622449 0.0 -0.8659814039175266
vn 1.0 0.0 0.0
vn -1.0 0.0 0.0
vn 0.0 -1.0 0.0
vn 0.0 1.0 0.0
vn 0.49984751376684766 0.0 -0.8661134238545787
vn -0.49984751376684766 0.0 0.8661134238545787
usemtl material_0_0
f 1//1 2//1 3//1
f 2//1 1//1 4//1
f 5//2 6//2 7//2
f 8//2 7//2 6//2
f 9//3 10//3 11//3
f 10//3 9//3 12//3
f 13//4 14//4 15//4
f 16//4 15//4 14//4
f 17//5 18//5 19//5
f 20//5 21//5 22//5
f 21//5 20//5 23//5
f 23//5 20//5 24//5
f 24//5 20//5 25//5
f 24//5 25//5 19//5
f 24//5 19//5 26//5
f 26//5 19//5 18//5
f 26//5 18//5 27//5
f 23//5 28//5 21//5
f 29//6 30//6 31//6
f 32//6 33//6 34//6
f 33//6 35//6 34//6
f 34//6 35//6 36//6
f 35//6 37//6 36//6
f 37//6 38//6 36//6
f 36//6 38//6 31//6
f 31//6 38//6 29//6
f 39//6 29//6 38//6
f 35//6 33//6 40//6
f 41//7 42//7 43//7
f 42//7 41//7 44//7
f 45//8 46//8 47//8
f 48//8 47//8 46//8
f 49//8 50//8 51//8
f 50//8 49//8 52//8
f 53//7 54//7 55//7
f 56//7 55//7 54//7
f 57//1 58//1 59//1
f 58//1 57//1 60//1
f 61//2 62//2 63//2
f 64//2 63//2 62//2
f 65//4 66//4 67//4
f 66//4 65//4 68//4
f 69//3 70//3 71//3
f 72//3 71//3 70//3
f 73//8 74//8 75//8
f 74//8 73//8 76//8
f 77//7 78//7 79//7
f 80//7 79//7 78//7
f 81//2 82//2 83//2
f 82//2 81//2 84//2
f 85//1 86//1 87//1
f 88//1 87//1 86//1
f 89//4 90//4 91//4
f 90//4 89//4 92//4
f 93//3 94//3 95//3
f 96//3 95//3 94//3
f 97//7 98//7 99//7
f 98//7 97//7 100//7
f 101//8 102//8 103//8
f 104//8 103//8 102//8
f 105//2 106//2 107//2
f 106//2 105//2 108//2
f 109//1 110//1 111//1
f 112//1 111//1 110//1
f 113//3 114//3 115//3
f 114//3 113//3 116//3
f 117//4 118//4 119//4
f 120//4 119//4 118//4
