# SSTK version 0.8.0
# 127
mtllib original-127.mtl
o #ID132
v 0.033648 -0.004471 0.092438
v 0.033539 -0.006231 0.092961
v 0.033648 -0.006231 0.092438
v 0.033539 -0.004471 0.092961
v 0.033539 -0.004471 0.092961
v 0.033648 -0.004471 0.092438
v 0.033539 -0.006231 0.092961
v 0.033648 -0.006231 0.092438
v 0.033435 -0.004471 0.092031
v 0.033648 -0.006231 0.092438
v 0.033435 -0.006231 0.092031
v 0.033648 -0.004471 0.092438
v 0.033648 -0.004471 0.092438
v 0.033435 -0.004471 0.092031
v 0.033648 -0.006231 0.092438
v 0.033435 -0.006231 0.092031
v 0.033190 -0.006231 0.093362
v 0.033190 -0.004471 0.093362
v 0.033190 -0.004471 0.093362
v 0.033190 -0.006231 0.093362
v 0.033183 -0.006231 0.091943
v 0.033435 -0.004471 0.092031
v 0.033435 -0.006231 0.092031
v 0.033183 -0.004471 0.091943
v 0.033183 -0.004471 0.091943
v 0.033183 -0.006231 0.091943
v 0.033435 -0.004471 0.092031
v 0.033435 -0.006231 0.092031
v 0.032763 -0.004471 0.093194
v 0.033190 -0.006231 0.093362
v 0.033190 -0.004471 0.093362
v 0.032763 -0.006231 0.093194
v 0.032763 -0.006231 0.093194
v 0.032763 -0.004471 0.093194
v 0.033190 -0.006231 0.093362
v 0.033190 -0.004471 0.093362
v 0.032815 -0.006231 0.091992
v 0.032815 -0.004471 0.091992
v 0.032815 -0.004471 0.091992
v 0.032815 -0.006231 0.091992
v 0.032763 -0.004471 0.093194
v 0.032614 -0.006231 0.092793
v 0.032763 -0.006231 0.093194
v 0.032614 -0.004471 0.092793
v 0.032614 -0.004471 0.092793
v 0.032763 -0.004471 0.093194
v 0.032614 -0.006231 0.092793
v 0.032763 -0.006231 0.093194
v 0.032660 -0.004471 0.092328
v 0.032815 -0.006231 0.091992
v 0.032660 -0.006231 0.092328
v 0.032815 -0.004471 0.091992
v 0.032815 -0.004471 0.091992
v 0.032660 -0.004471 0.092328
v 0.032815 -0.006231 0.091992
v 0.032660 -0.006231 0.092328
vn 0.9786777939248137 0 0.20540149872496094
vn 0.8952930281810092 0 0.44547771402223757
vn -0.8952930281810092 0 -0.44547771402223757
vn -0.9786777939248137 0 -0.20540149872496094
vn 0.885831525493678 0 -0.46400701335383204
vn -0.885831525493678 0 0.46400701335383204
vn 0.7540816198508029 0 0.6567807172894077
vn -0.7540816198508029 0 -0.6567807172894077
vn 0.10103579905948401 0 -0.9948827907388947
vn 0.32711058792543735 0 -0.9449860651179331
vn -0.10103579905948401 0 0.9948827907388947
vn -0.32711058792543735 0 0.9449860651179331
vn -0.36652450002001036 0 0.9304084000507956
vn 0.36652450002001036 0 -0.9304084000507956
vn -0.13045449963741867 0 -0.9914542972443816
vn 0.13045449963741867 0 0.9914542972443816
vn -0.9375662236694784 0 0.34780680878061254
vn -0.991670876600708 0 0.12879779696090976
vn 0.991670876600708 0 -0.12879779696090976
vn 0.9375662236694784 0 -0.34780680878061254
vn -0.9651807957559408 0 -0.26158369884977334
vn -0.9079593786467932 0 -0.41905819014467344
vn 0.9079593786467932 0 0.41905819014467344
vn 0.9651807957559408 0 0.26158369884977334
usemtl material_0_0
f 1//1 2//2 3//1
f 2//2 1//1 4//2
f 5//3 6//4 7//3
f 8//4 7//3 6//4
f 9//5 10//5 11//5
f 10//5 9//5 12//5
f 13//6 14//6 15//6
f 16//6 15//6 14//6
f 4//2 17//7 2//2
f 17//7 4//2 18//7
f 19//8 5//3 20//8
f 7//3 20//8 5//3
f 21//9 22//10 23//10
f 22//10 21//9 24//9
f 25//11 26//11 27//12
f 28//12 27//12 26//11
f 29//13 30//13 31//13
f 30//13 29//13 32//13
f 33//14 34//14 35//14
f 36//14 35//14 34//14
f 37//15 24//9 21//9
f 24//9 37//15 38//15
f 39//16 40//16 25//11
f 26//11 25//11 40//16
f 41//17 42//18 43//17
f 42//18 41//17 44//18
f 45//19 46//20 47//19
f 48//20 47//19 46//20
f 49//21 50//22 51//21
f 50//22 49//21 52//22
f 53//23 54//24 55//23
f 56//24 55//23 54//24
f 44//18 51//21 42//18
f 51//21 44//18 49//21
f 54//24 45//19 56//24
f 47//19 56//24 45//19
