# SSTK version 0.8.0
# 3
mtllib original-3.mtl
o #ID13
v 0.106984 0.019603 0.857264
v 0.095132 0.012080 0.860019
v 0.106984 -0.035922 0.857264
v 0.068508 0.019603 0.866209
v 0.076171 0.012080 0.864427
v 0.076171 -0.004471 0.864427
v 0.068508 -0.004471 0.866209
v -0.105302 -0.016508 0.906616
v -0.083401 -0.021022 0.901524
v -0.083401 -0.016508 0.901524
v -0.105302 -0.035922 0.906616
v 0.095132 -0.021022 0.860019
v 0.068508 0.019603 0.866209
v 0.068508 -0.004471 -0.575408
v 0.068508 -0.004471 0.866209
v 0.068508 0.019603 -0.575408
v 0.068508 0.019603 0.669108
v 0.068508 0.019603 -0.568303
v 0.068508 -0.004471 -0.575408
v 0.076171 -0.004471 0.864427
v 0.068508 -0.004471 0.866209
v 0.076171 -0.004471 -0.575408
v 0.076171 0.012080 -0.575408
v 0.095132 0.012080 0.860019
v 0.076171 0.012080 0.864427
v 0.095132 0.012080 -0.575408
v 0.095132 0.012080 0.860019
v 0.095132 -0.021022 -0.575408
v 0.095132 -0.021022 0.860019
v 0.095132 0.012080 -0.575408
v 0.095132 -0.021022 0.860019
v -0.084069 -0.021022 0.896433
v -0.083401 -0.021022 0.901524
v -0.084069 -0.021022 -0.575408
v 0.095132 -0.021022 -0.575408
v -0.083401 0.010667 0.901524
v -0.105302 -0.016508 0.906616
v -0.083401 -0.016508 0.901524
v -0.105302 0.010667 0.906616
v -0.105302 -0.016508 0.906616
v -0.128650 -0.035922 0.669108
v -0.105302 -0.035922 0.906616
v -0.128650 0.019603 0.669108
v -0.105302 0.010667 0.906616
v -0.105302 0.019603 0.906616
v -0.128650 -0.035922 0.669108
v 0.106984 -0.035922 0.857264
v -0.105302 -0.035922 0.906616
v 0.125110 -0.035922 0.669108
v 0.125110 -0.035922 0.669108
v 0.106984 0.019603 0.857264
v 0.106984 -0.035922 0.857264
v 0.125110 0.019603 0.669108
v 0.106984 0.019603 0.857264
v 0.068508 0.019603 0.669108
v 0.068508 0.019603 0.866209
v 0.125110 0.019603 0.669108
v -0.061500 0.019603 0.896433
v -0.065195 0.010667 0.897292
v -0.061500 -0.004471 0.896433
v -0.105302 0.019603 0.906616
v -0.083401 0.010667 0.901524
v -0.105302 0.010667 0.906616
v -0.065195 -0.004471 0.897292
v -0.061500 0.019603 0.896433
v -0.128650 0.019603 0.669108
v -0.105302 0.019603 0.906616
v -0.061500 0.019603 0.669108
v -0.084069 0.010667 0.896433
v -0.065195 0.010667 0.897292
v -0.083401 0.010667 0.901524
v -0.065297 0.010667 -0.575408
v -0.084069 0.010667 -0.575408
v -0.065195 0.010667 0.897292
v -0.065297 -0.004471 -0.575408
v -0.065195 -0.004471 0.897292
v -0.065297 0.010667 -0.575408
v -0.065297 -0.004471 -0.575408
v -0.061500 -0.004471 0.896433
v -0.065195 -0.004471 0.897292
v -0.061500 -0.004471 -0.575408
v -0.061500 0.019603 -0.575408
v -0.061500 -0.004471 0.896433
v -0.061500 -0.004471 -0.575408
v -0.061500 0.019603 0.896433
v -0.061500 0.019603 0.669108
v -0.061500 0.019603 -0.568303
vn 0.22643879886887028 0 0.974025395134451
vn -1 0 0
vn 0 -1 0
vn 0 1 0
vn -0.9952029134111823 0 0.0978323113183713
vn 0.9953917981224356 0 0.09589143981912412
vn -0.9999999976135825 0 0.00006908570983513266
vn 1 0 0
usemtl material_0_0
f 1//1 2//1 3//1
f 2//1 1//1 4//1
f 2//1 4//1 5//1
f 5//1 4//1 6//1
f 6//1 4//1 7//1
f 8//1 9//1 10//1
f 9//1 8//1 11//1
f 3//1 12//1 11//1
f 12//1 3//1 2//1
f 11//1 12//1 9//1
f 13//2 14//2 15//2
f 14//2 13//2 16//2
f 16//2 13//2 17//2
f 16//2 17//2 18//2
f 19//3 20//3 21//3
f 20//3 19//3 22//3
f 23//3 24//3 25//3
f 24//3 23//3 26//3
f 27//2 28//2 29//2
f 28//2 27//2 30//2
f 31//4 32//4 33//4
f 32//4 31//4 34//4
f 34//4 31//4 35//4
f 36//1 37//1 38//1
f 37//1 36//1 39//1
f 40//5 41//5 42//5
f 41//5 40//5 43//5
f 43//5 40//5 44//5
f 43//5 44//5 45//5
f 46//3 47//3 48//3
f 47//3 46//3 49//3
f 50//6 51//6 52//6
f 51//6 50//6 53//6
f 54//4 55//4 56//4
f 55//4 54//4 57//4
f 58//1 59//1 60//1
f 59//1 58//1 61//1
f 59//1 61//1 62//1
f 62//1 61//1 63//1
f 64//1 60//1 59//1
f 65//4 66//4 67//4
f 66//4 65//4 68//4
f 69//3 70//3 71//3
f 70//3 69//3 72//3
f 72//3 69//3 73//3
f 74//7 75//7 76//7
f 75//7 74//7 77//7
f 78//3 79//3 80//3
f 79//3 78//3 81//3
f 82//8 83//8 84//8
f 83//8 82//8 85//8
f 85//8 82//8 86//8
f 86//8 82//8 87//8
