# SSTK version 0.8.0
# 14
mtllib original-14.mtl
o mesh13/mesh13-geometry#mesh13-geometry
v 0.464367 -0.660367 -0.518147
v -0.435546 -0.660367 0.413066
v -0.435546 -0.660367 -0.518147
v 0.464367 -0.660367 0.413066
v -0.435546 0.607335 -0.518147
v 0.464367 0.482130 0.413066
v 0.459672 -0.060947 0.413066
v -0.435546 0.482130 0.413066
v 0.464367 0.607335 -0.518147
v -0.430850 -0.060947 0.413066
v -0.435546 0.482130 0.420892
v 0.464367 0.607335 0.420892
v 0.459672 0.477435 0.413066
v -0.430850 -0.060947 0.373940
v -0.435546 0.607335 0.420892
v -0.430850 0.477435 0.413066
v 0.464367 0.482130 0.420892
v 0.459672 0.477435 0.373940
v 0.459672 -0.060947 0.373940
v 0.428370 -0.029646 0.373940
v -0.430850 0.477435 0.373940
v -0.399549 -0.029646 0.373940
v -0.032541 0.461784 0.373940
v 0.428370 0.446134 0.373940
v -0.394854 -0.029646 0.369244
v -0.399549 0.446134 0.373940
v 0.061363 0.461784 0.373940
v 0.061363 0.446134 0.373940
v 0.428370 0.446134 -0.502497
v -0.399549 -0.029646 -0.502497
v 0.423675 -0.029646 0.369244
v -0.032541 0.446134 0.373940
v 0.061363 0.461784 0.350464
v 0.428370 -0.029646 -0.502497
v -0.394854 -0.029646 -0.497802
v 0.423675 -0.029646 -0.497802
v 0.423675 -0.217454 0.369244
v -0.399549 0.446134 -0.502497
v -0.032541 0.446134 0.350464
v -0.032541 0.461784 0.350464
v 0.061363 0.446134 0.350464
v -0.394854 -0.217454 -0.497802
v -0.394854 -0.217454 0.369244
v 0.423675 -0.217454 -0.497802
vt -0.419218 0
vt 0 -0.4338
vt 0 0
vt -0.419218 -0.4338
vt 0.4338 0.014582
vt 0 0.605133
vt 0 0.014582
vt -0.419218 0.014582
vt -0.4338 0.546807
vt -0.4338 0.014582
vt 0.419218 0.014582
vt 0.417031 0.293817
vt 0.4338 0.546807
vt -0.419218 0.605133
vt 0.419218 0.546807
vt 0.002187 0.293817
vt 0.437445 0.546807
vt 0 0.546807
vt 0.419218 -0.437445
vt 0.419218 0
vt -0.437445 0.605133
vt 0.417031 0.544619
vt 0.417031 -0.4338
vt 0.002187 -0.415573
vt 0.002187 -0.4338
vt 0.437445 0.605133
vt 0 -0.437445
vt 0.002187 0.544619
vt -0.437445 0.546807
vt 0.415573 0.544619
vt 0.4338 0.293817
vt 0.4338 0.544619
vt 0.417031 -0.415573
vt -0.415573 0.293817
vt -0.4338 0.544619
vt -0.4338 0.293817
vt -0.419218 -0.437445
vt -0.002187 -0.4338
vt -0.417031 -0.415573
vt -0.417031 -0.4338
vt 0.415573 0.293817
vt 0.40245 0.308399
vt -0.415573 0.544619
vt -0.002187 -0.415573
vt 0.016769 0.308399
vt 0.187737 0.537329
vt 0.40245 0.530038
vt 0.018956 -0.413386
vt 0.016769 -0.415573
vt 0.40245 -0.415573
vt 0.016769 0.530038
vt 0.231481 0.537329
vt 0.231481 0.530038
vt 0.007291 0.530038
vt 0.415573 0.308399
vt 0.415573 0.530038
vt 0.016769 -0.007291
vt 0.400262 -0.413386
vt -0.007291 0.308399
vt -0.415573 0.530038
vt -0.415573 0.308399
vt 0.187737 0.530038
vt -0.187737 -0.415573
vt -0.231481 -0.404637
vt -0.231481 -0.415573
vt -0.40245 -0.007291
vt -0.40245 -0.415573
vt 0.007291 0.308399
vt 0.018956 -0.009478
vt 0.400262 -0.009478
vt -0.400262 0.22091
vt -0.018956 0.308399
vt -0.400262 0.308399
vt -0.007291 0.530038
vt -0.016769 -0.415573
vt -0.187737 -0.404637
vt -0.404637 0.530038
vt -0.415573 0.537329
vt 0.404637 0.537329
vt 0.415573 0.537329
vt 0.40245 -0.007291
vt -0.413386 0.308399
vt -0.009478 0.22091
vt -0.009478 0.308399
vt 0.009478 0.308399
vt 0.413386 0.22091
vt 0.413386 0.308399
vt -0.018956 0.22091
vt -0.016769 -0.007291
vt -0.404637 0.537329
vt 0.404637 0.530038
vt -0.413386 0.22091
vt 0.018956 0.22091
vt 0.400262 0.308399
vt 0.018956 0.308399
vt 0.009478 0.22091
vt 0.400262 0.22091
vn 0 -1 0
vn 0 1 0
vn -1 0 0
vn 1 0 0
vn 0 0 -1
vn 0 0 1
usemtl material_0_0
f 1/1/1 2/2/1 3/3/1
f 2/2/1 1/1/1 4/4/1
f 3/3/2 2/2/2 1/1/2
f 4/4/2 1/1/2 2/2/2
f 2/5/3 5/6/3 3/7/3
f 3/7/4 5/6/4 2/5/4
f 5/6/5 1/8/5 3/7/5
f 3/7/6 1/8/6 5/6/6
f 1/7/4 6/9/4 4/10/4
f 4/10/3 6/9/3 1/7/3
f 4/11/6 7/12/6 2/7/6
f 2/7/5 7/12/5 4/11/5
f 8/13/3 5/6/3 2/5/3
f 2/5/4 5/6/4 8/13/4
f 1/8/5 5/6/5 9/14/5
f 9/14/6 5/6/6 1/8/6
f 9/6/4 6/9/4 1/7/4
f 1/7/3 6/9/3 9/6/3
f 7/12/6 4/11/6 6/15/6
f 6/15/5 4/11/5 7/12/5
f 10/16/6 2/7/6 7/12/6
f 7/12/5 2/7/5 10/16/5
f 11/17/3 5/6/3 8/13/3
f 8/13/4 5/6/4 11/17/4
f 2/7/6 10/16/6 8/18/6
f 8/18/5 10/16/5 2/7/5
f 5/3/2 12/19/2 9/20/2
f 9/20/1 12/19/1 5/3/1
f 12/21/4 6/9/4 9/6/4
f 9/6/3 6/9/3 12/21/3
f 7/12/6 6/15/6 13/22/6
f 13/22/5 6/15/5 7/12/5
f 7/23/2 14/24/2 10/25/2
f 10/25/1 14/24/1 7/23/1
f 5/6/3 11/17/3 15/26/3
f 15/26/4 11/17/4 5/6/4
f 6/4/1 11/27/1 8/2/1
f 8/2/2 11/27/2 6/4/2
f 8/18/6 10/16/6 16/28/6
f 16/28/5 10/16/5 8/18/5
f 12/19/2 5/3/2 15/27/2
f 15/27/1 5/3/1 12/19/1
f 6/9/4 12/21/4 17/29/4
f 17/29/3 12/21/3 6/9/3
f 13/22/6 6/15/6 16/28/6
f 16/28/5 6/15/5 13/22/5
f 18/30/3 7/31/3 13/32/3
f 13/32/4 7/31/4 18/30/4
f 14/24/2 7/23/2 19/33/2
f 19/33/1 7/23/1 14/24/1
f 14/34/4 16/35/4 10/36/4
f 10/36/3 16/35/3 14/34/3
f 11/27/1 6/4/1 17/37/1
f 17/37/2 6/4/2 11/27/2
f 8/18/6 16/28/6 6/15/6
f 6/15/5 16/28/5 8/18/5
f 16/38/1 18/39/1 13/40/1
f 13/40/2 18/39/2 16/38/2
f 7/31/3 18/30/3 19/41/3
f 19/41/4 18/30/4 7/31/4
f 19/12/6 20/42/6 14/16/6
f 14/16/5 20/42/5 19/12/5
f 16/35/4 14/34/4 21/43/4
f 21/43/3 14/34/3 16/35/3
f 18/39/1 16/38/1 21/44/1
f 21/44/2 16/38/2 18/39/2
f 20/42/6 19/12/6 18/22/6
f 18/22/5 19/12/5 20/42/5
f 22/45/6 14/16/6 20/42/6
f 20/42/5 14/16/5 22/45/5
f 14/16/6 22/45/6 21/28/6
f 21/28/5 22/45/5 14/16/5
f 21/28/6 23/46/6 18/22/6
f 18/22/5 23/46/5 21/28/5
f 20/42/6 18/22/6 24/47/6
f 24/47/5 18/22/5 20/42/5
f 25/48/2 22/49/2 20/50/2
f 20/50/1 22/49/1 25/48/1
f 21/28/6 22/45/6 26/51/6
f 26/51/5 22/45/5 21/28/5
f 21/28/6 26/51/6 23/46/6
f 23/46/5 26/51/5 21/28/5
f 27/52/6 18/22/6 23/46/6
f 23/46/5 18/22/5 27/52/5
f 24/47/6 18/22/6 28/53/6
f 28/53/5 18/22/5 24/47/5
f 29/54/3 20/55/3 24/56/3
f 24/56/4 20/55/4 29/54/4
f 22/49/2 25/48/2 30/57/2
f 30/57/1 25/48/1 22/49/1
f 25/48/2 20/50/2 31/58/2
f 31/58/1 20/50/1 25/48/1
f 30/59/4 26/60/4 22/61/4
f 22/61/3 26/60/3 30/59/3
f 23/46/6 26/51/6 32/62/6
f 32/62/5 26/51/5 23/46/5
f 28/53/6 18/22/6 27/52/6
f 27/52/5 18/22/5 28/53/5
f 23/63/1 33/64/1 27/65/1
f 27/65/2 33/64/2 23/63/2
f 28/65/1 29/66/1 24/67/1
f 24/67/2 29/66/2 28/65/2
f 20/55/3 29/54/3 34/68/3
f 34/68/4 29/54/4 20/55/4
f 35/69/2 30/57/2 25/48/2
f 25/48/1 30/57/1 35/69/1
f 31/58/2 20/50/2 36/70/2
f 36/70/1 20/50/1 31/58/1
f 37/71/5 25/72/5 31/73/5
f 31/73/6 25/72/6 37/71/6
f 26/60/4 30/59/4 38/74/4
f 38/74/3 30/59/3 26/60/3
f 32/63/1 26/75/1 39/76/1
f 39/76/2 26/75/2 32/63/2
f 39/77/4 23/78/4 32/60/4
f 32/60/3 23/78/3 39/77/3
f 33/79/3 28/56/3 27/80/3
f 27/80/4 28/56/4 33/79/4
f 33/64/1 23/63/1 40/76/1
f 40/76/2 23/63/2 33/64/2
f 41/64/1 29/66/1 28/65/1
f 28/65/2 29/66/2 41/64/2
f 29/47/6 30/45/6 34/42/6
f 34/42/5 30/45/5 29/47/5
f 34/81/2 36/70/2 20/50/2
f 20/50/1 36/70/1 34/81/1
f 30/57/2 35/69/2 34/81/2
f 34/81/1 35/69/1 30/57/1
f 25/82/4 42/83/4 35/84/4
f 35/84/3 42/83/3 25/82/3
f 36/85/3 37/86/3 31/87/3
f 31/87/4 37/86/4 36/85/4
f 25/72/5 37/71/5 43/88/5
f 43/88/6 37/71/6 25/72/6
f 30/45/6 29/47/6 38/51/6
f 38/51/5 29/47/5 30/45/5
f 29/66/1 26/75/1 38/89/1
f 38/89/2 26/75/2 29/66/2
f 26/75/1 29/66/1 39/76/1
f 39/76/2 29/66/2 26/75/2
f 23/78/4 39/77/4 40/90/4
f 40/90/3 39/77/3 23/78/3
f 28/56/3 33/79/3 41/91/3
f 41/91/4 33/79/4 28/56/4
f 39/62/6 33/52/6 40/46/6
f 40/46/5 33/52/5 39/62/5
f 39/76/1 29/66/1 41/64/1
f 41/64/2 29/66/2 39/76/2
f 34/81/2 35/69/2 36/70/2
f 36/70/1 35/69/1 34/81/1
f 42/83/4 25/82/4 43/92/4
f 43/92/3 25/82/3 42/83/3
f 42/93/6 36/94/6 35/95/6
f 35/95/5 36/94/5 42/93/5
f 37/86/3 36/85/3 44/96/3
f 44/96/4 36/85/4 37/86/4
f 37/58/2 42/69/2 43/48/2
f 43/48/1 42/69/1 37/58/1
f 33/52/6 39/62/6 41/53/6
f 41/53/5 39/62/5 33/52/5
f 36/94/6 42/93/6 44/97/6
f 44/97/5 42/93/5 36/94/5
f 42/69/2 37/58/2 44/70/2
f 44/70/1 37/58/1 42/69/1
