mtllib new-4.mtl
v -0.739534 -0.430059 -0.048138
v -0.731835 -0.430059 -0.048138
v -0.739534 -0.430059 -0.017343
v -0.731835 -0.430059 -0.017343
v -0.739534 0.103337 -0.325299
v -0.739534 0.103337 -0.356095
v -0.731835 0.103337 -0.325299
v -0.731835 0.103337 -0.356095
v -0.731835 -0.430059 -0.032740
v -0.654846 -0.430059 -0.032740
v -0.654846 -0.430059 -0.048138
v -0.654846 -0.176680 -0.179029
v -0.731835 -0.430059 -0.048138
v -0.731835 -0.176680 -0.179029
v -0.654846 0.103337 -0.356095
v -0.654846 -0.163361 -0.186719
v -0.731835 -0.176680 -0.186719
v -0.731835 -0.163361 -0.186719
v -0.731835 0.103337 -0.356095
v -0.654846 0.103337 -0.340697
v -0.731835 0.103337 -0.340697
vn -1.000000 0.000000 0.000000
vn 1.000000 0.000000 0.000000
vn 0.000000 -0.500000 -0.866025
vn 0.000000 0.500000 0.866025
vn 0.000000 -1.000000 0.000000
vn 0.000000 1.000000 0.000000
vn 1.000000 0.000000 0.000000
vn -1.000000 0.000000 0.000000
vn 0.000000 0.500000 0.866025
vn 0.000000 -0.500000 -0.866025
vt 3.592520 0.246063
vt 3.690945 0.246063
vt 0.492126 3.879552
vt 0.000000 2.009357
vt 0.492126 2.009357
vt 4.527617 1.865700
vt 0.000000 3.879552
vt 5.659449 3.655612
vt 0.492126 3.977861
vt 0.492126 4.527617
vt 0.000000 4.576772
vt 0.000000 4.527617
vt 4.576772 1.865700
vt 0.000000 2.058569
vt -0.492126 5.995577
vt -0.492126 2.058569
vt 4.576772 1.950837
vt 0.000000 3.977861
vt -4.576772 1.950837
vt -4.527617 1.865700
vt -4.576772 1.865700
vt 0.000000 5.995577
vt 5.561024 3.655612
vt 0.492126 5.946365
vt 0.000000 5.946365
usemtl material-0
f 5//1 1//1 3//1
f 3//2 1//2 5//2
f 6//3 2//3 1//3
f 1//4 2//4 6//4
f 2//2 7//2 4//2
f 4//1 7//1 2//1
f 1//1 5//1 6//1
f 6//2 5//2 1//2
f 3//4 7//4 5//4
f 5//3 7//3 3//3
f 2//3 6//3 8//3
f 8//4 6//4 2//4
f 7//2 2//2 8//2
f 8//1 2//1 7//1
f 7//4 3//4 4//4
f 4//3 3//3 7//3
usemtl material-1
f 12/3/9 9/4/9 10/5/9
f 10/5/10 9/4/10 12/3/10
f 11/2/7 12/6/7 10/1/7
f 10/1/8 12/6/8 11/2/8
f 9/4/9 12/3/9 14/7/9
f 14/7/10 12/3/10 9/4/10
f 13/2/7 14/6/7 9/1/7
f 9/1/8 14/6/8 13/2/8
f 12/6/7 11/2/7 15/8/7
f 15/8/8 11/2/8 12/6/8
f 16/9/9 14/7/9 12/3/9
f 12/3/10 14/7/10 16/9/10
f 12/10/6 17/11/6 14/12/6
f 14/12/5 17/11/5 12/10/5
f 14/6/7 13/2/7 17/13/7
f 17/13/8 13/2/8 14/6/8
f 13/14/10 15/15/10 11/16/10
f 11/16/9 15/15/9 13/14/9
f 12/6/7 15/8/7 16/17/7
f 16/17/8 15/8/8 12/6/8
f 14/7/9 16/9/9 18/18/9
f 18/18/10 16/9/10 14/7/10
f 17/21/8 14/20/8 18/19/8
f 18/19/7 14/20/7 17/21/7
f 17/13/7 13/2/7 19/8/7
f 19/8/8 13/2/8 17/13/8
f 15/15/10 13/14/10 19/22/10
f 19/22/9 13/14/9 15/15/9
f 16/17/7 15/8/7 20/23/7
f 20/23/8 15/8/8 16/17/8
f 20/24/9 18/18/9 16/9/9
f 16/9/10 18/18/10 20/24/10
f 17/13/7 19/8/7 18/17/7
f 18/17/8 19/8/8 17/13/8
f 18/18/9 20/24/9 21/25/9
f 21/25/10 20/24/10 18/18/10
f 18/17/7 19/8/7 21/23/7
f 21/23/8 19/8/8 18/17/8