mtllib new-0.mtl
v 0.717701 0.034503 -0.289584
v 0.717701 0.034503 -0.318447
v 0.746564 0.047623 -0.289584
v 0.717701 -0.548013 -0.289584
v 0.717701 -0.017976 -0.289584
v 0.746564 -0.017976 -0.289584
v 0.733444 0.047623 -0.318447
v 0.717701 -0.548013 -0.318447
v 0.746564 -0.548013 -0.289584
v 0.733444 -0.548013 -0.318447
v 0.721636 -0.548013 -0.304016
v 0.746564 -0.548013 -0.305328
v 0.746564 0.047623 -0.305328
v 0.738465 -0.548013 -0.317449
v 0.732132 -0.548013 -0.314511
v 0.721994 -0.548013 -0.306732
v 0.721994 -0.548013 -0.301299
v 0.739554 -0.548013 -0.296594
v 0.734849 -0.548013 -0.293877
v 0.738465 0.047623 -0.317449
v 0.737380 -0.548013 -0.313105
v 0.734849 -0.548013 -0.314154
v 0.729416 -0.548013 -0.314154
v 0.723043 -0.548013 -0.309263
v 0.721636 -0.553261 -0.304016
v 0.723043 -0.548013 -0.298768
v 0.721994 -0.553261 -0.301299
v 0.745565 -0.548013 -0.310348
v 0.737380 -0.548013 -0.294926
v 0.741222 -0.548013 -0.298768
v 0.732132 -0.548013 -0.293520
v 0.745565 0.047623 -0.310348
v 0.742721 -0.548013 -0.314605
v 0.739554 -0.548013 -0.311437
v 0.734849 -0.553261 -0.314154
v 0.732132 -0.553261 -0.314511
v 0.726884 -0.548013 -0.313105
v 0.724711 -0.548013 -0.311437
v 0.721994 -0.553261 -0.306732
v 0.724711 -0.548013 -0.296594
v 0.723043 -0.553261 -0.298768
v 0.742270 -0.548013 -0.301299
v 0.737380 -0.553261 -0.294926
v 0.741222 -0.553261 -0.298768
v 0.734849 -0.553261 -0.293877
v 0.729416 -0.548013 -0.293877
v 0.732132 -0.553261 -0.293520
v 0.742721 0.047623 -0.314605
v 0.742270 -0.548013 -0.306732
v 0.741222 -0.548013 -0.309263
v 0.739554 -0.553261 -0.311437
v 0.737380 -0.553261 -0.313105
v 0.729416 -0.553261 -0.314154
v 0.723043 -0.553261 -0.309263
v 0.726884 -0.548013 -0.294926
v 0.724711 -0.553261 -0.296594
v 0.742628 -0.548013 -0.304016
v 0.739554 -0.553261 -0.296594
v 0.742270 -0.553261 -0.301299
v 0.729416 -0.553261 -0.293877
v 0.726884 -0.553261 -0.313105
v 0.724711 -0.553261 -0.311437
v 0.742628 -0.553261 -0.304016
v 0.741222 -0.553261 -0.309263
v 0.742270 -0.553261 -0.306732
v 0.726884 -0.553261 -0.294926
vn 1.000000 0.000000 0.000000
vn 0.000000 0.000000 -1.000000
vn 0.000000 -1.000000 0.000000
vn -1.000000 0.000000 0.000000
vn 0.000000 0.000000 1.000000
vn 0.000000 1.000000 0.000000
vn -0.980785 0.000000 0.195090
vn -0.923880 0.000000 0.382683
vn 0.195090 0.000000 -0.980785
vn 0.382683 0.000000 -0.923880
vn -0.707107 0.000000 -0.707107
vn -0.707107 0.000000 0.707107
vn 0.923880 0.000000 -0.382683
vn 0.980785 0.000000 -0.195090
vn 0.707107 0.000000 -0.707107
vn -0.195090 0.000000 0.980785
vn -0.382683 0.000000 0.923880
vn 0.707107 0.000000 0.707107
vn -0.965926 0.000000 -0.258819
vn -0.866025 0.000000 -0.500000
vn -0.258819 0.000000 -0.965926
vn -0.500000 0.000000 -0.866025
vn -0.965926 0.000000 0.258819
vn 0.258819 0.000000 -0.965926
vn -0.866025 0.000000 0.500000
vn 0.500000 0.000000 -0.866025
vn -0.500000 0.000000 0.866025
vn 0.965926 0.000000 0.258819
vn 0.965926 0.000000 -0.258819
vn -0.258819 0.000000 0.965926
vn 0.866025 0.000000 -0.500000
vn 0.258819 0.000000 0.965926
vn 0.866025 0.000000 0.500000
vn 0.500000 0.000000 0.866025
vt 0.426613 0.218326
vt 0.070616 0.188531
vt 0.426963 0.197058
vt 0.441610 -0.204142
vt 0.433775 -0.215934
vt 0.070265 0.209799
vt 0.394860 0.196290
vt 0.076796 -0.186173
vt 0.441169 -0.177453
vt 0.401040 -0.178414
vt 0.077236 -0.212861
vt 0.077427 -0.224462
vt 0.242301 1.258159
vt 0.233680 1.254454
vt 0.227815 1.245992
vt 0.395211 0.175022
vt 0.076987 -0.197773
vt 0.070966 0.167263
vt 0.077174 -0.209089
vt 0.236791 1.267676
vt 0.235275 1.265224
vt 0.234919 1.255816
vt 0.232192 1.253526
vt 0.441361 -0.189054
vt 0.217713 1.263440
vt 0.223685 1.262158
vt 0.225615 1.270077
vt 0.223968 1.258168
vt 0.441547 -0.200370
vt 0.234533 1.270290
vt 0.232733 1.267804
vt 0.234145 1.266715
vt 0.236046 1.263431
vt 0.235822 1.257517
vt 0.230554 1.253092
vt 0.077049 -0.201545
vt 0.223609 1.260140
vt 0.224192 1.264082
vt 0.224740 1.256375
vt 0.077112 -0.205317
vt 0.231135 1.268415
vt 0.236406 1.261459
vt 0.236329 1.259441
vt 0.228880 1.253184
vt 0.441423 -0.192826
vt 0.225096 1.265783
vt 0.228484 1.271590
vt 0.225870 1.254884
vt 0.441485 -0.196598
vt 0.231616 1.271664
vt 0.227823 1.268073
vt 0.229460 1.268507
vt 0.227282 1.253795
vt 0.226334 1.267144
vt -0.076389 1.402778
vt -0.076389 0.000000
vt 0.076389 1.541667
vt 0.000000 0.000000
vt 0.076389 1.402778
vt 0.076389 0.000000
vt 0.000000 1.541667
vt -0.076389 0.076389
vt 0.034722 1.576389
vt 0.034722 0.000000
vt 0.000000 1.402778
vt -0.076389 1.576389
vt -0.065972 0.038194
vt 0.000000 0.076389
vt -0.034722 0.000000
vt 0.034055 0.000000
vt 0.020507 0.000000
vt 0.034055 1.576389
vt -0.038194 0.010417
vt -0.065026 0.031005
vt -0.065026 0.045384
vt -0.034722 1.576389
vt 0.000000 0.034722
vt -0.018553 0.057836
vt -0.031005 0.065026
vt 0.020507 1.576389
vt -0.024306 0.014138
vt -0.021435 0.002643
vt -0.031005 0.011363
vt -0.045384 0.011363
vt -0.062251 0.024306
vt 0.046479 0.000000
vt 0.046479 -0.013889
vt 0.039227 0.000000
vt -0.062251 0.052083
vt 0.036508 0.000000
vt 0.036508 -0.013889
vt 0.029257 0.000000
vt -0.034055 0.000000
vt -0.034055 1.576389
vt -0.020507 0.000000
vt -0.024306 0.062251
vt -0.014138 0.052083
vt -0.038194 0.065972
vt 0.016354 0.000000
vt 0.002806 0.000000
vt 0.016354 1.576389
vt -0.018553 0.018553
vt 0.029257 -0.013889
vt 0.039227 -0.013889
vt -0.052083 0.014138
vt -0.057836 0.018553
vt 0.053529 0.000000
vt 0.053529 -0.013889
vt 0.046278 0.000000
vt -0.057836 0.057836
vt 0.024296 0.000000
vt 0.024296 -0.013889
vt 0.017045 0.000000
vt 0.017045 -0.013889
vt -0.020507 1.576389
vt -0.002643 0.021435
vt -0.011363 0.045384
vt -0.057179 0.000000
vt -0.049927 0.000000
vt -0.057179 -0.013889
vt -0.049927 -0.013889
vt -0.053529 0.000000
vt -0.046278 0.000000
vt -0.053529 -0.013889
vt -0.045384 0.065026
vt -0.046479 0.000000
vt -0.039227 0.000000
vt -0.046479 -0.013889
vt 0.002806 1.576389
vt -0.011363 0.031005
vt -0.010170 0.010170
vt -0.014138 0.024306
vt 0.003425 0.000000
vt 0.010676 0.000000
vt 0.003425 -0.013889
vt 0.046278 -0.013889
vt 0.057179 0.000000
vt 0.057179 -0.013889
vt 0.049927 0.000000
vt -0.052083 0.062251
vt 0.010676 -0.013889
vt -0.016354 0.000000
vt -0.016354 1.576389
vt -0.002806 0.000000
vt -0.010417 0.038194
vt -0.046278 -0.013889
vt -0.039227 -0.013889
vt -0.036508 0.000000
vt -0.029257 0.000000
vt -0.036508 -0.013889
vt -0.029257 -0.013889
vt -0.002806 1.576389
vt -0.003425 0.000000
vt -0.003425 -0.013889
vt -0.010676 0.000000
vt 0.049927 -0.013889
vt -0.010676 -0.013889
vt -0.024296 0.000000
vt -0.017045 0.000000
vt -0.024296 -0.013889
vt -0.017045 -0.013889
usemtl material-0
f 2/1/4 4/2/4 1/3/4
f 4/2/4 2/1/4 8/6/4
f 1/3/4 4/2/4 5/7/4
f 9/8/1 3/9/1 6/10/1
f 10/11/2 2/5/2 7/4/2
f 2/5/2 10/11/2 8/12/2
f 8/13/3 11/14/3 4/15/3
f 4/2/5 6/16/5 5/7/5
f 12/17/1 3/9/1 9/8/1
f 6/16/5 4/2/5 9/18/5
f 7/4/9 14/19/10 10/11/9
f 10/20/3 15/21/3 8/13/3
f 8/13/3 16/22/3 11/14/3
f 17/23/3 4/15/3 11/14/3
f 3/9/1 12/17/1 13/24/1
f 9/25/3 18/26/3 12/27/3
f 19/28/3 9/25/3 4/15/3
f 14/19/10 7/4/9 20/29/10
f 14/30/3 21/31/3 10/20/3
f 10/20/3 22/32/3 15/21/3
f 8/13/3 15/21/3 23/33/3
f 8/13/3 24/34/3 16/22/3
f 26/35/3 4/15/3 17/23/3
f 28/36/13 13/24/14 12/17/14
f 18/26/3 9/25/3 29/37/3
f 12/27/3 18/26/3 30/38/3
f 29/37/3 9/25/3 19/28/3
f 19/28/3 4/15/3 31/39/3
f 20/29/10 33/40/15 14/19/10
f 14/30/3 34/41/3 21/31/3
f 10/20/3 21/31/3 22/32/3
f 8/13/3 23/33/3 37/42/3
f 8/13/3 38/43/3 24/34/3
f 40/44/3 4/15/3 26/35/3
f 13/24/14 28/36/13 32/45/13
f 12/27/3 42/46/3 28/47/3
f 12/27/3 30/38/3 42/46/3
f 31/39/3 4/15/3 46/48/3
f 33/40/15 20/29/10 48/49/15
f 33/50/3 49/51/3 14/30/3
f 14/30/3 50/52/3 34/41/3
f 8/13/3 37/42/3 38/43/3
f 55/53/3 4/15/3 40/44/3
f 33/40/15 32/45/13 28/36/13
f 28/47/3 42/46/3 57/54/3
f 46/48/3 4/15/3 55/53/3
f 32/45/13 33/40/15 48/49/15
f 49/51/3 33/50/3 57/54/3
f 14/30/3 49/51/3 50/52/3
f 28/47/3 57/54/3 33/50/3
usemtl material-1
f 1/57/1 4/60/1 2/61/1
f 8/58/1 2/61/1 4/60/1
f 5/59/1 4/60/1 1/57/1
f 6/55/4 3/66/4 9/56/4
f 7/63/5 2/57/5 10/64/5
f 8/60/5 10/64/5 2/57/5
f 4/62/6 11/67/6 8/56/6
f 5/55/2 6/65/2 4/56/2
f 9/56/4 3/66/4 12/69/4
f 9/58/2 4/56/2 6/65/2
f 10/70/16 14/71/17 7/72/16
f 8/56/6 15/73/6 10/69/6
f 11/67/6 16/74/6 8/56/6
f 11/67/6 4/62/6 17/75/6
f 13/76/4 12/69/4 3/66/4
f 12/77/6 18/78/6 9/68/6
f 4/62/6 9/68/6 19/79/6
f 20/80/17 7/72/16 14/71/17
f 10/69/6 21/81/6 14/82/6
f 15/73/6 22/83/6 10/69/6
f 23/84/6 15/73/6 8/56/6
f 16/74/6 24/85/6 8/56/6
f 11/86/1 25/87/1 16/88/28
f 17/75/6 4/62/6 26/89/6
f 17/90/29 27/91/29 11/92/1
f 12/93/7 13/94/7 28/95/8
f 29/96/6 9/68/6 18/78/6
f 30/97/6 18/78/6 12/77/6
f 19/79/6 9/68/6 29/96/6
f 31/98/6 4/62/6 19/79/6
f 14/99/17 33/100/12 20/101/17
f 21/81/6 34/102/6 14/82/6
f 22/83/6 21/81/6 10/69/6
f 22/92/30 15/90/5 35/103/30
f 15/88/5 23/86/32 36/104/5
f 37/105/6 23/84/6 8/56/6
f 24/85/6 38/106/6 8/56/6
f 16/107/28 39/108/28 24/109/33
f 39/104/28 16/88/28 25/87/1
f 25/103/1 11/92/1 27/91/29
f 26/89/6 4/62/6 40/110/6
f 26/111/31 41/112/31 17/113/29
f 27/114/29 17/113/29 41/112/31
f 32/115/8 28/95/8 13/94/7
f 28/116/6 42/117/6 12/77/6
f 29/118/22 18/119/11 43/120/22
f 30/119/20 44/121/20 18/118/11
f 42/117/6 30/97/6 12/77/6
f 19/122/21 29/123/22 45/124/21
f 46/125/6 4/62/6 31/98/6
f 31/126/2 19/127/21 47/128/2
f 48/129/12 20/101/17 33/100/12
f 14/82/6 49/130/6 33/131/6
f 34/102/6 50/132/6 14/82/6
f 34/133/12 21/134/27 51/135/12
f 21/113/27 22/111/30 52/114/27
f 36/91/5 35/103/30 15/90/5
f 35/112/30 52/114/27 22/111/30
f 53/87/32 36/104/5 23/86/32
f 23/109/32 37/107/34 53/136/32
f 38/106/6 37/105/6 8/56/6
f 24/137/33 54/138/33 38/139/18
f 54/136/33 24/109/33 39/108/28
f 25/67/6 27/75/6 39/74/6
f 40/110/6 4/62/6 55/140/6
f 40/134/15 56/141/15 26/133/31
f 41/135/31 26/133/31 56/141/15
f 27/75/6 41/89/6 54/85/6
f 28/142/8 32/143/8 33/144/12
f 57/145/6 42/117/6 28/116/6
f 58/121/11 43/120/22 18/119/11
f 43/146/22 45/124/21 29/123/22
f 58/120/11 18/118/11 44/121/20
f 44/124/20 30/122/20 59/146/19
f 42/123/19 59/146/19 30/122/20
f 45/147/21 47/128/2 19/127/21
f 55/140/6 4/62/6 46/125/6
f 46/148/24 31/149/2 60/150/24
f 47/151/2 60/150/24 31/149/2
f 48/152/12 33/144/12 32/143/8
f 57/145/6 33/131/6 49/130/6
f 50/132/6 49/130/6 14/82/6
f 34/153/12 51/154/12 50/155/25
f 52/141/27 51/135/12 21/134/27
f 36/73/6 47/98/6 35/83/6
f 35/83/6 45/79/6 52/81/6
f 53/84/6 60/125/6 36/73/6
f 61/108/34 53/136/32 37/107/34
f 37/139/34 38/137/18 61/156/34
f 62/156/18 38/139/18 54/138/33
f 39/74/6 27/75/6 54/85/6
f 40/155/15 55/153/26 56/157/15
f 41/89/6 56/110/6 62/106/6
f 54/85/6 41/89/6 62/106/6
f 33/131/6 57/145/6 28/116/6
f 57/127/4 63/147/4 42/126/19
f 43/96/6 58/78/6 51/102/6
f 45/79/6 43/96/6 52/81/6
f 58/78/6 44/97/6 64/132/6
f 44/97/6 59/117/6 65/130/6
f 59/128/19 42/126/19 63/147/4
f 47/98/6 45/79/6 35/83/6
f 55/158/26 46/159/24 66/160/26
f 60/161/24 66/160/26 46/159/24
f 60/125/6 47/98/6 36/73/6
f 49/149/23 65/151/23 57/148/4
f 50/159/25 64/161/25 49/158/23
f 64/157/25 50/155/25 51/154/12
f 52/81/6 43/96/6 51/102/6
f 66/140/6 60/125/6 53/84/6
f 61/105/6 66/140/6 53/84/6
f 62/138/18 61/156/34 38/137/18
f 66/154/26 56/157/15 55/153/26
f 62/106/6 56/110/6 61/105/6
f 63/150/4 57/148/4 65/151/23
f 51/102/6 58/78/6 64/132/6
f 64/132/6 44/97/6 65/130/6
f 63/145/6 65/130/6 59/117/6
f 65/160/23 49/158/23 64/161/25
f 56/110/6 66/140/6 61/105/6
usemtl material-3
f 16//19 25//4 11//4
f 11//4 27//23 17//23
f 35//24 15//2 22//24
f 36//2 23//21 15//2
f 24//20 39//19 16//19
f 25//4 16//19 39//19
f 27//23 11//4 25//4
f 17//23 41//25 26//25
f 41//25 17//23 27//23
f 43//34 18//18 29//34
f 18//18 44//33 30//33
f 45//32 29//34 19//32
f 47//5 19//32 31//5
f 51//15 21//26 34//15
f 52//26 22//24 21//26
f 15//2 35//24 36//2
f 22//24 52//26 35//24
f 23//21 36//2 53//21
f 53//21 37//22 23//21
f 38//11 54//20 24//20
f 39//19 24//20 54//20
f 39//3 27//3 25//3
f 26//25 56//12 40//12
f 56//12 26//25 41//25
f 54//3 41//3 27//3
f 18//18 43//34 58//18
f 29//34 45//32 43//34
f 44//33 18//18 58//18
f 59//28 30//33 44//33
f 30//33 59//28 42//28
f 19//32 47//5 45//32
f 60//30 31//5 46//30
f 31//5 60//30 47//5
f 50//31 51//15 34//15
f 21//26 51//15 52//26
f 35//3 47//3 36//3
f 52//3 45//3 35//3
f 36//3 60//3 53//3
f 37//22 53//21 61//22
f 61//22 38//11 37//22
f 54//20 38//11 62//11
f 54//3 27//3 39//3
f 56//12 55//27 40//12
f 62//3 56//3 41//3
f 62//3 41//3 54//3
f 42//28 63//1 57//1
f 51//3 58//3 43//3
f 52//3 43//3 45//3
f 64//3 44//3 58//3
f 65//3 59//3 44//3
f 63//1 42//28 59//28
f 35//3 45//3 47//3
f 66//27 46//30 55//27
f 46//30 66//27 60//30
f 36//3 47//3 60//3
f 57//1 65//29 49//29
f 49//29 64//31 50//31
f 51//15 50//31 64//31
f 51//3 43//3 52//3
f 53//3 60//3 66//3
f 53//3 66//3 61//3
f 38//11 61//22 62//11
f 55//27 56//12 66//27
f 61//3 56//3 62//3
f 65//29 57//1 63//1
f 64//3 58//3 51//3
f 65//3 44//3 64//3
f 59//3 65//3 63//3
f 64//31 49//29 65//29
f 61//3 66//3 56//3