mtllib new-12.mtl
v -0.730717 0.034503 0.023978
v -0.730717 0.034503 0.044969
v -0.730717 0.050247 -0.289584
v 0.717701 0.034503 0.023978
v -0.730717 0.034503 0.358531
v -0.730717 0.050247 0.358531
v 0.717701 0.034503 -0.289584
v 0.717701 0.034503 0.044969
v 0.717701 0.050247 0.358531
v 0.717701 0.050247 -0.289584
vn 0.000000 -1.000000 0.000000
vn 0.000000 1.000000 0.000000
vt 0.054774 2.281700
vt 0.948705 1.825345
vt 0.944894 2.056390
vt -3.909722 0.906250
vt -3.909722 0.961806
vt -3.909722 1.791667
vt -0.076389 0.906250
vt -0.076389 0.076389
vt -0.076389 0.961806
vt 3.909722 0.076389
vt 3.909722 1.791667
vt 0.076389 1.791667
vt 0.076389 0.076389
vt 1.027910 0.742561
vt 1.971847 0.096693
vt 1.971847 0.742561
vt 1.027910 0.096693
usemtl material-0
f 4/3/1 5/1/1 7/2/1
usemtl material-1
f 4/7/1 2/5/1 1/4/1
f 1/4/2 2/5/2 4/7/2
f 2/5/1 4/7/1 8/9/1
f 8/9/2 4/7/2 2/5/2
f 6/11/1 3/10/1 9/12/1
f 7/8/2 5/6/2 4/7/2
f 10/13/1 9/12/1 3/10/1
usemtl material-2
f 9/14/2 3/15/2 6/16/2
f 3/15/2 9/14/2 10/17/2