mtllib new-0.mtl
v 0.489940 -0.440226 0.058929
v 0.489940 -0.503020 0.058929
v 0.530501 -0.528085 0.058929
v 0.489940 -0.440226 0.057381
v -0.505869 -0.440226 0.058929
v -0.546431 -0.528085 0.058929
v 0.530501 -0.528085 -0.726579
v 0.489940 -0.503020 0.057381
v 0.465833 -0.440226 0.058929
v -0.505869 -0.503020 0.058929
v 0.465833 -0.503020 0.058929
v 0.484076 -0.497156 0.057381
v 0.465833 -0.503020 0.057381
v 0.465833 -0.440226 0.057381
v -0.505869 -0.503020 0.057381
v -0.546431 -0.528085 -0.726579
v 0.484076 -0.446089 0.057381
v 0.471697 -0.446089 0.057381
v -0.505869 -0.440226 0.057381
v -0.481763 -0.503020 0.058929
v 0.471697 -0.497156 0.057381
v 0.484076 -0.446089 -0.668394
v -0.500006 -0.497156 0.057381
v -0.481763 -0.440226 0.057381
v -0.481763 -0.503020 0.057381
v 0.415311 -0.494360 0.058929
v 0.471697 -0.497156 -0.668394
v 0.484076 -0.497156 -0.668394
v -0.487626 -0.497156 0.057381
v -0.500006 -0.446089 0.057381
v -0.481763 -0.440226 0.058929
v -0.431241 -0.494360 0.058929
v 0.415311 -0.448886 0.058929
v 0.471697 -0.446089 -0.668394
v -0.500006 -0.497156 -0.668394
v 0.425669 -0.430592 0.058929
v -0.487626 -0.446089 0.057381
v -0.431241 -0.494360 0.055834
v -0.431241 -0.448886 0.058929
v 0.415311 -0.448886 0.055834
v 0.454873 -0.422767 0.058929
v -0.487626 -0.497156 -0.668394
v -0.500006 -0.446089 -0.668394
v -0.435781 -0.430592 0.058929
v -0.487626 -0.446089 -0.668394
v 0.415311 -0.494360 0.055834
v 0.448021 -0.426146 0.058929
v 0.433293 -0.430093 0.058929
v -0.444164 -0.430043 0.058929
v -0.431241 -0.448886 0.055834
v 0.440786 -0.428602 0.058929
v -0.452403 -0.428404 0.058929
v -0.460359 -0.425703 0.058929
vn 0.000000 0.000000 1.000000
vn 0.000000 0.000000 -1.000000
vn -1.000000 0.000000 0.000000
vn 1.000000 0.000000 0.000000
vn 0.000000 -1.000000 0.000000
vn 0.000000 1.000000 0.000000
vt 0.607721 0.051520
vt 0.607721 0.014698
vt 0.631506 0.000000
vt -0.000907 0.051520
vt 0.000000 0.014698
vt 0.000000 0.051520
vt 0.023785 0.051520
vt 0.000000 0.000000
vt -0.000907 0.014698
vt -0.593585 0.000000
vt -0.607721 0.000907
vt -0.607721 0.000000
vt 0.593585 0.051520
vt 0.023785 0.014698
vt 0.593585 0.014698
vt -0.631506 0.460617
vt -0.631506 0.000000
vt 0.604283 0.018136
vt 0.593585 0.000907
vt 0.607721 0.000000
vt 0.607721 0.000907
vt -0.593585 0.000907
vt 0.000907 0.014698
vt 0.593585 0.000000
vt 0.000000 0.460617
vt 0.604283 0.048082
vt 0.000907 0.051520
vt 0.597024 0.048082
vt 0.037921 0.000000
vt 0.023785 0.000907
vt 0.023785 0.000000
vt 0.037921 0.014698
vt 0.597024 0.018136
vt -0.426497 0.048082
vt -0.000907 0.018136
vt -0.000907 0.048082
vt 0.027223 0.018136
vt -0.037921 0.000907
vt -0.023785 0.000000
vt -0.023785 0.000907
vt 0.037921 0.000907
vt 0.563960 0.019776
vt 0.604283 0.000907
vt 0.597024 0.426497
vt 0.597024 0.000907
vt -0.426497 0.018136
vt 0.426497 0.018136
vt 0.000907 0.048082
vt 0.000907 0.018136
vt 0.034483 0.018136
vt 0.027223 0.048082
vt -0.037921 0.000000
vt 0.037921 0.051520
vt 0.067547 0.019776
vt 0.563960 0.046442
vt 0.604283 0.426497
vt 0.426497 0.048082
vt 0.034483 0.000907
vt 0.027223 0.426497
vt 0.027223 0.000907
vt 0.570034 0.057169
vt 0.034483 0.048082
vt 0.563960 0.000000
vt 0.067547 0.001815
vt 0.067547 0.000000
vt 0.067547 0.046442
vt -0.001815 0.046442
vt 0.000000 0.019776
vt 0.000000 0.046442
vt 0.587158 0.061757
vt 0.034483 0.426497
vt 0.064885 0.057169
vt 0.563960 0.001815
vt 0.001815 0.019776
vt -0.067547 0.000000
vt -0.563960 0.001815
vt -0.563960 0.000000
vt -0.001815 0.019776
vt 0.583140 0.059776
vt 0.574504 0.057462
vt 0.059969 0.057491
vt 0.001815 0.046442
vt -0.067547 0.001815
vt 0.578898 0.058336
vt 0.055137 0.058452
vt 0.050472 0.060036
vt 6.554331 0.196711
vt 6.591622 0.159420
vt 6.591622 0.558806
vt 6.438299 0.159420
vt 6.554331 0.521515
vt 6.438299 0.558806
vt 6.475591 0.521515
vt 6.475591 0.196711
vt 0.257984 0.159420
vt 0.295276 0.196711
vt 0.257984 0.558806
vt 0.374016 0.196711
vt 0.295276 0.521515
vt 0.411307 0.558806
vt 0.411307 0.159420
vt 0.374016 0.521515
usemtl material-0
f 4/4/3 2/5/3 1/6/3
f 1/6/4 2/5/4 4/4/4
f 3/3/1 2/2/1 6/8/1
f 6/8/2 2/2/2 3/3/2
f 2/5/3 4/4/3 8/9/3
f 8/9/4 4/4/4 2/5/4
f 9/10/5 4/11/5 1/12/5
f 1/12/6 4/11/6 9/10/6
f 11/15/1 6/8/1 2/2/1
f 2/2/2 6/8/2 11/15/2
f 6/8/5 7/16/5 3/17/5
f 3/17/6 7/16/6 6/8/6
f 4/1/2 8/2/2 12/18/2
f 13/19/6 2/20/6 8/21/6
f 8/21/5 2/20/5 13/19/5
f 4/11/5 9/10/5 14/22/5
f 14/22/6 9/10/6 4/11/6
f 15/23/4 5/6/4 10/5/4
f 10/5/3 5/6/3 15/23/3
f 10/14/1 6/8/1 11/15/1
f 11/15/2 6/8/2 10/14/2
f 2/20/6 13/19/6 11/24/6
f 11/24/5 13/19/5 2/20/5
f 7/16/5 6/8/5 16/25/5
f 16/25/6 6/8/6 7/16/6
f 13/15/2 12/18/2 8/2/2
f 17/26/2 4/1/2 12/18/2
f 9/6/4 13/23/4 14/27/4
f 14/27/3 13/23/3 9/6/3
f 4/1/2 18/28/2 14/13/2
f 5/6/4 15/23/4 19/27/4
f 19/27/3 15/23/3 5/6/3
f 20/29/6 15/30/6 10/31/6
f 10/31/5 15/30/5 20/29/5
f 10/14/1 11/15/1 20/32/1
f 20/32/2 11/15/2 10/14/2
f 13/23/4 9/6/4 11/5/4
f 11/5/3 9/6/3 13/23/3
f 12/18/2 13/15/2 21/33/2
f 18/28/2 4/1/2 17/26/2
f 22/34/3 12/35/3 17/36/3
f 17/36/4 12/35/4 22/34/4
f 14/13/2 21/33/2 13/15/2
f 18/28/2 21/33/2 14/13/2
f 19/7/2 23/37/2 15/14/2
f 24/38/5 5/39/5 19/40/5
f 19/40/6 5/39/6 24/38/6
f 15/30/6 20/29/6 25/41/6
f 25/41/5 20/29/5 15/30/5
f 11/15/1 26/42/1 20/32/1
f 20/32/2 26/42/2 11/15/2
f 26/42/1 11/15/1 9/13/1
f 9/13/2 11/15/2 26/42/2
f 12/43/6 27/44/6 21/45/6
f 21/45/5 27/44/5 12/43/5
f 12/35/3 22/34/3 28/46/3
f 28/46/4 22/34/4 12/35/4
f 27/47/4 18/48/4 21/49/4
f 21/49/3 18/48/3 27/47/3
f 29/50/2 15/14/2 23/37/2
f 30/51/2 23/37/2 19/7/2
f 5/39/5 24/38/5 31/52/5
f 31/52/6 24/38/6 5/39/6
f 24/53/2 30/51/2 19/7/2
f 20/5/3 24/4/3 25/9/3
f 25/9/4 24/4/4 20/5/4
f 15/14/2 29/50/2 25/32/2
f 32/54/1 20/32/1 26/42/1
f 26/42/2 20/32/2 32/54/2
f 26/42/1 9/13/1 33/55/1
f 33/55/2 9/13/2 26/42/2
f 27/44/6 12/43/6 28/56/6
f 28/56/5 12/43/5 27/44/5
f 22/26/1 27/33/1 28/18/1
f 28/18/2 27/33/2 22/26/2
f 29/58/6 35/59/6 23/60/6
f 23/60/5 35/59/5 29/58/5
f 35/47/4 30/48/4 23/49/4
f 23/49/3 30/48/3 35/47/3
f 24/4/3 20/5/3 31/6/3
f 31/6/4 20/5/4 24/4/4
f 31/53/1 36/61/1 5/7/1
f 5/7/2 36/61/2 31/53/2
f 30/51/2 24/53/2 37/62/2
f 24/53/2 25/32/2 29/50/2
f 20/32/1 32/54/1 31/53/1
f 31/53/2 32/54/2 20/32/2
f 26/63/6 38/64/6 32/65/6
f 32/65/5 38/64/5 26/63/5
f 33/55/1 9/13/1 39/66/1
f 39/66/2 9/13/2 33/55/2
f 40/67/3 26/68/3 33/69/3
f 33/69/4 26/68/4 40/67/4
f 27/33/1 22/26/1 34/28/1
f 34/28/2 22/26/2 27/33/2
f 35/59/6 29/58/6 42/71/6
f 42/71/5 29/58/5 35/59/5
f 30/48/4 35/47/4 43/57/4
f 43/57/3 35/47/3 30/48/3
f 9/13/1 36/61/1 31/53/1
f 31/53/2 36/61/2 9/13/2
f 44/72/1 5/7/1 36/61/1
f 36/61/2 5/7/2 44/72/2
f 37/62/2 24/53/2 29/50/2
f 31/53/1 32/54/1 39/66/1
f 39/66/2 32/54/2 31/53/2
f 38/64/6 26/63/6 46/73/6
f 46/73/5 26/63/5 38/64/5
f 38/74/4 39/69/4 32/68/4
f 32/68/3 39/69/3 38/74/3
f 31/53/1 39/66/1 9/13/1
f 9/13/2 39/66/2 31/53/2
f 39/75/5 40/76/5 33/77/5
f 33/77/6 40/76/6 39/75/6
f 26/68/3 40/67/3 46/78/3
f 46/78/4 40/67/4 26/68/4
f 9/13/1 41/70/1 47/79/1
f 47/79/2 41/70/2 9/13/2
f 29/35/3 45/34/3 42/46/3
f 42/46/4 45/34/4 29/35/4
f 45/62/1 35/37/1 42/50/1
f 42/50/2 35/37/2 45/62/2
f 35/37/1 45/62/1 43/51/1
f 43/51/2 45/62/2 35/37/2
f 9/13/1 48/80/1 36/61/1
f 36/61/2 48/80/2 9/13/2
f 49/81/1 5/7/1 44/72/1
f 44/72/2 5/7/2 49/81/2
f 46/42/2 38/54/2 40/55/2
f 39/69/4 38/74/4 50/82/4
f 50/82/3 38/74/3 39/69/3
f 40/76/5 39/75/5 50/83/5
f 50/83/6 39/75/6 40/76/6
f 9/13/1 47/79/1 51/84/1
f 51/84/2 47/79/2 9/13/2
f 9/13/1 51/84/1 48/80/1
f 48/80/2 51/84/2 9/13/2
f 52/85/1 5/7/1 49/81/1
f 49/81/2 5/7/2 52/85/2
f 50/66/2 40/55/2 38/54/2
f 53/86/1 5/7/1 52/85/1
f 52/85/2 5/7/2 53/86/2
usemtl material-1
f 12/87/1 8/88/1 4/89/1
f 8/88/1 12/87/1 13/90/1
f 12/87/1 4/89/1 17/91/1
f 14/92/1 18/93/1 4/89/1
f 21/94/1 13/90/1 12/87/1
f 17/91/1 4/89/1 18/93/1
f 13/90/1 21/94/1 14/92/1
f 14/92/1 21/94/1 18/93/1
f 15/95/1 23/96/1 19/97/1
f 23/96/1 15/95/1 29/98/1
f 19/97/1 23/96/1 30/99/1
f 19/97/1 30/99/1 24/100/1
f 25/101/1 29/98/1 15/95/1
f 37/102/1 24/100/1 30/99/1
f 29/98/1 25/101/1 24/100/1
f 29/98/1 24/100/1 37/102/1
usemtl material-2
f 40//1 38//1 46//1
f 38//1 40//1 50//1