# Blender v2.93.4 OBJ File: ''
# www.blender.org
mtllib new-1-back.mtl
o new-1
v 0.478385 0.441915 -0.668394
v 0.481529 0.432655 -0.668394
v 0.474060 0.450687 -0.668394
v -0.500006 0.433794 -0.668394
v -0.498157 0.447842 -0.668394
v 0.483437 0.423063 -0.668394
v -0.499542 0.440879 -0.668394
v 0.468627 0.458818 -0.668394
v -0.495875 0.454564 -0.668394
v 0.484076 0.413304 -0.668394
v -0.500006 -0.366367 -0.668394
v 0.462178 0.466171 -0.668394
v -0.492735 0.460932 -0.668394
v 0.484076 -0.372185 -0.668394
v -0.499457 -0.374750 -0.668394
v 0.454826 0.472619 -0.668394
v -0.488790 0.466835 -0.668394
v 0.483577 -0.379809 -0.668394
v 0.530501 -0.528085 -0.726579
v 0.446694 0.478052 -0.668394
v -0.497818 -0.382990 -0.668394
v 0.530501 0.534494 -0.726579
v 0.482086 -0.387302 -0.668394
v 0.437923 0.482378 -0.668394
v -0.478772 0.476853 -0.668394
v -0.484109 0.472172 -0.668394
v -0.546431 -0.528085 -0.726579
v -0.546431 0.534494 -0.726579
v 0.428662 0.485521 -0.668394
v -0.472869 0.480798 -0.668394
v -0.495117 -0.390945 -0.668394
v 0.479631 -0.394537 -0.668394
v 0.419071 0.487429 -0.668394
v -0.466502 0.483938 -0.668394
v 0.484076 -0.446089 -0.668394
v 0.476251 -0.401389 -0.668394
v 0.409312 0.488069 -0.668394
v -0.459779 0.486220 -0.668394
v -0.491401 -0.398480 -0.668394
v 0.471697 -0.446089 -0.668394
v 0.471697 -0.497156 -0.668394
v 0.472007 -0.407741 -0.668394
v -0.452816 0.487605 -0.668394
v -0.486734 -0.405465 -0.668394
v 0.466969 -0.413485 -0.668394
v 0.461225 -0.418523 -0.668394
v -0.445732 0.488069 -0.668394
v -0.487626 -0.446089 -0.668394
v -0.481195 -0.411781 -0.668394
v 0.454873 -0.422767 -0.668394
v -0.500006 -0.446089 -0.668394
v -0.435781 -0.430592 -0.668394
v -0.474879 -0.417320 -0.668394
v -0.467893 -0.421988 -0.668394
v 0.448021 -0.426146 -0.668394
v 0.425669 -0.430592 -0.668394
v -0.444164 -0.430043 -0.668394
v -0.460359 -0.425703 -0.668394
v 0.440786 -0.428602 -0.668394
v 0.433293 -0.430093 -0.668394
v -0.452403 -0.428404 -0.668394
vt 0.027223 0.564040
vt 0.602789 0.563372
vt 0.600946 0.568802
vt 0.598409 0.573945
vt 0.028308 0.572277
vt 0.603908 0.557747
vt 0.027496 0.568194
vt 0.029646 0.576219
vt 0.604283 0.552025
vt 0.595223 0.578714
vt 0.027223 0.094830
vt 0.031487 0.579953
vt 0.604283 0.091418
vt 0.591442 0.583025
vt 0.027545 0.089914
vt 0.033800 0.583414
vt 0.603990 0.086948
vt 0.587131 0.586806
vt 0.028507 0.085083
vt 0.039675 0.589289
vt 0.582362 0.589992
vt 0.036545 0.586544
vt 0.603116 0.082554
vt -0.631506 0.000000
vt -0.631506 0.623089
vt 0.000000 0.000000
vt 0.577219 0.592529
vt 0.043136 0.591602
vt 0.030090 0.080418
vt 0.000000 0.623089
vt 0.046870 0.593443
vt 0.571789 0.594372
vt 0.601676 0.078312
vt 0.566164 0.595491
vt 0.050812 0.594782
vt 0.032269 0.076000
vt 0.599695 0.074294
vt 0.054895 0.595594
vt 0.560442 0.595866
vt 0.035006 0.071903
vt 0.597206 0.070569
vt 0.059049 0.595866
vt 0.038254 0.068200
vt 0.594252 0.067200
vt 0.041958 0.064951
vt 0.590883 0.064246
vt 0.587158 0.061757
vt 0.046054 0.062214
vt 0.050472 0.060036
vt 0.583140 0.059776
vt 0.574504 0.057462
vt 0.064885 0.057169
vt 0.570034 0.057169
vt 0.059969 0.057491
vt 0.055137 0.058452
vt 0.578898 0.058336
vn -0.0000 0.0000 1.0000
vn 0.0000 0.0000 -1.0000
usemtl material-0.001
s 1
f 4/1/1 2/2/1 1/3/1
f 3/4/2 1/3/2 5/5/2
f 4/1/1 6/6/1 2/2/1
f 4/1/1 1/3/1 7/7/1
f 7/7/1 1/3/1 5/5/1
f 9/8/2 3/4/2 5/5/2
f 4/1/1 10/9/1 6/6/1
f 8/10/2 3/4/2 9/8/2
f 11/11/1 10/9/1 4/1/1
f 9/8/1 8/10/1 13/12/1
f 10/9/2 14/13/2 11/11/2
f 12/14/2 8/10/2 13/12/2
f 11/11/2 14/13/2 15/15/2
f 17/16/2 12/14/2 13/12/2
f 15/15/1 18/17/1 14/13/1
f 16/18/2 12/14/2 17/16/2
f 15/15/2 18/17/2 21/19/2
f 25/20/1 16/18/1 20/21/1
f 17/16/1 16/18/1 26/22/1
f 18/17/2 23/23/2 21/19/2
f 19/24/1 22/25/1 27/26/1
f 24/27/2 20/21/2 30/28/2
f 26/22/1 16/18/1 25/20/1
f 25/20/1 20/21/1 30/28/1
f 31/29/1 23/23/1 21/19/1
f 28/30/1 27/26/1 22/25/1
f 34/31/1 24/27/1 29/32/1
f 30/28/1 24/27/1 34/31/1
f 23/23/2 32/33/2 31/29/2
f 33/34/2 29/32/2 38/35/2
f 38/35/2 29/32/2 34/31/2
f 39/36/1 32/33/1 31/29/1
f 39/36/1 36/37/1 32/33/1
f 43/38/1 33/34/1 37/39/1
f 38/35/1 33/34/1 43/38/1
f 39/36/2 36/37/2 44/40/2
f 36/37/2 42/41/2 44/40/2
f 47/42/2 37/39/2 43/38/2
f 49/43/1 42/41/1 44/40/1
f 49/43/1 45/44/1 42/41/1
f 49/43/2 45/44/2 53/45/2
f 53/45/1 46/46/1 45/44/1
f 46/46/2 50/47/2 54/48/2
f 54/48/1 46/46/1 53/45/1
f 58/49/1 50/47/1 54/48/1
f 58/49/1 55/50/1 50/47/1
f 60/51/1 52/52/1 56/53/1
f 52/52/1 60/51/1 57/54/1
f 58/49/2 55/50/2 61/55/2
f 55/50/2 59/56/2 61/55/2
f 57/54/1 59/56/1 61/55/1
f 59/56/2 60/51/2 57/54/2
l 40 41
l 35 40
l 48 51
