mtllib new-4.mtl
v -0.511525 -0.454491 0.677926
v 0.495595 -0.454491 0.677926
v -0.511525 0.309246 0.677926
v -0.511525 -0.454491 0.681021
v 0.495595 0.309246 0.677926
v 0.495595 -0.454491 0.681021
v 0.495595 0.309246 0.681021
v -0.511525 0.309246 0.681021
vn 0.000000 0.000000 -1.000000
vn 0.000000 0.000000 1.000000
vn 0.000000 1.000000 0.000000
vn 0.000000 -1.000000 0.000000
vt 0.043155 0.043155
vt 0.633724 0.043155
vt 0.043155 0.491005
vt 0.633724 0.491005
vt 0.678023 0.525328
vt 0.046171 0.046171
vt 0.678023 0.046171
vt 0.046171 0.525328
vt 0.016381 0.000000
vt 0.240558 -0.000689
vt 0.240558 0.000000
vt 0.240558 0.186383
vt 0.016381 0.016381
vt 0.240558 0.016381
vt 0.016381 0.186383
vt 0.016381 -0.000689
usemtl material-0
f 2/2/1 1/1/1 5/4/1
f 3/3/1 5/4/1 1/1/1
usemtl material-1
f 5/5/2 1/6/2 2/7/2
f 1/6/2 5/5/2 3/8/2
usemtl material-2
f 3/9/3 7/10/3 5/11/3
f 7/12/2 4/13/2 6/14/2
f 4/13/2 7/12/2 8/15/2
f 7/10/3 3/9/3 8/16/3
usemtl material-3
f 5/11/4 7/10/4 3/9/4
f 6/14/1 4/13/1 7/12/1
f 8/15/1 7/12/1 4/13/1
f 8/16/4 3/9/4 7/10/4