# SSTK version 0.8.0
# 48
mtllib original-48.mtl
o _3_1/_3/mesh49/mesh49-geometry#mesh49-geometry
v 0.706535 0.104717 0.516508
v 0.702839 0.098969 0.516508
v 0.702839 0.103388 0.516508
v 0.703090 0.098969 0.516508
v 0.704420 0.099828 0.516508
v 0.706168 0.100707 0.516508
v 0.708388 0.101419 0.516508
v 0.708814 0.105165 0.516508
v 0.710649 0.101691 0.516508
v 0.710984 0.105314 0.516508
v 0.712701 0.101482 0.516508
v 0.714680 0.104885 0.516508
v 0.714460 0.100728 0.516508
v 0.715633 0.099378 0.516508
v 0.716185 0.104338 0.516508
v 0.715978 0.098448 0.516508
v 0.716093 0.097357 0.516508
v 0.716764 0.091682 0.516508
v 0.715983 0.096156 0.516508
v 0.717538 0.103555 0.516508
v 0.715651 0.095106 0.516508
v 0.718627 0.093274 0.516508
v 0.715098 0.094208 0.516508
v 0.718750 0.102445 0.516508
v 0.714565 0.090803 0.516508
v 0.719899 0.095378 0.516508
v 0.714324 0.093462 0.516508
v 0.719622 0.101126 0.516508
v 0.714565 0.090510 0.516508
v 0.720148 0.099582 0.516508
v 0.712733 0.088405 0.516508
v 0.720323 0.097797 0.516508
v 0.712290 0.092457 0.516508
v 0.714816 0.087536 0.516508
v 0.710126 0.088646 0.516508
v 0.716669 0.089861 0.516508
v 0.709728 0.092122 0.516508
v 0.715599 0.086793 0.516508
v 0.708346 0.088646 0.516508
v 0.716188 0.085819 0.516508
v 0.708346 0.092122 0.516508
v 0.716557 0.084579 0.516508
v 0.716680 0.083034 0.516508
v 0.718753 0.088499 0.516508
v 0.718166 0.075726 0.516508
v 0.719336 0.077190 0.516508
v 0.716664 0.074475 0.516508
v 0.719627 0.087471 0.516508
v 0.716570 0.081485 0.516508
v 0.720208 0.078857 0.516508
v 0.716240 0.080228 0.516508
v 0.720323 0.086186 0.516508
v 0.714963 0.078197 0.516508
v 0.720750 0.080713 0.516508
v 0.714879 0.073570 0.516508
v 0.720779 0.084618 0.516508
v 0.713997 0.077404 0.516508
v 0.720930 0.082741 0.516508
v 0.712822 0.073020 0.516508
v 0.712816 0.076868 0.516508
v 0.710503 0.072837 0.516508
v 0.710251 0.076459 0.516508
v 0.708168 0.072978 0.516508
v 0.708032 0.076679 0.516508
v 0.705854 0.073402 0.516508
v 0.705812 0.077339 0.516508
v 0.702273 0.079181 0.516508
v 0.701980 0.074763 0.516508
v 0.701980 0.079181 0.516508
vn 0 0 -1
vn 0 0 1
usemtl material_0_0
f 1//1 2//1 3//1
f 2//1 1//1 4//1
f 3//2 2//2 1//2
f 4//2 1//2 2//2
f 4//1 1//1 5//1
f 5//2 1//2 4//2
f 5//1 1//1 6//1
f 6//2 1//2 5//2
f 6//1 1//1 7//1
f 7//2 1//2 6//2
f 7//1 1//1 8//1
f 8//2 1//2 7//2
f 7//1 8//1 9//1
f 9//2 8//2 7//2
f 9//1 8//1 10//1
f 10//2 8//2 9//2
f 9//1 10//1 11//1
f 11//2 10//2 9//2
f 11//1 10//1 12//1
f 12//2 10//2 11//2
f 11//1 12//1 13//1
f 13//2 12//2 11//2
f 13//1 12//1 14//1
f 14//2 12//2 13//2
f 14//1 12//1 15//1
f 15//2 12//2 14//2
f 14//1 15//1 16//1
f 16//2 15//2 14//2
f 16//1 15//1 17//1
f 17//2 15//2 16//2
f 18//1 17//1 15//1
f 15//2 17//2 18//2
f 18//1 19//1 17//1
f 17//2 19//2 18//2
f 18//1 15//1 20//1
f 20//2 15//2 18//2
f 18//1 21//1 19//1
f 19//2 21//2 18//2
f 18//1 20//1 22//1
f 22//2 20//2 18//2
f 18//1 23//1 21//1
f 21//2 23//2 18//2
f 22//1 20//1 24//1
f 24//2 20//2 22//2
f 25//1 23//1 18//1
f 18//2 23//2 25//2
f 22//1 24//1 26//1
f 26//2 24//2 22//2
f 23//1 25//1 27//1
f 27//2 25//2 23//2
f 26//1 24//1 28//1
f 28//2 24//2 26//2
f 29//1 27//1 25//1
f 25//2 27//2 29//2
f 26//1 28//1 30//1
f 30//2 28//2 26//2
f 31//1 27//1 29//1
f 29//2 27//2 31//2
f 26//1 30//1 32//1
f 32//2 30//2 26//2
f 31//1 33//1 27//1
f 27//2 33//2 31//2
f 31//1 29//1 34//1
f 34//2 29//2 31//2
f 35//1 33//1 31//1
f 31//2 33//2 35//2
f 34//1 29//1 36//1
f 36//2 29//2 34//2
f 35//1 37//1 33//1
f 33//2 37//2 35//2
f 34//1 36//1 38//1
f 38//2 36//2 34//2
f 39//1 37//1 35//1
f 35//2 37//2 39//2
f 38//1 36//1 40//1
f 40//2 36//2 38//2
f 37//1 39//1 41//1
f 41//2 39//2 37//2
f 40//1 36//1 42//1
f 42//2 36//2 40//2
f 42//1 36//1 43//1
f 43//2 36//2 42//2
f 43//1 36//1 44//1
f 44//2 36//2 43//2
f 43//1 44//1 45//1
f 45//2 44//2 43//2
f 45//1 44//1 46//1
f 46//2 44//2 45//2
f 47//1 43//1 45//1
f 45//2 43//2 47//2
f 46//1 44//1 48//1
f 48//2 44//2 46//2
f 47//1 49//1 43//1
f 43//2 49//2 47//2
f 46//1 48//1 50//1
f 50//2 48//2 46//2
f 47//1 51//1 49//1
f 49//2 51//2 47//2
f 50//1 48//1 52//1
f 52//2 48//2 50//2
f 47//1 53//1 51//1
f 51//2 53//2 47//2
f 50//1 52//1 54//1
f 54//2 52//2 50//2
f 55//1 53//1 47//1
f 47//2 53//2 55//2
f 54//1 52//1 56//1
f 56//2 52//2 54//2
f 55//1 57//1 53//1
f 53//2 57//2 55//2
f 54//1 56//1 58//1
f 58//2 56//2 54//2
f 59//1 57//1 55//1
f 55//2 57//2 59//2
f 59//1 60//1 57//1
f 57//2 60//2 59//2
f 61//1 60//1 59//1
f 59//2 60//2 61//2
f 61//1 62//1 60//1
f 60//2 62//2 61//2
f 63//1 62//1 61//1
f 61//2 62//2 63//2
f 63//1 64//1 62//1
f 62//2 64//2 63//2
f 65//1 64//1 63//1
f 63//2 64//2 65//2
f 65//1 66//1 64//1
f 64//2 66//2 65//2
f 65//1 67//1 66//1
f 66//2 67//2 65//2
f 68//1 67//1 65//1
f 65//2 67//2 68//2
f 67//1 68//1 69//1
f 69//2 68//2 67//2
