# SSTK version 0.8.0
# 25
mtllib original-25.mtl
o mesh12/mesh12-geometry#mesh12-geometry
v 0.234213 0.502385 0.514552
v 0.234209 0.498990 0.514552
v 0.234091 0.500696 0.514552
v 0.234560 0.497522 0.514552
v 0.234578 0.503828 0.514552
v 0.235124 0.496287 0.514552
v 0.235147 0.505042 0.514552
v 0.235879 0.495284 0.514552
v 0.235879 0.506047 0.514552
v 0.236793 0.506844 0.514552
v 0.236495 0.500696 0.514552
v 0.236564 0.501871 0.514552
v 0.236813 0.494509 0.514552
v 0.236768 0.502905 0.514552
v 0.236561 0.499543 0.514552
v 0.237109 0.503797 0.514552
v 0.236759 0.498525 0.514552
v 0.237907 0.507434 0.514552
v 0.237088 0.497642 0.514552
v 0.237587 0.504549 0.514552
v 0.237913 0.493959 0.514552
v 0.238176 0.505145 0.514552
v 0.237550 0.496893 0.514552
v 0.239166 0.507799 0.514552
v 0.238128 0.496297 0.514552
v 0.238855 0.505571 0.514552
v 0.239155 0.493631 0.514552
v 0.239622 0.505826 0.514552
v 0.238809 0.495871 0.514552
v 0.240515 0.507921 0.514552
v 0.239592 0.495616 0.514552
v 0.240478 0.505911 0.514552
v 0.240515 0.493521 0.514552
v 0.241735 0.505726 0.514552
v 0.240478 0.495531 0.514552
v 0.241629 0.507841 0.514552
v 0.241584 0.495648 0.514552
v 0.242703 0.507600 0.514552
v 0.241723 0.493614 0.514552
v 0.242869 0.505295 0.514552
v 0.242635 0.495999 0.514552
v 0.244583 0.506861 0.514552
v 0.242783 0.493879 0.514552
v 0.243812 0.504740 0.514552
v 0.243600 0.496535 0.514552
v 0.244447 0.504259 0.514552
v 0.243720 0.494218 0.514552
v 0.244583 0.504259 0.514552
v 0.244447 0.497207 0.514552
v 0.244583 0.494606 0.514552
v 0.244583 0.497207 0.514552
vn 0 0 -1
vn 0 0 1
usemtl material_0_0
f 1//1 2//1 3//1
f 2//1 1//1 4//1
f 3//2 2//2 1//2
f 4//2 1//2 2//2
f 4//1 1//1 5//1
f 5//2 1//2 4//2
f 4//1 5//1 6//1
f 6//2 5//2 4//2
f 6//1 5//1 7//1
f 7//2 5//2 6//2
f 6//1 7//1 8//1
f 8//2 7//2 6//2
f 8//1 7//1 9//1
f 9//2 7//2 8//2
f 8//1 9//1 10//1
f 10//2 9//2 8//2
f 8//1 10//1 11//1
f 11//2 10//2 8//2
f 11//1 10//1 12//1
f 12//2 10//2 11//2
f 11//1 13//1 8//1
f 8//2 13//2 11//2
f 12//1 10//1 14//1
f 14//2 10//2 12//2
f 13//1 11//1 15//1
f 15//2 11//2 13//2
f 14//1 10//1 16//1
f 16//2 10//2 14//2
f 13//1 15//1 17//1
f 17//2 15//2 13//2
f 16//1 10//1 18//1
f 18//2 10//2 16//2
f 13//1 17//1 19//1
f 19//2 17//2 13//2
f 16//1 18//1 20//1
f 20//2 18//2 16//2
f 13//1 19//1 21//1
f 21//2 19//2 13//2
f 20//1 18//1 22//1
f 22//2 18//2 20//2
f 21//1 19//1 23//1
f 23//2 19//2 21//2
f 22//1 18//1 24//1
f 24//2 18//2 22//2
f 21//1 23//1 25//1
f 25//2 23//2 21//2
f 22//1 24//1 26//1
f 26//2 24//2 22//2
f 21//1 25//1 27//1
f 27//2 25//2 21//2
f 26//1 24//1 28//1
f 28//2 24//2 26//2
f 27//1 25//1 29//1
f 29//2 25//2 27//2
f 28//1 24//1 30//1
f 30//2 24//2 28//2
f 27//1 29//1 31//1
f 31//2 29//2 27//2
f 28//1 30//1 32//1
f 32//2 30//2 28//2
f 27//1 31//1 33//1
f 33//2 31//2 27//2
f 32//1 30//1 34//1
f 34//2 30//2 32//2
f 33//1 31//1 35//1
f 35//2 31//2 33//2
f 34//1 30//1 36//1
f 36//2 30//2 34//2
f 33//1 35//1 37//1
f 37//2 35//2 33//2
f 34//1 36//1 38//1
f 38//2 36//2 34//2
f 33//1 37//1 39//1
f 39//2 37//2 33//2
f 34//1 38//1 40//1
f 40//2 38//2 34//2
f 39//1 37//1 41//1
f 41//2 37//2 39//2
f 40//1 38//1 42//1
f 42//2 38//2 40//2
f 39//1 41//1 43//1
f 43//2 41//2 39//2
f 40//1 42//1 44//1
f 44//2 42//2 40//2
f 43//1 41//1 45//1
f 45//2 41//2 43//2
f 44//1 42//1 46//1
f 46//2 42//2 44//2
f 43//1 45//1 47//1
f 47//2 45//2 43//2
f 46//1 42//1 48//1
f 48//2 42//2 46//2
f 47//1 45//1 49//1
f 49//2 45//2 47//2
f 47//1 49//1 50//1
f 50//2 49//2 47//2
f 50//1 49//1 51//1
f 51//2 49//2 50//2
