# SSTK version 0.8.0
# 108
mtllib original-108.mtl
o 3dw.47c68395a5775e10d9deb3f829cc2475/Model/Component_18_1/Component_18/mesh1/mesh1-geometry/material_12/component_0#mesh1-geometry
v -0.25686 0.758765 0.325309
v -0.189308 0.758765 0.327107
v -0.223202 0.758765 0.330655
v -0.287987 0.758765 0.311435
v -0.222867 0.758765 0.318069
v -0.25686 0.758765 0.325309
v -0.192242 0.758765 0.314863
v -0.157487 0.758765 0.314908
v -0.189308 0.758765 0.327107
v -0.25686 0.758765 0.325309
v -0.222867 0.758765 0.318069
v -0.189308 0.758765 0.327107
v -0.314462 0.758765 0.289976
v -0.281403 0.758765 0.300702
v -0.287987 0.758765 0.311435
v -0.287987 0.758765 0.311435
v -0.253279 0.758765 0.313238
v -0.222867 0.758765 0.318069
v -0.163491 0.758765 0.303841
v -0.157487 0.758765 0.314908
v -0.192242 0.758765 0.314863
v -0.192242 0.758765 0.314863
v -0.189308 0.758765 0.327107
v -0.222867 0.758765 0.318069
v -0.334481 0.758765 0.262397
v -0.305325 0.758765 0.281313
v -0.314462 0.758765 0.289976
v -0.314462 0.758765 0.289976
v -0.305325 0.758765 0.281313
v -0.281403 0.758765 0.300702
v -0.287987 0.758765 0.311435
v -0.281403 0.758765 0.300702
v -0.253279 0.758765 0.313238
v -0.253279 0.758765 0.313238
v -0.222867 0.726129 0.318069
v -0.222867 0.758765 0.318069
v -0.163491 0.758765 0.303841
v -0.129908 0.758765 0.294889
v -0.157487 0.758765 0.314908
v -0.192242 0.758765 0.314863
v -0.163491 0.726129 0.303841
v -0.163491 0.758765 0.303841
v -0.222867 0.758765 0.318069
v -0.192242 0.726129 0.314863
v -0.192242 0.758765 0.314863
v -0.34668 0.758765 0.230576
v -0.323414 0.758765 0.256394
v -0.334481 0.758765 0.262397
v -0.334481 0.758765 0.262397
v -0.323414 0.758765 0.256394
v -0.305325 0.758765 0.281313
v -0.305325 0.758765 0.281313
v -0.281403 0.726129 0.300702
v -0.281403 0.758765 0.300702
v -0.281403 0.758765 0.300702
v -0.253279 0.726129 0.313238
v -0.253279 0.758765 0.313238
v -0.222867 0.726129 0.318069
v -0.253279 0.758765 0.313238
v -0.253279 0.726129 0.313238
v -0.192242 0.726129 0.314863
v -0.222867 0.758765 0.318069
v -0.222867 0.726129 0.318069
v -0.331008 0.758765 0.131898
v -0.320275 0.758765 0.138481
v -0.344882 0.758765 0.163025
v -0.344882 0.758765 0.163025
v -0.332811 0.758765 0.166606
v -0.350228 0.758765 0.196682
v -0.138571 0.758765 0.285752
v -0.129908 0.758765 0.294889
v -0.163491 0.758765 0.303841
v -0.163491 0.726129 0.303841
v -0.192242 0.758765 0.314863
v -0.192242 0.726129 0.314863
v -0.138571 0.726129 0.285752
v -0.163491 0.758765 0.303841
v -0.163491 0.726129 0.303841
v -0.350228 0.758765 0.196682
v -0.334436 0.758765 0.227642
v -0.34668 0.758765 0.230576
v -0.34668 0.758765 0.230576
v -0.334436 0.758765 0.227642
v -0.323414 0.758765 0.256394
v -0.323414 0.726129 0.256394
v -0.305325 0.758765 0.281313
v -0.323414 0.758765 0.256394
v -0.281403 0.726129 0.300702
v -0.305325 0.758765 0.281313
v -0.305325 0.726129 0.281313
v -0.253279 0.726129 0.313238
v -0.281403 0.758765 0.300702
v -0.281403 0.726129 0.300702
v -0.331008 0.758765 0.131898
v -0.300886 0.758765 0.114559
v -0.320275 0.758765 0.138481
v -0.344882 0.758765 0.163025
v -0.320275 0.758765 0.138481
v -0.332811 0.758765 0.166606
v -0.350228 0.758765 0.196682
v -0.332811 0.758765 0.166606
v -0.337641 0.758765 0.197017
v -0.138571 0.758765 0.285752
v -0.10845 0.758765 0.268414
v -0.129908 0.758765 0.294889
v -0.163491 0.758765 0.303841
v -0.138571 0.726129 0.285752
v -0.138571 0.758765 0.285752
v -0.350228 0.758765 0.196682
v -0.337641 0.758765 0.197017
v -0.334436 0.758765 0.227642
v -0.334436 0.726129 0.227642
v -0.323414 0.758765 0.256394
v -0.334436 0.758765 0.227642
v -0.305325 0.758765 0.281313
v -0.323414 0.726129 0.256394
v -0.305325 0.726129 0.281313
v -0.323414 0.758765 0.256394
v -0.334436 0.726129 0.227642
v -0.323414 0.726129 0.256394
v -0.309549 0.758765 0.105422
v -0.300886 0.758765 0.114559
v -0.331008 0.758765 0.131898
v -0.300886 0.726129 0.114559
v -0.320275 0.758765 0.138481
v -0.300886 0.758765 0.114559
v -0.320275 0.726129 0.138481
v -0.332811 0.758765 0.166606
v -0.320275 0.758765 0.138481
v -0.332811 0.726129 0.166606
v -0.337641 0.758765 0.197017
v -0.332811 0.758765 0.166606
v -0.119183 0.758765 0.26183
v -0.10845 0.758765 0.268414
v -0.138571 0.758765 0.285752
v -0.138571 0.726129 0.285752
v -0.119183 0.758765 0.26183
v -0.138571 0.758765 0.285752
v -0.337641 0.726129 0.197017
v -0.334436 0.758765 0.227642
v -0.337641 0.758765 0.197017
v -0.334436 0.758765 0.227642
v -0.337641 0.726129 0.197017
v -0.334436 0.726129 0.227642
v -0.309549 0.758765 0.105422
v -0.275967 0.758765 0.096471
v -0.300886 0.758765 0.114559
v -0.320275 0.758765 0.138481
v -0.300886 0.726129 0.114559
v -0.320275 0.726129 0.138481
v -0.275967 0.758765 0.096471
v -0.300886 0.726129 0.114559
v -0.300886 0.758765 0.114559
v -0.332811 0.758765 0.166606
v -0.320275 0.726129 0.138481
v -0.332811 0.726129 0.166606
v -0.337641 0.758765 0.197017
v -0.332811 0.726129 0.166606
v -0.337641 0.726129 0.197017
v -0.119183 0.758765 0.26183
v -0.094575 0.758765 0.237287
v -0.10845 0.758765 0.268414
v -0.119183 0.758765 0.26183
v -0.138571 0.726129 0.285752
v -0.119183 0.726129 0.26183
v -0.28197 0.758765 0.085403
v -0.275967 0.758765 0.096471
v -0.309549 0.758765 0.105422
v -0.300886 0.726129 0.114559
v -0.275967 0.758765 0.096471
v -0.275967 0.726129 0.096471
v -0.106646 0.758765 0.233706
v -0.094575 0.758765 0.237287
v -0.119183 0.758765 0.26183
v -0.119183 0.726129 0.26183
v -0.106646 0.758765 0.233706
v -0.119183 0.758765 0.26183
v -0.21659 0.758765 0.082243
v -0.28197 0.758765 0.085403
v -0.250149 0.758765 0.073204
v -0.28197 0.758765 0.085403
v -0.247215 0.758765 0.085448
v -0.275967 0.758765 0.096471
v -0.247215 0.758765 0.085448
v -0.275967 0.726129 0.096471
v -0.275967 0.758765 0.096471
v -0.101816 0.758765 0.203294
v -0.094575 0.758765 0.237287
v -0.106646 0.758765 0.233706
v -0.106646 0.758765 0.233706
v -0.119183 0.726129 0.26183
v -0.106646 0.726129 0.233706
v -0.101816 0.758765 0.203294
v -0.089229 0.758765 0.20363
v -0.094575 0.758765 0.237287
v -0.182598 0.758765 0.075002
v -0.250149 0.758765 0.073204
v -0.216255 0.758765 0.069656
v -0.28197 0.758765 0.085403
v -0.21659 0.758765 0.082243
v -0.247215 0.758765 0.085448
v -0.250149 0.758765 0.073204
v -0.151471 0.758765 0.088877
v -0.21659 0.758765 0.082243
v -0.275967 0.726129 0.096471
v -0.247215 0.758765 0.085448
v -0.247215 0.726129 0.085448
v -0.106646 0.726129 0.233706
v -0.101816 0.758765 0.203294
v -0.106646 0.758765 0.233706
v -0.105021 0.758765 0.172669
v -0.089229 0.758765 0.20363
v -0.101816 0.758765 0.203294
v -0.105021 0.758765 0.172669
v -0.092777 0.758765 0.169735
v -0.089229 0.758765 0.20363
v -0.250149 0.758765 0.073204
v -0.182598 0.758765 0.075002
v -0.151471 0.758765 0.088877
v -0.21659 0.758765 0.082243
v -0.247215 0.726129 0.085448
v -0.247215 0.758765 0.085448
v -0.21659 0.758765 0.082243
v -0.151471 0.758765 0.088877
v -0.186179 0.758765 0.087073
v -0.101816 0.758765 0.203294
v -0.106646 0.726129 0.233706
v -0.101816 0.726129 0.203294
v -0.101816 0.726129 0.203294
v -0.105021 0.758765 0.172669
v -0.101816 0.758765 0.203294
v -0.116044 0.758765 0.143918
v -0.092777 0.758765 0.169735
v -0.105021 0.758765 0.172669
v -0.247215 0.726129 0.085448
v -0.21659 0.758765 0.082243
v -0.21659 0.726129 0.082243
v -0.186179 0.758765 0.087073
v -0.151471 0.758765 0.088877
v -0.124995 0.758765 0.110335
v -0.186179 0.758765 0.087073
v -0.21659 0.726129 0.082243
v -0.21659 0.758765 0.082243
v -0.105021 0.758765 0.172669
v -0.101816 0.726129 0.203294
v -0.105021 0.726129 0.172669
v -0.116044 0.758765 0.143918
v -0.104976 0.758765 0.137914
v -0.092777 0.758765 0.169735
v -0.105021 0.726129 0.172669
v -0.116044 0.758765 0.143918
v -0.105021 0.758765 0.172669
v -0.186179 0.758765 0.087073
v -0.124995 0.758765 0.110335
v -0.158054 0.758765 0.09961
v -0.21659 0.726129 0.082243
v -0.186179 0.758765 0.087073
v -0.186179 0.726129 0.087073
v -0.186179 0.726129 0.087073
v -0.158054 0.758765 0.09961
v -0.158054 0.726129 0.09961
v -0.134132 0.758765 0.118998
v -0.104976 0.758765 0.137914
v -0.116044 0.758765 0.143918
v -0.116044 0.758765 0.143918
v -0.105021 0.726129 0.172669
v -0.116044 0.726129 0.143918
v -0.158054 0.758765 0.09961
v -0.124995 0.758765 0.110335
v -0.134132 0.758765 0.118998
v -0.158054 0.758765 0.09961
v -0.186179 0.726129 0.087073
v -0.186179 0.758765 0.087073
v -0.134132 0.758765 0.118998
v -0.158054 0.726129 0.09961
v -0.158054 0.758765 0.09961
v -0.158054 0.726129 0.09961
v -0.134132 0.758765 0.118998
v -0.134132 0.726129 0.118998
v -0.134132 0.758765 0.118998
v -0.124995 0.758765 0.110335
v -0.104976 0.758765 0.137914
v -0.116044 0.726129 0.143918
v -0.134132 0.758765 0.118998
v -0.116044 0.758765 0.143918
v -0.134132 0.758765 0.118998
v -0.116044 0.726129 0.143918
v -0.134132 0.726129 0.118998
v -0.223202 0.758765 0.330655
v -0.189308 0.758765 0.327107
v -0.25686 0.758765 0.325309
v -0.25686 0.758765 0.325309
v -0.222867 0.758765 0.318069
v -0.287987 0.758765 0.311435
v -0.189308 0.758765 0.327107
v -0.157487 0.758765 0.314908
v -0.192242 0.758765 0.314863
v -0.189308 0.758765 0.327107
v -0.222867 0.758765 0.318069
v -0.25686 0.758765 0.325309
v -0.287987 0.758765 0.311435
v -0.281403 0.758765 0.300702
v -0.314462 0.758765 0.289976
v -0.222867 0.758765 0.318069
v -0.253279 0.758765 0.313238
v -0.287987 0.758765 0.311435
v -0.192242 0.758765 0.314863
v -0.157487 0.758765 0.314908
v -0.163491 0.758765 0.303841
v -0.222867 0.758765 0.318069
v -0.189308 0.758765 0.327107
v -0.192242 0.758765 0.314863
v -0.314462 0.758765 0.289976
v -0.305325 0.758765 0.281313
v -0.334481 0.758765 0.262397
v -0.281403 0.758765 0.300702
v -0.305325 0.758765 0.281313
v -0.314462 0.758765 0.289976
v -0.253279 0.758765 0.313238
v -0.281403 0.758765 0.300702
v -0.287987 0.758765 0.311435
v -0.222867 0.758765 0.318069
v -0.222867 0.726129 0.318069
v -0.253279 0.758765 0.313238
v -0.157487 0.758765 0.314908
v -0.129908 0.758765 0.294889
v -0.163491 0.758765 0.303841
v -0.163491 0.758765 0.303841
v -0.163491 0.726129 0.303841
v -0.192242 0.758765 0.314863
v -0.192242 0.758765 0.314863
v -0.192242 0.726129 0.314863
v -0.222867 0.758765 0.318069
v -0.334481 0.758765 0.262397
v -0.323414 0.758765 0.256394
v -0.34668 0.758765 0.230576
v -0.305325 0.758765 0.281313
v -0.323414 0.758765 0.256394
v -0.334481 0.758765 0.262397
v -0.281403 0.758765 0.300702
v -0.281403 0.726129 0.300702
v -0.305325 0.758765 0.281313
v -0.253279 0.758765 0.313238
v -0.253279 0.726129 0.313238
v -0.281403 0.758765 0.300702
v -0.253279 0.726129 0.313238
v -0.253279 0.758765 0.313238
v -0.222867 0.726129 0.318069
v -0.222867 0.726129 0.318069
v -0.222867 0.758765 0.318069
v -0.192242 0.726129 0.314863
v -0.344882 0.758765 0.163025
v -0.320275 0.758765 0.138481
v -0.331008 0.758765 0.131898
v -0.350228 0.758765 0.196682
v -0.332811 0.758765 0.166606
v -0.344882 0.758765 0.163025
v -0.163491 0.758765 0.303841
v -0.129908 0.758765 0.294889
v -0.138571 0.758765 0.285752
v -0.192242 0.726129 0.314863
v -0.192242 0.758765 0.314863
v -0.163491 0.726129 0.303841
v -0.163491 0.726129 0.303841
v -0.163491 0.758765 0.303841
v -0.138571 0.726129 0.285752
v -0.34668 0.758765 0.230576
v -0.334436 0.758765 0.227642
v -0.350228 0.758765 0.196682
v -0.323414 0.758765 0.256394
v -0.334436 0.758765 0.227642
v -0.34668 0.758765 0.230576
v -0.323414 0.758765 0.256394
v -0.305325 0.758765 0.281313
v -0.323414 0.726129 0.256394
v -0.305325 0.726129 0.281313
v -0.305325 0.758765 0.281313
v -0.281403 0.726129 0.300702
v -0.281403 0.726129 0.300702
v -0.281403 0.758765 0.300702
v -0.253279 0.726129 0.313238
v -0.320275 0.758765 0.138481
v -0.300886 0.758765 0.114559
v -0.331008 0.758765 0.131898
v -0.332811 0.758765 0.166606
v -0.320275 0.758765 0.138481
v -0.344882 0.758765 0.163025
v -0.337641 0.758765 0.197017
v -0.332811 0.758765 0.166606
v -0.350228 0.758765 0.196682
v -0.129908 0.758765 0.294889
v -0.10845 0.758765 0.268414
v -0.138571 0.758765 0.285752
v -0.138571 0.758765 0.285752
v -0.138571 0.726129 0.285752
v -0.163491 0.758765 0.303841
v -0.334436 0.758765 0.227642
v -0.337641 0.758765 0.197017
v -0.350228 0.758765 0.196682
v -0.334436 0.758765 0.227642
v -0.323414 0.758765 0.256394
v -0.334436 0.726129 0.227642
v -0.305325 0.726129 0.281313
v -0.323414 0.726129 0.256394
v -0.305325 0.758765 0.281313
v -0.323414 0.726129 0.256394
v -0.334436 0.726129 0.227642
v -0.323414 0.758765 0.256394
v -0.331008 0.758765 0.131898
v -0.300886 0.758765 0.114559
v -0.309549 0.758765 0.105422
v -0.300886 0.758765 0.114559
v -0.320275 0.758765 0.138481
v -0.300886 0.726129 0.114559
v -0.320275 0.758765 0.138481
v -0.332811 0.758765 0.166606
v -0.320275 0.726129 0.138481
v -0.332811 0.758765 0.166606
v -0.337641 0.758765 0.197017
v -0.332811 0.726129 0.166606
v -0.138571 0.758765 0.285752
v -0.10845 0.758765 0.268414
v -0.119183 0.758765 0.26183
v -0.138571 0.758765 0.285752
v -0.119183 0.758765 0.26183
v -0.138571 0.726129 0.285752
v -0.337641 0.758765 0.197017
v -0.334436 0.758765 0.227642
v -0.337641 0.726129 0.197017
v -0.334436 0.726129 0.227642
v -0.337641 0.726129 0.197017
v -0.334436 0.758765 0.227642
v -0.300886 0.758765 0.114559
v -0.275967 0.758765 0.096471
v -0.309549 0.758765 0.105422
v -0.320275 0.726129 0.138481
v -0.300886 0.726129 0.114559
v -0.320275 0.758765 0.138481
v -0.300886 0.758765 0.114559
v -0.300886 0.726129 0.114559
v -0.275967 0.758765 0.096471
v -0.332811 0.726129 0.166606
v -0.320275 0.726129 0.138481
v -0.332811 0.758765 0.166606
v -0.337641 0.726129 0.197017
v -0.332811 0.726129 0.166606
v -0.337641 0.758765 0.197017
v -0.10845 0.758765 0.268414
v -0.094575 0.758765 0.237287
v -0.119183 0.758765 0.26183
v -0.119183 0.726129 0.26183
v -0.138571 0.726129 0.285752
v -0.119183 0.758765 0.26183
v -0.309549 0.758765 0.105422
v -0.275967 0.758765 0.096471
v -0.28197 0.758765 0.085403
v -0.275967 0.726129 0.096471
v -0.275967 0.758765 0.096471
v -0.300886 0.726129 0.114559
v -0.119183 0.758765 0.26183
v -0.094575 0.758765 0.237287
v -0.106646 0.758765 0.233706
v -0.119183 0.758765 0.26183
v -0.106646 0.758765 0.233706
v -0.119183 0.726129 0.26183
v -0.250149 0.758765 0.073204
v -0.28197 0.758765 0.085403
v -0.21659 0.758765 0.082243
v -0.275967 0.758765 0.096471
v -0.247215 0.758765 0.085448
v -0.28197 0.758765 0.085403
v -0.275967 0.758765 0.096471
v -0.275967 0.726129 0.096471
v -0.247215 0.758765 0.085448
v -0.106646 0.758765 0.233706
v -0.094575 0.758765 0.237287
v -0.101816 0.758765 0.203294
v -0.106646 0.726129 0.233706
v -0.119183 0.726129 0.26183
v -0.106646 0.758765 0.233706
v -0.094575 0.758765 0.237287
v -0.089229 0.758765 0.20363
v -0.101816 0.758765 0.203294
v -0.216255 0.758765 0.069656
v -0.250149 0.758765 0.073204
v -0.182598 0.758765 0.075002
v -0.247215 0.758765 0.085448
v -0.21659 0.758765 0.082243
v -0.28197 0.758765 0.085403
v -0.21659 0.758765 0.082243
v -0.151471 0.758765 0.088877
v -0.250149 0.758765 0.073204
v -0.247215 0.726129 0.085448
v -0.247215 0.758765 0.085448
v -0.275967 0.726129 0.096471
v -0.106646 0.758765 0.233706
v -0.101816 0.758765 0.203294
v -0.106646 0.726129 0.233706
v -0.101816 0.758765 0.203294
v -0.089229 0.758765 0.20363
v -0.105021 0.758765 0.172669
v -0.089229 0.758765 0.20363
v -0.092777 0.758765 0.169735
v -0.105021 0.758765 0.172669
v -0.151471 0.758765 0.088877
v -0.182598 0.758765 0.075002
v -0.250149 0.758765 0.073204
v -0.247215 0.758765 0.085448
v -0.247215 0.726129 0.085448
v -0.21659 0.758765 0.082243
v -0.186179 0.758765 0.087073
v -0.151471 0.758765 0.088877
v -0.21659 0.758765 0.082243
v -0.101816 0.726129 0.203294
v -0.106646 0.726129 0.233706
v -0.101816 0.758765 0.203294
v -0.101816 0.758765 0.203294
v -0.105021 0.758765 0.172669
v -0.101816 0.726129 0.203294
v -0.105021 0.758765 0.172669
v -0.092777 0.758765 0.169735
v -0.116044 0.758765 0.143918
v -0.21659 0.726129 0.082243
v -0.21659 0.758765 0.082243
v -0.247215 0.726129 0.085448
v -0.124995 0.758765 0.110335
v -0.151471 0.758765 0.088877
v -0.186179 0.758765 0.087073
v -0.21659 0.758765 0.082243
v -0.21659 0.726129 0.082243
v -0.186179 0.758765 0.087073
v -0.105021 0.726129 0.172669
v -0.101816 0.726129 0.203294
v -0.105021 0.758765 0.172669
v -0.092777 0.758765 0.169735
v -0.104976 0.758765 0.137914
v -0.116044 0.758765 0.143918
v -0.105021 0.758765 0.172669
v -0.116044 0.758765 0.143918
v -0.105021 0.726129 0.172669
v -0.158054 0.758765 0.09961
v -0.124995 0.758765 0.110335
v -0.186179 0.758765 0.087073
v -0.186179 0.726129 0.087073
v -0.186179 0.758765 0.087073
v -0.21659 0.726129 0.082243
v -0.158054 0.726129 0.09961
v -0.158054 0.758765 0.09961
v -0.186179 0.726129 0.087073
v -0.116044 0.758765 0.143918
v -0.104976 0.758765 0.137914
v -0.134132 0.758765 0.118998
v -0.116044 0.726129 0.143918
v -0.105021 0.726129 0.172669
v -0.116044 0.758765 0.143918
v -0.134132 0.758765 0.118998
v -0.124995 0.758765 0.110335
v -0.158054 0.758765 0.09961
v -0.186179 0.758765 0.087073
v -0.186179 0.726129 0.087073
v -0.158054 0.758765 0.09961
v -0.158054 0.758765 0.09961
v -0.158054 0.726129 0.09961
v -0.134132 0.758765 0.118998
v -0.134132 0.726129 0.118998
v -0.134132 0.758765 0.118998
v -0.158054 0.726129 0.09961
v -0.104976 0.758765 0.137914
v -0.124995 0.758765 0.110335
v -0.134132 0.758765 0.118998
v -0.116044 0.758765 0.143918
v -0.134132 0.758765 0.118998
v -0.116044 0.726129 0.143918
v -0.134132 0.726129 0.118998
v -0.116044 0.726129 0.143918
v -0.134132 0.758765 0.118998
vn 0.0 -1.0 0.0
vn -0.28443058921182257 0.0 0.9586966360223734
vn -0.026609607213106533 0.0 0.9996459017091822
vn 0.23302408795000518 0.0 0.9724709632863432
vn 0.4767782960134387 0.0 0.879023581282392
vn -0.7256721660090207 0.0 0.6880406292362219
vn -0.5228679973897308 0.0 0.8524136656023602
vn 0.6880406292362219 0.0 0.7256721660090207
vn -0.879023581282392 0.0 0.4767782960134387
vn -0.9724709632863432 0.0 0.23302408795000518
vn -0.6880406292362219 0.0 -0.7256721660090207
vn -0.8524136656023602 0.0 -0.5228679973897308
vn -0.9586966360223734 0.0 -0.28443058921182257
vn -0.9996459017091822 0.0 -0.026609607213106533
vn 0.8524136656023602 0.0 0.5228679973897308
vn -0.4767782960134387 0.0 -0.879023581282392
vn 0.9586966360223734 0.0 0.28443058921182257
vn -0.23302408795000518 0.0 -0.9724709632863432
vn 0.9996459017091822 0.0 0.026609607213106533
vn 0.026609607213106533 0.0 -0.9996459017091822
vn 0.9724709632863432 0.0 -0.23302408795000518
vn 0.28443058921182257 0.0 -0.9586966360223734
vn 0.879023581282392 0.0 -0.4767782960134387
vn 0.5228679973897308 0.0 -0.8524136656023602
vn 0.7256721660090207 0.0 -0.6880406292362219
vn 0.0 1.0 0.0
usemtl material_0_0
f 1//1 2//1 3//1
f 4//1 5//1 6//1
f 7//1 8//1 9//1
f 10//1 11//1 12//1
f 13//1 14//1 15//1
f 16//1 17//1 18//1
f 19//1 20//1 21//1
f 22//1 23//1 24//1
f 25//1 26//1 27//1
f 28//1 29//1 30//1
f 31//1 32//1 33//1
f 34//2 35//3 36//3
f 37//1 38//1 39//1
f 40//4 41//5 42//5
f 43//3 44//4 45//4
f 46//1 47//1 48//1
f 49//1 50//1 51//1
f 52//6 53//7 54//7
f 55//7 56//2 57//2
f 58//3 59//2 60//2
f 61//4 62//3 63//3
f 64//1 65//1 66//1
f 67//1 68//1 69//1
f 70//1 71//1 72//1
f 73//5 74//4 75//4
f 76//8 77//5 78//5
f 79//1 80//1 81//1
f 82//1 83//1 84//1
f 85//9 86//6 87//9
f 88//7 89//6 90//6
f 91//2 92//7 93//7
f 94//1 95//1 96//1
f 97//1 98//1 99//1
f 100//1 101//1 102//1
f 103//1 104//1 105//1
f 106//5 107//8 108//8
f 109//1 110//1 111//1
f 112//10 113//9 114//10
f 115//6 116//9 117//6
f 118//9 119//10 120//9
f 121//1 122//1 123//1
f 124//11 125//12 126//11
f 127//12 128//13 129//12
f 130//13 131//14 132//13
f 133//1 134//1 135//1
f 136//8 137//15 138//8
f 139//14 140//10 141//14
f 142//10 143//14 144//10
f 145//1 146//1 147//1
f 148//12 149//11 150//12
f 151//16 152//11 153//11
f 154//13 155//12 156//13
f 157//14 158//13 159//14
f 160//1 161//1 162//1
f 163//15 164//8 165//15
f 166//1 167//1 168//1
f 169//11 170//16 171//16
f 172//1 173//1 174//1
f 175//15 176//17 177//15
f 178//1 179//1 180//1
f 181//1 182//1 183//1
f 184//18 185//16 186//16
f 187//1 188//1 189//1
f 190//17 191//15 192//17
f 193//1 194//1 195//1
f 196//1 197//1 198//1
f 199//1 200//1 201//1
f 202//1 203//1 204//1
f 205//16 206//18 207//18
f 208//17 209//19 210//17
f 211//1 212//1 213//1
f 214//1 215//1 216//1
f 217//1 218//1 219//1
f 220//20 221//18 222//18
f 223//1 224//1 225//1
f 226//19 227//17 228//19
f 229//19 230//21 231//19
f 232//1 233//1 234//1
f 235//18 236//20 237//20
f 238//1 239//1 240//1
f 241//22 242//20 243//20
f 244//21 245//19 246//21
f 247//1 248//1 249//1
f 250//21 251//23 252//21
f 253//1 254//1 255//1
f 256//20 257//22 258//22
f 259//22 260//24 261//24
f 262//1 263//1 264//1
f 265//23 266//21 267//23
f 268//1 269//1 270//1
f 271//24 272//22 273//22
f 274//25 275//24 276//24
f 277//24 278//25 279//25
f 280//1 281//1 282//1
f 283//23 284//25 285//23
f 286//25 287//23 288//25
usemtl material_1_0
f 289//26 290//26 291//26
f 292//26 293//26 294//26
f 295//26 296//26 297//26
f 298//26 299//26 300//26
f 301//26 302//26 303//26
f 304//26 305//26 306//26
f 307//26 308//26 309//26
f 310//26 311//26 312//26
f 313//26 314//26 315//26
f 316//26 317//26 318//26
f 319//26 320//26 321//26
f 322//20 323//20 324//22
f 325//26 326//26 327//26
f 328//16 329//16 330//18
f 331//18 332//18 333//20
f 334//26 335//26 336//26
f 337//26 338//26 339//26
f 340//24 341//24 342//25
f 343//22 344//22 345//24
f 346//22 347//22 348//20
f 349//20 350//20 351//18
f 352//26 353//26 354//26
f 355//26 356//26 357//26
f 358//26 359//26 360//26
f 361//18 362//18 363//16
f 364//16 365//16 366//11
f 367//26 368//26 369//26
f 370//26 371//26 372//26
f 373//23 374//25 375//23
f 376//25 377//25 378//24
f 379//24 380//24 381//22
f 382//26 383//26 384//26
f 385//26 386//26 387//26
f 388//26 389//26 390//26
f 391//26 392//26 393//26
f 394//11 395//11 396//16
f 397//26 398//26 399//26
f 400//21 401//23 402//21
f 403//25 404//23 405//25
f 406//23 407//21 408//23
f 409//26 410//26 411//26
f 412//8 413//15 414//8
f 415//15 416//17 417//15
f 418//17 419//19 420//17
f 421//26 422//26 423//26
f 424//11 425//12 426//11
f 427//19 428//21 429//19
f 430//21 431//19 432//21
f 433//26 434//26 435//26
f 436//15 437//8 438//15
f 439//8 440//8 441//5
f 442//17 443//15 444//17
f 445//19 446//17 447//19
f 448//26 449//26 450//26
f 451//12 452//11 453//12
f 454//26 455//26 456//26
f 457//5 458//5 459//8
f 460//26 461//26 462//26
f 463//12 464//13 465//12
f 466//26 467//26 468//26
f 469//26 470//26 471//26
f 472//5 473//5 474//4
f 475//26 476//26 477//26
f 478//13 479//12 480//13
f 481//26 482//26 483//26
f 484//26 485//26 486//26
f 487//26 488//26 489//26
f 490//26 491//26 492//26
f 493//4 494//4 495//5
f 496//13 497//14 498//13
f 499//26 500//26 501//26
f 502//26 503//26 504//26
f 505//26 506//26 507//26
f 508//4 509//4 510//3
f 511//26 512//26 513//26
f 514//14 515//13 516//14
f 517//14 518//10 519//14
f 520//26 521//26 522//26
f 523//3 524//3 525//4
f 526//26 527//26 528//26
f 529//3 530//3 531//2
f 532//10 533//14 534//10
f 535//26 536//26 537//26
f 538//10 539//9 540//10
f 541//26 542//26 543//26
f 544//2 545//2 546//3
f 547//7 548//7 549//2
f 550//26 551//26 552//26
f 553//9 554//10 555//9
f 556//26 557//26 558//26
f 559//2 560//2 561//7
f 562//7 563//7 564//6
f 565//6 566//6 567//7
f 568//26 569//26 570//26
f 571//9 572//6 573//9
f 574//6 575//9 576//6
