# SSTK version 0.8.0
# 96
mtllib original-96.mtl
o 3dw.47c68395a5775e10d9deb3f829cc2475/Model/Component_18_1/Component_18/mesh1/mesh1-geometry/material_9/component_17#mesh1-geometry
v -0.237025 0.758765 -0.512748
v -0.234191 0.747971 -0.512931
v -0.234191 0.758765 -0.512931
v -0.239809 0.758765 -0.513305
v -0.237025 0.747971 -0.512748
v -0.237025 0.758765 -0.512748
v -0.236541 0.747971 -0.562507
v -0.233707 0.758765 -0.562691
v -0.233707 0.747971 -0.562691
v -0.233707 0.747971 -0.562691
v -0.230923 0.758765 -0.562134
v -0.230923 0.747971 -0.562134
v -0.234191 0.747971 -0.512931
v -0.237025 0.758765 -0.512748
v -0.237025 0.747971 -0.512748
v -0.231501 0.747971 -0.513842
v -0.234191 0.758765 -0.512931
v -0.234191 0.747971 -0.512931
v -0.237025 0.747971 -0.512748
v -0.239809 0.758765 -0.513305
v -0.239809 0.747971 -0.513305
v -0.233707 0.758765 -0.562691
v -0.236541 0.747971 -0.562507
v -0.236541 0.758765 -0.562507
v -0.230923 0.758765 -0.562134
v -0.233707 0.747971 -0.562691
v -0.233707 0.758765 -0.562691
v -0.228377 0.758765 -0.560876
v -0.230923 0.747971 -0.562134
v -0.230923 0.758765 -0.562134
v -0.234191 0.758765 -0.512931
v -0.231501 0.747971 -0.513842
v -0.231501 0.758765 -0.513842
v -0.242355 0.758765 -0.514563
v -0.239809 0.747971 -0.513305
v -0.239809 0.758765 -0.513305
v -0.239231 0.747971 -0.561597
v -0.236541 0.758765 -0.562507
v -0.236541 0.747971 -0.562507
v -0.230923 0.747971 -0.562134
v -0.228377 0.758765 -0.560876
v -0.228377 0.747971 -0.560876
v -0.229138 0.747971 -0.515418
v -0.231501 0.758765 -0.513842
v -0.231501 0.747971 -0.513842
v -0.239809 0.747971 -0.513305
v -0.242355 0.758765 -0.514563
v -0.242355 0.747971 -0.514563
v -0.242355 0.747971 -0.514563
v -0.244489 0.758765 -0.516437
v -0.244489 0.747971 -0.516437
v -0.236541 0.758765 -0.562507
v -0.239231 0.747971 -0.561597
v -0.239231 0.758765 -0.561597
v -0.241594 0.747971 -0.560021
v -0.239231 0.758765 -0.561597
v -0.239231 0.747971 -0.561597
v -0.239231 0.758765 -0.561597
v -0.241594 0.747971 -0.560021
v -0.241594 0.758765 -0.560021
v -0.226243 0.758765 -0.559001
v -0.228377 0.747971 -0.560876
v -0.228377 0.758765 -0.560876
v -0.231501 0.758765 -0.513842
v -0.229138 0.747971 -0.515418
v -0.229138 0.758765 -0.515418
v -0.244489 0.758765 -0.516437
v -0.242355 0.747971 -0.514563
v -0.242355 0.758765 -0.514563
v -0.244489 0.758765 -0.516437
v -0.246065 0.747971 -0.5188
v -0.244489 0.747971 -0.516437
v -0.241594 0.747971 -0.560021
v -0.243469 0.758765 -0.557888
v -0.241594 0.758765 -0.560021
v -0.228377 0.747971 -0.560876
v -0.226243 0.758765 -0.559001
v -0.226243 0.747971 -0.559001
v -0.229138 0.747971 -0.515418
v -0.227264 0.758765 -0.517551
v -0.229138 0.758765 -0.515418
v -0.246065 0.747971 -0.5188
v -0.244489 0.758765 -0.516437
v -0.246065 0.758765 -0.5188
v -0.243469 0.758765 -0.557888
v -0.241594 0.747971 -0.560021
v -0.243469 0.747971 -0.557888
v -0.226243 0.758765 -0.559001
v -0.224667 0.747971 -0.556639
v -0.226243 0.747971 -0.559001
v -0.227264 0.758765 -0.517551
v -0.229138 0.747971 -0.515418
v -0.227264 0.747971 -0.517551
v -0.246065 0.758765 -0.5188
v -0.246975 0.747971 -0.52149
v -0.246065 0.747971 -0.5188
v -0.243469 0.747971 -0.557888
v -0.244727 0.758765 -0.555342
v -0.243469 0.758765 -0.557888
v -0.224667 0.747971 -0.556639
v -0.226243 0.758765 -0.559001
v -0.224667 0.758765 -0.556639
v -0.227264 0.747971 -0.517551
v -0.226005 0.758765 -0.520097
v -0.227264 0.758765 -0.517551
v -0.246975 0.747971 -0.52149
v -0.246065 0.758765 -0.5188
v -0.246975 0.758765 -0.52149
v -0.244727 0.758765 -0.555342
v -0.243469 0.747971 -0.557888
v -0.244727 0.747971 -0.555342
v -0.224667 0.758765 -0.556639
v -0.223757 0.747971 -0.553949
v -0.224667 0.747971 -0.556639
v -0.226005 0.758765 -0.520097
v -0.227264 0.747971 -0.517551
v -0.226005 0.747971 -0.520097
v -0.246975 0.758765 -0.52149
v -0.247159 0.747971 -0.524324
v -0.246975 0.747971 -0.52149
v -0.244727 0.747971 -0.555342
v -0.245283 0.758765 -0.552557
v -0.244727 0.758765 -0.555342
v -0.223757 0.747971 -0.553949
v -0.224667 0.758765 -0.556639
v -0.223757 0.758765 -0.553949
v -0.226005 0.747971 -0.520097
v -0.225449 0.758765 -0.522882
v -0.226005 0.758765 -0.520097
v -0.247159 0.747971 -0.524324
v -0.246975 0.758765 -0.52149
v -0.247159 0.758765 -0.524324
v -0.245283 0.758765 -0.552557
v -0.244727 0.747971 -0.555342
v -0.245283 0.747971 -0.552557
v -0.223757 0.758765 -0.553949
v -0.223574 0.747971 -0.551115
v -0.223757 0.747971 -0.553949
v -0.225449 0.758765 -0.522882
v -0.226005 0.747971 -0.520097
v -0.225449 0.747971 -0.522882
v -0.247159 0.758765 -0.524324
v -0.245283 0.747971 -0.552557
v -0.247159 0.747971 -0.524324
v -0.245283 0.747971 -0.552557
v -0.247159 0.758765 -0.524324
v -0.245283 0.758765 -0.552557
v -0.223574 0.747971 -0.551115
v -0.223757 0.758765 -0.553949
v -0.223574 0.758765 -0.551115
v -0.225449 0.747971 -0.522882
v -0.223574 0.758765 -0.551115
v -0.225449 0.758765 -0.522882
v -0.223574 0.758765 -0.551115
v -0.225449 0.747971 -0.522882
v -0.223574 0.747971 -0.551115
v -0.234191 0.758765 -0.512931
v -0.234191 0.747971 -0.512931
v -0.237025 0.758765 -0.512748
v -0.237025 0.758765 -0.512748
v -0.237025 0.747971 -0.512748
v -0.239809 0.758765 -0.513305
v -0.233707 0.747971 -0.562691
v -0.233707 0.758765 -0.562691
v -0.236541 0.747971 -0.562507
v -0.230923 0.747971 -0.562134
v -0.230923 0.758765 -0.562134
v -0.233707 0.747971 -0.562691
v -0.237025 0.747971 -0.512748
v -0.237025 0.758765 -0.512748
v -0.234191 0.747971 -0.512931
v -0.234191 0.747971 -0.512931
v -0.234191 0.758765 -0.512931
v -0.231501 0.747971 -0.513842
v -0.239809 0.747971 -0.513305
v -0.239809 0.758765 -0.513305
v -0.237025 0.747971 -0.512748
v -0.236541 0.758765 -0.562507
v -0.236541 0.747971 -0.562507
v -0.233707 0.758765 -0.562691
v -0.233707 0.758765 -0.562691
v -0.233707 0.747971 -0.562691
v -0.230923 0.758765 -0.562134
v -0.230923 0.758765 -0.562134
v -0.230923 0.747971 -0.562134
v -0.228377 0.758765 -0.560876
v -0.231501 0.758765 -0.513842
v -0.231501 0.747971 -0.513842
v -0.234191 0.758765 -0.512931
v -0.239809 0.758765 -0.513305
v -0.239809 0.747971 -0.513305
v -0.242355 0.758765 -0.514563
v -0.236541 0.747971 -0.562507
v -0.236541 0.758765 -0.562507
v -0.239231 0.747971 -0.561597
v -0.228377 0.747971 -0.560876
v -0.228377 0.758765 -0.560876
v -0.230923 0.747971 -0.562134
v -0.231501 0.747971 -0.513842
v -0.231501 0.758765 -0.513842
v -0.229138 0.747971 -0.515418
v -0.242355 0.747971 -0.514563
v -0.242355 0.758765 -0.514563
v -0.239809 0.747971 -0.513305
v -0.244489 0.747971 -0.516437
v -0.244489 0.758765 -0.516437
v -0.242355 0.747971 -0.514563
v -0.239231 0.758765 -0.561597
v -0.239231 0.747971 -0.561597
v -0.236541 0.758765 -0.562507
v -0.239231 0.747971 -0.561597
v -0.239231 0.758765 -0.561597
v -0.241594 0.747971 -0.560021
v -0.241594 0.758765 -0.560021
v -0.241594 0.747971 -0.560021
v -0.239231 0.758765 -0.561597
v -0.228377 0.758765 -0.560876
v -0.228377 0.747971 -0.560876
v -0.226243 0.758765 -0.559001
v -0.229138 0.758765 -0.515418
v -0.229138 0.747971 -0.515418
v -0.231501 0.758765 -0.513842
v -0.242355 0.758765 -0.514563
v -0.242355 0.747971 -0.514563
v -0.244489 0.758765 -0.516437
v -0.244489 0.747971 -0.516437
v -0.246065 0.747971 -0.5188
v -0.244489 0.758765 -0.516437
v -0.241594 0.758765 -0.560021
v -0.243469 0.758765 -0.557888
v -0.241594 0.747971 -0.560021
v -0.226243 0.747971 -0.559001
v -0.226243 0.758765 -0.559001
v -0.228377 0.747971 -0.560876
v -0.229138 0.758765 -0.515418
v -0.227264 0.758765 -0.517551
v -0.229138 0.747971 -0.515418
v -0.246065 0.758765 -0.5188
v -0.244489 0.758765 -0.516437
v -0.246065 0.747971 -0.5188
v -0.243469 0.747971 -0.557888
v -0.241594 0.747971 -0.560021
v -0.243469 0.758765 -0.557888
v -0.226243 0.747971 -0.559001
v -0.224667 0.747971 -0.556639
v -0.226243 0.758765 -0.559001
v -0.227264 0.747971 -0.517551
v -0.229138 0.747971 -0.515418
v -0.227264 0.758765 -0.517551
v -0.246065 0.747971 -0.5188
v -0.246975 0.747971 -0.52149
v -0.246065 0.758765 -0.5188
v -0.243469 0.758765 -0.557888
v -0.244727 0.758765 -0.555342
v -0.243469 0.747971 -0.557888
v -0.224667 0.758765 -0.556639
v -0.226243 0.758765 -0.559001
v -0.224667 0.747971 -0.556639
v -0.227264 0.758765 -0.517551
v -0.226005 0.758765 -0.520097
v -0.227264 0.747971 -0.517551
v -0.246975 0.758765 -0.52149
v -0.246065 0.758765 -0.5188
v -0.246975 0.747971 -0.52149
v -0.244727 0.747971 -0.555342
v -0.243469 0.747971 -0.557888
v -0.244727 0.758765 -0.555342
v -0.224667 0.747971 -0.556639
v -0.223757 0.747971 -0.553949
v -0.224667 0.758765 -0.556639
v -0.226005 0.747971 -0.520097
v -0.227264 0.747971 -0.517551
v -0.226005 0.758765 -0.520097
v -0.246975 0.747971 -0.52149
v -0.247159 0.747971 -0.524324
v -0.246975 0.758765 -0.52149
v -0.244727 0.758765 -0.555342
v -0.245283 0.758765 -0.552557
v -0.244727 0.747971 -0.555342
v -0.223757 0.758765 -0.553949
v -0.224667 0.758765 -0.556639
v -0.223757 0.747971 -0.553949
v -0.226005 0.758765 -0.520097
v -0.225449 0.758765 -0.522882
v -0.226005 0.747971 -0.520097
v -0.247159 0.758765 -0.524324
v -0.246975 0.758765 -0.52149
v -0.247159 0.747971 -0.524324
v -0.245283 0.747971 -0.552557
v -0.244727 0.747971 -0.555342
v -0.245283 0.758765 -0.552557
v -0.223757 0.747971 -0.553949
v -0.223574 0.747971 -0.551115
v -0.223757 0.758765 -0.553949
v -0.225449 0.747971 -0.522882
v -0.226005 0.747971 -0.520097
v -0.225449 0.758765 -0.522882
v -0.247159 0.747971 -0.524324
v -0.245283 0.747971 -0.552557
v -0.247159 0.758765 -0.524324
v -0.245283 0.758765 -0.552557
v -0.247159 0.758765 -0.524324
v -0.245283 0.747971 -0.552557
v -0.223574 0.758765 -0.551115
v -0.223757 0.758765 -0.553949
v -0.223574 0.747971 -0.551115
v -0.225449 0.758765 -0.522882
v -0.223574 0.758765 -0.551115
v -0.225449 0.747971 -0.522882
v -0.223574 0.747971 -0.551115
v -0.225449 0.747971 -0.522882
v -0.223574 0.758765 -0.551115
vn -0.06627355889066593 0.0 0.9978014909750162
vn 0.19423461538128076 0.0 0.980955103043807
vn -0.32226530214980137 0.0 0.9466493939311942
vn -0.19423461538128076 0.0 -0.980955103043807
vn 0.06627355889066593 0.0 -0.9978014909750162
vn 0.32226530214980137 0.0 -0.9466493939311942
vn 0.4415063540450231 0.0 0.8972581230269642
vn 0.5562955109012491 0.0 -0.8309845392972834
vn -0.5562955109012491 0.0 0.8309845392972834
vn -0.4415063540450231 0.0 -0.8972581230269642
vn 0.6586897176415258 0.0 0.7524146834514377
vn -0.7524146834514377 0.0 0.6586897176415258
vn -0.6586897176415258 0.0 -0.7524146834514377
vn 0.7524146834514377 0.0 -0.6586897176415258
vn -0.8972581230269642 0.0 0.4415063540450231
vn -0.8309845392972834 0.0 -0.5562955109012491
vn 0.8309845392972834 0.0 0.5562955109012491
vn 0.8972581230269642 0.0 -0.4415063540450231
vn -0.980955103043807 0.0 0.19423461538128076
vn -0.9466493939311942 0.0 -0.32226530214980137
vn 0.9466493939311942 0.0 0.32226530214980137
vn 0.980955103043807 0.0 -0.19423461538128076
vn -0.9999996194095095 0.0 -0.0008724567819051159
vn -0.9913306409293468 0.0 -0.13139086861197996
vn 0.9913306409293468 0.0 0.13139086861197996
vn 0.9999996194095095 0.0 0.0008724567819051159
usemtl material_0_0
f 1//1 2//2 3//2
f 4//3 5//1 6//1
f 7//4 8//5 9//5
f 10//5 11//6 12//6
f 13//2 14//1 15//1
f 16//7 17//2 18//2
f 19//1 20//3 21//3
f 22//5 23//4 24//4
f 25//6 26//5 27//5
f 28//8 29//6 30//6
f 31//2 32//7 33//7
f 34//9 35//3 36//3
f 37//10 38//4 39//4
f 40//6 41//8 42//8
f 43//11 44//7 45//7
f 46//3 47//9 48//9
f 49//9 50//12 51//12
f 52//4 53//10 54//10
f 55//13 56//10 57//10
f 58//10 59//13 60//13
f 61//14 62//8 63//8
f 64//7 65//11 66//11
f 67//12 68//9 69//9
f 70//12 71//15 72//12
f 73//13 74//16 75//13
f 76//8 77//14 78//14
f 79//11 80//17 81//11
f 82//15 83//12 84//15
f 85//16 86//13 87//16
f 88//14 89//18 90//14
f 91//17 92//11 93//17
f 94//15 95//19 96//15
f 97//16 98//20 99//16
f 100//18 101//14 102//18
f 103//17 104//21 105//17
f 106//19 107//15 108//19
f 109//20 110//16 111//20
f 112//18 113//22 114//18
f 115//21 116//17 117//21
f 118//19 119//23 120//19
f 121//20 122//24 123//20
f 124//22 125//18 126//22
f 127//21 128//25 129//21
f 130//23 131//19 132//23
f 133//24 134//20 135//24
f 136//22 137//26 138//22
f 139//25 140//21 141//25
f 142//23 143//24 144//23
f 145//24 146//23 147//24
f 148//26 149//22 150//26
f 151//25 152//26 153//25
f 154//26 155//25 156//26
usemtl material_1_0
f 157//4 158//4 159//5
f 160//5 161//5 162//6
f 163//1 164//1 165//2
f 166//3 167//3 168//1
f 169//5 170//5 171//4
f 172//4 173//4 174//10
f 175//6 176//6 177//5
f 178//2 179//2 180//1
f 181//1 182//1 183//3
f 184//3 185//3 186//9
f 187//10 188//10 189//4
f 190//6 191//6 192//8
f 193//2 194//2 195//7
f 196//9 197//9 198//3
f 199//10 200//10 201//13
f 202//8 203//8 204//6
f 205//14 206//14 207//8
f 208//7 209//7 210//2
f 211//7 212//7 213//11
f 214//11 215//11 216//7
f 217//9 218//9 219//12
f 220//13 221//13 222//10
f 223//8 224//8 225//14
f 226//14 227//18 228//14
f 229//11 230//17 231//11
f 232//12 233//12 234//9
f 235//13 236//16 237//13
f 238//18 239//14 240//18
f 241//17 242//11 243//17
f 244//12 245//15 246//12
f 247//16 248//13 249//16
f 250//18 251//22 252//18
f 253//17 254//21 255//17
f 256//15 257//12 258//15
f 259//16 260//20 261//16
f 262//22 263//18 264//22
f 265//21 266//17 267//21
f 268//15 269//19 270//15
f 271//20 272//16 273//20
f 274//22 275//26 276//22
f 277//21 278//25 279//21
f 280//19 281//15 282//19
f 283//20 284//24 285//20
f 286//26 287//22 288//26
f 289//25 290//21 291//25
f 292//19 293//23 294//19
f 295//24 296//20 297//24
f 298//26 299//25 300//26
f 301//25 302//26 303//25
f 304//23 305//19 306//23
f 307//24 308//23 309//24
f 310//23 311//24 312//23
