# SSTK version 0.8.0
# 30
mtllib original-30.mtl
o 3dw.47c68395a5775e10d9deb3f829cc2475/Model/Component_18_1/Component_18/mesh1/mesh1-geometry/material_3/component_6#mesh1-geometry
v -0.211505 0.633884 0.477349
v -0.21077 0.617768 0.488301
v -0.217191 0.61902 0.487875
v -0.209092 0.633414 0.47751
v -0.204244 0.618225 0.488734
v -0.21077 0.617768 0.488301
v -0.213714 0.634964 0.477203
v -0.217191 0.61902 0.487875
v -0.223069 0.621894 0.487484
v -0.21077 0.617768 0.488301
v -0.211505 0.633884 0.477349
v -0.209092 0.633414 0.47751
v -0.217191 0.61902 0.487875
v -0.213714 0.634964 0.477203
v -0.211505 0.633884 0.477349
v -0.204244 0.618225 0.488734
v -0.209092 0.633414 0.47751
v -0.20664 0.633585 0.477673
v -0.204244 0.618225 0.488734
v -0.204316 0.634387 0.477827
v -0.198059 0.620358 0.489145
v -0.223069 0.621894 0.487484
v -0.215569 0.636581 0.477079
v -0.213714 0.634964 0.477203
v -0.198059 0.620358 0.489145
v -0.202277 0.635764 0.477962
v -0.192636 0.624023 0.489505
v -0.211505 0.633884 0.477349
v -0.210393 0.652081 0.477423
v -0.209092 0.633414 0.47751
v -0.213714 0.634964 0.477203
v -0.212717 0.651279 0.477269
v -0.211505 0.633884 0.477349
v -0.209092 0.633414 0.47751
v -0.20794 0.652253 0.477586
v -0.20664 0.633585 0.477673
v -0.204316 0.634387 0.477827
v -0.204244 0.618225 0.488734
v -0.20664 0.633585 0.477673
v -0.202277 0.635764 0.477962
v -0.198059 0.620358 0.489145
v -0.204316 0.634387 0.477827
v -0.215569 0.636581 0.477079
v -0.223069 0.621894 0.487484
v -0.228006 0.626195 0.487156
v -0.215569 0.636581 0.477079
v -0.214755 0.649902 0.477134
v -0.213714 0.634964 0.477203
v -0.200665 0.637624 0.478069
v -0.192636 0.624023 0.489505
v -0.202277 0.635764 0.477962
v -0.211505 0.633884 0.477349
v -0.212717 0.651279 0.477269
v -0.210393 0.652081 0.477423
v -0.209092 0.633414 0.47751
v -0.210393 0.652081 0.477423
v -0.20794 0.652253 0.477586
v -0.213714 0.634964 0.477203
v -0.214755 0.649902 0.477134
v -0.212717 0.651279 0.477269
v -0.20664 0.633585 0.477673
v -0.20794 0.652253 0.477586
v -0.205527 0.651782 0.477746
v -0.20664 0.633585 0.477673
v -0.205527 0.651782 0.477746
v -0.204316 0.634387 0.477827
v -0.204316 0.634387 0.477827
v -0.203318 0.650702 0.477893
v -0.202277 0.635764 0.477962
v -0.228006 0.626195 0.487156
v -0.216944 0.638623 0.476988
v -0.215569 0.636581 0.477079
v -0.215569 0.636581 0.477079
v -0.216368 0.648043 0.477026
v -0.214755 0.649902 0.477134
v -0.192636 0.624023 0.489505
v -0.200665 0.637624 0.478069
v -0.188344 0.628971 0.48979
v -0.202277 0.635764 0.477962
v -0.201463 0.649086 0.478016
v -0.200665 0.637624 0.478069
v -0.212717 0.651279 0.477269
v -0.21423 0.667442 0.488071
v -0.210393 0.652081 0.477423
v -0.210393 0.652081 0.477423
v -0.207705 0.667898 0.488505
v -0.20794 0.652253 0.477586
v -0.214755 0.649902 0.477134
v -0.220415 0.665308 0.48766
v -0.212717 0.651279 0.477269
v -0.207705 0.667898 0.488505
v -0.205527 0.651782 0.477746
v -0.20794 0.652253 0.477586
v -0.204316 0.634387 0.477827
v -0.205527 0.651782 0.477746
v -0.203318 0.650702 0.477893
v -0.202277 0.635764 0.477962
v -0.203318 0.650702 0.477893
v -0.201463 0.649086 0.478016
v -0.216944 0.638623 0.476988
v -0.228006 0.626195 0.487156
v -0.231663 0.631631 0.486913
v -0.216944 0.638623 0.476988
v -0.216368 0.648043 0.477026
v -0.215569 0.636581 0.477079
v -0.216368 0.648043 0.477026
v -0.225838 0.661643 0.4873
v -0.214755 0.649902 0.477134
v -0.199587 0.639838 0.478141
v -0.188344 0.628971 0.48979
v -0.200665 0.637624 0.478069
v -0.200665 0.637624 0.478069
v -0.201463 0.649086 0.478016
v -0.200089 0.647043 0.478108
v -0.21423 0.667442 0.488071
v -0.212717 0.651279 0.477269
v -0.220415 0.665308 0.48766
v -0.207705 0.667898 0.488505
v -0.210393 0.652081 0.477423
v -0.21423 0.667442 0.488071
v -0.220415 0.665308 0.48766
v -0.214755 0.649902 0.477134
v -0.225838 0.661643 0.4873
v -0.205527 0.651782 0.477746
v -0.207705 0.667898 0.488505
v -0.201284 0.666647 0.488931
v -0.201284 0.666647 0.488931
v -0.203318 0.650702 0.477893
v -0.205527 0.651782 0.477746
v -0.195405 0.663772 0.489321
v -0.201463 0.649086 0.478016
v -0.203318 0.650702 0.477893
v -0.231663 0.631631 0.486913
v -0.217744 0.640953 0.476935
v -0.216944 0.638623 0.476988
v -0.216944 0.638623 0.476988
v -0.217446 0.645829 0.476955
v -0.216368 0.648043 0.477026
v -0.225838 0.661643 0.4873
v -0.216368 0.648043 0.477026
v -0.23013 0.656696 0.487015
v -0.188344 0.628971 0.48979
v -0.199587 0.639838 0.478141
v -0.185476 0.634862 0.489981
v -0.200665 0.637624 0.478069
v -0.200089 0.647043 0.478108
v -0.199587 0.639838 0.478141
v -0.190469 0.659471 0.489649
v -0.200089 0.647043 0.478108
v -0.201463 0.649086 0.478016
v -0.203318 0.650702 0.477893
v -0.201284 0.666647 0.488931
v -0.195405 0.663772 0.489321
v -0.201463 0.649086 0.478016
v -0.195405 0.663772 0.489321
v -0.190469 0.659471 0.489649
v -0.217744 0.640953 0.476935
v -0.231663 0.631631 0.486913
v -0.233792 0.637829 0.486772
v -0.217744 0.640953 0.476935
v -0.217446 0.645829 0.476955
v -0.216944 0.638623 0.476988
v -0.217446 0.645829 0.476955
v -0.23013 0.656696 0.487015
v -0.216368 0.648043 0.477026
v -0.199117 0.642256 0.478172
v -0.185476 0.634862 0.489981
v -0.199587 0.639838 0.478141
v -0.199587 0.639838 0.478141
v -0.200089 0.647043 0.478108
v -0.199289 0.644714 0.478161
v -0.200089 0.647043 0.478108
v -0.190469 0.659471 0.489649
v -0.186812 0.654036 0.489892
v -0.233792 0.637829 0.486772
v -0.217915 0.64341 0.476924
v -0.217744 0.640953 0.476935
v -0.217446 0.645829 0.476955
v -0.217744 0.640953 0.476935
v -0.217915 0.64341 0.476924
v -0.23013 0.656696 0.487015
v -0.217446 0.645829 0.476955
v -0.232998 0.650804 0.486825
v -0.185476 0.634862 0.489981
v -0.199117 0.642256 0.478172
v -0.184227 0.641297 0.490064
v -0.199587 0.639838 0.478141
v -0.199289 0.644714 0.478161
v -0.199117 0.642256 0.478172
v -0.186812 0.654036 0.489892
v -0.199289 0.644714 0.478161
v -0.200089 0.647043 0.478108
v -0.217915 0.64341 0.476924
v -0.233792 0.637829 0.486772
v -0.234247 0.644369 0.486742
v -0.217915 0.64341 0.476924
v -0.232998 0.650804 0.486825
v -0.217446 0.645829 0.476955
v -0.199117 0.642256 0.478172
v -0.184683 0.647837 0.490034
v -0.184227 0.641297 0.490064
v -0.184683 0.647837 0.490034
v -0.199117 0.642256 0.478172
v -0.199289 0.644714 0.478161
v -0.199289 0.644714 0.478161
v -0.186812 0.654036 0.489892
v -0.184683 0.647837 0.490034
v -0.232998 0.650804 0.486825
v -0.217915 0.64341 0.476924
v -0.234247 0.644369 0.486742
v -0.217191 0.61902 0.487875
v -0.21077 0.617768 0.488301
v -0.211505 0.633884 0.477349
v -0.21077 0.617768 0.488301
v -0.204244 0.618225 0.488734
v -0.209092 0.633414 0.47751
v -0.223069 0.621894 0.487484
v -0.217191 0.61902 0.487875
v -0.213714 0.634964 0.477203
v -0.209092 0.633414 0.47751
v -0.211505 0.633884 0.477349
v -0.21077 0.617768 0.488301
v -0.211505 0.633884 0.477349
v -0.213714 0.634964 0.477203
v -0.217191 0.61902 0.487875
v -0.20664 0.633585 0.477673
v -0.209092 0.633414 0.47751
v -0.204244 0.618225 0.488734
v -0.198059 0.620358 0.489145
v -0.204316 0.634387 0.477827
v -0.204244 0.618225 0.488734
v -0.213714 0.634964 0.477203
v -0.215569 0.636581 0.477079
v -0.223069 0.621894 0.487484
v -0.192636 0.624023 0.489505
v -0.202277 0.635764 0.477962
v -0.198059 0.620358 0.489145
v -0.209092 0.633414 0.47751
v -0.210393 0.652081 0.477423
v -0.211505 0.633884 0.477349
v -0.211505 0.633884 0.477349
v -0.212717 0.651279 0.477269
v -0.213714 0.634964 0.477203
v -0.20664 0.633585 0.477673
v -0.20794 0.652253 0.477586
v -0.209092 0.633414 0.47751
v -0.20664 0.633585 0.477673
v -0.204244 0.618225 0.488734
v -0.204316 0.634387 0.477827
v -0.204316 0.634387 0.477827
v -0.198059 0.620358 0.489145
v -0.202277 0.635764 0.477962
v -0.228006 0.626195 0.487156
v -0.223069 0.621894 0.487484
v -0.215569 0.636581 0.477079
v -0.213714 0.634964 0.477203
v -0.214755 0.649902 0.477134
v -0.215569 0.636581 0.477079
v -0.202277 0.635764 0.477962
v -0.192636 0.624023 0.489505
v -0.200665 0.637624 0.478069
v -0.210393 0.652081 0.477423
v -0.212717 0.651279 0.477269
v -0.211505 0.633884 0.477349
v -0.20794 0.652253 0.477586
v -0.210393 0.652081 0.477423
v -0.209092 0.633414 0.47751
v -0.212717 0.651279 0.477269
v -0.214755 0.649902 0.477134
v -0.213714 0.634964 0.477203
v -0.205527 0.651782 0.477746
v -0.20794 0.652253 0.477586
v -0.20664 0.633585 0.477673
v -0.204316 0.634387 0.477827
v -0.205527 0.651782 0.477746
v -0.20664 0.633585 0.477673
v -0.202277 0.635764 0.477962
v -0.203318 0.650702 0.477893
v -0.204316 0.634387 0.477827
v -0.215569 0.636581 0.477079
v -0.216944 0.638623 0.476988
v -0.228006 0.626195 0.487156
v -0.214755 0.649902 0.477134
v -0.216368 0.648043 0.477026
v -0.215569 0.636581 0.477079
v -0.188344 0.628971 0.48979
v -0.200665 0.637624 0.478069
v -0.192636 0.624023 0.489505
v -0.200665 0.637624 0.478069
v -0.201463 0.649086 0.478016
v -0.202277 0.635764 0.477962
v -0.210393 0.652081 0.477423
v -0.21423 0.667442 0.488071
v -0.212717 0.651279 0.477269
v -0.20794 0.652253 0.477586
v -0.207705 0.667898 0.488505
v -0.210393 0.652081 0.477423
v -0.212717 0.651279 0.477269
v -0.220415 0.665308 0.48766
v -0.214755 0.649902 0.477134
v -0.20794 0.652253 0.477586
v -0.205527 0.651782 0.477746
v -0.207705 0.667898 0.488505
v -0.203318 0.650702 0.477893
v -0.205527 0.651782 0.477746
v -0.204316 0.634387 0.477827
v -0.201463 0.649086 0.478016
v -0.203318 0.650702 0.477893
v -0.202277 0.635764 0.477962
v -0.231663 0.631631 0.486913
v -0.228006 0.626195 0.487156
v -0.216944 0.638623 0.476988
v -0.215569 0.636581 0.477079
v -0.216368 0.648043 0.477026
v -0.216944 0.638623 0.476988
v -0.214755 0.649902 0.477134
v -0.225838 0.661643 0.4873
v -0.216368 0.648043 0.477026
v -0.200665 0.637624 0.478069
v -0.188344 0.628971 0.48979
v -0.199587 0.639838 0.478141
v -0.200089 0.647043 0.478108
v -0.201463 0.649086 0.478016
v -0.200665 0.637624 0.478069
v -0.220415 0.665308 0.48766
v -0.212717 0.651279 0.477269
v -0.21423 0.667442 0.488071
v -0.21423 0.667442 0.488071
v -0.210393 0.652081 0.477423
v -0.207705 0.667898 0.488505
v -0.225838 0.661643 0.4873
v -0.214755 0.649902 0.477134
v -0.220415 0.665308 0.48766
v -0.201284 0.666647 0.488931
v -0.207705 0.667898 0.488505
v -0.205527 0.651782 0.477746
v -0.205527 0.651782 0.477746
v -0.203318 0.650702 0.477893
v -0.201284 0.666647 0.488931
v -0.203318 0.650702 0.477893
v -0.201463 0.649086 0.478016
v -0.195405 0.663772 0.489321
v -0.216944 0.638623 0.476988
v -0.217744 0.640953 0.476935
v -0.231663 0.631631 0.486913
v -0.216368 0.648043 0.477026
v -0.217446 0.645829 0.476955
v -0.216944 0.638623 0.476988
v -0.23013 0.656696 0.487015
v -0.216368 0.648043 0.477026
v -0.225838 0.661643 0.4873
v -0.185476 0.634862 0.489981
v -0.199587 0.639838 0.478141
v -0.188344 0.628971 0.48979
v -0.199587 0.639838 0.478141
v -0.200089 0.647043 0.478108
v -0.200665 0.637624 0.478069
v -0.201463 0.649086 0.478016
v -0.200089 0.647043 0.478108
v -0.190469 0.659471 0.489649
v -0.195405 0.663772 0.489321
v -0.201284 0.666647 0.488931
v -0.203318 0.650702 0.477893
v -0.190469 0.659471 0.489649
v -0.195405 0.663772 0.489321
v -0.201463 0.649086 0.478016
v -0.233792 0.637829 0.486772
v -0.231663 0.631631 0.486913
v -0.217744 0.640953 0.476935
v -0.216944 0.638623 0.476988
v -0.217446 0.645829 0.476955
v -0.217744 0.640953 0.476935
v -0.216368 0.648043 0.477026
v -0.23013 0.656696 0.487015
v -0.217446 0.645829 0.476955
v -0.199587 0.639838 0.478141
v -0.185476 0.634862 0.489981
v -0.199117 0.642256 0.478172
v -0.199289 0.644714 0.478161
v -0.200089 0.647043 0.478108
v -0.199587 0.639838 0.478141
v -0.186812 0.654036 0.489892
v -0.190469 0.659471 0.489649
v -0.200089 0.647043 0.478108
v -0.217744 0.640953 0.476935
v -0.217915 0.64341 0.476924
v -0.233792 0.637829 0.486772
v -0.217915 0.64341 0.476924
v -0.217744 0.640953 0.476935
v -0.217446 0.645829 0.476955
v -0.232998 0.650804 0.486825
v -0.217446 0.645829 0.476955
v -0.23013 0.656696 0.487015
v -0.184227 0.641297 0.490064
v -0.199117 0.642256 0.478172
v -0.185476 0.634862 0.489981
v -0.199117 0.642256 0.478172
v -0.199289 0.644714 0.478161
v -0.199587 0.639838 0.478141
v -0.200089 0.647043 0.478108
v -0.199289 0.644714 0.478161
v -0.186812 0.654036 0.489892
v -0.234247 0.644369 0.486742
v -0.233792 0.637829 0.486772
v -0.217915 0.64341 0.476924
v -0.217446 0.645829 0.476955
v -0.232998 0.650804 0.486825
v -0.217915 0.64341 0.476924
v -0.184227 0.641297 0.490064
v -0.184683 0.647837 0.490034
v -0.199117 0.642256 0.478172
v -0.199289 0.644714 0.478161
v -0.199117 0.642256 0.478172
v -0.184683 0.647837 0.490034
v -0.184683 0.647837 0.490034
v -0.186812 0.654036 0.489892
v -0.199289 0.644714 0.478161
v -0.234247 0.644369 0.486742
v -0.217915 0.64341 0.476924
v -0.232998 0.650804 0.486825
vn -0.12613028770418727 -0.540678755986828 -0.8317196843577738
vn 0.019652517245550304 -0.5690948737215504 -0.8220369841252678
vn 0.16780715849107752 -0.5587280161756903 -0.8121968736085654
vn -0.25960726141269413 -0.4754159262681704 -0.8405853715550722
vn 0.30823661738583524 -0.5102856669195862 -0.8028690589622764
vn -0.3716824296525488 -0.37775401705741307 -0.8480295243000481
vn 0.4313695725029765 -0.4270670352193028 -0.794691159726591
vn 0.06627355889066593 0.0 -0.9978014909750162
vn 0.5288167659436661 -0.31474493932762276 -0.7882185301199999
vn -0.4547181440706863 -0.2543498316679282 -0.8535441245673285
vn -0.19934493430038366 0.5102856669195861 -0.8365824139349385
vn -0.058915402856284445 0.5587280161756903 -0.8272556915770719
vn 0.08923920413952 0.5690948737215504 -0.8174150654033712
vn -0.32247781796111824 0.4270670352193027 -0.8447613890040375
vn 0.23502199151610448 0.540678755986828 -0.8077321005929752
vn -0.4199250415110473 0.3147449393276227 -0.8512335652919217
vn 0.5939360916457572 -0.18097391151931982 -0.7838930809682911
vn 0.3684989919761142 0.4754159262681704 -0.7988668161609702
vn 0.4805741822778344 0.377754017057413 -0.7914229955750455
vn -0.5030539502448517 -0.11361099014280733 -0.8567550793907329
vn 0.5636098177057504 0.25434983166792813 -0.7859072060467364
vn -0.48504440036925306 0.18097391151931982 -0.8555585152517794
vn 0.6222897369801408 -0.03486998501523427 -0.7820099535135244
vn -0.5133980311762377 0.03486998501523424 -0.8574418614281669
vn 0.6119456914276814 0.1136109901428073 -0.7826972682090234
vn 0.12613028770418727 0.540678755986828 0.8317196843577738
vn -0.019652517245550304 0.5690948737215504 0.8220369841252678
vn -0.16780715849107752 0.5587280161756903 0.8121968736085654
vn 0.25960726141269413 0.4754159262681704 0.8405853715550722
vn -0.30823661738583524 0.5102856669195862 0.8028690589622764
vn 0.3716824296525488 0.37775401705741307 0.8480295243000481
vn -0.4313695725029765 0.4270670352193028 0.794691159726591
vn -0.06627355889066593 0.0 0.9978014909750162
vn -0.5288167659436661 0.31474493932762276 0.7882185301199999
vn 0.4547181440706863 0.2543498316679282 0.8535441245673285
vn 0.058915402856284445 -0.5587280161756903 0.8272556915770719
vn 0.19934493430038366 -0.5102856669195861 0.8365824139349385
vn -0.08923920413952 -0.5690948737215504 0.8174150654033712
vn 0.32247781796111824 -0.4270670352193027 0.8447613890040375
vn -0.23502199151610448 -0.540678755986828 0.8077321005929752
vn 0.4199250415110473 -0.3147449393276227 0.8512335652919217
vn -0.5939360916457572 0.18097391151931982 0.7838930809682911
vn -0.3684989919761142 -0.4754159262681704 0.7988668161609702
vn -0.4805741822778344 -0.377754017057413 0.7914229955750455
vn 0.5030539502448517 0.11361099014280733 0.8567550793907329
vn -0.5636098177057504 -0.25434983166792813 0.7859072060467364
vn 0.48504440036925306 -0.18097391151931982 0.8555585152517794
vn -0.6222897369801408 0.03486998501523427 0.7820099535135244
vn 0.5133980311762377 -0.03486998501523424 0.8574418614281669
vn -0.6119456914276814 -0.1136109901428073 0.7826972682090234
usemtl material_0_0
f 1//1 2//2 3//1
f 4//2 5//3 6//2
f 7//4 8//1 9//4
f 10//2 11//1 12//2
f 13//1 14//4 15//1
f 16//3 17//2 18//3
f 19//3 20//5 21//5
f 22//4 23//6 24//4
f 25//5 26//7 27//7
f 28//8 29//8 30//8
f 31//8 32//8 33//8
f 34//8 35//8 36//8
f 37//5 38//3 39//3
f 40//7 41//5 42//5
f 43//6 44//4 45//6
f 46//8 47//8 48//8
f 49//9 50//7 51//7
f 52//8 53//8 54//8
f 55//8 56//8 57//8
f 58//8 59//8 60//8
f 61//8 62//8 63//8
f 64//8 65//8 66//8
f 67//8 68//8 69//8
f 70//6 71//10 72//6
f 73//8 74//8 75//8
f 76//7 77//9 78//9
f 79//8 80//8 81//8
f 82//11 83//12 84//12
f 85//12 86//13 87//13
f 88//14 89//11 90//11
f 91//13 92//15 93//13
f 94//8 95//8 96//8
f 97//8 98//8 99//8
f 100//10 101//6 102//10
f 103//8 104//8 105//8
f 106//16 107//14 108//14
f 109//17 110//9 111//9
f 112//8 113//8 114//8
f 115//12 116//11 117//11
f 118//13 119//12 120//12
f 121//11 122//14 123//14
f 124//15 125//13 126//15
f 127//15 128//18 129//15
f 130//18 131//19 132//18
f 133//10 134//20 135//10
f 136//8 137//8 138//8
f 139//14 140//16 141//16
f 142//9 143//17 144//17
f 145//8 146//8 147//8
f 148//19 149//21 150//19
f 151//18 152//15 153//18
f 154//19 155//18 156//19
f 157//20 158//10 159//20
f 160//8 161//8 162//8
f 163//22 164//16 165//16
f 166//23 167//17 168//17
f 169//8 170//8 171//8
f 172//21 173//19 174//21
f 175//20 176//24 177//20
f 178//8 179//8 180//8
f 181//16 182//22 183//22
f 184//17 185//23 186//23
f 187//8 188//8 189//8
f 190//21 191//25 192//21
f 193//24 194//20 195//24
f 196//24 197//22 198//22
f 199//23 200//25 201//23
f 202//25 203//23 204//25
f 205//25 206//21 207//25
f 208//22 209//24 210//24
usemtl material_1_0
f 211//26 212//27 213//26
f 214//27 215//28 216//27
f 217//29 218//26 219//29
f 220//27 221//26 222//27
f 223//26 224//29 225//26
f 226//28 227//27 228//28
f 229//30 230//30 231//28
f 232//29 233//31 234//29
f 235//32 236//32 237//30
f 238//33 239//33 240//33
f 241//33 242//33 243//33
f 244//33 245//33 246//33
f 247//28 248//28 249//30
f 250//30 251//30 252//32
f 253//31 254//29 255//31
f 256//33 257//33 258//33
f 259//32 260//32 261//34
f 262//33 263//33 264//33
f 265//33 266//33 267//33
f 268//33 269//33 270//33
f 271//33 272//33 273//33
f 274//33 275//33 276//33
f 277//33 278//33 279//33
f 280//31 281//35 282//31
f 283//33 284//33 285//33
f 286//34 287//34 288//32
f 289//33 290//33 291//33
f 292//36 293//36 294//37
f 295//38 296//38 297//36
f 298//37 299//37 300//39
f 301//38 302//40 303//38
f 304//33 305//33 306//33
f 307//33 308//33 309//33
f 310//35 311//31 312//35
f 313//33 314//33 315//33
f 316//39 317//39 318//41
f 319//34 320//34 321//42
f 322//33 323//33 324//33
f 325//37 326//37 327//36
f 328//36 329//36 330//38
f 331//39 332//39 333//37
f 334//40 335//38 336//40
f 337//40 338//43 339//40
f 340//43 341//44 342//43
f 343//35 344//45 345//35
f 346//33 347//33 348//33
f 349//41 350//41 351//39
f 352//42 353//42 354//34
f 355//33 356//33 357//33
f 358//44 359//46 360//44
f 361//43 362//40 363//43
f 364//44 365//43 366//44
f 367//45 368//35 369//45
f 370//33 371//33 372//33
f 373//41 374//41 375//47
f 376//42 377//42 378//48
f 379//33 380//33 381//33
f 382//46 383//44 384//46
f 385//45 386//49 387//45
f 388//33 389//33 390//33
f 391//47 392//47 393//41
f 394//48 395//48 396//42
f 397//33 398//33 399//33
f 400//46 401//50 402//46
f 403//49 404//45 405//49
f 406//47 407//47 408//49
f 409//48 410//50 411//48
f 412//50 413//48 414//50
f 415//50 416//46 417//50
f 418//49 419//49 420//47
