# SSTK version 0.8.0
# 106
mtllib original-106.mtl
o Group_38/mesh169/mesh169-geometry#mesh169-geometry
v -0.503809 -0.317551 0.421048
v -0.503809 -0.319369 0.421048
v -0.502755 -0.317551 0.421048
v -0.502376 -0.317518 0.421048
v -0.502009 -0.317420 0.421048
v -0.501665 -0.317259 0.421048
v -0.501353 -0.317041 0.421048
v -0.489383 -0.319369 0.421048
v -0.501084 -0.316772 0.421048
v -0.500866 -0.316461 0.421048
v -0.500705 -0.316116 0.421048
v -0.491649 -0.317184 0.421048
v -0.491272 -0.317385 0.421048
v -0.491979 -0.316912 0.421048
v -0.490863 -0.317509 0.421048
v -0.492251 -0.316582 0.421048
v -0.490437 -0.317551 0.421048
v -0.500607 -0.315749 0.421048
v -0.489383 -0.317551 0.421048
v -0.492452 -0.316205 0.421048
v -0.492576 -0.315795 0.421048
v -0.500574 -0.315370 0.421048
v -0.492618 -0.315370 0.421048
v -0.500574 -0.291859 0.421048
v -0.492618 -0.291859 0.421048
v -0.492576 -0.291433 0.421048
v -0.500616 -0.291433 0.421048
v -0.492452 -0.291024 0.421048
v -0.492251 -0.290647 0.421048
v -0.491979 -0.290316 0.421048
v -0.489383 -0.287860 0.421048
v -0.500740 -0.291024 0.421048
v -0.491649 -0.290045 0.421048
v -0.500942 -0.290647 0.421048
v -0.491272 -0.289844 0.421048
v -0.501213 -0.290316 0.421048
v -0.490863 -0.289719 0.421048
v -0.501543 -0.290045 0.421048
v -0.490437 -0.289677 0.421048
v -0.503809 -0.287860 0.421048
v -0.489383 -0.289677 0.421048
v -0.501920 -0.289844 0.421048
v -0.502330 -0.289719 0.421048
v -0.502755 -0.289677 0.421048
v -0.503809 -0.289677 0.421048
vn 0 0 1
vn 0 0 -1
usemtl material_0_0
f 1//1 2//1 3//1
f 3//2 2//2 1//2
f 4//1 3//1 2//1
f 2//2 3//2 4//2
f 5//1 4//1 2//1
f 2//2 4//2 5//2
f 6//1 5//1 2//1
f 2//2 5//2 6//2
f 7//1 6//1 2//1
f 2//2 6//2 7//2
f 7//1 2//1 8//1
f 8//2 2//2 7//2
f 9//1 7//1 8//1
f 8//2 7//2 9//2
f 10//1 9//1 8//1
f 8//2 9//2 10//2
f 11//1 10//1 8//1
f 8//2 10//2 11//2
f 11//1 8//1 12//1
f 12//2 8//2 11//2
f 12//1 8//1 13//1
f 13//2 8//2 12//2
f 11//1 12//1 14//1
f 14//2 12//2 11//2
f 13//1 8//1 15//1
f 15//2 8//2 13//2
f 11//1 14//1 16//1
f 16//2 14//2 11//2
f 15//1 8//1 17//1
f 17//2 8//2 15//2
f 18//1 11//1 16//1
f 16//2 11//2 18//2
f 17//1 8//1 19//1
f 19//2 8//2 17//2
f 18//1 16//1 20//1
f 20//2 16//2 18//2
f 18//1 20//1 21//1
f 21//2 20//2 18//2
f 22//1 18//1 21//1
f 21//2 18//2 22//2
f 22//1 21//1 23//1
f 23//2 21//2 22//2
f 24//1 22//1 23//1
f 23//2 22//2 24//2
f 24//1 23//1 25//1
f 25//2 23//2 24//2
f 26//1 24//1 25//1
f 25//2 24//2 26//2
f 27//1 24//1 26//1
f 26//2 24//2 27//2
f 28//1 27//1 26//1
f 26//2 27//2 28//2
f 29//1 27//1 28//1
f 28//2 27//2 29//2
f 30//1 27//1 29//1
f 29//2 27//2 30//2
f 31//1 27//1 30//1
f 30//2 27//2 31//2
f 31//1 32//1 27//1
f 27//2 32//2 31//2
f 31//1 30//1 33//1
f 33//2 30//2 31//2
f 31//1 34//1 32//1
f 32//2 34//2 31//2
f 31//1 33//1 35//1
f 35//2 33//2 31//2
f 31//1 36//1 34//1
f 34//2 36//2 31//2
f 31//1 35//1 37//1
f 37//2 35//2 31//2
f 31//1 38//1 36//1
f 36//2 38//2 31//2
f 31//1 37//1 39//1
f 39//2 37//2 31//2
f 40//1 38//1 31//1
f 31//2 38//2 40//2
f 31//1 39//1 41//1
f 41//2 39//2 31//2
f 40//1 42//1 38//1
f 38//2 42//2 40//2
f 40//1 43//1 42//1
f 42//2 43//2 40//2
f 40//1 44//1 43//1
f 43//2 44//2 40//2
f 40//1 45//1 44//1
f 44//2 45//2 40//2
