# SSTK version 0.8.0
# 169
mtllib original-169.mtl
o Group10/mesh76/mesh76-geometry/material_0/component_0#mesh76-geometry
v -0.447391 0.117921 0.410783
v 0.439705 -0.259172 0.410783
v -0.447391 -0.259172 0.410783
v 0.439705 -0.259172 0.410783
v -0.447391 0.117921 0.410783
v 0.439705 0.117921 0.410783
v -0.447391 -0.259172 0.410783
v 0.439705 -0.259172 0.410783
v -0.447391 0.117921 0.410783
v 0.439705 0.117921 0.410783
v -0.447391 0.117921 0.410783
v 0.439705 -0.259172 0.410783
v 0.439705 -0.259172 0.410783
v -0.447391 -0.259172 0.412844
v -0.447391 -0.259172 0.410783
v -0.447391 -0.259172 0.410783
v -0.447391 -0.259172 0.412844
v 0.439705 -0.259172 0.410783
v -0.447391 -0.259172 0.412844
v -0.447391 0.117921 0.410783
v -0.447391 -0.259172 0.410783
v -0.447391 -0.259172 0.410783
v -0.447391 0.117921 0.410783
v -0.447391 -0.259172 0.412844
v -0.447391 0.117921 0.410783
v 0.439705 0.117921 0.412844
v 0.439705 0.117921 0.410783
v 0.439705 0.117921 0.410783
v 0.439705 0.117921 0.412844
v -0.447391 0.117921 0.410783
v 0.439705 0.117921 0.412844
v 0.439705 -0.259172 0.410783
v 0.439705 0.117921 0.410783
v 0.439705 0.117921 0.410783
v 0.439705 -0.259172 0.410783
v 0.439705 0.117921 0.412844
v -0.447391 -0.259172 0.412844
v 0.439705 -0.259172 0.410783
v 0.439705 -0.259172 0.412844
v 0.439705 -0.259172 0.412844
v 0.439705 -0.259172 0.410783
v -0.447391 -0.259172 0.412844
v -0.447391 0.117921 0.410783
v -0.447391 -0.259172 0.412844
v -0.447391 0.117921 0.412844
v -0.447391 0.117921 0.412844
v -0.447391 -0.259172 0.412844
v -0.447391 0.117921 0.410783
v 0.439705 0.117921 0.412844
v -0.447391 0.117921 0.410783
v -0.447391 0.117921 0.412844
v -0.447391 0.117921 0.412844
v -0.447391 0.117921 0.410783
v 0.439705 0.117921 0.412844
v 0.439705 -0.259172 0.410783
v 0.439705 0.117921 0.412844
v 0.439705 -0.259172 0.412844
v 0.439705 -0.259172 0.412844
v 0.439705 0.117921 0.412844
v 0.439705 -0.259172 0.410783
vn 0 0 -1
vn 0 0 1
vn 0 -1 0
vn 0 1 0
vn -1 0 0
vn 1 0 0
usemtl material_0_0
f 1//1 2//1 3//1
f 4//1 5//1 6//1
f 7//2 8//2 9//2
f 10//2 11//2 12//2
f 13//3 14//3 15//3
f 16//4 17//4 18//4
f 19//5 20//5 21//5
f 22//6 23//6 24//6
f 25//4 26//4 27//4
f 28//3 29//3 30//3
f 31//6 32//6 33//6
f 34//5 35//5 36//5
f 37//3 38//3 39//3
f 40//4 41//4 42//4
f 43//5 44//5 45//5
f 46//6 47//6 48//6
f 49//4 50//4 51//4
f 52//3 53//3 54//3
f 55//6 56//6 57//6
f 58//5 59//5 60//5
