# SSTK version 0.8.0
# 17
mtllib original-17.mtl
o dr_toprail2/dr_toprail12/mesh38/mesh38-geometry#mesh38-geometry
v -0.070967 0.684309 0.199554
v -0.070566 0.709863 0.195939
v -0.070967 0.786528 0.199554
v -0.070566 0.684309 0.195939
v -0.069355 0.786528 0.185041
v 0.000434 0.786528 0.207487
v -0.413573 0.684309 0.157827
v -0.385351 0.786528 0.135237
v -0.069355 0.709863 0.185041
v -0.390189 0.786528 0.178777
v 0.000434 0.684309 0.207487
v -0.388576 0.684309 0.164264
v -0.413573 0.709863 0.157827
v 0.000434 0.786528 0.178102
v -0.386964 0.786528 0.149751
v -0.043956 0.709863 0.187863
v -0.385351 0.709863 0.135237
v -0.388576 0.786528 0.164264
v 0.000434 0.786528 0.222180
v 0.000434 0.684309 0.222180
v -0.492408 0.684309 0.152727
v -0.390189 0.684309 0.178777
v -0.386964 0.709863 0.149751
v -0.412362 0.709863 0.146929
v 0.000434 0.786528 0.192795
v -0.492408 0.684309 0.138035
v -0.492408 0.786528 0.152727
v -0.412362 0.684309 0.146929
v 0.000434 0.684309 0.192795
v -0.042344 0.709863 0.173349
v -0.492408 0.786528 0.138035
v 0.000434 0.684309 0.178102
v -0.042344 0.684309 0.173349
v -0.043956 0.684309 0.187863
vn 0.9938836858930497 0 0.11043196509908727
vn -0.9938836858930497 0 -0.11043196509908727
vn 0.11043196509908727 0 -0.9938836858930497
vn -0.11043196509908727 0 0.9938836858930497
vn 0 -1 0
vn 0 1 0
vn 1 0 0
vn -1 0 0
usemtl material_0_0
f 1//1 2//1 3//1
f 2//1 1//1 4//1
f 3//2 2//2 1//2
f 4//2 1//2 2//2
f 5//1 3//1 2//1
f 2//2 3//2 5//2
f 3//3 6//3 1//3
f 1//4 6//4 3//4
f 4//5 1//5 7//5
f 7//6 1//6 4//6
f 4//3 7//3 2//3
f 2//4 7//4 4//4
f 3//6 5//6 8//6
f 8//5 5//5 3//5
f 9//1 5//1 2//1
f 2//2 5//2 9//2
f 3//6 10//6 6//6
f 6//5 10//5 3//5
f 11//3 1//3 6//3
f 6//4 1//4 11//4
f 12//5 7//5 1//5
f 1//6 7//6 12//6
f 13//3 2//3 7//3
f 7//4 2//4 13//4
f 8//6 5//6 14//6
f 14//5 5//5 8//5
f 8//6 15//6 3//6
f 3//5 15//5 8//5
f 9//4 16//4 5//4
f 5//3 16//3 9//3
f 2//5 17//5 9//5
f 9//6 17//6 2//6
f 18//6 10//6 3//6
f 3//5 10//5 18//5
f 19//6 6//6 10//6
f 10//5 6//5 19//5
f 11//5 20//5 1//5
f 1//6 20//6 11//6
f 11//7 6//7 20//7
f 20//8 6//8 11//8
f 21//5 7//5 12//5
f 12//6 7//6 21//6
f 12//5 1//5 22//5
f 22//6 1//6 12//6
f 13//5 23//5 2//5
f 2//6 23//6 13//6
f 13//1 7//1 24//1
f 24//2 7//2 13//2
f 25//6 14//6 5//6
f 5//5 14//5 25//5
f 8//3 14//3 17//3
f 17//4 14//4 8//4
f 8//2 17//2 15//2
f 15//1 17//1 8//1
f 15//6 18//6 3//6
f 3//5 18//5 15//5
f 9//5 17//5 16//5
f 16//6 17//6 9//6
f 5//4 16//4 25//4
f 25//3 16//3 5//3
f 23//5 17//5 2//5
f 2//6 17//6 23//6
f 18//2 12//2 10//2
f 10//1 12//1 18//1
f 19//7 20//7 6//7
f 6//8 20//8 19//8
f 19//4 10//4 20//4
f 20//3 10//3 19//3
f 22//5 1//5 20//5
f 20//6 1//6 22//6
f 26//5 7//5 21//5
f 21//6 7//6 26//6
f 21//4 12//4 27//4
f 27//3 12//3 21//3
f 22//2 10//2 12//2
f 12//1 10//1 22//1
f 24//5 23//5 13//5
f 13//6 23//6 24//6
f 28//1 24//1 7//1
f 7//2 24//2 28//2
f 25//7 29//7 14//7
f 14//8 29//8 25//8
f 17//3 14//3 30//3
f 30//4 14//4 17//4
f 23//2 15//2 17//2
f 17//1 15//1 23//1
f 15//6 31//6 18//6
f 18//5 31//5 15//5
f 30//5 16//5 17//5
f 17//6 16//6 30//6
f 25//4 16//4 29//4
f 29//3 16//3 25//3
f 18//4 27//4 12//4
f 12//3 27//3 18//3
f 22//4 20//4 10//4
f 10//3 20//3 22//3
f 28//5 7//5 26//5
f 26//6 7//6 28//6
f 21//8 27//8 26//8
f 26//7 27//7 21//7
f 23//3 24//3 15//3
f 15//4 24//4 23//4
f 28//3 26//3 24//3
f 24//4 26//4 28//4
f 32//7 14//7 29//7
f 29//8 14//8 32//8
f 30//3 14//3 33//3
f 33//4 14//4 30//4
f 15//3 24//3 31//3
f 31//4 24//4 15//4
f 27//6 18//6 31//6
f 31//5 18//5 27//5
f 30//2 33//2 16//2
f 16//1 33//1 30//1
f 34//4 29//4 16//4
f 16//3 29//3 34//3
f 31//8 26//8 27//8
f 27//7 26//7 31//7
f 31//3 24//3 26//3
f 26//4 24//4 31//4
f 32//3 33//3 14//3
f 14//4 33//4 32//4
f 32//5 29//5 33//5
f 33//6 29//6 32//6
f 34//2 16//2 33//2
f 33//1 16//1 34//1
f 34//5 33//5 29//5
f 29//6 33//6 34//6
