# SSTK version 0.8.0
# 8
mtllib original-8.mtl
o mesh11/mesh11-geometry#mesh11-geometry
v 0.305362 0.212969 0.217930
v 0.305495 0.210047 0.217930
v 0.305436 0.209125 0.217930
v 0.306124 0.213621 0.217930
v 0.305436 0.209125 0.219132
v 0.305285 0.205236 0.217930
v 0.305362 0.212969 0.219132
v 0.305673 0.210863 0.217930
v 0.305495 0.210047 0.219132
v 0.305493 0.208197 0.219132
v 0.304746 0.212164 0.217930
v 0.305493 0.208197 0.217930
v 0.306124 0.213621 0.219132
v 0.305970 0.211573 0.217930
v 0.305285 0.205236 0.219132
v 0.304703 0.206004 0.217930
v 0.306007 0.204617 0.217930
v 0.306998 0.214086 0.217930
v 0.304746 0.212164 0.219132
v 0.306386 0.212177 0.217930
v 0.305673 0.210863 0.219132
v 0.305665 0.207380 0.219132
v 0.306007 0.204617 0.219132
v 0.304306 0.211239 0.217930
v 0.304703 0.206004 0.219132
v 0.305665 0.207380 0.217930
v 0.306998 0.214086 0.219132
v 0.305970 0.211573 0.219132
v 0.304287 0.206892 0.217930
v 0.304287 0.206892 0.219132
v 0.305952 0.206675 0.217930
v 0.306842 0.204174 0.219132
v 0.306386 0.212177 0.219132
v 0.307987 0.214365 0.217930
v 0.306907 0.212658 0.217930
v 0.304306 0.211239 0.219132
v 0.305952 0.206675 0.219132
v 0.304042 0.210194 0.217930
v 0.306353 0.206080 0.217930
v 0.306842 0.204174 0.217930
v 0.306353 0.206080 0.219132
v 0.306907 0.212658 0.219132
v 0.307987 0.214365 0.219132
v 0.307518 0.213002 0.217930
v 0.304037 0.207901 0.217930
v 0.304037 0.207901 0.219132
v 0.304042 0.210194 0.219132
v 0.307788 0.203909 0.219132
v 0.306859 0.205608 0.219132
v 0.307518 0.213002 0.219132
v 0.309089 0.214458 0.217930
v 0.308222 0.213208 0.217930
v 0.303954 0.209029 0.217930
v 0.306859 0.205608 0.217930
v 0.307788 0.203909 0.217930
v 0.308222 0.213208 0.219132
v 0.309089 0.214458 0.219132
v 0.303954 0.209029 0.219132
v 0.308847 0.203820 0.219132
v 0.307459 0.205271 0.219132
v 0.307459 0.205271 0.217930
v 0.310155 0.214369 0.217930
v 0.309016 0.213277 0.217930
v 0.309016 0.213277 0.219132
v 0.308847 0.203820 0.217930
v 0.308154 0.205069 0.219132
v 0.310155 0.214369 0.219132
v 0.309836 0.213212 0.217930
v 0.308154 0.205069 0.217930
v 0.309962 0.203911 0.219132
v 0.308943 0.205001 0.219132
v 0.309836 0.213212 0.219132
v 0.311106 0.214101 0.217930
v 0.310547 0.213018 0.217930
v 0.308943 0.205001 0.217930
v 0.309962 0.203911 0.217930
v 0.310547 0.213018 0.219132
v 0.311106 0.214101 0.219132
v 0.310958 0.204185 0.219132
v 0.309743 0.205069 0.219132
v 0.309743 0.205069 0.217930
v 0.311943 0.213654 0.217930
v 0.311149 0.212693 0.217930
v 0.311149 0.212693 0.219132
v 0.310958 0.204185 0.217930
v 0.310449 0.205273 0.219132
v 0.311943 0.213654 0.219132
v 0.310449 0.205273 0.217930
v 0.311837 0.204641 0.219132
v 0.311060 0.205612 0.219132
v 0.312666 0.213028 0.217930
v 0.311641 0.212239 0.217930
v 0.311641 0.212239 0.219132
v 0.311060 0.205612 0.217930
v 0.311837 0.204641 0.217930
v 0.312666 0.213028 0.219132
v 0.312023 0.211655 0.217930
v 0.312596 0.205280 0.219132
v 0.311577 0.206087 0.219132
v 0.311577 0.206087 0.217930
v 0.312023 0.211655 0.219132
v 0.313249 0.212251 0.219132
v 0.312297 0.210941 0.217930
v 0.312596 0.205280 0.217930
v 0.311987 0.206684 0.219132
v 0.312297 0.210941 0.219132
v 0.313249 0.212251 0.217930
v 0.313209 0.206072 0.219132
v 0.312461 0.210098 0.217930
v 0.311987 0.206684 0.217930
v 0.313209 0.206072 0.217930
v 0.312281 0.207389 0.219132
v 0.312461 0.210098 0.219132
v 0.313665 0.211351 0.219132
v 0.313647 0.206986 0.219132
v 0.312516 0.209125 0.217930
v 0.312281 0.207389 0.217930
v 0.312457 0.208203 0.219132
v 0.312516 0.209125 0.219132
v 0.313665 0.211351 0.217930
v 0.313647 0.206986 0.217930
v 0.312457 0.208203 0.217930
v 0.313914 0.210329 0.219132
v 0.313910 0.208023 0.219132
v 0.313910 0.208023 0.217930
v 0.313914 0.210329 0.217930
v 0.313998 0.209183 0.219132
v 0.313998 0.209183 0.217930
vn 0 0 -1
vn 0 0 1
vn 0.9902743983577622 -0.13912805596705433 0
vn 0.9999991782373694 -0.001282000228500536 0
vn -0.9999991782373694 0.001282000228500536 0
vn -0.9902743983577622 0.13912805596705433 0
vn -0.7260888652662366 0.6876008724081064 0
vn -0.563353828748349 0.8262157488420175 0
vn 0.7260888652662366 -0.6876008724081064 0
vn 0.563353828748349 -0.8262157488420175 0
vn 0.9909527816287143 0.13421097042460275 0
vn -0.9909527816287143 -0.13421097042460275 0
vn -0.8531058345486706 0.5217378988141618 0
vn 0.8531058345486706 -0.5217378988141618 0
vn 0.9536884601738668 -0.300796145140191 0
vn -0.9536884601738668 0.300796145140191 0
vn -0.3728660695057841 0.9278851729666273 0
vn 0.3728660695057841 -0.9278851729666273 0
vn 0.8777362376769616 -0.4791441297445816 0
vn -0.8777362376769616 0.4791441297445816 0
vn 0.9563232863949591 0.29231108753987606 0
vn -0.9563232863949591 -0.29231108753987606 0
vn -0.7280762083055453 -0.6854961961232318 0
vn -0.8558876564518991 -0.5171617924144012 0
vn 0.8558876564518991 0.5171617924144012 0
vn 0.7280762083055453 0.6854961961232318 0
vn -0.5633192307125081 -0.8262393383938265 0
vn 0.5633192307125081 0.8262393383938265 0
vn -0.9407733542835522 0.3390361276767918 0
vn 0.9407733542835522 -0.3390361276767918 0
vn 0.7558499102333803 -0.6547449222408608 0
vn -0.7558499102333803 0.6547449222408608 0
vn -0.9426096141385917 -0.33389686331784446 0
vn 0.9426096141385917 0.33389686331784446 0
vn -0.3714191244651694 -0.9284653111352772 0
vn 0.3714191244651694 0.9284653111352772 0
vn -0.17880201355060046 0.983885074564225 0
vn 0.17880201355060046 -0.983885074564225 0
vn 0.8825066933073559 0.4702998365593128 0
vn -0.8825066933073559 -0.4702998365593128 0
vn 0.5884637240482399 -0.8085236208542563 0
vn -0.5884637240482399 0.8085236208542563 0
vn -0.986989284293915 0.16078604631306065 0
vn 0.986989284293915 -0.16078604631306065 0
vn -0.9875166047396454 -0.15751493695355648 0
vn 0.9875166047396454 0.15751493695355648 0
vn 0.7604470000726228 0.6494000000620178 0
vn -0.7604470000726228 -0.6494000000620178 0
vn -0.17745692231913654 -0.9841285692027338 0
vn 0.17745692231913654 0.9841285692027338 0
vn -0.00025699999151270397 0.9999999669755018 0
vn 0.00025699999151270397 -0.9999999669755018 0
vn 0.388243013336536 -0.921557031656406 0
vn -0.388243013336536 0.921557031656406 0
vn 0.5900868397415826 0.8073397807390591 0
vn -0.5900868397415826 -0.8073397807390591 0
vn 0.18482894476554157 -0.9827707063078631 0
vn -0.18482894476554157 0.9827707063078631 0
vn -0.9999995950002459 0.0008999996355002213 0
vn 0.9999995950002459 -0.0008999996355002213 0
vn -0.0008479996951000684 -0.9999996404481939 0
vn 0.0008479996951000684 0.9999996404481939 0
vn 0.38706309661521865 0.9220532301546576 0
vn -0.38706309661521865 -0.9220532301546576 0
vn 0.17833400209934785 0.983970011583295 0
vn -0.17833400209934785 -0.983970011583295 0
vn 0.00371200041018906 -0.9999931105027449 0
vn -0.00371200041018906 0.9999931105027449 0
vn 0.17400804092669603 -0.9847442316118705 0
vn -0.17400804092669603 0.9847442316118705 0
vn 0.18319396065314741 0.9830767888523325 0
vn -0.18319396065314741 -0.9830767888523325 0
vn 0.3734321926400876 0.927657478544757 0
vn -0.3734321926400876 -0.927657478544757 0
vn -0.17224308319644352 -0.9850544757986653 0
vn 0.17224308319644352 0.9850544757986653 0
vn 0.0002989999866345514 0.999999955299503 0
vn -0.0002989999866345514 -0.999999955299503 0
vn -0.371804949667652 -0.9283108743317805 0
vn 0.371804949667652 0.9283108743317805 0
vn 0.365021097014955 -0.9309992474400819 0
vn -0.365021097014955 0.9309992474400819 0
vn -0.18172603681070232 0.9833491991887089 0
vn 0.18172603681070232 -0.9833491991887089 0
vn 0.566364100665281 0.8241551464849367 0
vn -0.566364100665281 -0.8241551464849367 0
vn -0.5810160639350113 -0.8138920895606905 0
vn 0.5810160639350113 0.8138920895606905 0
vn 0.5556328472362707 -0.8314277714101899 0
vn -0.5556328472362707 0.8314277714101899 0
vn -0.3837247919580964 0.923447499339684 0
vn 0.3837247919580964 -0.923447499339684 0
vn 0.7314577489151017 0.6818867659311566 0
vn -0.7314577489151017 -0.6818867659311566 0
vn -0.7630061980317988 -0.646391167765355 0
vn 0.7630061980317988 0.646391167765355 0
vn -0.5851511677695931 0.8109242325013364 0
vn 0.5851511677695931 -0.8109242325013364 0
vn 0.7210999983555315 -0.692830998419999 0
vn -0.7210999983555315 0.692830998419999 0
vn -0.7550310469319762 0.6556890407569763 0
vn 0.7550310469319762 -0.6556890407569763 0
vn 0.8585469435788723 0.5127349663045974 0
vn -0.8585469435788723 -0.5127349663045974 0
vn -0.8901963020681369 -0.4555771545898831 0
vn 0.8901963020681369 0.4555771545898831 0
vn -0.9613437791135073 -0.27535093673303557 0
vn 0.9613437791135073 0.27535093673303557 0
vn 0.8510231859856059 -0.5251281147633486 0
vn -0.8510231859856059 0.5251281147633486 0
vn -0.878282648575908 0.47814180868282985 0
vn 0.878282648575908 -0.47814180868282985 0
vn 0.943962779078281 0.33005192275581224 0
vn -0.943962779078281 -0.33005192275581224 0
vn -0.992309060676724 -0.1237850075690821 0
vn 0.992309060676724 0.1237850075690821 0
vn -0.9542215069133204 0.29910084544192134 0
vn 0.9542215069133204 -0.29910084544192134 0
vn 0.9402691227121805 -0.34043204442893793 0
vn -0.9402691227121805 0.34043204442893793 0
vn -0.9999930248628269 0.0037350000928633082 0
vn 0.9999930248628269 -0.0037350000928633082 0
vn -0.9904404392203193 0.1379410611712876 0
vn 0.9904404392203193 -0.1379410611712876 0
vn 0.9878555715863947 0.15537493261693616 0
vn -0.9878555715863947 -0.15537493261693616 0
vn 0.9869512986702604 -0.1610190487274309 0
vn -0.9869512986702604 0.1610190487274309 0
vn 0.9999990059494941 -0.0014100000083887949 0
vn -0.9999990059494941 0.0014100000083887949 0
usemtl material_0_0
f 1//1 2//1 3//1
f 2//1 1//1 4//1
f 3//2 2//2 1//2
f 4//2 1//2 2//2
f 2//3 5//4 3//4
f 3//5 5//5 2//6
f 6//1 1//1 3//1
f 3//2 1//2 6//2
f 7//7 4//8 1//7
f 1//9 4//10 7//9
f 2//1 4//1 8//1
f 8//2 4//2 2//2
f 5//4 2//3 9//3
f 9//6 2//6 5//5
f 10//11 3//4 5//4
f 5//5 3//5 10//12
f 6//1 11//1 1//1
f 1//2 11//2 6//2
f 6//1 3//1 12//1
f 12//2 3//2 6//2
f 4//8 7//7 13//8
f 13//10 7//9 4//10
f 11//13 7//7 1//7
f 1//9 7//9 11//14
f 8//1 4//1 14//1
f 14//2 4//2 8//2
f 8//15 9//3 2//3
f 2//6 9//6 8//16
f 9//2 7//2 5//2
f 5//1 7//1 9//1
f 3//4 10//11 12//11
f 12//12 10//12 3//5
f 5//2 15//2 10//2
f 10//1 15//1 5//1
f 16//1 11//1 6//1
f 6//2 11//2 16//2
f 6//1 12//1 17//1
f 17//2 12//2 6//2
f 7//2 9//2 13//2
f 13//1 9//1 7//1
f 13//8 18//17 4//8
f 4//10 18//18 13//10
f 7//7 11//13 19//13
f 19//14 11//14 7//9
f 14//1 4//1 20//1
f 20//2 4//2 14//2
f 14//19 21//15 8//15
f 8//16 21//16 14//20
f 9//3 8//15 21//15
f 21//16 8//16 9//6
f 7//2 15//2 5//2
f 5//1 15//1 7//1
f 22//21 12//11 10//11
f 10//12 12//12 22//22
f 10//2 15//2 23//2
f 23//1 15//1 10//1
f 16//1 24//1 11//1
f 11//2 24//2 16//2
f 6//23 25//24 16//24
f 16//25 25//25 6//26
f 17//1 12//1 26//1
f 26//2 12//2 17//2
f 23//27 6//23 17//27
f 17//28 6//26 23//28
f 13//2 9//2 21//2
f 21//1 9//1 13//1
f 18//17 13//8 27//17
f 27//18 13//10 18//18
f 20//1 4//1 18//1
f 18//2 4//2 20//2
f 24//29 19//13 11//13
f 11//14 19//14 24//30
f 19//2 15//2 7//2
f 7//1 15//1 19//1
f 20//31 28//19 14//19
f 14//20 28//20 20//32
f 21//15 14//19 28//19
f 28//20 14//20 21//16
f 12//11 22//21 26//21
f 26//22 22//22 12//12
f 10//2 23//2 22//2
f 22//1 23//1 10//1
f 6//23 23//27 15//23
f 15//26 23//28 6//26
f 29//1 24//1 16//1
f 16//2 24//2 29//2
f 25//24 6//23 15//23
f 15//26 6//26 25//25
f 30//33 16//24 25//24
f 25//25 16//25 30//34
f 17//1 26//1 31//1
f 31//2 26//2 17//2
f 17//27 32//35 23//27
f 23//28 32//36 17//28
f 13//2 21//2 28//2
f 28//1 21//1 13//1
f 13//2 33//2 27//2
f 27//1 33//1 13//1
f 27//17 34//37 18//17
f 18//18 34//38 27//18
f 20//1 18//1 35//1
f 35//2 18//2 20//2
f 19//13 24//29 36//29
f 36//30 24//30 19//14
f 19//2 25//2 15//2
f 15//1 25//1 19//1
f 28//19 20//31 33//31
f 33//32 20//32 28//20
f 37//39 26//21 22//21
f 22//22 26//22 37//40
f 22//2 23//2 37//2
f 37//1 23//1 22//1
f 29//1 38//1 24//1
f 24//2 38//2 29//2
f 16//24 30//33 29//33
f 29//34 30//34 16//25
f 36//2 30//2 25//2
f 25//1 30//1 36//1
f 26//21 37//39 31//39
f 31//40 37//40 26//22
f 17//1 31//1 39//1
f 39//2 31//2 17//2
f 32//35 17//27 40//35
f 40//36 17//28 32//36
f 41//2 23//2 32//2
f 32//1 23//1 41//1
f 13//2 28//2 33//2
f 33//1 28//1 13//1
f 27//2 33//2 42//2
f 42//1 33//1 27//1
f 34//37 27//17 43//37
f 43//38 27//18 34//38
f 44//1 18//1 34//1
f 34//2 18//2 44//2
f 35//1 18//1 44//1
f 44//2 18//2 35//2
f 42//41 20//31 35//41
f 35//42 20//32 42//42
f 38//43 36//29 24//29
f 24//30 36//30 38//44
f 36//2 25//2 19//2
f 19//1 25//1 36//1
f 20//31 42//41 33//31
f 33//32 42//42 20//32
f 37//2 23//2 41//2
f 41//1 23//1 37//1
f 45//1 38//1 29//1
f 29//2 38//2 45//2
f 46//45 29//33 30//33
f 30//34 29//34 46//46
f 47//2 30//2 36//2
f 36//1 30//1 47//1
f 41//47 31//39 37//39
f 37//40 31//40 41//48
f 31//39 41//47 39//47
f 39//48 41//48 31//40
f 17//1 39//1 40//1
f 40//2 39//2 17//2
f 40//35 48//49 32//35
f 32//36 48//50 40//36
f 41//2 32//2 49//2
f 49//1 32//1 41//1
f 27//2 42//2 50//2
f 50//1 42//1 27//1
f 27//2 50//2 43//2
f 43//1 50//1 27//1
f 43//37 51//51 34//37
f 34//38 51//52 43//38
f 44//1 34//1 52//1
f 52//2 34//2 44//2
f 50//53 35//41 44//53
f 44//54 35//42 50//54
f 35//41 50//53 42//41
f 42//42 50//54 35//42
f 36//29 38//43 47//43
f 47//44 38//44 36//30
f 38//1 45//1 53//1
f 53//2 45//2 38//2
f 29//33 46//45 45//45
f 45//46 46//46 29//34
f 47//2 46//2 30//2
f 30//1 46//1 47//1
f 41//47 54//55 39//47
f 39//48 54//56 41//48
f 40//1 39//1 54//1
f 54//2 39//2 40//2
f 48//49 40//35 55//49
f 55//50 40//36 48//50
f 49//2 32//2 48//2
f 48//1 32//1 49//1
f 54//55 41//47 49//55
f 49//56 41//48 54//56
f 43//2 50//2 56//2
f 56//1 50//1 43//1
f 51//51 43//37 57//51
f 57//52 43//38 51//52
f 52//1 34//1 51//1
f 51//2 34//2 52//2
f 56//57 44//53 52//57
f 52//58 44//54 56//58
f 44//53 56//57 50//53
f 50//54 56//58 44//54
f 53//59 47//43 38//43
f 38//44 47//44 53//60
f 45//45 58//59 53//59
f 53//60 58//60 45//46
f 58//59 45//45 46//45
f 46//46 45//46 58//60
f 46//2 47//2 58//2
f 58//1 47//1 46//1
f 40//1 54//1 55//1
f 55//2 54//2 40//2
f 55//49 59//61 48//49
f 48//50 59//62 55//50
f 49//2 48//2 60//2
f 60//1 48//1 49//1
f 49//55 61//63 54//55
f 54//56 61//64 49//56
f 43//2 56//2 57//2
f 57//1 56//1 43//1
f 57//51 62//65 51//51
f 51//52 62//66 57//52
f 52//1 51//1 63//1
f 63//2 51//2 52//2
f 52//57 64//67 56//57
f 56//58 64//68 52//58
f 47//43 53//59 58//59
f 58//60 53//60 47//44
f 55//1 54//1 61//1
f 61//2 54//2 55//2
f 59//61 55//49 65//61
f 65//62 55//50 59//62
f 66//2 48//2 59//2
f 59//1 48//1 66//1
f 60//2 48//2 66//2
f 66//1 48//1 60//1
f 61//63 49//55 60//63
f 60//64 49//56 61//64
f 57//2 56//2 64//2
f 64//1 56//1 57//1
f 62//65 57//51 67//65
f 67//66 57//52 62//66
f 68//1 51//1 62//1
f 62//2 51//2 68//2
f 63//1 51//1 68//1
f 68//2 51//2 63//2
f 64//67 52//57 63//67
f 63//68 52//58 64//68
f 55//1 61//1 69//1
f 69//2 61//2 55//2
f 55//1 69//1 65//1
f 65//2 69//2 55//2
f 65//61 70//69 59//61
f 59//62 70//70 65//62
f 66//2 59//2 71//2
f 71//1 59//1 66//1
f 69//71 60//63 66//71
f 66//72 60//64 69//72
f 60//63 69//71 61//63
f 61//64 69//72 60//64
f 57//2 64//2 72//2
f 72//1 64//1 57//1
f 57//2 72//2 67//2
f 67//1 72//1 57//1
f 67//65 73//73 62//65
f 62//66 73//74 67//66
f 68//1 62//1 74//1
f 74//2 62//2 68//2
f 72//75 63//67 68//75
f 68//76 63//68 72//76
f 63//67 72//75 64//67
f 64//68 72//76 63//68
f 65//1 69//1 75//1
f 75//2 69//2 65//2
f 70//69 65//61 76//69
f 76//70 65//62 70//70
f 71//2 59//2 70//2
f 70//1 59//1 71//1
f 75//77 66//71 71//77
f 71//78 66//72 75//78
f 66//71 75//77 69//71
f 69//72 75//78 66//72
f 67//2 72//2 77//2
f 77//1 72//1 67//1
f 73//73 67//65 78//73
f 78//74 67//66 73//74
f 74//1 62//1 73//1
f 73//2 62//2 74//2
f 77//79 68//75 74//79
f 74//80 68//76 77//80
f 68//75 77//79 72//75
f 72//76 77//80 68//76
f 65//1 75//1 76//1
f 76//2 75//2 65//2
f 76//69 79//81 70//69
f 70//70 79//82 76//70
f 71//2 70//2 80//2
f 80//1 70//1 71//1
f 71//77 81//83 75//77
f 75//78 81//84 71//78
f 67//2 77//2 78//2
f 78//1 77//1 67//1
f 78//73 82//85 73//73
f 73//74 82//86 78//74
f 74//1 73//1 83//1
f 83//2 73//2 74//2
f 74//79 84//87 77//79
f 77//80 84//88 74//80
f 76//1 75//1 81//1
f 81//2 75//2 76//2
f 79//81 76//69 85//81
f 85//82 76//70 79//82
f 86//2 70//2 79//2
f 79//1 70//1 86//1
f 80//2 70//2 86//2
f 86//1 70//1 80//1
f 81//83 71//77 80//83
f 80//84 71//78 81//84
f 78//2 77//2 84//2
f 84//1 77//1 78//1
f 82//85 78//73 87//85
f 87//86 78//74 82//86
f 83//1 73//1 82//1
f 82//2 73//2 83//2
f 84//87 74//79 83//87
f 83//88 74//80 84//88
f 76//1 81//1 88//1
f 88//2 81//2 76//2
f 76//1 88//1 85//1
f 85//2 88//2 76//2
f 85//81 89//89 79//81
f 79//82 89//90 85//82
f 86//2 79//2 90//2
f 90//1 79//1 86//1
f 88//91 80//83 86//91
f 86//92 80//84 88//92
f 80//83 88//91 81//83
f 81//84 88//92 80//84
f 78//2 84//2 87//2
f 87//1 84//1 78//1
f 87//85 91//93 82//85
f 82//86 91//94 87//86
f 83//1 82//1 92//1
f 92//2 82//2 83//2
f 83//87 93//95 84//87
f 84//88 93//96 83//88
f 85//1 88//1 94//1
f 94//2 88//2 85//2
f 89//89 85//81 95//89
f 95//90 85//82 89//90
f 90//2 79//2 89//2
f 89//1 79//1 90//1
f 94//97 86//91 90//97
f 90//98 86//92 94//98
f 86//91 94//97 88//91
f 88//92 94//98 86//92
f 87//2 84//2 93//2
f 93//1 84//1 87//1
f 91//93 87//85 96//93
f 96//94 87//86 91//94
f 97//1 82//1 91//1
f 91//2 82//2 97//2
f 92//1 82//1 97//1
f 97//2 82//2 92//2
f 93//95 83//87 92//95
f 92//96 83//88 93//96
f 85//1 94//1 95//1
f 95//2 94//2 85//2
f 95//89 98//99 89//89
f 89//90 98//100 95//90
f 90//2 89//2 99//2
f 99//1 89//1 90//1
f 90//97 100//101 94//97
f 94//98 100//102 90//98
f 87//2 93//2 101//2
f 101//1 93//1 87//1
f 87//2 101//2 96//2
f 96//1 101//1 87//1
f 102//103 91//93 96//93
f 96//94 91//94 102//104
f 97//1 91//1 103//1
f 103//2 91//2 97//2
f 97//105 93//95 92//95
f 92//96 93//96 97//106
f 95//1 94//1 100//1
f 100//2 94//2 95//2
f 98//99 95//89 104//99
f 104//100 95//90 98//100
f 105//2 89//2 98//2
f 98//1 89//1 105//1
f 99//2 89//2 105//2
f 105//1 89//1 99//1
f 100//101 90//97 99//101
f 99//102 90//98 100//102
f 93//95 97//105 101//105
f 101//106 97//106 93//96
f 96//2 101//2 106//2
f 106//1 101//1 96//1
f 91//93 102//103 107//103
f 107//104 102//104 91//94
f 96//2 108//2 102//2
f 102//1 108//1 96//1
f 103//1 91//1 109//1
f 109//2 91//2 103//2
f 103//107 101//105 97//105
f 97//106 101//106 103//108
f 95//1 100//1 110//1
f 110//2 100//2 95//2
f 95//1 110//1 104//1
f 104//2 110//2 95//2
f 111//109 98//99 104//99
f 104//100 98//100 111//110
f 105//2 98//2 112//2
f 112//1 98//1 105//1
f 105//111 100//101 99//101
f 99//102 100//102 105//112
f 101//105 103//107 106//107
f 106//108 103//108 101//106
f 96//2 106//2 113//2
f 113//1 106//1 96//1
f 114//113 107//103 102//103
f 102//104 107//104 114//114
f 111//1 91//1 107//1
f 107//2 91//2 111//2
f 96//2 98//2 108//2
f 108//1 98//1 96//1
f 102//2 108//2 115//2
f 115//1 108//1 102//1
f 109//1 91//1 116//1
f 116//2 91//2 109//2
f 109//115 106//107 103//107
f 103//108 106//108 109//116
f 100//101 105//111 110//111
f 110//112 105//112 100//102
f 104//1 110//1 117//1
f 117//2 110//2 104//2
f 98//99 111//109 108//109
f 108//110 111//110 98//100
f 104//1 91//1 111//1
f 111//2 91//2 104//2
f 112//2 98//2 118//2
f 118//1 98//1 112//1
f 112//117 110//111 105//111
f 105//112 110//112 112//118
f 106//107 109//115 113//115
f 113//116 109//116 106//108
f 96//2 113//2 119//2
f 119//1 113//1 96//1
f 107//103 114//113 120//113
f 120//114 114//114 107//104
f 102//2 115//2 114//2
f 114//1 115//1 102//1
f 111//1 107//1 121//1
f 121//2 107//2 111//2
f 96//2 119//2 98//2
f 98//1 119//1 96//1
f 108//109 121//119 115//119
f 115//120 121//120 108//110
f 116//1 91//1 104//1
f 104//2 91//2 116//2
f 116//121 113//115 109//115
f 109//116 113//116 116//122
f 110//111 112//117 117//117
f 117//118 112//118 110//112
f 104//1 117//1 122//1
f 122//2 117//2 104//2
f 121//119 108//109 111//109
f 111//110 108//110 121//120
f 118//2 98//2 119//2
f 119//1 98//1 118//1
f 118//123 117//117 112//117
f 112//118 117//118 118//124
f 113//115 116//121 119//121
f 119//122 116//122 113//116
f 123//125 120//113 114//113
f 114//114 120//114 123//126
f 121//1 107//1 120//1
f 120//2 107//2 121//2
f 114//2 115//2 124//2
f 124//1 115//1 114//1
f 125//127 115//119 121//119
f 121//120 115//120 125//128
f 104//1 122//1 116//1
f 116//2 122//2 104//2
f 117//117 118//123 122//123
f 122//124 118//124 117//118
f 119//121 122//123 118//123
f 118//124 122//124 119//122
f 122//123 119//121 116//121
f 116//122 119//122 122//124
f 120//113 123//125 126//125
f 126//126 123//126 120//114
f 114//2 124//2 123//2
f 123//1 124//1 114//1
f 121//1 120//1 125//1
f 125//2 120//2 121//2
f 115//119 125//127 124//127
f 124//128 125//128 115//120
f 127//129 126//125 123//125
f 123//126 126//126 127//130
f 125//1 120//1 126//1
f 126//2 120//2 125//2
f 123//2 124//2 127//2
f 127//1 124//1 123//1
f 128//129 124//127 125//127
f 125//128 124//128 128//130
f 126//125 127//129 128//129
f 128//130 127//130 126//126
f 125//1 126//1 128//1
f 128//2 126//2 125//2
f 124//127 128//129 127//129
f 127//130 128//130 124//128
