# SSTK version 0.8.0
# 53
mtllib original-53.mtl
o mesh84/mesh84-geometry#mesh84-geometry
v 0.483913 -0.291968 0.217930
v 0.485281 -0.292085 0.217930
v 0.483891 -0.292085 0.217930
v 0.484033 -0.291523 0.217930
v 0.485281 -0.292085 0.219123
v 0.483913 -0.291968 0.219123
v 0.484033 -0.291523 0.219123
v 0.484232 -0.291125 0.217930
v 0.483891 -0.292085 0.219123
v 0.485483 -0.291581 0.217930
v 0.484232 -0.291125 0.219123
v 0.484511 -0.290775 0.217930
v 0.485483 -0.291581 0.219123
v 0.485765 -0.290054 0.217930
v 0.484511 -0.290775 0.219123
v 0.484870 -0.290472 0.217930
v 0.485805 -0.291222 0.217930
v 0.485765 -0.290054 0.219123
v 0.485805 -0.291222 0.219123
v 0.484870 -0.290472 0.219123
v 0.486854 -0.289915 0.217930
v 0.486248 -0.291006 0.219123
v 0.486854 -0.289915 0.219123
v 0.486248 -0.291006 0.217930
v 0.486810 -0.290934 0.217930
v 0.486810 -0.290934 0.219123
v 0.488118 -0.290067 0.217930
v 0.487473 -0.291028 0.217930
v 0.487473 -0.291028 0.219123
v 0.488118 -0.290067 0.219123
v 0.488615 -0.290257 0.217930
v 0.487946 -0.291308 0.217930
v 0.487946 -0.291308 0.219123
v 0.488615 -0.290257 0.219123
v 0.488230 -0.291774 0.217930
v 0.488230 -0.291774 0.219123
v 0.489021 -0.290523 0.217930
v 0.488324 -0.292427 0.217930
v 0.488324 -0.292427 0.219123
v 0.489021 -0.290523 0.219123
v 0.488819 -0.294244 0.217930
v 0.488819 -0.294244 0.219123
v 0.489338 -0.290865 0.219123
v 0.489333 -0.293734 0.217930
v 0.488202 -0.293163 0.217930
v 0.488202 -0.293163 0.219123
v 0.489333 -0.293734 0.219123
v 0.489338 -0.290865 0.217930
v 0.488099 -0.294633 0.217930
v 0.488099 -0.294633 0.219123
v 0.489563 -0.291283 0.219123
v 0.489641 -0.293101 0.219123
v 0.489641 -0.293101 0.217930
v 0.487946 -0.294691 0.217930
v 0.487835 -0.293712 0.217930
v 0.487946 -0.294691 0.219123
v 0.489563 -0.291283 0.217930
v 0.487835 -0.293712 0.219123
v 0.489699 -0.291777 0.219123
v 0.489744 -0.292347 0.217930
v 0.489699 -0.291777 0.217930
v 0.488013 -0.295892 0.217930
v 0.487223 -0.294073 0.219123
v 0.488013 -0.295892 0.219123
v 0.488121 -0.294742 0.217930
v 0.489744 -0.292347 0.219123
v 0.487315 -0.295543 0.217930
v 0.487223 -0.294073 0.217930
v 0.487315 -0.295543 0.219123
v 0.488121 -0.294742 0.219123
v 0.488258 -0.296154 0.217930
v 0.486366 -0.294247 0.219123
v 0.488258 -0.296154 0.219123
v 0.488939 -0.295076 0.217930
v 0.486366 -0.294247 0.217930
v 0.486337 -0.295426 0.219123
v 0.486337 -0.295426 0.217930
v 0.488939 -0.295076 0.219123
v 0.488432 -0.296475 0.217930
v 0.486228 -0.294254 0.219123
v 0.488432 -0.296475 0.219123
v 0.489524 -0.295599 0.217930
v 0.486228 -0.295426 0.217930
v 0.488572 -0.297290 0.217930
v 0.486228 -0.294254 0.217930
v 0.486228 -0.295426 0.219123
v 0.488572 -0.297290 0.219123
v 0.489524 -0.295599 0.219123
v 0.489111 -0.299412 0.217930
v 0.488629 -0.299761 0.217930
v 0.488629 -0.299761 0.219123
v 0.489111 -0.299412 0.219123
v 0.489875 -0.296310 0.219123
v 0.489496 -0.298976 0.217930
v 0.488459 -0.298118 0.217930
v 0.488459 -0.298118 0.219123
v 0.489496 -0.298976 0.219123
v 0.489875 -0.296310 0.217930
v 0.489771 -0.298463 0.219123
v 0.489771 -0.298463 0.217930
v 0.488121 -0.298710 0.217930
v 0.488121 -0.298710 0.219123
v 0.489992 -0.297210 0.219123
v 0.489937 -0.297875 0.219123
v 0.488064 -0.300010 0.217930
v 0.488064 -0.300010 0.219123
v 0.489992 -0.297210 0.217930
v 0.489937 -0.297875 0.217930
v 0.487556 -0.299065 0.217930
v 0.487556 -0.299065 0.219123
v 0.487417 -0.300160 0.217930
v 0.487417 -0.300160 0.219123
v 0.486766 -0.299183 0.217930
v 0.486766 -0.299183 0.219123
v 0.486686 -0.300209 0.217930
v 0.486686 -0.300209 0.219123
v 0.486179 -0.299122 0.217930
v 0.486179 -0.299122 0.219123
v 0.485713 -0.298939 0.217930
v 0.485713 -0.298939 0.219123
v 0.485621 -0.300077 0.217930
v 0.485621 -0.300077 0.219123
v 0.485367 -0.298634 0.217930
v 0.485367 -0.298634 0.219123
v 0.484770 -0.299680 0.217930
v 0.485143 -0.298207 0.217930
v 0.485143 -0.298207 0.219123
v 0.484770 -0.299680 0.219123
v 0.485107 -0.298091 0.217930
v 0.485107 -0.298091 0.219123
v 0.484132 -0.299018 0.219123
v 0.484132 -0.299018 0.217930
v 0.483709 -0.298091 0.217930
v 0.483709 -0.298091 0.219123
vn 0 0 -1
vn 0 0 1
vn 0 -1 0
vn 0 1 0
vn -0.9828720963681566 0.1842890180690784 0
vn -0.9750001864122536 0.22220404248363942 0
vn 0.9750001864122536 -0.22220404248363942 0
vn 0.9828720963681566 -0.1842890180690784 0
vn -0.9345529865494462 0.35582399487880323 0
vn 0.9345529865494462 -0.35582399487880323 0
vn 0.8492504235212919 -0.52799026330881 0
vn 0.9280132805486653 -0.3725471126251072 0
vn -0.9280132805486653 0.3725471126251072 0
vn -0.8492504235212919 0.52799026330881 0
vn -0.8424771418087131 0.5387320906812786 0
vn 0.8424771418087131 -0.5387320906812786 0
vn -0.7166559130463517 0.6974269153794541 0
vn 0.7166559130463517 -0.6974269153794541 0
vn 0.6027170108145515 -0.7979550143177071 0
vn -0.6027170108145515 0.7979550143177071 0
vn -0.5384179584319815 0.8426779349418951 0
vn 0.5384179584319815 -0.8426779349418951 0
vn -0.27826812621785924 0.9605034356686089 0
vn 0.27826812621785924 -0.9605034356686089 0
vn 0.28636489062781917 -0.9581206340621818 0
vn -0.28636489062781917 0.9581206340621818 0
vn -0.003758999755420689 0.9999929349354618 0
vn 0.003758999755420689 -0.9999929349354618 0
vn -0.006366998283810862 -0.9999797304609999 0
vn 0.006366998283810862 0.9999797304609999 0
vn 0.24006495711552006 0.9707568265869283 0
vn -0.24006495711552006 -0.9707568265869283 0
vn -0.33061312918297275 -0.9437663687649835 0
vn 0.33061312918297275 0.9437663687649835 0
vn 0.4549711030789472 0.8905062017544437 0
vn -0.4549711030789472 -0.8905062017544437 0
vn -0.7025607625004282 -0.7116237594366962 0
vn 0.7025607625004282 0.7116237594366962 0
vn 0.6457640342045073 0.7635370404426493 0
vn -0.6457640342045073 -0.7635370404426493 0
vn -0.9409419350806544 -0.3385679766408418 0
vn 0.9409419350806544 0.3385679766408418 0
vn -0.9999459185464087 0.010399999152836903 0
vn 0.9999459185464087 -0.010399999152836903 0
vn 0.8134341065578413 0.5816570761956279 0
vn -0.8134341065578413 -0.5816570761956279 0
vn -0.9296883301542325 0.3683471308087456 0
vn 0.9296883301542325 -0.3683471308087456 0
vn 0.8130741646166381 -0.5821601178653137 0
vn 0.5959268138175943 -0.8030387491106579 0
vn -0.8130741646166381 0.5821601178653137 0
vn -0.5959268138175943 0.8030387491106579 0
vn 0.9280959974491282 0.37234099897662076 0
vn -0.9280959974491282 -0.37234099897662076 0
vn 0.9569059563459513 -0.29039798675204415 0
vn -0.9569059563459513 0.29039798675204415 0
vn 0.41640388265407124 -0.9091797437859109 0
vn -0.41640388265407124 0.9091797437859109 0
vn -0.6868747871371931 0.726775774771859 0
vn 0.6868747871371931 -0.726775774771859 0
vn 0.35599495333458264 -0.9344878775031319 0
vn -0.35599495333458264 0.9344878775031319 0
vn 0.9850051351180887 0.17252502366612177 0
vn -0.9850051351180887 -0.17252502366612177 0
vn 0.999602441609962 -0.02819501245615043 0
vn -0.999602441609962 0.02819501245615043 0
vn -0.3585510466652425 0.9335101214958835 0
vn 0.3585510466652425 -0.9335101214958835 0
vn 0.2800000000000001 0.9600000000000001 0
vn 0.3295500386324942 0.944138110679429 0
vn -0.2800000000000001 -0.9600000000000001 0
vn -0.3295500386324942 -0.944138110679429 0
vn -0.5988387290791324 -0.8008696376782488 0
vn -0.28713595196273356 -0.9578898397469591 0
vn 0.5988387290791324 0.8008696376782488 0
vn 0.28713595196273356 0.9578898397469591 0
vn -0.12603005384156288 0.9920264238056831 0
vn 0.12603005384156288 -0.9920264238056831 0
vn 0.5301019473184712 0.8479339157323317 0
vn -0.5301019473184712 -0.8479339157323317 0
vn -0.8110586947556845 -0.5849647798467915 0
vn 0.8110586947556845 0.5849647798467915 0
vn -0.059248017402537594 -0.9982432932075569 0
vn 0.059248017402537594 0.9982432932075569 0
vn -0.052558990581298336 0.998617821045206 0
vn 0.052558990581298336 -0.998617821045206 0
vn -0.9446176770102391 -0.32817288778901227 0
vn 0.9446176770102391 0.32817288778901227 0
vn 0.7962438136343798 0.604975858401787 0
vn -0.7962438136343798 -0.604975858401787 0
vn -0.9998534419308198 -0.01712000756696798 0
vn 0.9998534419308198 0.01712000756696798 0
vn -1 0 0
vn 1 0 0
vn 0.9571617065534089 0.2895539112285755 0
vn -0.9571617065534089 -0.2895539112285755 0
vn -0.9468127901891493 0.321784928693433 0
vn 0.9468127901891493 -0.321784928693433 0
vn 0.672109110163733 -0.7404521213656661 0
vn 0.4977541100932662 -0.8673181918334589 0
vn -0.672109110163733 0.7404521213656661 0
vn -0.4977541100932662 0.8673181918334589 0
vn 0.8207740208948548 -0.5712530145426737 0
vn -0.8207740208948548 0.5712530145426737 0
vn 0.9997284479819168 0.023303010442162878 0
vn -0.9997284479819168 -0.023303010442162878 0
vn 0.9274638131786643 -0.37391292468179244 0
vn -0.9274638131786643 0.37391292468179244 0
vn -0.7216916575252745 0.6922146715134128 0
vn 0.7216916575252745 -0.6922146715134128 0
vn 0.31569191572479155 -0.948861746697595 0
vn -0.31569191572479155 0.948861746697595 0
vn 0.984177576848513 -0.17718492381856107 0
vn -0.984177576848513 0.17718492381856107 0
vn -0.3476628564206587 0.9376196127777129 0
vn 0.3476628564206587 -0.9376196127777129 0
vn 0.1469629985646859 -0.9891419903395449 0
vn -0.1469629985646859 0.9891419903395449 0
vn -0.02261700458870798 0.9997442028356224 0
vn 0.02261700458870798 -0.9997442028356224 0
vn -0.027773007102600313 -0.9996142556388834 0
vn 0.027773007102600313 0.9996142556388834 0
vn 0.23633397221421654 0.9716718857605431 0
vn -0.23633397221421654 -0.9716718857605431 0
vn -0.27646988009103013 -0.9610225831906611 0
vn 0.27646988009103013 0.9610225831906611 0
vn 0.5213902238787536 0.8533183664047453 0
vn -0.5213902238787536 -0.8533183664047453 0
vn 0.7864539287012696 0.6176489440048757 0
vn -0.7864539287012696 -0.6176489440048757 0
vn -0.5813900079287062 -0.8136250110958112 0
vn 0.5813900079287062 0.8136250110958112 0
vn 0.9236134482324859 0.38332518602890786 0
vn -0.9236134482324859 -0.38332518602890786 0
vn -0.8266923362241084 -0.562654228837148 0
vn 0.8266923362241084 0.562654228837148 0
vn 0.9544799780350296 0.29827499313594674 0
vn -0.9544799780350296 -0.29827499313594674 0
vn -0.9095090868867717 -0.41568403971092177 0
vn 0.9095090868867717 0.41568403971092177 0
usemtl material_0_0
f 1//1 2//1 3//1
f 2//1 1//1 4//1
f 3//2 2//2 1//2
f 4//2 1//2 2//2
f 5//3 3//3 2//3
f 2//4 3//4 5//4
f 3//5 6//6 1//6
f 1//7 6//7 3//8
f 1//6 7//9 4//9
f 4//10 7//10 1//7
f 2//1 4//1 8//1
f 8//2 4//2 2//2
f 3//3 5//3 9//3
f 9//4 5//4 3//4
f 10//11 5//12 2//12
f 2//13 5//13 10//14
f 6//6 3//5 9//5
f 9//8 3//8 6//7
f 7//9 1//6 6//6
f 6//7 1//7 7//10
f 11//15 4//9 7//9
f 7//10 4//10 11//16
f 4//9 11//15 8//15
f 8//16 11//16 4//10
f 2//1 8//1 12//1
f 12//2 8//2 2//2
f 5//2 6//2 9//2
f 9//1 6//1 5//1
f 5//12 10//11 13//11
f 13//14 10//14 5//13
f 2//1 14//1 10//1
f 10//2 14//2 2//2
f 6//2 5//2 7//2
f 7//1 5//1 6//1
f 7//2 5//2 11//2
f 11//1 5//1 7//1
f 15//17 8//15 11//15
f 11//16 8//16 15//18
f 8//15 15//17 12//17
f 12//18 15//18 8//16
f 2//1 12//1 16//1
f 16//2 12//2 2//2
f 17//19 13//11 10//11
f 10//14 13//14 17//20
f 18//2 5//2 13//2
f 13//1 5//1 18//1
f 2//1 16//1 14//1
f 14//2 16//2 2//2
f 10//1 14//1 17//1
f 17//2 14//2 10//2
f 11//2 5//2 15//2
f 15//1 5//1 11//1
f 15//17 16//21 12//17
f 12//18 16//22 15//18
f 13//11 17//19 19//19
f 19//20 17//20 13//14
f 20//2 5//2 18//2
f 18//1 5//1 20//1
f 18//2 13//2 19//2
f 19//1 13//1 18//1
f 20//21 14//23 16//21
f 16//22 14//24 20//22
f 17//1 14//1 21//1
f 21//2 14//2 17//2
f 15//2 5//2 20//2
f 20//1 5//1 15//1
f 16//21 15//17 20//21
f 20//22 15//18 16//22
f 17//19 22//25 19//19
f 19//20 22//26 17//20
f 14//23 20//21 18//23
f 18//24 20//22 14//24
f 18//2 19//2 23//2
f 23//1 19//1 18//1
f 18//23 21//27 14//23
f 14//24 21//28 18//24
f 17//1 21//1 24//1
f 24//2 21//2 17//2
f 22//25 17//19 24//25
f 24//26 17//20 22//26
f 23//2 19//2 22//2
f 22//1 19//1 23//1
f 21//27 18//23 23//27
f 23//28 18//24 21//28
f 24//1 21//1 25//1
f 25//2 21//2 24//2
f 24//25 26//29 22//25
f 22//26 26//30 24//26
f 23//2 22//2 26//2
f 26//1 22//1 23//1
f 23//27 27//31 21//27
f 21//28 27//32 23//28
f 25//1 21//1 28//1
f 28//2 21//2 25//2
f 26//29 24//25 25//29
f 25//30 24//26 26//30
f 23//2 26//2 29//2
f 29//1 26//1 23//1
f 27//31 23//27 30//31
f 30//32 23//28 27//32
f 28//1 21//1 27//1
f 27//2 21//2 28//2
f 29//33 25//29 28//33
f 28//34 25//30 29//34
f 25//29 29//33 26//29
f 26//30 29//34 25//30
f 23//2 29//2 30//2
f 30//1 29//1 23//1
f 30//31 31//35 27//31
f 27//32 31//36 30//32
f 28//1 27//1 32//1
f 32//2 27//2 28//2
f 28//33 33//37 29//33
f 29//34 33//38 28//34
f 30//2 29//2 33//2
f 33//1 29//1 30//1
f 31//35 30//31 34//35
f 34//36 30//32 31//36
f 35//1 27//1 31//1
f 31//2 27//2 35//2
f 32//1 27//1 35//1
f 35//2 27//2 32//2
f 33//37 28//33 32//37
f 32//38 28//34 33//38
f 30//2 33//2 36//2
f 36//1 33//1 30//1
f 30//2 36//2 34//2
f 34//1 36//1 30//1
f 34//35 37//39 31//35
f 31//36 37//40 34//36
f 35//1 31//1 38//1
f 38//2 31//2 35//2
f 35//41 33//37 32//37
f 32//38 33//38 35//42
f 33//37 35//41 36//41
f 36//42 35//42 33//38
f 34//2 36//2 39//2
f 39//1 36//1 34//1
f 37//39 34//35 40//39
f 40//40 34//36 37//40
f 41//1 31//1 37//1
f 37//2 31//2 41//2
f 41//1 38//1 31//1
f 31//2 38//2 41//2
f 38//43 36//41 35//41
f 35//42 36//42 38//44
f 36//41 38//43 39//43
f 39//44 38//44 36//42
f 39//2 42//2 34//2
f 34//1 42//1 39//1
f 34//2 42//2 40//2
f 40//1 42//1 34//1
f 43//45 37//39 40//39
f 40//40 37//40 43//46
f 41//1 37//1 44//1
f 44//2 37//2 41//2
f 41//1 45//1 38//1
f 38//2 45//2 41//2
f 45//47 39//43 38//43
f 38//44 39//44 45//48
f 46//2 42//2 39//2
f 39//1 42//1 46//1
f 40//2 42//2 47//2
f 47//1 42//1 40//1
f 37//39 43//45 48//45
f 48//46 43//46 37//40
f 40//2 47//2 43//2
f 43//1 47//1 40//1
f 44//1 37//1 48//1
f 48//2 37//2 44//2
f 47//49 41//50 44//49
f 44//51 41//52 47//51
f 49//1 45//1 41//1
f 41//2 45//2 49//2
f 39//43 45//47 46//47
f 46//48 45//48 39//44
f 46//2 50//2 42//2
f 42//1 50//1 46//1
f 41//50 47//49 42//50
f 42//52 47//51 41//52
f 51//53 48//45 43//45
f 43//46 48//46 51//54
f 43//2 47//2 52//2
f 52//1 47//1 43//1
f 44//1 48//1 53//1
f 53//2 48//2 44//2
f 53//55 47//49 44//49
f 44//51 47//51 53//56
f 54//1 45//1 49//1
f 49//2 45//2 54//2
f 42//50 49//57 41//50
f 41//52 49//58 42//52
f 55//59 46//47 45//47
f 45//48 46//48 55//60
f 46//2 56//2 50//2
f 50//1 56//1 46//1
f 49//57 42//50 50//57
f 50//58 42//52 49//58
f 48//45 51//53 57//53
f 57//54 51//54 48//46
f 43//2 52//2 51//2
f 51//1 52//1 43//1
f 47//49 53//55 52//55
f 52//56 53//56 47//51
f 53//1 48//1 57//1
f 57//2 48//2 53//2
f 45//1 54//1 55//1
f 55//2 54//2 45//2
f 50//57 54//61 49//57
f 49//58 54//62 50//58
f 46//47 55//59 58//59
f 58//60 55//60 46//48
f 56//2 46//2 58//2
f 58//1 46//1 56//1
f 54//61 50//57 56//61
f 56//62 50//58 54//62
f 59//63 57//53 51//53
f 51//54 57//54 59//64
f 51//2 52//2 59//2
f 59//1 52//1 51//1
f 60//65 52//55 53//55
f 53//56 52//56 60//66
f 53//1 57//1 61//1
f 61//2 57//2 53//2
f 62//1 55//1 54//1
f 54//2 55//2 62//2
f 55//59 63//67 58//59
f 58//60 63//68 55//60
f 58//2 64//2 56//2
f 56//1 64//1 58//1
f 56//69 65//70 54//69
f 54//71 65//72 56//71
f 57//53 59//63 61//63
f 61//64 59//64 57//54
f 59//2 52//2 66//2
f 66//1 52//1 59//1
f 52//55 60//65 66//65
f 66//66 60//66 52//56
f 53//1 61//1 60//1
f 60//2 61//2 53//2
f 67//1 55//1 62//1
f 62//2 55//2 67//2
f 62//1 54//1 65//1
f 65//2 54//2 62//2
f 63//67 55//59 68//67
f 68//68 55//60 63//68
f 63//2 69//2 58//2
f 58//1 69//1 63//1
f 58//2 69//2 64//2
f 64//1 69//1 58//1
f 56//2 64//2 70//2
f 70//1 64//1 56//1
f 65//70 56//69 70//70
f 70//72 56//71 65//72
f 66//65 61//63 59//63
f 59//64 61//64 66//66
f 61//63 66//65 60//65
f 60//66 66//66 61//64
f 67//1 68//1 55//1
f 55//2 68//2 67//2
f 64//73 67//74 62//73
f 62//75 67//76 64//75
f 62//1 65//1 71//1
f 71//2 65//2 62//2
f 68//67 72//77 63//67
f 63//68 72//78 68//68
f 72//2 69//2 63//2
f 63//1 69//1 72//1
f 67//74 64//73 69//74
f 69//76 64//75 67//76
f 70//2 64//2 73//2
f 73//1 64//1 70//1
f 70//70 74//79 65//70
f 65//72 74//80 70//72
f 67//1 75//1 68//1
f 68//2 75//2 67//2
f 71//81 64//73 62//73
f 62//75 64//75 71//82
f 71//1 65//1 74//1
f 74//2 65//2 71//2
f 72//77 68//67 75//77
f 75//78 68//68 72//78
f 72//2 76//2 69//2
f 69//1 76//1 72//1
f 69//74 77//83 67//74
f 67//76 77//84 69//76
f 64//73 71//81 73//81
f 73//82 71//82 64//75
f 70//2 73//2 78//2
f 78//1 73//1 70//1
f 74//79 70//70 78//79
f 78//80 70//72 74//80
f 77//1 75//1 67//1
f 67//2 75//2 77//2
f 71//1 74//1 79//1
f 79//2 74//2 71//2
f 75//77 80//85 72//77
f 72//78 80//86 75//78
f 80//2 76//2 72//2
f 72//1 76//1 80//1
f 77//83 69//74 76//83
f 76//84 69//76 77//84
f 79//87 73//81 71//81
f 71//82 73//82 79//88
f 78//2 73//2 81//2
f 81//1 73//1 78//1
f 78//79 82//89 74//79
f 74//80 82//90 78//80
f 83//1 75//1 77//1
f 77//2 75//2 83//2
f 79//1 74//1 84//1
f 84//2 74//2 79//2
f 80//85 75//77 85//85
f 85//86 75//78 80//86
f 76//2 80//2 86//2
f 86//1 80//1 76//1
f 76//83 83//3 77//83
f 77//84 83//4 76//84
f 73//81 79//87 81//87
f 81//88 79//88 73//82
f 78//2 81//2 87//2
f 87//1 81//1 78//1
f 82//89 78//79 88//89
f 88//90 78//80 82//90
f 89//1 74//1 82//1
f 82//2 74//2 89//2
f 75//1 83//1 85//1
f 85//2 83//2 75//2
f 84//1 74//1 90//1
f 90//2 74//2 84//2
f 84//91 81//87 79//87
f 79//88 81//88 84//92
f 83//93 80//93 85//93
f 85//94 80//94 83//94
f 80//93 83//93 86//93
f 86//94 83//94 80//94
f 83//3 76//83 86//3
f 86//4 76//84 83//4
f 81//87 84//91 87//91
f 87//92 84//92 81//88
f 78//2 87//2 91//2
f 91//1 87//1 78//1
f 78//2 92//2 88//2
f 88//1 92//1 78//1
f 93//95 82//89 88//89
f 88//90 82//90 93//96
f 90//1 74//1 89//1
f 89//2 74//2 90//2
f 89//1 82//1 94//1
f 94//2 82//2 89//2
f 90//1 95//1 84//1
f 84//2 95//2 90//2
f 95//97 87//91 84//91
f 84//92 87//92 95//98
f 96//2 91//2 87//2
f 87//1 91//1 96//1
f 78//2 91//2 92//2
f 92//1 91//1 78//1
f 88//2 92//2 97//2
f 97//1 92//1 88//1
f 82//89 93//95 98//95
f 98//96 93//96 82//90
f 88//2 99//2 93//2
f 93//1 99//1 88//1
f 92//99 90//100 89//99
f 89//101 90//102 92//101
f 94//1 82//1 100//1
f 100//2 82//2 94//2
f 94//103 92//99 89//99
f 89//101 92//101 94//104
f 90//1 101//1 95//1
f 95//2 101//2 90//2
f 87//91 95//97 96//97
f 96//98 95//98 87//92
f 102//2 91//2 96//2
f 96//1 91//1 102//1
f 90//100 92//99 91//100
f 91//102 92//101 90//102
f 92//99 94//103 97//103
f 97//104 94//104 92//101
f 88//2 97//2 99//2
f 99//1 97//1 88//1
f 103//105 98//95 93//95
f 93//96 98//96 103//106
f 100//1 82//1 98//1
f 98//2 82//2 100//2
f 93//2 99//2 104//2
f 104//1 99//1 93//1
f 100//107 97//103 94//103
f 94//104 97//104 100//108
f 105//1 101//1 90//1
f 90//2 101//2 105//2
f 101//109 96//97 95//97
f 95//98 96//98 101//110
f 102//2 106//2 91//2
f 91//1 106//1 102//1
f 96//97 101//109 102//109
f 102//110 101//110 96//98
f 91//100 105//111 90//100
f 90//102 105//112 91//102
f 97//103 100//107 99//107
f 99//108 100//108 97//104
f 98//95 103//105 107//105
f 107//106 103//106 98//96
f 93//2 104//2 103//2
f 103//1 104//1 93//1
f 100//1 98//1 108//1
f 108//2 98//2 100//2
f 99//107 108//113 104//113
f 104//114 108//114 99//108
f 105//1 109//1 101//1
f 101//2 109//2 105//2
f 110//2 106//2 102//2
f 102//1 106//1 110//1
f 105//111 91//100 106//111
f 106//112 91//102 105//112
f 101//109 110//115 102//109
f 102//110 110//116 101//110
f 108//113 99//107 100//107
f 100//108 99//108 108//114
f 104//113 107//105 103//105
f 103//106 107//106 104//114
f 108//1 98//1 107//1
f 107//2 98//2 108//2
f 107//105 104//113 108//113
f 108//114 104//114 107//106
f 111//1 109//1 105//1
f 105//2 109//2 111//2
f 110//115 101//109 109//115
f 109//116 101//110 110//116
f 110//2 112//2 106//2
f 106//1 112//1 110//1
f 106//111 111//117 105//111
f 105//112 111//118 106//112
f 111//1 113//1 109//1
f 109//2 113//2 111//2
f 109//115 114//119 110//115
f 110//116 114//120 109//116
f 114//2 112//2 110//2
f 110//1 112//1 114//1
f 111//117 106//111 112//117
f 112//118 106//112 111//118
f 115//1 113//1 111//1
f 111//2 113//2 115//2
f 114//119 109//115 113//119
f 113//120 109//116 114//120
f 114//2 116//2 112//2
f 112//1 116//1 114//1
f 112//117 115//121 111//117
f 111//118 115//122 112//118
f 115//1 117//1 113//1
f 113//2 117//2 115//2
f 113//119 118//123 114//119
f 114//120 118//124 113//120
f 118//2 116//2 114//2
f 114//1 116//1 118//1
f 115//121 112//117 116//121
f 116//122 112//118 115//122
f 115//1 119//1 117//1
f 117//2 119//2 115//2
f 118//123 113//119 117//123
f 117//124 113//120 118//124
f 120//2 116//2 118//2
f 118//1 116//1 120//1
f 116//121 121//125 115//121
f 115//122 121//126 116//122
f 121//1 119//1 115//1
f 115//2 119//2 121//2
f 120//127 117//123 119//127
f 119//128 117//124 120//128
f 117//123 120//127 118//123
f 118//124 120//128 117//124
f 120//2 122//2 116//2
f 116//1 122//1 120//1
f 121//125 116//121 122//125
f 122//126 116//122 121//126
f 121//1 123//1 119//1
f 119//2 123//2 121//2
f 119//127 124//129 120//127
f 120//128 124//130 119//128
f 124//2 122//2 120//2
f 120//1 122//1 124//1
f 122//125 125//131 121//125
f 121//126 125//132 122//126
f 121//1 126//1 123//1
f 123//2 126//2 121//2
f 124//129 119//127 123//129
f 123//130 119//128 124//130
f 127//2 122//2 124//2
f 124//1 122//1 127//1
f 125//131 122//125 128//131
f 128//132 122//126 125//132
f 125//1 129//1 121//1
f 121//2 129//2 125//2
f 121//1 129//1 126//1
f 126//2 129//2 121//2
f 126//133 124//129 123//129
f 123//130 124//130 126//134
f 130//2 122//2 127//2
f 127//1 122//1 130//1
f 124//129 126//133 127//133
f 127//134 126//134 124//130
f 130//2 128//2 122//2
f 122//1 128//1 130//1
f 131//135 125//131 128//131
f 128//132 125//132 131//136
f 132//1 129//1 125//1
f 125//2 129//2 132//2
f 129//137 127//133 126//133
f 126//134 127//134 129//138
f 127//133 129//137 130//137
f 130//138 129//138 127//134
f 130//2 131//2 128//2
f 128//1 131//1 130//1
f 125//131 131//135 132//135
f 132//136 131//136 125//132
f 129//1 132//1 133//1
f 133//2 132//2 129//2
f 129//4 134//4 130//4
f 130//3 134//3 129//3
f 131//2 130//2 134//2
f 134//1 130//1 131//1
f 134//139 132//135 131//135
f 131//136 132//136 134//140
f 132//135 134//139 133//139
f 133//140 134//140 132//136
f 134//4 129//4 133//4
f 133//3 129//3 134//3
