# SSTK version 0.8.0
# 82
mtllib original-82.mtl
o mesh184/mesh184-geometry#mesh184-geometry
v 0.272823 -0.400113 -0.207607
v 0.275152 -0.417770 -0.207607
v 0.275152 -0.400113 -0.207607
v 0.272823 -0.417770 -0.207607
v 0.275152 -0.400113 -0.209726
v 0.272823 -0.417770 -0.209726
v 0.275152 -0.417770 -0.209726
v 0.272823 -0.400113 -0.209726
vt -0.421698 0.154321
vt -0.401348 0
vt -0.401348 0.154321
vt -0.421698 0
vt 0 0
vt -0.154321 0.018519
vt -0.154321 0
vt -0.401348 0.018519
vt 0.154321 0
vt 0 0.018519
vt 0.421698 0.018519
vt 0.401348 0
vt 0.421698 0
vt -0.421698 0.018519
vt 0.154321 0.018519
vt 0.401348 0.018519
vt 0.401348 0.154321
vt 0.421698 0.154321
vn 0 0 1
vn 0 0 -1
vn 1 0 0
vn -1 0 0
vn 0 1 0
vn 0 -1 0
usemtl material_0_0
f 1/1/1 2/2/1 3/3/1
f 2/2/1 1/1/1 4/4/1
f 3/3/2 2/2/2 1/1/2
f 4/4/2 1/1/2 2/2/2
f 2/5/3 5/6/3 3/7/3
f 3/7/4 5/6/4 2/5/4
f 5/8/5 1/4/5 3/2/5
f 3/2/6 1/4/6 5/8/6
f 1/9/4 6/10/4 4/5/4
f 4/5/3 6/10/3 1/9/3
f 6/11/6 2/12/6 4/13/6
f 4/13/5 2/12/5 6/11/5
f 5/6/3 2/5/3 7/10/3
f 7/10/4 2/5/4 5/6/4
f 1/4/5 5/8/5 8/14/5
f 8/14/6 5/8/6 1/4/6
f 6/10/4 1/9/4 8/15/4
f 8/15/3 1/9/3 6/10/3
f 2/12/6 6/11/6 7/16/6
f 7/16/5 6/11/5 2/12/5
f 6/13/2 5/17/2 7/12/2
f 7/12/1 5/17/1 6/13/1
f 5/17/2 6/13/2 8/18/2
f 8/18/1 6/13/1 5/17/1
