# SSTK version 0.8.0
# 18
mtllib original-18.mtl
o mesh6/mesh6-geometry#mesh6-geometry
v 0.246980 0.546323 0.514552
v 0.245342 0.544512 0.514552
v 0.245342 0.546189 0.514552
v 0.248670 0.544512 0.514552
v 0.248122 0.546725 0.514552
v 0.248520 0.547053 0.514552
v 0.248820 0.547500 0.514552
v 0.248670 0.532209 0.514552
v 0.251037 0.532209 0.514552
v 0.254292 0.530335 0.514552
v 0.249126 0.548753 0.514552
v 0.245342 0.530335 0.514552
v 0.254292 0.532209 0.514552
v 0.251037 0.548753 0.514552
v 0.245342 0.532209 0.514552
vn 0 0 -1
vn 0 0 1
usemtl material_0_0
f 1//1 2//1 3//1
f 2//1 1//1 4//1
f 3//2 2//2 1//2
f 4//2 1//2 2//2
f 4//1 1//1 5//1
f 5//2 1//2 4//2
f 4//1 5//1 6//1
f 6//2 5//2 4//2
f 4//1 6//1 7//1
f 7//2 6//2 4//2
f 4//1 7//1 8//1
f 8//2 7//2 4//2
f 9//1 8//1 7//1
f 7//2 8//2 9//2
f 10//1 8//1 9//1
f 9//2 8//2 10//2
f 9//1 7//1 11//1
f 11//2 7//2 9//2
f 12//1 8//1 10//1
f 10//2 8//2 12//2
f 10//1 9//1 13//1
f 13//2 9//2 10//2
f 9//1 11//1 14//1
f 14//2 11//2 9//2
f 8//1 12//1 15//1
f 15//2 12//2 8//2
