# SSTK version 0.8.0
# 218
mtllib original-218.mtl
o #ID1050
v 0.362013 0.276639 -0.118066
v 0.362022 0.274088 -0.118070
v 0.361981 0.275352 -0.117826
v 0.362119 0.277715 -0.118787
v 0.362138 0.273007 -0.118802
v 0.362279 0.278443 -0.119851
v 0.362303 0.272266 -0.119870
v 0.362472 0.278685 -0.121123
v 0.362495 0.272018 -0.121120
v 0.362667 0.278443 -0.122395
v 0.362688 0.272261 -0.122392
v 0.362832 0.277715 -0.123458
v 0.362848 0.272989 -0.123456
v 0.362945 0.276639 -0.124177
v 0.362954 0.274065 -0.124176
v 0.362986 0.275352 -0.124417
vn -0.9885557680140977 -0.003370638077551744 -0.15081820952725603
vn 0.9885557680140977 0.003370638077551744 0.15081820952725603
usemtl material_0_2
f 1//1 2//1 3//1
f 3//2 2//2 1//2
f 2//1 1//1 4//1
f 4//2 1//2 2//2
f 2//1 4//1 5//1
f 5//2 4//2 2//2
f 5//1 4//1 6//1
f 6//2 4//2 5//2
f 5//1 6//1 7//1
f 7//2 6//2 5//2
f 7//1 6//1 8//1
f 8//2 6//2 7//2
f 7//1 8//1 9//1
f 9//2 8//2 7//2
f 9//1 8//1 10//1
f 10//2 8//2 9//2
f 9//1 10//1 11//1
f 11//2 10//2 9//2
f 11//1 10//1 12//1
f 12//2 10//2 11//2
f 11//1 12//1 13//1
f 13//2 12//2 11//2
f 13//1 12//1 14//1
f 14//2 12//2 13//2
f 13//1 14//1 15//1
f 15//2 14//2 13//2
f 15//1 14//1 16//1
f 16//2 14//2 15//2
