# SSTK version 0.8.0
# 109
mtllib original-109.mtl
o #ID489
v 0.040376 0.264079 0.714857
v 0.040073 0.263673 0.714857
v 0.040073 0.264010 0.714857
v 0.041829 0.263736 0.714857
v 0.040918 0.264195 0.714857
v 0.041171 0.264302 0.714857
v 0.041263 0.264479 0.714857
v 0.041343 0.266471 0.714857
v 0.041372 0.269366 0.714857
v 0.047528 0.271729 0.714857
v 0.047852 0.269186 0.714857
v 0.047832 0.266379 0.714857
v 0.047877 0.270745 0.714857
v 0.047958 0.271088 0.714857
v 0.048061 0.271191 0.714857
v 0.049142 0.271792 0.714857
v 0.048913 0.271403 0.714857
v 0.049142 0.271454 0.714857
v 0.045909 0.271454 0.714857
v 0.045909 0.271792 0.714857
v 0.046178 0.271391 0.714857
v 0.046976 0.271185 0.714857
v 0.047108 0.271019 0.714857
v 0.047162 0.269869 0.714857
v 0.047214 0.266751 0.714857
v 0.047517 0.263501 0.714857
v 0.047889 0.263673 0.714857
v 0.040934 0.271729 0.714857
v 0.039792 0.271454 0.714857
v 0.039792 0.271792 0.714857
v 0.040101 0.271391 0.714857
v 0.041183 0.271154 0.714857
v 0.042138 0.271792 0.714857
v 0.041332 0.270962 0.714857
v 0.042001 0.270231 0.714857
v 0.045131 0.266465 0.714857
v 0.043763 0.269761 0.714857
v 0.047208 0.265589 0.714857
v 0.042196 0.264302 0.714857
v 0.043306 0.263673 0.714857
v 0.042093 0.264479 0.714857
v 0.042030 0.266849 0.714857
v 0.042472 0.264185 0.714857
v 0.043048 0.264062 0.714857
v 0.043306 0.264010 0.714857
vn 0 0 -1
vn 0 0 1
usemtl material_0_2
f 1//1 2//1 3//1
f 3//2 2//2 1//2
f 2//1 1//1 4//1
f 4//2 1//2 2//2
f 4//1 1//1 5//1
f 5//2 1//2 4//2
f 4//1 5//1 6//1
f 6//2 5//2 4//2
f 4//1 6//1 7//1
f 7//2 6//2 4//2
f 4//1 7//1 8//1
f 8//2 7//2 4//2
f 4//1 8//1 9//1
f 9//2 8//2 4//2
f 10//1 11//1 12//1
f 12//2 11//2 10//2
f 11//1 10//1 13//1
f 13//2 10//2 11//2
f 13//1 10//1 14//1
f 14//2 10//2 13//2
f 14//1 10//1 15//1
f 15//2 10//2 14//2
f 15//1 10//1 16//1
f 16//2 10//2 15//2
f 15//1 16//1 17//1
f 17//2 16//2 15//2
f 17//1 16//1 18//1
f 18//2 16//2 17//2
f 10//1 19//1 20//1
f 20//2 19//2 10//2
f 19//1 10//1 21//1
f 21//2 10//2 19//2
f 21//1 10//1 22//1
f 22//2 10//2 21//2
f 22//1 10//1 23//1
f 23//2 10//2 22//2
f 23//1 10//1 24//1
f 24//2 10//2 23//2
f 24//1 10//1 25//1
f 25//2 10//2 24//2
f 25//1 10//1 26//1
f 26//2 10//2 25//2
f 26//1 10//1 27//1
f 27//2 10//2 26//2
f 27//1 10//1 12//1
f 12//2 10//2 27//2
f 28//1 29//1 30//1
f 30//2 29//2 28//2
f 29//1 28//1 31//1
f 31//2 28//2 29//2
f 31//1 28//1 32//1
f 32//2 28//2 31//2
f 32//1 28//1 33//1
f 33//2 28//2 32//2
f 32//1 33//1 34//1
f 34//2 33//2 32//2
f 34//1 33//1 9//1
f 9//2 33//2 34//2
f 9//1 33//1 35//1
f 35//2 33//2 9//2
f 9//1 35//1 4//1
f 4//2 35//2 9//2
f 35//1 33//1 36//1
f 36//2 33//2 35//2
f 36//1 33//1 37//1
f 37//2 33//2 36//2
f 36//1 37//1 38//1
f 38//2 37//2 36//2
f 36//1 38//1 26//1
f 26//2 38//2 36//2
f 26//1 38//1 25//1
f 25//2 38//2 26//2
f 4//1 39//1 40//1
f 40//2 39//2 4//2
f 39//1 4//1 41//1
f 41//2 4//2 39//2
f 41//1 4//1 42//1
f 42//2 4//2 41//2
f 42//1 4//1 35//1
f 35//2 4//2 42//2
f 40//1 39//1 43//1
f 43//2 39//2 40//2
f 40//1 43//1 44//1
f 44//2 43//2 40//2
f 40//1 44//1 45//1
f 45//2 44//2 40//2
