# SSTK version 0.8.0
# 78
mtllib original-78.mtl
o #ID307
v -0.096462 0.244332 0.714731
v -0.096478 0.243966 0.714731
v -0.096526 0.244135 0.714731
v -0.096333 0.243828 0.714731
v -0.096271 0.244486 0.714731
v -0.096008 0.243740 0.714731
v -0.095623 0.244600 0.714731
v -0.095649 0.243802 0.714731
v -0.093246 0.246550 0.714731
v -0.093746 0.245205 0.714731
v -0.093790 0.246432 0.714731
v -0.093264 0.245915 0.714731
v -0.092896 0.246478 0.714731
v -0.092773 0.246818 0.714731
v -0.096201 0.239830 0.714731
v -0.096473 0.242110 0.714731
v -0.096028 0.240799 0.714731
v -0.095509 0.242162 0.714731
v -0.095009 0.244766 0.714731
v -0.094456 0.244144 0.714731
v -0.094009 0.246266 0.714731
v -0.093816 0.244345 0.714731
v -0.093866 0.246449 0.714731
v -0.092492 0.244679 0.714731
v -0.092352 0.245468 0.714731
v -0.092036 0.244766 0.714731
v -0.091990 0.245367 0.714731
v -0.091911 0.244889 0.714731
v -0.091870 0.245064 0.714731
v -0.096933 0.240786 0.714731
v -0.097041 0.239210 0.714731
v -0.097087 0.239637 0.714731
v -0.096903 0.238892 0.714731
v -0.096567 0.238583 0.714731
v -0.096157 0.238480 0.714731
v -0.096109 0.239497 0.714731
v -0.095726 0.238564 0.714731
v -0.095833 0.239383 0.714731
v -0.095349 0.239589 0.714731
v -0.095272 0.238817 0.714731
v -0.094772 0.240207 0.714731
v -0.094796 0.239239 0.714731
v -0.094299 0.239830 0.714731
v -0.094071 0.241224 0.714731
v -0.093661 0.240753 0.714731
v -0.093897 0.241441 0.714731
v -0.093711 0.241513 0.714731
v -0.093518 0.241434 0.714731
v -0.093448 0.241277 0.714731
vn 0 0 -1
vn 0 0 1
usemtl material_0_2
f 1//1 2//1 3//1
f 3//2 2//2 1//2
f 2//1 1//1 4//1
f 4//2 1//2 2//2
f 4//1 1//1 5//1
f 5//2 1//2 4//2
f 4//1 5//1 6//1
f 6//2 5//2 4//2
f 6//1 5//1 7//1
f 7//2 5//2 6//2
f 6//1 7//1 8//1
f 8//2 7//2 6//2
f 9//1 10//1 11//1
f 11//2 10//2 9//2
f 10//1 9//1 12//1
f 12//2 9//2 10//2
f 12//1 9//1 13//1
f 13//2 9//2 12//2
f 13//1 9//1 14//1
f 14//2 9//2 13//2
f 8//1 15//1 16//1
f 16//2 15//2 8//2
f 15//1 8//1 17//1
f 17//2 8//2 15//2
f 17//1 8//1 18//1
f 18//2 8//2 17//2
f 18//1 8//1 7//1
f 7//2 8//2 18//2
f 18//1 7//1 19//1
f 19//2 7//2 18//2
f 18//1 19//1 20//1
f 20//2 19//2 18//2
f 20//1 19//1 21//1
f 21//2 19//2 20//2
f 20//1 21//1 22//1
f 22//2 21//2 20//2
f 22//1 21//1 23//1
f 23//2 21//2 22//2
f 22//1 23//1 11//1
f 11//2 23//2 22//2
f 22//1 11//1 10//1
f 10//2 11//2 22//2
f 22//1 10//1 24//1
f 24//2 10//2 22//2
f 24//1 10//1 25//1
f 25//2 10//2 24//2
f 24//1 25//1 26//1
f 26//2 25//2 24//2
f 26//1 25//1 27//1
f 27//2 25//2 26//2
f 26//1 27//1 28//1
f 28//2 27//2 26//2
f 28//1 27//1 29//1
f 29//2 27//2 28//2
f 30//1 31//1 32//1
f 32//2 31//2 30//2
f 31//1 30//1 33//1
f 33//2 30//2 31//2
f 33//1 30//1 16//1
f 16//2 30//2 33//2
f 33//1 16//1 34//1
f 34//2 16//2 33//2
f 34//1 16//1 35//1
f 35//2 16//2 34//2
f 35//1 16//1 15//1
f 15//2 16//2 35//2
f 35//1 15//1 36//1
f 36//2 15//2 35//2
f 35//1 36//1 37//1
f 37//2 36//2 35//2
f 37//1 36//1 38//1
f 38//2 36//2 37//2
f 37//1 38//1 39//1
f 39//2 38//2 37//2
f 37//1 39//1 40//1
f 40//2 39//2 37//2
f 40//1 39//1 41//1
f 41//2 39//2 40//2
f 40//1 41//1 42//1
f 42//2 41//2 40//2
f 42//1 41//1 43//1
f 43//2 41//2 42//2
f 43//1 41//1 44//1
f 44//2 41//2 43//2
f 43//1 44//1 45//1
f 45//2 44//2 43//2
f 45//1 44//1 46//1
f 46//2 44//2 45//2
f 45//1 46//1 47//1
f 47//2 46//2 45//2
f 45//1 47//1 48//1
f 48//2 47//2 45//2
f 45//1 48//1 49//1
f 49//2 48//2 45//2
