# SSTK version 0.8.0
# 1
mtllib original-1.mtl
o Group1/mesh1/mesh1-geometry#mesh1-geometry
v 0.355981 0.352663 0.531558
v -0.597014 0.352663 0.584273
v -0.597014 0.352663 0.531558
v 0.355981 0.352663 0.584273
v -0.597014 -0.320358 0.584273
v -0.663729 0.463623 0.531558
v 0.355981 0.463623 0.584273
v -0.597014 -0.320358 0.531558
v -0.663729 0.463623 0.584273
v 0.355981 0.463623 0.531558
v 0.355981 -0.320358 0.584273
v -0.663729 -0.425939 0.584273
v -0.663729 -0.425939 0.531558
v 0.355981 -0.320358 0.531558
v 0.355981 -0.425939 0.584273
v 0.355981 -0.425939 0.531558
vt -0.324482 0.005208
vt -0.023176 -0.011458
vt -0.023176 0.005208
vt -0.324482 -0.011458
vt -0.011458 0.033381
vt 0.005208 0.246168
vt -0.011458 0.246168
vt -0.023176 0.246168
vt -0.002083 0.28125
vt -0.324482 0.246168
vt -0.011458 0.28125
vt 0.324482 0.28125
vt 0.023176 0.246168
vt 0.324482 0.246168
vt 0.005208 0.033381
vt 0.002083 0.28125
vt 0.023176 0.033381
vt -0.023176 0.033381
vt -0.324482 0.28125
vt 0.005208 0.28125
vt 0.324482 -0.011458
vt 0.023176 0.005208
vt 0.023176 -0.011458
vt 0.002083 0
vt -0.002083 0
vt 0.002083 0.005208
vt 0.324482 0.005208
vt 0.002083 -0.011458
vt 0.324482 0
vt 0.324482 0.033381
vt -0.005208 0.28125
vt 0.011458 0
vt 0.011458 0.28125
vt -0.324482 0.033381
vt -0.005208 0
vt 0.005208 0
vt -0.011458 0
vt -0.002083 -0.011458
vt -0.324482 0
vt -0.002083 0.005208
vn 0 -1 0
vn 0 1 0
vn 1 0 0
vn -1 0 0
vn 0 0 -1
vn 0 0 1
usemtl material_0_0
f 1/1/1 2/2/1 3/3/1
f 2/2/1 1/1/1 4/4/1
f 3/3/2 2/2/2 1/1/2
f 4/4/2 1/1/2 2/2/2
f 5/5/3 3/6/3 2/7/3
f 2/7/4 3/6/4 5/5/4
f 3/8/5 6/9/5 1/10/5
f 1/10/6 6/9/6 3/8/6
f 1/6/3 7/11/3 4/7/3
f 4/7/4 7/11/4 1/6/4
f 7/12/6 2/13/6 4/14/6
f 4/14/5 2/13/5 7/12/5
f 3/6/3 5/5/3 8/15/3
f 8/15/4 5/5/4 3/6/4
f 9/16/6 5/17/6 2/13/6
f 2/13/5 5/17/5 9/16/5
f 8/18/5 6/9/5 3/8/5
f 3/8/6 6/9/6 8/18/6
f 1/10/5 6/9/5 10/19/5
f 10/19/6 6/9/6 1/10/6
f 7/11/3 1/6/3 10/20/3
f 10/20/4 1/6/4 7/11/4
f 9/16/6 2/13/6 7/12/6
f 7/12/5 2/13/5 9/16/5
f 11/21/2 8/22/2 5/23/2
f 5/23/1 8/22/1 11/21/1
f 12/24/6 5/17/6 9/16/6
f 9/16/5 5/17/5 12/24/5
f 6/9/5 8/18/5 13/25/5
f 13/25/6 8/18/6 6/9/6
f 6/26/2 7/21/2 10/27/2
f 10/27/1 7/21/1 6/26/1
f 7/21/2 6/26/2 9/28/2
f 9/28/1 6/26/1 7/21/1
f 8/22/2 11/21/2 14/27/2
f 14/27/1 11/21/1 8/22/1
f 5/17/6 15/29/6 11/30/6
f 11/30/5 15/29/5 5/17/5
f 5/17/6 12/24/6 15/29/6
f 15/29/5 12/24/5 5/17/5
f 6/31/4 12/32/4 9/33/4
f 9/33/3 12/32/3 6/31/3
f 14/34/5 13/25/5 8/18/5
f 8/18/6 13/25/6 14/34/6
f 12/32/4 6/31/4 13/35/4
f 13/35/3 6/31/3 12/32/3
f 11/5/3 16/36/3 14/15/3
f 14/15/4 16/36/4 11/5/4
f 16/36/3 11/5/3 15/37/3
f 15/37/4 11/5/4 16/36/4
f 12/38/1 16/1/1 15/4/1
f 15/4/2 16/1/2 12/38/2
f 13/25/5 14/34/5 16/39/5
f 16/39/6 14/34/6 13/25/6
f 16/1/1 12/38/1 13/40/1
f 13/40/2 12/38/2 16/1/2
