# SSTK version 0.8.0
# 19
mtllib original-19.mtl
o Drawer_Guide2/Drawer_Guide/mesh12/mesh12-geometry#mesh12-geometry
v -0.239736 0.194790 -0.253918
v -0.239736 0.221724 0.173351
v -0.239736 0.221724 -0.253918
v -0.239736 0.194790 0.173351
v -0.216475 0.221724 -0.253918
v -0.216475 0.194790 0.173351
v -0.216475 0.221724 0.173351
v -0.216475 0.194790 -0.253918
vt 3.49 0.222667
vt 0 0
vt 3.49 0
vt 0 0.222667
vt -3.49 0.192303
vt -3.49 0
vt 0.19 0
vt 0 0.192303
vt -0.19 0.222667
vt 0.19 0.222667
vt 3.49 0.192303
vt -0.19 0
vt -3.49 0.222667
vn -1 0 0
vn 0 1 0
vn 0 0 -1
vn 0 -1 0
vn 0 0 1
vn 1 0 0
usemtl material_0_0
f 1/1/1 2/2/1 3/3/1
f 2/2/1 1/1/1 4/4/1
f 2/2/2 5/5/2 3/6/2
f 5/7/3 1/4/3 3/2/3
f 1/3/4 6/8/4 4/2/4
f 6/9/5 2/2/5 4/4/5
f 5/5/2 2/2/2 7/8/2
f 1/4/3 5/7/3 8/10/3
f 6/8/4 1/3/4 8/11/4
f 2/2/5 6/9/5 7/12/5
f 6/4/6 5/6/6 7/2/6
f 5/6/6 6/4/6 8/13/6
usemtl material_1_0
f 3//6 2//6 1//6
f 4//6 1//6 2//6
f 3//4 5//4 2//4
f 3//5 1//5 5//5
f 4//2 6//2 1//2
f 4//3 2//3 6//3
f 7//4 2//4 5//4
f 8//5 5//5 1//5
f 8//2 1//2 6//2
f 7//3 6//3 2//3
f 7//1 5//1 6//1
f 8//1 6//1 5//1
