# SSTK version 0.8.0
# 11
mtllib original-11.mtl
o Back_Rail1/Back_Rail/mesh6/mesh6-geometry#mesh6-geometry
v 0.654591 0.091952 -0.277179
v 0.654591 0.244985 -0.253918
v 0.654591 0.091952 -0.253918
v 0.654591 0.244985 -0.277179
v -0.729443 0.091952 -0.253918
v -0.729443 0.091952 -0.277179
v -0.729443 0.244985 -0.277179
v -0.729443 0.244985 -0.253918
vt 0.19 0
vt 0 1.265152
vt 0 0
vt 0.19 1.265152
vt 11.305 1.265152
vt 11.305 0
vt -11.305 0
vt 0 0.192303
vt -11.305 0.192303
vt -11.305 1.265152
vt 11.305 0.192303
vt -0.19 1.265152
vt -0.19 0
vn 1 0 0
vn 0 0 1
vn 0 -1 0
vn 0 0 -1
vn 0 1 0
vn -1 0 0
usemtl material_0_0
f 1/1/1 2/2/1 3/3/1
f 2/2/1 1/1/1 4/4/1
f 2/5/2 5/3/2 3/6/2
f 3/7/3 6/8/3 1/9/3
f 1/7/4 7/2/4 4/10/4
f 7/8/5 2/6/5 4/11/5
f 5/3/2 2/5/2 8/2/2
f 6/8/3 3/7/3 5/3/3
f 7/2/4 1/7/4 6/3/4
f 2/6/5 7/8/5 8/3/5
f 7/12/6 5/3/6 8/2/6
f 5/3/6 7/12/6 6/13/6
usemtl material_1_0
f 3//6 2//6 1//6
f 4//6 1//6 2//6
f 3//4 5//4 2//4
f 1//5 6//5 3//5
f 4//2 7//2 1//2
f 4//3 2//3 7//3
f 8//4 2//4 5//4
f 5//5 3//5 6//5
f 6//2 1//2 7//2
f 8//3 7//3 2//3
f 8//1 5//1 7//1
f 6//1 7//1 5//1
