# SSTK version 0.8.0
# 16
mtllib original-16.mtl
o Drawer_Runner_Mid1/Drawer_Runner_Mid/mesh11/mesh11-geometry#mesh11-geometry
v -0.269118 0.115213 -0.236778
v -0.269118 0.091952 0.077859
v -0.269118 0.115213 0.077859
v -0.269118 0.091952 -0.236778
v -0.216475 0.115213 0.077859
v -0.216475 0.091952 -0.236778
v -0.216475 0.091952 0.077859
v -0.216475 0.115213 -0.236778
vt -3.24 0.192303
vt -0.67 0
vt -0.67 0.192303
vt -3.24 0
vt 0.14 0
vt 0.57 0.192303
vt 0.14 0.192303
vt -0.14 0.192303
vt -0.57 0
vt -0.14 0
vt 0.57 0
vt -0.57 0.192303
vt 3.24 0
vt 0.67 0.192303
vt 0.67 0
vt 3.24 0.192303
vt 0.583916 0.678138
vt 0.143418 3.279352
vt 0.143418 0.678138
vt -0.143418 3.279352
vt -0.583916 0.678138
vt -0.143418 0.678138
vt 0.583916 3.279352
vt -0.583916 3.279352
vn -1 0 0
vn 0 0 1
vn 0 0 -1
vn 1 0 0
vn 0 -1 0
vn 0 1 0
usemtl material_0_0
f 1/1/1 2/2/1 3/3/1
f 2/2/1 1/1/1 4/4/1
f 2/5/2 5/6/2 3/7/2
f 1/8/3 6/9/3 4/10/3
f 5/6/2 2/5/2 7/11/2
f 6/9/3 1/8/3 8/12/3
f 6/13/4 5/14/4 7/15/4
f 5/14/4 6/13/4 8/16/4
usemtl material_1_0
f 3//4 2//4 1//4
f 4//4 1//4 2//4
f 3//3 5//3 2//3
f 3//5 1//5 5//5
f 4//2 6//2 1//2
f 2//6 7//6 4//6
f 7//3 2//3 5//3
f 8//5 5//5 1//5
f 8//2 1//2 6//2
f 6//6 4//6 7//6
f 7//1 5//1 6//1
f 8//1 6//1 5//1
usemtl material_2_0
f 5/17/6 1/18/6 3/19/6
f 4/20/5 7/21/5 2/22/5
f 1/18/6 5/17/6 8/23/6
f 7/21/5 4/20/5 6/24/5
