mtllib new-8.mtl
v 0.732039 -0.425255 -0.086959
v 0.723169 -0.425255 -0.131553
v 0.723169 -0.425255 -0.042366
v 0.697909 -0.425255 -0.169357
v 0.697909 -0.425255 -0.004562
v 0.768139 -0.447933 -0.023739
v 0.768139 -0.447933 -0.150180
v 0.732327 -0.447933 -0.203775
v 0.660105 -0.425255 -0.194617
v 0.660105 -0.425255 0.020698
v 0.570918 -0.425255 0.020698
v 0.732327 -0.447933 0.029857
v 0.780714 -0.447933 -0.086959
v 0.678732 -0.447933 -0.239587
v 0.615511 -0.425255 0.029569
v 0.678732 -0.447933 0.065668
v 0.783014 -0.450885 -0.086959
v 0.770264 -0.450885 -0.022859
v 0.770264 -0.450885 -0.151060
v 0.733954 -0.450885 -0.205402
v 0.615511 -0.425255 -0.203487
v 0.615511 -0.447933 -0.252162
v 0.615511 -0.447933 0.078243
v 0.533114 -0.425255 -0.004562
v 0.679612 -0.450885 0.067793
v 0.733954 -0.450885 0.031483
v 0.679612 -0.450885 -0.241712
v 0.615511 -0.450885 -0.254462
v 0.552291 -0.447933 0.065668
v 0.615511 -0.450885 0.080543
v 0.783014 -0.483516 -0.086959
v 0.770264 -0.483516 -0.151060
v 0.770264 -0.483516 -0.022859
v 0.733954 -0.483516 -0.205402
v 0.570918 -0.425255 -0.194617
v 0.551411 -0.450885 -0.241712
v 0.507854 -0.425255 -0.042366
v 0.498695 -0.447933 0.029857
v 0.679612 -0.483516 0.067793
v 0.733954 -0.483516 0.031483
v 0.679612 -0.483516 -0.241712
v 0.615511 -0.483516 -0.254462
v 0.552291 -0.447933 -0.239587
v 0.551411 -0.483516 -0.241712
v 0.551411 -0.450885 0.067793
v 0.497069 -0.450885 0.031483
v 0.615511 -0.483516 0.080544
v 0.779968 -0.486562 -0.086959
v 0.767450 -0.486562 -0.024024
v 0.767450 -0.486562 -0.149894
v 0.731800 -0.486562 -0.203248
v 0.533114 -0.425255 -0.169357
v 0.498695 -0.447933 -0.203775
v 0.497069 -0.483516 -0.205402
v 0.462884 -0.447933 -0.023739
v 0.460759 -0.450885 -0.022859
v 0.731800 -0.486562 0.029329
v 0.678446 -0.486562 0.064979
v 0.678446 -0.486562 -0.238897
v 0.615511 -0.486562 -0.251416
v 0.552577 -0.486562 -0.238897
v 0.497069 -0.450885 -0.205402
v 0.499223 -0.486562 -0.203248
v 0.551411 -0.483516 0.067793
v 0.450309 -0.447933 -0.086959
v 0.460759 -0.483516 -0.022859
v 0.460759 -0.450885 -0.151060
v 0.460759 -0.483516 -0.151060
v 0.463573 -0.486562 -0.149894
v 0.497069 -0.483516 0.031483
v 0.552577 -0.486562 0.064979
v 0.462884 -0.447933 -0.150180
v 0.448009 -0.450885 -0.086959
v 0.448009 -0.483516 -0.086959
v 0.499223 -0.486562 0.029329
v 0.463573 -0.486562 -0.024024
v 0.451055 -0.486562 -0.086959
vn 0.584545 0.811361 0.000000
vn -0.584545 -0.811361 0.000000
vn 0.540049 0.811361 -0.223696
vn -0.540049 -0.811361 0.223696
vn 0.540049 0.811361 0.223696
vn -0.540049 -0.811361 -0.223696
vn 0.413336 0.811361 -0.413336
vn -0.413336 -0.811361 0.413336
vn 0.413336 0.811361 0.413336
vn -0.413336 -0.811361 -0.413336
vn 0.574793 0.782897 0.238087
vn -0.574793 -0.782897 -0.238087
vn 0.574793 0.782897 -0.238087
vn -0.574793 -0.782897 0.238087
vn 0.439927 0.782897 -0.439927
vn -0.439927 -0.782897 0.439927
vn 0.223696 0.811361 -0.540049
vn -0.223696 -0.811361 0.540049
vn 0.223696 0.811361 0.540049
vn -0.223696 -0.811361 -0.540049
vn -0.223696 0.811361 0.540049
vn 0.223696 -0.811361 -0.540049
vn 0.439927 0.782897 0.439927
vn -0.439927 -0.782897 -0.439927
vn 0.622151 0.782897 0.000000
vn -0.622151 -0.782897 0.000000
vn 0.238087 0.782897 -0.574793
vn -0.238087 -0.782897 0.574793
vn 0.000000 0.811361 0.584545
vn 0.000000 -0.811361 -0.584545
vn 0.238087 0.782897 0.574793
vn -0.238087 -0.782897 -0.574793
vn 0.945356 0.326040 0.000000
vn -0.945356 -0.326040 0.000000
vn 0.873395 0.326040 0.361772
vn -0.873395 -0.326040 -0.361772
vn 0.873395 0.326040 -0.361772
vn -0.873395 -0.326040 0.361772
vn 0.668468 0.326040 -0.668468
vn -0.668468 -0.326040 0.668468
vn 0.000000 0.811361 -0.584545
vn 0.000000 -0.811361 0.584545
vn 0.000000 0.782897 -0.622151
vn 0.000000 -0.782897 0.622151
vn 0.000000 0.782897 0.622151
vn 0.000000 -0.782897 -0.622151
vn -0.413336 0.811361 0.413336
vn 0.413336 -0.811361 -0.413336
vn 0.361772 0.326040 0.873395
vn -0.361772 -0.326040 -0.873395
vn 0.668468 0.326040 0.668468
vn -0.668468 -0.326040 -0.668468
vn 0.361772 0.326040 -0.873395
vn -0.361772 -0.326040 0.873395
vn 0.000000 0.326040 -0.945356
vn 0.000000 -0.326040 0.945356
vn -0.238087 0.782897 0.574793
vn 0.238087 -0.782897 -0.574793
vn 0.000000 0.326040 0.945356
vn 0.000000 -0.326040 -0.945356
vn 0.923099 -0.384563 0.000000
vn -0.923099 0.384563 0.000000
vn 0.852832 -0.384563 -0.353255
vn -0.852832 0.384563 0.353255
vn 0.852832 -0.384563 0.353255
vn -0.852832 0.384563 -0.353255
vn 0.652729 -0.384563 -0.652729
vn -0.652729 0.384563 0.652729
vn -0.223696 0.811361 -0.540049
vn 0.223696 -0.811361 0.540049
vn -0.361772 0.326040 -0.873395
vn 0.361772 -0.326040 0.873395
vn -0.540049 0.811361 0.223696
vn 0.540049 -0.811361 -0.223696
vn -0.439927 0.782897 0.439927
vn 0.439927 -0.782897 -0.439927
vn 0.353255 -0.384563 0.852832
vn -0.353255 0.384563 -0.852832
vn 0.652729 -0.384563 0.652729
vn -0.652729 0.384563 -0.652729
vn 0.353255 -0.384563 -0.852832
vn -0.353255 0.384563 0.852832
vn 0.000000 -0.384563 -0.923099
vn 0.000000 0.384563 0.923099
vn -0.238087 0.782897 -0.574793
vn 0.238087 -0.782897 0.574793
vn -0.353255 -0.384563 -0.852832
vn 0.353255 0.384563 0.852832
vn -0.361772 0.326040 0.873395
vn 0.361772 -0.326040 -0.873395
vn -0.668468 0.326040 0.668468
vn 0.668468 -0.326040 -0.668468
vn 0.000000 -0.384563 0.923099
vn 0.000000 0.384563 -0.923099
vn 0.707041 -0.707172 0.000000
vn -0.707041 0.707172 0.000000
vn 0.653221 -0.707172 0.270573
vn -0.653221 0.707172 -0.270573
vn 0.653221 -0.707172 -0.270573
vn -0.653221 0.707172 0.270573
vn 0.499954 -0.707172 -0.499954
vn -0.499954 0.707172 0.499954
vn -0.413336 0.811361 -0.413336
vn 0.413336 -0.811361 0.413336
vn -0.439927 0.782897 -0.439927
vn 0.439927 -0.782897 0.439927
vn -0.652729 -0.384563 -0.652729
vn 0.652729 0.384563 0.652729
vn -0.574793 0.782897 0.238087
vn 0.574793 -0.782897 -0.238087
vn -0.873395 0.326040 0.361772
vn 0.873395 -0.326040 -0.361772
vn 0.499954 -0.707172 0.499954
vn -0.499954 0.707172 -0.499954
vn 0.270573 -0.707172 0.653221
vn -0.270573 0.707172 -0.653221
vn 0.270573 -0.707172 -0.653221
vn -0.270573 0.707172 0.653221
vn 0.000000 -0.707172 -0.707041
vn 0.000000 0.707172 0.707041
vn -0.270573 -0.707172 -0.653221
vn 0.270573 0.707172 0.653221
vn -0.668468 0.326040 -0.668468
vn 0.668468 -0.326040 0.668468
vn -0.499954 -0.707172 -0.499954
vn 0.499954 0.707172 0.499954
vn -0.353255 -0.384563 0.852832
vn 0.353255 0.384563 -0.852832
vn -0.622151 0.782897 0.000000
vn 0.622151 -0.782897 0.000000
vn -0.852832 -0.384563 0.353255
vn 0.852832 0.384563 -0.353255
vn -0.873395 0.326040 -0.361772
vn 0.873395 -0.326040 0.361772
vn -0.852832 -0.384563 -0.353255
vn 0.852832 0.384563 0.353255
vn -0.653221 -0.707172 -0.270573
vn 0.653221 0.707172 0.270573
vn -0.652729 -0.384563 0.652729
vn 0.652729 0.384563 -0.652729
vn -0.270573 -0.707172 0.653221
vn 0.270573 0.707172 -0.653221
vn -0.574793 0.782897 -0.238087
vn 0.574793 -0.782897 0.238087
vn -0.945356 0.326040 0.000000
vn 0.945356 -0.326040 0.000000
vn -0.923099 -0.384563 0.000000
vn 0.923099 0.384563 0.000000
vn -0.499954 -0.707172 0.499954
vn 0.499954 0.707172 -0.499954
vn -0.653221 -0.707172 0.270573
vn 0.653221 0.707172 -0.270573
vn -0.707041 -0.707172 0.000000
vn 0.707041 0.707172 0.000000
vt 0.160228 0.049366
vt 0.148472 0.051803
vt 0.181765 0.047507
vt 0.148287 0.054447
vt 0.209804 0.046510
vt 0.163924 0.029100
vt 0.116724 0.035190
vt 0.116462 0.038939
vt 0.159701 0.056896
vt 0.240077 0.046526
vt 0.203675 0.027686
vt 0.133391 0.031735
vt 0.132644 0.042411
vt 0.267975 0.047553
vt 0.246594 0.027709
vt 0.132123 0.029571
vt 0.163081 0.026899
vt 0.115224 0.033074
vt 0.114958 0.036875
vt 0.180976 0.058778
vt 0.162806 0.045079
vt 0.286145 0.029165
vt 0.246902 0.025489
vt 0.203386 0.025466
vt 0.131366 0.040396
vt 0.161948 0.043100
vt 0.287003 0.026965
vt 0.132123 0.006485
vt 0.115224 0.009988
vt 0.163081 0.003814
vt 0.114958 0.013790
vt 0.246902 0.002404
vt 0.203386 0.002381
vt 0.131366 0.017311
vt 0.161948 0.020015
vt 0.287003 0.003880
vt 0.133802 0.004430
vt 0.164197 0.001807
vt 0.117211 0.007870
vt 0.116950 0.011602
vt 0.203769 0.000400
vt 0.246494 0.000423
vt 0.133059 0.015059
vt 0.163085 0.017714
usemtl material-0
f 1/1/1 7/7/13 2/2/3
f 2/2/4 7/7/14 1/1/2
f 2/2/3 8/8/15 4/4/7
f 4/4/8 8/8/16 2/2/4
f 12/11/23 3/3/5 5/5/9
f 5/5/10 3/3/6 12/11/24
f 1/1/1 6/6/11 13/12/25
f 13/12/26 6/6/12 1/1/2
f 3/3/5 12/11/23 6/6/11
f 6/6/12 12/11/24 3/3/6
f 14/13/27 4/4/7 8/8/15
f 8/8/16 4/4/8 14/13/28
f 4/4/7 14/13/27 9/9/17
f 9/9/18 14/13/28 4/4/8
f 16/15/31 5/5/9 10/10/19
f 10/10/20 5/5/10 16/15/32
f 6/6/11 17/16/33 13/12/25
f 13/12/26 17/16/34 6/6/12
f 12/11/23 18/17/35 6/6/11
f 6/6/12 18/17/36 12/11/24
f 13/12/25 19/18/37 7/7/13
f 7/7/14 19/18/38 13/12/26
f 19/18/37 8/8/15 7/7/13
f 7/7/14 8/8/16 19/18/38
f 20/19/39 14/13/27 8/8/15
f 8/8/16 14/13/28 20/19/40
f 23/22/45 10/10/19 15/14/29
f 15/14/30 10/10/20 23/22/46
f 25/23/49 12/11/23 16/15/31
f 16/15/32 12/11/24 25/23/50
f 17/16/33 6/6/11 18/17/35
f 18/17/36 6/6/12 17/16/34
f 19/18/37 13/12/25 17/16/33
f 17/16/34 13/12/26 19/18/38
f 18/17/35 12/11/23 26/24/51
f 26/24/52 12/11/24 18/17/36
f 8/8/15 19/18/37 20/19/39
f 20/19/40 19/18/38 8/8/16
f 14/13/27 20/19/39 27/25/53
f 27/25/54 20/19/40 14/13/28
f 9/9/17 22/21/43 21/20/41
f 21/20/42 22/21/44 9/9/18
f 14/13/27 28/26/55 22/21/43
f 22/21/44 28/26/56 14/13/28
f 23/22/45 11/10/21 29/15/57
f 29/15/58 11/10/22 23/22/46
f 30/27/59 16/15/31 23/22/45
f 23/22/46 16/15/32 30/27/60
f 12/11/23 25/23/49 26/24/51
f 26/24/52 25/23/50 12/11/24
f 16/15/31 30/27/59 25/23/49
f 25/23/50 30/27/60 16/15/32
f 17/16/33 32/29/63 19/18/37
f 19/18/38 32/29/64 17/16/34
f 32/29/63 20/19/39 19/18/37
f 19/18/38 20/19/40 32/29/64
f 28/26/55 14/13/27 27/25/53
f 27/25/54 14/13/28 28/26/56
f 36/25/71 22/21/43 28/26/55
f 28/26/56 22/21/44 36/25/72
f 29/15/57 30/27/59 23/22/45
f 23/22/46 30/27/60 29/15/58
f 29/15/57 24/5/47 38/11/75
f 38/11/76 24/5/48 29/15/58
f 20/19/39 32/29/63 34/31/67
f 34/31/68 32/29/64 20/19/40
f 35/9/69 22/21/43 43/13/85
f 43/13/86 22/21/44 35/9/70
f 22/21/43 36/25/71 43/13/85
f 43/13/86 36/25/72 22/21/44
f 30/27/59 29/15/57 45/23/89
f 45/23/90 29/15/58 30/27/60
f 37/3/73 38/11/75 24/5/47
f 24/5/48 38/11/76 37/3/74
f 46/24/91 29/15/57 38/11/75
f 38/11/76 29/15/58 46/24/92
f 39/32/77 30/27/59 47/36/93
f 47/36/94 30/27/60 39/32/78
f 33/30/65 48/37/95 31/28/61
f 31/28/62 48/37/96 33/30/66
f 48/37/95 32/29/63 31/28/61
f 31/28/62 32/29/64 48/37/96
f 40/33/79 49/38/97 33/30/65
f 33/30/66 49/38/98 40/33/80
f 43/13/85 52/4/103 35/9/69
f 35/9/70 52/4/104 43/13/86
f 36/25/71 53/8/105 43/13/85
f 43/13/86 53/8/106 36/25/72
f 29/15/57 46/24/91 45/23/89
f 45/23/90 46/24/92 29/15/58
f 38/11/75 56/17/111 46/24/91
f 46/24/92 56/17/112 38/11/76
f 39/32/77 57/41/113 40/33/79
f 40/33/80 57/41/114 39/32/78
f 47/36/93 58/42/115 39/32/77
f 39/32/78 58/42/116 47/36/94
f 48/37/95 33/30/65 49/38/97
f 49/38/98 33/30/66 48/37/96
f 32/29/63 48/37/95 50/39/99
f 50/39/100 48/37/96 32/29/64
f 41/34/81 51/40/101 59/43/117
f 59/43/118 51/40/102 41/34/82
f 41/34/81 60/44/119 42/35/83
f 42/35/84 60/44/120 41/34/82
f 52/4/103 43/13/85 53/8/105
f 53/8/106 43/13/86 52/4/104
f 53/8/105 36/25/71 62/19/123
f 62/19/124 36/25/72 53/8/106
f 46/24/91 64/32/127 45/23/89
f 45/23/90 64/32/128 46/24/92
f 47/36/93 45/23/89 64/32/127
f 64/32/128 45/23/90 47/36/94
f 56/17/111 38/11/75 55/6/109
f 55/6/110 38/11/76 56/17/112
f 57/41/113 39/32/77 58/42/115
f 58/42/116 39/32/78 57/41/114
f 60/44/119 41/34/81 59/43/117
f 59/43/118 41/34/82 60/44/120
f 63/40/125 44/34/87 61/43/121
f 61/43/122 44/34/88 63/40/126
f 67/18/133 53/8/105 62/19/123
f 62/19/124 53/8/106 67/18/134
f 69/39/137 54/31/107 63/40/125
f 63/40/126 54/31/108 69/39/138
f 64/32/127 46/24/91 70/33/139
f 70/33/140 46/24/92 64/32/128
f 73/16/145 55/6/109 65/12/129
f 65/12/130 55/6/110 73/16/146
f 55/6/109 73/16/145 56/17/111
f 56/17/112 73/16/146 55/6/110
f 53/8/105 67/18/133 72/7/143
f 72/7/144 67/18/134 53/8/106
f 54/31/107 69/39/137 68/29/135
f 68/29/136 69/39/138 54/31/108
f 75/41/149 64/32/127 70/33/139
f 70/33/140 64/32/128 75/41/150
f 64/32/127 75/41/149 71/42/141
f 71/42/142 75/41/150 64/32/128
f 72/7/143 73/16/145 65/12/129
f 65/12/130 73/16/146 72/7/144
f 76/38/151 70/33/139 66/30/131
f 66/30/132 70/33/140 76/38/152
f 77/37/153 66/30/131 74/28/147
f 74/28/148 66/30/132 77/37/154
f 73/16/145 72/7/143 67/18/133
f 67/18/134 72/7/144 73/16/146
f 74/28/147 67/18/133 68/29/135
f 68/29/136 67/18/134 74/28/148
f 77/37/153 68/29/135 69/39/137
f 69/39/138 68/29/136 77/37/154
f 70/33/139 76/38/151 75/41/149
f 75/41/150 76/38/152 70/33/140
f 66/30/131 77/37/153 76/38/151
f 76/38/152 77/37/154 66/30/132
f 68/29/135 77/37/153 74/28/147
f 74/28/148 77/37/154 68/29/136