mtllib new-11.mtl
v -0.710348 -0.425255 -0.131553
v -0.719218 -0.425255 -0.086959
v -0.685088 -0.425255 -0.169357
v -0.710348 -0.425255 -0.042366
v -0.685088 -0.425255 -0.004562
v -0.647283 -0.425255 -0.194617
v -0.719506 -0.447933 -0.203775
v -0.755318 -0.447933 -0.150180
v -0.755318 -0.447933 -0.023739
v -0.647283 -0.425255 0.020698
v -0.558097 -0.425255 0.020698
v -0.665911 -0.447933 -0.239587
v -0.767893 -0.447933 -0.086959
v -0.719506 -0.447933 0.029857
v -0.602690 -0.425255 0.029569
v -0.665911 -0.447933 0.065668
v -0.602690 -0.425255 -0.203487
v -0.602690 -0.447933 -0.252162
v -0.721133 -0.450885 -0.205402
v -0.757443 -0.450885 -0.151060
v -0.770193 -0.450885 -0.086959
v -0.757443 -0.450885 -0.022859
v -0.602690 -0.447933 0.078243
v -0.520293 -0.425255 -0.004562
v -0.602690 -0.450885 -0.254462
v -0.666791 -0.450885 -0.241712
v -0.666791 -0.450885 0.067793
v -0.721133 -0.450885 0.031483
v -0.539470 -0.447933 0.065668
v -0.602690 -0.450885 0.080543
v -0.558097 -0.425255 -0.194617
v -0.538590 -0.450885 -0.241712
v -0.721133 -0.483516 -0.205402
v -0.757443 -0.483516 -0.151060
v -0.770193 -0.483516 -0.086959
v -0.495032 -0.425255 -0.042366
v -0.485874 -0.447933 0.029857
v -0.539470 -0.447933 -0.239587
v -0.602690 -0.483516 -0.254462
v -0.666791 -0.483516 -0.241712
v -0.666791 -0.483516 0.067793
v -0.721133 -0.483516 0.031483
v -0.538590 -0.450885 0.067793
v -0.486162 -0.425255 -0.086959
v -0.484248 -0.450885 0.031483
v -0.520293 -0.425255 -0.169357
v -0.485874 -0.447933 -0.203775
v -0.484248 -0.483516 -0.205402
v -0.718979 -0.486562 -0.203248
v -0.754628 -0.486562 -0.149894
v -0.767147 -0.486562 -0.086959
v -0.602690 -0.483516 0.080544
v -0.450063 -0.447933 -0.023739
v -0.447938 -0.450885 -0.022859
v -0.484248 -0.450885 -0.205402
v -0.602690 -0.486562 -0.251416
v -0.665625 -0.486562 -0.238897
v -0.665625 -0.486562 0.064979
v -0.538590 -0.483516 0.067793
v -0.437488 -0.447933 -0.086959
v -0.447938 -0.483516 -0.022859
v -0.495032 -0.425255 -0.131553
v -0.447938 -0.450885 -0.151060
v -0.447938 -0.483516 -0.151060
v -0.602690 -0.486562 0.077497
v -0.484248 -0.483516 0.031483
v -0.539755 -0.486562 0.064979
v -0.450063 -0.447933 -0.150180
v -0.435188 -0.450885 -0.086959
v -0.435187 -0.483516 -0.086959
v -0.486402 -0.486562 0.029329
v -0.438234 -0.486562 -0.086959
vn -0.540049 0.811361 -0.223696
vn 0.540049 -0.811361 0.223696
vn -0.584545 0.811361 0.000000
vn 0.584545 -0.811361 0.000000
vn -0.413336 0.811361 -0.413336
vn 0.413336 -0.811361 0.413336
vn -0.540049 0.811361 0.223696
vn 0.540049 -0.811361 -0.223696
vn -0.413336 0.811361 0.413336
vn 0.413336 -0.811361 -0.413336
vn -0.223696 0.811361 -0.540049
vn 0.223696 -0.811361 0.540049
vn -0.439927 0.782897 -0.439927
vn 0.439927 -0.782897 0.439927
vn -0.574793 0.782897 -0.238087
vn 0.574793 -0.782897 0.238087
vn -0.574793 0.782897 0.238087
vn 0.574793 -0.782897 -0.238087
vn -0.223696 0.811361 0.540049
vn 0.223696 -0.811361 -0.540049
vn 0.223696 0.811361 0.540049
vn -0.223696 -0.811361 -0.540049
vn -0.238087 0.782897 -0.574793
vn 0.238087 -0.782897 0.574793
vn -0.622151 0.782897 0.000000
vn 0.622151 -0.782897 0.000000
vn -0.439927 0.782897 0.439927
vn 0.439927 -0.782897 -0.439927
vn 0.000000 0.811361 0.584545
vn 0.000000 -0.811361 -0.584545
vn -0.238087 0.782897 0.574793
vn 0.238087 -0.782897 -0.574793
vn 0.000000 0.811361 -0.584545
vn 0.000000 -0.811361 0.584545
vn 0.000000 0.782897 -0.622151
vn 0.000000 -0.782897 0.622151
vn -0.668468 0.326040 -0.668468
vn 0.668468 -0.326040 0.668468
vn -0.873395 0.326040 -0.361772
vn 0.873395 -0.326040 0.361772
vn -0.945356 0.326040 0.000000
vn 0.945356 -0.326040 0.000000
vn -0.873395 0.326040 0.361772
vn 0.873395 -0.326040 -0.361772
vn 0.000000 0.782897 0.622151
vn 0.000000 -0.782897 -0.622151
vn 0.413336 0.811361 0.413336
vn -0.413336 -0.811361 -0.413336
vn 0.000000 0.326040 -0.945356
vn 0.000000 -0.326040 0.945356
vn -0.361772 0.326040 -0.873395
vn 0.361772 -0.326040 0.873395
vn -0.361772 0.326040 0.873395
vn 0.361772 -0.326040 -0.873395
vn -0.668468 0.326040 0.668468
vn 0.668468 -0.326040 -0.668468
vn 0.238087 0.782897 0.574793
vn -0.238087 -0.782897 -0.574793
vn 0.000000 0.326040 0.945356
vn 0.000000 -0.326040 -0.945356
vn 0.223696 0.811361 -0.540049
vn -0.223696 -0.811361 0.540049
vn 0.361772 0.326040 -0.873395
vn -0.361772 -0.326040 0.873395
vn -0.652729 -0.384563 -0.652729
vn 0.652729 0.384563 0.652729
vn -0.852832 -0.384563 -0.353255
vn 0.852832 0.384563 0.353255
vn -0.923099 -0.384563 0.000000
vn 0.923099 0.384563 0.000000
vn 0.540049 0.811361 0.223696
vn -0.540049 -0.811361 -0.223696
vn 0.439927 0.782897 0.439927
vn -0.439927 -0.782897 -0.439927
vn 0.238087 0.782897 -0.574793
vn -0.238087 -0.782897 0.574793
vn 0.000000 -0.384563 -0.923099
vn 0.000000 0.384563 0.923099
vn -0.353255 -0.384563 -0.852832
vn 0.353255 0.384563 0.852832
vn -0.353255 -0.384563 0.852832
vn 0.353255 0.384563 -0.852832
vn -0.652729 -0.384563 0.652729
vn 0.652729 0.384563 -0.652729
vn 0.361772 0.326040 0.873395
vn -0.361772 -0.326040 -0.873395
vn 0.584545 0.811361 0.000000
vn -0.584545 -0.811361 0.000000
vn 0.668468 0.326040 0.668468
vn -0.668468 -0.326040 -0.668468
vn 0.413336 0.811361 -0.413336
vn -0.413336 -0.811361 0.413336
vn 0.439927 0.782897 -0.439927
vn -0.439927 -0.782897 0.439927
vn 0.652729 -0.384563 -0.652729
vn -0.652729 0.384563 0.652729
vn -0.499954 -0.707172 -0.499954
vn 0.499954 0.707172 0.499954
vn -0.653221 -0.707172 -0.270573
vn 0.653221 0.707172 0.270573
vn -0.707041 -0.707172 0.000000
vn 0.707041 0.707172 0.000000
vn 0.000000 -0.384563 0.923099
vn 0.000000 0.384563 -0.923099
vn 0.574793 0.782897 0.238087
vn -0.574793 -0.782897 -0.238087
vn 0.873395 0.326040 0.361772
vn -0.873395 -0.326040 -0.361772
vn 0.668468 0.326040 -0.668468
vn -0.668468 -0.326040 0.668468
vn 0.000000 -0.707172 -0.707041
vn 0.000000 0.707172 0.707041
vn -0.270573 -0.707172 -0.653221
vn 0.270573 0.707172 0.653221
vn -0.270573 -0.707172 0.653221
vn 0.270573 0.707172 -0.653221
vn 0.353255 -0.384563 0.852832
vn -0.353255 0.384563 -0.852832
vn 0.622151 0.782897 0.000000
vn -0.622151 -0.782897 0.000000
vn 0.852832 -0.384563 0.353255
vn -0.852832 0.384563 -0.353255
vn 0.540049 0.811361 -0.223696
vn -0.540049 -0.811361 0.223696
vn 0.873395 0.326040 -0.361772
vn -0.873395 -0.326040 0.361772
vn 0.852832 -0.384563 -0.353255
vn -0.852832 0.384563 0.353255
vn 0.000000 -0.707172 0.707041
vn 0.000000 0.707172 -0.707041
vn 0.652729 -0.384563 0.652729
vn -0.652729 0.384563 -0.652729
vn 0.270573 -0.707172 0.653221
vn -0.270573 0.707172 -0.653221
vn 0.574793 0.782897 -0.238087
vn -0.574793 -0.782897 0.238087
vn 0.945356 0.326040 0.000000
vn -0.945356 -0.326040 0.000000
vn 0.923099 -0.384563 0.000000
vn -0.923099 0.384563 0.000000
vn 0.499954 -0.707172 0.499954
vn -0.499954 0.707172 -0.499954
vn 0.707041 -0.707172 0.000000
vn -0.707041 0.707172 0.000000
vt 0.148472 0.051803
vt 0.160228 0.049366
vt 0.148287 0.054447
vt 0.181765 0.047507
vt 0.209804 0.046510
vt 0.159701 0.056896
vt 0.116462 0.038939
vt 0.116724 0.035190
vt 0.163924 0.029100
vt 0.240077 0.046526
vt 0.132644 0.042411
vt 0.133391 0.031735
vt 0.203675 0.027686
vt 0.267975 0.047553
vt 0.246594 0.027709
vt 0.180976 0.058778
vt 0.162806 0.045079
vt 0.114958 0.036875
vt 0.115224 0.033074
vt 0.132123 0.029571
vt 0.163081 0.026899
vt 0.286145 0.029165
vt 0.161948 0.043100
vt 0.131366 0.040396
vt 0.246902 0.025489
vt 0.203386 0.025466
vt 0.287003 0.026965
vt 0.114958 0.013790
vt 0.115224 0.009988
vt 0.132123 0.006485
vt 0.163081 0.003814
vt 0.131366 0.017311
vt 0.161948 0.020015
vt 0.246902 0.002404
vt 0.203386 0.002381
vt 0.116950 0.011602
vt 0.117211 0.007870
vt 0.133802 0.004430
vt 0.287003 0.003880
vt 0.133059 0.015059
vt 0.163085 0.017714
vt 0.203769 0.000400
vt 0.246494 0.000423
vt 0.285866 0.001872
usemtl material-0
f 3/3/5 7/7/13 1/1/1
f 1/1/2 7/7/14 3/3/6
f 4/4/7 2/2/3 9/9/17
f 9/9/18 2/2/4 4/4/8
f 6/6/11 12/11/23 3/3/5
f 3/3/6 12/11/24 6/6/12
f 7/7/13 3/3/5 12/11/23
f 12/11/24 3/3/6 7/7/14
f 13/12/25 2/2/3 8/8/15
f 8/8/16 2/2/4 13/12/26
f 5/5/9 4/4/7 14/13/27
f 14/13/28 4/4/8 5/5/10
f 10/10/19 5/5/9 16/15/31
f 16/15/32 5/5/10 10/10/20
f 12/11/23 6/6/11 18/17/35
f 18/17/36 6/6/12 12/11/24
f 7/7/13 12/11/23 19/18/37
f 19/18/38 12/11/24 7/7/14
f 8/8/15 7/7/13 20/19/39
f 20/19/40 7/7/14 8/8/16
f 8/8/15 20/19/39 13/12/25
f 13/12/26 20/19/40 8/8/16
f 14/13/27 16/15/31 5/5/9
f 5/5/10 16/15/32 14/13/28
f 13/12/25 21/20/41 9/9/17
f 9/9/18 21/20/42 13/12/26
f 9/9/17 22/21/43 14/13/27
f 14/13/28 22/21/44 9/9/18
f 15/14/29 23/22/45 11/10/21
f 11/10/22 23/22/46 15/14/30
f 16/15/31 23/22/45 10/10/19
f 10/10/20 23/22/46 16/15/32
f 18/17/35 25/23/49 12/11/23
f 12/11/24 25/23/50 18/17/36
f 26/24/51 19/18/37 12/11/23
f 12/11/24 19/18/38 26/24/52
f 19/18/37 20/19/39 7/7/13
f 7/7/14 20/19/40 19/18/38
f 21/20/41 13/12/25 20/19/39
f 20/19/40 13/12/26 21/20/42
f 16/15/31 14/13/27 27/25/53
f 27/25/54 14/13/28 16/15/32
f 22/21/43 9/9/17 21/20/41
f 21/20/42 9/9/18 22/21/44
f 28/26/55 14/13/27 22/21/43
f 22/21/44 14/13/28 28/26/56
f 29/15/57 11/10/21 23/22/45
f 23/22/46 11/10/22 29/15/58
f 11/10/21 29/15/57 24/5/47
f 24/5/48 29/15/58 11/10/22
f 23/22/45 16/15/31 30/27/59
f 30/27/60 16/15/32 23/22/46
f 17/16/33 31/6/61 18/17/35
f 18/17/36 31/6/62 17/16/34
f 25/23/49 18/17/35 32/24/63
f 32/24/64 18/17/36 25/23/50
f 26/24/51 12/11/23 25/23/49
f 25/23/50 12/11/24 26/24/52
f 20/19/39 34/29/67 21/20/41
f 21/20/42 34/29/68 20/19/40
f 28/26/55 27/25/53 14/13/27
f 14/13/28 27/25/54 28/26/56
f 27/25/53 30/27/59 16/15/31
f 16/15/32 30/27/60 27/25/54
f 23/22/45 30/27/59 29/15/57
f 29/15/58 30/27/60 23/22/46
f 38/11/75 18/17/35 31/6/61
f 31/6/62 18/17/36 38/11/76
f 38/11/75 32/24/63 18/17/35
f 18/17/36 32/24/64 38/11/76
f 27/25/53 28/26/55 41/34/81
f 41/34/82 28/26/56 27/25/54
f 27/25/53 41/34/81 30/27/59
f 30/27/60 41/34/82 27/25/54
f 43/25/85 29/15/57 30/27/59
f 30/27/60 29/15/58 43/25/86
f 24/5/47 37/13/73 36/4/71
f 36/4/72 37/13/74 24/5/48
f 37/13/73 29/15/57 45/26/89
f 45/26/90 29/15/58 37/13/74
f 31/6/61 46/3/91 38/11/75
f 38/11/76 46/3/92 31/6/62
f 38/11/75 47/7/93 32/24/63
f 32/24/64 47/7/94 38/11/76
f 40/32/79 26/24/51 39/33/77
f 39/33/78 26/24/52 40/32/80
f 33/28/65 40/32/79 49/36/97
f 49/36/98 40/32/80 33/28/66
f 34/29/67 33/28/65 50/37/99
f 50/37/100 33/28/66 34/29/68
f 35/30/69 34/29/67 51/38/101
f 51/38/102 34/29/68 35/30/70
f 42/35/83 41/34/81 28/26/55
f 28/26/56 41/34/82 42/35/84
f 43/25/85 45/26/89 29/15/57
f 29/15/58 45/26/90 43/25/86
f 30/27/59 52/39/103 43/25/85
f 43/25/86 52/39/104 30/27/60
f 53/9/105 36/4/71 37/13/73
f 37/13/74 36/4/72 53/9/106
f 45/26/89 54/21/107 37/13/73
f 37/13/74 54/21/108 45/26/90
f 47/7/93 38/11/75 46/3/91
f 46/3/92 38/11/76 47/7/94
f 55/18/109 32/24/63 47/7/93
f 47/7/94 32/24/64 55/18/110
f 39/33/77 56/41/111 40/32/79
f 40/32/80 56/41/112 39/33/78
f 57/40/113 49/36/97 40/32/79
f 40/32/80 49/36/98 57/40/114
f 43/25/85 59/34/117 45/26/89
f 45/26/90 59/34/118 43/25/86
f 60/12/119 44/2/87 53/9/105
f 53/9/106 44/2/88 60/12/120
f 53/9/105 37/13/73 54/21/107
f 54/21/108 37/13/74 53/9/106
f 54/21/107 45/26/89 61/31/121
f 61/31/122 45/26/90 54/21/108
f 46/3/91 62/1/123 47/7/93
f 47/7/94 62/1/124 46/3/92
f 55/18/109 47/7/93 63/19/125
f 63/19/126 47/7/94 55/18/110
f 48/28/95 55/18/109 64/29/127
f 64/29/128 55/18/110 48/28/96
f 57/40/113 40/32/79 56/41/111
f 56/41/112 40/32/80 57/40/114
f 65/44/129 52/39/103 58/43/115
f 58/43/116 52/39/104 65/44/130
f 66/35/131 45/26/89 59/34/117
f 59/34/118 45/26/90 66/35/132
f 59/34/117 52/39/103 67/43/133
f 67/43/134 52/39/104 59/34/118
f 60/12/119 53/9/105 69/20/137
f 69/20/138 53/9/106 60/12/120
f 54/21/107 69/20/137 53/9/105
f 53/9/106 69/20/138 54/21/108
f 66/35/131 61/31/121 45/26/89
f 45/26/90 61/31/122 66/35/132
f 68/8/135 47/7/93 62/1/123
f 62/1/124 47/7/94 68/8/136
f 68/8/135 63/19/125 47/7/93
f 47/7/94 63/19/126 68/8/136
f 63/19/125 64/29/127 55/18/109
f 55/18/110 64/29/128 63/19/126
f 66/35/131 59/34/117 71/42/141
f 71/42/142 59/34/118 66/35/132
f 67/43/133 71/42/141 59/34/117
f 59/34/118 71/42/142 67/43/134
f 60/12/119 69/20/137 68/8/135
f 68/8/136 69/20/138 60/12/120
f 62/1/123 44/2/87 68/8/135
f 68/8/136 44/2/88 62/1/124
f 69/20/137 54/21/107 70/30/139
f 70/30/140 54/21/108 69/20/138
f 70/30/139 61/31/121 72/38/143
f 72/38/144 61/31/122 70/30/140
f 63/19/125 68/8/135 69/20/137
f 69/20/138 68/8/136 63/19/126
f 64/29/127 63/19/125 70/30/139
f 70/30/140 63/19/126 64/29/128
f 70/30/139 72/38/143 64/29/127
f 64/29/128 72/38/144 70/30/140