# SSTK version 0.8.0
# 29
mtllib original-29.mtl
o #ID237
v 0.278381 -0.075383 -0.71963
v 0.269379 -0.003795 -0.47795
v 0.278381 -0.003795 -0.47795
v 0.269379 -0.075383 -0.71963
v 0.269379 -0.075383 -0.71963
v 0.278381 -0.075383 -0.71963
v 0.269379 -0.003795 -0.47795
v 0.278381 -0.003795 -0.47795
v 0.269379 -0.003795 -0.47795
v 0.278381 0.151297 -0.52389
v 0.278381 -0.003795 -0.47795
v 0.269379 0.151297 -0.52389
v 0.269379 0.151297 -0.52389
v 0.269379 -0.003795 -0.47795
v 0.278381 0.151297 -0.52389
v 0.278381 -0.003795 -0.47795
v 0.278381 0.151297 -0.52389
v 0.278381 -0.075383 -0.71963
v 0.278381 -0.003795 -0.47795
v 0.278381 0.071646 -0.763182
v 0.278381 0.071646 -0.763182
v 0.278381 0.151297 -0.52389
v 0.278381 -0.075383 -0.71963
v 0.278381 -0.003795 -0.47795
v 0.269379 0.071646 -0.763182
v 0.278381 -0.075383 -0.71963
v 0.278381 0.071646 -0.763182
v 0.269379 -0.075383 -0.71963
v 0.269379 -0.075383 -0.71963
v 0.269379 0.071646 -0.763182
v 0.278381 -0.075383 -0.71963
v 0.278381 0.071646 -0.763182
v 0.269379 0.071646 -0.763182
v 0.278381 0.151297 -0.52389
v 0.269379 0.151297 -0.52389
v 0.278381 0.071646 -0.763182
v 0.278381 0.071646 -0.763182
v 0.269379 0.071646 -0.763182
v 0.278381 0.151297 -0.52389
v 0.269379 0.151297 -0.52389
vn 0.0 0.9588197442293107 -0.28401531310131706
vn 0.0 -0.9588197442293107 0.28401531310131706
vn 0.0 -0.28401531310131717 -0.9588197442293107
vn 0.0 0.28401531310131717 0.9588197442293107
vn -1.0 0.0 0.0
vn 1.0 0.0 0.0
vn 0.0 -0.9488180044446741 0.31582335955661467
vn 0.0 0.9488180044446741 -0.31582335955661467
usemtl material_0_0
f 1//1 2//1 3//1
f 2//1 1//1 4//1
f 5//2 6//2 7//2
f 8//2 7//2 6//2
f 9//3 10//3 11//3
f 10//3 9//3 12//3
f 13//4 14//4 15//4
f 16//4 15//4 14//4
f 17//5 18//5 19//5
f 18//5 17//5 20//5
f 21//6 22//6 23//6
f 24//6 23//6 22//6
f 25//4 26//4 27//4
f 26//4 25//4 28//4
f 29//3 30//3 31//3
f 32//3 31//3 30//3
f 33//7 34//7 35//7
f 34//7 33//7 36//7
f 37//8 38//8 39//8
f 40//8 39//8 38//8
