# SSTK version 0.8.0
# 26
mtllib original-26.mtl
o #ID217
v 0.246498 -0.048197 -0.906125
v 0.235245 -0.059416 -0.90962
v 0.246498 -0.059416 -0.90962
v 0.235245 -0.048197 -0.906125
v 0.235245 -0.048197 -0.906125
v 0.246498 -0.048197 -0.906125
v 0.235245 -0.059416 -0.90962
v 0.246498 -0.059416 -0.90962
v 0.246498 -0.071156 -0.910093
v 0.235245 -0.071156 -0.910093
v 0.235245 -0.071156 -0.910093
v 0.246498 -0.071156 -0.910093
v 0.246498 -0.103864 -0.839325
v 0.246498 -0.109963 -0.852565
v 0.246498 -0.109325 -0.849729
v 0.246498 -0.111907 -0.861192
v 0.246498 -0.111434 -0.872932
v 0.246498 -0.095896 -0.830689
v 0.246498 -0.107939 -0.884151
v 0.246498 -0.085965 -0.824409
v 0.246498 -0.101659 -0.894082
v 0.246498 -0.074747 -0.820914
v 0.246498 -0.093023 -0.902049
v 0.246498 -0.063006 -0.820442
v 0.246498 -0.082619 -0.907511
v 0.246498 -0.051543 -0.823024
v 0.246498 -0.071156 -0.910093
v 0.246498 -0.041139 -0.828484
v 0.246498 -0.059416 -0.90962
v 0.246498 -0.032503 -0.836452
v 0.246498 -0.048197 -0.906125
v 0.246498 -0.026223 -0.846383
v 0.246498 -0.038266 -0.899845
v 0.246498 -0.022728 -0.857602
v 0.246498 -0.030299 -0.891209
v 0.246498 -0.022255 -0.869342
v 0.246498 -0.024838 -0.880805
v 0.246498 -0.024199 -0.877969
v 0.246498 -0.024199 -0.877969
v 0.246498 -0.022255 -0.869342
v 0.246498 -0.024838 -0.880805
v 0.246498 -0.030299 -0.891209
v 0.246498 -0.022728 -0.857602
v 0.246498 -0.038266 -0.899845
v 0.246498 -0.026223 -0.846383
v 0.246498 -0.048197 -0.906125
v 0.246498 -0.032503 -0.836452
v 0.246498 -0.059416 -0.90962
v 0.246498 -0.041139 -0.828484
v 0.246498 -0.071156 -0.910093
v 0.246498 -0.051543 -0.823024
v 0.246498 -0.082619 -0.907511
v 0.246498 -0.063006 -0.820442
v 0.246498 -0.093023 -0.902049
v 0.246498 -0.074747 -0.820914
v 0.246498 -0.101659 -0.894082
v 0.246498 -0.085965 -0.824409
v 0.246498 -0.107939 -0.884151
v 0.246498 -0.095896 -0.830689
v 0.246498 -0.111434 -0.872932
v 0.246498 -0.103864 -0.839325
v 0.246498 -0.111907 -0.861192
v 0.246498 -0.109963 -0.852565
v 0.246498 -0.109325 -0.849729
v 0.246498 -0.038266 -0.899845
v 0.235245 -0.038266 -0.899845
v 0.246498 -0.038266 -0.899845
v 0.235245 -0.038266 -0.899845
v 0.246498 -0.082619 -0.907511
v 0.235245 -0.082619 -0.907511
v 0.235245 -0.082619 -0.907511
v 0.246498 -0.082619 -0.907511
v 0.246498 -0.109325 -0.849729
v 0.235245 -0.109963 -0.852565
v 0.235245 -0.109325 -0.849729
v 0.246498 -0.109963 -0.852565
v 0.246498 -0.109963 -0.852565
v 0.246498 -0.109325 -0.849729
v 0.235245 -0.109963 -0.852565
v 0.235245 -0.109325 -0.849729
v 0.235245 -0.103864 -0.839325
v 0.246498 -0.103864 -0.839325
v 0.235245 -0.103864 -0.839325
v 0.246498 -0.103864 -0.839325
v 0.246498 -0.095896 -0.830689
v 0.235245 -0.095896 -0.830689
v 0.246498 -0.095896 -0.830689
v 0.235245 -0.095896 -0.830689
v 0.246498 -0.085965 -0.824409
v 0.235245 -0.085965 -0.824409
v 0.246498 -0.085965 -0.824409
v 0.235245 -0.085965 -0.824409
v 0.246498 -0.074747 -0.820914
v 0.235245 -0.074747 -0.820914
v 0.235245 -0.074747 -0.820914
v 0.246498 -0.074747 -0.820914
v 0.246498 -0.063006 -0.820442
v 0.235245 -0.063006 -0.820442
v 0.235245 -0.063006 -0.820442
v 0.246498 -0.063006 -0.820442
v 0.246498 -0.051543 -0.823024
v 0.235245 -0.051543 -0.823024
v 0.235245 -0.051543 -0.823024
v 0.246498 -0.051543 -0.823024
v 0.246498 -0.041139 -0.828484
v 0.235245 -0.041139 -0.828484
v 0.235245 -0.041139 -0.828484
v 0.246498 -0.041139 -0.828484
v 0.235245 -0.032503 -0.836452
v 0.246498 -0.032503 -0.836452
v 0.235245 -0.032503 -0.836452
v 0.246498 -0.032503 -0.836452
v 0.246498 -0.026223 -0.846383
v 0.235245 -0.026223 -0.846383
v 0.235245 -0.026223 -0.846383
v 0.246498 -0.026223 -0.846383
v 0.235245 -0.022728 -0.857602
v 0.246498 -0.022728 -0.857602
v 0.246498 -0.022728 -0.857602
v 0.235245 -0.022728 -0.857602
v 0.235245 -0.022255 -0.869342
v 0.246498 -0.022255 -0.869342
v 0.246498 -0.022255 -0.869342
v 0.235245 -0.022255 -0.869342
v 0.235245 -0.024199 -0.877969
v 0.246498 -0.024199 -0.877969
v 0.246498 -0.024199 -0.877969
v 0.235245 -0.024199 -0.877969
v 0.235245 -0.024838 -0.880805
v 0.246498 -0.024199 -0.877969
v 0.235245 -0.024199 -0.877969
v 0.246498 -0.024838 -0.880805
v 0.246498 -0.024838 -0.880805
v 0.235245 -0.024838 -0.880805
v 0.246498 -0.024199 -0.877969
v 0.235245 -0.024199 -0.877969
v 0.235245 -0.030299 -0.891209
v 0.246498 -0.030299 -0.891209
v 0.246498 -0.030299 -0.891209
v 0.235245 -0.030299 -0.891209
v 0.246498 -0.093023 -0.902049
v 0.235245 -0.093023 -0.902049
v 0.235245 -0.093023 -0.902049
v 0.246498 -0.093023 -0.902049
v 0.235245 -0.101659 -0.894082
v 0.246498 -0.101659 -0.894082
v 0.235245 -0.101659 -0.894082
v 0.246498 -0.101659 -0.894082
v 0.246498 -0.107939 -0.884151
v 0.235245 -0.107939 -0.884151
v 0.235245 -0.107939 -0.884151
v 0.246498 -0.107939 -0.884151
v 0.235245 -0.111434 -0.872932
v 0.246498 -0.111434 -0.872932
v 0.235245 -0.111434 -0.872932
v 0.246498 -0.111434 -0.872932
v 0.235245 -0.111907 -0.861192
v 0.246498 -0.111907 -0.861192
v 0.235245 -0.111907 -0.861192
v 0.246498 -0.111907 -0.861192
v 0.235245 -0.109963 -0.852565
v 0.246498 -0.109963 -0.852565
v 0.235245 -0.109963 -0.852565
v 0.246498 -0.109963 -0.852565
vn 0.0 -0.4195390520860765 0.907737287861811
vn 0.0 -0.1703039487930294 0.9853915795385615
vn 0.0 0.4195390520860765 -0.907737287861811
vn 0.0 0.1703039487930294 -0.9853915795385615
vn 0.0 0.09053713121724548 0.9958930805417574
vn 0.0 -0.09053713121724548 -0.9958930805417574
vn -1.0 0.0 0.0
vn 1.0 0.0 0.0
vn 0.0 -0.640183350334861 0.7682221540375106
vn 0.0 0.640183350334861 -0.7682221540375106
vn 0.0 0.3452082420782848 0.9385261155669673
vn 0.0 -0.3452082420782848 -0.9385261155669673
vn 0.0 0.9385261155669673 -0.3452082420782848
vn 0.0 0.9755556105001825 -0.2197527037868163
vn 0.0 -0.9755556105001825 0.2197527037868163
vn 0.0 -0.9385261155669673 0.3452082420782848
vn 0.0 0.817200163307203 -0.5763539651036337
vn 0.0 -0.817200163307203 0.5763539651036337
vn 0.0 -0.5763539651036337 -0.817200163307203
vn 0.0 0.5763539651036337 0.817200163307203
vn 0.0 -0.7682221540375106 -0.640183350334861
vn 0.0 0.7682221540375106 0.640183350334861
vn 0.0 -0.907737287861811 -0.4195390520860765
vn 0.0 0.907737287861811 0.4195390520860765
vn 0.0 -0.9853915795385615 -0.1703039487930294
vn 0.0 0.9853915795385615 0.1703039487930294
vn 0.0 -0.9958930805417574 0.09053713121724548
vn 0.0 0.9958930805417574 -0.09053713121724548
usemtl material_0_0
f 1//1 2//2 3//2
f 2//2 1//1 4//1
f 5//3 6//3 7//4
f 8//4 7//4 6//3
f 2//2 9//5 3//2
f 9//5 2//2 10//5
f 11//6 7//4 12//6
f 8//4 12//6 7//4
f 13//7 14//7 15//7
f 14//7 13//7 16//7
f 16//7 13//7 17//7
f 17//7 13//7 18//7
f 17//7 18//7 19//7
f 19//7 18//7 20//7
f 19//7 20//7 21//7
f 21//7 20//7 22//7
f 21//7 22//7 23//7
f 23//7 22//7 24//7
f 23//7 24//7 25//7
f 25//7 24//7 26//7
f 25//7 26//7 27//7
f 27//7 26//7 28//7
f 27//7 28//7 29//7
f 29//7 28//7 30//7
f 29//7 30//7 31//7
f 31//7 30//7 32//7
f 31//7 32//7 33//7
f 33//7 32//7 34//7
f 33//7 34//7 35//7
f 35//7 34//7 36//7
f 35//7 36//7 37//7
f 37//7 36//7 38//7
f 39//8 40//8 41//8
f 41//8 40//8 42//8
f 40//8 43//8 42//8
f 42//8 43//8 44//8
f 43//8 45//8 44//8
f 44//8 45//8 46//8
f 45//8 47//8 46//8
f 46//8 47//8 48//8
f 47//8 49//8 48//8
f 48//8 49//8 50//8
f 49//8 51//8 50//8
f 50//8 51//8 52//8
f 51//8 53//8 52//8
f 52//8 53//8 54//8
f 53//8 55//8 54//8
f 54//8 55//8 56//8
f 55//8 57//8 56//8
f 56//8 57//8 58//8
f 57//8 59//8 58//8
f 58//8 59//8 60//8
f 59//8 61//8 60//8
f 60//8 61//8 62//8
f 62//8 61//8 63//8
f 64//8 63//8 61//8
f 4//1 65//9 66//9
f 65//9 4//1 1//1
f 6//3 5//3 67//10
f 68//10 67//10 5//3
f 10//5 69//11 9//5
f 69//11 10//5 70//11
f 71//12 11//6 72//12
f 12//6 72//12 11//6
f 73//13 74//14 75//13
f 74//14 73//13 76//14
f 77//15 78//16 79//15
f 80//16 79//15 78//16
f 73//13 81//17 82//17
f 81//17 73//13 75//13
f 80//16 78//16 83//18
f 84//18 83//18 78//16
f 85//10 81//17 86//10
f 81//17 85//10 82//17
f 84//18 87//9 83//18
f 88//9 83//18 87//9
f 89//3 86//10 90//3
f 86//10 89//3 85//10
f 87//9 91//1 88//9
f 92//1 88//9 91//1
f 90//3 93//4 89//3
f 93//4 90//3 94//4
f 95//2 92//1 96//2
f 91//1 96//2 92//1
f 94//4 97//6 93//4
f 97//6 94//4 98//6
f 99//5 95//2 100//5
f 96//2 100//5 95//2
f 98//6 101//12 97//6
f 101//12 98//6 102//12
f 103//11 99//5 104//11
f 100//5 104//11 99//5
f 102//12 105//19 101//12
f 105//19 102//12 106//19
f 107//20 103//11 108//20
f 104//11 108//20 103//11
f 105//19 109//21 110//21
f 109//21 105//19 106//19
f 107//20 108//20 111//22
f 112//22 111//22 108//20
f 109//21 113//23 110//21
f 113//23 109//21 114//23
f 115//24 111//22 116//24
f 112//22 116//24 111//22
f 117//25 113//23 114//23
f 113//23 117//25 118//25
f 119//26 120//26 116//24
f 115//24 116//24 120//26
f 121//27 118//25 117//25
f 118//25 121//27 122//27
f 123//28 124//28 119//26
f 120//26 119//26 124//28
f 125//15 122//27 121//27
f 122//27 125//15 126//15
f 127//14 128//14 123//28
f 124//28 123//28 128//14
f 129//16 130//15 131//15
f 130//15 129//16 132//16
f 133//13 134//13 135//14
f 136//14 135//14 134//13
f 137//18 132//16 129//16
f 132//16 137//18 138//18
f 139//17 140//17 133//13
f 134//13 133//13 140//17
f 66//9 138//18 137//18
f 138//18 66//9 65//9
f 67//10 68//10 139//17
f 140//17 139//17 68//10
f 70//11 141//20 69//11
f 141//20 70//11 142//20
f 143//19 71//12 144//19
f 72//12 144//19 71//12
f 141//20 145//22 146//22
f 145//22 141//20 142//20
f 143//19 144//19 147//21
f 148//21 147//21 144//19
f 145//22 149//24 146//22
f 149//24 145//22 150//24
f 151//23 147//21 152//23
f 148//21 152//23 147//21
f 149//24 153//26 154//26
f 153//26 149//24 150//24
f 151//23 152//23 155//25
f 156//25 155//25 152//23
f 154//26 157//28 158//28
f 157//28 154//26 153//26
f 155//25 156//25 159//27
f 160//27 159//27 156//25
f 158//28 161//14 162//14
f 161//14 158//28 157//28
f 159//27 160//27 163//15
f 164//15 163//15 160//27
