# SSTK version 0.8.0
# 13
mtllib original-13.mtl
o Drawer_Divider1/Drawer_Divider/mesh8/mesh8-geometry#mesh8-geometry
v 0.164884 0.221724 0.200285
v -0.239736 0.221724 0.173351
v -0.239736 0.221724 0.200285
v 0.164884 0.221724 0.173351
v -0.239736 0.115213 0.173351
v -0.239736 0.115213 0.200285
v 0.164884 0.115213 0.173351
v 0.164884 0.115213 0.200285
vt 3.305 0
vt 0 0.222667
vt 0 0
vt 3.305 0.222667
vt 3.305 0.880545
vt 0 0.880545
vt -3.305 0
vt -3.305 0.880545
vt -3.305 0.222667
vt -0.225371 0
vt 0 0.880567
vt -0.225371 0.880567
vt 0.225371 0
vt 0.225371 0.880567
vn 0 1 0
vn 0 0 1
vn 0 0 -1
vn 0 -1 0
vn 1 0 0
vn -1 0 0
usemtl material_0_0
f 1/1/1 2/2/1 3/3/1
f 2/2/1 1/1/1 4/4/1
f 6/3/2 1/5/2 3/6/2
f 7/7/3 2/6/3 4/8/3
f 2/6/3 7/7/3 5/3/3
f 1/5/2 6/3/2 8/1/2
f 7/9/4 6/3/4 5/2/4
f 6/3/4 7/9/4 8/7/4
usemtl material_1_0
f 3//4 2//4 1//4
f 4//4 1//4 2//4
f 2//5 3//5 5//5
f 3//3 1//3 6//3
f 4//6 7//6 1//6
f 4//2 2//2 7//2
f 6//5 5//5 3//5
f 5//2 7//2 2//2
f 8//3 6//3 1//3
f 8//6 1//6 7//6
f 5//1 6//1 7//1
f 8//1 7//1 6//1
usemtl material_2_0
f 5/10/6 3/11/6 2/12/6
f 1/11/5 7/13/5 4/14/5
f 3/11/6 5/10/6 6/3/6
f 7/13/5 1/11/5 8/3/5
