# SSTK version 0.8.0
# 39
mtllib original-39.mtl
o Drawer_Side2/Drawer_Side12/mesh21/mesh21-geometry#mesh21-geometry
v 0.179575 0.221724 0.083859
v 0.179575 0.129904 0.083859
v 0.164884 0.221724 0.083859
v 0.179575 0.221724 0.475624
v 0.172230 0.129904 0.083859
v 0.179575 0.215603 0.475624
v 0.172230 0.122558 0.083859
v 0.172230 0.129904 0.495212
v 0.164884 0.221724 0.475624
v 0.179575 0.177003 0.475624
v 0.164884 0.215603 0.475624
v 0.164884 0.115213 0.083859
v 0.179575 0.129904 0.495212
v 0.179575 0.159942 0.475624
v 0.179575 0.174598 0.495212
v 0.179575 0.218008 0.495212
v 0.179575 0.115213 0.083859
v 0.172230 0.122558 0.495212
v 0.179575 0.162347 0.495212
v 0.164884 0.159942 0.475624
v 0.164884 0.174598 0.495212
v 0.164884 0.218008 0.495212
v 0.179575 0.122558 0.083859
v 0.164884 0.115213 0.475624
v 0.164884 0.177003 0.475624
v 0.179575 0.122558 0.495212
v 0.164884 0.118929 0.495212
v 0.164884 0.162347 0.495212
v 0.179575 0.115213 0.475624
v 0.164884 0.121334 0.475624
v 0.179575 0.121334 0.475624
v 0.179575 0.118929 0.495212
vt 0 0
vt 0 1.723342
vt 0.12 0
vt 3.2 0
vt 3.2 1.723342
vt 0.06 1.723342
vt -3.2 0
vt -3.2 0.275735
vt 0 0.114889
vt 0.06 1.861209
vt 3.2 0.137867
vt -0.16 0.137867
vt 0 0.275735
vt 0 0.839356
vt -0.12 0.114889
vt 0.12 1.999076
vt -0.16 1.723342
vt 3.2 1.861209
vt -0.16 0
vt -0.12 0
vt 0 1.159569
vt -0.16 0.884498
vt 0 0.014001
vt 0.12 0.014001
vt 0 -0.356406
vt 0 1.999076
vt -3.2 1.999076
vt -0.16 1.861209
vt 0 1.114428
vt -0.06 1.723342
vt -0.12 1.159569
vt -0.16 0.069748
vt 0 0.472699
vt 0.12 0.472699
vt 0 0.102292
vt 0.12 -0.356406
vt 0 1.861209
vt 3.2 0.275735
vt 0.16 0.137867
vt 0.16 0
vt -3.2 0.137867
vt -0.12 1.929328
vt -0.06 1.861209
vt -0.16 1.114428
vt -0.12 1.114428
vt -0.12 0.839356
vt 0 0.141316
vt 0.12 0.141316
vt 0 -0.229091
vt 0 0.884498
vt 0 0.069748
vt -0.12 0.884498
vt 0.12 0.102292
vt -0.12 0.069748
vt 0.16 0.069748
vt 0.16 0.884498
vt 3.2 1.999076
vt 0 1.884187
vt 0.12 -0.229091
vt -0.12 1.999076
vt -0.12 1.884187
vt 0 1.929328
vt 0.16 1.114428
vt 0.16 1.929328
vt -0.16 1.929328
vt 0.12 0.229625
vt 0 0.229625
vt 0.12 0.600032
vt 0 0.600032
vn 0 0 -1
vn 1 0 0
vn 0 1 0
vn 0 -1 0
vn 0 0 1
vn -1 0 0
vn 0 0.9925461909276926 -0.12186902344291019
vn 0 -0.9925461909276925 -0.1218690234429106
vn 0 -0.9925461909276926 0.12186902344291019
vn 0 0.9925461909276925 0.1218690234429106
usemtl material_0_0
f 1/1/1 2/2/1 3/3/1
f 1/4/2 4/1/2 2/5/2
f 5/6/1 3/3/1 2/2/1
f 1/7/3 3/8/3 4/1/3
f 6/9/2 2/5/2 4/1/2
f 7/10/1 3/3/1 5/6/1
f 5/11/4 2/4/4 8/12/4
f 9/13/3 4/1/3 3/8/3
f 10/14/2 2/5/2 6/9/2
f 6/9/5 4/1/5 11/15/5
f 3/3/1 7/10/1 12/16/1
f 5/5/2 8/17/2 7/18/2
f 13/19/4 8/12/4 2/4/4
f 9/20/5 11/15/5 4/1/5
f 9/1/6 3/7/6 11/9/6
f 14/21/2 2/5/2 10/14/2
f 10/14/2 6/9/2 15/22/2
f 6/23/7 11/24/7 16/25/7
f 12/16/1 7/10/1 17/26/1
f 12/27/6 11/9/6 3/7/6
f 18/28/2 7/18/2 8/17/2
f 13/2/5 19/29/5 8/30/5
f 2/5/2 14/21/2 13/17/2
f 14/21/5 10/14/5 20/31/5
f 16/32/2 15/22/2 6/9/2
f 15/33/8 21/34/8 10/35/8
f 22/36/7 16/25/7 11/24/7
f 23/37/1 17/26/1 7/10/1
f 12/38/4 17/4/4 24/13/4
f 25/14/6 11/9/6 12/27/6
f 18/39/3 26/40/3 7/41/3
f 8/30/5 27/42/5 18/43/5
f 19/44/2 13/17/2 14/21/2
f 28/45/5 8/30/5 19/29/5
f 25/46/5 20/31/5 10/14/5
f 14/47/7 20/48/7 19/49/7
f 15/50/5 16/51/5 21/52/5
f 25/53/8 10/35/8 21/34/8
f 22/54/5 21/52/5 16/51/5
f 22/55/6 11/9/6 21/56/6
f 23/18/2 26/28/2 17/57/2
f 23/7/3 7/41/3 26/40/3
f 29/1/4 24/13/4 17/4/4
f 24/26/6 30/58/6 12/27/6
f 25/14/6 21/56/6 11/9/6
f 20/21/6 25/14/6 12/27/6
f 18/43/5 27/42/5 26/37/5
f 28/45/5 27/42/5 8/30/5
f 28/59/7 19/49/7 20/48/7
f 31/58/2 17/57/2 26/28/2
f 29/26/5 31/58/5 24/60/5
f 29/26/2 17/57/2 31/58/2
f 30/61/5 24/60/5 31/58/5
f 30/58/6 20/21/6 12/27/6
f 32/62/5 26/37/5 27/42/5
f 28/63/6 20/21/6 27/64/6
f 31/58/2 26/28/2 32/65/2
f 30/66/8 31/67/8 27/68/8
f 30/58/6 27/64/6 20/21/6
f 32/69/8 27/68/8 31/67/8
usemtl material_1_0
f 3//5 2//5 1//5
f 2//6 4//6 1//6
f 2//5 3//5 5//5
f 4//4 3//4 1//4
f 4//6 2//6 6//6
f 5//5 3//5 7//5
f 8//3 2//3 5//3
f 3//4 4//4 9//4
f 6//6 2//6 10//6
f 11//1 4//1 6//1
f 12//5 7//5 3//5
f 7//6 8//6 5//6
f 2//3 8//3 13//3
f 4//1 11//1 9//1
f 11//2 3//2 9//2
f 10//6 2//6 14//6
f 15//6 6//6 10//6
f 16//9 11//9 6//9
f 17//5 7//5 12//5
f 3//2 11//2 12//2
f 8//6 7//6 18//6
f 8//1 19//1 13//1
f 13//6 14//6 2//6
f 20//1 10//1 14//1
f 6//6 15//6 16//6
f 10//10 21//10 15//10
f 11//9 16//9 22//9
f 7//5 17//5 23//5
f 24//3 17//3 12//3
f 12//2 11//2 25//2
f 7//4 26//4 18//4
f 18//1 27//1 8//1
f 14//6 13//6 19//6
f 19//1 8//1 28//1
f 10//1 20//1 25//1
f 19//9 20//9 14//9
f 21//1 16//1 15//1
f 21//10 10//10 25//10
f 16//1 21//1 22//1
f 21//2 11//2 22//2
f 17//6 26//6 23//6
f 26//4 7//4 23//4
f 17//3 24//3 29//3
f 12//2 30//2 24//2
f 11//2 21//2 25//2
f 12//2 25//2 20//2
f 26//1 27//1 18//1
f 8//1 27//1 28//1
f 20//9 19//9 28//9
f 26//6 17//6 31//6
f 24//1 31//1 29//1
f 31//6 17//6 29//6
f 31//1 24//1 30//1
f 12//2 20//2 30//2
f 27//1 26//1 32//1
f 27//2 20//2 28//2
f 32//6 26//6 31//6
f 27//10 31//10 30//10
f 20//2 27//2 30//2
f 31//10 27//10 32//10
