# SSTK version 0.8.0
# 30
mtllib original-30.mtl
o TB1F1/TB1F/mesh23/mesh23-geometry#mesh23-geometry
v 0.312674 -0.208824 0.483242
v -0.305867 -0.297187 0.483242
v 0.312674 -0.297187 0.483242
v -0.305867 -0.208824 0.483242
v 0.312674 -0.297187 0.461151
v -0.305867 -0.208824 0.461151
v -0.305867 -0.297187 0.461151
v 0.312674 -0.208824 0.461151
vt -2.188763 -0.931008
vt -2.147096 -0.389341
vt -2.147096 -0.931008
vt -2.188763 -0.389341
vt -2.157513 -0.931008
vt -2.147096 -0.920591
vt -1.433555 -0.931007
vt -1.443971 -0.389341
vt -1.433555 -0.389341
vt -2.188763 -0.399758
vt -2.157513 -0.389341
vt -2.188763 -0.920591
vt -1.443971 -0.931007
vt -2.147096 -0.399758
vt -2.188763 -0.306007
vt -2.147096 0.235659
vt -2.147096 -0.306007
vt -2.188763 0.235659
vn 0 0 1
vn 0 -1 0
vn 1 0 0
vn 0 1 0
vn -1 0 0
vn 0 0 -1
usemtl material_0_0
f 1/1/1 2/2/1 3/3/1
f 2/2/1 1/1/1 4/4/1
f 2/2/2 5/5/2 3/3/2
f 5/6/3 1/1/3 3/3/3
f 1/7/4 6/8/4 4/9/4
f 6/10/5 2/2/5 4/4/5
f 5/5/2 2/2/2 7/11/2
f 1/1/3 5/6/3 8/12/3
f 6/8/4 1/7/4 8/13/4
f 2/2/5 6/10/5 7/14/5
f 6/15/6 5/16/6 7/17/6
f 5/16/6 6/15/6 8/18/6
usemtl material_1_0
f 3//6 2//6 1//6
f 4//6 1//6 2//6
f 3//4 5//4 2//4
f 3//5 1//5 5//5
f 4//2 6//2 1//2
f 4//3 2//3 6//3
f 7//4 2//4 5//4
f 8//5 5//5 1//5
f 8//2 1//2 6//2
f 7//3 6//3 2//3
f 7//1 5//1 6//1
f 8//1 6//1 5//1
