# SSTK version 0.8.0
# 5
mtllib original-5.mtl
o Component_2_2/Component_2/mesh2/mesh2-geometry#mesh2-geometry
v -0.025614 -0.183717 0.459857
v -0.002813 -0.183717 0.459857
v -0.011988 -0.22854 0.471868
v -0.002813 -0.22854 0.471868
v -0.025614 -0.181742 0.474856
v -0.011988 -0.228147 0.474856
v -0.002813 -0.181742 0.474856
v -0.002813 -0.228147 0.474856
vt 0 1
vt 1 0
vt 0.537838 1
vt 1 0.025091
vt 0 0.874079
vt 0.892829 0
vn 0.0 -0.25881932562443094 -0.9659257511234053
vn 0.0 0.25881932562443094 0.9659257511234053
vn 0.9588344398885283 0.28153633195577105 -0.03706495207796672
vn 0.0 0.0 -1.0
vn -0.9588344398885283 -0.28153633195577105 0.03706495207796672
vn 0.0 0.0 1.0
usemtl material_0_0
f 1/1/1 2/1/1 3/2/1
f 4/2/1 3/2/1 2/1/1
usemtl material_1_0
f 3//2 2//2 1//2
f 2//2 3//2 4//2
f 5//3 3//3 1//3
f 3//3 5//3 6//3
f 7//4 6//4 5//4
f 6//4 7//4 8//4
usemtl material_2_0
f 1/3/5 3/4/5 5/5/5
f 6/6/5 5/5/5 3/4/5
f 5/5/6 6/6/6 7/5/6
f 8/6/6 7/5/6 6/6/6
