# SSTK version 0.8.0
# 15
mtllib original-15.mtl
o Component_2_12/Component_2/mesh2/mesh2-geometry#mesh2-geometry
v -0.025614 -0.198716 0.515835
v -0.002813 -0.198716 0.515835
v -0.011988 -0.231529 0.483022
v -0.002813 -0.231529 0.483022
v -0.025614 -0.210718 0.525044
v -0.011988 -0.233921 0.484857
v -0.002813 -0.210718 0.525044
v -0.002813 -0.233921 0.484857
vt 0 1
vt 1 0
vt 0.537838 1
vt 1 0.025091
vt 0 0.874079
vt 0.892829 0
vn 0.0 0.7071068613490585 -0.7071067010240275
vn 0.0 -0.7071068613490585 0.7071067010240275
vn 0.9588344398885283 0.17286726510077796 0.22528520932415758
vn 0.0 0.8660256056766579 -0.4999996503122555
vn -0.9588344398885283 -0.17286726510077796 -0.22528520932415758
vn 0.0 -0.8660256056766579 0.4999996503122555
usemtl material_0_0
f 1/1/1 2/1/1 3/2/1
f 4/2/1 3/2/1 2/1/1
usemtl material_1_0
f 3//2 2//2 1//2
f 2//2 3//2 4//2
f 5//3 3//3 1//3
f 3//3 5//3 6//3
f 7//4 6//4 5//4
f 6//4 7//4 8//4
usemtl material_2_0
f 1/3/5 3/4/5 5/5/5
f 6/6/5 5/5/5 3/4/5
f 5/5/6 6/6/6 7/5/6
f 8/6/6 7/5/6 6/6/6
