# SSTK version 0.8.0
# 22
mtllib original-22.mtl
o Can8/Can/mesh5/mesh5-geometry#mesh5-geometry
v -0.484874 0.065993 0.154496
v -0.480029 0.065993 0.200595
v -0.495760 0.065993 0.178944
v -0.458259 0.065993 0.151698
v -0.495760 0.155200 0.178944
v -0.484874 0.155200 0.154496
v -0.453414 0.065993 0.197798
v -0.480029 0.155200 0.200595
v -0.458259 0.155200 0.151698
v -0.442529 0.065993 0.173349
v -0.453414 0.155200 0.197798
v -0.442529 0.155200 0.173349
vn 0 -1 0
vn 0 1 0
vn -0.40673711099979293 0 0.9135452493092732
vn -0.9945219446707676 0 0.10452799418468972
vn 0.9945219446707676 0 -0.10452799418468972
vn 0.40673711099979293 0 -0.9135452493092732
vn -0.5877850844899974 0 -0.8090171162905557
vn 0.5877850844899974 0 0.8090171162905557
usemtl material_0_0
f 1//1 2//1 3//1
f 2//1 1//1 4//1
f 3//2 2//2 1//2
f 4//2 1//2 2//2
f 2//3 5//4 3//4
f 3//5 5//5 2//6
f 3//4 6//7 1//7
f 1//8 6//8 3//5
f 6//7 4//6 1//7
f 1//8 4//3 6//8
f 2//1 4//1 7//1
f 7//2 4//2 2//2
f 5//4 2//3 8//3
f 8//6 2//6 5//5
f 6//7 3//4 5//4
f 5//5 3//5 6//8
f 4//6 6//7 9//6
f 9//3 6//8 4//3
f 7//1 4//1 10//1
f 10//2 4//2 7//2
f 11//8 2//3 7//8
f 7//7 2//6 11//7
f 2//3 11//8 8//3
f 8//6 11//7 2//6
f 8//2 6//2 5//2
f 5//1 6//1 8//1
f 6//2 8//2 9//2
f 9//1 8//1 6//1
f 12//5 4//6 9//6
f 9//3 4//3 12//4
f 4//6 12//5 10//5
f 10//4 12//4 4//3
f 10//5 11//8 7//8
f 7//7 11//7 10//4
f 9//2 8//2 11//2
f 11//1 8//1 9//1
f 9//2 11//2 12//2
f 12//1 11//1 9//1
f 11//8 10//5 12//5
f 12//4 10//4 11//7
