# SSTK version 0.8.0
# 71
mtllib original-71.mtl
o mesh160/mesh160-geometry#mesh160-geometry
v -0.630027 0.056105 0.188796
v -0.633049 0.043270 0.188796
v -0.634906 0.043270 0.188796
v -0.631810 0.046666 0.188796
v -0.633049 0.043270 0.190333
v -0.630027 0.056105 0.190333
v -0.631275 0.048121 0.188796
v -0.634906 0.043270 0.190333
v -0.627869 0.056105 0.188796
v -0.628948 0.054848 0.188796
v -0.626087 0.046666 0.188796
v -0.631810 0.046666 0.190333
v -0.627869 0.056105 0.190333
v -0.631275 0.048121 0.190333
v -0.626640 0.048121 0.188796
v -0.626087 0.046666 0.190333
v -0.628948 0.054848 0.190333
v -0.623000 0.043270 0.190333
v -0.623000 0.043270 0.188796
v -0.624858 0.043270 0.188796
v -0.626640 0.048121 0.190333
v -0.624858 0.043270 0.190333
vn 0 0 -1
vn 0 0 1
vn 0 -1 0
vn 0 1 0
vn -0.934747335584636 0.35531312756134414 0
vn 0.934747335584636 -0.35531312756134414 0
vn 0.9394901052811462 -0.3425760383897582 0
vn -0.9394901052811462 0.3425760383897582 0
vn 0.9450644188753247 -0.32688414488293027 0
vn -0.9450644188753247 0.32688414488293027 0
vn 0.9349740835249785 0.35471603168820337 0
vn -0.9349740835249785 -0.35471603168820337 0
vn -0.9403230637454429 -0.34028302306812724 0
vn 0.9403230637454429 0.34028302306812724 0
vn -0.9458764926045552 -0.32452682591444604 0
vn 0.9458764926045552 0.32452682591444604 0
usemtl material_0_0
f 1//1 2//1 3//1
f 2//1 1//1 4//1
f 3//2 2//2 1//2
f 4//2 1//2 2//2
f 5//3 3//3 2//3
f 2//4 3//4 5//4
f 3//5 6//5 1//5
f 1//6 6//6 3//6
f 4//1 1//1 7//1
f 7//2 1//2 4//2
f 4//7 5//7 2//7
f 2//8 5//8 4//8
f 3//3 5//3 8//3
f 8//4 5//4 3//4
f 6//5 3//5 8//5
f 8//6 3//6 6//6
f 6//4 9//4 1//4
f 1//3 9//3 6//3
f 7//1 1//1 10//1
f 10//2 1//2 7//2
f 7//1 11//1 4//1
f 4//2 11//2 7//2
f 5//7 4//7 12//7
f 12//8 4//8 5//8
f 5//2 6//2 8//2
f 8//1 6//1 5//1
f 9//4 6//4 13//4
f 13//3 6//3 9//3
f 10//1 1//1 9//1
f 9//2 1//2 10//2
f 10//9 14//9 7//9
f 7//10 14//10 10//10
f 11//1 7//1 15//1
f 15//2 7//2 11//2
f 16//3 4//3 11//3
f 11//4 4//4 16//4
f 4//3 16//3 12//3
f 12//4 16//4 4//4
f 6//2 5//2 12//2
f 12//1 5//1 6//1
f 6//2 17//2 13//2
f 13//1 17//1 6//1
f 18//11 9//11 13//11
f 13//12 9//12 18//12
f 10//1 9//1 15//1
f 15//2 9//2 10//2
f 14//9 10//9 17//9
f 17//10 10//10 14//10
f 14//4 15//4 7//4
f 7//3 15//3 14//3
f 15//1 19//1 11//1
f 11//2 19//2 15//2
f 20//13 16//13 11//13
f 11//14 16//14 20//14
f 16//2 14//2 12//2
f 12//1 14//1 16//1
f 6//2 12//2 14//2
f 14//1 12//1 6//1
f 6//2 14//2 17//2
f 17//1 14//1 6//1
f 13//2 17//2 21//2
f 21//1 17//1 13//1
f 9//11 18//11 19//11
f 19//12 18//12 9//12
f 13//2 21//2 18//2
f 18//1 21//1 13//1
f 15//1 9//1 19//1
f 19//2 9//2 15//2
f 15//15 17//15 10//15
f 10//16 17//16 15//16
f 15//4 14//4 21//4
f 21//3 14//3 15//3
f 11//1 19//1 20//1
f 20//2 19//2 11//2
f 16//13 20//13 22//13
f 22//14 20//14 16//14
f 14//2 16//2 21//2
f 21//1 16//1 14//1
f 17//15 15//15 21//15
f 21//16 15//16 17//16
f 18//3 20//3 19//3
f 19//4 20//4 18//4
f 18//2 21//2 16//2
f 16//1 21//1 18//1
f 20//3 18//3 22//3
f 22//4 18//4 20//4
f 18//2 16//2 22//2
f 22//1 16//1 18//1
