# SSTK version 0.8.0
# 95
mtllib original-95.mtl
o M1/M/mesh217/mesh217-geometry#mesh217-geometry
v -0.627603 0.205625 -0.162581
v -0.628852 0.178551 -0.162581
v -0.625183 0.178551 -0.162581
v -0.630519 0.201738 -0.162581
v -0.628852 0.178551 -0.165830
v -0.627603 0.205625 -0.165830
v -0.632601 0.205625 -0.162581
v -0.625183 0.178551 -0.165830
v -0.639781 0.178551 -0.162581
v -0.630519 0.201738 -0.165830
v -0.632601 0.205625 -0.165830
v -0.641745 0.182498 -0.162581
v -0.641745 0.182498 -0.165830
v -0.643728 0.178551 -0.162581
v -0.639781 0.178551 -0.165830
v -0.650909 0.205625 -0.165830
v -0.650909 0.205625 -0.162581
v -0.643728 0.178551 -0.165830
v -0.652991 0.201738 -0.162581
v -0.655907 0.205625 -0.162581
v -0.652991 0.201738 -0.165830
v -0.655907 0.205625 -0.165830
v -0.654657 0.178551 -0.162581
v -0.658327 0.178551 -0.165830
v -0.654657 0.178551 -0.165830
v -0.658327 0.178551 -0.162581
vt -0.041378 0.462963
vt -0.062746 0
vt 0 0
vt -0.091236 0.396486
vt 0.062746 0.055556
vt 0.062746 0
vt -0.464808 0.055556
vt -0.464808 0
vt -0.126848 0.462963
vt 0.402006 0
vt 0.004497 0.055556
vt 0.004497 0
vt 0 0.055556
vt -0.041378 0.055556
vt -0.126848 0
vt -0.041378 0
vt -0.249627 0
vt 0.402006 0.055556
vt 0.041378 0.462963
vt -0.126848 0.055556
vt -0.283204 0.067494
vt 0.092607 0
vt -0.334347 0.055556
vt -0.334347 0
vt 0.091236 0.396486
vt 0.126848 0.462963
vt -0.041361 0.055556
vt 0.383895 0
vt 0.383895 0.055556
vt -0.041361 0
vt -0.317121 0
vt 0.092607 0.055556
vt 0.249627 0
vt 0.283204 0.067494
vt -0.592451 0.055556
vt -0.167071 0
vt -0.167071 0.055556
vt -0.4399 0.462963
vt 0.317121 0.055556
vt 0.317121 0
vt 0.249627 0.055556
vt -0.592451 0
vt 0.4399 0.462963
vt -0.475512 0.396486
vt 0.544599 0
vt 0.117646 0.055556
vt 0.117646 0
vt -0.4399 0.055556
vt -0.52537 0
vt -0.4399 0
vt 0.475512 0.396486
vt -0.52537 0.462963
vt 0.544599 0.055556
vt -0.52537 0.055556
vt 0.52537 0.462963
vt -0.504002 0
vt 0.036123 0
vt -0.361386 0.055556
vt -0.361386 0
vt -0.050453 0.055556
vt 0.414355 0
vt 0.414355 0.055556
vt 0.504002 0
vt -0.566748 0
vt 0.036123 0.055556
vt -0.050453 0
vt 0.566748 0
vt 0.566748 0.055556
vt 0.504002 0.055556
vn 0 0 1
vn 0 0 -1
vn 0 -1 0
vn 0 1 0
vn 0.9960296626527786 0.08902196984897609 0
vn -0.9960296626527786 -0.08902196984897609 0
vn -0.9974283254484478 -0.07167102338536285 0
vn 0.9974283254484478 0.07167102338536285 0
vn 0.9286408758959774 -0.3709799504220572 0
vn -0.9286408758959774 0.3709799504220572 0
vn -0.9299543032855815 0.36767511990972257 0
vn 0.9299543032855815 -0.36767511990972257 0
vn 0.9296816943114122 0.36836387887829286 0
vn -0.9296816943114122 -0.36836387887829286 0
vn -0.9286408758959774 -0.3709799504220572 0
vn 0.9286408758959774 0.3709799504220572 0
vn 0.9974283254484478 -0.07167102338536285 0
vn -0.9974283254484478 0.07167102338536285 0
vn -0.9960296626527786 0.08902196984897609 0
vn 0.9960296626527786 -0.08902196984897609 0
usemtl material_0_0
f 1/1/1 2/2/1 3/3/1
f 2/2/1 1/1/1 4/4/1
f 3/3/2 2/2/2 1/1/2
f 4/4/2 1/1/2 2/2/2
f 5/5/3 3/3/3 2/6/3
f 2/6/4 3/3/4 5/5/4
f 3/3/5 6/7/5 1/8/5
f 1/8/6 6/7/6 3/3/6
f 4/4/1 1/1/1 7/9/1
f 7/9/2 1/1/2 4/4/2
f 4/10/7 5/11/7 2/12/7
f 2/12/8 5/11/8 4/10/8
f 3/3/3 5/5/3 8/13/3
f 8/13/4 5/5/4 3/3/4
f 6/7/5 3/3/5 8/13/5
f 8/13/6 3/3/6 6/7/6
f 6/14/4 7/15/4 1/16/4
f 1/16/3 7/15/3 6/14/3
f 4/4/1 7/9/1 9/17/1
f 9/17/2 7/9/2 4/4/2
f 5/11/7 4/10/7 10/18/7
f 10/18/8 4/10/8 5/11/8
f 5/6/2 6/19/2 8/3/2
f 8/3/1 6/19/1 5/6/1
f 7/15/4 6/14/4 11/20/4
f 11/20/3 6/14/3 7/15/3
f 9/17/1 7/9/1 12/21/1
f 12/21/2 7/9/2 9/17/2
f 9/22/9 10/23/9 4/24/9
f 4/24/10 10/23/10 9/22/10
f 6/19/2 5/6/2 10/25/2
f 10/25/1 5/6/1 6/19/1
f 6/19/2 10/25/2 11/26/2
f 11/26/1 10/25/1 6/19/1
f 13/27/11 7/28/11 11/29/11
f 11/29/12 7/28/12 13/27/12
f 7/28/11 13/27/11 12/30/11
f 12/30/12 13/27/12 7/28/12
f 9/17/1 12/21/1 14/31/1
f 14/31/2 12/21/2 9/17/2
f 10/23/9 9/22/9 15/32/9
f 15/32/10 9/22/10 10/23/10
f 11/26/2 10/25/2 15/33/2
f 15/33/1 10/25/1 11/26/1
f 11/26/2 15/33/2 13/34/2
f 13/34/1 15/33/1 11/26/1
f 16/35/13 12/36/13 13/37/13
f 13/37/14 12/36/14 16/35/14
f 14/31/1 12/21/1 17/38/1
f 17/38/2 12/21/2 14/31/2
f 18/39/3 9/33/3 14/40/3
f 14/40/4 9/33/4 18/39/4
f 9/33/3 18/39/3 15/41/3
f 15/41/4 18/39/4 9/33/4
f 13/34/2 15/33/2 18/40/2
f 18/40/1 15/33/1 13/34/1
f 12/36/13 16/35/13 17/42/13
f 17/42/14 16/35/14 12/36/14
f 13/34/2 18/40/2 16/43/2
f 16/43/1 18/40/1 13/34/1
f 14/31/1 17/38/1 19/44/1
f 19/44/2 17/38/2 14/31/2
f 19/45/15 18/46/15 14/47/15
f 14/47/16 18/46/16 19/45/16
f 16/48/4 20/49/4 17/50/4
f 17/50/3 20/49/3 16/48/3
f 16/43/2 18/40/2 21/51/2
f 21/51/1 18/40/1 16/43/1
f 19/44/1 17/38/1 20/52/1
f 20/52/2 17/38/2 19/44/2
f 18/46/15 19/45/15 21/53/15
f 21/53/16 19/45/16 18/46/16
f 20/49/4 16/48/4 22/54/4
f 22/54/3 16/48/3 20/49/3
f 16/43/2 21/51/2 22/55/2
f 22/55/1 21/51/1 16/43/1
f 19/44/1 20/52/1 23/56/1
f 23/56/2 20/52/2 19/44/2
f 23/57/17 21/58/17 19/59/17
f 19/59/18 21/58/18 23/57/18
f 24/60/19 20/61/19 22/62/19
f 22/62/20 20/61/20 24/60/20
f 22/55/2 21/51/2 25/63/2
f 25/63/1 21/51/1 22/55/1
f 23/56/1 20/52/1 26/64/1
f 26/64/2 20/52/2 23/56/2
f 21/58/17 23/57/17 25/65/17
f 25/65/18 23/57/18 21/58/18
f 20/61/19 24/60/19 26/66/19
f 26/66/20 24/60/20 20/61/20
f 22/55/2 25/63/2 24/67/2
f 24/67/1 25/63/1 22/55/1
f 24/68/3 23/63/3 26/67/3
f 26/67/4 23/63/4 24/68/4
f 23/63/3 24/68/3 25/69/3
f 25/69/4 24/68/4 23/63/4
