# SSTK version 0.8.0
# 111
mtllib original-111.mtl
o Group42/mesh105/mesh105-geometry#mesh105-geometry
v -0.748446 -0.598831 -0.396415
v -0.748446 -0.597504 -0.397816
v -0.746893 -0.600119 -0.396929
v -0.748446 0.494957 -0.397815
v -0.746893 -0.598058 -0.399103
v -0.746893 -0.599891 0.327558
v -0.748446 0.496441 -0.396382
v -0.710891 -0.600119 -0.396929
v -0.748446 -0.598831 0.360014
v -0.710891 -0.599891 0.327558
v -0.748446 0.496441 0.326932
v -0.746893 0.497728 -0.396929
v -0.746893 0.495477 -0.399103
v -0.710891 -0.598058 -0.399103
v -0.748446 0.263504 0.328355
v -0.746893 -0.600119 0.360546
v -0.748446 0.494959 0.328354
v -0.710892 0.497728 -0.396929
v -0.710892 0.497728 0.327481
v -0.748446 -0.597525 0.361319
v -0.746893 -0.598058 0.329619
v -0.710891 -0.600119 0.360546
v -0.746893 0.497728 0.327481
v -0.710892 0.495477 -0.399103
v -0.710892 0.495477 0.329641
v -0.748446 -0.596114 0.361343
v -0.746893 0.265445 0.329641
v -0.746893 -0.598058 0.362607
v -0.710892 0.265445 0.329641
v -0.746893 0.495477 0.329641
v -0.748446 0.263504 0.361343
v -0.746893 -0.594826 0.329641
v -0.710891 -0.598058 0.362607
v -0.746893 -0.594826 0.362629
v -0.746893 0.265445 0.362629
v -0.710891 -0.594826 0.362629
v -0.710892 0.265445 0.362629
vt -0.196496 0.16823
vt -0.197174 0.167223
vt -0.197368 0.169207
vt -0.256174 0.311833
vt -0.255293 0.312668
vt -0.256174 -0.375657
vt -0.198422 0.167644
vt 0.200308 0.200686
vt -0.255293 0.199642
vt -0.255615 0.200911
vt -0.255272 -0.376591
vt -0.16352 0.311833
vt -0.16352 -0.375657
vt -0.164789 0.312182
vt -0.000977 0.03006
vt -0.000977 0.028175
vt -0.023633 0.03006
vt 0.220731 0.176236
vt -0.255293 0.176236
vt 0.200307 0.177419
vt 0.000977 -0.200208
vt 0.000977 0.255714
vt 0.023633 -0.200208
vt 0.199913 -0.376591
vt -0.192822 -0.228795
vt -0.193722 -0.229753
vt -0.193504 -0.227689
vt -0.16479 -0.375984
vt -0.023633 0.028175
vt 0.023633 0.255714
vt 0.220731 0.312668
vt 0.200808 -0.230003
vt 0.220724 0.200669
vt 0.200292 0.201715
vt 0.22105 0.20194
vt -0.000978 0.202468
vt -0.023634 0.202468
vt -0.000978 0.223227
vt 0.200808 -0.375659
vt -0.255272 -0.240385
vt 0.199913 -0.240385
vt -0.255616 -0.241654
vt -0.194756 -0.228076
vt -0.000977 0.312182
vt -0.000977 -0.375984
vt -0.023633 0.312182
vt 0.256984 0.312182
vt 0.255616 -0.377401
vt 0.255615 0.313478
vt -0.200258 -0.377402
vt -0.200307 0.313335
vt 0.221553 0.311846
vt 0.200307 0.313335
vt 0.221066 0.313478
vt 0.201604 0.312181
vt 0.167952 0.184289
vt 0.168841 0.185255
vt 0.168577 0.183309
vt -0.023634 0.223227
vt 0.150805 -0.248728
vt 0.15148 -0.247626
vt 0.151706 -0.249686
vt 0.200258 -0.241654
vt -0.000977 -0.091977
vt -0.000977 -0.093947
vt -0.023633 -0.091977
vt -0.023633 -0.375984
vt 0.256984 -0.375984
vt -0.201618 -0.375984
vt 0.221567 0.310958
vt 0.128179 -0.230003
vt 0.129448 -0.231224
vt 0.128179 -0.375658
vt 0.222363 0.312181
vt 0.169828 0.183709
vt 0.000977 0.065273
vt 0.023633 0.065273
vt 0.000977 0.063439
vt -0.201618 -0.231224
vt -0.221066 0.313478
vt 0.152732 -0.248011
vt -0.000977 0.255616
vt -0.000977 -0.200258
vt -0.023633 0.255616
vt -0.023633 -0.093947
vt -0.023633 -0.200258
vt 0.023633 -0.133714
vt 0.000977 -0.133714
vt 0.023633 -0.13175
vt 0.141217 0.310743
vt 0.142486 0.311078
vt 0.141226 0.309854
vt 0.221567 -0.230003
vt 0.200808 -0.179602
vt 0.221567 -0.179602
vt 0.201618 -0.181166
vt 0.129448 -0.375984
vt -0.201604 0.312181
vt -0.201618 0.310148
vt -0.222363 0.312181
vt 0.023633 0.063439
vt 0.000977 -0.13175
vt 0.023633 -0.375984
vt 0.000977 -0.375984
vt 0.023633 -0.231224
vt 0.142495 0.309044
vt 0.141431 0.310958
vt 0.1427 0.310148
vt 0.141431 -0.230003
vt 0.222378 -0.181166
vt 0.000977 -0.231224
vt -0.222377 0.310148
vt 0.000977 0.310637
vt 0.023633 0.310637
vt 0.000977 0.308604
vt 0.1427 -0.231225
vt -0.000977 -0.201618
vt -0.000977 -0.222378
vt -0.023633 -0.201618
vt -0.222378 -0.231224
vt 0.023633 0.308604
vt 0.000977 0.310148
vt 0.023633 0.310148
vt 0.000977 -0.231225
vt -0.023633 -0.222378
vt 0.023633 -0.231225
vn -0.6383180294890171 -0.5587760258143354 -0.5294520244596254
vn 0.6383180294890171 0.5587760258143354 0.5294520244596254
vn -1 0 0
vn 1 0 0
vn -0.6382702659008951 -0.7698123207008004 0.00024200010081612409
vn 0.6382702659008951 0.7698123207008004 -0.00024200010081612409
vn -0.6383178912775569 0 -0.7697728688872926
vn 0.6383178912775569 0 0.7697728688872926
vn 0 -0.7258981823427426 -0.6878021727731763
vn 0 0.7258981823427426 0.6878021727731763
vn -0.5636521687439571 -0.8260122472882796 0
vn 0.5636521687439571 0.8260122472882796 0
vn 0 -0.9999999503875037 0.00031499998437184163
vn 0 0.9999999503875037 -0.00031499998437184163
vn -0.6383179603310933 0.5346879667712828 -0.553767965585537
vn 0.6383179603310933 -0.5346879667712828 0.553767965585537
vn -0.6372257974791595 -0.7706587550719708 -0.0053259983073103
vn 0.6372257974791595 0.7706587550719708 0.0053259983073103
vn 0 -0.9999761187486712 -0.006911000820691985
vn 0 0.9999761187486712 0.006911000820691985
vn -0.6383172987268207 0.7697733602470889 0
vn 0.6383172987268207 -0.7697733602470889 0
vn 0 0 -1
vn 0 0 1
vn -0.6382360851161274 -0.5444340726065495 0.5442850725866785
vn 0.6382360851161274 0.5444340726065495 -0.5442850725866785
vn -0.6383169256498064 0.5328979379288511 0.5554919352971366
vn 0.6383169256498064 -0.5328979379288511 -0.5554919352971366
vn 0 0.6946051677798148 -0.7193911737668007
vn 0 -0.6946051677798148 0.7193911737668007
vn -0.6383183826375158 0 0.7697724614371612
vn 0.6383183826375158 0 -0.7697724614371612
vn 0 -0.7072417682552988 0.7069717683437706
vn 0 0.7072417682552988 -0.7069717683437706
vn 0 1 0
vn 0 -1 0
vn 0 0.6922713124878797 0.7216373257435543
vn 0 -0.6922713124878797 -0.7216373257435543
vn -0.6373799198797556 -0.0064259991922360595 0.7705229031433509
vn 0.6373799198797556 0.0064259991922360595 -0.7705229031433509
vn -0.7808689070039848 0.6246949256032116 0
vn 0.7808689070039848 -0.6246949256032116 0
vn 1 9.999999999995e-7 0
vn -1 -9.999999999995e-7 0
vn 0 9.999999997774554e-7 1
vn 0 -9.999999997774554e-7 -1
vn -0.6383178912775569 0 0.7697728688872926
vn 0.6383178912775569 0 -0.7697728688872926
vn 0 -0.006911000820691985 0.9999761187486712
vn 0 0.006911000820691985 -0.9999761187486712
usemtl material_0_0
f 1/1/1 2/2/1 3/3/1
f 3/3/2 2/2/2 1/1/2
f 2/4/3 1/5/3 4/6/3
f 4/6/4 1/5/4 2/4/4
f 5/7/1 3/3/1 2/2/1
f 2/2/2 3/3/2 5/7/2
f 6/8/5 1/9/5 3/10/5
f 3/10/6 1/9/6 6/8/6
f 4/6/3 1/5/3 7/11/3
f 7/11/4 1/5/4 4/6/4
f 2/12/7 4/13/7 5/14/7
f 5/14/8 4/13/8 2/12/8
f 3/15/9 5/16/9 8/17/9
f 8/17/10 5/16/10 3/15/10
f 9/18/11 1/19/11 6/20/11
f 6/20/12 1/19/12 9/18/12
f 6/21/13 3/22/13 10/23/13
f 10/23/14 3/22/14 6/21/14
f 7/11/3 1/5/3 11/24/3
f 11/24/4 1/5/4 7/11/4
f 7/25/15 12/26/15 4/27/15
f 4/27/16 12/26/16 7/25/16
f 13/28/7 5/14/7 4/13/7
f 4/13/8 5/14/8 13/28/8
f 14/29/9 8/17/9 5/16/9
f 5/16/10 8/17/10 14/29/10
f 8/30/13 10/23/13 3/22/13
f 3/22/14 10/23/14 8/30/14
f 1/5/3 9/31/3 15/32/3
f 15/32/4 9/31/4 1/5/4
f 9/33/17 6/34/17 16/35/17
f 16/35/18 6/34/18 9/33/18
f 6/36/19 10/37/19 16/38/19
f 16/38/20 10/37/20 6/36/20
f 11/24/3 1/5/3 17/39/3
f 17/39/4 1/5/4 11/24/4
f 7/40/21 11/41/21 12/42/21
f 12/42/22 11/41/22 7/40/22
f 13/43/15 4/27/15 12/26/15
f 12/26/16 4/27/16 13/43/16
f 5/44/23 13/45/23 14/46/23
f 14/46/24 13/45/24 5/44/24
f 14/47/4 18/48/4 8/49/4
f 8/49/3 18/48/3 14/47/3
f 8/49/4 19/50/4 10/51/4
f 10/51/3 19/50/3 8/49/3
f 9/31/3 20/52/3 15/32/3
f 15/32/4 20/52/4 9/31/4
f 17/39/3 1/5/3 15/32/3
f 15/32/4 1/5/4 17/39/4
f 6/53/3 16/54/3 21/55/3
f 21/55/4 16/54/4 6/53/4
f 9/56/25 16/57/25 20/58/25
f 20/58/26 16/57/26 9/56/26
f 22/59/19 16/38/19 10/37/19
f 10/37/20 16/38/20 22/59/20
f 11/60/27 17/61/27 23/62/27
f 23/62/28 17/61/28 11/60/28
f 23/63/21 12/42/21 11/41/21
f 11/41/22 12/42/22 23/63/22
f 13/64/29 12/65/29 24/66/29
f 24/66/30 12/65/30 13/64/30
f 24/67/23 14/46/23 13/45/23
f 13/45/24 14/46/24 24/67/24
f 24/68/4 18/48/4 14/47/4
f 14/47/3 18/48/3 24/68/3
f 18/48/4 19/50/4 8/49/4
f 8/49/3 19/50/3 18/48/3
f 19/50/4 25/69/4 10/51/4
f 10/51/3 25/69/3 19/50/3
f 20/52/3 26/70/3 15/32/3
f 15/32/4 26/70/4 20/52/4
f 15/71/31 27/72/31 17/73/31
f 17/73/32 27/72/32 15/71/32
f 28/74/3 21/55/3 16/54/3
f 16/54/4 21/55/4 28/74/4
f 28/75/25 20/58/25 16/57/25
f 16/57/26 20/58/26 28/75/26
f 16/76/33 22/77/33 28/78/33
f 28/78/34 22/77/34 16/76/34
f 10/51/4 29/79/4 22/80/4
f 22/80/3 29/79/3 10/51/3
f 30/81/27 23/62/27 17/61/27
f 17/61/28 23/62/28 30/81/28
f 12/82/35 23/83/35 18/84/35
f 18/84/36 23/83/36 12/82/36
f 18/85/29 24/66/29 12/65/29
f 12/65/30 24/66/30 18/85/30
f 19/86/35 18/84/35 23/83/35
f 23/83/36 18/84/36 19/86/36
f 19/87/37 23/88/37 25/89/37
f 25/89/38 23/88/38 19/87/38
f 25/69/4 29/79/4 10/51/4
f 10/51/3 29/79/3 25/69/3
f 20/90/39 28/91/39 26/92/39
f 26/92/40 28/91/40 20/90/40
f 31/93/3 15/32/3 26/70/3
f 26/70/4 15/32/4 31/93/4
f 15/94/41 31/95/41 27/96/41
f 27/96/42 31/95/42 15/94/42
f 30/97/31 17/73/31 27/72/31
f 27/72/32 17/73/32 30/97/32
f 21/98/43 32/99/43 28/100/43
f 28/100/44 32/99/44 21/98/44
f 33/101/33 28/78/33 22/77/33
f 22/77/34 28/78/34 33/101/34
f 22/80/4 29/79/4 33/100/4
f 33/100/3 29/79/3 22/80/3
f 30/102/37 25/89/37 23/88/37
f 23/88/38 25/89/38 30/102/38
f 25/103/45 30/104/45 29/105/45
f 29/105/46 30/104/46 25/103/46
f 34/106/39 26/92/39 28/91/39
f 28/91/40 26/92/40 34/106/40
f 26/107/47 34/108/47 31/109/47
f 31/109/48 34/108/48 26/107/48
f 35/110/41 27/96/41 31/95/41
f 31/95/42 27/96/42 35/110/42
f 27/111/45 29/105/45 30/104/45
f 30/104/46 29/105/46 27/111/46
f 34/112/43 28/100/43 32/99/43
f 32/99/44 28/100/44 34/112/44
f 28/113/49 33/114/49 34/115/49
f 34/115/50 33/114/50 28/113/50
f 33/100/4 29/79/4 36/112/4
f 36/112/3 29/79/3 33/100/3
f 35/116/47 31/109/47 34/108/47
f 34/108/48 31/109/48 35/116/48
f 27/117/35 35/118/35 29/119/35
f 29/119/36 35/118/36 27/117/36
f 35/120/4 34/112/4 27/79/4
f 27/79/3 34/112/3 35/120/3
f 32/99/4 27/79/4 34/112/4
f 34/112/3 27/79/3 32/99/3
f 36/121/49 34/115/49 33/114/49
f 33/114/50 34/115/50 36/121/50
f 37/120/4 36/112/4 29/79/4
f 29/79/3 36/112/3 37/120/3
f 34/122/24 36/123/24 35/124/24
f 35/124/23 36/123/23 34/122/23
f 37/125/35 29/119/35 35/118/35
f 35/118/36 29/119/36 37/125/36
f 37/126/24 35/124/24 36/123/24
f 36/123/23 35/124/23 37/126/23
