# SSTK version 0.8.0
# 131
mtllib original-131.mtl
o mesh123/mesh123-geometry#mesh123-geometry
v -0.102532 -0.039467 -0.255434
v -0.110668 -0.016275 -0.296162
v -0.110668 -0.039467 -0.255434
v -0.102532 -0.016275 -0.296162
v -0.110668 -0.046380 -0.257264
v -0.102532 -0.039467 0.233467
v -0.102532 -0.046380 -0.257264
v -0.102532 -0.022282 -0.299583
v -0.110668 -0.022282 -0.299583
v -0.110668 -0.046380 0.231475
v -0.110668 -0.039467 0.233467
v -0.102532 -0.046380 0.231475
v -0.102532 -0.044002 0.240684
v -0.102532 -0.047823 0.233771
v -0.110668 -0.047823 0.233771
v -0.110668 -0.044002 0.240684
v -0.102532 -0.048114 0.236334
v -0.110668 -0.058890 0.234760
v -0.110668 -0.053651 0.240684
v -0.102532 -0.058890 0.234760
v -0.102532 -0.050537 0.233771
v -0.110668 -0.050537 0.233771
v -0.102532 -0.053651 0.240684
v -0.110668 -0.053711 0.230181
v -0.102532 -0.053711 0.230181
vn 0 0.8689898483612846 0.49482991365218776
vn 0 -0.8689898483612846 -0.49482991365218776
vn -1 0 0
vn 1 0 0
vn 0 1 0
vn 0 -1 0
vn 0 0.4948139612568108 -0.8689989319586897
vn 0 -0.4948139612568108 0.8689989319586897
vn 0 -0.8689880686357218 -0.4948330390836471
vn 0 0.8689880686357218 0.4948330390836471
vn 0 0.846707935384333 0.5320579593965307
vn 0 -0.846707935384333 -0.5320579593965307
vn 0 -0.8467445363969088 -0.5319997087235895
vn 0 0.8467445363969088 0.5319997087235895
vn 0 0.000012999999998679455 1
vn 0 -0.000012999999998679455 -1
vn 0 0 -1
vn 0 0 1
vn 0 -0.7491182876539866 0.662436254368946
vn 0 0.7491182876539866 -0.662436254368946
vn 0 0.7491210928423285 -0.6624330820986489
vn 0 -0.7491210928423285 0.6624330820986489
vn 0 -0.6624299098181228 -0.7491238980157778
vn 0 0.6624299098181228 0.7491238980157778
usemtl material_0_0
f 1//1 2//1 3//1
f 2//1 1//1 4//1
f 3//2 2//2 1//2
f 4//2 1//2 2//2
f 2//3 5//3 3//3
f 3//4 5//4 2//4
f 3//5 6//5 1//5
f 1//6 6//6 3//6
f 7//4 4//4 1//4
f 1//3 4//3 7//3
f 4//7 8//7 2//7
f 2//8 8//8 4//8
f 5//3 2//3 9//3
f 9//4 2//4 5//4
f 10//3 3//3 5//3
f 5//4 3//4 10//4
f 6//5 3//5 11//5
f 11//6 3//6 6//6
f 12//4 1//4 6//4
f 6//3 1//3 12//3
f 4//4 7//4 8//4
f 8//3 7//3 4//3
f 1//4 12//4 7//4
f 7//3 12//3 1//3
f 2//7 8//7 9//7
f 9//8 8//8 2//8
f 8//9 5//9 9//9
f 9//10 5//10 8//10
f 10//3 11//3 3//3
f 3//4 11//4 10//4
f 7//6 10//6 5//6
f 5//5 10//5 7//5
f 11//11 13//11 6//11
f 6//12 13//12 11//12
f 6//4 14//4 12//4
f 12//3 14//3 6//3
f 7//9 5//9 8//9
f 8//10 5//10 7//10
f 7//6 12//6 10//6
f 10//5 12//5 7//5
f 15//3 11//3 10//3
f 10//4 11//4 15//4
f 13//11 11//11 16//11
f 16//12 11//12 13//12
f 17//4 6//4 13//4
f 13//3 6//3 17//3
f 6//4 17//4 14//4
f 14//3 17//3 6//3
f 14//13 15//13 12//13
f 12//14 15//14 14//14
f 12//13 15//13 10//13
f 10//14 15//14 12//14
f 18//3 11//3 15//3
f 15//4 11//4 18//4
f 18//3 16//3 11//3
f 11//4 16//4 18//4
f 19//15 13//15 16//15
f 16//16 13//16 19//16
f 13//4 20//4 17//4
f 17//3 20//3 13//3
f 14//4 17//4 21//4
f 21//3 17//3 14//3
f 14//17 22//17 15//17
f 15//18 22//18 14//18
f 22//3 18//3 15//3
f 15//4 18//4 22//4
f 16//3 18//3 19//3
f 19//4 18//4 16//4
f 13//15 19//15 23//15
f 23//16 19//16 13//16
f 20//4 13//4 23//4
f 23//3 13//3 20//3
f 17//4 20//4 21//4
f 21//3 20//3 17//3
f 14//17 21//17 22//17
f 22//18 21//18 14//18
f 18//3 22//3 24//3
f 24//4 22//4 18//4
f 20//19 19//19 18//19
f 18//20 19//20 20//20
f 23//19 19//19 20//19
f 20//20 19//20 23//20
f 21//4 20//4 25//4
f 25//3 20//3 21//3
f 21//21 24//21 22//21
f 22//22 24//22 21//22
f 25//23 18//23 24//23
f 24//24 18//24 25//24
f 25//23 20//23 18//23
f 18//24 20//24 25//24
f 25//21 24//21 21//21
f 21//22 24//22 25//22
