# SSTK version 0.8.0
# 52
mtllib original-52.mtl
o Group14/mesh49/mesh49-geometry#mesh49-geometry
v -0.717268 -0.592435 0.367438
v 0.696528 -0.581694 0.367438
v -0.717268 -0.581694 0.367438
v 0.696528 -0.592435 0.367438
v 0.696528 -0.581694 -0.385766
v -0.717269 -0.592435 -0.385765
v 0.696528 -0.592435 -0.385766
v -0.717269 -0.581694 -0.385765
vt 0.096845 -0.052083
vt 1.364173 -0.000001
vt 0.096845 0
vt 1.364173 -0.052084
vt -1.364172 0.449542
vt -0.096845 1.258193
vt -1.364172 1.258193
vt 0 1.258193
vt 0.052083 0.449542
vt 0.052083 1.258193
vt 0.096845 1.258193
vt 1.364172 0.449542
vt 1.364172 1.258193
vt -0.052084 0.449542
vt -0.000001 1.258193
vt -0.052084 1.258193
vt -0.096845 0.449542
vt -0.000001 0.449542
vt 0 0.449542
vt 0.096845 0.449542
vt -1.364172 -0.000001
vt -0.096845 -0.052083
vt -0.096845 0
vt -1.364172 -0.052084
vn 0 0 1
vn 0 0 -1
vn 0.000001999999999996 1 0
vn -0.000001999999999996 -1 0
vn -1 0 9.999999999995e-7
vn 1 0 -9.999999999995e-7
usemtl material_0_0
f 1/1/1 2/2/1 3/3/1
f 2/2/1 1/1/1 4/4/1
f 3/3/2 2/2/2 1/1/2
f 4/4/2 1/1/2 2/2/2
f 5/5/3 3/6/3 2/7/3
f 2/7/4 3/6/4 5/5/4
f 3/8/5 6/9/5 1/10/5
f 1/10/6 6/9/6 3/8/6
f 1/11/4 7/12/4 4/13/4
f 4/13/3 7/12/3 1/11/3
f 7/14/6 2/15/6 4/16/6
f 4/16/5 2/15/5 7/14/5
f 3/6/3 5/5/3 8/17/3
f 8/17/4 5/5/4 3/6/4
f 2/15/6 7/14/6 5/18/6
f 5/18/5 7/14/5 2/15/5
f 6/9/5 3/8/5 8/19/5
f 8/19/6 3/8/6 6/9/6
f 7/12/4 1/11/4 6/20/4
f 6/20/3 1/11/3 7/12/3
f 5/21/2 6/22/2 8/23/2
f 8/23/1 6/22/1 5/21/1
f 6/22/2 5/21/2 7/24/2
f 7/24/1 5/21/1 6/22/1
