# SSTK version 0.8.0
# 2
mtllib original-2.mtl
o Box039_1/Box039/mesh2/mesh2-geometry#mesh2-geometry
v -0.637164 0.500837 -0.500224
v -0.637164 0.499438 -0.498825
v -0.638563 0.500837 -0.498825
v 0.643046 0.499438 -0.498825
v -0.637164 0.499438 0.477772
v -0.638563 0.554004 -0.498825
v 0.643046 0.500837 -0.500224
v -0.638563 0.500837 0.477772
v -0.637164 0.554004 -0.500224
v 0.644445 0.500837 -0.498825
v 0.643046 0.499438 0.477772
v -0.637164 0.500837 0.479171
v -0.637164 0.555403 -0.498825
v -0.638563 0.554004 0.477772
v 0.643046 0.554004 -0.500224
v 0.644445 0.500837 0.477772
v 0.643046 0.500837 0.479171
v 0.643046 0.555403 -0.498825
v 0.644445 0.554004 0.477772
v 0.644445 0.554004 -0.498825
v 0.643046 0.554004 0.479171
v -0.637164 0.554004 0.479171
v -0.637164 0.555403 0.477772
v -0.558936 0.555403 -0.433490
v -0.558936 0.555403 0.395909
v 0.564818 0.555403 -0.433490
v 0.643046 0.555403 0.477772
v -0.558936 0.521804 -0.433490
v 0.564818 0.555403 0.395909
v -0.558936 0.521804 0.395909
v 0.564818 0.521804 -0.433490
v 0.564818 0.521804 0.395909
vt 0.998411 0.912
vt 0.998411 0.91101
vt 0.9995 0.912
vt 0.001843 0.91101
vt 0.998072 0.91101
vt 0.001927 0.912
vt 0.001927 0.91101
vt 0.9995 0.949623
vt 0.001843 0.912
vt 0.001843 0.998072
vt 0.998411 0.001928
vt 0.998411 0.998073
vt 0.998072 0.912
vt 0.998411 0.949623
vt 0.001927 0.949623
vt 0.000754 0.912
vt 0.001844 0.001927
vt 0.001589 0.91101
vt 0.001589 0.912
vt 0.0005 0.912
vt 0.998411 0.950613
vt 0.998072 0.949623
vt 0.001843 0.949623
vt 0.998157 0.912
vt 0.998157 0.91101
vt 0.0005 0.949623
vt 0.001927 0.950613
vt 0.001843 0.950613
vt 0.000754 0.949623
vt 0.999246 0.912
vt 0.998156 0.949623
vt 0.001589 0.949623
vt 0.998072 0.950613
vt 0.001589 0.998073
vt 0.062485 0.93143
vt 0.998157 0.998073
vt 0.998157 0.949623
vt 0.999246 0.949623
vt 0.001589 0.950613
vt 0.001589 0.001928
vt 0.062485 0.085429
vt 0.937261 0.931429
vt 0.998157 0.950613
vt 0.998156 0.950613
vt 0.998156 0.001927
vt 0.085429 0.950613
vt 0.931429 0.926837
vt 0.931429 0.950613
vt 0.062485 0.926837
vt 0.937261 0.950613
vt 0.062485 0.950613
vt 0.937261 0.085429
vt 0.085429 0.926837
vt 0.937261 0.926837
vt 0.068571 0.950613
vt 0.914571 0.926837
vt 0.914571 0.950613
vt 0.062739 0.926837
vt 0.937515 0.950613
vt 0.062739 0.950613
vt 0.937515 0.926837
vt 0.062485 0.931429
vt 0.068571 0.926837
vn -0.5773502691896257 -0.5773502691896256 -0.5773502691896258
vn 0 -0.7071067811865474 -0.7071067811865477
vn -0.7071067811865475 -0.7071067811865475 0
vn -0.7071067811865475 0 -0.7071067811865475
vn 0 -1 0
vn -1 0 0
vn 0 0 -1
vn 0.5773502691896257 -0.5773502691896256 -0.5773502691896258
vn -0.5773502691896257 -0.5773502691896258 0.5773502691896256
vn -0.5773502691896257 0.5773502691896258 -0.5773502691896256
vn 0.7071067811865475 -0.7071067811865475 0
vn 0.7071067811865475 0 -0.7071067811865475
vn 0 -0.7071067811865477 0.7071067811865474
vn -0.7071067811865475 0 0.7071067811865475
vn -0.7071067811865475 0.7071067811865475 0
vn 0 0.7071067811865477 -0.7071067811865474
vn 1 0 0
vn 0.5773502691896257 -0.5773502691896258 0.5773502691896256
vn 0 0 1
vn 0 1 0
vn 0.5773502691896257 0.5773502691896258 -0.5773502691896256
vn 0.7071067811865475 0 0.7071067811865475
vn -0.5773502691896257 0.5773502691896256 0.5773502691896258
vn 0.7071067811865475 0.7071067811865475 0
vn 0.5773502691896257 0.5773502691896256 0.5773502691896258
vn 0 0.7071067811865474 0.7071067811865477
usemtl material_0_0
f 1/1/1 2/2/1 3/3/1
f 1/1/2 4/4/2 2/2/2
f 5/5/3 3/6/3 2/7/3
f 6/8/4 1/1/4 3/3/4
f 4/4/2 1/1/2 7/9/2
f 4/10/5 5/11/5 2/12/5
f 3/6/3 5/5/3 8/13/3
f 1/1/4 6/8/4 9/14/4
f 8/13/6 6/15/6 3/6/6
f 9/14/7 7/9/7 1/1/7
f 10/16/8 4/4/8 7/9/8
f 5/11/5 4/10/5 11/17/5
f 5/18/9 12/19/9 8/20/9
f 9/14/10 6/8/10 13/21/10
f 6/15/6 8/13/6 14/22/6
f 7/9/7 9/14/7 15/23/7
f 16/6/11 4/5/11 10/13/11
f 15/23/12 10/16/12 7/9/12
f 4/5/11 16/6/11 11/7/11
f 17/24/13 5/18/13 11/25/13
f 5/18/13 17/24/13 12/19/13
f 12/19/14 14/26/14 8/20/14
f 14/22/15 13/27/15 6/15/15
f 18/28/16 9/14/16 13/21/16
f 9/14/16 18/28/16 15/23/16
f 10/13/17 19/15/17 16/6/17
f 10/16/12 15/23/12 20/29/12
f 16/30/18 17/24/18 11/25/18
f 21/31/19 12/19/19 17/24/19
f 14/26/14 12/19/14 22/32/14
f 13/27/15 14/22/15 23/33/15
f 13/34/20 24/35/20 18/36/20
f 20/29/21 15/23/21 18/28/21
f 19/15/17 10/13/17 20/22/17
f 21/37/22 16/30/22 19/38/22
f 16/30/22 21/37/22 17/24/22
f 12/19/19 21/31/19 22/32/19
f 14/26/23 22/32/23 23/39/23
f 23/40/20 25/41/20 13/34/20
f 24/35/20 13/34/20 25/41/20
f 18/36/20 24/35/20 26/42/20
f 27/27/24 20/22/24 18/33/24
f 20/22/24 27/27/24 19/15/24
f 27/43/25 21/37/25 19/38/25
f 27/44/26 22/32/26 21/31/26
f 22/32/26 27/44/26 23/39/26
f 25/41/20 23/40/20 27/45/20
f 25/46/17 28/47/17 24/48/17
f 28/49/19 26/50/19 24/51/19
f 18/36/20 26/42/20 29/52/20
f 18/36/20 29/52/20 27/45/20
f 25/41/20 27/45/20 29/52/20
f 28/47/17 25/46/17 30/53/17
f 26/50/19 28/49/19 31/54/19
f 26/55/6 32/56/6 29/57/6
f 32/58/7 25/59/7 29/60/7
f 25/59/7 32/58/7 30/61/7
f 32/52/20 28/62/20 30/41/20
f 28/62/20 32/52/20 31/42/20
f 32/56/6 26/55/6 31/63/6
usemtl material_1_0
f 3//25 2//25 1//25
f 2//26 4//26 1//26
f 2//24 3//24 5//24
f 3//22 1//22 6//22
f 7//26 1//26 4//26
f 2//20 5//20 4//20
f 8//24 5//24 3//24
f 9//22 6//22 1//22
f 3//17 6//17 8//17
f 1//19 7//19 9//19
f 7//23 4//23 10//23
f 11//20 4//20 5//20
f 8//21 12//21 5//21
f 13//18 6//18 9//18
f 14//17 8//17 6//17
f 15//19 9//19 7//19
f 10//15 4//15 16//15
f 7//14 10//14 15//14
f 11//15 16//15 4//15
f 11//16 5//16 17//16
f 12//16 17//16 5//16
f 8//12 14//12 12//12
f 6//11 13//11 14//11
f 13//13 9//13 18//13
f 15//13 18//13 9//13
f 16//6 19//6 10//6
f 20//14 15//14 10//14
f 11//10 17//10 16//10
f 17//7 12//7 21//7
f 22//12 12//12 14//12
f 23//11 14//11 13//11
f 18//5 24//5 13//5
f 18//9 15//9 20//9
f 20//6 10//6 19//6
f 19//4 16//4 21//4
f 17//4 21//4 16//4
f 22//7 21//7 12//7
f 23//8 22//8 14//8
f 13//5 25//5 23//5
f 25//5 13//5 24//5
f 26//5 24//5 18//5
f 18//3 20//3 27//3
f 19//3 27//3 20//3
f 19//1 21//1 27//1
f 21//2 22//2 27//2
f 23//2 27//2 22//2
f 27//5 23//5 25//5
f 24//6 28//6 25//6
f 24//7 26//7 28//7
f 29//5 26//5 18//5
f 27//5 29//5 18//5
f 29//5 27//5 25//5
f 30//6 25//6 28//6
f 31//7 28//7 26//7
f 29//17 32//17 26//17
f 29//19 25//19 32//19
f 30//19 32//19 25//19
f 30//5 28//5 32//5
f 31//5 32//5 28//5
f 31//17 26//17 32//17
