# SSTK version 0.8.0
# 29
mtllib original-29.mtl
o Group_20/mesh29/mesh29-geometry#mesh29-geometry
v 0.618146 -0.530609 0.425831
v 0.509703 -0.530609 0.502814
v 0.509703 -0.530609 0.425831
v 0.522104 -0.530609 0.501522
v 0.509703 0.228488 0.425831
v 0.534501 -0.530609 0.500200
v 0.522104 0.228488 0.501522
v 0.509703 0.228488 0.502814
v 0.618146 0.228488 0.425831
v 0.546895 -0.530609 0.498847
v 0.534501 0.228488 0.500200
v 0.618146 0.228488 0.446130
v 0.559285 -0.530609 0.497465
v 0.546895 0.228488 0.498847
v 0.618146 -0.530609 0.446130
v 0.617584 0.228488 0.453606
v 0.571672 -0.530609 0.496052
v 0.559285 0.228488 0.497465
v 0.617584 -0.530609 0.453606
v 0.615913 0.228488 0.460914
v 0.579089 -0.530609 0.494958
v 0.571672 0.228488 0.496052
v 0.615913 -0.530609 0.460914
v 0.613168 0.228488 0.467890
v 0.586259 -0.530609 0.492768
v 0.579089 0.228488 0.494958
v 0.613168 -0.530609 0.467890
v 0.609412 0.228488 0.474378
v 0.593021 -0.530609 0.489532
v 0.586259 0.228488 0.492768
v 0.609412 -0.530609 0.474378
v 0.604729 0.228488 0.480233
v 0.599224 -0.530609 0.485322
v 0.593021 0.228488 0.489532
v 0.604729 -0.530609 0.480233
v 0.599224 0.228488 0.485322
vn 0 -1 0
vn -1 0 0
vn 0 0 -1
vn 0.10364404727558464 0 0.9946144536775726
vn 0.10605997172441531 0 0.99435973490373
vn 0 1 0
vn 0.9992976409858987 0 0.037472986537213704
vn 1 0 0
vn 0.10847699558878307 0 0.9940989595749666
vn 0.11089205101656514 0 0.9938324572186901
vn 0.9971915780319912 0 0.07489296830856036
vn 0.12965502142510507 0 0.9915591638521907
vn 0.11330700284122977 0 0.9935600249140146
vn 0.9553798620431581 0 0.2953799573471373
vn 0.9748186896363001 0 0.2229989290013893
vn 0.1459680450643566 0 0.9892893054208614
vn 0.9005425908507242 0 0.43476780246916324
vn 0.3629029736282048 0 0.9318269322850712
vn 0.292096915769485 0 0.9563887242110053
vn 0.865452369381641 0 0.5009912138268531
vn 0.4980151791736923 0 0.8671683119859692
vn 0.731938118762459 0 0.6813711105575818
vn 0.7809129050531006 0 0.6246399240534718
vn 0.5615618430241129 0 0.827434768703468
vn 0.6788526024524919 0 0.7342745699964551
vn 0 0 1
vn -0.10364404727558464 0 -0.9946144536775726
vn -0.10605997172441531 0 -0.99435973490373
vn -0.9992976409858987 0 -0.037472986537213704
vn -0.10847699558878307 0 -0.9940989595749666
vn -0.11089205101656514 0 -0.9938324572186901
vn -0.9971915780319912 0 -0.07489296830856036
vn -0.12965502142510507 0 -0.9915591638521907
vn -0.11330700284122977 0 -0.9935600249140146
vn -0.9748186896363001 0 -0.2229989290013893
vn -0.9553798620431581 0 -0.2953799573471373
vn -0.1459680450643566 0 -0.9892893054208614
vn -0.9005425908507242 0 -0.43476780246916324
vn -0.3629029736282048 0 -0.9318269322850712
vn -0.292096915769485 0 -0.9563887242110053
vn -0.865452369381641 0 -0.5009912138268531
vn -0.4980151791736923 0 -0.8671683119859692
vn -0.7809129050531006 0 -0.6246399240534718
vn -0.731938118762459 0 -0.6813711105575818
vn -0.5615618430241129 0 -0.827434768703468
vn -0.6788526024524919 0 -0.7342745699964551
usemtl material_0_0
f 1//1 2//1 3//1
f 2//1 1//1 4//1
f 2//2 5//2 3//2
f 5//3 1//3 3//3
f 4//1 1//1 6//1
f 7//4 2//4 4//4
f 5//2 2//2 8//2
f 1//3 5//3 9//3
f 6//1 1//1 10//1
f 11//5 4//5 6//5
f 2//4 7//4 8//4
f 4//5 11//5 7//5
f 7//6 5//6 8//6
f 5//6 7//6 9//6
f 12//7 1//8 9//8
f 10//1 1//1 13//1
f 14//9 6//9 10//9
f 6//9 14//9 11//9
f 9//6 7//6 11//6
f 1//8 12//7 15//7
f 9//6 16//6 12//6
f 13//1 1//1 17//1
f 18//10 10//10 13//10
f 10//10 18//10 14//10
f 9//6 11//6 14//6
f 16//11 15//7 12//7
f 19//1 1//1 15//1
f 9//6 20//6 16//6
f 17//1 1//1 21//1
f 22//12 13//13 17//12
f 13//13 22//12 18//13
f 9//6 14//6 18//6
f 15//7 16//11 19//11
f 23//1 1//1 19//1
f 9//6 24//6 20//6
f 20//14 19//15 16//15
f 21//1 1//1 25//1
f 26//16 17//12 21//16
f 17//12 26//16 22//12
f 9//6 18//6 22//6
f 27//1 1//1 23//1
f 19//15 20//14 23//14
f 9//6 28//6 24//6
f 24//17 23//14 20//14
f 25//1 1//1 29//1
f 30//18 21//19 25//18
f 21//19 30//18 26//19
f 9//6 22//6 26//6
f 31//1 1//1 27//1
f 23//14 24//17 27//17
f 9//6 32//6 28//6
f 28//20 27//17 24//17
f 29//1 1//1 33//1
f 34//21 25//18 29//21
f 25//18 34//21 30//18
f 9//6 26//6 30//6
f 35//1 1//1 31//1
f 27//17 28//20 31//20
f 9//6 36//6 32//6
f 32//22 31//23 28//23
f 33//1 1//1 35//1
f 36//24 29//21 33//24
f 29//21 36//24 34//21
f 9//6 30//6 34//6
f 31//23 32//22 35//22
f 9//6 34//6 36//6
f 33//25 32//22 36//25
f 32//22 33//25 35//22
usemtl material_1_0
f 3//6 2//6 1//6
f 4//6 1//6 2//6
f 3//8 5//8 2//8
f 3//26 1//26 5//26
f 6//6 1//6 4//6
f 4//27 2//27 7//27
f 8//8 2//8 5//8
f 9//26 5//26 1//26
f 10//6 1//6 6//6
f 6//28 4//28 11//28
f 8//27 7//27 2//27
f 7//28 11//28 4//28
f 8//1 5//1 7//1
f 9//1 7//1 5//1
f 9//2 1//2 12//29
f 13//6 1//6 10//6
f 10//30 6//30 14//30
f 11//30 14//30 6//30
f 11//1 7//1 9//1
f 15//29 12//29 1//2
f 12//1 16//1 9//1
f 17//6 1//6 13//6
f 13//31 10//31 18//31
f 14//31 18//31 10//31
f 14//1 11//1 9//1
f 12//29 15//29 16//32
f 15//6 1//6 19//6
f 16//1 20//1 9//1
f 21//6 1//6 17//6
f 17//33 13//34 22//33
f 18//34 22//33 13//34
f 18//1 14//1 9//1
f 19//32 16//32 15//29
f 19//6 1//6 23//6
f 20//1 24//1 9//1
f 16//35 19//35 20//36
f 25//6 1//6 21//6
f 21//37 17//33 26//37
f 22//33 26//37 17//33
f 22//1 18//1 9//1
f 23//6 1//6 27//6
f 23//36 20//36 19//35
f 24//1 28//1 9//1
f 20//36 23//36 24//38
f 29//6 1//6 25//6
f 25//39 21//40 30//39
f 26//40 30//39 21//40
f 26//1 22//1 9//1
f 27//6 1//6 31//6
f 27//38 24//38 23//36
f 28//1 32//1 9//1
f 24//38 27//38 28//41
f 33//6 1//6 29//6
f 29//42 25//39 34//42
f 30//39 34//42 25//39
f 30//1 26//1 9//1
f 31//6 1//6 35//6
f 31//41 28//41 27//38
f 32//1 36//1 9//1
f 28//43 31//43 32//44
f 35//6 1//6 33//6
f 33//45 29//42 36//45
f 34//42 36//45 29//42
f 34//1 30//1 9//1
f 35//44 32//44 31//43
f 36//1 34//1 9//1
f 36//46 32//44 33//46
f 35//44 33//46 32//44
