mtllib new-17.mtl
v 0.492062 0.180720 0.277445
v 0.492062 0.116790 0.277445
v 0.492062 0.116790 -0.122782
v 0.486625 0.180720 0.277445
v 0.492062 0.116923 -0.122782
v 0.486625 0.116790 0.277445
v 0.487220 0.122349 0.277445
v 0.486625 0.180720 -0.122782
v 0.492062 0.180720 -0.122782
v 0.486625 0.122459 0.277445
v 0.486625 0.122349 -0.122782
v 0.492062 0.116923 -0.128441
v 0.487220 0.122349 -0.122782
v 0.486625 0.122349 0.277445
v 0.486625 0.122459 -0.122782
vn 1.000000 0.000000 0.000000
vn -1.000000 0.000000 0.000000
vn 0.000000 0.000000 -1.000000
vn 0.000000 0.000000 1.000000
vn 0.000000 1.000000 0.000000
vn 0.000000 -1.000000 0.000000
vt -0.005232 0.354018
vt -0.053152 0.354018
vt -0.053152 0.004242
vt -0.005232 0.304243
vt -0.053152 0.304243
vt -0.005232 0.349943
vt -0.053053 0.004242
vt -0.048985 0.350388
vt -0.354018 0.304243
vt -0.349943 0.004242
vt -0.349943 0.304243
vt -0.005232 0.004242
vt -0.048903 0.349943
vt -0.354018 0.004242
vt 0.005232 0.004242
vt 0.048985 0.004242
vt 0.005232 0.304243
vt 0.053152 0.304243
vt -0.053053 0.000000
vt 0.005232 0.354018
vt 0.048985 0.350388
vt 0.053053 0.354018
vt 0.048903 0.304243
vt -0.048985 0.349943
vt 0.048903 0.349943
vt 0.048903 0.004242
vt -0.350388 0.304243
vt -0.350388 0.004242
usemtl material-0
f 3/3/1 1/4/1 2/5/1
f 2/5/2 1/4/2 3/3/2
f 2/2/3 4/6/3 1/1/3
f 1/1/4 4/6/4 2/2/4
f 5/7/1 1/4/1 3/3/1
f 3/3/2 1/4/2 5/7/2
f 4/6/3 2/2/3 7/8/3
f 7/8/4 2/2/4 4/6/4
f 1/9/5 8/10/5 4/11/5
f 4/11/6 8/10/6 1/9/6
f 1/4/1 5/7/1 9/12/1
f 9/12/2 5/7/2 1/4/2
f 4/6/3 7/8/3 10/13/3
f 10/13/4 7/8/4 4/6/4
f 8/10/5 1/9/5 9/14/5
f 9/14/6 1/9/6 8/10/6
f 8/15/2 11/16/2 4/17/2
f 4/17/1 11/16/1 8/15/1
f 12/19/1 9/12/1 5/7/1
f 5/7/2 9/12/2 12/19/2
f 9/20/4 13/21/4 5/22/4
f 5/22/3 13/21/3 9/20/3
f 14/24/3 10/13/3 7/8/3
f 7/8/4 10/13/4 14/24/4
f 4/17/2 6/18/2 10/23/2
f 10/23/1 6/18/1 4/17/1
f 11/16/2 8/15/2 15/26/2
f 15/26/1 8/15/1 11/16/1
f 4/17/2 11/16/2 6/18/2
f 6/18/1 11/16/1 4/17/1
f 9/20/4 15/25/4 13/21/4
f 13/21/3 15/25/3 9/20/3
f 11/10/5 7/27/5 13/28/5
f 13/28/6 7/27/6 11/10/6