mtllib new-3.mtl
v 0.038114 -0.387783 0.277944
v 0.018592 -0.387779 0.289174
v 0.018592 -0.387779 0.277944
v 0.518941 -0.387779 0.289174
v 0.018592 -0.377872 0.277944
v 0.518941 -0.387779 0.277944
v 0.018592 -0.187760 0.289174
v 0.018592 -0.187760 0.277944
v 0.518941 -0.377881 0.277944
v 0.518941 -0.187760 0.289174
v 0.041597 -0.187760 0.277944
v 0.052769 -0.373110 0.277944
v 0.052769 -0.192522 0.277944
v 0.058206 -0.373110 0.277944
v 0.518941 -0.187760 0.277944
v 0.507934 -0.187760 0.277944
v 0.491148 -0.192522 0.277944
v 0.485711 -0.373110 0.277944
v 0.058206 -0.367674 0.277944
v 0.485711 -0.192522 0.277944
v 0.491148 -0.373110 0.277944
v 0.485711 -0.367674 0.277944
v 0.058206 -0.192522 0.277944
vn 0.000002 -1.000000 0.000088
vn -0.000002 1.000000 -0.000088
vn -1.000000 0.000000 -0.000001
vn 1.000000 0.000000 0.000001
vn 0.000000 0.000000 -1.000000
vn 0.000000 0.000000 1.000000
vn 0.000000 -0.000001 1.000000
vn 0.000000 0.000001 -1.000000
vn 1.000000 0.000000 0.000000
vn -1.000000 0.000000 0.000000
vn 0.000000 1.000000 0.000000
vn 0.000000 -1.000000 0.000000
vt 0.014633 0.304063
vt 0.000000 0.312481
vt 0.000000 0.304063
vt 0.375050 0.312481
vt 0.152013 0.312494
vt 0.144587 0.304077
vt 0.152013 0.304076
vt -0.152013 0.000000
vt -0.152013 0.375050
vt -0.152016 0.014634
vt 0.375050 0.304063
vt 0.152013 0.375050
vt 0.002083 0.000000
vt 0.152013 0.000000
vt 0.002083 0.304077
vt -0.144587 0.000000
vt -0.144594 0.375050
vt -0.152013 0.312494
vt -0.152013 0.304077
vt -0.144594 0.304077
vt 0.002083 0.375050
vt 0.002083 0.312494
vt -0.002083 0.017244
vt -0.002083 0.000000
vt -0.141018 0.025619
vt -0.002083 0.312494
vt -0.017244 0.304077
vt 0.000000 0.312494
vt -0.375050 0.312494
vt 0.000000 0.304077
vt -0.005653 0.025619
vt -0.141018 0.029694
vt -0.002083 0.304077
vt -0.366800 0.304077
vt -0.005653 0.354217
vt -0.141018 0.350142
vt -0.136943 0.029694
vt -0.002083 0.366800
vt -0.002083 0.375050
vt -0.375050 0.304077
vt -0.005653 0.350142
vt -0.141018 0.354217
vt -0.136943 0.350142
vt -0.005653 0.029694
usemtl material-0
f 1/1/1 2/2/1 3/3/1
f 2/2/1 1/1/1 4/4/1
f 3/3/2 2/2/2 1/1/2
f 4/4/2 1/1/2 2/2/2
f 2/5/3 5/6/3 3/7/3
f 3/7/4 5/6/4 2/5/4
f 3/8/5 6/9/5 1/10/5
f 1/10/6 6/9/6 3/8/6
f 4/4/1 1/1/1 6/11/1
f 6/11/2 1/1/2 4/4/2
f 4/12/7 7/13/7 2/14/7
f 2/14/8 7/13/8 4/12/8
f 5/6/3 2/5/3 8/15/3
f 8/15/4 2/5/4 5/6/4
f 5/16/5 9/17/5 3/8/5
f 3/8/6 9/17/6 5/16/6
f 3/8/5 9/17/5 6/9/5
f 6/9/6 9/17/6 3/8/6
f 4/18/9 6/19/9 9/20/9
f 9/20/10 6/19/10 4/18/10
f 7/13/7 4/12/7 10/21/7
f 10/21/8 4/12/8 7/13/8
f 8/15/3 2/5/3 7/22/3
f 7/22/4 2/5/4 8/15/4
f 11/23/5 5/16/5 8/24/5
f 8/24/6 5/16/6 11/23/6
f 12/25/5 9/17/5 5/16/5
f 5/16/6 9/17/6 12/25/6
f 9/20/9 10/26/9 4/18/9
f 4/18/10 10/26/10 9/20/10
f 11/27/11 7/28/11 10/29/11
f 10/29/12 7/28/12 11/27/12
f 7/28/11 11/27/11 8/30/11
f 8/30/12 11/27/12 7/28/12
f 5/16/5 11/23/5 13/31/5
f 13/31/6 11/23/6 5/16/6
f 14/32/5 9/17/5 12/25/5
f 12/25/6 9/17/6 14/32/6
f 5/16/5 13/31/5 12/25/5
f 12/25/6 13/31/6 5/16/6
f 10/26/9 9/20/9 15/33/9
f 15/33/10 9/20/10 10/26/10
f 11/27/11 10/29/11 16/34/11
f 16/34/12 10/29/12 11/27/12
f 13/31/5 11/23/5 17/35/5
f 17/35/6 11/23/6 13/31/6
f 18/36/5 9/17/5 14/32/5
f 14/32/6 9/17/6 18/36/6
f 12/25/5 19/37/5 14/32/5
f 14/32/6 19/37/6 12/25/6
f 13/31/5 19/37/5 12/25/5
f 12/25/6 19/37/6 13/31/6
f 9/17/5 16/38/5 15/39/5
f 15/39/6 16/38/6 9/17/6
f 16/34/11 10/29/11 15/40/11
f 15/40/12 10/29/12 16/34/12
f 16/38/5 17/35/5 11/23/5
f 11/23/6 17/35/6 16/38/6
f 13/31/5 17/35/5 20/41/5
f 20/41/6 17/35/6 13/31/6
f 21/42/5 9/17/5 18/36/5
f 18/36/6 9/17/6 21/42/6
f 14/32/5 22/43/5 18/36/5
f 18/36/6 22/43/6 14/32/6
f 14/32/5 22/43/5 18/36/5
f 18/36/6 22/43/6 14/32/6
f 19/37/5 13/31/5 23/44/5
f 23/44/6 13/31/6 19/37/6
f 16/38/5 9/17/5 17/35/5
f 17/35/6 9/17/6 16/38/6
f 21/42/5 20/41/5 17/35/5
f 17/35/6 20/41/6 21/42/6
f 13/31/5 20/41/5 23/44/5
f 23/44/6 20/41/6 13/31/6
f 17/35/5 9/17/5 21/42/5
f 21/42/6 9/17/6 17/35/6
f 22/43/5 21/42/5 18/36/5
f 18/36/6 21/42/6 22/43/6
f 23/44/5 22/43/5 19/37/5
f 19/37/6 22/43/6 23/44/6
f 20/41/5 21/42/5 22/43/5
f 22/43/6 21/42/6 20/41/6
f 22/43/5 23/44/5 20/41/5
f 20/41/6 23/44/6 22/43/6