mtllib new-14.mtl
v 0.053457 -0.019952 0.277944
v 0.058893 -0.014516 0.277944
v 0.486398 -0.019952 0.277944
v 0.053457 -0.019952 -0.122284
v 0.058893 -0.019952 0.277944
v 0.486398 -0.014516 -0.122284
v 0.058893 -0.014516 -0.122284
v 0.058893 -0.019952 -0.122284
v 0.486398 -0.014516 0.277944
v 0.486398 -0.019952 -0.122284
vn 0.000000 -1.000000 0.000000
vn 0.000000 1.000000 0.000000
vn -1.000000 0.000000 0.000000
vn 1.000000 0.000000 0.000000
vn 0.000000 0.000000 -1.000000
vn 0.000000 0.000000 1.000000
vt -0.349943 0.004242
vt -0.349943 0.304243
vt -0.029495 0.304243
vt 0.025420 0.004242
vt 0.029495 0.304243
vt 0.025420 0.304243
vt -0.029495 0.004242
vt -0.093612 0.004242
vt -0.093612 0.304243
vt -0.097688 0.004242
vt -0.097688 0.304243
vt 0.097688 0.029495
vt 0.093612 0.349943
vt 0.349943 0.004242
vt 0.349943 0.304243
vt 0.097688 0.349943
vt 0.029495 0.004242
usemtl material-0
f 4/4/1 5/5/1 1/6/1
f 1/6/2 5/5/2 4/4/2
f 8/10/4 2/9/4 5/11/4
f 5/11/3 2/9/3 8/10/3
f 5/5/1 10/14/1 3/15/1
f 3/15/2 10/14/2 5/5/2
f 9/13/6 5/12/6 3/16/6
f 3/16/5 5/12/5 9/13/5
f 5/5/1 4/4/1 8/17/1
f 8/17/2 4/4/2 5/5/2
f 2/9/4 8/10/4 7/8/4
f 7/8/3 8/10/3 2/9/3
f 9/2/2 7/7/2 2/3/2
f 2/3/1 7/7/1 9/2/1
f 10/14/1 5/5/1 8/17/1
f 8/17/2 5/5/2 10/14/2
f 7/7/2 9/2/2 6/1/2
f 6/1/1 9/2/1 7/7/1