# SSTK version 0.8.0
# 23
mtllib original-23.mtl
o Back_Wall2/mesh47/mesh47-geometry#mesh47-geometry
v 0.519163 -0.383773 -0.229719
v 0.031262 0.272802 -0.229719
v 0.520312 0.271945 -0.229719
v 0.030113 -0.382916 -0.229719
v 0.520312 0.271945 -0.218820
v 0.030113 -0.382916 -0.218820
v 0.031262 0.272802 -0.218820
v 0.519163 -0.383773 -0.218820
vt -0.376385 0.416667
vt 0.115126 0.050086
vt 0.115126 0.416667
vt -0.376385 0.050086
vt -0.050086 -0.000162
vt -0.416667 0.008008
vt -0.416667 -0.000162
vt 0.115126 0.008008
vt -0.376385 -0.000162
vt 0.115126 -0.000162
vt 0.416667 -0.000162
vt 0.050086 0.008008
vt 0.050086 -0.000162
vt 0.376385 -0.000162
vt -0.115126 0.008008
vt -0.115126 -0.000162
vt -0.050086 0.008008
vt -0.376385 0.008008
vt 0.416667 0.008008
vt 0.376385 0.008008
vt -0.115126 0.050086
vt 0.376385 0.416667
vt -0.115126 0.416667
vt 0.376385 0.050086
vn 0 0 -1
vn 0 0 1
vn 0.0017520008151115608 0.9999984652453942 0
vn -0.0017520008151115608 -0.9999984652453942 0
vn 0.9999984652453942 -0.0017520008151115608 0
vn -0.9999984652453942 0.0017520008151115608 0
usemtl material_0_0
f 1/1/1 2/2/1 3/3/1
f 2/2/1 1/1/1 4/4/1
f 3/3/2 2/2/2 1/1/2
f 4/4/2 1/1/2 2/2/2
f 2/5/3 5/6/3 3/7/3
f 3/7/4 5/6/4 2/5/4
f 5/8/5 1/9/5 3/10/5
f 3/10/6 1/9/6 5/8/6
f 1/11/4 6/12/4 4/13/4
f 4/13/3 6/12/3 1/11/3
f 4/14/6 7/15/6 2/16/6
f 2/16/5 7/15/5 4/14/5
f 5/6/3 2/5/3 7/17/3
f 7/17/4 2/5/4 5/6/4
f 1/9/5 5/8/5 8/18/5
f 8/18/6 5/8/6 1/9/6
f 6/12/4 1/11/4 8/19/4
f 8/19/3 1/11/3 6/12/3
f 7/15/6 4/14/6 6/20/6
f 6/20/5 4/14/5 7/15/5
f 7/21/2 8/22/2 5/23/2
f 5/23/1 8/22/1 7/21/1
f 8/22/2 7/21/2 6/24/2
f 6/24/1 7/21/1 8/22/1
