# SSTK version 0.8.0
# 6
mtllib original-6.mtl
o Group6/mesh9/mesh9-geometry#mesh9-geometry
v 0.520068 0.116310 -0.218524
v 0.520051 0.106595 -0.218687
v 0.520068 0.116310 -0.218687
v 0.520051 0.106595 -0.218524
v 0.520022 0.106595 -0.218524
v 0.520039 0.116310 -0.218524
v 0.057808 0.107405 -0.218687
v 0.030972 0.107452 -0.218524
v 0.520042 0.117807 0.192613
v 0.057808 0.107405 -0.218524
v 0.520042 0.117807 -0.218524
v 0.520022 0.106595 0.192613
v 0.030992 0.118664 -0.218524
v 0.030972 0.107452 0.192613
v 0.030992 0.118664 0.192613
vt -0.000934 0.000122
vt -0.008216 0
vt -0.000934 0
vt -0.008216 0.000122
vt -0.008216 0.375744
vt -0.000934 0.375766
vt -0.008216 0.375766
vt 0.375744 0.000122
vt 0.375766 0
vt 0.375766 0.000122
vt -0.000934 0.375744
vt 0.029279 0
vt -0.008216 0.009164
vt 0.000188 0.308301
vt 0.029279 0.000122
vt 0.000188 0.375744
vt -0.008216 0.029279
vt 0.000188 0.000122
vt -0.008216 0.308301
vt 0.375744 0.308301
vt 0.000188 0.009164
vt 0.009164 0.308301
vt 0.009164 0.000122
vt -0.375744 0.000122
vt -0.009164 0.308301
vt -0.375744 0.308301
vt -0.000188 0.375744
vt 0.008216 0.009164
vt 0.008216 0.375744
vt 0.008216 0.308301
vt -0.000188 0.000122
vt 0.008216 0.000122
vt -0.009164 0.000122
vt -0.000188 0.009164
vt -0.000188 0.308301
vn 0.9999984652453942 -0.0017520008151115608 0
vn -0.9999984652453942 0.0017520008151115608 0
vn 0 0 -1
vn 0 0 1
vn -0.0017520008151115608 -0.9999984652453942 0
vn 0.0017520008151115608 0.9999984652453942 0
usemtl material_0_0
f 1/1/1 2/2/1 3/3/1
f 2/2/1 1/1/1 4/4/1
f 3/3/2 2/2/2 1/1/2
f 4/4/2 1/1/2 2/2/2
f 5/5/3 1/6/3 4/7/3
f 4/7/4 1/6/4 5/5/4
f 5/8/5 2/9/5 4/10/5
f 4/10/6 2/9/6 5/8/6
f 1/6/3 5/5/3 6/11/3
f 6/11/4 5/5/4 1/6/4
f 5/8/5 7/12/5 2/9/5
f 2/9/6 7/12/6 5/8/6
f 8/13/3 6/11/3 5/5/3
f 5/5/4 6/11/4 8/13/4
f 6/1/1 9/14/1 5/4/1
f 5/4/2 9/14/2 6/1/2
f 7/12/5 5/8/5 10/15/5
f 10/15/6 5/8/6 7/12/6
f 8/13/3 11/16/3 6/11/3
f 6/11/4 11/16/4 8/13/4
f 8/13/3 5/5/3 10/17/3
f 10/17/4 5/5/4 8/13/4
f 9/14/1 6/1/1 11/18/1
f 11/18/2 6/1/2 9/14/2
f 5/4/1 9/14/1 12/19/1
f 12/19/2 9/14/2 5/4/2
f 12/20/5 10/15/5 5/8/5
f 5/8/6 10/15/6 12/20/6
f 11/16/3 8/13/3 13/21/3
f 13/21/4 8/13/4 11/16/4
f 10/15/5 14/22/5 8/23/5
f 8/23/6 14/22/6 10/15/6
f 11/24/6 15/25/6 9/26/6
f 9/26/5 15/25/5 11/24/5
f 9/27/4 14/28/4 12/29/4
f 12/29/3 14/28/3 9/27/3
f 14/22/5 10/15/5 12/20/5
f 12/20/6 10/15/6 14/22/6
f 14/30/2 13/31/2 8/32/2
f 8/32/1 13/31/1 14/30/1
f 15/25/6 11/24/6 13/33/6
f 13/33/5 11/24/5 15/25/5
f 14/28/4 9/27/4 15/34/4
f 15/34/3 9/27/3 14/28/3
f 13/31/2 14/30/2 15/35/2
f 15/35/1 14/30/1 13/31/1
