# SSTK version 0.8.0
# 1
mtllib original-1.mtl
o #ID2
v -0.584469 -0.597282 -0.166953
v -0.584469 -0.597282 0.157604
v -0.605833 -0.597282 -0.004674
v -0.521832 -0.597282 0.308823
v -0.521832 -0.597282 -0.318172
v -0.422191 -0.597282 0.438678
v -0.422191 -0.597282 -0.448027
v -0.292336 -0.597282 -0.547668
v -0.292336 -0.597282 0.538319
v -0.141117 -0.597282 0.600956
v -0.141117 -0.597282 -0.610305
v 0.021161 -0.597282 0.622320
v 0.021161 -0.597282 -0.631669
v 0.183440 -0.597282 -0.610305
v 0.183440 -0.597282 0.600956
v 0.334659 -0.597282 0.538319
v 0.334659 -0.597282 -0.547668
v 0.464514 -0.597282 -0.448027
v 0.464514 -0.597282 0.438678
v 0.564155 -0.597282 -0.318172
v 0.564155 -0.597282 0.308823
v 0.626792 -0.597282 -0.166953
v 0.626792 -0.597282 0.157604
v 0.648156 -0.597282 -0.004674
v 0.648156 -0.597282 -0.004674
v 0.626792 -0.597282 -0.166953
v 0.626792 -0.597282 0.157604
v 0.564155 -0.597282 0.308823
v 0.564155 -0.597282 -0.318172
v 0.464514 -0.597282 0.438678
v 0.464514 -0.597282 -0.448027
v 0.334659 -0.597282 0.538319
v 0.334659 -0.597282 -0.547668
v 0.183440 -0.597282 -0.610305
v 0.183440 -0.597282 0.600956
v 0.021161 -0.597282 0.622320
v 0.021161 -0.597282 -0.631669
v -0.141117 -0.597282 -0.610305
v -0.141117 -0.597282 0.600956
v -0.292336 -0.597282 -0.547668
v -0.292336 -0.597282 0.538319
v -0.422191 -0.597282 0.438678
v -0.422191 -0.597282 -0.448027
v -0.521832 -0.597282 -0.318172
v -0.521832 -0.597282 0.308823
v -0.584469 -0.597282 -0.166953
v -0.584469 -0.597282 0.157604
v -0.605833 -0.597282 -0.004674
v -0.632815 -0.597282 -0.179907
v -0.632815 -0.597282 0.170558
v -0.655884 -0.597282 -0.004674
v -0.565177 -0.597282 -0.343197
v -0.605833 -0.597282 -0.004674
v -0.584469 -0.597282 -0.166953
v -0.521832 -0.597282 -0.318172
v -0.457582 -0.597282 -0.483418
v -0.422191 -0.597282 -0.448027
v -0.317361 -0.597282 -0.591013
v -0.292336 -0.597282 -0.547668
v -0.154071 -0.597282 -0.658650
v -0.141117 -0.597282 -0.610305
v 0.021161 -0.597282 -0.681720
v 0.021161 -0.597282 -0.631669
v 0.196394 -0.597282 -0.658650
v 0.183440 -0.597282 -0.610305
v 0.334659 -0.597282 -0.547668
v 0.359684 -0.597282 -0.591013
v 0.464514 -0.597282 -0.448027
v 0.499905 -0.597282 -0.483418
v 0.564155 -0.597282 -0.318172
v 0.607500 -0.597282 -0.343197
v 0.626792 -0.597282 -0.166953
v 0.675137 -0.597282 -0.179907
v 0.648156 -0.597282 -0.004674
v 0.698207 -0.597282 -0.004674
v -0.565177 -0.597282 0.333848
v -0.584469 -0.597282 0.157604
v -0.521832 -0.597282 0.308823
v -0.457582 -0.597282 0.474069
v -0.422191 -0.597282 0.438678
v -0.443972 -0.597282 0.484513
v -0.317361 -0.597282 0.581664
v -0.292336 -0.597282 0.538319
v -0.154071 -0.597282 0.649301
v -0.141117 -0.597282 0.600956
v 0.021161 -0.597282 0.672371
v 0.021161 -0.597282 0.622320
v 0.183440 -0.597282 0.600956
v 0.196394 -0.597282 0.649301
v 0.334659 -0.597282 0.538319
v 0.359684 -0.597282 0.581664
v 0.464514 -0.597282 0.438678
v 0.499905 -0.597282 0.474069
v 0.564155 -0.597282 0.308823
v 0.607500 -0.597282 0.333848
v 0.626792 -0.597282 0.157604
v 0.675137 -0.597282 0.170558
v 0.698207 -0.597282 -0.004674
v 0.648156 -0.597282 -0.004674
v 0.675137 -0.597282 0.170558
v 0.626792 -0.597282 0.157604
v 0.607500 -0.597282 0.333848
v 0.564155 -0.597282 0.308823
v 0.499905 -0.597282 0.474069
v 0.464514 -0.597282 0.438678
v 0.359684 -0.597282 0.581664
v 0.334659 -0.597282 0.538319
v 0.196394 -0.597282 0.649301
v 0.183440 -0.597282 0.600956
v 0.021161 -0.597282 0.672371
v 0.021161 -0.597282 0.622320
v -0.141117 -0.597282 0.600956
v -0.154071 -0.597282 0.649301
v -0.292336 -0.597282 0.538319
v -0.317361 -0.597282 0.581664
v -0.422191 -0.597282 0.438678
v -0.443972 -0.597282 0.484513
v -0.457582 -0.597282 0.474069
v -0.521832 -0.597282 0.308823
v -0.565177 -0.597282 0.333848
v -0.584469 -0.597282 0.157604
v -0.605833 -0.597282 -0.004674
v -0.632815 -0.597282 0.170558
v 0.675137 -0.597282 -0.179907
v 0.626792 -0.597282 -0.166953
v 0.607500 -0.597282 -0.343197
v 0.564155 -0.597282 -0.318172
v 0.499905 -0.597282 -0.483418
v 0.464514 -0.597282 -0.448027
v 0.359684 -0.597282 -0.591013
v 0.334659 -0.597282 -0.547668
v 0.196394 -0.597282 -0.658650
v 0.183440 -0.597282 -0.610305
v 0.021161 -0.597282 -0.631669
v 0.021161 -0.597282 -0.681720
v -0.141117 -0.597282 -0.610305
v -0.154071 -0.597282 -0.658650
v -0.292336 -0.597282 -0.547668
v -0.317361 -0.597282 -0.591013
v -0.422191 -0.597282 -0.448027
v -0.457582 -0.597282 -0.483418
v -0.521832 -0.597282 -0.318172
v -0.565177 -0.597282 -0.343197
v -0.584469 -0.597282 -0.166953
v -0.632815 -0.597282 -0.179907
v -0.655884 -0.597282 -0.004674
vn 0 -1 0
vn 0 1 0
usemtl material_0_0
f 1//1 2//1 3//1
f 2//1 1//1 4//1
f 4//1 1//1 5//1
f 4//1 5//1 6//1
f 6//1 5//1 7//1
f 6//1 7//1 8//1
f 6//1 8//1 9//1
f 9//1 8//1 10//1
f 10//1 8//1 11//1
f 10//1 11//1 12//1
f 12//1 11//1 13//1
f 12//1 13//1 14//1
f 12//1 14//1 15//1
f 15//1 14//1 16//1
f 16//1 14//1 17//1
f 16//1 17//1 18//1
f 16//1 18//1 19//1
f 19//1 18//1 20//1
f 19//1 20//1 21//1
f 21//1 20//1 22//1
f 21//1 22//1 23//1
f 23//1 22//1 24//1
f 49//1 50//1 51//1
f 50//1 49//1 52//1
f 50//1 52//1 53//1
f 53//1 52//1 54//1
f 54//1 52//1 55//1
f 55//1 52//1 56//1
f 55//1 56//1 57//1
f 57//1 56//1 58//1
f 57//1 58//1 59//1
f 59//1 58//1 60//1
f 59//1 60//1 61//1
f 61//1 60//1 62//1
f 61//1 62//1 63//1
f 63//1 62//1 64//1
f 63//1 64//1 65//1
f 65//1 64//1 66//1
f 66//1 64//1 67//1
f 66//1 67//1 68//1
f 68//1 67//1 69//1
f 68//1 69//1 70//1
f 70//1 69//1 71//1
f 70//1 71//1 72//1
f 72//1 71//1 73//1
f 72//1 73//1 74//1
f 74//1 73//1 75//1
f 53//1 76//1 50//1
f 76//1 53//1 77//1
f 76//1 77//1 78//1
f 76//1 78//1 79//1
f 79//1 78//1 80//1
f 79//1 80//1 81//1
f 81//1 80//1 82//1
f 82//1 80//1 83//1
f 82//1 83//1 84//1
f 84//1 83//1 85//1
f 84//1 85//1 86//1
f 86//1 85//1 87//1
f 86//1 87//1 88//1
f 86//1 88//1 89//1
f 89//1 88//1 90//1
f 89//1 90//1 91//1
f 91//1 90//1 92//1
f 91//1 92//1 93//1
f 93//1 92//1 94//1
f 93//1 94//1 95//1
f 95//1 94//1 96//1
f 95//1 96//1 97//1
f 97//1 96//1 74//1
f 97//1 74//1 75//1
usemtl material_1_0
f 25//2 26//2 27//2
f 27//2 26//2 28//2
f 26//2 29//2 28//2
f 28//2 29//2 30//2
f 29//2 31//2 30//2
f 30//2 31//2 32//2
f 31//2 33//2 32//2
f 33//2 34//2 32//2
f 32//2 34//2 35//2
f 35//2 34//2 36//2
f 34//2 37//2 36//2
f 37//2 38//2 36//2
f 36//2 38//2 39//2
f 38//2 40//2 39//2
f 39//2 40//2 41//2
f 41//2 40//2 42//2
f 40//2 43//2 42//2
f 43//2 44//2 42//2
f 42//2 44//2 45//2
f 44//2 46//2 45//2
f 45//2 46//2 47//2
f 48//2 47//2 46//2
f 98//2 99//2 100//2
f 99//2 101//2 100//2
f 100//2 101//2 102//2
f 101//2 103//2 102//2
f 102//2 103//2 104//2
f 103//2 105//2 104//2
f 104//2 105//2 106//2
f 105//2 107//2 106//2
f 106//2 107//2 108//2
f 107//2 109//2 108//2
f 108//2 109//2 110//2
f 109//2 111//2 110//2
f 111//2 112//2 110//2
f 110//2 112//2 113//2
f 112//2 114//2 113//2
f 113//2 114//2 115//2
f 114//2 116//2 115//2
f 115//2 116//2 117//2
f 117//2 116//2 118//2
f 116//2 119//2 118//2
f 118//2 119//2 120//2
f 119//2 121//2 120//2
f 121//2 122//2 120//2
f 123//2 120//2 122//2
f 98//2 124//2 99//2
f 99//2 124//2 125//2
f 124//2 126//2 125//2
f 125//2 126//2 127//2
f 126//2 128//2 127//2
f 127//2 128//2 129//2
f 128//2 130//2 129//2
f 129//2 130//2 131//2
f 130//2 132//2 131//2
f 131//2 132//2 133//2
f 133//2 132//2 134//2
f 132//2 135//2 134//2
f 134//2 135//2 136//2
f 135//2 137//2 136//2
f 136//2 137//2 138//2
f 137//2 139//2 138//2
f 138//2 139//2 140//2
f 139//2 141//2 140//2
f 140//2 141//2 142//2
f 141//2 143//2 142//2
f 142//2 143//2 144//2
f 144//2 143//2 122//2
f 122//2 143//2 123//2
f 143//2 145//2 123//2
f 146//2 123//2 145//2
