# SSTK version 0.8.0
# 223
mtllib original-223.mtl
o Group9/mesh100/mesh100-geometry/material_1/component_31#mesh100-geometry
v 0.335581 -0.390448 0.864321
v 0.335581 -0.389853 0.831665
v 0.333433 -0.387639 0.864321
v 0.330656 -0.385490 0.864387
v 0.333433 -0.387639 0.864321
v 0.330656 -0.384896 0.831731
v 0.333433 -0.387044 0.831665
v 0.333433 -0.387639 0.864321
v 0.335581 -0.389853 0.831665
v 0.327417 -0.384135 0.864387
v 0.330656 -0.385490 0.864387
v 0.327417 -0.383507 0.831731
v 0.333433 -0.387044 0.831665
v 0.330656 -0.384896 0.831731
v 0.333433 -0.387639 0.864321
v 0.330656 -0.384896 0.831731
v 0.327417 -0.383507 0.831731
v 0.330656 -0.385490 0.864387
v 0.333433 -0.387044 0.831665
v 0.335581 -0.389853 0.831665
v 0.330656 -0.384896 0.831731
v 0.335581 -0.389853 0.831665
v 0.312114 -0.403240 0.831401
v 0.314362 -0.386945 0.831665
v 0.312114 -0.403240 0.831401
v 0.312114 -0.403835 0.864056
v 0.310792 -0.399967 0.831467
v 0.323914 -0.383640 0.864453
v 0.327417 -0.384135 0.864387
v 0.323914 -0.383045 0.831731
v 0.327417 -0.383507 0.831731
v 0.323914 -0.383045 0.831731
v 0.327417 -0.384135 0.864387
v 0.330656 -0.384896 0.831731
v 0.335581 -0.389853 0.831665
v 0.327417 -0.383507 0.831731
v 0.314362 -0.386945 0.831665
v 0.312114 -0.403240 0.831401
v 0.312180 -0.389721 0.831665
v 0.317138 -0.384829 0.831731
v 0.335581 -0.389853 0.831665
v 0.314362 -0.386945 0.831665
v 0.310759 -0.400562 0.864122
v 0.310792 -0.399967 0.831467
v 0.312114 -0.403835 0.864056
v 0.312114 -0.403240 0.831401
v 0.310792 -0.399967 0.831467
v 0.312180 -0.389721 0.831665
v 0.320410 -0.384069 0.864387
v 0.323914 -0.383640 0.864453
v 0.320410 -0.383474 0.831731
v 0.323914 -0.383045 0.831731
v 0.320410 -0.383474 0.831731
v 0.323914 -0.383640 0.864453
v 0.327417 -0.383507 0.831731
v 0.335581 -0.389853 0.831665
v 0.323914 -0.383045 0.831731
v 0.312180 -0.389721 0.831665
v 0.312180 -0.390316 0.864321
v 0.314362 -0.386945 0.831665
v 0.320410 -0.383474 0.831731
v 0.335581 -0.389853 0.831665
v 0.317138 -0.384829 0.831731
v 0.317138 -0.384829 0.831731
v 0.314362 -0.386945 0.831665
v 0.317138 -0.385424 0.864387
v 0.310792 -0.399967 0.831467
v 0.310759 -0.400562 0.864122
v 0.310329 -0.396464 0.831533
v 0.312180 -0.389721 0.831665
v 0.310792 -0.399967 0.831467
v 0.310825 -0.392960 0.831599
v 0.310825 -0.393588 0.864255
v 0.310825 -0.392960 0.831599
v 0.310329 -0.397059 0.864189
v 0.312180 -0.390316 0.864321
v 0.312180 -0.389721 0.831665
v 0.310825 -0.393588 0.864255
v 0.317138 -0.385424 0.864387
v 0.320410 -0.384069 0.864387
v 0.317138 -0.384829 0.831731
v 0.320410 -0.383474 0.831731
v 0.317138 -0.384829 0.831731
v 0.320410 -0.384069 0.864387
v 0.323914 -0.383045 0.831731
v 0.335581 -0.389853 0.831665
v 0.320410 -0.383474 0.831731
v 0.314329 -0.387540 0.864321
v 0.314362 -0.386945 0.831665
v 0.312180 -0.390316 0.864321
v 0.314329 -0.387540 0.864321
v 0.317138 -0.385424 0.864387
v 0.314362 -0.386945 0.831665
v 0.310329 -0.397059 0.864189
v 0.310329 -0.396464 0.831533
v 0.310759 -0.400562 0.864122
v 0.310329 -0.396464 0.831533
v 0.310825 -0.392960 0.831599
v 0.310792 -0.399967 0.831467
v 0.310825 -0.392960 0.831599
v 0.310825 -0.393588 0.864255
v 0.312180 -0.389721 0.831665
v 0.310329 -0.396464 0.831533
v 0.310329 -0.397059 0.864189
v 0.310825 -0.392960 0.831599
v 0.333433 -0.387639 0.864321
v 0.335581 -0.389853 0.831665
v 0.335581 -0.390448 0.864321
v 0.330656 -0.384896 0.831731
v 0.333433 -0.387639 0.864321
v 0.330656 -0.385490 0.864387
v 0.335581 -0.389853 0.831665
v 0.333433 -0.387639 0.864321
v 0.333433 -0.387044 0.831665
v 0.327417 -0.383507 0.831731
v 0.330656 -0.385490 0.864387
v 0.327417 -0.384135 0.864387
v 0.333433 -0.387639 0.864321
v 0.330656 -0.384896 0.831731
v 0.333433 -0.387044 0.831665
v 0.330656 -0.385490 0.864387
v 0.327417 -0.383507 0.831731
v 0.330656 -0.384896 0.831731
v 0.330656 -0.384896 0.831731
v 0.335581 -0.389853 0.831665
v 0.333433 -0.387044 0.831665
v 0.314362 -0.386945 0.831665
v 0.312114 -0.403240 0.831401
v 0.335581 -0.389853 0.831665
v 0.310792 -0.399967 0.831467
v 0.312114 -0.403835 0.864056
v 0.312114 -0.403240 0.831401
v 0.323914 -0.383045 0.831731
v 0.327417 -0.384135 0.864387
v 0.323914 -0.383640 0.864453
v 0.327417 -0.384135 0.864387
v 0.323914 -0.383045 0.831731
v 0.327417 -0.383507 0.831731
v 0.327417 -0.383507 0.831731
v 0.335581 -0.389853 0.831665
v 0.330656 -0.384896 0.831731
v 0.312180 -0.389721 0.831665
v 0.312114 -0.403240 0.831401
v 0.314362 -0.386945 0.831665
v 0.314362 -0.386945 0.831665
v 0.335581 -0.389853 0.831665
v 0.317138 -0.384829 0.831731
v 0.312114 -0.403835 0.864056
v 0.310792 -0.399967 0.831467
v 0.310759 -0.400562 0.864122
v 0.312180 -0.389721 0.831665
v 0.310792 -0.399967 0.831467
v 0.312114 -0.403240 0.831401
v 0.320410 -0.383474 0.831731
v 0.323914 -0.383640 0.864453
v 0.320410 -0.384069 0.864387
v 0.323914 -0.383640 0.864453
v 0.320410 -0.383474 0.831731
v 0.323914 -0.383045 0.831731
v 0.323914 -0.383045 0.831731
v 0.335581 -0.389853 0.831665
v 0.327417 -0.383507 0.831731
v 0.314362 -0.386945 0.831665
v 0.312180 -0.390316 0.864321
v 0.312180 -0.389721 0.831665
v 0.317138 -0.384829 0.831731
v 0.335581 -0.389853 0.831665
v 0.320410 -0.383474 0.831731
v 0.317138 -0.385424 0.864387
v 0.314362 -0.386945 0.831665
v 0.317138 -0.384829 0.831731
v 0.310329 -0.396464 0.831533
v 0.310759 -0.400562 0.864122
v 0.310792 -0.399967 0.831467
v 0.310825 -0.392960 0.831599
v 0.310792 -0.399967 0.831467
v 0.312180 -0.389721 0.831665
v 0.310329 -0.397059 0.864189
v 0.310825 -0.392960 0.831599
v 0.310825 -0.393588 0.864255
v 0.310825 -0.393588 0.864255
v 0.312180 -0.389721 0.831665
v 0.312180 -0.390316 0.864321
v 0.317138 -0.384829 0.831731
v 0.320410 -0.384069 0.864387
v 0.317138 -0.385424 0.864387
v 0.320410 -0.384069 0.864387
v 0.317138 -0.384829 0.831731
v 0.320410 -0.383474 0.831731
v 0.320410 -0.383474 0.831731
v 0.335581 -0.389853 0.831665
v 0.323914 -0.383045 0.831731
v 0.312180 -0.390316 0.864321
v 0.314362 -0.386945 0.831665
v 0.314329 -0.387540 0.864321
v 0.314362 -0.386945 0.831665
v 0.317138 -0.385424 0.864387
v 0.314329 -0.387540 0.864321
v 0.310759 -0.400562 0.864122
v 0.310329 -0.396464 0.831533
v 0.310329 -0.397059 0.864189
v 0.310792 -0.399967 0.831467
v 0.310825 -0.392960 0.831599
v 0.310329 -0.396464 0.831533
v 0.312180 -0.389721 0.831665
v 0.310825 -0.393588 0.864255
v 0.310825 -0.392960 0.831599
v 0.310825 -0.392960 0.831599
v 0.310329 -0.397059 0.864189
v 0.310329 -0.396464 0.831533
vt 51.36066818237305 5.71999979019165
vt 51.36066818237305 2.2750000953674316
vt 50.79777526855469 5.71999979019165
vt 69.46056365966797 5.71999979019165
vt 70.02345275878906 5.71999979019165
vt 69.46056365966797 2.2750000953674316
vt 50.79777526855469 2.2750000953674316
vt 83.37054443359375 5.71999979019165
vt 83.93344116210938 5.71999979019165
vt 83.37054443359375 2.2750000953674316
vt 70.02345275878906 2.2750000953674316
vt 83.93344116210938 2.2750000953674316
vt 94.99547576904297 11.026498794555664
vt 95.34566497802734 10.568168640136719
vt 94.54315948486328 11.374951362609863
vt 91.64801025390625 8.260160446166992
vt 91.94651794433594 10.972747802734375
vt -29.2169189453125 2.2750000953674316
vt -29.2169189453125 5.71999979019165
vt -28.654024124145508 2.2750000953674316
vt 91.57978057861328 5.71999979019165
vt 92.1426773071289 5.71999979019165
vt 91.57978057861328 2.2750000953674316
vt 92.1426773071289 2.2750000953674316
vt 94.01953887939453 11.589778900146484
vt 91.61146545410156 10.502337455749512
vt 92.38722229003906 11.336942672729492
vt -28.654024124145508 5.71999979019165
vt 91.42382049560547 8.797133445739746
vt 93.5288314819336 5.71999979019165
vt 94.09172821044922 5.71999979019165
vt 93.5288314819336 2.2750000953674316
vt 94.09172821044922 2.2750000953674316
vt 93.46029663085938 11.656341552734375
vt 62.64431381225586 2.2750000953674316
vt 62.64431381225586 5.71999979019165
vt 63.20720672607422 2.2750000953674316
vt 92.9035415649414 11.570104598999023
vt 79.1136245727539 2.2750000953674316
vt 78.55072784423828 2.2750000953674316
vt 79.1136245727539 5.71999979019165
vt -5.101263999938965 2.2750000953674316
vt -5.101263999938965 5.71999979019165
vt -4.538370132446289 2.2750000953674316
vt 91.40489959716797 9.957770347595215
vt 19.90574836730957 5.71999979019165
vt 19.90574836730957 2.2750000953674316
vt 19.342853546142578 5.71999979019165
vt 43.01250457763672 5.71999979019165
vt 43.01250457763672 2.2750000953674316
vt 42.449607849121094 5.71999979019165
vt 89.0848617553711 5.71999979019165
vt 89.64775848388672 5.71999979019165
vt 89.0848617553711 2.2750000953674316
vt 89.64775848388672 2.2750000953674316
vt 63.20720672607422 5.71999979019165
vt 78.55072784423828 5.71999979019165
vt -4.538370132446289 5.71999979019165
vt 91.34089660644531 9.376155853271484
vt 42.449607849121094 2.2750000953674316
vt 19.342853546142578 2.2750000953674316
vt 6.209554195404053 3.375
vt 6.774058818817139 0
vt 6.774058818817139 3.375
vt 5.645049095153809 0
vt 5.645049095153809 3.375
vt 6.209554195404053 0
vt 5.0805439949035645 0
vt 5.0805439949035645 3.375
vt 94.54315948486328 11.143819808959961
vt 95.34566497802734 10.35343074798584
vt 94.99547576904297 10.802448272705078
vt 91.94651794433594 10.749789237976074
vt 91.64801025390625 8.092318534851074
vt 0.5645049810409546 0
vt 0 3.375
vt 0 0
vt 4.51603889465332 0
vt 4.51603889465332 3.375
vt 94.01953887939453 11.354283332824707
vt 91.61146545410156 10.288936614990234
vt 92.38722229003906 11.106584548950195
vt 0.5645049810409546 3.375
vt 91.42382049560547 8.618382453918457
vt 3.9515349864959717 0
vt 3.9515349864959717 3.375
vt 93.46029663085938 11.419492721557617
vt 2.8225250244140625 0
vt 2.2580199241638184 3.375
vt 2.2580199241638184 0
vt 92.9035415649414 11.335007667541504
vt 3.3870298862457275 3.375
vt 3.3870298862457275 0
vt 1.1290099620819092 0
vt 91.40489959716797 9.7554349899292
vt 1.1290099620819092 3.375
vt 1.6935149431228638 0
vt 1.6935149431228638 3.375
vt 2.8225250244140625 3.375
vt 91.34089660644531 9.185639381408691
vn 0.7967520130748061 0.6042030138685858 0.011178000418745993
vn 0.711058251990693 0.7030132316533414 0.012983004130989734
vn 0.5048448232708069 0.8630636493549608 0.01590099301191485
vn 0.26422802701821707 0.9642971450636548 0.017736001808322154
vn 0.00010300003932064134 0.01836100762282291 -0.9998314171849504
vn -0.9260093586919438 -0.37743514521697297 -0.00702700291570408
vn -0.9673609183514462 -0.25335799207074844 -0.004751999592280838
vn 0.00560399824505644 0.9998157175503992 0.018360995148669214
vn -0.2534021042546202 0.9671984323933062 0.01773600674509274
vn -0.8632102463809209 0.5047611115497012 0.009181002674009621
vn -0.70313340770973 0.7109394154738129 0.012983007673725754
vn -0.4951391012221095 0.8686681924425816 0.015901002468381605
vn -0.9999842974611367 0.005604001352325941 0
vn -0.9644602936157485 0.26418508762399623 0.004752001233799338
vn -0.711058251990693 -0.7030132316533414 -0.012983004130989734
vn -0.7967520130748061 -0.6042030138685858 -0.011178000418745993
vn -0.5048448232708069 -0.8630636493549608 -0.01590099301191485
vn -0.26422802701821707 -0.9642971450636548 -0.017736001808322154
vn -0.00010300003932064134 -0.01836100762282291 0.9998314171849504
vn 0.9673609183514462 0.25335799207074844 0.004751999592280838
vn 0.9260093586919438 0.37743514521697297 0.00702700291570408
vn -0.00560399824505644 -0.9998157175503992 -0.018360995148669214
vn 0.2534021042546202 -0.9671984323933062 -0.01773600674509274
vn 0.70313340770973 -0.7109394154738129 -0.012983007673725754
vn 0.8632102463809209 -0.5047611115497012 -0.009181002674009621
vn 0.4951391012221095 -0.8686681924425816 -0.015901002468381605
vn 0.9999842974611367 -0.005604001352325941 0
vn 0.9644602936157485 -0.26418508762399623 -0.004752001233799338
usemtl material_0_0
f 1/1/1 2/2/1 3/3/2
f 4/4/3 5/5/2 6/6/3
f 7/7/2 8/3/2 9/2/1
f 10/8/4 11/9/3 12/10/4
f 13/11/2 14/6/3 15/5/2
f 16/12/3 17/10/4 18/9/3
f 19/13/5 20/14/5 21/15/5
f 22/14/5 23/16/5 24/17/5
f 25/18/6 26/19/6 27/20/7
f 28/21/8 29/22/4 30/23/8
f 31/24/4 32/23/8 33/22/4
f 34/15/5 35/14/5 36/25/5
f 37/17/5 38/16/5 39/26/5
f 40/27/5 41/14/5 42/17/5
f 43/28/7 44/20/7 45/19/6
f 46/16/5 47/29/5 48/26/5
f 49/30/9 50/31/8 51/32/9
f 52/33/8 53/32/9 54/31/8
f 55/25/5 56/14/5 57/34/5
f 58/35/10 59/36/10 60/37/11
f 61/38/5 62/14/5 63/27/5
f 64/39/12 65/40/11 66/41/12
f 67/42/7 68/43/7 69/44/13
f 70/26/5 71/29/5 72/45/5
f 73/46/14 74/47/14 75/48/13
f 76/49/10 77/50/10 78/51/14
f 79/52/12 80/53/9 81/54/12
f 82/55/9 83/54/12 84/53/9
f 85/34/5 86/14/5 87/38/5
f 88/56/11 89/37/11 90/36/10
f 91/57/11 92/41/12 93/40/11
f 94/58/13 95/44/13 96/43/7
f 97/59/5 98/45/5 99/29/5
f 100/60/14 101/51/14 102/50/10
f 103/61/13 104/48/13 105/47/14
usemtl material_1_0
f 106/62/15 107/63/16 108/64/16
f 109/65/17 110/62/15 111/66/17
f 112/63/16 113/62/15 114/67/15
f 115/68/18 116/66/17 117/69/18
f 118/62/15 119/65/17 120/67/15
f 121/66/17 122/68/18 123/65/17
f 124/70/19 125/71/19 126/72/19
f 127/73/19 128/74/19 129/71/19
f 130/75/20 131/76/21 132/77/21
f 133/78/22 134/69/18 135/79/22
f 136/69/18 137/78/22 138/68/18
f 139/80/19 140/71/19 141/70/19
f 142/81/19 143/74/19 144/73/19
f 145/73/19 146/71/19 147/82/19
f 148/76/21 149/75/20 150/83/20
f 151/81/19 152/84/19 153/74/19
f 154/85/23 155/79/22 156/86/23
f 157/79/22 158/85/23 159/78/22
f 160/87/19 161/71/19 162/80/19
f 163/88/24 164/89/25 165/90/25
f 166/82/19 167/71/19 168/91/19
f 169/92/26 170/88/24 171/93/26
f 172/94/27 173/83/20 174/75/20
f 175/95/19 176/84/19 177/81/19
f 178/96/27 179/97/28 180/98/28
f 181/98/28 182/90/25 183/89/25
f 184/93/26 185/86/23 186/92/26
f 187/86/23 188/93/26 189/85/23
f 190/91/19 191/71/19 192/87/19
f 193/89/25 194/88/24 195/99/24
f 196/88/24 197/92/26 198/99/24
f 199/83/20 200/94/27 201/96/27
f 202/84/19 203/95/19 204/100/19
f 205/90/25 206/98/28 207/97/28
f 208/97/28 209/96/27 210/94/27
