# SSTK version 0.8.0
# 127
mtllib original-127.mtl
o mesh46/mesh46-geometry/material_1/component_16#mesh46-geometry
v 0.210213 0.557958 -0.114031
v -0.011139 0.539862 -0.114031
v 0.210213 0.539862 -0.114031
v 0.210213 0.539862 -0.114031
v -0.011139 0.539862 -0.114031
v 0.210213 0.557958 -0.114031
v -0.011139 0.539862 -0.114031
v 0.210213 0.557958 -0.114031
v -0.011139 0.557958 -0.114031
v -0.011139 0.557958 -0.114031
v 0.210213 0.557958 -0.114031
v -0.011139 0.539862 -0.114031
v -0.011139 0.557958 -0.114427
v 0.210213 0.539862 -0.114031
v -0.011139 0.539862 -0.114031
v -0.011139 0.539862 -0.114031
v 0.210213 0.539862 -0.114031
v -0.011139 0.557958 -0.114427
v 0.206445 0.540473 -0.085407
v -0.011139 0.539862 -0.114031
v 0.210213 0.539862 -0.114031
v 0.210213 0.539862 -0.114031
v -0.011139 0.539862 -0.114031
v 0.206445 0.540473 -0.085407
v 0.210213 0.539862 -0.114031
v -0.011139 0.557958 -0.114427
v 0.210213 0.557958 -0.114427
v 0.210213 0.557958 -0.114427
v -0.011139 0.557958 -0.114427
v 0.210213 0.539862 -0.114031
v -0.011139 0.539862 -0.114031
v 0.206445 0.540473 -0.085407
v 0.195373 0.541051 -0.058701
v 0.195373 0.541051 -0.058701
v 0.206445 0.540473 -0.085407
v -0.011139 0.539862 -0.114031
v -0.011139 0.539862 -0.114031
v 0.195373 0.541051 -0.058701
v 0.177789 0.541531 -0.035829
v 0.177789 0.541531 -0.035829
v 0.195373 0.541051 -0.058701
v -0.011139 0.539862 -0.114031
v -0.011139 0.539862 -0.114031
v 0.003702 0.541051 -0.058701
v -0.007371 0.540473 -0.085407
v -0.007371 0.540473 -0.085407
v 0.003702 0.541051 -0.058701
v -0.011139 0.539862 -0.114031
v -0.011139 0.539862 -0.114031
v 0.177789 0.541531 -0.035829
v 0.154884 0.541911 -0.018245
v 0.154884 0.541911 -0.018245
v 0.177789 0.541531 -0.035829
v -0.011139 0.539862 -0.114031
v -0.011139 0.539862 -0.114031
v 0.021286 0.541531 -0.035829
v 0.003702 0.541051 -0.058701
v 0.003702 0.541051 -0.058701
v 0.021286 0.541531 -0.035829
v -0.011139 0.539862 -0.114031
v -0.011139 0.539862 -0.114031
v 0.154884 0.541911 -0.018245
v 0.128177 0.542142 -0.007139
v 0.128177 0.542142 -0.007139
v 0.154884 0.541911 -0.018245
v -0.011139 0.539862 -0.114031
v -0.011139 0.539862 -0.114031
v 0.044191 0.541911 -0.018245
v 0.021286 0.541531 -0.035829
v 0.021286 0.541531 -0.035829
v 0.044191 0.541911 -0.018245
v -0.011139 0.539862 -0.114031
v -0.011139 0.539862 -0.114031
v 0.128177 0.542142 -0.007139
v 0.099521 0.542225 -0.003371
v 0.099521 0.542225 -0.003371
v 0.128177 0.542142 -0.007139
v -0.011139 0.539862 -0.114031
v -0.011139 0.539862 -0.114031
v 0.070897 0.542142 -0.007139
v 0.044191 0.541911 -0.018245
v 0.044191 0.541911 -0.018245
v 0.070897 0.542142 -0.007139
v -0.011139 0.539862 -0.114031
v -0.011139 0.539862 -0.114031
v 0.099521 0.542225 -0.003371
v 0.070897 0.542142 -0.007139
v 0.070897 0.542142 -0.007139
v 0.099521 0.542225 -0.003371
v -0.011139 0.539862 -0.114031
vt -20.4435977935791 48.16840362548828
vt -30.513668060302734 47.31224822998047
vt -20.4435977935791 47.31224822998047
vt -30.513668060302734 48.16840362548828
vt 30.513668060302734 47.72099685668945
vt 20.4435977935791 46.86503601074219
vt 30.513668060302734 46.86503601074219
vt -20.615163803100586 22.84070587158203
vt -30.513668060302734 21.485414505004883
vt -20.4435977935791 21.485414505004883
vt 20.4435977935791 47.72099685668945
vt -21.1181640625 24.103633880615234
vt -21.918325424194336 25.188135147094727
vt -29.839101791381836 24.103633880615234
vt -30.342103958129883 22.84070587158203
vt -22.961116790771484 26.020301818847656
vt -29.0389404296875 25.188135147094727
vt -24.17547035217285 26.543424606323242
vt -27.996150970458984 26.020301818847656
vt -25.478633880615234 26.721851348876953
vt -26.781795501708984 26.543424606323242
vn 0 0 1
vn 0 0 -1
vn 0 -0.021309997419539463 -0.9997729162214684
vn 0 0.021309997419539463 0.9997729162214684
vn 0 -0.9997729162214684 0.021309997419539463
vn 0 0.9997729162214684 -0.021309997419539463
usemtl material_0_0
f 1/1/1 2/2/1 3/3/1
f 4/3/2 5/2/2 6/1/2
f 7/2/1 8/1/1 9/4/1
f 10/4/2 11/1/2 12/2/2
f 13/5/3 14/6/3 15/7/3
f 16/7/4 17/6/4 18/5/4
f 19/8/5 20/9/5 21/10/5
f 22/10/6 23/9/6 24/8/6
f 25/6/3 26/5/3 27/11/3
f 28/11/4 29/5/4 30/6/4
f 31/9/5 32/8/5 33/12/5
f 34/12/6 35/8/6 36/9/6
f 37/9/5 38/12/5 39/13/5
f 40/13/6 41/12/6 42/9/6
f 43/9/5 44/14/5 45/15/5
f 46/15/6 47/14/6 48/9/6
f 49/9/5 50/13/5 51/16/5
f 52/16/6 53/13/6 54/9/6
f 55/9/5 56/17/5 57/14/5
f 58/14/6 59/17/6 60/9/6
f 61/9/5 62/16/5 63/18/5
f 64/18/6 65/16/6 66/9/6
f 67/9/5 68/19/5 69/17/5
f 70/17/6 71/19/6 72/9/6
f 73/9/5 74/18/5 75/20/5
f 76/20/6 77/18/6 78/9/6
f 79/9/5 80/21/5 81/19/5
f 82/19/6 83/21/6 84/9/6
f 85/9/5 86/20/5 87/21/5
f 88/21/6 89/20/6 90/9/6
