# SSTK version 0.8.0
# 208
mtllib original-208.mtl
o Group9/mesh100/mesh100-geometry/material_1/component_16#mesh100-geometry
v 0.345166 -0.370088 0.864651
v 0.348174 -0.368898 0.864717
v 0.345166 -0.369493 0.831995
v 0.348174 -0.368898 0.864717
v 0.351413 -0.368601 0.864717
v 0.348174 -0.368303 0.832062
v 0.342588 -0.372071 0.864651
v 0.345166 -0.370088 0.864651
v 0.342621 -0.371476 0.831995
v 0.348174 -0.368303 0.832062
v 0.345166 -0.369493 0.831995
v 0.348174 -0.368898 0.864717
v 0.345166 -0.369493 0.831995
v 0.342621 -0.371476 0.831995
v 0.345166 -0.370088 0.864651
v 0.351413 -0.368006 0.832062
v 0.348174 -0.368303 0.832062
v 0.351413 -0.368601 0.864717
v 0.351413 -0.368601 0.864717
v 0.354586 -0.369196 0.864717
v 0.351413 -0.368006 0.832062
v 0.342588 -0.372071 0.864651
v 0.342621 -0.371476 0.831995
v 0.340704 -0.374682 0.864585
v 0.348174 -0.368303 0.832062
v 0.361428 -0.375112 0.831929
v 0.345166 -0.369493 0.831995
v 0.345166 -0.369493 0.831995
v 0.361428 -0.375112 0.831929
v 0.342621 -0.371476 0.831995
v 0.351413 -0.368006 0.832062
v 0.361428 -0.375112 0.831929
v 0.348174 -0.368303 0.832062
v 0.354586 -0.368601 0.832062
v 0.351413 -0.368006 0.832062
v 0.354586 -0.369196 0.864717
v 0.354586 -0.369196 0.864717
v 0.357462 -0.370683 0.864651
v 0.354586 -0.368601 0.832062
v 0.340704 -0.374682 0.864585
v 0.340704 -0.374087 0.831929
v 0.339614 -0.377723 0.864519
v 0.340704 -0.374087 0.831929
v 0.340704 -0.374682 0.864585
v 0.342621 -0.371476 0.831995
v 0.361428 -0.375112 0.831929
v 0.341729 -0.386350 0.831731
v 0.342621 -0.371476 0.831995
v 0.354586 -0.368601 0.832062
v 0.361428 -0.375112 0.831929
v 0.351413 -0.368006 0.832062
v 0.357462 -0.370088 0.831995
v 0.354586 -0.368601 0.832062
v 0.357462 -0.370683 0.864651
v 0.339614 -0.377128 0.831863
v 0.339614 -0.377723 0.864519
v 0.340704 -0.374087 0.831929
v 0.342621 -0.371476 0.831995
v 0.341729 -0.386350 0.831731
v 0.340704 -0.374087 0.831929
v 0.357462 -0.370088 0.831995
v 0.361428 -0.375112 0.831929
v 0.354586 -0.368601 0.832062
v 0.357462 -0.370683 0.864651
v 0.359809 -0.372931 0.864651
v 0.357462 -0.370088 0.831995
v 0.339614 -0.377723 0.864519
v 0.339614 -0.377128 0.831863
v 0.339415 -0.380962 0.864453
v 0.340704 -0.374087 0.831929
v 0.340142 -0.383540 0.831731
v 0.339614 -0.377128 0.831863
v 0.341729 -0.386350 0.831731
v 0.340142 -0.383540 0.831731
v 0.340704 -0.374087 0.831929
v 0.359809 -0.372303 0.831995
v 0.361428 -0.375112 0.831929
v 0.357462 -0.370088 0.831995
v 0.359809 -0.372303 0.831995
v 0.357462 -0.370088 0.831995
v 0.359809 -0.372931 0.864651
v 0.339415 -0.380962 0.864453
v 0.339415 -0.380367 0.831797
v 0.340142 -0.384135 0.864387
v 0.339415 -0.380367 0.831797
v 0.339415 -0.380962 0.864453
v 0.339614 -0.377128 0.831863
v 0.339415 -0.380367 0.831797
v 0.339614 -0.377128 0.831863
v 0.340142 -0.383540 0.831731
v 0.341729 -0.386350 0.831731
v 0.341729 -0.386945 0.864387
v 0.340142 -0.383540 0.831731
v 0.359809 -0.372303 0.831995
v 0.359809 -0.372931 0.864651
v 0.361428 -0.375112 0.831929
v 0.361428 -0.375707 0.864585
v 0.361428 -0.375112 0.831929
v 0.359809 -0.372931 0.864651
v 0.340142 -0.384135 0.864387
v 0.340142 -0.383540 0.831731
v 0.341729 -0.386945 0.864387
v 0.340142 -0.383540 0.831731
v 0.340142 -0.384135 0.864387
v 0.339415 -0.380367 0.831797
v 0.345166 -0.369493 0.831995
v 0.348174 -0.368898 0.864717
v 0.345166 -0.370088 0.864651
v 0.348174 -0.368303 0.832062
v 0.351413 -0.368601 0.864717
v 0.348174 -0.368898 0.864717
v 0.342621 -0.371476 0.831995
v 0.345166 -0.370088 0.864651
v 0.342588 -0.372071 0.864651
v 0.348174 -0.368898 0.864717
v 0.345166 -0.369493 0.831995
v 0.348174 -0.368303 0.832062
v 0.345166 -0.370088 0.864651
v 0.342621 -0.371476 0.831995
v 0.345166 -0.369493 0.831995
v 0.351413 -0.368601 0.864717
v 0.348174 -0.368303 0.832062
v 0.351413 -0.368006 0.832062
v 0.351413 -0.368006 0.832062
v 0.354586 -0.369196 0.864717
v 0.351413 -0.368601 0.864717
v 0.340704 -0.374682 0.864585
v 0.342621 -0.371476 0.831995
v 0.342588 -0.372071 0.864651
v 0.345166 -0.369493 0.831995
v 0.361428 -0.375112 0.831929
v 0.348174 -0.368303 0.832062
v 0.342621 -0.371476 0.831995
v 0.361428 -0.375112 0.831929
v 0.345166 -0.369493 0.831995
v 0.348174 -0.368303 0.832062
v 0.361428 -0.375112 0.831929
v 0.351413 -0.368006 0.832062
v 0.354586 -0.369196 0.864717
v 0.351413 -0.368006 0.832062
v 0.354586 -0.368601 0.832062
v 0.354586 -0.368601 0.832062
v 0.357462 -0.370683 0.864651
v 0.354586 -0.369196 0.864717
v 0.339614 -0.377723 0.864519
v 0.340704 -0.374087 0.831929
v 0.340704 -0.374682 0.864585
v 0.342621 -0.371476 0.831995
v 0.340704 -0.374682 0.864585
v 0.340704 -0.374087 0.831929
v 0.342621 -0.371476 0.831995
v 0.341729 -0.386350 0.831731
v 0.361428 -0.375112 0.831929
v 0.351413 -0.368006 0.832062
v 0.361428 -0.375112 0.831929
v 0.354586 -0.368601 0.832062
v 0.357462 -0.370683 0.864651
v 0.354586 -0.368601 0.832062
v 0.357462 -0.370088 0.831995
v 0.340704 -0.374087 0.831929
v 0.339614 -0.377723 0.864519
v 0.339614 -0.377128 0.831863
v 0.340704 -0.374087 0.831929
v 0.341729 -0.386350 0.831731
v 0.342621 -0.371476 0.831995
v 0.354586 -0.368601 0.832062
v 0.361428 -0.375112 0.831929
v 0.357462 -0.370088 0.831995
v 0.357462 -0.370088 0.831995
v 0.359809 -0.372931 0.864651
v 0.357462 -0.370683 0.864651
v 0.339415 -0.380962 0.864453
v 0.339614 -0.377128 0.831863
v 0.339614 -0.377723 0.864519
v 0.339614 -0.377128 0.831863
v 0.340142 -0.383540 0.831731
v 0.340704 -0.374087 0.831929
v 0.340704 -0.374087 0.831929
v 0.340142 -0.383540 0.831731
v 0.341729 -0.386350 0.831731
v 0.357462 -0.370088 0.831995
v 0.361428 -0.375112 0.831929
v 0.359809 -0.372303 0.831995
v 0.359809 -0.372931 0.864651
v 0.357462 -0.370088 0.831995
v 0.359809 -0.372303 0.831995
v 0.340142 -0.384135 0.864387
v 0.339415 -0.380367 0.831797
v 0.339415 -0.380962 0.864453
v 0.339614 -0.377128 0.831863
v 0.339415 -0.380962 0.864453
v 0.339415 -0.380367 0.831797
v 0.340142 -0.383540 0.831731
v 0.339614 -0.377128 0.831863
v 0.339415 -0.380367 0.831797
v 0.340142 -0.383540 0.831731
v 0.341729 -0.386945 0.864387
v 0.341729 -0.386350 0.831731
v 0.361428 -0.375112 0.831929
v 0.359809 -0.372931 0.864651
v 0.359809 -0.372303 0.831995
v 0.359809 -0.372931 0.864651
v 0.361428 -0.375112 0.831929
v 0.361428 -0.375707 0.864585
v 0.341729 -0.386945 0.864387
v 0.340142 -0.383540 0.831731
v 0.340142 -0.384135 0.864387
v 0.339415 -0.380367 0.831797
v 0.340142 -0.384135 0.864387
v 0.340142 -0.383540 0.831731
vt 94.4356918334961 5.71999979019165
vt 94.95294189453125 5.71999979019165
vt 94.4356918334961 2.2750000953674316
vt 98.20475769042969 5.71999979019165
vt 98.72200775146484 5.71999979019165
vt 98.20475769042969 2.2750000953674316
vt 83.0886001586914 5.71999979019165
vt 83.60585021972656 5.71999979019165
vt 83.0886001586914 2.2750000953674316
vt 94.95294189453125 2.2750000953674316
vt 83.60585021972656 2.2750000953674316
vt 98.72200775146484 2.2750000953674316
vt 94.09417724609375 5.71999979019165
vt 94.61143493652344 5.71999979019165
vt 94.09417724609375 2.2750000953674316
vt 65.58881378173828 5.71999979019165
vt 65.58881378173828 2.2750000953674316
vt 65.0715560913086 5.71999979019165
vt 97.28133392333984 14.197890281677246
vt 99.42373657226562 13.113630294799805
vt 96.80463409423828 13.98908519744873
vt 96.40323638916016 13.649798393249512
vt 97.79518127441406 14.259503364562988
vt 94.61143493652344 2.2750000953674316
vt 82.43291473388672 5.71999979019165
vt 82.95016479492188 5.71999979019165
vt 82.43291473388672 2.2750000953674316
vt 42.34364318847656 5.71999979019165
vt 42.34364318847656 2.2750000953674316
vt 41.82638931274414 5.71999979019165
vt 65.0715560913086 2.2750000953674316
vt 96.31556701660156 11.173563957214355
vt 98.30506134033203 14.168994903564453
vt 82.95016479492188 2.2750000953674316
vt 41.82638931274414 2.2750000953674316
vt 96.10926055908203 13.207181930541992
vt 98.7701644897461 13.93360710144043
vt 64.15415954589844 5.71999979019165
vt 64.67141723632812 5.71999979019165
vt 64.15415954589844 2.2750000953674316
vt 15.730574607849121 5.71999979019165
vt 15.730574607849121 2.2750000953674316
vt 15.213321685791016 5.71999979019165
vt 96.0536880493164 11.637467384338379
vt 95.94623565673828 12.696657180786133
vt 99.15327453613281 13.572176933288574
vt 64.67141723632812 2.2750000953674316
vt -12.12065315246582 5.71999979019165
vt -12.12065315246582 2.2750000953674316
vt -12.637906074523926 5.71999979019165
vt 15.213321685791016 2.2750000953674316
vt 95.92720031738281 12.159077644348145
vt -39.49846649169922 2.2750000953674316
vt -39.49846649169922 5.71999979019165
vt -38.98121643066406 2.2750000953674316
vt 40.720703125 2.2750000953674316
vt 40.720703125 5.71999979019165
vt 41.23795700073242 2.2750000953674316
vt 41.23795700073242 5.71999979019165
vt -38.98121643066406 5.71999979019165
vt -12.637906074523926 2.2750000953674316
vt 3.113960027694702 0
vt 3.632952928543091 3.375
vt 3.113960027694702 3.375
vt 3.632952928543091 0
vt 4.151946067810059 3.375
vt 2.594965934753418 0
vt 2.594965934753418 3.375
vt 4.151946067810059 0
vt 4.670939922332764 3.375
vt 2.0759730339050293 3.375
vt 96.80463409423828 13.704835891723633
vt 99.42373657226562 12.847169876098633
vt 97.28133392333984 13.909398078918457
vt 96.40323638916016 13.372444152832031
vt 97.79518127441406 13.969759941101074
vt 4.670939922332764 0
vt 5.189932823181152 3.375
vt 1.556980013847351 3.375
vt 2.0759730339050293 0
vt 96.31556701660156 10.946524620056152
vt 98.30506134033203 13.88109016418457
vt 5.189932823181152 0
vt 1.556980013847351 0
vt 96.10926055908203 12.938820838928223
vt 98.7701644897461 13.65048599243164
vt 5.708926200866699 3.375
vt 1.0379869937896729 3.375
vt 95.94623565673828 12.43867015838623
vt 96.0536880493164 11.4010009765625
vt 99.15327453613281 13.29640007019043
vt 5.708926200866699 0
vt 0.5189930200576782 3.375
vt 1.0379869937896729 0
vt 95.92720031738281 11.91201400756836
vt 0.5189930200576782 0
vt 0 3.375
vt 0 0
vt 6.227920055389404 0
vt 6.227920055389404 3.375
vn -0.4951391012221095 0.8686681924425816 0.015901002468381605
vn -0.23202105894176378 0.9725472251429733 0.017836004996788096
vn 0.049666017693591594 0.9985974084150774 0.01834400700912292
vn -0.7186338308813307 0.695272809442522 0.012693997113810723
vn 0.3273778714478018 0.9447335925262491 0.017382992801980388
vn -0.8846192289586368 0.4662371305226002 0.008471002223996675
vn 0.00010300003932064134 0.01836100762282291 -0.9998314171849504
vn 0.5788911619173376 0.8152662703438827 0.015031004409891396
vn -0.9798116519730949 0.19989092467617364 0.0035699985796811577
vn 0.7840775952008269 0.6205566882323673 0.011476994125847127
vn -0.9965937271655152 -0.08245197563993678 -0.0016169995108113624
vn -0.933622152257136 -0.35819706102039034 -0.006674001131861455
vn -0.873562069486271 -0.48662906002095346 -0.00902600121796711
vn 0.8639838890043878 0.5034329309929901 0.009333998749779878
vn 0.4951391012221095 -0.8686681924425816 -0.015901002468381605
vn 0.23202105894176378 -0.9725472251429733 -0.017836004996788096
vn -0.049666017693591594 -0.9985974084150774 -0.01834400700912292
vn 0.7186338308813307 -0.695272809442522 -0.012693997113810723
vn -0.3273778714478018 -0.9447335925262491 -0.017382992801980388
vn 0.8846192289586368 -0.4662371305226002 -0.008471002223996675
vn -0.00010300003932064134 -0.01836100762282291 0.9998314171849504
vn -0.5788911619173376 -0.8152662703438827 -0.015031004409891396
vn 0.9798116519730949 -0.19989092467617364 -0.0035699985796811577
vn -0.7840775952008269 -0.6205566882323673 -0.011476994125847127
vn 0.9965937271655152 0.08245197563993678 0.0016169995108113624
vn 0.933622152257136 0.35819706102039034 0.006674001131861455
vn 0.873562069486271 0.48662906002095346 0.00902600121796711
vn -0.8639838890043878 -0.5034329309929901 -0.009333998749779878
usemtl material_0_0
f 1/1/1 2/2/2 3/3/1
f 4/4/2 5/5/3 6/6/2
f 7/7/4 8/8/1 9/9/4
f 10/10/2 11/3/1 12/2/2
f 13/11/1 14/9/4 15/8/1
f 16/12/3 17/6/2 18/5/3
f 19/13/3 20/14/5 21/15/3
f 22/16/4 23/17/4 24/18/6
f 25/19/7 26/20/7 27/21/7
f 28/21/7 29/20/7 30/22/7
f 31/23/7 32/20/7 33/19/7
f 34/24/5 35/15/3 36/14/5
f 37/25/5 38/26/8 39/27/5
f 40/28/6 41/29/6 42/30/9
f 43/31/6 44/18/6 45/17/4
f 46/20/7 47/32/7 48/22/7
f 49/33/7 50/20/7 51/23/7
f 52/34/8 53/27/5 54/26/8
f 55/35/9 56/30/9 57/29/6
f 58/22/7 59/32/7 60/36/7
f 61/37/7 62/20/7 63/33/7
f 64/38/8 65/39/10 66/40/8
f 67/41/9 68/42/9 69/43/11
f 70/36/7 71/44/7 72/45/7
f 73/32/7 74/44/7 75/36/7
f 76/46/7 77/20/7 78/37/7
f 79/47/10 80/40/8 81/39/10
f 82/48/11 83/49/11 84/50/12
f 85/51/11 86/43/11 87/42/9
f 88/52/7 89/45/7 90/44/7
f 91/53/13 92/54/13 93/55/12
f 94/56/10 95/57/10 96/58/14
f 97/59/14 98/58/14 99/57/10
f 100/60/12 101/55/12 102/54/13
f 103/61/12 104/50/12 105/49/11
usemtl material_1_0
f 106/62/15 107/63/16 108/64/15
f 109/65/16 110/66/17 111/63/16
f 112/67/18 113/64/15 114/68/18
f 115/63/16 116/62/15 117/65/16
f 118/64/15 119/67/18 120/62/15
f 121/66/17 122/65/16 123/69/17
f 124/69/17 125/70/19 126/66/17
f 127/71/20 128/67/18 129/68/18
f 130/72/21 131/73/21 132/74/21
f 133/75/21 134/73/21 135/72/21
f 136/74/21 137/73/21 138/76/21
f 139/70/19 140/69/17 141/77/19
f 142/77/19 143/78/22 144/70/19
f 145/79/23 146/80/20 147/71/20
f 148/67/18 149/71/20 150/80/20
f 151/75/21 152/81/21 153/73/21
f 154/76/21 155/73/21 156/82/21
f 157/78/22 158/77/19 159/83/22
f 160/80/20 161/79/23 162/84/23
f 163/85/21 164/81/21 165/75/21
f 166/82/21 167/73/21 168/86/21
f 169/83/22 170/87/24 171/78/22
f 172/88/25 173/84/23 174/79/23
f 175/89/21 176/90/21 177/85/21
f 178/85/21 179/90/21 180/81/21
f 181/86/21 182/73/21 183/91/21
f 184/87/24 185/83/22 186/92/24
f 187/93/26 188/94/25 189/88/25
f 190/84/23 191/88/25 192/94/25
f 193/90/21 194/89/21 195/95/21
f 196/96/26 197/97/27 198/98/27
f 199/99/28 200/87/24 201/92/24
f 202/87/24 203/99/28 204/100/28
f 205/97/27 206/96/26 207/93/26
f 208/94/25 209/93/26 210/96/26
