# SSTK version 0.8.0
# 117
mtllib original-117.mtl
o #ID597
v -0.040901 0.268380 0.680471
v -0.042588 0.268095 0.680471
v -0.042588 0.268445 0.680471
v -0.041703 0.267795 0.680471
v -0.041489 0.267548 0.680471
v -0.040432 0.264941 0.680471
v -0.040165 0.267626 0.680471
v -0.040061 0.267824 0.680471
v -0.039215 0.268445 0.680471
v -0.039375 0.268053 0.680471
v -0.039215 0.268095 0.680471
v -0.036631 0.268427 0.680471
v -0.037059 0.268113 0.680471
v -0.037059 0.268445 0.680471
v -0.036192 0.267816 0.680471
v -0.035455 0.268380 0.680471
v -0.036103 0.267631 0.680471
v -0.040147 0.267495 0.680471
v -0.038550 0.259840 0.680471
v -0.039257 0.264922 0.680471
v -0.038130 0.261815 0.680471
v -0.038158 0.259840 0.680471
v -0.037201 0.262465 0.680471
v -0.036852 0.265314 0.680471
v -0.035378 0.267299 0.680471
v -0.036115 0.267548 0.680471
v -0.035203 0.267637 0.680471
v -0.035034 0.267830 0.680471
v -0.034250 0.268445 0.680471
v -0.034250 0.268113 0.680471
vn 0 0 -1
vn 0 0 1
usemtl material_0_2
f 1//1 2//1 3//1
f 3//2 2//2 1//2
f 2//1 1//1 4//1
f 4//2 1//2 2//2
f 4//1 1//1 5//1
f 5//2 1//2 4//2
f 5//1 1//1 6//1
f 6//2 1//2 5//2
f 6//1 1//1 7//1
f 7//2 1//2 6//2
f 7//1 1//1 8//1
f 8//2 1//2 7//2
f 8//1 1//1 9//1
f 9//2 1//2 8//2
f 8//1 9//1 10//1
f 10//2 9//2 8//2
f 10//1 9//1 11//1
f 11//2 9//2 10//2
f 12//1 13//1 14//1
f 14//2 13//2 12//2
f 13//1 12//1 15//1
f 15//2 12//2 13//2
f 15//1 12//1 16//1
f 16//2 12//2 15//2
f 15//1 16//1 17//1
f 17//2 16//2 15//2
f 6//1 18//1 19//1
f 19//2 18//2 6//2
f 18//1 6//1 7//1
f 7//2 6//2 18//2
f 19//1 18//1 20//1
f 20//2 18//2 19//2
f 19//1 20//1 21//1
f 21//2 20//2 19//2
f 19//1 21//1 22//1
f 22//2 21//2 19//2
f 22//1 21//1 23//1
f 23//2 21//2 22//2
f 23//1 21//1 24//1
f 24//2 21//2 23//2
f 23//1 24//1 25//1
f 25//2 24//2 23//2
f 25//1 24//1 26//1
f 26//2 24//2 25//2
f 25//1 26//1 17//1
f 17//2 26//2 25//2
f 25//1 17//1 16//1
f 16//2 17//2 25//2
f 25//1 16//1 27//1
f 27//2 16//2 25//2
f 27//1 16//1 28//1
f 28//2 16//2 27//2
f 28//1 16//1 29//1
f 29//2 16//2 28//2
f 28//1 29//1 30//1
f 30//2 29//2 28//2
