# SSTK version 0.8.0
# 160
mtllib original-160.mtl
o #ID914
v 0.065479 0.279837 0.680211
v 0.064817 0.278829 0.680211
v 0.064893 0.272569 0.680211
v 0.060042 0.279942 0.680211
v 0.062710 0.278829 0.680211
v 0.061433 0.278701 0.680211
v 0.061049 0.278272 0.680211
v 0.060470 0.276232 0.680211
v 0.059756 0.276232 0.680211
v 0.071486 0.279942 0.680211
v 0.071077 0.276232 0.680211
v 0.071809 0.276232 0.680211
v 0.070582 0.278020 0.680211
v 0.070359 0.278453 0.680211
v 0.070107 0.278705 0.680211
v 0.069393 0.278819 0.680211
v 0.068984 0.278829 0.680211
v 0.066720 0.278829 0.680211
v 0.066682 0.274320 0.680211
v 0.066064 0.266548 0.680211
v 0.064817 0.267889 0.680211
v 0.064675 0.267499 0.680211
v 0.062705 0.266443 0.680211
v 0.063105 0.267090 0.680211
v 0.062705 0.267004 0.680211
v 0.068423 0.267118 0.680211
v 0.068927 0.266443 0.680211
v 0.068927 0.267004 0.680211
v 0.066920 0.267489 0.680211
v 0.066791 0.267703 0.680211
v 0.066720 0.269811 0.680211
v 0.066682 0.274320 0.680211
v 0.066720 0.269811 0.680211
v 0.066064 0.266548 0.680211
v 0.066791 0.267703 0.680211
v 0.066920 0.267489 0.680211
v 0.068423 0.267118 0.680211
v 0.068927 0.266443 0.680211
v 0.068927 0.267004 0.680211
v 0.062705 0.267004 0.680211
v 0.063105 0.267090 0.680211
v 0.062705 0.266443 0.680211
v 0.064675 0.267499 0.680211
v 0.064893 0.272569 0.680211
v 0.065479 0.279837 0.680211
v 0.064817 0.267889 0.680211
v 0.066720 0.278829 0.680211
v 0.068984 0.278829 0.680211
v 0.069393 0.278819 0.680211
v 0.070107 0.278705 0.680211
v 0.071486 0.279942 0.680211
v 0.070359 0.278453 0.680211
v 0.070582 0.278020 0.680211
v 0.071077 0.276232 0.680211
v 0.071809 0.276232 0.680211
v 0.059756 0.276232 0.680211
v 0.060042 0.279942 0.680211
v 0.060470 0.276232 0.680211
v 0.061049 0.278272 0.680211
v 0.061433 0.278701 0.680211
v 0.062710 0.278829 0.680211
v 0.064817 0.278829 0.680211
vn 0 0 1
vn 0 0 -1
usemtl material_0_0
f 1//1 2//1 3//1
f 2//1 1//1 4//1
f 2//1 4//1 5//1
f 5//1 4//1 6//1
f 6//1 4//1 7//1
f 7//1 4//1 8//1
f 8//1 4//1 9//1
f 10//1 11//1 12//1
f 11//1 10//1 13//1
f 13//1 10//1 14//1
f 14//1 10//1 15//1
f 15//1 10//1 1//1
f 15//1 1//1 16//1
f 16//1 1//1 17//1
f 17//1 1//1 18//1
f 18//1 1//1 19//1
f 19//1 1//1 20//1
f 20//1 1//1 21//1
f 20//1 21//1 22//1
f 20//1 22//1 23//1
f 21//1 1//1 3//1
f 23//1 22//1 24//1
f 23//1 24//1 25//1
f 26//1 27//1 28//1
f 27//1 26//1 20//1
f 20//1 26//1 29//1
f 20//1 29//1 30//1
f 20//1 30//1 31//1
f 20//1 31//1 19//1
usemtl material_1_0
f 32//2 33//2 34//2
f 33//2 35//2 34//2
f 35//2 36//2 34//2
f 36//2 37//2 34//2
f 34//2 37//2 38//2
f 39//2 38//2 37//2
f 40//2 41//2 42//2
f 41//2 43//2 42//2
f 44//2 45//2 46//2
f 42//2 43//2 34//2
f 43//2 46//2 34//2
f 46//2 45//2 34//2
f 34//2 45//2 32//2
f 32//2 45//2 47//2
f 47//2 45//2 48//2
f 48//2 45//2 49//2
f 49//2 45//2 50//2
f 45//2 51//2 50//2
f 50//2 51//2 52//2
f 52//2 51//2 53//2
f 53//2 51//2 54//2
f 55//2 54//2 51//2
f 56//2 57//2 58//2
f 58//2 57//2 59//2
f 59//2 57//2 60//2
f 60//2 57//2 61//2
f 61//2 57//2 62//2
f 57//2 45//2 62//2
f 44//2 62//2 45//2
