# SSTK version 0.8.0
# 82
mtllib original-82.mtl
o #ID391
v -0.103785 0.249534 0.680341
v -0.103822 0.248649 0.680341
v -0.103931 0.248959 0.680341
v -0.103539 0.248531 0.680341
v -0.103348 0.250661 0.680341
v -0.103326 0.248620 0.680341
v -0.102302 0.253063 0.680341
v -0.103175 0.248886 0.680341
v -0.102498 0.250306 0.680341
v -0.101749 0.251455 0.680341
v -0.101647 0.252499 0.680341
v -0.101328 0.255065 0.680341
v -0.101207 0.253518 0.680341
v -0.099244 0.258842 0.680341
v -0.100363 0.255156 0.680341
v -0.098407 0.258496 0.680341
v -0.098816 0.259479 0.680341
v -0.098489 0.259643 0.680341
v -0.098207 0.259470 0.680341
v -0.098188 0.258881 0.680341
v -0.098116 0.259179 0.680341
v -0.100928 0.252331 0.680341
v -0.100300 0.253673 0.680341
v -0.100036 0.252936 0.680341
v -0.099558 0.254123 0.680341
v -0.099654 0.252089 0.680341
v -0.098989 0.253045 0.680341
v -0.099062 0.254274 0.680341
v -0.098762 0.254146 0.680341
v -0.098696 0.253495 0.680341
v -0.098598 0.253809 0.680341
v -0.101285 0.250554 0.680341
v -0.101319 0.249223 0.680341
v -0.101428 0.249687 0.680341
v -0.101091 0.248970 0.680341
v -0.100855 0.251534 0.680341
v -0.100755 0.248886 0.680341
v -0.100482 0.250260 0.680341
v -0.100136 0.251225 0.680341
v -0.100359 0.248966 0.680341
v -0.100423 0.250076 0.680341
v -0.100245 0.250015 0.680341
v -0.099917 0.249205 0.680341
v -0.099957 0.250124 0.680341
v -0.099585 0.250451 0.680341
v -0.099276 0.249771 0.680341
v -0.098589 0.251762 0.680341
v -0.098662 0.250542 0.680341
v -0.098143 0.251382 0.680341
v -0.098364 0.252028 0.680341
v -0.098161 0.252117 0.680341
v -0.098018 0.252062 0.680341
v -0.097970 0.251898 0.680341
vn 0 0 -1
vn 0 0 1
usemtl material_0_2
f 1//1 2//1 3//1
f 3//2 2//2 1//2
f 2//1 1//1 4//1
f 4//2 1//2 2//2
f 4//1 1//1 5//1
f 5//2 1//2 4//2
f 4//1 5//1 6//1
f 6//2 5//2 4//2
f 6//1 5//1 7//1
f 7//2 5//2 6//2
f 6//1 7//1 8//1
f 8//2 7//2 6//2
f 8//1 7//1 9//1
f 9//2 7//2 8//2
f 9//1 7//1 10//1
f 10//2 7//2 9//2
f 10//1 7//1 11//1
f 11//2 7//2 10//2
f 11//1 7//1 12//1
f 12//2 7//2 11//2
f 11//1 12//1 13//1
f 13//2 12//2 11//2
f 13//1 12//1 14//1
f 14//2 12//2 13//2
f 13//1 14//1 15//1
f 15//2 14//2 13//2
f 15//1 14//1 16//1
f 16//2 14//2 15//2
f 16//1 14//1 17//1
f 17//2 14//2 16//2
f 16//1 17//1 18//1
f 18//2 17//2 16//2
f 16//1 18//1 19//1
f 19//2 18//2 16//2
f 16//1 19//1 20//1
f 20//2 19//2 16//2
f 20//1 19//1 21//1
f 21//2 19//2 20//2
f 11//1 22//1 10//1
f 10//2 22//2 11//2
f 22//1 11//1 23//1
f 23//2 11//2 22//2
f 22//1 23//1 24//1
f 24//2 23//2 22//2
f 24//1 23//1 25//1
f 25//2 23//2 24//2
f 24//1 25//1 26//1
f 26//2 25//2 24//2
f 26//1 25//1 27//1
f 27//2 25//2 26//2
f 27//1 25//1 28//1
f 28//2 25//2 27//2
f 27//1 28//1 29//1
f 29//2 28//2 27//2
f 27//1 29//1 30//1
f 30//2 29//2 27//2
f 30//1 29//1 31//1
f 31//2 29//2 30//2
f 32//1 33//1 34//1
f 34//2 33//2 32//2
f 33//1 32//1 35//1
f 35//2 32//2 33//2
f 35//1 32//1 36//1
f 36//2 32//2 35//2
f 35//1 36//1 37//1
f 37//2 36//2 35//2
f 37//1 36//1 24//1
f 24//2 36//2 37//2
f 37//1 24//1 38//1
f 38//2 24//2 37//2
f 38//1 24//1 39//1
f 39//2 24//2 38//2
f 39//1 24//1 26//1
f 26//2 24//2 39//2
f 38//1 40//1 37//1
f 37//2 40//2 38//2
f 40//1 38//1 41//1
f 41//2 38//2 40//2
f 40//1 41//1 42//1
f 42//2 41//2 40//2
f 40//1 42//1 43//1
f 43//2 42//2 40//2
f 43//1 42//1 44//1
f 44//2 42//2 43//2
f 43//1 44//1 45//1
f 45//2 44//2 43//2
f 43//1 45//1 46//1
f 46//2 45//2 43//2
f 46//1 45//1 47//1
f 47//2 45//2 46//2
f 46//1 47//1 48//1
f 48//2 47//2 46//2
f 48//1 47//1 49//1
f 49//2 47//2 48//2
f 49//1 47//1 50//1
f 50//2 47//2 49//2
f 49//1 50//1 51//1
f 51//2 50//2 49//2
f 49//1 51//1 52//1
f 52//2 51//2 49//2
f 49//1 52//1 53//1
f 53//2 52//2 49//2
