# SSTK version 0.8.0
# 110
mtllib original-110.mtl
o #ID555
v 0.013254 0.275316 0.680471
v 0.012999 0.274906 0.680471
v 0.012999 0.275257 0.680471
v 0.014679 0.274972 0.680471
v 0.013866 0.275460 0.680471
v 0.014133 0.275583 0.680471
v 0.014241 0.275870 0.680471
v 0.014281 0.276397 0.680471
v 0.014311 0.277733 0.680471
v 0.014341 0.281279 0.680471
v 0.020773 0.275340 0.680471
v 0.020422 0.274906 0.680471
v 0.020422 0.275257 0.680471
v 0.022388 0.274972 0.680471
v 0.021601 0.275533 0.680471
v 0.021741 0.275690 0.680471
v 0.021794 0.276652 0.680471
v 0.014276 0.283268 0.680471
v 0.012767 0.282983 0.680471
v 0.012767 0.283334 0.680471
v 0.013100 0.282912 0.680471
v 0.014109 0.282704 0.680471
v 0.014281 0.282547 0.680471
v 0.015541 0.283334 0.680471
v 0.014335 0.282003 0.680471
v 0.014988 0.281837 0.680471
v 0.018246 0.274972 0.680471
v 0.015932 0.282383 0.680471
v 0.017479 0.279049 0.680471
v 0.018641 0.276649 0.680471
v 0.018584 0.274972 0.680471
v 0.019355 0.276688 0.680471
v 0.021176 0.281985 0.680471
v 0.021794 0.281837 0.680471
v 0.021728 0.283334 0.680471
v 0.022946 0.283268 0.680471
v 0.022928 0.282074 0.680471
v 0.022905 0.280115 0.680471
v 0.022967 0.282465 0.680471
v 0.023083 0.282674 0.680471
v 0.024270 0.283334 0.680471
v 0.024003 0.282918 0.680471
v 0.024270 0.282983 0.680471
v 0.022928 0.281997 0.680471
v 0.023026 0.275566 0.680471
v 0.024270 0.274906 0.680471
v 0.022934 0.275803 0.680471
v 0.024039 0.275310 0.680471
v 0.024270 0.275257 0.680471
v 0.015172 0.275548 0.680471
v 0.016342 0.274906 0.680471
v 0.015092 0.275784 0.680471
v 0.015065 0.276302 0.680471
v 0.015450 0.275442 0.680471
v 0.016069 0.275316 0.680471
v 0.016342 0.275257 0.680471
vn 0 0 -1
vn 0 0 1
usemtl material_0_2
f 1//1 2//1 3//1
f 3//2 2//2 1//2
f 2//1 1//1 4//1
f 4//2 1//2 2//2
f 4//1 1//1 5//1
f 5//2 1//2 4//2
f 4//1 5//1 6//1
f 6//2 5//2 4//2
f 4//1 6//1 7//1
f 7//2 6//2 4//2
f 4//1 7//1 8//1
f 8//2 7//2 4//2
f 4//1 8//1 9//1
f 9//2 8//2 4//2
f 4//1 9//1 10//1
f 10//2 9//2 4//2
f 11//1 12//1 13//1
f 13//2 12//2 11//2
f 12//1 11//1 14//1
f 14//2 11//2 12//2
f 14//1 11//1 15//1
f 15//2 11//2 14//2
f 14//1 15//1 16//1
f 16//2 15//2 14//2
f 14//1 16//1 17//1
f 17//2 16//2 14//2
f 18//1 19//1 20//1
f 20//2 19//2 18//2
f 19//1 18//1 21//1
f 21//2 18//2 19//2
f 21//1 18//1 22//1
f 22//2 18//2 21//2
f 22//1 18//1 23//1
f 23//2 18//2 22//2
f 23//1 18//1 24//1
f 24//2 18//2 23//2
f 23//1 24//1 25//1
f 25//2 24//2 23//2
f 25//1 24//1 10//1
f 10//2 24//2 25//2
f 10//1 24//1 26//1
f 26//2 24//2 10//2
f 10//1 26//1 4//1
f 4//2 26//2 10//2
f 26//1 24//1 27//1
f 27//2 24//2 26//2
f 27//1 24//1 28//1
f 28//2 24//2 27//2
f 27//1 28//1 29//1
f 29//2 28//2 27//2
f 27//1 29//1 30//1
f 30//2 29//2 27//2
f 27//1 30//1 31//1
f 31//2 30//2 27//2
f 31//1 30//1 32//1
f 32//2 30//2 31//2
f 32//1 30//1 33//1
f 33//2 30//2 32//2
f 32//1 33//1 34//1
f 34//2 33//2 32//2
f 34//1 33//1 35//1
f 35//2 33//2 34//2
f 34//1 35//1 36//1
f 36//2 35//2 34//2
f 34//1 36//1 17//1
f 17//2 36//2 34//2
f 17//1 36//1 14//1
f 14//2 36//2 17//2
f 14//1 36//1 37//1
f 37//2 36//2 14//2
f 14//1 37//1 38//1
f 38//2 37//2 14//2
f 37//1 36//1 39//1
f 39//2 36//2 37//2
f 39//1 36//1 40//1
f 40//2 36//2 39//2
f 40//1 36//1 41//1
f 41//2 36//2 40//2
f 40//1 41//1 42//1
f 42//2 41//2 40//2
f 42//1 41//1 43//1
f 43//2 41//2 42//2
f 44//1 38//1 37//1
f 37//2 38//2 44//2
f 14//1 45//1 46//1
f 46//2 45//2 14//2
f 45//1 14//1 47//1
f 47//2 14//2 45//2
f 47//1 14//1 38//1
f 38//2 14//2 47//2
f 46//1 45//1 48//1
f 48//2 45//2 46//2
f 46//1 48//1 49//1
f 49//2 48//2 46//2
f 4//1 50//1 51//1
f 51//2 50//2 4//2
f 50//1 4//1 52//1
f 52//2 4//2 50//2
f 52//1 4//1 53//1
f 53//2 4//2 52//2
f 53//1 4//1 26//1
f 26//2 4//2 53//2
f 51//1 50//1 54//1
f 54//2 50//2 51//2
f 51//1 54//1 55//1
f 55//2 54//2 51//2
f 51//1 55//1 56//1
f 56//2 55//2 51//2
