# SSTK version 0.8.0
# 92
mtllib original-92.mtl
o #ID447
v -0.056379 0.294732 0.680471
v -0.056391 0.292838 0.680471
v -0.056461 0.293744 0.680471
v -0.056180 0.292033 0.680471
v -0.056132 0.295622 0.680471
v -0.055829 0.291328 0.680471
v -0.055721 0.296414 0.680471
v -0.055338 0.290724 0.680471
v -0.055145 0.297108 0.680471
v -0.055196 0.293982 0.680471
v -0.055155 0.294669 0.680471
v -0.055034 0.295300 0.680471
v -0.054433 0.297674 0.680471
v -0.054832 0.295875 0.680471
v -0.054549 0.296393 0.680471
v -0.054028 0.297001 0.680471
v -0.053612 0.298077 0.680471
v -0.053393 0.297435 0.680471
v -0.052683 0.298319 0.680471
v -0.052644 0.297696 0.680471
v -0.051644 0.298400 0.680471
v -0.051781 0.297782 0.680471
v -0.050979 0.297714 0.680471
v -0.050599 0.298335 0.680471
v -0.050237 0.297509 0.680471
v -0.048568 0.297973 0.680471
v -0.049772 0.297278 0.680471
v -0.049456 0.296987 0.680471
v -0.049207 0.296492 0.680471
v -0.048942 0.295650 0.680471
v -0.048574 0.297450 0.680471
v -0.048497 0.295650 0.680471
v -0.048675 0.294095 0.680471
v -0.048354 0.293287 0.680471
v -0.048402 0.291951 0.680471
v -0.048265 0.293486 0.680471
v -0.047149 0.294136 0.680471
v -0.048057 0.293590 0.680471
v -0.047149 0.293809 0.680471
v -0.050706 0.293809 0.680471
v -0.050706 0.294136 0.680471
v -0.050475 0.293756 0.680471
v -0.049667 0.293536 0.680471
v -0.049524 0.293352 0.680471
v -0.049489 0.292562 0.680471
v -0.049477 0.289973 0.680471
v -0.048354 0.290211 0.680471
v -0.055132 0.293122 0.680471
v -0.054717 0.290240 0.680471
v -0.054940 0.292374 0.680471
v -0.054620 0.291736 0.680471
v -0.053974 0.289894 0.680471
v -0.054171 0.291208 0.680471
v -0.053626 0.290795 0.680471
v -0.053110 0.289686 0.680471
v -0.053013 0.290500 0.680471
v -0.052126 0.289617 0.680471
v -0.052332 0.290323 0.680471
v -0.051585 0.290264 0.680471
v -0.050902 0.289688 0.680471
v -0.050574 0.290368 0.680471
v -0.049512 0.290680 0.680471
vn 0 0 -1
vn 0 0 1
usemtl material_0_2
f 1//1 2//1 3//1
f 3//2 2//2 1//2
f 2//1 1//1 4//1
f 4//2 1//2 2//2
f 4//1 1//1 5//1
f 5//2 1//2 4//2
f 4//1 5//1 6//1
f 6//2 5//2 4//2
f 6//1 5//1 7//1
f 7//2 5//2 6//2
f 6//1 7//1 8//1
f 8//2 7//2 6//2
f 8//1 7//1 9//1
f 9//2 7//2 8//2
f 8//1 9//1 10//1
f 10//2 9//2 8//2
f 10//1 9//1 11//1
f 11//2 9//2 10//2
f 11//1 9//1 12//1
f 12//2 9//2 11//2
f 12//1 9//1 13//1
f 13//2 9//2 12//2
f 12//1 13//1 14//1
f 14//2 13//2 12//2
f 14//1 13//1 15//1
f 15//2 13//2 14//2
f 15//1 13//1 16//1
f 16//2 13//2 15//2
f 16//1 13//1 17//1
f 17//2 13//2 16//2
f 16//1 17//1 18//1
f 18//2 17//2 16//2
f 18//1 17//1 19//1
f 19//2 17//2 18//2
f 18//1 19//1 20//1
f 20//2 19//2 18//2
f 20//1 19//1 21//1
f 21//2 19//2 20//2
f 20//1 21//1 22//1
f 22//2 21//2 20//2
f 22//1 21//1 23//1
f 23//2 21//2 22//2
f 23//1 21//1 24//1
f 24//2 21//2 23//2
f 23//1 24//1 25//1
f 25//2 24//2 23//2
f 25//1 24//1 26//1
f 26//2 24//2 25//2
f 25//1 26//1 27//1
f 27//2 26//2 25//2
f 27//1 26//1 28//1
f 28//2 26//2 27//2
f 28//1 26//1 29//1
f 29//2 26//2 28//2
f 29//1 26//1 30//1
f 30//2 26//2 29//2
f 30//1 26//1 31//1
f 31//2 26//2 30//2
f 32//1 30//1 31//1
f 31//2 30//2 32//2
f 33//1 34//1 35//1
f 35//2 34//2 33//2
f 34//1 33//1 36//1
f 36//2 33//2 34//2
f 36//1 33//1 37//1
f 37//2 33//2 36//2
f 36//1 37//1 38//1
f 38//2 37//2 36//2
f 38//1 37//1 39//1
f 39//2 37//2 38//2
f 33//1 40//1 41//1
f 41//2 40//2 33//2
f 40//1 33//1 42//1
f 42//2 33//2 40//2
f 42//1 33//1 43//1
f 43//2 33//2 42//2
f 43//1 33//1 44//1
f 44//2 33//2 43//2
f 44//1 33//1 45//1
f 45//2 33//2 44//2
f 45//1 33//1 46//1
f 46//2 33//2 45//2
f 46//1 33//1 47//1
f 47//2 33//2 46//2
f 47//1 33//1 35//1
f 35//2 33//2 47//2
f 8//1 48//1 49//1
f 49//2 48//2 8//2
f 48//1 8//1 10//1
f 10//2 8//2 48//2
f 49//1 48//1 50//1
f 50//2 48//2 49//2
f 49//1 50//1 51//1
f 51//2 50//2 49//2
f 49//1 51//1 52//1
f 52//2 51//2 49//2
f 52//1 51//1 53//1
f 53//2 51//2 52//2
f 52//1 53//1 54//1
f 54//2 53//2 52//2
f 52//1 54//1 55//1
f 55//2 54//2 52//2
f 55//1 54//1 56//1
f 56//2 54//2 55//2
f 55//1 56//1 57//1
f 57//2 56//2 55//2
f 57//1 56//1 58//1
f 58//2 56//2 57//2
f 57//1 58//1 59//1
f 59//2 58//2 57//2
f 57//1 59//1 60//1
f 60//2 59//2 57//2
f 60//1 59//1 61//1
f 61//2 59//2 60//2
f 60//1 61//1 46//1
f 46//2 61//2 60//2
f 46//1 61//1 62//1
f 62//2 61//2 46//2
f 46//1 62//1 45//1
f 45//2 62//2 46//2
