# SSTK version 0.8.0
# 27
mtllib original-27.mtl
o #ID34
v 0.078112 0.206078 -0.351356
v 0.084882 0.206119 -0.367252
v 0.084882 0.206119 -0.351356
v 0.084882 0.206119 -0.377356
v 0.078112 0.206078 -0.377356
v 0.097309 0.206195 -0.351356
v 0.097242 0.206195 -0.361426
v 0.097309 0.206195 -0.361426
v 0.084957 0.206120 -0.367252
v 0.104079 0.206237 -0.377356
v 0.104079 0.206237 -0.351356
v 0.097309 0.206195 -0.377356
vn 0.006113955524208948 -0.9999813095992586 0
vn -0.006113955524208948 0.9999813095992586 0
usemtl material_0_2
f 1//1 2//1 3//1
f 3//2 2//2 1//2
f 2//1 1//1 4//1
f 4//2 1//2 2//2
f 4//1 1//1 5//1
f 5//2 1//2 4//2
f 6//1 7//1 8//1
f 8//2 7//2 6//2
f 7//1 6//1 9//1
f 9//2 6//2 7//2
f 7//1 9//1 4//1
f 4//2 9//2 7//2
f 4//1 9//1 2//1
f 2//2 9//2 4//2
f 6//1 10//1 11//1
f 11//2 10//2 6//2
f 10//1 6//1 12//1
f 12//2 6//2 10//2
f 12//1 6//1 8//1
f 8//2 6//2 12//2
