# SSTK version 0.8.0
# 98
mtllib original-98.mtl
o #ID483
v -0.006023 0.290205 0.680471
v -0.006302 0.289795 0.680471
v -0.006302 0.290145 0.680471
v -0.004770 0.289860 0.680471
v -0.005067 0.290454 0.680471
v -0.004978 0.290757 0.680471
v -0.004930 0.293887 0.680471
v -0.004295 0.298157 0.680471
v -0.006302 0.297872 0.680471
v -0.006302 0.298222 0.680471
v -0.006053 0.297812 0.680471
v -0.005144 0.297589 0.680471
v -0.005019 0.297474 0.680471
v -0.004942 0.296512 0.680471
v -0.004158 0.289833 0.680471
v -0.003778 0.297581 0.680471
v -0.003045 0.298180 0.680471
v -0.003855 0.295122 0.680471
v -0.002638 0.297670 0.680471
v -0.002038 0.298204 0.680471
v -0.001851 0.297598 0.680471
v -0.001468 0.298172 0.680471
v -0.001320 0.297385 0.680471
v -0.000977 0.298076 0.680471
v -0.001073 0.297161 0.680471
v -0.000896 0.296889 0.680471
v -0.000563 0.297917 0.680471
v -0.000791 0.296567 0.680471
v -0.000755 0.296197 0.680471
v -0.003255 0.294475 0.680471
v -0.003844 0.293970 0.680471
v -0.003849 0.294481 0.680471
v -0.002911 0.293982 0.680471
v -0.002389 0.294516 0.680471
v -0.002089 0.293948 0.680471
v -0.001791 0.294641 0.680471
v -0.001524 0.293845 0.680471
v -0.001371 0.294870 0.680471
v -0.001391 0.294314 0.680471
v -0.000862 0.294516 0.680471
v -0.001041 0.295226 0.680471
v -0.000827 0.295678 0.680471
v -0.000488 0.294730 0.680471
v -0.000227 0.297693 0.680471
v -0.000130 0.295069 0.680471
v 0.000030 0.297418 0.680471
v 0.000138 0.295481 0.680471
v 0.000214 0.297107 0.680471
v 0.000305 0.295930 0.680471
v 0.000324 0.296761 0.680471
v 0.000361 0.296381 0.680471
v -0.001120 0.293645 0.680471
v -0.000824 0.294244 0.680471
v -0.000779 0.293317 0.680471
v -0.000405 0.294130 0.680471
v -0.000548 0.292865 0.680471
v -0.000470 0.292295 0.680471
v -0.003844 0.290436 0.680471
v -0.002988 0.289795 0.680471
v -0.002703 0.290341 0.680471
v -0.002214 0.289828 0.680471
v -0.002175 0.290374 0.680471
v -0.001541 0.289926 0.680471
v -0.001719 0.290472 0.680471
v -0.001335 0.290635 0.680471
v -0.000970 0.290089 0.680471
v -0.001023 0.290864 0.680471
v -0.000781 0.291149 0.680471
v -0.000500 0.290317 0.680471
v -0.000608 0.291483 0.680471
v -0.000505 0.291865 0.680471
v 0.000040 0.290735 0.680471
v 0.000064 0.293861 0.680471
v 0.000426 0.291222 0.680471
v 0.000426 0.293483 0.680471
v 0.000658 0.291777 0.680471
v 0.000658 0.292996 0.680471
v 0.000735 0.292402 0.680471
vn 0 0 -1
vn 0 0 1
usemtl material_0_2
f 1//1 2//1 3//1
f 3//2 2//2 1//2
f 2//1 1//1 4//1
f 4//2 1//2 2//2
f 4//1 1//1 5//1
f 5//2 1//2 4//2
f 4//1 5//1 6//1
f 6//2 5//2 4//2
f 4//1 6//1 7//1
f 7//2 6//2 4//2
f 8//1 9//1 10//1
f 10//2 9//2 8//2
f 9//1 8//1 11//1
f 11//2 8//2 9//2
f 11//1 8//1 12//1
f 12//2 8//2 11//2
f 12//1 8//1 13//1
f 13//2 8//2 12//2
f 13//1 8//1 14//1
f 14//2 8//2 13//2
f 14//1 8//1 7//1
f 7//2 8//2 14//2
f 7//1 8//1 4//1
f 4//2 8//2 7//2
f 4//1 8//1 15//1
f 15//2 8//2 4//2
f 15//1 8//1 16//1
f 16//2 8//2 15//2
f 16//1 8//1 17//1
f 17//2 8//2 16//2
f 15//1 16//1 18//1
f 18//2 16//2 15//2
f 16//1 17//1 19//1
f 19//2 17//2 16//2
f 19//1 17//1 20//1
f 20//2 17//2 19//2
f 19//1 20//1 21//1
f 21//2 20//2 19//2
f 21//1 20//1 22//1
f 22//2 20//2 21//2
f 21//1 22//1 23//1
f 23//2 22//2 21//2
f 23//1 22//1 24//1
f 24//2 22//2 23//2
f 23//1 24//1 25//1
f 25//2 24//2 23//2
f 25//1 24//1 26//1
f 26//2 24//2 25//2
f 26//1 24//1 27//1
f 27//2 24//2 26//2
f 26//1 27//1 28//1
f 28//2 27//2 26//2
f 28//1 27//1 29//1
f 29//2 27//2 28//2
f 30//1 31//1 32//1
f 32//2 31//2 30//2
f 31//1 30//1 33//1
f 33//2 30//2 31//2
f 33//1 30//1 34//1
f 34//2 30//2 33//2
f 33//1 34//1 35//1
f 35//2 34//2 33//2
f 35//1 34//1 36//1
f 36//2 34//2 35//2
f 35//1 36//1 37//1
f 37//2 36//2 35//2
f 37//1 36//1 38//1
f 38//2 36//2 37//2
f 37//1 38//1 39//1
f 39//2 38//2 37//2
f 39//1 38//1 40//1
f 40//2 38//2 39//2
f 40//1 38//1 41//1
f 41//2 38//2 40//2
f 40//1 41//1 42//1
f 42//2 41//2 40//2
f 40//1 42//1 43//1
f 43//2 42//2 40//2
f 43//1 42//1 29//1
f 29//2 42//2 43//2
f 43//1 29//1 27//1
f 27//2 29//2 43//2
f 43//1 27//1 44//1
f 44//2 27//2 43//2
f 43//1 44//1 45//1
f 45//2 44//2 43//2
f 45//1 44//1 46//1
f 46//2 44//2 45//2
f 45//1 46//1 47//1
f 47//2 46//2 45//2
f 47//1 46//1 48//1
f 48//2 46//2 47//2
f 47//1 48//1 49//1
f 49//2 48//2 47//2
f 49//1 48//1 50//1
f 50//2 48//2 49//2
f 49//1 50//1 51//1
f 51//2 50//2 49//2
f 39//1 52//1 37//1
f 37//2 52//2 39//2
f 52//1 39//1 53//1
f 53//2 39//2 52//2
f 52//1 53//1 54//1
f 54//2 53//2 52//2
f 54//1 53//1 55//1
f 55//2 53//2 54//2
f 54//1 55//1 56//1
f 56//2 55//2 54//2
f 56//1 55//1 57//1
f 57//2 55//2 56//2
f 15//1 58//1 59//1
f 59//2 58//2 15//2
f 58//1 15//1 18//1
f 18//2 15//2 58//2
f 58//1 18//1 32//1
f 32//2 18//2 58//2
f 58//1 32//1 31//1
f 31//2 32//2 58//2
f 59//1 58//1 60//1
f 60//2 58//2 59//2
f 59//1 60//1 61//1
f 61//2 60//2 59//2
f 61//1 60//1 62//1
f 62//2 60//2 61//2
f 61//1 62//1 63//1
f 63//2 62//2 61//2
f 63//1 62//1 64//1
f 64//2 62//2 63//2
f 63//1 64//1 65//1
f 65//2 64//2 63//2
f 63//1 65//1 66//1
f 66//2 65//2 63//2
f 66//1 65//1 67//1
f 67//2 65//2 66//2
f 66//1 67//1 68//1
f 68//2 67//2 66//2
f 66//1 68//1 69//1
f 69//2 68//2 66//2
f 69//1 68//1 70//1
f 70//2 68//2 69//2
f 69//1 70//1 71//1
f 71//2 70//2 69//2
f 69//1 71//1 57//1
f 57//2 71//2 69//2
f 69//1 57//1 72//1
f 72//2 57//2 69//2
f 72//1 57//1 55//1
f 55//2 57//2 72//2
f 72//1 55//1 73//1
f 73//2 55//2 72//2
f 72//1 73//1 74//1
f 74//2 73//2 72//2
f 74//1 73//1 75//1
f 75//2 73//2 74//2
f 74//1 75//1 76//1
f 76//2 75//2 74//2
f 76//1 75//1 77//1
f 77//2 75//2 76//2
f 76//1 77//1 78//1
f 78//2 77//2 76//2
