# Blender v2.93.4 OBJ File: ''
# www.blender.org
mtllib new-7-top.mtl
o new-7
v -0.035416 0.757308 0.428143
v -0.035416 0.757308 0.385688
v 0.007416 0.757308 0.385688
v -0.353449 0.757308 -0.477878
v -0.353449 0.757308 0.385688
v -0.372845 0.756037 0.385688
v 0.368282 0.757308 0.385688
v -0.391908 0.752245 0.385688
v 0.368282 0.757308 -0.477878
v 0.387677 0.756037 0.385688
v -0.372845 0.756037 -0.477878
v -0.410313 0.745997 0.385688
v 0.387677 0.756037 -0.477878
v 0.406740 0.752245 0.385688
v -0.427745 0.737401 0.385688
v -0.391908 0.752245 -0.477878
v 0.425146 0.745997 0.385688
v 0.406740 0.752245 -0.477878
v -0.443906 0.726602 0.385688
v -0.410313 0.745997 -0.477878
v 0.516874 0.608716 0.428143
v 0.516874 0.608716 0.385688
v 0.527487 0.608716 0.385688
v 0.442578 0.737401 0.385688
v 0.425146 0.745997 -0.477878
v -0.502041 0.608716 0.364461
v -0.458520 0.713787 0.385688
v -0.427745 0.737401 -0.477878
v 0.515602 0.628112 0.385688
v 0.516874 0.608716 -0.477878
v 0.516874 0.608716 0.364461
v 0.458739 0.726602 0.385688
v -0.471335 0.699173 0.385688
v -0.443906 0.726602 -0.477878
v 0.527487 0.608716 0.364461
v 0.515602 0.628112 -0.477878
v 0.511811 0.647175 -0.477878
v 0.511811 0.647175 0.385688
v 0.473352 0.713787 0.385688
v 0.442578 0.737401 -0.477878
v -0.502041 0.608716 -0.477878
v -0.471335 0.699173 -0.477878
v -0.458520 0.713787 -0.477878
v -0.500770 0.628112 0.385688
v 0.515619 0.609971 -0.477878
v 0.505563 0.665580 -0.477878
v 0.505563 0.665580 0.385688
v 0.486168 0.699173 0.385688
v 0.458739 0.726602 -0.477878
v -0.500770 0.628112 -0.477878
v -0.496978 0.647175 0.385688
v -0.482134 0.683012 -0.477878
v -0.482134 0.683012 0.385688
v -0.496978 0.647175 -0.477878
v 0.496966 0.683012 -0.477878
v 0.496966 0.683012 0.385688
v 0.473352 0.713787 -0.477878
v -0.490730 0.665580 0.385688
v -0.490730 0.665580 -0.477878
v 0.486168 0.699173 -0.477878
v -0.035416 0.727274 0.428143
v -0.035416 0.727274 0.385688
v 0.007416 0.727274 0.385688
v -0.353449 0.727274 -0.477878
v -0.353449 0.727274 0.385688
v -0.372845 0.726003 0.385688
v 0.368282 0.727274 0.385688
v -0.391908 0.722211 0.385688
v 0.368282 0.727274 -0.477878
v 0.387677 0.726003 0.385688
v -0.372845 0.726003 -0.477878
v -0.410313 0.715963 0.385688
v 0.387677 0.726003 -0.477878
v 0.406740 0.722211 0.385688
v -0.427745 0.707367 0.385688
v -0.391908 0.722211 -0.477878
v 0.425146 0.715963 0.385688
v 0.406740 0.722211 -0.477878
v -0.443906 0.696568 0.385688
v -0.410313 0.715963 -0.477878
v 0.516874 0.578682 0.428143
v 0.516874 0.578682 0.385688
v 0.527487 0.578682 0.385688
v 0.442578 0.707367 0.385688
v 0.425146 0.715963 -0.477878
v -0.502041 0.578682 0.364461
v -0.458520 0.683753 0.385688
v -0.427745 0.707367 -0.477878
v 0.515602 0.598078 0.385688
v 0.516874 0.578682 -0.477878
v 0.516874 0.578682 0.364461
v 0.458739 0.696568 0.385688
v -0.471335 0.669139 0.385688
v -0.443906 0.696568 -0.477878
v 0.527487 0.578682 0.364461
v 0.515602 0.598078 -0.477878
v 0.511811 0.617141 -0.477878
v 0.511811 0.617141 0.385688
v 0.473352 0.683753 0.385688
v 0.442578 0.707367 -0.477878
v -0.502041 0.578682 -0.477878
v -0.471335 0.669139 -0.477878
v -0.458520 0.683753 -0.477878
v -0.500770 0.598078 0.385688
v 0.515619 0.579937 -0.477878
v 0.505563 0.635546 -0.477878
v 0.505563 0.635546 0.385688
v 0.486168 0.669139 0.385688
v 0.458739 0.696568 -0.477878
v -0.500770 0.598078 -0.477878
v -0.496978 0.617141 0.385688
v -0.482134 0.652978 -0.477878
v -0.482134 0.652978 0.385688
v -0.496978 0.617141 -0.477878
v 0.496966 0.652978 -0.477878
v 0.496966 0.652978 0.385688
v 0.473352 0.683753 -0.477878
v -0.490730 0.635546 0.385688
v -0.490730 0.635546 -0.477878
v 0.486168 0.669139 -0.477878
vn -1.0000 0.0000 0.0000
vn 0.0000 0.7746 0.6325
vn 0.0000 0.5990 0.8008
vn 0.0000 1.0000 0.0000
vn 0.0000 0.0000 1.0000
vn 0.0000 -1.0000 0.0000
vn -0.0654 0.9979 0.0000
vn -0.0652 0.9957 0.0654
vn -0.1305 0.9914 -0.0015
vn 0.0000 0.0000 -1.0000
vn 0.0654 0.9979 0.0000
vn 0.0685 0.9956 -0.0637
vn 0.1915 0.9794 0.0637
vn -0.1961 0.9784 0.0654
vn -0.1947 0.9787 0.0654
vn -0.2588 0.9659 -0.0015
vn 0.1961 0.9784 -0.0654
vn 0.1979 0.9782 -0.0637
vn 0.3177 0.9461 0.0637
vn 0.1932 0.9790 0.0654
vn -0.3222 0.9444 0.0654
vn -0.3208 0.9449 0.0654
vn -0.3827 0.9239 -0.0015
vn 0.3194 0.9454 0.0654
vn 0.0145 0.4248 0.9052
vn 0.9990 0.0437 0.0000
vn 0.9969 0.0715 -0.0314
vn 0.0000 0.7071 0.7071
vn 0.5774 0.5774 0.5774
vn 0.0000 0.7071 -0.7071
vn 0.9979 0.0654 0.0000
vn 0.3827 0.9239 0.0015
vn 0.4413 0.8950 -0.0654
vn 0.4400 0.8956 -0.0654
vn -0.6568 0.7512 -0.0654
vn -0.6579 0.7503 -0.0653
vn -0.6088 0.7933 0.0015
vn -0.5556 0.8289 0.0654
vn -0.5544 0.8297 0.0654
vn -0.6088 0.7934 -0.0015
vn 0.5774 0.5774 -0.5774
vn 0.9914 0.1305 0.0015
vn 0.5000 0.8660 -0.0015
vn 0.4413 0.8950 0.0654
vn 0.4426 0.8943 0.0654
vn 1.0000 0.0009 0.0000
vn 0.9995 0.0327 0.0000
vn 0.9958 0.0638 0.0653
vn 0.6088 0.7933 0.0015
vn 0.6579 0.7502 -0.0654
vn 0.6568 0.7512 -0.0654
vn -0.8660 0.5000 0.0015
vn -0.5702 0.3310 0.7519
vn -0.7988 0.5315 0.2816
vn -0.7071 0.7071 -0.0015
vn -0.7503 0.6579 0.0654
vn -0.7493 0.6590 0.0653
vn -0.9914 0.1305 -0.0015
vn -0.9957 0.0653 0.0654
vn -0.9979 0.0654 0.0000
vn 0.9239 0.3827 -0.0015
vn 0.8949 0.4414 0.0654
vn 0.8956 0.4400 0.0654
vn 0.8660 0.5000 0.0015
vn 0.8775 0.4327 0.2068
vn 0.5095 0.2554 0.8217
vn -0.9659 0.2588 0.0015
vn -0.5280 0.1792 0.8301
vn -0.9388 0.3169 0.1351
vn -0.9440 0.3239 0.0637
vn -0.5252 0.2535 0.8123
vn 0.4599 -0.0004 0.8880
vn -0.9444 0.3222 0.0654
vn 0.0000 -0.7746 0.6325
vn 0.0000 -0.5990 0.8008
vn 0.0654 -0.9979 -0.0000
vn 0.1305 -0.9914 -0.0000
vn -0.0654 -0.9979 -0.0000
vn -0.1305 -0.9914 -0.0000
vn 0.2588 -0.9659 -0.0000
vn -0.2588 -0.9659 -0.0000
vn 0.3827 -0.9239 -0.0000
vn -0.3827 -0.9239 -0.0000
vn 0.0102 -0.6346 0.7727
vn -0.9952 -0.0641 0.0733
vn -0.9915 -0.1303 0.0000
vn 0.0000 -0.7071 0.7071
vn 0.0000 -0.7071 -0.7071
vn 0.5774 -0.5774 0.5774
vn -0.9979 -0.0654 0.0000
vn -0.5000 -0.8660 -0.0000
vn 0.7071 -0.7071 -0.0000
vn 0.6088 -0.7933 0.0000
vn 0.5000 -0.8660 -0.0000
vn 0.5774 -0.5774 -0.5774
vn -0.9914 -0.1305 0.0000
vn 1.0000 -0.0010 -0.0000
vn 0.0327 -0.9995 -0.0000
vn -0.6088 -0.7934 0.0000
vn -0.7071 -0.7071 -0.0000
vn 0.8660 -0.5000 0.0000
vn 0.4406 -0.2070 0.8735
vn 0.5445 -0.3132 0.7781
vn 0.7933 -0.6088 -0.0000
vn 0.9914 -0.1305 -0.0000
vn 0.9979 -0.0654 -0.0000
vn -0.9239 -0.3827 -0.0000
vn -0.8660 -0.5000 -0.0000
vn -0.8880 -0.3545 0.2930
vn -0.4601 -0.1418 0.8764
vn 0.9659 -0.2588 0.0000
vn 0.4608 -0.0731 0.8845
vn 0.9469 -0.2448 0.2083
vn 0.9239 -0.3827 0.0000
vn 0.8901 -0.3556 0.2851
vn 0.9991 0.0009 0.0422
vn 0.0638 -0.9958 0.0654
vn 0.1947 -0.9787 0.0654
vn 0.1932 -0.9790 0.0654
vn 0.1306 -0.9914 -0.0015
vn -0.0638 -0.9958 -0.0654
vn 0.3208 -0.9449 0.0654
vn 0.3194 -0.9454 0.0654
vn 0.2588 -0.9659 -0.0015
vn 0.4413 -0.8950 0.0654
vn 0.4413 -0.8950 -0.0654
vn -0.3208 -0.9449 0.0654
vn -0.3221 -0.9444 0.0654
vn -0.3827 -0.9239 -0.0015
vn 0.5532 -0.8305 0.0654
vn 0.4443 -0.8936 -0.0634
vn -0.6967 -0.1867 -0.6927
vn -0.9659 -0.2588 -0.0000
vn -0.4392 -0.1266 -0.8894
vn -0.5544 -0.8297 0.0654
vn -0.5544 -0.8297 -0.0654
vn 0.7503 -0.6579 0.0653
vn 0.7933 -0.6088 -0.0015
vn 0.7512 -0.6568 0.0654
vn 0.6579 -0.7503 -0.0654
vn 0.6590 -0.7493 -0.0653
vn 0.7071 -0.7071 0.0015
vn 0.9994 -0.0250 -0.0220
vn 0.6823 -0.0788 -0.7268
vn -0.9787 -0.1946 -0.0653
vn -0.9449 -0.3208 -0.0654
vn -0.9375 -0.3154 -0.1468
vn 0.9787 -0.1947 -0.0654
vn 0.9790 -0.1937 -0.0635
vn 0.8297 -0.5544 -0.0654
vn 0.7934 -0.6088 0.0015
vn 0.8289 -0.5556 -0.0654
vn -0.7482 -0.6605 0.0634
vn -0.7797 -0.5983 -0.1847
vn -0.6590 -0.7493 -0.0654
vn 0.8950 -0.4413 -0.0654
vn 0.8660 -0.5000 0.0015
vn 0.8943 -0.4426 -0.0654
vn -0.8297 -0.5544 -0.0654
vn -0.4077 -0.3211 -0.8548
vn -0.7934 -0.6088 -0.0000
vn -0.1305 0.9914 -0.0000
vn -0.2588 0.9659 -0.0000
vn 0.1305 0.9914 0.0000
vn -0.3827 0.9239 -0.0000
vn -0.5000 0.8660 0.0000
vn 0.3827 0.9239 -0.0000
vn 0.2588 0.9659 -0.0000
vn -0.6088 0.7933 -0.0000
vn 0.6682 0.1790 -0.7221
vn 0.9832 0.1336 -0.1243
vn 0.9659 0.2588 0.0000
vn 0.5000 0.8660 -0.0000
vn 0.6088 0.7933 -0.0000
vn -0.7933 0.6088 -0.0000
vn -0.7071 0.7071 -0.0000
vn 0.0340 0.9528 -0.3017
vn 0.0948 0.6956 -0.7122
vn 0.9914 0.1305 0.0000
vn 0.9239 0.3827 0.0000
vn 0.4193 0.1721 -0.8914
vn -0.4263 0.1083 -0.8981
vn -0.9914 0.1305 0.0000
vn -0.8660 0.5000 0.0000
vn 0.7071 0.7071 -0.0000
vn 0.6152 0.4721 -0.6314
vn 0.6088 0.7934 0.0000
vn -0.9659 0.2588 0.0000
vn -0.9239 0.3827 0.0000
vn 0.8660 0.5000 0.0000
vn 0.7934 0.6088 0.0000
vn 0.8052 0.4754 -0.3544
usemtl material-0.002
s off
f 1//1 2//1 62//1 61//1
s 1
f 2//2 3//3 4//4
f 5//4 2//4 4//4
f 5//5 6//5 2//5
f 7//6 3//6 4//6
f 6//5 8//5 2//5
f 4//6 9//6 7//6
f 7//5 3//5 10//5
f 4//7 11//8 6//9
f 8//5 12//5 2//5
f 11//10 4//10 9//10
f 3//10 10//10 14//10
f 7//11 10//12 13//13
f 12//5 15//5 2//5
f 11//14 16//15 8//16
f 9//5 11//5 13//5
f 3//10 14//10 17//10
f 10//17 14//18 18//19
f 18//20 13//13 10//12
f 15//5 19//5 2//5
f 16//21 20//22 12//23
f 11//5 16//5 13//5
f 17//5 3//5 24//5
f 25//24 18//19 14//18
f 13//5 16//5 18//5
f 27//10 19//10 2//10
f 20//10 16//10 18//10
f 21//25 22//26 29//27
f 22//28 23//29 31//30
f 29//27 22//26 31//31
f 3//10 24//10 32//10
f 25//32 17//33 24//34
f 20//10 18//10 25//10
f 27//5 33//5 2//5
f 27//35 19//36 34//37
f 28//38 34//39 19//40
f 28//10 20//10 25//10
f 35//41 31//30 23//29
f 36//42 29//27 31//31
f 3//10 32//10 39//10
f 24//43 40//44 25//45
f 34//10 28//10 40//10
f 25//5 28//5 40//5
f 31//46 30//47 36//48
f 39//5 3//5 48//5
f 49//49 32//50 39//51
f 52//52 53//53 33//54
f 27//55 43//56 42//57
f 43//10 34//10 49//10
f 34//10 40//10 49//10
f 44//58 50//59 41//60
f 36//10 30//10 45//10
f 50//10 37//10 36//10
f 54//10 46//10 37//10
f 47//61 46//62 55//63
f 55//64 56//65 47//66
f 54//67 51//68 58//69
f 59//70 58//71 53//53
f 43//5 42//5 57//5
f 42//5 52//5 60//5
f 43//10 49//10 57//10
f 50//5 41//72 45//5
f 50//10 36//10 45//10
f 50//10 54//10 37//10
f 54//10 59//10 46//10
f 59//10 55//10 46//10
f 58//71 59//70 54//73
f 52//5 59//5 55//5
f 42//10 57//10 60//10
f 52//10 60//10 55//10
f 62//74 64//6 63//75
f 65//6 64//6 62//6
f 65//10 62//10 66//10
f 67//4 64//4 63//4
f 66//10 62//10 68//10
f 64//4 67//4 69//4
f 67//10 70//10 63//10
f 64//76 66//77 71//77
f 68//10 62//10 72//10
f 71//5 69//5 64//5
f 63//5 74//5 70//5
f 67//78 73//79 70//79
f 72//10 62//10 75//10
f 71//77 68//80 76//80
f 69//10 73//10 71//10
f 63//5 77//5 74//5
f 70//79 78//81 74//81
f 78//81 70//79 73//79
f 75//10 62//10 79//10
f 76//80 72//82 80//82
f 71//10 73//10 76//10
f 77//10 84//10 63//10
f 85//83 74//81 78//81
f 73//10 78//10 76//10
f 87//5 62//5 79//5
f 80//5 78//5 76//5
f 81//84 89//85 82//86
f 82//87 91//88 83//89
f 89//85 91//90 82//86
f 63//5 92//5 84//5
f 85//83 84//91 77//83
f 80//5 85//5 78//5
f 87//10 62//5 93//5
f 87//92 94//93 79//93
f 88//94 79//93 94//93
f 88//5 85//5 80//5
f 95//95 83//89 91//88
f 96//96 91//90 89//85
f 63//5 99//5 92//5
f 84//91 85//83 100//91
f 94//5 100//5 88//5
f 85//10 100//10 88//10
f 91//97 96//96 90//98
f 99//10 108//5 63//5
f 109//99 99//100 92//99
f 112//101 93//102 113//103
f 87//92 102//104 103//92
f 103//5 109//5 94//5
f 94//5 109//5 100//5
f 104//105 101//106 110//105
f 96//5 105//5 90//10
f 110//5 96//5 97//5
f 114//5 97//5 106//5
f 107//107 115//108 106//107
f 115//108 107//109 116//110
f 114//111 118//112 111//113
f 119//114 113//103 118//115
f 103//10 117//10 102//10
f 102//10 120//10 112//10
f 103//5 117//5 109//5
f 110//10 105//5 101//116
f 110//5 105//5 96//5
f 110//5 97//5 114//5
f 114//5 106//5 119//5
f 119//5 106//5 115//5
f 118//115 114//111 119//114
f 112//10 115//10 119//10
f 102//5 120//5 117//5
f 112//5 115//5 120//5
f 45//5 41//72 101//116 105//5
f 23//29 22//28 82//87 83//89
f 21//25 29//27 89//85 81//84
f 45//10 30//10 90//10 105//5
f 53//53 58//71 118//115 113//103
f 58//69 51//68 111//113 118//112
f 30//47 31//46 91//97 90//98
f 35//41 23//29 83//89 95//95
f 2//5 33//5 93//5 62//5
f 33//54 53//53 113//103 93//102
f 48//5 3//5 63//5 108//5
f 31//30 35//41 95//95 91//88
f 3//3 2//2 62//74 63//75
f 22//26 21//25 81//84 82//86
f 47//66 56//65 116//110 107//109
usemtl material-2.002
f 5//76 6//117 4//76
f 6//118 8//119 11//120
f 9//78 13//121 7//78
f 8//122 12//123 16//124
f 12//125 15//94 20//126
f 17//127 14//128 25//129
f 15//94 19//130 28//131
f 28//131 20//126 15//94
f 38//132 37//133 29//134
f 24//135 40//136 32//135
f 33//137 42//138 27//139
f 43//140 34//141 27//142
f 26//143 41//72 44//144
f 36//145 29//134 37//133
f 37//133 38//132 46//146
f 47//147 46//146 38//132
f 49//136 32//135 40//136
f 44//144 50//148 51//149
f 42//150 33//151 52//152
f 39//153 57//100 48//154
f 57//100 39//153 49//155
f 54//148 51//149 50//148
f 52//156 53//157 59//158
f 55//159 56//160 60//161
f 48//154 60//161 56//160
f 60//161 48//154 57//100
f 65//7 64//7 66//162
f 66//162 71//162 68//163
f 69//11 67//11 73//164
f 68//163 76//163 72//165
f 72//165 80//165 75//166
f 77//167 85//167 74//168
f 75//166 88//166 79//169
f 88//166 75//166 80//165
f 98//170 89//171 97//172
f 84//173 92//174 100//173
f 93//175 87//176 102//175
f 103//176 87//176 94//169
f 86//177 104//178 101//116
f 96//179 97//172 89//171
f 97//172 106//180 98//170
f 107//181 98//170 106//180
f 109//174 100//173 92//174
f 104//178 111//182 110//183
f 102//175 112//184 93//175
f 99//185 108//186 117//185
f 117//185 109//187 99//185
f 114//188 110//183 111//182
f 112//184 119//189 113//184
f 115//190 120//191 116//192
f 108//186 116//192 120//191
f 120//191 117//185 108//186
f 48//154 56//160 116//192 108//186
f 38//132 29//134 89//171 98//170
f 41//72 26//143 86//177 101//116
f 47//147 38//132 98//170 107//181
f 26//143 44//144 104//178 86//177
f 44//144 51//149 111//182 104//178
