# SSTK version 0.8.0
# 64
mtllib original-64.mtl
o RB_11_BL1/RB_11_BL/mesh43/mesh43-geometry#mesh43-geometry
v 0.084701 0.116230 0.294422
v -0.010274 0.116336 0.293753
v -0.010380 0.116230 0.294422
v 0.084701 0.116336 0.293753
v -0.010380 0.206614 0.294422
v 0.084701 0.115923 0.295025
v -0.010274 0.116336 0.293037
v -0.010274 0.206614 0.293753
v -0.010688 0.206614 0.295025
v -0.010688 0.115923 0.295025
v 0.084701 0.116336 0.293037
v -0.011167 0.115444 0.295504
v 0.084701 0.118537 0.293037
v -0.010274 0.206614 0.293037
v -0.011167 0.206614 0.295504
v 0.084701 0.115444 0.295504
v -0.008073 0.118537 0.293037
v -0.011770 0.114840 0.295812
v -0.011770 0.206614 0.295812
v -0.008073 0.118537 0.294209
v -0.008073 0.206614 0.293037
v 0.084701 0.114840 0.295812
v 0.084701 0.118537 0.294209
v -0.008073 0.206614 0.294209
v -0.012439 0.114171 0.295918
v -0.012439 0.206614 0.295918
v -0.008025 0.118586 0.294514
v -0.008025 0.206614 0.294514
v 0.084701 0.114171 0.295918
v 0.084701 0.118586 0.294514
v -0.015282 0.111328 0.295918
v -0.015282 0.206614 0.295918
v -0.007884 0.118726 0.294790
v -0.007884 0.206614 0.294790
v 0.084701 0.111328 0.295918
v 0.084701 0.118726 0.294790
v -0.015986 0.110625 0.295887
v -0.015986 0.206614 0.295887
v 0.084701 0.118945 0.295009
v -0.007666 0.206614 0.295009
v 0.084701 0.110625 0.295887
v -0.007666 0.118945 0.295009
v -0.016631 0.109980 0.295603
v -0.016631 0.206614 0.295603
v 0.084701 0.119220 0.295149
v -0.007390 0.119220 0.295149
v 0.084701 0.109980 0.295603
v -0.007390 0.206614 0.295149
v 0.084701 0.109482 0.295105
v -0.017128 0.109482 0.295105
v 0.084701 0.119526 0.295197
v -0.007085 0.119526 0.295197
v -0.017128 0.206614 0.295105
v -0.007085 0.206614 0.295197
v 0.084701 0.109198 0.294461
v -0.017412 0.109198 0.294461
v 0.084701 0.146396 0.295183
v 0.019786 0.146396 0.295183
v -0.017412 0.206614 0.294461
v 0.019786 0.206614 0.295183
v 0.084701 0.109168 0.293757
v -0.017443 0.109168 0.293757
v 0.084701 0.150750 0.295534
v 0.024140 0.150750 0.295534
v -0.017443 0.206614 0.293757
v 0.024140 0.206614 0.295534
v 0.084701 0.109168 0.280647
v -0.017443 0.109168 0.280647
v 0.084701 0.155076 0.296141
v 0.028465 0.155076 0.296141
v -0.017443 0.206614 0.280647
v 0.028465 0.206614 0.296141
v -0.017337 0.109274 0.279978
v 0.084701 0.159358 0.297005
v 0.032747 0.159358 0.297005
v 0.084701 0.109274 0.279978
v -0.017337 0.206614 0.279978
v 0.032747 0.206614 0.297005
v -0.017029 0.109581 0.279375
v 0.084701 0.163581 0.298120
v 0.036970 0.163581 0.298120
v 0.084701 0.109581 0.279375
v -0.017029 0.206614 0.279375
v 0.036970 0.206614 0.298120
v -0.016550 0.110060 0.278896
v 0.084701 0.167731 0.299484
v 0.041120 0.167731 0.299484
v 0.084701 0.110060 0.278896
v -0.016550 0.206614 0.278896
v 0.041120 0.206614 0.299484
v 0.084701 0.110664 0.278588
v -0.015947 0.110664 0.278588
v 0.084701 0.171792 0.301092
v 0.045181 0.171792 0.301092
v -0.015947 0.206614 0.278588
v 0.045181 0.206614 0.301092
v 0.084701 0.111333 0.278482
v -0.015278 0.111333 0.278482
v 0.084701 0.172870 0.301531
v 0.046260 0.172870 0.301531
v -0.015278 0.206614 0.278482
v 0.046260 0.206614 0.301531
v 0.084701 0.178355 0.278482
v 0.051744 0.178355 0.278482
v 0.084701 0.174024 0.301681
v 0.047414 0.174024 0.301681
v 0.051744 0.206614 0.278482
v 0.047414 0.206614 0.301681
v 0.084701 0.178355 0.279702
v 0.051744 0.206614 0.279702
v 0.084701 0.175361 0.301469
v 0.048751 0.175361 0.301469
v 0.051744 0.178355 0.279702
v 0.048751 0.206614 0.301469
v 0.084701 0.206614 0.279702
v 0.084701 0.176567 0.300855
v 0.049957 0.176567 0.300855
v 0.049957 0.206614 0.300855
v 0.084701 0.177525 0.299899
v 0.050915 0.177525 0.299899
v 0.050915 0.206614 0.299899
v 0.051530 0.178141 0.298694
v 0.084701 0.178141 0.298694
v 0.051530 0.206614 0.298694
v 0.051744 0.178355 0.297358
v 0.084701 0.178355 0.297358
v 0.051744 0.206614 0.297358
v 0.051744 0.178355 0.288349
v 0.084701 0.178355 0.288349
v 0.051744 0.206614 0.288349
v 0.084701 0.206614 0.288349
vt 0.941298 -0.009794
vt 0.941227 -0.073764
vt 0.941298 -0.073835
vt 0.941227 -0.009794
vt 0.935818 0.004828
vt 0.935747 0.065634
vt 0.935747 0.004757
vt 0.941505 -0.009794
vt 0.935818 0.065634
vt 0.935539 0.065634
vt 0.941505 -0.074042
vt 0.935539 0.00455
vt 0.941828 -0.074365
vt 0.939744 -0.009794
vt 0.935217 0.065634
vt 0.941828 -0.009794
vt 0.935217 0.004227
vt 0.939744 -0.072281
vt 0.9373 0.006311
vt 0.942234 -0.074772
vt 0.93481 0.065634
vt 0.9373 0.065634
vt 0.942234 -0.009794
vt 0.93481 0.003821
vt 0.942685 -0.075222
vt 0.93436 0.065634
vt 0.939712 -0.072249
vt 0.937333 0.065634
vt 0.942685 -0.009794
vt 0.93436 0.00337
vt 0.939712 -0.009794
vt 0.937333 0.006343
vt 0.9446 -0.077137
vt 0.932445 0.065634
vt 0.939617 -0.072154
vt 0.937428 0.065634
vt 0.9446 -0.009794
vt 0.932445 0.001455
vt 0.939617 -0.009794
vt 0.937428 0.006438
vt 0.945074 -0.077611
vt 0.931971 0.065634
vt 0.93947 -0.009794
vt 0.937575 0.065634
vt 0.945074 -0.009794
vt 0.931971 0.000981
vt 0.93947 -0.072007
vt 0.937575 0.006585
vt 0.945508 -0.078045
vt 0.931537 0.065634
vt 0.939284 -0.009794
vt 0.93776 0.006771
vt 0.945508 -0.009794
vt 0.931537 0.000547
vt 0.939284 -0.071821
vt 0.93776 0.065634
vt 0.945843 -0.009794
vt 0.931201 0.000212
vt 0.939078 -0.009794
vt 0.937966 0.006977
vt 0.945843 -0.078381
vt 0.931201 0.065634
vt 0.939078 -0.071616
vt 0.937966 0.065634
vt 0.946034 -0.009794
vt 0.93101 0.000021
vt 0.92098 -0.009794
vt 0.956064 0.025075
vt 0.946034 -0.078572
vt 0.93101 0.065634
vt 0.92098 -0.053517
vt 0.956064 0.065634
vt 0.946055 -0.009794
vt 0.93099 0
vt 0.918047 -0.009794
vt 0.958997 0.028008
vt 0.946055 -0.078592
vt 0.93099 0.065634
vt 0.918047 -0.050585
vt 0.958997 0.065634
vt 0.915134 -0.009794
vt 0.961911 0.030921
vt 0.915134 -0.047671
vt 0.961911 0.065634
vt 0.945984 -0.078521
vt 0.931061 0.000071
vt 0.91225 -0.009794
vt 0.964795 0.033805
vt 0.945984 -0.009794
vt 0.931061 0.065634
vt 0.91225 -0.044787
vt 0.964795 0.065634
vt 0.945776 -0.078314
vt 0.931268 0.000279
vt 0.909405 -0.009794
vt 0.967639 0.036649
vt 0.945776 -0.009794
vt 0.931268 0.065634
vt 0.909405 -0.041943
vt 0.967639 0.065634
vt 0.945454 -0.077991
vt 0.931591 0.000601
vt 0.906611 -0.009794
vt 0.970434 0.039444
vt 0.945454 -0.009794
vt 0.931591 0.065634
vt 0.906611 -0.039148
vt 0.970434 0.065634
vt 0.945047 -0.009794
vt 0.931997 0.001008
vt 0.903875 -0.009794
vt 0.97317 0.04218
vt 0.945047 -0.077585
vt 0.931997 0.065634
vt 0.903875 -0.036412
vt 0.97317 0.065634
vt 0.944597 -0.009794
vt 0.932448 0.001458
vt 0.903149 -0.009794
vt 0.973896 0.042906
vt 0.944597 -0.077134
vt 0.932448 0.065634
vt 0.903149 -0.035686
vt 0.973896 0.065634
vt 0.899455 -0.009794
vt 0.97759 0.0466
vt 0.902371 -0.009794
vt 0.974673 0.043684
vt 0.899455 -0.031992
vt 0.97759 0.065634
vt 0.902371 -0.034909
vt 0.974673 0.065634
vt 0.901471 -0.009794
vt 0.975573 0.044584
vt 0.901471 -0.034008
vt 0.975573 0.065634
vt 0.999788 0.065634
vt 0.999788 0.0466
vt 0.900659 -0.009794
vt 0.976386 0.045396
vt 0.900659 -0.033196
vt 0.976386 0.065634
vt 0.900014 -0.009794
vt 0.977031 0.046041
vt 0.900014 -0.032551
vt 0.977031 0.065634
vt 0.899599 -0.032136
vt 0.977446 0.046456
vt 0.899599 -0.009794
vt 0.977446 0.065634
vn 0 0.9510565608316643 0.309016857305628
vn 0 0.9969173391662902 0.07845902669294252
vn 0.9969173391662902 0 0.0784590266929423
vn 0.9510565608316645 0 0.3090168573056278
vn 0 0.8090171162905556 0.5877850844899977
vn 0 1 0
vn 0.8090171162905557 0 0.5877850844899974
vn 1 0 0
vn 0 0.5877850844899972 0.8090171162905558
vn 0 0 1
vn 0.5877850844899974 0 0.8090171162905557
vn 0 0.30901685730562756 0.9510565608316646
vn 0.3090168573056278 0 0.9510565608316645
vn 0 -1 0
vn 0 -0.9969173391662902 0.07845902669294208
vn -0.9969173391662902 0 0.0784590266929423
vn -1 0 0
vn 0 0.07845902669294208 0.9969173391662902
vn 0.0784590266929423 0 0.9969173391662902
vn 0 -0.9510565608316646 0.30901685730562756
vn -0.9510565608316645 0 0.3090168573056278
vn 0 -0.0218169995840264 0.9997619809380383
vn -0.021816999584026178 0 0.9997619809380383
vn 0 -0.8090171162905558 0.5877850844899972
vn -0.8090171162905557 0 0.5877850844899974
vn 0 -0.22709892866994116 0.9738716941142529
vn -0.22709892866994094 0 0.9738716941142529
vn 0 -0.5877850844899977 0.8090171162905556
vn -0.5877850844899974 0 0.8090171162905557
vn 0 -0.5646550209052235 0.8253270305560831
vn -0.5646550209052232 0 0.8253270305560833
vn 0 -0.309016857305628 0.9510565608316643
vn -0.3090168573056278 0 0.9510565608316645
vn 0 -0.825413159960959 0.5645291094029291
vn -0.8254131599609589 0 0.5645291094029293
vn 0 -0.07819898203593663 0.9969377709809891
vn -0.0781989820359364 0 0.9969377709809891
vn 0 -0.973906389885971 0.22695009085540177
vn -0.9739063898859708 0 0.22695009085540194
vn 0 -0.03986100934051205 0.9992052341407924
vn -0.03986100934051183 0 0.9992052341407924
vn 0 -0.9997636366974576 0.021740992099574703
vn -0.9997636366974576 0 0.021740992099574925
vn 0 -0.10970996064726384 0.993963643467293
vn -0.10970996064726361 0 0.993963643467293
vn 0 -0.9969173391662902 -0.07845902669294252
vn -0.9969173391662902 0 -0.0784590266929423
vn 0 -0.168456028922471 0.9857091692379004
vn -0.16845602892247077 0 0.9857091692379004
vn 0 -0.9510565608316643 -0.309016857305628
vn -0.9510565608316645 0 -0.3090168573056278
vn 0 -0.22660990705641912 0.9739856005218359
vn -0.2266099070564189 0 0.9739856005218359
vn 0 -0.8090171162905556 -0.5877850844899977
vn -0.8090171162905557 0 -0.5877850844899974
vn 0 -0.28396609531153233 0.9588343218270411
vn -0.28396609531153205 0 0.958834321827041
vn 0 -0.5877850844899972 -0.8090171162905558
vn -0.5877850844899974 0 -0.8090171162905557
vn 0 -0.3403228707096646 0.9403086427721129
vn -0.3403228707096644 0 0.940308642772113
vn 0 -0.30901685730562756 -0.9510565608316646
vn -0.3090168573056278 0 -0.9510565608316645
vn 0 -0.37257296118944944 0.9280029033308705
vn -0.3725729611894492 0 0.9280029033308707
vn 0 -0.07845902669294208 -0.9969173391662902
vn -0.0784590266929423 0 -0.9969173391662902
vn 0 -0.25491206308564546 0.9669642393043396
vn -0.2549120630856452 0 0.9669642393043395
vn 0 0 -1
vn 0 0.014007998363389392 0.9999018831774702
vn 0.014007998363389614 0 0.9999018831774702
vn 0 0.3086658501740955 0.9511705383033596
vn 0.3086658501740957 0 0.9511705383033595
vn 0 0.5871878036605788 0.8094507293419814
vn 0.587187803660579 0 0.8094507293419813
vn 0 0.8083652857628374 0.5886812081029648
vn 0.8083652857628376 0 0.5886812081029646
vn 0 0.9505991634831077 0.3104210533859072
vn 0.9505991634831076 0 0.3104210533859069
vn 0 0.9968518313959844 0.07928698658967795
vn 0.9968518313959844 0 0.07928698658967773
vn 0 0.9969173391662902 -0.07845902669294208
vn 0.9969173391662902 0 -0.0784590266929423
vn 0 0.9510565608316646 -0.30901685730562756
vn 0.9510565608316645 0 -0.3090168573056278
vn 0 0.0218169995840264 -0.9997619809380383
vn 0.021816999584026178 0 -0.9997619809380383
vn 0 0.8090171162905558 -0.5877850844899972
vn 0.8090171162905557 0 -0.5877850844899974
vn 0 0.22709892866994116 -0.9738716941142529
vn 0.22709892866994094 0 -0.9738716941142529
vn 0 0.5877850844899977 -0.8090171162905556
vn 0.5877850844899974 0 -0.8090171162905557
vn 0 0.5646550209052235 -0.8253270305560831
vn 0.5646550209052232 0 -0.8253270305560833
vn 0 0.309016857305628 -0.9510565608316643
vn 0.3090168573056278 0 -0.9510565608316645
vn 0 0.825413159960959 -0.5645291094029291
vn 0.8254131599609589 0 -0.5645291094029293
vn 0 0.07819898203593663 -0.9969377709809891
vn 0.0781989820359364 0 -0.9969377709809891
vn 0 0.973906389885971 -0.22695009085540177
vn 0.9739063898859708 0 -0.22695009085540194
vn 0 0.03986100934051205 -0.9992052341407924
vn 0.03986100934051183 0 -0.9992052341407924
vn 0 0.9997636366974576 -0.021740992099574703
vn 0.9997636366974576 0 -0.021740992099574925
vn 0 0.10970996064726384 -0.993963643467293
vn 0.10970996064726361 0 -0.993963643467293
vn 0 0.168456028922471 -0.9857091692379004
vn 0.16845602892247077 0 -0.9857091692379004
vn 0 0.22660990705641912 -0.9739856005218359
vn 0.2266099070564189 0 -0.9739856005218359
vn 0 0.28396609531153233 -0.9588343218270411
vn 0.28396609531153205 0 -0.958834321827041
vn 0 0.3403228707096646 -0.9403086427721129
vn 0.3403228707096644 0 -0.940308642772113
vn 0 0.37257296118944944 -0.9280029033308705
vn 0.3725729611894492 0 -0.9280029033308707
vn 0 0.25491206308564546 -0.9669642393043396
vn 0.2549120630856452 0 -0.9669642393043395
vn 0 -0.014007998363389392 -0.9999018831774702
vn -0.014007998363389614 0 -0.9999018831774702
vn 0 -0.3086658501740955 -0.9511705383033596
vn -0.3086658501740957 0 -0.9511705383033595
vn 0 -0.5871878036605788 -0.8094507293419814
vn -0.587187803660579 0 -0.8094507293419813
vn 0 -0.8083652857628374 -0.5886812081029648
vn -0.8083652857628376 0 -0.5886812081029646
vn 0 -0.9505991634831077 -0.3104210533859072
vn -0.9505991634831076 0 -0.3104210533859069
vn 0 -0.9968518313959844 -0.07928698658967795
vn -0.9968518313959844 0 -0.07928698658967773
usemtl material_0_0
f 1/1/1 2/2/2 3/3/1
f 2/2/2 1/1/1 4/4/2
f 2/5/3 5/6/4 3/7/4
f 3/3/1 6/8/5 1/1/1
f 4/4/2 7/2/6 2/2/2
f 5/6/4 2/5/3 8/9/3
f 9/10/7 3/7/4 5/6/4
f 6/8/5 3/3/1 10/11/5
f 7/2/6 4/4/2 11/4/6
f 7/5/8 8/9/3 2/5/3
f 3/7/4 9/10/7 10/12/7
f 12/13/9 6/8/5 10/11/5
f 13/14/10 7/2/10 11/4/10
f 8/9/3 7/5/8 14/9/8
f 15/15/11 10/12/7 9/10/7
f 6/8/5 12/13/9 16/16/9
f 10/12/7 15/15/11 12/17/11
f 7/2/10 13/14/10 17/18/10
f 17/19/10 14/9/10 7/5/10
f 18/20/12 16/16/9 12/13/9
f 19/21/13 12/17/11 15/15/11
f 13/14/14 20/18/15 17/18/14
f 14/9/10 17/19/10 21/22/10
f 16/16/9 18/20/12 22/23/12
f 12/17/11 19/21/13 18/24/13
f 20/18/15 13/14/14 23/14/15
f 24/22/16 17/19/17 20/19/16
f 17/19/17 24/22/16 21/22/17
f 25/25/18 22/23/12 18/20/12
f 26/26/19 18/24/13 19/21/13
f 23/14/15 27/27/20 20/18/15
f 20/19/16 28/28/21 24/22/16
f 22/23/12 25/25/18 29/29/18
f 18/24/13 26/26/19 25/30/19
f 27/27/20 23/14/15 30/31/20
f 28/28/21 20/19/16 27/32/21
f 31/33/22 29/29/18 25/25/18
f 32/34/23 25/30/19 26/26/19
f 30/31/20 33/35/24 27/27/20
f 27/32/21 34/36/25 28/28/21
f 29/29/18 31/33/22 35/37/22
f 25/30/19 32/34/23 31/38/23
f 33/35/24 30/31/20 36/39/24
f 34/36/25 27/32/21 33/40/25
f 37/41/26 35/37/22 31/33/22
f 38/42/27 31/38/23 32/34/23
f 39/43/28 33/35/24 36/39/24
f 33/40/25 40/44/29 34/36/25
f 35/37/22 37/41/26 41/45/26
f 31/38/23 38/42/27 37/46/27
f 33/35/24 39/43/28 42/47/28
f 40/44/29 33/40/25 42/48/29
f 43/49/30 41/45/26 37/41/26
f 44/50/31 37/46/27 38/42/27
f 45/51/32 42/47/28 39/43/28
f 46/52/33 40/44/29 42/48/29
f 41/45/26 43/49/30 47/53/30
f 37/46/27 44/50/31 43/54/31
f 42/47/28 45/51/32 46/55/32
f 40/44/29 46/52/33 48/56/33
f 43/49/30 49/57/34 47/53/30
f 44/50/31 50/58/35 43/54/31
f 51/59/36 46/55/32 45/51/32
f 52/60/37 48/56/33 46/52/33
f 49/57/34 43/49/30 50/61/34
f 50/58/35 44/50/31 53/62/35
f 46/55/32 51/59/36 52/63/36
f 48/56/33 52/60/37 54/64/37
f 50/61/34 55/65/38 49/57/34
f 53/62/35 56/66/39 50/58/35
f 57/67/40 52/63/36 51/59/36
f 58/68/41 54/64/37 52/60/37
f 55/65/38 50/61/34 56/69/38
f 56/66/39 53/62/35 59/70/39
f 52/63/36 57/67/40 58/71/40
f 54/64/37 58/68/41 60/72/41
f 56/69/38 61/73/42 55/65/38
f 59/70/39 62/74/43 56/66/39
f 63/75/44 58/71/40 57/67/40
f 64/76/45 60/72/41 58/68/41
f 61/73/42 56/69/38 62/77/42
f 62/74/43 59/70/39 65/78/43
f 58/71/40 63/75/44 64/79/44
f 60/72/41 64/76/45 66/80/45
f 62/77/42 67/73/46 61/73/42
f 65/78/43 68/74/47 62/74/43
f 69/81/48 64/79/44 63/75/44
f 70/82/49 66/80/45 64/76/45
f 67/73/46 62/77/42 68/77/46
f 68/74/47 65/78/43 71/78/47
f 64/79/44 69/81/48 70/83/48
f 66/80/45 70/82/49 72/84/49
f 73/85/50 67/73/46 68/77/46
f 71/78/47 73/86/51 68/74/47
f 74/87/52 70/83/48 69/81/48
f 75/88/53 72/84/49 70/82/49
f 67/73/46 73/85/50 76/89/50
f 73/86/51 71/78/47 77/90/51
f 70/83/48 74/87/52 75/91/52
f 72/84/49 75/88/53 78/92/53
f 79/93/54 76/89/50 73/85/50
f 77/90/51 79/94/55 73/86/51
f 80/95/56 75/91/52 74/87/52
f 81/96/57 78/92/53 75/88/53
f 76/89/50 79/93/54 82/97/54
f 79/94/55 77/90/51 83/98/55
f 75/91/52 80/95/56 81/99/56
f 78/92/53 81/96/57 84/100/57
f 85/101/58 82/97/54 79/93/54
f 83/98/55 85/102/59 79/94/55
f 86/103/60 81/99/56 80/95/56
f 87/104/61 84/100/57 81/96/57
f 82/97/54 85/101/58 88/105/58
f 85/102/59 83/98/55 89/106/59
f 81/99/56 86/103/60 87/107/60
f 84/100/57 87/104/61 90/108/61
f 85/101/58 91/109/62 88/105/58
f 89/106/59 92/110/63 85/102/59
f 93/111/64 87/107/60 86/103/60
f 94/112/65 90/108/61 87/104/61
f 91/109/62 85/101/58 92/113/62
f 92/110/63 89/106/59 95/114/63
f 87/107/60 93/111/64 94/115/64
f 90/108/61 94/112/65 96/116/65
f 92/113/62 97/117/66 91/109/62
f 95/114/63 98/118/67 92/110/63
f 99/119/68 94/115/64 93/111/64
f 100/120/69 96/116/65 94/112/65
f 97/117/66 92/113/62 98/121/66
f 98/118/67 95/114/63 101/122/67
f 94/115/64 99/119/68 100/123/68
f 96/116/65 100/120/69 102/124/69
f 98/121/66 103/125/70 97/117/66
f 101/122/67 104/126/70 98/118/67
f 105/127/71 100/123/68 99/119/68
f 106/128/72 102/124/69 100/120/69
f 103/125/70 98/121/66 104/129/70
f 104/126/70 101/122/67 107/130/70
f 100/123/68 105/127/71 106/131/71
f 102/124/69 106/128/72 108/132/72
f 104/129/6 109/125/6 103/125/6
f 110/130/8 104/126/8 107/130/8
f 111/133/73 106/131/71 105/127/71
f 112/134/74 108/132/72 106/128/72
f 109/125/6 104/129/6 113/129/6
f 104/126/8 110/130/8 113/126/8
f 106/131/71 111/133/73 112/135/73
f 108/132/72 112/134/74 114/136/74
f 113/126/70 115/137/70 109/138/70
f 115/137/70 113/126/70 110/130/70
f 116/139/75 112/135/73 111/133/73
f 117/140/76 114/136/74 112/134/74
f 112/135/73 116/139/75 117/141/75
f 114/136/74 117/140/76 118/142/76
f 119/143/77 117/141/75 116/139/75
f 120/144/78 118/142/76 117/140/76
f 117/141/75 119/143/77 120/145/77
f 118/142/76 120/144/78 121/146/78
f 119/143/77 122/147/79 120/145/77
f 122/148/80 121/146/78 120/144/78
f 122/147/79 119/143/77 123/149/79
f 121/146/78 122/148/80 124/150/80
f 123/149/79 125/129/81 122/147/79
f 125/126/82 124/150/80 122/148/80
f 125/129/81 123/149/79 126/125/81
f 124/150/80 125/126/82 127/130/82
f 126/125/81 128/129/6 125/129/81
f 128/126/8 127/130/82 125/126/82
f 128/129/6 126/125/81 129/125/6
f 127/130/82 128/126/8 130/130/8
f 131/137/10 128/126/10 129/138/10
f 128/126/10 131/137/10 130/130/10
usemtl material_1_0
f 3//50 2//46 1//50
f 4//46 1//50 2//46
f 3//51 5//51 2//47
f 1//50 6//54 3//50
f 2//46 7//14 4//46
f 8//47 2//47 5//51
f 5//51 3//51 9//55
f 10//54 3//50 6//54
f 11//14 4//46 7//14
f 2//47 8//47 7//17
f 10//55 9//55 3//51
f 10//54 6//54 12//58
f 11//70 7//70 13//70
f 14//17 7//17 8//47
f 9//55 10//55 15//59
f 16//58 12//58 6//54
f 12//59 15//59 10//55
f 17//70 13//70 7//70
f 7//70 14//70 17//70
f 12//58 16//58 18//62
f 15//59 12//59 19//63
f 17//6 20//83 13//6
f 21//70 17//70 14//70
f 22//62 18//62 16//58
f 18//63 19//63 12//59
f 23//83 13//6 20//83
f 20//84 17//8 24//84
f 21//8 24//84 17//8
f 18//62 22//62 25//66
f 19//63 18//63 26//67
f 20//83 27//85 23//83
f 24//84 28//86 20//84
f 29//66 25//66 22//62
f 25//67 26//67 18//63
f 30//85 23//83 27//85
f 27//86 20//84 28//86
f 25//66 29//66 31//87
f 26//67 25//67 32//88
f 27//85 33//89 30//85
f 28//86 34//90 27//86
f 35//87 31//87 29//66
f 31//88 32//88 25//67
f 36//89 30//85 33//89
f 33//90 27//86 34//90
f 31//87 35//87 37//91
f 32//88 31//88 38//92
f 36//89 33//89 39//93
f 34//90 40//94 33//90
f 41//91 37//91 35//87
f 37//92 38//92 31//88
f 42//93 39//93 33//89
f 42//94 33//90 40//94
f 37//91 41//91 43//95
f 38//92 37//92 44//96
f 39//93 42//93 45//97
f 42//94 40//94 46//98
f 47//95 43//95 41//91
f 43//96 44//96 37//92
f 46//97 45//97 42//93
f 48//98 46//98 40//94
f 47//95 49//99 43//95
f 43//96 50//100 44//96
f 45//97 46//97 51//101
f 46//98 48//98 52//102
f 50//99 43//95 49//99
f 53//100 44//96 50//100
f 52//101 51//101 46//97
f 54//102 52//102 48//98
f 49//99 55//103 50//99
f 50//100 56//104 53//100
f 51//101 52//101 57//105
f 52//102 54//102 58//106
f 56//103 50//99 55//103
f 59//104 53//100 56//104
f 58//105 57//105 52//101
f 60//106 58//106 54//102
f 55//103 61//107 56//103
f 56//104 62//108 59//104
f 57//105 58//105 63//109
f 58//106 60//106 64//110
f 62//107 56//103 61//107
f 65//108 59//104 62//108
f 64//109 63//109 58//105
f 66//110 64//110 60//106
f 61//107 67//2 62//107
f 62//108 68//3 65//108
f 63//109 64//109 69//111
f 64//110 66//110 70//112
f 68//2 62//107 67//2
f 71//3 65//108 68//3
f 70//111 69//111 64//109
f 72//112 70//112 66//110
f 68//2 67//2 73//1
f 68//3 73//4 71//3
f 69//111 70//111 74//113
f 70//112 72//112 75//114
f 76//1 73//1 67//2
f 77//4 71//3 73//4
f 75//113 74//113 70//111
f 78//114 75//114 72//112
f 73//1 76//1 79//5
f 73//4 79//7 77//4
f 74//113 75//113 80//115
f 75//114 78//114 81//116
f 82//5 79//5 76//1
f 83//7 77//4 79//7
f 81//115 80//115 75//113
f 84//116 81//116 78//114
f 79//5 82//5 85//9
f 79//7 85//11 83//7
f 80//115 81//115 86//117
f 81//116 84//116 87//118
f 88//9 85//9 82//5
f 89//11 83//7 85//11
f 87//117 86//117 81//115
f 90//118 87//118 84//116
f 88//9 91//12 85//9
f 85//11 92//13 89//11
f 86//117 87//117 93//119
f 87//118 90//118 94//120
f 92//12 85//9 91//12
f 95//13 89//11 92//13
f 94//119 93//119 87//117
f 96//120 94//120 90//118
f 91//12 97//18 92//12
f 92//13 98//19 95//13
f 93//119 94//119 99//121
f 94//120 96//120 100//122
f 98//18 92//12 97//18
f 101//19 95//13 98//19
f 100//121 99//121 94//119
f 102//122 100//122 96//120
f 97//18 103//10 98//18
f 98//19 104//10 101//19
f 99//121 100//121 105//123
f 100//122 102//122 106//124
f 104//10 98//18 103//10
f 107//10 101//19 104//10
f 106//123 105//123 100//121
f 108//124 106//124 102//122
f 103//14 109//14 104//14
f 107//17 104//17 110//17
f 105//123 106//123 111//125
f 106//124 108//124 112//126
f 113//14 104//14 109//14
f 113//17 110//17 104//17
f 112//125 111//125 106//123
f 114//126 112//126 108//124
f 109//10 115//10 113//10
f 110//10 113//10 115//10
f 111//125 112//125 116//127
f 112//126 114//126 117//128
f 117//127 116//127 112//125
f 118//128 117//128 114//126
f 116//127 117//127 119//129
f 117//128 118//128 120//130
f 120//129 119//129 117//127
f 121//130 120//130 118//128
f 120//129 122//131 119//129
f 120//130 121//130 122//132
f 123//131 119//129 122//131
f 124//132 122//132 121//130
f 122//131 125//133 123//131
f 122//132 124//132 125//134
f 126//133 123//131 125//133
f 127//134 125//134 124//132
f 125//133 128//14 126//133
f 125//134 127//134 128//17
f 129//14 126//133 128//14
f 130//17 128//17 127//134
f 129//70 128//70 131//70
f 130//70 131//70 128//70
