# SSTK version 0.8.0
# 136
mtllib original-136.mtl
o #ID651
v -0.041351 0.227223 0.714857
v -0.041331 0.226021 0.714857
v -0.041435 0.226648 0.714857
v -0.041098 0.227772 0.714857
v -0.041018 0.225487 0.714857
v -0.040681 0.228250 0.714857
v -0.040395 0.224985 0.714857
v -0.040400 0.227074 0.714857
v -0.040317 0.226629 0.714857
v -0.039361 0.224460 0.714857
v -0.040068 0.226243 0.714857
v -0.039507 0.225842 0.714857
v -0.038474 0.225346 0.714857
v -0.038339 0.223953 0.714857
v -0.037408 0.224795 0.714857
v -0.037751 0.223501 0.714857
v -0.037476 0.223040 0.714857
v -0.037384 0.222516 0.714857
v -0.037028 0.224513 0.714857
v -0.037064 0.221194 0.714857
v -0.036638 0.221699 0.714857
v -0.036749 0.224226 0.714857
v -0.036410 0.223605 0.714857
v -0.036382 0.222283 0.714857
v -0.036297 0.222913 0.714857
v -0.041424 0.223064 0.714857
v -0.040214 0.220570 0.714857
v -0.041510 0.220924 0.714857
v -0.040791 0.222335 0.714857
v -0.040983 0.223064 0.714857
v -0.040592 0.221863 0.714857
v -0.040337 0.221550 0.714857
v -0.039978 0.221299 0.714857
v -0.039135 0.220467 0.714857
v -0.039547 0.221134 0.714857
v -0.039075 0.221079 0.714857
v -0.038372 0.220550 0.714857
v -0.038443 0.221173 0.714857
v -0.037893 0.221457 0.714857
v -0.037662 0.220802 0.714857
v -0.037670 0.221665 0.714857
v -0.037511 0.221911 0.714857
v -0.037416 0.222194 0.714857
v -0.040105 0.228618 0.714857
v -0.040299 0.227572 0.714857
v -0.039996 0.227991 0.714857
v -0.039438 0.228851 0.714857
v -0.039524 0.228274 0.714857
v -0.038912 0.228369 0.714857
v -0.038746 0.228929 0.714857
v -0.038455 0.228320 0.714857
v -0.037811 0.228828 0.714857
v -0.038045 0.228176 0.714857
v -0.037708 0.227947 0.714857
v -0.036698 0.228523 0.714857
v -0.037470 0.227645 0.714857
v -0.037291 0.227208 0.714857
v -0.037133 0.226572 0.714857
v -0.036726 0.227516 0.714857
v -0.036698 0.226572 0.714857
vn 0 0 -1
vn 0 0 1
usemtl material_0_2
f 1//1 2//1 3//1
f 3//2 2//2 1//2
f 2//1 1//1 4//1
f 4//2 1//2 2//2
f 2//1 4//1 5//1
f 5//2 4//2 2//2
f 5//1 4//1 6//1
f 6//2 4//2 5//2
f 5//1 6//1 7//1
f 7//2 6//2 5//2
f 7//1 6//1 8//1
f 8//2 6//2 7//2
f 7//1 8//1 9//1
f 9//2 8//2 7//2
f 7//1 9//1 10//1
f 10//2 9//2 7//2
f 10//1 9//1 11//1
f 11//2 9//2 10//2
f 10//1 11//1 12//1
f 12//2 11//2 10//2
f 10//1 12//1 13//1
f 13//2 12//2 10//2
f 10//1 13//1 14//1
f 14//2 13//2 10//2
f 14//1 13//1 15//1
f 15//2 13//2 14//2
f 14//1 15//1 16//1
f 16//2 15//2 14//2
f 16//1 15//1 17//1
f 17//2 15//2 16//2
f 17//1 15//1 18//1
f 18//2 15//2 17//2
f 18//1 15//1 19//1
f 19//2 15//2 18//2
f 18//1 19//1 20//1
f 20//2 19//2 18//2
f 20//1 19//1 21//1
f 21//2 19//2 20//2
f 21//1 19//1 22//1
f 22//2 19//2 21//2
f 21//1 22//1 23//1
f 23//2 22//2 21//2
f 21//1 23//1 24//1
f 24//2 23//2 21//2
f 24//1 23//1 25//1
f 25//2 23//2 24//2
f 26//1 27//1 28//1
f 28//2 27//2 26//2
f 27//1 26//1 29//1
f 29//2 26//2 27//2
f 29//1 26//1 30//1
f 30//2 26//2 29//2
f 27//1 29//1 31//1
f 31//2 29//2 27//2
f 27//1 31//1 32//1
f 32//2 31//2 27//2
f 27//1 32//1 33//1
f 33//2 32//2 27//2
f 27//1 33//1 34//1
f 34//2 33//2 27//2
f 34//1 33//1 35//1
f 35//2 33//2 34//2
f 34//1 35//1 36//1
f 36//2 35//2 34//2
f 34//1 36//1 37//1
f 37//2 36//2 34//2
f 37//1 36//1 38//1
f 38//2 36//2 37//2
f 37//1 38//1 39//1
f 39//2 38//2 37//2
f 37//1 39//1 40//1
f 40//2 39//2 37//2
f 40//1 39//1 41//1
f 41//2 39//2 40//2
f 40//1 41//1 42//1
f 42//2 41//2 40//2
f 40//1 42//1 20//1
f 20//2 42//2 40//2
f 20//1 42//1 43//1
f 43//2 42//2 20//2
f 20//1 43//1 18//1
f 18//2 43//2 20//2
f 44//1 8//1 6//1
f 6//2 8//2 44//2
f 8//1 44//1 45//1
f 45//2 44//2 8//2
f 45//1 44//1 46//1
f 46//2 44//2 45//2
f 46//1 44//1 47//1
f 47//2 44//2 46//2
f 46//1 47//1 48//1
f 48//2 47//2 46//2
f 48//1 47//1 49//1
f 49//2 47//2 48//2
f 49//1 47//1 50//1
f 50//2 47//2 49//2
f 49//1 50//1 51//1
f 51//2 50//2 49//2
f 51//1 50//1 52//1
f 52//2 50//2 51//2
f 51//1 52//1 53//1
f 53//2 52//2 51//2
f 53//1 52//1 54//1
f 54//2 52//2 53//2
f 54//1 52//1 55//1
f 55//2 52//2 54//2
f 54//1 55//1 56//1
f 56//2 55//2 54//2
f 56//1 55//1 57//1
f 57//2 55//2 56//2
f 57//1 55//1 58//1
f 58//2 55//2 57//2
f 58//1 55//1 59//1
f 59//2 55//2 58//2
f 60//1 58//1 59//1
f 59//2 58//2 60//2
