# SSTK version 0.8.0
# 81
mtllib original-81.mtl
o #ID325
v -0.106217 0.230811 0.714731
v -0.106225 0.230365 0.714731
v -0.106285 0.230562 0.714731
v -0.106048 0.230299 0.714731
v -0.106013 0.231091 0.714731
v -0.105916 0.230317 0.714731
v -0.105197 0.231746 0.714731
v -0.107828 0.224831 0.714731
v -0.107834 0.223559 0.714731
v -0.107889 0.224100 0.714731
v -0.107670 0.223145 0.714731
v -0.107644 0.225725 0.714731
v -0.107357 0.222829 0.714731
v -0.106907 0.228002 0.714731
v -0.107030 0.224320 0.714731
v -0.106822 0.225722 0.714731
v -0.106206 0.229624 0.714731
v -0.106197 0.227599 0.714731
v -0.104899 0.230598 0.714731
v -0.103871 0.234370 0.714731
v -0.104522 0.231422 0.714731
v -0.103970 0.232483 0.714731
v -0.103162 0.233971 0.714731
v -0.102576 0.236455 0.714731
v -0.102308 0.235350 0.714731
v -0.101782 0.237516 0.714731
v -0.101408 0.236619 0.714731
v -0.101138 0.238243 0.714731
v -0.100463 0.237779 0.714731
v -0.100772 0.238539 0.714731
v -0.100463 0.238638 0.714731
v -0.100278 0.238568 0.714731
v -0.100232 0.238096 0.714731
v -0.100156 0.238331 0.714731
v -0.103382 0.232020 0.714731
v -0.102780 0.232884 0.714731
v -0.102418 0.232220 0.714731
v -0.102015 0.233018 0.714731
v -0.102102 0.232158 0.714731
v -0.101515 0.231913 0.714731
v -0.101646 0.232967 0.714731
v -0.101348 0.232816 0.714731
v -0.101324 0.231954 0.714731
v -0.101144 0.232590 0.714731
v -0.101173 0.232079 0.714731
v -0.101076 0.232334 0.714731
v -0.104452 0.230282 0.714731
v -0.104073 0.231137 0.714731
v -0.104261 0.229868 0.714731
v -0.104198 0.229291 0.714731
v -0.106960 0.222724 0.714731
v -0.106916 0.223916 0.714731
v -0.106388 0.222866 0.714731
v -0.106627 0.223741 0.714731
v -0.106333 0.223855 0.714731
v -0.105829 0.223294 0.714731
v -0.105998 0.224197 0.714731
v -0.105197 0.225565 0.714731
v -0.105303 0.223942 0.714731
v -0.104759 0.224837 0.714731
v -0.104760 0.226560 0.714731
v -0.104448 0.227513 0.714731
v -0.104199 0.226015 0.714731
v -0.104260 0.228424 0.714731
v -0.103799 0.227163 0.714731
v -0.103777 0.230773 0.714731
v -0.103559 0.228281 0.714731
v -0.103553 0.230137 0.714731
v -0.103479 0.229370 0.714731
vn 0 0 -1
vn 0 0 1
usemtl material_0_2
f 1//1 2//1 3//1
f 3//2 2//2 1//2
f 2//1 1//1 4//1
f 4//2 1//2 2//2
f 4//1 1//1 5//1
f 5//2 1//2 4//2
f 4//1 5//1 6//1
f 6//2 5//2 4//2
f 6//1 5//1 7//1
f 7//2 5//2 6//2
f 8//1 9//1 10//1
f 10//2 9//2 8//2
f 9//1 8//1 11//1
f 11//2 8//2 9//2
f 11//1 8//1 12//1
f 12//2 8//2 11//2
f 11//1 12//1 13//1
f 13//2 12//2 11//2
f 13//1 12//1 14//1
f 14//2 12//2 13//2
f 13//1 14//1 15//1
f 15//2 14//2 13//2
f 15//1 14//1 16//1
f 16//2 14//2 15//2
f 16//1 14//1 17//1
f 17//2 14//2 16//2
f 16//1 17//1 18//1
f 18//2 17//2 16//2
f 18//1 17//1 6//1
f 6//2 17//2 18//2
f 18//1 6//1 19//1
f 19//2 6//2 18//2
f 19//1 6//1 7//1
f 7//2 6//2 19//2
f 19//1 7//1 20//1
f 20//2 7//2 19//2
f 19//1 20//1 21//1
f 21//2 20//2 19//2
f 21//1 20//1 22//1
f 22//2 20//2 21//2
f 22//1 20//1 23//1
f 23//2 20//2 22//2
f 23//1 20//1 24//1
f 24//2 20//2 23//2
f 23//1 24//1 25//1
f 25//2 24//2 23//2
f 25//1 24//1 26//1
f 26//2 24//2 25//2
f 25//1 26//1 27//1
f 27//2 26//2 25//2
f 27//1 26//1 28//1
f 28//2 26//2 27//2
f 27//1 28//1 29//1
f 29//2 28//2 27//2
f 29//1 28//1 30//1
f 30//2 28//2 29//2
f 29//1 30//1 31//1
f 31//2 30//2 29//2
f 29//1 31//1 32//1
f 32//2 31//2 29//2
f 29//1 32//1 33//1
f 33//2 32//2 29//2
f 33//1 32//1 34//1
f 34//2 32//2 33//2
f 22//1 35//1 21//1
f 21//2 35//2 22//2
f 35//1 22//1 36//1
f 36//2 22//2 35//2
f 35//1 36//1 37//1
f 37//2 36//2 35//2
f 37//1 36//1 38//1
f 38//2 36//2 37//2
f 37//1 38//1 39//1
f 39//2 38//2 37//2
f 39//1 38//1 40//1
f 40//2 38//2 39//2
f 40//1 38//1 41//1
f 41//2 38//2 40//2
f 40//1 41//1 42//1
f 42//2 41//2 40//2
f 40//1 42//1 43//1
f 43//2 42//2 40//2
f 43//1 42//1 44//1
f 44//2 42//2 43//2
f 43//1 44//1 45//1
f 45//2 44//2 43//2
f 45//1 44//1 46//1
f 46//2 44//2 45//2
f 21//1 47//1 19//1
f 19//2 47//2 21//2
f 47//1 21//1 48//1
f 48//2 21//2 47//2
f 47//1 48//1 49//1
f 49//2 48//2 47//2
f 49//1 48//1 50//1
f 50//2 48//2 49//2
f 15//1 51//1 13//1
f 13//2 51//2 15//2
f 51//1 15//1 52//1
f 52//2 15//2 51//2
f 51//1 52//1 53//1
f 53//2 52//2 51//2
f 53//1 52//1 54//1
f 54//2 52//2 53//2
f 53//1 54//1 55//1
f 55//2 54//2 53//2
f 53//1 55//1 56//1
f 56//2 55//2 53//2
f 56//1 55//1 57//1
f 57//2 55//2 56//2
f 56//1 57//1 58//1
f 58//2 57//2 56//2
f 56//1 58//1 59//1
f 59//2 58//2 56//2
f 59//1 58//1 60//1
f 60//2 58//2 59//2
f 60//1 58//1 61//1
f 61//2 58//2 60//2
f 60//1 61//1 62//1
f 62//2 61//2 60//2
f 60//1 62//1 63//1
f 63//2 62//2 60//2
f 63//1 62//1 64//1
f 64//2 62//2 63//2
f 63//1 64//1 50//1
f 50//2 64//2 63//2
f 63//1 50//1 65//1
f 65//2 50//2 63//2
f 65//1 50//1 48//1
f 48//2 50//2 65//2
f 65//1 48//1 66//1
f 66//2 48//2 65//2
f 65//1 66//1 67//1
f 67//2 66//2 65//2
f 67//1 66//1 68//1
f 68//2 66//2 67//2
f 67//1 68//1 69//1
f 69//2 68//2 67//2
