# SSTK version 0.8.0
# 115
mtllib original-115.mtl
o #ID525
v -0.024607 0.251891 0.714857
v -0.024636 0.250444 0.714857
v -0.024636 0.250547 0.714857
v -0.023354 0.257384 0.714857
v -0.025923 0.257110 0.714857
v -0.025923 0.257447 0.714857
v -0.025305 0.256972 0.714857
v -0.024776 0.256826 0.714857
v -0.024670 0.256715 0.714857
v -0.024613 0.255842 0.714857
v -0.024602 0.253419 0.714857
v -0.023486 0.256835 0.714857
v -0.023526 0.254992 0.714857
v -0.023543 0.253865 0.714857
v -0.021174 0.256835 0.714857
v -0.019463 0.257447 0.714857
v -0.020339 0.256761 0.714857
v -0.020099 0.256526 0.714857
v -0.019727 0.255490 0.714857
v -0.019326 0.255490 0.714857
v -0.022158 0.253865 0.714857
v -0.023537 0.253327 0.714857
v -0.021970 0.253327 0.714857
v -0.021214 0.253908 0.714857
v -0.021117 0.253267 0.714857
v -0.020983 0.254083 0.714857
v -0.020917 0.253070 0.714857
v -0.020762 0.254844 0.714857
v -0.020711 0.252143 0.714857
v -0.020711 0.255038 0.714857
v -0.020333 0.255038 0.714857
v -0.020396 0.253585 0.714857
v -0.020333 0.252143 0.714857
v -0.024996 0.249866 0.714857
v -0.025923 0.249328 0.714857
v -0.025923 0.249665 0.714857
v -0.023268 0.249391 0.714857
v -0.024722 0.249992 0.714857
v -0.024657 0.250159 0.714857
v -0.023509 0.249963 0.714857
v -0.021111 0.249963 0.714857
v -0.019463 0.249328 0.714857
v -0.020900 0.249969 0.714857
v -0.020282 0.250009 0.714857
v -0.019898 0.250258 0.714857
v -0.019286 0.251245 0.714857
v -0.018754 0.251479 0.714857
v -0.019149 0.251479 0.714857
vn 0 0 -1
vn 0 0 1
usemtl material_0_2
f 1//1 2//1 3//1
f 3//2 2//2 1//2
f 4//1 5//1 6//1
f 6//2 5//2 4//2
f 5//1 4//1 7//1
f 7//2 4//2 5//2
f 7//1 4//1 8//1
f 8//2 4//2 7//2
f 8//1 4//1 9//1
f 9//2 4//2 8//2
f 9//1 4//1 10//1
f 10//2 4//2 9//2
f 10//1 4//1 11//1
f 11//2 4//2 10//2
f 11//1 4//1 12//1
f 12//2 4//2 11//2
f 11//1 12//1 13//1
f 13//2 12//2 11//2
f 11//1 13//1 14//1
f 14//2 13//2 11//2
f 12//1 4//1 15//1
f 15//2 4//2 12//2
f 15//1 4//1 16//1
f 16//2 4//2 15//2
f 15//1 16//1 17//1
f 17//2 16//2 15//2
f 17//1 16//1 18//1
f 18//2 16//2 17//2
f 18//1 16//1 19//1
f 19//2 16//2 18//2
f 19//1 16//1 20//1
f 20//2 16//2 19//2
f 21//1 22//1 14//1
f 14//2 22//2 21//2
f 22//1 21//1 23//1
f 23//2 21//2 22//2
f 23//1 21//1 24//1
f 24//2 21//2 23//2
f 23//1 24//1 25//1
f 25//2 24//2 23//2
f 25//1 24//1 26//1
f 26//2 24//2 25//2
f 25//1 26//1 27//1
f 27//2 26//2 25//2
f 27//1 26//1 28//1
f 28//2 26//2 27//2
f 27//1 28//1 29//1
f 29//2 28//2 27//2
f 29//1 28//1 30//1
f 30//2 28//2 29//2
f 29//1 30//1 31//1
f 31//2 30//2 29//2
f 29//1 31//1 32//1
f 32//2 31//2 29//2
f 33//1 29//1 32//1
f 32//2 29//2 33//2
f 34//1 35//1 36//1
f 36//2 35//2 34//2
f 35//1 34//1 37//1
f 37//2 34//2 35//2
f 37//1 34//1 38//1
f 38//2 34//2 37//2
f 37//1 38//1 39//1
f 39//2 38//2 37//2
f 37//1 39//1 2//1
f 2//2 39//2 37//2
f 37//1 2//1 1//1
f 1//2 2//2 37//2
f 37//1 1//1 40//1
f 40//2 1//2 37//2
f 40//1 1//1 11//1
f 11//2 1//2 40//2
f 40//1 11//1 14//1
f 14//2 11//2 40//2
f 40//1 14//1 22//1
f 22//2 14//2 40//2
f 37//1 40//1 41//1
f 41//2 40//2 37//2
f 37//1 41//1 42//1
f 42//2 41//2 37//2
f 42//1 41//1 43//1
f 43//2 41//2 42//2
f 42//1 43//1 44//1
f 44//2 43//2 42//2
f 42//1 44//1 45//1
f 45//2 44//2 42//2
f 42//1 45//1 46//1
f 46//2 45//2 42//2
f 42//1 46//1 47//1
f 47//2 46//2 42//2
f 47//1 46//1 48//1
f 48//2 46//2 47//2
