# SSTK version 0.8.0
# 110
mtllib original-110.mtl
o #ID495
v 0.050921 0.267260 0.714857
v 0.050916 0.264874 0.714857
v 0.050904 0.265160 0.714857
v 0.051560 0.271729 0.714857
v 0.049617 0.271454 0.714857
v 0.049617 0.271792 0.714857
v 0.049919 0.271380 0.714857
v 0.050511 0.271247 0.714857
v 0.050782 0.271134 0.714857
v 0.050904 0.270842 0.714857
v 0.051551 0.263736 0.714857
v 0.052020 0.264777 0.714857
v 0.052049 0.264449 0.714857
v 0.052137 0.264268 0.714857
v 0.053325 0.263673 0.714857
v 0.052003 0.268118 0.714857
v 0.052397 0.264166 0.714857
v 0.052941 0.264079 0.714857
v 0.053325 0.264010 0.714857
v 0.049869 0.264067 0.714857
v 0.049617 0.263673 0.714857
v 0.049617 0.264010 0.714857
v 0.050507 0.264194 0.714857
v 0.050798 0.264311 0.714857
v 0.050886 0.264507 0.714857
v 0.052032 0.270619 0.714857
v 0.052062 0.270953 0.714857
v 0.052152 0.271142 0.714857
v 0.053330 0.271792 0.714857
v 0.052432 0.271263 0.714857
v 0.053033 0.271391 0.714857
v 0.053330 0.271454 0.714857
v 0.052032 0.270419 0.714857
vn 0 0 -1
vn 0 0 1
usemtl material_0_2
f 1//1 2//1 3//1
f 3//2 2//2 1//2
f 4//1 5//1 6//1
f 6//2 5//2 4//2
f 5//1 4//1 7//1
f 7//2 4//2 5//2
f 7//1 4//1 8//1
f 8//2 4//2 7//2
f 8//1 4//1 9//1
f 9//2 4//2 8//2
f 9//1 4//1 10//1
f 10//2 4//2 9//2
f 10//1 4//1 1//1
f 1//2 4//2 10//2
f 1//1 4//1 11//1
f 11//2 4//2 1//2
f 11//1 4//1 12//1
f 12//2 4//2 11//2
f 11//1 12//1 13//1
f 13//2 12//2 11//2
f 11//1 13//1 14//1
f 14//2 13//2 11//2
f 11//1 14//1 15//1
f 15//2 14//2 11//2
f 12//1 4//1 16//1
f 16//2 4//2 12//2
f 15//1 14//1 17//1
f 17//2 14//2 15//2
f 15//1 17//1 18//1
f 18//2 17//2 15//2
f 15//1 18//1 19//1
f 19//2 18//2 15//2
f 20//1 21//1 22//1
f 22//2 21//2 20//2
f 21//1 20//1 11//1
f 11//2 20//2 21//2
f 11//1 20//1 23//1
f 23//2 20//2 11//2
f 11//1 23//1 24//1
f 24//2 23//2 11//2
f 11//1 24//1 25//1
f 25//2 24//2 11//2
f 11//1 25//1 2//1
f 2//2 25//2 11//2
f 11//1 2//1 1//1
f 1//2 2//2 11//2
f 4//1 26//1 16//1
f 16//2 26//2 4//2
f 26//1 4//1 27//1
f 27//2 4//2 26//2
f 27//1 4//1 28//1
f 28//2 4//2 27//2
f 28//1 4//1 29//1
f 29//2 4//2 28//2
f 28//1 29//1 30//1
f 30//2 29//2 28//2
f 30//1 29//1 31//1
f 31//2 29//2 30//2
f 31//1 29//1 32//1
f 32//2 29//2 31//2
f 33//1 16//1 26//1
f 26//2 16//2 33//2
