# SSTK version 0.8.0
# 32
mtllib original-32.mtl
o Group4/mesh14/mesh14-geometry/material_1/component_0#mesh14-geometry
v -0.183053 0.406037 0.326597
v -0.183053 0.463109 0.274091
v -0.183053 0.460826 0.271808
v -0.183053 0.460826 0.271808
v -0.183053 0.463109 0.274091
v -0.183053 0.406037 0.326597
v -0.183053 0.460826 0.271808
v 0.188294 0.463109 0.274091
v 0.188294 0.460826 0.271808
v 0.188294 0.460826 0.271808
v 0.188294 0.463109 0.274091
v -0.183053 0.460826 0.271808
v 0.188294 0.463109 0.274091
v 0.188294 0.406037 0.326597
v 0.188294 0.460826 0.271808
v 0.188294 0.460826 0.271808
v 0.188294 0.406037 0.326597
v 0.188294 0.463109 0.274091
v 0.188294 0.406037 0.326597
v -0.183053 0.408320 0.328880
v -0.183053 0.406037 0.326597
v -0.183053 0.406037 0.326597
v -0.183053 0.408320 0.328880
v 0.188294 0.406037 0.326597
v -0.183053 0.463109 0.274091
v -0.183053 0.406037 0.326597
v -0.183053 0.408320 0.328880
v -0.183053 0.408320 0.328880
v -0.183053 0.406037 0.326597
v -0.183053 0.463109 0.274091
v 0.188294 0.463109 0.274091
v -0.183053 0.460826 0.271808
v -0.183053 0.463109 0.274091
v -0.183053 0.463109 0.274091
v -0.183053 0.460826 0.271808
v 0.188294 0.463109 0.274091
v 0.188294 0.406037 0.326597
v 0.188294 0.463109 0.274091
v 0.188294 0.408320 0.328880
v 0.188294 0.408320 0.328880
v 0.188294 0.463109 0.274091
v 0.188294 0.406037 0.326597
v -0.183053 0.408320 0.328880
v 0.188294 0.406037 0.326597
v 0.188294 0.408320 0.328880
v 0.188294 0.408320 0.328880
v 0.188294 0.406037 0.326597
v -0.183053 0.408320 0.328880
v -0.183053 0.408320 0.328880
v 0.188294 0.463109 0.274091
v -0.183053 0.463109 0.274091
v -0.183053 0.463109 0.274091
v 0.188294 0.463109 0.274091
v -0.183053 0.408320 0.328880
v 0.188294 0.463109 0.274091
v -0.183053 0.408320 0.328880
v 0.188294 0.408320 0.328880
v 0.188294 0.408320 0.328880
v -0.183053 0.408320 0.328880
v 0.188294 0.463109 0.274091
vn -1 0 0
vn 1 0 0
vn 0 0.7071067811865477 -0.7071067811865475
vn 0 -0.7071067811865477 0.7071067811865475
vn 0 0.7071067811865475 0.7071067811865477
vn 0 -0.7071067811865475 -0.7071067811865477
usemtl material_0_0
f 1//1 2//1 3//1
f 4//2 5//2 6//2
f 7//3 8//3 9//3
f 10//4 11//4 12//4
f 13//2 14//2 15//2
f 16//1 17//1 18//1
f 19//4 20//4 21//4
f 22//3 23//3 24//3
f 25//1 26//1 27//1
f 28//2 29//2 30//2
f 31//3 32//3 33//3
f 34//4 35//4 36//4
f 37//2 38//2 39//2
f 40//1 41//1 42//1
f 43//4 44//4 45//4
f 46//3 47//3 48//3
f 49//5 50//5 51//5
f 52//6 53//6 54//6
f 55//5 56//5 57//5
f 58//6 59//6 60//6
