# SSTK version 0.8.0
# 45
mtllib original-45.mtl
o Group_2/mesh139/mesh139-geometry#mesh139-geometry
v -0.221423 0.035214 0.584177
v -0.218692 -0.028544 0.584177
v -0.221423 -0.021040 0.584177
v -0.218692 0.042718 0.584177
v -0.221423 -0.021040 0.562970
v -0.221423 0.027228 0.562970
v -0.218692 0.042718 0.539406
v -0.213559 0.048835 0.584177
v -0.218692 -0.028544 0.562970
v -0.221423 0.027228 0.539406
v -0.221423 0.035214 0.539406
v -0.213559 -0.034661 0.584177
v -0.218692 0.019724 0.562970
v -0.218692 0.019724 0.539406
v -0.213559 0.048835 0.539406
v -0.206643 0.052828 0.584177
v -0.213559 -0.034661 0.562970
v -0.213559 0.013607 0.539406
v -0.206643 -0.038654 0.584177
v -0.206643 -0.038654 0.562970
v -0.178866 0.019724 0.562970
v -0.213559 0.013607 0.562970
v -0.206643 0.009614 0.539406
v -0.206643 0.052828 0.539406
v -0.198779 0.054214 0.584177
v -0.206643 0.009614 0.562970
v -0.198779 -0.040041 0.584177
v -0.198779 -0.040041 0.562970
v -0.198779 0.008227 0.562970
v -0.198779 0.008227 0.539406
v -0.198779 0.054214 0.539406
v -0.190915 0.052828 0.584177
v -0.190915 -0.038654 0.562970
v -0.190915 0.009614 0.562970
v -0.190915 -0.038654 0.584177
v -0.183999 -0.034661 0.562970
v -0.183999 0.013607 0.562970
v -0.190915 0.009614 0.539406
v -0.190915 0.052828 0.539406
v -0.183999 -0.034661 0.584177
v -0.178866 -0.028544 0.562970
v -0.183999 0.048835 0.539406
v -0.183999 0.048835 0.584177
v -0.178866 -0.028544 0.584177
v -0.176135 0.027228 0.562970
v -0.183999 0.013607 0.539406
v -0.176135 -0.021040 0.584177
v -0.176135 -0.021040 0.562970
v -0.178866 0.019724 0.539406
v -0.178866 0.042718 0.539406
v -0.178866 0.042718 0.584177
v -0.176135 0.035214 0.584177
v -0.176135 0.027228 0.539406
v -0.176135 0.035214 0.539406
vn 0 0 -1
vn 0 0 1
vn 0.8660253028382762 0.5000001748438417 0
vn 0.9848077908426045 0.17364796311995492 0
vn -0.9848077908426045 -0.17364796311995492 0
vn -0.8660253028382762 -0.5000001748438417 0
vn 0.9848077908426045 -0.17364796311995492 0
vn -0.9848077908426045 0.17364796311995492 0
vn 0.8660253028382762 -0.5000001748438417 0
vn -0.8660253028382762 0.5000001748438417 0
vn 0.6427880569253128 -0.7660440678408657 0
vn -0.6427880569253128 0.7660440678408657 0
vn 0.6427880569253128 0.7660440678408657 0
vn -0.6427880569253128 -0.7660440678408657 0
vn 0.342019894888923 -0.9396927112094517 0
vn -0.342019894888923 0.9396927112094517 0
vn 0.342019894888923 0.9396927112094517 0
vn -0.342019894888923 -0.9396927112094517 0
vn 0 -1 0
vn 0 1 0
usemtl material_0_0
f 1//1 2//1 3//1
f 2//1 1//1 4//1
f 3//2 2//2 1//2
f 4//2 1//2 2//2
f 2//3 5//4 3//4
f 3//5 5//5 2//6
f 3//4 6//4 1//7
f 1//8 6//5 3//5
f 1//7 7//9 4//9
f 4//10 7//10 1//8
f 2//1 4//1 8//1
f 8//2 4//2 2//2
f 5//4 2//3 9//3
f 9//6 2//6 5//5
f 6//4 3//4 5//4
f 5//5 3//5 6//5
f 1//7 6//4 10//4
f 10//5 6//5 1//8
f 7//9 1//7 11//7
f 11//8 1//8 7//10
f 7//9 8//11 4//9
f 4//10 8//12 7//10
f 2//1 8//1 12//1
f 12//2 8//2 2//2
f 12//13 9//3 2//3
f 2//6 9//6 12//14
f 9//2 6//2 5//2
f 5//1 6//1 9//1
f 13//3 10//4 6//4
f 6//5 10//5 13//6
f 1//7 10//4 11//7
f 11//8 10//5 1//8
f 11//2 14//2 7//2
f 7//1 14//1 11//1
f 8//11 7//9 15//11
f 15//12 7//10 8//12
f 12//1 8//1 16//1
f 16//2 8//2 12//2
f 9//3 12//13 17//13
f 17//14 12//14 9//6
f 6//2 9//2 13//2
f 13//1 9//1 6//1
f 10//4 13//3 14//3
f 14//6 13//6 10//5
f 14//2 11//2 10//2
f 10//1 11//1 14//1
f 7//2 14//2 18//2
f 18//1 14//1 7//1
f 7//2 18//2 15//2
f 15//1 18//1 7//1
f 15//11 16//15 8//11
f 8//12 16//16 15//12
f 12//1 16//1 19//1
f 19//2 16//2 12//2
f 12//13 20//17 17//13
f 17//14 20//18 12//14
f 17//2 21//2 9//2
f 9//1 21//1 17//1
f 13//2 9//2 22//2
f 22//1 9//1 13//1
f 22//13 14//3 13//3
f 13//6 14//6 22//14
f 14//3 22//13 18//13
f 18//14 22//14 14//6
f 15//2 18//2 23//2
f 23//1 18//1 15//1
f 16//15 15//11 24//15
f 24//16 15//12 16//16
f 19//1 16//1 25//1
f 25//2 16//2 19//2
f 20//17 12//13 19//17
f 19//18 12//14 20//18
f 21//2 17//2 20//2
f 20//1 17//1 21//1
f 22//2 9//2 26//2
f 26//1 9//1 22//1
f 22//13 23//17 18//13
f 18//14 23//18 22//14
f 15//2 23//2 24//2
f 24//1 23//1 15//1
f 24//15 25//19 16//15
f 16//16 25//20 24//16
f 19//1 25//1 27//1
f 27//2 25//2 19//2
f 19//17 28//20 20//17
f 20//18 28//19 19//18
f 21//2 20//2 28//2
f 28//1 20//1 21//1
f 26//2 9//2 29//2
f 29//1 9//1 26//1
f 23//17 22//13 26//17
f 26//18 22//14 23//18
f 24//2 23//2 30//2
f 30//1 23//1 24//1
f 25//19 24//15 31//19
f 31//20 24//16 25//20
f 27//1 25//1 32//1
f 32//2 25//2 27//2
f 28//20 19//17 27//20
f 27//19 19//18 28//19
f 21//2 28//2 33//2
f 33//1 28//1 21//1
f 29//2 9//2 34//2
f 34//1 9//1 29//1
f 29//20 23//17 26//17
f 26//18 23//18 29//19
f 23//17 29//20 30//20
f 30//19 29//19 23//18
f 24//2 30//2 31//2
f 31//1 30//1 24//1
f 31//19 32//18 25//19
f 25//20 32//17 31//20
f 27//1 32//1 35//1
f 35//2 32//2 27//2
f 35//16 28//20 27//20
f 27//19 28//19 35//15
f 28//20 35//16 33//16
f 33//15 35//15 28//19
f 21//2 33//2 36//2
f 36//1 33//1 21//1
f 34//2 9//2 37//2
f 37//1 9//1 34//1
f 38//16 29//20 34//16
f 34//15 29//19 38//15
f 29//20 38//16 30//20
f 30//19 38//15 29//19
f 31//2 30//2 38//2
f 38//1 30//1 31//1
f 32//18 31//19 39//18
f 39//17 31//20 32//17
f 35//1 32//1 40//1
f 40//2 32//2 35//2
f 35//16 36//12 33//16
f 33//15 36//11 35//15
f 21//2 36//2 41//2
f 41//1 36//1 21//1
f 37//12 38//16 34//16
f 34//15 38//15 37//11
f 31//2 38//2 39//2
f 39//1 38//1 31//1
f 42//14 32//18 39//18
f 39//17 32//17 42//13
f 40//1 32//1 43//1
f 43//2 32//2 40//2
f 36//12 35//16 40//12
f 40//11 35//15 36//11
f 36//12 44//10 41//10
f 41//9 44//9 36//11
f 21//2 41//2 45//2
f 45//1 41//1 21//1
f 38//16 37//12 46//12
f 46//11 37//11 38//15
f 39//2 38//2 46//2
f 46//1 38//1 39//1
f 32//18 42//14 43//14
f 43//13 42//13 32//17
f 39//2 46//2 42//2
f 42//1 46//1 39//1
f 40//1 43//1 44//1
f 44//2 43//2 40//2
f 44//10 36//12 40//12
f 40//11 36//11 44//9
f 47//8 41//10 44//10
f 44//9 41//9 47//7
f 45//2 41//2 48//2
f 48//1 41//1 45//1
f 45//8 49//10 21//10
f 21//9 49//9 45//7
f 21//10 46//12 37//12
f 37//11 46//11 21//9
f 50//6 43//14 42//14
f 42//13 43//13 50//3
f 42//2 46//2 49//2
f 49//1 46//1 42//1
f 44//1 43//1 51//1
f 51//2 43//2 44//2
f 41//10 47//8 48//8
f 48//7 47//7 41//9
f 44//1 51//1 47//1
f 47//2 51//2 44//2
f 48//8 52//5 45//8
f 45//7 52//4 48//7
f 49//10 45//8 53//8
f 53//7 45//7 49//9
f 46//12 21//10 49//10
f 49//9 21//9 46//11
f 43//14 50//6 51//6
f 51//3 50//3 43//13
f 42//2 49//2 50//2
f 50//1 49//1 42//1
f 52//5 48//8 47//8
f 47//7 48//7 52//4
f 47//1 51//1 52//1
f 52//2 51//2 47//2
f 54//5 45//8 52//5
f 52//4 45//7 54//4
f 45//8 54//5 53//8
f 53//7 54//4 45//7
f 50//2 49//2 53//2
f 53//1 49//1 50//1
f 54//5 51//6 50//6
f 50//3 51//3 54//4
f 51//6 54//5 52//5
f 52//4 54//4 51//3
f 50//2 53//2 54//2
f 54//1 53//1 50//1
