mtllib new-3.mtl
v 0.609148 0.056793 0.353628
v 0.609148 0.212622 0.353628
v 0.760149 0.212622 0.353628
v 0.595529 0.043173 0.367247
v 0.773768 0.226241 0.367247
v 0.595529 0.226241 0.367247
v 0.773768 0.043173 0.367247
v 0.540954 0.268623 0.367247
v 0.540954 -0.407672 0.367247
v 0.818187 0.268623 0.367247
v 0.818187 -0.407672 0.367247
v 0.540954 0.268623 0.316363
v 0.818187 -0.407672 0.316363
v 0.818187 0.268623 0.316363
v 0.540954 -0.407672 0.316363
vn -1.000000 0.000000 0.000000
vn 1.000000 0.000000 0.000000
vn 0.000000 0.000000 -1.000000
vn 0.707107 0.000000 0.707107
vn -0.707107 0.000000 -0.707107
vn 0.000000 1.000000 0.000000
vn 0.000000 -1.000000 0.000000
vn 0.000000 0.000000 1.000000
vn 0.000000 -0.707107 0.707107
vn 0.000000 0.707107 -0.707107
vn 0.000000 0.707107 0.707107
vn 0.000000 -0.707107 -0.707107
vn -0.707107 0.000000 0.707107
vn 0.707107 0.000000 -0.707107
usemtl material-0
f 2//4 4//4 1//4
f 1//5 4//5 2//5
f 4//4 2//4 6//4
f 6//5 2//5 4//5
f 7//11 1//11 4//11
f 4//12 1//12 7//12
f 2//9 5//9 6//9
f 6//10 5//10 2//10
f 3//13 7//13 5//13
f 5//14 7//14 3//14
f 8//8 4//8 6//8
f 6//3 4//3 8//3
f 9//8 7//8 4//8
f 4//3 7//3 9//3
f 5//8 10//8 6//8
f 6//3 10//3 5//3
f 7//8 10//8 5//8
f 5//3 10//3 7//3
f 4//8 8//8 9//8
f 9//3 8//3 4//3
f 8//8 6//8 10//8
f 10//3 6//3 8//3
f 11//8 7//8 9//8
f 9//3 7//3 11//3
f 7//8 11//8 10//8
f 10//3 11//3 7//3
f 12//1 9//1 8//1
f 8//2 9//2 12//2
f 10//6 12//6 8//6
f 8//7 12//7 10//7
f 9//7 13//7 11//7
f 11//6 13//6 9//6
f 11//2 14//2 10//2
f 10//1 14//1 11//1
f 9//1 12//1 15//1
f 15//2 12//2 9//2
f 12//6 10//6 14//6
f 14//7 10//7 12//7
f 13//7 9//7 15//7
f 15//6 9//6 13//6
f 14//2 11//2 13//2
f 13//1 11//1 14//1
f 12//3 13//3 15//3
f 15//8 13//8 12//8
f 13//3 12//3 14//3
f 14//8 12//8 13//8