# SSTK version 0.8.0
# 14
mtllib original-14.mtl
o Buttons5/Buttons/mesh38/mesh38-geometry#mesh38-geometry
v 0.636945 -0.218242 0.372017
v 0.627404 -0.217275 0.373607
v 0.636150 -0.219619 0.373607
v 0.627404 -0.215685 0.372017
v 0.618658 -0.219619 0.373607
v 0.643929 -0.225226 0.372017
v 0.627404 -0.215685 0.367247
v 0.617863 -0.218242 0.372017
v 0.612256 -0.226021 0.373607
v 0.642552 -0.226021 0.373607
v 0.643929 -0.225226 0.367247
v 0.636945 -0.218242 0.367247
v 0.617863 -0.218242 0.367247
v 0.610879 -0.225226 0.372017
v 0.646485 -0.234766 0.372017
v 0.646485 -0.234766 0.367247
v 0.609913 -0.234766 0.373607
v 0.608323 -0.234766 0.372017
v 0.644895 -0.234766 0.373607
v 0.610879 -0.225226 0.367247
v 0.643929 -0.244307 0.372017
v 0.643929 -0.244307 0.367247
v 0.608323 -0.234766 0.367247
v 0.642552 -0.243512 0.373607
v 0.612256 -0.243512 0.373607
v 0.610879 -0.244307 0.367247
v 0.610879 -0.244307 0.372017
v 0.636150 -0.249914 0.373607
v 0.636945 -0.251291 0.367247
v 0.618658 -0.249914 0.373607
v 0.636945 -0.251291 0.372017
v 0.617863 -0.251291 0.367247
v 0.617863 -0.251291 0.372017
v 0.627404 -0.252258 0.373607
v 0.627404 -0.253848 0.367247
v 0.627404 -0.253848 0.372017
vn 0.3535530884515692 0.612372153202672 0.7071071769033886
vn 0 0.7071067811865476 0.7071067811865478
vn -0.3535530884515692 -0.612372153202672 -0.7071071769033886
vn 0 -0.7071067811865476 -0.7071067811865478
vn 0 0 1
vn 0 0 -1
vn 0.6123721532026721 0.353553088451569 0.7071071769033886
vn -0.6123721532026721 -0.353553088451569 -0.7071071769033886
vn 0.5000001748438417 0.8660253028382762 0
vn 0 1 0
vn 0 -1 0
vn -0.5000001748438417 -0.8660253028382762 0
vn -0.3535530884515692 0.612372153202672 0.7071071769033886
vn 0.3535530884515692 -0.612372153202672 -0.7071071769033886
vn 0.8660253028382762 0.5000001748438417 0
vn -0.8660253028382762 -0.5000001748438417 0
vn -0.5000001748438417 0.8660253028382762 0
vn 0.5000001748438417 -0.8660253028382762 0
vn -0.6123721532026721 0.353553088451569 0.7071071769033886
vn 0.6123721532026721 -0.353553088451569 -0.7071071769033886
vn 0.7071067811865476 0 0.7071067811865476
vn -0.7071067811865476 0 -0.7071067811865476
vn 1 0 0
vn -1 0 0
vn -0.8660253028382762 0.5000001748438417 0
vn 0.8660253028382762 -0.5000001748438417 0
vn -0.7071067811865476 0 0.7071067811865476
vn 0.7071067811865476 0 -0.7071067811865476
vn 0.6123721532026721 -0.35355308845156935 0.7071071769033884
vn -0.6123721532026721 0.35355308845156935 -0.7071071769033884
vn -0.6123721532026721 -0.35355308845156935 0.7071071769033884
vn 0.6123721532026721 0.35355308845156935 -0.7071071769033884
vn 0.3535530884515692 -0.6123721532026722 0.7071071769033884
vn -0.3535530884515692 0.6123721532026722 -0.7071071769033884
vn -0.3535530884515692 -0.6123721532026722 0.7071071769033884
vn 0.3535530884515692 0.6123721532026722 -0.7071071769033884
vn 0 -0.7071067811865478 0.7071067811865476
vn 0 0.7071067811865478 -0.7071067811865476
usemtl material_0_0
f 1//1 2//2 3//1
f 2//2 1//1 4//2
f 3//3 2//4 1//3
f 4//4 1//3 2//4
f 5//5 3//5 2//5
f 2//6 3//6 5//6
f 3//1 6//7 1//1
f 1//3 6//8 3//3
f 1//9 7//10 4//10
f 4//11 7//11 1//12
f 8//13 2//2 4//2
f 4//4 2//4 8//14
f 9//5 3//5 5//5
f 5//6 3//6 9//6
f 2//2 8//13 5//13
f 5//14 8//14 2//4
f 6//7 3//1 10//7
f 10//8 3//3 6//8
f 11//15 1//9 6//15
f 6//16 1//12 11//16
f 7//10 1//9 12//9
f 12//12 1//12 7//11
f 13//17 4//10 7//10
f 7//11 4//11 13//18
f 4//10 13//17 8//17
f 8//18 13//18 4//11
f 9//5 10//5 3//5
f 3//6 10//6 9//6
f 5//13 14//19 9//19
f 9//20 14//20 5//14
f 14//19 5//13 8//13
f 8//14 5//14 14//20
f 10//7 15//21 6//7
f 6//8 15//22 10//8
f 1//9 11//15 12//9
f 12//12 11//16 1//12
f 6//15 16//23 11//15
f 11//16 16//24 6//16
f 12//6 13//6 7//6
f 7//5 13//5 12//5
f 13//17 14//25 8//17
f 8//18 14//26 13//18
f 17//5 10//5 9//5
f 9//6 10//6 17//6
f 18//27 9//19 14//19
f 14//20 9//20 18//28
f 15//21 10//7 19//21
f 19//22 10//8 15//22
f 16//23 6//15 15//23
f 15//24 6//16 16//24
f 11//6 20//6 12//6
f 12//5 20//5 11//5
f 16//6 20//6 11//6
f 11//5 20//5 16//5
f 12//6 20//6 13//6
f 13//5 20//5 12//5
f 14//25 13//17 20//25
f 20//26 13//18 14//26
f 17//5 19//5 10//5
f 10//6 19//6 17//6
f 9//19 18//27 17//27
f 17//28 18//28 9//20
f 20//25 18//24 14//25
f 14//26 18//23 20//26
f 19//21 21//29 15//21
f 15//22 21//30 19//22
f 15//23 22//26 16//23
f 16//24 22//25 15//24
f 16//6 23//6 20//6
f 20//5 23//5 16//5
f 17//5 24//5 19//5
f 19//6 24//6 17//6
f 18//27 25//31 17//27
f 17//28 25//32 18//28
f 18//24 20//25 23//24
f 23//23 20//26 18//23
f 21//29 19//21 24//29
f 24//30 19//22 21//30
f 22//26 15//23 21//26
f 21//25 15//24 22//25
f 22//6 26//6 16//6
f 16//5 26//5 22//5
f 16//6 26//6 23//6
f 23//5 26//5 16//5
f 25//5 24//5 17//5
f 17//6 24//6 25//6
f 25//31 18//27 27//31
f 27//32 18//28 25//32
f 23//24 27//16 18//24
f 18//23 27//15 23//23
f 28//33 21//29 24//29
f 24//30 21//30 28//34
f 21//26 29//18 22//26
f 22//25 29//17 21//25
f 29//6 26//6 22//6
f 22//5 26//5 29//5
f 27//16 23//24 26//16
f 26//15 23//23 27//15
f 25//5 28//5 24//5
f 24//6 28//6 25//6
f 27//31 30//35 25//31
f 25//32 30//36 27//32
f 21//29 28//33 31//33
f 31//34 28//34 21//30
f 29//18 21//26 31//18
f 31//17 21//25 29//17
f 29//6 32//6 26//6
f 26//5 32//5 29//5
f 26//16 33//12 27//16
f 27//15 33//9 26//15
f 30//5 28//5 25//5
f 25//6 28//6 30//6
f 30//35 27//31 33//35
f 33//36 27//32 30//36
f 34//37 31//33 28//33
f 28//34 31//34 34//38
f 31//18 35//11 29//18
f 29//17 35//10 31//17
f 32//6 29//6 35//6
f 35//5 29//5 32//5
f 33//12 26//16 32//12
f 32//9 26//15 33//9
f 28//5 30//5 34//5
f 34//6 30//6 28//6
f 36//37 30//35 33//35
f 33//36 30//36 36//38
f 31//33 34//37 36//37
f 36//38 34//38 31//34
f 35//11 31//18 36//11
f 36//10 31//17 35//10
f 36//11 32//12 35//11
f 35//10 32//9 36//10
f 32//12 36//11 33//12
f 33//9 36//10 32//9
f 30//35 36//37 34//37
f 34//38 36//38 30//36
