# SSTK version 0.8.0
# 45
mtllib original-45.mtl
o mesh123/mesh123-geometry#mesh123-geometry
v -0.228542 -0.200132 0.453351
v -0.257409 -0.210422 0.454863
v -0.258071 -0.207866 0.453206
v -0.227881 -0.202688 0.455008
v -0.258055 -0.212188 0.680547
v -0.229252 -0.197412 0.452820
v -0.256842 -0.212639 0.457531
v -0.257398 -0.214665 0.678739
v -0.258764 -0.209496 0.681242
v -0.258781 -0.205146 0.452675
v -0.227313 -0.204906 0.457676
v -0.228527 -0.204455 0.680693
v -0.229235 -0.201762 0.681387
v -0.229962 -0.194713 0.453451
v -0.226878 -0.206634 0.461175
v -0.256836 -0.216758 0.675940
v -0.227869 -0.206932 0.678884
v -0.229946 -0.199039 0.680921
v -0.259475 -0.206772 0.680776
v -0.259490 -0.202447 0.453306
v -0.256406 -0.214367 0.461030
v -0.230624 -0.192220 0.455200
v -0.226604 -0.207755 0.465266
v -0.256408 -0.218324 0.672341
v -0.227308 -0.209025 0.676085
v -0.230612 -0.196469 0.679325
v -0.260140 -0.204202 0.679180
v -0.260152 -0.199954 0.455055
v -0.256133 -0.215489 0.465121
v -0.231192 -0.190102 0.457948
v -0.226511 -0.208193 0.469671
v -0.256143 -0.219257 0.668187
v -0.226879 -0.210591 0.672485
v -0.231186 -0.194228 0.676709
v -0.260714 -0.201961 0.676563
v -0.260720 -0.197836 0.457803
v -0.256040 -0.215926 0.469526
v -0.261156 -0.196237 0.461363
v -0.226531 -0.211760 0.663906
v -0.256060 -0.219493 0.663762
v -0.226615 -0.211524 0.668332
v -0.231630 -0.192468 0.673250
v -0.261158 -0.200202 0.673104
v -0.231628 -0.188503 0.461508
v -0.261431 -0.195267 0.465492
v -0.261441 -0.199044 0.669039
v -0.231913 -0.191311 0.669184
v -0.231902 -0.187533 0.465637
v -0.261525 -0.194991 0.469910
v -0.261545 -0.198567 0.664644
v -0.232016 -0.190834 0.664789
v -0.231996 -0.187257 0.470055
vt 14.699539 -28.260771
vt 9.824539 -27.801044
vt 9.824539 -28.260771
vt 14.699539 -27.801044
vt -34.182775 11.433957
vt -34.575231 34.750352
vt -34.599643 11.258027
vt 9.824539 -33.481409
vt 14.699539 -33.941137
vt 14.699539 -33.481409
vt 14.699539 -20.670146
vt 9.824539 -20.210419
vt 9.824539 -20.670146
vt -34.160888 34.568211
vt -35.021724 34.817023
vt 9.824539 -33.941137
vt 14.699539 -20.210419
vt -33.824803 11.713822
vt 9.824539 45.652046
vt 14.699539 46.111823
vt 9.824539 46.111823
vt 9.824539 39.894312
vt 14.699539 40.354089
vt 9.824539 40.354089
vt -35.046997 11.19802
vt -9.824539 36.864407
vt -14.699539 37.324134
vt -14.699539 36.864407
vt 14.699539 -11.226822
vt 9.824539 -11.68655
vt 14.699539 -11.68655
vt -33.806932 34.283014
vt 14.699539 45.652046
vt 14.699539 39.894312
vt -14.699539 -31.861956
vt -9.824539 -31.402179
vt -14.699539 -31.402179
vt -35.469939 34.763681
vt -9.824539 37.324134
vt 9.824539 -11.226822
vt -33.550121 12.078548
vt 9.824539 48.283003
vt 14.699539 48.74278
vt 9.824539 48.74278
vt -9.824539 -31.861956
vt -35.494351 11.258027
vt -9.824539 37.719491
vt -14.699539 38.179219
vt -14.699539 37.719491
vt 14.699539 -1.462471
vt 9.824539 -1.922199
vt 14.699539 -1.922199
vt -33.537485 33.914195
vt 14.699539 48.283003
vt -14.699539 -21.214151
vt -9.824539 -20.754374
vt -14.699539 -20.754374
vt -35.889331 34.593961
vt -9.824539 38.179219
vt 9.824539 -1.462471
vt -33.377449 12.503281
vt 9.824539 47.607886
vt 14.699539 48.067663
vt 9.824539 48.067663
vt -9.824539 -21.214151
vt -35.911218 11.433957
vt -9.824539 35.988389
vt -14.699539 36.448117
vt -14.699539 35.988389
vt 14.699539 8.417209
vt 9.824539 7.957482
vt 14.699539 7.957482
vt -33.370908 33.48689
vt 14.699539 47.607886
vt -14.699539 -9.136302
vt -9.824539 -8.676525
vt -14.699539 -8.676525
vt -36.25132 34.319429
vt -9.824539 36.448117
vt 9.824539 8.417209
vt -33.318554 12.959076
vt 9.824539 43.672704
vt 14.699539 44.132481
vt 9.824539 44.132481
vt -9.824539 -9.136302
vt -36.26919 11.713822
vt -9.824539 32.248802
vt -14.699539 31.789074
vt -9.824539 31.789074
vt 14.699539 33.030218
vt 9.824539 12.959076
vt 14.699539 12.959076
vt -33.318554 33.030218
vt 14.699539 43.672704
vt -14.699539 3.548504
vt -9.824539 4.00828
vt -14.699539 4.00828
vt -36.531236 33.958795
vt -14.699539 32.248802
vt -36.543872 12.078548
vt 9.824539 33.030218
vt 9.824539 36.745633
vt 14.699539 37.205409
vt 9.824539 37.205409
vt -9.824539 3.548504
vt -9.824539 25.867448
vt -14.699539 25.407721
vt -9.824539 25.407721
vt -36.710003 33.536634
vt 14.699539 36.745633
vt -14.699539 15.975818
vt -9.824539 16.435595
vt -14.699539 16.435595
vt -14.699539 25.867448
vt -36.716544 12.503281
vt -9.824539 15.975818
vt -9.824539 17.738936
vt -14.699539 17.279208
vt -9.824539 17.279208
vt -36.77544 33.081717
vt -14.699539 27.298741
vt -9.824539 27.758518
vt -14.699539 27.758518
vt -14.699539 17.738936
vt -36.77544 12.959076
vt -9.824539 27.298741
vt -9.824539 33.081717
vt -14.699539 12.959076
vt -9.824539 12.959076
vt -14.699539 33.081717
vt 9.824539 -28.846921
vt 9.824539 -28.377658
vt 14.699539 -28.846921
vt 14.699539 -28.377658
vt -34.599643 11.491527
vt -34.575231 35.4711
vt -34.182775 11.671106
vt 14.699539 -34.175838
vt 14.699539 -34.645101
vt 9.824539 -34.175838
vt 9.824539 -21.09886
vt 9.824539 -20.629598
vt 14.699539 -21.09886
vt -34.160888 35.285182
vt -35.021724 35.539154
vt 9.824539 -34.645101
vt 14.699539 -20.629598
vt -33.824803 11.956775
vt 9.824539 47.068217
vt 14.699539 47.068217
vt 9.824539 46.598904
vt 9.824539 41.191062
vt 14.699539 41.191062
vt 9.824539 40.721749
vt -35.046997 11.430276
vt -14.699539 37.629002
vt -14.699539 38.098264
vt -9.824539 37.629002
vt 14.699539 -11.928937
vt 9.824539 -11.928937
vt 14.699539 -11.459675
vt -33.806932 34.994069
vt 14.699539 46.598904
vt 14.699539 40.721749
vt -14.699539 -32.053484
vt -9.824539 -32.053484
vt -14.699539 -32.522797
vt -35.469939 35.484705
vt -9.824539 38.098264
vt 9.824539 -11.459675
vt -33.550121 12.329066
vt 9.824539 49.753741
vt 14.699539 49.753741
vt 9.824539 49.284428
vt -9.824539 -32.522797
vt -35.494351 11.491527
vt -14.699539 38.501821
vt -14.699539 38.971084
vt -9.824539 38.501821
vt 14.699539 -1.962067
vt 9.824539 -1.962067
vt 14.699539 -1.492804
vt -33.537485 34.617601
vt 14.699539 49.284428
vt -14.699539 -21.184835
vt -9.824539 -21.184835
vt -14.699539 -21.654148
vt -35.889331 35.311465
vt -9.824539 38.971084
vt 9.824539 -1.492804
vt -33.377449 12.762608
vt 9.824539 49.064622
vt 14.699539 49.064622
vt 9.824539 48.595309
vt -9.824539 -21.654148
vt -35.911218 11.671106
vt -14.699539 36.734815
vt -14.699539 37.204078
vt -9.824539 36.734815
vt 14.699539 8.122526
vt 9.824539 8.122526
vt 14.699539 8.591789
vt -33.370908 34.181433
vt 14.699539 48.595309
vt -14.699539 -8.856483
vt -9.824539 -8.856483
vt -14.699539 -9.325796
vt -36.25132 35.03124
vt -9.824539 37.204078
vt 9.824539 8.591789
vt -33.318554 13.227856
vt 9.824539 45.047821
vt 14.699539 45.047821
vt 9.824539 44.578508
vt -9.824539 -9.325796
vt -36.26919 11.956775
vt -9.824539 32.448403
vt -14.699539 32.448403
vt -9.824539 32.917666
vt 14.699539 13.227856
vt 9.824539 13.227856
vt 14.699539 33.715289
vt -33.318554 33.715289
vt 14.699539 44.578508
vt -14.699539 4.091415
vt -9.824539 4.091415
vt -14.699539 3.622102
vt -36.531236 34.663125
vt -14.699539 32.917666
vt -36.543872 12.329066
vt 9.824539 33.715289
vt 9.824539 37.977077
vt 14.699539 37.977077
vt 9.824539 37.507764
vt -9.824539 3.622102
vt -9.824539 25.934696
vt -14.699539 25.934696
vt -9.824539 26.403958
vt -36.710003 34.232209
vt 14.699539 37.507764
vt -14.699539 16.776481
vt -9.824539 16.776481
vt -14.699539 16.307169
vt -14.699539 26.403958
vt -36.716544 12.762608
vt -9.824539 16.307169
vt -9.824539 17.637592
vt -14.699539 17.637592
vt -9.824539 18.106855
vt -36.77544 33.767856
vt -14.699539 28.33425
vt -9.824539 28.33425
vt -14.699539 27.864937
vt -14.699539 18.106855
vt -36.77544 13.227856
vt -9.824539 27.864937
vt -9.824539 13.227856
vt -14.699539 13.227856
vt -9.824539 33.767856
vt -14.699539 33.767856
vn 0.04260200192184025 -0.14411800650137935 -0.9886430445991717
vn 0.08731297203863637 -0.31565389891406437 -0.9448486974188671
vn -0.967360921649089 -0.253357979479398 -0.00475199961511424
vn 0.0001030000429772404 0.01836100766121489 -0.9998314171842452
vn 0.13591495550382934 -0.5029338353482903 -0.8535717205556019
vn 0.08972298682624398 -0.359994947143026 0.9286298636520728
vn 0.04481899287604406 -0.18952296987542133 0.9808528440939432
vn 0.0022499992971037044 -0.027338991459341634 0.9996236877191083
vn -0.04239898992521681 0.1803199571526476 -0.982693766493809
vn 0.18755200326471774 -0.7032390122412815 -0.6857690119371814
vn -0.040190010607350904 0.13488203559942016 0.9900462613029444
vn 0.13857807007416684 -0.5446282753997991 0.8271494182610298
vn -0.08712001387717389 0.3501320557718396 -0.9326401485583957
vn 0.23350494358684695 -0.8839597864415288 -0.4050809021353016
vn -0.08472401730572952 0.30570206244270937 0.9483501937100304
vn 0.1902720444146377 -0.7386211724141446 0.6467111509598613
vn -0.13574105031446573 0.5339351979111271 -0.834558309341613
vn 0.24814602597642366 -0.9433260987492678 -0.22036202306793873
vn -0.13309103247681114 0.4920241200634942 0.8603482099417656
vn 0.235449021862149 -0.9055980840875029 0.3527830327569642
vn -0.18741292679474467 0.7279447156579342 -0.6595247423834204
vn 0.2534021127001079 -0.967198430159663 -0.017736007888056002
vn -0.18468100381200067 0.6920540142846869 0.6978210144037239
vn 0.24920194067698667 -0.95455777276564 0.16345596108898594
vn -0.23342485526846474 0.8982374430615199 -0.3724007690985605
vn -0.2314019570711228 0.8755768375660645 0.42404992133175023
vn -0.2481039836274946 0.9507819372574268 -0.18562898775025047
vn -0.24693309126512927 0.9382893467866461 0.2421510894977276
vn -0.2534021127001079 0.967198430159663 0.017736007888056002
vn -0.04260200192184025 0.14411800650137935 0.9886430445991717
vn -0.08731297203863637 0.31565389891406437 0.9448486974188671
vn 0.967360921649089 0.253357979479398 0.00475199961511424
vn -0.0001030000429772404 -0.01836100766121489 0.9998314171842452
vn -0.13591495550382934 0.5029338353482903 0.8535717205556019
vn -0.04481899287604406 0.18952296987542133 -0.9808528440939432
vn -0.08972298682624398 0.359994947143026 -0.9286298636520728
vn -0.0022499992971037044 0.027338991459341634 -0.9996236877191083
vn 0.04239898992521681 -0.1803199571526476 0.982693766493809
vn -0.18755200326471774 0.7032390122412815 0.6857690119371814
vn 0.040190010607350904 -0.13488203559942016 -0.9900462613029444
vn -0.13857807007416684 0.5446282753997991 -0.8271494182610298
vn 0.08712001387717389 -0.3501320557718396 0.9326401485583957
vn -0.23350494358684695 0.8839597864415288 0.4050809021353016
vn 0.08472401730572952 -0.30570206244270937 -0.9483501937100304
vn -0.1902720444146377 0.7386211724141446 -0.6467111509598613
vn 0.13574105031446573 -0.5339351979111271 0.834558309341613
vn -0.24814602597642366 0.9433260987492678 0.22036202306793873
vn 0.13309103247681114 -0.4920241200634942 -0.8603482099417656
vn -0.235449021862149 0.9055980840875029 -0.3527830327569642
vn 0.18741292679474467 -0.7279447156579342 0.6595247423834204
vn 0.18468100381200067 -0.6920540142846869 -0.6978210144037239
vn -0.24920194067698667 0.95455777276564 -0.16345596108898594
vn 0.23342485526846474 -0.8982374430615199 0.3724007690985605
vn 0.2314019570711228 -0.8755768375660645 -0.42404992133175023
vn 0.2481039836274946 -0.9507819372574268 0.18562898775025047
vn 0.24693309126512927 -0.9382893467866461 -0.2421510894977276
usemtl material_0_0
f 1/1/1 2/2/2 3/3/1
f 2/2/2 1/1/1 4/4/2
f 2/5/3 5/6/3 3/7/3
f 3/8/1 6/9/4 1/10/1
f 4/11/2 7/12/5 2/13/2
f 2/5/3 8/14/3 5/6/3
f 3/7/3 5/6/3 9/15/3
f 6/9/4 3/8/1 10/16/4
f 7/12/5 4/11/2 11/17/5
f 7/18/3 8/14/3 2/5/3
f 8/19/6 12/20/7 5/21/7
f 5/22/7 13/23/8 9/24/8
f 3/7/3 9/15/3 10/25/3
f 10/26/4 14/27/9 6/28/4
f 15/29/10 7/30/5 11/31/5
f 7/18/3 16/32/3 8/14/3
f 12/20/7 8/19/6 17/33/6
f 13/23/8 5/22/7 12/34/7
f 18/35/11 9/36/8 13/37/8
f 10/25/3 9/15/3 19/38/3
f 14/27/9 10/26/4 20/39/9
f 7/30/5 15/29/10 21/40/10
f 21/41/3 16/32/3 7/18/3
f 16/42/12 17/43/6 8/44/6
f 9/36/8 18/35/11 19/45/11
f 10/25/3 19/38/3 20/46/3
f 20/47/9 22/48/13 14/49/9
f 23/50/14 21/51/10 15/52/10
f 21/41/3 24/53/3 16/32/3
f 17/43/6 16/42/12 25/54/12
f 26/55/15 19/56/11 18/57/11
f 20/46/3 19/38/3 27/58/3
f 22/48/13 20/47/9 28/59/13
f 21/51/10 23/50/14 29/60/14
f 29/61/3 24/53/3 21/41/3
f 24/62/16 25/63/12 16/64/12
f 19/56/11 26/55/15 27/65/15
f 20/46/3 27/58/3 28/66/3
f 28/67/13 30/68/17 22/69/13
f 31/70/18 29/71/14 23/72/14
f 29/61/3 32/73/3 24/53/3
f 25/63/12 24/62/16 33/74/16
f 34/75/19 27/76/15 26/77/15
f 28/66/3 27/58/3 35/78/3
f 30/68/17 28/67/13 36/79/17
f 29/71/14 31/70/18 37/80/18
f 37/81/3 32/73/3 29/61/3
f 32/82/20 33/83/16 24/84/16
f 27/76/15 34/75/19 35/85/19
f 28/66/3 35/78/3 36/86/3
f 38/87/21 30/88/17 36/89/17
f 39/90/22 37/91/22 31/92/22
f 32/73/3 37/81/3 40/93/3
f 33/83/16 32/82/20 41/94/20
f 42/95/23 35/96/19 34/97/19
f 36/86/3 35/78/3 43/98/3
f 30/88/17 38/87/21 44/99/21
f 36/86/3 43/98/3 38/100/3
f 37/91/22 39/90/22 40/101/22
f 40/102/24 41/103/20 32/104/20
f 35/96/19 42/95/23 43/105/23
f 45/106/25 44/107/21 38/108/21
f 38/100/3 43/98/3 46/109/3
f 41/103/20 40/102/24 39/110/24
f 47/111/26 43/112/23 42/113/23
f 44/107/21 45/106/25 48/114/25
f 38/100/3 46/109/3 45/115/3
f 43/112/23 47/111/26 46/116/26
f 49/117/27 48/118/25 45/119/25
f 45/115/3 46/109/3 50/120/3
f 51/121/28 46/122/26 47/123/26
f 48/118/25 49/117/27 52/124/27
f 45/115/3 50/120/3 49/125/3
f 46/122/26 51/121/28 50/126/28
f 50/127/29 52/128/29 49/129/29
f 52/128/29 50/127/29 51/130/29
usemtl material_1_0
f 3/131/30 2/132/31 1/133/30
f 4/134/31 1/133/30 2/132/31
f 3/135/32 5/136/32 2/137/32
f 1/138/30 6/139/33 3/140/30
f 2/141/31 7/142/34 4/143/31
f 5/136/32 8/144/32 2/137/32
f 9/145/32 5/136/32 3/135/32
f 10/146/33 3/140/30 6/139/33
f 11/147/34 4/143/31 7/142/34
f 2/137/32 8/144/32 7/148/32
f 5/149/35 12/150/35 8/151/36
f 9/152/37 13/153/37 5/154/35
f 10/155/32 9/145/32 3/135/32
f 6/156/33 14/157/38 10/158/33
f 11/159/34 7/160/34 15/161/39
f 8/144/32 16/162/32 7/148/32
f 17/163/36 8/151/36 12/150/35
f 12/164/35 5/154/35 13/153/37
f 13/165/37 9/166/37 18/167/40
f 19/168/32 9/145/32 10/155/32
f 20/169/38 10/158/33 14/157/38
f 21/170/39 15/161/39 7/160/34
f 7/148/32 16/162/32 21/171/32
f 8/172/36 17/173/36 16/174/41
f 19/175/40 18/167/40 9/166/37
f 20/176/32 19/168/32 10/155/32
f 14/177/38 22/178/42 20/179/38
f 15/180/39 21/181/39 23/182/43
f 16/162/32 24/183/32 21/171/32
f 25/184/41 16/174/41 17/173/36
f 18/185/40 19/186/40 26/187/44
f 27/188/32 19/168/32 20/176/32
f 28/189/42 20/179/38 22/178/42
f 29/190/43 23/182/43 21/181/39
f 21/171/32 24/183/32 29/191/32
f 16/192/41 25/193/41 24/194/45
f 27/195/44 26/187/44 19/186/40
f 28/196/32 27/188/32 20/176/32
f 22/197/42 30/198/46 28/199/42
f 23/200/43 29/201/43 31/202/47
f 24/183/32 32/203/32 29/191/32
f 33/204/45 24/194/45 25/193/41
f 26/205/44 27/206/44 34/207/48
f 35/208/32 27/188/32 28/196/32
f 36/209/46 28/199/42 30/198/46
f 37/210/47 31/202/47 29/201/43
f 29/191/32 32/203/32 37/211/32
f 24/212/45 33/213/45 32/214/49
f 35/215/48 34/207/48 27/206/44
f 36/216/32 35/208/32 28/196/32
f 36/217/46 30/218/46 38/219/50
f 31/220/29 37/221/29 39/222/29
f 40/223/32 37/211/32 32/203/32
f 41/224/49 32/214/49 33/213/45
f 34/225/48 35/226/48 42/227/51
f 43/228/32 35/208/32 36/216/32
f 44/229/50 38/219/50 30/218/46
f 38/230/32 43/228/32 36/216/32
f 40/231/29 39/222/29 37/221/29
f 32/232/49 41/233/49 40/234/52
f 43/235/51 42/227/51 35/226/48
f 38/236/50 44/237/50 45/238/53
f 46/239/32 43/228/32 38/230/32
f 39/240/52 40/234/52 41/233/49
f 42/241/51 43/242/51 47/243/54
f 48/244/53 45/238/53 44/237/50
f 45/245/32 46/239/32 38/230/32
f 46/246/54 47/243/54 43/242/51
f 45/247/53 48/248/53 49/249/55
f 50/250/32 46/239/32 45/245/32
f 47/251/54 46/252/54 51/253/56
f 52/254/55 49/249/55 48/248/53
f 49/255/32 50/250/32 45/245/32
f 50/256/56 51/253/56 46/252/54
f 49/257/22 52/258/22 50/259/22
f 51/260/22 50/259/22 52/258/22
