# SSTK version 0.8.0
# 63
mtllib original-63.mtl
o mesh3/mesh3-geometry/material_1/component_3#mesh3-geometry
v -0.261015 -0.453876 0.160238
v -0.261015 0.158817 0.148670
v -0.261015 -0.453876 0.148670
v -0.261015 -0.453876 0.148670
v -0.261015 0.158817 0.148670
v -0.261015 -0.453876 0.160238
v -0.261015 0.158817 0.148670
v -0.261015 -0.453876 0.160238
v -0.261015 0.158817 0.160238
v -0.261015 0.158817 0.160238
v -0.261015 -0.453876 0.160238
v -0.261015 0.158817 0.148670
v -0.261015 0.158817 0.148670
v -0.267625 -0.453876 0.148670
v -0.261015 -0.453876 0.148670
v -0.261015 -0.453876 0.148670
v -0.267625 -0.453876 0.148670
v -0.261015 0.158817 0.148670
v -0.267625 -0.453876 0.148670
v -0.270468 0.158817 0.148604
v -0.270468 -0.453876 0.148604
v -0.270468 -0.453876 0.148604
v -0.270468 0.158817 0.148604
v -0.267625 -0.453876 0.148670
v -0.267625 -0.453876 0.148670
v -0.261015 0.158817 0.148670
v -0.267625 0.158817 0.148670
v -0.267625 0.158817 0.148670
v -0.261015 0.158817 0.148670
v -0.267625 -0.453876 0.148670
v -0.270468 0.158817 0.148604
v -0.273310 -0.453876 0.148273
v -0.270468 -0.453876 0.148604
v -0.270468 -0.453876 0.148604
v -0.273310 -0.453876 0.148273
v -0.270468 0.158817 0.148604
v -0.270468 0.158817 0.148604
v -0.267625 -0.453876 0.148670
v -0.267625 0.158817 0.148670
v -0.267625 0.158817 0.148670
v -0.267625 -0.453876 0.148670
v -0.270468 0.158817 0.148604
v -0.273310 0.158817 0.148273
v -0.276087 -0.453876 0.147612
v -0.273310 -0.453876 0.148273
v -0.273310 -0.453876 0.148273
v -0.276087 -0.453876 0.147612
v -0.273310 0.158817 0.148273
v -0.273310 -0.453876 0.148273
v -0.270468 0.158817 0.148604
v -0.273310 0.158817 0.148273
v -0.273310 0.158817 0.148273
v -0.270468 0.158817 0.148604
v -0.273310 -0.453876 0.148273
v -0.276087 0.158817 0.147612
v -0.278764 -0.453876 0.146753
v -0.276087 -0.453876 0.147612
v -0.276087 -0.453876 0.147612
v -0.278764 -0.453876 0.146753
v -0.276087 0.158817 0.147612
v -0.276087 -0.453876 0.147612
v -0.273310 0.158817 0.148273
v -0.276087 0.158817 0.147612
v -0.276087 0.158817 0.147612
v -0.273310 0.158817 0.148273
v -0.276087 -0.453876 0.147612
v -0.291787 -0.453876 0.136308
v -0.293208 0.158817 0.133928
v -0.293208 -0.453876 0.133928
v -0.293208 -0.453876 0.133928
v -0.293208 0.158817 0.133928
v -0.291787 -0.453876 0.136308
v -0.293208 -0.453876 0.133928
v -0.294398 0.158817 0.131350
v -0.294398 -0.453876 0.131350
v -0.294398 -0.453876 0.131350
v -0.294398 0.158817 0.131350
v -0.293208 -0.453876 0.133928
v -0.278764 0.158817 0.146753
v -0.281375 -0.453876 0.145563
v -0.278764 -0.453876 0.146753
v -0.278764 -0.453876 0.146753
v -0.281375 -0.453876 0.145563
v -0.278764 0.158817 0.146753
v -0.278764 -0.453876 0.146753
v -0.276087 0.158817 0.147612
v -0.278764 0.158817 0.146753
v -0.278764 0.158817 0.146753
v -0.276087 0.158817 0.147612
v -0.278764 -0.453876 0.146753
v -0.290134 -0.453876 0.138556
v -0.291787 0.158817 0.136308
v -0.291787 -0.453876 0.136308
v -0.291787 -0.453876 0.136308
v -0.291787 0.158817 0.136308
v -0.290134 -0.453876 0.138556
v -0.293208 0.158817 0.133928
v -0.291787 -0.453876 0.136308
v -0.291787 0.158817 0.136308
v -0.291787 0.158817 0.136308
v -0.291787 -0.453876 0.136308
v -0.293208 0.158817 0.133928
v -0.294398 0.158817 0.131350
v -0.293208 -0.453876 0.133928
v -0.293208 0.158817 0.133928
v -0.293208 0.158817 0.133928
v -0.293208 -0.453876 0.133928
v -0.294398 0.158817 0.131350
v -0.294398 -0.453876 0.131350
v -0.294398 0.158817 0.015931
v -0.294398 -0.453876 0.015931
v -0.294398 -0.453876 0.015931
v -0.294398 0.158817 0.015931
v -0.294398 -0.453876 0.131350
v -0.294398 -0.453876 0.015931
v -0.293770 0.158817 0.000661
v -0.293770 -0.453876 0.000661
v -0.293770 -0.453876 0.000661
v -0.293770 0.158817 0.000661
v -0.294398 -0.453876 0.015931
v -0.294398 0.158817 0.015931
v -0.294398 -0.453876 0.131350
v -0.294398 0.158817 0.131350
v -0.294398 0.158817 0.131350
v -0.294398 -0.453876 0.131350
v -0.294398 0.158817 0.015931
v -0.281375 0.158817 0.145563
v -0.283821 -0.453876 0.144175
v -0.281375 -0.453876 0.145563
v -0.281375 -0.453876 0.145563
v -0.283821 -0.453876 0.144175
v -0.281375 0.158817 0.145563
v -0.281375 -0.453876 0.145563
v -0.278764 0.158817 0.146753
v -0.281375 0.158817 0.145563
v -0.281375 0.158817 0.145563
v -0.278764 0.158817 0.146753
v -0.281375 -0.453876 0.145563
v -0.288217 -0.453876 0.140605
v -0.290134 0.158817 0.138556
v -0.290134 -0.453876 0.138556
v -0.290134 -0.453876 0.138556
v -0.290134 0.158817 0.138556
v -0.288217 -0.453876 0.140605
v -0.291787 0.158817 0.136308
v -0.290134 -0.453876 0.138556
v -0.290134 0.158817 0.138556
v -0.290134 0.158817 0.138556
v -0.290134 -0.453876 0.138556
v -0.291787 0.158817 0.136308
v -0.293770 0.158817 0.000661
v -0.294398 -0.453876 0.015931
v -0.294398 0.158817 0.015931
v -0.294398 0.158817 0.015931
v -0.294398 -0.453876 0.015931
v -0.293770 0.158817 0.000661
v -0.293770 0.158817 0.000661
v -0.411436 -0.453876 0.000661
v -0.293770 -0.453876 0.000661
v -0.293770 -0.453876 0.000661
v -0.411436 -0.453876 0.000661
v -0.293770 0.158817 0.000661
v -0.283821 0.158817 0.144175
v -0.286102 -0.453876 0.142522
v -0.283821 -0.453876 0.144175
v -0.283821 -0.453876 0.144175
v -0.286102 -0.453876 0.142522
v -0.283821 0.158817 0.144175
v -0.283821 -0.453876 0.144175
v -0.281375 0.158817 0.145563
v -0.283821 0.158817 0.144175
v -0.283821 0.158817 0.144175
v -0.281375 0.158817 0.145563
v -0.283821 -0.453876 0.144175
v -0.286102 -0.453876 0.142522
v -0.288217 0.158817 0.140605
v -0.288217 -0.453876 0.140605
v -0.288217 -0.453876 0.140605
v -0.288217 0.158817 0.140605
v -0.286102 -0.453876 0.142522
v -0.290134 0.158817 0.138556
v -0.288217 -0.453876 0.140605
v -0.288217 0.158817 0.140605
v -0.288217 0.158817 0.140605
v -0.288217 -0.453876 0.140605
v -0.290134 0.158817 0.138556
v -0.411436 -0.453876 0.000661
v -0.293770 0.158817 0.000661
v -0.411436 0.158817 0.000661
v -0.411436 0.158817 0.000661
v -0.293770 0.158817 0.000661
v -0.411436 -0.453876 0.000661
v -0.286102 -0.453876 0.142522
v -0.283821 0.158817 0.144175
v -0.286102 0.158817 0.142522
v -0.286102 0.158817 0.142522
v -0.283821 0.158817 0.144175
v -0.286102 -0.453876 0.142522
v -0.288217 0.158817 0.140605
v -0.286102 -0.453876 0.142522
v -0.286102 0.158817 0.142522
v -0.286102 0.158817 0.142522
v -0.286102 -0.453876 0.142522
v -0.288217 0.158817 0.140605
vt -64.39010620117188 0
vt -63.30815124511719 -28.989999771118164
vt -63.30815124511719 0
vt -64.39010620117188 -28.989999771118164
vt -44.26755142211914 -28.989999771118164
vt -43.66311264038086 0
vt -44.26755142211914 0
vt -45.023468017578125 0
vt -44.763397216796875 -28.989999771118164
vt -44.763397216796875 0
vt -43.66311264038086 -28.989999771118164
vt -50.90597915649414 -28.989999771118164
vt -50.64590835571289 0
vt -50.90597915649414 0
vt -45.023468017578125 -28.989999771118164
vt -56.25585174560547 -28.989999771118164
vt -55.99578094482422 0
vt -56.25585174560547 0
vt -50.64590835571289 -28.989999771118164
vt -61.0169563293457 -28.989999771118164
vt -60.75688552856445 0
vt -61.0169563293457 0
vt -55.99578094482422 -28.989999771118164
vt -74.55894470214844 0
vt -74.29887390136719 -28.989999771118164
vt -74.29887390136719 0
vt -73.42215728759766 0
vt -73.1620864868164 -28.989999771118164
vt -73.1620864868164 0
vt -65.13935852050781 -28.989999771118164
vt -64.87928771972656 0
vt -65.13935852050781 0
vt -60.75688552856445 -28.989999771118164
vt -74.91497039794922 0
vt -74.65489959716797 -28.989999771118164
vt -74.65489959716797 0
vt -74.55894470214844 -28.989999771118164
vt -73.42215728759766 -28.989999771118164
vt -61.69012451171875 0
vt -50.88875961303711 -28.989999771118164
vt -50.88875961303711 0
vt -49.18851852416992 0
vt -47.75261688232422 -28.989999771118164
vt -47.75261688232422 0
vt -61.69012451171875 -28.989999771118164
vt -68.57980346679688 -28.989999771118164
vt -68.31973266601562 0
vt -68.57980346679688 0
vt -64.87928771972656 -28.989999771118164
vt -74.48649597167969 0
vt -74.22642517089844 -28.989999771118164
vt -74.22642517089844 0
vt -74.91497039794922 -28.989999771118164
vt -49.18851852416992 -28.989999771118164
vt -41.27913284301758 -28.989999771118164
vt -30.538707733154297 0
vt -41.27913284301758 0
vt -71.30220794677734 -28.989999771118164
vt -71.0421371459961 0
vt -71.30220794677734 0
vt -68.31973266601562 -28.989999771118164
vt -73.27801513671875 0
vt -73.0179443359375 -28.989999771118164
vt -73.0179443359375 0
vt -74.48649597167969 -28.989999771118164
vt -30.538707733154297 -28.989999771118164
vt -71.0421371459961 -28.989999771118164
vt -73.27801513671875 -28.989999771118164
vn -1 0 0
vn 1 0 0
vn 0 0 1
vn 0 0 -1
vn -0.02220401076827151 0 0.9997534605620539
vn -0.07467598843116961 0 0.9972078503260129
vn 0.07467598843116961 0 -0.9972078503260129
vn 0.02220401076827151 0 -0.9997534605620539
vn -0.17878406437472727 0 0.9838883363093871
vn 0.17878406437472727 0 -0.9838883363093871
vn -0.2807399626532517 0 0.9597838680502245
vn 0.2807399626532517 0 -0.9597838680502245
vn -0.3793438819441029 0 0.9252557588210831
vn 0.3793438819441029 0 -0.9252557588210831
vn -0.8450063666858145 0 0.5347562437788256
vn -0.8946898334087675 0 0.44668792461291357
vn 0.8946898334087675 0 -0.44668792461291357
vn 0.8450063666858145 0 -0.5347562437788256
vn -0.9160649284544571 0 0.40102998248975136
vn 0.9160649284544571 0 -0.40102998248975136
vn -0.4734739130010223 0 0.880807841533839
vn 0.4734739130010223 0 -0.880807841533839
vn -0.7863905418967716 0 0.6177296460550539
vn 0.7863905418967716 0 -0.6177296460550539
vn -0.99922973653707 0 -0.0392419879728048
vn 0.99922973653707 0 0.0392419879728048
vn -0.5621030846728128 0 0.8270671811898406
vn 0.5621030846728128 0 -0.8270671811898406
vn -0.7193032391719063 0 0.6946962286617105
vn 0.7193032391719063 0 -0.6946962286617105
vn -0.6443129436248397 0 0.7647619437952532
vn 0.6443129436248397 0 -0.7647619437952532
usemtl material_0_0
f 1/1/1 2/2/1 3/3/1
f 4/3/2 5/2/2 6/1/2
f 7/2/1 8/1/1 9/4/1
f 10/4/2 11/1/2 12/2/2
f 13/5/3 14/6/3 15/7/3
f 16/7/4 17/6/4 18/5/4
f 19/8/5 20/9/6 21/10/6
f 22/10/7 23/9/7 24/8/8
f 25/6/3 26/5/3 27/11/3
f 28/11/4 29/5/4 30/6/4
f 31/12/6 32/13/9 33/14/6
f 34/14/7 35/13/10 36/12/7
f 37/9/6 38/8/5 39/15/5
f 40/15/8 41/8/8 42/9/7
f 43/16/9 44/17/11 45/18/9
f 46/18/10 47/17/12 48/16/10
f 49/13/9 50/12/6 51/19/9
f 52/19/10 53/12/7 54/13/10
f 55/20/11 56/21/13 57/22/11
f 58/22/12 59/21/14 60/20/12
f 61/17/11 62/16/9 63/23/11
f 64/23/12 65/16/10 66/17/12
f 67/24/15 68/25/16 69/26/16
f 70/26/17 71/25/17 72/24/18
f 73/27/16 74/28/19 75/29/19
f 76/29/20 77/28/20 78/27/17
f 79/30/13 80/31/21 81/32/13
f 82/32/14 83/31/22 84/30/14
f 85/21/13 86/20/11 87/33/13
f 88/33/14 89/20/12 90/21/14
f 91/34/23 92/35/15 93/36/15
f 94/36/18 95/35/18 96/34/24
f 97/25/16 98/24/15 99/37/15
f 100/37/18 101/24/18 102/25/17
f 103/28/19 104/27/16 105/38/16
f 106/38/17 107/27/17 108/28/20
f 109/39/1 110/40/1 111/41/1
f 112/41/2 113/40/2 114/39/2
f 115/42/25 116/43/25 117/44/25
f 118/44/26 119/43/26 120/42/26
f 121/40/1 122/39/1 123/45/1
f 124/45/2 125/39/2 126/40/2
f 127/46/21 128/47/27 129/48/21
f 130/48/22 131/47/28 132/46/22
f 133/31/21 134/30/13 135/49/21
f 136/49/22 137/30/14 138/31/22
f 139/50/29 140/51/23 141/52/23
f 142/52/24 143/51/24 144/50/30
f 145/35/15 146/34/23 147/53/23
f 148/53/24 149/34/24 150/35/18
f 151/43/25 152/42/25 153/54/25
f 154/54/26 155/42/26 156/43/26
f 157/55/3 158/56/3 159/57/3
f 160/57/4 161/56/4 162/55/4
f 163/58/27 164/59/31 165/60/27
f 166/60/28 167/59/32 168/58/28
f 169/47/27 170/46/21 171/61/27
f 172/61/28 173/46/22 174/47/28
f 175/62/31 176/63/29 177/64/29
f 178/64/30 179/63/30 180/62/32
f 181/51/23 182/50/29 183/65/29
f 184/65/30 185/50/30 186/51/24
f 187/56/3 188/55/3 189/66/3
f 190/66/4 191/55/4 192/56/4
f 193/59/31 194/58/27 195/67/31
f 196/67/32 197/58/28 198/59/32
f 199/63/29 200/62/31 201/68/31
f 202/68/32 203/62/32 204/63/30
