# SSTK version 0.8.0
# 121
mtllib original-121.mtl
o mesh46/mesh46-geometry/material_1/component_10#mesh46-geometry
v -0.156272 0.393704 -0.423666
v -0.156272 0.412940 0.000661
v -0.156272 0.393704 0.000661
v -0.156272 0.393704 0.000661
v -0.156272 0.412940 0.000661
v -0.156272 0.393704 -0.423666
v -0.156272 0.412940 0.000661
v -0.156272 0.393704 -0.423666
v -0.156272 0.412940 -0.423666
v -0.156272 0.412940 -0.423666
v -0.156272 0.393704 -0.423666
v -0.156272 0.412940 0.000661
vt -5.608796119689941 40.3969612121582
vt -24.91114616394043 41.30680847167969
vt -24.91114616394043 40.3969612121582
vt -5.608796119689941 41.30680847167969
vn 1 0 0
vn -1 0 0
usemtl material_0_0
f 1/1/1 2/2/1 3/3/1
f 4/3/2 5/2/2 6/1/2
f 7/2/1 8/1/1 9/4/1
f 10/4/2 11/1/2 12/2/2
