# SSTK version 0.8.0
# 184
mtllib original-184.mtl
o mesh55/mesh55-geometry/material_1#mesh55-geometry
v -0.502826 0.291621 -0.271096
v -0.542291 0.291621 -0.318361
v -0.501108 0.291621 -0.316840
v -0.501108 0.291621 -0.316840
v -0.542291 0.291621 -0.318361
v -0.502826 0.291621 -0.271096
v -0.542291 0.291621 -0.318361
v -0.502826 0.291621 -0.271096
v -0.544010 0.291621 -0.272616
v -0.544010 0.291621 -0.272616
v -0.502826 0.291621 -0.271096
v -0.542291 0.291621 -0.318361
vt -52.88298797607422 13.052128791809082
vt -54.67835998535156 10.814481735229492
vt -52.8046875 10.887800216674805
vt -54.75666046142578 12.978811264038086
vn 0 -1 0
vn 0 1 0
usemtl material_0_0
f 1/1/1 2/2/1 3/3/1
f 4/3/2 5/2/2 6/1/2
f 7/2/1 8/1/1 9/4/1
f 10/4/2 11/1/2 12/2/2
