# SSTK version 0.8.0
# 80
mtllib original-80.mtl
o drawer_handle3/drawer_handle/mesh115/mesh115-geometry#mesh115-geometry
v -0.047226 0.049073 0.218125
v -0.026636 0.049073 0.215506
v -0.047226 0.049073 0.215506
v -0.026636 0.049073 0.218125
v -0.047226 0.035981 0.215506
v -0.027560 0.049073 0.218197
v -0.026636 0.035981 0.215506
v -0.047226 0.035981 0.218125
v -0.028514 0.049073 0.218350
v -0.026636 0.035981 0.218125
v -0.038094 0.035981 0.226049
v -0.029453 0.049073 0.218580
v -0.027560 0.035981 0.218197
v -0.038094 0.049073 0.226049
v -0.035703 0.035981 0.222902
v -0.030370 0.049073 0.218885
v -0.028514 0.035981 0.218350
v -0.028012 0.035981 0.232722
v -0.035703 0.049073 0.222902
v -0.035094 0.035981 0.222152
v -0.026050 0.035981 0.229293
v -0.031259 0.049073 0.219263
v -0.029453 0.035981 0.218580
v -0.028012 0.049073 0.232722
v -0.035094 0.049073 0.222152
v -0.026050 0.049073 0.229293
v -0.034426 0.035981 0.221453
v -0.032115 0.049073 0.219713
v -0.030370 0.035981 0.218885
v -0.017151 0.035981 0.238034
v -0.015649 0.035981 0.234378
v -0.034426 0.049073 0.221453
v -0.033704 0.035981 0.220811
v -0.015649 0.049073 0.234378
v -0.032932 0.049073 0.220230
v -0.031259 0.035981 0.219263
v -0.017151 0.049073 0.238034
v -0.033704 0.049073 0.220811
v -0.032932 0.035981 0.220230
v -0.032115 0.035981 0.219713
v -0.005693 0.035981 0.241893
v -0.004678 0.035981 0.238074
v -0.004678 0.049073 0.238074
v -0.005693 0.049073 0.241893
v 0.006168 0.035981 0.244234
v 0.006680 0.035981 0.240316
v 0.006680 0.049073 0.240316
v 0.006168 0.049073 0.244234
v 0.030298 0.035981 0.244234
v 0.018233 0.035981 0.241068
v 0.018233 0.035981 0.245019
v 0.042159 0.049073 0.241893
v 0.042159 0.035981 0.241893
v 0.018233 0.049073 0.241068
v 0.018233 0.049073 0.245019
v 0.030298 0.049073 0.244234
v 0.029786 0.049073 0.240316
v 0.029786 0.035981 0.240316
v 0.041144 0.035981 0.238074
v 0.041144 0.049073 0.238074
v 0.053617 0.035981 0.238034
v 0.053617 0.049073 0.238034
v 0.052115 0.035981 0.234378
v 0.052115 0.049073 0.234378
v 0.064478 0.035981 0.232722
v 0.064478 0.049073 0.232722
v 0.062516 0.035981 0.229293
v 0.062516 0.049073 0.229293
v 0.074560 0.035981 0.226049
v 0.074560 0.049073 0.226049
v 0.072169 0.035981 0.222902
v 0.072169 0.049073 0.222902
v 0.083691 0.035981 0.218125
v 0.083691 0.049073 0.218125
v 0.071435 0.035981 0.222175
v 0.071435 0.049073 0.222175
v 0.083691 0.035981 0.215506
v 0.070653 0.035981 0.221499
v 0.070653 0.049073 0.221499
v 0.083691 0.049073 0.215506
v 0.061093 0.035981 0.215506
v 0.069827 0.035981 0.220878
v 0.069827 0.049073 0.220878
v 0.061093 0.049073 0.218125
v 0.061093 0.035981 0.218125
v 0.068961 0.035981 0.220315
v 0.068961 0.049073 0.220315
v 0.061093 0.049073 0.215506
v 0.062125 0.049073 0.218160
v 0.062125 0.035981 0.218160
v 0.068058 0.035981 0.219811
v 0.068058 0.049073 0.219811
v 0.063153 0.049073 0.218265
v 0.063153 0.035981 0.218265
v 0.067124 0.035981 0.219370
v 0.067124 0.049073 0.219370
v 0.064172 0.049073 0.218439
v 0.064172 0.035981 0.218439
v 0.066162 0.035981 0.218993
v 0.066162 0.049073 0.218993
v 0.065176 0.049073 0.218683
v 0.065176 0.035981 0.218683
vt 0 0
vt -0.154798 -0.019685
vt 0 -0.019685
vt -0.154798 0
vt -0.154798 0.098425
vt 0 0.098425
vt -0.098425 0
vt -0.098425 -0.019685
vt -0.147851 0.000542
vt 0.098425 0
vt 0.098425 -0.019685
vt -0.140676 0.001693
vt 0.098425 -0.14736
vt 0 -0.154329
vt 0.098425 -0.154329
vt 0.154798 0
vt 0.154798 -0.019685
vt 0.090961 -0.098425
vt 0 -0.098425
vt -0.133618 0.003421
vt 0.098425 -0.138634
vt 0 -0.1459
vt 0.098425 -0.1459
vt 0 -0.14736
vt 0.147851 0.000542
vt 0.090961 0
vt 0.086627 0.035917
vt 0.068653 0.059573
vt -0.126723 0.005715
vt 0.098425 -0.128972
vt 0 -0.136238
vt 0.098425 -0.136238
vt 0 -0.138634
vt 0.140676 0.001693
vt 0.181921 -0.098425
vt -0.086627 0.035917
vt -0.068653 0.059573
vt 0.091207 0.030275
vt 0.159204 0.083962
vt -0.120037 0.00856
vt 0.098425 -0.118439
vt 0 -0.125705
vt 0.098425 -0.125705
vt 0 -0.128972
vt 0.133618 0.003421
vt 0.181921 0
vt 0.144447 0.109748
vt -0.091207 0.030275
vt -0.159204 0.083962
vt 0.096229 0.025024
vt 0 -0.033984
vt 0.098425 -0.026717
vt 0 -0.026717
vt 0 0.092059
vt 0.098425 0.179098
vt 0 0.179098
vt -0.113603 0.011937
vt 0.098425 -0.107103
vt 0 -0.114369
vt 0.098425 -0.114369
vt 0 -0.118439
vt 0.126723 0.005715
vt 0.272882 -0.098425
vt -0.144447 0.109748
vt 0.237394 0.122197
vt -0.096229 0.025024
vt 0.098425 -0.033984
vt 0.098425 0.092059
vt 0.10166 0.020196
vt 0.098425 -0.04842
vt 0 -0.041154
vt 0 -0.04842
vt 0.098425 0.266942
vt 0 0.179903
vt 0.098425 0.179903
vt -0.107464 0.015824
vt 0.098425 -0.09504
vt 0 -0.102306
vt 0.098425 -0.102306
vt 0 -0.107103
vt 0.120037 0.00856
vt 0.272882 0
vt 0.226104 0.149678
vt -0.237394 0.122197
vt 0 0.266942
vt -0.10166 0.020196
vt 0.098425 -0.041154
vt 0.107464 0.015824
vt 0 -0.062562
vt 0.098425 -0.055296
vt 0 -0.055296
vt 0.098425 -0.082328
vt 0 -0.089594
vt 0.098425 -0.089594
vt 0 -0.09504
vt 0.113603 0.011937
vt 0.363843 -0.098425
vt -0.226104 0.149678
vt 0.31988 0.149978
vt 0.098425 0.351019
vt 0 0.26398
vt 0.098425 0.26398
vt 0.098425 -0.062562
vt 0 -0.076317
vt 0.098425 -0.069051
vt 0 -0.069051
vt 0.098425 -0.076317
vt 0 -0.082328
vt 0.363843 0
vt 0.312246 0.17869
vt -0.31988 0.149978
vt 0 0.351019
vt 0.454803 -0.098425
vt -0.312246 0.17869
vt 0.405271 0.166836
vt 0.098425 0.42991
vt 0 0.342872
vt 0.098425 0.342872
vt 0.454803 0
vt 0.582831 0.196296
vt 0.401421 0.196296
vt -0.405271 0.166836
vt 0 0.42991
vt 0.492126 0.172488
vt 0.545764 -0.098425
vt -0.672006 0.17869
vt -0.401421 0.196296
vt 0.672006 0.17869
vt 0.492126 0.202197
vt -0.492126 0.172488
vt 0.098425 0.502287
vt 0 0.415248
vt 0.098425 0.415248
vt 0 0.502287
vt 0.545764 0
vt -0.582831 0.196296
vt 0.727685 -0.098425
vt 0.636724 0
vt 0.636724 -0.098425
vt -0.098425 -0.566927
vt 0 -0.479888
vt -0.098425 -0.479888
vt 0.578981 0.166836
vt -0.492126 0.202197
vt -0.578981 0.166836
vt 0.727685 0
vt 0 -0.566927
vt 0.664372 0.149978
vt -0.664372 0.149978
vt 0.818646 -0.098425
vt -0.098425 -0.622742
vt 0 -0.535703
vt -0.098425 -0.535703
vt 0.758148 0.149678
vt 0 -0.622742
vt -0.758148 0.149678
vt 0.818646 0
vt 0.746858 0.122197
vt -0.098425 -0.66879
vt 0 -0.581751
vt -0.098425 -0.581751
vt -0.746858 0.122197
vt 0.909606 -0.098425
vt 0.839805 0.109748
vt 0 -0.66879
vt -0.839805 0.109748
vt 0.909606 0
vt 0.825048 0.083962
vt -0.098425 -0.704294
vt 0 -0.617255
vt -0.098425 -0.617255
vt -0.825048 0.083962
vt 1.000567 -0.098425
vt 0.915599 0.059573
vt 0 -0.704294
vt -0.915599 0.059573
vt 1.000567 0
vt 0.897625 0.035917
vt -0.098425 -0.728656
vt 0 -0.641617
vt -0.098425 -0.641617
vt -0.897625 0.035917
vt 1.091528 -0.098425
vt 0.984252 0
vt 0 -0.728656
vt -0.984252 0
vt 1.091528 0
vt 0.892105 0.03045
vt 0.085475 0
vt 0.093245 -0.098425
vt 0.093245 0
vt -0.892105 0.03045
vt 0.886226 0.025371
vt 0.085475 -0.098425
vt -0.886226 0.025371
vt 0.814351 -0.019685
vt 0.984252 -0.019685
vt 0.880017 0.020702
vt 0.077704 0
vt 0.077704 -0.098425
vt -0.880017 0.020702
vt -0.814351 0
vt -0.984252 0.098425
vt -0.984252 -0.019685
vt 0.814351 0
vt 0.873505 0.016465
vt 0.069934 0
vt 0.069934 -0.098425
vt -0.873505 0.016465
vt -0.814351 0.098425
vt -0.814351 -0.019685
vt -0.822115 0.000264
vt 0.822115 0.000264
vt 0.866721 0.012679
vt 0.062164 0
vt 0.062164 -0.098425
vt -0.866721 0.012679
vt 0.00777 -0.098425
vt 0.00777 0
vt -0.829844 0.001053
vt 0.829844 0.001053
vt 0.859696 0.009362
vt 0.054393 0
vt 0.054393 -0.098425
vt -0.859696 0.009362
vt 0.015541 -0.098425
vt 0.015541 0
vt -0.837501 0.002365
vt 0.837501 0.002365
vt 0.852462 0.006529
vt 0.046623 0
vt 0.046623 -0.098425
vt -0.852462 0.006529
vt 0.023311 -0.098425
vt 0.023311 0
vt -0.845052 0.004193
vt 0.845052 0.004193
vt 0.038852 0
vt 0.038852 -0.098425
vt 0.031082 -0.098425
vt 0.031082 0
vn 0 1 0
vn 0 0 -1
vn -1 0 0
vn 1 0 0
vn 0.11817398863609437 0 0.9929929045113245
vn 0.07782400879158421 0 0.9969671126248887
vn 0 -1 0
vn -0.6049707615372095 0 0.7962476861411207
vn -0.6553919517680696 0 0.7552889444164005
vn 0.1982239505604751 0 0.9801567555366836
vn 0.27697107398937015 0 0.9608782566866495
vn -0.4966919453159583 0 0.8679269044442909
vn 0.35389713319540433 0 0.9352843520106995
vn 0.7501596828141743 0 0.6612567204045169
vn 0.7763482524995466 0 0.6303042050001729
vn 0.5519958886555406 0 -0.8338468318026879
vn 0.4966919453159583 0 -0.8679269044442909
vn 0.4284978952637721 0 0.903542779150228
vn -0.3800379558614443 0 0.9249708925715744
vn 0.69412881576366 0 0.7198508089365039
vn 0.3800379558614443 0 -0.9249708925715744
vn 0.5002822294875158 0 0.8658623971850264
vn 0.6335350158317234 0 0.7737140193347267
vn 0.5687780402794403 0 0.8224910582467626
vn -0.25697594663895024 0 0.9664177993233649
vn 0.25697594663895024 0 -0.9664177993233649
vn -0.12957999623174898 0 0.991568971164679
vn 0.12957999623174898 0 -0.991568971164679
vn 0 0 1
vn 0.25697594663895024 0 0.9664177993233649
vn 0.12957999623174898 0 0.991568971164679
vn -0.12957999623174898 0 -0.991568971164679
vn 0.3800379558614443 0 0.9249708925715744
vn -0.25697594663895024 0 -0.9664177993233649
vn -0.3800379558614443 0 -0.9249708925715744
vn 0.4966919453159583 0 0.8679269044442909
vn -0.4966919453159583 0 -0.8679269044442909
vn 0.6049707615372095 0 0.7962476861411207
vn -0.5519958886555406 0 -0.8338468318026879
vn 0.6553919517680696 0 0.7552889444164005
vn -0.6790962337391917 0 0.7340492526535569
vn -0.703609172577761 0 0.7105871742892905
vn -0.6277538975945152 0 0.7784118730176816
vn -0.5735209334939428 0 0.8191909050058089
vn -0.5166479557987027 0 0.8561979267488458
vn -0.03392701063433833 0 0.9994243132671016
vn -0.06781399871831544 0 0.9976979811435083
vn -0.4573960494022065 0 0.8892630960470892
vn -0.13531606609785496 0 0.9908024839774076
vn -0.3960380443166597 0 0.9182341027504018
vn -0.20219601501901946 0 0.979345072745265
vn -0.3328570990286632 0 0.9429772805461555
vn -0.26814395945972 0 0.963378854348207
vn -0.07782400879158421 0 -0.9969671126248887
vn -0.11817398863609437 0 -0.9929929045113245
vn 0.6553919517680696 0 -0.7552889444164005
vn 0.6049707615372095 0 -0.7962476861411207
vn -0.1982239505604751 0 -0.9801567555366836
vn -0.27697107398937015 0 -0.9608782566866495
vn -0.35389713319540433 0 -0.9352843520106995
vn -0.7763482524995466 0 -0.6303042050001729
vn -0.7501596828141743 0 -0.6612567204045169
vn -0.5519958886555406 0 0.8338468318026879
vn -0.4284978952637721 0 -0.903542779150228
vn -0.69412881576366 0 -0.7198508089365039
vn -0.5002822294875158 0 -0.8658623971850264
vn -0.6335350158317234 0 -0.7737140193347267
vn -0.5687780402794403 0 -0.8224910582467626
vn -0.6049707615372095 0 -0.7962476861411207
vn 0.5519958886555406 0 0.8338468318026879
vn -0.6553919517680696 0 -0.7552889444164005
vn 0.703609172577761 0 -0.7105871742892905
vn 0.6790962337391917 0 -0.7340492526535569
vn 0.6277538975945152 0 -0.7784118730176816
vn 0.5735209334939428 0 -0.8191909050058089
vn 0.5166479557987027 0 -0.8561979267488458
vn 0.06781399871831544 0 -0.9976979811435083
vn 0.03392701063433833 0 -0.9994243132671016
vn 0.4573960494022065 0 -0.8892630960470892
vn 0.13531606609785496 0 -0.9908024839774076
vn 0.3960380443166597 0 -0.9182341027504018
vn 0.20219601501901946 0 -0.979345072745265
vn 0.3328570990286632 0 -0.9429772805461555
vn 0.26814395945972 0 -0.963378854348207
usemtl material_0_0
f 1/1/1 2/2/1 3/3/1
f 2/2/1 1/1/1 4/4/1
f 2/5/2 5/1/2 3/6/2
f 5/3/3 1/7/3 3/8/3
f 4/4/1 1/1/1 6/9/1
f 4/10/4 7/3/4 2/11/4
f 5/1/2 2/5/2 7/4/2
f 1/7/3 5/3/3 8/1/3
f 6/9/1 1/1/1 9/12/1
f 6/13/5 10/14/6 4/15/6
f 7/3/4 4/10/4 10/1/4
f 10/16/7 5/3/7 7/17/7
f 5/3/7 10/16/7 8/1/7
f 11/18/8 1/1/9 8/19/9
f 9/12/1 1/1/1 12/20/1
f 9/21/10 13/22/5 6/23/5
f 10/14/6 6/13/5 13/24/5
f 8/1/7 10/16/7 13/25/7
f 1/1/9 11/18/8 14/26/8
f 8/1/7 15/27/7 11/28/7
f 12/20/1 1/1/1 16/29/1
f 12/30/11 17/31/10 9/32/10
f 13/22/5 9/21/10 17/33/10
f 8/1/7 13/25/7 17/34/7
f 18/35/12 14/26/8 11/18/8
f 19/36/1 1/1/1 14/37/1
f 8/1/7 20/38/7 15/27/7
f 11/28/7 15/27/7 21/39/7
f 16/29/1 1/1/1 22/40/1
f 16/41/13 23/42/11 12/43/11
f 17/31/10 12/30/11 23/44/11
f 8/1/7 17/34/7 23/45/7
f 14/26/8 18/35/12 24/46/12
f 11/28/7 21/39/7 18/47/7
f 25/48/1 1/1/1 19/36/1
f 19/36/1 14/37/1 26/49/1
f 8/1/7 27/50/7 20/38/7
f 20/51/14 19/52/15 15/53/15
f 15/54/16 26/55/17 21/56/17
f 22/40/1 1/1/1 28/57/1
f 22/58/18 29/59/13 16/60/13
f 23/42/11 16/41/13 29/61/13
f 8/1/7 23/45/7 29/62/7
f 30/63/19 24/46/12 18/35/12
f 26/49/1 14/37/1 24/64/1
f 18/47/7 21/39/7 31/65/7
f 32/66/1 1/1/1 25/48/1
f 19/52/15 20/51/14 25/67/14
f 26/55/17 15/54/16 19/68/16
f 8/1/7 33/69/7 27/50/7
f 32/70/20 20/71/14 27/72/20
f 34/73/21 21/74/17 26/75/17
f 28/57/1 1/1/1 35/76/1
f 28/77/22 36/78/18 22/79/18
f 29/59/13 22/58/18 36/80/18
f 8/1/7 29/62/7 36/81/7
f 24/46/12 30/63/19 37/82/19
f 18/47/7 31/65/7 30/83/7
f 26/49/1 24/64/1 34/84/1
f 21/74/17 34/73/21 31/85/21
f 38/86/1 1/1/1 32/66/1
f 20/71/14 32/70/20 25/87/14
f 8/1/7 39/88/7 33/69/7
f 33/89/23 32/90/20 27/91/20
f 35/76/1 1/1/1 38/86/1
f 35/92/24 40/93/22 28/94/22
f 36/78/18 28/77/22 40/95/22
f 8/1/7 36/81/7 40/96/7
f 41/97/25 37/82/19 30/63/19
f 34/84/1 24/64/1 37/98/1
f 30/83/7 31/65/7 42/99/7
f 43/100/26 31/101/21 34/102/21
f 32/90/20 33/89/23 38/103/23
f 8/1/7 40/96/7 39/88/7
f 39/104/24 38/105/23 33/106/23
f 38/105/23 39/104/24 35/107/24
f 40/93/22 35/92/24 39/108/24
f 37/82/19 41/97/25 44/109/25
f 30/83/7 42/99/7 41/110/7
f 34/84/1 37/98/1 43/111/1
f 31/101/21 43/100/26 42/112/26
f 45/113/27 44/109/25 41/97/25
f 43/111/1 37/98/1 44/114/1
f 41/110/7 42/99/7 46/115/7
f 47/116/28 42/117/26 43/118/26
f 44/109/25 45/113/27 48/119/27
f 41/110/7 49/120/7 45/121/7
f 43/111/1 44/114/1 47/122/1
f 42/117/26 47/116/28 46/123/28
f 41/110/7 46/115/7 50/124/7
f 51/125/29 48/119/27 45/113/27
f 52/126/1 44/114/1 48/127/1
f 41/110/7 53/128/7 49/120/7
f 45/121/7 49/120/7 51/129/7
f 47/122/1 44/114/1 54/130/1
f 54/131/2 46/132/28 47/133/28
f 46/132/28 54/131/2 50/134/2
f 41/110/7 50/124/7 53/128/7
f 48/119/27 51/125/29 55/135/29
f 52/126/1 54/130/1 44/114/1
f 52/126/1 48/127/1 56/136/1
f 53/137/30 56/138/31 49/139/31
f 49/139/31 55/135/29 51/125/29
f 57/140/32 50/141/2 54/142/2
f 58/143/7 53/128/7 50/124/7
f 56/136/1 48/127/1 55/144/1
f 52/126/1 57/145/1 54/130/1
f 56/138/31 53/137/30 52/146/30
f 55/135/29 49/139/31 56/138/31
f 50/141/2 57/140/32 58/147/32
f 59/148/7 53/128/7 58/143/7
f 52/126/1 60/149/1 57/145/1
f 61/150/33 52/146/30 53/137/30
f 60/151/34 58/152/32 57/153/32
f 59/148/7 61/154/7 53/128/7
f 58/152/32 60/151/34 59/155/34
f 62/156/1 60/149/1 52/126/1
f 52/146/30 61/150/33 62/157/33
f 63/158/7 61/154/7 59/148/7
f 64/159/35 59/160/34 60/161/34
f 62/156/1 64/162/1 60/149/1
f 65/163/36 62/157/33 61/150/33
f 63/158/7 65/164/7 61/154/7
f 59/160/34 64/159/35 63/165/35
f 66/166/1 64/162/1 62/156/1
f 62/157/33 65/163/36 66/167/36
f 67/168/7 65/164/7 63/158/7
f 68/169/37 63/170/35 64/171/35
f 66/166/1 68/172/1 64/162/1
f 69/173/38 66/167/36 65/163/36
f 67/168/7 69/174/7 65/164/7
f 63/170/35 68/169/37 67/175/37
f 70/176/1 68/172/1 66/166/1
f 66/167/36 69/173/38 70/177/38
f 71/178/7 69/174/7 67/168/7
f 72/179/39 67/180/37 68/181/37
f 70/176/1 72/182/1 68/172/1
f 73/183/40 70/177/38 69/173/38
f 71/178/7 73/184/7 69/174/7
f 67/180/37 72/179/39 71/185/39
f 74/186/1 72/182/1 70/176/1
f 70/177/38 73/183/40 74/187/40
f 75/188/7 73/184/7 71/178/7
f 76/189/41 71/190/42 72/191/42
f 74/186/1 76/192/1 72/182/1
f 77/3/4 74/10/4 73/1/4
f 78/193/7 73/184/7 75/188/7
f 71/190/42 76/189/41 75/194/41
f 74/186/1 79/195/1 76/192/1
f 74/10/4 77/3/4 80/11/4
f 73/184/7 81/196/7 77/197/7
f 82/198/7 73/184/7 78/193/7
f 75/194/41 79/199/43 78/200/43
f 79/199/43 75/194/41 76/189/41
f 74/186/1 83/201/1 79/195/1
f 81/202/2 80/203/2 77/186/2
f 80/204/1 84/202/1 74/186/1
f 81/196/7 73/184/7 85/205/7
f 86/206/7 73/184/7 82/198/7
f 78/200/43 83/207/44 82/208/44
f 83/207/44 78/200/43 79/199/43
f 74/186/1 87/209/1 83/201/1
f 80/203/2 81/202/2 88/210/2
f 84/202/1 80/204/1 88/211/1
f 74/186/1 84/202/1 89/212/1
f 85/205/7 73/184/7 90/213/7
f 84/7/3 81/3/3 85/1/3
f 91/214/7 73/184/7 86/206/7
f 82/208/44 87/215/45 86/216/45
f 87/215/45 82/208/44 83/207/44
f 74/186/1 92/217/1 87/209/1
f 81/3/3 84/7/3 88/8/3
f 84/1/46 90/218/47 89/219/47
f 74/186/1 89/212/1 93/220/1
f 90/213/7 73/184/7 94/221/7
f 90/218/47 84/1/46 85/19/46
f 95/222/7 73/184/7 91/214/7
f 86/216/45 92/223/48 91/224/48
f 92/223/48 86/216/45 87/215/45
f 74/186/1 96/225/1 92/217/1
f 94/226/49 89/219/47 90/218/47
f 89/219/47 94/226/49 93/227/49
f 74/186/1 93/220/1 97/228/1
f 94/221/7 73/184/7 98/229/7
f 99/230/7 73/184/7 95/222/7
f 91/224/48 96/231/50 95/232/50
f 96/231/50 91/224/48 92/223/48
f 74/186/1 100/233/1 96/225/1
f 98/234/51 93/227/49 94/226/49
f 93/227/49 98/234/51 97/235/51
f 74/186/1 97/228/1 101/236/1
f 98/229/7 73/184/7 102/237/7
f 102/237/7 73/184/7 99/230/7
f 95/232/50 100/238/52 99/239/52
f 100/238/52 95/232/50 96/231/50
f 74/186/1 101/236/1 100/233/1
f 102/240/53 97/235/51 98/234/51
f 97/235/51 102/240/53 101/241/53
f 99/239/52 101/241/53 102/240/53
f 101/241/53 99/239/52 100/238/52
usemtl material_1_0
f 3//7 2//7 1//7
f 4//7 1//7 2//7
f 3//29 5//29 2//29
f 3//4 1//4 5//4
f 6//7 1//7 4//7
f 2//3 7//3 4//3
f 7//29 2//29 5//29
f 8//4 5//4 1//4
f 9//7 1//7 6//7
f 4//54 10//54 6//55
f 10//3 4//3 7//3
f 7//1 5//1 10//1
f 8//1 10//1 5//1
f 8//56 1//56 11//57
f 12//7 1//7 9//7
f 6//55 13//55 9//58
f 13//55 6//55 10//54
f 13//1 10//1 8//1
f 14//57 11//57 1//56
f 11//1 15//1 8//1
f 16//7 1//7 12//7
f 9//58 17//58 12//59
f 17//58 9//58 13//55
f 17//1 13//1 8//1
f 11//57 14//57 18//17
f 14//7 1//7 19//7
f 15//1 20//1 8//1
f 21//1 15//1 11//1
f 22//7 1//7 16//7
f 12//59 23//59 16//60
f 23//59 12//59 17//58
f 23//1 17//1 8//1
f 24//17 18//17 14//57
f 18//1 21//1 11//1
f 19//7 1//7 25//7
f 26//7 14//7 19//7
f 20//1 27//1 8//1
f 15//61 19//61 20//62
f 21//12 26//12 15//63
f 28//7 1//7 22//7
f 16//60 29//60 22//64
f 29//60 16//60 23//59
f 29//1 23//1 8//1
f 18//17 24//17 30//21
f 24//7 14//7 26//7
f 31//1 21//1 18//1
f 25//7 1//7 32//7
f 25//62 20//62 19//61
f 19//63 15//63 26//12
f 27//1 33//1 8//1
f 27//65 20//62 32//65
f 26//12 21//12 34//19
f 35//7 1//7 28//7
f 22//64 36//64 28//66
f 36//64 22//64 29//60
f 36//1 29//1 8//1
f 37//21 30//21 24//17
f 30//1 31//1 18//1
f 34//7 24//7 26//7
f 31//19 34//19 21//12
f 32//7 1//7 38//7
f 25//62 32//65 20//62
f 33//1 39//1 8//1
f 27//65 32//65 33//67
f 38//7 1//7 35//7
f 28//66 40//66 35//68
f 40//66 28//66 36//64
f 40//1 36//1 8//1
f 30//21 37//21 41//26
f 37//7 24//7 34//7
f 42//1 31//1 30//1
f 34//19 31//19 43//25
f 38//67 33//67 32//65
f 39//1 40//1 8//1
f 33//67 38//67 39//68
f 35//68 39//68 38//67
f 39//68 35//68 40//66
f 44//26 41//26 37//21
f 41//1 42//1 30//1
f 43//7 37//7 34//7
f 42//25 43//25 31//19
f 41//26 44//26 45//28
f 44//7 37//7 43//7
f 46//1 42//1 41//1
f 43//25 42//25 47//27
f 48//28 45//28 44//26
f 45//1 49//1 41//1
f 47//7 44//7 43//7
f 46//27 47//27 42//25
f 50//1 46//1 41//1
f 45//28 48//28 51//2
f 48//7 44//7 52//7
f 49//1 53//1 41//1
f 51//1 49//1 45//1
f 54//7 44//7 47//7
f 47//27 46//27 54//29
f 50//29 54//29 46//27
f 53//1 50//1 41//1
f 55//2 51//2 48//28
f 44//7 54//7 52//7
f 56//7 48//7 52//7
f 49//32 56//32 53//34
f 51//2 55//2 49//32
f 54//29 50//29 57//31
f 50//1 53//1 58//1
f 55//7 48//7 56//7
f 54//7 57//7 52//7
f 52//34 53//34 56//32
f 56//32 49//32 55//2
f 58//31 57//31 50//29
f 58//1 53//1 59//1
f 57//7 60//7 52//7
f 53//34 52//34 61//35
f 57//31 58//31 60//30
f 53//1 61//1 59//1
f 59//30 60//30 58//31
f 52//7 60//7 62//7
f 62//35 61//35 52//34
f 59//1 61//1 63//1
f 60//30 59//30 64//33
f 60//7 64//7 62//7
f 61//35 62//35 65//37
f 61//1 65//1 63//1
f 63//33 64//33 59//30
f 62//7 64//7 66//7
f 66//37 65//37 62//35
f 63//1 65//1 67//1
f 64//33 63//33 68//36
f 64//7 68//7 66//7
f 65//37 66//37 69//69
f 65//1 69//1 67//1
f 67//36 68//36 63//33
f 66//7 68//7 70//7
f 70//69 69//69 66//37
f 67//1 69//1 71//1
f 68//36 67//36 72//70
f 68//7 72//7 70//7
f 69//69 70//69 73//71
f 69//1 73//1 71//1
f 71//70 72//70 67//36
f 70//7 72//7 74//7
f 74//71 73//71 70//69
f 71//1 73//1 75//1
f 72//72 71//72 76//73
f 72//7 76//7 74//7
f 73//3 74//3 77//3
f 75//1 73//1 78//1
f 75//73 76//73 71//72
f 76//7 79//7 74//7
f 80//3 77//3 74//3
f 77//1 81//1 73//1
f 78//1 73//1 82//1
f 78//74 79//74 75//73
f 76//73 75//73 79//74
f 79//7 83//7 74//7
f 77//29 80//29 81//29
f 74//7 84//7 80//7
f 85//1 73//1 81//1
f 82//1 73//1 86//1
f 82//75 83//75 78//74
f 79//74 78//74 83//75
f 83//7 87//7 74//7
f 88//29 81//29 80//29
f 88//7 80//7 84//7
f 89//7 84//7 74//7
f 90//1 73//1 85//1
f 85//4 81//4 84//4
f 86//1 73//1 91//1
f 86//76 87//76 82//75
f 83//75 82//75 87//76
f 87//7 92//7 74//7
f 88//4 84//4 81//4
f 89//77 90//77 84//78
f 93//7 89//7 74//7
f 94//1 73//1 90//1
f 85//78 84//78 90//77
f 91//1 73//1 95//1
f 91//79 92//79 86//76
f 87//76 86//76 92//79
f 92//7 96//7 74//7
f 90//77 89//77 94//80
f 93//80 94//80 89//77
f 97//7 93//7 74//7
f 98//1 73//1 94//1
f 95//1 73//1 99//1
f 95//81 96//81 91//79
f 92//79 91//79 96//81
f 96//7 100//7 74//7
f 94//80 93//80 98//82
f 97//82 98//82 93//80
f 101//7 97//7 74//7
f 102//1 73//1 98//1
f 99//1 73//1 102//1
f 99//83 100//83 95//81
f 96//81 95//81 100//83
f 100//7 101//7 74//7
f 98//82 97//82 102//84
f 101//84 102//84 97//82
f 102//84 101//84 99//83
f 100//83 99//83 101//84
