# SSTK version 0.8.0
# 7
mtllib original-7.mtl
o #ID44
v -0.236817 0.556219 0.451278
v 0.242660 0.556219 0.404561
v -0.236817 0.556219 0.404561
v 0.242660 0.556219 0.451278
v 0.242660 0.556219 0.451278
v -0.236817 0.556219 0.451278
v 0.242660 0.556219 0.404561
v -0.236817 0.556219 0.404561
vt 0.8821697 0.01518604
vt 0.308424 0.01518604
vt 0.8821697 0.0710874
vt 0.308424 0.0710874
vn 0 1 0
vn 0 -1 0
usemtl material_0_0
f 5/1/2 6/2/2 7/3/2
f 8/4/2 7/3/2 6/2/2
usemtl material_1_0
f 1//1 2//1 3//1
f 2//1 1//1 4//1
